<svg xmlns="http://www.w3.org/2000/svg" width="128.882" height="130.784" viewBox="0 0 128.882 130.784">
  <g id="Anxiety-pana" transform="translate(-20.769 -18.999)">
    <g id="freepik--background-complete--inject-200" transform="translate(22.388 19.984)">
      <path id="Path_780" data-name="Path 780" d="M30.494,82.761a5.86,5.86,0,0,1,1.4-.643l.264-1.4,2.366-.1L34.894,82a5.705,5.705,0,0,1,1.448.536l1.181-.808,1.74,1.608-.718,1.24a5.82,5.82,0,0,1,.645,1.4l1.4.264.107,2.366-1.4.37a5.812,5.812,0,0,1-.536,1.448l.817,1.181L37.97,93.355l-1.238-.716a5.84,5.84,0,0,1-1.4.645l-.261,1.4-2.368.09-.37-1.383a5.784,5.784,0,0,1-1.451-.539l-1.181.811L27.96,92.055l.718-1.226a5.733,5.733,0,0,1-.645-1.4l-1.4-.261L26.54,86.8l1.383-.37a5.893,5.893,0,0,1,.536-1.448L27.651,83.8l1.608-1.737,1.24.716Zm1.327,3.129a2.542,2.542,0,1,0,3.592-.135A2.542,2.542,0,0,0,31.821,85.89Z" transform="translate(-26.54 -64.313)" fill="#f5f5f5"/>
      <path id="Path_781" data-name="Path 781" d="M417.34,261.328a5.819,5.819,0,0,1,1.4-.645l.264-1.4,2.366-.09.37,1.383a5.7,5.7,0,0,1,1.448.533l1.181-.808,1.737,1.611-.716,1.238a5.893,5.893,0,0,1,.645,1.4l1.4.261.09,2.368-1.381.376a5.785,5.785,0,0,1-.536,1.448l.811,1.181-1.611,1.737-1.24-.718a5.812,5.812,0,0,1-1.4.643l-.261,1.4-2.368.09-.376-1.381a5.852,5.852,0,0,1-1.448-.536l-1.181.808-1.737-1.608.716-1.24a5.859,5.859,0,0,1-.643-1.4l-1.4-.264-.09-2.366,1.383-.37a5.705,5.705,0,0,1,.536-1.448l-.808-1.181,1.608-1.737Zm1.327,3.14a2.542,2.542,0,1,0,3.592-.137A2.542,2.542,0,0,0,418.667,264.468Z" transform="translate(-304.825 -192.773)" fill="#f5f5f5"/>
      <path id="Path_782" data-name="Path 782" d="M47.131,40.576a2.736,2.736,0,0,1,.651-.3l.123-.654,1.1-.042.171.643a2.826,2.826,0,0,1,.673.25l.561-.376.805.749-.331.561a2.638,2.638,0,0,1,.3.654l.657.121.042,1.1-.645.171a2.663,2.663,0,0,1-.247.673l.376.561-.749.808-.575-.334a2.806,2.806,0,0,1-.654.3l-.121.654-1.111.036-.174-.643a2.753,2.753,0,0,1-.673-.25l-.547.376-.808-.749.334-.575a2.629,2.629,0,0,1-.3-.651l-.654-.123-.042-1.1.643-.171a2.669,2.669,0,0,1,.25-.673l-.376-.561.746-.808.578.334Zm.617,1.454a1.181,1.181,0,1,0,1.67-.062A1.181,1.181,0,0,0,47.748,42.03Z" transform="translate(-40.028 -34.79)" fill="#f5f5f5"/>
      <path id="Path_783" data-name="Path 783" d="M48.271,375.994l-2.927,1.2a2.686,2.686,0,0,1-1.529,3.547,2.565,2.565,0,0,1-2.913-.561,2.846,2.846,0,0,1-.76-2.458c.16-1.021.946-2.208,3.059-2.669l-2.7-6.611-2.893,1.184,1.58,3.867a6.1,6.1,0,0,0-1.8,7.173c1.751,4.28,6,3.7,7.638,3.031C46.284,383.189,50.44,381.135,48.271,375.994Z" transform="translate(-33.973 -271.365)" fill="#ebebeb"/>
      <rect id="Rectangle_45" data-name="Rectangle 45" width="3.174" height="2.963" transform="matrix(-0.926, 0.379, -0.379, -0.926, 5.986, 95.709)" fill="#ebebeb"/>
      <path id="Path_784" data-name="Path 784" d="M442,124.247l2.708,1.137a2.5,2.5,0,0,1,3.334-1.325,2.377,2.377,0,0,1,1.538,2.29,2.635,2.635,0,0,1-1.122,2.113c-.777.561-2.071.842-3.763-.255l-2.559,6.106,2.677,1.122,1.5-3.578a5.664,5.664,0,0,0,5.893-3.536c1.661-3.96-1.507-6.37-3.025-7.016C448.028,120.818,443.964,119.448,442,124.247Z" transform="translate(-325.413 -93.179)" fill="#ebebeb"/>
      <rect id="Rectangle_46" data-name="Rectangle 46" width="2.947" height="2.753" transform="translate(116.187 42.393) rotate(22.75)" fill="#ebebeb"/>
      <path id="Path_785" data-name="Path 785" d="M427.914,83.48l-5.831,2.489.7.867L418.14,89.6l6.752-2.666-.718-.9Z" transform="translate(-308.249 -66.371)" fill="#e0e0e0"/>
      <path id="Path_786" data-name="Path 786" d="M378.1,22.51,376.94,33.148l1.852-.306.224,9.109,1.664-12.14-1.908.317Z" transform="translate(-278.61 -22.51)" fill="#e0e0e0"/>
      <path id="Path_787" data-name="Path 787" d="M412.7,30.253l-3.3,9.314a1.6,1.6,0,0,0,.794,1.964h0a1.6,1.6,0,0,0,2.107-.645l4.9-8.682a1.254,1.254,0,0,0-.615-1.782l-2.225-.912a1.257,1.257,0,0,0-1.661.744Z" transform="translate(-301.899 -27.478)" fill="#e0e0e0"/>
      <path id="Path_788" data-name="Path 788" d="M402.471,84.162a2.408,2.408,0,1,1-.208-3.4,2.408,2.408,0,0,1,.208,3.4Z" transform="translate(-293.947 -63.983)" fill="#e0e0e0"/>
    </g>
    <g id="freepik--Table--inject-200" transform="translate(27.349 149.665)">
      <path id="Path_789" data-name="Path 789" d="M146.706,484.652h2.677l7.523-.017v.079l-51.241.034-43.449-.022L49.049,484.7l-3.581-.014h0l3.581-.014,13.167-.022,43.449-.022,51.241.034v.079l-7.515-.067h-2.5Z" transform="translate(-44.22 -484.63)"/>
    </g>
    <g id="freepik--Shape--inject-200" transform="translate(20.769 18.999)">
      <path id="Path_790" data-name="Path 790" d="M133.71,67.471a17.143,17.143,0,0,0,2.11-11.643c-.028-.157-.059-.314-.1-.474a11.6,11.6,0,0,0-1.181-3.665c-.067-.146-.137-.281-.21-.435s-.146-.281-.222-.429a17.14,17.14,0,0,0-14.121-8.814A25.76,25.76,0,0,0,77.3,25.392,28.289,28.289,0,0,0,32.872,41.314c-.676,2.761-.957,5.691-2.368,8.16a34.206,34.206,0,0,1-4.089,4.961A23.592,23.592,0,0,0,32.339,90.05c-4.712,6.471-3.059,16.66,3.454,21.31,3.741,2.669,8.73,3.69,11.581,7.3a58.334,58.334,0,0,1,2.966,5.051,14.271,14.271,0,0,0,17.539,5.051l31.929-8.116a42.068,42.068,0,0,0,30.007-9.558,22.513,22.513,0,0,0,7.142-9.432c1.327-3.763,1.01-8.273-1.538-11.345C141.439,84.123,140.58,72.691,133.71,67.471Z" transform="translate(-20.769 -18.999)" fill="#e0e0e0"/>
    </g>
    <g id="freepik--Gears--inject-200" transform="translate(35.114 41.645)">
      <path id="Path_791" data-name="Path 791" d="M139.231,239.2a5.98,5.98,0,0,1,1.462-.671l.281-1.468,2.469-.1.384,1.442a6.126,6.126,0,0,1,1.51.561l1.232-.842,1.81,1.684-.746,1.291a6.064,6.064,0,0,1,.673,1.465l1.468.281.093,2.469-1.448.356a6.126,6.126,0,0,1-.561,1.51l.842,1.232-1.684,1.813-1.28-.738a6.1,6.1,0,0,1-1.462.673l-.281,1.468-2.469.093-.384-1.442a6.126,6.126,0,0,1-1.51-.561l-1.232.842-1.81-1.684.746-1.291a5.981,5.981,0,0,1-.671-1.462l-1.468-.281-.1-2.467,1.442-.387a6.126,6.126,0,0,1,.561-1.51l-.842-1.232,1.684-1.81,1.291.746Zm1.383,3.264a2.649,2.649,0,1,0,3.746-.143A2.649,2.649,0,0,0,140.614,242.467Z" transform="translate(-117.362 -198.449)" fill="#f5f5f5"/>
      <path id="Path_792" data-name="Path 792" d="M306.107,100.907a3.2,3.2,0,0,1,.791-.365l.149-.791,1.333-.051.208.777a3.367,3.367,0,0,1,.817.3l.665-.457.979.909-.393.688a3.3,3.3,0,0,1,.362.791l.794.149.051,1.333-.78.208a3.256,3.256,0,0,1-.3.817l.455.665-.906.977-.7-.4a3.25,3.25,0,0,1-.791.362l-.146.791-1.333.053-.21-.78a3.244,3.244,0,0,1-.814-.3l-.665.457-.979-.906.4-.7a3.421,3.421,0,0,1-.365-.791l-.791-.149-.051-1.333.78-.208a3.2,3.2,0,0,1,.3-.814l-.466-.671.906-.979.7.4Zm.749,1.762a.6.6,0,1,0,0-.008Z" transform="translate(-238.786 -99.7)" fill="#f5f5f5"/>
      <path id="Path_793" data-name="Path 793" d="M74.775,297.75a4.324,4.324,0,0,1,1.024-.469l.191-1.027,1.726-.065L78,297.2a4.31,4.31,0,0,1,1.055.39L79.91,297l1.268,1.173-.525.9a4.225,4.225,0,0,1,.471,1.024l1.024.191.067,1.726-1.01.267a4.178,4.178,0,0,1-.39,1.058l.589.859-1.173,1.266-.9-.522a4.225,4.225,0,0,1-1.024.471l-.213,1.024-1.726.067-.281-1.01a4.208,4.208,0,0,1-1.033-.379l-.859.589-1.268-1.173.522-.9a4.325,4.325,0,0,1-.469-1.041l-1.024-.191-.067-1.726,1.007-.281a4.31,4.31,0,0,1,.39-1.055l-.589-.862,1.187-1.249.9.522Zm.968,2.281a1.849,1.849,0,1,0,1.287-.593A1.852,1.852,0,0,0,75.743,300.032Z" transform="translate(-71.89 -241.051)" fill="#f5f5f5"/>
      <path id="Path_794" data-name="Path 794" d="M353.853,306.773a4.209,4.209,0,0,1,1.021-.471l.194-1.024,1.723-.067.281,1.01a4.162,4.162,0,0,1,1.055.39l.861-.589,1.266,1.173-.522.9a4.227,4.227,0,0,1,.471,1.024l1.024.191.065,1.726-1.007.281a4.209,4.209,0,0,1-.39,1.055l.589.862-1.173,1.266-.9-.522a4.253,4.253,0,0,1-1.021.469l-.191,1.027-1.734.062-.281-1.007a4.271,4.271,0,0,1-1.055-.39l-.862.589L352,313.553l.522-.9a4.244,4.244,0,0,1-.469-1.021l-1.027-.194-.065-1.723,1.007-.281a4.334,4.334,0,0,1,.39-1.058l-.589-.859,1.173-1.266.9.522Zm.968,2.279a1.852,1.852,0,1,0,2.615-.1,1.852,1.852,0,0,0-2.615.1Z" transform="translate(-272.647 -247.54)" fill="#f5f5f5"/>
    </g>
    <g id="freepik--speech-bubbles--inject-200" transform="translate(27.62 27.96)">
      <path id="Path_795" data-name="Path 795" d="M63.093,185.8a3.623,3.623,0,0,0-2.3-2.13c-.9-.255-1.945-.154-2.643-.769a9.394,9.394,0,0,1-.819-1.038,3.328,3.328,0,0,0-2.1-.982,6,6,0,0,0-5.983,3.539h0a12.713,12.713,0,0,0-2.972,2.433,4.268,4.268,0,0,0-1.007,3.581c.219.918.842,1.7,1.066,2.615a15.451,15.451,0,0,1,.135,2.576,2.359,2.359,0,0,0,1.235,2.113c.991.387,2.217-.34,3.129.2.62.368.822,1.173,1.327,1.684.881.892,2.363.662,3.547.253A19.1,19.1,0,0,0,59.627,198a7.762,7.762,0,0,0,2.147-1.835,3.553,3.553,0,0,0,.758-2.655,16.335,16.335,0,0,1-.4-1.684c-.062-1.013.606-1.908.968-2.86a4.4,4.4,0,0,0,0-3.165Z" transform="translate(-45.185 -144.385)" fill="#f5f5f5"/>
      <path id="Path_796" data-name="Path 796" d="M95.472,237.79l-2.559,1.762,0,.006,2.618.926Z" transform="translate(-79.517 -185.353)" fill="#f5f5f5"/>
      <path id="Path_797" data-name="Path 797" d="M66.866,212.425a1.058,1.058,0,1,1-1.055-1.055A1.058,1.058,0,0,1,66.866,212.425Z" transform="translate(-59.26 -166.347)" fill="#263238"/>
      <path id="Path_798" data-name="Path 798" d="M78.59,212.425a1.055,1.055,0,1,1-1.055-1.055A1.055,1.055,0,0,1,78.59,212.425Z" transform="translate(-67.698 -166.347)" fill="#263238"/>
      <path id="Path_799" data-name="Path 799" d="M90.236,212.425a1.055,1.055,0,1,1-.31-.747A1.058,1.058,0,0,1,90.236,212.425Z" transform="translate(-76.072 -166.347)" fill="#263238"/>
      <path id="Path_800" data-name="Path 800" d="M331.761,123.562a1.491,1.491,0,0,0-1.2-.516,19.73,19.73,0,0,0-4.9.168c-.561.093-1.386.042-1.442-.536-.034-.34.281-.623.592-.746a5.288,5.288,0,0,1,1.762-.123,1.613,1.613,0,0,0,1.5-.752c.362-.825-.578-1.684-1.468-1.807a16.668,16.668,0,0,1-2.683-.149l-1.872.039a16.276,16.276,0,0,0-4.091.595c-.373.1-.811.3-.842.688s.365.637.544.971c.362.671-.23,1.518-.946,1.782a8.344,8.344,0,0,1-2.267.216,2.032,2.032,0,0,0-1.861,1.1c-.2.561.039,1.218-.135,1.793a2.127,2.127,0,0,1-1.782,1.252,8.956,8.956,0,0,0-2.245.429,2.475,2.475,0,0,0,.968,4.728c.539.014,1.066-.149,1.605-.177a1.847,1.847,0,0,1,1.122.281,2.837,2.837,0,0,0,1.964,2.554c.744.2,1.541.073,2.3.233s1.527.8,1.383,1.555c-.1.539-.637.934-.682,1.484-.051.668.676,1.159,1.344,1.218s1.341-.143,2.012-.1,1.42.466,1.434,1.122c.017.746-.862,1.274-.878,2.02-.014.626.586,1.089,1.17,1.316a5.074,5.074,0,0,1,1.7.766c.46.424.539,1.33-.034,1.583a1.275,1.275,0,0,0,.825-2.043c-.4-.413-1.064-.525-1.372-1.007a1.363,1.363,0,0,1,.449-1.684,7.2,7.2,0,0,1,1.712-.842,2.111,2.111,0,0,0,1.316-1.3c.227-.929-.665-1.81-1.6-2.018a10.269,10.269,0,0,0-2.854.084,2.842,2.842,0,0,1-2.582-.929l3.12-1.484a1.181,1.181,0,0,0,.7-.6c.171-.536-.441-.974-.951-1.207l-2.035-.923a1.249,1.249,0,0,0-.079-.362,7.7,7.7,0,0,1,3.948-.135,6.737,6.737,0,0,0,3.929-.281c1.193-.6,1.964-2.223,1.2-3.314-.415-.589-1.215-.991-1.232-1.712-.014-.595.561-1.047,1.122-1.238a10.324,10.324,0,0,0,1.706-.514C331.677,124.752,332.075,124.067,331.761,123.562Z" transform="translate(-233.517 -99.97)" fill="#f5f5f5"/>
      <circle id="Ellipse_8" data-name="Ellipse 8" cx="1.01" cy="1.01" r="1.01" transform="translate(82.411 25.997)" fill="#263238"/>
      <path id="Path_801" data-name="Path 801" d="M352.06,144.58a1.01,1.01,0,1,1-1.01-1.01A1.01,1.01,0,0,1,352.06,144.58Z" transform="translate(-264.491 -117.573)" fill="#263238"/>
      <circle id="Ellipse_9" data-name="Ellipse 9" cx="1.01" cy="1.01" r="1.01" transform="translate(88.686 25.997)" fill="#263238"/>
      <path id="Path_802" data-name="Path 802" d="M91.952,54.665A5.758,5.758,0,0,0,87.768,64.4a5.43,5.43,0,0,0-3.788,6.547,6.346,6.346,0,0,0,6.454,4.386,7.7,7.7,0,0,0,6.37-4.877,5.747,5.747,0,0,0,10.717.337c1.243,2.312,4.771,2.7,6.811,1.033a6.4,6.4,0,0,0,1.521-7.2,10.536,10.536,0,0,0-5.517-5.351,4.544,4.544,0,0,0,.626-5.612A5.888,5.888,0,0,0,105.7,51.1a8.425,8.425,0,0,0-5.408,2.59,4.209,4.209,0,0,0-8.118.856" transform="translate(-72.972 -50.93)" fill="#f5f5f5"/>
      <path id="Path_803" data-name="Path 803" d="M123.722,78l2.635,4.644a.864.864,0,0,0,1.083.37h0a.861.861,0,0,0,.483-1.089l-1.81-5.076a.682.682,0,0,0-.946-.379l-1.148.589a.679.679,0,0,0-.3.94Z" transform="translate(-101.622 -69.249)" fill="#263238"/>
      <path id="Path_804" data-name="Path 804" d="M139.755,104.464a1.3,1.3,0,1,1-.5-.864A1.3,1.3,0,0,1,139.755,104.464Z" transform="translate(-111.355 -88.625)" fill="#263238"/>
      <path id="Path_805" data-name="Path 805" d="M154.329,70.7l.084,4.608a.746.746,0,0,0,.668.73h0a.749.749,0,0,0,.817-.637l.718-4.594a.589.589,0,0,0-.561-.676l-1.122-.034a.584.584,0,0,0-.6.6Z" transform="translate(-123.701 -64.72)" fill="#ebebeb"/>
      <path id="Path_806" data-name="Path 806" d="M155.375,96.771a1.123,1.123,0,1,1-.023-.86A1.122,1.122,0,0,1,155.375,96.771Z" transform="translate(-122.892 -82.81)" fill="#ebebeb"/>
    </g>
    <g id="freepik--Symbols--inject-200" transform="translate(72.672 29.724)">
      <path id="Path_807" data-name="Path 807" d="M298.7,235.253l-2.388,6.735a1.156,1.156,0,0,0,.561,1.423h0a1.159,1.159,0,0,0,1.527-.466l3.547-6.289a.909.909,0,0,0-.449-1.285l-1.611-.662a.906.906,0,0,0-1.187.544Z" transform="translate(-270.843 -184.856)" fill="#f5f5f5"/>
      <path id="Path_808" data-name="Path 808" d="M291.293,274.3a1.743,1.743,0,1,1-.152-2.458,1.743,1.743,0,0,1,.152,2.458Z" transform="translate(-265.089 -211.296)" fill="#f5f5f5"/>
      <path id="Path_809" data-name="Path 809" d="M205.729,61.862H208a2.069,2.069,0,0,1,1.987-2.136,1.855,1.855,0,0,1,1.782,1.291,2.416,2.416,0,0,1-.163,2.02,2.367,2.367,0,0,1-2.764,1.035V69.7h2.245V66.416a4.708,4.708,0,0,0,3.154-4.709,4.241,4.241,0,0,0-4.26-4.49C209.012,57.2,205.684,57.456,205.729,61.862Z" transform="translate(-205.728 -57.217)" fill="#f5f5f5"/>
      <rect id="Rectangle_47" data-name="Rectangle 47" width="2.284" height="2.34" transform="translate(3.11 13.645)" fill="#f5f5f5"/>
    </g>
    <g id="freepik--Doodles--inject-200" transform="translate(28.197 23.134)">
      <path id="Path_810" data-name="Path 810" d="M386.448,211.631a1.051,1.051,0,0,1,.1-.087.991.991,0,0,1,.34-.168,1.249,1.249,0,0,1,.626,0,1.285,1.285,0,0,1,.724.463,1.785,1.785,0,0,1,.365,1.03,2.607,2.607,0,0,1-.314,1.285,7.728,7.728,0,0,1-2.22,2.439,18.8,18.8,0,0,1-1.644,1.1c-.595.356-1.223.721-1.9,1.061a13.278,13.278,0,0,1-2.2.892,8.274,8.274,0,0,1-1.232.281,6.733,6.733,0,0,1-1.308.07,2.394,2.394,0,0,1-1.313-.337.982.982,0,0,1-.4-.587,1.224,1.224,0,0,1,.09-.713,3.609,3.609,0,0,1,.884-1.145,10.478,10.478,0,0,1,1.153-.943c.825-.584,1.7-1.122,2.607-1.684a13.531,13.531,0,0,1,2.949-1.4,7.519,7.519,0,0,1,1.684-.326,4.546,4.546,0,0,1,1.731.163,2.436,2.436,0,0,1,1.428,1.041,1.964,1.964,0,0,1,.031,1.788,3.087,3.087,0,0,1-1.266,1.347,7.383,7.383,0,0,1-1.74.735,11.59,11.59,0,0,1-3.847.373,29.006,29.006,0,0,1-3.962-.561,18.779,18.779,0,0,1-2-.488,8.391,8.391,0,0,1-.974-.376,2.5,2.5,0,0,1-.878-.6.968.968,0,0,1-.233-.5.932.932,0,0,1,.093-.561,1.928,1.928,0,0,1,.772-.758,4.925,4.925,0,0,1,2.068-.589,25.01,25.01,0,0,1,4.372,0,19.2,19.2,0,0,1,2.206.331c.365.076.73.168,1.092.281a2.983,2.983,0,0,1,1.055.457,1.123,1.123,0,0,1,.469,1.05,1.423,1.423,0,0,1-.744.9,6.07,6.07,0,0,1-2.2.724,6.274,6.274,0,0,1-1.17.039,4.049,4.049,0,0,1-1.162-.219,1.737,1.737,0,0,1-.951-.727,1.246,1.246,0,0,1,0-1.2,2.1,2.1,0,0,1,2.046-1.089,1.563,1.563,0,0,1,1.462,1.709,1.221,1.221,0,0,1-.679,1.013,1.8,1.8,0,0,1-1.229.121,1.4,1.4,0,0,1-1-.73.668.668,0,0,1,.065-.651.915.915,0,0,1,.542-.354,2.526,2.526,0,0,1,1.24.149,3.816,3.816,0,0,1,1.139.514,2.121,2.121,0,0,1,.791.979,1.5,1.5,0,0,1-.07,1.257,2.245,2.245,0,0,1-.906.887,3.177,3.177,0,0,1-1.21.39,3.586,3.586,0,0,1-2.433-.6,4.364,4.364,0,0,1-1.571-1.987,3.721,3.721,0,0,1-.171-2.526,2.144,2.144,0,0,1,.755-1.055,3.345,3.345,0,0,1,1.184-.514,9.168,9.168,0,0,1,2.526-.2,13.013,13.013,0,0,1,2.509.281,3.561,3.561,0,0,1,2.1,1.336,2.351,2.351,0,0,1,.418,1.193,2.954,2.954,0,0,1-.194,1.24,4.28,4.28,0,0,1-1.557,1.911,9.348,9.348,0,0,1-1.041.651,9.717,9.717,0,0,1-1.106.528,4.26,4.26,0,0,1-2.4.3,6.973,6.973,0,0,1-3.971-2.556,4.49,4.49,0,0,1-.805-2.217,5.435,5.435,0,0,1,.309-2.315,5.57,5.57,0,0,1,1.218-1.964,6.362,6.362,0,0,1,1.858-1.339,6.619,6.619,0,0,1,2.183-.6,6.008,6.008,0,0,1,2.225.227,3.527,3.527,0,0,1,1.838,1.209,3.973,3.973,0,0,1,.682,2.068,9.293,9.293,0,0,1-.735,4.178,8.479,8.479,0,0,1-1.044,1.813,5.082,5.082,0,0,1-1.541,1.364,3.648,3.648,0,0,1-1.964.46,3.149,3.149,0,0,1-1.83-.777,11.224,11.224,0,0,1-1.344-1.42,6.407,6.407,0,0,1-1.058-1.608,2.848,2.848,0,0,1-.213-.937,2.661,2.661,0,0,1,.135-.94,4.819,4.819,0,0,1,.937-1.6,5.778,5.778,0,0,1,2.969-1.95,4.333,4.333,0,0,1,3.342.455,5.051,5.051,0,0,1,1.99,2.551,6.333,6.333,0,0,1,.373,3.067,4.268,4.268,0,0,1-1.271,2.6,5.085,5.085,0,0,1-2.472,1.17,7.554,7.554,0,0,1-2.562.109,3.873,3.873,0,0,1-2.133-1,4.392,4.392,0,0,1-1.162-1.832,4.526,4.526,0,0,1-.188-1.964,5.686,5.686,0,0,1,1.344-2.994A7.016,7.016,0,0,1,379.822,212a8.674,8.674,0,0,1,1.364-.612c.317-.107.485-.149.485-.149s-.039.017-.121.042-.2.065-.359.123a8.492,8.492,0,0,0-1.364.578,7.015,7.015,0,0,0-1.863,1.527,5.612,5.612,0,0,0-1.322,2.969,4.456,4.456,0,0,0,.194,1.936,4.316,4.316,0,0,0,1.148,1.8,3.822,3.822,0,0,0,2.1.979,7.543,7.543,0,0,0,2.526-.115,5.051,5.051,0,0,0,2.43-1.156,4.156,4.156,0,0,0,1.237-2.551,6.271,6.271,0,0,0-.37-3.019,4.947,4.947,0,0,0-1.964-2.5,4.226,4.226,0,0,0-3.244-.435,5.669,5.669,0,0,0-2.907,1.919,4.8,4.8,0,0,0-.915,1.56,2.6,2.6,0,0,0-.129.9,2.787,2.787,0,0,0,.2.9,6.272,6.272,0,0,0,1.044,1.574,10.863,10.863,0,0,0,1.33,1.4,3.014,3.014,0,0,0,1.759.746,3.505,3.505,0,0,0,1.9-.446,4.967,4.967,0,0,0,1.5-1.333,8.362,8.362,0,0,0,1.021-1.785,9.12,9.12,0,0,0,.724-4.117,3.85,3.85,0,0,0-.657-2,3.393,3.393,0,0,0-1.771-1.159,5.853,5.853,0,0,0-2.175-.222,6.49,6.49,0,0,0-2.135.587,5.784,5.784,0,0,0-3,3.23,5.281,5.281,0,0,0-.3,2.259,4.347,4.347,0,0,0,.78,2.147,6.864,6.864,0,0,0,3.884,2.5,4.122,4.122,0,0,0,2.324-.281,9.924,9.924,0,0,0,1.089-.522,8.855,8.855,0,0,0,1.033-.645,4.125,4.125,0,0,0,1.5-1.844,2.828,2.828,0,0,0,.188-1.179,2.225,2.225,0,0,0-.393-1.122,3.429,3.429,0,0,0-2.02-1.28,12.962,12.962,0,0,0-2.478-.281,8.951,8.951,0,0,0-2.492.194,3.207,3.207,0,0,0-1.122.488,1.964,1.964,0,0,0-.7.985,3.558,3.558,0,0,0,.166,2.436,4.229,4.229,0,0,0,1.518,1.919,3.44,3.44,0,0,0,2.338.578,2.966,2.966,0,0,0,1.151-.37,2.1,2.1,0,0,0,.842-.828,1.339,1.339,0,0,0,.062-1.139,1.964,1.964,0,0,0-.738-.912,3.747,3.747,0,0,0-1.094-.494,2.458,2.458,0,0,0-1.167-.146.774.774,0,0,0-.457.3.519.519,0,0,0-.051.511,1.263,1.263,0,0,0,.9.645,1.667,1.667,0,0,0,1.122-.107,1.1,1.1,0,0,0,.6-.9,1.484,1.484,0,0,0-.34-1.061,1.462,1.462,0,0,0-1-.491,1.964,1.964,0,0,0-1.905,1.01,1.1,1.1,0,0,0,0,1.064,1.619,1.619,0,0,0,.876.662,3.9,3.9,0,0,0,1.122.21,6.007,6.007,0,0,0,1.145-.036,5.893,5.893,0,0,0,2.138-.69,1.285,1.285,0,0,0,.682-.8,1,1,0,0,0-.418-.918,2.865,2.865,0,0,0-1.007-.432c-.359-.1-.721-.194-1.083-.281A19.49,19.49,0,0,0,381,214a25.274,25.274,0,0,0-4.347,0,4.857,4.857,0,0,0-2.015.561,1.8,1.8,0,0,0-.721.7.8.8,0,0,0,.126.906,2.354,2.354,0,0,0,.842.561,8.461,8.461,0,0,0,.96.37,17.424,17.424,0,0,0,1.981.485,28.061,28.061,0,0,0,3.943.561,11.407,11.407,0,0,0,3.811-.345,7.246,7.246,0,0,0,1.715-.721,3,3,0,0,0,1.223-1.294,1.841,1.841,0,0,0-.025-1.684,2.352,2.352,0,0,0-1.367-.993,4.544,4.544,0,0,0-1.684-.16,7.358,7.358,0,0,0-1.644.323,13.384,13.384,0,0,0-2.93,1.386c-.9.561-1.785,1.1-2.6,1.684a10.122,10.122,0,0,0-1.145.934,3.505,3.505,0,0,0-.867,1.122,1.122,1.122,0,0,0-.087.662.889.889,0,0,0,.362.533,2.335,2.335,0,0,0,1.268.326,6.814,6.814,0,0,0,1.294-.067,8.236,8.236,0,0,0,1.223-.281,13.33,13.33,0,0,0,2.192-.881c.679-.337,1.308-.7,1.9-1.055a17.767,17.767,0,0,0,1.644-1.086,7.734,7.734,0,0,0,2.214-2.413,2.579,2.579,0,0,0,.317-1.266,1.76,1.76,0,0,0-.354-1.013,1.249,1.249,0,0,0-.7-.457,1.215,1.215,0,0,0-.615,0,1.074,1.074,0,0,0-.463.23Z" transform="translate(-282.099 -159.997)" fill="#f5f5f5"/>
      <path id="Path_811" data-name="Path 811" d="M261.119,37.562a1.583,1.583,0,0,1,.7-.4,1.964,1.964,0,0,1,1,0,2.046,2.046,0,0,1,1.153.738,2.857,2.857,0,0,1,.581,1.644,4.14,4.14,0,0,1-.5,2.054,12.4,12.4,0,0,1-3.555,3.9,29.822,29.822,0,0,1-2.635,1.754c-.951.561-1.964,1.153-3.048,1.7a21.107,21.107,0,0,1-3.525,1.417,13.25,13.25,0,0,1-1.964.438,10.756,10.756,0,0,1-2.091.112,3.783,3.783,0,0,1-2.1-.55,1.51,1.51,0,0,1-.626-.92,1.883,1.883,0,0,1,.14-1.122,5.775,5.775,0,0,1,1.4-1.827,17.02,17.02,0,0,1,1.846-1.51c.654-.469,1.341-.912,2.04-1.355s1.4-.9,2.133-1.336a21.683,21.683,0,0,1,4.72-2.245,11.929,11.929,0,0,1,2.666-.522,7.335,7.335,0,0,1,2.764.258,4.77,4.77,0,0,1,1.282.612,3.14,3.14,0,0,1,.988,1.044,3.087,3.087,0,0,1,.051,2.834,4.919,4.919,0,0,1-2.009,2.161,11.715,11.715,0,0,1-2.781,1.176,18.521,18.521,0,0,1-6.151.592,45.765,45.765,0,0,1-6.339-.926,29.564,29.564,0,0,1-3.193-.78,13.982,13.982,0,0,1-1.555-.6,3.974,3.974,0,0,1-1.4-.951,1.518,1.518,0,0,1-.368-.78,1.451,1.451,0,0,1,.146-.842,3.039,3.039,0,0,1,1.221-1.2,7.925,7.925,0,0,1,3.3-.94,40.749,40.749,0,0,1,7,.022,30.377,30.377,0,0,1,3.53.533c.587.121,1.17.281,1.748.429a4.74,4.74,0,0,1,1.684.724,2.108,2.108,0,0,1,.595.718,1.468,1.468,0,0,1,.143.926,1.658,1.658,0,0,1-.438.842,3.368,3.368,0,0,1-.735.561,9.684,9.684,0,0,1-3.508,1.156,10.133,10.133,0,0,1-1.869.062,6.567,6.567,0,0,1-1.849-.348,2.758,2.758,0,0,1-1.5-1.148,1.821,1.821,0,0,1-.239-.937,2.217,2.217,0,0,1,.247-.937,3.317,3.317,0,0,1,3.222-1.74,2.461,2.461,0,0,1,2.318,2.7,2.054,2.054,0,0,1-.32.937,2,2,0,0,1-.746.654,2.865,2.865,0,0,1-1.942.191,2.211,2.211,0,0,1-1.572-1.145,1.033,1.033,0,0,1,.1-1,1.462,1.462,0,0,1,.842-.561,2.525,2.525,0,0,1,1,0c.328.059.645.149.963.239a6.333,6.333,0,0,1,1.81.817,3.393,3.393,0,0,1,1.254,1.552,2.486,2.486,0,0,1,.168,1,2.383,2.383,0,0,1-.281.979,3.6,3.6,0,0,1-1.437,1.4,4.543,4.543,0,0,1-.929.4,4.944,4.944,0,0,1-.991.213,5.722,5.722,0,0,1-3.873-.957,6.968,6.968,0,0,1-2.5-3.163,6.827,6.827,0,0,1-.491-1.99,5.051,5.051,0,0,1,.219-2.043,3.4,3.4,0,0,1,1.193-1.684,5.284,5.284,0,0,1,1.883-.817,14.648,14.648,0,0,1,4.044-.317,20.873,20.873,0,0,1,4.007.452,5.662,5.662,0,0,1,3.345,2.121,3.729,3.729,0,0,1,.662,1.889,4.706,4.706,0,0,1-.311,1.964,6.812,6.812,0,0,1-2.475,3.042,14.875,14.875,0,0,1-1.667,1.038,15.414,15.414,0,0,1-1.765.842,8.093,8.093,0,0,1-1.88.519,6.045,6.045,0,0,1-1.948-.039,11.194,11.194,0,0,1-6.336-4.072,7.153,7.153,0,0,1-1.288-3.53,8.9,8.9,0,0,1,1.3-5.371c.157-.281.354-.508.528-.763a5.307,5.307,0,0,1,.6-.7,10.131,10.131,0,0,1,2.963-2.136,10.568,10.568,0,0,1,3.485-.954,9.581,9.581,0,0,1,3.55.359,5.629,5.629,0,0,1,2.932,1.925,6.3,6.3,0,0,1,1.083,3.292,14.766,14.766,0,0,1-1.173,6.676,13.621,13.621,0,0,1-1.664,2.893,8.068,8.068,0,0,1-2.458,2.178,5.812,5.812,0,0,1-3.137.735,4.65,4.65,0,0,1-1.56-.384A5.893,5.893,0,0,1,249.6,50.6a17.642,17.642,0,0,1-2.15-2.273,10.24,10.24,0,0,1-1.684-2.565,4.49,4.49,0,0,1-.34-1.487,4.333,4.333,0,0,1,.213-1.5,7.832,7.832,0,0,1,1.5-2.554,9.2,9.2,0,0,1,4.737-3.112,6.912,6.912,0,0,1,5.332.724,7.131,7.131,0,0,1,1.945,1.8,9.23,9.23,0,0,1,1.235,2.273,10.187,10.187,0,0,1,.6,4.9,7.732,7.732,0,0,1-.665,2.287,6.249,6.249,0,0,1-1.361,1.869,8.156,8.156,0,0,1-3.951,1.869,12.142,12.142,0,0,1-4.1.177,6.623,6.623,0,0,1-1.863-.561,6.1,6.1,0,0,1-1.541-1.05,6.976,6.976,0,0,1-1.858-2.927,7.22,7.22,0,0,1-.3-3.135,8.656,8.656,0,0,1,.791-2.7,9.4,9.4,0,0,1,1.353-2.079,11.1,11.1,0,0,1,3.011-2.439,13.273,13.273,0,0,1,2.18-.982c.511-.177.78-.244.78-.244l-.2.065c-.129.039-.323.1-.578.194a13.658,13.658,0,0,0-2.169.993,11.2,11.2,0,0,0-3,2.441,9.525,9.525,0,0,0-1.339,2.074,8.585,8.585,0,0,0-.78,2.694,7.094,7.094,0,0,0,.306,3.106,6.881,6.881,0,0,0,1.832,2.9,6.109,6.109,0,0,0,3.367,1.574,12.067,12.067,0,0,0,4.069-.18,8.162,8.162,0,0,0,3.909-1.855,6.152,6.152,0,0,0,1.339-1.844,7.616,7.616,0,0,0,.654-2.262,10.071,10.071,0,0,0-.592-4.846,9.128,9.128,0,0,0-1.224-2.245,7.016,7.016,0,0,0-1.919-1.771,6.8,6.8,0,0,0-5.248-.707,9.1,9.1,0,0,0-4.678,3.087,7.69,7.69,0,0,0-1.473,2.526,4.268,4.268,0,0,0-.208,1.456,4.416,4.416,0,0,0,.32,1.423,10.158,10.158,0,0,0,1.684,2.526,17.843,17.843,0,0,0,2.138,2.245,4.891,4.891,0,0,0,2.837,1.207,5.694,5.694,0,0,0,3.07-.721A8.045,8.045,0,0,0,258,48.826a13.429,13.429,0,0,0,1.647-2.868,14.64,14.64,0,0,0,1.159-6.617,6.142,6.142,0,0,0-1.058-3.222,5.5,5.5,0,0,0-2.86-1.877,9.409,9.409,0,0,0-3.5-.354,10.506,10.506,0,0,0-3.438.943,9.957,9.957,0,0,0-2.921,2.107c-.213.216-.4.46-.595.69a5.188,5.188,0,0,0-.519.752,8.775,8.775,0,0,0-1.282,5.284,7.015,7.015,0,0,0,1.263,3.463,11.119,11.119,0,0,0,6.244,4,5.913,5.913,0,0,0,1.9.039,8.189,8.189,0,0,0,1.849-.511,15.62,15.62,0,0,0,1.748-.842,14.1,14.1,0,0,0,1.65-1.03,6.708,6.708,0,0,0,2.427-2.975,4.568,4.568,0,0,0,.3-1.908,3.586,3.586,0,0,0-.637-1.816,4.681,4.681,0,0,0-1.434-1.322,6.5,6.5,0,0,0-1.827-.744,20.845,20.845,0,0,0-3.976-.446,14.441,14.441,0,0,0-4,.314,5.1,5.1,0,0,0-1.83.791,3.2,3.2,0,0,0-1.139,1.6,4.891,4.891,0,0,0-.213,1.984,6.653,6.653,0,0,0,.48,1.945,6.827,6.827,0,0,0,2.447,3.087,5.567,5.567,0,0,0,3.774.932,4.707,4.707,0,0,0,.963-.2,4.362,4.362,0,0,0,.9-.393A3.441,3.441,0,0,0,256.9,48.29a2.2,2.2,0,0,0,.1-1.861,3.236,3.236,0,0,0-1.2-1.482,6.132,6.132,0,0,0-1.768-.8,3.981,3.981,0,0,0-1.891-.239,1.31,1.31,0,0,0-.758.5.884.884,0,0,0-.084.862,1.653,1.653,0,0,0,.6.693,2.61,2.61,0,0,0,.867.368,2.739,2.739,0,0,0,1.844-.177,1.829,1.829,0,0,0,.693-.561,1.875,1.875,0,0,0,.3-.87A2.324,2.324,0,0,0,253.43,42.2a3.179,3.179,0,0,0-3.087,1.644,2.043,2.043,0,0,0-.23.876,1.684,1.684,0,0,0,.216.867,2.66,2.66,0,0,0,1.42,1.075,6.494,6.494,0,0,0,1.807.337,9.861,9.861,0,0,0,1.844-.062,9.5,9.5,0,0,0,3.454-1.137,3.118,3.118,0,0,0,.7-.561,1.507,1.507,0,0,0,.407-.76,1.619,1.619,0,0,0-.688-1.51,4.628,4.628,0,0,0-1.625-.7c-.578-.16-1.156-.309-1.74-.429a30.088,30.088,0,0,0-3.513-.53,40.211,40.211,0,0,0-6.973-.025,7.8,7.8,0,0,0-3.241.92,2.893,2.893,0,0,0-1.173,1.148,1.327,1.327,0,0,0-.135.78,1.4,1.4,0,0,0,.34.718,3.8,3.8,0,0,0,1.35.915,13.3,13.3,0,0,0,1.538.6,29.484,29.484,0,0,0,3.179.777,45.688,45.688,0,0,0,6.322.923,18.431,18.431,0,0,0,6.115-.584,11.766,11.766,0,0,0,2.753-1.159,4.852,4.852,0,0,0,1.964-2.091,2.862,2.862,0,0,0-1-3.743,4.754,4.754,0,0,0-1.252-.6,7.234,7.234,0,0,0-2.725-.255,11.755,11.755,0,0,0-2.643.514,21.608,21.608,0,0,0-4.7,2.228c-.727.438-1.434.89-2.133,1.33s-1.383.887-2.037,1.353a16.855,16.855,0,0,0-1.813,1.507,5.7,5.7,0,0,0-1.4,1.8,1.788,1.788,0,0,0-.137,1.075,1.451,1.451,0,0,0,.589.873,3.746,3.746,0,0,0,2.046.522,10.613,10.613,0,0,0,2.077-.109,13.017,13.017,0,0,0,1.964-.432,21.326,21.326,0,0,0,3.516-1.4c1.086-.542,2.093-1.122,3.045-1.684a29.53,29.53,0,0,0,2.615-1.762A12.439,12.439,0,0,0,264,41.561a4.1,4.1,0,0,0,.505-2.032,2.851,2.851,0,0,0-.561-1.63,2,2,0,0,0-1.134-.724,1.947,1.947,0,0,0-.991,0,1.65,1.65,0,0,0-.7.387Z" transform="translate(-186.431 -33.732)"/>
      <path id="Path_812" data-name="Path 812" d="M67.773,153.571a1.1,1.1,0,0,1-.157-.017l-.452-.073A6.678,6.678,0,0,1,65.48,153a3.151,3.151,0,0,1-1.033-.752,2.371,2.371,0,0,1-.631-1.375,1.6,1.6,0,0,1,.157-.842,1.785,1.785,0,0,1,.612-.676,1.42,1.42,0,0,1,.934-.236,1.2,1.2,0,0,1,.842.547,1.684,1.684,0,0,1,.23,1.041,2.666,2.666,0,0,1-.311,1.069,2.389,2.389,0,0,1-.337.469,3.421,3.421,0,0,1-.424.407,3.929,3.929,0,0,1-1.047.587,4.274,4.274,0,0,1-1.215.25,3.884,3.884,0,0,1-1.277-.132,3.693,3.693,0,0,1-1.2-.561,3.3,3.3,0,0,1-.909-1.007,4.111,4.111,0,0,1-.5-2.725,3.785,3.785,0,0,1,.5-1.367,3.648,3.648,0,0,1,.449-.592,2.026,2.026,0,0,1,.6-.46,1.033,1.033,0,0,1,.772-.09.884.884,0,0,1,.345.21.87.87,0,0,1,.2.354,1.63,1.63,0,0,1,0,.78,3.064,3.064,0,0,1-.255.732c-.239.46-.5.9-.783,1.333a6.735,6.735,0,0,1-1,1.226,3.959,3.959,0,0,1-1.341.828,2.627,2.627,0,0,1-1.555.093,2.854,2.854,0,0,1-1.319-.783,3.957,3.957,0,0,1-.842-1.257,8.506,8.506,0,0,1-.516-2.862,6.83,6.83,0,0,1,.025-1.417,1.964,1.964,0,0,1,.6-1.257,1.246,1.246,0,0,1,.64-.281,1.428,1.428,0,0,1,.688.079,1.816,1.816,0,0,1,.982.887,2.408,2.408,0,0,1,.2,1.271,3.892,3.892,0,0,1-.328,1.2,5.332,5.332,0,0,1-.606,1.035,5.722,5.722,0,0,1-2.635,1.908,5.27,5.27,0,0,1-1.936.281,5.05,5.05,0,0,1-1.712-.359A5.708,5.708,0,0,1,48.3,148.9a5.258,5.258,0,0,1-.884-1.527,3.28,3.28,0,0,1-.135-.438,1.431,1.431,0,0,1-.036-.152,5.947,5.947,0,0,0,.2.581,5.425,5.425,0,0,0,.9,1.5,5.654,5.654,0,0,0,2.225,1.605,4.979,4.979,0,0,0,1.684.354,5.2,5.2,0,0,0,1.9-.3,5.646,5.646,0,0,0,2.6-1.894,5.158,5.158,0,0,0,.586-1.013,3.8,3.8,0,0,0,.317-1.159,2.281,2.281,0,0,0-.188-1.2,1.684,1.684,0,0,0-.912-.819,1.179,1.179,0,0,0-1.2.188,1.847,1.847,0,0,0-.561,1.176,6.94,6.94,0,0,0-.022,1.389,8.382,8.382,0,0,0,.511,2.806,3.9,3.9,0,0,0,.805,1.212,2.733,2.733,0,0,0,1.254.744,2.526,2.526,0,0,0,1.47-.09,3.78,3.78,0,0,0,1.288-.8,10.012,10.012,0,0,0,1.748-2.506,2.2,2.2,0,0,0,.247-1.4.7.7,0,0,0-.166-.281.749.749,0,0,0-.281-.174.9.9,0,0,0-.665.081,1.894,1.894,0,0,0-.561.429,3.368,3.368,0,0,0-.432.561,3.668,3.668,0,0,0-.469,1.311A4,4,0,0,0,60,151.716a3.292,3.292,0,0,0,2.023,1.513,4.061,4.061,0,0,0,2.416-.107,3.928,3.928,0,0,0,1.016-.561,3.087,3.087,0,0,0,.732-.842,2.6,2.6,0,0,0,.306-1.021,1.636,1.636,0,0,0-.21-.979,1.094,1.094,0,0,0-.775-.505,1.336,1.336,0,0,0-.873.216,1.667,1.667,0,0,0-.595.634,1.5,1.5,0,0,0-.154.8,2.318,2.318,0,0,0,.6,1.336,3.182,3.182,0,0,0,1.007.746,7.072,7.072,0,0,0,1.684.508l.449.084Z" transform="translate(-47.24 -113.227)"/>
    </g>
    <g id="freepik--Mug--inject-200" transform="translate(29.193 119.349)">
      <path id="Path_813" data-name="Path 813" d="M50.79,444.835a3.52,3.52,0,0,0,1.333,3,4.652,4.652,0,0,0,2.789.789,8.955,8.955,0,0,0,2.009-.244c1.313,2.259,3.609,4.055,7.619,3.873,8.957-.415,8.4-12.112,8.4-12.112H55.221s-.028.384-.022,1.01a4.842,4.842,0,0,0-3.247.934A3.4,3.4,0,0,0,50.79,444.835Zm1.745,0a1.689,1.689,0,0,1,.542-1.4,3.307,3.307,0,0,1,2.22-.514,15.56,15.56,0,0,0,.862,3.847,4.241,4.241,0,0,1-2.994-.323,1.894,1.894,0,0,1-.631-1.608Z" transform="translate(-50.79 -422.309)" fill="#455a64"/>
      <path id="Path_814" data-name="Path 814" d="M115.64,456.209a6.03,6.03,0,0,1,.39-.693,15.385,15.385,0,0,0,.842-1.717,14.8,14.8,0,0,0,.612-1.81,6.37,6.37,0,0,1,.216-.769,3.345,3.345,0,0,1-.115.791,10.676,10.676,0,0,1-.578,1.844,10.89,10.89,0,0,1-.892,1.715A3.191,3.191,0,0,1,115.64,456.209Z" transform="translate(-97.442 -430.28)" fill="#f5f5f5"/>
      <path id="Path_815" data-name="Path 815" d="M110.62,456.955a22.624,22.624,0,0,1,.48-2.5,22.061,22.061,0,0,1,.623-2.472,22.486,22.486,0,0,1-.48,2.5,21.164,21.164,0,0,1-.623,2.472Z" transform="translate(-93.83 -430.827)" fill="#f5f5f5"/>
      <path id="Path_816" data-name="Path 816" d="M103.05,456.49a3.648,3.648,0,0,1,.09-.718c.07-.438.166-1.047.255-1.717s.152-1.285.2-1.729a4.151,4.151,0,0,1,.1-.716,3.118,3.118,0,0,1,0,.724c-.02.446-.067,1.064-.157,1.74s-.2,1.282-.3,1.717A3.43,3.43,0,0,1,103.05,456.49Z" transform="translate(-88.385 -430.561)" fill="#f5f5f5"/>
      <path id="Path_817" data-name="Path 817" d="M96.559,452.51a3.825,3.825,0,0,1,.022.668c0,.41,0,.977.045,1.6s.1,1.19.143,1.6a3.889,3.889,0,0,1,.056.665,2.492,2.492,0,0,1-.16-.648,14.566,14.566,0,0,1-.185-1.605,13.961,13.961,0,0,1,0-1.611A2.666,2.666,0,0,1,96.559,452.51Z" transform="translate(-83.642 -431.208)" fill="#f5f5f5"/>
      <path id="Path_818" data-name="Path 818" d="M86.861,450a5.744,5.744,0,0,1,.056.752,13.9,13.9,0,0,0,.239,1.8,13.512,13.512,0,0,0,.48,1.748,5.634,5.634,0,0,1,.239.716,3.034,3.034,0,0,1-.337-.679,10.158,10.158,0,0,1-.525-1.757,9.99,9.99,0,0,1-.2-1.821A2.933,2.933,0,0,1,86.861,450Z" transform="translate(-76.7 -429.402)" fill="#f5f5f5"/>
      <path id="Path_819" data-name="Path 819" d="M76.62,453.92c.045,0,.222.974.71,2.1s1.08,1.925,1.041,1.964a2.332,2.332,0,0,1-.413-.511,8.253,8.253,0,0,1-.763-1.386,8.558,8.558,0,0,1-.488-1.5A2.357,2.357,0,0,1,76.62,453.92Z" transform="translate(-69.371 -432.222)" fill="#f5f5f5"/>
      <path id="Path_820" data-name="Path 820" d="M97.4,376.6a1.12,1.12,0,0,1,.154.107,1.942,1.942,0,0,1,.37.39,3,3,0,0,1,.5,1.889,6.02,6.02,0,0,1-.985,2.739,10.574,10.574,0,0,0-1.515,3.182,3.241,3.241,0,0,0,.1,1.782,5.741,5.741,0,0,0,.842,1.465c.328.435.665.842.948,1.235a5.439,5.439,0,0,1,.665,1.2,2.658,2.658,0,0,1,.028,1.948,1.683,1.683,0,0,1-.281.46.738.738,0,0,1-.132.132,2.453,2.453,0,0,0,.359-.615,2.666,2.666,0,0,0-.073-1.889,5.313,5.313,0,0,0-.668-1.159c-.281-.393-.623-.789-.96-1.226a5.766,5.766,0,0,1-.87-1.5,3.367,3.367,0,0,1-.109-1.86,11.094,11.094,0,0,1,1.543-3.219,6.188,6.188,0,0,0,1-2.677,2.98,2.98,0,0,0-.446-1.849A3.163,3.163,0,0,0,97.4,376.6Z" transform="translate(-83.095 -376.6)" fill="#263238"/>
      <path id="Path_821" data-name="Path 821" d="M89.051,381.76a1.074,1.074,0,0,1,.109.129,1.86,1.86,0,0,1,.222.427,2.871,2.871,0,0,1,0,1.754,8.376,8.376,0,0,1-1.224,2.307,8,8,0,0,0-.73,1.336,5.808,5.808,0,0,0-.379,1.58,5.686,5.686,0,0,0,.561,3.062c.213.435.477.817.7,1.193a5,5,0,0,1,.528,1.106,2.192,2.192,0,0,1-.146,1.734,1.384,1.384,0,0,1-.32.362.782.782,0,0,1-.146.087,1.745,1.745,0,0,0,.415-.477,2.172,2.172,0,0,0,.1-1.684,4.944,4.944,0,0,0-.533-1.072c-.224-.37-.5-.752-.718-1.2a5.8,5.8,0,0,1-.194-4.754,8.044,8.044,0,0,1,.749-1.358,8.579,8.579,0,0,0,1.238-2.259,2.919,2.919,0,0,0,.034-1.706A3.048,3.048,0,0,0,89.051,381.76Z" transform="translate(-76.752 -380.312)" fill="#263238"/>
      <rect id="Rectangle_48" data-name="Rectangle 48" width="7.537" height="1.437" transform="translate(17.123 30.338) rotate(180)" fill="#455a64"/>
    </g>
    <g id="freepik--Plant--inject-200" transform="translate(113.604 102.878)">
      <path id="Path_822" data-name="Path 822" d="M414.551,378.245c-.031.036-.281-.115-.561-.342s-.488-.441-.457-.477.281.115.561.34S414.582,378.206,414.551,378.245Z" transform="translate(-396.148 -360.719)" fill="#263238"/>
      <path id="Path_823" data-name="Path 823" d="M423.38,325.345a8.837,8.837,0,0,0-.264-3.2,2.817,2.817,0,0,0-5.3-.643,8.847,8.847,0,0,0-1.106,3.491,123.229,123.229,0,0,0-1.513,25.346l4.93.69A124.993,124.993,0,0,0,423.38,325.345Z" transform="translate(-397.265 -319.347)" fill="#455a64"/>
      <path id="Path_824" data-name="Path 824" d="M424.253,319.94a.3.3,0,0,1-.022.079c-.022.062-.048.135-.081.224-.081.208-.191.494-.328.842-.07.185-.16.384-.233.615s-.154.48-.241.746-.177.561-.281.859l-.255.977a43.364,43.364,0,0,0-.94,4.891c-.281,1.855-.443,3.909-.581,6.064-.25,4.322-.281,8.242-.4,11.079-.053,1.417-.1,2.565-.154,3.367-.028.384-.048.688-.062.912a2.176,2.176,0,0,1-.022.236.382.382,0,0,1,0,.081v-.32c0-.222.017-.528.028-.912.034-.794.062-1.939.1-3.367.079-2.834.1-6.755.351-11.082.138-2.164.317-4.209.595-6.078a40.89,40.89,0,0,1,.991-4.888c.1-.342.185-.668.281-.979s.2-.586.281-.856.177-.514.255-.744.174-.429.247-.612l.359-.842c.039-.087.073-.157.1-.216a.336.336,0,0,1,.017-.076Z" transform="translate(-401.27 -319.369)" fill="#263238"/>
      <path id="Path_825" data-name="Path 825" d="M432.156,320a3.5,3.5,0,0,1,.6,1.021,7.555,7.555,0,0,1,.452,3.188c-.132,2.725-.376,6.48-.7,10.624s-.688,7.894-.979,10.6c-.146,1.355-.281,2.45-.365,3.207-.048.365-.084.654-.112.87-.014.09-.022.163-.034.225a.279.279,0,0,1-.017.076.283.283,0,0,1,0-.079,1.183,1.183,0,0,1,.017-.227c.02-.213.045-.505.079-.873.073-.775.18-1.866.309-3.21.258-2.714.6-6.454.926-10.6s.586-7.9.749-10.613a7.723,7.723,0,0,0-.4-3.174,7.09,7.09,0,0,0-.528-1.033Z" transform="translate(-408.716 -319.412)" fill="#263238"/>
      <path id="Path_826" data-name="Path 826" d="M442.659,363.761a2.784,2.784,0,0,1-.934-.241,2.643,2.643,0,0,1-.876-.41,2.783,2.783,0,0,1,.934.241A2.5,2.5,0,0,1,442.659,363.761Z" transform="translate(-415.8 -350.425)" fill="#263238"/>
      <path id="Path_827" data-name="Path 827" d="M444.67,347.5a2.654,2.654,0,0,1-.89.494,3.512,3.512,0,0,1-.963.334,2.652,2.652,0,0,1,.89-.494A3.512,3.512,0,0,1,444.67,347.5Z" transform="translate(-417.217 -339.191)" fill="#263238"/>
      <path id="Path_828" data-name="Path 828" d="M444.579,332.516a3.112,3.112,0,0,1-1.459-.1,1.541,1.541,0,0,1,.735-.039A1.566,1.566,0,0,1,444.579,332.516Z" transform="translate(-417.435 -328.305)" fill="#263238"/>
      <path id="Path_829" data-name="Path 829" d="M428.1,320.219c-.042.025-.258-.241-.483-.6a1.784,1.784,0,0,1-.334-.693c.042-.028.258.241.483.6A1.785,1.785,0,0,1,428.1,320.219Z" transform="translate(-406.04 -318.637)" fill="#263238"/>
      <path id="Path_830" data-name="Path 830" d="M420.618,332.078a1.482,1.482,0,0,1-.7.073c-.384,0-.7-.053-.7-.1a1.465,1.465,0,0,1,.7-.073C420.306,331.971,420.618,332.028,420.618,332.078Z" transform="translate(-400.242 -328.016)" fill="#263238"/>
      <path id="Path_831" data-name="Path 831" d="M416.284,348.607a1.7,1.7,0,0,1-.735-.2c-.39-.157-.69-.32-.671-.365a1.7,1.7,0,0,1,.735.2C416,348.4,416.314,348.562,416.284,348.607Z" transform="translate(-397.117 -339.584)" fill="#263238"/>
      <path id="Path_832" data-name="Path 832" d="M416.13,364.868a1.442,1.442,0,0,1-.629.222c-.348.076-.654.1-.662.051s.281-.149.626-.222S416.119,364.82,416.13,364.868Z" transform="translate(-397.09 -351.671)" fill="#263238"/>
      <path id="Path_833" data-name="Path 833" d="M413.913,389.183a1.426,1.426,0,0,1-.665.21c-.384.067-.69.084-.7.034s.281-.14.668-.208A1.445,1.445,0,0,1,413.913,389.183Z" transform="translate(-395.443 -369.162)" fill="#263238"/>
      <path id="Path_834" data-name="Path 834" d="M412.995,402.656c.022.042-.227.219-.561.393s-.615.281-.637.239.224-.219.561-.393S412.975,402.614,412.995,402.656Z" transform="translate(-394.9 -378.867)" fill="#263238"/>
      <path id="Path_835" data-name="Path 835" d="M424.914,414.269c-.042.025-.258-.281-.483-.668a1.964,1.964,0,0,1-.331-.755c.042-.025.258.281.483.668S424.964,414.244,424.914,414.269Z" transform="translate(-403.752 -386.203)" fill="#263238"/>
      <path id="Path_836" data-name="Path 836" d="M427.1,392.59c.036.034-.2.326-.539.651s-.629.561-.662.525.208-.326.539-.651S427.069,392.554,427.1,392.59Z" transform="translate(-405.046 -371.63)" fill="#263238"/>
      <path id="Path_837" data-name="Path 837" d="M427.247,376.891c-.034.034-.258-.152-.5-.41s-.407-.5-.37-.53.261.149.5.41S427.283,376.858,427.247,376.891Z" transform="translate(-405.387 -359.66)" fill="#263238"/>
      <path id="Path_838" data-name="Path 838" d="M429.019,362.322c.036.031-.166.314-.449.634s-.544.561-.581.514.166-.314.449-.631S428.982,362.288,429.019,362.322Z" transform="translate(-406.547 -349.855)" fill="#263238"/>
      <path id="Path_839" data-name="Path 839" d="M429.988,347.142c-.034.034-.314-.188-.626-.494s-.539-.584-.5-.617.314.185.626.491S430.019,347.109,429.988,347.142Z" transform="translate(-407.174 -338.136)" fill="#263238"/>
      <path id="Path_840" data-name="Path 840" d="M433.281,333.346c.042.025-.1.337-.314.7s-.424.634-.466.612a1.727,1.727,0,0,1,.314-.7C433.031,333.593,433.239,333.321,433.281,333.346Z" transform="translate(-409.79 -329.012)" fill="#263238"/>
      <path id="Path_841" data-name="Path 841" d="M437.993,317.907c.045.025-.081.337-.281.7s-.39.64-.432.617a1.685,1.685,0,0,1,.281-.7C437.763,318.162,437.951,317.884,437.993,317.907Z" transform="translate(-413.234 -317.905)" fill="#263238"/>
      <path id="Path_842" data-name="Path 842" d="M442.543,324.888c.02.045-.177.182-.441.309s-.5.194-.516.152.177-.182.441-.309S442.51,324.846,442.543,324.888Z" transform="translate(-416.331 -322.919)" fill="#263238"/>
      <path id="Path_843" data-name="Path 843" d="M440.452,378.376a2.021,2.021,0,0,1-.963-.233,2.05,2.05,0,0,1-.842-.536,5.409,5.409,0,0,1,.9.373A4.682,4.682,0,0,1,440.452,378.376Z" transform="translate(-414.217 -360.85)" fill="#263238"/>
      <path id="Path_844" data-name="Path 844" d="M439.518,392.039a1.449,1.449,0,0,1-.662.219,1.429,1.429,0,0,1-.7.045,1.449,1.449,0,0,1,.662-.219A1.428,1.428,0,0,1,439.518,392.039Z" transform="translate(-413.867 -371.219)" fill="#263238"/>
      <path id="Path_845" data-name="Path 845" d="M437.254,408.279a1.888,1.888,0,0,1-.749-.659,1.965,1.965,0,0,1-.471-.881,5.85,5.85,0,0,1,.609.772A5.927,5.927,0,0,1,437.254,408.279Z" transform="translate(-412.333 -381.809)" fill="#263238"/>
      <path id="Path_846" data-name="Path 846" d="M412.152,419.211c-.031-.036.168-.261.449-.5s.53-.4.561-.365-.168.261-.449.5S412.186,419.248,412.152,419.211Z" transform="translate(-395.155 -390.157)" fill="#263238"/>
      <path id="Path_847" data-name="Path 847" d="M394.136,371.9c-.32-1-.923-2.169-1.964-2.186a1.754,1.754,0,0,0-1.482.991,3.648,3.648,0,0,0-.4,1.816,47.188,47.188,0,0,0,2.262,13.13H396.4A45.624,45.624,0,0,0,394.136,371.9Z" transform="translate(-379.429 -355.173)" fill="#455a64"/>
      <path id="Path_848" data-name="Path 848" d="M362.277,346.231a4.272,4.272,0,0,0-4.007-3.421c-1.7.3-2.36,1.964-2.562,3.687a12.224,12.224,0,0,0,.856,5.071l5.068,15.847,4.79-.516C364.9,359.821,364.034,353.26,362.277,346.231Z" transform="translate(-354.521 -335.821)" fill="#455a64"/>
      <path id="Path_849" data-name="Path 849" d="M395.32,369.71a3.773,3.773,0,0,0-.328.544,3.612,3.612,0,0,0-.18,1.7c.076.732.16,1.614.281,2.579s.3,2.026.516,3.132c.435,2.211.926,4.2,1.238,5.643.157.721.281,1.308.351,1.717.034.185.059.34.081.469a.612.612,0,0,1,.017.166.539.539,0,0,1-.053-.16c-.028-.123-.067-.281-.112-.46-.1-.429-.239-1-.4-1.7-.342-1.44-.842-3.418-1.291-5.638-.216-1.108-.384-2.172-.5-3.146-.062-.485-.1-.951-.143-1.383s-.081-.842-.1-1.207a3.479,3.479,0,0,1,.241-1.74A1.5,1.5,0,0,1,395.32,369.71Z" transform="translate(-382.577 -355.173)" fill="#263238"/>
      <path id="Path_850" data-name="Path 850" d="M361.481,342.34a6.454,6.454,0,0,0-.578.777,5.5,5.5,0,0,0-.73,2.506,11.537,11.537,0,0,0,.592,3.856c.418,1.417.881,2.989,1.367,4.63.954,3.283,1.818,6.255,2.453,8.419.3,1.066.547,1.936.721,2.559l.191.7a1.52,1.52,0,0,1,.053.247,1.556,1.556,0,0,1-.09-.239c-.053-.174-.126-.4-.219-.688-.188-.62-.452-1.484-.777-2.545-.645-2.166-1.527-5.133-2.5-8.419l-1.353-4.636a11.371,11.371,0,0,1-.561-3.909,5.374,5.374,0,0,1,.794-2.526A3,3,0,0,1,361.481,342.34Z" transform="translate(-357.661 -335.483)" fill="#263238"/>
      <path id="Path_851" data-name="Path 851" d="M371.4,366.28a1.436,1.436,0,0,1-.107-.23c-.065-.154-.166-.376-.281-.673-.23-.589-.522-1.456-.825-2.542s-.6-2.4-.892-3.864-.584-3.073-.9-4.771a48.094,48.094,0,0,0-1.122-4.706,26.2,26.2,0,0,0-1.4-3.69,19.623,19.623,0,0,0-1.291-2.326c-.166-.281-.314-.463-.4-.6a1.447,1.447,0,0,1-.135-.213,1.051,1.051,0,0,1,.163.194c.1.135.258.32.432.584a17.356,17.356,0,0,1,1.347,2.312,25.094,25.094,0,0,1,1.44,3.7,47.483,47.483,0,0,1,1.151,4.717c.314,1.684.615,3.3.89,4.771s.561,2.773.842,3.861.561,1.964.766,2.554c.1.3.191.525.244.682A1.353,1.353,0,0,1,371.4,366.28Z" transform="translate(-360.546 -335.713)" fill="#263238"/>
      <path id="Path_852" data-name="Path 852" d="M356.086,371.158c0,.048-.25.152-.584.23s-.612.109-.623.062.25-.152.581-.233S356.072,371.111,356.086,371.158Z" transform="translate(-353.956 -356.197)" fill="#263238"/>
      <path id="Path_853" data-name="Path 853" d="M353.212,359.332a2.3,2.3,0,0,1-.808.087,2.447,2.447,0,0,1-.814-.022,2.757,2.757,0,0,1,1.622-.065Z" transform="translate(-351.59 -347.64)" fill="#263238"/>
      <path id="Path_854" data-name="Path 854" d="M356.6,346.635c-.031.036-.281-.132-.581-.376s-.5-.474-.466-.514.281.132.581.379S356.628,346.6,356.6,346.635Z" transform="translate(-354.436 -337.929)" fill="#263238"/>
      <path id="Path_855" data-name="Path 855" d="M364.116,339.076c.048,0,.034.244.028.528s0,.514-.059.522-.129-.227-.118-.528S364.068,339.054,364.116,339.076Z" transform="translate(-360.493 -333.134)" fill="#263238"/>
      <path id="Path_856" data-name="Path 856" d="M373.405,343.713c.042.028-.076.264-.261.528s-.365.455-.4.427.076-.264.261-.528S373.369,343.685,373.405,343.713Z" transform="translate(-366.8 -336.469)" fill="#263238"/>
      <path id="Path_857" data-name="Path 857" d="M378.969,355.685c.017.045-.23.188-.561.32s-.6.2-.62.157.23-.188.561-.32S378.969,355.64,378.969,355.685Z" transform="translate(-370.435 -345.074)" fill="#263238"/>
      <path id="Path_858" data-name="Path 858" d="M382.158,368.03a1.454,1.454,0,0,1-.76.331,1.431,1.431,0,0,1-.828.028,3.278,3.278,0,0,1,.789-.2A3.016,3.016,0,0,1,382.158,368.03Z" transform="translate(-372.438 -353.956)" fill="#263238"/>
      <path id="Path_859" data-name="Path 859" d="M366.944,361.944c-.048-.014-.014-.253.076-.533s.2-.5.241-.483.014.255-.076.536S366.989,361.958,366.944,361.944Z" transform="translate(-362.62 -348.855)" fill="#263238"/>
      <path id="Path_860" data-name="Path 860" d="M369.68,376.537a1.684,1.684,0,0,1,.216-.721c.166-.379.334-.668.379-.648a1.684,1.684,0,0,1-.216.718C369.893,376.265,369.725,376.554,369.68,376.537Z" transform="translate(-364.604 -359.098)" fill="#263238"/>
      <path id="Path_861" data-name="Path 861" d="M359.611,383.114a1.79,1.79,0,0,1-.688-.152c-.368-.115-.665-.222-.654-.281s.331-.017.7.1S359.63,383.069,359.611,383.114Z" transform="translate(-356.395 -364.486)" fill="#263238"/>
      <path id="Path_862" data-name="Path 862" d="M364.252,396.9c.028.039-.177.233-.457.435s-.533.331-.561.281.177-.236.46-.435S364.224,396.862,364.252,396.9Z" transform="translate(-359.964 -374.728)" fill="#263238"/>
      <path id="Path_863" data-name="Path 863" d="M366.939,409.45c0,.048-.244.152-.561.23s-.6.1-.609.056.241-.149.561-.227S366.928,409.4,366.939,409.45Z" transform="translate(-361.79 -383.744)" fill="#263238"/>
      <path id="Path_864" data-name="Path 864" d="M383.718,378.554c.025.039-.191.213-.508.331s-.592.135-.6.087.239-.138.539-.25S383.7,378.512,383.718,378.554Z" transform="translate(-373.905 -361.528)" fill="#263238"/>
      <path id="Path_865" data-name="Path 865" d="M386.167,396.827c-.02.045-.281-.034-.578-.174s-.522-.281-.5-.334.281.034.578.174S386.184,396.78,386.167,396.827Z" transform="translate(-375.686 -374.303)" fill="#263238"/>
      <path id="Path_866" data-name="Path 866" d="M389.389,410.723a1.793,1.793,0,0,1-.76-.2,1.824,1.824,0,0,1-.7-.368,1.863,1.863,0,0,1,.763.2C389.095,410.512,389.409,410.669,389.389,410.723Z" transform="translate(-377.732 -384.264)" fill="#263238"/>
      <path id="Path_867" data-name="Path 867" d="M370.606,420.482c-.025-.045.281-.255.654-.542s.643-.542.679-.508-.194.348-.561.645A1.559,1.559,0,0,1,370.606,420.482Z" transform="translate(-365.269 -390.94)" fill="#263238"/>
      <path id="Path_868" data-name="Path 868" d="M380.542,413.127c-.051,0-.118-.258-.239-.561s-.247-.561-.2-.578.241.182.368.514S380.587,413.113,380.542,413.127Z" transform="translate(-372.093 -385.585)" fill="#263238"/>
      <path id="Path_869" data-name="Path 869" d="M376.709,397.7c-.028.042-.23-.056-.449-.213s-.376-.317-.348-.356.23.056.449.213S376.737,397.647,376.709,397.7Z" transform="translate(-369.084 -374.89)" fill="#263238"/>
      <path id="Path_870" data-name="Path 870" d="M402.082,372.741c.028.039-.168.233-.438.432s-.514.328-.542.281.166-.233.438-.432S402.052,372.7,402.082,372.741Z" transform="translate(-387.207 -357.348)" fill="#263238"/>
      <path id="Path_871" data-name="Path 871" d="M405.079,382.985a1.081,1.081,0,0,1-.679.07c-.382-.042-.665-.168-.651-.216s.309,0,.668.039S405.076,382.934,405.079,382.985Z" transform="translate(-389.112 -364.603)" fill="#263238"/>
      <path id="Path_872" data-name="Path 872" d="M388.426,385.715a1.105,1.105,0,0,1-.64.174c-.359.025-.662-.039-.657-.087s.281-.065.645-.09S388.418,385.668,388.426,385.715Z" transform="translate(-377.157 -366.666)" fill="#263238"/>
      <path id="Path_873" data-name="Path 873" d="M390.446,374.458c0,.048-.281.053-.6-.093s-.5-.365-.463-.4.25.109.536.239S390.451,374.408,390.446,374.458Z" transform="translate(-378.772 -358.232)" fill="#263238"/>
      <path id="Path_874" data-name="Path 874" d="M406.8,392.85c-.025.039-.32-.1-.657-.309s-.586-.418-.561-.46.32.1.657.311S406.823,392.808,406.8,392.85Z" transform="translate(-390.432 -371.26)" fill="#263238"/>
      <rect id="Rectangle_49" data-name="Rectangle 49" width="25.065" height="4.442" transform="translate(2.77 29.972)" fill="#09877c"/>
      <path id="Path_875" data-name="Path 875" d="M368.13,437.4l3.048,13.276h14.94l3.334-13.276Z" transform="translate(-363.489 -403.867)" fill="#09877c"/>
      <path id="Path_876" data-name="Path 876" d="M385.986,440.337c0,.051-5.655.09-12.628.09s-12.628-.039-12.628-.09,5.652-.087,12.628-.087S385.986,440.289,385.986,440.337Z" transform="translate(-358.165 -405.918)" fill="#263238"/>
      <path id="Path_877" data-name="Path 877" d="M399.449,383.609c-.042.025-.213-.174-.384-.446s-.281-.514-.233-.539.213.174.384.446S399.488,383.584,399.449,383.609Z" transform="translate(-385.566 -364.461)" fill="#263238"/>
      <path id="Path_878" data-name="Path 878" d="M401.084,395.562a1.4,1.4,0,0,1,.132-.676c.118-.356.253-.634.3-.617s0,.317-.132.673S401.129,395.576,401.084,395.562Z" transform="translate(-387.194 -372.839)" fill="#263238"/>
      <path id="Path_879" data-name="Path 879" d="M403.709,408.615c-.045.02-.23-.281-.418-.671a1.849,1.849,0,0,1-.261-.746c.045-.02.233.281.421.671A1.769,1.769,0,0,1,403.709,408.615Z" transform="translate(-388.595 -382.14)" fill="#263238"/>
      <path id="Path_880" data-name="Path 880" d="M395.986,420.63c-.036-.031.112-.264.334-.519s.429-.435.466-.4-.112.264-.334.519S396.028,420.664,395.986,420.63Z" transform="translate(-383.524 -391.138)" fill="#263238"/>
      <path id="Path_881" data-name="Path 881" d="M391.316,402.918c0,.048-.25.045-.539,0s-.516-.129-.508-.18.25-.045.539,0S391.336,402.87,391.316,402.918Z" transform="translate(-379.415 -378.907)" fill="#263238"/>
    </g>
    <g id="freepik--Character--inject-200" transform="translate(37.664 48.481)">
      <path id="Path_882" data-name="Path 882" d="M138.6,139.443a6.582,6.582,0,0,0-4.372-4.125c-2.035-.457-4.209.441-5.991,1.571a9.92,9.92,0,0,0-4.209,4.512,4.723,4.723,0,0,0,1.358,5.452c-1.706-1.064-4.319.222-4.734,2.231a4.351,4.351,0,0,0,3.238,4.771,6.187,6.187,0,0,0,5.22-1.226,4.358,4.358,0,0,0-.463,5.093,5.259,5.259,0,0,0,5.531,2.147,6.925,6.925,0,0,0,4.616-3.988l.744-10.3A17.2,17.2,0,0,0,138.6,139.443Z" transform="translate(-109.468 -132.071)" fill="#263238"/>
      <path id="Path_883" data-name="Path 883" d="M171.788,167.17c-1.981.643-2.385,2.245-2.806,3.584-.884,2.876.109,7.133,1.72,9.676a8.216,8.216,0,0,0,6.353,4.265q.146-6.85.281-13.7Z" transform="translate(-144.048 -155.072)" fill="#09877c"/>
      <path id="Path_884" data-name="Path 884" d="M173.534,145.883a4.745,4.745,0,0,1,.424-6.067,3.168,3.168,0,0,1,.326-3.847,9.329,9.329,0,0,1,3.452-2.281,6.388,6.388,0,0,1,7.442-4.664c1.653-2.427,5.172-2.806,7.992-1.987a7.541,7.541,0,0,0,2.093.457,12.384,12.384,0,0,0,1.563-.216c2.868-.387,5.713,1.633,6.833,4.3a5.383,5.383,0,0,0,.609,1.243,6.824,6.824,0,0,0,1.417,1.122,4.582,4.582,0,0,1,1.754,3.387c.048,1.122-.306,2.3.163,3.309a16.675,16.675,0,0,1,.842,1.445c.53,1.529-1.165,3.087-.842,4.684.065.323.21.626.3.943a2.829,2.829,0,0,1-.174,1.964,4.1,4.1,0,0,0-.62,1.423,4.564,4.564,0,0,0,.23,1.159c.194.949-1.852,4.6-2.672,5.121l-24.49.219a4.574,4.574,0,0,1-3.541-3.929,1.684,1.684,0,0,0-.23-.9,1.925,1.925,0,0,0-.668-.435c-1.577-.842-1.768-3.011-1.6-4.8a2.085,2.085,0,0,0,0-.746A2.669,2.669,0,0,0,173.534,145.883Z" transform="translate(-146.914 -125.92)" fill="#263238"/>
      <path id="Path_885" data-name="Path 885" d="M200.846,162.02a13.113,13.113,0,0,1,6.951-11.432,16.245,16.245,0,0,1,6.258-1.513,9.923,9.923,0,0,1,5.778,1.212c1.35.317,6.294,4.846,6.552,9.763.281,5.458.418,12.137-.281,16.2-1.386,8.174-7.672,9.148-7.672,9.148l.584,13.588-12.067,9.9-4.7-15.715Z" transform="translate(-167.208 -142.023)" fill="#ffbf9d"/>
      <path id="Path_886" data-name="Path 886" d="M235.422,270.839A20.926,20.926,0,0,1,224.45,267.8s2.86,5.8,11.059,5.124Z" transform="translate(-184.189 -227.464)" fill="#ff9a6c"/>
      <path id="Path_887" data-name="Path 887" d="M190.226,217.237c0-.609-.685-2.054-1.285-2.155-1.605-.281-4.49-.168-4.574,3.915-.1,5.582,5.525,4.526,5.539,4.366S190.209,219.35,190.226,217.237Z" transform="translate(-155.353 -189.472)" fill="#ffbf9d"/>
      <path id="Path_888" data-name="Path 888" d="M192.426,226.142c-.025-.017-.1.067-.267.14a.971.971,0,0,1-.727,0,2.4,2.4,0,0,1-1.075-2.178,3.233,3.233,0,0,1,.295-1.386,1.122,1.122,0,0,1,.746-.732.5.5,0,0,1,.561.281c.07.157.034.281.062.281s.123-.09.081-.323a.617.617,0,0,0-.213-.354.752.752,0,0,0-.536-.152,1.373,1.373,0,0,0-1.03.842,3.3,3.3,0,0,0-.365,1.552,2.5,2.5,0,0,0,1.378,2.433,1.041,1.041,0,0,0,.892-.132C192.412,226.285,192.443,226.153,192.426,226.142Z" transform="translate(-159.377 -194.311)" fill="#ff9a6c"/>
      <path id="Path_889" data-name="Path 889" d="M219.9,152.289a14.818,14.818,0,0,0-1.964-5.736,11.918,11.918,0,0,0-2.526-3.367,13.218,13.218,0,0,0-3.017-1.818c-2.806-1.325-5.915-2.45-8.935-1.771a15.132,15.132,0,0,0-4.49,2.091,16.883,16.883,0,0,0-3.087,2.228,12.84,12.84,0,0,0-2.009,2.672,17.321,17.321,0,0,0-2.486,7.515c-.182,2.655-2.194,5.006-.637,7.167.121.166,2.9.741,3.087.817.452.18.949-.309.943-.794a1.793,1.793,0,0,0-.7-1.229,1.354,1.354,0,0,0,1.122-1.482,3.657,3.657,0,0,0-.862-1.855.536.536,0,0,1-.121-.239c-.028-.236.239-.382.443-.5a1.878,1.878,0,0,0,.2-2.941,2.526,2.526,0,0,0,1.706-3.185.811.811,0,0,1-.081-.623c.093-.185.323-.244.522-.3a3.2,3.2,0,0,0,2.144-3.6,8.113,8.113,0,0,0,2.318-.1,2.716,2.716,0,0,0,1.827-1.319,3.022,3.022,0,0,0,5.113.281,7.93,7.93,0,0,0,3.833-.595,3.738,3.738,0,0,0,2.436,2.624c.23.076.494.146.606.362a.887.887,0,0,1,.051.455c-.039.777.491,1.122.92,1.762s1.179,1.622,1.928,1.4a3.254,3.254,0,0,0,1.748,3.011Z" transform="translate(-159.519 -135.09)" fill="#263238"/>
      <path id="Path_890" data-name="Path 890" d="M208.273,141.979a2.118,2.118,0,0,0-.295-.6c-.118-.185-.281-.4-.438-.682a2.584,2.584,0,0,1-.3-1.047,8.066,8.066,0,0,1,.036-1.381,6.226,6.226,0,0,0-.028-1.656,4.65,4.65,0,0,0-1.4-2.562,6.918,6.918,0,0,0-.878-.662,3.521,3.521,0,0,1-.842-.741,4.56,4.56,0,0,1-.519-1.055,7.487,7.487,0,0,0-3.48-3.839,6.581,6.581,0,0,0-1.339-.516,6.07,6.07,0,0,0-1.465-.18,7.523,7.523,0,0,0-.752.053c-.253.036-.5.087-.746.129a3.6,3.6,0,0,1-1.49,0c-.5-.1-.988-.281-1.5-.421a9.923,9.923,0,0,0-1.58-.281,9.634,9.634,0,0,0-1.636-.031,8.5,8.5,0,0,0-1.642.281,5.509,5.509,0,0,0-2.826,1.807l-.208.281.087-.034a6.482,6.482,0,0,0-7.54,4.728l.045-.056a17.759,17.759,0,0,0-1.964,1.016,5.893,5.893,0,0,0-1.611,1.417,3.839,3.839,0,0,0-.741,1.919,2.632,2.632,0,0,0,.516,1.891v-.093a4.608,4.608,0,0,0-1.308,2.854,4.731,4.731,0,0,0,.561,2.778,4.8,4.8,0,0,0,.368.561,5.453,5.453,0,0,1,.379.5,1.181,1.181,0,0,1,.194.561,3.606,3.606,0,0,1-.02.578,9.214,9.214,0,0,0,.042,2.119,4.4,4.4,0,0,0,.536,1.619,2.739,2.739,0,0,0,.859.912c.281.194.542.281.682.373a1.142,1.142,0,0,1,.2.171.651.651,0,0,0-.188-.188c-.14-.112-.4-.2-.671-.39a2.762,2.762,0,0,1-.842-.909,4.4,4.4,0,0,1-.511-1.6,9.109,9.109,0,0,1-.022-2.1,3.453,3.453,0,0,0,.022-.595,1.291,1.291,0,0,0-.2-.6,6.113,6.113,0,0,0-.384-.514,4.492,4.492,0,0,1-.354-.542,4.625,4.625,0,0,1-.528-2.711,4.49,4.49,0,0,1,1.28-2.77l.045-.042-.039-.051a2.486,2.486,0,0,1-.48-1.79,3.665,3.665,0,0,1,.718-1.844,5.753,5.753,0,0,1,1.569-1.375,17.684,17.684,0,0,1,1.964-1l.036-.017v-.039a6.32,6.32,0,0,1,7.344-4.6l.053.014.036-.048.2-.264a5.363,5.363,0,0,1,2.742-1.774,8.518,8.518,0,0,1,1.605-.281,9.6,9.6,0,0,1,1.608.028,9.822,9.822,0,0,1,1.552.281c.508.129,1,.314,1.513.421a3.863,3.863,0,0,0,.78.087,4.642,4.642,0,0,0,.772-.076c.25-.045.5-.1.741-.132a7.147,7.147,0,0,1,.73-.053,6.046,6.046,0,0,1,1.428.171,6.5,6.5,0,0,1,1.308.5,7.355,7.355,0,0,1,3.432,3.769,4.6,4.6,0,0,0,.542,1.083,3.6,3.6,0,0,0,.873.763,6.453,6.453,0,0,1,.867.648,4.422,4.422,0,0,1,.668.772,4.577,4.577,0,0,1,.716,1.723,6.2,6.2,0,0,1,.042,1.633,7.833,7.833,0,0,0-.022,1.4,2.624,2.624,0,0,0,.326,1.064c.163.281.331.494.452.676a3.728,3.728,0,0,1,.253.429A.782.782,0,0,1,208.273,141.979Z" transform="translate(-146.743 -125.804)" fill="#455a64"/>
      <path id="Path_891" data-name="Path 891" d="M226.71,128.994s.149-.084.421-.216a3.713,3.713,0,0,1,1.218-.345,3.524,3.524,0,0,1,1.832.281,3.648,3.648,0,0,1,1.658,1.524,3.11,3.11,0,0,1,.281.634.7.7,0,0,1-.045.589l-.138.188.225-.062a2.3,2.3,0,0,1,1.726.219,2.217,2.217,0,0,1,.937,1.041,2.462,2.462,0,0,1,.213.92,2.206,2.206,0,0,0,0,.348c.014,0,0-.028.028-.087a1.5,1.5,0,0,0,.031-.261,2.352,2.352,0,0,0-.171-.963,2.3,2.3,0,0,0-.965-1.122,2.422,2.422,0,0,0-1.838-.253l.087.126a.842.842,0,0,0,.076-.727,3.166,3.166,0,0,0-.281-.673,3.727,3.727,0,0,0-1.74-1.586,3.572,3.572,0,0,0-1.911-.258,3.469,3.469,0,0,0-1.235.407,2.147,2.147,0,0,0-.3.191C226.738,128.96,226.707,128.988,226.71,128.994Z" transform="translate(-185.814 -127.094)" fill="#455a64"/>
      <path id="Path_892" data-name="Path 892" d="M194.25,153.406a.89.89,0,0,0,.194.2,3.5,3.5,0,0,0,.629.446,2.688,2.688,0,0,0,1.122.342,2,2,0,0,0,1.4-.41l-.123-.02.163.23c.059.076.123.149.188.222a3.337,3.337,0,0,0,1.386.878,3.5,3.5,0,0,0,1.33.18,3.086,3.086,0,0,0,.881-.194,1.122,1.122,0,0,0,.281-.154,4.729,4.729,0,0,1-1.179.227,3.536,3.536,0,0,1-1.274-.2,3.289,3.289,0,0,1-1.313-.842c-.062-.07-.123-.138-.18-.208l-.154-.216-.053-.079-.07.056a1.863,1.863,0,0,1-1.274.39,2.652,2.652,0,0,1-1.069-.295C194.556,153.658,194.27,153.381,194.25,153.406Z" transform="translate(-162.463 -145.17)" fill="#455a64"/>
      <path id="Path_893" data-name="Path 893" d="M183.59,170.547v.1a1.036,1.036,0,0,0,.121.281,1.5,1.5,0,0,0,.9.6,2.837,2.837,0,0,0,1.6-.16,9.254,9.254,0,0,0,.884-.34,1.535,1.535,0,0,0,.777-.7l.034-.087-.132.036a6.4,6.4,0,0,0,1.647,1.007,2.865,2.865,0,0,0,1.588.16,2.065,2.065,0,0,0,.968-.429,1.529,1.529,0,0,0,.2-.2c.039-.053.059-.081.053-.087s-.1.1-.3.239a2.144,2.144,0,0,1-.949.368,2.806,2.806,0,0,1-1.493-.2,6.538,6.538,0,0,1-1.6-1l-.087-.07-.045.109a.208.208,0,0,1-.028.076,1.4,1.4,0,0,1-.7.617c-.281.135-.584.241-.862.342a2.806,2.806,0,0,1-1.518.191,1.476,1.476,0,0,1-.867-.528A2.222,2.222,0,0,1,183.59,170.547Z" transform="translate(-154.795 -157.159)" fill="#455a64"/>
      <path id="Path_894" data-name="Path 894" d="M273.247,207.825c-.123.14-.926-.413-2.034-.376s-1.908.62-2.032.488c-.062-.059.062-.306.407-.561a2.854,2.854,0,0,1,1.622-.561,2.716,2.716,0,0,1,1.625.466C273.185,207.525,273.309,207.764,273.247,207.825Z" transform="translate(-216.356 -183.591)" fill="#263238"/>
      <path id="Path_895" data-name="Path 895" d="M234.465,210.071c-.138.123-.876-.508-1.984-.584s-1.964.421-2.071.281c-.056-.065.09-.3.466-.53a2.823,2.823,0,0,1,1.667-.39,2.725,2.725,0,0,1,1.569.634C234.434,209.763,234.533,210.007,234.465,210.071Z" transform="translate(-188.468 -185.048)" fill="#263238"/>
      <path id="Path_896" data-name="Path 896" d="M258.227,206.964a7.644,7.644,0,0,1,1.793-.382c.281-.039.561-.1.592-.3a1.786,1.786,0,0,0-.216-.842l-.909-2.133a37.049,37.049,0,0,1-2.065-5.59,37.382,37.382,0,0,1,2.512,5.41c.3.749.595,1.462.873,2.147a1.639,1.639,0,0,1,.182,1.108.713.713,0,0,1-.452.429,1.824,1.824,0,0,1-.48.081A6.9,6.9,0,0,1,258.227,206.964Z" transform="translate(-207.9 -177.048)" fill="#263238"/>
      <path id="Path_897" data-name="Path 897" d="M249.035,236.5a3.14,3.14,0,0,0-1.6,1.094c-.244.455-.561,1.167-.326,1.58.2.354,1.7-.084,2.335-.188.281-.048,1.007.3,1.106-.067l.174-1.3a1.038,1.038,0,0,0-.786-1.041A1.605,1.605,0,0,0,249.035,236.5Z" transform="translate(-200.428 -204.926)" fill="#ff9a6c"/>
      <path id="Path_898" data-name="Path 898" d="M225.129,189.4c.107-.3,1.218-.166,2.526-.331s2.354-.53,2.526-.261c.079.129-.1.415-.528.71a4.411,4.411,0,0,1-3.847.452C225.326,189.777,225.09,189.541,225.129,189.4Z" transform="translate(-184.674 -170.566)" fill="#263238"/>
      <path id="Path_899" data-name="Path 899" d="M266.481,185.157c.261-.216,1.1.174,2.152.342s1.964.121,2.138.413c.07.14-.107.37-.533.561a3.367,3.367,0,0,1-1.813.149,3.328,3.328,0,0,1-1.644-.755C266.447,185.539,266.363,185.264,266.481,185.157Z" transform="translate(-214.388 -167.966)" fill="#263238"/>
      <path id="Path_900" data-name="Path 900" d="M249.723,238.829a9.911,9.911,0,0,0-1.226.166,4.394,4.394,0,0,0-.584.191,2.324,2.324,0,0,1-.73.233.668.668,0,0,1-.463-.135.789.789,0,0,1-.264-.41,1.417,1.417,0,0,1,.062-.937,2.664,2.664,0,0,1,.485-.766,2.709,2.709,0,0,1,.634-.561,2.461,2.461,0,0,1,1.355-.39,2,2,0,0,1,.915.233.735.735,0,0,1,.281.208,1.832,1.832,0,0,1-.32-.1,2.228,2.228,0,0,0-.867-.129,2.355,2.355,0,0,0-1.209.407,2.685,2.685,0,0,0-.561.511,2.553,2.553,0,0,0-.429.688,1.181,1.181,0,0,0-.062.749.429.429,0,0,0,.441.359,2.283,2.283,0,0,0,.654-.191,3.929,3.929,0,0,1,.631-.168A2.212,2.212,0,0,1,249.723,238.829Z" transform="translate(-199.982 -204.745)" fill="#263238"/>
      <circle id="Ellipse_10" data-name="Ellipse 10" cx="2.245" cy="2.245" r="2.245" transform="translate(30.807 31.587)" fill="#455a64"/>
      <path id="Path_901" data-name="Path 901" d="M232.26,160.088a.55.55,0,0,1,.065-.21,2.2,2.2,0,0,1,.345-.525,2.548,2.548,0,0,1,.8-.592,2.442,2.442,0,0,1,1.31-.213,1.462,1.462,0,0,1,.746.281.8.8,0,0,1,.281.37.64.64,0,0,1-.036.5.923.923,0,0,1-.842.466,2.34,2.34,0,0,1-.951-.225,2.618,2.618,0,0,1-1.4-1.5,2.422,2.422,0,0,1,.323-2.169,2.2,2.2,0,0,1,2.006-.867,1.74,1.74,0,0,1,1,.424,1.212,1.212,0,0,1,.317.449.8.8,0,0,1,0,.561.875.875,0,0,1-.356.413,1.417,1.417,0,0,1-.463.185,2.13,2.13,0,0,1-.923,0,2.245,2.245,0,0,1-1.336-.906,1.984,1.984,0,0,1-.331-1.288,2.2,2.2,0,0,1,.3-.954,1.885,1.885,0,0,1,.41-.48c.112-.087.18-.123.185-.115a3.252,3.252,0,0,0-.494.651,2.144,2.144,0,0,0-.239.906,1.824,1.824,0,0,0,.334,1.162,2.049,2.049,0,0,0,1.221.789,1.928,1.928,0,0,0,.811,0,.842.842,0,0,0,.626-.443.69.69,0,0,0-.264-.718,1.5,1.5,0,0,0-.842-.345,1.914,1.914,0,0,0-1.737.758,2.136,2.136,0,0,0-.281,1.9,2.352,2.352,0,0,0,1.232,1.35,2.08,2.08,0,0,0,.842.21.674.674,0,0,0,.623-.32.46.46,0,0,0-.163-.581,1.249,1.249,0,0,0-.631-.261,2.276,2.276,0,0,0-1.215.157,2.582,2.582,0,0,0-.789.522,4.069,4.069,0,0,0-.485.662Z" transform="translate(-189.807 -145.372)" fill="#263238"/>
      <path id="Path_902" data-name="Path 902" d="M127.085,139.135a1.874,1.874,0,0,1-.362.07c-.239.036-.592.09-1.055.121a5.36,5.36,0,0,1-1.684-.132,3.608,3.608,0,0,1-.988-.424,2.7,2.7,0,0,1-.867-.842,2.626,2.626,0,0,1-.373-1.291,5.447,5.447,0,0,1,.16-1.44,6.325,6.325,0,0,1,1.47-2.82,4.538,4.538,0,0,1,1.4-1.033,3.676,3.676,0,0,1,.876-.281,4,4,0,0,1,.934-.051,3.929,3.929,0,0,1,1.83.578,3.41,3.41,0,0,1,.752.657,3.051,3.051,0,0,1,.5.89l.123.342-.326-.166a2.3,2.3,0,0,1-.923-.915,2.941,2.941,0,0,1-.384-1.285,3.042,3.042,0,0,1,.132-1.122A3.867,3.867,0,0,1,128.8,129a5.492,5.492,0,0,1,1.557-1.459,7.706,7.706,0,0,1,3.791-1.215,6.238,6.238,0,0,1,3.5.842,5.772,5.772,0,0,1,2.172,2.267,4.894,4.894,0,0,1,.017,4.425,4.148,4.148,0,0,1-.716,1,2.525,2.525,0,0,1-.239.216c-.056.048-.084.07-.087.065a3.251,3.251,0,0,1,.281-.32,4.369,4.369,0,0,0,.659-1.016,4.8,4.8,0,0,0,.446-1.849,4.639,4.639,0,0,0-.544-2.43,5.612,5.612,0,0,0-2.113-2.155,6.028,6.028,0,0,0-3.367-.791,7.464,7.464,0,0,0-3.648,1.187,5.237,5.237,0,0,0-1.473,1.383,3.011,3.011,0,0,0-.561,1.933,2.318,2.318,0,0,0,1.167,1.95l-.2.177a2.806,2.806,0,0,0-.449-.8,3.087,3.087,0,0,0-.685-.6,3.623,3.623,0,0,0-1.684-.542,3.786,3.786,0,0,0-3.022,1.268,6.078,6.078,0,0,0-1.434,2.7,5.273,5.273,0,0,0-.171,1.375,2.447,2.447,0,0,0,.326,1.2,2.551,2.551,0,0,0,.8.808,3.457,3.457,0,0,0,.934.424,5.54,5.54,0,0,0,1.644.171c.457,0,.811-.048,1.052-.067A1.728,1.728,0,0,1,127.085,139.135Z" transform="translate(-110.312 -125.682)" fill="#263238"/>
      <path id="Path_903" data-name="Path 903" d="M146.009,198.043a1.052,1.052,0,0,1-.407.168,3.961,3.961,0,0,1-1.2.14,4.473,4.473,0,0,1-1.745-.4,3.258,3.258,0,0,1-.906-.589,1.442,1.442,0,0,1-.485-1.1,1.866,1.866,0,0,1,.491-1.083,5.036,5.036,0,0,1,.786-.718,6.769,6.769,0,0,1,1.546-.887,5.985,5.985,0,0,1,1.148-.345,1.123,1.123,0,0,1,.438-.036c0,.051-.606.152-1.5.561a7.39,7.39,0,0,0-1.465.912,4.973,4.973,0,0,0-.732.713,1.6,1.6,0,0,0-.418.912,1.156,1.156,0,0,0,.4.878,3.157,3.157,0,0,0,.819.561,4.56,4.56,0,0,0,1.642.443A9.576,9.576,0,0,0,146.009,198.043Z" transform="translate(-124.35 -173.786)" fill="#263238"/>
      <path id="Path_904" data-name="Path 904" d="M232.326,217.938a5.079,5.079,0,0,1-.856-.21,7.017,7.017,0,0,0-.926-.146,6.833,6.833,0,0,0-1.145,0,7.033,7.033,0,0,0-1.122.222,6.259,6.259,0,0,0-.878.331,4.824,4.824,0,0,1-.794.376c-.028-.039.219-.281.7-.561a5.051,5.051,0,0,1,.892-.4,5.332,5.332,0,0,1,2.377-.241,5.049,5.049,0,0,1,.954.213A2.263,2.263,0,0,1,232.326,217.938Z" transform="translate(-185.737 -191.108)" fill="#ff9a6c"/>
      <path id="Path_905" data-name="Path 905" d="M198.227,339.514,195,331.39l2.068-12.067.561-7.131c-.1-4.6-.494-8.152-2.394-12.347l-5.893-14.573-7.206,1.964a11.294,11.294,0,0,0-.912-2.674c-1.347-2.559-18.759-1.684-19.885-.772-.716.586-1.069,2.7-1.232,4.156l-6.059-.031-7.139,18.347c.227.505,4.63,6.384,4.63,6.384l4.375,24.181-1.4,2.526Z" transform="translate(-128.408 -238.308)" fill="#09877c"/>
      <path id="Path_906" data-name="Path 906" d="M202.9,292.245a1.07,1.07,0,0,1-.1-.281,7.234,7.234,0,0,1-.182-.786,9.6,9.6,0,0,1,.547-5.236,7.131,7.131,0,0,1,.34-.73,1.057,1.057,0,0,1,.154-.253c.022,0-.168.387-.4,1.021a10.7,10.7,0,0,0-.539,5.18C202.811,291.832,202.92,292.239,202.9,292.245Z" transform="translate(-168.381 -239.808)" fill="#263238"/>
      <path id="Path_907" data-name="Path 907" d="M220.243,291.518a1.255,1.255,0,0,1-.079-.3c-.042-.2-.09-.486-.135-.842a21.093,21.093,0,0,1-.146-2.806c0-1.1.07-2.088.121-2.806l.07-.842a1.237,1.237,0,0,1,.045-.309,1.363,1.363,0,0,1,0,.311c0,.2,0,.491-.022.842-.022.718-.07,1.709-.079,2.806a27.856,27.856,0,0,0,.1,2.806C220.2,291.075,220.266,291.512,220.243,291.518Z" transform="translate(-180.902 -238.837)" fill="#263238"/>
      <path id="Path_908" data-name="Path 908" d="M238.2,290.2a10.142,10.142,0,0,1,.039-1.061,23.979,23.979,0,0,0,0-2.554,15.238,15.238,0,0,0-.368-2.526c-.149-.634-.281-1.019-.255-1.027a1.122,1.122,0,0,1,.115.261,7.483,7.483,0,0,1,.241.741,12.431,12.431,0,0,1,.413,2.526,18.031,18.031,0,0,1-.042,2.568c-.028.328-.059.592-.087.775A1,1,0,0,1,238.2,290.2Z" transform="translate(-193.655 -238.42)" fill="#263238"/>
      <path id="Path_909" data-name="Path 909" d="M255.695,291.849c-.025,0,.121-.415.281-1.092a9.261,9.261,0,0,0,.222-2.688,8.9,8.9,0,0,0-.606-2.624c-.261-.645-.471-1.021-.446-1.035a1.237,1.237,0,0,1,.166.255,6.982,6.982,0,0,1,.376.741,7.967,7.967,0,0,1,.654,2.655,8.253,8.253,0,0,1-.264,2.722,6.937,6.937,0,0,1-.255.789A1.269,1.269,0,0,1,255.695,291.849Z" transform="translate(-206.268 -239.412)" fill="#263238"/>
      <path id="Path_910" data-name="Path 910" d="M270.693,295.066a5.252,5.252,0,0,1-.126-.842c-.065-.516-.152-1.232-.32-2.006s-.387-1.462-.544-1.964a5.4,5.4,0,0,1-.233-.814,4.826,4.826,0,0,1,.331.78,14.226,14.226,0,0,1,.589,1.964,14.694,14.694,0,0,1,.281,2.032A4.473,4.473,0,0,1,270.693,295.066Z" transform="translate(-216.575 -243.031)" fill="#263238"/>
      <path id="Path_911" data-name="Path 911" d="M168.7,144.882l.415-2.879a8.813,8.813,0,0,0-.415-3.244c-.522-1.08.126-1.658,1.423-.651a3.5,3.5,0,0,1,1.442,1.875s1.948-5.408,2.669-6.847a42.126,42.126,0,0,1,2.6-4.041s2.955-4.54,3.171-4.613.721-.073.505.721l1.153-.752s1.3.536.359,2.265-2.161,4.254-2.161,4.254l-.073,1.226,3.317-4.038s1.44-.648.937,1.08a23.791,23.791,0,0,1-2.245,4.47l-.864,4.4a10.683,10.683,0,0,1-.143,3.679c-.435,2.018-3.311,7.936-5.079,8.508S168.7,144.882,168.7,144.882Z" transform="translate(-143.951 -124.341)" fill="#ffbf9d"/>
      <path id="Path_912" data-name="Path 912" d="M168.562,144.6l.076.079.216.233c.191.2.477.508.842.9s.842.864,1.4,1.4a24.351,24.351,0,0,0,2.04,1.743,7.875,7.875,0,0,0,1.339.828,2.074,2.074,0,0,0,.8.21,1.263,1.263,0,0,0,.772-.323,7.016,7.016,0,0,0,1.243-1.4,19.163,19.163,0,0,0,1.075-1.7,27.7,27.7,0,0,0,1.863-3.985,8.854,8.854,0,0,0,.34-1.122,10.95,10.95,0,0,0,.18-1.184,10.535,10.535,0,0,0-.039-2.467v-.022c.281-1.4.561-2.876.862-4.4h0a31.175,31.175,0,0,0,1.684-3.036,9.012,9.012,0,0,0,.615-1.653,1.6,1.6,0,0,0,.039-.429.469.469,0,0,0-.143-.354.516.516,0,0,0-.376-.084,1.375,1.375,0,0,0-.418.109l.028-.022-3.317,4.038-.143.174.014-.225a1.949,1.949,0,0,1,.017-.309c.02-.306.036-.612.056-.918h0l1.684-3.339.418-.819c.07-.137.132-.281.2-.4a2.45,2.45,0,0,0,.135-.421,1.4,1.4,0,0,0-.039-.842,1.162,1.162,0,0,0-.561-.595h.067l-1.153.749-.154.1.084-.225c.056-.2.09-.455-.036-.586a.328.328,0,0,0-.261-.073H179.9a1.481,1.481,0,0,0-.1.118c-.281.354-.53.727-.786,1.092-.505.735-.991,1.465-1.468,2.186-.236.359-.471.716-.7,1.069s-.485.69-.721,1.033c-.471.682-.923,1.358-1.339,2.035-.208.337-.407.676-.581,1.019s-.348.738-.488,1.089c-.281.7-.561,1.383-.817,2.054-.516,1.339-.985,2.607-1.417,3.791l-.056.157-.042-.166a2.908,2.908,0,0,0-.645-1.122,5.57,5.57,0,0,0-.92-.842,1.656,1.656,0,0,0-1.047-.4.387.387,0,0,0-.225.109.449.449,0,0,0-.1.224,1.022,1.022,0,0,0,.059.511c.053.163.132.32.194.483a4.053,4.053,0,0,1,.14.483,7.791,7.791,0,0,1,.138.932A12.491,12.491,0,0,1,169,141.7h0c-.14.937-.247,1.656-.323,2.144l-.084.561c-.02.123-.034.188-.034.188a1.33,1.33,0,0,1,.02-.185c.02-.123.039-.309.073-.561l.281-2.158h0a12.492,12.492,0,0,0-.051-1.614,5.315,5.315,0,0,0-.48-1.88,1.094,1.094,0,0,1-.065-.561.516.516,0,0,1,.123-.281.491.491,0,0,1,.281-.135,1.717,1.717,0,0,1,1.122.413,5.73,5.73,0,0,1,.94.842,3,3,0,0,1,.673,1.167h-.1c.427-1.187.892-2.458,1.4-3.8.258-.671.525-1.358.814-2.06.146-.351.3-.7.471-1.055s.379-.688.587-1.03c.415-.679.867-1.358,1.336-2.043l.718-1.03.7-1.072q.71-1.08,1.465-2.189c.255-.368.508-.738.791-1.1a1.305,1.305,0,0,1,.121-.135.238.238,0,0,1,.059-.039h.048a.537.537,0,0,1,.093-.017.469.469,0,0,1,.373.112.491.491,0,0,1,.129.368,1.371,1.371,0,0,1-.053.356l-.107-.076,1.153-.752.034-.022.034.017a1.294,1.294,0,0,1,.643.671,1.535,1.535,0,0,1,.048.932,3.015,3.015,0,0,1-.14.443c-.067.14-.135.281-.2.418l-.415.817-1.684,3.334v-.028c-.02.306-.036.612-.056.918a1.846,1.846,0,0,1-.017.309l-.129-.051c1.122-1.383,2.245-2.744,3.317-4.035h.014a1.485,1.485,0,0,1,.463-.112.662.662,0,0,1,.483.115.623.623,0,0,1,.2.457,1.965,1.965,0,0,1-.045.466,9.074,9.074,0,0,1-.626,1.684,30.837,30.837,0,0,1-1.684,3.05v-.022l-.85,4.392v-.025a10.678,10.678,0,0,1,.039,2.5,11.846,11.846,0,0,1-.185,1.2,9.847,9.847,0,0,1-.348,1.122,27.783,27.783,0,0,1-1.883,4,20.18,20.18,0,0,1-1.086,1.706,6.923,6.923,0,0,1-1.268,1.4,1.347,1.347,0,0,1-.842.342,2.226,2.226,0,0,1-.842-.225,7.9,7.9,0,0,1-1.353-.842,24.2,24.2,0,0,1-2.035-1.762c-.561-.544-1.033-1.024-1.4-1.42s-.654-.7-.842-.912l-.208-.241A.737.737,0,0,1,168.562,144.6Z" transform="translate(-143.816 -124.06)" fill="#ff9a6c"/>
      <path id="Path_913" data-name="Path 913" d="M198.827,127.27a3.033,3.033,0,0,1-.25.41l-.718,1.089a28.929,28.929,0,0,0-2.141,3.721,16.329,16.329,0,0,0-1.257,4.089c-.093.544-.14.985-.168,1.294a3.561,3.561,0,0,1-.056.474.35.35,0,0,1,0-.123v-.356a12.722,12.722,0,0,1,.126-1.3,15.036,15.036,0,0,1,1.226-4.134,25.042,25.042,0,0,1,2.186-3.721c.314-.452.575-.814.758-1.064A3.268,3.268,0,0,1,198.827,127.27Z" transform="translate(-162.449 -126.369)" fill="#ff9a6c"/>
      <path id="Path_914" data-name="Path 914" d="M203.875,151.72c.017.02-.281.255-.62.735a6.3,6.3,0,0,0-.954,2.082,14.256,14.256,0,0,0-.365,2.287,7.361,7.361,0,0,1-.112.96.859.859,0,0,1-.014-.258c0-.168,0-.41.022-.707a11.6,11.6,0,0,1,.328-2.318,5.823,5.823,0,0,1,1.013-2.11,3.947,3.947,0,0,1,.488-.516.864.864,0,0,1,.213-.154Z" transform="translate(-167.899 -143.958)" fill="#ff9a6c"/>
      <path id="Path_915" data-name="Path 915" d="M191.644,145.34a5.269,5.269,0,0,1-.258.808c-.171.494-.4,1.179-.617,1.948s-.384,1.47-.5,1.981a6.146,6.146,0,0,1-.2.822,4.013,4.013,0,0,1,.1-.842,20,20,0,0,1,1.122-3.929A4.193,4.193,0,0,1,191.644,145.34Z" transform="translate(-159.456 -139.368)" fill="#ff9a6c"/>
      <path id="Path_916" data-name="Path 916" d="M176.828,178.08a3.086,3.086,0,0,1-.138.645c-.115.449-.25.968-.4,1.541s-.281,1.094-.387,1.543a3.122,3.122,0,0,1-.188.634,2.915,2.915,0,0,1,.087-.657c.073-.4.194-.954.345-1.557s.311-1.145.441-1.532A2.848,2.848,0,0,1,176.828,178.08Z" transform="translate(-149.133 -162.921)" fill="#ff9a6c"/>
      <path id="Path_917" data-name="Path 917" d="M265.678,130.413a.794.794,0,0,0-1.277.923l.022.039c.808,1.344,3.564,5.744,3.564,5.744l.674,1.515s1.451,2.307,1.72,2.977,3.96,6.7,4.445,7.24,3.042,0,3.042,0l2.758-5.444-2.758-6.289s.135-.9-.4-.7a3.517,3.517,0,0,0-.808.4L270.569,128s-1.588-2.666-2.733-.862c0,0-1.339.4-.581,2.223a13.1,13.1,0,0,0,2.077,3.421l1.075,2.823Z" transform="translate(-212.859 -125.827)" fill="#ffbf9d"/>
      <path id="Path_918" data-name="Path 918" d="M265.581,130.256s.031.028.084.084l.244.258.932,1.01,3.5,3.816-.073.042c-.326-.842-.69-1.8-1.083-2.82v.017a13.066,13.066,0,0,1-1.723-2.629q-.185-.376-.354-.766a3.228,3.228,0,0,1-.239-.842,1.557,1.557,0,0,1,.137-.89,1.288,1.288,0,0,1,.7-.609l-.034.025a1.541,1.541,0,0,1,.586-.561,1,1,0,0,1,.842,0,3.4,3.4,0,0,1,1.235,1.122l1.99,2.91,4.294,6.21-.1-.017a3.682,3.682,0,0,1,.862-.427.337.337,0,0,1,.295.028.435.435,0,0,1,.154.247,1.525,1.525,0,0,1,0,.516v-.039c.379.862.78,1.782,1.187,2.711q.794,1.816,1.569,3.581l.014.031-.014.031q-1.423,2.806-2.759,5.444l-.017.028h-.031a11.12,11.12,0,0,1-2.141.239,3.159,3.159,0,0,1-.536-.056.758.758,0,0,1-.48-.281c-.219-.281-.4-.561-.589-.856-.741-1.142-1.428-2.265-2.085-3.345L271,142.876a16.618,16.618,0,0,1-.842-1.56c-.519-1.019-1.106-1.945-1.642-2.806h0c-.241-.542-.46-1.038-.671-1.515h0l-3.511-5.727a.9.9,0,0,1-.163-.536.777.777,0,0,1,.188-.452.842.842,0,0,1,.679-.309.783.783,0,0,1,.432.166c.076.073.112.112.112.112s-.042-.031-.121-.1a.763.763,0,0,0-.424-.149.819.819,0,0,0-.634.314.738.738,0,0,0-.171.429.842.842,0,0,0,.16.505l3.555,5.688h0l.674,1.513h0c.542.873,1.122,1.79,1.661,2.823a16.825,16.825,0,0,0,.842,1.549l.954,1.591c.659,1.078,1.347,2.2,2.091,3.337.188.281.376.561.581.842a.612.612,0,0,0,.407.222,3.026,3.026,0,0,0,.508.053,11.1,11.1,0,0,0,2.107-.239l-.048.036,2.753-5.444v.062q-.774-1.762-1.569-3.584c-.407-.926-.811-1.846-1.187-2.708v-.039a1.324,1.324,0,0,0-.014-.46c-.034-.152-.126-.222-.264-.171a3.567,3.567,0,0,0-.817.4l-.062.042-.042-.059-4.291-6.219c-.679-.985-1.339-1.948-1.964-2.876a3.272,3.272,0,0,0-1.179-1.094.87.87,0,0,0-.758-.017,1.426,1.426,0,0,0-.536.522v.017h-.022a1.19,1.19,0,0,0-.629.547,1.448,1.448,0,0,0-.126.822,5.27,5.27,0,0,0,.575,1.569,13.1,13.1,0,0,0,1.684,2.613h0c.387,1.024.746,1.978,1.069,2.826l.081.216-.154-.171-3.471-3.842-.915-1.024-.236-.281Z" transform="translate(-212.762 -125.671)" fill="#ff9a6c"/>
      <path id="Path_919" data-name="Path 919" d="M288.61,162.822c-.042,0-.247-.561-.581-1.221a1.215,1.215,0,0,0-.561-.679.9.9,0,0,0-.37-.039.411.411,0,0,1,.4-.059.814.814,0,0,1,.382.253,2.2,2.2,0,0,1,.281.46A3.808,3.808,0,0,1,288.61,162.822Z" transform="translate(-229.256 -150.491)" fill="#ff9a6c"/>
      <path id="Path_920" data-name="Path 920" d="M282.889,137.136a2.043,2.043,0,0,1-.2-.342c-.118-.225-.281-.561-.511-.949-.438-.8-1.083-1.872-1.869-3.014s-1.532-2.155-2.06-2.9l-.62-.881a2.028,2.028,0,0,1-.213-.334,1.945,1.945,0,0,1,.258.3l.659.842c.561.724,1.31,1.729,2.1,2.876a27.973,27.973,0,0,1,1.838,3.048c.211.4.368.738.471.971A2.057,2.057,0,0,1,282.889,137.136Z" transform="translate(-222.294 -127.412)" fill="#ff9a6c"/>
      <path id="Path_921" data-name="Path 921" d="M298.774,161.074a2.411,2.411,0,0,0-.974-1.964.875.875,0,0,1,.314.152,1.754,1.754,0,0,1,.539.645,1.794,1.794,0,0,1,.191.817C298.835,160.951,298.791,161.077,298.774,161.074Z" transform="translate(-236.955 -149.274)" fill="#ff9a6c"/>
      <path id="Path_922" data-name="Path 922" d="M310.017,166.629a3.235,3.235,0,0,1-.345-.561l-.772-1.4c-.3-.544-.561-1.047-.735-1.4a2.879,2.879,0,0,1-.255-.612,2.975,2.975,0,0,1,.345.561c.224.4.485.876.775,1.4s.561,1.047.735,1.417a2.76,2.76,0,0,1,.253.6Z" transform="translate(-244.228 -151.821)" fill="#ff9a6c"/>
      <path id="Path_923" data-name="Path 923" d="M229.1,390.606a.655.655,0,0,1,.152-.056l.441-.135.317-.1c.115-.036.239-.084.37-.132.264-.1.561-.2.9-.345l.514-.222c.177-.076.354-.174.542-.267.379-.18.76-.413,1.165-.648a16.5,16.5,0,0,0,4.51-4.072c.281-.379.547-.735.763-1.094.109-.177.227-.342.323-.511s.182-.331.281-.488c.182-.306.309-.6.435-.842.062-.126.121-.244.168-.356s.09-.21.126-.306l.18-.424a.561.561,0,0,1,.073-.143.866.866,0,0,1-.045.154c-.042.115-.093.258-.154.435-.034.1-.073.2-.115.311s-.1.233-.157.362c-.121.258-.241.561-.418.87-.084.16-.174.326-.267.5s-.208.34-.314.519c-.213.365-.483.727-.758,1.122a15.953,15.953,0,0,1-4.563,4.08c-.41.236-.8.466-1.181.64-.191.093-.37.188-.561.264l-.519.213c-.328.146-.64.236-.909.328-.135.042-.258.087-.376.121l-.323.081-.446.109A.665.665,0,0,1,229.1,390.606Z" transform="translate(-187.534 -308.516)" fill="#263238"/>
      <path id="Path_924" data-name="Path 924" d="M108.173,199.115c-.53.059-27.049,13.012-27.189,19.1s2.1,8.809,4.355,12.269,14.354,16.458,15.019,16.7,9.673-12.249,9.673-12.249l-3.713-8.475s-1.2-3.339-4.908-1.729L98.363,221.8,114.8,206.027S117.852,198.04,108.173,199.115Z" transform="translate(-80.978 -177.981)" fill="#09877c"/>
      <path id="Path_925" data-name="Path 925" d="M155.4,313.612a.39.39,0,0,1,.034-.135c.031-.1.073-.225.121-.373a6.067,6.067,0,0,0,.18-.595c.062-.233.146-.5.2-.8.031-.149.062-.306.1-.469s.051-.334.079-.511c.059-.354.079-.735.112-1.122a13.573,13.573,0,0,0-.721-5.147c-.14-.379-.281-.738-.421-1.061-.073-.163-.138-.326-.213-.471s-.152-.281-.222-.424a6.913,6.913,0,0,0-.41-.713,6.072,6.072,0,0,0-.337-.519l-.219-.328a.562.562,0,0,1-.07-.118.788.788,0,0,1,.093.1l.244.311a5.467,5.467,0,0,1,.359.511c.129.2.281.432.429.7.076.135.152.281.233.424s.146.309.222.471c.163.323.281.688.438,1.066a13.063,13.063,0,0,1,.73,5.2c-.036.4-.062.791-.129,1.145-.028.18-.048.351-.084.516l-.107.469a7.677,7.677,0,0,1-.222.8,5,5,0,0,1-.2.589c-.059.146-.107.267-.149.368a.674.674,0,0,1-.059.112Z" transform="translate(-133.228 -251.225)" fill="#263238"/>
      <path id="Path_926" data-name="Path 926" d="M166.1,331.034a1.591,1.591,0,0,1,.1-.2l.309-.561.227-.413c.079-.152.154-.323.244-.505.168-.362.382-.766.561-1.24l.3-.732c.1-.255.188-.53.281-.808.208-.561.37-1.17.561-1.813a25.114,25.114,0,0,0,.73-8.612c-.073-.662-.129-1.3-.241-1.88-.051-.281-.09-.578-.149-.842s-.118-.528-.174-.774c-.1-.5-.241-.932-.345-1.319-.056-.191-.1-.373-.157-.536s-.107-.311-.152-.446c-.087-.258-.157-.463-.21-.617a1.177,1.177,0,0,1-.062-.219,1.386,1.386,0,0,1,.09.208l.236.609.166.443c.056.163.107.342.168.536.112.384.264.819.368,1.316l.185.775c.062.281.1.561.157.842.118.586.177,1.221.255,1.889a24.476,24.476,0,0,1-.735,8.657c-.188.645-.356,1.26-.561,1.818-.1.281-.191.561-.3.811s-.213.5-.311.732c-.188.471-.41.876-.586,1.235-.093.18-.174.351-.255.5l-.239.407c-.14.233-.25.421-.334.561A1.142,1.142,0,0,1,166.1,331.034Z" transform="translate(-142.213 -257.469)" fill="#263238"/>
      <path id="Path_927" data-name="Path 927" d="M130.266,271.83a2.242,2.242,0,0,1-.3.3c-.2.188-.491.455-.859.777-.732.645-1.774,1.507-2.963,2.408s-2.3,1.684-3.1,2.225c-.407.281-.735.491-.965.64a2.43,2.43,0,0,1-.368.216,2.586,2.586,0,0,1,.334-.264l.94-.676c.791-.561,1.886-1.358,3.073-2.259s2.245-1.745,2.986-2.368l.89-.741a2.138,2.138,0,0,1,.334-.261Z" transform="translate(-110.28 -230.363)" fill="#263238"/>
      <path id="Path_928" data-name="Path 928" d="M296.714,189.451a7.159,7.159,0,0,1,8.7-5.245s15.392,10.737,19.868,16.439,3.137,7.857,1.934,10.8-5.436,7.88-13.161,14.3l-10.274,7.754s-8.621-17.7-7.756-18.978c.418-.615,13.638-6.322,13.638-6.322s-.528-.606.342-1.586h0l-5.279-6.454Z" transform="translate(-235.634 -167.195)" fill="#09877c"/>
      <path id="Path_929" data-name="Path 929" d="M394.329,259a1.289,1.289,0,0,1,.168.643,2.3,2.3,0,0,1-.446,1.532,2.439,2.439,0,0,1-1.339.878,1.425,1.425,0,0,1-.662.053c0-.025.255-.031.634-.152a2.551,2.551,0,0,0,1.249-.867,2.368,2.368,0,0,0,.46-1.442C394.39,259.241,394.3,259,394.329,259Z" transform="translate(-304.757 -221.133)" fill="#263238"/>
      <path id="Path_930" data-name="Path 930" d="M310.191,343.072v-.081c0-.053.02-.135.031-.23.031-.216.076-.514.129-.892.126-.769.281-1.891.432-3.278a40.124,40.124,0,0,0-.154-10.866,31.927,31.927,0,0,0-1.588-5.775c-.171-.427-.326-.842-.494-1.252l-.522-1.159c-.084-.188-.166-.373-.25-.561l-.281-.519q-.255-.508-.5-.977c-.668-1.226-1.226-2.208-1.647-2.868l-.466-.769-.118-.2a.34.34,0,0,1-.036-.073.459.459,0,0,1,.051.065l.129.194c.118.182.281.435.491.755.432.651,1.007,1.628,1.684,2.848l.505.974.281.519c.09.18.168.365.255.561l.53,1.162c.171.4.328.825.5,1.254a31.422,31.422,0,0,1,1.605,5.8,39.067,39.067,0,0,1,.115,10.9c-.174,1.386-.337,2.509-.48,3.278-.065.376-.118.671-.157.884-.017.1-.031.171-.042.23A.256.256,0,0,1,310.191,343.072Z" transform="translate(-241.94 -260.39)" fill="#263238"/>
      <path id="Path_931" data-name="Path 931" d="M346.12,272.528a2.178,2.178,0,0,1-.432-.418,7.821,7.821,0,0,1-.842-1.176,7.9,7.9,0,0,1-.615-1.313,2.074,2.074,0,0,1-.151-.581c.045-.014.323.842.892,1.821S346.157,272.5,346.12,272.528Z" transform="translate(-270.248 -228.355)" fill="#263238"/>
      <path id="Path_932" data-name="Path 932" d="M350.537,269.087a1.036,1.036,0,0,1-.241-.138c-.149-.1-.359-.241-.617-.429-.514-.373-1.2-.915-1.928-1.557a24.706,24.706,0,0,1-1.771-1.74c-.213-.233-.384-.427-.5-.561a1.01,1.01,0,0,1-.163-.222,8.511,8.511,0,0,1,.735.716c.446.446,1.072,1.058,1.79,1.7s1.4,1.193,1.894,1.586A8.973,8.973,0,0,1,350.537,269.087Z" transform="translate(-271.14 -225.046)" fill="#263238"/>
      <g id="Group_115" data-name="Group 115" transform="translate(11.666 43.479)" opacity="0.3">
        <path id="Path_933" data-name="Path 933" d="M122.55,283.344A5.163,5.163,0,0,0,128.418,279C126.535,280.2,124.3,281.963,122.55,283.344Z" transform="translate(-122.55 -279)"/>
      </g>
      <g id="Group_116" data-name="Group 116" transform="translate(63.376 54.109)" opacity="0.3">
        <path id="Path_934" data-name="Path 934" d="M311.739,322.091a10.582,10.582,0,0,0-4.9-5.211l-.02.039a38.4,38.4,0,0,1,5.264,12.347A10.686,10.686,0,0,0,311.739,322.091Z" transform="translate(-306.82 -316.88)"/>
      </g>
    </g>
  </g>
</svg>
