<svg xmlns="http://www.w3.org/2000/svg" width="297.142" height="297.907" viewBox="0 0 297.142 297.907">
  <g id="Cheer_up-pana_1_" data-name="Cheer up-pana (1)" transform="translate(-14.829 -12)">
    <g id="freepik--background-complete--inject-84" transform="translate(16.405 12)">
      <path id="Path_54348" data-name="Path 54348" d="M256.084,245.751l-74.742-.721-22.653-.108h-7.758a2.86,2.86,0,0,0-.55,0,5.352,5.352,0,0,0,.55.032l1.6.038,6.157.076,22.647.127,74.749.044c29.171,0,55.589.038,74.711.177,9.561.07,17.3.164,22.653.266,2.67.051,4.746.108,6.157.158a11.647,11.647,0,0,1,2.145.164,11.333,11.333,0,0,1-2.164.228c-1.411.038-3.486.076-6.163.1-5.347.051-13.085.063-22.647,0C311.666,246.289,285.254,246.055,256.084,245.751Z" transform="translate(-66.184 -97.532)" fill="#ebebeb"/>
      <path id="Path_54349" data-name="Path 54349" d="M255.979,246.68l-73.724-12.333L159.9,230.721l-6.087-.943-1.588-.221a2.919,2.919,0,0,0-.544-.057,3.316,3.316,0,0,0,.532.12l1.576.291,6.075,1.031,22.356,3.645,73.831,11.681c28.816,4.524,54.912,8.669,73.781,11.782,9.435,1.55,17.085,2.841,22.33,3.8,2.632.468,4.676.841,6.056,1.12a11.142,11.142,0,0,1,2.094.494,11.237,11.237,0,0,1-2.139-.19c-1.4-.183-3.455-.468-6.1-.861-5.3-.785-12.94-1.974-22.381-3.486C310.8,255.848,284.764,251.514,255.979,246.68Z" transform="translate(-66.661 -91.873)" fill="#ebebeb"/>
      <path id="Path_54350" data-name="Path 54350" d="M255.786,247.412l-70.87-23.786L163.4,216.546l-5.866-1.9-1.531-.468a2.716,2.716,0,0,0-.525-.139,4.2,4.2,0,0,0,.506.2l1.506.532,5.834,1.981,21.514,7.119,71.079,23.134c27.747,9,52.861,17.2,71,23.248,9.074,3.018,16.408,5.5,21.457,7.251,2.531.873,4.486,1.569,5.809,2.057a10.707,10.707,0,0,1,1.987.823,10.847,10.847,0,0,1-2.088-.525c-1.348-.4-3.335-1.006-5.885-1.81-5.107-1.6-12.472-3.98-21.552-6.96C308.464,265.111,283.413,256.72,255.786,247.412Z" transform="translate(-68.057 -86.196)" fill="#ebebeb"/>
      <path id="Path_54351" data-name="Path 54351" d="M255.439,248.088,189.2,213.451l-20.122-10.4-5.492-2.784-1.436-.709a2.7,2.7,0,0,0-.5-.221,4.1,4.1,0,0,0,.468.278l1.411.766,5.448,2.873,20.1,10.422,66.548,34.037c25.981,13.288,49.489,25.311,66.441,34.131,8.486,4.429,15.332,8.017,20.046,10.542,2.36,1.266,4.182,2.253,5.416,2.942a11.532,11.532,0,0,1,1.835,1.12,10.89,10.89,0,0,1-1.981-.848c-1.265-.633-3.164-1.519-5.53-2.715-4.784-2.392-11.681-5.9-20.185-10.276C304.7,273.855,281.275,261.63,255.439,248.088Z" transform="translate(-70.323 -80.797)" fill="#ebebeb"/>
      <path id="Path_54352" data-name="Path 54352" d="M254.987,248.783l-60.005-44.566L176.733,190.8c-2.158-1.557-3.8-2.772-4.986-3.613l-1.31-.924A2.81,2.81,0,0,0,170,186a4.121,4.121,0,0,0,.424.348l1.266.974,4.929,3.689,18.243,13.427,60.4,44.015c23.6,17.161,44.927,32.739,60.309,44.1,7.695,5.695,13.921,10.314,18.16,13.541,2.132,1.62,3.8,2.885,4.885,3.759a11.588,11.588,0,0,1,1.639,1.392,11.289,11.289,0,0,1-1.822-1.145c-1.164-.8-2.86-1.993-5.062-3.55-4.354-3.107-10.618-7.65-18.35-13.288C299.616,281.934,278.393,266.2,254.987,248.783Z" transform="translate(-73.389 -75.899)" fill="#ebebeb"/>
      <path id="Path_54353" data-name="Path 54353" d="M254.381,249.4l-52.349-53.355-15.939-16.091-4.366-4.347-1.145-1.114a3.067,3.067,0,0,0-.411-.367,3.908,3.908,0,0,0,.361.411l1.107,1.158,4.3,4.429,15.933,16.066,52.823,52.88c20.634,20.622,39.289,39.326,52.716,52.944,6.714,6.815,12.124,12.352,15.819,16.205,1.854,1.9,3.284,3.43,4.239,4.467a10.875,10.875,0,0,1,1.4,1.633,11,11,0,0,1-1.62-1.418c-1.019-.968-2.531-2.411-4.429-4.284-3.8-3.752-9.3-9.213-16.041-16C293.328,289.085,274.794,270.228,254.381,249.4Z" transform="translate(-77.124 -71.54)" fill="#ebebeb"/>
      <path id="Path_54354" data-name="Path 54354" d="M253.7,249.96l-43.408-60.847c-5.587-7.751-10.124-14.022-13.25-18.35l-3.632-4.974-.962-1.266a4.144,4.144,0,0,0-.348-.424,3.511,3.511,0,0,0,.291.462l.911,1.316,3.563,5.024c3.164,4.36,7.65,10.637,13.231,18.388l43.952,60.41c17.173,23.583,32.695,44.958,43.838,60.505,5.575,7.77,10.055,14.079,13.117,18.464,1.531,2.19,2.708,3.9,3.493,5.062a11.214,11.214,0,0,1,1.133,1.829,10.934,10.934,0,0,1-1.38-1.651c-.861-1.114-2.113-2.772-3.708-4.923-3.164-4.3-7.751-10.542-13.358-18.293C285.977,295.216,270.62,273.721,253.7,249.96Z" transform="translate(-81.505 -67.856)" fill="#ebebeb"/>
      <path id="Path_54355" data-name="Path 54355" d="M252.98,250.332c-13.029-26.121-24.817-49.754-33.359-66.89-4.29-8.511-7.789-15.427-10.213-20.217-1.215-2.367-2.158-4.208-2.816-5.48l-.753-1.411a2.533,2.533,0,0,0-.278-.475,3.717,3.717,0,0,0,.215.5c.164.348.4.823.7,1.449l2.727,5.518,10.194,20.249c8.707,17.085,20.711,40.579,33.973,66.58s25.267,49.514,33.84,66.611c4.29,8.542,7.726,15.478,10.067,20.287,1.171,2.4,2.063,4.278,2.658,5.556a11.425,11.425,0,0,1,.823,1.968,10.411,10.411,0,0,1-1.107-1.848c-.677-1.234-1.652-3.069-2.885-5.436-2.481-4.746-6.011-11.63-10.34-20.16C277.784,300.08,265.951,276.446,252.98,250.332Z" transform="translate(-86.448 -64.83)" fill="#ebebeb"/>
      <path id="Path_54356" data-name="Path 54356" d="M252.276,250.586l-22.413-71.3c-2.911-9.1-5.271-16.452-6.9-21.577-.829-2.531-1.474-4.493-1.9-5.853-.228-.633-.4-1.152-.519-1.512a3.038,3.038,0,0,0-.2-.513,4.991,4.991,0,0,0,.133.532c.114.367.266.873.462,1.538l1.829,5.878c1.626,5.113,3.98,12.478,6.885,21.577,5.91,18.211,14.06,43.338,23.071,71.1s17.161,52.874,22.938,71.1c2.892,9.118,5.195,16.5,6.752,21.622.778,2.531,1.367,4.55,1.746,5.9a10.924,10.924,0,0,1,.513,2.076,11.162,11.162,0,0,1-.8-2c-.475-1.323-1.152-3.29-2-5.828-1.7-5.062-4.107-12.428-7.036-21.514C268.949,303.618,261.008,278.421,252.276,250.586Z" transform="translate(-91.876 -62.616)" fill="#ebebeb"/>
      <path id="Path_54357" data-name="Path 54357" d="M251.525,250.712,240.6,176.767l-3.4-22.387c-.418-2.626-.747-4.67-.974-6.081l-.291-1.607a3.016,3.016,0,0,0-.114-.532,3.222,3.222,0,0,0,.051.544c.044.38.114.9.209,1.588.2,1.411.5,3.461.88,6.094.8,5.309,1.968,12.953,3.4,22.394,2.968,18.913,7.068,45.009,11.592,73.838s8.656,54.943,11.466,73.882c1.424,9.491,2.531,17.116,3.265,22.412.367,2.651.633,4.708.8,6.113a11.784,11.784,0,0,1,.177,2.145,10.463,10.463,0,0,1-.481-2.1c-.259-1.386-.633-3.43-1.057-6.068-.88-5.277-2.094-12.921-3.556-22.368C259.644,305.706,255.765,279.573,251.525,250.712Z" transform="translate(-97.56 -61.268)" fill="#ebebeb"/>
      <path id="Path_54358" data-name="Path 54358" d="M249.923,250.757c.259-29.189.5-55.6.671-74.742.038-9.548.076-17.281.095-22.653V145.6a3.577,3.577,0,0,0-.032-.544,2.989,2.989,0,0,0-.038.544c0,.38,0,.911-.038,1.6,0,1.43-.038,3.5-.07,6.157,0,5.372-.063,13.1-.108,22.653v74.742c0,29.183,0,55.589-.127,74.717-.063,9.561-.152,17.3-.253,22.647-.044,2.67-.1,4.752-.152,6.157a10.887,10.887,0,0,1-.165,2.145,11.346,11.346,0,0,1-.139-2.145c-.044-1.411-.076-3.487-.1-6.163-.051-5.347-.07-13.086-.044-22.647C249.424,306.378,249.639,279.928,249.923,250.757Z" transform="translate(-102.552 -60.864)" fill="#ebebeb"/>
      <path id="Path_54359" data-name="Path 54359" d="M230.133,250.645l12.282-73.724c1.525-9.428,2.759-17.085,3.613-22.362.4-2.632.721-4.676.936-6.087.095-.683.171-1.209.228-1.588a3.13,3.13,0,0,0,.051-.544,3.56,3.56,0,0,0-.12.538c-.07.373-.165.892-.285,1.576-.24,1.4-.588,3.449-1.031,6.068l-3.632,22.362c-2.974,18.907-7.074,45-11.6,73.838s-8.637,54.911-11.706,73.787c-1.55,9.435-2.841,17.085-3.8,22.33-.462,2.639-.842,4.676-1.114,6.062a11.529,11.529,0,0,1-.494,2.094,11.312,11.312,0,0,1,.19-2.145c.177-1.4.468-3.455.854-6.1.785-5.29,1.968-12.94,3.474-22.381C221,305.481,225.318,279.417,230.133,250.645Z" transform="translate(-89.349 -61.334)" fill="#ebebeb"/>
      <path id="Path_54360" data-name="Path 54360" d="M210.578,250.436c9.27-27.671,17.667-52.716,23.748-70.87,2.987-9.074,5.4-16.414,7.087-21.514.81-2.531,1.443-4.505,1.9-5.866l.468-1.531a3.3,3.3,0,0,0,.139-.525,2.532,2.532,0,0,0-.2.506l-.531,1.512c-.462,1.354-1.126,3.309-1.981,5.834-1.683,5.094-4.107,12.434-7.1,21.514-5.916,18.2-14.073,43.326-23.09,71.085s-17.173,52.874-23.2,71.022c-3.031,9.068-5.5,16.376-7.252,21.438-.873,2.531-1.569,4.486-2.056,5.809a10.416,10.416,0,0,1-.823,1.987,11.35,11.35,0,0,1,.525-2.088c.4-1.354,1.006-3.335,1.81-5.891,1.6-5.1,3.974-12.466,6.96-21.552C192.917,303.177,201.295,278.094,210.578,250.436Z" transform="translate(-76.21 -62.726)" fill="#ebebeb"/>
      <path id="Path_54361" data-name="Path 54361" d="M192.043,250.1l34.593-66.257,10.39-20.154,2.784-5.492.7-1.443a2.694,2.694,0,0,0,.221-.5s-.1.158-.278.475-.437.8-.766,1.4l-2.866,5.454-10.4,20.122-34,66.567c-13.244,25.988-25.311,49.508-34.093,66.478-4.429,8.485-8,15.338-10.523,20.059-1.266,2.36-2.253,4.183-2.936,5.41a10.592,10.592,0,0,1-1.126,1.841,11.308,11.308,0,0,1,.854-1.936c.633-1.266,1.512-3.164,2.708-5.53,2.386-4.79,5.891-11.687,10.264-20.192C166.308,299.369,178.521,275.944,192.043,250.1Z" transform="translate(-63.749 -64.973)" fill="#ebebeb"/>
      <path id="Path_54362" data-name="Path 54362" d="M175.021,249.64C192.4,226.2,208.14,204.986,219.549,189.6l13.4-18.255,3.607-4.993.924-1.31a3.534,3.534,0,0,0,.3-.456,3.51,3.51,0,0,0-.348.418l-.975,1.266-3.683,4.936-13.421,18.249-43.977,60.436c-17.148,23.6-32.708,44.927-44.066,60.334-5.695,7.694-10.3,13.921-13.535,18.167-1.614,2.132-2.879,3.8-3.746,4.885a10.847,10.847,0,0,1-1.4,1.639,10.943,10.943,0,0,1,1.152-1.816c.791-1.164,1.987-2.866,3.537-5.062,3.107-4.353,7.65-10.624,13.288-18.35C141.9,294.295,157.62,273.053,175.021,249.64Z" transform="translate(-52.321 -68.036)" fill="#ebebeb"/>
      <path id="Path_54363" data-name="Path 54363" d="M159.894,249.055l53.323-52.38,16.053-15.946,4.341-4.372c.481-.494.854-.873,1.114-1.152a3.383,3.383,0,0,0,.367-.405,3.9,3.9,0,0,0-.411.361c-.278.259-.633.633-1.158,1.107-1.025.993-2.531,2.442-4.429,4.3L213,196.51,160.16,249.365c-20.609,20.647-39.3,39.314-52.918,52.747-6.8,6.72-12.339,12.13-16.186,15.819-1.9,1.854-3.436,3.284-4.467,4.24A11.674,11.674,0,0,1,85,323.627a11,11,0,0,1,1.417-1.62c.968-1.025,2.411-2.531,4.284-4.429,3.74-3.8,9.2-9.3,15.977-16.047C120.232,288.008,139.064,269.481,159.894,249.055Z" transform="translate(-42.174 -71.786)" fill="#ebebeb"/>
      <path id="Path_54364" data-name="Path 54364" d="M146.993,248.352l60.822-43.446,18.35-13.288,4.967-3.639,1.266-.962a3.288,3.288,0,0,0,.424-.348,3.511,3.511,0,0,0-.462.291l-1.316.911-5.024,3.569-18.35,13.237-60.423,44c-23.571,17.186-44.926,32.721-60.474,43.87-7.764,5.613-14.073,10.124-18.451,13.162-2.2,1.538-3.9,2.715-5.062,3.5a11.209,11.209,0,0,1-1.829,1.133,10.934,10.934,0,0,1,1.626-1.379c1.114-.867,2.771-2.114,4.917-3.708,4.3-3.2,10.542-7.764,18.287-13.37C101.756,280.661,123.245,265.291,146.993,248.352Z" transform="translate(-33.519 -76.145)" fill="#ebebeb"/>
      <path id="Path_54365" data-name="Path 54365" d="M136.593,247.66l66.9-33.4,20.211-10.219,5.473-2.822,1.417-.753a4.244,4.244,0,0,0,.475-.272,3.036,3.036,0,0,0-.506.215l-1.443.7-5.549,2.765-20.249,10.207c-17.053,8.707-40.573,20.729-66.561,34.011s-49.5,25.311-66.592,33.878c-8.542,4.3-15.471,7.739-20.249,10.08-2.4,1.177-4.278,2.069-5.556,2.664a11,11,0,0,1-1.987.829,11.622,11.622,0,0,1,1.848-1.1c1.266-.683,3.069-1.658,5.435-2.9,4.739-2.48,11.624-6.018,20.147-10.346C86.864,272.5,110.478,260.67,136.593,247.66Z" transform="translate(-26.523 -81.11)" fill="#ebebeb"/>
      <path id="Path_54366" data-name="Path 54366" d="M129,246.948l71.269-22.482,21.571-6.916,5.847-1.9,1.519-.519a2.533,2.533,0,0,0,.506-.2,4.542,4.542,0,0,0-.525.139l-1.538.456-5.878,1.835-21.577,6.9-71.06,23.109c-27.734,9.042-52.887,17.192-71.091,22.982-9.112,2.9-16.5,5.208-21.615,6.764-2.531.778-4.55,1.373-5.9,1.753a11.387,11.387,0,0,1-2.094.513,10.267,10.267,0,0,1,2-.8c1.323-.475,3.29-1.152,5.821-2.006,5.062-1.7,12.428-4.113,21.514-7.043C75.982,263.647,101.167,255.693,129,246.948Z" transform="translate(-21.4 -86.523)" fill="#ebebeb"/>
      <path id="Path_54367" data-name="Path 54367" d="M124.407,246.191l73.958-10.979,22.387-3.436,6.081-.981,1.576-.272a3.028,3.028,0,0,0,.538-.114,3.172,3.172,0,0,0-.544.051l-1.588.209-6.093.886-22.394,3.417L124.5,246.6c-28.816,4.562-54.912,8.663-73.825,11.51-9.454,1.424-17.085,2.531-22.413,3.278-2.645.367-4.708.633-6.106.8a10.661,10.661,0,0,1-2.151.228,11.451,11.451,0,0,1,2.1-.474c1.386-.259,3.43-.633,6.068-1.063,5.277-.886,12.915-2.107,22.368-3.569C69.438,254.348,95.565,250.45,124.407,246.191Z" transform="translate(-18.304 -92.207)" fill="#ebebeb"/>
      <path id="Path_54368" data-name="Path 54368" d="M122.992,244.687l74.742.633,22.647.082h7.764a3.559,3.559,0,0,0,.544,0,2.988,2.988,0,0,0-.544-.038l-1.6-.032-6.157-.07-22.653-.095-74.742.044c-29.177.038-55.595.032-74.717-.089-9.561-.051-17.3-.133-22.647-.234-2.677-.044-4.752-.095-6.163-.152a11.4,11.4,0,0,1-2.145-.158,11.636,11.636,0,0,1,2.151-.146c1.4-.038,3.48-.076,6.157-.1,5.347-.057,13.086-.076,22.653-.057C67.4,244.225,93.822,244.421,122.992,244.687Z" transform="translate(-17.32 -97.296)" fill="#ebebeb"/>
      <path id="Path_54369" data-name="Path 54369" d="M124.656,224.884l73.736,12.238,22.368,3.6,6.087.93,1.582.228a3.208,3.208,0,0,0,.544.051,3.082,3.082,0,0,0-.532-.12l-1.576-.285-6.075-1.031-22.356-3.613-73.85-11.561c-28.823-4.493-54.918-8.6-73.793-11.687-9.435-1.538-17.085-2.822-22.337-3.752-2.632-.462-4.676-.835-6.062-1.107a11.53,11.53,0,0,1-2.094-.494,11.276,11.276,0,0,1,2.145.19c1.4.177,3.455.462,6.1.848,5.3.778,12.94,1.962,22.387,3.461C69.82,215.785,95.884,220.087,124.656,224.884Z" transform="translate(-18.414 -84.08)" fill="#ebebeb"/>
      <path id="Path_54370" data-name="Path 54370" d="M129.452,205.328l70.87,23.7,21.514,7.074L227.7,238l1.531.468a3.245,3.245,0,0,0,.532.139,3.086,3.086,0,0,0-.506-.2l-1.512-.532-5.834-1.974L200.4,228.816l-71.085-23.064c-27.759-8.973-52.855-17.116-71.034-23.159-9.074-3.006-16.408-5.48-21.47-7.245-2.531-.873-4.486-1.563-5.809-2.05a11.328,11.328,0,0,1-2-.8,10.835,10.835,0,0,1,2.088.525c1.354.392,3.341,1,5.891,1.8,5.106,1.6,12.472,3.967,21.558,6.96C76.73,187.7,101.768,196.058,129.452,205.328Z" transform="translate(-21.609 -70.941)" fill="#ebebeb"/>
      <path id="Path_54371" data-name="Path 54371" d="M137.273,186.8l66.276,34.555,20.135,10.371,5.5,2.778,1.436.709a4.67,4.67,0,0,0,.5.221,2.787,2.787,0,0,0-.468-.285l-1.411-.759-5.448-2.866-20.128-10.384L137.07,187.187c-26-13.231-49.527-25.247-66.5-34.049-8.492-4.4-15.345-7.96-20.065-10.491-2.36-1.265-4.183-2.253-5.41-2.936a11.45,11.45,0,0,1-1.841-1.12,11.113,11.113,0,0,1,1.981.848c1.266.6,3.164,1.512,5.53,2.708,4.79,2.379,11.694,5.885,20.2,10.245C87.98,161.1,111.431,173.291,137.273,186.8Z" transform="translate(-26.842 -58.488)" fill="#ebebeb"/>
      <path id="Path_54372" data-name="Path 54372" d="M147.87,169.754l60.062,44.49,18.268,13.4,4.993,3.607,1.31.918a2.654,2.654,0,0,0,.462.3,4.118,4.118,0,0,0-.424-.348l-1.266-.975-4.936-3.683-18.255-13.4-60.455-43.946c-23.615-17.129-44.971-32.676-60.366-44.028-7.694-5.695-13.921-10.289-18.173-13.516-2.132-1.614-3.8-2.879-4.885-3.746a11.2,11.2,0,0,1-1.645-1.4,11.276,11.276,0,0,1,1.822,1.145c1.164.8,2.866,1.993,5.062,3.543,4.36,3.1,10.631,7.637,18.35,13.288C103.2,136.667,124.445,152.372,147.87,169.754Z" transform="translate(-33.934 -47.041)" fill="#ebebeb"/>
      <path id="Path_54373" data-name="Path 54373" d="M160.965,154.627l52.412,53.292,15.958,16.072,4.372,4.334,1.152,1.114a3.384,3.384,0,0,0,.4.367,2.768,2.768,0,0,0-.361-.411c-.259-.278-.633-.633-1.107-1.158l-4.3-4.429-15.952-16.066-52.893-52.811c-20.66-20.59-39.339-39.27-52.779-52.861-6.72-6.8-12.136-12.333-15.819-16.18-1.854-1.9-3.29-3.43-4.246-4.467a11.242,11.242,0,0,1-1.4-1.633,11.518,11.518,0,0,1,1.588,1.4c1.031.968,2.531,2.411,4.429,4.284,3.8,3.74,9.308,9.194,16.06,15.971C121.987,114.991,140.521,133.809,160.965,154.627Z" transform="translate(-42.688 -36.895)" fill="#ebebeb"/>
      <path id="Path_54374" data-name="Path 54374" d="M176.223,141.711l43.515,60.79,13.288,18.35,3.645,4.961.962,1.266a2.887,2.887,0,0,0,.348.418,5.213,5.213,0,0,0-.3-.462l-.911-1.316L233.21,220.7l-13.257-18.35c-11.282-15.471-26.842-36.808-44.034-60.4S143.167,97.025,132.005,81.51c-5.632-7.726-10.124-14.054-13.193-18.439-1.538-2.189-2.715-3.9-3.5-5.062a11.2,11.2,0,0,1-1.133-1.829,10.941,10.941,0,0,1,1.379,1.652c.867,1.114,2.113,2.772,3.714,4.917,3.164,4.29,7.764,10.536,13.377,18.274C143.882,96.494,159.271,117.97,176.223,141.711Z" transform="translate(-52.89 -28.224)" fill="#ebebeb"/>
      <path id="Path_54375" data-name="Path 54375" d="M193.367,131.359c13.06,26.108,24.88,49.729,33.442,66.852,4.315,8.517,7.815,15.414,10.238,20.2,1.221,2.36,2.17,4.2,2.822,5.473l.753,1.411a2.529,2.529,0,0,0,.278.475,3.417,3.417,0,0,0-.221-.5c-.165-.348-.392-.823-.7-1.443-.633-1.266-1.55-3.164-2.734-5.518L227.03,198.1c-8.726-17.04-20.755-40.554-34.056-66.536s-25.311-49.482-33.923-66.567c-4.3-8.542-7.751-15.471-10.093-20.249-1.177-2.4-2.076-4.271-2.664-5.549a11.4,11.4,0,0,1-.835-1.987,10.417,10.417,0,0,1,1.107,1.765c.677,1.266,1.658,3.063,2.9,5.435,2.48,4.733,6.024,11.618,10.358,20.141C168.5,81.624,180.338,105.239,193.367,131.359Z" transform="translate(-64.377 -21.258)" fill="#ebebeb"/>
      <path id="Path_54376" data-name="Path 54376" d="M211.993,123.7,234.5,194.972l6.929,21.565,1.93,5.853c.221.633.392,1.152.519,1.512a4.809,4.809,0,0,0,.2.513,2.757,2.757,0,0,0-.133-.532c-.108-.367-.259-.873-.462-1.538-.424-1.36-1.038-3.335-1.835-5.878-1.632-5.113-3.993-12.472-6.91-21.571-5.929-18.2-14.117-43.313-23.159-71.066s-17.2-52.849-23.033-71.072c-2.9-9.112-5.214-16.5-6.777-21.615-.778-2.531-1.373-4.55-1.759-5.9a11.478,11.478,0,0,1-.506-2.088,11.44,11.44,0,0,1,.8,1.993c.475,1.329,1.152,3.29,2.006,5.828,1.708,5.062,4.119,12.421,7.062,21.514C195.256,70.69,203.229,95.874,211.993,123.7Z" transform="translate(-76.878 -16.095)" fill="#ebebeb"/>
      <path id="Path_54377" data-name="Path 54377" d="M231.568,119.113c4.3,28.867,8.188,54.994,11.01,73.933,1.455,9.435,2.632,17.085,3.449,22.381l.981,6.081c.12.683.209,1.2.278,1.582a3.014,3.014,0,0,0,.114.532,3.211,3.211,0,0,0-.013-.55c-.051-.38-.12-.9-.209-1.588-.209-1.411-.506-3.461-.892-6.094-.81-5.309-1.98-12.946-3.43-22.387-2.993-18.913-7.125-45-11.687-73.825s-8.72-54.9-11.58-73.812c-1.43-9.454-2.531-17.085-3.29-22.406-.373-2.651-.633-4.708-.81-6.106a10.763,10.763,0,0,1-.171-2.151,11.452,11.452,0,0,1,.475,2.1c.266,1.386.633,3.43,1.069,6.068.886,5.309,2.113,12.9,3.582,22.394C223.393,64.132,227.31,90.259,231.568,119.113Z" transform="translate(-90.031 -12.992)" fill="#ebebeb"/>
      <path id="Path_54378" data-name="Path 54378" d="M251.065,117.672c-.228,29.183-.43,55.595-.576,74.742-.032,9.548-.051,17.281-.07,22.653v7.758a3.586,3.586,0,0,0,.032.544,2.748,2.748,0,0,0,0-.544c0-.38,0-.911.038-1.6,0-1.43.038-3.5.063-6.157,0-5.372.051-13.1.082-22.653,0-19.148-.057-45.559-.095-74.742s-.063-55.589.038-74.717c.051-9.561.127-17.3.221-22.647.051-2.677.095-4.752.152-6.157A10.749,10.749,0,0,1,251.109,12a11.655,11.655,0,0,1,.146,2.151c.038,1.4.076,3.48.108,6.157.057,5.347.082,13.086.07,22.653C251.5,62.077,251.312,88.5,251.065,117.672Z" transform="translate(-102.922 -12)" fill="#ebebeb"/>
      <path id="Path_54379" data-name="Path 54379" d="M252,119.337c-4.758,28.8-9.068,54.855-12.187,73.743-1.512,9.428-2.734,17.085-3.588,22.368-.4,2.626-.709,4.676-.924,6.087-.1.683-.171,1.209-.228,1.582a3.212,3.212,0,0,0-.051.544,3.1,3.1,0,0,0,.12-.532c.07-.373.158-.9.285-1.576.234-1.411.582-3.449,1.025-6.075.854-5.3,2.082-12.934,3.6-22.362,2.949-18.913,7.017-45.015,11.51-73.85s8.561-54.911,11.636-73.806c1.538-9.435,2.816-17.085,3.74-22.337.462-2.632.835-4.676,1.107-6.062a10.9,10.9,0,0,1,.5-2.063,11.316,11.316,0,0,1-.19,2.145c-.177,1.4-.462,3.455-.848,6.1-.772,5.3-1.949,12.946-3.442,22.387C261.065,64.489,256.781,90.559,252,119.337Z" transform="translate(-97.267 -13.102)" fill="#ebebeb"/>
      <path id="Path_54380" data-name="Path 54380" d="M252.72,124.115c-9.232,27.684-17.591,52.741-23.653,70.87-2.974,9.074-5.385,16.452-7.062,21.514-.81,2.531-1.436,4.505-1.9,5.866-.2.664-.361,1.171-.468,1.531a2.692,2.692,0,0,0-.139.532,3.533,3.533,0,0,0,.2-.506l.532-1.512c.456-1.354,1.114-3.316,1.968-5.834,1.677-5.1,4.094-12.446,7.074-21.514,5.891-18.217,14.016-43.345,23-71.117S269.362,71.052,275.386,52.9c3.025-9.049,5.486-16.363,7.233-21.426.867-2.531,1.557-4.486,2.044-5.809a11.592,11.592,0,0,1,.816-1.993,10.222,10.222,0,0,1-.519,2.088c-.392,1.354-1,3.341-1.8,5.9-1.594,5.1-3.961,12.472-6.929,21.565C270.311,71.381,261.971,96.451,252.72,124.115Z" transform="translate(-91.567 -16.286)" fill="#ebebeb"/>
      <path id="Path_54381" data-name="Path 54381" d="M253.411,131.9c-13.478,25.886-25.69,49.318-34.511,66.3l-10.358,20.141c-1.2,2.373-2.132,4.221-2.778,5.5l-.709,1.436a3.165,3.165,0,0,0-.215.5,4.093,4.093,0,0,0,.278-.468l.759-1.411c.664-1.266,1.626-3.094,2.86-5.454l10.377-20.135L253.032,131.7c13.218-26.007,25.222-49.539,34.011-66.523,4.392-8.492,7.979-15.351,10.5-20.071,1.266-2.36,2.246-4.189,2.936-5.416a11.589,11.589,0,0,1,1.114-1.841,10.492,10.492,0,0,1-.854,1.993c-.633,1.266-1.519,3.164-2.708,5.537-2.379,4.79-5.872,11.694-10.232,20.2C279.076,82.593,266.9,106.037,253.411,131.9Z" transform="translate(-86.184 -21.493)" fill="#ebebeb"/>
      <path id="Path_54382" data-name="Path 54382" d="M254.09,142.475l-44.452,60.113-13.383,18.274-3.6,5-.924,1.31a2.8,2.8,0,0,0-.291.462,4.122,4.122,0,0,0,.348-.424l.968-1.265L196.439,221c3.164-4.328,7.745-10.561,13.4-18.262,11.244-15.5,26.753-36.871,43.9-60.493s32.651-44.99,43.99-60.391c5.663-7.7,10.283-13.921,13.5-18.186,1.614-2.132,2.879-3.8,3.746-4.891a11.126,11.126,0,0,1,1.392-1.639,10.709,10.709,0,0,1-1.145,1.81c-.791,1.164-1.987,2.866-3.531,5.062-3.1,4.36-7.638,10.63-13.288,18.35C287.152,97.8,271.46,119.063,254.09,142.475Z" transform="translate(-81.263 -28.577)" fill="#ebebeb"/>
      <path id="Path_54383" data-name="Path 54383" d="M254.725,155.55l-53.26,52.444-16.06,15.971-4.334,4.372-1.114,1.152a4.766,4.766,0,0,0-.367.411,2.782,2.782,0,0,0,.411-.361l1.158-1.107,4.429-4.309,16.047-15.977,52.779-52.931C275,134.542,293.646,115.857,307.263,102.4c6.8-6.726,12.32-12.143,16.167-15.863,1.9-1.854,3.43-3.29,4.429-4.246a10.763,10.763,0,0,1,1.633-1.4,11.508,11.508,0,0,1-1.417,1.62c-.968,1.025-2.4,2.531-4.278,4.429-3.74,3.8-9.194,9.314-15.965,16.066C294.33,116.546,275.524,135.093,254.725,155.55Z" transform="translate(-76.911 -37.299)" fill="#ebebeb"/>
      <path id="Path_54384" data-name="Path 54384" d="M255.236,170.819,194.491,214.34l-18.35,13.288-4.961,3.645-1.266.962a4.131,4.131,0,0,0-.424.348,2.8,2.8,0,0,0,.462-.291l1.316-.918,5.018-3.569,18.35-13.288,60.372-44.079c23.545-17.218,44.895-32.777,60.417-43.952,7.758-5.587,14.06-10.08,18.439-13.149,2.19-1.538,3.9-2.721,5.062-3.506a11.212,11.212,0,0,1,1.829-1.133,10.932,10.932,0,0,1-1.651,1.379c-1.114.867-2.765,2.12-4.91,3.714-4.29,3.164-10.529,7.777-18.268,13.4C300.46,138.446,279,153.848,255.236,170.819Z" transform="translate(-73.202 -47.511)" fill="#ebebeb"/>
      <path id="Path_54385" data-name="Path 54385" d="M255.65,187.959l-66.82,33.486-20.2,10.244-5.467,2.828-1.43.753a3.689,3.689,0,0,0-.468.272,2.733,2.733,0,0,0,.5-.215l1.443-.7,5.511-2.74,20.223-10.232,66.517-34.094C281.4,174.234,304.917,162.205,322,153.594c8.542-4.3,15.465-7.758,20.248-10.124,2.4-1.171,4.271-2.076,5.549-2.664a10.8,10.8,0,0,1,1.987-.835,11.291,11.291,0,0,1-1.848,1.107c-1.234.677-3.063,1.658-5.429,2.9-4.74,2.487-11.618,6.037-20.141,10.377C305.366,163.053,281.745,174.905,255.65,187.959Z" transform="translate(-70.18 -58.995)" fill="#ebebeb"/>
      <path id="Path_54386" data-name="Path 54386" d="M255.9,206.6l-71.262,22.558-21.558,6.96-5.847,1.9-1.531.55a2.783,2.783,0,0,0-.506.2,4.4,4.4,0,0,0,.531-.139l1.531-.456,5.878-1.841,21.565-6.922,71.054-23.21c27.721-9.08,52.842-17.262,71.06-23.077,9.112-2.911,16.49-5.227,21.609-6.79,2.531-.785,4.55-1.379,5.9-1.765a10.817,10.817,0,0,1,2.088-.506,11.436,11.436,0,0,1-1.993.8c-1.329.475-3.29,1.152-5.828,2.006-5.062,1.715-12.415,4.132-21.514,7.081C308.906,189.841,283.728,197.814,255.9,206.6Z" transform="translate(-67.954 -71.514)" fill="#ebebeb"/>
      <path id="Path_54387" data-name="Path 54387" d="M256.055,226.182l-73.92,11.067-22.387,3.461-6.081.987-1.576.272a3.076,3.076,0,0,0-.531.12,3.235,3.235,0,0,0,.544-.051l1.582-.215,6.094-.892,22.387-3.442,73.819-11.719c28.81-4.606,54.9-8.732,73.806-11.6,9.454-1.443,17.085-2.569,22.413-3.309,2.645-.373,4.708-.633,6.106-.81a11.078,11.078,0,0,1,2.145-.177,11.705,11.705,0,0,1-2.1.481c-1.386.259-3.43.633-6.068,1.069-5.271.892-12.915,2.12-22.362,3.6C311.03,217.962,284.909,221.892,256.055,226.182Z" transform="translate(-66.617 -84.664)" fill="#ebebeb"/>
      <path id="Path_54388" data-name="Path 54388" d="M392.966,141.728l7.663,5.031-9.353,3.885,1.354,9.346-8.973-4.67-5.885,7.435L375,152.8l-11.782,3.044,8.3-11.162-6.3-5.847,7.359-.772.19-9.915,7.929,4.872,4.879-7.252,2.955,8.517,8.542-.323Z" transform="translate(-144.346 -53.78)" fill="#fff"/>
      <path id="Path_54389" data-name="Path 54389" d="M392.724,141.577s.076-.171.247-.506l.772-1.5,3.018-5.79.07.108-8.536.348h-.076v-.076l-2.98-8.511h.221l-4.9,7.289-.069.114-.114-.07-7.935-4.866.228-.12c-.057,3.164-.12,6.48-.184,9.915v.139h-.139l-7.359.772.1-.278,6.29,5.847.108.1-.082.12c-1.379,1.848-2.841,3.8-4.316,5.8l-3.986,5.353-.171-.253,11.788-3.044.152-.038.038.152c.955,3.423,1.9,6.752,2.765,9.96l-.266-.057q3.075-3.86,5.9-7.429l.07-.089.108.051,8.96,4.683-.183.133c-.487-3.423-.93-6.53-1.335-9.352V150.4l.076-.032,9.371-3.86v.139l-5.695-3.8-1.455-.956-.475-.329s.177.1.513.316l1.481.949,5.695,3.7.12.082-.133.057-9.346,3.911.069-.114c.411,2.822.873,5.929,1.373,9.346l.038.247-.221-.114-8.979-4.651.177-.044c-1.9,2.379-3.841,4.86-5.878,7.441l-.184.24-.082-.291q-1.348-4.809-2.778-9.96l.19.114-11.782,3.05-.449.114.278-.373,3.98-5.353,4.316-5.8v.215l-6.29-5.847-.259-.241.354-.038,7.391-.74-.146.152c.07-3.436.139-6.764.2-9.915v-.259l.222.133,7.948,4.86-.19.038c1.734-2.563,3.373-5,4.885-7.245l.139-.2.082.234c1.076,3.107,2.063,5.986,2.942,8.517l-.1-.07,8.536-.291h.133l-.063.114-3.069,5.695-.816,1.493C392.825,141.393,392.724,141.577,392.724,141.577Z" transform="translate(-144.104 -53.622)" fill="#e0e0e0"/>
      <path id="Path_54390" data-name="Path 54390" d="M390.65,143.173l.133,7.289a1.183,1.183,0,0,0,1.057,1.152h0a1.177,1.177,0,0,0,1.266-.993l1.139-7.264a.93.93,0,0,0-.886-1.069l-1.778-.057a.93.93,0,0,0-.93.943Z" transform="translate(-154.419 -59.825)" fill="#e0e0e0"/>
      <path id="Path_54391" data-name="Path 54391" d="M393.284,162.261a1.772,1.772,0,1,1-.035-1.357A1.778,1.778,0,0,1,393.284,162.261Z" transform="translate(-154.123 -66.295)" fill="#e0e0e0"/>
      <path id="Path_54392" data-name="Path 54392" d="M436.314,40.648l5.632,4.24-7.365,2.518.576,7.233-6.65-4.018-4.885,5.41-1.633-7.777L412.8,50l6.916-8.144-4.537-4.8,5.682-.228.639-7.593,5.84,4.126,4.094-5.315,1.854,6.676,6.562.177Z" transform="translate(-162.553 -17.894)" fill="#fff"/>
      <path id="Path_54393" data-name="Path 54393" d="M436.093,40.508s.063-.12.215-.373l.633-1.114,2.6-4.3.063.114-6.568-.152h-.076v-.076c-.557-1.987-1.19-4.233-1.867-6.669l.215.038-4.075,5.309-.082.1-.108-.076-5.84-4.119.234-.108c-.2,2.411-.418,4.961-.633,7.593v.139h-.139l-5.695.228.114-.272,4.537,4.8.1.108-.095.108-3.594,4.24-3.354,3.917-.158-.266,9.194-1.746h.152l.032.152c.557,2.677,1.1,5.277,1.626,7.783l-.266-.076q2.531-2.809,4.891-5.4l.082-.082.1.057,6.638,4.037-.19.12q-.313-3.977-.557-7.239V47.2h.076l7.378-2.487v.133l-4.183-3.2-1.057-.823c-.24-.184-.348-.278-.348-.278l.386.272,1.095.8,4.2,3.107.12.082-.139.051-7.359,2.531.076-.114c.177,2.189.373,4.588.595,7.239v.247l-.215-.127-6.663-4.056h.183l-4.878,5.416-.2.221-.057-.3c-.532-2.531-1.076-5.1-1.639-7.77l.183.12L412.586,50l-.456.089.3-.361,3.322-3.91,3.594-4.233v.221L414.813,37l-.247-.259h.354l5.695-.221-.145.146c.221-2.632.436-5.182.633-7.593v-.259l.215.146,5.828,4.145h-.184l4.107-5.309.152-.2.063.234c.671,2.442,1.265,4.7,1.828,6.682l-.095-.07,6.562.2h.133l-.07.114L437,38.977l-.7,1.107C436.162,40.357,436.093,40.508,436.093,40.508Z" transform="translate(-162.307 -17.729)" fill="#e0e0e0"/>
      <path id="Path_54394" data-name="Path 54394" d="M434.367,41.187l.418,5.587a.9.9,0,0,0,.86.835h0a.905.905,0,0,0,.949-.816l.557-5.625a.709.709,0,0,0-.728-.778h-1.36a.715.715,0,0,0-.7.8Z" transform="translate(-170.472 -22.426)" fill="#e0e0e0"/>
      <path id="Path_54395" data-name="Path 54395" d="M437.241,55.717A1.367,1.367,0,1,1,436.355,54a1.367,1.367,0,0,1,.886,1.715Z" transform="translate(-170.548 -27.4)" fill="#e0e0e0"/>
      <path id="Path_54396" data-name="Path 54396" d="M49.661,72.719,39.1,77.977l11.358,6.391L47.3,96.093l12.168-4.588,6.385,10.39,4.556-11.08L85.494,95.29,77.623,82.628l7.91-8.536-9.105-4.72,1.088-10.909L66.651,63.474l-5.119-10L56.45,63.892,45.6,62.19Z" transform="translate(-25.318 -27.229)" fill="#fff"/>
      <path id="Path_54397" data-name="Path 54397" d="M49.551,72.542s-.1-.24-.285-.7-.456-1.145-.8-2.038c-.7-1.784-1.727-4.429-3.044-7.77l-.051-.127H45.5l10.858,1.677-.108.057,5.062-10.428.108-.228.12.221,5.125,10-.177-.057,10.858-5.024.24-.114v.259c-.342,3.461-.709,7.131-1.082,10.909l-.082-.152,9.1,4.714.19.1L85.568,74l-7.935,8.561v-.2c1.266,2.006,2.582,4.145,3.923,6.328s2.651,4.259,3.948,6.328l.228.367-.411-.127L70.236,90.792l.19-.095q-2.341,5.695-4.562,11.08l-.114.278-.158-.259-6.359-10.39.177.057L47.235,96.024,47,96.113l.063-.24c1.158-4.284,2.215-8.182,3.164-11.725l.051.127-11.352-6.4-.127-.076.133-.063,7.878-3.854,2.038-.993.7-.335-.633.354c-.462.228-1.126.57-2.006,1.019L39.028,77.87v-.139l11.39,6.328.076.044v.082c-.949,3.543-1.993,7.448-3.164,11.738l-.165-.158,12.162-4.6.108-.044.063.1,6.4,10.39h-.278l4.556-11.08.051-.133.139.038L85.454,94.9l-.19.24-3.948-6.328c-1.348-2.158-2.677-4.3-3.923-6.328l-.07-.1.089-.095,7.91-8.53.044.253L76.26,69.334l-.095-.051v-.1c.38-3.8.747-7.454,1.095-10.909l.209.152-10.871,5-.12.057-.063-.12c-1.8-3.544-3.525-6.91-5.106-10.01h.228l-5.1,10.4v.07h-.076L45.476,62.089l.082-.108,2.98,7.846.766,2.031C49.475,72.315,49.551,72.542,49.551,72.542Z" transform="translate(-25.208 -27.053)" fill="#e0e0e0"/>
      <path id="Path_54398" data-name="Path 54398" d="M79.194,76.7l-1.266,9.289A1.519,1.519,0,0,1,76.4,87.3h0A1.512,1.512,0,0,1,74.9,85.811l-.348-9.428a1.2,1.2,0,0,1,1.266-1.234l2.272.2A1.19,1.19,0,0,1,79.194,76.7Z" transform="translate(-38.336 -35.19)" fill="#e0e0e0"/>
      <path id="Path_54399" data-name="Path 54399" d="M72.9,100.718a2.284,2.284,0,1,0,1.658-2.759A2.284,2.284,0,0,0,72.9,100.718Z" transform="translate(-37.707 -43.541)" fill="#e0e0e0"/>
    </g>
    <g id="freepik--Table--inject-84" transform="translate(20.151 309.356)">
      <path id="Path_54400" data-name="Path 54400" d="M306.416,482.095c0,.095-63.4.164-141.582.164s-141.594-.07-141.594-.164,63.384-.164,141.594-.164S306.416,482.006,306.416,482.095Z" transform="translate(-23.24 -481.93)" fill="#263238"/>
    </g>
    <g id="freepik--Characters--inject-84" transform="translate(14.829 54.44)">
      <path id="Path_54424" data-name="Path 54424" d="M346.075,271.382a31.81,31.81,0,0,1,11.782-4.29L366.976,254l24.678,16.9-7.593,29.816,4.36,43.965,9.118,54.1H314.519l-.911-25.627L298.7,289.055l19.546-8.479Z" transform="translate(-119.076 -143.31)" fill="#09877c"/>
      <path id="Path_54425" data-name="Path 54425" d="M419.6,122.942s1.822,15.889,2.424,20.249c.633,4.815,2.392,28.323,2.392,28.323L406.57,205.847A19.35,19.35,0,0,0,417.7,221.97c7.593,3.607,12.953-.664,12.953-.664s15.186-37.378,17.218-48.248-13.187-53.817-13.187-53.817Z" transform="translate(-158.689 -93.822)" fill="#ffbf9d"/>
      <path id="Path_54426" data-name="Path 54426" d="M294.409,204.529a5.429,5.429,0,0,1-4.315-9.9,5.651,5.651,0,0,1,2.974-10.3,6.758,6.758,0,0,1,8.915-7.416,7.593,7.593,0,0,1,9.137-2.012,5.4,5.4,0,0,1,6.467,8.061" transform="translate(-114.899 -113.987)" fill="#263238"/>
      <path id="Path_54427" data-name="Path 54427" d="M338.54,204.688c-1.43-12.8-8.814-23.311-21.571-21.514l-1.171.234a23.026,23.026,0,0,0-18.35,25.266c1.3,11.086,2.885,23.317,4.132,29.158,2.569,12.092,15.073,11.548,15.073,11.548l.595,3.2a14.281,14.281,0,0,0,19.217,10.7h0a14.288,14.288,0,0,0,8.922-15.547Z" transform="translate(-118.558 -117.226)" fill="#ffbf9d"/>
      <path id="Path_54428" data-name="Path 54428" d="M327.71,283.377a29.967,29.967,0,0,0,14.952-7.827s-1.759,9.662-14.066,10.991Z" transform="translate(-129.729 -151.224)" fill="#ff9a6c"/>
      <path id="Path_54429" data-name="Path 54429" d="M305.992,238.882a1.772,1.772,0,0,0,2.018,1.411,1.69,1.69,0,0,0,1.474-1.9,1.772,1.772,0,0,0-2.019-1.417,1.7,1.7,0,0,0-1.474,1.9Z" transform="translate(-121.748 -137.051)" fill="#263238"/>
      <path id="Path_54430" data-name="Path 54430" d="M303.5,230.613c.26.183,1.373-1.05,3.24-1.417s3.411.291,3.569,0c.076-.12-.222-.481-.9-.8a4.835,4.835,0,0,0-2.911-.3,4.67,4.67,0,0,0-2.531,1.411C303.483,230.082,303.375,230.531,303.5,230.613Z" transform="translate(-120.821 -133.762)" fill="#263238"/>
      <path id="Path_54431" data-name="Path 54431" d="M332.992,234.065a1.765,1.765,0,0,0,2.018,1.411,1.683,1.683,0,0,0,1.468-1.9,1.759,1.759,0,0,0-2.012-1.411,1.69,1.69,0,0,0-1.474,1.9Z" transform="translate(-131.664 -135.284)" fill="#263238"/>
      <path id="Path_54432" data-name="Path 54432" d="M332.542,225.374c.259.183,1.379-1.051,3.24-1.418s3.411.291,3.569,0c.082-.12-.215-.481-.9-.8a4.884,4.884,0,0,0-2.911-.3A4.669,4.669,0,0,0,333,224.273C332.53,224.849,332.416,225.292,332.542,225.374Z" transform="translate(-131.486 -131.839)" fill="#263238"/>
      <path id="Path_54433" data-name="Path 54433" d="M323.306,241.735a12.449,12.449,0,0,0-3.132.063c-.487.044-.955.038-1.1-.266a2.532,2.532,0,0,1,.038-1.474l.677-3.9c.924-5.549,1.487-10.067,1.265-10.124s-1.152,4.429-2.075,9.979l-.633,3.917a2.766,2.766,0,0,0,.127,1.9,1.221,1.221,0,0,0,.917.544,3.345,3.345,0,0,0,.829-.051A12.346,12.346,0,0,0,323.306,241.735Z" transform="translate(-126.249 -133.038)" fill="#263238"/>
      <path id="Path_54434" data-name="Path 54434" d="M329.641,215.371c.342.424,1.835-.411,3.8-.867s3.676-.462,3.759-.987c0-.247-.4-.633-1.19-.842a6.076,6.076,0,0,0-3.075,0,5.892,5.892,0,0,0-2.67,1.443C329.686,214.656,329.49,215.168,329.641,215.371Z" transform="translate(-130.42 -128.062)" fill="#263238"/>
      <path id="Path_54435" data-name="Path 54435" d="M301.027,220.129c.481.342,1.93-.4,3.8-.791s3.474-.4,3.746-.917c.114-.247-.222-.633-.981-.88a6.144,6.144,0,0,0-3.215-.082,6.062,6.062,0,0,0-2.841,1.455C300.977,219.477,300.812,219.958,301.027,220.129Z" transform="translate(-119.897 -129.827)" fill="#263238"/>
      <path id="Path_54436" data-name="Path 54436" d="M300.807,187.742a2.855,2.855,0,0,1,.171-.633,5.454,5.454,0,0,1,3.651-3.164,20.555,20.555,0,0,1,2.664-1.8,7.353,7.353,0,0,1,12.143-2.968c.354,0,.7-.032,1.057-.038a7.511,7.511,0,0,1,11.833.924,5.461,5.461,0,0,1,7.593,6.581,5.172,5.172,0,0,1,3.607,3.487,3.018,3.018,0,0,1-2.4,3.607,112.28,112.28,0,0,1,2.208,12.839c.437,2.93-2.917,5.391-2.772,7.416.715,10.308-3.683,5.41-9.105-15.148q-.36-.177-.74-.4c-.513-.31-.715-.785-1.183-1.158s-1.361-.108-2.044.108a5.391,5.391,0,0,1-6.245-2.7c-.43,1.044-1.9,1.266-2.923.88a11.546,11.546,0,0,1-2.74-1.962,3.434,3.434,0,0,0-3.126-.854c-.595.209-1.095.69-1.727.753-1.107.127-1.9-1.044-2.272-2.095A5.035,5.035,0,0,0,307.1,189a6.411,6.411,0,0,0-2.227-.177c-.4.133-.8.3-1.19.437a4.291,4.291,0,0,1-.576.152,5.929,5.929,0,0,0-.7.456c-3.3,2.5-4.98,10.757-4.98,10.757C296.181,195.81,298,191.279,300.807,187.742Z" transform="translate(-118.462 -114.917)" fill="#263238"/>
      <path id="Path_54437" data-name="Path 54437" d="M346.644,190.917s0-.044-.1-.108a3.233,3.233,0,0,0-.329-.272,4.583,4.583,0,0,0-1.481-.683,5.372,5.372,0,0,0-2.531-.032,4.911,4.911,0,0,0-2.848,1.765h.241a6.7,6.7,0,0,0-4.258-3.461,8.423,8.423,0,0,0-3.164-.316,10.186,10.186,0,0,0-3.227.886,16.884,16.884,0,0,0-5.031,3.721h.259a7.53,7.53,0,0,0-4.524-3.164,7.258,7.258,0,0,0-6.752,1.9,5.386,5.386,0,0,0-.513.576,1.069,1.069,0,0,0-.145.222,9.872,9.872,0,0,1,.734-.715,7.49,7.49,0,0,1,2.4-1.462,7.063,7.063,0,0,1,4.214-.259,7.316,7.316,0,0,1,4.309,3.075l.114.177.145-.152a16.882,16.882,0,0,1,4.936-3.632,10.084,10.084,0,0,1,3.113-.861,8.011,8.011,0,0,1,3.025.291,6.429,6.429,0,0,1,4.069,3.3l.095.209.139-.184a4.772,4.772,0,0,1,2.677-1.715,5.335,5.335,0,0,1,2.468,0,5.593,5.593,0,0,1,1.968.892Z" transform="translate(-124.048 -118.99)" fill="#455a64"/>
      <path id="Path_54438" data-name="Path 54438" d="M312.6,195.29a2.911,2.911,0,0,0,.209.291,8.066,8.066,0,0,1,.506.892c.2.4.4.918.633,1.512a5.281,5.281,0,0,0,1.221,1.9,1.734,1.734,0,0,0,1.266.386,6.324,6.324,0,0,0,1.386-.367,2.847,2.847,0,0,1,1.43-.184,3.842,3.842,0,0,1,1.392.7c.449.316.879.7,1.341,1.069a6.027,6.027,0,0,0,1.506,1.076,3.93,3.93,0,0,0,1.936.24,3.094,3.094,0,0,0,.987-.266,1.4,1.4,0,0,0,.766-.778h-.31a4.676,4.676,0,0,0,2.075,2.259,5.886,5.886,0,0,0,3.164.633,7.266,7.266,0,0,0,1.335-.221,2.916,2.916,0,0,1,1.209-.24,1.746,1.746,0,0,1,1.025.525,8.589,8.589,0,0,0,1.038.766,6.632,6.632,0,0,0,4.664,1.145,6.087,6.087,0,0,0,3.55-2.449,6.233,6.233,0,0,0,1.183-3.512l-.12.114a3.309,3.309,0,0,0,2.563-1.183,3.119,3.119,0,0,0,.721-2.006,3.062,3.062,0,0,0-.272-1.316,2,2,0,0,0-.165-.3q-.063-.1-.076-.095a3.614,3.614,0,0,1,.386,1.708,3.063,3.063,0,0,1-.74,1.9A3.113,3.113,0,0,1,346,200.542h-.12v.12a6.12,6.12,0,0,1-1.171,3.354,5.828,5.828,0,0,1-3.385,2.3,6.327,6.327,0,0,1-4.429-1.114,8.1,8.1,0,0,1-.993-.74,2.088,2.088,0,0,0-1.215-.633,2.044,2.044,0,0,0-.709.051l-.633.2a6.525,6.525,0,0,1-1.266.209,5.537,5.537,0,0,1-2.961-.595,4.772,4.772,0,0,1-1.158-.9,4.823,4.823,0,0,1-.772-1.2l-.177-.361-.139.373a1.709,1.709,0,0,1-1.474.835,3.65,3.65,0,0,1-1.778-.215,5.977,5.977,0,0,1-1.436-1.012c-.456-.373-.892-.747-1.36-1.076a4.026,4.026,0,0,0-1.512-.721,3.019,3.019,0,0,0-1.557.2,5.787,5.787,0,0,1-1.335.38,1.506,1.506,0,0,1-1.133-.316,5.272,5.272,0,0,1-1.2-1.778c-.272-.582-.5-1.095-.715-1.493a4.975,4.975,0,0,0-.563-.88A1.222,1.222,0,0,0,312.6,195.29Z" transform="translate(-124.18 -121.75)" fill="#455a64"/>
      <path id="Path_54439" data-name="Path 54439" d="M332.414,252.58a4.34,4.34,0,0,1,.146,5.594,3.113,3.113,0,0,1-4.429.12,5.576,5.576,0,0,1-1.36-2.316C328.333,254.972,330.858,253.586,332.414,252.58Z" transform="translate(-129.384 -142.789)" fill="#ff9a6c"/>
      <path id="Path_54440" data-name="Path 54440" d="M364.684,231.034a3.36,3.36,0,0,1,2.917-3.885c2.3-.234,5.062.544,5.859,5.246,1.392,8.34-7.264,8.017-7.321,7.783S365.234,234.527,364.684,231.034Z" transform="translate(-143.291 -133.436)" fill="#ffbf9d"/>
      <path id="Path_54441" data-name="Path 54441" d="M368.819,238.332c.032,0,.164.076.424.146a1.43,1.43,0,0,0,1.095-.158c.823-.468,1.335-1.993,1.12-3.5a4.8,4.8,0,0,0-.753-2.012,1.677,1.677,0,0,0-1.265-.93.747.747,0,0,0-.791.538c-.069.253,0,.411-.032.43s-.2-.108-.2-.462a.989.989,0,0,1,.241-.582,1.126,1.126,0,0,1,.772-.342,2.075,2.075,0,0,1,1.734,1.038,5.061,5.061,0,0,1,.892,2.24c.221,1.689-.373,3.4-1.519,3.955a1.556,1.556,0,0,1-1.367,0C368.869,238.528,368.787,238.351,368.819,238.332Z" transform="translate(-144.679 -135.033)" fill="#ff9a6c"/>
      <path id="Path_54442" data-name="Path 54442" d="M431.247,270.87a1.577,1.577,0,0,1-.317.19c-.209.108-.519.285-.936.475a17.711,17.711,0,0,1-3.67,1.265,13.729,13.729,0,0,1-2.677.316,13.174,13.174,0,0,1-3.069-.329,16.388,16.388,0,0,1-6.277-3.164,21.935,21.935,0,0,1-2.689-2.474,19.793,19.793,0,0,1-2.114-2.677,17.99,17.99,0,0,1-2.417-5.214,15.819,15.819,0,0,1-.582-3.835v-1.057a1.408,1.408,0,0,1,.038-.367s0,.513.07,1.417a16.836,16.836,0,0,0,.671,3.8,18.344,18.344,0,0,0,2.449,5.119,19.7,19.7,0,0,0,2.094,2.62,21.813,21.813,0,0,0,2.658,2.43,16.252,16.252,0,0,0,6.144,3.164,13.354,13.354,0,0,0,3,.354,14.441,14.441,0,0,0,2.626-.272,19.793,19.793,0,0,0,3.67-1.133c.418-.177.734-.329.962-.424A1.269,1.269,0,0,1,431.247,270.87Z" transform="translate(-158.663 -143.31)" fill="#263238"/>
      <path id="Path_54443" data-name="Path 54443" d="M398.574,291.593a2.241,2.241,0,0,1-.373-.525c-.221-.348-.525-.86-.88-1.512a45.669,45.669,0,0,1-2.436-5.239,46.591,46.591,0,0,1-1.753-5.5c-.177-.715-.3-1.3-.38-1.709a2.528,2.528,0,0,1-.082-.633c.051,0,.272.873.683,2.284s1.025,3.354,1.841,5.448,1.677,3.936,2.335,5.252S398.574,291.568,398.574,291.593Z" transform="translate(-153.585 -151.562)" fill="#263238"/>
      <path id="Path_54444" data-name="Path 54444" d="M431.352,109.595l-4.619-13.63c-1.784-5.062-4.087-9.745-7.973-13.44a14.128,14.128,0,0,0-4.043-3.044c-2.632-.772-4.917-.633-5.353,1.955,0,0-6.53-2.019-7.391,3.113,0,0-4.79-.38-4.821,3.8,0,0-3.733-.108-4.309,2.531a3.062,3.062,0,0,0,1.114,2.949l4.29,4.379.082.361a8.858,8.858,0,0,0,5.378,6.277l4.967,1.152,5.132,1.316,1.038,3.721Z" transform="translate(-153.63 -79.07)" fill="#ffbf9d"/>
      <path id="Path_54445" data-name="Path 54445" d="M425.382,84.233a1.725,1.725,0,0,0-.31.759,1.9,1.9,0,0,0,.145.949,4.17,4.17,0,0,0,.715,1.076,7.6,7.6,0,0,1,.981,1.316,2.05,2.05,0,0,1,.057,1.9,2.72,2.72,0,0,1-1.645,1.329,3.6,3.6,0,0,1-2.259-.164c-2.873-1.209-4.562-3.9-4.594-5.929a8.525,8.525,0,0,1,.127-2.354,2.483,2.483,0,0,1,.253-.823s-.057.3-.127.848a9.668,9.668,0,0,0,0,2.31,6.667,6.667,0,0,0,.348,1.538,7.181,7.181,0,0,0,.892,1.569,7.765,7.765,0,0,0,3.233,2.531,3.31,3.31,0,0,0,2.057.165,2.379,2.379,0,0,0,1.462-1.158,1.753,1.753,0,0,0-.032-1.652,7.7,7.7,0,0,0-.93-1.272,4.107,4.107,0,0,1-.715-1.158,2,2,0,0,1-.095-1.031,1.378,1.378,0,0,1,.266-.595C425.313,84.264,425.382,84.226,425.382,84.233Z" transform="translate(-163.049 -80.252)" fill="#ff9a6c"/>
      <path id="Path_54446" data-name="Path 54446" d="M417.508,92.1a1.9,1.9,0,0,1,.12.709,3.3,3.3,0,0,1-.449,1.9,3.044,3.044,0,0,1-2.563,1.322,5.448,5.448,0,0,1-3.31-1.3,9.985,9.985,0,0,1-3.645-5.22,6.927,6.927,0,0,1-.253-1.936,2.431,2.431,0,0,1,.076-.715,12.023,12.023,0,0,0,.4,2.588,10.27,10.27,0,0,0,3.626,5.024,5.252,5.252,0,0,0,3.107,1.265,2.867,2.867,0,0,0,2.373-1.145A3.429,3.429,0,0,0,417.5,92.8C417.514,92.355,417.482,92.1,417.508,92.1Z" transform="translate(-158.996 -81.927)" fill="#ff9a6c"/>
      <path id="Path_54447" data-name="Path 54447" d="M409.716,97.857a.521.521,0,0,1,.076.146,2.137,2.137,0,0,1,.108.443,2.076,2.076,0,0,1-.481,1.595,2.626,2.626,0,0,1-2.259.981,4.708,4.708,0,0,1-2.765-1.266,21.34,21.34,0,0,1-3.575-4.113c-.392-.576-.69-1.057-.88-1.4a2,2,0,0,1-.259-.544c.044,0,.5.7,1.329,1.81A25.319,25.319,0,0,0,404.6,99.5a4.557,4.557,0,0,0,2.576,1.19,2.575,2.575,0,0,0,1.2-.19,2.637,2.637,0,0,0,.861-.633,2.045,2.045,0,0,0,.532-1.436A5.462,5.462,0,0,1,409.716,97.857Z" transform="translate(-156.159 -84.443)" fill="#ff9a6c"/>
      <path id="Path_54448" data-name="Path 54448" d="M434.291,108.67a13.422,13.422,0,0,0-1.069-1.9,14.508,14.508,0,0,0-1.582-1.462,3.8,3.8,0,0,1,2.651,3.328Z" transform="translate(-167.896 -88.706)" fill="#ff9a6c"/>
      <path id="Path_54449" data-name="Path 54449" d="M401.561,101.971a14.434,14.434,0,0,1,.361-6.144,4.95,4.95,0,0,1,.854-1.576c.184-.221,7.562-4.2,7.562-4.2,1.386.88,1.424,3.449,0,5.2-.734.918-2.075,1.974-2.835,2.86a2.685,2.685,0,0,0,.329,3.29c2.715-3.328,6.65-4.056,10.719-2.677" transform="translate(-156.793 -83.102)" fill="#ffbf9d"/>
      <path id="Path_54450" data-name="Path 54450" d="M418.506,98.648a16.6,16.6,0,0,0-3.214-.551,9,9,0,0,0-3.619.551,8.785,8.785,0,0,0-3.8,2.772l-.114.139-.114-.139a3.38,3.38,0,0,1-.8-2.019,2.174,2.174,0,0,1,.247-1.145,4.765,4.765,0,0,1,.753-.9c.551-.544,1.133-1.057,1.689-1.62a5.251,5.251,0,0,0,1.316-1.9,4.156,4.156,0,0,0,.259-2.05,2.309,2.309,0,0,0-.936-1.652h.158L404.516,93.3l-1.265.715-.3.177a.633.633,0,0,0-.234.19,4.513,4.513,0,0,0-.361.544,7.592,7.592,0,0,0-.766,2.265,16.215,16.215,0,0,0-.152,3.468c0,.386.032.7.044.936a2.115,2.115,0,0,1,0,.329,1.112,1.112,0,0,1-.057-.323c0-.209-.063-.525-.095-.936a14.644,14.644,0,0,1,.051-3.506,7.488,7.488,0,0,1,.759-2.354,4.163,4.163,0,0,1,.373-.588.953.953,0,0,1,.3-.247l.3-.19,1.266-.728c1.753-.987,3.708-2.056,5.8-3.164l.082-.051.082.057a2.6,2.6,0,0,1,1.088,1.9,4.429,4.429,0,0,1-.272,2.215,5.554,5.554,0,0,1-1.4,2.038c-.563.569-1.152,1.082-1.689,1.614a4.584,4.584,0,0,0-.7.823,1.9,1.9,0,0,0-.215.981,3.108,3.108,0,0,0,.721,1.841h-.228A8.8,8.8,0,0,1,415.279,98a11.389,11.389,0,0,1,2.392.43c.266.082.468.158.633.209A.309.309,0,0,0,418.506,98.648Z" transform="translate(-156.736 -83.025)" fill="#ff9a6c"/>
      <path id="Path_54451" data-name="Path 54451" d="M331.157,259.372a6.167,6.167,0,0,0,1.538-1.348,4.063,4.063,0,0,0,.247-4.575,3.837,3.837,0,0,0-.633-.8h.19c-1.512.816-2.816,1.595-3.746,2.164a12.01,12.01,0,0,1-1.512.886,9.022,9.022,0,0,1,1.392-1.063,41.582,41.582,0,0,1,3.708-2.272l.108-.057.089.082a4.32,4.32,0,0,1,.664.861,4.429,4.429,0,0,1,.582,2.771,4.259,4.259,0,0,1-.93,2.12,4.022,4.022,0,0,1-1.2.993A1.39,1.39,0,0,1,331.157,259.372Z" transform="translate(-129.557 -142.689)" fill="#263238"/>
      <path id="Path_54452" data-name="Path 54452" d="M246.679,318.18l-38.187,32.512-46.312-12.023-2.689,19.312s25.519,8.289,41.623,13.56a25.653,25.653,0,0,0,23.646-4.056l28.475-23.153Z" transform="translate(-67.953 -166.879)" fill="#ffbf9d"/>
      <path id="Path_54453" data-name="Path 54453" d="M283.64,309.4l-25.95,26.026,15.338,19.2,6.03,6.815,18.224-13.453Z" transform="translate(-104.016 -163.655)" fill="#09877c"/>
      <path id="Path_54454" data-name="Path 54454" d="M317.075,414.573c-.089,0-2.727-14.958-5.891-33.448s-5.663-33.486-5.575-33.505,2.727,14.959,5.9,33.455S317.169,414.561,317.075,414.573Z" transform="translate(-121.612 -177.69)" fill="#263238"/>
      <rect id="Rectangle_7689" data-name="Rectangle 7689" width="26.836" height="23.267" transform="translate(213.41 177.786) rotate(-12.54)" fill="#fff"/>
      <path id="Path_54455" data-name="Path 54455" d="M388.036,356.27a.519.519,0,0,1-.032.146l-.139.405c-.133.38-.323.9-.55,1.55s-.544,1.493-.937,2.43-.8,2.025-1.348,3.164-1.095,2.449-1.772,3.8-1.424,2.772-2.221,4.265c-1.645,2.955-3.581,6.132-5.809,9.346a108.542,108.542,0,0,1-6.758,8.694c-1.12,1.266-2.177,2.48-3.227,3.556s-2.025,2.088-2.942,2.981-1.772,1.67-2.531,2.36-1.4,1.265-1.955,1.721l-1.266,1.057-.329.272-.12.082s0-.044.095-.108l.316-.3,1.221-1.1c.531-.475,1.183-1.057,1.9-1.759s1.588-1.474,2.474-2.4,1.9-1.9,2.9-3,2.088-2.3,3.2-3.569c2.183-2.569,4.48-5.486,6.72-8.682s4.151-6.366,5.809-9.308c.8-1.481,1.588-2.885,2.24-4.233s1.266-2.607,1.81-3.765.981-2.227,1.386-3.164.728-1.74.987-2.4.462-1.152.633-1.531c.07-.158.12-.285.171-.392A.587.587,0,0,1,388.036,356.27Z" transform="translate(-140.155 -180.867)" fill="#263238"/>
      <path id="Path_54456" data-name="Path 54456" d="M207.172,332.94c-.146,1.183,15.1,17.857,15.1,17.857l33.537-28.747,10.9,9.751s-24.235,30.056-31.942,38.162c-6.258,6.581-17.021,9.491-24.823,1.746s-22.7-26.336-22.7-26.336Z" transform="translate(-78.144 -168.3)" fill="#b5675e"/>
      <path id="Path_54457" data-name="Path 54457" d="M150.672,418.824c-1.936-12.181-5.2-30.79-5.2-30.79L148,329.11l-7.84-19.242s-14.554-.481-17.983.038c-1.715.253-24.678-.266-24.678-.266l-23.109,7.34L72.867,341.4c-1.652,9.4-.234,10.922,1.664,20.249l3.936,19.831,1.727,9.567-6.878,27.772Z" transform="translate(-35.875 -163.743)" fill="#09877c"/>
      <path id="Path_54458" data-name="Path 54458" d="M53.959,379.9S38.14,408.2,29.338,409.727s-9.618-15.465-9.618-15.465L38.874,366.42Z" transform="translate(-16.625 -184.594)" fill="#b5675e"/>
      <path id="Path_54459" data-name="Path 54459" d="M33.633,317.517s-2.354-2.48-3.98-2.417-7.112,3.018-8.03,3.373-3.664,2.6-3.8,4.265.335,17.717.259,18.236,10.8,4.6,10.8,4.6a6.953,6.953,0,0,0,3.8-4.562c.671-3.221.791-4.885,1.139-6.125s1.841-1.753,2.36-2.278,2.4-1.538,2.038-3.531-1.462-2.443-1.462-2.443,1.512-1.481.709-2.93a3.031,3.031,0,0,0-2.31-1.544l.633-1.354.272-.291a.987.987,0,0,0-.3-1.576Z" transform="translate(-15.921 -165.747)" fill="#b5675e"/>
      <path id="Path_54460" data-name="Path 54460" d="M36.237,336.262c.1.127,1.468-.936,3.43-1.67s3.689-.873,3.683-1.038-1.81-.266-3.873.525A6.8,6.8,0,0,0,36.237,336.262Z" transform="translate(-22.689 -172.483)" fill="#894943"/>
      <path id="Path_54461" data-name="Path 54461" d="M35.658,328.849a19.45,19.45,0,0,0,2.974-1.171,18.985,18.985,0,0,0,2.987-1.152,6.478,6.478,0,0,0-3.164.633A6.273,6.273,0,0,0,35.658,328.849Z" transform="translate(-22.477 -169.924)" fill="#894943"/>
      <path id="Path_54462" data-name="Path 54462" d="M29.629,323a6.322,6.322,0,0,0,1.557-.683,13.292,13.292,0,0,1,3.752-1.329,5.879,5.879,0,0,1,3.8.633A10.444,10.444,0,0,1,40,322.646c.057-.057-.184-.7-1.082-1.348a5.656,5.656,0,0,0-4.075-.873,10.652,10.652,0,0,0-3.854,1.531C30.1,322.538,29.591,322.937,29.629,323Z" transform="translate(-20.263 -167.675)" fill="#894943"/>
      <path id="Path_54463" data-name="Path 54463" d="M39,316.37c-.044.146.538.443.835,1.139s.183,1.31.323,1.373.209-.114.3-.418a1.772,1.772,0,0,0-.127-1.19,1.816,1.816,0,0,0-.823-.861C39.226,316.282,39,316.307,39,316.37Z" transform="translate(-23.704 -166.196)" fill="#894943"/>
      <path id="Path_54464" data-name="Path 54464" d="M32.327,342.478c.12-.1-.348-.816-.386-1.81s.323-1.759.19-1.841-.8.671-.734,1.9S32.232,342.6,32.327,342.478Z" transform="translate(-20.912 -174.459)" fill="#894943"/>
      <path id="Path_54465" data-name="Path 54465" d="M25.306,336.093c.127-.082-.095-.633.089-1.31s.633-1.063.538-1.2-.221-.044-.462.127a1.74,1.74,0,0,0-.633.943,1.664,1.664,0,0,0,.095,1.114C25.091,336.03,25.249,336.131,25.306,336.093Z" transform="translate(-18.485 -172.51)" fill="#894943"/>
      <path id="Path_54466" data-name="Path 54466" d="M21.173,330.991a9.6,9.6,0,0,1,.424-2.05c.487-1.044,1.322-1.538,1.266-1.677s-.3-.032-.633.19a2.892,2.892,0,0,0-1.082,1.266,2.86,2.86,0,0,0-.228,1.645C20.958,330.795,21.109,331.016,21.173,330.991Z" transform="translate(-17.053 -170.192)" fill="#894943"/>
      <path id="Path_54467" data-name="Path 54467" d="M28.675,359.591,33.1,381.529s5.132,5.745,2.879,13.041S27.8,407.048,22.784,406.8s-6.492-6.511-7.682-11.187S17,355.99,17,355.99Z" transform="translate(-14.829 -180.764)" fill="#b5675e"/>
      <path id="Path_54468" data-name="Path 54468" d="M37.207,362.38a5.694,5.694,0,0,0,.076,1.2c.089.772.234,1.9.468,3.246.449,2.734,1.266,6.48,2.265,10.58a36.7,36.7,0,0,0,1.7,5.727c.728,1.7,1.468,3.164,1.9,4.429a11.142,11.142,0,0,1,.633,4.341.982.982,0,0,0,.089-.3,4.2,4.2,0,0,0,.12-.892,9.37,9.37,0,0,0-.424-3.259c-.418-1.335-1.126-2.835-1.816-4.512a39.819,39.819,0,0,1-1.645-5.695c-1.019-4.088-1.867-7.808-2.411-10.517q-.38-1.9-.633-3.208A4.9,4.9,0,0,0,37.207,362.38Z" transform="translate(-23.045 -183.111)" fill="#894943"/>
      <path id="Path_54469" data-name="Path 54469" d="M43,354.363s7.967-15.275,10.574-20.021c5.416-9.846,10-12.712,10-12.712l1.74,40.409-5.252,11.567Z" transform="translate(-25.174 -168.146)" fill="#09877c"/>
      <g id="Group_125" data-name="Group 125" transform="translate(90.355 186.23)" opacity="0.3">
        <path id="Path_54470" data-name="Path 54470" d="M179.553,427.058c-6.328-16.148-9.416-37.529-15.724-53.678l-5.79.247c-.633,12.478-.664,28.012.766,36.758,1.69,10.295,7.821,17.825,18.192,18.983.74.089,2.379-.07,2.727-.728A5.249,5.249,0,0,0,179.553,427.058Z" transform="translate(-157.623 -373.38)"/>
      </g>
      <path id="Path_54471" data-name="Path 54471" d="M78.814,348.67a.444.444,0,0,1-.038.146c-.038.095-.089.247-.152.411q-.215.582-.633,1.576c-.133.342-.285.721-.443,1.133s-.285.886-.443,1.379-.323,1.019-.5,1.582-.291,1.171-.449,1.8a41.511,41.511,0,0,0-1.19,9.074,64.678,64.678,0,0,0,.747,11.194c1.2,7.891,2.835,14.952,3.8,20.09.513,2.569.911,4.651,1.164,6.094l.285,1.658c.032.177.051.316.07.437a.544.544,0,0,1,0,.152.638.638,0,0,1-.044-.146l-.1-.43c-.082-.4-.2-.955-.348-1.645-.31-1.462-.74-3.531-1.266-6.075-1.05-5.125-2.727-12.168-3.929-20.084a63.339,63.339,0,0,1-.721-11.251,40.656,40.656,0,0,1,1.266-9.118c.165-.633.3-1.266.475-1.81s.367-1.088.532-1.588.323-.949.462-1.373.335-.785.475-1.126c.285-.633.506-1.171.671-1.55l.177-.4Z" transform="translate(-36.778 -178.076)" fill="#263238"/>
      <path id="Path_54472" data-name="Path 54472" d="M140.415,432.3a1.738,1.738,0,0,1-.285.133l-.835.316c-.721.272-1.784.633-3.1,1.088-2.626.886-6.3,2.012-10.4,3.062s-7.859,1.841-10.593,2.335c-1.36.247-2.468.43-3.24.538l-.886.12a1.624,1.624,0,0,1-.31,0,.974.974,0,0,1,.3-.089l.873-.184,3.221-.633c2.715-.55,6.454-1.367,10.548-2.417s7.764-2.139,10.409-2.968l3.132-.987.854-.26A.979.979,0,0,1,140.415,432.3Z" transform="translate(-50.062 -208.788)" fill="#263238"/>
      <path id="Path_54473" data-name="Path 54473" d="M93.314,175.923a6.537,6.537,0,0,0-5.467-1.987,3.767,3.767,0,0,1-2.4-.089,5.354,5.354,0,0,1-1.139-1.322,3.309,3.309,0,0,0-4.765-.158,3.93,3.93,0,0,1-.924.917c-1.588.823-3.322-2.158-4.9-1.322a3.74,3.74,0,0,1,1.74,1.4,1.7,1.7,0,0,1-.209,2.088c-1.487,1.266-3.9-1.633-5.562-.563-.892.576-1.019,2.088-2.056,2.335a3.5,3.5,0,0,1-1.221-.1,2.734,2.734,0,0,0-2.911,2.329c-.127,1.177.462,2.613-.424,3.392a2.559,2.559,0,0,1-2.1.285,7.017,7.017,0,0,0,.753,3.12,4.265,4.265,0,0,0-1.455,5.739,9.05,9.05,0,0,0-2.474,2.531,3.164,3.164,0,0,0-.044,3.36,2.706,2.706,0,0,1,.443.633,1.588,1.588,0,0,1,0,.861,14.623,14.623,0,0,0-.7,3.284c.025,1.12.854,2.36,1.974,2.272.259,0,.55-.108.766.038a.728.728,0,0,1,.266.513,7.505,7.505,0,0,1-.171,2.4,3.24,3.24,0,0,0,.348,2.341,1.4,1.4,0,0,0,2.075.259q-.494,1.9-.981,3.74a2.288,2.288,0,0,0,.184,2.189c.7.715,1.987.158,2.531-.683s.69-1.9,1.266-2.734a6.362,6.362,0,0,0,.683-1.019,2.086,2.086,0,0,1,.418-.867c.506-.411,1.266.3,1.2.943a3.391,3.391,0,0,1-1.006,1.645,1.661,1.661,0,0,0-.418,1.784c.158.272.449.449.633.728.525.956-.873,1.9-1.044,2.949a2.632,2.632,0,0,0,1.019,2.088c.69.7,2.031,1.266,2.474.386.152-.3.1-.677.221-.993a2.443,2.443,0,0,1,.778-.892,5.062,5.062,0,0,0,1.525-2.531c-.829,1.019-1.715,2.367-1.133,3.55a5.557,5.557,0,0,0,1.082,1.234c.747.778,1.2,1.8,1.936,2.588a2.526,2.526,0,0,0,2.892.816,2.423,2.423,0,0,0,4.05,2.436,2.251,2.251,0,0,1,.633-.588,1.8,1.8,0,0,1,.949.032,5.252,5.252,0,0,0,5.1-2.012l-.968-.342a12.226,12.226,0,0,0,5.454-1.569c1.582-1.069,2.62-3.214,1.8-4.948-.348-.747-1.025-1.519-.715-2.284a2.05,2.05,0,0,1,1.354-.955l6.777-2.341a6.345,6.345,0,0,0,2.98-1.7,2.178,2.178,0,0,0-.158-3.082,6.258,6.258,0,0,1,2.36-2.531c1.126-.633,2.436-.962,3.594-1.576a3.534,3.534,0,0,0,2.139-3.044c-.076-1.31-1.9-2.329-2.778-1.386.19-1.968,3.7-2.069,4.012-4.024.253-1.582-1.772-2.424-2.809-3.645.215-.551.778-.9,1.012-1.449.487-1.139-.69-2.284-1.81-2.828s-2.48-1.088-2.746-2.3.8-2.632.152-3.721a1.4,1.4,0,0,0-1.848-.468c-.886-2.278-5.17-.595-6.4-2.7a.861.861,0,0,1-.146-.551.98.98,0,0,1,.221-.443,9.837,9.837,0,0,1,1.9-1.43,1.9,1.9,0,0,0,.88-2.037c-.278-.772-1.683-.728-1.67.07a1.746,1.746,0,0,0-2.677.633,1.9,1.9,0,0,0-2.36-.228,5.582,5.582,0,0,0-1.7,1.9" transform="translate(-30.423 -112.988)" fill="#263238"/>
      <path id="Path_54474" data-name="Path 54474" d="M96.873,212.532c.8-3.24,3.278-5.809,5.986-7.751a8.535,8.535,0,0,1,3.8-1.74,3.588,3.588,0,0,1,3.613,1.582l-.259,2.329c.184,3.708-2.765,6.739-4.233,10.156-.633,1.487-1.171,3.278-2.67,3.879a3.48,3.48,0,0,1-2.487-.1C97.505,219.7,96.069,215.765,96.873,212.532Z" transform="translate(-44.878 -124.577)" fill="#09877c"/>
      <path id="Path_54475" data-name="Path 54475" d="M94.958,228.265a7.454,7.454,0,0,1,1.082-9.492c-1.266-1.772-.683-4.385.778-6.018a14.359,14.359,0,0,1,5.581-3.341,10.042,10.042,0,0,1,12.023-6.8c2.759-3.7,8.315-4.056,12.655-2.569a11.828,11.828,0,0,0,3.252.861,17.992,17.992,0,0,0,2.468-.228c4.531-.405,8.859,2.961,10.434,7.226a8.224,8.224,0,0,0,.867,1.993,11.545,11.545,0,0,0,2.145,1.9,7.214,7.214,0,0,1,2.531,5.435c0,1.753-.633,3.582,0,5.2.335.816.974,1.487,1.228,2.329.728,2.442-2.044,4.777-1.664,7.3.076.513.285.994.405,1.5a4.43,4.43,0,0,1-.405,3.094,6.336,6.336,0,0,0-1.076,2.183,7.064,7.064,0,0,0,.285,1.835c.234,1.506-3.227,7.106-4.55,7.859l-38.447-1.354a7.2,7.2,0,0,1-5.284-6.435,2.606,2.606,0,0,0-.3-1.43,3.056,3.056,0,0,0-1.019-.728c-2.417-1.436-2.563-4.847-2.183-7.638a3.308,3.308,0,0,0,0-1.171A4.276,4.276,0,0,0,94.958,228.265Z" transform="translate(-43.804 -123.194)" fill="#263238"/>
      <path id="Path_54476" data-name="Path 54476" d="M112.872,234.725c.19-6.809,4.8-14.44,11.706-17.464a25.712,25.712,0,0,1,9.928-1.943,15.618,15.618,0,0,1,8.985,2.3c2.094.595,9.549,8.042,9.612,15.781.07,8.587-.184,19.084-1.55,25.412-2.746,12.738-12.655,13.832-12.655,13.832v5.929c-4.967,10.795-22.78,11.219-26.367-1.417Z" transform="translate(-50.708 -129.098)" fill="#b5675e"/>
      <path id="Path_54477" data-name="Path 54477" d="M145.513,278.014a2.531,2.531,0,0,1,.873-1.556,2.581,2.581,0,0,1,3.126-.184c.949.633,1.069,1.765.892,3.012h0c-.532.734-.924,1.455-1.829,1.538h-.418a2.828,2.828,0,0,1-1.9-.753A2.531,2.531,0,0,1,145.513,278.014Z" transform="translate(-62.816 -151.328)" fill="#894943"/>
      <path id="Path_54478" data-name="Path 54478" d="M167.847,258.645a1.639,1.639,0,0,1-1.677,1.576,1.575,1.575,0,0,1-1.62-1.576,1.651,1.651,0,0,1,1.683-1.575,1.575,1.575,0,0,1,1.614,1.575Z" transform="translate(-69.812 -144.437)" fill="#263238"/>
      <path id="Path_54479" data-name="Path 54479" d="M167.8,250.313c-.215.2-1.411-.785-3.164-.879s-3.119.721-3.3.493c-.089-.1.139-.475.728-.861a4.544,4.544,0,0,1,2.658-.633,4.323,4.323,0,0,1,2.531.968C167.743,249.825,167.907,250.224,167.8,250.313Z" transform="translate(-68.626 -141.261)" fill="#263238"/>
      <path id="Path_54480" data-name="Path 54480" d="M153.978,264.039a11.637,11.637,0,0,1,2.911-.361c.456,0,.886-.089.981-.392a2.3,2.3,0,0,0-.228-1.36L156.49,258.4c-1.588-5.005-2.715-9.118-2.531-9.181s1.658,3.949,3.246,8.96q.57,1.848,1.095,3.537a2.633,2.633,0,0,1,.133,1.791,1.132,1.132,0,0,1-.778.633,2.87,2.87,0,0,1-.772.063A11.6,11.6,0,0,1,153.978,264.039Z" transform="translate(-65.915 -141.554)" fill="#263238"/>
      <path id="Path_54481" data-name="Path 54481" d="M144.289,302.687a32.842,32.842,0,0,1-17.009-5.537s4.081,9.308,17,8.814Z" transform="translate(-56.125 -159.156)" fill="#894943"/>
      <path id="Path_54482" data-name="Path 54482" d="M167.251,241.228c-.323.418-1.664.051-3.259.095s-2.93.392-3.259,0c-.146-.2.051-.633.633-1.019a4.823,4.823,0,0,1,2.62-.766,4.771,4.771,0,0,1,2.626.7C167.213,240.615,167.39,241.026,167.251,241.228Z" transform="translate(-68.393 -137.999)" fill="#263238"/>
      <path id="Path_54483" data-name="Path 54483" d="M138.69,257.971a1.658,1.658,0,0,0,1.563,1.7,1.582,1.582,0,0,0,1.727-1.462,1.652,1.652,0,0,0-1.563-1.69,1.576,1.576,0,0,0-1.727,1.456Z" transform="translate(-60.315 -144.231)" fill="#263238"/>
      <path id="Path_54484" data-name="Path 54484" d="M133.154,249.447c.2.215,1.462-.683,3.24-.633s3.063.949,3.259.734c.095-.095-.108-.487-.664-.911a4.55,4.55,0,0,0-2.607-.848,4.3,4.3,0,0,0-2.582.785C133.242,248.96,133.046,249.346,133.154,249.447Z" transform="translate(-58.271 -141.029)" fill="#263238"/>
      <path id="Path_54485" data-name="Path 54485" d="M132.97,240.723c.348.405,1.721,0,3.373,0s3.037.323,3.36-.095c.146-.2-.063-.633-.671-1a5.372,5.372,0,0,0-5.423.051C133.008,240.109,132.811,240.521,132.97,240.723Z" transform="translate(-58.195 -137.772)" fill="#263238"/>
      <path id="Path_54486" data-name="Path 54486" d="M109.84,263.248c.051-.956-.93-3.271-1.9-3.474-2.531-.532-7.062-.576-7.454,5.828-.506,8.789,8.4,7.524,8.428,7.239S109.663,266.551,109.84,263.248Z" transform="translate(-46.278 -145.351)" fill="#b5675e"/>
      <path id="Path_54487" data-name="Path 54487" d="M108.153,271.182c-.038,0-.158.1-.424.2a1.525,1.525,0,0,1-1.139-.044c-.9-.4-1.595-1.9-1.538-3.5a5.108,5.108,0,0,1,.557-2.158,1.772,1.772,0,0,1,1.221-1.095.766.766,0,0,1,.873.468c.1.253.038.424.082.443s.2-.133.152-.5a.987.987,0,0,0-.316-.569,1.126,1.126,0,0,0-.829-.272,2.138,2.138,0,0,0-1.677,1.266,5.232,5.232,0,0,0-.677,2.4c-.051,1.765.747,3.474,1.993,3.917a1.626,1.626,0,0,0,1.411-.146C108.128,271.4,108.185,271.2,108.153,271.182Z" transform="translate(-47.736 -147.039)" fill="#894943"/>
      <path id="Path_54488" data-name="Path 54488" d="M152.323,231.049a5.1,5.1,0,0,1-2.531-4.847c-1.19.285-2.3-1.266-2.93-2.341s-1.436-1.614-1.322-2.835a1.367,1.367,0,0,0-.044-.715,1.512,1.512,0,0,0-.93-.633,5.885,5.885,0,0,1-3.645-4.29,12.4,12.4,0,0,1-6.056.664,4.746,4.746,0,0,1-8-.785,4.271,4.271,0,0,1-2.961,1.949,12.791,12.791,0,0,1-3.645,0,5.024,5.024,0,0,1-3.613,5.505c-.316.082-.683.158-.842.443a1.265,1.265,0,0,0,.082.981,3.961,3.961,0,0,1-2.923,4.891,2.955,2.955,0,0,1-.513,4.606c-.329.171-.759.386-.728.753a.758.758,0,0,0,.171.386,5.739,5.739,0,0,1,1.221,2.968A2.128,2.128,0,0,1,111.25,240a2.8,2.8,0,0,1,1.006,1.981c0,.766-.835,1.5-1.531,1.183a49.8,49.8,0,0,1-4.79-1.5c-2.3-3.5,1.025-7.043,1.493-11.2a27.126,27.126,0,0,1,4.429-11.63,19.748,19.748,0,0,1,3.335-4.05A26.418,26.418,0,0,1,120.2,211.5a23.477,23.477,0,0,1,7.207-2.974c4.784-.854,9.605,1.126,13.921,3.4a20.489,20.489,0,0,1,4.607,3.063,18.818,18.818,0,0,1,3.727,5.448,23.545,23.545,0,0,1,2.683,9.144" transform="translate(-47.992 -126.535)" fill="#263238"/>
      <path id="Path_54489" data-name="Path 54489" d="M149.966,224.636a3.344,3.344,0,0,0-.437-.975c-.171-.3-.411-.633-.633-1.107a3.974,3.974,0,0,1-.4-1.658,13.453,13.453,0,0,1,.152-2.164,9.563,9.563,0,0,0,.07-2.607,7.238,7.238,0,0,0-1.006-2.822,7.443,7.443,0,0,0-1.006-1.3,11.813,11.813,0,0,0-1.329-1.1,5.3,5.3,0,0,1-1.266-1.221,7.168,7.168,0,0,1-.747-1.69,11.713,11.713,0,0,0-5.2-6.29,10.463,10.463,0,0,0-2.069-.9,9.172,9.172,0,0,0-2.284-.38,10.7,10.7,0,0,0-1.19,0c-.392.044-.785.108-1.171.152a5.626,5.626,0,0,1-2.341-.12c-.778-.2-1.531-.519-2.335-.766a15.906,15.906,0,0,0-2.455-.57,16.44,16.44,0,0,0-2.569-.158,12.955,12.955,0,0,0-2.594.342,8.618,8.618,0,0,0-4.562,2.677l-.348.411.146-.044a10.181,10.181,0,0,0-12.168,6.9l.076-.082a27.579,27.579,0,0,0-3.164,1.455,9.309,9.309,0,0,0-2.626,2.113,6.03,6.03,0,0,0-1.266,2.961,4.132,4.132,0,0,0,.683,3.006v-.146a7.29,7.29,0,0,0-2.253,4.391,7.41,7.41,0,0,0,.683,4.429,6.625,6.625,0,0,0,.538.9,8.894,8.894,0,0,1,.557.816,1.93,1.93,0,0,1,.272.873,5.535,5.535,0,0,1-.076.911,14.555,14.555,0,0,0-.082,3.328,7.056,7.056,0,0,0,.728,2.575,4.341,4.341,0,0,0,1.266,1.493c.437.323.829.456,1.044.633a1.791,1.791,0,0,1,.3.278.986.986,0,0,0-.285-.3c-.209-.19-.633-.335-1.025-.664a4.259,4.259,0,0,1-1.266-1.481,7.055,7.055,0,0,1-.69-2.531,14.362,14.362,0,0,1,.108-3.3,5.54,5.54,0,0,0,.082-.937,2.045,2.045,0,0,0-.285-.949c-.165-.291-.373-.557-.563-.829a7.137,7.137,0,0,1-.519-.88,7.283,7.283,0,0,1-.614-4.277,7.087,7.087,0,0,1,2.2-4.252l.076-.07-.057-.076a3.91,3.91,0,0,1-.633-2.847,5.841,5.841,0,0,1,1.266-2.841,9.158,9.158,0,0,1,2.531-2.05,29.536,29.536,0,0,1,3.164-1.443h.057v-.063a9.922,9.922,0,0,1,11.845-6.707h.082l.063-.076.335-.4a8.391,8.391,0,0,1,4.429-2.594,12.854,12.854,0,0,1,2.531-.329,15.186,15.186,0,0,1,2.531.152,14.741,14.741,0,0,1,2.417.557c.785.24,1.544.563,2.348.766a6.069,6.069,0,0,0,1.215.19,6.96,6.96,0,0,0,1.215-.07c.4-.051.785-.114,1.171-.152a7.8,7.8,0,0,1,1.152-.032,9.01,9.01,0,0,1,2.227.367,10.127,10.127,0,0,1,2.025.88,11.554,11.554,0,0,1,5.125,6.157,7.478,7.478,0,0,0,.772,1.734,5.651,5.651,0,0,0,1.322,1.265,10.67,10.67,0,0,1,1.316,1.076,7.417,7.417,0,0,1,.993,1.265,7.124,7.124,0,0,1,1,2.753,9.6,9.6,0,0,1-.044,2.569,12.209,12.209,0,0,0-.133,2.189,4.051,4.051,0,0,0,.437,1.69c.234.449.487.8.633,1.095a5.594,5.594,0,0,1,.367.69A1.323,1.323,0,0,1,149.966,224.636Z" transform="translate(-43.749 -123.096)" fill="#455a64"/>
      <path id="Path_54490" data-name="Path 54490" d="M133.06,201.309s.234-.12.671-.3a5.874,5.874,0,0,1,1.943-.456,5.48,5.48,0,0,1,2.854.569,5.7,5.7,0,0,1,2.531,2.531,4.963,4.963,0,0,1,.386,1.012,1.12,1.12,0,0,1-.114.924l-.228.285.354-.082a3.626,3.626,0,0,1,2.7.468,3.467,3.467,0,0,1,1.4,1.7,3.8,3.8,0,0,1,.266,1.462,3.921,3.921,0,0,0,0,.544.505.505,0,0,0,.044-.133,2.089,2.089,0,0,0,.063-.4,3.594,3.594,0,0,0-.2-1.525,3.638,3.638,0,0,0-1.436-1.829,3.8,3.8,0,0,0-2.873-.525l.133.2a1.348,1.348,0,0,0,.165-1.139,4.764,4.764,0,0,0-.4-1.069,5.9,5.9,0,0,0-2.62-2.613,5.631,5.631,0,0,0-2.987-.538,5.429,5.429,0,0,0-1.962.551,3.669,3.669,0,0,0-.481.278C133.1,201.265,133.053,201.3,133.06,201.309Z" transform="translate(-58.247 -123.612)" fill="#455a64"/>
      <path id="Path_54491" data-name="Path 54491" d="M109.77,216.589a1.865,1.865,0,0,0,.291.329,5.639,5.639,0,0,0,.949.74,4.216,4.216,0,0,0,1.721.633,3.164,3.164,0,0,0,2.208-.544l-.19-.038.24.373.278.361a5.461,5.461,0,0,0,4.189,1.841,4.631,4.631,0,0,0,1.4-.241,1.486,1.486,0,0,0,.468-.221,7.722,7.722,0,0,1-1.9.278,5.574,5.574,0,0,1-1.981-.411,5.215,5.215,0,0,1-2.006-1.424c-.089-.114-.184-.221-.266-.335l-.228-.354-.082-.12-.108.082a2.955,2.955,0,0,1-2.031.519,4.2,4.2,0,0,1-1.658-.532C110.232,217.006,109.8,216.551,109.77,216.589Z" transform="translate(-49.695 -129.571)" fill="#455a64"/>
      <path id="Path_54492" data-name="Path 54492" d="M101.777,228.775a.592.592,0,0,0,0,.158,1.455,1.455,0,0,0,.177.437,2.328,2.328,0,0,0,1.36,1.012,4.48,4.48,0,0,0,2.531-.146c.449-.133.924-.272,1.411-.468a2.437,2.437,0,0,0,1.266-1.044l.063-.133-.209.051a9.984,9.984,0,0,0,2.531,1.7,4.549,4.549,0,0,0,2.449.38,3.277,3.277,0,0,0,1.55-.633,1.858,1.858,0,0,0,.335-.31c.07-.082.1-.127.095-.127s-.165.139-.487.348a3.335,3.335,0,0,1-1.512.513,4.474,4.474,0,0,1-2.329-.418,10.339,10.339,0,0,1-2.442-1.677l-.133-.114-.076.164-.051.12a2.19,2.19,0,0,1-1.139.918,14.171,14.171,0,0,1-1.373.475,4.36,4.36,0,0,1-2.4.2,2.335,2.335,0,0,1-1.329-.886,4.527,4.527,0,0,1-.291-.513Z" transform="translate(-46.757 -133.872)" fill="#455a64"/>
      <path id="Path_54493" data-name="Path 54493" d="M89.54,178.833a1.337,1.337,0,0,1,.411.095,1.981,1.981,0,0,1,.943.683,2.708,2.708,0,0,1,.569,1.708,7.832,7.832,0,0,1-.449,2.367l-.044.139H91.1a5,5,0,0,1,2.98,1.082,3.891,3.891,0,0,1,1.5,3.164,3.588,3.588,0,0,1-1.43,2.847l-.3.215h.373a4.562,4.562,0,0,1,3.246,1.633,4.334,4.334,0,0,1,.974,2.746,4.7,4.7,0,0,1-.392,1.9c-.19.424-.335.633-.323.633s.051-.044.12-.139a3.332,3.332,0,0,0,.278-.462,4.556,4.556,0,0,0-.487-4.847,4.721,4.721,0,0,0-3.373-1.7l.063.228a3.8,3.8,0,0,0,1.544-3.05,3.886,3.886,0,0,0-.418-1.9,4.556,4.556,0,0,0-1.19-1.462A5.163,5.163,0,0,0,91.1,183.61l.108.139a7.98,7.98,0,0,0,.418-2.436,2.816,2.816,0,0,0-.633-1.784,1.987,1.987,0,0,0-1.025-.664,1.527,1.527,0,0,0-.323-.044C89.578,178.82,89.54,178.826,89.54,178.833Z" transform="translate(-42.265 -115.701)" fill="#455a64"/>
      <path id="Path_54494" data-name="Path 54494" d="M63.26,206.725a.634.634,0,0,0,.139.095,4.179,4.179,0,0,0,.43.221,6.164,6.164,0,0,0,1.74.494,7.025,7.025,0,0,0,2.772-.184,6.714,6.714,0,0,0,3.056-1.784h-.2a5.594,5.594,0,0,0,3.8,2.911,4.233,4.233,0,0,0,4.493-2.094h-.228a3.512,3.512,0,0,0,.974,1.544,4.748,4.748,0,0,0,1.392.886,6.443,6.443,0,0,0,2.658.424,13.151,13.151,0,0,0,1.734-.19,3.345,3.345,0,0,0,.633-.133,3.733,3.733,0,0,0-.633.057c-.4.038-.987.108-1.727.114a6.367,6.367,0,0,1-2.569-.462,3.8,3.8,0,0,1-2.215-2.31l-.089-.3-.139.278a4,4,0,0,1-4.221,1.943,5.378,5.378,0,0,1-3.626-2.765l-.082-.152-.12.127a6.555,6.555,0,0,1-2.93,1.746,6.96,6.96,0,0,1-2.7.234,8.059,8.059,0,0,1-2.341-.7Z" transform="translate(-32.615 -125.433)" fill="#455a64"/>
      <path id="Path_54495" data-name="Path 54495" d="M76.72,224.444a.266.266,0,0,0,.095.164.854.854,0,0,0,.481.247,4.063,4.063,0,0,0,1.955-.215,4.784,4.784,0,0,0,2.322-1.746,4.853,4.853,0,0,0,.829-3.449v-.032l-.2.139a5.694,5.694,0,0,0,3.487.664,6.384,6.384,0,0,0,2.721-1.006,6.877,6.877,0,0,0,1.468-1.266,2.683,2.683,0,0,0,.424-.576,10.167,10.167,0,0,1-2.019,1.664,6.461,6.461,0,0,1-2.651.924,5.55,5.55,0,0,1-3.322-.633l-.234-.126.038.266h0a4.613,4.613,0,0,1-2.955,4.98,4.3,4.3,0,0,1-1.9.291A.88.88,0,0,1,76.72,224.444Z" transform="translate(-37.557 -129.858)" fill="#455a64"/>
      <path id="Path_54496" data-name="Path 54496" d="M115.439,180.93a7.258,7.258,0,0,1,.253,2.708,5.866,5.866,0,0,1-3.8,4.936,6,6,0,0,1-2.025.418h-.165l.038.158a7.492,7.492,0,0,1,.171,2.847,7.892,7.892,0,0,1-.633,2.2,5.928,5.928,0,0,1-.4.759.677.677,0,0,1-.481.335.455.455,0,0,1-.348-.127c-.057-.063-.07-.12-.076-.114s0,.057.038.139a.475.475,0,0,0,.386.19.728.728,0,0,0,.582-.348,4.992,4.992,0,0,0,.449-.766,7.726,7.726,0,0,0,.544-5.176l-.127.158a6.088,6.088,0,0,0,2.126-.424,6.2,6.2,0,0,0,2.885-2.3,6.127,6.127,0,0,0,.987-2.86,5.936,5.936,0,0,0-.177-2.031,4.872,4.872,0,0,0-.177-.525C115.477,180.974,115.445,180.923,115.439,180.93Z" transform="translate(-49.036 -116.476)" fill="#455a64"/>
      <path id="Path_54497" data-name="Path 54497" d="M145.571,276.3c.234-.1.8,1.493,2.531,2.158s3.4-.107,3.487.108c.057.095-.272.443-.981.715a4.226,4.226,0,0,1-2.885,0,3.7,3.7,0,0,1-2.038-1.841C145.419,276.778,145.464,276.323,145.571,276.3Z" transform="translate(-62.811 -151.497)" fill="#263238"/>
      <g id="Group_126" data-name="Group 126" transform="translate(35.689 171.201)" opacity="0.3">
        <path id="Path_54498" data-name="Path 54498" d="M77.2,349.63a17.944,17.944,0,0,0-5.929,12.693,29.729,29.729,0,0,0,3.006,13.921l-.4-2.765A44.5,44.5,0,0,1,77.2,349.63Z" transform="translate(-71.231 -349.63)"/>
      </g>
      <path id="Path_54499" data-name="Path 54499" d="M179.006,310l2.417.247c8.353,2.822,7.688,2.4,17.667,12.51l16.958,18.54L192.68,360.976l-14.06-22.052Z" transform="translate(-74.979 -163.875)" fill="#09877c"/>
      <path id="Path_54500" data-name="Path 54500" d="M190.992,343.69c.089,0-.221,7.2-.7,16.06s-.937,16.047-1.025,16.041.221-7.195.7-16.06S190.929,343.69,190.992,343.69Z" transform="translate(-78.884 -176.247)" fill="#263238"/>
      <path id="Path_54501" data-name="Path 54501" d="M149.242,364.154c0,.1-16.1.449-35.973.791S77.3,365.5,77.29,365.4s16.1-.443,35.973-.785S149.2,364.047,149.242,364.154Z" transform="translate(-37.767 -183.753)" fill="#fff"/>
      <path id="Path_54502" data-name="Path 54502" d="M149.242,373.3c0,.089-16.1.443-35.973.785s-35.973.551-35.979.462,16.1-.443,35.973-.791S149.2,373.2,149.242,373.3Z" transform="translate(-37.767 -187.111)" fill="#fff"/>
      <path id="Path_54503" data-name="Path 54503" d="M273.921,467.317s-3.4-16.617-13.231-25.627l-50.621,1.55-14.206,5.29a47.186,47.186,0,0,0-6.233,18.787" transform="translate(-79.022 -212.236)" fill="#263238"/>
      <path id="Path_54504" data-name="Path 54504" d="M274.86,250.68s7.188,29.234-1.19,44.249l-7.9,2.373a58.4,58.4,0,0,0-16.87-6.929l-2.348-20.065Z" transform="translate(-99.925 -142.091)" fill="#263238"/>
      <path id="Path_54505" data-name="Path 54505" d="M208.463,223.825c3.714-7.334,7.549-14.978,15.136-18.141,6.764-2.822,13.427-2.284,20.4-.038,3.436,1.107,6.916,3.8,9.492,6.328,3.5,3.493,3.936,8.745,4.746,13.624,1.607,9.776-2.145,21.375-5.765,23.887l-41.51,9.1c-5.492-5.106-9.346-7.853-9.1-15.345C202,238.151,206.16,228.381,208.463,223.825Z" transform="translate(-83.51 -124.86)" fill="#263238"/>
      <path id="Path_54506" data-name="Path 54506" d="M225.862,218.208l24.678-.418c7.637.962,10.434,11.3,9.15,18.894-1.424,8.435-3.5,18.673-5.942,24.64-4.91,12.023-14.838,11.345-14.838,11.345s-.07.184-1.012,3.873l-1.949,8.34c-5.505,9.359-15.446,5.663-24.678-14.123l9.08-46.04C221.053,221.087,223.539,217.923,225.862,218.208Z" transform="translate(-86.969 -130.013)" fill="#ffbf9d"/>
      <path id="Path_54507" data-name="Path 54507" d="M275.205,262.883a1.633,1.633,0,0,1-1.9,1.266,1.57,1.57,0,0,1-1.329-1.9,1.639,1.639,0,0,1,1.9-1.266,1.575,1.575,0,0,1,1.329,1.9Z" transform="translate(-109.249 -145.865)" fill="#263238"/>
      <path id="Path_54508" data-name="Path 54508" d="M277.84,257.1c-.247.158-1.265-1.019-2.974-1.417s-3.164.164-3.322-.095c-.07-.114.221-.443.867-.715a4.479,4.479,0,0,1,2.721-.184,4.316,4.316,0,0,1,2.3,1.392C277.866,256.6,277.961,257.026,277.84,257.1Z" transform="translate(-109.1 -143.513)" fill="#263238"/>
      <path id="Path_54509" data-name="Path 54509" d="M250.454,256.414a1.645,1.645,0,0,1-1.9,1.266,1.569,1.569,0,0,1-1.31-1.829,1.651,1.651,0,0,1,1.9-1.266,1.576,1.576,0,0,1,1.31,1.829Z" transform="translate(-100.171 -143.516)" fill="#263238"/>
      <path id="Path_54510" data-name="Path 54510" d="M251.34,250.088c-.247.165-1.265-1.019-2.974-1.417s-3.164.165-3.322-.089c-.07-.114.221-.443.867-.715a4.524,4.524,0,0,1,2.721-.19,4.353,4.353,0,0,1,2.3,1.392C251.34,249.6,251.429,250.018,251.34,250.088Z" transform="translate(-99.368 -140.942)" fill="#263238"/>
      <path id="Path_54511" data-name="Path 54511" d="M260.6,263.472a14.567,14.567,0,0,1,2.911.152c.456.057.886.07,1.031-.215a2.272,2.272,0,0,0,0-1.367c-.165-1.164-.329-2.379-.512-3.651-.684-5.189-1.07-9.416-.861-9.441s.93,4.164,1.62,9.346c.158,1.266.31,2.493.456,3.657a2.633,2.633,0,0,1-.177,1.778,1.12,1.12,0,0,1-.873.475,3.118,3.118,0,0,1-.772-.07A11.3,11.3,0,0,1,260.6,263.472Z" transform="translate(-105.084 -141.456)" fill="#263238"/>
      <path id="Path_54512" data-name="Path 54512" d="M245.838,299.662a32.537,32.537,0,0,1-15.648-8.372s2.076,9.694,14.832,11.46Z" transform="translate(-93.917 -157.004)" fill="#ff9a6c"/>
      <path id="Path_54513" data-name="Path 54513" d="M249.552,275.286a2.829,2.829,0,0,1,2.594-.709,3.689,3.689,0,0,1,2.892,2.392,2.3,2.3,0,0,1-.234,1.645c-.183.247-.057.133-.316.272a6.472,6.472,0,0,1-2.942.993,2.778,2.778,0,0,1-2.607-1.721A2.829,2.829,0,0,1,249.552,275.286Z" transform="translate(-100.744 -150.84)" fill="#ff9a6c"/>
      <path id="Path_54514" data-name="Path 54514" d="M254.344,279.865c-.272.1-.835-1.734-2.81-2.531s-3.86,0-3.948-.272c-.063-.108.323-.493,1.139-.765a4.783,4.783,0,0,1,3.271.12,4.158,4.158,0,0,1,2.234,2.177C254.534,279.32,254.471,279.82,254.344,279.865Z" transform="translate(-100.303 -151.413)" fill="#263238"/>
      <path id="Path_54515" data-name="Path 54515" d="M246.087,239.888c.164-.487,1.9-.3,4-.588s3.733-.9,4.018-.475c.127.2-.158.664-.823,1.139a6.993,6.993,0,0,1-6.106.81C246.41,240.49,246.03,240.148,246.087,239.888Z" transform="translate(-99.753 -137.684)" fill="#263238"/>
      <path id="Path_54516" data-name="Path 54516" d="M274.113,245.368c.437-.3,1.658.424,3.24.835s2.993.462,3.2.949c.089.228-.221.569-.9.791a5.018,5.018,0,0,1-2.8,0,4.956,4.956,0,0,1-2.392-1.424C274.006,245.969,273.917,245.52,274.113,245.368Z" transform="translate(-110.011 -140.114)" fill="#263238"/>
      <path id="Path_54517" data-name="Path 54517" d="M273.341,215.55v.285h-.051C273.3,215.74,273.322,215.645,273.341,215.55Z" transform="translate(-109.744 -129.19)" fill="#263238"/>
      <path id="Path_54518" data-name="Path 54518" d="M255.368,223.974a23.212,23.212,0,0,0-3.075-8.372c-2.753-4.189-4.651-3.24-7.308-2.664l-.31.038a.341.341,0,0,1,.032-.177v-.525a36.137,36.137,0,0,0-18.578-4.214,25.567,25.567,0,0,0-14.737,6.638c-.063.063-.133.127-.19.2-7.454,8.517-19.16,25.127-17.135,70.724l8.049,1.651c.082,2.095,4.708-3.727,4.708-3.727.721.184,5.784-13.358,6.885-18.9.7-3.506.221-13.238.892-16.756,1.152-6.018,1.265-10.447,3.5-15.749,3.164.475,8.289-.43,11.01-2.259,3.271-2.2,5.758-5.359,8.182-8.466a17.3,17.3,0,0,1-6.018,8.656,4.644,4.644,0,0,0,4.189-.183,10.467,10.467,0,0,0,3.227-2.879,28.475,28.475,0,0,0,4.917-9.264,36.8,36.8,0,0,1-5.6,13.965,6.845,6.845,0,0,1,2.651.841,3.073,3.073,0,0,0,2.7.165,3.361,3.361,0,0,0,1.158-1.449,38.43,38.43,0,0,0,3.879-12.447,39.512,39.512,0,0,1,.9,7.745,13.985,13.985,0,0,1-2,7.435,1.126,1.126,0,0,0,1.531.418,2.689,2.689,0,0,0,1.1-1.367,19.684,19.684,0,0,0,1.322-6.328c.633,2.531.335,5.176.354,7.783s.411,5.379,2.132,7.34a34.235,34.235,0,0,0,2.31-9.555A29.4,29.4,0,0,0,255.368,223.974Z" transform="translate(-80.565 -126.427)" fill="#263238"/>
      <path id="Path_54519" data-name="Path 54519" d="M252.694,252.061a12.02,12.02,0,0,0,.19-1.816,7.231,7.231,0,0,0-.3-2.1,7.391,7.391,0,0,0-1.266-2.487,7.233,7.233,0,0,0-2.651-2.1,7.347,7.347,0,0,0-3.8-.664,6.906,6.906,0,0,0-2.044.5,7.363,7.363,0,0,0-.981.475,8.157,8.157,0,0,0-.911.633,7.309,7.309,0,0,0-2.189,8.372,7.677,7.677,0,0,0,.481,1,9.04,9.04,0,0,0,.633.9,6.73,6.73,0,0,0,1.544,1.43,7.359,7.359,0,0,0,9.283-.778,7.084,7.084,0,0,0,1.3-1.683,12.276,12.276,0,0,0,.721-1.677v.12a2.1,2.1,0,0,1-.095.342,3.863,3.863,0,0,1-.2.538,4.348,4.348,0,0,1-.329.715,7.108,7.108,0,0,1-1.266,1.734,7.473,7.473,0,0,1-9.492.867,6.859,6.859,0,0,1-1.588-1.474,7.928,7.928,0,0,1-.633-.918,8.058,8.058,0,0,1-.5-1.025,7.594,7.594,0,0,1-.291-4.682,7.485,7.485,0,0,1,2.531-3.936,7.326,7.326,0,0,1,.936-.633,8.19,8.19,0,0,1,1.006-.487,6.966,6.966,0,0,1,2.107-.5,7.53,7.53,0,0,1,3.9.69,7.441,7.441,0,0,1,2.689,2.177,7.367,7.367,0,0,1,1.266,2.531,7.2,7.2,0,0,1,.278,2.145,4.735,4.735,0,0,1-.063.785,3.432,3.432,0,0,1-.095.563l-.089.348A.281.281,0,0,0,252.694,252.061Z" transform="translate(-96.811 -139.157)" fill="#455a64"/>
      <path id="Path_54520" data-name="Path 54520" d="M282.022,259.743a11.846,11.846,0,0,0,.19-1.81,7.244,7.244,0,0,0-.3-2.107,7.447,7.447,0,0,0-1.266-2.487,7.364,7.364,0,0,0-2.651-2.1,7.282,7.282,0,0,0-3.8-.633,6.889,6.889,0,0,0-2.044.494,9.345,9.345,0,0,0-.981.475,9.08,9.08,0,0,0-.911.633,7.309,7.309,0,0,0-2.189,8.372,8.181,8.181,0,0,0,.481,1.006,8.056,8.056,0,0,0,.633.892,6.745,6.745,0,0,0,1.538,1.436,7.334,7.334,0,0,0,6.96.747,7.242,7.242,0,0,0,2.341-1.538,7.083,7.083,0,0,0,1.3-1.683,12.279,12.279,0,0,0,.721-1.677s0,.044,0,.12l-.095.342a3.929,3.929,0,0,1-.2.544,4.88,4.88,0,0,1-.329.715,7.467,7.467,0,0,1-10.808,2.594,7.1,7.1,0,0,1-1.588-1.468,7.41,7.41,0,0,1-1.133-1.949,7.593,7.593,0,0,1-.291-4.682,7.511,7.511,0,0,1,2.531-3.936,7.573,7.573,0,0,1,1.943-1.114,6.961,6.961,0,0,1,2.107-.506,7.531,7.531,0,0,1,3.9.7,7.427,7.427,0,0,1,2.689,2.17,7.223,7.223,0,0,1,1.266,2.531,7.137,7.137,0,0,1,.279,2.139,4.753,4.753,0,0,1-.063.785,3.526,3.526,0,0,1-.1.57c-.038.139-.063.253-.082.342Z" transform="translate(-107.567 -141.985)" fill="#455a64"/>
      <path id="Path_54521" data-name="Path 54521" d="M266.387,255.241a6.529,6.529,0,0,1-.664-.418,4.9,4.9,0,0,0-1.759-.633,5,5,0,0,0-1.854.108,6.37,6.37,0,0,1-.759.222,1.9,1.9,0,0,1,.715-.373,4.265,4.265,0,0,1,3.74.532A1.811,1.811,0,0,1,266.387,255.241Z" transform="translate(-105.36 -143.285)" fill="#455a64"/>
      <path id="Path_54522" data-name="Path 54522" d="M205.951,310.3l-23.261,7.929,9.378,37.631s-7.416,32.429-7.593,40.453,7.081,8.713,7.081,8.713,28.9,3.164,49.065-.323c9.675-1.689,15.56-3.069,19.072-4.043a5.505,5.505,0,0,0,3.879-6.612c-.133-.544-.278-1.114-.443-1.677-.981-3.322-.981-22.305-.981-22.305l1.367-50.495-28.373-8.416C225.282,314.786,212.348,316.5,205.951,310.3Z" transform="translate(-76.473 -163.985)" fill="#455a64"/>
      <g id="Group_127" data-name="Group 127" transform="translate(109.735 219.285)" opacity="0.3">
        <path id="Path_54523" data-name="Path 54523" d="M258.259,425.62a11.737,11.737,0,0,0-5.353,1.74c-9.289,4.739-18.983,8.859-29.107,11.225s-20.805,3.05-31.006.93l-4.543,2.037c4.48,3.8,10.561,5.125,16.408,5.8a106.159,106.159,0,0,0,29.867-.759c5.062-.848,10.472-2.36,13.4-6.543,1.266-1.841,2.05-4.151,3.892-5.429s4.081-1.2,6.188-1.658,4.385-1.949,4.284-4.1C262.189,426.974,260.158,425.645,258.259,425.62Z" transform="translate(-188.25 -425.619)"/>
      </g>
      <g id="Group_128" data-name="Group 128" transform="translate(117.081 188.9)" opacity="0.3">
        <path id="Path_54524" data-name="Path 54524" d="M199.86,377.6a170.2,170.2,0,0,0,6.96,18.844l-4.708-.873Z" transform="translate(-199.86 -377.6)"/>
      </g>
      <path id="Path_54525" data-name="Path 54525" d="M175.236,322.83A15.326,15.326,0,0,0,164.479,333.4c-2.531,8.808-1.563,26.418-1.563,26.418s-3.164,31.892,6.068,38.947,22.115,10.96,42.269,9.39S241.2,396.6,241.2,396.6l-2.74-20.154-23.286,3.91-26.817-4.9-2.708-21.565" transform="translate(-69.02 -168.587)" fill="#455a64"/>
      <path id="Path_54526" data-name="Path 54526" d="M185.568,353.913l.057.361c.032.253.082.633.146,1.082.126.962.316,2.373.557,4.208.468,3.683,1.164,9.074,2.038,15.9l-.076-.076,26.817,4.853h-.044l23.286-3.929h.152v.152c.873,6.4,1.8,13.155,2.753,20.154v.082l-.057.051a34.478,34.478,0,0,1-6.492,4.657,51.42,51.42,0,0,1-7.5,3.493,60.908,60.908,0,0,1-16.768,3.468A82.274,82.274,0,0,1,186.8,407.04a47.915,47.915,0,0,1-10.713-3.676c-.823-.424-1.664-.816-2.449-1.3l-1.2-.658-1.145-.747c-.778-.475-1.493-1.038-2.227-1.557a12.32,12.32,0,0,1-1.038-.88,11.054,11.054,0,0,1-.892-1.019,17.284,17.284,0,0,1-2.411-4.708,35.523,35.523,0,0,1-1.3-4.986c-.329-1.658-.557-3.316-.734-4.955s-.3-3.252-.373-4.853a132.55,132.55,0,0,1,.392-17.876h0a142.835,142.835,0,0,1,.2-17.629,55.905,55.905,0,0,1,1-7.176,16.734,16.734,0,0,1,2.227-5.657,14.83,14.83,0,0,1,3.246-3.62,15.934,15.934,0,0,1,3.012-1.9,11.946,11.946,0,0,1,2.765-1s-.24.063-.709.221a16.912,16.912,0,0,0-2.025.842,16.042,16.042,0,0,0-2.98,1.93,14.876,14.876,0,0,0-3.164,3.607,16.66,16.66,0,0,0-2.177,5.625,55.5,55.5,0,0,0-.974,7.15,147.061,147.061,0,0,0-.146,17.6h0a134.428,134.428,0,0,0-.354,17.838c.082,1.594.2,3.208.386,4.834s.4,3.278.734,4.929a35.541,35.541,0,0,0,1.266,4.942,17.2,17.2,0,0,0,2.367,4.606c.278.335.563.671.867.981a10.945,10.945,0,0,0,1.012.854c.728.519,1.436,1.07,2.208,1.544l1.139.74,1.183.677c.785.475,1.62.867,2.436,1.266a47.584,47.584,0,0,0,10.643,3.645A82.013,82.013,0,0,0,210.4,408a60.686,60.686,0,0,0,16.68-3.43,51.1,51.1,0,0,0,7.46-3.468A33.994,33.994,0,0,0,241,396.479l-.044.133c-.949-7-1.86-13.756-2.727-20.16l.171.127-23.292,3.948h-.044l-26.8-4.929h-.07v-.133c-.842-6.834-1.5-12.225-1.955-15.92-.222-1.835-.386-3.246-.506-4.208-.051-.475-.095-.835-.12-1.082S185.568,353.913,185.568,353.913Z" transform="translate(-68.942 -168.594)" fill="#263238"/>
      <path id="Path_54527" data-name="Path 54527" d="M185.14,411a2.875,2.875,0,0,1,.335-.386,13.428,13.428,0,0,1,1.038-.918,18.2,18.2,0,0,1,3.9-2.386,15.723,15.723,0,0,1,4.4-1.265,10.8,10.8,0,0,1,1.386-.095,1.9,1.9,0,0,1,.513.038c0,.057-.721.089-1.86.285a18.565,18.565,0,0,0-4.3,1.329,22.367,22.367,0,0,0-3.892,2.278C185.716,410.561,185.172,411.042,185.14,411Z" transform="translate(-77.373 -199.109)" fill="#263238"/>
      <path id="Path_54528" data-name="Path 54528" d="M285.305,424.118s2.208.981,7.416-1.626,5.954-3.081,5.954-3.081-1.575,1.784-.822,3.423c0,0,.342.633,3.423-.411s3.8-1.639,4.113-2.05,1.987-1.164,0-3.9c0,0,1.3-1.506-.633-3.164a3.448,3.448,0,0,0-1.095-2.74,1.9,1.9,0,0,0-.544-2.462,11.613,11.613,0,0,0-3.626-1.095c-.234-.139-8.441,3.082-8.441,3.082l-7.271,2.879Z" transform="translate(-113.597 -199.498)" fill="#ffbf9d"/>
      <path id="Path_54529" data-name="Path 54529" d="M153.382,361.291s-3.43-2.588-2.677-4.29l.753-1.7s-2.05-2.74-1.3-4.265a9,9,0,0,1,2.664-2.828,5.14,5.14,0,0,1-.272-3.676,16.978,16.978,0,0,1,2.4-4.018l6.1-6.391h0a3.113,3.113,0,0,1,.955,3.373,11.461,11.461,0,0,1-1.348,3.075,19.7,19.7,0,0,1-2.4,2.778s13.921.329,14.756,1.9-.955,3.069-1.266,3.328-12.174,1.266-12.174,1.266,13.794,1.677,14.75,3.474a2.135,2.135,0,0,1-1.171,3.164,25.138,25.138,0,0,1-3.227.43s2.911,3.657-1.417,4.2a30.1,30.1,0,0,1-4.214.133L157.963,361v.6s6.119,1.424,6.024,2.651-.753,2.126-4.062,1.816a20.507,20.507,0,0,1-4.834-.728,2.689,2.689,0,0,1-1.708-2.531Z" transform="translate(-64.465 -172.733)" fill="#ffbf9d"/>
      <path id="Path_54530" data-name="Path 54530" d="M161.37,368.6c-.038.177,3.006.924,6.859,1.151s6.96-.145,6.96-.329-3.107-.127-6.91-.354S161.408,368.405,161.37,368.6Z" transform="translate(-68.644 -185.377)" fill="#ff9a6c"/>
      <path id="Path_54531" data-name="Path 54531" d="M157.76,358.536c0,.088.3.278.867.392a9.115,9.115,0,0,0,2.208.108,25.73,25.73,0,0,0,3.044-.19c.07-.146-.3-.278-.867-.392a9.12,9.12,0,0,0-2.208-.108A25.78,25.78,0,0,0,157.76,358.536Z" transform="translate(-67.318 -181.62)" fill="#ff9a6c"/>
      <path id="Path_54532" data-name="Path 54532" d="M158.387,347.851c-.082.171.683.69,1.784.905s2,.038,1.993-.146-.854-.323-1.86-.525S158.462,347.674,158.387,347.851Z" transform="translate(-67.546 -177.751)" fill="#ff9a6c"/>
      <path id="Path_54533" data-name="Path 54533" d="M253.7,312.753s-1.632-6.283-2.386-10.124a8.049,8.049,0,0,1,.095-3.1,13.585,13.585,0,0,1,5.828-8.58l1.044-.7L265,275.951a4.28,4.28,0,0,1,3.018-2.164c1.981-.19.936,1.126.936,1.126l-2.354,5.84-.848,5.467,3.474-6.5,1.329-3.8a6.693,6.693,0,0,1,.462-4.05,3.429,3.429,0,0,1,2.816-1.7,50.635,50.635,0,0,1,.4,5.182c-.1,1.038-.943,6.214-1.506,7.157s-4.335,8.34-4.335,8.34-5.372,11.251-5.651,12.023,2.234,6.22,2.234,6.22Z" transform="translate(-101.636 -149.252)" fill="#ffbf9d"/>
      <path id="Path_54534" data-name="Path 54534" d="M253.643,312.639l.2-.07.563-.2,2.189-.734,8.27-2.734-.057.133c-.5-1.082-1.012-2.246-1.506-3.506a16.559,16.559,0,0,1-.677-1.981,3.1,3.1,0,0,1-.1-.557.815.815,0,0,1,.044-.31l.12-.247.468-1.013,4.189-8.935c.728-1.62,1.595-3.246,2.462-4.929l2.7-5.2a14.326,14.326,0,0,0,.791-2.866c.2-1.006.38-2.025.538-3.056A10.741,10.741,0,0,0,274,274.9c0-.519-.044-1.044-.089-1.576-.089-1.063-.2-2.132-.323-3.214l.158.146a3.47,3.47,0,0,0-1.645.519,3.164,3.164,0,0,0-1.152,1.342,6.455,6.455,0,0,0-.316,3.689v.089l-1.329,3.765h0l-.278.525-3.2,5.973-.456.848.152-.949q.431-2.772.848-5.467h0c.8-1.987,1.588-3.936,2.354-5.84h0a1.057,1.057,0,0,0,.234-.582c0-.164-.177-.253-.405-.291a3.063,3.063,0,0,0-1.386.171,4.3,4.3,0,0,0-2.095,1.822l-2.392,5.062-4.341,9.27v.038h0a23.789,23.789,0,0,0-2.3,1.651,14.094,14.094,0,0,0-1.9,1.9,13.241,13.241,0,0,0-2.335,4.3,9.446,9.446,0,0,0-.456,4.24c.24,1.3.513,2.531.753,3.575.481,2.151.886,3.8,1.158,4.961.133.557.24.987.31,1.266l.076.329a.531.531,0,0,1,0,.114.328.328,0,0,1-.038-.108l-.095-.323q-.12-.456-.342-1.265c-.3-1.126-.728-2.791-1.266-4.936-.253-1.076-.525-2.265-.785-3.588a9.655,9.655,0,0,1,.43-4.322,13.542,13.542,0,0,1,2.354-4.4,14.555,14.555,0,0,1,1.9-1.949,24.335,24.335,0,0,1,2.316-1.677l-.044.051c1.342-2.885,2.79-6,4.328-9.314l2.4-5.119a4.564,4.564,0,0,1,2.246-1.955,3.356,3.356,0,0,1,1.544-.19,1.054,1.054,0,0,1,.418.152.532.532,0,0,1,.247.424,1.266,1.266,0,0,1-.3.8v-.038q-1.158,2.854-2.354,5.84v-.038q-.418,2.7-.848,5.467l-.31-.108q1.576-2.942,3.2-5.973l.278-.525h0c.456-1.266.9-2.575,1.329-3.765v.082a6.739,6.739,0,0,1,.342-3.892,3.473,3.473,0,0,1,1.266-1.474,3.678,3.678,0,0,1,1.822-.569h.146v.146c.127,1.082.24,2.158.323,3.227.044.531.082,1.063.089,1.6a10.779,10.779,0,0,1-.177,1.595c-.158,1.038-.342,2.056-.544,3.063-.1.506-.215,1.006-.335,1.5a6.956,6.956,0,0,1-.5,1.468l-2.7,5.176c-.873,1.677-1.74,3.29-2.474,4.91-1.519,3.2-2.93,6.188-4.214,8.9l-.475,1.006-.12.247a.547.547,0,0,0,0,.221,2.929,2.929,0,0,0,.089.506,16.976,16.976,0,0,0,.633,1.962c.487,1.266.993,2.424,1.481,3.5l.038.095h-.1l-8.283,2.721-2.183.69-.557.165A.956.956,0,0,1,253.643,312.639Z" transform="translate(-101.576 -149.138)" fill="#ff9a6c"/>
      <path id="Path_54535" data-name="Path 54535" d="M272.759,293.36a1.9,1.9,0,0,1,.152.9,5.581,5.581,0,0,1-1.664,4.012c-.411.392-.728.557-.747.525A7.593,7.593,0,0,0,272.759,293.36Z" transform="translate(-108.72 -157.764)" fill="#ff9a6c"/>
      <path id="Path_54536" data-name="Path 54536" d="M262.32,321.1a6.921,6.921,0,0,1,2.113.133,6.608,6.608,0,0,1,2.069.456,6.925,6.925,0,0,1-2.113-.133A6.823,6.823,0,0,1,262.32,321.1Z" transform="translate(-105.716 -167.942)" fill="#ff9a6c"/>
      <g id="Group_129" data-name="Group 129" transform="translate(154.326 208.908)" opacity="0.3">
        <path id="Path_54537" data-name="Path 54537" d="M258.72,409.22c.721,3.29,1.62,6.511,3.657,9.188a14.093,14.093,0,0,0,8.258,5.423,10.219,10.219,0,0,0,9.283-2.727C272.185,420.616,263.257,415.529,258.72,409.22Z" transform="translate(-258.72 -409.22)"/>
      </g>
      <path id="Path_54538" data-name="Path 54538" d="M274.352,341.337l-3.632,4.847-7.163-17.142-16.629,5.7,1.183,4.847-2.151,9.549a16.2,16.2,0,0,0,.177,7.84c2.5,9.055,9.289,30.556,18.173,33.663,11.307,3.961,18.091-6.024,22.046-15.819s12.023-46.35.247-49.837" transform="translate(-99.562 -169.376)" fill="#455a64"/>
      <path id="Path_54539" data-name="Path 54539" d="M286.515,325l.468.146a5.683,5.683,0,0,1,1.266.633,8.808,8.808,0,0,1,3.082,4.429c1.639,4.505,1.8,11.542.784,19.939a128.747,128.747,0,0,1-2.442,13.655,68.4,68.4,0,0,1-5.062,15.085,34.474,34.474,0,0,1-4.689,7.271,19.7,19.7,0,0,1-3.284,3.031,13.382,13.382,0,0,1-4.094,2.025,13.694,13.694,0,0,1-9.2-.747,13.343,13.343,0,0,1-3.8-2.949,28.255,28.255,0,0,1-2.942-3.847,67.536,67.536,0,0,1-5.562-11.213c-1.531-3.8-2.816-7.593-3.955-11.333l-.816-2.791a28.568,28.568,0,0,1-.7-2.79,16.265,16.265,0,0,1,0-5.619c.772-3.607,1.582-7.043,2.322-10.365v.07c-.405-1.664-.8-3.278-1.183-4.853v-.12l.114-.044,16.648-5.695.095-.038.044.095,7.106,17.167h-.095c1.209-1.6,2.126-2.8,2.74-3.613l.7-.9c.158-.2.24-.3.24-.3l-.215.316c-.158.209-.38.519-.671.917l-2.7,3.651-.057.076-.044-.089c-1.595-3.8-4.037-9.6-7.207-17.123l.139.063-16.623,5.695.089-.158q.576,2.367,1.19,4.847v.063c-.734,3.316-1.544,6.777-2.3,10.352a15.964,15.964,0,0,0,0,5.511,25.879,25.879,0,0,0,.7,2.759l.816,2.784c1.139,3.727,2.423,7.517,3.955,11.307a67.1,67.1,0,0,0,5.562,11.149,27.71,27.71,0,0,0,2.9,3.8,13.072,13.072,0,0,0,3.638,2.93,12.656,12.656,0,0,0,12.972-1.266,18.987,18.987,0,0,0,3.227-2.98,34.173,34.173,0,0,0,4.683-7.144,67.665,67.665,0,0,0,5.062-15,130.666,130.666,0,0,0,2.474-13.623c1.044-8.384.918-15.389-.671-19.875a8.814,8.814,0,0,0-3-4.429A6.965,6.965,0,0,0,286.515,325Z" transform="translate(-99.474 -169.384)" fill="#263238"/>
      <g id="Group_130" data-name="Group 130" transform="translate(171.189 176.276)" opacity="0.3">
        <path id="Path_54540" data-name="Path 54540" d="M296.918,370.331c-1.519-2.48-3.866-4.309-6.062-6.214s-4.22-3.714-5.087-6.467l-.4.373a30.221,30.221,0,0,0,5.562,10.422c2.531,3.126,5.4,6.214,6.4,10.124C298.943,376.165,298.424,372.8,296.918,370.331Z" transform="translate(-285.37 -357.65)"/>
      </g>
      <path id="Path_54541" data-name="Path 54541" d="M297.778,381.295a20.38,20.38,0,0,0-1.076-3.657,23.033,23.033,0,0,0-1.981-3.632c-.854-1.31-1.9-2.664-3.037-4.081a45.746,45.746,0,0,1-4.974-7.84,22.6,22.6,0,0,1-1.088-2.6c-.12-.31-.183-.563-.234-.728s-.063-.259-.051-.266a7.623,7.623,0,0,1,.418.956,25.3,25.3,0,0,0,1.183,2.531,50.989,50.989,0,0,0,5.024,7.745c1.12,1.417,2.183,2.791,3.031,4.119a21.355,21.355,0,0,1,1.943,3.708,13.5,13.5,0,0,1,.766,2.715,7.28,7.28,0,0,1,.089.766C297.778,381.2,297.778,381.295,297.778,381.295Z" transform="translate(-114.167 -181.682)" fill="#263238"/>
      <g id="Group_131" data-name="Group 131" transform="translate(172.17 152.122)" opacity="0.3">
        <path id="Path_54542" data-name="Path 54542" d="M306.112,325.889c-1.664-2.341-6.239-6.688-9.1-6.4L286.92,332.2a4.986,4.986,0,0,0,5.695-.715c1.266,1.575-.7,4.246.513,5.878.791,1.069,2.436.943,3.676.455a3.452,3.452,0,0,0,4.119.633,9.181,9.181,0,0,0,3.2-3.119,1.335,1.335,0,0,0,1.639.146,2.973,2.973,0,0,0,1.095-1.373,8.32,8.32,0,0,0-.74-8.213Z" transform="translate(-286.92 -319.478)"/>
      </g>
      <path id="Path_54543" data-name="Path 54543" d="M305.792,322.311s-.31-3.93-2-4.189l-1.689-.259s-1.107-2.936-2.658-3.113a8.325,8.325,0,0,0-3.5.671,4.711,4.711,0,0,0-2.708-2.019,15.283,15.283,0,0,0-4.29-.127L281,314.838h0a2.86,2.86,0,0,0,2.139,2.4,10.319,10.319,0,0,0,3.044.468,17.6,17.6,0,0,0,3.328-.481s-6.612,10.909-5.8,12.352,2.841.772,3.164.683,6.961-8.8,6.961-8.8-5.505,11.5-4.588,13.124,2.575.557,3.031.633,1.9-2.284,1.9-2.284,2.025,4.182,4.575,1.1a23.138,23.138,0,0,0,2.025-3l2.392-5.2.9-.3s-2.272,5.878-1.265,6.41,2.018.462,3.41-2.246a20.11,20.11,0,0,0,1.823-4.094,2.468,2.468,0,0,0-1.088-2.531Z" transform="translate(-112.576 -165.043)" fill="#b5675e"/>
      <path id="Path_54544" data-name="Path 54544" d="M307.665,328c.152.057-.772,2.778-2.493,5.866s-3.55,5.315-3.676,5.214,1.43-2.468,3.126-5.518S307.507,327.955,307.665,328Z" transform="translate(-120.1 -170.485)" fill="#894943"/>
      <path id="Path_54545" data-name="Path 54545" d="M303.047,319.51c.082,0,.07.361-.12.86a8.43,8.43,0,0,1-1.006,1.759,20.425,20.425,0,0,1-1.645,2.259c-.146-.019-.07-.367.12-.861a8.271,8.271,0,0,1,1.006-1.759A22.862,22.862,0,0,1,303.047,319.51Z" transform="translate(-119.627 -167.367)" fill="#894943"/>
      <path id="Path_54546" data-name="Path 54546" d="M295.358,315.57c.171,0,.2.867-.177,1.822s-.962,1.569-1.1,1.474.171-.816.512-1.7S295.188,315.544,295.358,315.57Z" transform="translate(-117.367 -165.92)" fill="#894943"/>
      <g id="Group_132" data-name="Group 132" transform="translate(116.816 149.681)" opacity="0.3">
        <path id="Path_54547" data-name="Path 54547" d="M199.44,337.7a1.993,1.993,0,0,0,2.088,1.9c1.987,0,17.521-2.689,17.882-3.056s-3.069-20.926-3.069-20.926Z" transform="translate(-199.44 -315.62)"/>
      </g>
      <path id="Path_54548" data-name="Path 54548" d="M214.154,268.45l-20.647,25.659a163.412,163.412,0,0,0-.228,23.216c.095,1.088.3,2.341,1.228,2.911a3.582,3.582,0,0,0,2.531.158l18.92-3.505C214.737,302.677,212.6,286.933,214.154,268.45Z" transform="translate(-80.241 -148.617)" fill="#263238"/>
    </g>
  </g>
</svg>
