<svg xmlns="http://www.w3.org/2000/svg" width="125.763" height="138.995" viewBox="0 0 125.763 138.995">
  <g id="Depression-pana" transform="translate(-0.433)">
    <g id="freepik--background-complete--inject-167" transform="translate(0.433 6.273)">
      <path id="Path_205" data-name="Path 205" d="M127.085,244.6a16.1,16.1,0,0,0-1.134-2.023,16.846,16.846,0,0,0-1.271-1.939,16.859,16.859,0,0,0,1.134,2.023A17.185,17.185,0,0,0,127.085,244.6Z" transform="translate(-22.068 -177.162)" fill="#e0e0e0"/>
      <path id="Path_206" data-name="Path 206" d="M123.845,179.292a16.86,16.86,0,0,0-1.134-2.023,17.187,17.187,0,0,0-1.271-1.939,16.293,16.293,0,0,0,1.131,2.023A16.934,16.934,0,0,0,123.845,179.292Z" transform="translate(-17.821 -132.144)" fill="#e0e0e0"/>
      <path id="Path_207" data-name="Path 207" d="M130.5,335.471a16.871,16.871,0,0,0-1.134-2.023,17.191,17.191,0,0,0-1.271-1.939,16.1,16.1,0,0,0,1.134,2.023A16.364,16.364,0,0,0,130.5,335.471Z" transform="translate(-26.55 -239.798)" fill="#e0e0e0"/>
      <path id="Path_208" data-name="Path 208" d="M249.615,434.532a16.558,16.558,0,0,0-1.131-2.023,16.95,16.95,0,0,0-1.274-1.939,16.591,16.591,0,0,0,1.134,2.023A16.839,16.839,0,0,0,249.615,434.532Z" transform="translate(-182.668 -308.08)" fill="#e0e0e0"/>
      <path id="Path_209" data-name="Path 209" d="M63.975,352.212a16.1,16.1,0,0,0-1.134-2.023,16.7,16.7,0,0,0-1.271-1.939,16.862,16.862,0,0,0,1.134,2.023A17.194,17.194,0,0,0,63.975,352.212Z" transform="translate(60.651 -251.337)" fill="#e0e0e0"/>
      <path id="Path_210" data-name="Path 210" d="M342.985,307a16.56,16.56,0,0,0-1.131-2.023,16.948,16.948,0,0,0-1.274-1.939,16.572,16.572,0,0,0,1.134,2.023A17.188,17.188,0,0,0,342.985,307Z" transform="translate(-305.049 -220.174)" fill="#e0e0e0"/>
      <path id="Path_211" data-name="Path 211" d="M265.4,403.121a16.578,16.578,0,0,0-1.134-2.023A16.844,16.844,0,0,0,263,399.16a16.347,16.347,0,0,0,1.134,2.023A16.706,16.706,0,0,0,265.4,403.121Z" transform="translate(-203.364 -286.429)" fill="#e0e0e0"/>
      <path id="Path_212" data-name="Path 212" d="M301.878,439.752a17.121,17.121,0,0,0-1.134-2.023,16.152,16.152,0,0,0-1.274-1.939,16.86,16.86,0,0,0,1.134,2.023,16.474,16.474,0,0,0,1.274,1.939Z" transform="translate(-251.169 -311.678)" fill="#e0e0e0"/>
      <path id="Path_213" data-name="Path 213" d="M388.478,290.742a16.85,16.85,0,0,0-1.134-2.023,16.469,16.469,0,0,0-1.274-1.939,32.989,32.989,0,0,0,2.408,3.962Z" transform="translate(-364.676 -208.966)" fill="#e0e0e0"/>
      <path id="Path_214" data-name="Path 214" d="M399.685,229.852a16.3,16.3,0,0,0-1.131-2.023,16.945,16.945,0,0,0-1.274-1.939,16.852,16.852,0,0,0,1.134,2.023A17.194,17.194,0,0,0,399.685,229.852Z" transform="translate(-379.366 -166.995)" fill="#e0e0e0"/>
      <path id="Path_215" data-name="Path 215" d="M369.408,143.482a16.859,16.859,0,0,0-1.134-2.023A16.463,16.463,0,0,0,367,139.52a16.574,16.574,0,0,0,1.134,2.023A16.154,16.154,0,0,0,369.408,143.482Z" transform="translate(-339.681 -107.461)" fill="#e0e0e0"/>
      <path id="Path_216" data-name="Path 216" d="M322.495,255.831a16.87,16.87,0,0,0-1.134-2.023,17.182,17.182,0,0,0-1.271-1.939,16.6,16.6,0,0,0,1.134,2.023,16.838,16.838,0,0,0,1.271,1.939Z" transform="translate(-278.193 -184.903)" fill="#e0e0e0"/>
      <path id="Path_217" data-name="Path 217" d="M366.4,217.712a16.578,16.578,0,0,0-1.134-2.023A16.84,16.84,0,0,0,364,213.75a16.362,16.362,0,0,0,1.134,2.023A16.7,16.7,0,0,0,366.4,217.712Z" transform="translate(-335.746 -158.627)" fill="#e0e0e0"/>
      <path id="Path_218" data-name="Path 218" d="M178.555,255.831a16.852,16.852,0,0,0-1.134-2.023,17.18,17.18,0,0,0-1.271-1.939,16.1,16.1,0,0,0,1.134,2.023,16.373,16.373,0,0,0,1.271,1.939Z" transform="translate(-89.53 -184.903)" fill="#e0e0e0"/>
      <path id="Path_219" data-name="Path 219" d="M91.945,432.322a32.445,32.445,0,0,0-2.4-3.962,16.86,16.86,0,0,0,1.134,2.023,17.194,17.194,0,0,0,1.271,1.939Z" transform="translate(23.991 -306.556)" fill="#e0e0e0"/>
      <path id="Path_220" data-name="Path 220" d="M181.125,162.881a16.349,16.349,0,0,0-1.134-2.023,16.692,16.692,0,0,0-1.271-1.939,16.592,16.592,0,0,0,1.134,2.023A16.852,16.852,0,0,0,181.125,162.881Z" transform="translate(-92.898 -120.833)" fill="#e0e0e0"/>
      <path id="Path_221" data-name="Path 221" d="M71.715,287.038a16.976,16.976,0,0,0-1.134-2.02,16.511,16.511,0,0,0-1.271-1.939,16.607,16.607,0,0,0,1.134,2.023A16.158,16.158,0,0,0,71.715,287.038Z" transform="translate(50.506 -206.416)" fill="#e0e0e0"/>
      <path id="Path_222" data-name="Path 222" d="M127.085,292.482a16.35,16.35,0,0,0-1.134-2.023,17.177,17.177,0,0,0-1.271-1.939,16.587,16.587,0,0,0,1.134,2.023A16.844,16.844,0,0,0,127.085,292.482Z" transform="translate(-22.068 -210.166)" fill="#e0e0e0"/>
      <path id="Path_223" data-name="Path 223" d="M332.823,58.309a3.032,3.032,0,0,1,2.725-1.973,3.464,3.464,0,0,1,5-3.766,5.3,5.3,0,0,1,9.719-.367h0c.419-.112.6.059,1.025.137a3.166,3.166,0,0,1,2.486,2.554,3.94,3.94,0,0,1,3.011.249,2.843,2.843,0,0,1,1.495,2.538,2.234,2.234,0,0,1-1.92,2.1,3.8,3.8,0,0,1-6.369,4.142,4.08,4.08,0,0,1-3.94,2.439,4.132,4.132,0,0,1-3.607-2.911,2.843,2.843,0,0,1-5.409-1.554,2.961,2.961,0,0,1-4.222-3.582Z" transform="translate(-317.876 -45.199)" fill="#ebebeb"/>
      <path id="Path_224" data-name="Path 224" d="M397.73,118.443A2.225,2.225,0,0,1,399.725,117a2.538,2.538,0,0,1,3.663-2.759,3.884,3.884,0,0,1,7.121-.27h0c.311-.081.441.044.755.1a2.309,2.309,0,0,1,1.824,1.864,2.883,2.883,0,0,1,2.209.183,2.085,2.085,0,0,1,1.1,1.864,1.644,1.644,0,0,1-1.411,1.538,2.8,2.8,0,0,1-4.661,3.036,3,3,0,0,1-2.883,1.79,3.029,3.029,0,0,1-2.644-2.138,2.085,2.085,0,0,1-3.965-1.14,2.175,2.175,0,0,1-3.107-2.625Z" transform="translate(-396.174 -88.329)" fill="#f5f5f5"/>
      <path id="Path_225" data-name="Path 225" d="M63.326,43.016a2.228,2.228,0,0,1,2-1.445,2.538,2.538,0,0,1,3.66-2.759,3.887,3.887,0,0,1,7.124-.27h0c.311-.081.438.047.752.1a2.315,2.315,0,0,1,1.827,1.864,2.883,2.883,0,0,1,2.209.18,2.088,2.088,0,0,1,1.094,1.864,1.641,1.641,0,0,1-1.407,1.535,2.8,2.8,0,0,1-4.661,3.036,3,3,0,0,1-2.883,1.8A3.032,3.032,0,0,1,70.385,46.8a2.085,2.085,0,0,1-3.965-1.143,2.175,2.175,0,0,1-3.107-2.625Z" transform="translate(42.132 -36.338)" fill="#f5f5f5"/>
      <path id="Path_226" data-name="Path 226" d="M88.547,72.19a5.282,5.282,0,0,1,4.748-3.44,6.034,6.034,0,0,1,8.7-6.556,9.234,9.234,0,0,1,16.933-.64h0c.73-.193,1.044.1,1.79.239a5.5,5.5,0,0,1,4.35,4.449,6.865,6.865,0,0,1,5.248.432,4.96,4.96,0,0,1,2.607,4.424,3.9,3.9,0,0,1-3.349,3.654,6.629,6.629,0,0,1-11.108,7.215,7.118,7.118,0,0,1-6.857,4.254,7.205,7.205,0,0,1-6.289-5.077A4.953,4.953,0,0,1,95.9,78.432a5.161,5.161,0,0,1-7.357-6.242Z" transform="translate(-16.589 -50.104)" fill="#ebebeb"/>
      <path id="Path_227" data-name="Path 227" d="M72.932,338.374s2.088.059,1.426,4.692a54.37,54.37,0,0,1-1.386,7.062s-.04,1.038.777.917,2.423-.976,3.107-.149.311,2.023-.867,3.324-3.623,4.25-3.84,4.533-.345.783.227.789,4.524-.9,4.844,1-3.517,5-3.93,5.347-.46.587-.329.836,1.426-.183,2.563-.4,2.486-.261,2.579.854-1.765,4.151-7.858,6.929L67.339,375.2l-2.451-1.936c-4.993-4.462-5.863-7.917-5.447-8.951s1.7-.587,2.719-.047,2.135,1.336,2.33,1.137.224-.441-.068-.895-3.032-4.549-2.175-6.27,4.375.311,4.922.485.581-.373.454-.687-1.591-3.862-2.315-5.45-.752-2.821.162-3.433,2.175.7,2.905,1.06,1.013-.643,1.013-.643a54.148,54.148,0,0,1,.777-7.146c.746-4.611,2.8-4.039,2.8-4.039" transform="translate(47.211 -244.518)" fill="#ebebeb"/>
      <path id="Path_228" data-name="Path 228" d="M77.958,385.18c.534-3.4,1.383-9.445,2.135-14.637s1.442-9.884,1.957-13.283c.261-1.693.469-3.067.621-4.021.071-.472.131-.842.168-1.1.019-.121.031-.214.04-.283a.263.263,0,0,0,0-.1.327.327,0,0,1-.022.1l-.05.283-.186,1.094c-.158.948-.379,2.321-.643,4.017-.534,3.4-1.243,8.078-1.985,13.28s-1.591,11.241-2.107,14.637" transform="translate(36.672 -253.757)" fill="#e0e0e0"/>
      <path id="Path_229" data-name="Path 229" d="M74.815,382.84a.932.932,0,0,0-.186.127c-.115.084-.28.214-.478.379-.4.311-.932.789-1.535,1.311L71.111,386l-.46.4a1.238,1.238,0,0,0-.162.155,1,1,0,0,0,.186-.124c.115-.087.28-.217.478-.382.4-.329.932-.8,1.526-1.324l1.513-1.333.463-.4A1.239,1.239,0,0,0,74.815,382.84Z" transform="translate(47.039 -275.18)" fill="#e0e0e0"/>
      <path id="Path_230" data-name="Path 230" d="M89.386,383.063c.019-.019-.886-1.178-2.026-2.594s-2.082-2.548-2.1-2.529.885,1.174,2.026,2.591S89.364,383.079,89.386,383.063Z" transform="translate(27.88 -271.802)" fill="#e0e0e0"/>
      <path id="Path_231" data-name="Path 231" d="M92.46,412.423a1.545,1.545,0,0,0-.183-.14l-.51-.357c-.432-.311-1.025-.721-1.665-1.209s-1.2-.932-1.609-1.28l-.478-.4a1.294,1.294,0,0,0-.183-.137,1.575,1.575,0,0,0,.158.168c.109.1.261.245.46.419.395.351.954.82,1.594,1.308s1.243.9,1.684,1.187c.224.146.4.258.531.332A.832.832,0,0,0,92.46,412.423Z" transform="translate(24.007 -293.143)" fill="#e0e0e0"/>
      <path id="Path_232" data-name="Path 232" d="M77.041,412.7a1.053,1.053,0,0,0-.2.072l-.528.23c-.444.2-1.056.478-1.731.792s-1.28.6-1.718.814l-.516.258a.844.844,0,0,0-.186.109,1.272,1.272,0,0,0,.2-.075l.528-.23c.444-.2,1.056-.475,1.731-.789s1.28-.6,1.718-.817l.516-.27A.937.937,0,0,0,77.041,412.7Z" transform="translate(44.294 -295.762)" fill="#e0e0e0"/>
      <path id="Path_233" data-name="Path 233" d="M77.819,435.78a1.391,1.391,0,0,0-.255.1l-.677.292c-.572.249-1.361.6-2.228.994s-1.65.755-2.215,1.022l-.665.311a1.464,1.464,0,0,0-.239.128,1.506,1.506,0,0,0,.255-.093l.677-.292c.572-.252,1.361-.6,2.228-1s1.65-.755,2.215-1.019l.665-.311a1.3,1.3,0,0,0,.239-.131Z" transform="translate(43.709 -311.671)" fill="#e0e0e0"/>
      <path id="Path_234" data-name="Path 234" d="M97.072,434.333a1.754,1.754,0,0,0-.227-.186l-.621-.475c-.534-.4-1.268-.96-2.063-1.6s-1.5-1.243-2-1.672c-.242-.211-.444-.385-.6-.516a2.49,2.49,0,0,0-.227-.183,1.242,1.242,0,0,0,.2.211c.134.127.332.311.581.538.494.451,1.193,1.056,1.989,1.7s1.554,1.193,2.082,1.581c.273.193.494.348.649.451a1.921,1.921,0,0,0,.239.155Z" transform="translate(18.307 -307.48)" fill="#e0e0e0"/>
      <path id="Path_235" data-name="Path 235" d="M437.23,402.538a3.384,3.384,0,0,0-1.628,2.1,6.013,6.013,0,0,0-.062,2.7,10.605,10.605,0,0,0,2.566,4.763c1.389-1.376,1.585-3.635,1.613-4.788.043-1.821-.982-5.142-2.486-4.776" transform="translate(-431.25 -288.738)" fill="#ebebeb"/>
      <path id="Path_236" data-name="Path 236" d="M450.764,435.376a2.886,2.886,0,0,0-1.106-2.684,3.837,3.837,0,0,0-2.88-.705,1.616,1.616,0,0,0-1.206.621,1.243,1.243,0,0,0,.059,1.243,2.522,2.522,0,0,0,.985.854,4.952,4.952,0,0,0,4.148.649" transform="translate(-445.434 -309.023)" fill="#ebebeb"/>
      <path id="Path_237" data-name="Path 237" d="M444.043,443.063a5.765,5.765,0,0,0-.28-1.131,5.421,5.421,0,0,0-.519-1.162,11.763,11.763,0,0,0-.842-1.3,5.836,5.836,0,0,0-2.175-1.777,4.372,4.372,0,0,0-.817-.261.957.957,0,0,0-.311-.031c0,.037.435.106,1.072.419a6.268,6.268,0,0,1,2.085,1.771,13.978,13.978,0,0,1,.839,1.274,5.775,5.775,0,0,1,.544,1.115,7.955,7.955,0,0,0,.4,1.087Z" transform="translate(-436.718 -312.783)" fill="#e0e0e0"/>
      <path id="Path_238" data-name="Path 238" d="M438.769,411a2.994,2.994,0,0,0-.022.587c0,.379,0,.932.019,1.6.025,1.355.084,3.222.2,5.282s.27,3.927.413,5.282c.068.671.134,1.215.186,1.591a3.606,3.606,0,0,0,.1.581,3,3,0,0,0-.022-.587c-.031-.413-.075-.951-.124-1.6-.106-1.348-.239-3.213-.354-5.282s-.19-3.893-.258-5.282c-.031-.649-.059-1.187-.081-1.6A3.615,3.615,0,0,0,438.769,411Z" transform="translate(-432.23 -294.59)" fill="#e0e0e0"/>
      <path id="Path_239" data-name="Path 239" d="M419.552,433.972a6.764,6.764,0,0,1,4.039-4.661,1.127,1.127,0,0,1,1.538,1.644,5.773,5.773,0,0,1-5.565,3.179" transform="translate(-411.962 -307.088)" fill="#ebebeb"/>
      <path id="Path_240" data-name="Path 240" d="M430.716,434.62a.935.935,0,0,0-.286.121c-.177.087-.426.23-.73.413a7.645,7.645,0,0,0-2.088,1.839,4.736,4.736,0,0,0-.705,1.373,4.575,4.575,0,0,0-.205,1.243,4.638,4.638,0,0,0,.053.845.958.958,0,0,0,.068.311c.04,0-.028-.441.019-1.137a4.677,4.677,0,0,1,.932-2.51,8.613,8.613,0,0,1,2-1.839A10.018,10.018,0,0,0,430.716,434.62Z" transform="translate(-419.538 -310.871)" fill="#e0e0e0"/>
    </g>
    <g id="freepik--Rain--inject-167" transform="translate(23.762 43.642)">
      <path id="Path_241" data-name="Path 241" d="M149.975,167.262a16.351,16.351,0,0,0-1.134-2.023,17.187,17.187,0,0,0-1.271-1.939,16.581,16.581,0,0,0,1.134,2.023A16.847,16.847,0,0,0,149.975,167.262Z" transform="translate(-75.399 -161.221)" fill="#263238"/>
      <path id="Path_242" data-name="Path 242" d="M181.145,194.212a16.355,16.355,0,0,0-1.134-2.023,16.693,16.693,0,0,0-1.271-1.939,16.592,16.592,0,0,0,1.134,2.023,16.845,16.845,0,0,0,1.271,1.939Z" transform="translate(-116.254 -179.798)" fill="#263238"/>
      <path id="Path_243" data-name="Path 243" d="M148.485,214.8a16.1,16.1,0,0,0-1.134-2.023,16.371,16.371,0,0,0-1.271-1.939,16.859,16.859,0,0,0,1.134,2.023A17.188,17.188,0,0,0,148.485,214.8Z" transform="translate(-73.446 -193.99)" fill="#263238"/>
      <path id="Path_244" data-name="Path 244" d="M104.685,299.121a16.856,16.856,0,0,0-1.134-2.023,17.188,17.188,0,0,0-1.271-1.939,16.59,16.59,0,0,0,1.134,2.023,16.839,16.839,0,0,0,1.271,1.939Z" transform="translate(-16.037 -252.112)" fill="#263238"/>
      <path id="Path_245" data-name="Path 245" d="M248.535,436.578a16.862,16.862,0,0,0-1.134-2.023,16.615,16.615,0,0,0-1.271-1.936,17.149,17.149,0,0,0,1.134,2.023,16.624,16.624,0,0,0,1.271,1.936Z" transform="translate(-204.582 -346.862)" fill="#263238"/>
      <path id="Path_246" data-name="Path 246" d="M331.565,160.572a16.852,16.852,0,0,0-1.134-2.023,17.183,17.183,0,0,0-1.271-1.939,16.088,16.088,0,0,0,1.134,2.023,16.37,16.37,0,0,0,1.271,1.939Z" transform="translate(-313.41 -156.61)" fill="#263238"/>
      <path id="Path_247" data-name="Path 247" d="M382.248,162.852a16.864,16.864,0,0,0-1.134-2.023,16.462,16.462,0,0,0-1.274-1.939,33,33,0,0,0,2.408,3.961Z" transform="translate(-379.84 -158.182)" fill="#263238"/>
      <path id="Path_248" data-name="Path 248" d="M339.108,210.212a17.388,17.388,0,0,0-1.134-2.023,16.467,16.467,0,0,0-1.274-1.939,16.578,16.578,0,0,0,1.134,2.023A16.155,16.155,0,0,0,339.108,210.212Z" transform="translate(-323.296 -190.827)" fill="#263238"/>
      <path id="Path_249" data-name="Path 249" d="M359.408,268.311a16.864,16.864,0,0,0-1.134-2.023A16.475,16.475,0,0,0,357,264.35a16.575,16.575,0,0,0,1.134,2.023A16.145,16.145,0,0,0,359.408,268.311Z" transform="translate(-349.904 -230.875)" fill="#263238"/>
      <path id="Path_250" data-name="Path 250" d="M362.545,335.471a16.85,16.85,0,0,0-1.134-2.023,17.18,17.18,0,0,0-1.271-1.939,16.591,16.591,0,0,0,1.134,2.023A16.848,16.848,0,0,0,362.545,335.471Z" transform="translate(-354.016 -277.168)" fill="#263238"/>
      <path id="Path_251" data-name="Path 251" d="M60.318,425.042a16.854,16.854,0,0,0-1.134-2.023,16.468,16.468,0,0,0-1.274-1.939,34.1,34.1,0,0,0,2.408,3.962Z" transform="translate(42.116 -338.908)" fill="#263238"/>
      <path id="Path_252" data-name="Path 252" d="M100.1,251.432a16.586,16.586,0,0,0-1.134-2.023A16.843,16.843,0,0,0,97.7,247.47a16.859,16.859,0,0,0,1.134,2.023A17.188,17.188,0,0,0,100.1,251.432Z" transform="translate(-10.034 -219.239)" fill="#263238"/>
      <path id="Path_253" data-name="Path 253" d="M154.765,264.621a17.118,17.118,0,0,0-1.131-2.023,15.85,15.85,0,0,0-1.274-1.939,17.141,17.141,0,0,0,1.134,2.023,16.468,16.468,0,0,0,1.271,1.939Z" transform="translate(-81.678 -228.331)" fill="#263238"/>
      <path id="Path_254" data-name="Path 254" d="M97.1,359.531a16.861,16.861,0,0,0-1.134-2.023,16.467,16.467,0,0,0-1.274-1.939,17.113,17.113,0,0,0,1.134,2.023A16.607,16.607,0,0,0,97.1,359.531Z" transform="translate(-6.092 -293.752)" fill="#263238"/>
      <path id="Path_255" data-name="Path 255" d="M257.408,384.711a16.854,16.854,0,0,0-1.134-2.023A16.474,16.474,0,0,0,255,380.75a16.589,16.589,0,0,0,1.134,2.023A16.15,16.15,0,0,0,257.408,384.711Z" transform="translate(-216.211 -311.108)" fill="#263238"/>
      <path id="Path_256" data-name="Path 256" d="M291.4,414.512a16.854,16.854,0,0,0-1.134-2.023A17.185,17.185,0,0,0,289,410.55a16.589,16.589,0,0,0,1.134,2.023A16.836,16.836,0,0,0,291.4,414.512Z" transform="translate(-260.772 -331.649)" fill="#263238"/>
      <path id="Path_257" data-name="Path 257" d="M283.918,245.861a16.593,16.593,0,0,0-1.134-2.023,16.168,16.168,0,0,0-1.274-1.939,16.856,16.856,0,0,0,1.134,2.023A16.467,16.467,0,0,0,283.918,245.861Z" transform="translate(-250.958 -215.4)" fill="#263238"/>
    </g>
    <g id="freepik--Cloud--inject-167" transform="translate(26.447)">
      <path id="Path_258" data-name="Path 258" d="M165.269,39.8a7.886,7.886,0,0,1,7.069-5.12A8.989,8.989,0,0,1,185.3,24.911a13.755,13.755,0,0,1,25.22-.954h0c1.091-.289,1.554.155,2.669.357a8.2,8.2,0,0,1,6.469,6.627,10.232,10.232,0,0,1,7.817.643,7.382,7.382,0,0,1,3.881,6.578,5.819,5.819,0,0,1-4.99,5.444,9.859,9.859,0,0,1-16.511,10.747,10.608,10.608,0,0,1-10.213,6.332,10.737,10.737,0,0,1-9.368-7.559,7.378,7.378,0,0,1-14.035-4.042,7.687,7.687,0,0,1-10.959-9.3Z" transform="translate(-164.844 -16.149)" fill="#617472"/>
      <path id="Path_259" data-name="Path 259" d="M205.443,59.2c.019,0,.245-.311.777-.826a7.109,7.109,0,0,1,2.66-1.519,7.184,7.184,0,0,1,2.094-.311,6.248,6.248,0,0,1,2.377.441,6.919,6.919,0,0,1,3.8,3.875,6.677,6.677,0,0,1,.469,2.731v.121l.115-.044a6.289,6.289,0,0,1,4.474.028,6.034,6.034,0,0,1,2.79,2.24,6.421,6.421,0,0,1,.957,2.225,5.192,5.192,0,0,1,.109.646,1.951,1.951,0,0,0,.034.227,1.24,1.24,0,0,0,0-.227,4.8,4.8,0,0,0-.084-.656,6.261,6.261,0,0,0-.932-2.271,6.433,6.433,0,0,0-1.134-1.3,5.991,5.991,0,0,0-1.712-1.035,6.41,6.41,0,0,0-4.583-.047l.109.081a6.782,6.782,0,0,0-.479-2.8,7.028,7.028,0,0,0-3.893-3.955,6.36,6.36,0,0,0-2.436-.435,7.242,7.242,0,0,0-2.113.348,7.016,7.016,0,0,0-2.669,1.582,5.976,5.976,0,0,0-.562.621l-.131.177A.334.334,0,0,0,205.443,59.2Z" transform="translate(-172.195 -43.891)" fill="#263238"/>
    </g>
    <g id="freepik--Character--inject-167" transform="translate(12.77 45.503)">
      <path id="Path_260" data-name="Path 260" d="M364.892,404.7l-6.276,6.929s-9.163-4.039-10.446-2.877L361.189,421.4l10.222-10.4Z" transform="translate(-348.17 -329.478)" fill="#09877c"/>
      <g id="Group_11" data-name="Group 11" transform="translate(0.191 75.231)" opacity="0.3">
        <path id="Path_261" data-name="Path 261" d="M364.892,404.7l-6.276,6.929s-9.163-4.039-10.446-2.877L361.189,421.4l10.222-10.4Z" transform="translate(-348.17 -404.7)"/>
      </g>
      <path id="Path_262" data-name="Path 262" d="M375.606,437.062a.74.74,0,0,1-.221.963.712.712,0,0,1-.957-.211.78.78,0,0,1,.239-1.019.743.743,0,0,1,.973.329" transform="translate(-360.586 -351.553)" fill="#e0e0e0"/>
      <path id="Path_263" data-name="Path 263" d="M390.9,429.855l.991-1.084-12.854-11.723s-.827-.311-1.156.162Z" transform="translate(-377.88 -337.92)" fill="#263238"/>
      <path id="Path_264" data-name="Path 264" d="M387.614,426.137c-.059.065.23.4.345.914s.022.932.1.969.345-.429.2-1.041S387.657,426.066,387.614,426.137Z" transform="translate(-377.314 -344.247)" fill="#263238"/>
      <path id="Path_265" data-name="Path 265" d="M394.993,423.7c-.075.047.1.423.05.9s-.258.823-.193.882.457-.261.5-.858S395.058,423.638,394.993,423.7Z" transform="translate(-386.613 -342.569)" fill="#263238"/>
      <path id="Path_266" data-name="Path 266" d="M401.337,423.043c.044.071.441-.162.621-.668s.016-.932-.065-.907-.075.391-.224.8S401.281,422.975,401.337,423.043Z" transform="translate(-395.316 -341.035)" fill="#263238"/>
      <path id="Path_267" data-name="Path 267" d="M380.435,421.527c-.031.084.348.28.684.652s.5.761.59.736.037-.51-.363-.932S380.45,421.446,380.435,421.527Z" transform="translate(-368.529 -341.06)" fill="#263238"/>
      <path id="Path_268" data-name="Path 268" d="M360,409.71l-6.276,6.941s-9.163-4.039-10.446-2.88L356.3,426.423l10.222-10.409Z" transform="translate(-341.761 -332.932)" fill="#09877c"/>
      <path id="Path_269" data-name="Path 269" d="M370.715,442.074a.743.743,0,0,1-.221.966.715.715,0,0,1-.957-.214.78.78,0,0,1,.239-1.019.743.743,0,0,1,.973.332" transform="translate(-354.176 -355.008)" fill="#e0e0e0"/>
      <path id="Path_270" data-name="Path 270" d="M386.019,434.851l.988-1.087-12.851-11.726s-.827-.311-1.156.161Z" transform="translate(-371.481 -341.36)" fill="#263238"/>
      <path id="Path_271" data-name="Path 271" d="M382.723,431.147c-.059.065.23.4.345.913s.019.932.1.969.345-.429.2-1.041S382.766,431.076,382.723,431.147Z" transform="translate(-370.903 -347.701)" fill="#263238"/>
      <path id="Path_272" data-name="Path 272" d="M390.082,428.707c-.075.047.093.423.05.9s-.261.823-.193.882.454-.261.5-.858S390.141,428.648,390.082,428.707Z" transform="translate(-380.177 -346.022)" fill="#263238"/>
      <path id="Path_273" data-name="Path 273" d="M396.459,428.053c.043.072.441-.162.621-.668s0-.932-.065-.907-.075.392-.224.8S396.4,427.988,396.459,428.053Z" transform="translate(-388.918 -344.489)" fill="#263238"/>
      <path id="Path_274" data-name="Path 274" d="M375.545,426.531c-.031.084.345.28.68.656s.506.758.593.736.037-.513-.364-.948S375.56,426.45,375.545,426.531Z" transform="translate(-362.119 -344.508)" fill="#263238"/>
      <path id="Path_275" data-name="Path 275" d="M199.929,179.869a2.371,2.371,0,0,1,.391-.376c.416-.426.311-1.181.733-1.613a2.767,2.767,0,0,1,1.209-.491c.419-.13.867-.488.767-.917a4.145,4.145,0,0,1-1.892-.326,1.414,1.414,0,0,1-.78-1.6,2.057,2.057,0,0,1,1.1-.991c.5-.267,1.168-.513,1.572-.118a1.466,1.466,0,0,1,2.138.081l1.181-.867a14.2,14.2,0,0,1-1.752-.345c-.547-.239-.932-1.019-.491-1.423.162-.146.395-.205.528-.376s.134-.311.267-.385a.55.55,0,0,1,.332-.053l3.663.171L207.2,169c-.522-.382-1.106-.988-.836-1.572s1.168-.506,1.575-.031a1,1,0,0,1,1.513.177,1.013,1.013,0,0,1,1.808.727,2.862,2.862,0,0,1,1.479-.364.883.883,0,0,1,.932-1.243,1.532,1.532,0,0,1-.264-.861c.04-.311.354-.587.64-.475a1.028,1.028,0,0,1,.932-1.712c.043-.264.084-.525.127-.786a1.348,1.348,0,0,1,1.467-.078.792.792,0,0,1,0,1.293c.311-.19.534.351.5.715-.047.506-.093,1.01-.137,1.516a1.137,1.137,0,0,1,1.15-.823.882.882,0,0,1,1.1-.637.711.711,0,0,1,1.212-.463c-.04-.252.233-.429.466-.534a1.647,1.647,0,0,1,1.05-.211c.354.087.621.547.391.83.18-.311.7-.214.882.09a1.262,1.262,0,0,1,.019,1.035,2.986,2.986,0,0,0-.239,1.038,1.491,1.491,0,0,1,.774-.708,3.822,3.822,0,0,1,1.79-.621c-.034-.27.264-.457.522-.547a4.328,4.328,0,0,1,2.52-.084c.392.1.826.348.839.749a1.057,1.057,0,0,1-.168.519q-.538,1.025-1.078,2.051a5.382,5.382,0,0,1,3.29.28,9.629,9.629,0,0,1,1.352-.171c.454.065.808.724.416.954a.842.842,0,0,1,.7.715.8.8,0,0,1-.09.457,1.066,1.066,0,0,1-.065.311,1.553,1.553,0,0,1-.311.51,1.032,1.032,0,0,1-.553.8,4.237,4.237,0,0,1,1.37.482,1.762,1.762,0,0,1,.913,1.554.236.236,0,0,1-.016.1.879.879,0,0,1-.05.665.727.727,0,0,1,.311.376,1.923,1.923,0,0,1,2.082,2.688c-.227.5-.982.879-1.3.426a1.5,1.5,0,0,1-.562,1.289,1.451,1.451,0,0,1,.36,2.107,1.551,1.551,0,0,1,.864,2.427,1.184,1.184,0,1,1-1.535,1.8,2.513,2.513,0,0,1-.2,1.407.869.869,0,0,1-1.218.345,1.628,1.628,0,0,1-1.668,1.88,1.05,1.05,0,0,1-1.709,1.218l-2.352,1.355a9.485,9.485,0,0,1-1.613.8,4.819,4.819,0,0,1-2.271.224,1.624,1.624,0,0,0-.733,0,1.668,1.668,0,0,0-.649.531,4.4,4.4,0,0,1-4.1,1.265,2.333,2.333,0,0,0-.7-.1,1.986,1.986,0,0,0-.746.311,7.964,7.964,0,0,1-1.846.758,2.094,2.094,0,0,1-1.662-.081c-.482-.308-.621-1.14-.121-1.423a1.224,1.224,0,0,0-.786-.736.739.739,0,0,0-.886.472c-.087.36.311.767.652.621a1.091,1.091,0,0,1-1.83,0,1.462,1.462,0,0,1,.572-1.926,3.418,3.418,0,0,1-.87-1.4,1.206,1.206,0,0,1-1.321.994,2.094,2.094,0,0,1-.7,1.526,1.243,1.243,0,0,1-1.569.05.9.9,0,0,1,.149-1.429,1.072,1.072,0,0,1,.034-1.821,1.675,1.675,0,0,1-.019-2.044.882.882,0,0,1-1.324.218c-.022.646-.814.957-1.46.957a1.175,1.175,0,0,1-1.274-.73,1.33,1.33,0,0,1,.025-.91,3.275,3.275,0,0,1,1.5-1.47,8.7,8.7,0,0,0-.652-2.759,1.743,1.743,0,0,1-.932.255,1.2,1.2,0,0,1-.183.037c-.749.075-1.327-.771-1.268-1.522a3.908,3.908,0,0,1,1-1.988c-.429.289-.637.808-.982,1.19s-1.035.587-1.345.174a1.075,1.075,0,0,1-.168-.438c-.071-.311-.143-.621-.211-.932A1.01,1.01,0,0,1,199.929,179.869Z" transform="translate(-168.367 -162.6)" fill="#263238"/>
      <path id="Path_276" data-name="Path 276" d="M225.415,197.021,215.193,199c-3.07,1.066-3.325,5.593-2.128,8.6a57.6,57.6,0,0,0,4.6,9.657c3.082,4.539,7.124,3.39,7.124,3.39s.336.712,1.19,2.486l.581.966,10.253-4.679-9.032-21.37A1.9,1.9,0,0,0,225.415,197.021Z" transform="translate(-171.393 -186.252)" fill="#ffbf9d"/>
      <path id="Path_277" data-name="Path 277" d="M232.66,262.6a13.77,13.77,0,0,0,5.729-4.825s-.053,4.163-5.164,6.006Z" transform="translate(-179.259 -228.2)" fill="#ffbf9d"/>
      <path id="Path_278" data-name="Path 278" d="M245.289,195.184a.9.9,0,0,1,.214,1.044.621.621,0,0,1-.9.162c-.078.388-.705.329-.817-.075-.193.273-.708.084-.783-.286-.249.264-.668-.143-.988-.4a5.76,5.76,0,0,0-.556-.351,3.819,3.819,0,0,1-1.386-1.6,3.679,3.679,0,0,1-1.442-1.522c-.245-.382-.491-.761-.733-1.143l-.364-.171a.724.724,0,0,1-.134.839,1.52,1.52,0,0,1-.74.342l-.792.208-.388.351a2.02,2.02,0,0,1,.435,1.243,1.243,1.243,0,0,1-.1.858.382.382,0,0,1-.656-.134.42.42,0,0,1-.621.19,1.4,1.4,0,0,1-.525-.668,3.548,3.548,0,0,1-.267-2.035c-.23.593-.457,1.19-.687,1.787a.675.675,0,0,1-.217.336.37.37,0,0,1-.177.541.979.979,0,0,1-.621-.09c-.463-.174-1.05-.565-.954-1.06-.155.04-.345-.165-.311-.342-.311.593-.6,1.184-.9,1.777.1-.152.367,0,.423.193a.839.839,0,0,1-.093.569,1.243,1.243,0,0,1,.494.6c.143-.354.736-.115.833.311a.9.9,0,0,1-.469.954.621.621,0,0,1-.839-.109c-.283.218-.792-.065-.851-.475-.152.261-.55-.05-.712-.351a4.924,4.924,0,0,1-.55-1.78c.047.075,0,.186-.087.168a.137.137,0,0,1-.071-.2c.05.783.1,1.569.143,2.352a5.1,5.1,0,0,0,.348,1.864c.109.236.239.569.053.687a.335.335,0,0,1-.174.034,3.263,3.263,0,0,1-2.013-.876,2.487,2.487,0,0,1-.528-.593,10.466,10.466,0,0,1-.519-1.591,5.215,5.215,0,0,1-.28-.687,2.255,2.255,0,0,1,.1-1.115,7.516,7.516,0,0,1,1.553-3.418c.525-.525,1.2-.842,1.731-1.358a12.361,12.361,0,0,0,.882-1.072,10.711,10.711,0,0,1,4.62-3.064,8.821,8.821,0,0,1,3.051-.677,10.756,10.756,0,0,1,3.53.739,16.229,16.229,0,0,1,4.971,2.616,7.961,7.961,0,0,1,2.66,3.676,3.847,3.847,0,0,1-.792,4.017l-.705-.311" transform="translate(-186.774 -178.281)" fill="#263238"/>
      <path id="Path_279" data-name="Path 279" d="M224.074,219.814c.053-.062,2.3-2.175,3.576.562a2.269,2.269,0,0,1-1.774,3.377C225.833,223.679,224.074,219.814,224.074,219.814Z" transform="translate(-166.168 -201.461)" fill="#ffbf9d"/>
      <path id="Path_280" data-name="Path 280" d="M227.434,224.316h.162a.516.516,0,0,0,.36-.158,1.3,1.3,0,0,0,.05-1.311,1.7,1.7,0,0,0-.45-.621.6.6,0,0,0-.528-.2.264.264,0,0,0-.221.261c0,.093.04.14.028.152s-.078-.019-.109-.143a.311.311,0,0,1,.028-.221.4.4,0,0,1,.23-.193.739.739,0,0,1,.7.193,1.768,1.768,0,0,1,.519.684,1.358,1.358,0,0,1-.143,1.5.553.553,0,0,1-.469.13C227.472,224.39,227.428,224.325,227.434,224.316Z" transform="translate(-167.375 -203.449)" fill="#896255"/>
      <path id="Path_281" data-name="Path 281" d="M291.134,228.346a.449.449,0,0,1-.087.112,1.035,1.035,0,0,1-.329.214,1.442,1.442,0,0,1-1.243-.106,2.324,2.324,0,0,1-.879-.932,1.807,1.807,0,0,1-.205-.485,4.668,4.668,0,0,1,.27.444,2.445,2.445,0,0,0,.867.867,1.435,1.435,0,0,0,1.178.13A2.029,2.029,0,0,0,291.134,228.346Z" transform="translate(-249.319 -207.094)" fill="#455a64"/>
      <path id="Path_282" data-name="Path 282" d="M296.188,212.535a.507.507,0,0,1,0-.41.649.649,0,0,1,.336-.342,1.971,1.971,0,0,1,.646-.14h.081l-.047-.068a.584.584,0,0,1,.177-.721,1.693,1.693,0,0,1,.932-.277l.451-.04-.441-.087a.478.478,0,0,1-.267-.637,1.075,1.075,0,0,1,.674-.544h.04l.249-.093-.264-.037a.519.519,0,0,1-.311-.761.777.777,0,0,1,.817-.311l.345.078-.311-.193a1.165,1.165,0,0,1-.51-1.072,1.091,1.091,0,0,1,.5-.8,1.262,1.262,0,0,1,.621-.2h.236a.166.166,0,0,1-.059-.022.968.968,0,0,0-.177-.022,1.243,1.243,0,0,0-.652.177,1.162,1.162,0,0,0-.565.861,1.274,1.274,0,0,0,.556,1.19l.047-.115a.9.9,0,0,0-.96.351.659.659,0,0,0-.05.572.575.575,0,0,0,.444.392v-.131h-.04a1.2,1.2,0,0,0-.752.621.7.7,0,0,0,0,.491.507.507,0,0,0,.357.311v-.127a1.79,1.79,0,0,0-.994.311.69.69,0,0,0-.19.861l.034-.075a1.9,1.9,0,0,0-.671.168.7.7,0,0,0-.332.41.478.478,0,0,0,0,.329.275.275,0,0,0,.05.109Z" transform="translate(-260.727 -192.398)" fill="#455a64"/>
      <path id="Path_283" data-name="Path 283" d="M288.39,198.07a.423.423,0,0,0,.19-.019,2.208,2.208,0,0,0,.488-.205,1.594,1.594,0,0,1,.733-.224.478.478,0,0,1,.382.183.345.345,0,0,1,.047.419l.115.019c-.05-.168.1-.36.221-.55a2.289,2.289,0,0,1,.457-.522.836.836,0,0,1,.621-.19.544.544,0,0,1,.466.332l.056.162.065-.155a1.517,1.517,0,0,1,.643-.715,1.7,1.7,0,0,1,.733-.227,2.156,2.156,0,0,1,.687.084.553.553,0,0,0-.171-.084,1.442,1.442,0,0,0-.522-.081,1.722,1.722,0,0,0-.78.214,1.61,1.61,0,0,0-.708.758h.127a.677.677,0,0,0-.572-.426.972.972,0,0,0-.727.214,2.439,2.439,0,0,0-.482.556,2.854,2.854,0,0,0-.186.311.5.5,0,0,0-.05.364l.04.124.071-.106a.469.469,0,0,0-.056-.569.6.6,0,0,0-.469-.217,1.594,1.594,0,0,0-.777.264,2.772,2.772,0,0,1-.463.233A1.557,1.557,0,0,0,288.39,198.07Z" transform="translate(-252.479 -185.828)" fill="#455a64"/>
      <path id="Path_284" data-name="Path 284" d="M279.01,184.71a1.385,1.385,0,0,1,.342-.109.854.854,0,0,1,.4.047.764.764,0,0,1,.395.311l.037.062.05-.05a.451.451,0,0,1,.572.037,1.362,1.362,0,0,1,.345.665l.078.258.056-.267v-.044a.575.575,0,0,1,.339-.376.64.64,0,0,1,.485,0,1.031,1.031,0,0,1,.593.606,1.952,1.952,0,0,1,.115.6,1.048,1.048,0,0,0,.016.227.569.569,0,0,0,.037-.227,1.686,1.686,0,0,0-.078-.621,1.109,1.109,0,0,0-.643-.693.758.758,0,0,0-1,.482v.056h.13a1.457,1.457,0,0,0-.395-.727.565.565,0,0,0-.73-.019h.087a.817.817,0,0,0-.46-.348.876.876,0,0,0-.441-.025.7.7,0,0,0-.261.106C279.028,184.679,279.007,184.707,279.01,184.71Z" transform="translate(-238.143 -177.719)" fill="#455a64"/>
      <path id="Path_285" data-name="Path 285" d="M229.32,194.328a.466.466,0,0,0,.025-.109,2.232,2.232,0,0,0,.025-.311.978.978,0,0,0-.118-.5.683.683,0,0,0-.227-.236.5.5,0,0,0-.37-.078l.059.053a.621.621,0,0,0-1.035-.587l.1.059a.516.516,0,0,0-.28-.538.764.764,0,0,0-.643,0,2.63,2.63,0,0,1-.273.13.264.264,0,0,1-.242-.065,1.063,1.063,0,0,0-.286-.19.584.584,0,0,0-.364-.022,3.341,3.341,0,0,0-.665.311.792.792,0,0,1-.6.1c-.09-.034-.177-.1-.28-.155a.692.692,0,0,0-.342-.071.708.708,0,0,0-.559.311l.109.04a.544.544,0,0,0-.339-.534.767.767,0,0,0-.569,0,2.346,2.346,0,0,0-.755.485,2.749,2.749,0,0,0-.391.423.8.8,0,0,0-.109.171,7.152,7.152,0,0,1,.547-.541,2.36,2.36,0,0,1,.739-.444.656.656,0,0,1,.491,0,.432.432,0,0,1,.267.419l-.037.255.146-.214a.594.594,0,0,1,.466-.245.547.547,0,0,1,.276.062,3,3,0,0,0,.292.162.711.711,0,0,0,.37.022,1.516,1.516,0,0,0,.339-.124,3.469,3.469,0,0,1,.621-.286.469.469,0,0,1,.286.016,1,1,0,0,1,.258.171.388.388,0,0,0,.354.087,2.354,2.354,0,0,0,.292-.14.622.622,0,0,1,.531,0,.379.379,0,0,1,.217.4l-.034.171.134-.112a.537.537,0,0,1,.621-.034.547.547,0,0,1,.233.513v.068h.068a.509.509,0,0,1,.51.261.951.951,0,0,1,.13.457C229.326,194.176,229.3,194.328,229.32,194.328Z" transform="translate(-166.675 -182.786)" fill="#455a64"/>
      <path id="Path_286" data-name="Path 286" d="M214.227,213.29a.433.433,0,0,0,.1-.1.932.932,0,0,0,.174-.354.966.966,0,0,0-.044-.621,1.022,1.022,0,0,0-.578-.565l.034.062a1.83,1.83,0,0,0,.028-.764.764.764,0,0,0-.214-.379.553.553,0,0,0-.438-.165l.065.1a.8.8,0,0,0,0-.789.932.932,0,0,0-.311-.342.727.727,0,0,0-.438-.1c-.143,0-.224-.025-.283-.143a1.1,1.1,0,0,0-.255-.311,1.389,1.389,0,0,0-.693-.273l-.621-.109a2.284,2.284,0,0,0-.932,0,1.312,1.312,0,0,0-.236.09c-.05.028-.075.047-.071.05a1.843,1.843,0,0,1,.311-.087,2.432,2.432,0,0,1,.892.037l.621.124a1.242,1.242,0,0,1,.621.258.91.91,0,0,1,.224.289.385.385,0,0,0,.168.171.563.563,0,0,0,.23.04.7.7,0,0,1,.637,1.025l-.075.115h.14a.538.538,0,0,1,.516.441,1.839,1.839,0,0,1-.019.715v.047h.044a.933.933,0,0,1,.6,1.063A1.3,1.3,0,0,1,214.227,213.29Z" transform="translate(-148.215 -194.166)" fill="#455a64"/>
      <path id="Path_287" data-name="Path 287" d="M230.726,210.866a.555.555,0,0,0,.152-.115,1.827,1.827,0,0,0,.541-1.243.737.737,0,0,0-.143-.513.364.364,0,0,0-.289-.121.292.292,0,0,0-.277.2h.118a.932.932,0,0,0-.14-.513.451.451,0,0,0-.258-.162.363.363,0,0,0-.311.1c-.075.056-.146.124-.2.13s-.087-.047-.127-.14a.836.836,0,0,0-.457-.423.9.9,0,0,0-.948.162l.112.034a.774.774,0,0,0-.451-.621.472.472,0,0,0-.385.053.351.351,0,0,0-.177.332l.115-.028a1.833,1.833,0,0,0-.64-.8,1.924,1.924,0,0,0-.718-.311,1.674,1.674,0,0,0-.5-.031.507.507,0,0,0-.174.034,2.669,2.669,0,0,1,.662.065,1.945,1.945,0,0,1,.677.332,1.774,1.774,0,0,1,.584.761l.183.46-.068-.488c-.025-.171.224-.311.4-.252a.653.653,0,0,1,.36.522l.022.121.09-.087a.764.764,0,0,1,.8-.13.7.7,0,0,1,.382.351.6.6,0,0,0,.081.14.224.224,0,0,0,.183.078.578.578,0,0,0,.267-.162.224.224,0,0,1,.2-.068.311.311,0,0,1,.183.112.82.82,0,0,1,.118.441l.031.354.09-.342c.034-.134.277-.146.364-.031a.622.622,0,0,1,.124.435,1.793,1.793,0,0,1-.177.777A2.579,2.579,0,0,1,230.726,210.866Z" transform="translate(-170.089 -193.1)" fill="#455a64"/>
      <path id="Path_288" data-name="Path 288" d="M258,199.64a1.586,1.586,0,0,0,.3-.311,1.177,1.177,0,0,0,.193-.444.758.758,0,0,0-.137-.593.5.5,0,0,0-.112-.1v.1a.656.656,0,0,0,.109-.55.6.6,0,0,0-.27-.364c-.227-.13-.4-.075-.388-.062a1.128,1.128,0,0,1,.339.14.522.522,0,0,1,.2.311.544.544,0,0,1-.1.438l-.04.053.056.047a.4.4,0,0,1,.084.078.662.662,0,0,1,.118.488,1.188,1.188,0,0,1-.152.41A1.917,1.917,0,0,0,258,199.64Z" transform="translate(-207.145 -186.51)" fill="#455a64"/>
      <path id="Path_289" data-name="Path 289" d="M263.413,197.7a.8.8,0,0,1-.311-.41.556.556,0,0,1,.106-.522.622.622,0,0,1,.621-.19l.112.034-.031-.112a1.18,1.18,0,0,1-.034-.432.519.519,0,0,1,.2-.364c.183-.121.491-.047.516.143l.127-.031a1.044,1.044,0,0,1,.043-.774.991.991,0,0,1,.432-.454,1.592,1.592,0,0,1,.559-.155.345.345,0,0,0-.162-.022,1.031,1.031,0,0,0-.438.1,1.05,1.05,0,0,0-.491.478,1.128,1.128,0,0,0-.068.867l.127-.034a.388.388,0,0,0-.292-.311.544.544,0,0,0-.426.059.653.653,0,0,0-.264.466,1.212,1.212,0,0,0,.044.479l.106-.062a.718.718,0,0,0-.752.245.64.64,0,0,0-.1.621.665.665,0,0,0,.245.326A.283.283,0,0,0,263.413,197.7Z" transform="translate(-216.052 -184.529)" fill="#455a64"/>
      <path id="Path_290" data-name="Path 290" d="M281.172,191.816a1.774,1.774,0,0,0-.233-.084,1.352,1.352,0,0,0-.677-.019,1.243,1.243,0,0,0-.817.584,1.323,1.323,0,0,0-.025,1.243l.05.093-.106-.019a1.143,1.143,0,0,0-.839.19,1.05,1.05,0,0,0-.463.786,1.141,1.141,0,0,0,.283.87l.081.087h-.106a.708.708,0,0,0-.665.578.718.718,0,0,0,.36.727l.14.075H278a1.168,1.168,0,0,0-.8.429,1.4,1.4,0,0,0-.311.649,1.37,1.37,0,0,0,.047.621.579.579,0,0,1-.068-.155,1.17,1.17,0,0,1-.031-.482,1.41,1.41,0,0,1,.311-.687,1.243,1.243,0,0,1,.851-.472v.087a.789.789,0,0,1,.342-1.491l-.037.09a1.265,1.265,0,0,1-.311-.954,1.162,1.162,0,0,1,.51-.864,1.243,1.243,0,0,1,.932-.2l-.053.075a1.4,1.4,0,0,1,.044-1.352,1.3,1.3,0,0,1,.876-.6,1.383,1.383,0,0,1,.7.05.877.877,0,0,1,.174.149Z" transform="translate(-235.763 -182.584)" fill="#455a64"/>
      <path id="Path_291" data-name="Path 291" d="M223.731,195.033a8.112,8.112,0,0,1,.239-6.935,10.778,10.778,0,0,1,5.145-4.81,16.225,16.225,0,0,1,6.988-1.373,9.249,9.249,0,0,1,4.574.994,10.946,10.946,0,0,1,3.306,3.362,10.7,10.7,0,0,1,1.554,2.8,4.039,4.039,0,0,1-.162,3.135c.73-.121,1.084-.954,1.221-1.681.519-2.8-1.032-5.5-2.973-7.581a10.349,10.349,0,0,0-5.229-2.858,12.584,12.584,0,0,0-6.857.724c-2.408.858-4.7,1.79-6.3,3.784s-3.859,6.314-1.513,10.43" transform="translate(-184.476 -174.502)" fill="#033"/>
      <path id="Path_292" data-name="Path 292" d="M252.29,235.287a2.039,2.039,0,0,0,2.02.261c0-.047-.466.056-1.025-.022S252.315,235.243,252.29,235.287Z" transform="translate(-201.278 -212.698)" fill="#896255"/>
      <path id="Path_293" data-name="Path 293" d="M271.912,242.532a2.262,2.262,0,0,0,.646-1.712,8.634,8.634,0,0,0-.292.867C272.1,242.156,271.881,242.5,271.912,242.532Z" transform="translate(-225.626 -216.517)" fill="#896255"/>
      <path id="Path_294" data-name="Path 294" d="M247.119,232.614a.972.972,0,0,1,.311.205.519.519,0,0,1,.115.342.423.423,0,0,1-.239.37c-.255.155-.506-.031-.743-.267a1.836,1.836,0,0,1-.454-.963,3.441,3.441,0,0,1,1.01.314Z" transform="translate(-192.593 -210.644)" fill="#f5f5f5"/>
      <path id="Path_295" data-name="Path 295" d="M279.308,245.036a.75.75,0,0,1,.028.261.376.376,0,0,1-.134.217.311.311,0,0,1-.311.037c-.2-.068-.211-.292-.19-.528a1.31,1.31,0,0,1,.311-.684,2.438,2.438,0,0,1,.3.7Z" transform="translate(-234.51 -218.943)" fill="#f5f5f5"/>
      <path id="Path_296" data-name="Path 296" d="M247.374,230.11l.659.044a.277.277,0,0,1,.224.087.174.174,0,0,1-.062.23.329.329,0,0,1-.255.031,1.305,1.305,0,0,1-.566-.342" transform="translate(-193.718 -209.134)" fill="#f5f5f5"/>
      <path id="Path_297" data-name="Path 297" d="M250.83,237.42a1.333,1.333,0,0,0,.82.2,1.317,1.317,0,0,0,.82-.19,7.4,7.4,0,0,0-.82.028A7.954,7.954,0,0,0,250.83,237.42Z" transform="translate(-198.986 -214.173)" fill="#896255"/>
      <path id="Path_298" data-name="Path 298" d="M271.3,245a2.486,2.486,0,0,0,.646-1.488,3.193,3.193,0,0,0-.345.733A3.235,3.235,0,0,0,271.3,245Z" transform="translate(-224.822 -218.371)" fill="#896255"/>
      <path id="Path_299" data-name="Path 299" d="M247.972,246.392c.04,0,.118-.252,0-.559s-.311-.472-.348-.441.109.224.2.491S247.916,246.386,247.972,246.392Z" transform="translate(-193.552 -219.665)" fill="#896255"/>
      <path id="Path_300" data-name="Path 300" d="M275.329,239.127a.7.7,0,0,0,.9.348.662.662,0,0,0,.379-.87.693.693,0,0,0-.9-.348.665.665,0,0,0-.382.87Z" transform="translate(-230.774 -214.711)" fill="#263238"/>
      <path id="Path_301" data-name="Path 301" d="M275.009,233.538c.115.044.426-.531,1.1-.845s1.327-.211,1.361-.329c.022-.053-.127-.165-.416-.221a1.914,1.914,0,0,0-1.14.162,1.83,1.83,0,0,0-.83.777C274.953,233.323,274.953,233.516,275.009,233.538Z" transform="translate(-231.491 -210.517)" fill="#263238"/>
      <path id="Path_302" data-name="Path 302" d="M254.952,229.945a.7.7,0,0,0,.9.348.665.665,0,0,0,.379-.87.69.69,0,0,0-.9-.348.665.665,0,0,0-.382.87Z" transform="translate(-204.065 -208.382)" fill="#263238"/>
      <path id="Path_303" data-name="Path 303" d="M253.45,223.913c.115.043.426-.531,1.1-.845s1.327-.211,1.364-.326c.019-.056-.131-.165-.419-.221a1.892,1.892,0,0,0-1.14.162,1.808,1.808,0,0,0-.83.774C253.394,223.711,253.394,223.894,253.45,223.913Z" transform="translate(-203.237 -203.884)" fill="#263238"/>
      <path id="Path_304" data-name="Path 304" d="M264.053,234.059a4.983,4.983,0,0,0-1.19.311c-.18.062-.36.106-.444,0a.954.954,0,0,1-.124-.566c-.034-.491-.068-1.01-.106-1.554a24.668,24.668,0,0,0-.469-3.971,24.977,24.977,0,0,0,.146,4c.047.541.09,1.056.134,1.554a1.094,1.094,0,0,0,.227.718.469.469,0,0,0,.4.118,1.109,1.109,0,0,0,.311-.1A4.909,4.909,0,0,0,264.053,234.059Z" transform="translate(-213.94 -207.873)" fill="#263238"/>
      <path id="Path_305" data-name="Path 305" d="M251.879,246.39a1.143,1.143,0,0,1,1.634,1.2,1.162,1.162,0,0,1-.932.932,1.715,1.715,0,0,1-1.038,0l-.047-.047a1.3,1.3,0,0,1,.357-2.088Z" transform="translate(-200.131 -220.275)" fill="#ffbf9d"/>
      <path id="Path_306" data-name="Path 306" d="M250.638,249.376c.121,0,.053-.808.693-1.442s1.507-.621,1.5-.733c0-.05-.205-.14-.569-.118a2.023,2.023,0,0,0-1.258.565,1.743,1.743,0,0,0-.528,1.206C250.477,249.2,250.586,249.385,250.638,249.376Z" transform="translate(-199.242 -220.831)" fill="#263238"/>
      <path id="Path_307" data-name="Path 307" d="M257.3,218.427c-.124-.177-.817.115-1.687.245s-1.619.09-1.681.311c-.028.1.143.249.469.36a2.961,2.961,0,0,0,2.566-.413C257.263,218.707,257.375,218.511,257.3,218.427Z" transform="translate(-204.804 -201.043)" fill="#263238"/>
      <path id="Path_308" data-name="Path 308" d="M277.885,226.843c.193.1.581-.28,1.137-.55s1.081-.382,1.115-.593c0-.1-.137-.221-.41-.267a1.833,1.833,0,0,0-1.815.932C277.789,226.61,277.8,226.8,277.885,226.843Z" transform="translate(-235.039 -205.902)" fill="#263238"/>
      <path id="Path_309" data-name="Path 309" d="M271.934,258.007s-10.738,5.444-10.943,5.083.416-7.28.69-8.92,1.755-7.914,1.755-7.914L259.81,244.6s-3.607,9.781-5.316,15.66-1.283,11.555-.708,12.173,20.817-7.249,20.817-7.249Z" transform="translate(-221.879 -219.122)" fill="#ffbf9d"/>
      <path id="Path_310" data-name="Path 310" d="M296.752,307.88a1.457,1.457,0,0,0,.541-.426,3.124,3.124,0,0,0,.684-1.5,6.037,6.037,0,0,0,.068-1.647,2.244,2.244,0,0,0-.118-.674,3.794,3.794,0,0,0,0,.681,7.841,7.841,0,0,1-.112,1.609,3.39,3.39,0,0,1-.621,1.463A5.087,5.087,0,0,1,296.752,307.88Z" transform="translate(-258.855 -259.811)" fill="#896255"/>
      <path id="Path_311" data-name="Path 311" d="M287.4,215.958l-.6-6.14,2.672-7.488s.621.065.478,1.174l1.137-.839a1.971,1.971,0,0,1,.115,1.206,12.79,12.79,0,0,1-1.243,1.641l1.774-.534s.432.69-.506,1.081l-1.243,1.094-.488,2.408s1.243,3.666,1.606,4.85a5.827,5.827,0,0,1-.04,2.709Z" transform="translate(-249.525 -189.986)" fill="#ffbf9d"/>
      <path id="Path_312" data-name="Path 312" d="M292.107,215.728a2.549,2.549,0,0,0,.137-.621,7.146,7.146,0,0,1,.385-1.442,3.047,3.047,0,0,1,.851-1.187c.292-.242.522-.311.51-.348a1.181,1.181,0,0,0-.593.27,2.8,2.8,0,0,0-.932,1.215,5.474,5.474,0,0,0-.351,1.488A2.277,2.277,0,0,0,292.107,215.728Z" transform="translate(-253.325 -196.741)" fill="#896255"/>
      <path id="Path_313" data-name="Path 313" d="M292.24,207.841a53.257,53.257,0,0,0,1.731-2.371,4.829,4.829,0,0,0-.979,1.1A4.923,4.923,0,0,0,292.24,207.841Z" transform="translate(-253.352 -192.15)" fill="#896255"/>
      <path id="Path_314" data-name="Path 314" d="M299.358,304.64s-4.645-2.8-6.978-2-30.76,35.846-30.76,35.846l5.524,5.282,25.136-21.159,6.45-6.637Z" transform="translate(-249.226 -259.031)" fill="#263238"/>
      <path id="Path_315" data-name="Path 315" d="M198.486,342.093a27.394,27.394,0,0,1-3.881,8.476,11.223,11.223,0,0,1-9.1,4.891c-10.058.106-15.877-8.255-18.1-11.008s-14.184-18.419-15.032-18.524-1.376,2.855-5.08,7.3-22.626,17.981-22.626,17.981l-6.248-5.823,21.327-24.695s9.253-10.6,12.534-11.207,7.243,2.613,9.243,4.431S198.486,342.093,198.486,342.093Z" transform="translate(-103.86 -263.795)" fill="#263238"/>
      <path id="Path_316" data-name="Path 316" d="M131.97,358.363s.062-.056.177-.177l.519-.531,1.951-2.057,7.146-7.584,4.94-5.242c1.808-1.864,3.788-3.784,5.863-5.826s4.272-4.163,6.581-6.332c1.156-1.084,2.337-2.175,3.573-3.247.311-.264.621-.528.932-.783.162-.124.311-.255.491-.37.084-.059.168-.118.255-.168l.13-.075a1.028,1.028,0,0,1,.124-.05,2.716,2.716,0,0,1,1.19.121,8.912,8.912,0,0,1,1.171.419,18.785,18.785,0,0,1,2.15,1.094h0l13.3,12.285,5.773,5.332a48.813,48.813,0,0,0,5.127,4.515,17.22,17.22,0,0,0,4.971,2.6,12.117,12.117,0,0,0,4.191.572,9.2,9.2,0,0,0,2.619-.491,5.967,5.967,0,0,0,.646-.258c.143-.062.214-.1.214-.1l-.221.084c-.146.056-.357.155-.649.242a9.368,9.368,0,0,1-2.613.463,12.205,12.205,0,0,1-4.157-.6,17.108,17.108,0,0,1-4.931-2.61,49.638,49.638,0,0,1-5.1-4.518c-1.8-1.672-3.728-3.461-5.764-5.344-4.067-3.769-8.554-7.92-13.286-12.3h0a19.134,19.134,0,0,0-2.175-1.106,9.09,9.09,0,0,0-1.193-.426,2.858,2.858,0,0,0-1.268-.124l-.165.062-.137.084a2.283,2.283,0,0,0-.264.174c-.174.118-.336.245-.5.373-.311.258-.64.522-.951.789-1.243,1.072-2.42,2.175-3.576,3.253-2.309,2.175-4.5,4.3-6.578,6.342s-4.039,3.98-5.854,5.838-3.418,3.648-4.925,5.257l-7.124,7.618-1.93,2.079-.5.544A1.688,1.688,0,0,0,131.97,358.363Z" transform="translate(-115.586 -275.063)" fill="#455a64"/>
      <path id="Path_317" data-name="Path 317" d="M131.555,439.828a1.169,1.169,0,0,0-.028-.171c-.031-.124-.065-.286-.112-.485-.109-.441-.258-1.05-.441-1.805v.053l3.452-2.967-.068.016a8.642,8.642,0,0,0,3.048.1,18.33,18.33,0,0,0,3.76-.932,24.025,24.025,0,0,0,2.927-1.243l-.087-.05c0,.932.022,1.715.028,2.271,0,.255,0,.46.016.621a1.165,1.165,0,0,0,0,.214.98.98,0,0,0,.019-.214c0-.158,0-.364.016-.621,0-.556,0-1.327.025-2.271v-.093l-.084.04a25.608,25.608,0,0,1-2.924,1.2,18.7,18.7,0,0,1-3.728.907,8.7,8.7,0,0,1-3-.09h-.037l-.031.025c-1.348,1.181-2.538,2.215-3.443,3l-.025.022v.034c.205.749.37,1.355.488,1.793.056.2.1.354.137.478A.622.622,0,0,0,131.555,439.828Z" transform="translate(-53.341 -348.468)" fill="#455a64"/>
      <path id="Path_318" data-name="Path 318" d="M315.22,376.563c.034.028,4.3-4.856,9.526-10.909s9.439-10.987,9.405-11.015-4.3,4.853-9.526,10.909S315.188,376.535,315.22,376.563Z" transform="translate(-300.672 -294.972)" fill="#455a64"/>
      <path id="Path_319" data-name="Path 319" d="M115.941,271.971l6.721-4.12,1.056-.646.264.205c2.389.391,5.049-1.106,10.02-4.891,0,0,6.121-.73,11.117,5.332,3.5,4.247,6.975,13.954,10.471,18.934,1.476,2.1,9.458,10.527,9.284,20.429l-.419,2.594-7.693-2.89a19.657,19.657,0,0,1-4.838-3.107l-9.073-7.951-16.157-14.65c-.311.174-2.834-3.216-3.763-6.677l-1.678.913Z" transform="translate(-69.481 -231.455)" fill="#09877c"/>
      <path id="Path_320" data-name="Path 320" d="M208.87,303.683l1.554-.143a20.588,20.588,0,0,1-4.94,6,9.516,9.516,0,0,0-2.355,1.92c-.413.581-.8,1.4-1.513,1.361-.311,0-.733-.419-.932-.621-1.081-1.084-2.893-2.666-2.893-2.666a69,69,0,0,1,11.08-5.854Z" transform="translate(-140.459 -259.749)" opacity="0.3"/>
      <path id="Path_321" data-name="Path 321" d="M123.71,387.128a.532.532,0,0,0,.112.1c.09.071.2.155.339.255s.329.245.553.385.466.311.755.472a18.587,18.587,0,0,0,2.066,1.05,19.029,19.029,0,0,0,5.5,1.454,18.733,18.733,0,0,0,2.315.115c.329,0,.621-.022.892-.037a6.663,6.663,0,0,0,.668-.059l.423-.053a.529.529,0,0,0,.143-.028.374.374,0,0,0-.146,0l-.426.022c-.183.016-.407.028-.668.031s-.556.025-.885,0a21.209,21.209,0,0,1-2.3-.146,22.684,22.684,0,0,1-2.768-.531,21.877,21.877,0,0,1-2.666-.913,20.238,20.238,0,0,1-2.069-1.013c-.292-.152-.541-.311-.764-.451s-.413-.255-.565-.357l-.354-.23C123.772,387.147,123.729,387.122,123.71,387.128Z" transform="translate(-44.489 -317.365)" fill="#263238"/>
      <path id="Path_322" data-name="Path 322" d="M137.506,389.039c1.448.037,3.107,0,4.039,1.118a.6.6,0,0,1,.162.662c-.118.193-.379.218-.621.221a19.152,19.152,0,0,1-10.754-3.259l-.218-.311A20.486,20.486,0,0,0,137.506,389.039Z" transform="translate(-50.754 -317.602)" opacity="0.3"/>
      <path id="Path_323" data-name="Path 323" d="M249.364,284.551a5.818,5.818,0,0,0,.1-.83c.056-.513.162-1.215.311-1.985s.311-1.463.423-1.97a4.241,4.241,0,0,0,.143-.827,4.346,4.346,0,0,0-.255.8c-.134.5-.311,1.193-.469,1.967a14.684,14.684,0,0,0-.267,2.007A3.166,3.166,0,0,0,249.364,284.551Z" transform="translate(-196.392 -242.792)" fill="#263238"/>
      <path id="Path_324" data-name="Path 324" d="M201.485,269.08s6.009.348,7.348,4.269a6.062,6.062,0,0,1-.168,5.167c-.848,1.448-4.661,4.71-4.661,4.71l-11.5-6.885S199.1,269.329,201.485,269.08Z" transform="translate(-137.726 -235.996)" fill="#09877c"/>
      <path id="Path_325" data-name="Path 325" d="M212.047,277.18a.547.547,0,0,0-.081.065l-.23.2-.858.789c-.752.7-1.821,1.687-3.129,2.905h.075l-9.253-5.574-1.243-.752-.621-.37-.3-.183-.146-.093-.071-.047-.034-.022h-.016a.084.084,0,0,1,0,.081.09.09,0,0,1-.065.034l.056-.025,3.8-3.924c.581-.59,1.112-1.174,1.634-1.672a8.878,8.878,0,0,1,1.628-1.178,10.8,10.8,0,0,1,2.678-1.069c.329-.087.584-.14.761-.171l.2-.04a.2.2,0,0,0,.068-.019.291.291,0,0,0-.068,0l-.2.025c-.177.025-.438.068-.767.146a10.353,10.353,0,0,0-2.716,1.035,8.878,8.878,0,0,0-1.659,1.174c-.541.507-1.072,1.081-1.656,1.669l-3.812,3.909.053-.025a.087.087,0,0,0-.065.037.075.075,0,0,0,0,.081h0l.019.016.037.025.075.047.149.093.311.186.606.37,1.243.755,5.043,3.023,2.24,1.336,1.028.621.488.289.239.14.118.071.056.034.031.016h.065l3.107-2.942.836-.811.217-.214C212.047,277.208,212.047,277.183,212.047,277.18Z" transform="translate(-141.527 -233.951)" fill="#263238"/>
      <path id="Path_326" data-name="Path 326" d="M188.7,278.248a1.152,1.152,0,0,0,.174-.289,5.278,5.278,0,0,0,.342-.854,6.186,6.186,0,0,0-1.137-5.761,5.545,5.545,0,0,0-.643-.662,1.331,1.331,0,0,0-.27-.2c-.022.022.354.311.823.932a6.444,6.444,0,0,1,1.119,5.655C188.9,277.813,188.671,278.235,188.7,278.248Z" transform="translate(-116.224 -236.961)" fill="#263238"/>
      <path id="Path_327" data-name="Path 327" d="M248.317,299.276c-.149.149-21.864,11.5-27.177,13.074s-8.7-3.029-8.7-3.029l1.554-4.219s1.317-.475,4.136-1.314a8.082,8.082,0,0,1,4.437-.311l15.423-10.387Z" transform="translate(-182.904 -252.546)" fill="#ffbf9d"/>
      <path id="Path_328" data-name="Path 328" d="M301.54,347a.9.9,0,0,0,.155.426,2.734,2.734,0,0,0,.724.82,2.679,2.679,0,0,0,.985.472.907.907,0,0,0,.454.037A3.644,3.644,0,0,1,301.54,347Z" transform="translate(-266.129 -289.706)" fill="#896255"/>
      <path id="Path_329" data-name="Path 329" d="M323.854,329.439s-1.883-.64-2.343,0a13.6,13.6,0,0,0-1.7,3.645c-.068.743.637.814.954,1.417a13.179,13.179,0,0,1,.674,1.824l1.42-1.712.6-1.759Z" transform="translate(-291.801 -277.405)" fill="#ffbf9d"/>
      <path id="Path_330" data-name="Path 330" d="M263.938,293.07a1.726,1.726,0,0,0-.2.118l-.559.36c-.5.326-1.2.786-2.048,1.348l-6.721,4.5-3.688,2.486-1.609,1.094c-.249.174-.5.332-.73.491a7.439,7.439,0,0,0-.649.5,8.259,8.259,0,0,0-1.616,1.849c-.152.245-.261.444-.329.581a1.063,1.063,0,0,0-.1.214,1.662,1.662,0,0,0,.124-.2c.078-.131.193-.311.354-.562a8.7,8.7,0,0,1,1.637-1.8,7.248,7.248,0,0,1,.643-.485c.233-.155.485-.311.736-.482l1.616-1.081,3.7-2.486,6.693-4.543,2.02-1.392.544-.385A.93.93,0,0,0,263.938,293.07Z" transform="translate(-208.856 -252.532)" fill="#896255"/>
      <path id="Path_331" data-name="Path 331" d="M294.98,327.478a1.478,1.478,0,0,0,.351-.034,9.473,9.473,0,0,0,.932-.2c.8-.2,1.864-.581,3.036-.932a9.992,9.992,0,0,1,3.107-.472,10.966,10.966,0,0,1,1.3.158,1.335,1.335,0,0,0-.336-.118,4.808,4.808,0,0,0-.957-.155,9.174,9.174,0,0,0-3.154.432c-1.193.357-2.24.758-3.017.979-.388.115-.708.2-.932.249a1.423,1.423,0,0,0-.326.093Z" transform="translate(-263.934 -275.037)" fill="#896255"/>
      <path id="Path_332" data-name="Path 332" d="M323.916,343.87c-.019,0,0,.137.1.332a2.643,2.643,0,0,0,.488.668,3.057,3.057,0,0,0,.932.712,6.594,6.594,0,0,0-.8-.823A9.257,9.257,0,0,1,323.916,343.87Z" transform="translate(-294.654 -287.548)" fill="#896255"/>
      <path id="Path_333" data-name="Path 333" d="M318.841,329.137a2.4,2.4,0,0,0,.37-.059,2.965,2.965,0,0,1,.882.043c.69.134,1.243.345,1.243.3a3.029,3.029,0,0,0-1.221-.454,2.271,2.271,0,0,0-.932,0C318.952,329.025,318.831,329.121,318.841,329.137Z" transform="translate(-288.982 -277.24)" fill="#896255"/>
    </g>
  </g>
</svg>
