<svg xmlns="http://www.w3.org/2000/svg" width="87.88" height="87.325" viewBox="0 0 87.88 87.325">
  <g id="Group_150" data-name="Group 150" transform="translate(-547.069 -1043.885)">
    <rect id="Rectangle_1" data-name="Rectangle 1" width="23.921" height="24.937" transform="translate(611.028 1043.896)" fill="#e0e0e0"/>
    <rect id="Rectangle_2" data-name="Rectangle 2" width="23.921" height="24.937" transform="translate(609.406 1043.896)" fill="#fafafa"/>
    <path id="Path_15" data-name="Path 15" d="M89.3,74.88H65.37V49.926H89.3Zm-23.922-.014H89.291V49.948H65.384Z" transform="translate(544.031 993.959)" fill="#e0e0e0"/>
    <rect id="Rectangle_3" data-name="Rectangle 3" width="17.491" height="18.232" transform="translate(612.623 1047.249)" fill="#fafafa"/>
    <path id="Path_16" data-name="Path 16" d="M68.674,130.24a3,3,0,0,1-.43.5c-.27.294-.67.7-1.111,1.127s-.843.811-1.144,1.1a2.636,2.636,0,0,1-.506.419,3.145,3.145,0,0,1,.43-.5c.27-.294.673-.688,1.114-1.127s.846-.811,1.146-1.1a2.643,2.643,0,0,1,.5-.416Z" transform="translate(550.834 935.362)" fill="#e0e0e0"/>
    <path id="Path_17" data-name="Path 17" d="M142,130.07a2.792,2.792,0,0,1,.5.43c.294.27.7.67,1.127,1.111s.811.843,1.082,1.141a2.8,2.8,0,0,1,.422.506,2.644,2.644,0,0,1-.5-.43c-.294-.27-.7-.673-1.127-1.114s-.811-.849-1.1-1.146a2.784,2.784,0,0,1-.408-.5Z" transform="translate(488.12 935.486)" fill="#e0e0e0"/>
    <path id="Path_18" data-name="Path 18" d="M141.8,54.084a2.833,2.833,0,0,1,.43-.5c.27-.294.673-.688,1.114-1.127s.843-.811,1.141-1.082a2.6,2.6,0,0,1,.506-.422,2.606,2.606,0,0,1-.43.49c-.27.294-.673.7-1.114,1.13s-.847.811-1.144,1.1a2.785,2.785,0,0,1-.5.419Z" transform="translate(488.266 993.213)" fill="#e0e0e0"/>
    <path id="Path_19" data-name="Path 19" d="M68.661,54.091a2.834,2.834,0,0,1-.5-.43c-.294-.27-.688-.673-1.125-1.114s-.811-.843-1.082-1.141a3,3,0,0,1-.422-.506,2.607,2.607,0,0,1,.5.43c.294.27.7.673,1.13,1.114s.811.846,1.082,1.144A2.785,2.785,0,0,1,68.661,54.091Z" transform="translate(550.798 993.251)" fill="#e0e0e0"/>
    <path id="Path_20" data-name="Path 20" d="M94.52,80.358a.648.648,0,0,1,0-.086V79.03c0-.865,0-2.119-.019-3.715,0-3.193-.019-7.744-.033-13.189l.068.068H77.095l.076-.076V80.35l-.065-.068,12.629.035,3.548.016h.027l-3.534.019-12.7.062H77V62.04H94.588v.068c-.016,5.464-.027,10.028-.035,13.233,0,1.587,0,2.84-.019,3.7V80.26A.344.344,0,0,1,94.52,80.358Z" transform="translate(535.545 985.122)" fill="#e0e0e0"/>
    <rect id="Rectangle_4" data-name="Rectangle 4" width="5.835" height="5.835" transform="translate(618.451 1053.446)" fill="#ebebeb"/>
    <g id="Group_149" data-name="Group 149" transform="translate(547.069 1045.731)">
      <g id="Group_141" data-name="Group 141" transform="translate(0 0)">
        <g id="freepik--character--inject-30" transform="translate(0)">
          <g id="freepik--bottom--inject-30" transform="translate(6.402 45.745)">
            <path id="Path_54594" data-name="Path 54594" d="M146.479,327.63a3.022,3.022,0,0,1,.857.857c.248.343.223,2.055.472,2.843s.428.994.835,1.978a5.738,5.738,0,0,1,.454,4.928,8.563,8.563,0,0,1-3.339,4.967,3.087,3.087,0,0,1-1.862.779s-1.572-.544-1.357-1.468S146.479,327.63,146.479,327.63Z" transform="translate(-120.268 -304.247)" fill="#263238"/>
            <path id="Path_54595" data-name="Path 54595" d="M143.9,328.278a3.366,3.366,0,0,0,.642.96,7.779,7.779,0,0,1,1.083,2.8c1.039,4.453-.681,6.782,1.776,8.4.711.428,2.6-.137,4.71-3,1.088-1.473,1.648-4.457,1.173-5.788s-1.1-2.188-1.417-3.211-.214-2.954-.809-3.828a4.25,4.25,0,0,0-1.43-1.164c-.428-.248-1.383-.567-1.824-.8s-.689-.509-.963-.189l.539.578c.813,1.07.6,1.233.595,1.815a9.5,9.5,0,0,0,.343,1.837c-.578-.693-.822-1.284-1.43-1.178a3.956,3.956,0,0,0-1.979,1.335C144.061,327.684,143.852,328.021,143.9,328.278Z" transform="translate(-124.868 -301.204)" fill="#09877c"/>
            <path id="Path_54596" data-name="Path 54596" d="M143.9,328.278a3.366,3.366,0,0,0,.642.96,7.779,7.779,0,0,1,1.083,2.8c1.039,4.453-.681,6.782,1.776,8.4.711.428,2.6-.137,4.71-3,1.088-1.473,1.648-4.457,1.173-5.788s-1.1-2.188-1.417-3.211-.214-2.954-.809-3.828a4.25,4.25,0,0,0-1.43-1.164c-.428-.248-1.383-.567-1.824-.8s-.689-.509-.963-.189l.539.578c.813,1.07.6,1.233.595,1.815a9.5,9.5,0,0,0,.343,1.837c-.578-.693-.822-1.284-1.43-1.178a3.956,3.956,0,0,0-1.979,1.335C144.061,327.684,143.852,328.021,143.9,328.278Z" transform="translate(-124.868 -301.204)" opacity="0.4"/>
            <path id="Path_54597" data-name="Path 54597" d="M150,348.153c1.088-1.473,1.648-4.457,1.173-5.788a12.8,12.8,0,0,0-.552-1.284,1.553,1.553,0,0,0,.064.262c.034.171.059.347.081.522a4.068,4.068,0,0,1-.167,2.038c-.24.567-.788,1.983-1.538,2.033-.428.03-.8-.378-.977-.857-.077-.2-.206-.74-.206-.74a6.559,6.559,0,0,0-3.425,2.162,2.812,2.812,0,0,1,.064.96,2.381,2.381,0,0,1-.378.968,1.677,1.677,0,0,1-.274.227,2.928,2.928,0,0,0,1.4,2.518C145.985,351.591,147.856,351.034,150,348.153Z" transform="translate(-122.741 -311.939)" opacity="0.3"/>
            <path id="Path_54598" data-name="Path 54598" d="M159.53,343.674a14.809,14.809,0,0,1,.378,3.571c.428,1.139.8,1.092.857.5a32.37,32.37,0,0,0-1.473-5.061C159.368,343.031,159.454,343.369,159.53,343.674Z" transform="translate(-138.771 -312.853)" fill="#37474f"/>
            <path id="Path_54599" data-name="Path 54599" d="M152.387,324.351a2.475,2.475,0,0,0-.484-1.627c-.107-.047-.21-.094-.291-.137-.48-.257-.689-.509-.963-.189l.522.6c.813,1.07.6,1.233.6,1.815a9.5,9.5,0,0,0,.343,1.837,33.238,33.238,0,0,1,1.212,4.4c.265,1.832-.073,3.074.189,3.172s.779-.124.835-1.605a15.23,15.23,0,0,0-1.152-5.09,7.932,7.932,0,0,1-.806-3.176Z" transform="translate(-128.655 -301.17)" fill="#37474f"/>
            <path id="Path_54600" data-name="Path 54600" d="M155.271,348.588a.18.18,0,0,1-.094.056,5.994,5.994,0,0,0-3.336,2.2.189.189,0,0,1-.257.026.179.179,0,0,1-.03-.257,6.422,6.422,0,0,1,3.537-2.325.189.189,0,0,1,.223.137.18.18,0,0,1-.042.167Z" transform="translate(-129.998 -316.055)" fill="#ebebeb"/>
            <path id="Path_54601" data-name="Path 54601" d="M156.079,344.994a.159.159,0,0,1-.094.051,6.628,6.628,0,0,0-3.485,2.361.189.189,0,1,1-.291-.235,7.009,7.009,0,0,1,3.683-2.488.189.189,0,0,1,.184.313Z" transform="translate(-131.076 -313.995)" fill="#ebebeb"/>
            <path id="Path_54602" data-name="Path 54602" d="M156.493,341.013a.2.2,0,0,1-.094.056,7.3,7.3,0,0,0-3.853,2.6.21.21,0,0,1-.291.03.206.206,0,0,1-.03-.291,7.708,7.708,0,0,1,4.061-2.739.21.21,0,0,1,.257.145A.218.218,0,0,1,156.493,341.013Z" transform="translate(-131.507 -311.701)" fill="#ebebeb"/>
            <path id="Path_54603" data-name="Path 54603" d="M157.09,337.666a.189.189,0,0,1-.094.06,7.142,7.142,0,0,0-3.768,2.55.206.206,0,0,1-.283.03.2.2,0,0,1-.03-.283,7.561,7.561,0,0,1,3.982-2.685.206.206,0,0,1,.248.145.2.2,0,0,1-.054.183Z" transform="translate(-132.404 -309.792)" fill="#ebebeb"/>
            <path id="Path_54604" data-name="Path 54604" d="M158.383,334.453a.21.21,0,0,1-.094.059,7.167,7.167,0,0,0-3.772,2.569.2.2,0,0,1-.313-.257,7.535,7.535,0,0,1,3.982-2.685.2.2,0,0,1,.2.334Z" transform="translate(-134.248 -307.967)" fill="#ebebeb"/>
            <path id="Path_54605" data-name="Path 54605" d="M161.872,315.356l-3.382-5.416-5.788,4.179,6.851,7.279s4.448-.167,4.975-2.064S162.886,315.96,161.872,315.356Z" transform="translate(-139.796 -294.131)" fill="#ffbda7"/>
            <path id="Path_54606" data-name="Path 54606" d="M163.657,330.12l-3.683,2.158-2.231,1.233,2.526,5.181,7.125-2.932Z" transform="translate(-144.739 -305.671)" fill="#ffbda7"/>
            <path id="Path_54607" data-name="Path 54607" d="M174.816,274.777s-10.914-2.106-16.48-1.712c-6.054.428-7.2,3.853-6.285,6.915,1.558,5.19,11.791,14.6,11.791,14.6s4.384-.933,5.673-3.951l-1.161-2.025,5.609,1.781.857-1.039Z" transform="translate(-149.607 -273.016)" fill="#455a64"/>
            <path id="Path_54608" data-name="Path 54608" d="M167.366,291.249a49.287,49.287,0,0,1,3.117,5.891l-1.768-.561c-2.188-3.853-3.579-7.3-5.994-9.591a11.333,11.333,0,0,1,4.646,4.26Z" transform="translate(-149.957 -281.008)" fill="#37474f"/>
            <path id="Path_54609" data-name="Path 54609" d="M101.632,279.32l24.083,5.634s1.133,7.706-.7,12.466-6.816,5.994-9.116,5.994a27.885,27.885,0,0,1-6.915-1.391,18.108,18.108,0,0,1-3.8,2.236c-1.913.762-8.088,3.387-8.088,3.387a7.909,7.909,0,0,1-2.334-6.315l6.872-8.375Z" transform="translate(-76.427 -276.622)" fill="#455a64"/>
            <path id="Path_54610" data-name="Path 54610" d="M131.866,334.2a6.851,6.851,0,0,1-1.4-1.871,84.322,84.322,0,0,0,9.689-2.967c4.106-1.739,5.369-3.576,5.369-3.576s.03,1.22-1.773,2.792a18.108,18.108,0,0,1-3.8,2.235C138.022,331.578,131.866,334.2,131.866,334.2Z" transform="translate(-111.195 -303.195)" fill="#37474f"/>
            <path id="Path_54611" data-name="Path 54611" d="M99.131,308.308c2.051.316,7.159-.24,8.953-4.132,1.756-3.811,1.228-9.133.857-13.046l.661.154,1.807.428h0s1.133,7.706-.7,12.466-6.816,5.994-9.116,5.994a27.885,27.885,0,0,1-6.915-1.391l1.088-1.687a8.99,8.99,0,0,0,3.365,1.212Z" transform="translate(-62.097 -283.375)" fill="#37474f"/>
            <path id="Path_54612" data-name="Path 54612" d="M116.944,306.175a12.448,12.448,0,0,1,.857-1.039,6.674,6.674,0,0,1,5.729-3.022c3.368.129,9.847.715,9.847.715s-6.79-1.619-9.119-2.008-3.785-.154-5.112,1.024-3.755,3.828-3.755,3.828Z" transform="translate(-92.587 -288.816)" fill="#37474f"/>
            <path id="Path_54613" data-name="Path 54613" d="M151.326,300.185a6.906,6.906,0,0,1-.944-4.355,8.122,8.122,0,0,0-.488,5.81Z" transform="translate(-125.171 -286.063)" fill="#37474f"/>
            <path id="Path_54614" data-name="Path 54614" d="M196.115,342.56a7.3,7.3,0,0,0-3.524,2.089,3.139,3.139,0,0,0-.12,3.549c.647,1.233,1.889,2.71,3.459,2.706a8.4,8.4,0,0,0,4.046-1.045Z" transform="translate(-191.98 -312.785)" fill="#263238"/>
            <path id="Path_54615" data-name="Path 54615" d="M186.713,340.713c0,.492-2.119,1.349-4.32,2.252-2.361.968-2.963,1.648-4.889,2.466-2.2.933-3.022.95-4.654.394s-3.879-3.425-2.329-5.545c1.263-1.712,2.8-2.141,5.138-2.6a42.675,42.675,0,0,0,5.45-1.421c1.687-.548,3.117-1.627,3.425-1.207-.244.1-2.033,1.075-1.712,1.383.073.154.321.12.756-.034a.736.736,0,0,1,.595,0,1.147,1.147,0,0,1,.4.539c.235.509.583,1.2.771,1.712.111.308.069.133.171.428a3.391,3.391,0,0,1,.283,1.195c-.03.184-.171.24-.321.321s-.36.184-.505.283c-.056.039-.162.176-.137.248s.347.081.472.039.338-.086.492-.133S186.335,340.868,186.713,340.713Z" transform="translate(-169.305 -308.439)" fill="#09877c"/>
            <path id="Path_54616" data-name="Path 54616" d="M186.713,340.713c0,.492-2.119,1.349-4.32,2.252-2.361.968-2.963,1.648-4.889,2.466-2.2.933-3.022.95-4.654.394s-3.879-3.425-2.329-5.545c1.263-1.712,2.8-2.141,5.138-2.6a42.675,42.675,0,0,0,5.45-1.421c1.687-.548,3.117-1.627,3.425-1.207-.244.1-2.033,1.075-1.712,1.383.073.154.321.12.756-.034a.736.736,0,0,1,.595,0,1.147,1.147,0,0,1,.4.539c.235.509.583,1.2.771,1.712.111.308.069.133.171.428a3.391,3.391,0,0,1,.283,1.195c-.03.184-.171.24-.321.321s-.36.184-.505.283c-.056.039-.162.176-.137.248s.347.081.472.039.338-.086.492-.133S186.335,340.868,186.713,340.713Z" transform="translate(-169.305 -308.439)" opacity="0.4"/>
            <path id="Path_54617" data-name="Path 54617" d="M197.973,348.814c-.316.137-2.312.933-2.895.355s.985-1.469.985-1.469a7.638,7.638,0,0,0-1.657-4.1c-.316.223-1.6.137-1.538-.612s2.252-1.555,2.286-1.567c-2.226.467-3.695.891-4.924,2.569-1.55,2.111.693,4.992,2.329,5.545s2.456.539,4.654-.394C197.42,349.033,197.775,348.913,197.973,348.814Z" transform="translate(-189.004 -312.134)" opacity="0.3"/>
            <path id="Path_54618" data-name="Path 54618" d="M170.353,351.477c-.826.223-.308.994.891.818,1.8-.257,3.336-1.186,5.352-1.712,2.2-.9,4.439-1.712,4.325-2.282-.394.124-1.228.428-1.228.428-.167.059-.587.189-.587.189a41.149,41.149,0,0,1-5.3,2.016C172.229,351.271,171.18,351.25,170.353,351.477Z" transform="translate(-163.495 -316.067)" fill="#37474f"/>
            <path id="Path_54619" data-name="Path 54619" d="M175.723,340.123a13.507,13.507,0,0,1,2.41-1.335c1.494-.586,4.034-1.879,5.6-2.68a19.158,19.158,0,0,0,1.712-1.133c-.235-.3-1.178-.086-2.141.428s-1.55.857-2.5,1.284c-1.845.972-3.922,1.584-4.98,2.184S174.955,340.508,175.723,340.123Z" transform="translate(-170.218 -308.371)" fill="#37474f"/>
            <path id="Path_54620" data-name="Path 54620" d="M193.537,346.341a.218.218,0,0,0,.039.069,7.454,7.454,0,0,1,1.511,4.061.214.214,0,0,0,.189.214.176.176,0,0,0,.176-.2,7.809,7.809,0,0,0-1.623-4.344.171.171,0,0,0-.262-.022.223.223,0,0,0-.039.218Z" transform="translate(-188.117 -314.793)" fill="#f0f0f0"/>
            <path id="Path_54621" data-name="Path 54621" d="M189.368,344.084a.277.277,0,0,0,.034.06,9.916,9.916,0,0,1,1.811,4.71.214.214,0,0,0,.2.206.18.18,0,0,0,.171-.206,10.22,10.22,0,0,0-1.91-4.958.171.171,0,0,0-.262-.034A.218.218,0,0,0,189.368,344.084Z" transform="translate(-182.461 -313.502)" fill="#f0f0f0"/>
            <path id="Path_54622" data-name="Path 54622" d="M187.916,347.794a.206.206,0,0,0,.162.137.171.171,0,0,0,.189-.179,11.757,11.757,0,0,0-1.876-5.617.171.171,0,0,0-.262-.022.214.214,0,0,0,0,.283s1.828,2.881,1.768,5.31a.189.189,0,0,0,.017.086Z" transform="translate(-177.744 -312.5)" fill="#f0f0f0"/>
            <path id="Path_54623" data-name="Path 54623" d="M184.817,346.342a.2.2,0,0,0,.159.137.176.176,0,0,0,.189-.179,8.682,8.682,0,0,0-1.991-5.361.171.171,0,0,0-.262,0,.223.223,0,0,0,0,.291,8.436,8.436,0,0,1,1.867,5.026A.223.223,0,0,0,184.817,346.342Z" transform="translate(-173.266 -311.824)" fill="#f0f0f0"/>
            <path id="Path_54624" data-name="Path 54624" d="M180.729,344.839a.2.2,0,0,0,.159.137.176.176,0,0,0,.2-.176c.137-2.706-1.974-5.289-2.051-5.383a.171.171,0,0,0-.262,0,.218.218,0,0,0,0,.291c0,.022,2.064,2.535,1.935,5.048a.334.334,0,0,0,.022.081Z" transform="translate(-167.415 -310.955)" fill="#ebebeb"/>
          </g>
          <g id="freepik--top--inject-30" transform="translate(0)">
            <g id="freepik--arm--inject-30" transform="translate(2.445 9.7)">
              <path id="Path_54625" data-name="Path 54625" d="M174.668,205.6l-2.895,10.43s-15.435,2.256-17.242,2.479-4.282.6-6.645-3.537-5.176-9.308-6.594-15.016a14.276,14.276,0,0,1,.077-7.706c1.5-3.948,5.908-4.573,5.823-1.383-.064,2.535.073,4.71.573,4.637.364-.167.48-1.028,1.109-1.631a1.169,1.169,0,0,1,1.083-.262c.3.133.355.283.244.72a16.665,16.665,0,0,1-.955,3.186c-.518,1.1-1.284,1.948-1.126,2.638,1.237,4.14,6.26,9.633,6.26,9.633l11.458-2.895S171.238,205.095,174.668,205.6Z" transform="translate(-140.8 -188.825)" fill="#ffbda7"/>
              <path id="Path_54626" data-name="Path 54626" d="M153.234,227.058a24.218,24.218,0,0,0-7.672.95l-4.663,1.37s-.685,5.761,1.541,9.847l7.9-1.335Z" transform="translate(-119.367 -210.682)" fill="#09877c"/>
              <path id="Path_54627" data-name="Path 54627" d="M153.234,227.058a24.218,24.218,0,0,0-7.672.95l-4.663,1.37s-.685,5.761,1.541,9.847l7.9-1.335Z" transform="translate(-119.367 -210.682)" opacity="0.3"/>
            </g>
            <g id="freepik--doll--inject-30" transform="translate(13.753 31.933)">
              <path id="Path_54628" data-name="Path 54628" d="M171.234,251.141c-.6,2.68-2.141,9.45-2.141,9.45-3.853,1.075-7.083.463-9.543-2.141l2.141-9.45Z" transform="translate(-156.703 -245.472)" fill="#455a64"/>
              <path id="Path_54629" data-name="Path 54629" d="M159.375,257.546a1.173,1.173,0,1,0,.518-.735A1.173,1.173,0,0,0,159.375,257.546Z" transform="translate(-147.073 -249.836)" fill="#f28f8f"/>
              <path id="Path_54630" data-name="Path 54630" d="M181.71,253.536a1.173,1.173,0,1,1-.152-.886A1.173,1.173,0,0,1,181.71,253.536Z" transform="translate(-175.703 -247.246)" fill="#f28f8f"/>
              <rect id="Rectangle_7696" data-name="Rectangle 7696" width="1.486" height="5.438" transform="matrix(-0.993, -0.115, 0.115, -0.993, 7.503, 24.692)" fill="#ffa8a7"/>
              <rect id="Rectangle_7697" data-name="Rectangle 7697" width="1.486" height="1.944" transform="matrix(-0.993, -0.115, 0.115, -0.993, 7.276, 26.62)" fill="#263238"/>
              <path id="Path_54631" data-name="Path 54631" d="M175.679,299.91h0a1.2,1.2,0,0,0-1.327,1.049v.077l2.376.274v-.077a1.2,1.2,0,0,0-1.049-1.323Z" transform="translate(-168.542 -274.58)" fill="#37474f"/>
              <rect id="Rectangle_7698" data-name="Rectangle 7698" width="1.486" height="0.299" transform="matrix(-0.993, -0.115, 0.115, -0.993, 7.507, 24.696)" fill="#fafafa"/>
              <rect id="Rectangle_7699" data-name="Rectangle 7699" width="1.486" height="5.441" transform="matrix(0.951, 0.308, -0.308, 0.951, 4.659, 18.474)" fill="#ffa8a7"/>
              <rect id="Rectangle_7700" data-name="Rectangle 7700" width="1.486" height="1.945" transform="matrix(0.951, 0.308, -0.308, 0.951, 2.984, 23.646)" fill="#263238"/>
              <path id="Path_54632" data-name="Path 54632" d="M185.933,297.631h0a1.2,1.2,0,0,1,.771,1.5l-.026.073-2.273-.737.025-.069a1.19,1.19,0,0,1,1.5-.771Z" transform="translate(-182.871 -273.249)" fill="#37474f"/>
              <rect id="Rectangle_7701" data-name="Rectangle 7701" width="1.486" height="0.3" transform="matrix(0.951, 0.308, -0.308, 0.951, 3.078, 23.36)" fill="#fafafa"/>
              <path id="Path_54633" data-name="Path 54633" d="M162.7,270.615a.805.805,0,0,1-.347-.107c.308-.03.428-.227.36-.316s-.227-.094-.428-.081a.672.672,0,0,1-.283-.03s.145-.24.115-.355a.145.145,0,0,0-.257-.081.857.857,0,0,1-.472.262.472.472,0,0,0-.283.154,9.526,9.526,0,0,1-4.23-1.5l-.509.715a8.56,8.56,0,0,0,2.141,1.07,12.443,12.443,0,0,0,2.479.587h0a2.432,2.432,0,0,1,.591.223,2.215,2.215,0,0,0,.706.223c.227,0,.252-.218.142-.279a.645.645,0,0,1-.2-.159.7.7,0,0,0,.428,0C162.866,270.889,162.883,270.637,162.7,270.615Z" transform="translate(-146.934 -256.658)" fill="#ffa8a7"/>
              <path id="Path_54634" data-name="Path 54634" d="M178.583,264.3a.83.83,0,0,0,.351.051c-.262-.159-.291-.39-.184-.428a.472.472,0,0,1,.4.1.72.72,0,0,0,.27.094s-.025-.283.051-.378a.145.145,0,0,1,.265.042.8.8,0,0,0,.313.428.472.472,0,0,1,.189.262,9.6,9.6,0,0,0,4.465.472l.15.857a8.7,8.7,0,0,1-2.406.042,12.707,12.707,0,0,1-2.492-.544h0a2.566,2.566,0,0,0-.629-.051,2.218,2.218,0,0,1-.732-.094c-.21-.094-.133-.313,0-.317a.567.567,0,0,0,.248-.056.71.71,0,0,1-.378-.179C178.321,264.466,178.412,264.244,178.583,264.3Z" transform="translate(-178.394 -253.866)" fill="#ffa8a7"/>
              <path id="Path_54635" data-name="Path 54635" d="M172.763,266.522l1.631.857-1.22,3.057,3.027,3.917s-1.391,3.177-6.658,1.747-4.363-4.889-4.363-4.889l4.4-1.639.343-3.245,1.669-.087Z" transform="translate(-164.053 -255.33)" fill="#09877c"/>
              <path id="Path_54636" data-name="Path 54636" d="M173.937,265.049l-.252,1c-.2.45-1.259.171-1.284-.3l.227-.98Z" transform="translate(-164.906 -254.49)" fill="#f28f8f"/>
              <ellipse id="Ellipse_14" data-name="Ellipse 14" cx="4.693" cy="4.936" rx="4.693" ry="4.936" transform="matrix(-0.975, -0.221, 0.221, -0.975, 12.901, 11.7)" fill="#ffa8a7"/>
              <path id="Path_54637" data-name="Path 54637" d="M164.47,255.532a.612.612,0,1,0,.27-.383A.612.612,0,0,0,164.47,255.532Z" transform="translate(-153.247 -248.935)" fill="#37474f"/>
              <path id="Path_54638" data-name="Path 54638" d="M162.963,258.214a.788.788,0,1,0,.9-.458A.723.723,0,0,0,162.963,258.214Z" transform="translate(-151.377 -250.461)" fill="#f28f8f"/>
              <path id="Path_54639" data-name="Path 54639" d="M177.244,253.182a.612.612,0,1,1-.08-.462.612.612,0,0,1,.08.462Z" transform="translate(-169.786 -247.437)" fill="#37474f"/>
              <path id="Path_54640" data-name="Path 54640" d="M179.562,255.159a.788.788,0,1,1-.612-.8.723.723,0,0,1,.612.8Z" transform="translate(-172.929 -248.522)" fill="#f28f8f"/>
              <path id="Path_54641" data-name="Path 54641" d="M170.676,259.913a1.623,1.623,0,0,0,1.409-.689.189.189,0,0,0-.338-.171,1.49,1.49,0,0,1-2.518-.567.176.176,0,0,0-.189-.184.189.189,0,0,0-.189.189,1.751,1.751,0,0,0,1.391,1.374A1.951,1.951,0,0,0,170.676,259.913Z" transform="translate(-161.556 -250.789)" fill="#37474f"/>
              <path id="Path_54642" data-name="Path 54642" d="M166.387,243.975c-1.944,3.117-4.834.857-7.167,1.9a4.8,4.8,0,0,1,1.656-3.691c1.9-1.739,5.2-.933,5.96.792,1.978.351,3,2.625,1.55,4.933a3.1,3.1,0,0,1-2-3.935Z" transform="translate(-154.393 -241.021)" fill="#455a64"/>
            </g>
            <g id="freepik--chest--inject-30" transform="translate(28.603 0.204)">
              <path id="Path_54643" data-name="Path 54643" d="M115.815,228.375c1.623,1.133,5.566,7.642,5.352,28.844-5.994,4.14-23.9-.179-25.368-6.953a18.368,18.368,0,0,1-.022-4.521c-.33-3.733-.62-5.939-.767-9.612-.128-3.164-.326-7.159,3.905-8.661a18.371,18.371,0,0,1,8.884-.488A51.474,51.474,0,0,1,115.815,228.375Z" transform="translate(-93.839 -200.961)" fill="#09877c"/>
              <path id="Path_54644" data-name="Path 54644" d="M119.139,190.63c2.172-2.312,5.1-3.883,6.388-8.028,1.447-4.658.133-9.021-2.633-9.847,0,0-.154-3.425-4.419-5.254a14.628,14.628,0,0,0-11.676.792,9.8,9.8,0,0,0-4.061,3.956,9.551,9.551,0,0,0-.771,6.315,6.363,6.363,0,0,0,2.625,3.425,14.349,14.349,0,0,0,4.025,1.768c.857.265,1.759.5,2.633.771a6.952,6.952,0,0,1,1.349.458,4.773,4.773,0,0,1,.756.72l4.35,4.1A3.183,3.183,0,0,0,119.139,190.63Z" transform="translate(-101.689 -166.645)" fill="#37474f"/>
              <path id="Path_54645" data-name="Path 54645" d="M122.909,193.347a.4.4,0,0,0,.111.094c.625.4.608-.685,1.212-1.409a1.622,1.622,0,0,1,1.327-.539,2.064,2.064,0,0,1,1.948,1.181,3.031,3.031,0,0,1-1.794,3.956,2.445,2.445,0,0,1-2.644-.509l-.5,8.028s-.321,2.9-4.649,3.425-5.768-1.362-4.012-3.079l-.034-2.286a10.275,10.275,0,0,1-3.194-.428,6.1,6.1,0,0,1-3.986-4.752c-.3-1.558.167-2.946.15-4.521,0-.938-.086-2.419-.069-3.027a6.358,6.358,0,0,1,.257-1.589c5.356,1.2,11.213-.133,12.763-2.672a6.118,6.118,0,0,0,.51,3.331,6.243,6.243,0,0,0,2.3,2.569,3.778,3.778,0,0,0,.047,1.764,1.182,1.182,0,0,0,.252.463Z" transform="translate(-105.374 -177.27)" fill="#ffbda7"/>
              <path id="Path_54646" data-name="Path 54646" d="M129.158,206.124a1.462,1.462,0,0,1-1.815.916c-.882-.162-1.494-.831-1.374-1.5a1.464,1.464,0,0,1,1.82-.916C128.671,204.786,129.3,205.455,129.158,206.124Z" transform="translate(-115.112 -188.343)" fill="#f28f8f"/>
              <path id="Path_54647" data-name="Path 54647" d="M154.479,204.7c.051.676-.629,1.284-1.52,1.349a1.476,1.476,0,0,1-1.712-1.1c-.051-.672.629-1.284,1.52-1.353a1.469,1.469,0,0,1,1.712,1.1Z" transform="translate(-151.244 -187.771)" fill="#f28f8f"/>
              <path id="Path_54648" data-name="Path 54648" d="M129.633,195.02l2.2,1.024a1.284,1.284,0,0,0-.608-1.648,1.181,1.181,0,0,0-1.589.625Z" transform="translate(-119.44 -182.454)" fill="#263238"/>
              <path id="Path_54649" data-name="Path 54649" d="M133.273,200a.989.989,0,1,1-.244-.723.989.989,0,0,1,.244.723Z" transform="translate(-121.499 -185.119)" fill="#263238"/>
              <ellipse id="Ellipse_15" data-name="Ellipse 15" cx="0.994" cy="0.994" rx="0.994" ry="0.994" transform="translate(2.601 15.613) rotate(-101.78)" fill="#263238"/>
              <path id="Path_54650" data-name="Path 54650" d="M148.53,194.748l2.354-.651a1.173,1.173,0,0,0-1.46-.857A1.284,1.284,0,0,0,148.53,194.748Z" transform="translate(-146.471 -181.832)" fill="#263238"/>
              <path id="Path_54651" data-name="Path 54651" d="M145.262,200.06l-.4,3.849-2.509-.857Z" transform="translate(-138.216 -185.757)" fill="#f0997a"/>
              <path id="Path_54652" data-name="Path 54652" d="M120.09,218.648a16.017,16.017,0,0,0,5.93-1.837,5.939,5.939,0,0,0,2.141-2.822,7.578,7.578,0,0,1-1.284,2.928c-2.385,2.644-6.765,2.89-6.765,2.89Z" transform="translate(-111.585 -193.722)" fill="#f0997a"/>
              <path id="Path_54653" data-name="Path 54653" d="M139.39,217.22Z" transform="translate(-131.076 -195.569)" fill="#b16668"/>
              <path id="Path_54654" data-name="Path 54654" d="M133.7,216.38h0C133.73,216.385,133.741,216.389,133.7,216.38Z" transform="translate(-122.979 -195.089)" fill="#b16668"/>
              <path id="Path_54655" data-name="Path 54655" d="M137.816,212.446a4.941,4.941,0,0,1-1.332,0,.7.7,0,0,0-.638.094c-.176.171-.154.428-.026.728a2.183,2.183,0,0,0,2.205,1.062,1.889,1.889,0,0,0,1.785-1.64c0-.189.022-.492-.2-.612a.723.723,0,0,0-.655.073,3.369,3.369,0,0,1-1.139.3Z" transform="translate(-129.927 -192.601)" fill="#b16668"/>
              <path id="Path_54656" data-name="Path 54656" d="M135.94,215.037a1.287,1.287,0,0,0,0,.252,2.513,2.513,0,0,0,.745.034,1.914,1.914,0,0,0,1.678-1.212,1.438,1.438,0,0,0-.685-.313,1.5,1.5,0,0,0-1.739,1.237Z" transform="translate(-128.573 -193.6)" fill="#f28f8f"/>
            </g>
            <g id="freepik--arm--inject-30-2" data-name="freepik--arm--inject-30" transform="translate(20.514 27.617)">
              <path id="Path_54657" data-name="Path 54657" d="M124.613,231.74c4.115,1.173,5.994,3.554,5.356,8.405s-4.5,15.688-5.138,17.388-1.482,4.037-6.246,4.2-10.648.179-16.355-1.259c-3.022-.756-4.911-1.666-6.067-3-2.775-3.177-1.957-8.075.818-6.5,2.205,1.254,3.344,1.657,4.123,1.661,0,0-.835-2.625-.064-3.237s1.64,1.37,2.775,2.895c.728.977,1.109,2.064,1.794,2.235,4.235.857,11.444-.989,11.444-.989l2.833-11.47S121.342,233.791,124.613,231.74Z" transform="translate(-94.446 -231.286)" fill="#ffbda7"/>
              <path id="Path_54658" data-name="Path 54658" d="M98.925,230.68c3.027.595,5.138,2.372,5.832,4.834s-1.4,11-1.4,11-6.735,0-9.822-2.932a66.311,66.311,0,0,1,2.317-8.991,7.317,7.317,0,0,1,3.078-3.914Z" transform="translate(-68.86 -230.68)" fill="#09877c"/>
              <path id="Path_54659" data-name="Path 54659" d="M98.925,230.68c3.027.595,5.138,2.372,5.832,4.834s-1.4,11-1.4,11-6.735,0-9.822-2.932a66.311,66.311,0,0,1,2.317-8.991,7.317,7.317,0,0,1,3.078-3.914Z" transform="translate(-68.86 -230.68)" opacity="0.3"/>
            </g>
            <g id="freepik--doll--inject-30-2" data-name="freepik--doll--inject-30">
              <rect id="Rectangle_7702" data-name="Rectangle 7702" width="1.486" height="5.441" transform="matrix(-0.925, -0.379, 0.379, -0.925, 5.893, 24.19)" fill="#9e6767"/>
              <rect id="Rectangle_7703" data-name="Rectangle 7703" width="1.486" height="1.945" transform="matrix(-0.925, -0.379, 0.379, -0.925, 5.157, 25.987)" fill="#37474f"/>
              <path id="Path_54660" data-name="Path 54660" d="M212.928,223.732h0a1.195,1.195,0,0,0-1.558.655l-.03.069,2.214.9.025-.069a1.2,1.2,0,0,0-.651-1.559Z" transform="translate(-207.558 -199.038)" fill="#455a64"/>
              <rect id="Rectangle_7704" data-name="Rectangle 7704" width="1.486" height="0.3" transform="matrix(-0.925, -0.379, 0.379, -0.925, 5.895, 24.183)" fill="#fafafa"/>
              <rect id="Rectangle_7705" data-name="Rectangle 7705" width="1.486" height="5.438" transform="matrix(0.833, 0.553, -0.553, 0.833, 4.836, 17.438)" fill="#9e6767"/>
              <rect id="Rectangle_7706" data-name="Rectangle 7706" width="1.486" height="1.944" transform="matrix(0.833, 0.553, -0.553, 0.833, 1.83, 21.971)" fill="#37474f"/>
              <path id="Path_54661" data-name="Path 54661" d="M222.094,218.888h0a1.19,1.19,0,0,1,.334,1.653l-.039.064-2-1.322.042-.064a1.19,1.19,0,0,1,1.657-.334Z" transform="translate(-220.394 -196.205)" fill="#455a64"/>
              <rect id="Rectangle_7707" data-name="Rectangle 7707" width="1.486" height="0.299" transform="matrix(0.833, 0.553, -0.553, 0.833, 1.995, 21.721)" fill="#fafafa"/>
              <path id="Path_54662" data-name="Path 54662" d="M206.767,198.057h0l.025-.047,1.606.9,1.636.857-.022.047h0l-3.683,8.083a2.33,2.33,0,0,1-1.776-.655l1.974-4.864-3,4.316c-.262.034-1.417-.595-1.524-1.122Z" transform="translate(-199.929 -184.38)" fill="#455a64"/>
              <path id="Path_54663" data-name="Path 54663" d="M185.208,186.727a1.178,1.178,0,1,0,1.592-.472A1.178,1.178,0,0,0,185.208,186.727Z" transform="translate(-170.058 -177.577)" fill="#874c4c"/>
              <path id="Path_54664" data-name="Path 54664" d="M205.365,178.072a1.178,1.178,0,1,1-.472-1.592,1.178,1.178,0,0,1,.472,1.592Z" transform="translate(-195.889 -171.987)" fill="#874c4c"/>
              <path id="Path_54665" data-name="Path 54665" d="M191.756,199.072a.8.8,0,0,1-.3-.2c.3.051.472-.1.428-.21s-.189-.154-.372-.189a.647.647,0,0,1-.265-.1s.206-.2.21-.316-.081-.214-.231-.142a.8.8,0,0,1-.522.12.48.48,0,0,0-.316.073,9.51,9.51,0,0,1-3.669-2.569l-.685.553a8.923,8.923,0,0,0,1.794,1.606,12.331,12.331,0,0,0,2.235,1.233h0a2.424,2.424,0,0,1,.505.378,2.321,2.321,0,0,0,.62.4c.218.069.3-.145.21-.231a.617.617,0,0,1-.15-.206.681.681,0,0,0,.4.111C191.842,199.368,191.906,199.162,191.756,199.072Z" transform="translate(-174.946 -182.968)" fill="#9e6767"/>
              <path id="Path_54666" data-name="Path 54666" d="M206.107,185.587a.9.9,0,0,0,.33.145c-.21-.227-.176-.454-.06-.472s.235.077.36.21a.66.66,0,0,0,.235.162s.051-.279.145-.347a.145.145,0,0,1,.248.115.8.8,0,0,0,.184.5.48.48,0,0,1,.111.3,9.578,9.578,0,0,0,4.174,1.657l-.086.857a8.825,8.825,0,0,1-2.329-.612,12.734,12.734,0,0,1-2.256-1.195h0a2.568,2.568,0,0,0-.591-.214,2.3,2.3,0,0,1-.676-.3c-.179-.145-.047-.334.077-.3a.558.558,0,0,0,.252,0,.7.7,0,0,1-.313-.274C205.812,185.681,205.962,185.486,206.107,185.587Z" transform="translate(-203.358 -177.078)" fill="#9e6767"/>
              <path id="Path_54667" data-name="Path 54667" d="M200.269,191.3l1.053.567,1.332,1.284-2,2.616a4.979,4.979,0,0,1-3.228-1.8l1.2-3.032Z" transform="translate(-190.588 -180.338)" fill="#fafafa"/>
              <path id="Path_54668" data-name="Path 54668" d="M201.036,191.07l-.514.891c-.316.378-1.259-.176-1.143-.625l.484-.886Z" transform="translate(-189.801 -180.058)" fill="#874c4c"/>
              <ellipse id="Ellipse_16" data-name="Ellipse 16" cx="4.693" cy="4.936" rx="4.693" ry="4.936" transform="translate(14.653 13.148) rotate(-151.62)" fill="#9e6767"/>
              <path id="Path_54669" data-name="Path 54669" d="M189.338,183.94a.608.608,0,1,0,.362-.3.608.608,0,0,0-.362.3Z" transform="translate(-174.921 -176.151)" fill="#37474f"/>
              <path id="Path_54670" data-name="Path 54670" d="M189.035,186.745a.715.715,0,0,0,.372.938.655.655,0,1,0-.372-.938Z" transform="translate(-174.58 -177.744)" fill="#f28f8f"/>
              <path id="Path_54671" data-name="Path 54671" d="M200.851,178.877a.608.608,0,1,1,.048-.465A.608.608,0,0,1,200.851,178.877Z" transform="translate(-189.834 -172.925)" fill="#37474f"/>
              <path id="Path_54672" data-name="Path 54672" d="M203.752,180.189a.788.788,0,1,1-.378-.932.788.788,0,0,1,.378.932Z" transform="translate(-193.772 -173.603)" fill="#f28f8f"/>
              <path id="Path_54673" data-name="Path 54673" d="M196.382,186.107a1.452,1.452,0,0,0,1.019-.355.191.191,0,1,0-.27-.27,1.494,1.494,0,0,1-2.267-1.228.19.19,0,1,0-.368-.094,1.739,1.739,0,0,0,.968,1.712,1.944,1.944,0,0,0,.921.235Z" transform="translate(-184.132 -176.379)" fill="#37474f"/>
              <path id="Path_54674" data-name="Path 54674" d="M189.92,171.862a2.518,2.518,0,0,1-3.926-1,2.413,2.413,0,0,1-3.211.857c1.143-3.07,3.853-4.419,6.936-2.71s3.425,5.289,1.322,7.167a1.2,1.2,0,0,1-.428-1.935,1.737,1.737,0,0,1-.693-2.381Z" transform="translate(-174.035 -167.37)" fill="#37474f"/>
            </g>
          </g>
        </g>
      </g>
    </g>
  </g>
</svg>
