<svg xmlns="http://www.w3.org/2000/svg" width="172.338" height="153.681" viewBox="0 0 172.338 153.681">
  <g id="Group_149" data-name="Group 149" transform="translate(-974.939 -1222.01)">
    <g id="Group_141" data-name="Group 141" transform="translate(974.939 1255.094)">
      <g id="freepik--character-2--inject-30" transform="translate(65.314)">
        <g id="freepik--Character--inject-30" transform="translate(0 0)">
          <g id="freepik--Bottom--inject-30" transform="translate(30.068 71.658)">
            <path id="Path_54549" data-name="Path 54549" d="M376.81,316.277c-1.43-.692-15.936-.307-17.4.891-1.762,1.43-19.323,7.845-19.323,7.845l-13.466,12.224c5.644,1.436,15.459.1,23.167-3.926a108.033,108.033,0,0,0,12.412-8.36,24.706,24.706,0,0,1,4.8-2.936c2.941-1,7.456-2.767,10.988-4.391C377.986,317.619,378.236,316.967,376.81,316.277Z" transform="translate(-307.054 -288.857)" fill="#ffa8a7"/>
            <path id="Path_54550" data-name="Path 54550" d="M400.039,311.607c.683-.916-2.05-4.121-5.921-4.553a20.382,20.382,0,0,0-6.592.508c-2.151.3-5.305-1.091-7.112-1.383-3.763-.627-4.347,1.706-4.07,2.929a4.229,4.229,0,0,0,3.211,3.53C382.109,313.553,394.29,313.339,400.039,311.607Z" transform="translate(-325.571 -285.18)" fill="#37474f"/>
            <path id="Path_54551" data-name="Path 54551" d="M374.639,317.066c1.285,2.213,4.27,1.555,6.785,1.079,2.364-.445,10.988-2.753,12.123-1.067a17.314,17.314,0,0,0,5.738-3.342s-.627-2.377-5.5-1.2a45.481,45.481,0,0,1-10.825.948c-2.364-.295-5.569-2.433-8.024-1.448C373.881,313.493,374.312,314.922,374.639,317.066Z" transform="translate(-324.819 -287.303)" fill="#09877c"/>
            <path id="Path_54552" data-name="Path 54552" d="M374.639,317.066c1.285,2.213,4.27,1.555,6.785,1.079,2.364-.445,10.988-2.753,12.123-1.067a17.314,17.314,0,0,0,5.738-3.342s-.627-2.377-5.5-1.2a45.481,45.481,0,0,1-10.825.948c-2.364-.295-5.569-2.433-8.024-1.448C373.881,313.493,374.312,314.922,374.639,317.066Z" transform="translate(-324.819 -287.303)" fill="#fff" opacity="0.6"/>
            <path id="Path_54553" data-name="Path 54553" d="M295.565,302.864c.589-3.983,4.389-9.094,8.154-12.662,4.968-4.773,15.355-12.543,15.355-12.543l.2.941h0l28.553-5.839a47.063,47.063,0,0,1,4.033,17.078c0,5.13-.777,11.288-9.758,17.969-5.444,4.045-7.7,6.936-11.785,9.082-4.446,2.327-10.48,6.146-16.84,3.813-3.663-1.336-6.077-3.587-6.1-7.689h0a10.941,10.941,0,0,1-8.2-.47C296.342,310.954,294.95,306.985,295.565,302.864Z" transform="translate(-295.422 -272.76)" fill="#ffa8a7"/>
            <path id="Path_54554" data-name="Path 54554" d="M311.47,322.538a5.99,5.99,0,0,0,1.844-.463c1.107-6.9,8.154-12.035,18.187-20.145a20.813,20.813,0,0,1-1.881-4.829c.357,1.668-.953,3.136-.433,4.34-2.226,2-8.31,5.783-11.885,9.89C314.938,314.071,311.8,317.52,311.47,322.538Z" transform="translate(-301.404 -281.834)" fill="#f28f8f"/>
            <path id="Path_54555" data-name="Path 54555" d="M345.16,333.635c3.575.332,10.568-2.064,14.689-5.644a26.3,26.3,0,0,0,6.379-7.382c.5-.978-12.424,8.812-12.424,8.812A37.148,37.148,0,0,1,345.16,333.635Z" transform="translate(-313.966 -290.575)" fill="#f28f8f"/>
            <path id="Path_54556" data-name="Path 54556" d="M354.224,279.32l-33.772,1.988s-11.12,7.708-16.751,14.644a20.069,20.069,0,0,1,10.147,2.709,19.277,19.277,0,0,1,5.406,4.389A15.944,15.944,0,0,1,330.5,304.2c7.375,3.656,7.845,9.834,7.845,9.834s11.1-6.666,13.8-10.31C356.87,297.376,355.7,284.588,354.224,279.32Z" transform="translate(-298.508 -275.206)" fill="#455a64"/>
            <path id="Path_54557" data-name="Path 54557" d="M329.507,297.53a8.912,8.912,0,0,0,2.285,5.769l-5.745,4.968c.728.683,1.537,1.587,1.537,1.587a78.069,78.069,0,0,1,7.943-6.554,12.676,12.676,0,0,1-6.021-5.769Z" transform="translate(-306.841 -281.995)" fill="#37474f"/>
          </g>
          <g id="freepik--Top--inject-30" transform="translate(0 0)">
            <path id="freepik--Arm--inject-30" d="M301.91,257.274c-2.1,3.418-3.292,5.193-7.671,7.144a69.151,69.151,0,0,1-21.568,5.35c-4.246.376-7.087.057-9.176-1.129-5.018-2.847-6.152-9.545-1.881-8.78,3.411.627,5.181.854,6.184.515,0,0-2.628-3.136-1.919-4.3s2.905.5,5.055,1.956c1.383.928,2.371,2.139,3.33,2.05,5.857-.8,15.4-5.325,15.4-5.325s6.441-14.249,9.471-18.752a11.921,11.921,0,0,1,8.654-4.748l1.085,12.43Z" transform="translate(-251.765 -185.629)" fill="#ffa8a7"/>
            <g id="freepik--Doll--inject-30" transform="translate(0 52.27)">
              <rect id="Rectangle_7690" data-name="Rectangle 7690" width="2.176" height="7.965" transform="translate(10.587 30.032) rotate(-0.38)" fill="#b16668"/>
              <rect id="Rectangle_7691" data-name="Rectangle 7691" width="2.176" height="2.847" transform="translate(10.64 37.996) rotate(-0.38)" fill="#37474f"/>
              <path id="Path_54558" data-name="Path 54558" d="M264.083,304h0a1.743,1.743,0,0,1,1.762,1.738v.138H262.34v-.113A1.75,1.75,0,0,1,264.083,304Z" transform="translate(-253.017 -265.019)" fill="#455a64"/>
              <rect id="Rectangle_7692" data-name="Rectangle 7692" width="2.176" height="0.439" transform="translate(10.642 37.558) rotate(-0.38)" fill="#fafafa"/>
              <rect id="Rectangle_7693" data-name="Rectangle 7693" width="2.176" height="7.965" transform="translate(17.378 37.198) rotate(168.33)" fill="#b16668"/>
              <rect id="Rectangle_7694" data-name="Rectangle 7694" width="2.176" height="2.847" transform="translate(17.951 39.984) rotate(168.33)" fill="#37474f"/>
              <path id="Path_54559" data-name="Path 54559" d="M273.993,302.816h0a1.75,1.75,0,0,0-1.354,2.075V305l3.431-.708v-.113a1.75,1.75,0,0,0-2.075-1.361Z" transform="translate(-256.843 -264.563)" fill="#455a64"/>
              <rect id="Rectangle_7695" data-name="Rectangle 7695" width="2.176" height="0.439" transform="translate(17.373 37.199) rotate(168.33)" fill="#fafafa"/>
              <path id="Path_54560" data-name="Path 54560" d="M265.446,284.814l.589,2.628a6.323,6.323,0,0,0,4.584-1.461l-3.133-7.252-5.369.692-1.437,7.705a6.917,6.917,0,0,0,4.792.4v-2.7" transform="translate(-252.399 -255.597)" fill="#455a64"/>
              <path id="Path_54561" data-name="Path 54561" d="M255.413,260.9a1.718,1.718,0,1,1-1.881-1.522,1.718,1.718,0,0,1,1.881,1.522Z" transform="translate(-249.158 -248.384)" fill="#9a4a4d"/>
              <path id="Path_54562" data-name="Path 54562" d="M272.415,258.975a1.718,1.718,0,1,0,1.512-1.881A1.718,1.718,0,0,0,272.415,258.975Z" transform="translate(-256.771 -247.525)" fill="#9a4a4d"/>
              <path id="Path_54563" data-name="Path 54563" d="M247.679,274.2a1.079,1.079,0,0,0,.515-.1c-.439-.094-.589-.4-.463-.52s.339-.1.627-.05a.969.969,0,0,0,.415,0s-.169-.383-.113-.545a.22.22,0,0,1,.4-.069,1.161,1.161,0,0,0,.627.451.692.692,0,0,1,.389.27,14.029,14.029,0,0,0,6.4-1.505l.627,1.122a13.053,13.053,0,0,1-3.312,1.217,18.132,18.132,0,0,1-3.706.451h0a4.057,4.057,0,0,0-.9.232,3.052,3.052,0,0,1-1.06.213.232.232,0,0,1-.163-.426.9.9,0,0,0,.32-.2,1,1,0,0,1-.627-.069C247.4,274.558,247.422,274.207,247.679,274.2Z" transform="translate(-247.476 -253.137)" fill="#b16668"/>
              <path id="Path_54564" data-name="Path 54564" d="M279.3,270.539a1.255,1.255,0,0,1-.527,0c.415-.2.49-.52.344-.627s-.364,0-.627.087a.941.941,0,0,1-.408.094,1.093,1.093,0,0,0,0-.553.213.213,0,0,0-.4,0,1.166,1.166,0,0,1-.527.589.626.626,0,0,0-.314.351,14.024,14.024,0,0,1-6.579-.032l-.357,1.255a12.946,12.946,0,0,0,3.5.439,18.54,18.54,0,0,0,3.713-.389h0a3.67,3.67,0,0,1,.921,0,3.379,3.379,0,0,0,1.085-.032c.32-.1.245-.433.062-.458a.871.871,0,0,1-.357-.119,1.06,1.06,0,0,0,.584-.207.21.21,0,0,0-.118-.4Z" transform="translate(-255.839 -252.123)" fill="#b16668"/>
              <path id="Path_54565" data-name="Path 54565" d="M265.152,270.49l-1.743.2L260.9,271.7l1.292,4.647a7.319,7.319,0,0,0,5.369-.692v-4.78Z" transform="translate(-252.48 -252.525)" fill="#09877c"/>
              <path id="Path_54566" data-name="Path 54566" d="M264.31,269.131l.213,1.493c.225.683,1.807.451,1.881-.226l-.169-1.468Z" transform="translate(-253.752 -251.943)" fill="#9a4a4d"/>
              <ellipse id="Ellipse_13" data-name="Ellipse 13" cx="6.874" cy="7.231" rx="6.874" ry="7.231" transform="matrix(0.994, -0.113, 0.113, 0.994, 3.098, 3.872)" fill="#b16668"/>
              <path id="Path_54567" data-name="Path 54567" d="M259.167,259.027a.9.9,0,1,1-.99-.79.9.9,0,0,1,.99.79Z" transform="translate(-251.167 -247.955)" fill="#37474f"/>
              <path id="Path_54568" data-name="Path 54568" d="M257.753,261.61a1.154,1.154,0,1,1-1.231-.8,1.154,1.154,0,0,1,1.231.8Z" transform="translate(-250.468 -248.913)" fill="#f28f8f"/>
              <path id="Path_54569" data-name="Path 54569" d="M269.186,257.887a.891.891,0,1,0,.185-.659A.891.891,0,0,0,269.186,257.887Z" transform="translate(-255.568 -247.455)" fill="#37474f"/>
              <path id="Path_54570" data-name="Path 54570" d="M270.877,260.115a1.06,1.06,0,0,0,1.255.815.968.968,0,1,0-1.255-.815Z" transform="translate(-256.199 -248.26)" fill="#f28f8f"/>
              <path id="Path_54571" data-name="Path 54571" d="M263.655,264.672a2.508,2.508,0,0,1-2.258-1.255.281.281,0,1,1,.527-.195,2.183,2.183,0,0,0,3.75-.426.279.279,0,1,1,.553.075,2.547,2.547,0,0,1-2.238,1.775Z" transform="translate(-252.665 -249.568)" fill="#37474f"/>
              <path id="Path_54572" data-name="Path 54572" d="M259.673,248.319c1.2,4.288,7.4,4.253,7.4,4.253.169-4.629-3.017-8.084-7.953-7.526s-7.431,5.438-5.713,9.025C253.408,254.069,259.4,252.821,259.673,248.319Z" transform="translate(-249.486 -243.016)" fill="#37474f"/>
              <path id="Path_54573" data-name="Path 54573" d="M249.274,250.236a3.387,3.387,0,1,1,3.569-5.751c1.587.985.822,2.3-.163,3.882S250.862,251.244,249.274,250.236Z" transform="translate(-247.503 -242.612)" fill="#37474f"/>
              <path id="Path_54574" data-name="Path 54574" d="M274.441,247.55a3.387,3.387,0,0,0-4.77-4.8c-1.329,1.317-.289,2.421,1.029,3.763S273.117,248.849,274.441,247.55Z" transform="translate(-255.522 -241.853)" fill="#37474f"/>
            </g>
            <g id="freepik--Chest--inject-30" transform="translate(36.069 5.365)">
              <path id="Path_54575" data-name="Path 54575" d="M354.134,230.467a12.888,12.888,0,0,1,6,7.971c1.881,7.683,2.905,17.868,3.832,32.556-13.8,5.9-31.163,4.389-38.557-6.045a29.012,29.012,0,0,1,2.252-7.563c-.483-5.463-.909-8.692-1.123-14.08-.188-4.629-.477-10.48,5.72-12.681a28.29,28.29,0,0,1,14.5-1.255C351.782,229.972,354.134,230.467,354.134,230.467Z" transform="translate(-312.601 -190.145)" fill="#09877c"/>
              <path id="Path_54576" data-name="Path 54576" d="M318.113,180.382a10.78,10.78,0,0,0-2.233-.369,11.241,11.241,0,0,0-4.861,1.255c-1.136.49-2.628,1.542-3.458.74a2.383,2.383,0,0,1-.508-2.364A6.446,6.446,0,0,1,308.628,177a9.119,9.119,0,0,0-2.559.277c-1.255.232-1.223-1.493-.878-2.139a5.545,5.545,0,0,1,1.405-1.66,6.166,6.166,0,0,1,2.628-1.255,5.535,5.535,0,0,1-1.405-1.054,1.718,1.718,0,0,1-.32-1.807,2.094,2.094,0,0,1,1.3-1.186,4.842,4.842,0,0,1,1.8-.169,14.425,14.425,0,0,1,7.609,2.71,11.619,11.619,0,0,1,2.948,2.835,12.983,12.983,0,0,1,1.819,3.763,4.723,4.723,0,0,1,.126,1.963A2.9,2.9,0,0,1,322,181.043,2.508,2.508,0,0,1,320.3,181C319.574,180.8,318.847,180.57,318.113,180.382Z" transform="translate(-304.985 -167.405)" fill="#37474f"/>
              <path id="Path_54577" data-name="Path 54577" d="M324.571,170.61s-4.691-1.594-5.644-.415-.3,6.541,2.59,5.8a4.392,4.392,0,0,0,3.167-3.719s5.369,2.176,5.908-.777c.326-1.775-.389-4.27-2.057-4.441C326.541,166.853,324.571,170.61,324.571,170.61Z" transform="translate(-310.031 -167.052)" fill="#09877c"/>
              <path id="Path_54578" data-name="Path 54578" d="M344.378,204.143c2.866-3.663,6.9-6.34,8.26-12.543,1.5-6.986-1-13.17-5.149-14.043,0,0-.671-4.98-7.137-7.08a21.473,21.473,0,0,0-16.934,2.7,14.271,14.271,0,0,0-5.4,6.31,13.956,13.956,0,0,0-.289,9.307,9.352,9.352,0,0,0,4.288,4.672,21.105,21.105,0,0,0,6.1,2.05c1.311.27,2.628.5,3.945.772a10.033,10.033,0,0,1,2.025.5,7.16,7.16,0,0,1,1.2.948l6.9,5.406a4.754,4.754,0,0,0,2.186,1Z" transform="translate(-309.488 -168.055)" fill="#37474f"/>
              <path id="Path_54579" data-name="Path 54579" d="M344.862,199.375a.863.863,0,0,0,.176.119c.968.5.8-1.079,1.58-2.213a2.384,2.384,0,0,1,1.881-.968,3.017,3.017,0,0,1,2.992,1.468,4.442,4.442,0,0,1-2.082,6.015,3.6,3.6,0,0,1-3.933-.4l.339,11.778a19.987,19.987,0,0,1-7.35,5.356c-5.921,2.389-7.577-.991-5.236-3.725l-.357-3.33a15.16,15.16,0,0,1-4.716-.213,8.931,8.931,0,0,1-6.441-6.409c-.627-2.233-.138-4.315-.376-6.617-.138-1.367-.451-3.518-.5-4.389a9.528,9.528,0,0,1,.163-2.352c5.481-2,9.884.458,16.262-.52,0,0,.332-3.619,2-5.055a8.951,8.951,0,0,0,1.191,4.792,9.174,9.174,0,0,0,3.688,3.411,5.489,5.489,0,0,0,.3,2.565,1.768,1.768,0,0,0,.419.689Z" transform="translate(-310.887 -174.835)" fill="#ffa8a7"/>
              <path id="Path_54580" data-name="Path 54580" d="M350.688,209.183c0,1-1.107,1.775-2.421,1.743a2.146,2.146,0,0,1-2.327-1.881c.025-1.015,1.107-1.775,2.421-1.743A2.158,2.158,0,0,1,350.688,209.183Z" transform="translate(-320.254 -182.063)" fill="#f28f8f"/>
              <path id="Path_54581" data-name="Path 54581" d="M324.964,210.686c0,.991-1.107,1.775-2.421,1.743a1.88,1.88,0,1,1,2.421-1.743Z" transform="translate(-310.492 -182.631)" fill="#f28f8f"/>
              <path id="Path_54582" data-name="Path 54582" d="M342.67,198.518l3.411.985a1.881,1.881,0,0,0-1.255-2.252,1.731,1.731,0,0,0-2.158,1.267Z" transform="translate(-319.036 -178.29)" fill="#263238"/>
              <path id="Path_54583" data-name="Path 54583" d="M345.405,203.294a1.455,1.455,0,1,1-.52-.988,1.455,1.455,0,0,1,.52.988Z" transform="translate(-318.972 -180.074)" fill="#263238"/>
              <path id="Path_54584" data-name="Path 54584" d="M328.084,204.554a1.455,1.455,0,1,1-.52-.988,1.455,1.455,0,0,1,.52.988Z" transform="translate(-312.515 -180.544)" fill="#263238"/>
              <path id="Path_54585" data-name="Path 54585" d="M323.789,201.009l3.255-1.468a1.713,1.713,0,0,0-2.307-.934,1.881,1.881,0,0,0-.948,2.4Z" transform="translate(-311.947 -178.762)" fill="#263238"/>
              <path id="Path_54586" data-name="Path 54586" d="M334.28,204.63l.289,5.657-3.825-.665Z" transform="translate(-314.587 -181.066)" fill="#f28f8f"/>
              <path id="Path_54587" data-name="Path 54587" d="M340,224a15.207,15.207,0,0,0,8.41-3.458,9.13,9.13,0,0,0,2.785-4.389,12.62,12.62,0,0,1-1.5,5.049c-3.136,4.164-9.5,4.5-9.5,4.5Z" transform="translate(-318.041 -185.359)" fill="#f28f8f"/>
              <path id="Path_54588" data-name="Path 54588" d="M338.87,221.09Z" transform="translate(-317.62 -187.203)" fill="#b16668"/>
              <path id="Path_54589" data-name="Path 54589" d="M344.4,219.75Z" transform="translate(-319.681 -186.702)" fill="#b16668"/>
              <path id="Path_54590" data-name="Path 54590" d="M366.286,180.664a10.377,10.377,0,0,1,2.075.909,11.267,11.267,0,0,1,3.393,3.694c.683,1.028,1.367,2.728,2.508,2.508a2.389,2.389,0,0,0,1.713-1.706,6.314,6.314,0,0,0,.138-3.079,9.17,9.17,0,0,1,1.995,1.631c.934.884,1.837-.584,1.881-1.31a5.442,5.442,0,0,0-.27-2.158,6.2,6.2,0,0,0-1.5-2.508,5.258,5.258,0,0,0,1.75-.119,1.7,1.7,0,0,0,1.255-1.336,2.05,2.05,0,0,0-.445-1.706,4.655,4.655,0,0,0-1.411-1.123,14.425,14.425,0,0,0-7.859-1.881,11.376,11.376,0,0,0-4.012.765,12.915,12.915,0,0,0-3.6,2.183A4.829,4.829,0,0,0,362.724,177a2.892,2.892,0,0,0-.032,2.089,2.508,2.508,0,0,0,1.443.891C364.837,180.219,365.571,180.419,366.286,180.664Z" transform="translate(-326.428 -169.073)" fill="#37474f"/>
              <path id="Path_54591" data-name="Path 54591" d="M363.419,178.357s1.443,4.741,2.936,4.81,4.446-4.441,3.2-5.488c-2.283-1.919-5.557-.113-5.557-.113s-.332-4.948-2.213-5.018c-1.317-.069-4.389,3.211-3.569,4.666C359.216,178.953,363.419,178.357,363.419,178.357Z" transform="translate(-324.776 -169.105)" fill="#09877c"/>
              <path id="Path_54592" data-name="Path 54592" d="M337.568,216.281a7.125,7.125,0,0,1-1.937.277,1.035,1.035,0,0,0-.9.295c-.213.289-.126.627.138,1.06a3.211,3.211,0,0,0,3.436,1.01,2.747,2.747,0,0,0,2.2-2.79c0-.277-.082-.715-.433-.83s-.627.087-.935.257a4.887,4.887,0,0,1-1.567.721Z" transform="translate(-316.036 -185.029)" fill="#b16668"/>
              <path id="Path_54593" data-name="Path 54593" d="M338.71,219.415a2.3,2.3,0,0,0,.037.364,3.637,3.637,0,0,0,1.085-.126,2.8,2.8,0,0,0,2.144-2.144,2.12,2.12,0,0,0-1.067-.289,2.2,2.2,0,0,0-2.2,2.2Z" transform="translate(-317.561 -185.759)" fill="#f28f8f"/>
            </g>
            <path id="freepik--arm--inject-30-2" data-name="freepik--arm--inject-30" d="M390.713,205.023c4.158-3.651,5.758-5.939,6.6-10.662a90.108,90.108,0,0,0,1.361-22.22c-.277-4.253-1.7-8.624-3.193-10.5-3.582-4.515-9.884-3.914-8.454.208,1.141,3.274,2.183,5.644,1.367,6.272-.32.277-1.255-1.5-2.3-2.171-.627-.408-1.731-.383-1.926.339,1.022,1.342,1.085,3.218,2.872,5.607,1,1.329,2.277,2.352,2.332,3.32.113,5.908-2.866,16.934-2.866,16.934a124.622,124.622,0,0,1-12.756,9.822,22.622,22.622,0,0,1-6.109,1.919c-1.881,3.136-1.5,8.291.753,11.6,2.465,3.612,6.127,3.3,6.755,1.819C375.152,217.284,383.845,211.05,390.713,205.023Z" transform="translate(-291.832 -158.501)" fill="#ffa8a7"/>
          </g>
        </g>
      </g>
      <g id="freepik--character--inject-30-2" data-name="freepik--character--inject-30" transform="translate(0 5.8)">
        <g id="freepik--bottom--inject-30-2" data-name="freepik--bottom--inject-30" transform="translate(0.658 61.308)">
          <path id="Path_54594" data-name="Path 54594" d="M146.5,327.63a4.05,4.05,0,0,0-1.148,1.148c-.333.46-.3,2.754-.633,3.81s-.573,1.332-1.119,2.65a7.691,7.691,0,0,0-.609,6.6,11.476,11.476,0,0,0,4.476,6.657,4.137,4.137,0,0,0,2.5,1.044s2.106-.729,1.819-1.968S146.5,327.63,146.5,327.63Z" transform="translate(-115.077 -296.292)" fill="#263238"/>
          <path id="Path_54595" data-name="Path 54595" d="M156.7,330.307a4.51,4.51,0,0,1-.861,1.286,10.426,10.426,0,0,0-1.452,3.758c-1.392,5.968.913,9.089-2.381,11.252-.953.573-3.488-.184-6.312-4.016-1.458-1.975-2.209-5.973-1.572-7.758s1.475-2.933,1.9-4.3.287-3.959,1.085-5.13a5.7,5.7,0,0,1,1.916-1.561c.573-.333,1.853-.759,2.444-1.073s.924-.682,1.291-.253l-.723.775c-1.09,1.434-.8,1.653-.8,2.433a12.732,12.732,0,0,1-.459,2.462c.775-.929,1.1-1.721,1.916-1.578a5.3,5.3,0,0,1,2.652,1.79C156.481,329.511,156.762,329.963,156.7,330.307Z" transform="translate(-115.65 -294.022)" fill="#09877c"/>
          <path id="Path_54596" data-name="Path 54596" d="M156.7,330.307a4.51,4.51,0,0,1-.861,1.286,10.426,10.426,0,0,0-1.452,3.758c-1.392,5.968.913,9.089-2.381,11.252-.953.573-3.488-.184-6.312-4.016-1.458-1.975-2.209-5.973-1.572-7.758s1.475-2.933,1.9-4.3.287-3.959,1.085-5.13a5.7,5.7,0,0,1,1.916-1.561c.573-.333,1.853-.759,2.444-1.073s.924-.682,1.291-.253l-.723.775c-1.09,1.434-.8,1.653-.8,2.433a12.732,12.732,0,0,1-.459,2.462c.775-.929,1.1-1.721,1.916-1.578a5.3,5.3,0,0,1,2.652,1.79C156.481,329.511,156.762,329.963,156.7,330.307Z" transform="translate(-115.65 -294.022)" opacity="0.4"/>
          <path id="Path_54597" data-name="Path 54597" d="M145.663,350.559c-1.458-1.975-2.209-5.973-1.572-7.758a17.151,17.151,0,0,1,.74-1.721,2.08,2.08,0,0,1-.086.351c-.046.229-.08.464-.109.7a5.452,5.452,0,0,0,.224,2.732c.322.759,1.056,2.658,2.061,2.725.573.041,1.073-.506,1.309-1.148.1-.27.276-.992.276-.992a8.79,8.79,0,0,1,4.591,2.9,3.769,3.769,0,0,0-.086,1.286,3.191,3.191,0,0,0,.506,1.3,2.247,2.247,0,0,0,.367.3,3.924,3.924,0,0,1-1.871,3.375C151.04,355.168,148.532,354.421,145.663,350.559Z" transform="translate(-115.638 -302.024)" opacity="0.3"/>
          <path id="Path_54598" data-name="Path 54598" d="M160.948,344.012a19.847,19.847,0,0,0-.506,4.786c-.573,1.526-1.078,1.463-1.148.666s1.108-4.074,1.975-6.783C161.164,343.151,161.049,343.6,160.948,344.012Z" transform="translate(-122.216 -302.706)" fill="#37474f"/>
          <path id="Path_54599" data-name="Path 54599" d="M153.273,325.067a3.316,3.316,0,0,1,.648-2.181c.143-.063.281-.127.39-.184.643-.344.924-.682,1.291-.253l-.7.8c-1.09,1.434-.8,1.653-.8,2.433a12.73,12.73,0,0,1-.459,2.462,44.543,44.543,0,0,0-1.624,5.9c-.356,2.456.1,4.12-.253,4.252s-1.044-.166-1.119-2.152a20.411,20.411,0,0,1,1.544-6.822,10.632,10.632,0,0,0,1.08-4.257Z" transform="translate(-118.526 -293.998)" fill="#37474f"/>
          <path id="Path_54600" data-name="Path 54600" d="M151.578,348.693a.241.241,0,0,0,.127.075,8.034,8.034,0,0,1,4.471,2.944.253.253,0,0,0,.344.034.241.241,0,0,0,.04-.344,8.607,8.607,0,0,0-4.74-3.116.253.253,0,0,0-.3.184.241.241,0,0,0,.057.224Z" transform="translate(-118.896 -305.092)" fill="#ebebeb"/>
          <path id="Path_54601" data-name="Path 54601" d="M152.214,345.1a.212.212,0,0,0,.127.068,8.883,8.883,0,0,1,4.671,3.164.253.253,0,1,0,.39-.315,9.393,9.393,0,0,0-4.936-3.334.253.253,0,0,0-.247.419Z" transform="translate(-119.169 -303.556)" fill="#ebebeb"/>
          <path id="Path_54602" data-name="Path 54602" d="M152.251,341.131a.275.275,0,0,0,.127.075,9.788,9.788,0,0,1,5.164,3.488.281.281,0,0,0,.39.041.276.276,0,0,0,.041-.39,10.33,10.33,0,0,0-5.443-3.671.281.281,0,0,0-.344.195A.292.292,0,0,0,152.251,341.131Z" transform="translate(-119.185 -301.846)" fill="#ebebeb"/>
          <path id="Path_54603" data-name="Path 54603" d="M152.947,337.78a.253.253,0,0,0,.127.08,9.572,9.572,0,0,1,5.05,3.417.276.276,0,0,0,.38.041.27.27,0,0,0,.04-.38,10.133,10.133,0,0,0-5.336-3.6.276.276,0,0,0-.333.195.265.265,0,0,0,.072.246Z" transform="translate(-119.479 -300.422)" fill="#ebebeb"/>
          <path id="Path_54604" data-name="Path 54604" d="M154.234,334.562a.281.281,0,0,0,.127.08,9.606,9.606,0,0,1,5.055,3.443.271.271,0,1,0,.419-.344,10.1,10.1,0,0,0-5.336-3.6.27.27,0,0,0-.265.448Z" transform="translate(-120.026 -299.065)" fill="#ebebeb"/>
          <path id="Path_54605" data-name="Path 54605" d="M156.37,317.2l4.533-7.259,7.758,5.6-9.182,9.755s-5.962-.224-6.668-2.766S155.012,318.008,156.37,317.2Z" transform="translate(-119.404 -288.753)" fill="#ffbda7"/>
          <path id="Path_54606" data-name="Path 54606" d="M162.752,330.12l4.936,2.892,2.99,1.653-3.386,6.944-9.549-3.93Z" transform="translate(-121.552 -297.353)" fill="#ffbda7"/>
          <path id="Path_54607" data-name="Path 54607" d="M151.776,275.377s14.627-2.823,22.087-2.295c8.113.573,9.651,5.164,8.423,9.268-2.088,6.955-15.8,19.562-15.8,19.562s-5.876-1.251-7.6-5.3l1.556-2.714-7.517,2.387-1.148-1.392Z" transform="translate(-119.007 -273.016)" fill="#455a64"/>
          <path id="Path_54608" data-name="Path 54608" d="M166.9,292.7a66.057,66.057,0,0,0-4.177,7.9l2.369-.752c2.933-5.164,4.8-9.789,8.034-12.854a15.189,15.189,0,0,0-6.226,5.71Z" transform="translate(-123.674 -278.973)" fill="#37474f"/>
          <path id="Path_54609" data-name="Path 54609" d="M127.474,279.32,95.2,286.871s-1.519,10.328.935,16.708,9.135,8.034,12.217,8.034a37.371,37.371,0,0,0,9.268-1.864,24.269,24.269,0,0,0,5.1,3c2.564,1.021,10.84,4.539,10.84,4.539a10.6,10.6,0,0,0,3.128-8.464l-9.21-11.225Z" transform="translate(-94.7 -275.704)" fill="#455a64"/>
          <path id="Path_54610" data-name="Path 54610" d="M148.78,337.068a9.181,9.181,0,0,0,1.871-2.507,113.016,113.016,0,0,1-12.985-3.977c-5.5-2.33-7.2-4.792-7.2-4.792s-.04,1.635,2.376,3.741a24.266,24.266,0,0,0,5.1,3C140.529,333.547,148.78,337.068,148.78,337.068Z" transform="translate(-109.931 -295.507)" fill="#37474f"/>
          <path id="Path_54611" data-name="Path 54611" d="M111.6,314.153c-2.749.424-9.594-.322-12-5.538-2.353-5.107-1.645-12.24-1.148-17.485l-.886.206-2.421.573h0s-1.519,10.328.935,16.708,9.135,8.034,12.217,8.034a37.371,37.371,0,0,0,9.268-1.864l-1.458-2.261a12.049,12.049,0,0,1-4.51,1.624Z" transform="translate(-94.68 -280.737)" fill="#37474f"/>
          <path id="Path_54612" data-name="Path 54612" d="M137.414,308.055a16.7,16.7,0,0,0-1.148-1.392c-1.085-1.273-3.164-4.224-7.678-4.05s-13.2.958-13.2.958,9.1-2.169,12.222-2.691,5.073-.206,6.851,1.372,5.033,5.13,5.033,5.13Z" transform="translate(-103.503 -284.791)" fill="#37474f"/>
          <path id="Path_54613" data-name="Path 54613" d="M149.57,301.666a9.256,9.256,0,0,0,1.266-5.836,10.885,10.885,0,0,1,.654,7.787Z" transform="translate(-118.071 -282.74)" fill="#37474f"/>
          <path id="Path_54614" data-name="Path 54614" d="M197.156,342.56a9.789,9.789,0,0,1,4.722,2.8,4.207,4.207,0,0,1,.161,4.757c-.867,1.653-2.531,3.633-4.636,3.626a11.265,11.265,0,0,1-5.422-1.4Z" transform="translate(-136.144 -302.655)" fill="#263238"/>
          <path id="Path_54615" data-name="Path 54615" d="M170,342.671c0,.659,2.84,1.807,5.79,3.019,3.164,1.3,3.971,2.209,6.553,3.3,2.949,1.251,4.05,1.273,6.238.528s5.2-4.591,3.121-7.431c-1.692-2.295-3.753-2.869-6.886-3.483a57.2,57.2,0,0,1-7.3-1.9c-2.261-.734-4.177-2.181-4.591-1.618.327.138,2.725,1.44,2.295,1.853-.1.206-.43.161-1.013-.046a.987.987,0,0,0-.8,0,1.538,1.538,0,0,0-.534.723c-.315.682-.781,1.606-1.033,2.295-.149.413-.092.178-.229.573a4.545,4.545,0,0,0-.38,1.6c.041.247.229.321.43.43s.482.247.677.38c.075.052.218.235.184.333s-.465.109-.633.052-.453-.115-.659-.178S170.506,342.879,170,342.671Z" transform="translate(-126.777 -299.416)" fill="#09877c"/>
          <path id="Path_54616" data-name="Path 54616" d="M170,342.671c0,.659,2.84,1.807,5.79,3.019,3.164,1.3,3.971,2.209,6.553,3.3,2.949,1.251,4.05,1.273,6.238.528s5.2-4.591,3.121-7.431c-1.692-2.295-3.753-2.869-6.886-3.483a57.2,57.2,0,0,1-7.3-1.9c-2.261-.734-4.177-2.181-4.591-1.618.327.138,2.725,1.44,2.295,1.853-.1.206-.43.161-1.013-.046a.987.987,0,0,0-.8,0,1.538,1.538,0,0,0-.534.723c-.315.682-.781,1.606-1.033,2.295-.149.413-.092.178-.229.573a4.545,4.545,0,0,0-.38,1.6c.041.247.229.321.43.43s.482.247.677.38c.075.052.218.235.184.333s-.465.109-.633.052-.453-.115-.659-.178S170.506,342.879,170,342.671Z" transform="translate(-126.777 -299.416)" opacity="0.4"/>
          <path id="Path_54617" data-name="Path 54617" d="M189.71,351.329c.424.184,3.1,1.251,3.88.476s-1.32-1.968-1.32-1.968a10.237,10.237,0,0,1,2.22-5.5c.424.3,2.14.184,2.061-.82s-3.019-2.083-3.064-2.1c2.983.625,4.952,1.194,6.6,3.443,2.077,2.829-.929,6.691-3.121,7.431s-3.291.723-6.238-.528C190.45,351.623,189.975,351.462,189.71,351.329Z" transform="translate(-135.177 -302.17)" opacity="0.3"/>
          <path id="Path_54618" data-name="Path 54618" d="M184.119,352.558c1.108.3.413,1.332-1.194,1.1-2.416-.344-4.471-1.59-7.173-2.295-2.949-1.211-5.949-2.295-5.8-3.058.528.166,1.645.573,1.645.573.224.08.786.253.786.253a55.151,55.151,0,0,0,7.11,2.7C181.6,352.282,183.011,352.254,184.119,352.558Z" transform="translate(-126.756 -305.1)" fill="#37474f"/>
          <path id="Path_54619" data-name="Path 54619" d="M188.122,341.921a18.1,18.1,0,0,0-3.23-1.79c-2-.786-5.406-2.519-7.506-3.592a25.676,25.676,0,0,1-2.295-1.519c.315-.4,1.578-.115,2.869.573s2.077,1.148,3.345,1.721c2.473,1.3,5.257,2.123,6.674,2.926S189.152,342.438,188.122,341.921Z" transform="translate(-128.946 -299.366)" fill="#37474f"/>
          <path id="Path_54620" data-name="Path 54620" d="M196.083,346.433a.292.292,0,0,1-.052.092,9.99,9.99,0,0,0-2.025,5.443.287.287,0,0,1-.253.287.235.235,0,0,1-.235-.265,10.466,10.466,0,0,1,2.175-5.822.229.229,0,0,1,.351-.029.3.3,0,0,1,.052.292Z" transform="translate(-136.793 -304.151)" fill="#f0f0f0"/>
          <path id="Path_54621" data-name="Path 54621" d="M192.323,344.176a.37.37,0,0,1-.046.08,13.29,13.29,0,0,0-2.428,6.312.287.287,0,0,1-.265.276.241.241,0,0,1-.229-.276,13.7,13.7,0,0,1,2.559-6.645.229.229,0,0,1,.351-.046A.292.292,0,0,1,192.323,344.176Z" transform="translate(-135.026 -303.189)" fill="#f0f0f0"/>
          <path id="Path_54622" data-name="Path 54622" d="M186.549,349.744a.276.276,0,0,1-.218.184.229.229,0,0,1-.253-.24c-.08-3.495,2.416-7.408,2.514-7.529a.229.229,0,0,1,.351-.029.287.287,0,0,1,0,.38s-2.45,3.862-2.369,7.116a.253.253,0,0,1-.023.115Z" transform="translate(-133.629 -302.442)" fill="#f0f0f0"/>
          <path id="Path_54623" data-name="Path 54623" d="M183.324,348.2a.264.264,0,0,1-.213.184.235.235,0,0,1-.253-.241,11.636,11.636,0,0,1,2.668-7.184.229.229,0,0,1,.351,0,.3.3,0,0,1,0,.39,11.307,11.307,0,0,0-2.5,6.736.3.3,0,0,1-.051.115Z" transform="translate(-132.251 -301.939)" fill="#f0f0f0"/>
          <path id="Path_54624" data-name="Path 54624" d="M179.2,346.7a.265.265,0,0,1-.213.184.235.235,0,0,1-.265-.235c-.184-3.626,2.645-7.088,2.749-7.215a.229.229,0,0,1,.351,0,.292.292,0,0,1,0,.39c0,.029-2.766,3.4-2.594,6.765a.447.447,0,0,1-.029.109Z" transform="translate(-130.491 -301.291)" fill="#ebebeb"/>
        </g>
        <g id="freepik--top--inject-30-2" data-name="freepik--top--inject-30" transform="translate(0 0)">
          <g id="freepik--arm--inject-30-3" data-name="freepik--arm--inject-30" transform="translate(27.125 13)">
            <path id="Path_54625" data-name="Path 54625" d="M140.8,211.3l3.879,13.979s20.686,3.024,23.109,3.323,5.739.8,8.906-4.74,6.938-12.475,8.837-20.125a19.133,19.133,0,0,0-.1-10.328c-2.009-5.291-7.918-6.129-7.8-1.853.086,3.4-.1,6.312-.768,6.215-.487-.224-.643-1.377-1.486-2.186a1.567,1.567,0,0,0-1.452-.351c-.408.178-.476.38-.327.964a22.334,22.334,0,0,0,1.28,4.269c.695,1.475,1.721,2.611,1.509,3.535-1.658,5.549-8.389,12.911-8.389,12.911l-15.356-3.879S145.4,210.63,140.8,211.3Z" transform="translate(-140.8 -188.825)" fill="#ffbda7"/>
            <path id="Path_54626" data-name="Path 54626" d="M140.8,227.064a32.456,32.456,0,0,1,10.283,1.273l6.249,1.837s.918,7.721-2.066,13.2l-10.587-1.79Z" transform="translate(-140.8 -205.116)" fill="#09877c"/>
            <path id="Path_54627" data-name="Path 54627" d="M140.8,227.064a32.456,32.456,0,0,1,10.283,1.273l6.249,1.837s.918,7.721-2.066,13.2l-10.587-1.79Z" transform="translate(-140.8 -205.116)" opacity="0.3"/>
          </g>
          <g id="freepik--doll--inject-30-2" data-name="freepik--doll--inject-30" transform="translate(36.06 42.797)">
            <path id="Path_54628" data-name="Path 54628" d="M159.55,251.869c.809,3.592,2.869,12.665,2.869,12.665,5.164,1.44,9.493.62,12.79-2.869L172.34,249Z" transform="translate(-157.725 -244.272)" fill="#455a64"/>
            <path id="Path_54629" data-name="Path 54629" d="M162.452,257.858a1.572,1.572,0,1,1-.695-.985A1.572,1.572,0,0,1,162.452,257.858Z" transform="translate(-157.639 -247.525)" fill="#f28f8f"/>
            <path id="Path_54630" data-name="Path 54630" d="M179.432,254.023a1.572,1.572,0,1,0,.2-1.187,1.572,1.572,0,0,0-.2,1.187Z" transform="translate(-166.183 -245.594)" fill="#f28f8f"/>
            <rect id="Rectangle_7696" data-name="Rectangle 7696" width="1.991" height="7.288" transform="translate(10.405 25.854) rotate(-6.62)" fill="#ffa8a7"/>
            <rect id="Rectangle_7697" data-name="Rectangle 7697" width="1.991" height="2.605" transform="translate(11.248 33.09) rotate(-6.62)" fill="#263238"/>
            <path id="Path_54631" data-name="Path 54631" d="M175.768,299.912h0a1.606,1.606,0,0,1,1.778,1.406v.1l-3.185.367v-.1a1.6,1.6,0,0,1,1.406-1.773Z" transform="translate(-164.033 -265.964)" fill="#37474f"/>
            <rect id="Rectangle_7698" data-name="Rectangle 7698" width="1.991" height="0.401" transform="translate(11.194 32.7) rotate(-6.62)" fill="#fafafa"/>
            <rect id="Rectangle_7699" data-name="Rectangle 7699" width="1.991" height="7.288" transform="translate(17.301 31.697) rotate(162.072)" fill="#ffa8a7"/>
            <rect id="Rectangle_7700" data-name="Rectangle 7700" width="1.991" height="2.605" transform="translate(18.103 34.171) rotate(162.072)" fill="#263238"/>
            <path id="Path_54632" data-name="Path 54632" d="M185.515,297.652h0a1.6,1.6,0,0,0-1.033,2.014l.034.1,3.047-.987-.034-.092a1.595,1.595,0,0,0-2.014-1.033Z" transform="translate(-168.318 -264.973)" fill="#37474f"/>
            <rect id="Rectangle_7701" data-name="Rectangle 7701" width="1.991" height="0.401" transform="translate(17.298 31.69) rotate(162.072)" fill="#fafafa"/>
            <path id="Path_54633" data-name="Path 54633" d="M156.535,271.314a1.079,1.079,0,0,0,.464-.143c-.413-.041-.573-.3-.482-.424s.3-.127.573-.109a.9.9,0,0,0,.38-.041s-.195-.322-.154-.476a.195.195,0,0,1,.344-.109,1.149,1.149,0,0,0,.633.351.632.632,0,0,1,.38.206,12.766,12.766,0,0,0,5.669-2.009l.682.958a11.473,11.473,0,0,1-2.869,1.434,16.676,16.676,0,0,1-3.323.786h0a3.26,3.26,0,0,0-.792.3,2.969,2.969,0,0,1-.947.3c-.3,0-.338-.292-.19-.373a.864.864,0,0,0,.27-.213.943.943,0,0,1-.573,0C156.318,271.681,156.3,271.343,156.535,271.314Z" transform="translate(-156.37 -252.608)" fill="#ffa8a7"/>
            <path id="Path_54634" data-name="Path 54634" d="M186.8,264.513a1.112,1.112,0,0,1-.471.068c.351-.213.39-.523.247-.573a.633.633,0,0,0-.539.138.965.965,0,0,1-.362.127s.034-.38-.068-.506a.195.195,0,0,0-.356.057,1.067,1.067,0,0,1-.419.573.633.633,0,0,0-.253.351,12.873,12.873,0,0,1-5.984.633l-.2,1.148a11.665,11.665,0,0,0,3.225.057,17.031,17.031,0,0,0,3.34-.729h0a3.44,3.44,0,0,1,.843-.068,2.973,2.973,0,0,0,.981-.127c.281-.127.178-.419,0-.425a.759.759,0,0,1-.333-.075.952.952,0,0,0,.506-.241C187.152,264.736,187.03,264.439,186.8,264.513Z" transform="translate(-165.753 -250.529)" fill="#ffa8a7"/>
            <path id="Path_54635" data-name="Path 54635" d="M169.727,266.618l-2.186,1.148,1.635,4.1-4.057,5.25s1.864,4.258,8.923,2.342,5.848-6.553,5.848-6.553l-5.9-2.2-.459-4.349-2.237-.116Z" transform="translate(-160.099 -251.619)" fill="#09877c"/>
            <path id="Path_54636" data-name="Path 54636" d="M172.4,265.143l.338,1.337c.27.6,1.687.229,1.721-.4l-.3-1.314Z" transform="translate(-163.202 -250.993)" fill="#f28f8f"/>
            <ellipse id="Ellipse_14" data-name="Ellipse 14" cx="6.289" cy="6.616" rx="6.289" ry="6.616" transform="translate(1.092 2.774) rotate(-12.74)" fill="#ffa8a7"/>
            <path id="Path_54637" data-name="Path 54637" d="M166.075,255.694a.82.82,0,1,1-.362-.513A.82.82,0,0,1,166.075,255.694Z" transform="translate(-159.815 -246.852)" fill="#37474f"/>
            <path id="Path_54638" data-name="Path 54638" d="M164.925,258.381a1.056,1.056,0,1,1-1.2-.614A.969.969,0,0,1,164.925,258.381Z" transform="translate(-159.153 -247.99)" fill="#f28f8f"/>
            <path id="Path_54639" data-name="Path 54639" d="M176.055,253.436a.82.82,0,1,0,.107-.619.82.82,0,0,0-.107.619Z" transform="translate(-164.75 -245.736)" fill="#37474f"/>
            <path id="Path_54640" data-name="Path 54640" d="M177.995,255.439a1.056,1.056,0,1,0,.82-1.078.97.97,0,0,0-.82,1.078Z" transform="translate(-165.583 -246.545)" fill="#f28f8f"/>
            <path id="Path_54641" data-name="Path 54641" d="M170.767,260.462a2.175,2.175,0,0,1-1.888-.924.254.254,0,0,1,.453-.229,2,2,0,0,0,3.374-.759.235.235,0,0,1,.253-.247.253.253,0,0,1,.253.253,2.347,2.347,0,0,1-1.864,1.842A2.613,2.613,0,0,1,170.767,260.462Z" transform="translate(-161.69 -248.234)" fill="#37474f"/>
            <path id="Path_54642" data-name="Path 54642" d="M162.811,244.913c2.6,4.177,6.478,1.148,9.606,2.548a6.427,6.427,0,0,0-2.22-4.947c-2.553-2.33-6.972-1.251-7.988,1.062-2.65.471-4.016,3.517-2.077,6.611a4.152,4.152,0,0,0,2.68-5.274Z" transform="translate(-157.584 -240.955)" fill="#455a64"/>
          </g>
          <g id="freepik--chest--inject-30-2" data-name="freepik--chest--inject-30" transform="translate(0.822 0.273)">
            <path id="Path_54643" data-name="Path 54643" d="M102.144,228.96c-2.175,1.519-7.46,10.242-7.173,38.658,8.034,5.549,32.031-.24,34-9.318a24.616,24.616,0,0,0,.029-6.059c.442-5,.832-7.959,1.028-12.883.172-4.24.437-9.594-5.234-11.608a24.621,24.621,0,0,0-11.907-.654,68.983,68.983,0,0,0-10.742,1.864Z" transform="translate(-94.96 -192.219)" fill="#09877c"/>
            <path id="Path_54644" data-name="Path 54644" d="M111.1,198.79c-2.911-3.1-6.835-5.2-8.561-10.759-1.939-6.243-.178-12.09,3.529-13.2,0,0,.206-4.591,5.922-7.041a19.605,19.605,0,0,1,15.648,1.062,13.137,13.137,0,0,1,5.443,5.3,12.8,12.8,0,0,1,1.033,8.464,8.527,8.527,0,0,1-3.517,4.591,19.229,19.229,0,0,1-5.395,2.369c-1.148.356-2.358.671-3.529,1.033a9.316,9.316,0,0,0-1.807.614,6.4,6.4,0,0,0-1.013.964l-5.83,5.492a4.266,4.266,0,0,1-1.923,1.106Z" transform="translate(-97.85 -166.645)" fill="#37474f"/>
            <path id="Path_54645" data-name="Path 54645" d="M113.039,196.111a.529.529,0,0,1-.149.127c-.838.534-.815-.918-1.624-1.889a2.174,2.174,0,0,0-1.778-.723,2.766,2.766,0,0,0-2.611,1.583,4.062,4.062,0,0,0,2.4,5.3,3.277,3.277,0,0,0,3.544-.682l.666,10.759s.43,3.885,6.231,4.591,7.73-1.825,5.377-4.126l.046-3.064a13.772,13.772,0,0,0,4.281-.573,8.172,8.172,0,0,0,5.343-6.369c.4-2.088-.224-3.948-.2-6.059,0-1.257.115-3.242.092-4.057a8.522,8.522,0,0,0-.344-2.129c-7.178,1.606-15.028-.178-17.105-3.581a8.2,8.2,0,0,1-.683,4.464,8.367,8.367,0,0,1-3.082,3.443,5.063,5.063,0,0,1-.063,2.364,1.584,1.584,0,0,1-.338.62Z" transform="translate(-99.904 -174.564)" fill="#ffbda7"/>
            <path id="Path_54646" data-name="Path 54646" d="M125.981,206.658a1.959,1.959,0,0,0,2.433,1.228c1.182-.218,2-1.114,1.842-2.014a1.962,1.962,0,0,0-2.439-1.228C126.634,204.865,125.791,205.762,125.981,206.658Z" transform="translate(-108.169 -182.827)" fill="#f28f8f"/>
            <path id="Path_54647" data-name="Path 54647" d="M151.248,205.081c-.068.906.843,1.721,2.037,1.807a1.978,1.978,0,0,0,2.295-1.475c.068-.9-.843-1.721-2.037-1.814a1.968,1.968,0,0,0-2.295,1.481Z" transform="translate(-118.946 -182.398)" fill="#f28f8f"/>
            <path id="Path_54648" data-name="Path 54648" d="M132.713,195.269l-2.944,1.372a1.721,1.721,0,0,1,.815-2.209,1.583,1.583,0,0,1,2.129.838Z" transform="translate(-109.737 -178.428)" fill="#263238"/>
            <path id="Path_54649" data-name="Path 54649" d="M131.3,200.365a1.325,1.325,0,1,0,.327-.97,1.325,1.325,0,0,0-.327.97Z" transform="translate(-110.444 -180.414)" fill="#263238"/>
            <circle id="Ellipse_15" data-name="Ellipse 15" cx="1.332" cy="1.332" r="1.332" transform="translate(30.543 20.381) rotate(-78.22)" fill="#263238"/>
            <path id="Path_54650" data-name="Path 54650" d="M151.655,195.276,148.5,194.4a1.572,1.572,0,0,1,1.957-1.148A1.721,1.721,0,0,1,151.655,195.276Z" transform="translate(-117.778 -177.965)" fill="#263238"/>
            <path id="Path_54651" data-name="Path 54651" d="M142.35,200.06l.539,5.159,3.363-1.148Z" transform="translate(-115.157 -180.89)" fill="#f0997a"/>
            <path id="Path_54652" data-name="Path 54652" d="M130.907,220.233a21.467,21.467,0,0,1-7.948-2.462,7.959,7.959,0,0,1-2.869-3.782,10.157,10.157,0,0,0,1.721,3.924c3.2,3.544,9.067,3.873,9.067,3.873Z" transform="translate(-105.67 -186.826)" fill="#f0997a"/>
            <path id="Path_54653" data-name="Path 54653" d="M139.39,217.22Z" transform="translate(-113.896 -188.203)" fill="#b16668"/>
            <path id="Path_54654" data-name="Path 54654" d="M133.736,216.38h0C133.7,216.386,133.684,216.391,133.736,216.38Z" transform="translate(-111.472 -187.845)" fill="#b16668"/>
            <path id="Path_54655" data-name="Path 54655" d="M138.393,212.587a6.621,6.621,0,0,0,1.785,0,.935.935,0,0,1,.856.127c.235.229.206.573.034.976a2.926,2.926,0,0,1-2.956,1.423,2.531,2.531,0,0,1-2.392-2.2c0-.253-.029-.659.27-.82a.97.97,0,0,1,.878.1,4.516,4.516,0,0,0,1.527.4Z" transform="translate(-112.331 -185.991)" fill="#b16668"/>
            <path id="Path_54656" data-name="Path 54656" d="M139.182,215.466a1.725,1.725,0,0,1,0,.338,3.368,3.368,0,0,1-1,.046,2.566,2.566,0,0,1-2.249-1.624,1.928,1.928,0,0,1,.918-.419,2.009,2.009,0,0,1,2.33,1.658Z" transform="translate(-112.419 -186.736)" fill="#f28f8f"/>
          </g>
          <g id="freepik--arm--inject-30-4" data-name="freepik--arm--inject-30" transform="translate(0 37.014)">
            <path id="Path_54657" data-name="Path 54657" d="M101.787,231.74c-5.515,1.572-8.034,4.763-7.178,11.265s6.025,21.025,6.886,23.3,1.986,5.411,8.372,5.624,14.271.24,21.92-1.687c4.05-1.013,6.582-2.233,8.131-4.016,3.719-4.258,2.623-10.822-1.1-8.711-2.956,1.681-4.482,2.22-5.526,2.226,0,0,1.119-3.517.086-4.338s-2.2,1.837-3.719,3.879c-.976,1.309-1.486,2.766-2.4,3-5.676,1.148-15.338-1.325-15.338-1.325l-3.8-15.372S106.172,234.489,101.787,231.74Z" transform="translate(-93.919 -231.131)" fill="#ffbda7"/>
            <path id="Path_54658" data-name="Path 54658" d="M101.536,230.68c-4.057.8-6.886,3.18-7.816,6.478S95.6,251.905,95.6,251.905s9.026,0,13.164-3.93a88.872,88.872,0,0,0-3.1-12.05,9.807,9.807,0,0,0-4.125-5.245Z" transform="translate(-93.531 -230.68)" fill="#09877c"/>
            <path id="Path_54659" data-name="Path 54659" d="M101.536,230.68c-4.057.8-6.886,3.18-7.816,6.478S95.6,251.905,95.6,251.905s9.026,0,13.164-3.93a88.872,88.872,0,0,0-3.1-12.05,9.807,9.807,0,0,0-4.125-5.245Z" transform="translate(-93.531 -230.68)" opacity="0.3"/>
          </g>
          <g id="freepik--doll--inject-30-3" data-name="freepik--doll--inject-30" transform="translate(49.865)">
            <rect id="Rectangle_7702" data-name="Rectangle 7702" width="1.991" height="7.288" transform="matrix(0.926, -0.379, 0.379, 0.926, 15.267, 25.671)" fill="#9e6767"/>
            <rect id="Rectangle_7703" data-name="Rectangle 7703" width="1.991" height="2.605" transform="matrix(0.926, -0.379, 0.379, 0.926, 18.029, 32.416)" fill="#37474f"/>
            <path id="Path_54660" data-name="Path 54660" d="M212.332,223.762h0a1.6,1.6,0,0,1,2.088.878l.041.092-2.967,1.211-.034-.092a1.6,1.6,0,0,1,.872-2.09Z" transform="translate(-193.602 -190.667)" fill="#455a64"/>
            <rect id="Rectangle_7704" data-name="Rectangle 7704" width="1.991" height="0.401" transform="matrix(0.926, -0.379, 0.379, 0.926, 17.875, 32.039)" fill="#fafafa"/>
            <rect id="Rectangle_7705" data-name="Rectangle 7705" width="1.991" height="7.288" transform="translate(23.474 29.445) rotate(146.45)" fill="#9e6767"/>
            <rect id="Rectangle_7706" data-name="Rectangle 7706" width="1.991" height="2.605" transform="translate(24.915 31.617) rotate(146.45)" fill="#37474f"/>
            <path id="Path_54661" data-name="Path 54661" d="M221.109,218.958h0a1.595,1.595,0,0,0-.448,2.215l.052.086,2.674-1.772-.057-.086a1.595,1.595,0,0,0-2.22-.448Z" transform="translate(-197.46 -188.558)" fill="#455a64"/>
            <rect id="Rectangle_7707" data-name="Rectangle 7707" width="1.991" height="0.401" transform="translate(23.476 29.446) rotate(146.45)" fill="#fafafa"/>
            <path id="Path_54662" data-name="Path 54662" d="M206.383,198.073h0l-.034-.063-2.152,1.2-2.192,1.148.029.063h0l4.936,10.833a3.123,3.123,0,0,0,2.381-.878l-2.645-6.519,4.016,5.784c.351.046,1.9-.8,2.043-1.5Z" transform="translate(-189.62 -179.743)" fill="#455a64"/>
            <path id="Path_54663" data-name="Path 54663" d="M188.027,186.936a1.578,1.578,0,1,1-2.134-.633A1.578,1.578,0,0,1,188.027,186.936Z" transform="translate(-182.404 -174.672)" fill="#874c4c"/>
            <path id="Path_54664" data-name="Path 54664" d="M203.34,178.663a1.578,1.578,0,1,0,.633-2.134,1.578,1.578,0,0,0-.633,2.134Z" transform="translate(-190.113 -170.508)" fill="#874c4c"/>
            <path id="Path_54665" data-name="Path 54665" d="M186.214,200.274a1.072,1.072,0,0,0,.4-.265c-.408.068-.633-.138-.573-.281s.253-.206.5-.253a.867.867,0,0,0,.356-.138s-.276-.265-.281-.424.109-.287.31-.19a1.079,1.079,0,0,0,.7.161.643.643,0,0,1,.424.1,12.745,12.745,0,0,0,4.917-3.443l.918.74a11.958,11.958,0,0,1-2.4,2.152,16.527,16.527,0,0,1-3,1.653h0a3.249,3.249,0,0,0-.677.506,3.11,3.11,0,0,1-.832.539c-.292.092-.4-.195-.281-.31a.827.827,0,0,0,.2-.276.912.912,0,0,1-.539.149C186.1,200.67,186.013,200.394,186.214,200.274Z" transform="translate(-182.816 -178.691)" fill="#9e6767"/>
            <path id="Path_54666" data-name="Path 54666" d="M213.488,185.7a1.2,1.2,0,0,1-.442.195c.281-.3.235-.609.08-.633s-.315.1-.482.281a.886.886,0,0,1-.315.218s-.068-.373-.195-.465a.195.195,0,0,0-.333.154,1.067,1.067,0,0,1-.247.671.643.643,0,0,0-.149.408,12.837,12.837,0,0,1-5.595,2.22l.115,1.148a11.828,11.828,0,0,0,3.121-.82,17.066,17.066,0,0,0,3.024-1.6h0a3.443,3.443,0,0,1,.792-.287,3.081,3.081,0,0,0,.906-.4c.24-.195.063-.448-.1-.408a.747.747,0,0,1-.338,0,.935.935,0,0,0,.419-.367C213.884,185.831,213.683,185.569,213.488,185.7Z" transform="translate(-191.245 -174.3)" fill="#9e6767"/>
            <path id="Path_54667" data-name="Path 54667" d="M200.626,191.428l-1.411.759-1.785,1.721,2.675,3.506A6.673,6.673,0,0,0,204.431,195l-1.613-4.063Z" transform="translate(-187.674 -176.732)" fill="#fafafa"/>
            <path id="Path_54668" data-name="Path 54668" d="M199.37,191.282l.689,1.194c.424.506,1.687-.235,1.532-.838l-.648-1.187Z" transform="translate(-188.501 -176.522)" fill="#874c4c"/>
            <ellipse id="Ellipse_16" data-name="Ellipse 16" cx="6.289" cy="6.616" rx="6.289" ry="6.616" transform="translate(0 5.979) rotate(-28.38)" fill="#9e6767"/>
            <path id="Path_54669" data-name="Path 54669" d="M190.8,184.05a.815.815,0,1,1-.485-.4.815.815,0,0,1,.485.4Z" transform="translate(-184.195 -173.61)" fill="#37474f"/>
            <path id="Path_54670" data-name="Path 54670" d="M190.626,186.861a.958.958,0,0,1-.5,1.257.878.878,0,1,1,.5-1.257Z" transform="translate(-184.072 -174.798)" fill="#f28f8f"/>
            <path id="Path_54671" data-name="Path 54671" d="M199.807,179.183a.815.815,0,1,0-.065-.623.815.815,0,0,0,.065.623Z" transform="translate(-188.644 -171.205)" fill="#37474f"/>
            <path id="Path_54672" data-name="Path 54672" d="M202.263,180.538a1.056,1.056,0,1,0,.506-1.249,1.056,1.056,0,0,0-.506,1.249Z" transform="translate(-189.712 -171.711)" fill="#f28f8f"/>
            <path id="Path_54673" data-name="Path 54673" d="M195.932,186.818a1.946,1.946,0,0,1-1.366-.476.256.256,0,1,1,.362-.362,2,2,0,0,0,3.038-1.645.255.255,0,0,1,.494-.127,2.33,2.33,0,0,1-1.3,2.295,2.6,2.6,0,0,1-1.234.315Z" transform="translate(-186.422 -173.78)" fill="#37474f"/>
            <path id="Path_54674" data-name="Path 54674" d="M186.073,173.087a3.374,3.374,0,0,0,5.262-1.337,3.234,3.234,0,0,0,4.3,1.148c-1.532-4.115-5.164-5.922-9.3-3.633s-4.591,7.088-1.772,9.606a1.613,1.613,0,0,0,.573-2.593,2.328,2.328,0,0,0,.929-3.191Z" transform="translate(-181.435 -167.066)" fill="#37474f"/>
          </g>
        </g>
      </g>
    </g>
    <g id="Group_148" data-name="Group 148" transform="translate(1045.195 1222.01)">
      <rect id="Rectangle_7745" data-name="Rectangle 7745" width="40.704" height="28.843" transform="translate(0.07 44.985) rotate(-86.09)" fill="#fff"/>
      <path id="Path_55183" data-name="Path 55183" d="M361.98,152.712v-.2c0-.129.019-.323.032-.574.032-.51.081-1.255.139-2.22.129-1.936.323-4.77.545-8.349.478-7.152,1.152-17.292,1.936-29.276l.1.11-28.737-1.956h0l.119-.107c-1.049,15.217-2.017,29.289-2.8,40.61l-.084-.1,20.91,1.478,5.809.42,1.527.113.529.048-.513-.026-1.507-.094-5.787-.371-20.978-1.388h-.09v-.09c.768-11.322,1.72-25.393,2.753-40.61v-.113H336L364.765,112h.1v.1c-.842,12.006-1.556,22.169-2.059,29.334-.255,3.566-.455,6.387-.594,8.32-.071.968-.126,1.694-.165,2.2-.019.242-.032.429-.045.562S361.98,152.712,361.98,152.712Z" transform="translate(-333.13 -105.756)" fill="#e0e0e0"/>
      <rect id="Rectangle_7746" data-name="Rectangle 7746" width="2.85" height="7.065" transform="matrix(-0.884, -0.468, 0.468, -0.884, 6.512, 7.577)" fill="#e0e0e0"/>
      <rect id="Rectangle_7747" data-name="Rectangle 7747" width="2.85" height="7.065" transform="matrix(-0.884, -0.468, 0.468, -0.884, 28.523, 49.363)" fill="#e0e0e0"/>
      <path id="Path_55184" data-name="Path 55184" d="M359.624,163.822a40.863,40.863,0,0,1,.184-4.338,42.632,42.632,0,0,1,.407-4.325,41.977,41.977,0,0,1-.184,4.341A42.488,42.488,0,0,1,359.624,163.822Z" transform="translate(-351.059 -136.327)" fill="#e0e0e0"/>
      <path id="Path_55185" data-name="Path 55185" d="M361.47,145.866c.029.055-1.936,1.194-4.4,2.54s-4.483,2.4-4.518,2.343,1.936-1.191,4.4-2.54S361.437,145.811,361.47,145.866Z" transform="translate(-346.281 -130.031)" fill="#e0e0e0"/>
      <path id="Path_55186" data-name="Path 55186" d="M388.707,150.913c-.026.058-2.02-.836-4.454-2s-4.383-2.143-4.354-2.2,2.017.839,4.451,2S388.733,150.858,388.707,150.913Z" transform="translate(-364.805 -130.606)" fill="#e0e0e0"/>
      <path id="Path_55187" data-name="Path 55187" d="M399.817,166.956a5.438,5.438,0,0,1-.042-1.126c0-.7.052-1.659.142-2.714s.21-2.014.323-2.7a4.984,4.984,0,0,1,.232-1.1,6.5,6.5,0,0,1-.074,1.123c-.071.771-.158,1.688-.255,2.7s-.145,1.936-.2,2.7a6.13,6.13,0,0,1-.123,1.12Z" transform="translate(-378.258 -139.138)" fill="#e0e0e0"/>
      <path id="Path_55188" data-name="Path 55188" d="M370.545,180.977c0,.061-4.289-.181-9.569-.542s-9.559-.7-9.556-.765,4.289.181,9.572.542S370.552,180.916,370.545,180.977Z" transform="translate(-345.517 -152.92)" fill="#e0e0e0"/>
      <path id="Path_55189" data-name="Path 55189" d="M370.345,197.366a.9.9,0,0,1,.213-.074l.616-.177a10.045,10.045,0,0,0,2.175-.875,4.538,4.538,0,0,0,1.226-1.02,3.586,3.586,0,0,0,.784-1.614,2.508,2.508,0,0,0-.413-1.895,5.436,5.436,0,0,0-1.614-1.43,19.6,19.6,0,0,1-1.856-1.249,5.409,5.409,0,0,1-1.92-5.077,5.331,5.331,0,0,1,.91-2.195,4.16,4.16,0,0,1,.41-.5,1.1,1.1,0,0,1,.168-.152c.016.016-.2.236-.507.7a5.544,5.544,0,0,0-.823,2.172,5.3,5.3,0,0,0,1.9,4.88,19.4,19.4,0,0,0,1.84,1.23,5.625,5.625,0,0,1,1.688,1.5,2.7,2.7,0,0,1,.432,2.053,3.747,3.747,0,0,1-.842,1.711,4.573,4.573,0,0,1-1.291,1.036,8.961,8.961,0,0,1-2.233.823c-.271.065-.484.11-.646.139A.778.778,0,0,1,370.345,197.366Z" transform="translate(-357.752 -153.902)" fill="#e0e0e0"/>
      <path id="Path_55190" data-name="Path 55190" d="M389.046,199.66s.181-.229.478-.645a7.613,7.613,0,0,0,.984-1.936,4.941,4.941,0,0,0,.061-3.153,6.1,6.1,0,0,0-2.55-2.9,23.81,23.81,0,0,1-3.279-2.327,5.488,5.488,0,0,1-1.084-1.4,3.665,3.665,0,0,1-.4-1.5,2.976,2.976,0,0,1,.645-2.1,1.687,1.687,0,0,1,.646-.487,3.848,3.848,0,0,0-.587.542,2.962,2.962,0,0,0-.549,2.04,3.551,3.551,0,0,0,.407,1.42,5.216,5.216,0,0,0,1.062,1.339,26.5,26.5,0,0,0,3.26,2.295,6.319,6.319,0,0,1,2.621,3.031,5.028,5.028,0,0,1-.107,3.273,7.191,7.191,0,0,1-1.065,1.936,5.649,5.649,0,0,1-.394.455C389.107,199.614,389.053,199.666,389.046,199.66Z" transform="translate(-367.074 -155.318)" fill="#e0e0e0"/>
      <path id="Path_55191" data-name="Path 55191" d="M413.383,170.31a9.2,9.2,0,0,1-.026,2.033,9.092,9.092,0,0,1-.252,2.017,9.105,9.105,0,0,1,.029-2.033A9.458,9.458,0,0,1,413.383,170.31Z" transform="translate(-387.267 -146.588)" fill="#e0e0e0"/>
      <path id="Path_55192" data-name="Path 55192" d="M398.41,148.716a.565.565,0,0,1,.1-.1.875.875,0,0,1,.374-.155,1.165,1.165,0,0,1,.645.077,1.02,1.02,0,0,1,.6.645h-.132a2.007,2.007,0,0,1,.794-.968,2.156,2.156,0,0,1,1.443-.339,2.122,2.122,0,0,1,1.63,2.75l-.177-.119a1.068,1.068,0,0,1,.736-.255,1.513,1.513,0,0,1,.746.252,1.543,1.543,0,0,1,.552.626,1.836,1.836,0,0,1,.152.791,3.272,3.272,0,0,1-.41,1.446,2.582,2.582,0,0,1-.887,1.084.968.968,0,0,1-1.255-.158l.161-.071a1.336,1.336,0,0,1-.846,1.388,1.178,1.178,0,0,1-1.226-.255,1.256,1.256,0,0,1-.4-.7.858.858,0,0,1,0-.213v-.071a1.046,1.046,0,0,0,.052.271,1.249,1.249,0,0,0,.416.645,1.071,1.071,0,0,0,1.1.2,1.181,1.181,0,0,0,.72-1.223l-.048-.349.213.281a.8.8,0,0,0,1.01.1,2.447,2.447,0,0,0,.8-1.013,3.131,3.131,0,0,0,.381-1.349,1.646,1.646,0,0,0-.139-.694,1.291,1.291,0,0,0-.468-.533,1.266,1.266,0,0,0-.645-.213.827.827,0,0,0-.578.194l-.323.281.139-.4a1.917,1.917,0,0,0-.207-1.633,1.752,1.752,0,0,0-1.239-.849,1.978,1.978,0,0,0-1.326.287,1.875,1.875,0,0,0-.755.862l-.081.194-.052-.2a.9.9,0,0,0-.507-.584,1.13,1.13,0,0,0-.594-.107,1.2,1.2,0,0,0-.462.187Z" transform="translate(-377.342 -131.385)" fill="#e0e0e0"/>
      <path id="Path_55193" data-name="Path 55193" d="M387.863,141.58a3.831,3.831,0,0,1,.023,1.291,4,4,0,0,1-.2,1.291,3.734,3.734,0,0,1-.023-1.291A4.084,4.084,0,0,1,387.863,141.58Z" transform="translate(-370.041 -127.13)" fill="#e0e0e0"/>
      <path id="Path_55194" data-name="Path 55194" d="M390.832,141.949c0,.065-.323.09-.739.065s-.726-.1-.723-.165.323-.087.739-.061S390.835,141.888,390.832,141.949Z" transform="translate(-371.219 -127.264)" fill="#e0e0e0"/>
      <path id="Path_55195" data-name="Path 55195" d="M393.372,146.051a7.81,7.81,0,0,1,.016-1.862,7.941,7.941,0,0,1,.239-1.849,8.3,8.3,0,0,1,0,1.862A6.479,6.479,0,0,1,393.372,146.051Z" transform="translate(-373.901 -127.645)" fill="#e0e0e0"/>
      <path id="Path_55196" data-name="Path 55196" d="M390.387,127.068a.562.562,0,0,1,.1-.158,1.133,1.133,0,0,1,.426-.323,1.872,1.872,0,0,1,.846-.142,3.227,3.227,0,0,1,1.11.3,8.547,8.547,0,0,0,1.291.5,3.04,3.04,0,0,0,1.556-.035,3.082,3.082,0,0,0,1.475-.93,1.64,1.64,0,0,0,.423-.8.646.646,0,0,0-.378-.7l-.323-.087.323-.116a2.343,2.343,0,0,0,1.255-1.149,1.988,1.988,0,0,0,.039-1.762,1.943,1.943,0,0,0-2.127-1.126,1.859,1.859,0,0,0-1.43,1.723v.323l-.19-.255a.9.9,0,0,0-.91-.294,1.21,1.21,0,0,0-.8.526,2.456,2.456,0,0,0-.226,1.778l.023.119-.116-.026a2.414,2.414,0,0,0-1.53.2,2.688,2.688,0,0,0-.939.726,3.091,3.091,0,0,0-.491.9,1.165,1.165,0,0,1,.055-.265,2.449,2.449,0,0,1,.365-.691,2.733,2.733,0,0,1,.968-.784,2.517,2.517,0,0,1,1.614-.239l-.094.094a2.582,2.582,0,0,1,.226-1.911,1.4,1.4,0,0,1,.917-.62,1.1,1.1,0,0,1,1.113.361l-.184.065a2.062,2.062,0,0,1,1.585-1.936,1.917,1.917,0,0,1,1.388.194,2.369,2.369,0,0,1,.994,1.049,2.211,2.211,0,0,1-.042,1.959,2.563,2.563,0,0,1-1.381,1.252v-.207a.833.833,0,0,1,.526.936,1.843,1.843,0,0,1-.478.9,3.227,3.227,0,0,1-1.575.968,3.179,3.179,0,0,1-1.649.016,8.654,8.654,0,0,1-1.291-.536,3.176,3.176,0,0,0-1.062-.323,1.808,1.808,0,0,0-.81.1A1.42,1.42,0,0,0,390.387,127.068Z" transform="translate(-371.504 -112.708)" fill="#e0e0e0"/>
      <path id="Path_55197" data-name="Path 55197" d="M374.488,172.914a4.339,4.339,0,0,1,0-1.414,5.212,5.212,0,0,1,.21-1.4,4.626,4.626,0,0,1,.016,1.417A4.133,4.133,0,0,1,374.488,172.914Z" transform="translate(-361.108 -146.445)" fill="#e0e0e0"/>
      <path id="Path_55198" data-name="Path 55198" d="M378.685,169.568a7.119,7.119,0,0,1-1.749,0,6.5,6.5,0,0,1-1.736-.232,7.162,7.162,0,0,1,1.753,0A6.963,6.963,0,0,1,378.685,169.568Z" transform="translate(-361.622 -145.898)" fill="#e0e0e0"/>
      <path id="Path_55199" data-name="Path 55199" d="M384.9,173.372a7.4,7.4,0,0,1,0-1.807,6.865,6.865,0,0,1,.236-1.794,7.639,7.639,0,0,1,0,1.811A7.538,7.538,0,0,1,384.9,173.372Z" transform="translate(-368.163 -146.222)" fill="#e0e0e0"/>
      <path id="Path_55200" data-name="Path 55200" d="M389.6,158.889a.355.355,0,0,1,.194.087.89.89,0,0,1,.323.5,1.013,1.013,0,0,1-.181.862.964.964,0,1,1-1.323-1.381.89.89,0,0,1,.549-.207c.142,0,.21.042.207.055a1.159,1.159,0,0,0-.645.271.878.878,0,0,0-.284.662.749.749,0,0,0,.532.645.758.758,0,0,0,.813-.171.881.881,0,0,0,.184-.7A1.191,1.191,0,0,0,389.6,158.889Z" transform="translate(-370.44 -138.759)" fill="#e0e0e0"/>
      <path id="Path_55201" data-name="Path 55201" d="M366.9,158.871a1.016,1.016,0,0,0-.1.545.671.671,0,0,0,.3.462.613.613,0,0,0,.855-.645.645.645,0,0,0-.368-.407,1.014,1.014,0,0,0-.552-.045.287.287,0,0,1,.135-.1.723.723,0,0,1,.471,0,.777.777,0,1,1-1,.768.7.7,0,0,1,.123-.455C366.836,158.887,366.9,158.861,366.9,158.871Z" transform="translate(-355.827 -138.682)" fill="#e0e0e0"/>
      <path id="Path_55202" data-name="Path 55202" d="M358.985,127.627a.552.552,0,0,0,.119-.019,1.266,1.266,0,0,1,.323.029,1.888,1.888,0,0,1,1.055.645,1.936,1.936,0,0,1,.413.768,1.724,1.724,0,0,1-.039,1.01,2.03,2.03,0,0,1-1.8,1.291,1.63,1.63,0,0,1-1.13-.4,2,2,0,0,1-.6-.936,1.917,1.917,0,0,1-.032-1.007,1.614,1.614,0,0,1,.442-.758,1.82,1.82,0,0,1,1.123-.516.926.926,0,0,1,.452.048c0,.023-.161,0-.439.039a1.83,1.83,0,0,0-1.023.542,1.565,1.565,0,0,0-.323,1.591,1.614,1.614,0,0,0,1.527,1.175,1.84,1.84,0,0,0,1.614-1.133,1.646,1.646,0,0,0-.3-1.614,1.894,1.894,0,0,0-.968-.645C359.15,127.644,358.985,127.65,358.985,127.627Z" transform="translate(-349.458 -117.667)" fill="#e0e0e0"/>
      <path id="Path_55203" data-name="Path 55203" d="M361.449,142.751c-.065,0-.113-.355-.11-.791s.055-.791.119-.791.11.355.106.791S361.511,142.751,361.449,142.751Z" transform="translate(-352.235 -126.852)" fill="#e0e0e0"/>
      <path id="Path_55204" data-name="Path 55204" d="M353.735,137.973c.039.052-.171.278-.468.507s-.568.374-.607.323.174-.274.468-.507S353.7,137.915,353.735,137.973Z" transform="translate(-346.354 -124.679)" fill="#e0e0e0"/>
      <path id="Path_55205" data-name="Path 55205" d="M352.04,131.946c.026.052-.323.245-.778.278s-.829-.1-.813-.161a3.269,3.269,0,0,1,.8-.065C351.675,131.962,352.017,131.878,352.04,131.946Z" transform="translate(-344.859 -120.588)" fill="#e0e0e0"/>
      <path id="Path_55206" data-name="Path 55206" d="M356.388,124.537c-.016.058-.452-.058-.8-.462s-.413-.849-.355-.855.207.352.523.707S356.414,124.475,356.388,124.537Z" transform="translate(-348.084 -114.695)" fill="#e0e0e0"/>
      <path id="Path_55207" data-name="Path 55207" d="M363.193,121c.065,0,.113.355.113.791s-.052.794-.116.794-.11-.355-.11-.794S363.132,121,363.193,121Z" transform="translate(-353.414 -113.192)" fill="#e0e0e0"/>
      <path id="Path_55208" data-name="Path 55208" d="M369.769,127.472c.042.048-.142.274-.407.507s-.513.381-.555.323.142-.271.407-.5S369.727,127.427,369.769,127.472Z" transform="translate(-357.289 -117.57)" fill="#e0e0e0"/>
      <path id="Path_55209" data-name="Path 55209" d="M372.837,133.306a3.712,3.712,0,0,1-1.817.1,1.942,1.942,0,0,1,.9-.165C372.427,133.216,372.834,133.242,372.837,133.306Z" transform="translate(-358.791 -121.477)" fill="#e0e0e0"/>
      <path id="Path_55210" data-name="Path 55210" d="M369.546,139.32c-.042.045-.29-.11-.555-.345s-.445-.465-.4-.513.287.11.552.345S369.588,139.275,369.546,139.32Z" transform="translate(-357.14 -125.012)" fill="#e0e0e0"/>
    </g>
  </g>
</svg>
