<svg xmlns="http://www.w3.org/2000/svg" width="140.162" height="128.838" viewBox="0 0 140.162 128.838">
  <g id="Group_5" data-name="Group 5" transform="translate(-1077 -608)">
    <g id="Obsessive_compulsive_disorder-pana" data-name="Obsessive compulsive disorder-pana" transform="translate(1077 608)">
      <g id="freepik--background-complete--inject-133" transform="translate(11.557 0)">
        <path id="Path_1" data-name="Path 1" d="M110.389,314.626l3.409.723-3.409,1a1.219,1.219,0,0,0-.855.924l-.852,4.085-.943-4.006a1.225,1.225,0,0,0-.921-.914l-3.409-.776,3.5-.987a1.222,1.222,0,0,0,.87-.943l.782-3.928.883,3.9A1.219,1.219,0,0,0,110.389,314.626Z" transform="translate(-90.954 -228.145)" fill="#e0e0e0"/>
        <path id="Path_2" data-name="Path 2" d="M67.424,412.806l1.788.377-1.791.525a.628.628,0,0,0-.437.484l-.449,2.143-.493-2.105a.628.628,0,0,0-.484-.478l-1.788-.408,1.838-.518a.644.644,0,0,0,.459-.493l.408-2.061.462,2.049a.644.644,0,0,0,.487.487Z" transform="translate(-63.77 -297.046)" fill="#e0e0e0"/>
        <path id="Path_3" data-name="Path 3" d="M150.987,311.051l1.037.22-1.037.314a.365.365,0,0,0-.261.28l-.261,1.257-.286-1.222a.374.374,0,0,0-.283-.276l-1.037-.236,1.068-.314a.377.377,0,0,0,.264-.286l.239-1.2.267,1.188A.38.38,0,0,0,150.987,311.051Z" transform="translate(-122.123 -228.001)" fill="#e0e0e0"/>
        <path id="Path_4" data-name="Path 4" d="M167.3,377.907l1.04.217-1.04.314a.374.374,0,0,0-.261.283l-.258,1.241-.286-1.219a.383.383,0,0,0-.283-.28l-1.037-.236,1.068-.314a.371.371,0,0,0,.264-.286l.239-1.2.267,1.188a.374.374,0,0,0,.286.289Z" transform="translate(-133.315 -273.839)" fill="#e0e0e0"/>
        <path id="Path_5" data-name="Path 5" d="M87.567,400.533l.855.179-.855.251a.314.314,0,0,0-.214.229l-.22,1.024-.236-1.006a.314.314,0,0,0-.229-.229l-.848-.185.877-.248a.314.314,0,0,0,.22-.236l.195-.983.22.977A.314.314,0,0,0,87.567,400.533Z" transform="translate(-78.892 -289.543)" fill="#e0e0e0"/>
        <path id="Path_6" data-name="Path 6" d="M268.357,431.41l.855.179-.855.248a.314.314,0,0,0-.214.233l-.214,1.021-.236-1a.314.314,0,0,0-.229-.229l-.855-.195.877-.245a.314.314,0,0,0,.217-.236l.2-.983.22.977A.314.314,0,0,0,268.357,431.41Z" transform="translate(-202.875 -310.713)" fill="#e0e0e0"/>
        <path id="Path_7" data-name="Path 7" d="M196.037,242.82l.855.182-.855.248a.314.314,0,0,0-.214.233l-.214,1.021-.236-1a.314.314,0,0,0-.229-.229l-.855-.195.877-.248a.314.314,0,0,0,.22-.236l.195-.983.22.977A.314.314,0,0,0,196.037,242.82Z" transform="translate(-153.279 -181.381)" fill="#e0e0e0"/>
        <path id="Path_8" data-name="Path 8" d="M447.907,331.83l.855.182-.855.248a.314.314,0,0,0-.214.233l-.214,1.021-.236-1a.314.314,0,0,0-.233-.229l-.852-.195.877-.248a.3.3,0,0,0,.217-.233l.2-.987.22.977A.314.314,0,0,0,447.907,331.83Z" transform="translate(-326.007 -242.423)" fill="#e0e0e0"/>
        <path id="Path_9" data-name="Path 9" d="M402.847,253.67l.855.179-.855.251a.314.314,0,0,0-.214.229l-.214,1.024-.236-1.005a.314.314,0,0,0-.233-.229l-.852-.192.877-.248a.314.314,0,0,0,.217-.236l.2-.983.22.977A.314.314,0,0,0,402.847,253.67Z" transform="translate(-295.106 -188.822)" fill="#e0e0e0"/>
        <path id="Path_10" data-name="Path 10" d="M309.18,103.47l.852.182-.852.248a.314.314,0,0,0-.214.233l-.214,1.021-.236-1a.314.314,0,0,0-.233-.229l-.855-.195.88-.248a.314.314,0,0,0,.217-.236l.195-.983.223.977A.314.314,0,0,0,309.18,103.47Z" transform="translate(-230.868 -85.817)" fill="#e0e0e0"/>
        <path id="Path_11" data-name="Path 11" d="M192.191,387.2l1.728.368-1.728.5a.628.628,0,0,0-.434.471l-.434,2.068-.478-2.03a.628.628,0,0,0-.465-.465l-1.731-.393,1.778-.5a.628.628,0,0,0,.443-.474l.4-1.992.446,1.98A.628.628,0,0,0,192.191,387.2Z" transform="translate(-149.411 -279.544)" fill="#e0e0e0"/>
        <path id="Path_12" data-name="Path 12" d="M203.828,267.411l1.728.365-1.728.506a.628.628,0,0,0-.434.468l-.43,2.071-.478-2.033a.628.628,0,0,0-.468-.462l-1.728-.393,1.778-.5a.628.628,0,0,0,.44-.478l.4-1.992.446,1.98A.628.628,0,0,0,203.828,267.411Z" transform="translate(-157.393 -197.394)" fill="#e0e0e0"/>
        <path id="Path_13" data-name="Path 13" d="M280.564,67.5l1.728.364-1.728.506a.628.628,0,0,0-.437.471l-.43,2.068-.49-2.033a.628.628,0,0,0-.468-.462l-1.728-.393,1.778-.5a.628.628,0,0,0,.44-.474l.4-1.992.449,1.976a.628.628,0,0,0,.49.471Z" transform="translate(-210.007 -60.299)" fill="#e0e0e0"/>
        <path id="Path_14" data-name="Path 14" d="M432.493,199.271l2.969.628-2.969.867a1.068,1.068,0,0,0-.748.808l-.751,3.554-.811-3.482a1.071,1.071,0,0,0-.8-.795l-2.969-.676,3.054-.861a1.072,1.072,0,0,0,.757-.82l.682-3.425.77,3.4a1.068,1.068,0,0,0,.82.8Z" transform="translate(-312.463 -149.465)" fill="#e0e0e0"/>
        <rect id="Rectangle_1" data-name="Rectangle 1" width="27.799" height="28.98" transform="translate(2.394 0.009)" fill="#e0e0e0"/>
        <rect id="Rectangle_2" data-name="Rectangle 2" width="27.799" height="28.98" transform="translate(0.509 0.009)" fill="#fafafa"/>
        <path id="Path_15" data-name="Path 15" d="M93.184,78.926H65.37v-29H93.184Zm-27.8-.016H93.169V49.952H65.386Z" transform="translate(-64.867 -49.93)" fill="#e0e0e0"/>
        <rect id="Rectangle_3" data-name="Rectangle 3" width="20.327" height="21.188" transform="translate(4.248 3.906)" fill="#fafafa"/>
        <path id="Path_16" data-name="Path 16" d="M69.191,130.24a3.485,3.485,0,0,1-.5.581c-.314.342-.779.808-1.291,1.31s-.98.943-1.329,1.273a3.064,3.064,0,0,1-.588.487,3.654,3.654,0,0,1,.5-.584c.314-.342.782-.8,1.295-1.31s.983-.943,1.332-1.273A3.073,3.073,0,0,1,69.191,130.24Z" transform="translate(-64.943 -105.005)" fill="#e0e0e0"/>
        <path id="Path_17" data-name="Path 17" d="M142,130.07a3.244,3.244,0,0,1,.584.5c.342.314.808.779,1.31,1.291s.943.98,1.257,1.326a3.258,3.258,0,0,1,.49.588,3.073,3.073,0,0,1-.581-.5c-.342-.314-.808-.782-1.31-1.295s-.943-.987-1.276-1.332A3.236,3.236,0,0,1,142,130.07Z" transform="translate(-117.419 -104.889)" fill="#e0e0e0"/>
        <path id="Path_18" data-name="Path 18" d="M141.8,54.592a3.292,3.292,0,0,1,.5-.584c.314-.342.782-.8,1.295-1.31s.98-.943,1.326-1.257a3.019,3.019,0,0,1,.588-.49,3.029,3.029,0,0,1-.5.569c-.314.342-.782.808-1.295,1.313s-.984.943-1.329,1.273a3.237,3.237,0,0,1-.581.487Z" transform="translate(-117.282 -50.63)" fill="#e0e0e0"/>
        <path id="Path_19" data-name="Path 19" d="M69.169,54.608a3.293,3.293,0,0,1-.584-.5c-.342-.314-.8-.782-1.307-1.295s-.943-.98-1.257-1.326a3.488,3.488,0,0,1-.49-.588,3.029,3.029,0,0,1,.581.5c.342.314.808.782,1.313,1.295s.943.983,1.257,1.329A3.237,3.237,0,0,1,69.169,54.608Z" transform="translate(-64.977 -50.595)" fill="#e0e0e0"/>
        <path id="Path_20" data-name="Path 20" d="M97.361,83.328a.754.754,0,0,1,0-.1V81.785c0-1.005,0-2.463-.022-4.317,0-3.711-.022-9-.038-15.327l.079.079H77.11l.088-.088V83.319l-.075-.079,14.677.041,4.123.019h.031l-4.107.022-14.756.072H77V62.04H97.44v.079c-.019,6.35-.031,11.654-.041,15.378,0,1.844,0,3.3-.022,4.3v1.417A.4.4,0,0,1,97.361,83.328Z" transform="translate(-72.843 -58.235)" fill="#e0e0e0"/>
        <rect id="Rectangle_4" data-name="Rectangle 4" width="6.781" height="6.781" transform="translate(11.02 11.108)" fill="#ebebeb"/>
        <rect id="Rectangle_5" data-name="Rectangle 5" width="27.799" height="28.98" transform="translate(2.369 36.204)" fill="#e0e0e0"/>
        <rect id="Rectangle_6" data-name="Rectangle 6" width="27.799" height="28.98" transform="translate(0.484 36.204)" fill="#fafafa"/>
        <path id="Path_21" data-name="Path 21" d="M93.107,194.126H65.29v-29H93.107Zm-27.8-.019H93.089V165.146H65.306Z" transform="translate(-64.812 -128.932)" fill="#e0e0e0"/>
        <rect id="Rectangle_7" data-name="Rectangle 7" width="20.327" height="21.188" transform="translate(4.223 40.1)" fill="#fafafa"/>
        <path id="Path_22" data-name="Path 22" d="M69.111,245.43a3.415,3.415,0,0,1-.5.584c-.314.342-.779.8-1.291,1.31s-.98.943-1.329,1.257a3.346,3.346,0,0,1-.588.49,3.354,3.354,0,0,1,.5-.569c.314-.342.782-.808,1.295-1.313s.983-.943,1.332-1.273A3.236,3.236,0,0,1,69.111,245.43Z" transform="translate(-64.888 -184.001)" fill="#e0e0e0"/>
        <path id="Path_23" data-name="Path 23" d="M141.89,245.27a3.142,3.142,0,0,1,.584.5c.342.314.808.782,1.31,1.291s.943.984,1.257,1.329a3.02,3.02,0,0,1,.49.588,3.311,3.311,0,0,1-.581-.5c-.342-.314-.808-.782-1.31-1.295s-.943-.983-1.276-1.329A3.371,3.371,0,0,1,141.89,245.27Z" transform="translate(-117.343 -183.891)" fill="#e0e0e0"/>
        <path id="Path_24" data-name="Path 24" d="M141.72,169.761a3.353,3.353,0,0,1,.5-.581c.314-.342.782-.808,1.295-1.31s.98-.943,1.326-1.273a3.18,3.18,0,0,1,.588-.487,3.2,3.2,0,0,1-.5.578c-.314.342-.782.808-1.295,1.313s-.984.943-1.329,1.273A3.073,3.073,0,0,1,141.72,169.761Z" transform="translate(-117.227 -129.604)" fill="#e0e0e0"/>
        <path id="Path_25" data-name="Path 25" d="M69.072,169.828a3.415,3.415,0,0,1-.584-.5c-.342-.314-.8-.779-1.307-1.291s-.936-.98-1.251-1.317a3.347,3.347,0,0,1-.49-.588,3.352,3.352,0,0,1,.581.5c.342.314.808.782,1.313,1.295s.943.984,1.257,1.332a3.073,3.073,0,0,1,.481.572Z" transform="translate(-64.915 -129.618)" fill="#e0e0e0"/>
        <path id="Path_26" data-name="Path 26" d="M97.336,198.566a.629.629,0,0,1,0-.1v-1.442c0-1,0-2.463-.022-4.317,0-3.711-.022-9-.038-15.327l.079.079H77.085l.088-.091v21.188l-.075-.075,14.677.038,4.123.022h1.471a.476.476,0,0,1-.091,0H95.928l-4.107.019L77.1,198.6H77V177.29H97.424v.079c-.019,6.35-.031,11.654-.041,15.378,0,1.848-.016,3.3-.022,4.3v1.414a.9.9,0,0,1-.025.1Z" transform="translate(-72.843 -137.272)" fill="#e0e0e0"/>
        <rect id="Rectangle_8" data-name="Rectangle 8" width="6.784" height="6.781" transform="translate(10.994 47.305)" fill="#ebebeb"/>
      </g>
      <g id="freepik--speech-bubble--inject-133" transform="translate(97.191 7.683)">
        <path id="Path_27" data-name="Path 27" d="M353,105.949a15.632,15.632,0,0,1-9.4-2.583l-6.913,1.684,3.01-5.342A15.711,15.711,0,1,1,353,105.959Z" transform="translate(-336.466 -74.5)" fill="#fff"/>
        <path id="Path_28" data-name="Path 28" d="M352.839,105.832s.094-.016.273-.035l.8-.088c.176-.022.374-.035.591-.069l.7-.148c.255-.053.528-.1.817-.173l.908-.286a15.114,15.114,0,0,0,4.339-2.218,5.881,5.881,0,0,0,.572-.449l.581-.481a6.834,6.834,0,0,0,.562-.531l.562-.569c.368-.4.7-.839,1.071-1.276l.484-.72a7.387,7.387,0,0,0,.474-.751,14.647,14.647,0,0,0,.826-1.646l.368-.877.289-.927c.047-.157.1-.314.148-.471a4.428,4.428,0,0,0,.1-.487c.066-.314.135-.657.2-.993s.075-.679.113-1.021c.019-.173.038-.346.053-.518s0-.352,0-.528V89.505c-.016-.358-.066-.716-.1-1.081-.019-.179-.035-.361-.053-.544s-.069-.361-.1-.544c-.075-.361-.151-.729-.226-1.1A17.127,17.127,0,0,0,365.392,82a16.339,16.339,0,0,0-3.142-3.679c-.314-.258-.628-.544-.977-.782l-1.046-.707c-.364-.211-.745-.405-1.119-.628-.094-.047-.185-.1-.283-.148l-.3-.126-.594-.251a15.422,15.422,0,0,0-10.451-.443l-.5.154-.248.075-.242.1-.943.4-.236.1-.226.123-.456.245a8.906,8.906,0,0,0-.889.531l-.845.569c-.283.189-.528.424-.795.628a15.4,15.4,0,0,0-5.628,11.811v.9c.019.314.031.6.066.9a14.409,14.409,0,0,0,.28,1.744,15.617,15.617,0,0,0,2.759,6.023l.028.035-.022.041-3.016,5.342-.069-.088,6.913-1.672h.035a15.831,15.831,0,0,0,3.752,1.838,16.051,16.051,0,0,0,3.032.682,18.389,18.389,0,0,0,1.932.119h.5l-.5.019a16.459,16.459,0,0,1-1.939-.094,15.629,15.629,0,0,1-6.834-2.479h.038l-6.913,1.7-.135.031.069-.119c.943-1.662,1.929-3.456,3-5.342v.072a15.689,15.689,0,0,1-2.793-6.074,14.763,14.763,0,0,1-.286-1.76c-.035-.3-.05-.6-.069-.9s0-.61,0-.918A15.488,15.488,0,0,1,340.5,79.431a15.943,15.943,0,0,1,1.5-1.4,9.518,9.518,0,0,1,.8-.628l.855-.578a9.348,9.348,0,0,1,.9-.518l.459-.248.229-.126.239-.1.965-.408.245-.1.251-.079.5-.154a15.993,15.993,0,0,1,5.4-.694A16.157,16.157,0,0,1,358,75.541l.6.255.3.126c.1.047.192.1.286.154.38.207.76.405,1.131.628l1.056.7c.349.242.657.531.987.792a16.317,16.317,0,0,1,3.18,3.717,17.243,17.243,0,0,1,1.819,4.289l.226,1.106c.035.182.082.364.1.547s.035.368.053.55c.031.368.082.729.094,1.09s0,.72,0,1.075V91.1l-.057.525c-.041.346-.063.691-.116,1.031s-.138.669-.207,1c-.035.163-.063.33-.107.49s-.1.314-.148.474c-.1.314-.2.628-.292.943l-.374.883a14.586,14.586,0,0,1-.839,1.656,7.479,7.479,0,0,1-.481.754c-.167.242-.314.484-.49.723-.371.437-.71.886-1.081,1.282l-.572.569a6.061,6.061,0,0,1-.569.534l-.584.481a5.6,5.6,0,0,1-.578.449,15.142,15.142,0,0,1-4.374,2.2l-.911.277c-.292.069-.569.116-.823.17l-.7.138c-.217.035-.415.041-.594.06l-.8.072C352.934,105.829,352.839,105.832,352.839,105.832Z" transform="translate(-336.303 -74.383)" fill="#263238"/>
        <path id="Path_29" data-name="Path 29" d="M367.8,95.11a5.33,5.33,0,0,1,.5-1.885,1.609,1.609,0,0,1,2.932.663c.1.742-.314,1.483-.2,2.222a2.118,2.118,0,0,0,1.257,1.489,4,4,0,0,0,1.342.506.292.292,0,0,1,.126.019h0a2.124,2.124,0,0,1,.3,4.129c-.76.239-1.8.173-2.1.911-.258.647.349,1.288.874,1.744s1.084,1.172.732,1.775a1.375,1.375,0,0,1-1.414.449,3.1,3.1,0,0,0-1.552-.035,1.926,1.926,0,0,0-.987,1.753,7.432,7.432,0,0,1-.192,2.1c-.242.666-1.012,1.225-1.646.911-1.065-.528-.371-2.555-1.43-3.1a1.475,1.475,0,0,0-1.615.462,8.2,8.2,0,0,1-1.257,1.257,1.822,1.822,0,0,1-2.724-1.936,6.529,6.529,0,0,1,.858-1.672,1.578,1.578,0,0,0,0-1.763c-.613-.654-1.7-.17-2.6-.3a2.129,2.129,0,0,1-1.609-2.514,2.885,2.885,0,0,1,2.331-2.112c.6-.113,1.225-.066,1.822-.2a1.626,1.626,0,0,0,1.32-1.122c.148-.786-.581-1.455-.76-2.234a1.678,1.678,0,0,1,2.674-1.694c.628.49.99,1.458,1.788,1.477C367.205,96.433,367.655,95.751,367.8,95.11Z" transform="translate(-350.741 -86.812)" fill="#09877c"/>
        <path id="Path_30" data-name="Path 30" d="M360.966,123.363a.809.809,0,0,1-.446-.132,1.53,1.53,0,0,1-.644-1.986c.123-.264.267-.38.28-.368s-.085.154-.173.412a1.571,1.571,0,0,0,.6,1.841C360.806,123.288,360.972,123.338,360.966,123.363Z" transform="translate(-352.37 -106.268)" fill="#fff"/>
        <path id="Path_31" data-name="Path 31" d="M371.336,143.607a.641.641,0,0,1-.217-.27,1.684,1.684,0,0,1,.069-1.618c.116-.182.223-.264.236-.251a3.124,3.124,0,0,0-.314,1.059A3.161,3.161,0,0,0,371.336,143.607Z" transform="translate(-360.06 -120.387)" fill="#fff"/>
        <path id="Path_32" data-name="Path 32" d="M372.874,132.514c-.047,0-.044-.251-.113-.537s-.176-.506-.138-.531.223.173.3.493S372.918,132.52,372.874,132.514Z" transform="translate(-361.205 -113.514)" fill="#fff"/>
        <path id="Path_33" data-name="Path 33" d="M390.69,149.235c-.044,0-.135-.2-.2-.484s-.085-.512-.044-.522.135.207.2.484S390.734,149.225,390.69,149.235Z" transform="translate(-373.415 -125.025)" fill="#fff"/>
        <path id="Path_34" data-name="Path 34" d="M375,104.076a.966.966,0,0,1-.258-.283,2.093,2.093,0,0,1-.176-1.785c.088-.223.179-.336.195-.314a4.086,4.086,0,0,0-.148,1.222A4.01,4.01,0,0,0,375,104.076Z" transform="translate(-362.456 -93.111)" fill="#fff"/>
        <rect id="Rectangle_9" data-name="Rectangle 9" width="0.635" height="31.378" transform="matrix(0.625, -0.78, 0.78, 0.625, 3.335, 5.846)" fill="#263238"/>
      </g>
      <g id="freepik--Character--inject-133" transform="translate(17.367 17.775)">
        <path id="Path_35" data-name="Path 35" d="M205.01,360.83l-4.55,8.05,6.357,6.4,6.658-7.224Z" transform="translate(-163.32 -280.916)" fill="#ffbe9d"/>
        <path id="Path_36" data-name="Path 36" d="M84.692,433.091l8.613-.2s4.509-2.734,4.864-2.938a18.865,18.865,0,0,1,2.407-.628l13.653,4.276v1.257H82.26V433.9l1.471-.154Z" transform="translate(-82.26 -327.885)" fill="#e0e0e0"/>
        <path id="Path_37" data-name="Path 37" d="M145.8,382.82c-.258-.041-7.5,11.252-7.5,11.252l-8.657,1.587-9.6,5.342a.925.925,0,0,0,.867,1.156c1.084.072,6.913-2.514,6.913-2.514s-2,.971-1.615,2.221c.446,1.467,4.21.314,4.21.314l8.041-.522a2.639,2.639,0,0,0,1.9-1l1.024-1.295,11.255-8.946S151.642,383.684,145.8,382.82Z" transform="translate(-108.158 -295.996)" fill="#09877c"/>
        <path id="Path_38" data-name="Path 38" d="M147.245,431.237a.943.943,0,0,1-.192.2,5.564,5.564,0,0,1-.6.468,5.1,5.1,0,0,1-1,.531,4.472,4.472,0,0,1-1.361.28,12.156,12.156,0,0,0-1.357.107,3.974,3.974,0,0,0-1.018.4c-.556.314-.842.581-.861.559s.053-.085.189-.207a4.362,4.362,0,0,1,.613-.452,3.821,3.821,0,0,1,1.046-.449,10.428,10.428,0,0,1,1.376-.123,4.739,4.739,0,0,0,2.313-.745C146.927,431.476,147.226,431.215,147.245,431.237Z" transform="translate(-122.44 -329.199)" fill="#263238"/>
        <path id="Path_39" data-name="Path 39" d="M179.32,421.233c-.044,0-.151-.628-.506-1.345a13.142,13.142,0,0,1-.644-1.3,4.4,4.4,0,0,1,.792,1.229A2.7,2.7,0,0,1,179.32,421.233Z" transform="translate(-148.034 -320.527)" fill="#263238"/>
        <path id="Path_40" data-name="Path 40" d="M183.236,421.822a1.925,1.925,0,0,1-.522-.352,6.64,6.64,0,0,1-1.816-2.41,1.936,1.936,0,0,1-.2-.6,17.812,17.812,0,0,0,1.1,1.81A17.3,17.3,0,0,0,183.236,421.822Z" transform="translate(-149.769 -320.437)" fill="#263238"/>
        <path id="Path_41" data-name="Path 41" d="M197.035,406.3a.977.977,0,0,1-.044-.283c0-.182-.031-.446-.035-.773a15.711,15.711,0,0,1,.173-2.548,16.339,16.339,0,0,1,.581-2.492c.1-.314.192-.559.264-.729a.905.905,0,0,1,.123-.255,9.742,9.742,0,0,1-.273,1.018,20.424,20.424,0,0,0-.751,5.005A9.936,9.936,0,0,1,197.035,406.3Z" transform="translate(-160.916 -307.243)" fill="#263238"/>
        <g id="Group_1" data-name="Group 1" transform="translate(36.116 93.017)" opacity="0.3">
          <path id="Path_42" data-name="Path 42" d="M197.966,402.53a13.2,13.2,0,0,0-.732,5.392,13.964,13.964,0,0,0,.732-5.392Z" transform="translate(-197.199 -402.53)"/>
        </g>
        <path id="Path_43" data-name="Path 43" d="M316.12,402.588l.9-7.208,34.29-19.07s5.027,8.129,6.95,26.284l-24.094-.113h0Z" transform="translate(-242.638 -291.532)" fill="#263238"/>
        <path id="Path_44" data-name="Path 44" d="M247.207,213.744l-4.374,4.864-.723,9.684,8.415,17.254,9.65,20.311c.795,1.744,1.6,5.763,1.031,8.047,0,0-1.571,5.53,6.4,5.9a41.914,41.914,0,0,0,13-2.033l.094-.028a24.851,24.851,0,0,0,14.668-11.749l5.6-7.727c-1.238-4.817-3.142-3.5-3.893-5.323-3.62-8.738-6.6-15.051-6.6-15.051l-11.99-27.626c-1.794-4.057-4.057-5.543-6.693-6.193a12.568,12.568,0,0,0-5.945.019l-5.892,1.417Z" transform="translate(-191.883 -173.176)" fill="#455a64"/>
        <path id="Path_45" data-name="Path 45" d="M220.649,296.255c2.457-2.828,6.441-22.325,6.441-22.325l-6.155-22.84a20.18,20.18,0,0,0-3.73,6.338l-5.159,27.3s-1.885.393-1.866,3.287C210.183,289.958,220.649,296.255,220.649,296.255Z" transform="translate(-169.985 -205.658)" fill="#455a64"/>
        <path id="Path_46" data-name="Path 46" d="M256.708,313.427a1.3,1.3,0,0,1-.116-.195l-.314-.572-1.1-2.121c-.918-1.813-2.174-4.286-3.56-7.02l-3.507-7.042-1.049-2.143c-.116-.242-.207-.437-.277-.584a1.032,1.032,0,0,1-.088-.211,1.2,1.2,0,0,1,.116.195l.314.572,1.1,2.121c.918,1.81,2.174,4.286,3.56,7.023l3.519,7.042,1.049,2.143c.113.242.2.437.277.584a.975.975,0,0,1,.075.207Z" transform="translate(-195.03 -234.769)" fill="#263238"/>
        <path id="Path_47" data-name="Path 47" d="M379.858,366.4a1.571,1.571,0,0,1-.072.264l-.239.748-.176.54c-.069.2-.154.405-.242.628-.179.452-.361.974-.628,1.524-.126.28-.258.572-.393.877s-.314.606-.468.927c-.314.647-.71,1.3-1.115,2a34.249,34.249,0,0,1-6.715,8.038c-.628.522-1.2,1.031-1.775,1.455-.289.214-.556.434-.83.628s-.54.368-.792.544c-.5.355-.977.628-1.389.886-.207.126-.4.245-.578.349l-.5.258-.694.368a2.316,2.316,0,0,1-.248.119,1.537,1.537,0,0,1,.233-.148l.679-.4.49-.28c.179-.107.368-.233.572-.361.405-.264.88-.544,1.37-.9l.782-.55c.27-.192.537-.412.82-.628.575-.427,1.147-.943,1.76-1.458a35.12,35.12,0,0,0,6.687-8c.405-.694.8-1.348,1.122-1.989.163-.314.333-.628.474-.921l.405-.867c.267-.547.459-1.062.644-1.508.091-.226.179-.434.255-.628l.189-.534.267-.738A1.907,1.907,0,0,1,379.858,366.4Z" transform="translate(-274.787 -284.735)" fill="#263238"/>
        <g id="Group_2" data-name="Group 2" transform="translate(82.915 68.653)" opacity="0.3">
          <path id="Path_48" data-name="Path 48" d="M346.14,336.933a37.656,37.656,0,0,0,8.647-1.191,14.68,14.68,0,0,0,6.583-3.805,9.915,9.915,0,0,0,2.828-6.947,16.855,16.855,0,0,1-7.491,7.639c-1.071.544-3,1.493-3.224,1.21h0l-7.343,3.1" transform="translate(-346.14 -324.99)"/>
        </g>
        <path id="Path_49" data-name="Path 49" d="M310.64,331.241c.446-.493,11.409-8.691,11.409-8.691l8.99,9.518-15.114,6.385Z" transform="translate(-238.879 -254.664)" fill="#ffbe9d"/>
        <path id="Path_50" data-name="Path 50" d="M329.5,253.942a23.676,23.676,0,0,0,5.3-2.7c6.284-4.848,6.7-9.222,5.882-12.421-.9-3.519-15.189-28.279-16.767-29.872s-6.561-4.145-11.541,1.54c-2.891,3.3,2.856,12.609,2.856,12.609l10.212,17.873c-2.875-.487-4.189,2.463-4.189,2.463Z" transform="translate(-239.512 -175.404)" fill="#455a64"/>
        <path id="Path_51" data-name="Path 51" d="M329.48,279.393a.56.56,0,0,1-.022-.107,3.017,3.017,0,0,1,.176-1.521,2.514,2.514,0,0,1,1.376-1.285,5.605,5.605,0,0,1,2.445-.38l-.063.1c-1.043-1.813-2.288-3.987-3.629-6.322l-4.641-8.17-1.392-2.485c-.154-.286-.277-.512-.371-.682a2.335,2.335,0,0,1-.119-.242,1.42,1.42,0,0,1,.148.226c.1.163.233.386.4.666l1.436,2.46c1.207,2.1,2.856,4.974,4.685,8.151l3.6,6.338.063.107h-.126a5.574,5.574,0,0,0-2.391.349,2.438,2.438,0,0,0-1.348,1.213,2.8,2.8,0,0,0-.236,1.169C329.471,279.258,329.49,279.393,329.48,279.393Z" transform="translate(-247.52 -210.602)" fill="#263238"/>
        <path id="Path_52" data-name="Path 52" d="M378.879,304.49a1.176,1.176,0,0,1,.094.2c.053.135.151.333.236.6a8.528,8.528,0,0,1,.446,2.328,8.762,8.762,0,0,1-.072,1.643,10.371,10.371,0,0,1-.452,1.832,12.23,12.23,0,0,1-.874,1.885A14.936,14.936,0,0,1,377,314.825a19.324,19.324,0,0,1-6.083,4.861,16.558,16.558,0,0,1-2.174.943c-.264.1-.474.157-.613.2a1.181,1.181,0,0,1-.22.057,1.4,1.4,0,0,1,.207-.088c.138-.053.346-.119.6-.229a20.19,20.19,0,0,0,2.143-.987,19.943,19.943,0,0,0,6.011-4.864,15.169,15.169,0,0,0,1.257-1.816,12.689,12.689,0,0,0,.87-1.863,10.346,10.346,0,0,0,.459-1.8,8.555,8.555,0,0,0,.091-1.615,9.028,9.028,0,0,0-.39-2.316c-.075-.267-.163-.468-.2-.61A.9.9,0,0,1,378.879,304.49Z" transform="translate(-278.154 -242.279)" fill="#263238"/>
        <g id="Group_3" data-name="Group 3" transform="translate(85.853 65.564)" opacity="0.3">
          <path id="Path_53" data-name="Path 53" d="M355.49,315.16a8.2,8.2,0,0,1,5.731,3.356,1.788,1.788,0,0,1,.346.716.707.707,0,0,1-.273.707.719.719,0,0,1-.71-.031,2.353,2.353,0,0,1-.547-.5,23.542,23.542,0,0,0-4.468-4.248" transform="translate(-355.49 -315.16)"/>
        </g>
        <path id="Path_54" data-name="Path 54" d="M361.2,321.337c-.025,0-.236-.408-.628-1.062a16.423,16.423,0,0,0-1.706-2.407,13.658,13.658,0,0,0-2.168-1.992c-.606-.449-1.012-.691-1-.716a1.544,1.544,0,0,1,.3.145c.189.1.449.264.767.478a11.83,11.83,0,0,1,2.222,1.98,13.476,13.476,0,0,1,1.684,2.457c.179.336.314.613.4.808A1.342,1.342,0,0,1,361.2,321.337Z" transform="translate(-269.78 -249.596)" fill="#263238"/>
        <path id="Path_55" data-name="Path 55" d="M319.465,204.855a9.5,9.5,0,0,0-2.482.427,8.122,8.122,0,0,0-2.407,1.273,7.459,7.459,0,0,0-2.988,5.731,8,8,0,0,0,.33,2.7,9.32,9.32,0,0,0,1.071,2.281,1.44,1.44,0,0,1-.113-.135,4.824,4.824,0,0,1-.289-.418,7.12,7.12,0,0,1-.779-1.694,7.991,7.991,0,0,1-.371-2.74,7.51,7.51,0,0,1,3.048-5.848,8.059,8.059,0,0,1,2.463-1.257,7.2,7.2,0,0,1,1.835-.314,4.42,4.42,0,0,1,.506,0A.766.766,0,0,1,319.465,204.855Z" transform="translate(-239.421 -173.949)" fill="#263238"/>
        <path id="Path_56" data-name="Path 56" d="M231.107,373.456l-.39-.767-.88-.4s-3.771.606-4.688,2.174-4.55,7.164-4.4,8.28,1.106,1.712,1.747,1.474,1.826-1.794,1.826-1.794l.506-.066,5.97,1.373.71-1.225-5.562-2.049,3.026-.3,2.649-2.828Z" transform="translate(-177.231 -288.775)" fill="#e0e0e0"/>
        <path id="Path_57" data-name="Path 57" d="M271.349,395.2a3.343,3.343,0,0,0,.5,3.1c.98,1.291,2.441,3.318,3.818,5.122,1.075,1.4,8.308,5.125,12.217,7.07a3.34,3.34,0,0,0,4.289-1.159,28.78,28.78,0,0,0,3.287-6.812,3.343,3.343,0,0,0-1.753-4.057l-16.826-7.937a3.34,3.34,0,0,0-4.588,1.942Z" transform="translate(-211.811 -301.059)" fill="#e0e0e0"/>
        <path id="Path_58" data-name="Path 58" d="M271.313,395.087a.487.487,0,0,1,.047-.17l.16-.493c.145-.437.358-1.071.628-1.885a3.617,3.617,0,0,1,.666-1.276,3.346,3.346,0,0,1,1.389-1,3.4,3.4,0,0,1,1.954-.148,4.894,4.894,0,0,1,1.012.386l1.021.478,9.807,4.61,5.791,2.731a3.415,3.415,0,0,1,1.854,2.753,3.8,3.8,0,0,1-.276,1.725c-.192.553-.4,1.1-.628,1.646a29.667,29.667,0,0,1-1.53,3.142q-.424.751-.886,1.464a4.652,4.652,0,0,1-.515.685,3.428,3.428,0,0,1-3.865.767c-.968-.465-1.885-.943-2.8-1.408-1.816-.943-3.529-1.844-5.106-2.74-.792-.446-1.549-.889-2.259-1.342a13.011,13.011,0,0,1-1.967-1.43,8.56,8.56,0,0,1-.707-.886c-.217-.3-.43-.584-.628-.861-.412-.559-.8-1.087-1.169-1.571s-.7-.943-1.015-1.373a10.053,10.053,0,0,1-.814-1.188,3.321,3.321,0,0,1-.33-1.942,2.414,2.414,0,0,1,.17-.672.534.534,0,0,1-.044.17,3.612,3.612,0,0,0-.094.506,3.337,3.337,0,0,0,.355,1.91,9.962,9.962,0,0,0,.82,1.169l1.028,1.364,1.175,1.571.644.858a8.047,8.047,0,0,0,.7.874,12.987,12.987,0,0,0,1.951,1.4c.71.446,1.467.886,2.259,1.329,1.571.889,3.293,1.794,5.106,2.724.908.459,1.841.943,2.8,1.4a3.261,3.261,0,0,0,3.054-.223,3.307,3.307,0,0,0,.628-.515,4.53,4.53,0,0,0,.5-.66c.314-.474.6-.943.877-1.458a29.314,29.314,0,0,0,1.524-3.123c.226-.54.427-1.087.628-1.637a3.582,3.582,0,0,0,.27-1.659,3.246,3.246,0,0,0-1.763-2.621l-5.782-2.74-9.794-4.641-1.018-.484a4.916,4.916,0,0,0-.987-.383,3.3,3.3,0,0,0-1.885.135,3.262,3.262,0,0,0-1.361.961,3.6,3.6,0,0,0-.666,1.257c-.283.811-.506,1.439-.657,1.885-.075.207-.132.371-.176.487S271.313,395.087,271.313,395.087Z" transform="translate(-211.775 -300.945)" fill="#263238"/>
        <path id="Path_59" data-name="Path 59" d="M242.059,349.63s.386-2.771,1.332-3.051,6.834-2.046,6.834-2.046l16.138-11.073,6.3,12.088-14.768,5.97s-.578.757-1.222.465c0,0-.977,1.188-1.5,1.257s-.333.349-.333.349-4.327,7.227-5.367,7.368-2.35-.053-2.313-.9c0,0-1.948.707-2.577-.041,0,0-1.511,1.15-2.495-.082a14.808,14.808,0,0,1-.7-1.373s-1.307,1.618-2.489,1.056c-1.125-.537-.874-2.278-.258-3.343S242.059,349.63,242.059,349.63Z" transform="translate(-189.148 -262.146)" fill="#09877c"/>
        <path id="Path_60" data-name="Path 60" d="M225.089,402.124c-.025,0-.116-.16-.314-.4a3.142,3.142,0,0,0-2.039-1.134,3.317,3.317,0,0,1-.506-.05,1.112,1.112,0,0,1,.515-.063,2.718,2.718,0,0,1,2.124,1.181,1.106,1.106,0,0,1,.22.468Z" transform="translate(-178.249 -308.098)" fill="#263238"/>
        <path id="Path_61" data-name="Path 61" d="M236.444,390.94a6.382,6.382,0,0,1-.792.628c-.5.374-1.188.88-1.907,1.493a13.963,13.963,0,0,0-1.706,1.712c-.393.478-.6.8-.628.786a.871.871,0,0,1,.123-.245,6.058,6.058,0,0,1,.415-.613,11.189,11.189,0,0,1,1.687-1.763,21.9,21.9,0,0,1,1.948-1.464A5.879,5.879,0,0,1,236.444,390.94Z" transform="translate(-184.545 -301.565)" fill="#263238"/>
        <path id="Path_62" data-name="Path 62" d="M291.82,412.041l4.65-8.851,8.393,3.833-5.474,9.662Z" transform="translate(-225.973 -309.966)" fill="#fff"/>
        <path id="Path_63" data-name="Path 63" d="M268.873,406.849a2.281,2.281,0,0,1-.242.588,12.457,12.457,0,0,1-.776,1.329,12.081,12.081,0,0,1-.943,1.219,2.114,2.114,0,0,1-.456.446c-.038-.031.594-.767,1.257-1.756S268.826,406.827,268.873,406.849Z" transform="translate(-208.578 -312.475)" fill="#263238"/>
        <path id="Path_64" data-name="Path 64" d="M260.364,407.24a6.3,6.3,0,0,1-.707,1.816,6.384,6.384,0,0,1-1.112,1.6c-.041-.031.465-.738.968-1.678S260.317,407.224,260.364,407.24Z" transform="translate(-203.152 -312.742)" fill="#263238"/>
        <path id="Path_65" data-name="Path 65" d="M250.023,405.308a6.342,6.342,0,0,1-.628,1.354,3.6,3.6,0,0,1-.908,1.185c-.031-.031.377-.547.767-1.257A7.364,7.364,0,0,1,250.023,405.308Z" transform="translate(-196.254 -311.418)" fill="#263238"/>
        <path id="Path_66" data-name="Path 66" d="M273.925,386.23c0,.044-1.719-.377-3.815-.943s-3.771-1.062-3.771-1.1,1.719.377,3.815.943S273.938,386.186,273.925,386.23Z" transform="translate(-208.499 -296.93)" fill="#263238"/>
        <path id="Path_67" data-name="Path 67" d="M279.84,382.113a2.027,2.027,0,0,1-.606-.145,11.437,11.437,0,0,1-1.4-.547,11.9,11.9,0,0,1-1.323-.716,2.089,2.089,0,0,1-.5-.371c.025-.041.836.452,1.885.943S279.853,382.05,279.84,382.113Z" transform="translate(-215.131 -294.29)" fill="#263238"/>
        <g id="Group_4" data-name="Group 4" transform="translate(63.704 84.447)" opacity="0.3">
          <path id="Path_68" data-name="Path 68" d="M288.817,379.732c-.072-.138-.119-.28-.189-.421a11.808,11.808,0,0,0-3.1-3.906c-.119-.1-.28-.2-.415-.123a.267.267,0,0,0-.1.314.77.77,0,0,0,.185.3c1.172,1.376,2.115,2.693,3.287,4.069C288.575,380.077,288.9,379.889,288.817,379.732Z" transform="translate(-284.999 -375.256)"/>
        </g>
        <path id="Path_69" data-name="Path 69" d="M208.67,417.23a4.889,4.889,0,0,1,.522-.7c.336-.421.811-1,1.345-1.625s1.021-1.191,1.379-1.593a4.471,4.471,0,0,1,.61-.628,4.6,4.6,0,0,1-.522.7c-.336.421-.811,1-1.342,1.624s-1.021,1.191-1.383,1.59A4.888,4.888,0,0,1,208.67,417.23Z" transform="translate(-168.95 -316.474)" fill="#263238"/>
        <path id="Path_70" data-name="Path 70" d="M212.746,423.233c-.041,0,.65-1.885,1.543-4.192s1.65-4.151,1.69-4.132-.647,1.885-1.54,4.192S212.79,423.252,212.746,423.233Z" transform="translate(-171.744 -318.003)" fill="#263238"/>
        <path id="Path_71" data-name="Path 71" d="M225.388,420.6a26.659,26.659,0,0,1-.057-2.96,27.294,27.294,0,0,1,.11-2.96,26.666,26.666,0,0,1,.057,2.96A27.3,27.3,0,0,1,225.388,420.6Z" transform="translate(-180.364 -317.845)" fill="#263238"/>
        <path id="Path_72" data-name="Path 72" d="M187.918,127.851c0-1.6.509-2.14.135-2.438a9.668,9.668,0,0,1-2.643-5.137c-.255-2.941,2.231-5.527,2.231-5.527a9.273,9.273,0,0,1,2.966-5.1c2.024-1.571,5.194-3.438,7.73-3.111s4.368.484,5.989,2.46l-3.541,31.4a7.532,7.532,0,0,1-5.053-2.749c-1.335-1.449-2.391-3.142-3.771-4.534-1.037-1.04-1.257-.613-3.042-2.972C187.808,128.671,187.9,129.319,187.918,127.851Z" transform="translate(-152.986 -106.5)" fill="#263238"/>
        <path id="Path_73" data-name="Path 73" d="M225.871,125.006c-2.218-6.36-7.771-10.369-14.064-7.975l-.569.258a12.041,12.041,0,0,0-6.413,15.019c1.951,5.5,4.179,11.544,5.492,14.375,2.718,5.86,9.024,4.132,9.024,4.132l2.677,5.09h0a11.786,11.786,0,0,0,13.411-7.651h0Z" transform="translate(-165.834 -113.242)" fill="#ffbe9d"/>
        <path id="Path_74" data-name="Path 74" d="M219.713,178.693a.943.943,0,0,0,1.194.487.886.886,0,0,0,.528-1.15.943.943,0,0,0-1.194-.487.886.886,0,0,0-.528,1.15Z" transform="translate(-176.483 -155.178)" fill="#263238"/>
        <path id="Path_75" data-name="Path 75" d="M213.887,170.632c.154.063.581-.694,1.486-1.1s1.775-.248,1.822-.4c.028-.072-.167-.223-.553-.314a2.532,2.532,0,0,0-1.518.185A2.432,2.432,0,0,0,214,170.016C213.808,170.365,213.8,170.607,213.887,170.632Z" transform="translate(-172.492 -149.205)" fill="#263238"/>
        <path id="Path_76" data-name="Path 76" d="M245.981,167.642a.924.924,0,0,0,1.191.484.88.88,0,0,0,.528-1.147.921.921,0,0,0-1.191-.487.883.883,0,0,0-.528,1.15Z" transform="translate(-194.496 -147.595)" fill="#263238"/>
        <path id="Path_77" data-name="Path 77" d="M240.7,158.217c.151.066.6-.679,1.515-1.059s1.778-.2,1.832-.358c.028-.069-.16-.223-.544-.314a2.514,2.514,0,0,0-1.524.148c-.723.342-1.185.8-1.15.98C240.636,157.947,240.627,158.18,240.7,158.217Z" transform="translate(-190.887 -140.741)" fill="#263238"/>
        <path id="Path_78" data-name="Path 78" d="M235.57,171.56a6.492,6.492,0,0,0-1.59.393c-.242.082-.481.132-.591,0a1.31,1.31,0,0,1-.154-.757c-.031-.657-.069-1.345-.107-2.068a32.693,32.693,0,0,0-.531-5.3,33.615,33.615,0,0,0,.1,5.342c.05.72.094,1.408.141,2.064a1.467,1.467,0,0,0,.286.961.628.628,0,0,0,.534.17,1.763,1.763,0,0,0,.415-.123A6.736,6.736,0,0,0,235.57,171.56Z" transform="translate(-185.314 -145.816)" fill="#263238"/>
        <path id="Path_79" data-name="Path 79" d="M237.479,152.082c.27.094.8-.751,1.656-1.571s1.7-1.329,1.609-1.6c-.047-.126-.346-.163-.789-.038a3.966,3.966,0,0,0-2.489,2.407C237.328,151.73,237.353,152.032,237.479,152.082Z" transform="translate(-188.634 -135.504)" fill="#263238"/>
        <path id="Path_80" data-name="Path 80" d="M211.8,164.3c.211.214.968-.069,1.885-.138s1.725.044,1.885-.2c.072-.119-.066-.339-.424-.531a2.922,2.922,0,0,0-1.571-.27,2.828,2.828,0,0,0-1.486.547C211.8,163.962,211.709,164.2,211.8,164.3Z" transform="translate(-171.074 -145.348)" fill="#263238"/>
        <path id="Path_81" data-name="Path 81" d="M209.223,112.638c-.2-.079-.408-.157-.628-.229h0c-1.753-.628-3.723-.974-5.232.041-.867.581-1.42,1.537-2.253,2.171-1.125.858-2.621,1.04-3.859,1.725a5.342,5.342,0,0,0-2.687,4.085c-.129,1.313.22,2.734-.4,3.9-.286.54-1.257.918-1.593,1.423,0,0-.6,4.273,2.677,4.085l.412-.349,3.214-4.251c1.071-.361,2.174-.628,2.643-1.612a5.761,5.761,0,0,0,.27-2.165l1.719-2.042c.544-.135,1.144-.185,1.684-.314a4.88,4.88,0,0,0,3.639-6.014Z" transform="translate(-157.883 -110.14)" fill="#263238"/>
        <path id="Path_82" data-name="Path 82" d="M228.469,113.928c.723-.591,2.181-1.844,2.316-2.749a5.491,5.491,0,0,1,3.306-4.4,4.525,4.525,0,0,1,5.15,1.684,6.5,6.5,0,0,1,6.555,1.106,7.541,7.541,0,0,1,2.573,6.542,3.829,3.829,0,0,0,0,1.885c.314.735,1.09,1.081,1.731,1.524a6.773,6.773,0,0,1,2.6,5.656c-.038,2.152-.333,3.016-1.323,3.865-1.942,1.665,2.237,5.555-1.493,7.155l-6.768-13.159-.016.025a1.5,1.5,0,0,1-1.4.789,3.271,3.271,0,0,1-2.778-4.943,13.825,13.825,0,0,1-3.214-1.379c-1-.628-2.687-1.866-3.032-3.029C231.919,114.855,228.151,114.186,228.469,113.928Z" transform="translate(-182.515 -106.528)" fill="#263238"/>
        <path id="Path_83" data-name="Path 83" d="M275.17,156.539c.082-.088,3.513-3.013,5.194,1.075s-2.771,4.93-2.828,4.817S275.17,156.539,275.17,156.539Z" transform="translate(-214.555 -140.064)" fill="#ffbe9d"/>
        <path id="Path_84" data-name="Path 84" d="M282.643,163.3c0-.022.091.019.236.025a.776.776,0,0,0,.537-.207,1.913,1.913,0,0,0,.163-1.917,2.514,2.514,0,0,0-.628-.943.892.892,0,0,0-.76-.314.393.393,0,0,0-.342.368c0,.135.053.207.035.223s-.116-.031-.154-.214a.506.506,0,0,1,.057-.314.588.588,0,0,1,.352-.267,1.078,1.078,0,0,1,1,.314,2.608,2.608,0,0,1,.716,1.037,2.008,2.008,0,0,1-.314,2.2.833.833,0,0,1-.694.16C282.69,163.395,282.63,163.313,282.643,163.3Z" transform="translate(-219.049 -142.996)" fill="#eb996e"/>
        <path id="Path_85" data-name="Path 85" d="M240.857,196.9a8.8,8.8,0,0,0,3.108-1.436,4.48,4.48,0,0,0-1.621.569A4.694,4.694,0,0,0,240.857,196.9Z" transform="translate(-191.022 -167.499)" fill="#263238"/>
        <path id="Path_86" data-name="Path 86" d="M252.55,210.993s5.056-3.142,7.177-6.913c0,0,.663,5.728-6.168,8.82Z" transform="translate(-199.042 -173.419)" fill="#eb996e"/>
        <path id="Path_87" data-name="Path 87" d="M233.976,158.858c0,.016-.085.085-.267.107a.873.873,0,0,1-.66-.211.883.883,0,0,1-.289-.628c0-.182.057-.283.075-.276s0,.11.041.264a.858.858,0,0,0,.83.738C233.863,158.858,233.967,158.839,233.976,158.858Z" transform="translate(-185.471 -141.715)" fill="#eb996e"/>
        <path id="Path_88" data-name="Path 88" d="M228.258,161.841c0-.019.047-.107.107-.264a1.207,1.207,0,0,0,.082-.628,1.257,1.257,0,0,0-.255-.581c-.1-.132-.192-.2-.176-.22s.119.019.261.141a1.078,1.078,0,0,1,.192,1.342C228.371,161.788,228.274,161.854,228.258,161.841Z" transform="translate(-182.216 -143.287)" fill="#eb996e"/>
        <path id="Path_89" data-name="Path 89" d="M275.539,281.111l1.725.368-1.728.506a.628.628,0,0,0-.434.468l-.43,2.068-.465-2.03a.628.628,0,0,0-.468-.465l-1.728-.393,1.778-.5a.628.628,0,0,0,.418-.481l.4-1.992.449,1.98a.628.628,0,0,0,.487.471Z" transform="translate(-212.388 -224.565)" fill="#fff"/>
        <path id="Path_90" data-name="Path 90" d="M267.307,300.67l.77.163-.77.223a.283.283,0,0,0-.195.211l-.192.921-.214-.9a.273.273,0,0,0-.207-.207l-.77-.173.792-.223a.286.286,0,0,0,.2-.214l.176-.886.2.88A.277.277,0,0,0,267.307,300.67Z" transform="translate(-208.081 -238.911)" fill="#fff"/>
        <path id="Path_91" data-name="Path 91" d="M340.737,220.14l.77.163-.77.223a.283.283,0,0,0-.195.211l-.192.921-.214-.9a.273.273,0,0,0-.207-.207l-.77-.173.792-.223a.28.28,0,0,0,.2-.214l.176-.886.2.88A.277.277,0,0,0,340.737,220.14Z" transform="translate(-258.438 -183.685)" fill="#fff"/>
      </g>
      <g id="freepik--Table--inject-133" transform="translate(0 124.131)">
        <path id="Path_92" data-name="Path 92" d="M167.152,459c0,.044-31.381.082-70.07.082S26.99,459.046,26.99,459s31.374-.082,70.092-.082S167.152,458.945,167.152,459Z" transform="translate(-26.99 -454.54)" fill="#263238"/>
        <rect id="Rectangle_10" data-name="Rectangle 10" width="85.668" height="4.43" transform="translate(8.741 0.041)" fill="#455a64"/>
        <rect id="Rectangle_11" data-name="Rectangle 11" width="24.169" height="4.43" transform="translate(69.633 0.041)" fill="#263238"/>
        <path id="Path_93" data-name="Path 93" d="M65,449.742a1.7,1.7,0,0,1-.1-.195c-.063-.126-.154-.314-.273-.531a11.152,11.152,0,0,0-2.41-3.076c-.189-.17-.342-.314-.449-.393a.969.969,0,0,1-.163-.148,1.742,1.742,0,0,1,.179.129c.113.082.273.211.462.377a10.1,10.1,0,0,1,2.423,3.089c.113.226.2.412.255.544a1.621,1.621,0,0,1,.079.2Z" transform="translate(-50.725 -445.268)" fill="#263238"/>
        <path id="Path_94" data-name="Path 94" d="M78.3,449.677a5.719,5.719,0,0,1-1.257-.129,7.524,7.524,0,0,1-1.276-.393,8.483,8.483,0,0,1-1.461-.789,8.634,8.634,0,0,1-2.143-2.105,7.275,7.275,0,0,1-.628-1.071s.019.025.047.072l.129.214a8.835,8.835,0,0,0,.5.757,8.926,8.926,0,0,0,2.143,2.077,8.569,8.569,0,0,0,1.445.789,7.546,7.546,0,0,0,1.282.4,4.992,4.992,0,0,0,.509.094,3.073,3.073,0,0,0,.39.047l.245.022Z" transform="translate(-57.535 -445.124)" fill="#263238"/>
        <path id="Path_95" data-name="Path 95" d="M93.045,447.558s-.386.044-1.09.05c-.352,0-.782,0-1.282-.041-.248-.019-.515-.044-.8-.079l-.434-.06a1.679,1.679,0,0,1-.449-.11.606.606,0,0,1-.358-.314.431.431,0,0,1,.145-.481,1.206,1.206,0,0,1,.487-.211c.173-.047.349-.094.531-.132a12.8,12.8,0,0,1,4.949-.148,9.276,9.276,0,0,1,1.351.314,1.031,1.031,0,0,1,.562.437.883.883,0,0,1,.035.72,1.128,1.128,0,0,1-.44.575,1.917,1.917,0,0,1-.66.27c-.459.1-.911.179-1.357.254a18.643,18.643,0,0,1-2.6.258,9.427,9.427,0,0,1-4.308-.833,7.167,7.167,0,0,1-2.379-1.772,5.684,5.684,0,0,1-.493-.628c-.1-.157-.154-.239-.154-.239s.06.079.163.229a6.169,6.169,0,0,0,.5.628,7.228,7.228,0,0,0,2.382,1.719,9.426,9.426,0,0,0,4.289.814,19.023,19.023,0,0,0,2.589-.261c.446-.075.9-.157,1.354-.254a1.886,1.886,0,0,0,.628-.261,1.087,1.087,0,0,0,.415-.544.82.82,0,0,0-.035-.666.943.943,0,0,0-.528-.408,9.567,9.567,0,0,0-1.339-.314,12.933,12.933,0,0,0-4.924.138c-.182.038-.358.085-.528.129a1.136,1.136,0,0,0-.471.2.39.39,0,0,0-.132.424.584.584,0,0,0,.314.314,1.667,1.667,0,0,0,.44.107l.434.063c.28.035.547.063.795.082.5.041.943.053,1.279.053s.628,0,.808-.016Z" transform="translate(-66.292 -445.261)" fill="#263238"/>
        <path id="Path_96" data-name="Path 96" d="M137.118,445.977H137c-.079,0-.192-.025-.339-.022a4.489,4.489,0,0,0-1.235.138,7.631,7.631,0,0,0-1.719.679,20.359,20.359,0,0,0-1.929,1.2c-.666.456-1.307.883-1.92,1.225a8.17,8.17,0,0,1-1.709.742,4.589,4.589,0,0,1-1.238.2,3.294,3.294,0,0,1-.459-.016h.119a3.33,3.33,0,0,0,.339,0,4.81,4.81,0,0,0,1.225-.217,8.445,8.445,0,0,0,1.69-.748c.61-.346,1.257-.773,1.914-1.229a19.457,19.457,0,0,1,1.939-1.2,7.372,7.372,0,0,1,1.734-.669,4.444,4.444,0,0,1,1.257-.119A3.435,3.435,0,0,1,137.118,445.977Z" transform="translate(-95.198 -445.634)" fill="#263238"/>
        <path id="Path_97" data-name="Path 97" d="M159.325,448.071l-.236-.05a4.254,4.254,0,0,0-.685-.085,4.049,4.049,0,0,0-1.084.088,4.218,4.218,0,0,0-.654.195,1.153,1.153,0,0,0-.606.418.628.628,0,0,0,.1.751,1.766,1.766,0,0,0,.754.478,3.428,3.428,0,0,0,1.97.041,6.475,6.475,0,0,0,1.031-.339,3.471,3.471,0,0,0,.98-.55,1.329,1.329,0,0,0,.49-1,1.65,1.65,0,0,0-.446-1.075,2.171,2.171,0,0,0-1.006-.628,3.218,3.218,0,0,0-1.156-.107,8.389,8.389,0,0,0-2.149.54,22.553,22.553,0,0,0-3.425,1.571,23.757,23.757,0,0,0-2.143,1.367c-.245.176-.43.314-.556.408s-.2.145-.2.145.255-.217.738-.575a23.151,23.151,0,0,1,2.137-1.386,21.924,21.924,0,0,1,3.425-1.587,8.445,8.445,0,0,1,2.165-.547,3.365,3.365,0,0,1,1.181.107,2.285,2.285,0,0,1,1.037.628,1.709,1.709,0,0,1,.462,1.119,1.392,1.392,0,0,1-.515,1.049,3.572,3.572,0,0,1-1,.563,7.044,7.044,0,0,1-1.04.339,3.519,3.519,0,0,1-2-.047,1.825,1.825,0,0,1-.773-.5.811.811,0,0,1-.189-.4.6.6,0,0,1,.085-.412,1.2,1.2,0,0,1,.628-.434,4.513,4.513,0,0,1,.66-.192,4.325,4.325,0,0,1,1.09-.079,3.935,3.935,0,0,1,.688.1C159.259,448.046,159.325,448.071,159.325,448.071Z" transform="translate(-111.561 -445.768)" fill="#263238"/>
        <path id="Path_98" data-name="Path 98" d="M195.019,449.426V449.2a5.092,5.092,0,0,0,0-.628,4.371,4.371,0,0,0-.606-1.951,3.613,3.613,0,0,0-1.5-1.367,4.046,4.046,0,0,0-.811-.27,2.439,2.439,0,0,1,.83.226,3.569,3.569,0,0,1,1.54,1.376,4.245,4.245,0,0,1,.6,1.983A3.3,3.3,0,0,1,195.019,449.426Z" transform="translate(-140.22 -444.98)" fill="#263238"/>
        <path id="Path_99" data-name="Path 99" d="M213.269,449.447a9.813,9.813,0,0,1-1.32-.273,13.18,13.18,0,0,1-1.392-.459,15.216,15.216,0,0,1-1.618-.773,14.451,14.451,0,0,1-2.633-1.91c-.314-.283-.547-.522-.7-.694l-.182-.2c-.041-.044-.06-.069-.06-.069a.737.737,0,0,1,.069.063l.192.189c.16.167.405.4.713.676a14.636,14.636,0,0,0,4.254,2.668,13.919,13.919,0,0,0,1.379.471c.4.113.729.192.943.239l.264.053A.391.391,0,0,1,213.269,449.447Z" transform="translate(-149.313 -445.042)" fill="#263238"/>
        <path id="Path_100" data-name="Path 100" d="M232.059,448.291l-.088-.041c-.057-.028-.132-.079-.242-.129a6.175,6.175,0,0,0-.943-.368,9.665,9.665,0,0,0-1.464-.314c-.556-.082-1.175-.135-1.822-.22a6.99,6.99,0,0,1-3.142-1.059,4.043,4.043,0,0,1-.754-.676c-.151-.185-.223-.3-.223-.3a.772.772,0,0,1,.066.069c.041.047.094.123.176.211a4.307,4.307,0,0,0,.764.654,7.17,7.17,0,0,0,3.142,1.031c.644.085,1.257.141,1.822.226a9.224,9.224,0,0,1,1.467.314,5.474,5.474,0,0,1,.943.39C231.939,448.216,232.059,448.291,232.059,448.291Z" transform="translate(-161.671 -445.124)" fill="#263238"/>
      </g>
    </g>
  </g>
</svg>
