<svg xmlns="http://www.w3.org/2000/svg" width="20" height="20.005" viewBox="0 0 20 20.005">
  <g id="Page-1" transform="translate(0 0.002)">
    <g id="Dribbble-Light-Preview" transform="translate(-420 -6559)">
      <g id="icons" transform="translate(56 160)">
        <path id="arrow_right-_363_" data-name="arrow_right-[#363]" d="M375.128,6399.29a1,1,0,0,0-1.413,1.41l6.434,6.44a.5.5,0,0,1-.352.86H365.016a1.008,1.008,0,0,0-1.016.99v.01a1.016,1.016,0,0,0,1.016,1H379.8a.491.491,0,0,1,.352.84l-6.465,6.46a.994.994,0,0,0,0,1.41h0a1,1,0,0,0,1.413,0l8.318-8.31h0a2,2,0,0,0,0-2.83c-.181-.18-8.468-8.46-8.287-8.28" fill="#c75d6f" fill-rule="evenodd"/>
      </g>
    </g>
  </g>
</svg>
