<svg xmlns="http://www.w3.org/2000/svg" xmlns:xlink="http://www.w3.org/1999/xlink" width="132" height="140" viewBox="0 0 132 140">
  <defs>
    <clipPath id="clip-path">
      <rect id="Rectangle_10" data-name="Rectangle 10" width="132" height="140" transform="translate(650 295.769)" fill="#fff" stroke="#707070" stroke-width="1"/>
    </clipPath>
  </defs>
  <g id="Mask_Group_1" data-name="Mask Group 1" transform="translate(-650 -295.769)" clip-path="url(#clip-path)">
    <g id="Hypochondriac-pana" transform="translate(650 296.01)">
      <g id="freepik--background-complete--inject-152" transform="translate(0 3.849)">
        <path id="Path_11" data-name="Path 11" d="M346.538,193.006c-2.537,5.333-6.6,13.957-8.468,17.918a2.408,2.408,0,0,0,1.025,3.158l13.938,7.22a2.22,2.22,0,0,0,3.032-1.068l8.416-17.75a5.453,5.453,0,0,0,.26-4,5.175,5.175,0,0,0-2.528-3.022h0l1.239-2.611-9.131-4.728-1.171,2.469-.034-.016a4.924,4.924,0,0,0-6.579,2.433Z" transform="translate(-244.245 -138.451)" fill="#f5f5f5"/>
        <path id="Path_12" data-name="Path 12" d="M389.3,189.15l-.564,1.188,8.973,5.064.722-1.524Z" transform="translate(-279.382 -139.148)" fill="#e0e0e0"/>
        <path id="Path_13" data-name="Path 13" d="M.934.016,11.749.207a.991.991,0,0,1,.954.979l.063,3.661a.586.586,0,0,1-.592.609l-11.48-.2a.638.638,0,0,1-.614-.63L.017.963A.911.911,0,0,1,.937.017Z" transform="translate(110.754 45.487) rotate(26.36)" fill="#f5f5f5"/>
        <path id="Path_14" data-name="Path 14" d="M390.625,182.333a25.064,25.064,0,0,1,2.236-4.715,12.489,12.489,0,0,1-1,2.421A12.653,12.653,0,0,1,390.625,182.333Z" transform="translate(-280.678 -131.347)" fill="#e0e0e0"/>
        <path id="Path_15" data-name="Path 15" d="M394.506,184.263a12.886,12.886,0,0,1,1-2.421,12.57,12.57,0,0,1,1.239-2.294,25.327,25.327,0,0,1-2.236,4.715Z" transform="translate(-283.358 -132.653)" fill="#e0e0e0"/>
        <path id="Path_16" data-name="Path 16" d="M398.395,186.143a12.731,12.731,0,0,1,1-2.421,12.224,12.224,0,0,1,1.239-2.294,12.632,12.632,0,0,1-1,2.421A12.222,12.222,0,0,1,398.395,186.143Z" transform="translate(-286.042 -133.924)" fill="#e0e0e0"/>
        <path id="Path_17" data-name="Path 17" d="M402.276,188.143a12.888,12.888,0,0,1,1-2.421,12.572,12.572,0,0,1,1.239-2.294,25.317,25.317,0,0,1-2.236,4.715Z" transform="translate(-288.721 -135.277)" fill="#e0e0e0"/>
        <path id="Path_18" data-name="Path 18" d="M406.165,190.033a12.825,12.825,0,0,1,1-2.421,12.219,12.219,0,0,1,1.239-2.294,12.633,12.633,0,0,1-1,2.421A12.763,12.763,0,0,1,406.165,190.033Z" transform="translate(-291.405 -136.556)" fill="#e0e0e0"/>
        <path id="Path_19" data-name="Path 19" d="M410.046,191.963a12.888,12.888,0,0,1,1-2.421,12.568,12.568,0,0,1,1.239-2.294,12.913,12.913,0,0,1-1,2.417A12.587,12.587,0,0,1,410.046,191.963Z" transform="translate(-294.085 -137.861)" fill="#e0e0e0"/>
        <path id="Path_20" data-name="Path 20" d="M413.985,193.883a12.828,12.828,0,0,1,1-2.421,12.35,12.35,0,0,1,1.239-2.294,12.727,12.727,0,0,1-1,2.421A14.028,14.028,0,0,1,413.985,193.883Z" transform="translate(-296.803 -139.16)" fill="#e0e0e0"/>
        <path id="Path_21" data-name="Path 21" d="M417.816,195.813a12.78,12.78,0,0,1,1-2.421,12.575,12.575,0,0,1,1.239-2.294,12.659,12.659,0,0,1-1,2.417A12.488,12.488,0,0,1,417.816,195.813Z" transform="translate(-299.448 -140.465)" fill="#e0e0e0"/>
        <path id="Path_197" data-name="Path 197" d="M1.493.026,13.24.234a1.579,1.579,0,0,1,1.519,1.56l.119,6.941a1.451,1.451,0,0,1-1.467,1.507L1.665,10.034A1.579,1.579,0,0,1,.146,8.475L.026,1.533A1.451,1.451,0,0,1,1.493.026Z" transform="translate(103.619 58.448) rotate(26.36)" fill="#ebebeb"/>
        <path id="Path_22" data-name="Path 22" d="M370.8,231.81a.866.866,0,0,1,.062-.155c.05-.113.112-.256.189-.427.177-.392.421-.926.728-1.6.641-1.388,1.549-3.343,2.648-5.718l.046.149L363,218.15c-.04,0,.338-.12.177-.065h0v.016l-.015.032-.031.065-.062.129-.121.262-.248.518-.489,1.042-.966,2.016-1.8,3.776-.056-.171,8.2,4.317,2.357,1.259.62.346a1.755,1.755,0,0,1,.223.129.974.974,0,0,1-.211-.091l-.619-.3-2.363-1.184L359.268,226l-.108-.055.053-.117L361,222.046l.951-2.006c.161-.324.31-.683.486-1.026l.245-.518.124-.262.062-.129.031-.065.015-.036h0l.18-.065,11.46,5.964.1.049-.05.1c-1.152,2.378-2.1,4.336-2.788,5.725-.31.647-.576,1.175-.765,1.553l-.2.4A.7.7,0,0,1,370.8,231.81Z" transform="translate(-258.964 -158.621)" fill="#e0e0e0"/>
        <path id="Path_23" data-name="Path 23" d="M381.775,233.117a69.676,69.676,0,0,1-7.8-4.035,34.758,34.758,0,0,1,3.958,1.893A35.273,35.273,0,0,1,381.775,233.117Z" transform="translate(-269.193 -166.155)" fill="#e0e0e0"/>
        <path id="Path_24" data-name="Path 24" d="M379.625,237.4a69.666,69.666,0,0,1-7.8-4.035,35.033,35.033,0,0,1,3.958,1.89A33.309,33.309,0,0,1,379.625,237.4Z" transform="translate(-267.709 -169.05)" fill="#e0e0e0"/>
        <path id="Path_25" data-name="Path 25" d="M377.632,241.557a35.26,35.26,0,0,1-3.955-1.893,34.906,34.906,0,0,1-3.838-2.142,34.585,34.585,0,0,1,3.955,1.893A32.321,32.321,0,0,1,377.632,241.557Z" transform="translate(-266.335 -171.864)" fill="#e0e0e0"/>
        <path id="Path_26" data-name="Path 26" d="M396.038,200.5a41.6,41.6,0,0,1-4.315-2.077,43.8,43.8,0,0,1-4.194-2.327,43.642,43.642,0,0,1,4.315,2.078A41.412,41.412,0,0,1,396.038,200.5Z" transform="translate(-278.546 -143.843)" fill="#e0e0e0"/>
        <path id="Path_27" data-name="Path 27" d="M342.59,217.011a6.28,6.28,0,0,1,.356-.864l1.053-2.3c.9-1.942,2.168-4.618,3.571-7.566l1.995-4.149a9.37,9.37,0,0,1,2.122-3.094,3.861,3.861,0,0,1,2.267-.971,2.617,2.617,0,0,1,.672.055.809.809,0,0,1,.223.074,5.339,5.339,0,0,0-.886-.019,3.877,3.877,0,0,0-2.153,1.019,9.289,9.289,0,0,0-2.026,3.058l-1.976,4.158c-1.409,2.945-2.695,5.608-3.639,7.527l-1.131,2.265a5.59,5.59,0,0,1-.449.809Z" transform="translate(-247.526 -145.175)" fill="#fff"/>
        <path id="Path_28" data-name="Path 28" d="M356.246,273.193a3.964,3.964,0,0,1-.53-.527c-.161-.178-.362-.392-.619-.628s-.508-.521-.83-.8a25.521,25.521,0,0,0-2.311-1.9,27.061,27.061,0,0,0-3.1-1.909,26.343,26.343,0,0,0-3.33-1.414,24.664,24.664,0,0,0-2.846-.773c-.409-.1-.784-.146-1.112-.2s-.619-.1-.846-.123a3.8,3.8,0,0,1-.725-.123,3.749,3.749,0,0,1,.734,0,6.7,6.7,0,0,1,.855.078c.331.045.716.081,1.127.165a21.378,21.378,0,0,1,2.887.722,23.862,23.862,0,0,1,3.379,1.424,24.5,24.5,0,0,1,3.119,1.942,22.49,22.49,0,0,1,2.3,1.961c.31.291.573.589.808.838s.427.476.579.663A3.9,3.9,0,0,1,356.246,273.193Z" transform="translate(-245.739 -190.3)" fill="#fff"/>
        <path id="Path_29" data-name="Path 29" d="M363.222,355.655l-15.8-8.414a1.723,1.723,0,0,1-.706-2.265l16.7-34.2a1.584,1.584,0,0,1,2.168-.738l15.8,8.414a1.723,1.723,0,0,1,.706,2.265l-16.7,34.2A1.581,1.581,0,0,1,363.222,355.655Z" transform="translate(-250.256 -220.795)" fill="#f5f5f5"/>
        <path id="Path_30" data-name="Path 30" d="M374.153,426.366c-.015.032-2.478-1.243-5.473-2.848s-5.436-2.912-5.42-2.961,2.478,1.243,5.476,2.848S374.169,426.334,374.153,426.366Z" transform="translate(-261.794 -295.67)" fill="#e0e0e0"/>
        <path id="Path_31" data-name="Path 31" d="M421.386,328.947c-.016.029-2.478-1.246-5.476-2.848s-5.436-2.929-5.42-2.961,2.478,1.243,5.476,2.848S421.4,328.918,421.386,328.947Z" transform="translate(-294.395 -229.777)" fill="#e0e0e0"/>
        <path id="Path_32" data-name="Path 32" d="M379.81,363.7c-.031,0,3.351-7,7.548-15.6s7.632-15.559,7.66-15.533-3.348,7-7.551,15.6S379.837,363.717,379.81,363.7Z" transform="translate(-273.218 -236.157)" fill="#e0e0e0"/>
        <path id="Path_33" data-name="Path 33" d="M.976-.016l.157,0A.912.912,0,0,1,2.08.9L2.045,2.913l-2.1.035.035-2A.957.957,0,0,1,.277.27a1.01,1.01,0,0,1,.7-.286Z" transform="matrix(-0.433, 0.901, -0.901, -0.433, 117.887, 99.27)" fill="#ebebeb"/>
        <path id="Path_34" data-name="Path 34" d="M.976-.016l.157,0A.912.912,0,0,1,2.08.9l-.035,2-2.1.035.035-2a.958.958,0,0,1,.3-.672A1.01,1.01,0,0,1,.976-.016Z" transform="translate(112.063 98.703) rotate(-64.33)" fill="#e0e0e0"/>
        <path id="Path_35" data-name="Path 35" d="M.976-.016l.157,0A.912.912,0,0,1,2.08.9l-.035,2-2.1.035.035-2a.958.958,0,0,1,.3-.672A1.01,1.01,0,0,1,.976-.016Z" transform="translate(126.706 103.814) rotate(115.67)" fill="#ebebeb"/>
        <path id="Path_36" data-name="Path 36" d="M.976-.016l.157,0A.912.912,0,0,1,2.08.9l-.035,2-2.1.035.035-2A.99.99,0,0,1,.963-.016Z" transform="matrix(0.433, -0.901, 0.901, 0.433, 120.869, 103.241)" fill="#e0e0e0"/>
        <path id="Path_37" data-name="Path 37" d="M.976-.016l.157,0A.912.912,0,0,1,2.08.9l-.035,2-2.1.035.035-2A.99.99,0,0,1,.963-.016Z" transform="translate(115.396 104.507) rotate(115.67)" fill="#ebebeb"/>
        <path id="Path_38" data-name="Path 38" d="M.976-.016l.157,0A.912.912,0,0,1,2.08.9l-.035,2-2.1.035.035-2a.958.958,0,0,1,.3-.672A1.01,1.01,0,0,1,.976-.016Z" transform="translate(109.571 103.96) rotate(-64.33)" fill="#e0e0e0"/>
        <path id="Path_39" data-name="Path 39" d="M.976-.016l.157,0A.912.912,0,0,1,2.08.9l-.035,2-2.1.035.035-2a.958.958,0,0,1,.3-.672A1.01,1.01,0,0,1,.976-.016Z" transform="translate(124.429 109.179) rotate(115.67)" fill="#ebebeb"/>
        <path id="Path_40" data-name="Path 40" d="M.963-.016l.157,0A.912.912,0,0,1,2.067.9l-.035,2-2.083.035.035-2A.99.99,0,0,1,.963-.016Z" transform="translate(118.61 108.623) rotate(-64.33)" fill="#e0e0e0"/>
        <path id="Path_41" data-name="Path 41" d="M.976-.016l.157,0A.912.912,0,0,1,2.08.9l-.035,2-2.1.035.035-2A.99.99,0,0,1,.963-.016Z" transform="translate(112.919 109.773) rotate(115.67)" fill="#ebebeb"/>
        <path id="Path_42" data-name="Path 42" d="M.976-.016l.157,0A.912.912,0,0,1,2.08.9l-.035,2-2.1.035.035-2A.99.99,0,0,1,.963-.016Z" transform="translate(107.092 109.228) rotate(-64.33)" fill="#e0e0e0"/>
        <path id="Path_43" data-name="Path 43" d="M.976-.016l.157,0A.912.912,0,0,1,2.08.9l-.035,2-2.1.035.035-2a.958.958,0,0,1,.3-.672A1.01,1.01,0,0,1,.976-.016Z" transform="translate(122.153 114.542) rotate(115.67)" fill="#ebebeb"/>
        <path id="Path_44" data-name="Path 44" d="M.976-.016l.157,0A.912.912,0,0,1,2.08.9l-.035,2-2.1.035.035-2a.958.958,0,0,1,.3-.672A1.01,1.01,0,0,1,.976-.016Z" transform="translate(116.328 114.002) rotate(-64.33)" fill="#e0e0e0"/>
        <path id="Path_45" data-name="Path 45" d="M.963-.016l.157,0A.912.912,0,0,1,2.067.9l-.035,2-2.083.035.035-2A.99.99,0,0,1,.963-.016Z" transform="translate(110.02 115.277) rotate(115.67)" fill="#ebebeb"/>
        <path id="Path_46" data-name="Path 46" d="M.963-.016l.17,0A.912.912,0,0,1,2.08.9l-.035,2-2.1.035.035-2A.99.99,0,0,1,.963-.016Z" transform="translate(104.195 114.696) rotate(-64.33)" fill="#e0e0e0"/>
        <path id="Path_47" data-name="Path 47" d="M.976-.016l.157,0A.912.912,0,0,1,2.08.9l-.035,2-2.1.035.035-2A.99.99,0,0,1,.963-.016Z" transform="translate(119.296 119.926) rotate(115.67)" fill="#ebebeb"/>
        <path id="Path_48" data-name="Path 48" d="M.976-.016l.157,0A.912.912,0,0,1,2.08.9l-.035,2-2.1.035.035-2a.958.958,0,0,1,.3-.672A1.01,1.01,0,0,1,.976-.016Z" transform="translate(113.473 119.37) rotate(-64.33)" fill="#e0e0e0"/>
        <path id="Path_49" data-name="Path 49" d="M.976-.016l.157,0A.912.912,0,0,1,2.08.9L2.045,2.919l-2.1.035.035-2A.956.956,0,0,1,.275.272a1.01,1.01,0,0,1,.7-.288Z" transform="matrix(-0.433, 0.901, -0.901, -0.433, 107.676, 121.266)" fill="#ebebeb"/>
        <path id="Path_50" data-name="Path 50" d="M.976-.016l.157,0A.912.912,0,0,1,2.08.9l-.035,2-2.1.035L-.016.959A.956.956,0,0,1,.274.273a1.01,1.01,0,0,1,.7-.289Z" transform="translate(101.841 120.696) rotate(-64.33)" fill="#e0e0e0"/>
        <path id="Path_51" data-name="Path 51" d="M.976-.016l.157,0A.912.912,0,0,1,2.08.9l-.035,2-2.1.035.035-2a.958.958,0,0,1,.3-.672A1.01,1.01,0,0,1,.976-.016Z" transform="translate(116.503 125.672) rotate(115.67)" fill="#ebebeb"/>
        <path id="Path_52" data-name="Path 52" d="M.976-.016l.157,0A.912.912,0,0,1,2.08.9l-.035,2-2.1.035.035-2a.958.958,0,0,1,.3-.672A1.01,1.01,0,0,1,.976-.016Z" transform="translate(110.672 125.132) rotate(-64.33)" fill="#e0e0e0"/>
        <path id="Path_198" data-name="Path 198" d="M5.214.029l6.7.038a5.4,5.4,0,0,1,5.243,5.469l.125,23.218a5.26,5.26,0,0,1-5.184,5.41l-6.7-.038A5.4,5.4,0,0,1,.154,28.658L.029,5.44A5.26,5.26,0,0,1,5.214.029Z" transform="translate(34.21 0) rotate(7.26)" fill="#f5f5f5"/>
        <path id="Path_53" data-name="Path 53" d="M156.242,133.556c0,.029-2.224-.246-4.956-.608s-4.956-.683-4.956-.712,2.227.246,4.956.608S156.245,133.527,156.242,133.556Z" transform="translate(-112.055 -100.65)" fill="#e0e0e0"/>
        <path id="Path_54" data-name="Path 54" d="M165.622,45.613c0,.029-2.224-.243-4.956-.608s-4.956-.68-4.956-.709,2.224.243,4.956.608S165.628,45.587,165.622,45.613Z" transform="translate(-118.529 -41.167)" fill="#e0e0e0"/>
        <path id="Path_55" data-name="Path 55" d="M161.318,74.781c-.028,0,.725-6.349,1.679-14.171s1.75-14.164,1.775-14.161S164.05,52.8,163.1,60.624,161.346,74.781,161.318,74.781Z" transform="translate(-122.4 -42.626)" fill="#e0e0e0"/>
        <path id="Path_56" data-name="Path 56" d="M157,57.648l.167-1.718,1.549.168a.855.855,0,0,1,.737.948h0a.837.837,0,0,1-.9.77Z" transform="translate(-119.42 -49.038)" fill="#ebebeb"/>
        <path id="Path_57" data-name="Path 57" d="M152.934,55.645l-.167,1.718-1.549-.165a.859.859,0,0,1-.737-.948h0a.872.872,0,0,1,.3-.582.8.8,0,0,1,.607-.188Z" transform="translate(-114.917 -48.731)" fill="#e0e0e0"/>
        <path id="Path_58" data-name="Path 58" d="M182.8,60.628l.167-1.718,1.549.165a.859.859,0,0,1,.737.948h0a.872.872,0,0,1-.3.582.8.8,0,0,1-.607.188Z" transform="translate(-137.229 -51.054)" fill="#ebebeb"/>
        <path id="Path_59" data-name="Path 59" d="M178.753,58.639l-.167,1.718-1.549-.168a.855.855,0,0,1-.737-.948h0a.837.837,0,0,1,.908-.77Z" transform="translate(-132.739 -50.753)" fill="#e0e0e0"/>
        <path id="Path_60" data-name="Path 60" d="M155.32,72.408l.17-1.718,1.549.168a.855.855,0,0,1,.737.945h0a.84.84,0,0,1-.908.77Z" transform="translate(-118.26 -59.022)" fill="#ebebeb"/>
        <path id="Path_61" data-name="Path 61" d="M151.276,70.385l-.17,1.718-1.549-.168a.814.814,0,0,1-.556-.313.888.888,0,0,1-.181-.632h0a.872.872,0,0,1,.3-.582.8.8,0,0,1,.607-.188Z" transform="translate(-113.771 -58.701)" fill="#e0e0e0"/>
        <path id="Path_62" data-name="Path 62" d="M181.73,75.415l.17-1.715,1.549.165a.814.814,0,0,1,.557.314.888.888,0,0,1,.18.634h0a.872.872,0,0,1-.3.581.8.8,0,0,1-.605.189Z" transform="translate(-136.49 -61.058)" fill="#ebebeb"/>
        <path id="Path_63" data-name="Path 63" d="M177.686,73.419l-.17,1.718-1.549-.168a.814.814,0,0,1-.557-.314.888.888,0,0,1-.18-.634h0a.837.837,0,0,1,.9-.77Z" transform="translate(-132 -60.751)" fill="#e0e0e0"/>
        <path id="Path_64" data-name="Path 64" d="M153.67,87.088l.17-1.718,1.549.165a.859.859,0,0,1,.737.948h0a.872.872,0,0,1-.3.582.8.8,0,0,1-.607.188Z" transform="translate(-117.121 -68.951)" fill="#ebebeb"/>
        <path id="Path_65" data-name="Path 65" d="M149.626,85.1l-.17,1.718-1.549-.168a.815.815,0,0,1-.557-.314.888.888,0,0,1-.18-.634h0a.837.837,0,0,1,.9-.77Z" transform="translate(-112.631 -68.652)" fill="#e0e0e0"/>
        <path id="Path_66" data-name="Path 66" d="M180.66,90.178l.17-1.718,1.549.168a.855.855,0,0,1,.737.948h0a.84.84,0,0,1-.908.77Z" transform="translate(-135.752 -71.042)" fill="#ebebeb"/>
        <path id="Path_67" data-name="Path 67" d="M176.623,88.172l-.167,1.715-1.549-.165a.815.815,0,0,1-.557-.314.888.888,0,0,1-.18-.634h0a.874.874,0,0,1,.3-.59.8.8,0,0,1,.609-.194Z" transform="translate(-131.268 -70.721)" fill="#e0e0e0"/>
        <path id="Path_68" data-name="Path 68" d="M151.15,102.7l.17-1.715,1.549.165a.815.815,0,0,1,.557.314.888.888,0,0,1,.18.634h0a.872.872,0,0,1-.3.582.8.8,0,0,1-.607.188Z" transform="translate(-115.382 -79.51)" fill="#ebebeb"/>
        <path id="Path_69" data-name="Path 69" d="M147.106,100.709l-.17,1.718-1.549-.168a.855.855,0,0,1-.737-.948h0a.84.84,0,0,1,.908-.77Z" transform="translate(-110.892 -79.21)" fill="#e0e0e0"/>
        <path id="Path_70" data-name="Path 70" d="M178.17,105.478l.17-1.718,1.549.168a.815.815,0,0,1,.557.314.888.888,0,0,1,.18.634h0a.837.837,0,0,1-.9.77Z" transform="translate(-134.033 -81.39)" fill="#ebebeb"/>
        <path id="Path_71" data-name="Path 71" d="M174.126,103.5l-.17,1.715-1.549-.165a.815.815,0,0,1-.557-.314.888.888,0,0,1-.18-.634h0a.872.872,0,0,1,.3-.582.8.8,0,0,1,.607-.188Z" transform="translate(-129.543 -81.096)" fill="#e0e0e0"/>
        <path id="Path_72" data-name="Path 72" d="M150.43,119.008l.17-1.718,1.549.168a.815.815,0,0,1,.557.314.888.888,0,0,1,.18.634h0a.837.837,0,0,1-.908.77Z" transform="translate(-114.885 -90.542)" fill="#ebebeb"/>
        <path id="Path_73" data-name="Path 73" d="M146.386,117.029l-.17,1.715-1.549-.165a.815.815,0,0,1-.557-.314.888.888,0,0,1-.18-.634h0a.872.872,0,0,1,.3-.581.8.8,0,0,1,.605-.189Z" transform="translate(-110.395 -90.248)" fill="#e0e0e0"/>
        <path id="Path_74" data-name="Path 74" d="M176.14,121.665l.17-1.715,1.549.165a.815.815,0,0,1,.557.314.888.888,0,0,1,.18.634h0a.872.872,0,0,1-.3.581.8.8,0,0,1-.605.189Z" transform="translate(-132.632 -92.341)" fill="#ebebeb"/>
        <path id="Path_75" data-name="Path 75" d="M172.1,119.639l-.17,1.718-1.549-.168a.815.815,0,0,1-.557-.314.888.888,0,0,1-.18-.634h0a.837.837,0,0,1,.9-.77Z" transform="translate(-128.141 -92.014)" fill="#e0e0e0"/>
        <path id="Path_199" data-name="Path 199" d="M5.234-.071,17.783-.242a5.16,5.16,0,0,1,5.163,5.348l-.455,34.638a5.5,5.5,0,0,1-5.305,5.49l-12.549.171A5.16,5.16,0,0,1-.526,40.057L-.071,5.419A5.5,5.5,0,0,1,5.234-.071Z" transform="translate(0 20.625) rotate(-18.81)" fill="#ebebeb"/>
        <path id="Path_76" data-name="Path 76" d="M60.833,111.525a1.767,1.767,0,0,1-1.044,2.217,1.657,1.657,0,0,1-2.122-1.089,1.767,1.767,0,0,1,1.041-2.218A1.66,1.66,0,0,1,60.833,111.525Z" transform="translate(-50.791 -85.841)" fill="#fafafa"/>
        <path id="Path_77" data-name="Path 77" d="M90.6,101.362a1.767,1.767,0,0,1-1.044,2.217,1.657,1.657,0,0,1-2.122-1.089,1.767,1.767,0,0,1,1.041-2.218,1.6,1.6,0,0,1,1.279.084,1.723,1.723,0,0,1,.845,1.007Z" transform="translate(-71.34 -78.967)" fill="#fafafa"/>
        <path id="Path_78" data-name="Path 78" d="M70.263,139.185a1.767,1.767,0,0,1-1.044,2.217,1.657,1.657,0,0,1-2.122-1.089,1.767,1.767,0,0,1,1.041-2.218,1.66,1.66,0,0,1,2.125,1.091Z" transform="translate(-57.3 -104.551)" fill="#fafafa"/>
        <path id="Path_79" data-name="Path 79" d="M100.033,129.044a1.767,1.767,0,0,1-1.044,2.217,1.657,1.657,0,0,1-2.122-1.089,1.767,1.767,0,0,1,1.041-2.218,1.607,1.607,0,0,1,1.279.085,1.726,1.726,0,0,1,.846,1.006Z" transform="translate(-77.85 -97.691)" fill="#fafafa"/>
        <path id="Path_80" data-name="Path 80" d="M79.734,166.873A1.771,1.771,0,0,1,78.7,169.1a1.659,1.659,0,0,1-2.131-1.076,1.772,1.772,0,0,1,1.026-2.229,1.61,1.61,0,0,1,1.285.075A1.728,1.728,0,0,1,79.734,166.873Z" transform="translate(-63.836 -123.282)" fill="#fafafa"/>
        <path id="Path_81" data-name="Path 81" d="M109.463,156.724a1.767,1.767,0,0,1-1.044,2.217,1.657,1.657,0,0,1-2.122-1.089,1.767,1.767,0,0,1,1.041-2.218,1.607,1.607,0,0,1,1.279.085A1.725,1.725,0,0,1,109.463,156.724Z" transform="translate(-84.359 -116.414)" fill="#fafafa"/>
        <path id="Path_200" data-name="Path 200" d="M1.709-.037a1.626,1.626,0,0,1,1.672,1.68A1.806,1.806,0,0,1,1.634,3.4,1.626,1.626,0,0,1-.037,1.717,1.806,1.806,0,0,1,1.709-.037Z" transform="matrix(0.746, -0.666, 0.666, 0.746, 14.855, 52.972)" fill="#fafafa"/>
        <path id="Path_82" data-name="Path 82" d="M118.893,184.4a1.767,1.767,0,0,1-1.044,2.217,1.657,1.657,0,0,1-2.122-1.089,1.767,1.767,0,0,1,1.041-2.218A1.66,1.66,0,0,1,118.893,184.4Z" transform="translate(-90.868 -135.137)" fill="#fafafa"/>
        <path id="Path_83" data-name="Path 83" d="M62.015,111.08a9.846,9.846,0,0,1-.654,1.5,10.389,10.389,0,0,1-.771,1.437,9.483,9.483,0,0,1,.654-1.5,10.012,10.012,0,0,1,.771-1.437Z" transform="translate(-52.871 -86.342)" fill="#e0e0e0"/>
        <path id="Path_84" data-name="Path 84" d="M91.168,100.91a10.409,10.409,0,0,1-.654,1.5,10.2,10.2,0,0,1-.774,1.437,10.234,10.234,0,0,1,.654-1.5,9.836,9.836,0,0,1,.774-1.437Z" transform="translate(-72.993 -79.463)" fill="#e0e0e0"/>
        <path id="Path_85" data-name="Path 85" d="M72.018,138.76a10.283,10.283,0,0,1-.585,1.576,10.894,10.894,0,0,1-.7,1.521,19.953,19.953,0,0,1,1.288-3.1Z" transform="translate(-59.871 -105.064)" fill="#e0e0e0"/>
        <path id="Path_86" data-name="Path 86" d="M101.811,128.56a20.2,20.2,0,0,1-1.121,3.016,19.325,19.325,0,0,1,1.121-3.016Z" transform="translate(-80.551 -98.165)" fill="#e0e0e0"/>
        <path id="Path_87" data-name="Path 87" d="M80.8,166.33a9.376,9.376,0,0,1-.53,1.44,8.787,8.787,0,0,1-.654,1.388,8.981,8.981,0,0,1,.53-1.443A8.831,8.831,0,0,1,80.8,166.33Z" transform="translate(-66.007 -123.713)" fill="#e0e0e0"/>
        <path id="Path_88" data-name="Path 88" d="M110.81,156.65a8.714,8.714,0,0,1-.641,1.417,9.07,9.07,0,0,1-.759,1.353,9.05,9.05,0,0,1,.641-1.417A9.189,9.189,0,0,1,110.81,156.65Z" transform="translate(-86.57 -117.165)" fill="#e0e0e0"/>
        <path id="Path_89" data-name="Path 89" d="M90.325,194.39a9.965,9.965,0,0,1-.694,1.472,10.243,10.243,0,0,1-.812,1.4,10.138,10.138,0,0,1,.694-1.472A9.755,9.755,0,0,1,90.325,194.39Z" transform="translate(-72.358 -142.692)" fill="#e0e0e0"/>
        <path id="Path_90" data-name="Path 90" d="M120.5,183.36a11.555,11.555,0,0,1-.582,1.676,11.382,11.382,0,0,1-.709,1.618,12.139,12.139,0,0,1,.585-1.676,11.813,11.813,0,0,1,.706-1.618Z" transform="translate(-93.335 -135.232)" fill="#e0e0e0"/>
        <path id="Path_91" data-name="Path 91" d="M106.022,201.708c0,.036-2.812,1.074-6.309,2.317s-6.34,2.223-6.353,2.188,2.812-1.074,6.309-2.32S106.009,201.669,106.022,201.708Z" transform="translate(-75.491 -147.641)" fill="#e0e0e0"/>
        <path id="Path_92" data-name="Path 92" d="M65.562,90.418c0,.039-2.812,1.074-6.309,2.32s-6.34,2.223-6.353,2.188,2.819-1.084,6.309-2.32S65.549,90.382,65.562,90.418Z" transform="translate(-47.563 -72.365)" fill="#e0e0e0"/>
        <path id="Path_93" data-name="Path 93" d="M73.775,102.835a.089.089,0,0,1-.05,0H73.71l.127-.045h0a.052.052,0,0,1-.05.061c-.05.01-.068,0-.077-.019h0l.127-.042h0a.03.03,0,0,1,0,.019.073.073,0,0,1-.062.026Z" transform="translate(-61.928 -80.734)" fill="#e0e0e0"/>
        <path id="Path_94" data-name="Path 94" d="M86.11,133.245c-.034,0-2.7-8.09-5.962-18.073S74.262,97.05,74.309,97.05s2.692,8.074,5.962,18.076S86.144,133.232,86.11,133.245Z" transform="translate(-62.34 -76.852)" fill="#e0e0e0"/>
        <path id="Path_95" data-name="Path 95" d="M.006,0,15.691-.143l-.279,31.864a2.033,2.033,0,0,1-1.967,2.046l-11.793.108A1.948,1.948,0,0,1-.279,31.864L0,0Z" transform="translate(5.648 101.248) rotate(-12.04)" fill="#f5f5f5"/>
        <path id="Path_201" data-name="Path 201" d="M0,0,9.859-.09,9.731,14.578l-9.859.09Z" transform="translate(7.512 110.357) rotate(-12.04)" fill="#e0e0e0"/>
        <path id="Path_202" data-name="Path 202" d="M2.1-.019,16.749-.153a2.1,2.1,0,0,1,2.085,2.171L18.823,3.3A2.2,2.2,0,0,1,16.7,5.513L2.054,5.646A2.1,2.1,0,0,1-.03,3.475L-.019,2.19A2.2,2.2,0,0,1,2.1-.019Z" transform="translate(3.283 98.683) rotate(-12.04)" fill="#ebebeb"/>
        <path id="Path_96" data-name="Path 96" d="M52.131,344.133A48.021,48.021,0,0,1,51,338.58a24.5,24.5,0,0,1,.647,2.757,24.821,24.821,0,0,1,.483,2.8Z" transform="translate(-46.252 -240.222)" fill="#e0e0e0"/>
        <path id="Path_97" data-name="Path 97" d="M56.914,343.113a48.921,48.921,0,0,1-1.134-5.553,48.543,48.543,0,0,1,1.134,5.553Z" transform="translate(-49.551 -239.532)" fill="#e0e0e0"/>
        <path id="Path_98" data-name="Path 98" d="M61.714,342.09a23.329,23.329,0,0,1-.65-2.757,23.568,23.568,0,0,1-.483-2.793,24.289,24.289,0,0,1,.647,2.757,24.839,24.839,0,0,1,.486,2.793Z" transform="translate(-52.864 -238.842)" fill="#e0e0e0"/>
        <path id="Path_99" data-name="Path 99" d="M66.474,341.063a23.727,23.727,0,0,1-.647-2.757,24.819,24.819,0,0,1-.486-2.8A23.886,23.886,0,0,1,66,338.257a24.712,24.712,0,0,1,.477,2.806Z" transform="translate(-56.15 -238.145)" fill="#e0e0e0"/>
        <path id="Path_100" data-name="Path 100" d="M71.294,340.043a48.539,48.539,0,0,1-1.134-5.553,46.83,46.83,0,0,1,1.134,5.553Z" transform="translate(-59.477 -237.456)" fill="#e0e0e0"/>
        <path id="Path_101" data-name="Path 101" d="M76.121,339.023A44.016,44.016,0,0,1,75,333.47a24.51,24.51,0,0,1,.635,2.76A24.824,24.824,0,0,1,76.121,339.023Z" transform="translate(-62.818 -236.766)" fill="#e0e0e0"/>
        <path id="Path_102" data-name="Path 102" d="M80.884,338a23.517,23.517,0,0,1-.647-2.757,24.84,24.84,0,0,1-.486-2.793,23.73,23.73,0,0,1,.647,2.767A24.846,24.846,0,0,1,80.884,338Z" transform="translate(-66.097 -236.076)" fill="#e0e0e0"/>
        <path id="Path_103" data-name="Path 103" d="M85.681,336.973a24.506,24.506,0,0,1-.647-2.757,23.452,23.452,0,0,1-.483-2.8A24.687,24.687,0,0,1,85.2,334.2a23.568,23.568,0,0,1,.483,2.776Z" transform="translate(-69.41 -235.379)" fill="#e0e0e0"/>
        <path id="Path_104" data-name="Path 104" d="M90.474,335.926a23.731,23.731,0,0,1-.647-2.77,24,24,0,0,1-.486-2.8,48.387,48.387,0,0,1,1.134,5.566Z" transform="translate(-72.716 -234.662)" fill="#e0e0e0"/>
        <path id="Path_105" data-name="Path 105" d="M95.264,334.919a49.028,49.028,0,0,1-1.134-5.56,23.727,23.727,0,0,1,.647,2.757A24,24,0,0,1,95.264,334.919Z" transform="translate(-76.023 -233.986)" fill="#e0e0e0"/>
        <path id="Path_106" data-name="Path 106" d="M100.061,333.913a24.688,24.688,0,0,1-.647-2.76,23.57,23.57,0,0,1-.483-2.793,24.5,24.5,0,0,1,.647,2.757A23.576,23.576,0,0,1,100.061,333.913Z" transform="translate(-79.336 -233.309)" fill="#e0e0e0"/>
        <path id="Path_107" data-name="Path 107" d="M104.854,332.89a23.517,23.517,0,0,1-.647-2.757,24.839,24.839,0,0,1-.486-2.793,23.731,23.731,0,0,1,.647,2.757A24.845,24.845,0,0,1,104.854,332.89Z" transform="translate(-82.643 -232.619)" fill="#e0e0e0"/>
        <path id="Path_108" data-name="Path 108" d="M.979.009,1.86.016a.971.971,0,0,1,.977.939l.027,2.985L.036,3.916.009.937A.93.93,0,0,1,.969.015Z" transform="translate(14.912 131.598) rotate(-102.04)" fill="#ebebeb"/>
        <path id="Path_109" data-name="Path 109" d="M.975.009l.882.008a.971.971,0,0,1,.977.939l.027,2.989L.036,3.92.008.931A.9.9,0,0,1,.289.273.973.973,0,0,1,.975.009Z" transform="translate(21.575 127.228) rotate(77.96)" fill="#e0e0e0"/>
        <path id="Path_110" data-name="Path 110" d="M.942,0h.846a.949.949,0,0,1,.929.97l0,3.129L0,4.1,0,.984a1,1,0,0,1,.273-.7A.91.91,0,0,1,.942,0Z" transform="translate(23.446 122.088) rotate(179.14)" fill="#ebebeb"/>
        <path id="Path_111" data-name="Path 111" d="M.942,0h.846a.949.949,0,0,1,.929.97l0,3.116L0,4.087,0,.971A.952.952,0,0,1,.929,0Z" transform="translate(20.599 114.422) rotate(-0.86)" fill="#e0e0e0"/>
        <path id="Path_112" data-name="Path 112" d="M.953-.019l.856-.017a.907.907,0,0,1,.922.941l-.059,3.08L-.078,4.04-.019.966A1.008,1.008,0,0,1,.272.273.968.968,0,0,1,.953-.019Z" transform="translate(26.501 128.463) rotate(148.64)" fill="#ebebeb"/>
        <path id="Path_113" data-name="Path 113" d="M.94-.018,1.8-.035a.907.907,0,0,1,.922.941l-.059,3.08L-.078,4.04-.018.96A1,1,0,0,1,.94-.018Z" transform="translate(20.338 123.355) rotate(-31.36)" fill="#e0e0e0"/>
        <path id="Path_114" data-name="Path 114" d="M.98,0l.883,0a.94.94,0,0,1,.966.925L2.814,3.9l-2.833.013L0,.93A.962.962,0,0,1,.97,0Z" transform="translate(13.432 126.68) rotate(-83.66)" fill="#ebebeb"/>
        <path id="Path_115" data-name="Path 115" d="M.977,0l.883,0a.94.94,0,0,1,.966.925L2.811,3.9l-2.83.013L0,.933A.919.919,0,0,1,.284.27,1,1,0,0,1,.977,0Z" transform="translate(21.07 124.717) rotate(96.34)" fill="#e0e0e0"/>
        <path id="Path_116" data-name="Path 116" d="M1.175.006h.149A1.216,1.216,0,0,1,2.5,1.239l.012,2.286a.241.241,0,0,1-.237.248L.258,3.762a.247.247,0,0,1-.24-.25L.006,1.226A1.186,1.186,0,0,1,1.175.006Z" transform="matrix(-0.993, -0.121, 0.121, -0.993, 89.083, 58.543)" fill="#ebebeb"/>
        <path id="Path_117" data-name="Path 117" d="M1.169.022h.149A1.216,1.216,0,0,1,2.5,1.255L2.51,3.542a.241.241,0,0,1-.237.248L.258,3.779a.247.247,0,0,1-.24-.25l-.012-2.3A1.186,1.186,0,0,1,1.175.006Z" transform="matrix(0.993, 0.121, -0.121, 0.993, 87.438, 51.172)" fill="#e0e0e0"/>
        <path id="Path_118" data-name="Path 118" d="M1.2-.019l.134,0a1.156,1.156,0,0,1,1.163,1.2L2.46,3.452a.253.253,0,0,1-.244.251L.183,3.736a.235.235,0,0,1-.236-.244l.035-2.27a1.247,1.247,0,0,1,1.2-1.237Z" transform="matrix(-0.923, 0.385, -0.385, -0.923, 94.829, 135.252)" fill="#ebebeb"/>
        <path id="Path_119" data-name="Path 119" d="M1.182-.019l.15,0a1.157,1.157,0,0,1,1.163,1.2L2.46,3.452a.253.253,0,0,1-.244.251L.183,3.736a.235.235,0,0,1-.236-.244l.035-2.273A1.247,1.247,0,0,1,1.182-.019Z" transform="matrix(0.923, -0.385, 0.385, 0.923, 89.888, 129.738)" fill="#e0e0e0"/>
      </g>
      <g id="freepik--Table--inject-152" transform="translate(0.412 146.796)">
        <path id="Path_120" data-name="Path 120" d="M163.529,476.541c0,.1-28.331.175-63.269.175S37,476.639,37,476.541s28.322-.172,63.272-.172S163.529,476.448,163.529,476.541Z" transform="translate(-37 -476.37)" fill="#263238"/>
      </g>
      <g id="freepik--speech-bubbles--inject-152" transform="translate(72.819 0)">
        <path id="Path_121" data-name="Path 121" d="M335.7,87.711l-5.817-6.291-1.446,9.951-7.793-.275,4.878,6.692-4.906,6.724,8.124-1.673,1.174,8.543,6.569-5.2,8.282,4.53-1.812-8.741,9.4-1.547-7.31-4.508,4.262-7.679L342,91.222l-.886-9.469Z" transform="translate(-305.18 -62.431)" fill="#fff"/>
        <path id="Path_122" data-name="Path 122" d="M335.2,87.481s.121-.123.356-.379.592-.647,1.05-1.139l4.027-4.407-.081-.029c.235,2.589.53,5.773.867,9.475v.091l.081-.036,7.31-2.971-.1-.116-4.268,7.673-.043.078.074.045,7.307,4.53.031-.181-9.4,1.54h-.1l.022.107c.576,2.786,1.186,5.737,1.812,8.737l.142-.113-7.173-3.929-1.087-.6-.056-.029-.053.039-6.566,5.2.158.068q-.6-4.369-1.177-8.54l-.016-.107-.1.019-8.124,1.68.093.155q2.546-3.5,4.9-6.731l.04-.058-.04-.055-4.881-6.682-.065.133,7.79.262H328v-.061c.561-3.922,1.038-7.255,1.425-9.957l-.081.026,4.364,4.689,1.118,1.191.378.395s-.127-.146-.378-.421l-1.109-1.217-4.3-4.7-.068-.074v.1c-.4,2.7-.889,6.035-1.468,9.951l.071-.061-7.793-.285h-.167l.1.139,4.869,6.7v-.113l-4.922,6.718-.152.2.242-.049,8.127-1.67-.115-.084,1.171,8.54.025.175.136-.107,6.554-5.2h-.105l1.106.605,7.177,3.925.192.1-.046-.22c-.619-3.006-1.239-5.954-1.815-8.737l-.081.123,9.4-1.55.257-.045-.226-.136-7.3-4.488.031.123,4.256-7.682.111-.2-.208.087-7.3,2.993.09.058c-.356-3.7-.663-6.9-.907-9.469v-.107l-.068.078-4,4.414-1.041,1.162C335.321,87.338,335.2,87.481,335.2,87.481Z" transform="translate(-304.676 -62.201)" fill="#263238"/>
        <path id="Path_123" data-name="Path 123" d="M311.255,129.525a1.739,1.739,0,1,1-1.735-1.815,1.7,1.7,0,0,1,1.228.532A1.854,1.854,0,0,1,311.255,129.525Z" transform="translate(-296.317 -93.741)" fill="#fff"/>
        <path id="Path_124" data-name="Path 124" d="M311.117,129.4A2.008,2.008,0,0,0,310.4,128a1.7,1.7,0,0,0-.712-.324,1.641,1.641,0,0,0-.883.084,1.67,1.67,0,0,0-.777.612,1.822,1.822,0,0,0-.25,1.543,1.727,1.727,0,0,0,1.027,1.139,1.629,1.629,0,0,0,1.6-.243,1.8,1.8,0,0,0,.635-.971c.071-.275.065-.437.077-.437s0,.039,0,.117a1.628,1.628,0,0,1-.04.324,1.827,1.827,0,0,1-.619,1.029,1.717,1.717,0,0,1-1.691.282,1.787,1.787,0,0,1-.836-.647,1.935,1.935,0,0,1,0-2.22,1.786,1.786,0,0,1,.836-.647,1.729,1.729,0,0,1,.929-.074,1.784,1.784,0,0,1,1.375,1.385,1.6,1.6,0,0,1,.04.324C311.117,129.362,311.117,129.4,311.117,129.4Z" transform="translate(-296.179 -93.62)" fill="#263238"/>
        <path id="Path_125" data-name="Path 125" d="M357.77,118.075h1.31a1.2,1.2,0,0,1,.337-.844,1.1,1.1,0,0,1,.815-.334,1.066,1.066,0,0,1,1.035.712,1.291,1.291,0,0,1-.1,1.116,1.4,1.4,0,0,1-1.6.57v3.11h1.3v-1.822a2.649,2.649,0,0,0,1.827-2.589,2.413,2.413,0,0,0-2.478-2.485A2.283,2.283,0,0,0,357.77,118.075Z" transform="translate(-330.823 -85.489)" fill="#263238"/>
        <rect id="Rectangle_7" data-name="Rectangle 7" width="1.323" height="1.291" transform="translate(28.753 37.554)" fill="#263238"/>
        <path id="Path_126" data-name="Path 126" d="M281.941,27.386l-4.11-4.446-1.022,7.032-5.507-.194,3.447,4.728-3.469,4.754,5.742-1.181.83,6.035L282.5,40.44l5.854,3.2-1.282-6.181,6.641-1.094-5.166-3.184,3.014-5.427-5.163,2.11-.629-6.692Z" transform="translate(-271.122 -22.875)" fill="#fff"/>
        <path id="Path_127" data-name="Path 127" d="M281.589,27.251l.251-.269.743-.8c.654-.718,1.617-1.767,2.853-3.116l-.056-.019c.167,1.815.375,4.081.619,6.7V29.8l.059-.023,5.163-2.1-.068-.084c-.929,1.676-1.945,3.5-3.017,5.424l-.031.055.053.032,5.163,3.191.025-.129L286.7,37.257h-.071v.074c.409,1.968.839,4.052,1.279,6.178l.1-.081-5.07-2.773-.784-.43-.04-.019-.034.026-4.646,3.676.112.049c-.282-2.058-.561-4.074-.83-6.035v-.074h-.071l-5.742,1.188.065.107q1.8-2.472,3.463-4.757l.031-.039-.031-.039-3.441-4.686-.046.094,5.507.188h.043v-.042c.4-2.77.734-5.126,1.007-7.035l-.056.016,3.076,3.3.793.845.266.278-.266-.3-.784-.861c-.694-.754-1.713-1.867-3.035-3.314l-.05-.052v.071c-.282,1.909-.619,4.265-1.038,7.032l.05-.042-5.5-.2h-.115l.071.1q1.617,2.23,3.441,4.731v-.078l-3.478,4.734-.105.146.17-.036,5.742-1.178-.081-.061.827,6.035.019.126.1-.078,4.646-3.673h-.077l.784.43,5.07,2.773.133.071-.031-.152c-.44-2.126-.873-4.207-1.282-6.181l-.059.087,6.644-1.094.18-.032-.158-.1-5.166-3.181.022.087c1.065-1.922,2.075-3.751,3-5.43l.081-.142-.149.061-5.166,2.123.062.042c-.251-2.615-.468-4.877-.641-6.692V22.96l-.05.055-2.815,3.129c-.31.359-.567.647-.734.819A2.823,2.823,0,0,0,281.589,27.251Z" transform="translate(-270.77 -22.74)" fill="#263238"/>
        <path id="Path_128" data-name="Path 128" d="M276.408,86.084a1.24,1.24,0,1,1-1.239-1.294A1.268,1.268,0,0,1,276.408,86.084Z" transform="translate(-272.951 -64.71)" fill="#fff"/>
        <path id="Path_129" data-name="Path 129" d="M276.359,86.013a1.417,1.417,0,0,0-.056-.324,1.271,1.271,0,0,0-.449-.683,1.153,1.153,0,0,0-.5-.23,1.164,1.164,0,0,0-1.168.492,1.281,1.281,0,0,0,0,1.463,1.161,1.161,0,0,0,1.676.262,1.3,1.3,0,0,0,.449-.686c.05-.194.046-.307.056-.307a.335.335,0,0,1,0,.081.927.927,0,0,1-.025.236,1.3,1.3,0,0,1-.446.735,1.2,1.2,0,0,1-1.2.2,1.26,1.26,0,0,1-.592-.46,1.369,1.369,0,0,1-.193-1.17,1.3,1.3,0,0,1,.785-.859,1.218,1.218,0,0,1,.666-.052,1.261,1.261,0,0,1,.53.252,1.3,1.3,0,0,1,.443.728.916.916,0,0,1,.025.233.339.339,0,0,1,0,.091Z" transform="translate(-272.903 -64.639)" fill="#263238"/>
        <path id="Path_130" data-name="Path 130" d="M299.23,48.05h.929a.831.831,0,0,1,.233-.587.76.76,0,0,1,.566-.232.737.737,0,0,1,.719.492.891.891,0,0,1-.065.777.975.975,0,0,1-1.115.4v2.162h.908V49.794a1.847,1.847,0,0,0,1.273-1.809,1.676,1.676,0,0,0-1.719-1.725A1.6,1.6,0,0,0,299.23,48.05Z" transform="translate(-290.415 -38.649)" fill="#263238"/>
        <rect id="Rectangle_8" data-name="Rectangle 8" width="0.92" height="0.896" transform="translate(10.069 12.854)" fill="#263238"/>
      </g>
      <g id="freepik--Character--inject-152" transform="translate(2.765 18.715)">
        <path id="Path_131" data-name="Path 131" d="M193.551,85.267a3.581,3.581,0,0,1,3.3-2.563,4.717,4.717,0,0,1,5.913-1.023,4.2,4.2,0,0,1,4.179-.888,4.46,4.46,0,0,1,2.886,3.28,3.522,3.522,0,0,1,4.049,1.246,3.914,3.914,0,0,1,.157,4.407,3.654,3.654,0,0,1-.2,7.226L194.93,89.319A3.806,3.806,0,0,1,193.551,85.267Z" transform="translate(-147.323 -80.573)" fill="#263238"/>
        <path id="Path_132" data-name="Path 132" d="M201.064,108.6a14.744,14.744,0,0,0-16.933-11.142l-.75.146c-8.01,2.065-10.807,10.323-8.611,18.633l6.176,27.943,1.741,3.327,13.1,6.258,4.1-6.5-.554-8.592s7.561-2.773,6.213-10.922C204.9,123.8,202.929,115.81,201.064,108.6Z" transform="translate(-133.953 -91.816)" fill="#ffbf9d"/>
        <path id="Path_133" data-name="Path 133" d="M231.941,222.872a18.425,18.425,0,0,1-10.751-1.142s3.187,5.459,10.822,3.236Z" transform="translate(-166.493 -176.051)" fill="#ff9a6c"/>
        <path id="Path_134" data-name="Path 134" d="M253.366,155.252a1.181,1.181,0,0,1-.864,1.379,1.038,1.038,0,0,1-.831-.119,1.123,1.123,0,0,1-.5-.706,1.182,1.182,0,0,1,.861-1.379,1.038,1.038,0,0,1,.833.118A1.124,1.124,0,0,1,253.366,155.252Z" transform="translate(-187.175 -130.501)" fill="#263238"/>
        <path id="Path_135" data-name="Path 135" d="M248.838,145.2c-.108.178-1.069-.324-2.264-.078s-1.961,1.032-2.115.9c-.077-.055,0-.356.347-.718a3.029,3.029,0,0,1,1.66-.913,2.874,2.874,0,0,1,1.837.249C248.724,144.857,248.894,145.106,248.838,145.2Z" transform="translate(-182.536 -123.707)" fill="#263238"/>
        <path id="Path_136" data-name="Path 136" d="M220.579,163.044a1.181,1.181,0,0,1-.864,1.379,1.038,1.038,0,0,1-.833-.118,1.124,1.124,0,0,1-.5-.707,1.182,1.182,0,0,1,.861-1.379,1.044,1.044,0,0,1,.834.119A1.13,1.13,0,0,1,220.579,163.044Z" transform="translate(-164.541 -135.771)" fill="#263238"/>
        <path id="Path_137" data-name="Path 137" d="M211.8,151.48c-.111.178-1.069-.324-2.264-.074s-1.961,1.032-2.119.9c-.074-.055.015-.356.35-.722a3.056,3.056,0,0,1,1.66-.909,2.874,2.874,0,0,1,1.837.249C211.681,151.15,211.854,151.393,211.8,151.48Z" transform="translate(-156.968 -127.955)" fill="#263238"/>
        <path id="Path_138" data-name="Path 138" d="M234.3,157.97a7.724,7.724,0,0,1,1.877-.741c.31-.094.579-.214.592-.44a1.928,1.928,0,0,0-.372-.906l-1.335-2.265a44.145,44.145,0,0,1-3.156-5.961,42.667,42.667,0,0,1,3.608,5.682l1.3,2.265a1.933,1.933,0,0,1,.381,1.223.814.814,0,0,1-.418.563,2.069,2.069,0,0,1-.5.175A7.175,7.175,0,0,1,234.3,157.97Z" transform="translate(-173.882 -125.947)" fill="#263238"/>
        <path id="Path_139" data-name="Path 139" d="M242.672,133.225c.266-.236,1.028.233,2.013.456s1.858.2,1.995.534c.059.162-.13.417-.548.608a2.892,2.892,0,0,1-3.227-.8C242.61,133.658,242.554,133.344,242.672,133.225Z" transform="translate(-181.281 -116.143)" fill="#263238"/>
        <path id="Path_140" data-name="Path 140" d="M194.876,102.339s-2.958-4.7-5.519-5.427c-3.1-.887-3.745,2.611-6.6,2.346s-5.814-1.12-8.2,1.618c-2.608,2.984-.886,4.391-.434,8.035,1.84,14.776.015,19.416-1.936,12.659-.214-.741-2.323-.951-3.187-4.084-1.121-4.061-2.168-9.061-1.8-12.158a12,12,0,0,1,3.438-6.945c3.292-3.725,8.527-4.806,12.16-5.123S194.068,95.9,194.876,102.339Z" transform="translate(-129.178 -89.14)" fill="#263238"/>
        <path id="Path_141" data-name="Path 141" d="M173.736,176.09a2.244,2.244,0,0,0-.986-1.436,2.07,2.07,0,0,0-1.675-.247c-1.425.424-2.887,1.6-2.233,4.715,1.155,5.527,6.229,3.171,6.195,3.013C175.018,182.024,174.229,178.4,173.736,176.09Z" transform="translate(-130.248 -143.989)" fill="#ffbf9d"/>
        <path id="Path_142" data-name="Path 142" d="M177.664,184.153c-.028,0-.077.091-.22.2a.9.9,0,0,1-.685.172c-.619-.087-1.267-.906-1.5-1.9a3.424,3.424,0,0,1-.031-1.437,1.142,1.142,0,0,1,.539-.9.461.461,0,0,1,.6.139c.105.139.093.256.124.259s.093-.12,0-.324a.593.593,0,0,0-.282-.3.669.669,0,0,0-.539-.026,1.379,1.379,0,0,0-.781,1.078,3.455,3.455,0,0,0,0,1.618c.266,1.107,1.028,2.023,1.843,2.081a.985.985,0,0,0,.812-.34C177.683,184.289,177.683,184.16,177.664,184.153Z" transform="translate(-134.464 -147.827)" fill="#ff9a6c"/>
        <path id="Path_143" data-name="Path 143" d="M165.977,106.956a4.929,4.929,0,0,0,2.447.647,1.8,1.8,0,0,0,1.7-1.65c0-.4-.177-.828.015-1.175.226-.414.784-.408,1.239-.443a3.539,3.539,0,0,0,3.073-3.236,1.415,1.415,0,0,0,1.945-.184,7.942,7.942,0,0,0,1.161-1.9,2.143,2.143,0,0,1,1.657-1.294,5.031,5.031,0,0,0,1.2.039c.688-.2.877-1.12.852-1.864s-.09-1.618.431-2.116a2.654,2.654,0,0,1,1.9-.424c.657-.026,1.462-.343,1.508-1.032a1.364,1.364,0,0,0-.415-.971,3.4,3.4,0,0,0-4.311-.573,4.715,4.715,0,0,0-4.6-2.693,4.8,4.8,0,0,0-4.145,3.411,4.64,4.64,0,0,0-4.446-.34,4.994,4.994,0,0,0-2.811,3.615A3.467,3.467,0,0,0,161,96.741a3.782,3.782,0,0,0,.419,4.005,3.535,3.535,0,0,0-1.313,3.061,1.9,1.9,0,0,0,2.478,1.582,2.043,2.043,0,0,0,1.217,2.457,1.909,1.909,0,0,0,2.425-1.111" transform="translate(-124.31 -85.645)" fill="#263238"/>
        <path id="Path_144" data-name="Path 144" d="M166.878,140.423a1.436,1.436,0,0,0,.52,1,1.691,1.691,0,0,0,1.186.459,1.855,1.855,0,0,0,1.425-.754h-.232a5.549,5.549,0,0,0,1.31,1.181,3.019,3.019,0,0,0,1.09.437,2.015,2.015,0,0,0,1.09-.1,2.168,2.168,0,0,0,1.388-1.194,3.4,3.4,0,0,0,.223-1.239,1.123,1.123,0,0,0-.037-.456c-.025,0-.043.159-.084.447a3.814,3.814,0,0,1-.31,1.152,2.158,2.158,0,0,1-3.184.7,5.649,5.649,0,0,1-1.239-1.1l-.124-.146-.108.155a1.611,1.611,0,0,1-1.208.673,1.54,1.54,0,0,1-1.056-.343A2.7,2.7,0,0,1,166.878,140.423Z" transform="translate(-129 -120.607)" fill="#455a64"/>
        <path id="Path_145" data-name="Path 145" d="M192.07,89.58c0,.019.146,0,.4.071a1.841,1.841,0,0,1,.957.573l.081.094.056-.117a7,7,0,0,1,2.2-2.676,5.148,5.148,0,0,1,2.01-.883,4.219,4.219,0,0,1,2.373.233,4.455,4.455,0,0,1,1.577,1.071,3.822,3.822,0,0,1,.883,1.56l.05.175.152-.078a2.913,2.913,0,0,1,2.261-.149,3.011,3.011,0,0,1,1.453,1.12,4.364,4.364,0,0,1,.619,1.582,1.223,1.223,0,0,0,0-.466,3.2,3.2,0,0,0-1.979-2.472,3.124,3.124,0,0,0-2.478.113l.2.1a4.143,4.143,0,0,0-.929-1.705,4.7,4.7,0,0,0-1.685-1.152,4.459,4.459,0,0,0-2.54-.239,5.311,5.311,0,0,0-2.109.971,6.832,6.832,0,0,0-2.184,2.835l.136-.023a1.81,1.81,0,0,0-1.062-.544.775.775,0,0,0-.443.01Z" transform="translate(-146.392 -84.41)" fill="#455a64"/>
        <path id="Path_146" data-name="Path 146" d="M264.2,182.138h0l-.043-.346h0a1.126,1.126,0,0,0-.4-.745,1.033,1.033,0,0,0-.79-.226L255,181.9a11.841,11.841,0,0,0-1.9.453l-4.469,1.395-1.93.366.474.466,1.53-.207,4.661.168a11.967,11.967,0,0,0,1.945-.065l7.969-1.074a1.057,1.057,0,0,0,.712-.429A1.15,1.15,0,0,0,264.2,182.138Z" transform="translate(-184.102 -148.375)" fill="#455a64"/>
        <path id="Path_147" data-name="Path 147" d="M281.4,183.777a1.375,1.375,0,0,1,.186-.065,1,1,0,0,0,.431-.346,1.057,1.057,0,0,0,.149-.858.944.944,0,0,0-.787-.728,3.162,3.162,0,0,0-.669.065l-.74.1-1.635.23-3.748.511a.885.885,0,0,0-.694.544,1.07,1.07,0,0,0,.053.893.892.892,0,0,0,.694.456,2.244,2.244,0,0,0,.431-.036l.44-.058,3.063-.395,2.066-.249.564-.058a.77.77,0,0,1,.2,0,.939.939,0,0,1-.2.042l-.558.094-2.063.3-3.057.43-.437.062a2.354,2.354,0,0,1-.465.039,1.046,1.046,0,0,1-.824-.537,1.191,1.191,0,0,1-.143-.508,1.114,1.114,0,0,1,.081-.54,1.06,1.06,0,0,1,.824-.647l3.751-.5,1.635-.21.743-.094a3.193,3.193,0,0,1,.7-.055,1.032,1.032,0,0,1,.861.832,1.129,1.129,0,0,1-.186.919.97.97,0,0,1-.474.324A.566.566,0,0,1,281.4,183.777Z" transform="translate(-202.706 -148.951)" fill="#263238"/>
        <path id="Path_203" data-name="Path 203" d="M.631,0,4.418-.025a.636.636,0,0,1,.627.654.654.654,0,0,1-.634.662L.624,1.313A.636.636,0,0,1,0,.658.654.654,0,0,1,.631,0Z" transform="translate(71.668 34.065) rotate(-7.34)" fill="#fff"/>
        <path id="Path_148" data-name="Path 148" d="M296.054,183.488a.909.909,0,0,0-.331-.447.6.6,0,0,0-.554,0,.6.6,0,0,0-.3.6.587.587,0,0,0,.436.5.577.577,0,0,0,.536-.142.938.938,0,0,0,.229-.521.324.324,0,0,1,.031.168.662.662,0,0,1-.177.44.687.687,0,0,1-.65.214.738.738,0,0,1-.567-.639.759.759,0,0,1,.393-.768.673.673,0,0,1,.96.411C296.073,183.423,296.063,183.484,296.054,183.488Z" transform="translate(-217.235 -149.734)" fill="#263238"/>
        <path id="Path_149" data-name="Path 149" d="M237.1,191.395a7.2,7.2,0,0,0-.554-.812,2.73,2.73,0,0,0-.827-.6,3.072,3.072,0,0,0-1.2-.275,6.047,6.047,0,0,0-2.258.437,3.322,3.322,0,0,1-.945.3c-.015-.049.31-.256.855-.527a5.046,5.046,0,0,1,2.36-.557,3.03,3.03,0,0,1,1.323.324,2.668,2.668,0,0,1,.873.725C237.119,190.951,237.135,191.395,237.1,191.395Z" transform="translate(-173.477 -154.155)" fill="#263238"/>
        <path id="Path_150" data-name="Path 150" d="M99.708,235.543l10.689.123,2.992-.971,3.333.828,4.727-.22,4.027-.586s4.609,7.792,10.791,7.365,8.716-8.223,8.716-8.223l15.211,4.207,1.394,22.613L160.1,288.452l3.079,23.927H112.2l-.427-26.723-2.515-24.772-12.588-2.709-2.552-1.534Z" transform="translate(-78.781 -184.256)" fill="#09877c"/>
        <path id="Path_151" data-name="Path 151" d="M212.732,236.56a1.193,1.193,0,0,1-.05.324l-.087.392a3.853,3.853,0,0,1-.142.527,12.148,12.148,0,0,1-1.477,3.139,10.9,10.9,0,0,1-.669.932c-.235.324-.523.621-.805.942a7.986,7.986,0,0,1-.963.906c-.173.146-.347.3-.53.443l-.573.414a12.266,12.266,0,0,1-2.63,1.391,10.786,10.786,0,0,1-6.244.5,12.235,12.235,0,0,1-2.788-.971l-.619-.324c-.2-.113-.393-.236-.585-.353-.393-.22-.734-.5-1.084-.744a7.039,7.039,0,0,1-.929-.8,9.707,9.707,0,0,1-.793-.819,11.837,11.837,0,0,1-1.914-2.867,4.146,4.146,0,0,1-.22-.5l-.142-.375a1.123,1.123,0,0,1-.1-.324,1.185,1.185,0,0,1,.158.288l.17.356a4.259,4.259,0,0,0,.245.479,12.812,12.812,0,0,0,1.97,2.764c.229.275.517.515.793.786s.619.508.929.77a6.621,6.621,0,0,0,1.069.715c.189.11.378.23.576.324l.619.307a12.153,12.153,0,0,0,2.738.916,11.325,11.325,0,0,0,8.673-1.825l.564-.4c.18-.139.35-.288.523-.427.35-.269.644-.592.951-.874a7.755,7.755,0,0,0,.805-.909q.356-.434.669-.9a12.959,12.959,0,0,0,1.549-3.039,4.928,4.928,0,0,0,.173-.515c.043-.146.081-.275.115-.382A1.384,1.384,0,0,1,212.732,236.56Z" transform="translate(-144.542 -186.082)" fill="#263238"/>
        <path id="Path_152" data-name="Path 152" d="M304.18,245.91s5.8,1.757,7.836,5.284c4.1,7.1,13.566,24.539,13.827,24.675.31.168-14.994,7.7-14.994,7.7l-6.669-9.313Z" transform="translate(-223.778 -192.406)" fill="#09877c"/>
        <path id="Path_153" data-name="Path 153" d="M309.367,283.81c.093,0-.046,7.766-.31,17.335s-.548,17.335-.641,17.332.046-7.766.31-17.342S309.274,283.807,309.367,283.81Z" transform="translate(-226.682 -218.042)" fill="#263238"/>
        <g id="Group_5" data-name="Group 5" transform="translate(45.475 88.139)" opacity="0.3">
          <path id="Path_154" data-name="Path 154" d="M191.46,352.94a7.719,7.719,0,0,0,3.853,7.595,7.886,7.886,0,0,1,1.691.971,7.292,7.292,0,0,1,1.285,2.081,8.834,8.834,0,0,0,7.313,4.7c2.416.091,4.748-.864,7.146-1.149,5-.589,10.311,2.155,14.849,4.417l-.335-2.589.108-2.514-14.6-7.876-12.411-3.213Z" transform="translate(-191.414 -352.94)"/>
        </g>
        <g id="Group_6" data-name="Group 6" transform="translate(52.947 50.717)" opacity="0.3">
          <path id="Path_155" data-name="Path 155" d="M237.578,262.69c-3.073-2.333-7.012-1.032-10.484-1.463l-.161-.023-.263-.052a5.268,5.268,0,0,1-.536-.146l-.232-.091h0l-.108-.055a3.519,3.519,0,0,1-.443-.275h0l-.056-.045c-.084-.074-.17-.146-.251-.223a5.07,5.07,0,0,1-.427-.437,3.373,3.373,0,0,1-.576-.874,2.021,2.021,0,0,1-.118-1.33,3.376,3.376,0,0,1,.709-1.294,17.567,17.567,0,0,1,1.344-1.272A6.524,6.524,0,0,0,227.9,251.1a6.3,6.3,0,0,0,0-1.324,5.7,5.7,0,0,0,3.438-3.236l2.227-9.061-.666-.184-3.28,8.478a3.784,3.784,0,0,1-2.664,2.25,3.635,3.635,0,0,1-3.3-.956l-3.017-2.692-2.122.356,3.9,3.754a5.424,5.424,0,0,0,3.779,1.54h.1a2.282,2.282,0,0,0,.449-.029,5.4,5.4,0,0,1-.759,3.191,6.142,6.142,0,0,1-1.347,1.482,7.188,7.188,0,0,0-1.239,1.343,3.541,3.541,0,0,0-.5,3.3,5.062,5.062,0,0,0,2.438,2.647,10.46,10.46,0,0,0,4.795.508,14.833,14.833,0,0,1,5.207.392,5.348,5.348,0,0,1,2.094,1.256,6.849,6.849,0,0,1,1.6,2.7,8.65,8.65,0,0,1,.242,4.854,11.5,11.5,0,0,1-14.827,8.161c-1.239-.421-2.413-1.006-3.6-1.524l-4.308-1.877-.273-.12a.577.577,0,0,0-.706.421.616.616,0,0,0,.4.738l7.245,3.155a12.593,12.593,0,0,0,13.851-2.7,12.194,12.194,0,0,0,3.633-8.181A8.882,8.882,0,0,0,237.578,262.69Z" transform="translate(-215.54 -237.3)"/>
        </g>
        <path id="Path_156" data-name="Path 156" d="M137.975,269.73c.09,0,.756,5.805,1.484,12.989s1.239,13.015,1.152,13.025-.756-5.805-1.484-12.989S137.879,269.74,137.975,269.73Z" transform="translate(-109.044 -208.518)" fill="#263238"/>
        <path id="Path_157" data-name="Path 157" d="M149.664,252.47a8.138,8.138,0,0,1-.152-1.573c-.059-.971-.142-2.336-.232-3.8s-.2-2.789-.273-3.8a7.168,7.168,0,0,1-.053-1.582,6.685,6.685,0,0,1,.288,1.557c.13.971.269,2.311.369,3.8s.136,2.838.136,3.815A6.757,6.757,0,0,1,149.664,252.47Z" transform="translate(-116.614 -189.572)" fill="#263238"/>
        <path id="Path_158" data-name="Path 158" d="M216.581,413.52a1.359,1.359,0,0,1-.269.2c-.18.116-.449.288-.8.5s-.777.476-1.285.76-1.078.621-1.731.951-1.36.712-2.137,1.081-1.611.751-2.493,1.142c-1.775.76-3.754,1.527-5.866,2.223s-4.166,1.226-6.04,1.657c-.929.2-1.831.4-2.673.54s-1.626.278-2.345.382-1.372.178-1.945.243-1.065.113-1.471.139-.719.049-.929.058a1.189,1.189,0,0,1-.325,0,1.106,1.106,0,0,1,.31-.068q.316-.049.929-.126c.409-.052.9-.107,1.462-.194s1.22-.165,1.933-.294,1.5-.249,2.329-.424,1.722-.359,2.658-.566c1.858-.447,3.9-1,6.006-1.68s4.076-1.447,5.851-2.184c.88-.385,1.722-.741,2.5-1.113s1.493-.709,2.143-1.036,1.239-.647,1.75-.9.954-.508,1.31-.709.638-.346.83-.447A1.127,1.127,0,0,1,216.581,413.52Z" transform="translate(-142.389 -305.777)" fill="#263238"/>
        <g id="Group_7" data-name="Group 7" transform="translate(27.245 60.157)" opacity="0.3">
          <path id="Path_159" data-name="Path 159" d="M134.384,266.47a25.1,25.1,0,0,0-1.824,8.572,11.394,11.394,0,0,0,3.1,7.909C135.031,277.511,134.554,271.949,134.384,266.47Z" transform="translate(-132.559 -266.47)"/>
        </g>
        <g id="Group_8" data-name="Group 8" transform="translate(82.068 67.273)" opacity="0.3">
          <path id="Path_160" data-name="Path 160" d="M309.56,306.756a23.37,23.37,0,0,0,.341-18.3Z" transform="translate(-309.56 -288.46)"/>
        </g>
        <g id="Group_9" data-name="Group 9" transform="translate(47.39 114.652)" opacity="0.3">
          <path id="Path_161" data-name="Path 161" d="M221,434.974a4.525,4.525,0,0,0-2.453.194c-7.025,1.942-13.709,5.446-20.947,6.194,1.409,1.6,15.109-1.272,22.487-2.912.929-.207,2.05-.6,2.249-1.579A1.784,1.784,0,0,0,221,434.974Z" transform="translate(-197.6 -434.871)"/>
        </g>
        <path id="Path_162" data-name="Path 162" d="M80.651,147.68,49.5,169.255s-8.778,6.767-2.846,16.345c3.893,6.284,14.012,9.964,14.012,9.964L65.35,177.9l-2.565-.091,21.427-21.057Z" transform="translate(-44.596 -125.964)" fill="#ffbf9d"/>
        <path id="Path_163" data-name="Path 163" d="M147,123.058l4.061-2.809s-.139-5.857.034-6.148,6.319-6.472,6.319-6.472a2.727,2.727,0,0,1,.257,2.628l7.285-3.437,7.558,2.055.068.693,2.026.9s1.375,1.042.177,1.8A2.989,2.989,0,0,1,175.52,114c-.087.767-1.022.806-1.022.806s.592.566-.365,1.718-7.781,3.835-7.781,3.835a25.464,25.464,0,0,1-5.042,5.284,28.717,28.717,0,0,1-6.411,3.479l-1.01.87" transform="translate(-115.282 -98.326)" fill="#ffbf9d"/>
        <path id="Path_164" data-name="Path 164" d="M153.8,129.71l-.2-.256,1.059-.9a28.837,28.837,0,0,0,6.371-3.459,25.475,25.475,0,0,0,4.987-5.252l.028-.039.043-.019c.068-.026,6.814-2.683,7.719-3.789.833-1,.4-1.466.378-1.485l-.266-.272h.372c.031,0,.8-.036.864-.647.081-.693-.688-1.6-.694-1.618l-.127-.149.164-.1a.747.747,0,0,0,.412-.566,1.487,1.487,0,0,0-.585-.942l-2.1-.932-.068-.676-7.381-2.029-7.66,3.611.217-.43a2.464,2.464,0,0,0-.146-2.288c-2.435,2.446-5.987,6.048-6.154,6.3-.1.294-.059,3.883,0,6.064v.091l-4.132,2.861-.177-.278,3.977-2.77a53.5,53.5,0,0,1,.056-6.148c.17-.294,5.318-5.475,6.346-6.508l.13-.133.108.152a2.985,2.985,0,0,1,.434,2.4l6.969-3.285,7.719,2.1.068.709,1.973.88a1.8,1.8,0,0,1,.731,1.236.979.979,0,0,1-.415.731,2.817,2.817,0,0,1,.66,1.722,1.088,1.088,0,0,1-.911.919c.124.3.17.87-.514,1.7-.929,1.129-7.155,3.608-7.8,3.864a25.691,25.691,0,0,1-5.039,5.294,29.094,29.094,0,0,1-6.424,3.492Z" transform="translate(-115.089 -97.921)" fill="#ff9a6c"/>
        <path id="Path_165" data-name="Path 165" d="M170.477,118.077a1.758,1.758,0,0,1-.155.239,2.24,2.24,0,0,1-.211.256c-.09.094-.186.207-.31.324a12.6,12.6,0,0,1-2.035,1.463c-.412.259-.8.508-1.143.751a7.741,7.741,0,0,0-.861.709c-.458.44-.675.78-.7.76a.955.955,0,0,1,.139-.249,1.957,1.957,0,0,1,.2-.269,3.283,3.283,0,0,1,.288-.324,6.818,6.818,0,0,1,.855-.748c.344-.252.731-.511,1.146-.77a16.013,16.013,0,0,0,2.041-1.408C170.211,118.375,170.452,118.051,170.477,118.077Z" transform="translate(-127.748 -105.94)" fill="#ff9a6c"/>
        <path id="Path_166" data-name="Path 166" d="M205.967,115.162a1.831,1.831,0,0,1-.431.036l-1.171.032c-.988.019-2.354.036-3.862.039h-.787A27.408,27.408,0,0,1,195.38,117s.118-.042.331-.133l.9-.392,3.042-1.362h4.714l1.171.023a2.014,2.014,0,0,1,.424.029Z" transform="translate(-148.677 -103.934)" fill="#ff9a6c"/>
        <path id="Path_167" data-name="Path 167" d="M214.147,123.589a1.715,1.715,0,0,1-.406.058l-1.112.1c-.929.074-2.236.165-3.67.256l-1.053.061h.025c-1.1.453-2.069.841-2.763,1.113l-.818.324a1.415,1.415,0,0,1-.31.094,1.339,1.339,0,0,1,.282-.149l.8-.362c.685-.3,1.645-.709,2.744-1.168h0l1.053-.068c1.434-.091,2.732-.162,3.673-.2l1.115-.042a1.676,1.676,0,0,1,.44-.01Z" transform="translate(-154.655 -109.662)" fill="#ff9a6c"/>
        <path id="Path_168" data-name="Path 168" d="M217.064,131.464c0,.049-1.858.631-4.169,1.294s-4.206,1.178-4.215,1.133,1.858-.628,4.169-1.294S217.052,131.419,217.064,131.464Z" transform="translate(-157.858 -114.994)" fill="#ff9a6c"/>
        <path id="Path_169" data-name="Path 169" d="M186.537,124.809c0,.029-.149.052-.375.142a2.1,2.1,0,0,0-.762.55,2.247,2.247,0,0,0-.458.841c-.068.239-.074.4-.1.4a.753.753,0,0,1,0-.43,1.912,1.912,0,0,1,1.3-1.479C186.376,124.766,186.537,124.789,186.537,124.809Z" transform="translate(-141.38 -110.48)" fill="#ff9a6c"/>
        <path id="Path_170" data-name="Path 170" d="M191.087,131.825c0,.029-.142.055-.356.152a1.753,1.753,0,0,0-.694.576,1.829,1.829,0,0,0-.31.867,2.959,2.959,0,0,1-.031.4.679.679,0,0,1-.087-.408,1.666,1.666,0,0,1,.31-.971,1.552,1.552,0,0,1,.771-.573C190.933,131.786,191.087,131.805,191.087,131.825Z" transform="translate(-144.694 -115.228)" fill="#ff9a6c"/>
        <path id="Path_171" data-name="Path 171" d="M197.241,140.636c.028.039-.217.236-.31.6s0,.647-.053.68-.074-.055-.112-.191a.989.989,0,0,1,0-.537.977.977,0,0,1,.279-.456C197.148,140.64,197.232,140.617,197.241,140.636Z" transform="translate(-149.609 -121.195)" fill="#ff9a6c"/>
        <path id="Path_172" data-name="Path 172" d="M92,227.54a.742.742,0,0,1-.105.126l-.31.324c-.31.307-.7.718-1.183,1.22-1,1.026-2.385,2.45-3.937,4s-2.992,2.912-4.076,3.844c-.536.472-.985.841-1.3,1.087l-.365.278a.577.577,0,0,1-.136.091,1.3,1.3,0,0,1,.115-.117l.347-.3c.31-.262.737-.647,1.264-1.126,1.059-.971,2.478-2.336,4.027-3.883l3.977-3.941c.511-.5.929-.909,1.22-1.181l.341-.324A.482.482,0,0,1,92,227.54Z" transform="translate(-69.442 -179.981)" fill="#ff9a6c"/>
        <path id="Path_173" data-name="Path 173" d="M270.681,170.518c-.722-1.89-2.93-2.175-4.631-1.922l-.527.074.22.948s.666-.168.781-.178a6.493,6.493,0,0,1,1.093,0,2.685,2.685,0,0,1,2.106,1.074,2.773,2.773,0,0,1,.31,1.6.8.8,0,0,1-.015.191c-.016.065,0,.065,0,.1v.029c-.025.172-.05.324-.081.5-.164.9-.4,1.783-.638,2.66-.66,2.388-1.437,4.741-2.23,7.084s-1.592,4.585-2.422,6.864q-.434,1.184-.87,2.366c-.142.382-.31.76-.431,1.152a.363.363,0,0,1-.022.052.454.454,0,0,0,.3.555.43.43,0,0,0,.531-.316c.381-1.01.753-2.023,1.124-3.035q1.239-3.417,2.435-6.864c.833-2.433,1.645-4.88,2.342-7.359.257-.916.5-1.835.681-2.773A5.124,5.124,0,0,0,270.681,170.518Z" transform="translate(-195.567 -140.058)" fill="#e0e0e0"/>
        <path id="Path_174" data-name="Path 174" d="M270.449,170.464a2.239,2.239,0,0,1,.177.592,5.273,5.273,0,0,1-.025,1.777,49.912,49.912,0,0,1-1.657,6.3c-.409,1.311-.883,2.738-1.4,4.265s-1.112,3.149-1.716,4.854c-.31.854-.6,1.735-.929,2.624l-.5,1.369c-.084.227-.167.456-.254.686l-.127.343a.722.722,0,0,1-.214.343.45.45,0,0,1-.4.107.534.534,0,0,1-.338-.246.49.49,0,0,1-.059-.437l.13-.346.53-1.427c.35-.971.712-1.922,1.053-2.912.777-2.21,1.549-4.356,2.261-6.427s1.347-4.068,1.886-5.967c.266-.951.52-1.874.7-2.78a7.758,7.758,0,0,0,.177-1.333,2.6,2.6,0,0,0-.248-1.233,1.847,1.847,0,0,0-.839-.8,3.3,3.3,0,0,0-1.072-.324,5.927,5.927,0,0,0-1.065-.039,2.011,2.011,0,0,0-.5.078l-.483.11h-.053v-.055c-.081-.35-.149-.647-.217-.948v-.055h.053a7.8,7.8,0,0,1,2.506-.071,3.793,3.793,0,0,1,1.728.693,2.873,2.873,0,0,1,.771.9,3.529,3.529,0,0,1,.161.379.534.534,0,0,1-.05-.091c-.031-.061-.071-.159-.136-.275a2.907,2.907,0,0,0-.777-.867,3.772,3.772,0,0,0-1.71-.647,7.762,7.762,0,0,0-2.478.094l.04-.065.22.948-.062-.039.492-.116a2.279,2.279,0,0,1,.514-.084,6.177,6.177,0,0,1,1.087.036,3.449,3.449,0,0,1,1.112.324,2,2,0,0,1,.9.858,2.726,2.726,0,0,1,.269,1.294,7.632,7.632,0,0,1-.173,1.366c-.18.909-.431,1.838-.7,2.789-.533,1.906-1.177,3.906-1.877,5.983s-1.481,4.207-2.255,6.43c-.344.99-.7,1.942-1.056,2.912l-.527,1.417-.133.356a.3.3,0,0,0,.04.278.336.336,0,0,0,.227.17.324.324,0,0,0,.271-.07.56.56,0,0,0,.164-.272l.127-.346c.087-.227.17-.456.254-.683.17-.453.338-.9.5-1.346.335-.89.635-1.767.929-2.621.62-1.709,1.186-3.33,1.728-4.854s1-2.948,1.422-4.255a52.053,52.053,0,0,0,1.7-6.271,5.332,5.332,0,0,0,.056-1.757,5.035,5.035,0,0,0-.152-.608Z" transform="translate(-195.335 -140.004)" fill="#263238"/>
        <path id="Path_175" data-name="Path 175" d="M183.593,206.868c-.719-.689-1.434-1.388-2.146-2.087q-2.428-2.395-4.823-4.831c-1.728-1.767-3.444-3.56-5.086-5.411-.644-.731-1.279-1.469-1.877-2.243l-.186-.243-.037-.049-.087-.123c-.1-.136-.192-.272-.285-.411a4.088,4.088,0,0,1-.545-1.1,2.168,2.168,0,0,1,.883-2.408,5.891,5.891,0,0,1,1.146-.7l.1-.045.093-.039.118-.049a1.154,1.154,0,0,0,.248.165.618.618,0,0,0,.935-.466,1.258,1.258,0,0,0-.05-.566.884.884,0,0,0-.558-.647.641.641,0,0,0-.619.262.958.958,0,0,0-.164.362,4.436,4.436,0,0,0-3.023,2.912,3.883,3.883,0,0,0,.805,2.912,25.976,25.976,0,0,0,1.645,2.1c1.592,1.88,3.289,3.663,5,5.427s3.407,3.485,5.157,5.2c.9.89,1.793,1.8,2.726,2.66l.04.039C183.392,207.9,184,207.263,183.593,206.868Z" transform="translate(-129.488 -151.623)" fill="#e0e0e0"/>
        <path id="Path_176" data-name="Path 176" d="M183.385,206.666l.028.029a.3.3,0,0,1,.071.094.419.419,0,0,1-.04.45.489.489,0,0,1-.276.194.42.42,0,0,1-.387-.094c-.217-.2-.455-.434-.728-.7l-1.985-1.919-2.589-2.589c-1.923-1.919-4.215-4.191-6.616-6.889-.6-.673-1.2-1.372-1.8-2.11-.31-.369-.588-.751-.864-1.152a5.662,5.662,0,0,1-.706-1.311,3.3,3.3,0,0,1-.2-1.527,3.092,3.092,0,0,1,.2-.76,3.3,3.3,0,0,1,.39-.676,5.581,5.581,0,0,1,2.515-1.747l-.053.061a.987.987,0,0,1,.217-.443.772.772,0,0,1,.446-.256.624.624,0,0,1,.5.139,1.337,1.337,0,0,1,.418.9.755.755,0,0,1-.211.73.68.68,0,0,1-.718.14,1.53,1.53,0,0,1-.406-.233h.081a5.984,5.984,0,0,0-1.208.647,2.955,2.955,0,0,0-.929.971,1.9,1.9,0,0,0-.22,1.294,3.328,3.328,0,0,0,.52,1.207,19.417,19.417,0,0,0,1.6,2.048c.542.647,1.069,1.294,1.614,1.883,2.168,2.388,4.175,4.45,5.885,6.148s3.042,3.087,3.992,4.016l1.084,1.074.279.285a.724.724,0,0,1,.09.1.914.914,0,0,1-.077-.1l-.288-.269-1.1-1.055c-.966-.916-2.323-2.288-4.027-3.98s-3.717-3.738-5.9-6.126c-.548-.589-1.081-1.23-1.626-1.883a19.542,19.542,0,0,1-1.611-2.058,3.523,3.523,0,0,1-.545-1.269,2.076,2.076,0,0,1,.235-1.4,3.13,3.13,0,0,1,.973-1.023,6.167,6.167,0,0,1,1.239-.663h.034l.046.026a1.484,1.484,0,0,0,.35.2.594.594,0,0,0,.381,0,.657.657,0,0,0,.31-.686,1.186,1.186,0,0,0-.356-.777.511.511,0,0,0-.719.1.863.863,0,0,0-.177.369v.045l-.04.016a5.421,5.421,0,0,0-2.441,1.686,3.311,3.311,0,0,0-.372.647,2.852,2.852,0,0,0,0,2.155,5.68,5.68,0,0,0,.685,1.275c.273.395.561.777.855,1.142.592.735,1.2,1.434,1.79,2.11,2.388,2.692,4.683,4.971,6.588,6.9l2.568,2.608,1.967,1.942.715.705a.375.375,0,0,0,.347.091.466.466,0,0,0,.26-.175.4.4,0,0,0,.05-.421A1.518,1.518,0,0,0,183.385,206.666Z" transform="translate(-129.279 -151.422)" fill="#263238"/>
        <path id="Path_177" data-name="Path 177" d="M231.722,262.329c-3.073-2.333-7.012-1.032-10.484-1.463l-.161-.023-.263-.052a5.26,5.26,0,0,1-.536-.146l-.232-.091h0l-.108-.055a3.19,3.19,0,0,1-.443-.275h0l-.056-.045c-.084-.074-.17-.146-.251-.22a5.6,5.6,0,0,1-.449-.44,3.374,3.374,0,0,1-.576-.874,2.021,2.021,0,0,1-.118-1.33,3.4,3.4,0,0,1,.709-1.294,17.54,17.54,0,0,1,1.344-1.272,6.524,6.524,0,0,0,1.927-4.006,6.3,6.3,0,0,0,0-1.324,5.7,5.7,0,0,0,3.438-3.236l2.788-7.229-1.707-.715-2.757,7.184a3.784,3.784,0,0,1-2.664,2.25,3.635,3.635,0,0,1-3.3-.956l-6.176-5.935-1.239,1.414,6.161,5.932a5.424,5.424,0,0,0,3.779,1.54h.1a2.264,2.264,0,0,0,.449-.029,5.4,5.4,0,0,1-.759,3.191,6.142,6.142,0,0,1-1.347,1.482,7.188,7.188,0,0,0-1.239,1.343,3.541,3.541,0,0,0-.5,3.3,5.062,5.062,0,0,0,2.438,2.647,10.461,10.461,0,0,0,4.795.508,14.833,14.833,0,0,1,5.207.392,5.383,5.383,0,0,1,2.094,1.256,6.849,6.849,0,0,1,1.6,2.7,8.65,8.65,0,0,1,.242,4.854,11.5,11.5,0,0,1-14.827,8.161c-1.239-.421-2.413-1.006-3.6-1.524l-4.308-1.877-.273-.116a.551.551,0,0,0-.436.056.6.6,0,0,0-.27.362.616.616,0,0,0,.4.738l7.245,3.155a12.593,12.593,0,0,0,13.839-2.683,12.194,12.194,0,0,0,3.633-8.181A8.834,8.834,0,0,0,231.722,262.329Z" transform="translate(-158.555 -187.218)" fill="#112a36"/>
        <path id="Path_178" data-name="Path 178" d="M231.56,262.106s.127.1.369.294a7.019,7.019,0,0,1,.951,1.019A8.329,8.329,0,0,1,234,265.413a9.843,9.843,0,0,1,.681,3.068,11.709,11.709,0,0,1-2.788,7.967,11.916,11.916,0,0,1-.846.942l-.474.44-.238.223-.257.2a12.6,12.6,0,0,1-7.9,2.835,11.938,11.938,0,0,1-3.1-.362,18.872,18.872,0,0,1-3.076-1.146l-3.131-1.362-1.614-.7-.815-.356-.412-.178a1.073,1.073,0,0,1-.406-.252.634.634,0,0,1-.173-.479.658.658,0,0,1,.217-.46.6.6,0,0,1,.462-.184.776.776,0,0,1,.238.074l.211.094,1.694.735c1.14.5,2.3.993,3.472,1.518a21.65,21.65,0,0,0,3.618,1.395,11.487,11.487,0,0,0,3.927.262,11.8,11.8,0,0,0,3.887-1.116,11.477,11.477,0,0,0,5.609-6.22,9.89,9.89,0,0,0,.561-2.158,8.542,8.542,0,0,0,0-2.249,8.974,8.974,0,0,0-.592-2.178,6.581,6.581,0,0,0-1.171-1.942,5.1,5.1,0,0,0-1.806-1.294,7.833,7.833,0,0,0-2.168-.537,34.4,34.4,0,0,0-4.547,0,12.078,12.078,0,0,1-2.3-.11,5.02,5.02,0,0,1-2.168-.864,5.4,5.4,0,0,1-1.2-1.23,4.319,4.319,0,0,1-.716-1.586,3.492,3.492,0,0,1,.121-1.741,4.577,4.577,0,0,1,.849-1.492,8.689,8.689,0,0,1,1.193-1.178,5.479,5.479,0,0,0,1.075-1.233,5.326,5.326,0,0,0,.753-3.152l.09.081a5.465,5.465,0,0,1-3.271-.7,6.226,6.226,0,0,1-1.335-1.045l-1.208-1.165-4.739-4.563-.059-.058.056-.061,1.239-1.411.056-.061.056.055,4.476,4.314,1.093,1.052a8.644,8.644,0,0,0,1.109.987,3.551,3.551,0,0,0,3.027.428,3.742,3.742,0,0,0,2.3-2.1l.26-.673.514-1.336q1.019-2.657,1.988-5.178l.028-.065.062.026,1.707.715.062.026-.025.065-2.379,6.184c-.2.492-.353.99-.595,1.456a5.712,5.712,0,0,1-3.286,2.841l.04-.061a6.661,6.661,0,0,1-.709,3.705,6.235,6.235,0,0,1-1.022,1.453c-.4.424-.849.76-1.239,1.142a3.825,3.825,0,0,0-.929,1.294,2,2,0,0,0-.04,1.5,4.441,4.441,0,0,0,1.9,2.022h0a7.633,7.633,0,0,0,2.689.408c.855,0,1.657-.026,2.4-.045a15.909,15.909,0,0,1,3.754.2,7.12,7.12,0,0,1,2.168.806c.443.282.657.447.657.447l-.17-.107c-.112-.068-.269-.191-.5-.324a7.251,7.251,0,0,0-2.168-.783,16.161,16.161,0,0,0-3.745-.178c-.743.026-1.549.065-2.407.055a7.612,7.612,0,0,1-2.716-.4h0a6.643,6.643,0,0,1-.589-.356,5.735,5.735,0,0,1-.517-.489,3.381,3.381,0,0,1-.842-1.223,2.116,2.116,0,0,1,.034-1.57,4.069,4.069,0,0,1,.929-1.34c.393-.388.842-.725,1.239-1.139a6.506,6.506,0,0,0,1.691-5.071v-.049l.043-.016a5.673,5.673,0,0,0,3.212-2.786c.232-.45.39-.971.588-1.447q1.134-2.967,2.369-6.187l.037.091-1.707-.712.087-.039q-.966,2.524-1.985,5.178c-.167.44-.338.887-.511,1.336l-.26.673a3.891,3.891,0,0,1-2.382,2.227,3.687,3.687,0,0,1-3.169-.437A9.01,9.01,0,0,1,217,246l-1.093-1.055-4.476-4.307h.111l-1.239,1.414v-.116l4.739,4.563,1.208,1.162a6.017,6.017,0,0,0,1.3,1.023,5.313,5.313,0,0,0,3.178.673h.084v.087a5.514,5.514,0,0,1-.777,3.259,5.671,5.671,0,0,1-1.106,1.269,8.648,8.648,0,0,0-1.174,1.158,4.345,4.345,0,0,0-.818,1.437,3.317,3.317,0,0,0-.118,1.65,4.11,4.11,0,0,0,.691,1.518,5.185,5.185,0,0,0,1.161,1.191,4.862,4.862,0,0,0,2.116.835,11.961,11.961,0,0,0,2.283.11,34.711,34.711,0,0,1,4.569,0,7.936,7.936,0,0,1,2.211.55,5.265,5.265,0,0,1,1.858,1.33,6.935,6.935,0,0,1,1.2,1.974,9.135,9.135,0,0,1,.595,2.23,8.647,8.647,0,0,1,0,2.3,10.1,10.1,0,0,1-.57,2.2,11.618,11.618,0,0,1-5.69,6.265,11.877,11.877,0,0,1-3.94,1.129,11.534,11.534,0,0,1-3.977-.269,21.886,21.886,0,0,1-3.642-1.4c-1.165-.527-2.329-1.023-3.466-1.521l-1.7-.741-.211-.091a.6.6,0,0,0-.192-.065.478.478,0,0,0-.359.146.506.506,0,0,0-.172.357.511.511,0,0,0,.135.374.922.922,0,0,0,.359.22l.412.181.815.356,1.611.7,3.131,1.366a18.891,18.891,0,0,0,3.054,1.146,12.011,12.011,0,0,0,3.079.362,12.55,12.55,0,0,0,5.575-1.336,12.292,12.292,0,0,0,2.255-1.456l.254-.2.238-.22.471-.437a10.568,10.568,0,0,0,.842-.932,11.7,11.7,0,0,0,2.788-7.9,9.8,9.8,0,0,0-.663-3.055,8.366,8.366,0,0,0-1.1-1.987,7.447,7.447,0,0,0-.929-1.026C231.678,262.209,231.56,262.106,231.56,262.106Z" transform="translate(-158.393 -186.995)" fill="#263238"/>
        <path id="Path_179" data-name="Path 179" d="M246.781,270.261c-.028,0-.034-.12-.124-.272a.534.534,0,0,0-.514-.288.611.611,0,0,0-.415.456c-.046.168-.025.288-.05.294s-.09-.107-.068-.324a.758.758,0,0,1,.127-.343.62.62,0,0,1,.365-.262.534.534,0,0,1,.434.116.643.643,0,0,1,.217.288C246.84,270.132,246.8,270.264,246.781,270.261Z" transform="translate(-183.346 -208.373)" fill="#263238"/>
        <path id="Path_180" data-name="Path 180" d="M254.886,240.74a1.752,1.752,0,0,1-.1.388c-.074.243-.186.6-.331,1.029-.294.864-.725,2.048-1.239,3.336-.263.647-.523,1.252-.768,1.8a7.27,7.27,0,0,1-.777,1.4,2.835,2.835,0,0,1-.777.735,2.039,2.039,0,0,1-.26.126c-.062.023-.093.032-.1.026a3.274,3.274,0,0,1,.31-.21,3.058,3.058,0,0,0,.722-.751,19.532,19.532,0,0,0,1.484-3.2c.536-1.275.973-2.459,1.292-3.314l.381-1.006a2.1,2.1,0,0,1,.158-.366Z" transform="translate(-186.752 -188.909)" fill="#fff"/>
        <path id="Path_181" data-name="Path 181" d="M246.65,272.1c-.04.016-.127-.149-.09-.369s.18-.34.214-.324-.019.168-.05.34S246.69,272.087,246.65,272.1Z" transform="translate(-183.999 -209.651)" fill="#fff"/>
        <path id="Path_182" data-name="Path 182" d="M269.57,311.4c0,.023-.294-.191-.771-.489a10.1,10.1,0,0,0-4.064-1.466,8.824,8.824,0,0,1-.9-.113,3.206,3.206,0,0,1,.908,0,8.45,8.45,0,0,1,4.116,1.489A3.509,3.509,0,0,1,269.57,311.4Z" transform="translate(-195.933 -235.283)" fill="#fff"/>
        <path id="Path_183" data-name="Path 183" d="M286.324,320.979a5.274,5.274,0,0,1-.31-.773,5.577,5.577,0,0,1-.335-.76c.031-.032.31.246.489.689A1.414,1.414,0,0,1,286.324,320.979Z" transform="translate(-211.008 -242.143)" fill="#fff"/>
        <path id="Path_184" data-name="Path 184" d="M234.409,293.88a4.382,4.382,0,0,0-.192,2.7A2.608,2.608,0,0,1,234.409,293.88Z" transform="translate(-175.285 -224.853)" fill="#fff"/>
        <path id="Path_204" data-name="Path 204" d="M5.886-.092a5.584,5.584,0,0,1,5.794,5.619,6.027,6.027,0,0,1-5.978,5.8A5.584,5.584,0,0,1-.092,5.71,6.027,6.027,0,0,1,5.886-.092Z" transform="translate(43.404 90.653) rotate(-66.9)" fill="#e0e0e0"/>
        <path id="Path_185" data-name="Path 185" d="M190.5,339.648a.5.5,0,0,1-.022-.094,2.2,2.2,0,0,0-.043-.278,2.815,2.815,0,0,1-.05-.456,4.194,4.194,0,0,1,0-.628,5.718,5.718,0,0,1,.31-1.689,5.867,5.867,0,0,1,3.265-3.56,5.534,5.534,0,0,1,3.011-.346,5.207,5.207,0,0,1,1.577.511,6.272,6.272,0,0,1,.746.437,6.715,6.715,0,0,1,.678.573,6.162,6.162,0,0,1,1.288,6.974,6.861,6.861,0,0,1-.431.793,6.533,6.533,0,0,1-.536.7,5.384,5.384,0,0,1-1.285,1.087,5.536,5.536,0,0,1-2.915.841,5.458,5.458,0,0,1-2.571-.647,5.753,5.753,0,0,1-1.725-1.392,5.68,5.68,0,0,1-.892-1.447,4.155,4.155,0,0,1-.217-.586,2.6,2.6,0,0,1-.118-.44c-.025-.113-.043-.207-.059-.278a.536.536,0,0,1,0-.094,9.619,9.619,0,0,0,.465,1.369,5.693,5.693,0,0,0,.9,1.411,5.436,5.436,0,0,0,7.062,1.116,5.3,5.3,0,0,0,1.239-1.061,5.391,5.391,0,0,0,.935-1.453,6.012,6.012,0,0,0-1.239-6.776,5.756,5.756,0,0,0-.66-.557,6.389,6.389,0,0,0-.722-.43,5.1,5.1,0,0,0-1.549-.5,5.6,5.6,0,0,0-6.164,3.77,5.86,5.86,0,0,0-.341,1.66A10,10,0,0,0,190.5,339.648Z" transform="translate(-145.22 -250.992)" fill="#263238"/>
        <g id="Group_10" data-name="Group 10" transform="translate(47.027 84.225)" opacity="0.3">
          <path id="Path_186" data-name="Path 186" d="M196.5,345.591a3.831,3.831,0,0,0,4.472,3.164A3.985,3.985,0,0,0,204,344.083a3.767,3.767,0,0,0-6.913-1.485A4.132,4.132,0,0,0,196.5,345.591Z" transform="translate(-196.426 -340.846)"/>
        </g>
        <path id="Path_187" data-name="Path 187" d="M196.5,342.631a3.831,3.831,0,0,0,4.472,3.164A3.984,3.984,0,0,0,204,341.123a3.831,3.831,0,0,0-4.471-3.165,3.988,3.988,0,0,0-3.029,4.673Z" transform="translate(-149.4 -254.619)" fill="#e0e0e0"/>
        <path id="Path_188" data-name="Path 188" d="M196.441,342.457a1.2,1.2,0,0,1-.053-.249,1.912,1.912,0,0,1-.034-.307,3.13,3.13,0,0,1,0-.424,4.023,4.023,0,0,1,2.416-3.56,3.738,3.738,0,0,1,2.041-.239,3.538,3.538,0,0,1,1.069.346,3.579,3.579,0,0,1,.966.686,4.089,4.089,0,0,1,1.183,2.213,4.253,4.253,0,0,1-.31,2.518,4.046,4.046,0,0,1-1.527,1.747,3.741,3.741,0,0,1-1.979.566,3.842,3.842,0,0,1-3.5-2.359,2.924,2.924,0,0,1-.146-.4,2.012,2.012,0,0,1-.077-.3,1.165,1.165,0,0,1-.04-.252,7.715,7.715,0,0,0,.31.919,3.907,3.907,0,0,0,1.756,1.845,3.6,3.6,0,0,0,3.587-.162,3.828,3.828,0,0,0,1.459-1.683,4.008,4.008,0,0,0-.833-4.53,3.605,3.605,0,0,0-.929-.647,3.378,3.378,0,0,0-1.025-.324,3.664,3.664,0,0,0-2.95.811A4.008,4.008,0,0,0,196.4,341.5,7.389,7.389,0,0,0,196.441,342.457Z" transform="translate(-149.345 -254.445)" fill="#263238"/>
        <path id="Path_189" data-name="Path 189" d="M282.593,186.379c.015.113-.056.23-.242.256a.435.435,0,0,1-.26-.039l.046-.129a.3.3,0,0,0,.192.036c.077,0,.121-.049.111-.1s-.046-.078-.133-.068h-.068v-.1l.115-.178-.279.039-.015-.126.458-.061v.1l-.127.2a.181.181,0,0,1,.137.046A.2.2,0,0,1,282.593,186.379Z" transform="translate(-208.509 -151.816)" fill="#263238"/>
        <path id="Path_190" data-name="Path 190" d="M284.516,186.163a.244.244,0,0,1-.055.182.222.222,0,0,1-.165.08.28.28,0,0,1-.224-.072.307.307,0,0,1-.1-.222.336.336,0,0,1,.048-.279.306.306,0,0,1,.24-.132.324.324,0,0,1,.189.023l-.043.123a.2.2,0,0,0-.124,0,.171.171,0,0,0-.129.071.187.187,0,0,0-.032.149.223.223,0,0,1,.155-.081A.208.208,0,0,1,284.516,186.163Zm-.146.029c0-.065-.056-.1-.124-.087a.1.1,0,0,0-.074.036.11.11,0,0,0-.025.081c0,.058.053.1.127.087a.1.1,0,0,0,.073-.036A.107.107,0,0,0,284.371,186.192Z" transform="translate(-209.823 -151.69)" fill="#263238"/>
        <path id="Path_191" data-name="Path 191" d="M285.718,185.6a.173.173,0,0,1,.04-.128.158.158,0,0,1,.118-.056.152.152,0,0,1,.126.023.166.166,0,0,1,.069.113.173.173,0,0,1-.038.129.158.158,0,0,1-.117.058.162.162,0,0,1-.127-.026A.175.175,0,0,1,285.718,185.6Zm.254-.032a.076.076,0,0,0-.027-.057.069.069,0,0,0-.06-.014.073.073,0,0,0-.053.03.08.08,0,0,0-.015.061.082.082,0,0,0,.03.056.075.075,0,0,0,.06.015.074.074,0,0,0,.053-.032.081.081,0,0,0,.012-.062Z" transform="translate(-211.034 -151.487)" fill="#263238"/>
        <path id="Path_192" data-name="Path 192" d="M319.466,353.924c-.48-3.738-6.523-14.264-6.523-14.264l-11.77,6.006,1.493,2.611L286.29,346.32l.855,10.954s19.324,5.459,22.734,5.932A8.391,8.391,0,0,0,319.466,353.924Z" transform="translate(-211.429 -255.819)" fill="#ffbf9d"/>
        <path id="Path_193" data-name="Path 193" d="M349.788,370.361a5.372,5.372,0,0,0-.155-.615,3.277,3.277,0,0,0-.948-1.375,5.311,5.311,0,0,0-2.187-1.081c-.9-.236-1.9-.421-2.958-.6a49.1,49.1,0,0,0-5.457-.592c-.7-.039-1.27-.052-1.663-.068l-.452-.016a.478.478,0,0,1-.158-.016.527.527,0,0,1,.158-.019l.452-.016h1.669a41.445,41.445,0,0,1,5.476.544c1.062.181,2.066.372,2.973.618a5.276,5.276,0,0,1,2.224,1.142,3.248,3.248,0,0,1,.929,1.45,2.385,2.385,0,0,1,.093.466A.775.775,0,0,1,349.788,370.361Z" transform="translate(-245.611 -273.608)" fill="#ff9a6c"/>
        <path id="Path_194" data-name="Path 194" d="M242.769,348.563l-12.157-1.43L220.3,341.825l-5.637-.369a.757.757,0,0,0-.682.344.833.833,0,0,0-.068.788,2.945,2.945,0,0,0,1.446,1.618,10.568,10.568,0,0,0,3.522.663l2.837,1.582-4.336,1.4-3.54-1.851s-1.626-1.084-2.215.078a1.833,1.833,0,0,0,.071,1.964s-1.8.2-.929,2.068a11.679,11.679,0,0,0,1.93,2.589,3.356,3.356,0,0,0,.254,2.217c.465.757,3.615,2.912,4.779,3.7a1.362,1.362,0,0,0,.929.227l11.5-1.362,12.6,3.217Z" transform="translate(-159.136 -257.033)" fill="#ffbf9d"/>
        <path id="Path_195" data-name="Path 195" d="M223.7,364.849a1.631,1.631,0,0,1-.39.129c-.257.071-.619.159-1.1.243a15.717,15.717,0,0,1-1.654.214,2.979,2.979,0,0,1-.486.016l-.257-.016a1.234,1.234,0,0,1-.254-.055,2.88,2.88,0,0,1-.5-.162,4.521,4.521,0,0,1-.5-.22,16.9,16.9,0,0,1-3.1-2.12c-.369-.307-.66-.57-.855-.754a1.821,1.821,0,0,1-.294-.3,2.169,2.169,0,0,1,.335.252l.889.709a19.2,19.2,0,0,0,3.1,2.061,4.95,4.95,0,0,0,.486.214,3,3,0,0,0,.483.159c.081.016.161.042.242.055h.235a3.836,3.836,0,0,0,.474,0c.619-.042,1.177-.107,1.645-.175s.842-.139,1.1-.188a2.18,2.18,0,0,1,.4-.058Z" transform="translate(-161.744 -270.808)" fill="#ff9a6c"/>
        <path id="Path_196" data-name="Path 196" d="M224.24,376.9a1.492,1.492,0,0,1-.369.175,8.734,8.734,0,0,1-1.056.324,10.1,10.1,0,0,1-1.62.249,2.54,2.54,0,0,1-.976-.091c-.167-.042-.325-.117-.492-.172a5.316,5.316,0,0,1-.483-.227,17.534,17.534,0,0,1-3.029-2.094c-.362-.3-.647-.56-.839-.741a1.63,1.63,0,0,1-.285-.3,2.153,2.153,0,0,1,.31.246l.87.7a20.22,20.22,0,0,0,3.029,2.036,3.5,3.5,0,0,0,1.858.485,11.164,11.164,0,0,0,1.6-.21c.452-.091.815-.194,1.062-.265A2.423,2.423,0,0,1,224.24,376.9Z" transform="translate(-162.282 -279.066)" fill="#ff9a6c"/>
      </g>
    </g>
  </g>
</svg>
