<svg xmlns="http://www.w3.org/2000/svg" xmlns:xlink="http://www.w3.org/1999/xlink" width="560" height="482" viewBox="0 0 560 482">
  <defs>
    <clipPath id="clip-path">
      <rect id="Rectangle_145" data-name="Rectangle 145" width="560" height="482" transform="translate(5217 1349)" fill="#fff" stroke="#707070" stroke-width="1"/>
    </clipPath>
  </defs>
  <g id="Mask_Group_4" data-name="Mask Group 4" transform="translate(-5217 -1349)" clip-path="url(#clip-path)">
    <g id="noun-cardiology-1290634_1_" data-name="noun-cardiology-1290634 (1)" transform="translate(5217 1349)">
      <path id="Path_753" data-name="Path 753" d="M350.01,538.555,153.39,325.166c-27.184-29.434-42.156-68.6-42.156-110.276,0-85.886,64.391-155.76,143.54-155.76,35.469,0,68.969,13.862,95.242,39.228C376.3,72.993,409.8,59.13,445.25,59.13c79.141,0,143.53,69.883,143.53,155.76,0,41.63-14.93,80.756-42.035,110.156ZM254.768,78.318c-69.4,0-125.86,61.268-125.86,136.583,0,36.544,13.129,70.879,36.969,96.7L350.007,511.42l184.23-199.942c23.766-25.784,36.855-60.08,36.855-96.586,0-75.309-56.457-136.583-125.85-136.583-33.609,0-65.211,14.211-88.98,40.007l-6.25,6.787-6.25-6.787c-23.773-25.8-55.375-40.007-89-40.007Z" transform="translate(-69.997 -59.13)" fill="#1a6f5d"/>
      <path id="Path_754" data-name="Path 754" d="M341.16,349.529V234.391l-40.539,43.992H277.1l-40.234,43.674V261.866l-15.227,16.517H70V259.2h144.32l40.227-43.661v60.191L269.778,259.2H293.3l65.543-71.137V303.2l40.543-44H422.9l40.234-43.653v60.182L478.361,259.2H630v19.188H485.691l-40.23,43.674v-60.2l-15.234,16.526h-23.52Z" transform="translate(-69.997 -48.134)" fill="#1a6f5d"/>
      <path id="Path_755" data-name="Path 755" d="M172.9,211.139H155.22c0-59.568,44.656-108.028,99.547-108.028V122.3C209.626,122.3,172.9,162.158,172.9,211.139Z" transform="translate(-69.997 -55.379)" fill="#1a6f5d"/>
      <g id="Group_824" data-name="Group 824" transform="translate(0.706 577.892)">
        <path id="Path_756" data-name="Path 756" d="M9.375.276a6.173,6.173,0,0,1-1.516.61,6.081,6.081,0,0,1-1.625.22A5.341,5.341,0,0,1,2.188-.437,5.836,5.836,0,0,1,.7-4.642,5.808,5.808,0,0,1,2.188-8.848a5.356,5.356,0,0,1,4.047-1.543,6.436,6.436,0,0,1,1.625.2,5.905,5.905,0,0,1,1.516.627V-7.27a5.749,5.749,0,0,0-1.453-.8,4.335,4.335,0,0,0-1.484-.254,2.729,2.729,0,0,0-2.219.984,4.171,4.171,0,0,0-.8,2.7,4.155,4.155,0,0,0,.8,2.7,2.717,2.717,0,0,0,2.219.984,4.335,4.335,0,0,0,1.484-.254,5.618,5.618,0,0,0,1.453-.8Z" transform="translate(-0.703 10.391)" fill="#1a6f5d"/>
      </g>
      <g id="Group_825" data-name="Group 825" transform="translate(11.448 580.656)">
        <path id="Path_757" data-name="Path 757" d="M6.859-5.385a2.809,2.809,0,0,0-.641-.22,2.511,2.511,0,0,0-.641-.085,1.736,1.736,0,0,0-1.453.661,2.983,2.983,0,0,0-.5,1.865V.669H1.172V-7.64H3.625v1.357A3.256,3.256,0,0,1,4.7-7.471a2.783,2.783,0,0,1,1.469-.373c.082,0,.172.008.266.017a2.607,2.607,0,0,1,.422.051Z" transform="translate(-1.172 7.844)" fill="#1a6f5d"/>
      </g>
      <g id="Group_826" data-name="Group 826" transform="translate(17.792 580.656)">
        <path id="Path_758" data-name="Path 758" d="M8.813-3.5v.746H3.094a2.072,2.072,0,0,0,.625,1.408A2.137,2.137,0,0,0,5.2-.874,5.33,5.33,0,0,0,6.8-1.129a7.7,7.7,0,0,0,1.656-.763V.16A9.885,9.885,0,0,1,6.719.7,8.264,8.264,0,0,1,4.984.889,4.364,4.364,0,0,1,1.75-.264,4.371,4.371,0,0,1,.609-3.486,4.409,4.409,0,0,1,1.734-6.674a4.109,4.109,0,0,1,3.109-1.17A3.725,3.725,0,0,1,7.734-6.657,4.473,4.473,0,0,1,8.812-3.5ZM6.3-4.384a1.778,1.778,0,0,0-.406-1.221A1.344,1.344,0,0,0,4.828-6.08a1.593,1.593,0,0,0-1.156.441,2.054,2.054,0,0,0-.547,1.255Z" transform="translate(-0.609 7.844)" fill="#1a6f5d"/>
      </g>
      <g id="Group_827" data-name="Group 827" transform="translate(27.288 580.656)">
        <path id="Path_759" data-name="Path 759" d="M4.609-3.079a1.937,1.937,0,0,0-1.156.288.972.972,0,0,0-.391.831,1.019,1.019,0,0,0,.313.8,1.227,1.227,0,0,0,.875.288,1.462,1.462,0,0,0,1.156-.543,2,2,0,0,0,.469-1.357v-.305Zm3.734-1V.669H5.875V-.569A3.283,3.283,0,0,1,4.766.55,3.031,3.031,0,0,1,3.281.889,2.58,2.58,0,0,1,1.344.143,2.7,2.7,0,0,1,.609-1.824a2.473,2.473,0,0,1,.922-2.137,4.857,4.857,0,0,1,2.906-.7H5.875v-.2a1.014,1.014,0,0,0-.453-.916A2.6,2.6,0,0,0,4-6.08a6.12,6.12,0,0,0-1.469.17,4.679,4.679,0,0,0-1.266.526V-7.42a13.239,13.239,0,0,1,1.578-.305,11.2,11.2,0,0,1,1.594-.119,4.143,4.143,0,0,1,2.984.9,3.833,3.833,0,0,1,.922,2.866Z" transform="translate(-0.609 7.844)" fill="#1a6f5d"/>
      </g>
      <g id="Group_828" data-name="Group 828" transform="translate(36.311 578.502)">
        <path id="Path_760" data-name="Path 760" d="M3.844-9.828v2.357H6.375v1.9H3.844v3.527a1.107,1.107,0,0,0,.2.78,1.3,1.3,0,0,0,.859.2h1.25v1.9H4.062A2.741,2.741,0,0,1,2,.194a3.325,3.325,0,0,1-.594-2.238V-5.572H.187v-1.9H1.406V-9.828Z" transform="translate(-0.187 9.828)" fill="#1a6f5d"/>
      </g>
      <g id="Group_829" data-name="Group 829" transform="translate(43.425 580.656)">
        <path id="Path_761" data-name="Path 761" d="M8.813-3.5v.746H3.094a2.072,2.072,0,0,0,.625,1.408A2.137,2.137,0,0,0,5.2-.874,5.33,5.33,0,0,0,6.8-1.129a7.7,7.7,0,0,0,1.656-.763V.16A9.885,9.885,0,0,1,6.719.7,8.264,8.264,0,0,1,4.984.889,4.364,4.364,0,0,1,1.75-.264,4.371,4.371,0,0,1,.609-3.486,4.409,4.409,0,0,1,1.734-6.674a4.109,4.109,0,0,1,3.109-1.17A3.725,3.725,0,0,1,7.734-6.657,4.473,4.473,0,0,1,8.812-3.5ZM6.3-4.384a1.778,1.778,0,0,0-.406-1.221A1.344,1.344,0,0,0,4.828-6.08a1.593,1.593,0,0,0-1.156.441,2.054,2.054,0,0,0-.547,1.255Z" transform="translate(-0.609 7.844)" fill="#1a6f5d"/>
      </g>
      <g id="Group_830" data-name="Group 830" transform="translate(52.937 577.621)">
        <path id="Path_762" data-name="Path 762" d="M6.391-6.181v-4.46H8.844V.908H6.391V-.3A3.674,3.674,0,0,1,5.266.789a2.859,2.859,0,0,1-1.406.339A2.805,2.805,0,0,1,1.531-.093,5.148,5.148,0,0,1,.625-3.247a5.121,5.121,0,0,1,.906-3.137A2.805,2.805,0,0,1,3.859-7.6a2.735,2.735,0,0,1,1.406.356A3.556,3.556,0,0,1,6.391-6.18ZM4.766-.805a1.341,1.341,0,0,0,1.2-.627,3.24,3.24,0,0,0,.422-1.814,3.168,3.168,0,0,0-.422-1.8,1.35,1.35,0,0,0-1.2-.627,1.355,1.355,0,0,0-1.188.627,3.243,3.243,0,0,0-.406,1.8,3.316,3.316,0,0,0,.406,1.814A1.346,1.346,0,0,0,4.766-.805Z" transform="translate(-0.625 10.641)" fill="#1a6f5d"/>
      </g>
      <g id="Group_831" data-name="Group 831" transform="translate(68.378 577.62)">
        <path id="Path_763" data-name="Path 763" d="M5.25-.805a1.328,1.328,0,0,0,1.188-.627,3.24,3.24,0,0,0,.422-1.814,3.168,3.168,0,0,0-.422-1.8A1.337,1.337,0,0,0,5.25-5.672a1.367,1.367,0,0,0-1.2.627,3.216,3.216,0,0,0-.422,1.8,3.24,3.24,0,0,0,.422,1.814,1.358,1.358,0,0,0,1.2.627ZM3.625-6.181A3.4,3.4,0,0,1,4.734-7.249a2.814,2.814,0,0,1,1.422-.356A2.785,2.785,0,0,1,8.484-6.384a5.146,5.146,0,0,1,.906,3.137A5.173,5.173,0,0,1,8.484-.093,2.785,2.785,0,0,1,6.156,1.128,2.942,2.942,0,0,1,4.734.789,3.512,3.512,0,0,1,3.625-.3v1.2H1.172V-10.641H3.625Z" transform="translate(-1.172 10.641)" fill="#1a6f5d"/>
      </g>
      <g id="Group_832" data-name="Group 832" transform="translate(77.402 580.86)">
        <path id="Path_764" data-name="Path 764" d="M.172-7.656H2.625l2.047,5.63,1.75-5.63H8.875L5.656,1.433A4.383,4.383,0,0,1,4.516,3.366a2.5,2.5,0,0,1-1.7.56H1.406V2.2h.766a1.5,1.5,0,0,0,.906-.22,1.479,1.479,0,0,0,.438-.78l.063-.22Z" transform="translate(-0.172 7.656)" fill="#1a6f5d"/>
      </g>
      <g id="Group_833" data-name="Group 833" transform="translate(92.511 578.096)">
        <path id="Path_765" data-name="Path 765" d="M1.281-10.2H4.641L6.953-4.285,9.3-10.2h3.344V.87H10.156V-7.236L7.8-1.267H6.125L3.781-7.236V.87h-2.5Z" transform="translate(-1.281 10.203)" fill="#1a6f5d"/>
      </g>
      <g id="Group_834" data-name="Group 834" transform="translate(105.768 580.656)">
        <path id="Path_766" data-name="Path 766" d="M4.609-3.079a1.937,1.937,0,0,0-1.156.288.972.972,0,0,0-.391.831,1.019,1.019,0,0,0,.313.8,1.227,1.227,0,0,0,.875.288,1.462,1.462,0,0,0,1.156-.543,2,2,0,0,0,.469-1.357v-.305Zm3.734-1V.669H5.875V-.569A3.283,3.283,0,0,1,4.766.55,3.031,3.031,0,0,1,3.281.889,2.58,2.58,0,0,1,1.344.143,2.7,2.7,0,0,1,.609-1.824a2.473,2.473,0,0,1,.922-2.137,4.857,4.857,0,0,1,2.906-.7H5.875v-.2a1.014,1.014,0,0,0-.453-.916A2.6,2.6,0,0,0,4-6.08a6.12,6.12,0,0,0-1.469.17,4.679,4.679,0,0,0-1.266.526V-7.42a13.239,13.239,0,0,1,1.578-.305,11.2,11.2,0,0,1,1.594-.119,4.143,4.143,0,0,1,2.984.9,3.833,3.833,0,0,1,.922,2.866Z" transform="translate(-0.609 7.844)" fill="#1a6f5d"/>
      </g>
      <g id="Group_835" data-name="Group 835" transform="translate(114.827 580.859)">
        <path id="Path_767" data-name="Path 767" d="M3.109-3.6.344-7.656H2.938L4.5-5.2,6.094-7.656H8.688L5.922-3.62,8.813.653H6.235L4.5-1.975,2.8.653H.219Z" transform="translate(-0.219 7.656)" fill="#1a6f5d"/>
      </g>
      <g id="Group_836" data-name="Group 836" transform="translate(124.808 577.621)">
        <path id="Path_768" data-name="Path 768" d="M1.172-7.4H3.625V.907H1.172Zm0-3.239H3.625V-8.47H1.172Z" transform="translate(-1.172 10.641)" fill="#1a6f5d"/>
      </g>
      <g id="Group_837" data-name="Group 837" transform="translate(129.593 580.656)">
        <path id="Path_769" data-name="Path 769" d="M8.266-6.267a3.529,3.529,0,0,1,1.109-1.17,2.564,2.564,0,0,1,1.406-.407,2.394,2.394,0,0,1,2,.882,4.071,4.071,0,0,1,.7,2.578V.669H11.016V-3.672a1.319,1.319,0,0,0,.016-.187v-.305A2.6,2.6,0,0,0,10.8-5.436a.831.831,0,0,0-.781-.407,1.211,1.211,0,0,0-1.078.627,3.608,3.608,0,0,0-.391,1.8V.669H6.094V-3.672a4.42,4.42,0,0,0-.219-1.764.811.811,0,0,0-.781-.407A1.226,1.226,0,0,0,4-5.215a3.538,3.538,0,0,0-.375,1.8V.669H1.156V-7.64H3.625v1.221A3.275,3.275,0,0,1,4.656-7.488a2.472,2.472,0,0,1,1.3-.356,2.4,2.4,0,0,1,1.391.424,2.534,2.534,0,0,1,.922,1.153Z" transform="translate(-1.156 7.844)" fill="#1a6f5d"/>
      </g>
      <g id="Group_838" data-name="Group 838" transform="translate(149.179 578.095)">
        <path id="Path_770" data-name="Path 770" d="M5.375-5.913A1.336,1.336,0,0,0,6.313-6.2a1.143,1.143,0,0,0,.328-.882,1.15,1.15,0,0,0-.328-.882,1.3,1.3,0,0,0-.937-.305H3.922v2.357ZM5.469-1.08a1.758,1.758,0,0,0,1.188-.356,1.421,1.421,0,0,0,.406-1.1,1.35,1.35,0,0,0-.406-1.068A1.678,1.678,0,0,0,5.469-3.98H3.922v2.9ZM7.906-5.065a2.4,2.4,0,0,1,1.313,1A3.144,3.144,0,0,1,9.688-2.3a2.877,2.877,0,0,1-1,2.391A4.888,4.888,0,0,1,5.656.87H1.281V-10.2H5.234a5.329,5.329,0,0,1,3.078.7,2.6,2.6,0,0,1,.953,2.238A2.644,2.644,0,0,1,8.922-5.9a2.053,2.053,0,0,1-1.016.831Z" transform="translate(-1.281 10.203)" fill="#1a6f5d"/>
      </g>
      <g id="Group_839" data-name="Group 839" transform="translate(159.178 580.656)">
        <path id="Path_771" data-name="Path 771" d="M4.609-3.079a1.937,1.937,0,0,0-1.156.288.972.972,0,0,0-.391.831,1.019,1.019,0,0,0,.313.8,1.227,1.227,0,0,0,.875.288,1.462,1.462,0,0,0,1.156-.543,2,2,0,0,0,.469-1.357v-.305Zm3.734-1V.669H5.875V-.569A3.283,3.283,0,0,1,4.766.55,3.031,3.031,0,0,1,3.281.889,2.58,2.58,0,0,1,1.344.143,2.7,2.7,0,0,1,.609-1.824a2.473,2.473,0,0,1,.922-2.137,4.857,4.857,0,0,1,2.906-.7H5.875v-.2a1.014,1.014,0,0,0-.453-.916A2.6,2.6,0,0,0,4-6.08a6.12,6.12,0,0,0-1.469.17,4.679,4.679,0,0,0-1.266.526V-7.42a13.239,13.239,0,0,1,1.578-.305,11.2,11.2,0,0,1,1.594-.119,4.143,4.143,0,0,1,2.984.9,3.833,3.833,0,0,1,.922,2.866Z" transform="translate(-0.609 7.844)" fill="#1a6f5d"/>
      </g>
      <g id="Group_840" data-name="Group 840" transform="translate(168.738 580.656)">
        <path id="Path_772" data-name="Path 772" d="M7.156-7.386v2.018a8.208,8.208,0,0,0-1.516-.526A5.7,5.7,0,0,0,4.266-6.08a2.1,2.1,0,0,0-1.047.2.623.623,0,0,0-.328.577.55.55,0,0,0,.25.492,2.224,2.224,0,0,0,.922.254l.422.051a4.982,4.982,0,0,1,2.531.865,2.4,2.4,0,0,1,.656,1.865,2.346,2.346,0,0,1-.906,2A4.541,4.541,0,0,1,4.078.89,9.7,9.7,0,0,1,2.5.754,13.9,13.9,0,0,1,.844.364V-1.654a6.859,6.859,0,0,0,1.5.594,6.419,6.419,0,0,0,1.563.187,2.1,2.1,0,0,0,1.078-.22.709.709,0,0,0,.359-.644.6.6,0,0,0-.25-.526,2.653,2.653,0,0,0-.984-.271L3.672-2.6a4.287,4.287,0,0,1-2.3-.814A2.383,2.383,0,0,1,.719-5.249,2.284,2.284,0,0,1,1.547-7.2a4.206,4.206,0,0,1,2.563-.644,9.29,9.29,0,0,1,1.422.119,13.183,13.183,0,0,1,1.625.339Z" transform="translate(-0.719 7.844)" fill="#1a6f5d"/>
      </g>
      <g id="Group_841" data-name="Group 841" transform="translate(177.523 577.621)">
        <path id="Path_773" data-name="Path 773" d="M1.172-7.4H3.625V.907H1.172Zm0-3.239H3.625V-8.47H1.172Z" transform="translate(-1.172 10.641)" fill="#1a6f5d"/>
      </g>
      <g id="Group_842" data-name="Group 842" transform="translate(182.32 580.656)">
        <path id="Path_774" data-name="Path 774" d="M8.875-4.384V.669H6.406V-3.2c0-.721-.016-1.221-.047-1.492a1.549,1.549,0,0,0-.141-.594.99.99,0,0,0-.391-.407,1.064,1.064,0,0,0-.562-.153,1.377,1.377,0,0,0-1.2.644,3.139,3.139,0,0,0-.438,1.781V.669H1.172V-7.64H3.625v1.221A3.756,3.756,0,0,1,4.8-7.488a2.722,2.722,0,0,1,1.375-.356,2.415,2.415,0,0,1,2.016.882,4.147,4.147,0,0,1,.688,2.578Z" transform="translate(-1.172 7.844)" fill="#1a6f5d"/>
      </g>
      <g id="Group_843" data-name="Group 843" transform="translate(191.835 580.656)">
        <path id="Path_775" data-name="Path 775" d="M7.156-7.386v2.018a8.208,8.208,0,0,0-1.516-.526A5.7,5.7,0,0,0,4.266-6.08a2.1,2.1,0,0,0-1.047.2.623.623,0,0,0-.328.577.55.55,0,0,0,.25.492,2.224,2.224,0,0,0,.922.254l.422.051a4.982,4.982,0,0,1,2.531.865,2.4,2.4,0,0,1,.656,1.865,2.346,2.346,0,0,1-.906,2A4.541,4.541,0,0,1,4.078.89,9.7,9.7,0,0,1,2.5.754,13.9,13.9,0,0,1,.844.364V-1.654a6.859,6.859,0,0,0,1.5.594,6.419,6.419,0,0,0,1.563.187,2.1,2.1,0,0,0,1.078-.22.709.709,0,0,0,.359-.644.6.6,0,0,0-.25-.526,2.653,2.653,0,0,0-.984-.271L3.672-2.6a4.287,4.287,0,0,1-2.3-.814A2.383,2.383,0,0,1,.719-5.249,2.284,2.284,0,0,1,1.547-7.2a4.206,4.206,0,0,1,2.563-.644,9.29,9.29,0,0,1,1.422.119,13.183,13.183,0,0,1,1.625.339Z" transform="translate(-0.719 7.844)" fill="#1a6f5d"/>
      </g>
      <g id="Group_844" data-name="Group 844" transform="translate(200.62 577.62)">
        <path id="Path_776" data-name="Path 776" d="M1.172-10.641H3.625V-4.35L6.438-7.4H9.281L5.547-3.587,9.578.907H6.609L3.625-2.552V.907H1.172Z" transform="translate(-1.172 10.641)" fill="#1a6f5d"/>
      </g>
      <g id="Group_845" data-name="Group 845" transform="translate(209.933 577.621)">
        <path id="Path_777" data-name="Path 777" d="M1.172-7.4H3.625V.907H1.172Zm0-3.239H3.625V-8.47H1.172Z" transform="translate(-1.172 10.641)" fill="#1a6f5d"/>
      </g>
      <g id="Group_846" data-name="Group 846" transform="translate(0.269 592.814)">
        <path id="Path_778" data-name="Path 778" d="M6.219-10.641v1.747H4.859a1,1,0,0,0-.719.2.988.988,0,0,0-.2.712V-7.4H6.016v1.9H3.938V.907H1.484V-5.5H.266V-7.4H1.484v-.577a2.619,2.619,0,0,1,.688-2,3.077,3.077,0,0,1,2.172-.661Z" transform="translate(-0.266 10.641)" fill="#1a6f5d"/>
      </g>
      <g id="Group_847" data-name="Group 847" transform="translate(7.265 595.85)">
        <path id="Path_779" data-name="Path 779" d="M6.859-5.385a2.809,2.809,0,0,0-.641-.22,2.511,2.511,0,0,0-.641-.085,1.736,1.736,0,0,0-1.453.661,2.983,2.983,0,0,0-.5,1.865V.669H1.172V-7.64H3.625v1.357A3.256,3.256,0,0,1,4.7-7.471a2.783,2.783,0,0,1,1.469-.373c.082,0,.172.008.266.017a2.607,2.607,0,0,1,.422.051Z" transform="translate(-1.172 7.844)" fill="#1a6f5d"/>
      </g>
      <g id="Group_848" data-name="Group 848" transform="translate(13.608 595.85)">
        <path id="Path_780" data-name="Path 780" d="M4.813-5.945A1.384,1.384,0,0,0,3.578-5.3a3.259,3.259,0,0,0-.422,1.814,3.365,3.365,0,0,0,.422,1.848,1.389,1.389,0,0,0,1.234.627,1.393,1.393,0,0,0,1.234-.627,3.366,3.366,0,0,0,.422-1.848A3.259,3.259,0,0,0,6.047-5.3,1.389,1.389,0,0,0,4.813-5.945Zm0-1.9a4.067,4.067,0,0,1,3.094,1.17A4.418,4.418,0,0,1,9.016-3.486,4.5,4.5,0,0,1,7.906-.264,4.088,4.088,0,0,1,4.813.889,4.112,4.112,0,0,1,1.719-.264,4.48,4.48,0,0,1,.609-3.486,4.4,4.4,0,0,1,1.719-6.674a4.09,4.09,0,0,1,3.094-1.17Z" transform="translate(-0.609 7.844)" fill="#1a6f5d"/>
      </g>
      <g id="Group_849" data-name="Group 849" transform="translate(23.772 595.85)">
        <path id="Path_781" data-name="Path 781" d="M8.266-6.267a3.529,3.529,0,0,1,1.109-1.17,2.564,2.564,0,0,1,1.406-.407,2.394,2.394,0,0,1,2,.882,4.071,4.071,0,0,1,.7,2.578V.669H11.016V-3.672a1.319,1.319,0,0,0,.016-.187v-.305A2.6,2.6,0,0,0,10.8-5.436a.831.831,0,0,0-.781-.407,1.211,1.211,0,0,0-1.078.627,3.608,3.608,0,0,0-.391,1.8V.669H6.094V-3.672a4.42,4.42,0,0,0-.219-1.764.811.811,0,0,0-.781-.407A1.226,1.226,0,0,0,4-5.215a3.538,3.538,0,0,0-.375,1.8V.669H1.156V-7.64H3.625v1.221A3.275,3.275,0,0,1,4.656-7.488a2.472,2.472,0,0,1,1.3-.356,2.4,2.4,0,0,1,1.391.424,2.534,2.534,0,0,1,.922,1.153Z" transform="translate(-1.156 7.844)" fill="#1a6f5d"/>
      </g>
      <g id="Group_850" data-name="Group 850" transform="translate(42.264 593.696)">
        <path id="Path_782" data-name="Path 782" d="M3.844-9.828v2.357H6.375v1.9H3.844v3.527a1.107,1.107,0,0,0,.2.78,1.3,1.3,0,0,0,.859.2h1.25v1.9H4.062A2.741,2.741,0,0,1,2,.194a3.325,3.325,0,0,1-.594-2.238V-5.572H.187v-1.9H1.406V-9.828Z" transform="translate(-0.187 9.828)" fill="#1a6f5d"/>
      </g>
      <g id="Group_851" data-name="Group 851" transform="translate(49.945 592.814)">
        <path id="Path_783" data-name="Path 783" d="M8.875-4.146V.908H6.406V-2.959c0-.721-.016-1.221-.047-1.492a1.549,1.549,0,0,0-.141-.594.99.99,0,0,0-.391-.407A1.064,1.064,0,0,0,5.266-5.6a1.377,1.377,0,0,0-1.2.644,3.139,3.139,0,0,0-.438,1.781V.907H1.172V-10.641H3.625v4.46A3.756,3.756,0,0,1,4.8-7.25a2.722,2.722,0,0,1,1.375-.356,2.415,2.415,0,0,1,2.016.882,4.147,4.147,0,0,1,.688,2.578Z" transform="translate(-1.172 10.641)" fill="#1a6f5d"/>
      </g>
      <g id="Group_852" data-name="Group 852" transform="translate(59.346 595.85)">
        <path id="Path_784" data-name="Path 784" d="M8.813-3.5v.746H3.094a2.072,2.072,0,0,0,.625,1.408A2.137,2.137,0,0,0,5.2-.874,5.33,5.33,0,0,0,6.8-1.129a7.7,7.7,0,0,0,1.656-.763V.16A9.885,9.885,0,0,1,6.719.7,8.264,8.264,0,0,1,4.984.889,4.364,4.364,0,0,1,1.75-.264,4.371,4.371,0,0,1,.609-3.486,4.409,4.409,0,0,1,1.734-6.674a4.109,4.109,0,0,1,3.109-1.17A3.725,3.725,0,0,1,7.734-6.657,4.473,4.473,0,0,1,8.812-3.5ZM6.3-4.384a1.778,1.778,0,0,0-.406-1.221A1.344,1.344,0,0,0,4.828-6.08a1.593,1.593,0,0,0-1.156.441,2.054,2.054,0,0,0-.547,1.255Z" transform="translate(-0.609 7.844)" fill="#1a6f5d"/>
      </g>
      <g id="Group_853" data-name="Group 853" transform="translate(74.389 593.29)">
        <path id="Path_785" data-name="Path 785" d="M1.281-10.2H4.219l3.719,7.6v-7.6h2.5V.87H7.5l-3.719-7.6V.87h-2.5Z" transform="translate(-1.281 10.203)" fill="#1a6f5d"/>
      </g>
      <g id="Group_854" data-name="Group 854" transform="translate(85.432 595.85)">
        <path id="Path_786" data-name="Path 786" d="M4.813-5.945A1.384,1.384,0,0,0,3.578-5.3a3.259,3.259,0,0,0-.422,1.814,3.365,3.365,0,0,0,.422,1.848,1.389,1.389,0,0,0,1.234.627,1.393,1.393,0,0,0,1.234-.627,3.366,3.366,0,0,0,.422-1.848A3.259,3.259,0,0,0,6.047-5.3,1.389,1.389,0,0,0,4.813-5.945Zm0-1.9a4.067,4.067,0,0,1,3.094,1.17A4.418,4.418,0,0,1,9.016-3.486,4.5,4.5,0,0,1,7.906-.264,4.088,4.088,0,0,1,4.813.889,4.112,4.112,0,0,1,1.719-.264,4.48,4.48,0,0,1,.609-3.486,4.4,4.4,0,0,1,1.719-6.674a4.09,4.09,0,0,1,3.094-1.17Z" transform="translate(-0.609 7.844)" fill="#1a6f5d"/>
      </g>
      <g id="Group_855" data-name="Group 855" transform="translate(95.535 596.053)">
        <path id="Path_787" data-name="Path 787" d="M1.094-2.586v-5.07H3.563v.831c0,.454-.008,1.017-.016,1.7v1.357c0,.67.016,1.149.047,1.441a1.8,1.8,0,0,0,.156.644,1.243,1.243,0,0,0,.391.407,1.116,1.116,0,0,0,.563.136,1.39,1.39,0,0,0,1.2-.627,3.152,3.152,0,0,0,.438-1.781v-4.1H8.8V.653H6.344v-1.2A3.973,3.973,0,0,1,5.172.534,2.828,2.828,0,0,1,3.813.873,2.439,2.439,0,0,1,1.781-.008a4.1,4.1,0,0,1-.687-2.578Z" transform="translate(-1.094 7.656)" fill="#1a6f5d"/>
      </g>
      <g id="Group_856" data-name="Group 856" transform="translate(105.581 595.85)">
        <path id="Path_788" data-name="Path 788" d="M8.875-4.384V.669H6.406V-3.2c0-.721-.016-1.221-.047-1.492a1.549,1.549,0,0,0-.141-.594.99.99,0,0,0-.391-.407,1.064,1.064,0,0,0-.562-.153,1.377,1.377,0,0,0-1.2.644,3.139,3.139,0,0,0-.438,1.781V.669H1.172V-7.64H3.625v1.221A3.756,3.756,0,0,1,4.8-7.488a2.722,2.722,0,0,1,1.375-.356,2.415,2.415,0,0,1,2.016.882,4.147,4.147,0,0,1,.688,2.578Z" transform="translate(-1.172 7.844)" fill="#1a6f5d"/>
      </g>
      <g id="Group_857" data-name="Group 857" transform="translate(120.53 593.29)">
        <path id="Path_789" data-name="Path 789" d="M1.281-10.2H5.656a4.321,4.321,0,0,1,2.984.933A3.415,3.415,0,0,1,9.688-6.591,3.4,3.4,0,0,1,8.641-3.912a4.3,4.3,0,0,1-2.984.933H3.922V.87H1.281ZM3.922-8.134v3.086H5.375a1.623,1.623,0,0,0,1.172-.39,1.523,1.523,0,0,0,.422-1.153,1.477,1.477,0,0,0-.422-1.136,1.593,1.593,0,0,0-1.172-.407Z" transform="translate(-1.281 10.203)" fill="#1a6f5d"/>
      </g>
      <g id="Group_858" data-name="Group 858" transform="translate(130.683 595.85)">
        <path id="Path_790" data-name="Path 790" d="M6.859-5.385a2.809,2.809,0,0,0-.641-.22,2.511,2.511,0,0,0-.641-.085,1.736,1.736,0,0,0-1.453.661,2.983,2.983,0,0,0-.5,1.865V.669H1.172V-7.64H3.625v1.357A3.256,3.256,0,0,1,4.7-7.471a2.783,2.783,0,0,1,1.469-.373c.082,0,.172.008.266.017a2.607,2.607,0,0,1,.422.051Z" transform="translate(-1.172 7.844)" fill="#1a6f5d"/>
      </g>
      <g id="Group_859" data-name="Group 859" transform="translate(137.022 595.85)">
        <path id="Path_791" data-name="Path 791" d="M4.813-5.945A1.384,1.384,0,0,0,3.578-5.3a3.259,3.259,0,0,0-.422,1.814,3.365,3.365,0,0,0,.422,1.848,1.389,1.389,0,0,0,1.234.627,1.393,1.393,0,0,0,1.234-.627,3.366,3.366,0,0,0,.422-1.848A3.259,3.259,0,0,0,6.047-5.3,1.389,1.389,0,0,0,4.813-5.945Zm0-1.9a4.067,4.067,0,0,1,3.094,1.17A4.418,4.418,0,0,1,9.016-3.486,4.5,4.5,0,0,1,7.906-.264,4.088,4.088,0,0,1,4.813.889,4.112,4.112,0,0,1,1.719-.264,4.48,4.48,0,0,1,.609-3.486,4.4,4.4,0,0,1,1.719-6.674a4.09,4.09,0,0,1,3.094-1.17Z" transform="translate(-0.609 7.844)" fill="#1a6f5d"/>
      </g>
      <g id="Group_860" data-name="Group 860" transform="translate(145.565 592.815)">
        <path id="Path_792" data-name="Path 792" d="M1.172-7.4H3.625V.755A3.782,3.782,0,0,1,2.875,3.3,2.622,2.622,0,0,1,.75,4.18H-.469V2.451h.422a1.1,1.1,0,0,0,.953-.356A2.356,2.356,0,0,0,1.172.755Zm0-3.239H3.625V-8.47H1.172Z" transform="translate(0.469 10.641)" fill="#1a6f5d"/>
      </g>
      <g id="Group_861" data-name="Group 861" transform="translate(151.44 595.85)">
        <path id="Path_793" data-name="Path 793" d="M8.813-3.5v.746H3.094a2.072,2.072,0,0,0,.625,1.408A2.137,2.137,0,0,0,5.2-.874,5.33,5.33,0,0,0,6.8-1.129a7.7,7.7,0,0,0,1.656-.763V.16A9.885,9.885,0,0,1,6.719.7,8.264,8.264,0,0,1,4.984.889,4.364,4.364,0,0,1,1.75-.264,4.371,4.371,0,0,1,.609-3.486,4.409,4.409,0,0,1,1.734-6.674a4.109,4.109,0,0,1,3.109-1.17A3.725,3.725,0,0,1,7.734-6.657,4.473,4.473,0,0,1,8.812-3.5ZM6.3-4.384a1.778,1.778,0,0,0-.406-1.221A1.344,1.344,0,0,0,4.828-6.08a1.593,1.593,0,0,0-1.156.441,2.054,2.054,0,0,0-.547,1.255Z" transform="translate(-0.609 7.844)" fill="#1a6f5d"/>
      </g>
      <g id="Group_862" data-name="Group 862" transform="translate(160.936 595.85)">
        <path id="Path_794" data-name="Path 794" d="M7.359-7.386v2.171a3.811,3.811,0,0,0-1-.543,3.019,3.019,0,0,0-1.047-.187,2,2,0,0,0-1.594.661,2.652,2.652,0,0,0-.562,1.8,2.74,2.74,0,0,0,.563,1.831,2.015,2.015,0,0,0,1.594.644A3.135,3.135,0,0,0,6.406-1.2a3.033,3.033,0,0,0,.953-.56V.431A7.38,7.38,0,0,1,6.188.771,6.043,6.043,0,0,1,5.016.889,4.42,4.42,0,0,1,1.766-.264,4.332,4.332,0,0,1,.609-3.486a4.324,4.324,0,0,1,1.156-3.2,4.438,4.438,0,0,1,3.25-1.153,6.043,6.043,0,0,1,1.172.119,7.856,7.856,0,0,1,1.172.339Z" transform="translate(-0.609 7.844)" fill="#1a6f5d"/>
      </g>
      <g id="Group_863" data-name="Group 863" transform="translate(168.811 593.696)">
        <path id="Path_795" data-name="Path 795" d="M3.844-9.828v2.357H6.375v1.9H3.844v3.527a1.107,1.107,0,0,0,.2.78,1.3,1.3,0,0,0,.859.2h1.25v1.9H4.062A2.741,2.741,0,0,1,2,.194a3.325,3.325,0,0,1-.594-2.238V-5.572H.187v-1.9H1.406V-9.828Z" transform="translate(-0.187 9.828)" fill="#1a6f5d"/>
      </g>
    </g>
  </g>
</svg>
