<svg xmlns="http://www.w3.org/2000/svg" xmlns:xlink="http://www.w3.org/1999/xlink" width="350" height="481" viewBox="0 0 350 481">
  <defs>
    <clipPath id="clip-path">
      <rect id="Rectangle_146" data-name="Rectangle 146" width="350" height="481" transform="translate(4738 1712)" fill="#fff" stroke="#707070" stroke-width="1"/>
    </clipPath>
  </defs>
  <g id="Mask_Group_5" data-name="Mask Group 5" transform="translate(-4738 -1712)" clip-path="url(#clip-path)">
    <g id="noun-ent-3981844_1_" data-name="noun-ent-3981844 (1)" transform="translate(4738 1727)">
      <path id="Path_796" data-name="Path 796" d="M295.5,441.222h-44.3a6.224,6.224,0,0,1-6.085-5.884l-.082-.645c-.082-.814-.164-1.672-.164-2.49l.041-10.348c.041-6.356.082-12.711.082-19.067a55.768,55.768,0,0,0-.367-7.386,9.5,9.5,0,0,0-.449-2.018,9.743,9.743,0,0,0-2.083-.13l-13.8.3c-6.821.17-13.639.3-20.461.429l-2.734.086a85.178,85.178,0,0,1-10.9-.173c-10.087-1.03-17.806-6.183-22.38-14.988a24.654,24.654,0,0,1-2.491-12.794q.493-8.825.86-17.651a23.27,23.27,0,0,1-3.474-1.5,16.689,16.689,0,0,1-8.655-11.551,16.971,16.971,0,0,1,3.553-13.828,29.635,29.635,0,0,1,2.693-2.919,45.674,45.674,0,0,1-8.779-3.736,26.108,26.108,0,0,1-5.921-4.551c-4.656-4.767-5.595-11.079-2.532-17.352l4.369-8.932c4.451-9.145,8.9-18.292,13.434-27.4a26.235,26.235,0,0,1,4.941-6.954c13.639-13.4,29.075-19.967,45.7-19.539a52.639,52.639,0,0,1,22.051,5.368c22.541,11.163,39.977,27.224,51.821,47.836,5.633,9.832,8.819,21.128,9.676,34.567,1.8,27.7,2.042,55.781,2.329,82.963q.119,11.269.243,22.544c.041,2.576.041,5.152,0,7.772v3.563a6.268,6.268,0,0,1-6.126,6.4ZM257.112,428.34h32.3c0-1.589,0-3.138-.038-4.727-.123-7.513-.164-15.071-.246-22.587-.246-26.965-.531-54.877-2.286-82.189-.736-11.335-3.35-20.782-7.965-28.813-10.7-18.635-25.929-32.635-46.551-42.814a41.378,41.378,0,0,0-17.149-4.165c-13.516-.3-25.686,4.9-37.037,16.062a12.965,12.965,0,0,0-2.45,3.477c-4.533,9.1-8.945,18.209-13.4,27.31l-4.327,8.975c-.654,1.333-.531,1.462.205,2.234a13.613,13.613,0,0,0,3.142,2.407,40.115,40.115,0,0,0,13.516,4.335c.939.173,1.881.432,2.778.688l.816.216A6.318,6.318,0,0,1,183,314.417l.041.688a6.738,6.738,0,0,1-2.083,5.452l-2.737,2.49c-.857.818-1.8,1.589-2.693,2.363a39.439,39.439,0,0,0-4.574,4.381,3.6,3.6,0,0,0-.939,2.962,4.125,4.125,0,0,0,2.2,2.663,16.088,16.088,0,0,0,2.494,1.03c1.018.386,2.039.774,3.06,1.246a8.572,8.572,0,0,1,4.779,7.729c-.246,7.127-.613,14.257-.98,21.384a11.344,11.344,0,0,0,1.021,5.927c2.573,5.026,6.777,7.729,12.78,8.33a74.924,74.924,0,0,0,9.391.13l2.819-.086c6.818-.13,13.6-.3,20.417-.429l13.8-.3c8.737-.173,13.6,3.992,14.863,13.14a65.829,65.829,0,0,1,.531,9.231c0,6.4-.041,12.754-.082,19.153Zm172.972,12.794H331.671a6.252,6.252,0,0,1-6.126-6.1l-.041-.774c-.041-.771-.082-1.546-.082-2.317l.205-36.116q.308-46.505.49-93.057v-4.338c0-7.945-.041-16.145,1.144-24.389,1.511-10.437,4.327-23.963,12.78-35.9a42.872,42.872,0,0,1,21.479-15.932,51.591,51.591,0,0,0,18.214-10.264c3.758-3.348,4.941-10.132,2.532-14.812-1.552-3.051-5.879-4.853-8.9-3.693a43.311,43.311,0,0,0-8.9,4.807c-9.312,6.312-19.56,12.711-31.607,16.664-15.723,5.152-30.627,4.338-44.307-2.406a61.084,61.084,0,0,1-13.27-8.46c-7.925-6.954-17.357-10.219-25.563-12.452-14.907-4.122-29.239-2.792-42.632,3.909-20.664,10.391-35.119,24.475-44.267,43.027-5.143,10.52-8.371,21.856-11.066,32.506l-.61,2.32a6.191,6.191,0,0,1-5.475,4.68,21.871,21.871,0,0,1-18.7-7.729c-4.656-5.584-6.452-13.312-4.859-21.171a57.241,57.241,0,0,1,4.451-13.526c8.329-17.392,17.6-38.263,23.439-60.936a155.922,155.922,0,0,0,3.1-17.132,42.087,42.087,0,0,0,.161-7.256l-.041-1.419c-.857-36.2,9.6-67.718,31.076-93.657,15.517-18.765,35.036-32.635,59.578-42.511C269.845,2.355,296.47-1.727,323.053.637,365.89,4.416,401.908,21.764,430.118,52.21,451.028,74.8,463.4,102.28,466.83,133.885a140.771,140.771,0,0,1-.164,31.3,27.076,27.076,0,0,0,0,4.424c.082,1.675.123,3.351.041,5.023-.857,16.4-5.756,31.778-9.881,43.329-2.94,8.244-6.493,16.274-9.881,24.089l-2.124,4.853a19.025,19.025,0,0,1-3.145,4.68,16.978,16.978,0,0,0-1.1,1.376l-.7,1.074a12.326,12.326,0,0,0-1.634,2.875c-.939,4.122-1.919,8.374-1.919,12.325q-.185,63.832-.082,127.706v37.7a6.376,6.376,0,0,1-6.167,6.482Zm-92.412-12.881h86.246V396.991q0-63.9.082-127.753a67.82,67.82,0,0,1,2.244-15.287,22.777,22.777,0,0,1,3.471-7.216l.613-.9a23.051,23.051,0,0,1,2.165-2.792,11.769,11.769,0,0,0,1.141-1.459l2.124-4.9c3.309-7.556,6.78-15.414,9.556-23.185,4.084-11.381,8.329-24.95,9.107-39.507a36.912,36.912,0,0,0-.041-3.693,44.441,44.441,0,0,1,.082-6.572,128.658,128.658,0,0,0,.161-28.3c-3.1-28.73-14.291-53.677-33.279-74.16-26.094-28.215-59.5-44.273-99.314-47.8-24.744-2.187-49.533,1.632-73.708,11.3-22.661,9.062-40.549,21.816-54.717,38.9-19.683,23.747-28.872,51.529-28.095,84.9l.041,1.33a58.039,58.039,0,0,1-.288,9.533,177.6,177.6,0,0,1-3.389,18.595c-6.126,23.79-15.72,45.39-24.336,63.383a45.2,45.2,0,0,0-3.392,10.391c-.775,3.906-.038,7.512,2.083,10.049a9.369,9.369,0,0,0,4.492,2.962c2.737-10.478,6.044-21.557,11.272-32.164,10.372-21.171,26.707-37.143,49.858-48.781,16.048-8.074,33.241-9.663,51-4.767,8.945,2.447,20.42,6.4,30.3,15.028a48.518,48.518,0,0,0,10.618,6.7c10.984,5.408,22.582,6.01,35.444,1.8,10.618-3.477,20.009-9.361,28.585-15.2a54.07,54.07,0,0,1,11.434-6.14c8.74-3.264,19.4,1.117,23.847,9.746,5.105,10.005,2.737,23.491-5.431,30.748A63.478,63.478,0,0,1,365.276,234.5a30,30,0,0,0-15.435,11.378c-5.351,7.559-8.576,16.833-10.495,30.146-1.062,7.3-1.021,14.642-1.021,22.414V302.9q-.123,46.57-.49,93.1Z" transform="translate(-117.927 0.015)" fill="#1a6f5d"/>
      <g id="Group_864" data-name="Group 864" transform="translate(0.634 490.792)">
        <path id="Path_797" data-name="Path 797" d="M14.022-5.1a9.407,9.407,0,0,1-2.206.876,9.584,9.584,0,0,1-2.394.3A7.929,7.929,0,0,1,3.531-6.116,8.064,8.064,0,0,1,1.36-12.052a8.044,8.044,0,0,1,2.171-5.936,7.929,7.929,0,0,1,5.891-2.184,9.584,9.584,0,0,1,2.394.3,9.235,9.235,0,0,1,2.206.864v3.233a8.018,8.018,0,0,0-2.112-1.111,6.654,6.654,0,0,0-2.183-.358A4.011,4.011,0,0,0,6.5-15.865a5.707,5.707,0,0,0-1.174,3.813A5.729,5.729,0,0,0,6.5-8.238,4,4,0,0,0,9.727-6.856a6.574,6.574,0,0,0,2.183-.358,8.173,8.173,0,0,0,2.112-1.123Z" transform="translate(-1.36 20.172)" fill="#1a6f5d"/>
      </g>
      <g id="Group_865" data-name="Group 865" transform="translate(16.31 494.692)">
        <path id="Path_798" data-name="Path 798" d="M10.578-11.741a4.5,4.5,0,0,0-.939-.346,3.93,3.93,0,0,0-.927-.111,2.577,2.577,0,0,0-2.124.926,4.186,4.186,0,0,0-.739,2.666V-3.2H2.281V-14.95H5.849v1.938A4.719,4.719,0,0,1,7.433-14.7a4.115,4.115,0,0,1,2.136-.531,3.605,3.605,0,0,1,.387.025c.141.009.343.031.61.062Z" transform="translate(-2.281 15.234)" fill="#1a6f5d"/>
      </g>
      <g id="Group_866" data-name="Group 866" transform="translate(25.546 494.692)">
        <path id="Path_799" data-name="Path 799" d="M13.154-9.1V-8.04H4.81a2.86,2.86,0,0,0,.9,1.987A3.253,3.253,0,0,0,7.885-5.4,8.213,8.213,0,0,0,10.2-5.744a11.043,11.043,0,0,0,2.429-1.061v2.888a14.68,14.68,0,0,1-2.535.765,12.624,12.624,0,0,1-2.535.259A6.5,6.5,0,0,1,2.85-4.51,6.045,6.045,0,0,1,1.172-9.064a6.1,6.1,0,0,1,1.643-4.517,6.144,6.144,0,0,1,4.542-1.654,5.508,5.508,0,0,1,4.213,1.678A6.2,6.2,0,0,1,13.154-9.1ZM9.481-10.347a2.463,2.463,0,0,0-.6-1.728,1.973,1.973,0,0,0-1.537-.654,2.342,2.342,0,0,0-1.69.617,2.883,2.883,0,0,0-.81,1.765Z" transform="translate(-1.172 15.235)" fill="#1a6f5d"/>
      </g>
      <g id="Group_867" data-name="Group 867" transform="translate(39.394 494.692)">
        <path id="Path_800" data-name="Path 800" d="M7.016-8.484a2.96,2.96,0,0,0-1.69.395,1.341,1.341,0,0,0-.563,1.172,1.425,1.425,0,0,0,.458,1.123A1.867,1.867,0,0,0,6.488-5.4a2.212,2.212,0,0,0,1.69-.753,2.726,2.726,0,0,0,.692-1.9v-.432ZM12.461-9.9v6.7H8.87v-1.74A4.846,4.846,0,0,1,7.251-3.375a4.551,4.551,0,0,1-2.183.481A3.834,3.834,0,0,1,2.252-3.955a3.72,3.72,0,0,1-1.08-2.764,3.471,3.471,0,0,1,1.35-3.036,7.378,7.378,0,0,1,4.237-.963H8.87v-.3a1.4,1.4,0,0,0-.669-1.3,4.062,4.062,0,0,0-2.089-.42,8.818,8.818,0,0,0-2.136.247,6.941,6.941,0,0,0-1.831.716V-14.63a18.782,18.782,0,0,1,2.3-.444,17.193,17.193,0,0,1,2.312-.16,6.249,6.249,0,0,1,4.366,1.259A5.377,5.377,0,0,1,12.462-9.9Z" transform="translate(-1.172 15.234)" fill="#1a6f5d"/>
      </g>
      <g id="Group_868" data-name="Group 868" transform="translate(52.561 491.643)">
        <path id="Path_801" data-name="Path 801" d="M5.7-19.094v3.332H9.384v2.69H5.7v4.986A1.485,1.485,0,0,0,6-6.988,1.906,1.906,0,0,0,7.236-6.7H9.067v2.69H6.016a4.051,4.051,0,0,1-3-.926,4.512,4.512,0,0,1-.88-3.147v-4.986H.359v-2.69H2.131v-3.332Z" transform="translate(-0.359 19.094)" fill="#1a6f5d"/>
      </g>
      <g id="Group_869" data-name="Group 869" transform="translate(62.932 494.692)">
        <path id="Path_802" data-name="Path 802" d="M13.154-9.1V-8.04H4.81a2.86,2.86,0,0,0,.9,1.987A3.253,3.253,0,0,0,7.885-5.4,8.213,8.213,0,0,0,10.2-5.744a11.043,11.043,0,0,0,2.429-1.061v2.888a14.68,14.68,0,0,1-2.535.765,12.624,12.624,0,0,1-2.535.259A6.5,6.5,0,0,1,2.85-4.51,6.045,6.045,0,0,1,1.172-9.064a6.1,6.1,0,0,1,1.643-4.517,6.144,6.144,0,0,1,4.542-1.654,5.508,5.508,0,0,1,4.213,1.678A6.2,6.2,0,0,1,13.154-9.1ZM9.481-10.347a2.463,2.463,0,0,0-.6-1.728,1.973,1.973,0,0,0-1.537-.654,2.342,2.342,0,0,0-1.69.617,2.883,2.883,0,0,0-.81,1.765Z" transform="translate(-1.172 15.235)" fill="#1a6f5d"/>
      </g>
      <g id="Group_870" data-name="Group 870" transform="translate(76.815 490.409)">
        <path id="Path_803" data-name="Path 803" d="M9.621-14.363v-6.294H13.2V-4.342H9.621v-1.7A5.042,5.042,0,0,1,7.99-4.515a4.26,4.26,0,0,1-2.054.481A4.088,4.088,0,0,1,2.545-5.761,7.074,7.074,0,0,1,1.219-10.2a7.086,7.086,0,0,1,1.326-4.443,4.1,4.1,0,0,1,3.392-1.728,4.2,4.2,0,0,1,2.054.494,5.131,5.131,0,0,1,1.631,1.518Zm-2.359,7.6a1.98,1.98,0,0,0,1.749-.876,4.533,4.533,0,0,0,.61-2.567,4.482,4.482,0,0,0-.61-2.555,1.977,1.977,0,0,0-1.749-.889,1.99,1.99,0,0,0-1.749.889,4.535,4.535,0,0,0-.6,2.555,4.587,4.587,0,0,0,.6,2.567A1.994,1.994,0,0,0,7.262-6.761Z" transform="translate(-1.219 20.657)" fill="#1a6f5d"/>
      </g>
      <g id="Group_871" data-name="Group 871" transform="translate(99.335 490.41)">
        <path id="Path_804" data-name="Path 804" d="M8.231-6.76a1.97,1.97,0,0,0,1.737-.876,4.533,4.533,0,0,0,.61-2.567,4.482,4.482,0,0,0-.61-2.555,1.967,1.967,0,0,0-1.737-.889,2.031,2.031,0,0,0-1.772.889,4.486,4.486,0,0,0-.61,2.555,4.486,4.486,0,0,0,.61,2.555A2.031,2.031,0,0,0,8.231-6.76Zm-2.382-7.6A5.1,5.1,0,0,1,7.48-15.88a4.258,4.258,0,0,1,2.065-.494,4.1,4.1,0,0,1,3.392,1.728A7.1,7.1,0,0,1,14.263-10.2a7.092,7.092,0,0,1-1.326,4.443A4.1,4.1,0,0,1,9.545-4.033,4.323,4.323,0,0,1,7.48-4.514a5.013,5.013,0,0,1-1.631-1.53v1.7H2.281V-20.656H5.849Z" transform="translate(-2.281 20.656)" fill="#1a6f5d"/>
      </g>
      <g id="Group_872" data-name="Group 872" transform="translate(112.485 494.976)">
        <path id="Path_805" data-name="Path 805" d="M.328-14.875H3.9L6.9-6.9l2.558-7.972h3.568L8.332-2.016A6.374,6.374,0,0,1,6.677.724a3.751,3.751,0,0,1-2.488.79H2.124V-.955H3.239a2.255,2.255,0,0,0,1.326-.309A2.021,2.021,0,0,0,5.21-2.349L5.3-2.67Z" transform="translate(-0.328 14.875)" fill="#1a6f5d"/>
      </g>
      <g id="Group_873" data-name="Group 873" transform="translate(134.533 491.076)">
        <path id="Path_806" data-name="Path 806" d="M2.5-19.812H6.783l5.41,10.737V-19.812h3.65V-4.164h-4.3L6.138-14.9V-4.164H2.5Z" transform="translate(-2.5 19.812)" fill="#1a6f5d"/>
      </g>
      <g id="Group_874" data-name="Group 874" transform="translate(150.623 494.692)">
        <path id="Path_807" data-name="Path 807" d="M7.016-8.484a2.96,2.96,0,0,0-1.69.395,1.341,1.341,0,0,0-.563,1.172,1.425,1.425,0,0,0,.458,1.123A1.867,1.867,0,0,0,6.488-5.4a2.212,2.212,0,0,0,1.69-.753,2.726,2.726,0,0,0,.692-1.9v-.432ZM12.461-9.9v6.7H8.87v-1.74A4.846,4.846,0,0,1,7.251-3.375a4.551,4.551,0,0,1-2.183.481A3.834,3.834,0,0,1,2.252-3.955a3.72,3.72,0,0,1-1.08-2.764,3.471,3.471,0,0,1,1.35-3.036,7.378,7.378,0,0,1,4.237-.963H8.87v-.3a1.4,1.4,0,0,0-.669-1.3,4.062,4.062,0,0,0-2.089-.42,8.818,8.818,0,0,0-2.136.247,6.941,6.941,0,0,0-1.831.716V-14.63a18.782,18.782,0,0,1,2.3-.444,17.193,17.193,0,0,1,2.312-.16,6.249,6.249,0,0,1,4.366,1.259A5.377,5.377,0,0,1,12.462-9.9Z" transform="translate(-1.172 15.234)" fill="#1a6f5d"/>
      </g>
      <g id="Group_875" data-name="Group 875" transform="translate(165.233 490.409)">
        <path id="Path_808" data-name="Path 808" d="M2.281-16.09H5.849V-4.342H2.281Zm0-4.566H5.849V-17.6H2.281Z" transform="translate(-2.281 20.656)" fill="#1a6f5d"/>
      </g>
      <g id="Group_876" data-name="Group 876" transform="translate(170.907 490.41)">
        <path id="Path_809" data-name="Path 809" d="M9.188-20.656v2.468H7.216A1.546,1.546,0,0,0,6.16-17.9a1.367,1.367,0,0,0-.293,1v.814H8.918v2.69H5.867v9.058H2.287V-13.4H.515v-2.69H2.287V-16.9A3.609,3.609,0,0,1,3.308-19.73a4.586,4.586,0,0,1,3.157-.926Z" transform="translate(-0.515 20.656)" fill="#1a6f5d"/>
      </g>
      <g id="Group_877" data-name="Group 877" transform="translate(188.388 491.076)">
        <path id="Path_810" data-name="Path 810" d="M2.5-19.812H6.338V-4.164H2.5Z" transform="translate(-2.5 19.812)" fill="#1a6f5d"/>
      </g>
      <g id="Group_878" data-name="Group 878" transform="translate(195.819 490.41)">
        <path id="Path_811" data-name="Path 811" d="M2.281-20.656H5.849v8.885L9.956-16.09h4.154L8.654-10.7l5.879,6.356H10.214l-4.366-4.9v4.9H2.281Z" transform="translate(-2.281 20.656)" fill="#1a6f5d"/>
      </g>
      <g id="Group_879" data-name="Group 879" transform="translate(209.4 490.41)">
        <path id="Path_812" data-name="Path 812" d="M2.281-20.656H5.849v8.885L9.956-16.09h4.154L8.654-10.7l5.879,6.356H10.214l-4.366-4.9v4.9H2.281Z" transform="translate(-2.281 20.656)" fill="#1a6f5d"/>
      </g>
      <g id="Group_880" data-name="Group 880" transform="translate(222.145 494.692)">
        <path id="Path_813" data-name="Path 813" d="M13.154-9.1V-8.04H4.81a2.86,2.86,0,0,0,.9,1.987A3.253,3.253,0,0,0,7.885-5.4,8.213,8.213,0,0,0,10.2-5.744a11.043,11.043,0,0,0,2.429-1.061v2.888a14.68,14.68,0,0,1-2.535.765,12.624,12.624,0,0,1-2.535.259A6.5,6.5,0,0,1,2.85-4.51,6.045,6.045,0,0,1,1.172-9.064a6.1,6.1,0,0,1,1.643-4.517,6.144,6.144,0,0,1,4.542-1.654,5.508,5.508,0,0,1,4.213,1.678A6.2,6.2,0,0,1,13.154-9.1ZM9.481-10.347a2.463,2.463,0,0,0-.6-1.728,1.973,1.973,0,0,0-1.537-.654,2.342,2.342,0,0,0-1.69.617,2.883,2.883,0,0,0-.81,1.765Z" transform="translate(-1.172 15.235)" fill="#1a6f5d"/>
      </g>
      <g id="Group_881" data-name="Group 881" transform="translate(236.826 494.692)">
        <path id="Path_814" data-name="Path 814" d="M10.578-11.741a4.5,4.5,0,0,0-.939-.346,3.93,3.93,0,0,0-.927-.111,2.577,2.577,0,0,0-2.124.926,4.186,4.186,0,0,0-.739,2.666V-3.2H2.281V-14.95H5.849v1.938A4.719,4.719,0,0,1,7.433-14.7a4.115,4.115,0,0,1,2.136-.531,3.605,3.605,0,0,1,.387.025c.141.009.343.031.61.062Z" transform="translate(-2.281 15.234)" fill="#1a6f5d"/>
      </g>
      <g id="Group_882" data-name="Group 882" transform="translate(246.895 490.409)">
        <path id="Path_815" data-name="Path 815" d="M2.281-16.09H5.849V-4.342H2.281Zm0-4.566H5.849V-17.6H2.281Z" transform="translate(-2.281 20.656)" fill="#1a6f5d"/>
      </g>
      <g id="Group_883" data-name="Group 883" transform="translate(0 511.879)">
        <path id="Path_816" data-name="Path 816" d="M9.188-20.656v2.468H7.216A1.546,1.546,0,0,0,6.16-17.9a1.367,1.367,0,0,0-.293,1v.814H8.918v2.69H5.867v9.058H2.287V-13.4H.515v-2.69H2.287V-16.9A3.609,3.609,0,0,1,3.308-19.73a4.586,4.586,0,0,1,3.157-.926Z" transform="translate(-0.515 20.656)" fill="#1a6f5d"/>
      </g>
      <g id="Group_884" data-name="Group 884" transform="translate(10.207 516.162)">
        <path id="Path_817" data-name="Path 817" d="M10.578-11.741a4.5,4.5,0,0,0-.939-.346,3.93,3.93,0,0,0-.927-.111,2.577,2.577,0,0,0-2.124.926,4.186,4.186,0,0,0-.739,2.666V-3.2H2.281V-14.95H5.849v1.938A4.719,4.719,0,0,1,7.433-14.7a4.115,4.115,0,0,1,2.136-.531,3.605,3.605,0,0,1,.387.025c.141.009.343.031.61.062Z" transform="translate(-2.281 15.234)" fill="#1a6f5d"/>
      </g>
      <g id="Group_885" data-name="Group 885" transform="translate(19.443 516.161)">
        <path id="Path_818" data-name="Path 818" d="M7.321-12.544a2.06,2.06,0,0,0-1.807.9,4.466,4.466,0,0,0-.622,2.579,4.516,4.516,0,0,0,.622,2.592,2.065,2.065,0,0,0,1.807.889,2.048,2.048,0,0,0,1.784-.889,4.539,4.539,0,0,0,.622-2.592,4.488,4.488,0,0,0-.622-2.579A2.044,2.044,0,0,0,7.321-12.544Zm0-2.69a6.053,6.053,0,0,1,4.506,1.641,6.17,6.17,0,0,1,1.619,4.529,6.181,6.181,0,0,1-1.619,4.541A6.071,6.071,0,0,1,7.321-2.893,6.108,6.108,0,0,1,2.8-4.522,6.151,6.151,0,0,1,1.172-9.064,6.14,6.14,0,0,1,2.8-13.593,6.09,6.09,0,0,1,7.321-15.234Z" transform="translate(-1.172 15.234)" fill="#1a6f5d"/>
      </g>
      <g id="Group_886" data-name="Group 886" transform="translate(34.279 516.161)">
        <path id="Path_819" data-name="Path 819" d="M12.624-13a5,5,0,0,1,1.608-1.654,3.835,3.835,0,0,1,2.054-.58,3.507,3.507,0,0,1,2.922,1.259,5.665,5.665,0,0,1,1.009,3.628V-3.2H16.637v-6.4c.006-.1.012-.238.012-.42a3.493,3.493,0,0,0-.352-1.8,1.2,1.2,0,0,0-1.115-.568,1.748,1.748,0,0,0-1.573.889,4.915,4.915,0,0,0-.575,2.542V-3.2H9.443V-9.323a6.128,6.128,0,0,0-.317-2.505A1.2,1.2,0,0,0,7.988-12.4a1.785,1.785,0,0,0-1.6.889,4.765,4.765,0,0,0-.552,2.53V-3.2H2.25V-14.95H5.841v1.728a4.7,4.7,0,0,1,1.514-1.506,3.63,3.63,0,0,1,1.878-.506,3.571,3.571,0,0,1,2.042.592A3.711,3.711,0,0,1,12.624-13Z" transform="translate(-2.25 15.234)" fill="#1a6f5d"/>
      </g>
      <g id="Group_887" data-name="Group 887" transform="translate(61.245 513.113)">
        <path id="Path_820" data-name="Path 820" d="M5.7-19.094v3.332H9.384v2.69H5.7v4.986A1.485,1.485,0,0,0,6-6.988,1.906,1.906,0,0,0,7.236-6.7H9.067v2.69H6.016a4.051,4.051,0,0,1-3-.926,4.512,4.512,0,0,1-.88-3.147v-4.986H.359v-2.69H2.131v-3.332Z" transform="translate(-0.359 19.094)" fill="#1a6f5d"/>
      </g>
      <g id="Group_888" data-name="Group 888" transform="translate(72.446 511.879)">
        <path id="Path_821" data-name="Path 821" d="M13.512-11.487v7.145H9.921V-9.8a20.561,20.561,0,0,0-.07-2.11,2.181,2.181,0,0,0-.223-.852,1.467,1.467,0,0,0-.575-.568,1.561,1.561,0,0,0-.81-.21,2.041,2.041,0,0,0-1.76.913,4.306,4.306,0,0,0-.634,2.505v5.776H2.281V-20.656H5.848v6.294A5.745,5.745,0,0,1,7.562-15.88a4.183,4.183,0,0,1,2.007-.494A3.519,3.519,0,0,1,12.5-15.115a5.665,5.665,0,0,1,1.009,3.628Z" transform="translate(-2.281 20.656)" fill="#1a6f5d"/>
      </g>
      <g id="Group_889" data-name="Group 889" transform="translate(86.151 516.161)">
        <path id="Path_822" data-name="Path 822" d="M13.154-9.1V-8.04H4.81a2.86,2.86,0,0,0,.9,1.987A3.253,3.253,0,0,0,7.885-5.4,8.213,8.213,0,0,0,10.2-5.744a11.043,11.043,0,0,0,2.429-1.061v2.888a14.68,14.68,0,0,1-2.535.765,12.624,12.624,0,0,1-2.535.259A6.5,6.5,0,0,1,2.85-4.51,6.045,6.045,0,0,1,1.172-9.064a6.1,6.1,0,0,1,1.643-4.517,6.144,6.144,0,0,1,4.542-1.654,5.508,5.508,0,0,1,4.213,1.678A6.2,6.2,0,0,1,13.154-9.1ZM9.481-10.347a2.463,2.463,0,0,0-.6-1.728,1.973,1.973,0,0,0-1.537-.654,2.342,2.342,0,0,0-1.69.617,2.883,2.883,0,0,0-.81,1.765Z" transform="translate(-1.172 15.235)" fill="#1a6f5d"/>
      </g>
      <g id="Group_890" data-name="Group 890" transform="translate(108.105 512.546)">
        <path id="Path_823" data-name="Path 823" d="M2.5-19.812H6.783l5.41,10.737V-19.812h3.65V-4.164h-4.3L6.138-14.9V-4.164H2.5Z" transform="translate(-2.5 19.812)" fill="#1a6f5d"/>
      </g>
      <g id="Group_891" data-name="Group 891" transform="translate(124.194 516.161)">
        <path id="Path_824" data-name="Path 824" d="M7.321-12.544a2.06,2.06,0,0,0-1.807.9,4.466,4.466,0,0,0-.622,2.579,4.516,4.516,0,0,0,.622,2.592,2.065,2.065,0,0,0,1.807.889,2.048,2.048,0,0,0,1.784-.889,4.539,4.539,0,0,0,.622-2.592,4.488,4.488,0,0,0-.622-2.579A2.044,2.044,0,0,0,7.321-12.544Zm0-2.69a6.053,6.053,0,0,1,4.506,1.641,6.17,6.17,0,0,1,1.619,4.529,6.181,6.181,0,0,1-1.619,4.541A6.071,6.071,0,0,1,7.321-2.893,6.108,6.108,0,0,1,2.8-4.522,6.151,6.151,0,0,1,1.172-9.064,6.14,6.14,0,0,1,2.8-13.593,6.09,6.09,0,0,1,7.321-15.234Z" transform="translate(-1.172 15.234)" fill="#1a6f5d"/>
      </g>
      <g id="Group_892" data-name="Group 892" transform="translate(138.937 516.445)">
        <path id="Path_825" data-name="Path 825" d="M2.125-7.693v-7.182H5.716v1.185c0,.636-.006,1.432-.012,2.394s-.012,1.6-.012,1.925q0,1.407.07,2.036a2.382,2.382,0,0,0,.235.9,1.525,1.525,0,0,0,.575.568,1.638,1.638,0,0,0,.822.2,2.021,2.021,0,0,0,1.749-.9,4.293,4.293,0,0,0,.634-2.505v-5.8h3.579V-3.127H9.777v-1.7a5.566,5.566,0,0,1-1.7,1.53,4.182,4.182,0,0,1-1.995.481A3.561,3.561,0,0,1,3.134-4.064,5.671,5.671,0,0,1,2.125-7.693Z" transform="translate(-2.125 14.875)" fill="#1a6f5d"/>
      </g>
      <g id="Group_893" data-name="Group 893" transform="translate(153.588 516.161)">
        <path id="Path_826" data-name="Path 826" d="M13.512-10.347V-3.2H9.921V-8.669a20.393,20.393,0,0,0-.07-2.1,2.181,2.181,0,0,0-.223-.852,1.467,1.467,0,0,0-.575-.568,1.561,1.561,0,0,0-.81-.21,2.041,2.041,0,0,0-1.76.913,4.306,4.306,0,0,0-.634,2.505V-3.2H2.281V-14.951H5.848v1.728a5.745,5.745,0,0,1,1.713-1.518,4.183,4.183,0,0,1,2.007-.494A3.519,3.519,0,0,1,12.5-13.976a5.665,5.665,0,0,1,1.009,3.628Z" transform="translate(-2.281 15.234)" fill="#1a6f5d"/>
      </g>
      <g id="Group_894" data-name="Group 894" transform="translate(175.396 512.546)">
        <path id="Path_827" data-name="Path 827" d="M2.5-19.812H8.872a6.436,6.436,0,0,1,4.354,1.32,4.736,4.736,0,0,1,1.526,3.776,4.781,4.781,0,0,1-1.526,3.8,6.42,6.42,0,0,1-4.354,1.32H6.338v5.43H2.5Zm3.838,2.925v4.369H8.462a2.437,2.437,0,0,0,1.725-.568,2.144,2.144,0,0,0,.61-1.629,2.069,2.069,0,0,0-.61-1.6,2.451,2.451,0,0,0-1.725-.568Z" transform="translate(-2.5 19.812)" fill="#1a6f5d"/>
      </g>
      <g id="Group_895" data-name="Group 895" transform="translate(190.198 516.162)">
        <path id="Path_828" data-name="Path 828" d="M10.578-11.741a4.5,4.5,0,0,0-.939-.346,3.93,3.93,0,0,0-.927-.111,2.577,2.577,0,0,0-2.124.926,4.186,4.186,0,0,0-.739,2.666V-3.2H2.281V-14.95H5.849v1.938A4.719,4.719,0,0,1,7.433-14.7a4.115,4.115,0,0,1,2.136-.531,3.605,3.605,0,0,1,.387.025c.141.009.343.031.61.062Z" transform="translate(-2.281 15.234)" fill="#1a6f5d"/>
      </g>
      <g id="Group_896" data-name="Group 896" transform="translate(199.434 516.161)">
        <path id="Path_829" data-name="Path 829" d="M7.321-12.544a2.06,2.06,0,0,0-1.807.9,4.466,4.466,0,0,0-.622,2.579,4.516,4.516,0,0,0,.622,2.592,2.065,2.065,0,0,0,1.807.889,2.048,2.048,0,0,0,1.784-.889,4.539,4.539,0,0,0,.622-2.592,4.488,4.488,0,0,0-.622-2.579A2.044,2.044,0,0,0,7.321-12.544Zm0-2.69a6.053,6.053,0,0,1,4.506,1.641,6.17,6.17,0,0,1,1.619,4.529,6.181,6.181,0,0,1-1.619,4.541A6.071,6.071,0,0,1,7.321-2.893,6.108,6.108,0,0,1,2.8-4.522,6.151,6.151,0,0,1,1.172-9.064,6.14,6.14,0,0,1,2.8-13.593,6.09,6.09,0,0,1,7.321-15.234Z" transform="translate(-1.172 15.234)" fill="#1a6f5d"/>
      </g>
      <g id="Group_897" data-name="Group 897" transform="translate(211.9 511.879)">
        <path id="Path_830" data-name="Path 830" d="M1.488-16.09H5.055V-4.552a5.36,5.36,0,0,1-1.08,3.6A3.874,3.874,0,0,1,.866.3H-.906V-2.17h.622a1.691,1.691,0,0,0,1.4-.481,3.335,3.335,0,0,0,.376-1.9Zm0-4.566H5.055V-17.6H1.488Z" transform="translate(0.906 20.656)" fill="#1a6f5d"/>
      </g>
      <g id="Group_898" data-name="Group 898" transform="translate(220.458 516.161)">
        <path id="Path_831" data-name="Path 831" d="M13.154-9.1V-8.04H4.81a2.86,2.86,0,0,0,.9,1.987A3.253,3.253,0,0,0,7.885-5.4,8.213,8.213,0,0,0,10.2-5.744a11.043,11.043,0,0,0,2.429-1.061v2.888a14.68,14.68,0,0,1-2.535.765,12.624,12.624,0,0,1-2.535.259A6.5,6.5,0,0,1,2.85-4.51,6.045,6.045,0,0,1,1.172-9.064a6.1,6.1,0,0,1,1.643-4.517,6.144,6.144,0,0,1,4.542-1.654,5.508,5.508,0,0,1,4.213,1.678A6.2,6.2,0,0,1,13.154-9.1ZM9.481-10.347a2.463,2.463,0,0,0-.6-1.728,1.973,1.973,0,0,0-1.537-.654,2.342,2.342,0,0,0-1.69.617,2.883,2.883,0,0,0-.81,1.765Z" transform="translate(-1.172 15.235)" fill="#1a6f5d"/>
      </g>
      <g id="Group_899" data-name="Group 899" transform="translate(234.306 516.162)">
        <path id="Path_832" data-name="Path 832" d="M11.03-14.58v3.061a5.678,5.678,0,0,0-1.467-.765,4.5,4.5,0,0,0-1.514-.259,2.963,2.963,0,0,0-2.324.926,3.65,3.65,0,0,0-.833,2.555A3.688,3.688,0,0,0,5.725-6.5a2.977,2.977,0,0,0,2.324.913,4.832,4.832,0,0,0,1.584-.259,4.464,4.464,0,0,0,1.4-.777v3.073a9.541,9.541,0,0,1-1.7.481A8.8,8.8,0,0,1,7.6-2.893,6.557,6.557,0,0,1,2.874-4.522a6.006,6.006,0,0,1-1.7-4.541,5.972,5.972,0,0,1,1.7-4.529A6.536,6.536,0,0,1,7.6-15.234a8.665,8.665,0,0,1,1.725.173,10.184,10.184,0,0,1,1.7.481Z" transform="translate(-1.172 15.234)" fill="#1a6f5d"/>
      </g>
      <g id="Group_900" data-name="Group 900" transform="translate(245.801 513.113)">
        <path id="Path_833" data-name="Path 833" d="M5.7-19.094v3.332H9.384v2.69H5.7v4.986A1.485,1.485,0,0,0,6-6.988,1.906,1.906,0,0,0,7.236-6.7H9.067v2.69H6.016a4.051,4.051,0,0,1-3-.926,4.512,4.512,0,0,1-.88-3.147v-4.986H.359v-2.69H2.131v-3.332Z" transform="translate(-0.359 19.094)" fill="#1a6f5d"/>
      </g>
    </g>
  </g>
</svg>
