<svg xmlns="http://www.w3.org/2000/svg" xmlns:xlink="http://www.w3.org/1999/xlink" width="482" height="481" viewBox="0 0 482 481">
  <defs>
    <clipPath id="clip-path">
      <rect id="Rectangle_144" data-name="Rectangle 144" width="482" height="481" transform="translate(4196 830)" fill="#fff" stroke="#707070" stroke-width="1"/>
    </clipPath>
  </defs>
  <g id="Mask_Group_3" data-name="Mask Group 3" transform="translate(-4196 -830)" clip-path="url(#clip-path)">
    <g id="noun-stethoscope-1087040" transform="translate(4210.502 830)">
      <path id="Path_710" data-name="Path 710" d="M522.526,229.38a14.666,14.666,0,1,0,15.009,14.667,14.855,14.855,0,0,0-15.009-14.667" transform="translate(-134.726 -44.299)" fill="#c93957" fill-rule="evenodd"/>
      <path id="Path_711" data-name="Path 711" d="M461.544,240.191c-18.679,0-33.864-14.843-33.864-33.091s15.186-33.087,33.864-33.087,33.867,14.846,33.867,33.087-15.193,33.091-33.867,33.091m0-98.267c-36.773,0-66.688,29.238-66.688,65.173,0,32.795,24.943,59.939,57.257,64.443v78.412c0,51.789-43.725,93.916-97.466,93.916s-97.466-42.13-97.466-93.916V297.8c127.257-8.154,143.883-180.229,145.914-233.873a25.448,25.448,0,0,0-7.438-19,26.855,26.855,0,0,0-19.278-8H367.3c-6.222-17.581-29.115-29.558-45.334-29.558-20.411,0-37.017,17.4-37.017,38.77s16.606,38.78,37.017,38.78c16.219,0,39.113-11.98,45.334-29.564h9.078a7.948,7.948,0,0,1,5.7,2.364,7.429,7.429,0,0,1,2.169,5.529c-1.919,50.8-17.425,216.517-136.5,216.517S113.185,114.039,111.266,63.238a7.387,7.387,0,0,1,2.166-5.529,7.943,7.943,0,0,1,5.7-2.364h9.078c6.225,17.584,29.112,29.564,45.334,29.564,20.411,0,37.013-17.4,37.013-38.78s-16.6-38.77-37.013-38.77c-16.223,0-39.109,11.977-45.334,29.558h-9.078a26.857,26.857,0,0,0-19.284,8,25.48,25.48,0,0,0-7.431,19c2.026,53.642,18.651,225.72,145.905,233.873v52.153c0,61.948,52.186,112.347,116.328,112.347s116.32-50.4,116.32-112.347V271.539c32.318-4.5,57.264-31.648,57.264-64.443,0-35.933-29.918-65.173-66.692-65.173" transform="translate(-83.744 2.641)" fill="#c93957" fill-rule="evenodd"/>
      <g id="Group_792" data-name="Group 792" transform="translate(0.733 513.394)">
        <path id="Path_712" data-name="Path 712" d="M16.214-4.4a11.518,11.518,0,0,1-2.586.938,11.884,11.884,0,0,1-2.8.326A9.7,9.7,0,0,1,3.937-5.5,8.4,8.4,0,0,1,1.391-11.95,8.38,8.38,0,0,1,3.937-18.4a9.674,9.674,0,0,1,6.891-2.384,11.883,11.883,0,0,1,2.8.326,11.516,11.516,0,0,1,2.586.938V-16a10.341,10.341,0,0,0-2.466-1.211,8.306,8.306,0,0,0-2.559-.391,4.841,4.841,0,0,0-3.772,1.511A5.9,5.9,0,0,0,6.043-11.95,5.921,5.921,0,0,0,7.416-7.808a4.855,4.855,0,0,0,3.772,1.5,8.5,8.5,0,0,0,2.559-.378,10.05,10.05,0,0,0,2.466-1.224Z" transform="translate(-1.391 20.781)" fill="#c93957"/>
      </g>
      <g id="Group_793" data-name="Group 793" transform="translate(19.091 517.64)">
        <path id="Path_713" data-name="Path 713" d="M12.063-11.9a5.865,5.865,0,0,0-1.106-.365,4.662,4.662,0,0,0-1.08-.13A3.076,3.076,0,0,0,7.4-11.376,4.269,4.269,0,0,0,6.531-8.5V-2.61H2.359V-15.375H6.531v2.1A5.244,5.244,0,0,1,8.371-15.1a5.066,5.066,0,0,1,2.506-.586c.14,0,.293.01.453.026s.407.033.72.065Z" transform="translate(-2.359 15.687)" fill="#c93957"/>
      </g>
      <g id="Group_794" data-name="Group 794" transform="translate(29.885 517.64)">
        <path id="Path_714" data-name="Path 714" d="M15.226-9.032v1.172H5.456A3.011,3.011,0,0,0,6.522-5.71a4.005,4.005,0,0,0,2.546.716,10.042,10.042,0,0,0,2.693-.378A14.438,14.438,0,0,0,14.6-6.531v3.139a17.918,17.918,0,0,1-2.959.821,15.708,15.708,0,0,1-2.959.287A8,8,0,0,1,3.163-4.043,6.289,6.289,0,0,1,1.2-8.98,6.352,6.352,0,0,1,3.136-13.89a7.48,7.48,0,0,1,5.305-1.8,6.732,6.732,0,0,1,4.932,1.824,6.462,6.462,0,0,1,1.853,4.832Zm-4.292-1.355a2.549,2.549,0,0,0-.693-1.863,2.419,2.419,0,0,0-1.813-.716,2.886,2.886,0,0,0-1.973.664,3.029,3.029,0,0,0-.946,1.915Z" transform="translate(-1.203 15.688)" fill="#c93957"/>
      </g>
      <g id="Group_795" data-name="Group 795" transform="translate(46.084 517.64)">
        <path id="Path_715" data-name="Path 715" d="M8.041-8.354a3.665,3.665,0,0,0-1.973.43,1.427,1.427,0,0,0-.653,1.276,1.5,1.5,0,0,0,.533,1.224,2.268,2.268,0,0,0,1.466.43A2.663,2.663,0,0,0,9.4-5.814a2.851,2.851,0,0,0,.813-2.071v-.469Zm6.372-1.537V-2.61h-4.2V-4.5A5.351,5.351,0,0,1,8.321-2.805a5.764,5.764,0,0,1-2.559.521A4.707,4.707,0,0,1,2.469-3.431,3.88,3.88,0,0,1,1.2-6.44,3.656,3.656,0,0,1,2.776-9.722a9.154,9.154,0,0,1,4.972-1.055h2.466V-11.1a1.5,1.5,0,0,0-.786-1.407,5.053,5.053,0,0,0-2.439-.456,11.476,11.476,0,0,0-2.506.261,8.772,8.772,0,0,0-2.133.782v-3.113a25.937,25.937,0,0,1,2.679-.482,22.413,22.413,0,0,1,2.719-.169q3.529,0,5.092,1.368t1.573,4.429Z" transform="translate(-1.203 15.688)" fill="#c93957"/>
      </g>
      <g id="Group_796" data-name="Group 796" transform="translate(61.496 514.332)">
        <path id="Path_716" data-name="Path 716" d="M6.627-19.656v3.621h4.305v2.918H6.627V-7.7a1.552,1.552,0,0,0,.36,1.2,2.286,2.286,0,0,0,1.426.313h2.146V-3.27H6.986a4.98,4.98,0,0,1-3.519-1A4.692,4.692,0,0,1,2.441-7.7v-5.419H.375v-2.918H2.441v-3.621Z" transform="translate(-0.375 19.656)" fill="#c93957"/>
      </g>
      <g id="Group_797" data-name="Group 797" transform="translate(73.623 517.64)">
        <path id="Path_717" data-name="Path 717" d="M15.226-9.032v1.172H5.456A3.011,3.011,0,0,0,6.522-5.71a4.005,4.005,0,0,0,2.546.716,10.042,10.042,0,0,0,2.693-.378A14.438,14.438,0,0,0,14.6-6.531v3.139a17.918,17.918,0,0,1-2.959.821,15.708,15.708,0,0,1-2.959.287A8,8,0,0,1,3.163-4.043,6.289,6.289,0,0,1,1.2-8.98,6.352,6.352,0,0,1,3.136-13.89a7.48,7.48,0,0,1,5.305-1.8,6.732,6.732,0,0,1,4.932,1.824,6.462,6.462,0,0,1,1.853,4.832Zm-4.292-1.355a2.549,2.549,0,0,0-.693-1.863,2.419,2.419,0,0,0-1.813-.716,2.886,2.886,0,0,0-1.973.664,3.029,3.029,0,0,0-.946,1.915Z" transform="translate(-1.203 15.688)" fill="#c93957"/>
      </g>
      <g id="Group_798" data-name="Group 798" transform="translate(89.875 512.977)">
        <path id="Path_718" data-name="Path 718" d="M11.077-14.443v-6.838h4.2v17.74h-4.2V-5.39A5.458,5.458,0,0,1,9.184-3.736a5.353,5.353,0,0,1-2.413.521A4.9,4.9,0,0,1,2.812-5.091,7.313,7.313,0,0,1,1.266-9.91a7.337,7.337,0,0,1,1.546-4.832,4.9,4.9,0,0,1,3.959-1.876,5.193,5.193,0,0,1,2.4.534,5.742,5.742,0,0,1,1.906,1.641ZM8.331-6.172a2.388,2.388,0,0,0,2.039-.951,4.67,4.67,0,0,0,.706-2.787,4.619,4.619,0,0,0-.706-2.774,2.382,2.382,0,0,0-2.039-.964,2.373,2.373,0,0,0-2.039.964A4.6,4.6,0,0,0,5.585-9.91a4.646,4.646,0,0,0,.706,2.787A2.38,2.38,0,0,0,8.331-6.172Z" transform="translate(-1.266 21.281)" fill="#c93957"/>
      </g>
      <g id="Group_799" data-name="Group 799" transform="translate(116.224 512.977)">
        <path id="Path_719" data-name="Path 719" d="M9.3-6.172a2.4,2.4,0,0,0,2.053-.951,4.67,4.67,0,0,0,.706-2.787,4.619,4.619,0,0,0-.706-2.774A2.394,2.394,0,0,0,9.3-13.648a2.423,2.423,0,0,0-2.066.964A4.636,4.636,0,0,0,6.532-9.91a4.622,4.622,0,0,0,.706,2.774A2.415,2.415,0,0,0,9.3-6.172ZM6.532-14.443a5.876,5.876,0,0,1,1.906-1.641,5.269,5.269,0,0,1,2.413-.534,4.921,4.921,0,0,1,3.972,1.876A7.355,7.355,0,0,1,16.369-9.91a7.331,7.331,0,0,1-1.546,4.819A4.921,4.921,0,0,1,10.85-3.215a5.393,5.393,0,0,1-2.413-.521A5.732,5.732,0,0,1,6.532-5.39v1.85H2.359v-17.74H6.532Z" transform="translate(-2.359 21.281)" fill="#c93957"/>
      </g>
      <g id="Group_800" data-name="Group 800" transform="translate(131.603 517.953)">
        <path id="Path_720" data-name="Path 720" d="M.344-15.312H4.516L8.035-6.65l2.986-8.662h4.172L9.7-1.335a6.806,6.806,0,0,1-1.933,2.97,4.609,4.609,0,0,1-2.906.86H2.436V-.189H3.743A2.748,2.748,0,0,0,5.289-.528,2.126,2.126,0,0,0,6.049-1.7l.12-.352Z" transform="translate(-0.344 15.312)" fill="#c93957"/>
      </g>
      <g id="Group_801" data-name="Group 801" transform="translate(155.317 513.707)">
        <path id="Path_721" data-name="Path 721" d="M12.777-6.5H5.766L4.646-3.4H.141L6.592-20.406h5.345L18.389-3.4H13.883ZM6.885-9.647h4.759L9.271-16.42Z" transform="translate(-0.141 20.406)" fill="#c93957"/>
      </g>
      <g id="Group_802" data-name="Group 802" transform="translate(174.708 517.64)">
        <path id="Path_722" data-name="Path 722" d="M8.4-12.77a2.483,2.483,0,0,0-2.119.977A4.618,4.618,0,0,0,5.549-8.98a4.618,4.618,0,0,0,.733,2.813A2.49,2.49,0,0,0,8.4-5.2a2.431,2.431,0,0,0,2.079-.964,4.64,4.64,0,0,0,.733-2.813,4.64,4.64,0,0,0-.733-2.813A2.425,2.425,0,0,0,8.4-12.77Zm0-2.918A7.382,7.382,0,0,1,13.666-13.9,6.425,6.425,0,0,1,15.559-8.98a6.444,6.444,0,0,1-1.893,4.924A7.406,7.406,0,0,1,8.4-2.285,7.464,7.464,0,0,1,3.109-4.056,6.4,6.4,0,0,1,1.2-8.98,6.385,6.385,0,0,1,3.109-13.9,7.44,7.44,0,0,1,8.4-15.688Z" transform="translate(-1.203 15.688)" fill="#c93957"/>
      </g>
      <g id="Group_803" data-name="Group 803" transform="translate(192.08 517.64)">
        <path id="Path_723" data-name="Path 723" d="M14.458-13.252a5.6,5.6,0,0,1,1.879-1.811,4.736,4.736,0,0,1,2.4-.625,4.269,4.269,0,0,1,3.426,1.368,5.809,5.809,0,0,1,1.186,3.934V-2.61h-4.2V-9.566c.007-.111.013-.267.013-.469a3.56,3.56,0,0,0-.413-1.954,1.447,1.447,0,0,0-1.306-.612,2.093,2.093,0,0,0-1.839.964,4.913,4.913,0,0,0-.666,2.761v6.265h-4.2V-9.267a6.211,6.211,0,0,0-.373-2.722A1.436,1.436,0,0,0,9.033-12.6a2.108,2.108,0,0,0-1.853.964,4.833,4.833,0,0,0-.653,2.748v6.278h-4.2V-15.375h4.2v1.863a5.378,5.378,0,0,1,1.76-1.628,4.506,4.506,0,0,1,2.2-.547,4.512,4.512,0,0,1,2.4.638,4.047,4.047,0,0,1,1.573,1.8Z" transform="translate(-2.328 15.688)" fill="#c93957"/>
      </g>
      <g id="Group_804" data-name="Group 804" transform="translate(215.1 513.707)">
        <path id="Path_724" data-name="Path 724" d="M12.777-6.5H5.766L4.646-3.4H.141L6.592-20.406h5.345L18.389-3.4H13.883ZM6.885-9.647h4.759L9.271-16.42Z" transform="translate(-0.141 20.406)" fill="#c93957"/>
      </g>
      <g id="Group_805" data-name="Group 805" transform="translate(235.455 517.64)">
        <path id="Path_725" data-name="Path 725" d="M14.458-13.252a5.6,5.6,0,0,1,1.879-1.811,4.736,4.736,0,0,1,2.4-.625,4.269,4.269,0,0,1,3.426,1.368,5.809,5.809,0,0,1,1.186,3.934V-2.61h-4.2V-9.566c.007-.111.013-.267.013-.469a3.56,3.56,0,0,0-.413-1.954,1.447,1.447,0,0,0-1.306-.612,2.093,2.093,0,0,0-1.839.964,4.913,4.913,0,0,0-.666,2.761v6.265h-4.2V-9.267a6.211,6.211,0,0,0-.373-2.722A1.436,1.436,0,0,0,9.033-12.6a2.108,2.108,0,0,0-1.853.964,4.833,4.833,0,0,0-.653,2.748v6.278h-4.2V-15.375h4.2v1.863a5.378,5.378,0,0,1,1.76-1.628,4.506,4.506,0,0,1,2.2-.547,4.512,4.512,0,0,1,2.4.638,4.047,4.047,0,0,1,1.573,1.8Z" transform="translate(-2.328 15.688)" fill="#c93957"/>
      </g>
      <g id="Group_806" data-name="Group 806" transform="translate(0 536.319)">
        <path id="Path_726" data-name="Path 726" d="M10.675-21.281V-18.6H8.369a1.9,1.9,0,0,0-1.24.313,1.417,1.417,0,0,0-.347,1.094v.886h3.572v2.918H6.783v9.847H2.611v-9.847H.531v-2.918H2.611v-.886A3.817,3.817,0,0,1,3.8-20.278a5.644,5.644,0,0,1,3.692-1Z" transform="translate(-0.531 21.281)" fill="#c93957"/>
      </g>
      <g id="Group_807" data-name="Group 807" transform="translate(11.953 540.982)">
        <path id="Path_727" data-name="Path 727" d="M12.063-11.9a5.865,5.865,0,0,0-1.106-.365,4.662,4.662,0,0,0-1.08-.13A3.076,3.076,0,0,0,7.4-11.376,4.269,4.269,0,0,0,6.531-8.5V-2.61H2.359V-15.375H6.531v2.1A5.244,5.244,0,0,1,8.371-15.1a5.066,5.066,0,0,1,2.506-.586c.14,0,.293.01.453.026s.407.033.72.065Z" transform="translate(-2.359 15.687)" fill="#c93957"/>
      </g>
      <g id="Group_808" data-name="Group 808" transform="translate(22.747 540.981)">
        <path id="Path_728" data-name="Path 728" d="M8.4-12.77a2.483,2.483,0,0,0-2.119.977A4.618,4.618,0,0,0,5.549-8.98a4.618,4.618,0,0,0,.733,2.813A2.49,2.49,0,0,0,8.4-5.2a2.431,2.431,0,0,0,2.079-.964,4.64,4.64,0,0,0,.733-2.813,4.64,4.64,0,0,0-.733-2.813A2.425,2.425,0,0,0,8.4-12.77Zm0-2.918A7.382,7.382,0,0,1,13.666-13.9,6.425,6.425,0,0,1,15.559-8.98a6.444,6.444,0,0,1-1.893,4.924A7.406,7.406,0,0,1,8.4-2.285,7.464,7.464,0,0,1,3.109-4.056,6.4,6.4,0,0,1,1.2-8.98,6.385,6.385,0,0,1,3.109-13.9,7.44,7.44,0,0,1,8.4-15.688Z" transform="translate(-1.203 15.688)" fill="#c93957"/>
      </g>
      <g id="Group_809" data-name="Group 809" transform="translate(40.116 540.981)">
        <path id="Path_729" data-name="Path 729" d="M14.458-13.252a5.6,5.6,0,0,1,1.879-1.811,4.736,4.736,0,0,1,2.4-.625,4.269,4.269,0,0,1,3.426,1.368,5.809,5.809,0,0,1,1.186,3.934V-2.61h-4.2V-9.566c.007-.111.013-.267.013-.469a3.56,3.56,0,0,0-.413-1.954,1.447,1.447,0,0,0-1.306-.612,2.093,2.093,0,0,0-1.839.964,4.913,4.913,0,0,0-.666,2.761v6.265h-4.2V-9.267a6.211,6.211,0,0,0-.373-2.722A1.436,1.436,0,0,0,9.033-12.6a2.108,2.108,0,0,0-1.853.964,4.833,4.833,0,0,0-.653,2.748v6.278h-4.2V-15.375h4.2v1.863a5.378,5.378,0,0,1,1.76-1.628,4.506,4.506,0,0,1,2.2-.547,4.512,4.512,0,0,1,2.4.638,4.047,4.047,0,0,1,1.573,1.8Z" transform="translate(-2.328 15.688)" fill="#c93957"/>
      </g>
      <g id="Group_810" data-name="Group 810" transform="translate(71.656 537.674)">
        <path id="Path_730" data-name="Path 730" d="M6.627-19.656v3.621h4.305v2.918H6.627V-7.7a1.552,1.552,0,0,0,.36,1.2,2.286,2.286,0,0,0,1.426.313h2.146V-3.27H6.986a4.98,4.98,0,0,1-3.519-1A4.692,4.692,0,0,1,2.441-7.7v-5.419H.375v-2.918H2.441v-3.621Z" transform="translate(-0.375 19.656)" fill="#c93957"/>
      </g>
      <g id="Group_811" data-name="Group 811" transform="translate(84.766 536.319)">
        <path id="Path_731" data-name="Path 731" d="M15.489-11.317v7.776h-4.2V-9.467a21.667,21.667,0,0,0-.08-2.305,2.409,2.409,0,0,0-.267-.925,1.686,1.686,0,0,0-.666-.612,2,2,0,0,0-.946-.221,2.431,2.431,0,0,0-2.053.99,4.381,4.381,0,0,0-.746,2.722v6.278H2.359v-17.74H6.532v6.838a6.634,6.634,0,0,1,2-1.641,5.175,5.175,0,0,1,2.346-.534,4.284,4.284,0,0,1,3.439,1.368,5.86,5.86,0,0,1,1.173,3.934Z" transform="translate(-2.359 21.281)" fill="#c93957"/>
      </g>
      <g id="Group_812" data-name="Group 812" transform="translate(100.786 540.982)">
        <path id="Path_732" data-name="Path 732" d="M15.226-9.032v1.172H5.456A3.011,3.011,0,0,0,6.522-5.71a4.005,4.005,0,0,0,2.546.716,10.042,10.042,0,0,0,2.693-.378A14.438,14.438,0,0,0,14.6-6.531v3.139a17.918,17.918,0,0,1-2.959.821,15.708,15.708,0,0,1-2.959.287A8,8,0,0,1,3.163-4.043,6.289,6.289,0,0,1,1.2-8.98,6.352,6.352,0,0,1,3.136-13.89a7.48,7.48,0,0,1,5.305-1.8,6.732,6.732,0,0,1,4.932,1.824,6.462,6.462,0,0,1,1.853,4.832Zm-4.292-1.355a2.549,2.549,0,0,0-.693-1.863,2.419,2.419,0,0,0-1.813-.716,2.886,2.886,0,0,0-1.973.664,3.029,3.029,0,0,0-.946,1.915Z" transform="translate(-1.203 15.688)" fill="#c93957"/>
      </g>
      <g id="Group_813" data-name="Group 813" transform="translate(126.475 537.048)">
        <path id="Path_733" data-name="Path 733" d="M2.578-20.406H7.59L13.922-8.735V-20.406h4.252V-3.4H13.162L6.83-15.066V-3.4H2.578Z" transform="translate(-2.578 20.406)" fill="#c93957"/>
      </g>
      <g id="Group_814" data-name="Group 814" transform="translate(145.293 540.981)">
        <path id="Path_734" data-name="Path 734" d="M8.4-12.77a2.483,2.483,0,0,0-2.119.977A4.618,4.618,0,0,0,5.549-8.98a4.618,4.618,0,0,0,.733,2.813A2.49,2.49,0,0,0,8.4-5.2a2.431,2.431,0,0,0,2.079-.964,4.64,4.64,0,0,0,.733-2.813,4.64,4.64,0,0,0-.733-2.813A2.425,2.425,0,0,0,8.4-12.77Zm0-2.918A7.382,7.382,0,0,1,13.666-13.9,6.425,6.425,0,0,1,15.559-8.98a6.444,6.444,0,0,1-1.893,4.924A7.406,7.406,0,0,1,8.4-2.285,7.464,7.464,0,0,1,3.109-4.056,6.4,6.4,0,0,1,1.2-8.98,6.385,6.385,0,0,1,3.109-13.9,7.44,7.44,0,0,1,8.4-15.688Z" transform="translate(-1.203 15.688)" fill="#c93957"/>
      </g>
      <g id="Group_815" data-name="Group 815" transform="translate(162.545 541.294)">
        <path id="Path_735" data-name="Path 735" d="M2.188-7.523v-7.789h4.2v1.276c0,.7-.007,1.563-.013,2.605S6.36-9.692,6.36-9.347A21.436,21.436,0,0,0,6.44-7.12a2.524,2.524,0,0,0,.28.977,1.821,1.821,0,0,0,.68.625,2.05,2.05,0,0,0,.946.208A2.445,2.445,0,0,0,10.4-6.286a4.4,4.4,0,0,0,.746-2.722v-6.3h4.172V-2.548H11.145V-4.4a6.53,6.53,0,0,1-2,1.654,5.22,5.22,0,0,1-2.333.521A4.316,4.316,0,0,1,3.374-3.577,5.806,5.806,0,0,1,2.188-7.524Z" transform="translate(-2.188 15.313)" fill="#c93957"/>
      </g>
      <g id="Group_816" data-name="Group 816" transform="translate(179.697 540.982)">
        <path id="Path_736" data-name="Path 736" d="M15.489-10.386V-2.61h-4.2V-8.563a21.333,21.333,0,0,0-.08-2.279,2.409,2.409,0,0,0-.267-.925,1.686,1.686,0,0,0-.666-.612,2,2,0,0,0-.946-.221,2.431,2.431,0,0,0-2.053.99,4.381,4.381,0,0,0-.746,2.722V-2.61H2.359V-15.374H6.532v1.863a6.634,6.634,0,0,1,2-1.641,5.175,5.175,0,0,1,2.346-.534,4.284,4.284,0,0,1,3.439,1.368,5.86,5.86,0,0,1,1.173,3.934Z" transform="translate(-2.359 15.687)" fill="#c93957"/>
      </g>
      <g id="Group_817" data-name="Group 817" transform="translate(205.203 537.048)">
        <path id="Path_737" data-name="Path 737" d="M2.578-20.406h7.451a7.877,7.877,0,0,1,5.092,1.446,4.963,4.963,0,0,1,1.786,4.1,4.993,4.993,0,0,1-1.786,4.116A7.878,7.878,0,0,1,10.029-9.3H7.057v5.9H2.578Zm4.479,3.178v4.754H9.55a2.946,2.946,0,0,0,2.013-.625,2.2,2.2,0,0,0,.72-1.758,2.187,2.187,0,0,0-.72-1.758,2.993,2.993,0,0,0-2.013-.612Z" transform="translate(-2.578 20.406)" fill="#c93957"/>
      </g>
      <g id="Group_818" data-name="Group 818" transform="translate(222.525 540.982)">
        <path id="Path_738" data-name="Path 738" d="M12.063-11.9a5.865,5.865,0,0,0-1.106-.365,4.662,4.662,0,0,0-1.08-.13A3.076,3.076,0,0,0,7.4-11.376,4.269,4.269,0,0,0,6.531-8.5V-2.61H2.359V-15.375H6.531v2.1A5.244,5.244,0,0,1,8.371-15.1a5.066,5.066,0,0,1,2.506-.586c.14,0,.293.01.453.026s.407.033.72.065Z" transform="translate(-2.359 15.687)" fill="#c93957"/>
      </g>
      <g id="Group_819" data-name="Group 819" transform="translate(233.315 540.981)">
        <path id="Path_739" data-name="Path 739" d="M8.4-12.77a2.483,2.483,0,0,0-2.119.977A4.618,4.618,0,0,0,5.549-8.98a4.618,4.618,0,0,0,.733,2.813A2.49,2.49,0,0,0,8.4-5.2a2.431,2.431,0,0,0,2.079-.964,4.64,4.64,0,0,0,.733-2.813,4.64,4.64,0,0,0-.733-2.813A2.425,2.425,0,0,0,8.4-12.77Zm0-2.918A7.382,7.382,0,0,1,13.666-13.9,6.425,6.425,0,0,1,15.559-8.98a6.444,6.444,0,0,1-1.893,4.924A7.406,7.406,0,0,1,8.4-2.285,7.464,7.464,0,0,1,3.109-4.056,6.4,6.4,0,0,1,1.2-8.98,6.385,6.385,0,0,1,3.109-13.9,7.44,7.44,0,0,1,8.4-15.688Z" transform="translate(-1.203 15.688)" fill="#c93957"/>
      </g>
      <g id="Group_820" data-name="Group 820" transform="translate(247.902 536.319)">
        <path id="Path_740" data-name="Path 740" d="M1.875-16.305H6.047v12.53A5.545,5.545,0,0,1,4.781.146,4.736,4.736,0,0,1,1.129,1.5H-.937V-1.183H-.2A2.066,2.066,0,0,0,1.422-1.7a3.346,3.346,0,0,0,.453-2.071Zm0-4.976H6.047v3.334H1.875Z" transform="translate(0.937 21.281)" fill="#c93957"/>
      </g>
      <g id="Group_821" data-name="Group 821" transform="translate(257.915 540.982)">
        <path id="Path_741" data-name="Path 741" d="M15.226-9.032v1.172H5.456A3.011,3.011,0,0,0,6.522-5.71a4.005,4.005,0,0,0,2.546.716,10.042,10.042,0,0,0,2.693-.378A14.438,14.438,0,0,0,14.6-6.531v3.139a17.918,17.918,0,0,1-2.959.821,15.708,15.708,0,0,1-2.959.287A8,8,0,0,1,3.163-4.043,6.289,6.289,0,0,1,1.2-8.98,6.352,6.352,0,0,1,3.136-13.89a7.48,7.48,0,0,1,5.305-1.8,6.732,6.732,0,0,1,4.932,1.824,6.462,6.462,0,0,1,1.853,4.832Zm-4.292-1.355a2.549,2.549,0,0,0-.693-1.863,2.419,2.419,0,0,0-1.813-.716,2.886,2.886,0,0,0-1.973.664,3.029,3.029,0,0,0-.946,1.915Z" transform="translate(-1.203 15.688)" fill="#c93957"/>
      </g>
      <g id="Group_822" data-name="Group 822" transform="translate(274.117 540.982)">
        <path id="Path_742" data-name="Path 742" d="M12.734-14.971v3.321a6.553,6.553,0,0,0-1.706-.847,5.776,5.776,0,0,0-1.773-.274,3.657,3.657,0,0,0-2.733,1,3.8,3.8,0,0,0-.973,2.787,3.825,3.825,0,0,0,.973,2.787,3.676,3.676,0,0,0,2.733.99,6.216,6.216,0,0,0,1.853-.274,5.513,5.513,0,0,0,1.626-.847v3.334a11.5,11.5,0,0,1-1.986.521,11.377,11.377,0,0,1-2.026.182A8.046,8.046,0,0,1,3.189-4.056,6.243,6.243,0,0,1,1.2-8.979a6.267,6.267,0,0,1,1.986-4.937,8.062,8.062,0,0,1,5.532-1.771,11.377,11.377,0,0,1,2.026.182,11.358,11.358,0,0,1,1.986.534Z" transform="translate(-1.203 15.687)" fill="#c93957"/>
      </g>
      <g id="Group_823" data-name="Group 823" transform="translate(287.567 537.674)">
        <path id="Path_743" data-name="Path 743" d="M6.627-19.656v3.621h4.305v2.918H6.627V-7.7a1.552,1.552,0,0,0,.36,1.2,2.286,2.286,0,0,0,1.426.313h2.146V-3.27H6.986a4.98,4.98,0,0,1-3.519-1A4.692,4.692,0,0,1,2.441-7.7v-5.419H.375v-2.918H2.441v-3.621Z" transform="translate(-0.375 19.656)" fill="#c93957"/>
      </g>
    </g>
  </g>
</svg>
