<svg xmlns="http://www.w3.org/2000/svg" xmlns:xlink="http://www.w3.org/1999/xlink" width="264" height="374" viewBox="0 0 264 374">
  <defs>
    <clipPath id="clip-path">
      <rect id="Rectangle_149" data-name="Rectangle 149" width="264" height="374" transform="translate(5751 2922)" fill="#fff" stroke="#707070" stroke-width="1"/>
    </clipPath>
  </defs>
  <g id="Mask_Group_8" data-name="Mask Group 8" transform="translate(-5751 -2922)" clip-path="url(#clip-path)">
    <g id="noun-urologist-3981840_1_" data-name="noun-urologist-3981840 (1)" transform="translate(5751 2922)">
      <path id="Path_915" data-name="Path 915" d="M430.873,357.867H384.14a6.268,6.268,0,0,1-4.247-1.6,4.45,4.45,0,0,1-1.454-3.74c.076-.749,6.887-64.321-3.33-115.464-7.885,25.9-28.745,47.924-65.106,49.452h-.229c-1.454.1-2.987.1-4.555.1h-1.11c-1.148-.032-2.3-.065-3.407-.13l-1.915-.1c-1.069-.065-2.179-.162-3.289-.26-2.258-.227-4.555-.489-6.89-.879C183.626,269.019,174.626,172.523,174.363,143.338,174.63,114.091,183.626,17.6,288.609,1.36c1.721-.26,3.445-.487,5.128-.681l1.8-.2c1.11-.1,2.22-.195,3.292-.26l1.912-.1q1.493-.1,2.987-.1L305.6-.006c1.3,0,2.6,0,3.906.065h.534c25.529,1.106,46.084,12.819,57.948,32.956,14.428,24.531,14.276,58.853.344,81.013,37.814,17.5,77.813,74.047,68.318,239.185-.191,2.6-2.717,4.653-5.78,4.653Zm-40.492-9.76H425.4c8.687-164.422-31.806-214.53-67.517-227.509a5.383,5.383,0,0,1-3.254-3.09,4.217,4.217,0,0,1,.728-4.1c14.89-18.772,15.92-52.834,2.3-75.964-7-11.94-21.089-26.386-48.187-27.589h-.423a1.235,1.235,0,0,1-.344-.032c-1-.065-2.029-.065-3.063-.065l-1.721.032-2.564.1-1.686.1c-.957.065-1.912.13-2.907.227l-1.609.162c-1.492.165-3.022.359-4.555.619-31.154,4.815-103.833,27.362-104.758,132.348C186.759,248.2,259.326,270.775,290.6,275.625l4.749.619c.5.065.993.1,1.492.162.957.1,1.95.162,2.907.227.576.032,1.11.065,1.648.1,1,.065,1.988.1,2.946.1h1.034c1.339,0,2.717,0,3.9-.065h.27c30.082-1.333,59.517-22.807,57.64-67.829-.115-2.406,1.915-4.553,4.708-4.978a5.907,5.907,0,0,1,6.47,3.253c18.637,47.143,13.815,120.442,12.017,140.9Z" transform="translate(-174.363 0.006)" fill="#1a6f5d"/>
      <g id="Group_973" data-name="Group 973" transform="translate(0.951 394.601)">
        <path id="Path_916" data-name="Path 916" d="M13.13-7.468a9.751,9.751,0,0,1-2.067.659,11.193,11.193,0,0,1-2.232.22A8.527,8.527,0,0,1,3.3-8.246,5.482,5.482,0,0,1,1.266-12.74,5.489,5.489,0,0,1,3.3-17.233a8.541,8.541,0,0,1,5.533-1.658,10.663,10.663,0,0,1,2.232.23,10.5,10.5,0,0,1,2.067.649v2.456a8.518,8.518,0,0,0-1.974-.849,7.562,7.562,0,0,0-2.044-.27,4.216,4.216,0,0,0-3.031,1.048A3.813,3.813,0,0,0,4.99-12.74,3.81,3.81,0,0,0,6.082-9.854,4.216,4.216,0,0,0,9.113-8.806a7.562,7.562,0,0,0,2.044-.27,8.414,8.414,0,0,0,1.974-.849Z" transform="translate(-1.266 18.891)"/>
      </g>
      <g id="Group_974" data-name="Group 974" transform="translate(15.653 397.566)">
        <path id="Path_917" data-name="Path 917" d="M9.917-11.614a4.779,4.779,0,0,0-.881-.26,4.9,4.9,0,0,0-.869-.08,2.675,2.675,0,0,0-1.985.7,2.738,2.738,0,0,0-.693,2.017v4.094H2.14v-8.9H5.488v1.458a3.922,3.922,0,0,1,1.468-1.268,4.69,4.69,0,0,1,2.009-.4c.117,0,.238,0,.364.01s.323.025.576.05Z" transform="translate(-2.14 14.25)"/>
      </g>
      <g id="Group_975" data-name="Group 975" transform="translate(24.305 397.566)">
        <path id="Path_918" data-name="Path 918" d="M12.324-9.617v.809H4.5A2.027,2.027,0,0,0,5.358-7.3a3.545,3.545,0,0,0,2.032.5,9.1,9.1,0,0,0,2.161-.27,12.78,12.78,0,0,0,2.279-.809v2.2a15.834,15.834,0,0,1-2.373.569,14.389,14.389,0,0,1-2.373.2A7.022,7.022,0,0,1,2.668-6.142,4.114,4.114,0,0,1,1.094-9.587,4.139,4.139,0,0,1,2.633-13,6.624,6.624,0,0,1,6.9-14.25a5.868,5.868,0,0,1,3.947,1.268,4.2,4.2,0,0,1,1.48,3.365Zm-3.442-.939a1.668,1.668,0,0,0-.552-1.308,2.1,2.1,0,0,0-1.457-.5,2.51,2.51,0,0,0-1.574.469,1.99,1.99,0,0,0-.752,1.338Z" transform="translate(-1.094 14.25)"/>
      </g>
      <g id="Group_976" data-name="Group 976" transform="translate(37.285 397.567)">
        <path id="Path_919" data-name="Path 919" d="M6.568-9.147a3.194,3.194,0,0,0-1.574.31.957.957,0,0,0-.529.879,1,1,0,0,0,.423.859,2.056,2.056,0,0,0,1.186.3A2.29,2.29,0,0,0,7.66-7.38a1.855,1.855,0,0,0,.646-1.438v-.33Zm5.11-1.068v5.072H8.306V-6.461A4.085,4.085,0,0,1,6.791-5.283a5.081,5.081,0,0,1-2.044.369,4.157,4.157,0,0,1-2.643-.8,2.557,2.557,0,0,1-1.01-2.1,2.461,2.461,0,0,1,1.269-2.3,8.285,8.285,0,0,1,3.97-.729H8.306v-.23a1.027,1.027,0,0,0-.634-.979,4.472,4.472,0,0,0-1.938-.32,10.125,10.125,0,0,0-2.009.19,7.825,7.825,0,0,0-1.715.539V-13.8q1.066-.217,2.15-.33a19.893,19.893,0,0,1,2.173-.12,6.893,6.893,0,0,1,4.088.949,3.623,3.623,0,0,1,1.257,3.085Z" transform="translate(-1.094 14.25)"/>
      </g>
      <g id="Group_977" data-name="Group 977" transform="translate(49.623 395.25)">
        <path id="Path_920" data-name="Path 920" d="M5.344-17.875v2.526H8.786v2.037H5.344v3.774a1.013,1.013,0,0,0,.282.839,2.154,2.154,0,0,0,1.151.21H8.5v2.037H5.626a4.393,4.393,0,0,1-2.808-.7A3,3,0,0,1,2-9.537v-3.774H.328v-2.037H2v-2.526Z" transform="translate(-0.328 17.875)"/>
      </g>
      <g id="Group_978" data-name="Group 978" transform="translate(59.346 397.566)">
        <path id="Path_921" data-name="Path 921" d="M12.324-9.617v.809H4.5A2.027,2.027,0,0,0,5.358-7.3a3.545,3.545,0,0,0,2.032.5,9.1,9.1,0,0,0,2.161-.27,12.78,12.78,0,0,0,2.279-.809v2.2a15.834,15.834,0,0,1-2.373.569,14.389,14.389,0,0,1-2.373.2A7.022,7.022,0,0,1,2.668-6.142,4.114,4.114,0,0,1,1.094-9.587,4.139,4.139,0,0,1,2.633-13,6.624,6.624,0,0,1,6.9-14.25a5.868,5.868,0,0,1,3.947,1.268,4.2,4.2,0,0,1,1.48,3.365Zm-3.442-.939a1.668,1.668,0,0,0-.552-1.308,2.1,2.1,0,0,0-1.457-.5,2.51,2.51,0,0,0-1.574.469,1.99,1.99,0,0,0-.752,1.338Z" transform="translate(-1.094 14.25)"/>
      </g>
      <g id="Group_979" data-name="Group 979" transform="translate(72.359 394.311)">
        <path id="Path_922" data-name="Path 922" d="M9.011-14.571v-4.773h3.36V-6.982H9.011V-8.27A4.424,4.424,0,0,1,7.484-7.112a4.838,4.838,0,0,1-1.927.359A4.177,4.177,0,0,1,2.385-8.06,4.673,4.673,0,0,1,1.14-11.425,4.645,4.645,0,0,1,2.385-14.78a4.186,4.186,0,0,1,3.172-1.308,4.751,4.751,0,0,1,1.927.369,4.515,4.515,0,0,1,1.527,1.148ZM6.8-8.819a2.046,2.046,0,0,0,1.645-.659,2.942,2.942,0,0,0,.564-1.947,2.935,2.935,0,0,0-.564-1.937A2.036,2.036,0,0,0,6.8-14.032a2.04,2.04,0,0,0-1.633.669,2.935,2.935,0,0,0-.564,1.937A2.942,2.942,0,0,0,5.17-9.478,2.049,2.049,0,0,0,6.8-8.819Z" transform="translate(-1.14 19.344)"/>
      </g>
      <g id="Group_980" data-name="Group 980" transform="translate(93.475 394.311)">
        <path id="Path_923" data-name="Path 923" d="M7.709-8.819a2.033,2.033,0,0,0,1.633-.659,2.911,2.911,0,0,0,.576-1.947,2.9,2.9,0,0,0-.576-1.937,2.024,2.024,0,0,0-1.633-.669,2.048,2.048,0,0,0-1.656.679,2.915,2.915,0,0,0-.564,1.927,2.926,2.926,0,0,0,.564,1.937A2.058,2.058,0,0,0,7.709-8.819Zm-2.22-5.751a4.326,4.326,0,0,1,1.527-1.148,4.829,4.829,0,0,1,1.938-.369,4.2,4.2,0,0,1,3.172,1.308,4.657,4.657,0,0,1,1.245,3.355,4.686,4.686,0,0,1-1.245,3.365A4.186,4.186,0,0,1,8.954-6.753a4.829,4.829,0,0,1-1.938-.369A4.3,4.3,0,0,1,5.489-8.27v1.288H2.141V-19.344H5.489Z" transform="translate(-2.141 19.344)"/>
      </g>
      <g id="Group_981" data-name="Group 981" transform="translate(105.797 397.776)">
        <path id="Path_924" data-name="Path 924" d="M.313-13.922H3.66L6.468-7.881l2.4-6.041H12.2L7.807-4.187A4.794,4.794,0,0,1,6.257-2.11a4.066,4.066,0,0,1-2.326.6H1.992V-3.378H3.038a2.562,2.562,0,0,0,1.245-.23,1.494,1.494,0,0,0,.6-.829l.094-.25Z" transform="translate(-0.313 13.922)"/>
      </g>
      <g id="Group_982" data-name="Group 982" transform="translate(126.461 394.811)">
        <path id="Path_925" data-name="Path 925" d="M2.344-18.562H6.361l5.063,8.138v-8.138h3.418V-6.7H10.825L5.751-14.838V-6.7H2.344Z" transform="translate(-2.344 18.562)"/>
      </g>
      <g id="Group_983" data-name="Group 983" transform="translate(141.538 397.567)">
        <path id="Path_926" data-name="Path 926" d="M6.568-9.147a3.194,3.194,0,0,0-1.574.31.957.957,0,0,0-.529.879,1,1,0,0,0,.423.859,2.056,2.056,0,0,0,1.186.3A2.29,2.29,0,0,0,7.66-7.38a1.855,1.855,0,0,0,.646-1.438v-.33Zm5.11-1.068v5.072H8.306V-6.461A4.085,4.085,0,0,1,6.791-5.283a5.081,5.081,0,0,1-2.044.369,4.157,4.157,0,0,1-2.643-.8,2.557,2.557,0,0,1-1.01-2.1,2.461,2.461,0,0,1,1.269-2.3,8.285,8.285,0,0,1,3.97-.729H8.306v-.23a1.027,1.027,0,0,0-.634-.979,4.472,4.472,0,0,0-1.938-.32,10.125,10.125,0,0,0-2.009.19,7.825,7.825,0,0,0-1.715.539V-13.8q1.066-.217,2.15-.33a19.893,19.893,0,0,1,2.173-.12,6.893,6.893,0,0,1,4.088.949,3.623,3.623,0,0,1,1.257,3.085Z" transform="translate(-1.094 14.25)"/>
      </g>
      <g id="Group_984" data-name="Group 984" transform="translate(155.238 394.311)">
        <path id="Path_927" data-name="Path 927" d="M2.141-15.879H5.489v8.9H2.141Zm0-3.465H5.489v2.327H2.141Z" transform="translate(-2.141 19.344)"/>
      </g>
      <g id="Group_985" data-name="Group 985" transform="translate(160.554 394.311)">
        <path id="Path_928" data-name="Path 928" d="M8.614-19.344v1.867H6.769a1.691,1.691,0,0,0-1,.22.908.908,0,0,0-.282.759v.619H8.355v2.037H5.489v6.86H2.153v-6.86H.484v-2.037H2.153V-16.5A2.491,2.491,0,0,1,3.1-18.645a5.012,5.012,0,0,1,2.949-.7Z" transform="translate(-0.484 19.344)"/>
      </g>
      <g id="Group_986" data-name="Group 986" transform="translate(176.941 394.811)">
        <path id="Path_929" data-name="Path 929" d="M2.344-18.562H5.938V-6.7H2.344Z" transform="translate(-2.344 18.562)"/>
      </g>
      <g id="Group_987" data-name="Group 987" transform="translate(183.907 394.311)">
        <path id="Path_930" data-name="Path 930" d="M2.141-19.344H5.489v6.73L9.33-15.879h3.888L8.108-11.8l5.509,4.813H9.565l-4.076-3.7v3.7H2.141Z" transform="translate(-2.141 19.344)"/>
      </g>
      <g id="Group_988" data-name="Group 988" transform="translate(196.635 394.311)">
        <path id="Path_931" data-name="Path 931" d="M2.141-19.344H5.489v6.73L9.33-15.879h3.888L8.108-11.8l5.509,4.813H9.565l-4.076-3.7v3.7H2.141Z" transform="translate(-2.141 19.344)"/>
      </g>
      <g id="Group_989" data-name="Group 989" transform="translate(208.573 397.566)">
        <path id="Path_932" data-name="Path 932" d="M12.324-9.617v.809H4.5A2.027,2.027,0,0,0,5.358-7.3a3.545,3.545,0,0,0,2.032.5,9.1,9.1,0,0,0,2.161-.27,12.78,12.78,0,0,0,2.279-.809v2.2a15.834,15.834,0,0,1-2.373.569,14.389,14.389,0,0,1-2.373.2A7.022,7.022,0,0,1,2.668-6.142,4.114,4.114,0,0,1,1.094-9.587,4.139,4.139,0,0,1,2.633-13,6.624,6.624,0,0,1,6.9-14.25a5.868,5.868,0,0,1,3.947,1.268,4.2,4.2,0,0,1,1.48,3.365Zm-3.442-.939a1.668,1.668,0,0,0-.552-1.308,2.1,2.1,0,0,0-1.457-.5,2.51,2.51,0,0,0-1.574.469,1.99,1.99,0,0,0-.752,1.338Z" transform="translate(-1.094 14.25)"/>
      </g>
      <g id="Group_990" data-name="Group 990" transform="translate(222.34 397.566)">
        <path id="Path_933" data-name="Path 933" d="M9.917-11.614a4.779,4.779,0,0,0-.881-.26,4.9,4.9,0,0,0-.869-.08,2.675,2.675,0,0,0-1.985.7,2.738,2.738,0,0,0-.693,2.017v4.094H2.14v-8.9H5.488v1.458a3.922,3.922,0,0,1,1.468-1.268,4.69,4.69,0,0,1,2.009-.4c.117,0,.238,0,.364.01s.323.025.576.05Z" transform="translate(-2.14 14.25)"/>
      </g>
      <g id="Group_991" data-name="Group 991" transform="translate(231.78 394.311)">
        <path id="Path_934" data-name="Path 934" d="M2.141-15.879H5.489v8.9H2.141Zm0-3.465H5.489v2.327H2.141Z" transform="translate(-2.141 19.344)"/>
      </g>
      <g id="Group_992" data-name="Group 992" transform="translate(0.364 410.577)">
        <path id="Path_935" data-name="Path 935" d="M8.614-19.344v1.867H6.769a1.691,1.691,0,0,0-1,.22.908.908,0,0,0-.282.759v.619H8.355v2.037H5.489v6.86H2.153v-6.86H.484v-2.037H2.153V-16.5A2.491,2.491,0,0,1,3.1-18.645a5.012,5.012,0,0,1,2.949-.7Z" transform="translate(-0.484 19.344)"/>
      </g>
      <g id="Group_993" data-name="Group 993" transform="translate(9.935 413.832)">
        <path id="Path_936" data-name="Path 936" d="M9.917-11.614a4.779,4.779,0,0,0-.881-.26,4.9,4.9,0,0,0-.869-.08,2.675,2.675,0,0,0-1.985.7,2.738,2.738,0,0,0-.693,2.017v4.094H2.14v-8.9H5.488v1.458a3.922,3.922,0,0,1,1.468-1.268,4.69,4.69,0,0,1,2.009-.4c.117,0,.238,0,.364.01s.323.025.576.05Z" transform="translate(-2.14 14.25)"/>
      </g>
      <g id="Group_994" data-name="Group 994" transform="translate(18.587 413.832)">
        <path id="Path_937" data-name="Path 937" d="M6.862-12.223a2.128,2.128,0,0,0-1.7.679,2.947,2.947,0,0,0-.576,1.957A2.938,2.938,0,0,0,5.158-7.63a2.12,2.12,0,0,0,1.7.679A2.061,2.061,0,0,0,8.53-7.63a2.954,2.954,0,0,0,.576-1.957,2.963,2.963,0,0,0-.576-1.957A2.069,2.069,0,0,0,6.862-12.223Zm0-2.027a6.5,6.5,0,0,1,4.217,1.238,4.181,4.181,0,0,1,1.515,3.425,4.188,4.188,0,0,1-1.515,3.435A6.484,6.484,0,0,1,6.862-4.914,6.548,6.548,0,0,1,2.621-6.152,4.171,4.171,0,0,1,1.094-9.587a4.165,4.165,0,0,1,1.527-3.425A6.563,6.563,0,0,1,6.862-14.25Z" transform="translate(-1.094 14.25)"/>
      </g>
      <g id="Group_995" data-name="Group 995" transform="translate(32.498 413.832)">
        <path id="Path_938" data-name="Path 938" d="M11.824-12.562a4.35,4.35,0,0,1,1.515-1.258,4.277,4.277,0,0,1,1.915-.429A3.713,3.713,0,0,1,18-13.3a3.7,3.7,0,0,1,.951,2.746v5.412H15.583V-9.786c.006-.065.012-.135.012-.21s.012-.18.012-.32a2.282,2.282,0,0,0-.329-1.368,1.255,1.255,0,0,0-1.057-.429,1.75,1.75,0,0,0-1.468.669,3.206,3.206,0,0,0-.54,1.937v4.364H8.852V-9.786a3.781,3.781,0,0,0-.305-1.9,1.2,1.2,0,0,0-1.057-.429A1.782,1.782,0,0,0,6-11.434,3.073,3.073,0,0,0,5.48-9.517v4.374H2.109v-8.9H5.48v1.308A4.023,4.023,0,0,1,6.89-13.87a4.06,4.06,0,0,1,1.762-.379,3.982,3.982,0,0,1,1.915.449,2.945,2.945,0,0,1,1.257,1.238Z" transform="translate(-2.109 14.25)"/>
      </g>
      <g id="Group_996" data-name="Group 996" transform="translate(57.76 411.516)">
        <path id="Path_939" data-name="Path 939" d="M5.344-17.875v2.526H8.786v2.037H5.344v3.774a1.013,1.013,0,0,0,.282.839,2.154,2.154,0,0,0,1.151.21H8.5v2.037H5.626a4.393,4.393,0,0,1-2.808-.7A3,3,0,0,1,2-9.537v-3.774H.328v-2.037H2v-2.526Z" transform="translate(-0.328 17.875)"/>
      </g>
      <g id="Group_997" data-name="Group 997" transform="translate(68.271 410.577)">
        <path id="Path_940" data-name="Path 940" d="M12.654-12.394v5.412H9.295v-4.134a14.364,14.364,0,0,0-.059-1.6,1.5,1.5,0,0,0-.211-.649,1.313,1.313,0,0,0-.54-.429,1.761,1.761,0,0,0-.764-.16,2.063,2.063,0,0,0-1.645.689,2.839,2.839,0,0,0-.587,1.907v4.374H2.141V-19.344H5.489v4.773a5.029,5.029,0,0,1,1.6-1.148,4.722,4.722,0,0,1,1.88-.369,3.686,3.686,0,0,1,2.749.949,3.726,3.726,0,0,1,.94,2.746Z" transform="translate(-2.141 19.344)"/>
      </g>
      <g id="Group_998" data-name="Group 998" transform="translate(81.108 413.832)">
        <path id="Path_941" data-name="Path 941" d="M12.324-9.617v.809H4.5A2.027,2.027,0,0,0,5.358-7.3a3.545,3.545,0,0,0,2.032.5,9.1,9.1,0,0,0,2.161-.27,12.78,12.78,0,0,0,2.279-.809v2.2a15.834,15.834,0,0,1-2.373.569,14.389,14.389,0,0,1-2.373.2A7.022,7.022,0,0,1,2.668-6.142,4.114,4.114,0,0,1,1.094-9.587,4.139,4.139,0,0,1,2.633-13,6.624,6.624,0,0,1,6.9-14.25a5.868,5.868,0,0,1,3.947,1.268,4.2,4.2,0,0,1,1.48,3.365Zm-3.442-.939a1.668,1.668,0,0,0-.552-1.308,2.1,2.1,0,0,0-1.457-.5,2.51,2.51,0,0,0-1.574.469,1.99,1.99,0,0,0-.752,1.338Z" transform="translate(-1.094 14.25)"/>
      </g>
      <g id="Group_999" data-name="Group 999" transform="translate(101.689 411.077)">
        <path id="Path_942" data-name="Path 942" d="M2.344-18.562H6.361l5.063,8.138v-8.138h3.418V-6.7H10.825L5.751-14.838V-6.7H2.344Z" transform="translate(-2.344 18.562)"/>
      </g>
      <g id="Group_1000" data-name="Group 1000" transform="translate(116.766 413.832)">
        <path id="Path_943" data-name="Path 943" d="M6.862-12.223a2.128,2.128,0,0,0-1.7.679,2.947,2.947,0,0,0-.576,1.957A2.938,2.938,0,0,0,5.158-7.63a2.12,2.12,0,0,0,1.7.679A2.061,2.061,0,0,0,8.53-7.63a2.954,2.954,0,0,0,.576-1.957,2.963,2.963,0,0,0-.576-1.957A2.069,2.069,0,0,0,6.862-12.223Zm0-2.027a6.5,6.5,0,0,1,4.217,1.238,4.181,4.181,0,0,1,1.515,3.425,4.188,4.188,0,0,1-1.515,3.435A6.484,6.484,0,0,1,6.862-4.914,6.548,6.548,0,0,1,2.621-6.152,4.171,4.171,0,0,1,1.094-9.587a4.165,4.165,0,0,1,1.527-3.425A6.563,6.563,0,0,1,6.862-14.25Z" transform="translate(-1.094 14.25)"/>
      </g>
      <g id="Group_1001" data-name="Group 1001" transform="translate(130.584 414.042)">
        <path id="Path_944" data-name="Path 944" d="M1.984-8.49v-5.432H5.356v.889c0,.487-.006,1.093-.012,1.817S5.332-10,5.332-9.758A13.764,13.764,0,0,0,5.391-8.21a1.446,1.446,0,0,0,.235.679,1.338,1.338,0,0,0,.529.439,1.874,1.874,0,0,0,.764.15,2.076,2.076,0,0,0,1.645-.679,2.808,2.808,0,0,0,.6-1.907v-4.393H12.51v8.9H9.162V-6.313a5.022,5.022,0,0,1-1.6,1.148A4.645,4.645,0,0,1,5.7-4.8a3.765,3.765,0,0,1-2.761-.939A3.723,3.723,0,0,1,1.984-8.49Z" transform="translate(-1.984 13.922)"/>
      </g>
      <g id="Group_1002" data-name="Group 1002" transform="translate(144.325 413.832)">
        <path id="Path_945" data-name="Path 945" d="M12.654-10.556v5.412H9.295V-9.287a14.242,14.242,0,0,0-.059-1.588,1.5,1.5,0,0,0-.211-.649,1.313,1.313,0,0,0-.54-.429,1.761,1.761,0,0,0-.764-.16,2.063,2.063,0,0,0-1.645.689,2.839,2.839,0,0,0-.587,1.907v4.374H2.141v-8.9H5.489v1.308a5.029,5.029,0,0,1,1.6-1.148,4.722,4.722,0,0,1,1.88-.369,3.686,3.686,0,0,1,2.749.949,3.726,3.726,0,0,1,.94,2.746Z" transform="translate(-2.141 14.25)"/>
      </g>
      <g id="Group_1003" data-name="Group 1003" transform="translate(164.765 411.077)">
        <path id="Path_946" data-name="Path 946" d="M2.344-18.562H8.311a7,7,0,0,1,4.076,1.008,3.3,3.3,0,0,1,1.433,2.866,3.306,3.306,0,0,1-1.433,2.876,7.041,7.041,0,0,1-4.076,1H5.938V-6.7H2.344Zm3.595,2.217v3.315H7.924a2.61,2.61,0,0,0,1.609-.429,1.46,1.46,0,0,0,.576-1.228,1.447,1.447,0,0,0-.576-1.228,2.626,2.626,0,0,0-1.609-.429Z" transform="translate(-2.344 18.562)"/>
      </g>
      <g id="Group_1004" data-name="Group 1004" transform="translate(178.638 413.832)">
        <path id="Path_947" data-name="Path 947" d="M9.917-11.614a4.779,4.779,0,0,0-.881-.26,4.9,4.9,0,0,0-.869-.08,2.675,2.675,0,0,0-1.985.7,2.738,2.738,0,0,0-.693,2.017v4.094H2.14v-8.9H5.488v1.458a3.922,3.922,0,0,1,1.468-1.268,4.69,4.69,0,0,1,2.009-.4c.117,0,.238,0,.364.01s.323.025.576.05Z" transform="translate(-2.14 14.25)"/>
      </g>
      <g id="Group_1005" data-name="Group 1005" transform="translate(187.287 413.832)">
        <path id="Path_948" data-name="Path 948" d="M6.862-12.223a2.128,2.128,0,0,0-1.7.679,2.947,2.947,0,0,0-.576,1.957A2.938,2.938,0,0,0,5.158-7.63a2.12,2.12,0,0,0,1.7.679A2.061,2.061,0,0,0,8.53-7.63a2.954,2.954,0,0,0,.576-1.957,2.963,2.963,0,0,0-.576-1.957A2.069,2.069,0,0,0,6.862-12.223Zm0-2.027a6.5,6.5,0,0,1,4.217,1.238,4.181,4.181,0,0,1,1.515,3.425,4.188,4.188,0,0,1-1.515,3.435A6.484,6.484,0,0,1,6.862-4.914,6.548,6.548,0,0,1,2.621-6.152,4.171,4.171,0,0,1,1.094-9.587a4.165,4.165,0,0,1,1.527-3.425A6.563,6.563,0,0,1,6.862-14.25Z" transform="translate(-1.094 14.25)"/>
      </g>
      <g id="Group_1006" data-name="Group 1006" transform="translate(198.978 410.577)">
        <path id="Path_949" data-name="Path 949" d="M1.4-15.879H4.748v8.737a3.545,3.545,0,0,1-1.01,2.726,4.128,4.128,0,0,1-2.925.949H-.844V-5.335h.576a1.792,1.792,0,0,0,1.3-.369A2.1,2.1,0,0,0,1.4-7.142Zm0-3.465H4.748v2.327H1.4Z" transform="translate(0.844 19.344)"/>
      </g>
      <g id="Group_1007" data-name="Group 1007" transform="translate(206.996 413.832)">
        <path id="Path_950" data-name="Path 950" d="M12.324-9.617v.809H4.5A2.027,2.027,0,0,0,5.358-7.3a3.545,3.545,0,0,0,2.032.5,9.1,9.1,0,0,0,2.161-.27,12.78,12.78,0,0,0,2.279-.809v2.2a15.834,15.834,0,0,1-2.373.569,14.389,14.389,0,0,1-2.373.2A7.022,7.022,0,0,1,2.668-6.142,4.114,4.114,0,0,1,1.094-9.587,4.139,4.139,0,0,1,2.633-13,6.624,6.624,0,0,1,6.9-14.25a5.868,5.868,0,0,1,3.947,1.268,4.2,4.2,0,0,1,1.48,3.365Zm-3.442-.939a1.668,1.668,0,0,0-.552-1.308,2.1,2.1,0,0,0-1.457-.5,2.51,2.51,0,0,0-1.574.469,1.99,1.99,0,0,0-.752,1.338Z" transform="translate(-1.094 14.25)"/>
      </g>
      <g id="Group_1008" data-name="Group 1008" transform="translate(219.974 413.832)">
        <path id="Path_951" data-name="Path 951" d="M10.339-13.76v2.317a5.821,5.821,0,0,0-1.374-.589,5.347,5.347,0,0,0-1.421-.19,3.178,3.178,0,0,0-2.185.7,2.457,2.457,0,0,0-.775,1.937,2.483,2.483,0,0,0,.775,1.947,3.2,3.2,0,0,0,2.185.689,5.693,5.693,0,0,0,1.492-.19,4.733,4.733,0,0,0,1.3-.589V-5.4a11.028,11.028,0,0,1-1.6.359,10.436,10.436,0,0,1-1.621.13A7.1,7.1,0,0,1,2.692-6.142a4.106,4.106,0,0,1-1.6-3.445,4.074,4.074,0,0,1,1.6-3.425A7.074,7.074,0,0,1,7.121-14.25a10.952,10.952,0,0,1,1.621.12,10.94,10.94,0,0,1,1.6.369Z" transform="translate(-1.094 14.25)"/>
      </g>
      <g id="Group_1009" data-name="Group 1009" transform="translate(230.742 411.516)">
        <path id="Path_952" data-name="Path 952" d="M5.344-17.875v2.526H8.786v2.037H5.344v3.774a1.013,1.013,0,0,0,.282.839,2.154,2.154,0,0,0,1.151.21H8.5v2.037H5.626a4.393,4.393,0,0,1-2.808-.7A3,3,0,0,1,2-9.537v-3.774H.328v-2.037H2v-2.526Z" transform="translate(-0.328 17.875)"/>
      </g>
    </g>
  </g>
</svg>
