<svg xmlns="http://www.w3.org/2000/svg" xmlns:xlink="http://www.w3.org/1999/xlink" width="859" height="705" viewBox="0 0 859 705">
  <defs>
    <clipPath id="clip-path">
      <rect id="Rectangle_150" data-name="Rectangle 150" width="859" height="705" transform="translate(5211 3215)" fill="#fff" stroke="#707070" stroke-width="1"/>
    </clipPath>
  </defs>
  <g id="Mask_Group_9" data-name="Mask Group 9" transform="translate(-5211 -3215)" clip-path="url(#clip-path)">
    <g id="noun-eye-107947" transform="translate(5156.371 3318.998)">
      <path id="Path_953" data-name="Path 953" d="M508.4,511.833c47.521,0,86.038-46.928,86.038-104.825S555.922,302.182,508.4,302.182s-86.037,46.928-86.037,104.825S460.881,511.833,508.4,511.833ZM441.482,360.419c0-19.3,12.837-34.945,28.682-34.945s28.675,15.64,28.675,34.945S486,395.355,470.164,395.355,441.482,379.715,441.482,360.419Zm239,46.587c0-115.8-77.042-209.659-172.082-209.659S336.321,291.212,336.321,407.005,413.364,616.664,508.4,616.664,680.485,522.8,680.485,407.005Zm-315.484,0c0-96.491,64.2-174.716,143.4-174.716s143.4,78.225,143.4,174.716S587.6,581.721,508.4,581.721,365,503.5,365,407.005Zm408.49,127.819a773.584,773.584,0,0,0,79.443-79.672c8.222-9.522,15.471-18.386,21.686-26.357,3.774-4.842,6.388-8.352,7.789-10.3L890.631,407l-8.222-11.488c-1.4-1.95-4.015-5.46-7.789-10.3-6.215-7.97-13.464-16.835-21.686-26.357a773.992,773.992,0,0,0-79.443-79.672C689.1,206.3,599.514,162.4,508.318,162.4S327.529,206.3,243.144,279.184A773.6,773.6,0,0,0,163.7,358.857c-8.222,9.522-15.471,18.386-21.686,26.357-3.768,4.842-6.389,8.352-7.789,10.3L126,407l8.222,11.488c1.4,1.95,4.021,5.46,7.789,10.3,6.215,7.97,13.464,16.835,21.686,26.357a774.005,774.005,0,0,0,79.443,79.672C327.536,607.712,417.121,651.61,508.318,651.61s180.771-43.9,265.173-116.785Zm-513.77-28.51a743.755,743.755,0,0,1-76.262-76.48C175.6,420.727,170.121,414.56,164.232,407c5.888-7.556,11.363-13.723,19.226-22.832a744.174,744.174,0,0,1,76.262-76.48c79.964-69.069,164.22-110.352,248.6-110.352S676.939,238.623,756.9,307.692a743.178,743.178,0,0,1,76.269,76.48c7.856,9.108,14.764,15.275,20.646,22.832-5.882,7.556-12.79,13.723-20.646,22.832a743.58,743.58,0,0,1-76.269,76.48c-79.964,69.069-164.221,110.352-248.58,110.352s-168.628-41.283-248.6-110.352Z" transform="translate(-21.244 -162.399)" fill="#1a6f5d" fill-rule="evenodd"/>
      <g id="Group_1010" data-name="Group 1010" transform="translate(1.468 939.762)">
        <path id="Path_954" data-name="Path 954" d="M31.053,20.1a20.327,20.327,0,0,1-5.175,2.34,19.324,19.324,0,0,1-5.6.812q-8.7,0-13.791-5.915-5.1-5.947-5.095-16.087,0-10.164,5.095-16.087,5.092-5.947,13.791-5.947a19.323,19.323,0,0,1,5.6.812,20.323,20.323,0,0,1,5.175,2.34v8.775a19.35,19.35,0,0,0-4.935-3.022A13.629,13.629,0,0,0,21-12.851a8.834,8.834,0,0,0-7.549,3.77Q10.7-5.34,10.7,1.253q0,6.569,2.748,10.335A8.846,8.846,0,0,0,21,15.326a13.93,13.93,0,0,0,5.121-.942,18.853,18.853,0,0,0,4.935-3.055Z" transform="translate(-1.391 20.781)"/>
      </g>
      <g id="Group_1011" data-name="Group 1011" transform="translate(38.204 950.358)">
        <path id="Path_955" data-name="Path 955" d="M21.778-6.231a10.2,10.2,0,0,0-2.214-.91A7.585,7.585,0,0,0,17.4-7.466a5.645,5.645,0,0,0-4.961,2.535c-1.16,1.674-1.734,4.062-1.734,7.182v14.69H2.359V-14.907h8.349v5.232a12.061,12.061,0,0,1,3.681-4.55A8.56,8.56,0,0,1,19.4-15.687a7.316,7.316,0,0,1,.907.065c.333.024.814.081,1.44.162Z" transform="translate(-2.359 15.687)"/>
      </g>
      <g id="Group_1012" data-name="Group 1012" transform="translate(59.804 950.357)">
        <path id="Path_956" data-name="Path 956" d="M29.265.92V3.844H9.713a8.267,8.267,0,0,0,2.134,5.362,6.933,6.933,0,0,0,5.095,1.787,16.412,16.412,0,0,0,5.388-.942,25.987,25.987,0,0,0,5.682-2.892v7.832a30.5,30.5,0,0,1-5.922,2.047,25.435,25.435,0,0,1-5.922.715q-7.1,0-11.043-4.387Q1.2,8.979,1.2,1.049q0-7.8,3.868-12.252,3.861-4.485,10.617-4.485a12.1,12.1,0,0,1,9.869,4.55Q29.258-6.616,29.265.92ZM20.676-2.46a7.313,7.313,0,0,0-1.387-4.647A4.394,4.394,0,0,0,15.661-8.9a5.107,5.107,0,0,0-3.948,1.657A8.348,8.348,0,0,0,9.819-2.46Z" transform="translate(-1.203 15.688)"/>
      </g>
      <g id="Group_1013" data-name="Group 1013" transform="translate(92.22 950.357)">
        <path id="Path_957" data-name="Path 957" d="M14.887,2.61a6.185,6.185,0,0,0-3.948,1.072A3.877,3.877,0,0,0,9.632,6.867,4.2,4.2,0,0,0,10.7,9.922a3.943,3.943,0,0,0,2.934,1.072,4.868,4.868,0,0,0,3.974-2.047A8.135,8.135,0,0,0,19.235,3.78V2.61Zm12.75-3.835V16.942h-8.4V12.229a11.914,11.914,0,0,1-3.788,4.225,9.632,9.632,0,0,1-5.121,1.3,8.372,8.372,0,0,1-6.589-2.86A10.945,10.945,0,0,1,1.2,7.387Q1.2,1.805,4.351-.8,7.522-3.435,14.3-3.435h4.935v-.812a4,4,0,0,0-1.574-3.51A8.432,8.432,0,0,0,12.78-8.9a18.616,18.616,0,0,0-5.015.65A15.516,15.516,0,0,0,3.5-6.3v-7.767a42.732,42.732,0,0,1,5.362-1.2,36.106,36.106,0,0,1,5.442-.422q7.062,0,10.19,3.412,3.141,3.388,3.148,11.05Z" transform="translate(-1.203 15.688)"/>
      </g>
      <g id="Group_1014" data-name="Group 1014" transform="translate(123.062 942.103)">
        <path id="Path_958" data-name="Path 958" d="M12.885-19.656v9.035H21.5v7.28H12.885v13.52a4.518,4.518,0,0,0,.72,2.99,3.886,3.886,0,0,0,2.854.78h4.295v7.28H13.605c-3.308,0-5.655-.829-7.042-2.5Q4.5,16.191,4.51,10.178V-3.341H.375v-7.28H4.51v-9.035Z" transform="translate(-0.375 19.656)"/>
      </g>
      <g id="Group_1015" data-name="Group 1015" transform="translate(147.33 950.357)">
        <path id="Path_959" data-name="Path 959" d="M29.265.92V3.844H9.713a8.267,8.267,0,0,0,2.134,5.362,6.933,6.933,0,0,0,5.095,1.787,16.412,16.412,0,0,0,5.388-.942,25.987,25.987,0,0,0,5.682-2.892v7.832a30.5,30.5,0,0,1-5.922,2.047,25.435,25.435,0,0,1-5.922.715q-7.1,0-11.043-4.387Q1.2,8.979,1.2,1.049q0-7.8,3.868-12.252,3.861-4.485,10.617-4.485a12.1,12.1,0,0,1,9.869,4.55Q29.258-6.616,29.265.92ZM20.676-2.46a7.313,7.313,0,0,0-1.387-4.647A4.394,4.394,0,0,0,15.661-8.9a5.107,5.107,0,0,0-3.948,1.657A8.348,8.348,0,0,0,9.819-2.46Z" transform="translate(-1.203 15.688)"/>
      </g>
      <g id="Group_1016" data-name="Group 1016" transform="translate(179.852 938.723)">
        <path id="Path_960" data-name="Path 960" d="M20.9-4.219V-21.281h8.4V22.982H20.9V18.367a12.061,12.061,0,0,1-3.788,4.127,8.978,8.978,0,0,1-4.828,1.3q-4.831,0-7.922-4.68T1.266,7.09q0-7.373,3.094-12.057t7.922-4.68a8.73,8.73,0,0,1,4.8,1.332,12.635,12.635,0,0,1,3.814,4.1ZM15.4,16.418a4.5,4.5,0,0,0,4.081-2.372A13.9,13.9,0,0,0,20.9,7.091,13.745,13.745,0,0,0,19.484.168a4.5,4.5,0,0,0-4.081-2.4,4.481,4.481,0,0,0-4.081,2.4A13.674,13.674,0,0,0,9.908,7.091a13.831,13.831,0,0,0,1.414,6.955A4.481,4.481,0,0,0,15.4,16.418Z" transform="translate(-1.266 21.281)"/>
      </g>
      <g id="Group_1017" data-name="Group 1017" transform="translate(232.58 938.723)">
        <path id="Path_961" data-name="Path 961" d="M16.257,16.418a4.514,4.514,0,0,0,4.108-2.372A13.9,13.9,0,0,0,21.778,7.09,13.745,13.745,0,0,0,20.365.168a4.513,4.513,0,0,0-4.108-2.4,4.561,4.561,0,0,0-4.135,2.4A13.8,13.8,0,0,0,10.708,7.09a13.756,13.756,0,0,0,1.414,6.922,4.545,4.545,0,0,0,4.135,2.4ZM10.708-4.219a12.928,12.928,0,0,1,3.814-4.1,8.853,8.853,0,0,1,4.828-1.332q4.851,0,7.949,4.68T30.394,7.09q0,7.349-3.094,12.025t-7.949,4.68a9.044,9.044,0,0,1-4.828-1.3,12.641,12.641,0,0,1-3.814-4.127v4.615H2.359V-21.281h8.349Z" transform="translate(-2.359 21.281)"/>
      </g>
      <g id="Group_1018" data-name="Group 1018" transform="translate(263.356 951.138)">
        <path id="Path_962" data-name="Path 962" d="M.344-15.312H8.693L15.735,6.3,21.71-15.312h8.349L19.069,19.56q-1.66,5.289-3.868,7.41a8.011,8.011,0,0,1-5.815,2.145H4.532V22.42H7.146a4.648,4.648,0,0,0,3.094-.845,5.524,5.524,0,0,0,1.52-2.925l.24-.877Z" transform="translate(-0.344 15.312)"/>
      </g>
      <g id="Group_1019" data-name="Group 1019" transform="translate(310.809 940.543)">
        <path id="Path_963" data-name="Path 963" d="M25.428,14.3H11.4L9.156,22.037H.141l12.91-42.443h10.7l12.91,42.443H27.642ZM13.638,6.438h9.523l-4.748-16.9Z" transform="translate(-0.141 20.406)"/>
      </g>
      <g id="Group_1020" data-name="Group 1020" transform="translate(351.588 950.358)">
        <path id="Path_964" data-name="Path 964" d="M28.634-2.461v19.4h-8.4V2.089c0-2.746-.053-4.647-.16-5.687a7.144,7.144,0,0,0-.533-2.307A3.8,3.8,0,0,0,18.2-7.433a3.366,3.366,0,0,0-1.894-.552A4.6,4.6,0,0,0,12.2-5.516a12.969,12.969,0,0,0-1.494,6.792V16.941H2.359V-14.907h8.349v4.647a14.372,14.372,0,0,1,4-4.1A8.708,8.708,0,0,1,19.4-15.687a7.826,7.826,0,0,1,6.882,3.412q2.341,3.388,2.347,9.815Z" transform="translate(-2.359 15.687)"/>
      </g>
      <g id="Group_1021" data-name="Group 1021" transform="translate(383.752 938.723)">
        <path id="Path_965" data-name="Path 965" d="M20.9-4.219V-21.281h8.4V22.982H20.9V18.367a12.061,12.061,0,0,1-3.788,4.127,8.978,8.978,0,0,1-4.828,1.3q-4.831,0-7.922-4.68T1.266,7.09q0-7.373,3.094-12.057t7.922-4.68a8.73,8.73,0,0,1,4.8,1.332,12.635,12.635,0,0,1,3.814,4.1ZM15.4,16.418a4.5,4.5,0,0,0,4.081-2.372A13.9,13.9,0,0,0,20.9,7.091,13.745,13.745,0,0,0,19.484.168a4.5,4.5,0,0,0-4.081-2.4,4.481,4.481,0,0,0-4.081,2.4A13.674,13.674,0,0,0,9.908,7.091a13.831,13.831,0,0,0,1.414,6.955A4.481,4.481,0,0,0,15.4,16.418Z" transform="translate(-1.266 21.281)"/>
      </g>
      <g id="Group_1022" data-name="Group 1022" transform="translate(419.835 950.358)">
        <path id="Path_966" data-name="Path 966" d="M21.778-6.231a10.2,10.2,0,0,0-2.214-.91A7.585,7.585,0,0,0,17.4-7.466a5.645,5.645,0,0,0-4.961,2.535c-1.16,1.674-1.734,4.062-1.734,7.182v14.69H2.359V-14.907h8.349v5.232a12.061,12.061,0,0,1,3.681-4.55A8.56,8.56,0,0,1,19.4-15.687a7.316,7.316,0,0,1,.907.065c.333.024.814.081,1.44.162Z" transform="translate(-2.359 15.687)"/>
      </g>
      <g id="Group_1023" data-name="Group 1023" transform="translate(441.435 950.357)">
        <path id="Path_967" data-name="Path 967" d="M29.265.92V3.844H9.713a8.267,8.267,0,0,0,2.134,5.362,6.933,6.933,0,0,0,5.095,1.787,16.412,16.412,0,0,0,5.388-.942,25.987,25.987,0,0,0,5.682-2.892v7.832a30.5,30.5,0,0,1-5.922,2.047,25.435,25.435,0,0,1-5.922.715q-7.1,0-11.043-4.387Q1.2,8.979,1.2,1.049q0-7.8,3.868-12.252,3.861-4.485,10.617-4.485a12.1,12.1,0,0,1,9.869,4.55Q29.258-6.616,29.265.92ZM20.676-2.46a7.313,7.313,0,0,0-1.387-4.647A4.394,4.394,0,0,0,15.661-8.9a5.107,5.107,0,0,0-3.948,1.657A8.348,8.348,0,0,0,9.819-2.46Z" transform="translate(-1.203 15.688)"/>
      </g>
      <g id="Group_1024" data-name="Group 1024" transform="translate(473.857 950.357)">
        <path id="Path_968" data-name="Path 968" d="M14.887,2.61a6.185,6.185,0,0,0-3.948,1.072A3.877,3.877,0,0,0,9.632,6.867,4.2,4.2,0,0,0,10.7,9.922a3.943,3.943,0,0,0,2.934,1.072,4.868,4.868,0,0,0,3.974-2.047A8.135,8.135,0,0,0,19.235,3.78V2.61Zm12.75-3.835V16.942h-8.4V12.229a11.914,11.914,0,0,1-3.788,4.225,9.632,9.632,0,0,1-5.121,1.3,8.372,8.372,0,0,1-6.589-2.86A10.945,10.945,0,0,1,1.2,7.387Q1.2,1.805,4.351-.8,7.522-3.435,14.3-3.435h4.935v-.812a4,4,0,0,0-1.574-3.51A8.432,8.432,0,0,0,12.78-8.9a18.616,18.616,0,0,0-5.015.65A15.516,15.516,0,0,0,3.5-6.3v-7.767a42.732,42.732,0,0,1,5.362-1.2,36.106,36.106,0,0,1,5.442-.422q7.062,0,10.19,3.412,3.141,3.388,3.148,11.05Z" transform="translate(-1.203 15.688)"/>
      </g>
      <g id="Group_1025" data-name="Group 1025" transform="translate(525.099 940.543)">
        <path id="Path_969" data-name="Path 969" d="M2.578-20.406H13.995L21.944,2.311l7.976-22.717H41.336V22.037H32.827V-9.033L24.8,13.88H19.116L11.087-9.033v31.07H2.578Z" transform="translate(-2.578 20.406)"/>
      </g>
      <g id="Group_1026" data-name="Group 1026" transform="translate(570.318 950.357)">
        <path id="Path_970" data-name="Path 970" d="M14.887,2.61a6.185,6.185,0,0,0-3.948,1.072A3.877,3.877,0,0,0,9.632,6.867,4.2,4.2,0,0,0,10.7,9.922a3.943,3.943,0,0,0,2.934,1.072,4.868,4.868,0,0,0,3.974-2.047A8.135,8.135,0,0,0,19.235,3.78V2.61Zm12.75-3.835V16.942h-8.4V12.229a11.914,11.914,0,0,1-3.788,4.225,9.632,9.632,0,0,1-5.121,1.3,8.372,8.372,0,0,1-6.589-2.86A10.945,10.945,0,0,1,1.2,7.387Q1.2,1.805,4.351-.8,7.522-3.435,14.3-3.435h4.935v-.812a4,4,0,0,0-1.574-3.51A8.432,8.432,0,0,0,12.78-8.9a18.616,18.616,0,0,0-5.015.65A15.516,15.516,0,0,0,3.5-6.3v-7.767a42.732,42.732,0,0,1,5.362-1.2,36.106,36.106,0,0,1,5.442-.422q7.062,0,10.19,3.412,3.141,3.388,3.148,11.05Z" transform="translate(-1.203 15.688)"/>
      </g>
      <g id="Group_1027" data-name="Group 1027" transform="translate(602.68 951.138)">
        <path id="Path_971" data-name="Path 971" d="M1.826-15.312H24.632v7.117L10.868,9.257H24.632v7.28H1.265V9.42L15.029-8.032H1.825Z" transform="translate(-1.265 15.312)"/>
      </g>
      <g id="Group_1028" data-name="Group 1028" transform="translate(630.502 951.138)">
        <path id="Path_972" data-name="Path 972" d="M1.826-15.312H24.632v7.117L10.868,9.257H24.632v7.28H1.265V9.42L15.029-8.032H1.825Z" transform="translate(-1.265 15.312)"/>
      </g>
      <g id="Group_1029" data-name="Group 1029" transform="translate(660.192 938.724)">
        <path id="Path_973" data-name="Path 973" d="M2.359-8.866h8.349V22.982H2.359Zm0-12.415h8.349v8.32H2.359Z" transform="translate(-2.359 21.281)"/>
      </g>
      <g id="Group_1030" data-name="Group 1030" transform="translate(676.576 950.358)">
        <path id="Path_974" data-name="Path 974" d="M28.634-2.461v19.4h-8.4V2.089c0-2.746-.053-4.647-.16-5.687a7.144,7.144,0,0,0-.533-2.307A3.8,3.8,0,0,0,18.2-7.433a3.366,3.366,0,0,0-1.894-.552A4.6,4.6,0,0,0,12.2-5.516a12.969,12.969,0,0,0-1.494,6.792V16.941H2.359V-14.907h8.349v4.647a14.372,14.372,0,0,1,4-4.1A8.708,8.708,0,0,1,19.4-15.687a7.826,7.826,0,0,1,6.882,3.412q2.341,3.388,2.347,9.815Z" transform="translate(-2.359 15.687)"/>
      </g>
      <g id="Group_1031" data-name="Group 1031" transform="translate(710.606 938.724)">
        <path id="Path_975" data-name="Path 975" d="M2.359-8.866h8.349V22.982H2.359Zm0-12.415h8.349v8.32H2.359Z" transform="translate(-2.359 21.281)"/>
      </g>
      <g id="Group_1032" data-name="Group 1032" transform="translate(0 996.962)">
        <path id="Path_976" data-name="Path 976" d="M20.831-21.281v6.695H16.216a3.271,3.271,0,0,0-2.481.78,4.112,4.112,0,0,0-.694,2.73v2.21H20.19v7.28H13.042V22.982H4.693V-1.586H.531v-7.28H4.693v-2.21q0-5.192,2.374-7.7t7.389-2.5Z" transform="translate(-0.531 21.281)"/>
      </g>
      <g id="Group_1033" data-name="Group 1033" transform="translate(23.919 1008.596)">
        <path id="Path_977" data-name="Path 977" d="M21.778-6.231a10.2,10.2,0,0,0-2.214-.91A7.585,7.585,0,0,0,17.4-7.466a5.645,5.645,0,0,0-4.961,2.535c-1.16,1.674-1.734,4.062-1.734,7.182v14.69H2.359V-14.907h8.349v5.232a12.061,12.061,0,0,1,3.681-4.55A8.56,8.56,0,0,1,19.4-15.687a7.316,7.316,0,0,1,.907.065c.333.024.814.081,1.44.162Z" transform="translate(-2.359 15.687)"/>
      </g>
      <g id="Group_1034" data-name="Group 1034" transform="translate(45.52 1008.595)">
        <path id="Path_978" data-name="Path 978" d="M15.607-8.408a4.664,4.664,0,0,0-4.241,2.437A13.718,13.718,0,0,0,9.9,1.049a13.718,13.718,0,0,0,1.467,7.02,4.665,4.665,0,0,0,4.241,2.4,4.572,4.572,0,0,0,4.161-2.4,13.787,13.787,0,0,0,1.467-7.02,13.787,13.787,0,0,0-1.467-7.02A4.571,4.571,0,0,0,15.607-8.408Zm0-7.28q6.742,0,10.536,4.452,3.781,4.424,3.788,12.285,0,7.836-3.788,12.285-3.791,4.424-10.536,4.42-6.782,0-10.59-4.42Q1.2,8.885,1.2,1.049q0-7.861,3.814-12.285Q8.829-15.684,15.607-15.688Z" transform="translate(-1.203 15.688)"/>
      </g>
      <g id="Group_1035" data-name="Group 1035" transform="translate(80.277 1008.595)">
        <path id="Path_979" data-name="Path 979" d="M26.6-9.61a12.783,12.783,0,0,1,3.761-4.517,8.07,8.07,0,0,1,4.8-1.56,7.8,7.8,0,0,1,6.855,3.412q2.371,3.388,2.374,9.815v19.4h-8.4V-.413c.013-.276.027-.666.027-1.17a10.712,10.712,0,0,0-.827-4.875,2.739,2.739,0,0,0-2.614-1.527,4.035,4.035,0,0,0-3.681,2.4,14.687,14.687,0,0,0-1.334,6.89V16.941h-8.4V.334c0-3.526-.253-5.793-.747-6.792a2.716,2.716,0,0,0-2.667-1.527,4.058,4.058,0,0,0-3.708,2.4,14.456,14.456,0,0,0-1.307,6.857V16.941h-8.4V-14.907h8.4v4.647a12.114,12.114,0,0,1,3.521-4.062,7.643,7.643,0,0,1,4.4-1.365,7.715,7.715,0,0,1,4.8,1.592A9.747,9.747,0,0,1,26.6-9.61Z" transform="translate(-2.328 15.688)"/>
      </g>
      <g id="Group_1036" data-name="Group 1036" transform="translate(143.394 1000.342)">
        <path id="Path_980" data-name="Path 980" d="M12.885-19.656v9.035H21.5v7.28H12.885v13.52a4.518,4.518,0,0,0,.72,2.99,3.886,3.886,0,0,0,2.854.78h4.295v7.28H13.605c-3.308,0-5.655-.829-7.042-2.5Q4.5,16.191,4.51,10.178V-3.341H.375v-7.28H4.51v-9.035Z" transform="translate(-0.375 19.656)"/>
      </g>
      <g id="Group_1037" data-name="Group 1037" transform="translate(169.629 996.962)">
        <path id="Path_981" data-name="Path 981" d="M28.634,3.581v19.4h-8.4V8.2q0-4.193-.16-5.752A7.144,7.144,0,0,0,19.538.136,3.8,3.8,0,0,0,18.2-1.392a3.366,3.366,0,0,0-1.894-.552A4.6,4.6,0,0,0,12.2.526a12.969,12.969,0,0,0-1.494,6.792V22.982H2.359V-21.281h8.349V-4.219a14.372,14.372,0,0,1,4-4.1A8.708,8.708,0,0,1,19.4-9.647a7.826,7.826,0,0,1,6.882,3.412q2.341,3.388,2.347,9.815Z" transform="translate(-2.359 21.281)"/>
      </g>
      <g id="Group_1038" data-name="Group 1038" transform="translate(201.686 1008.596)">
        <path id="Path_982" data-name="Path 982" d="M29.265.92V3.844H9.713a8.267,8.267,0,0,0,2.134,5.362,6.933,6.933,0,0,0,5.095,1.787,16.412,16.412,0,0,0,5.388-.942,25.987,25.987,0,0,0,5.682-2.892v7.832a30.5,30.5,0,0,1-5.922,2.047,25.435,25.435,0,0,1-5.922.715q-7.1,0-11.043-4.387Q1.2,8.979,1.2,1.049q0-7.8,3.868-12.252,3.861-4.485,10.617-4.485a12.1,12.1,0,0,1,9.869,4.55Q29.258-6.616,29.265.92ZM20.676-2.46a7.313,7.313,0,0,0-1.387-4.647A4.394,4.394,0,0,0,15.661-8.9a5.107,5.107,0,0,0-3.948,1.657A8.348,8.348,0,0,0,9.819-2.46Z" transform="translate(-1.203 15.688)"/>
      </g>
      <g id="Group_1039" data-name="Group 1039" transform="translate(253.093 998.782)">
        <path id="Path_983" data-name="Path 983" d="M2.578-20.406h10.03L25.278,8.713V-20.406h8.509V22.037H23.758L11.087-7.082V22.037H2.578Z" transform="translate(-2.578 20.406)"/>
      </g>
      <g id="Group_1040" data-name="Group 1040" transform="translate(290.751 1008.595)">
        <path id="Path_984" data-name="Path 984" d="M15.607-8.408a4.664,4.664,0,0,0-4.241,2.437A13.718,13.718,0,0,0,9.9,1.049a13.718,13.718,0,0,0,1.467,7.02,4.665,4.665,0,0,0,4.241,2.4,4.572,4.572,0,0,0,4.161-2.4,13.787,13.787,0,0,0,1.467-7.02,13.787,13.787,0,0,0-1.467-7.02A4.571,4.571,0,0,0,15.607-8.408Zm0-7.28q6.742,0,10.536,4.452,3.781,4.424,3.788,12.285,0,7.836-3.788,12.285-3.791,4.424-10.536,4.42-6.782,0-10.59-4.42Q1.2,8.885,1.2,1.049q0-7.861,3.814-12.285Q8.829-15.684,15.607-15.688Z" transform="translate(-1.203 15.688)"/>
      </g>
      <g id="Group_1041" data-name="Group 1041" transform="translate(325.274 1009.376)">
        <path id="Path_985" data-name="Path 985" d="M2.188,4.122V-15.313h8.4v3.185c0,1.739-.013,3.9-.027,6.5s-.027,4.339-.027,5.2q0,3.876.16,5.557a7.485,7.485,0,0,0,.56,2.437,4.1,4.1,0,0,0,1.36,1.56,3.444,3.444,0,0,0,1.894.52,4.613,4.613,0,0,0,4.108-2.437A13.014,13.014,0,0,0,20.113.417v-15.73h8.349V16.536H20.113V11.921a14.178,14.178,0,0,1-4,4.127,8.769,8.769,0,0,1-4.668,1.3,7.869,7.869,0,0,1-6.882-3.38Q2.181,10.592,2.188,4.121Z" transform="translate(-2.188 15.313)"/>
      </g>
      <g id="Group_1042" data-name="Group 1042" transform="translate(359.598 1008.597)">
        <path id="Path_986" data-name="Path 986" d="M28.634-2.461v19.4h-8.4V2.089c0-2.746-.053-4.647-.16-5.687a7.144,7.144,0,0,0-.533-2.307A3.8,3.8,0,0,0,18.2-7.433a3.366,3.366,0,0,0-1.894-.552A4.6,4.6,0,0,0,12.2-5.516a12.969,12.969,0,0,0-1.494,6.792V16.941H2.359V-14.907h8.349v4.647a14.372,14.372,0,0,1,4-4.1A8.708,8.708,0,0,1,19.4-15.687a7.826,7.826,0,0,1,6.882,3.412q2.341,3.388,2.347,9.815Z" transform="translate(-2.359 15.687)"/>
      </g>
      <g id="Group_1043" data-name="Group 1043" transform="translate(410.639 998.782)">
        <path id="Path_987" data-name="Path 987" d="M2.578-20.406H17.489q6.642,0,10.19,3.607,3.571,3.583,3.574,10.237T27.679,3.709q-3.551,3.607-10.19,3.607H11.541V22.038H2.578Zm8.963,7.93V-.614h4.988a5.168,5.168,0,0,0,4.028-1.56A6.227,6.227,0,0,0,22-6.561a6.174,6.174,0,0,0-1.44-4.387,5.235,5.235,0,0,0-4.028-1.527Z" transform="translate(-2.578 20.406)"/>
      </g>
      <g id="Group_1044" data-name="Group 1044" transform="translate(445.302 1008.596)">
        <path id="Path_988" data-name="Path 988" d="M21.778-6.231a10.2,10.2,0,0,0-2.214-.91A7.585,7.585,0,0,0,17.4-7.466a5.645,5.645,0,0,0-4.961,2.535c-1.16,1.674-1.734,4.062-1.734,7.182v14.69H2.359V-14.907h8.349v5.232a12.061,12.061,0,0,1,3.681-4.55A8.56,8.56,0,0,1,19.4-15.687a7.316,7.316,0,0,1,.907.065c.333.024.814.081,1.44.162Z" transform="translate(-2.359 15.687)"/>
      </g>
      <g id="Group_1045" data-name="Group 1045" transform="translate(466.895 1008.595)">
        <path id="Path_989" data-name="Path 989" d="M15.607-8.408a4.664,4.664,0,0,0-4.241,2.437A13.718,13.718,0,0,0,9.9,1.049a13.718,13.718,0,0,0,1.467,7.02,4.665,4.665,0,0,0,4.241,2.4,4.572,4.572,0,0,0,4.161-2.4,13.787,13.787,0,0,0,1.467-7.02,13.787,13.787,0,0,0-1.467-7.02A4.571,4.571,0,0,0,15.607-8.408Zm0-7.28q6.742,0,10.536,4.452,3.781,4.424,3.788,12.285,0,7.836-3.788,12.285-3.791,4.424-10.536,4.42-6.782,0-10.59-4.42Q1.2,8.885,1.2,1.049q0-7.861,3.814-12.285Q8.829-15.684,15.607-15.688Z" transform="translate(-1.203 15.688)"/>
      </g>
      <g id="Group_1046" data-name="Group 1046" transform="translate(496.084 996.962)">
        <path id="Path_990" data-name="Path 990" d="M4.691-8.866H13.04V22.4q0,6.4-2.534,9.782A8.545,8.545,0,0,1,3.2,35.56H-.937V28.865H.53a3.671,3.671,0,0,0,3.254-1.3c.6-.869.907-2.592.907-5.167Zm0-12.415H13.04v8.32H4.691Z" transform="translate(0.937 21.281)"/>
      </g>
      <g id="Group_1047" data-name="Group 1047" transform="translate(516.123 1008.596)">
        <path id="Path_991" data-name="Path 991" d="M29.265.92V3.844H9.713a8.267,8.267,0,0,0,2.134,5.362,6.933,6.933,0,0,0,5.095,1.787,16.412,16.412,0,0,0,5.388-.942,25.987,25.987,0,0,0,5.682-2.892v7.832a30.5,30.5,0,0,1-5.922,2.047,25.435,25.435,0,0,1-5.922.715q-7.1,0-11.043-4.387Q1.2,8.979,1.2,1.049q0-7.8,3.868-12.252,3.861-4.485,10.617-4.485a12.1,12.1,0,0,1,9.869,4.55Q29.258-6.616,29.265.92ZM20.676-2.46a7.313,7.313,0,0,0-1.387-4.647A4.394,4.394,0,0,0,15.661-8.9a5.107,5.107,0,0,0-3.948,1.657A8.348,8.348,0,0,0,9.819-2.46Z" transform="translate(-1.203 15.688)"/>
      </g>
      <g id="Group_1048" data-name="Group 1048" transform="translate(548.545 1008.597)">
        <path id="Path_992" data-name="Path 992" d="M24.277-13.9v8.287a12.3,12.3,0,0,0-3.414-2.112,9.48,9.48,0,0,0-3.548-.682,6.575,6.575,0,0,0-5.468,2.5Q9.9-3.431,9.9,1.05A11.044,11.044,0,0,0,11.847,8a6.6,6.6,0,0,0,5.468,2.47,10.186,10.186,0,0,0,3.708-.682A10.477,10.477,0,0,0,24.277,7.68V16A19.471,19.471,0,0,1,20.3,17.3a18.4,18.4,0,0,1-4.055.455q-7.072,0-11.07-4.42Q1.2,8.923,1.2,1.05q0-7.9,3.974-12.317,4-4.412,11.07-4.42a18.4,18.4,0,0,1,4.055.455A19.276,19.276,0,0,1,24.277-13.9Z" transform="translate(-1.203 15.687)"/>
      </g>
      <g id="Group_1049" data-name="Group 1049" transform="translate(575.46 1000.342)">
        <path id="Path_993" data-name="Path 993" d="M12.885-19.656v9.035H21.5v7.28H12.885v13.52a4.518,4.518,0,0,0,.72,2.99,3.886,3.886,0,0,0,2.854.78h4.295v7.28H13.605c-3.308,0-5.655-.829-7.042-2.5Q4.5,16.191,4.51,10.178V-3.341H.375v-7.28H4.51v-9.035Z" transform="translate(-0.375 19.656)"/>
      </g>
    </g>
  </g>
</svg>
