<svg xmlns="http://www.w3.org/2000/svg" xmlns:xlink="http://www.w3.org/1999/xlink" width="359" height="481" viewBox="0 0 359 481">
  <defs>
    <clipPath id="clip-path">
      <rect id="Rectangle_142" data-name="Rectangle 142" width="359" height="481" transform="translate(4232.328 464)" fill="#1a6f5d" stroke="#707070" stroke-width="1"/>
    </clipPath>
  </defs>
  <g id="Mask_Group_1" data-name="Mask Group 1" transform="translate(-4232.328 -464)" clip-path="url(#clip-path)">
    <g id="noun-orthopedics-3176428_1_" data-name="noun-orthopedics-3176428 (1)" transform="translate(4200.466 502.348)">
      <path id="Path_588" data-name="Path 588" d="M406.612,293.553a23.375,23.375,0,0,0-18.589-4.383c-13.475,2.629-35.784,2.191-53.908-8.328a23.67,23.67,0,0,0-22.306-.437c-3.255,1.752-13.475,3.944-22.306,5.7-13.012,2.629-26.023,5.259-33.924,9.206-12.548,5.7-34.39,17.093-39.036,34.624q-3.485,13.149,6.971,26.3a332.254,332.254,0,0,0,24.63,27.174c9.294,9.206,13.012,13.149,15.8,23.666,3.255,14.464,1.394,41.2.464,52.158-.464,3.506.93,6.574,3.255,9.206a12.015,12.015,0,0,0,9.294,3.944h85.508a15.243,15.243,0,0,0,9.294-3.507,11.876,11.876,0,0,0,3.718-8.766c-.464-9.206-.464-28.051.464-50.4.93-21.037,9.761-25.859,28.812-37.255,6.506-3.944,13.942-8.328,22.306-14.027,7.9-5.259,11.618-11.835,12.082-19.723.007-16.216-17.654-33.746-32.523-45.141ZM426.594,338.7q0,5.916-6.971,10.52c-7.9,5.7-15.336,9.642-21.842,13.586-19.518,11.395-33.46,19.286-34.854,46.458-.93,22.352-.464,41.638-.464,51.28v.437H362l-85.508-.437h-.465V460.1c1.394-14.027,2.788-40.323-.93-55.664-3.255-13.586-9.294-19.723-18.589-28.928-6.042-6.136-13.475-13.586-23.7-25.859-4.647-5.7-6.042-10.957-4.647-16.656,2.324-9.206,14.405-18.845,32.53-26.736,6.506-3.07,19.518-5.7,31.136-8.328,13.012-2.629,20.912-4.383,25.56-6.574a10.6,10.6,0,0,1,10.224,0c20.912,12.272,46.936,13.149,62.737,9.643a11.292,11.292,0,0,1,8.363,1.752c18.117,13.586,27.878,26.736,27.878,35.942Z" transform="translate(-95.226 -86.678)" fill="#1a6f5d"/>
      <path id="Path_589" data-name="Path 589" d="M226.658,201.467c6.971,10.08,14.873,20.163,27.418,24.984a46.476,46.476,0,0,0,14.872,2.629,56.015,56.015,0,0,0,20.448-3.944,156.8,156.8,0,0,0,22.772-11.395c1.857-1.315,4.182-2.191,6.042-3.506,1.394-.877,3.255-1.752,4.647-2.629,18.124,15.779,36.248,17.094,48.8,15.779,14.405-1.752,24.166-7.888,24.63-8.328.93-.438,22.772-16.216,24.166-38.131q.7-19.063-18.124-35.5c-38.109-32.435-38.109-35.064-38.572-49.528-.464-13.149,0-52.158,0-52.6V33.6H258.722l.931,6.574c3.255,19.286,6.506,49.966,3.718,56.978-4.647,11.395-13.012,21.037-21.842,31.12-7.9,8.766-15.8,17.971-21.379,28.928a44.313,44.313,0,0,0-5.112,20.163c1.394,8.766,6.506,16.65,11.618,24.1Zm5.112-39.447c4.647-9.643,12.082-17.532,19.518-26.3,9.294-10.52,18.589-21.037,23.7-34.624,3.718-10.08,0-41.2-2.324-56.1H351.2V92.333c.464,19.286,3.255,24.106,42.29,57.856,9.761,8.328,14.873,17.093,14.405,26.3-.93,15.779-17.66,28.489-19.054,29.8a59.2,59.2,0,0,1-19.054,6.136c-12.548,1.752-24.166-1.752-34.854-9.206,4.647-1.315,9.761-2.629,14.405-2.191a5.708,5.708,0,1,0,0-11.4c-14.405-.437-26.954,5.7-37.641,11.395-1.857,1.315-4.182,2.191-6.042,3.506-6.971,3.944-13.475,7.888-20.449,10.52-9.761,3.506-19.054,3.944-26.491,1.315-9.294-3.506-15.8-12.272-21.842-20.6-4.182-6.136-8.363-12.272-8.831-18.408-.457-5.259.937-9.639,3.724-15.34Z" transform="translate(-95.118 -33.6)" fill="#1a6f5d"/>
      <g id="Group_682" data-name="Group 682" transform="translate(0.703 461.465)">
        <path id="Path_590" data-name="Path 590" d="M15.807-5.4a11.465,11.465,0,0,1-2.515.881,11.958,11.958,0,0,1-2.723.306,9.649,9.649,0,0,1-6.7-2.226,7.741,7.741,0,0,1-2.476-6.053,7.722,7.722,0,0,1,2.476-6.053,9.626,9.626,0,0,1,6.7-2.238,11.958,11.958,0,0,1,2.723.306,11.465,11.465,0,0,1,2.515.881v3.3a10.211,10.211,0,0,0-2.4-1.139,8.348,8.348,0,0,0-2.49-.367,4.8,4.8,0,0,0-3.67,1.419,5.413,5.413,0,0,0-1.335,3.889A5.433,5.433,0,0,0,7.25-8.6,4.815,4.815,0,0,0,10.92-7.2a8.545,8.545,0,0,0,2.49-.355,9.921,9.921,0,0,0,2.4-1.15Z" transform="translate(-1.378 20.796)" fill="#1a6f5d"/>
      </g>
      <g id="Group_683" data-name="Group 683" transform="translate(18.571 465.462)">
        <path id="Path_591" data-name="Path 591" d="M11.8-12.129a5.851,5.851,0,0,0-1.079-.342,4.69,4.69,0,0,0-1.051-.122,3.047,3.047,0,0,0-2.412.954,3.907,3.907,0,0,0-.84,2.7V-3.41H2.359V-15.394H6.418v1.966A5.017,5.017,0,0,1,8.207-15.14a5.075,5.075,0,0,1,2.438-.548q.221,0,.441.024c.166.009.4.031.7.061Z" transform="translate(-2.359 15.689)" fill="#1a6f5d"/>
      </g>
      <g id="Group_684" data-name="Group 684" transform="translate(29.057 465.452)">
        <path id="Path_592" data-name="Path 592" d="M14.841-9.439v1.1h-9.5A2.791,2.791,0,0,0,6.374-6.326a4,4,0,0,0,2.476.672,10.1,10.1,0,0,0,2.619-.355,14.339,14.339,0,0,0,2.763-1.083v2.944a17.924,17.924,0,0,1-2.879.77,15.814,15.814,0,0,1-2.879.27A7.976,7.976,0,0,1,3.106-4.758,5.8,5.8,0,0,1,1.2-9.393,5.853,5.853,0,0,1,3.078-14a7.446,7.446,0,0,1,5.161-1.687,6.689,6.689,0,0,1,4.8,1.712,5.95,5.95,0,0,1,1.8,4.539Zm-4.175-1.274a2.346,2.346,0,0,0-.674-1.748,2.4,2.4,0,0,0-1.763-.672,2.874,2.874,0,0,0-1.919.626,2.807,2.807,0,0,0-.92,1.8Z" transform="translate(-1.187 15.702)" fill="#1a6f5d"/>
      </g>
      <g id="Group_685" data-name="Group 685" transform="translate(44.816 465.464)">
        <path id="Path_593" data-name="Path 593" d="M7.852-8.8a3.673,3.673,0,0,0-1.919.4A1.326,1.326,0,0,0,5.3-7.2a1.385,1.385,0,0,0,.519,1.15,2.264,2.264,0,0,0,1.427.4,2.639,2.639,0,0,0,1.932-.77,2.626,2.626,0,0,0,.791-1.944V-8.8Zm6.2-1.443v6.837H9.966V-5.183a5.147,5.147,0,0,1-1.841,1.59,5.781,5.781,0,0,1-2.49.489,4.683,4.683,0,0,1-3.2-1.076A3.582,3.582,0,0,1,1.2-7a3.39,3.39,0,0,1,1.533-3.081,9.139,9.139,0,0,1,4.836-.993h2.4v-.306a1.4,1.4,0,0,0-.765-1.32,5.072,5.072,0,0,0-2.373-.428,11.551,11.551,0,0,0-2.437.245,8.732,8.732,0,0,0-2.075.734v-2.922a26.055,26.055,0,0,1,2.607-.452,22.579,22.579,0,0,1,2.646-.157q3.433,0,4.953,1.284a5.184,5.184,0,0,1,1.53,4.158Z" transform="translate(-1.187 15.686)" fill="#1a6f5d"/>
      </g>
      <g id="Group_686" data-name="Group 686" transform="translate(59.821 462.357)">
        <path id="Path_594" data-name="Path 594" d="M6.454-19.656v3.4h4.191v2.739H6.454v5.087A1.422,1.422,0,0,0,6.8-7.3,2.291,2.291,0,0,0,8.2-7.011h2.088v2.739H6.806a4.985,4.985,0,0,1-3.423-.939,4.3,4.3,0,0,1-1-3.218v-5.087H.375v-2.739H2.387v-3.4Z" transform="translate(-0.375 19.656)" fill="#1a6f5d"/>
      </g>
      <g id="Group_687" data-name="Group 687" transform="translate(71.604 465.452)">
        <path id="Path_595" data-name="Path 595" d="M14.841-9.439v1.1h-9.5A2.791,2.791,0,0,0,6.374-6.326a4,4,0,0,0,2.476.672,10.1,10.1,0,0,0,2.619-.355,14.339,14.339,0,0,0,2.763-1.083v2.944a17.924,17.924,0,0,1-2.879.77,15.814,15.814,0,0,1-2.879.27A7.976,7.976,0,0,1,3.106-4.758,5.8,5.8,0,0,1,1.2-9.393,5.853,5.853,0,0,1,3.078-14a7.446,7.446,0,0,1,5.161-1.687,6.689,6.689,0,0,1,4.8,1.712,5.95,5.95,0,0,1,1.8,4.539Zm-4.175-1.274a2.346,2.346,0,0,0-.674-1.748,2.4,2.4,0,0,0-1.763-.672,2.874,2.874,0,0,0-1.919.626,2.807,2.807,0,0,0-.92,1.8Z" transform="translate(-1.187 15.702)" fill="#1a6f5d"/>
      </g>
      <g id="Group_688" data-name="Group 688" transform="translate(87.42 461.088)">
        <path id="Path_596" data-name="Path 596" d="M10.808-14.86v-6.418h4.085V-4.624H10.808V-6.361A5.256,5.256,0,0,1,8.966-4.808a5.366,5.366,0,0,1-2.347.489A4.833,4.833,0,0,1,2.769-6.08a6.705,6.705,0,0,1-1.5-4.525,6.727,6.727,0,0,1,1.5-4.539A4.834,4.834,0,0,1,6.62-16.905a5.2,5.2,0,0,1,2.334.5,5.534,5.534,0,0,1,1.854,1.541ZM8.137-7.094a2.357,2.357,0,0,0,1.984-.9,4.264,4.264,0,0,0,.687-2.617,4.218,4.218,0,0,0-.687-2.6,2.35,2.35,0,0,0-1.984-.9,2.342,2.342,0,0,0-1.984.9,4.2,4.2,0,0,0-.687,2.6A4.244,4.244,0,0,0,6.153-7.99a2.348,2.348,0,0,0,1.983.9Z" transform="translate(-1.257 21.278)" fill="#1a6f5d"/>
      </g>
      <g id="Group_689" data-name="Group 689" transform="translate(113.058 461.085)">
        <path id="Path_597" data-name="Path 597" d="M9.115-7.1a2.369,2.369,0,0,0,2-.9,4.264,4.264,0,0,0,.687-2.617,4.218,4.218,0,0,0-.687-2.6,2.363,2.363,0,0,0-2-.9,2.391,2.391,0,0,0-2.01.9,4.234,4.234,0,0,0-.687,2.6A4.221,4.221,0,0,0,7.1-8,2.383,2.383,0,0,0,9.115-7.1Zm-2.7-7.766A5.663,5.663,0,0,1,8.272-16.4a5.28,5.28,0,0,1,2.347-.5,4.855,4.855,0,0,1,3.864,1.761,6.744,6.744,0,0,1,1.5,4.539,6.722,6.722,0,0,1-1.5,4.525,4.855,4.855,0,0,1-3.864,1.759,5.406,5.406,0,0,1-2.348-.489A5.522,5.522,0,0,1,6.418-6.362v1.737H2.359V-21.281H6.418Z" transform="translate(-2.359 21.281)" fill="#1a6f5d"/>
      </g>
      <g id="Group_690" data-name="Group 690" transform="translate(128.019 465.757)">
        <path id="Path_598" data-name="Path 598" d="M.344-15.312H4.4L7.825-7.179l2.9-8.133h4.059L9.446-2.19A6.369,6.369,0,0,1,7.566.6a4.6,4.6,0,0,1-2.826.807H2.382V-1.114H3.65a2.755,2.755,0,0,0,1.5-.318,1.99,1.99,0,0,0,.739-1.1l.116-.33Z" transform="translate(-0.344 15.312)" fill="#1a6f5d"/>
      </g>
      <g id="Group_691" data-name="Group 691" transform="translate(153.109 461.77)">
        <path id="Path_599" data-name="Path 599" d="M2.578-20.406H6.935v6.078h6.445v-6.078h4.37V-4.435h-4.37V-11.21H6.935v6.775H2.578Z" transform="translate(-2.578 20.406)" fill="#1a6f5d"/>
      </g>
      <g id="Group_692" data-name="Group 692" transform="translate(171.401 465.464)">
        <path id="Path_600" data-name="Path 600" d="M7.852-8.8a3.673,3.673,0,0,0-1.919.4A1.326,1.326,0,0,0,5.3-7.2a1.385,1.385,0,0,0,.519,1.15,2.264,2.264,0,0,0,1.427.4,2.639,2.639,0,0,0,1.932-.77,2.626,2.626,0,0,0,.791-1.944V-8.8Zm6.2-1.443v6.837H9.966V-5.183a5.147,5.147,0,0,1-1.841,1.59,5.781,5.781,0,0,1-2.49.489,4.683,4.683,0,0,1-3.2-1.076A3.582,3.582,0,0,1,1.2-7a3.39,3.39,0,0,1,1.533-3.081,9.139,9.139,0,0,1,4.836-.993h2.4v-.306a1.4,1.4,0,0,0-.765-1.32,5.072,5.072,0,0,0-2.373-.428,11.551,11.551,0,0,0-2.437.245,8.732,8.732,0,0,0-2.075.734v-2.922a26.055,26.055,0,0,1,2.607-.452,22.579,22.579,0,0,1,2.646-.157q3.433,0,4.953,1.284a5.184,5.184,0,0,1,1.53,4.158Z" transform="translate(-1.187 15.686)" fill="#1a6f5d"/>
      </g>
      <g id="Group_693" data-name="Group 693" transform="translate(187.291 465.445)">
        <path id="Path_601" data-name="Path 601" d="M12.122-15.02v2.911a15.651,15.651,0,0,0-2.515-.77,11.171,11.171,0,0,0-2.3-.257,4.255,4.255,0,0,0-1.724.269.886.886,0,0,0-.558.843.764.764,0,0,0,.428.7,4.251,4.251,0,0,0,1.53.367l.713.1a9.037,9.037,0,0,1,4.2,1.235,3.217,3.217,0,0,1,1.079,2.678,3.2,3.2,0,0,1-1.507,2.886,8.4,8.4,0,0,1-4.46.954,19.393,19.393,0,0,1-2.619-.184,22.057,22.057,0,0,1-2.749-.562V-6.765a11.791,11.791,0,0,0,2.477.846,12.6,12.6,0,0,0,2.607.269,4.057,4.057,0,0,0,1.788-.308,1.006,1.006,0,0,0,.6-.929A.822.822,0,0,0,8.7-7.645a4.526,4.526,0,0,0-1.646-.391L6.34-8.122a7.723,7.723,0,0,1-3.8-1.187,3.153,3.153,0,0,1-1.089-2.629,3.153,3.153,0,0,1,1.374-2.825,7.763,7.763,0,0,1,4.253-.929,17.268,17.268,0,0,1,2.347.171,27.307,27.307,0,0,1,2.7.5Z" transform="translate(-1.441 15.71)" fill="#1a6f5d"/>
      </g>
      <g id="Group_694" data-name="Group 694" transform="translate(200.91 465.464)">
        <path id="Path_602" data-name="Path 602" d="M7.852-8.8a3.673,3.673,0,0,0-1.919.4A1.326,1.326,0,0,0,5.3-7.2a1.385,1.385,0,0,0,.519,1.15,2.264,2.264,0,0,0,1.427.4,2.639,2.639,0,0,0,1.932-.77,2.626,2.626,0,0,0,.791-1.944V-8.8Zm6.2-1.443v6.837H9.966V-5.183a5.147,5.147,0,0,1-1.841,1.59,5.781,5.781,0,0,1-2.49.489,4.683,4.683,0,0,1-3.2-1.076A3.582,3.582,0,0,1,1.2-7a3.39,3.39,0,0,1,1.533-3.081,9.139,9.139,0,0,1,4.836-.993h2.4v-.306a1.4,1.4,0,0,0-.765-1.32,5.072,5.072,0,0,0-2.373-.428,11.551,11.551,0,0,0-2.437.245,8.732,8.732,0,0,0-2.075.734v-2.922a26.055,26.055,0,0,1,2.607-.452,22.579,22.579,0,0,1,2.646-.157q3.433,0,4.953,1.284a5.184,5.184,0,0,1,1.53,4.158Z" transform="translate(-1.187 15.686)" fill="#1a6f5d"/>
      </g>
      <g id="Group_695" data-name="Group 695" transform="translate(217.562 465.454)">
        <path id="Path_603" data-name="Path 603" d="M15.131-10.713v7.3H11.047V-9a19.335,19.335,0,0,0-.078-2.14,2.2,2.2,0,0,0-.259-.868,1.619,1.619,0,0,0-.648-.574,2,2,0,0,0-.92-.208,2.4,2.4,0,0,0-2,.927,4.006,4.006,0,0,0-.726,2.559v5.894H2.359V-15.4H6.418v1.748a6.409,6.409,0,0,1,1.945-1.541,5.186,5.186,0,0,1,2.282-.5,4.248,4.248,0,0,1,3.345,1.284,5.366,5.366,0,0,1,1.141,3.693Z" transform="translate(-2.359 15.699)" fill="#1a6f5d"/>
      </g>
      <g id="Group_696" data-name="Group 696" transform="translate(233.947 465.755)">
        <path id="Path_604" data-name="Path 604" d="M2.185-8v-7.313H6.269v1.2c0,.654-.007,1.468-.013,2.446s-.013,1.633-.013,1.957A19.429,19.429,0,0,0,6.32-7.621a2.307,2.307,0,0,0,.273.917,1.75,1.75,0,0,0,.664.587,2.054,2.054,0,0,0,.92.2,2.412,2.412,0,0,0,2-.917A4.02,4.02,0,0,0,10.9-9.395v-5.919h4.059V-3.328H10.9V-5.065A6.305,6.305,0,0,1,8.953-3.512a5.229,5.229,0,0,1-2.27.489A4.28,4.28,0,0,1,3.339-4.295,5.317,5.317,0,0,1,2.185-8Z" transform="translate(-2.17 15.314)" fill="#1a6f5d"/>
      </g>
      <g id="Group_697" data-name="Group 697" transform="translate(249.732 461.088)">
        <path id="Path_605" data-name="Path 605" d="M10.808-14.86v-6.418h4.085V-4.624H10.808V-6.361A5.256,5.256,0,0,1,8.966-4.808a5.366,5.366,0,0,1-2.347.489A4.833,4.833,0,0,1,2.769-6.08a6.705,6.705,0,0,1-1.5-4.525,6.727,6.727,0,0,1,1.5-4.539A4.834,4.834,0,0,1,6.62-16.905a5.2,5.2,0,0,1,2.334.5,5.534,5.534,0,0,1,1.854,1.541ZM8.137-7.094a2.357,2.357,0,0,0,1.984-.9,4.264,4.264,0,0,0,.687-2.617,4.218,4.218,0,0,0-.687-2.6,2.35,2.35,0,0,0-1.984-.9,2.342,2.342,0,0,0-1.984.9,4.2,4.2,0,0,0-.687,2.6A4.244,4.244,0,0,0,6.153-7.99a2.348,2.348,0,0,0,1.983.9Z" transform="translate(-1.257 21.278)" fill="#1a6f5d"/>
      </g>
      <g id="Group_698" data-name="Group 698" transform="translate(267.279 461.085)">
        <path id="Path_606" data-name="Path 606" d="M2.359-16.609H6.418V-4.625H2.359Zm0-4.672H6.418v3.131H2.359Z" transform="translate(-2.359 21.281)" fill="#1a6f5d"/>
      </g>
      <g id="Group_699" data-name="Group 699" transform="translate(275.244 465.454)">
        <path id="Path_607" data-name="Path 607" d="M15.131-10.713v7.3H11.047V-9a19.335,19.335,0,0,0-.078-2.14,2.2,2.2,0,0,0-.259-.868,1.619,1.619,0,0,0-.648-.574,2,2,0,0,0-.92-.208,2.4,2.4,0,0,0-2,.927,4.006,4.006,0,0,0-.726,2.559v5.894H2.359V-15.4H6.418v1.748a6.409,6.409,0,0,1,1.945-1.541,5.186,5.186,0,0,1,2.282-.5,4.248,4.248,0,0,1,3.345,1.284,5.366,5.366,0,0,1,1.141,3.693Z" transform="translate(-2.359 15.699)" fill="#1a6f5d"/>
      </g>
      <g id="Group_700" data-name="Group 700" transform="translate(0 482.988)">
        <path id="Path_608" data-name="Path 608" d="M10.4-21.284v2.519H8.158a1.9,1.9,0,0,0-1.206.294,1.3,1.3,0,0,0-.337,1.028v.831H10.09v2.739H6.613v9.245H2.554v-9.245H.531v-2.739H2.554v-.831a3.516,3.516,0,0,1,1.154-2.9A5.642,5.642,0,0,1,7.3-21.279Z" transform="translate(-0.531 21.296)" fill="#1a6f5d"/>
      </g>
      <g id="Group_701" data-name="Group 701" transform="translate(11.628 487.376)">
        <path id="Path_609" data-name="Path 609" d="M11.8-12.129a5.851,5.851,0,0,0-1.079-.342,4.69,4.69,0,0,0-1.051-.122,3.047,3.047,0,0,0-2.412.954,3.907,3.907,0,0,0-.84,2.7V-3.41H2.359V-15.394H6.418v1.966A5.017,5.017,0,0,1,8.207-15.14a5.075,5.075,0,0,1,2.438-.548q.221,0,.441.024c.166.009.4.031.7.061Z" transform="translate(-2.359 15.689)" fill="#1a6f5d"/>
      </g>
      <g id="Group_702" data-name="Group 702" transform="translate(22.114 487.365)">
        <path id="Path_610" data-name="Path 610" d="M8.2-12.952a2.451,2.451,0,0,0-2.061.917A4.219,4.219,0,0,0,5.43-9.393a4.219,4.219,0,0,0,.713,2.642,2.46,2.46,0,0,0,2.06.9,2.4,2.4,0,0,0,2.022-.9,4.239,4.239,0,0,0,.713-2.642,4.239,4.239,0,0,0-.713-2.642A2.393,2.393,0,0,0,8.2-12.952Zm0-2.739a7.35,7.35,0,0,1,5.122,1.676,5.913,5.913,0,0,1,1.841,4.622,5.934,5.934,0,0,1-1.841,4.622A7.374,7.374,0,0,1,8.2-3.108,7.433,7.433,0,0,1,3.058-4.771,5.9,5.9,0,0,1,1.2-9.393a5.881,5.881,0,0,1,1.854-4.622A7.409,7.409,0,0,1,8.2-15.691Z" transform="translate(-1.187 15.703)" fill="#1a6f5d"/>
      </g>
      <g id="Group_703" data-name="Group 703" transform="translate(39.023 487.369)">
        <path id="Path_611" data-name="Path 611" d="M14.128-13.4a5.365,5.365,0,0,1,1.826-1.7,4.737,4.737,0,0,1,2.334-.587,4.233,4.233,0,0,1,3.333,1.284,5.32,5.32,0,0,1,1.154,3.693v7.3H18.692V-9.942c.007-.1.013-.25.013-.44a3.245,3.245,0,0,0-.4-1.835,1.428,1.428,0,0,0-1.271-.574,2.057,2.057,0,0,0-1.789.9A4.482,4.482,0,0,0,14.6-9.294v5.883H10.51v-6.25a5.642,5.642,0,0,0-.363-2.556,1.418,1.418,0,0,0-1.3-.574,2.072,2.072,0,0,0-1.8.9A4.407,4.407,0,0,0,6.413-9.3v5.893H2.328V-15.4H6.413v1.748a5.164,5.164,0,0,1,1.712-1.529,4.51,4.51,0,0,1,2.139-.513,4.514,4.514,0,0,1,2.334.6,3.844,3.844,0,0,1,1.53,1.687Z" transform="translate(-2.328 15.699)" fill="#1a6f5d"/>
      </g>
      <g id="Group_704" data-name="Group 704" transform="translate(69.705 484.272)">
        <path id="Path_612" data-name="Path 612" d="M6.454-19.656v3.4h4.191v2.739H6.454v5.087A1.422,1.422,0,0,0,6.8-7.3,2.291,2.291,0,0,0,8.2-7.011h2.088v2.739H6.806a4.985,4.985,0,0,1-3.423-.939,4.3,4.3,0,0,1-1-3.218v-5.087H.375v-2.739H2.387v-3.4Z" transform="translate(-0.375 19.656)" fill="#1a6f5d"/>
      </g>
      <g id="Group_705" data-name="Group 705" transform="translate(82.457 483)">
        <path id="Path_613" data-name="Path 613" d="M15.131-11.926v7.3H11.047v-5.564a19.642,19.642,0,0,0-.078-2.165,2.2,2.2,0,0,0-.259-.868,1.619,1.619,0,0,0-.648-.574A2,2,0,0,0,9.141-14a2.4,2.4,0,0,0-2,.927,4.006,4.006,0,0,0-.726,2.559v5.894H2.359V-21.281H6.418v6.418A6.409,6.409,0,0,1,8.363-16.4a5.186,5.186,0,0,1,2.282-.5,4.248,4.248,0,0,1,3.345,1.284,5.366,5.366,0,0,1,1.141,3.7Z" transform="translate(-2.359 21.281)" fill="#1a6f5d"/>
      </g>
      <g id="Group_706" data-name="Group 706" transform="translate(98.027 487.366)">
        <path id="Path_614" data-name="Path 614" d="M14.841-9.439v1.1h-9.5A2.791,2.791,0,0,0,6.374-6.326a4,4,0,0,0,2.476.672,10.1,10.1,0,0,0,2.619-.355,14.339,14.339,0,0,0,2.763-1.083v2.944a17.924,17.924,0,0,1-2.879.77,15.814,15.814,0,0,1-2.879.27A7.976,7.976,0,0,1,3.106-4.758,5.8,5.8,0,0,1,1.2-9.393,5.853,5.853,0,0,1,3.078-14a7.446,7.446,0,0,1,5.161-1.687,6.689,6.689,0,0,1,4.8,1.712,5.95,5.95,0,0,1,1.8,4.539Zm-4.175-1.274a2.346,2.346,0,0,0-.674-1.748,2.4,2.4,0,0,0-1.763-.672,2.874,2.874,0,0,0-1.919.626,2.807,2.807,0,0,0-.92,1.8Z" transform="translate(-1.187 15.702)" fill="#1a6f5d"/>
      </g>
      <g id="Group_707" data-name="Group 707" transform="translate(123.03 483.685)">
        <path id="Path_615" data-name="Path 615" d="M2.578-20.406H7.453L13.613-9.449V-20.406h4.136V-4.435H12.873L6.715-15.392V-4.435H2.578Z" transform="translate(-2.578 20.406)" fill="#1a6f5d"/>
      </g>
      <g id="Group_708" data-name="Group 708" transform="translate(141.322 487.365)">
        <path id="Path_616" data-name="Path 616" d="M8.2-12.952a2.451,2.451,0,0,0-2.061.917A4.219,4.219,0,0,0,5.43-9.393a4.219,4.219,0,0,0,.713,2.642,2.46,2.46,0,0,0,2.06.9,2.4,2.4,0,0,0,2.022-.9,4.239,4.239,0,0,0,.713-2.642,4.239,4.239,0,0,0-.713-2.642A2.393,2.393,0,0,0,8.2-12.952Zm0-2.739a7.35,7.35,0,0,1,5.122,1.676,5.913,5.913,0,0,1,1.841,4.622,5.934,5.934,0,0,1-1.841,4.622A7.374,7.374,0,0,1,8.2-3.108,7.433,7.433,0,0,1,3.058-4.771,5.9,5.9,0,0,1,1.2-9.393a5.881,5.881,0,0,1,1.854-4.622A7.409,7.409,0,0,1,8.2-15.691Z" transform="translate(-1.187 15.703)" fill="#1a6f5d"/>
      </g>
      <g id="Group_709" data-name="Group 709" transform="translate(158.103 487.67)">
        <path id="Path_617" data-name="Path 617" d="M2.185-8v-7.313H6.269v1.2c0,.654-.007,1.468-.013,2.446s-.013,1.633-.013,1.957A19.429,19.429,0,0,0,6.32-7.621a2.307,2.307,0,0,0,.273.917,1.75,1.75,0,0,0,.664.587,2.054,2.054,0,0,0,.92.2,2.412,2.412,0,0,0,2-.917A4.02,4.02,0,0,0,10.9-9.395v-5.919h4.059V-3.328H10.9V-5.065A6.305,6.305,0,0,1,8.953-3.512a5.229,5.229,0,0,1-2.27.489A4.28,4.28,0,0,1,3.339-4.295,5.317,5.317,0,0,1,2.185-8Z" transform="translate(-2.17 15.314)" fill="#1a6f5d"/>
      </g>
      <g id="Group_710" data-name="Group 710" transform="translate(174.802 487.369)">
        <path id="Path_618" data-name="Path 618" d="M15.131-10.713v7.3H11.047V-9a19.335,19.335,0,0,0-.078-2.14,2.2,2.2,0,0,0-.259-.868,1.619,1.619,0,0,0-.648-.574,2,2,0,0,0-.92-.208,2.4,2.4,0,0,0-2,.927,4.006,4.006,0,0,0-.726,2.559v5.894H2.359V-15.4H6.418v1.748a6.409,6.409,0,0,1,1.945-1.541,5.186,5.186,0,0,1,2.282-.5,4.248,4.248,0,0,1,3.345,1.284,5.366,5.366,0,0,1,1.141,3.693Z" transform="translate(-2.359 15.699)" fill="#1a6f5d"/>
      </g>
      <g id="Group_711" data-name="Group 711" transform="translate(199.613 483.669)">
        <path id="Path_619" data-name="Path 619" d="M2.578-20.41H9.826a7.868,7.868,0,0,1,4.953,1.357A4.587,4.587,0,0,1,16.517-15.2a4.614,4.614,0,0,1-1.738,3.865A7.868,7.868,0,0,1,9.826-9.979H6.935v5.54H2.578Zm4.357,2.984v4.461H9.36a2.937,2.937,0,0,0,1.958-.587,2.034,2.034,0,0,0,.7-1.651,2.017,2.017,0,0,0-.7-1.651,2.986,2.986,0,0,0-1.958-.574Z" transform="translate(-2.578 20.426)" fill="#1a6f5d"/>
      </g>
      <g id="Group_712" data-name="Group 712" transform="translate(216.463 487.376)">
        <path id="Path_620" data-name="Path 620" d="M11.8-12.129a5.851,5.851,0,0,0-1.079-.342,4.69,4.69,0,0,0-1.051-.122,3.047,3.047,0,0,0-2.412.954,3.907,3.907,0,0,0-.84,2.7V-3.41H2.359V-15.394H6.418v1.966A5.017,5.017,0,0,1,8.207-15.14a5.075,5.075,0,0,1,2.438-.548q.221,0,.441.024c.166.009.4.031.7.061Z" transform="translate(-2.359 15.689)" fill="#1a6f5d"/>
      </g>
      <g id="Group_713" data-name="Group 713" transform="translate(226.946 487.365)">
        <path id="Path_621" data-name="Path 621" d="M8.2-12.952a2.451,2.451,0,0,0-2.061.917A4.219,4.219,0,0,0,5.43-9.393a4.219,4.219,0,0,0,.713,2.642,2.46,2.46,0,0,0,2.06.9,2.4,2.4,0,0,0,2.022-.9,4.239,4.239,0,0,0,.713-2.642,4.239,4.239,0,0,0-.713-2.642A2.393,2.393,0,0,0,8.2-12.952Zm0-2.739a7.35,7.35,0,0,1,5.122,1.676,5.913,5.913,0,0,1,1.841,4.622,5.934,5.934,0,0,1-1.841,4.622A7.374,7.374,0,0,1,8.2-3.108,7.433,7.433,0,0,1,3.058-4.771,5.9,5.9,0,0,1,1.2-9.393a5.881,5.881,0,0,1,1.854-4.622A7.409,7.409,0,0,1,8.2-15.691Z" transform="translate(-1.187 15.703)" fill="#1a6f5d"/>
      </g>
      <g id="Group_714" data-name="Group 714" transform="translate(241.149 483)">
        <path id="Path_622" data-name="Path 622" d="M1.8-16.609H5.857V-4.845A5.086,5.086,0,0,1,4.626-1.166,4.7,4.7,0,0,1,1.072.108H-.937V-2.412h.713A2.058,2.058,0,0,0,1.358-2.9,3.051,3.051,0,0,0,1.8-4.845Zm0-4.672H5.857v3.131H1.8Z" transform="translate(0.937 21.281)" fill="#1a6f5d"/>
      </g>
      <g id="Group_715" data-name="Group 715" transform="translate(250.876 487.366)">
        <path id="Path_623" data-name="Path 623" d="M14.841-9.439v1.1h-9.5A2.791,2.791,0,0,0,6.374-6.326a4,4,0,0,0,2.476.672,10.1,10.1,0,0,0,2.619-.355,14.339,14.339,0,0,0,2.763-1.083v2.944a17.924,17.924,0,0,1-2.879.77,15.814,15.814,0,0,1-2.879.27A7.976,7.976,0,0,1,3.106-4.758,5.8,5.8,0,0,1,1.2-9.393,5.853,5.853,0,0,1,3.078-14a7.446,7.446,0,0,1,5.161-1.687,6.689,6.689,0,0,1,4.8,1.712,5.95,5.95,0,0,1,1.8,4.539Zm-4.175-1.274a2.346,2.346,0,0,0-.674-1.748,2.4,2.4,0,0,0-1.763-.672,2.874,2.874,0,0,0-1.919.626,2.807,2.807,0,0,0-.92,1.8Z" transform="translate(-1.187 15.702)" fill="#1a6f5d"/>
      </g>
      <g id="Group_716" data-name="Group 716" transform="translate(266.637 487.366)">
        <path id="Path_624" data-name="Path 624" d="M12.417-15.018V-11.9a6.469,6.469,0,0,0-1.66-.8,5.805,5.805,0,0,0-1.724-.257,3.634,3.634,0,0,0-2.656.939,3.5,3.5,0,0,0-.947,2.62,3.514,3.514,0,0,0,.944,2.614,3.654,3.654,0,0,0,2.656.93,6.249,6.249,0,0,0,1.8-.257,5.434,5.434,0,0,0,1.582-.8V-3.77a11.513,11.513,0,0,1-1.932.489,11.455,11.455,0,0,1-1.971.171A8.019,8.019,0,0,1,3.132-4.77,5.757,5.757,0,0,1,1.2-9.392,5.779,5.779,0,0,1,3.13-14.027,8.035,8.035,0,0,1,8.511-15.69a11.455,11.455,0,0,1,1.971.171,11.366,11.366,0,0,1,1.932.5Z" transform="translate(-1.188 15.703)" fill="#1a6f5d"/>
      </g>
      <g id="Group_717" data-name="Group 717" transform="translate(279.733 484.272)">
        <path id="Path_625" data-name="Path 625" d="M6.454-19.656v3.4h4.191v2.739H6.454v5.087A1.422,1.422,0,0,0,6.8-7.3,2.291,2.291,0,0,0,8.2-7.011h2.088v2.739H6.806a4.985,4.985,0,0,1-3.423-.939,4.3,4.3,0,0,1-1-3.218v-5.087H.375v-2.739H2.387v-3.4Z" transform="translate(-0.375 19.656)" fill="#1a6f5d"/>
      </g>
    </g>
  </g>
</svg>
