<svg xmlns="http://www.w3.org/2000/svg" xmlns:xlink="http://www.w3.org/1999/xlink" width="478" height="481" viewBox="0 0 478 481">
  <defs>
    <clipPath id="clip-path">
      <rect id="Rectangle_147" data-name="Rectangle 147" width="478" height="481" transform="translate(4157.395 1590)" fill="#fff" stroke="#707070" stroke-width="1"/>
    </clipPath>
  </defs>
  <g id="Mask_Group_6" data-name="Mask Group 6" transform="translate(-4157.395 -1590)" clip-path="url(#clip-path)">
    <g id="noun-pediatrics-1191436_1_" data-name="noun-pediatrics-1191436 (1)" transform="translate(4156.551 1608.911)">
      <path id="Path_834" data-name="Path 834" d="M168.8,277.525c0,10.191,11.589,18.177,26.384,18.177a36.938,36.938,0,0,0,12.073-1.973,20.819,20.819,0,0,0,18.44-.028,36.858,36.858,0,0,0,12.155,2c14.778,0,26.37-7.982,26.37-18.176s-11.589-18.18-26.37-18.18a38.958,38.958,0,0,0-7.791.791,20.985,20.985,0,0,0-27.21-.018,38.672,38.672,0,0,0-7.665-.77c-14.8-.007-26.388,7.989-26.388,18.18Zm37.127-2.99c0-.095.022-.186.032-.281.032-.229.068-.457.108-.682.022-.095.032-.186.057-.271a8.421,8.421,0,0,1,.222-.848c0-.014.011-.032.014-.046.093-.292.2-.573.319-.851.032-.084.072-.172.108-.253.086-.2.19-.4.287-.584.047-.091.093-.176.14-.264.122-.218.258-.429.395-.63.025-.046.057-.095.086-.141.165-.236.341-.464.524-.686.072-.091.151-.172.222-.257.122-.141.247-.278.377-.415.093-.091.179-.183.276-.267.14-.13.276-.257.427-.38.108-.1.222-.19.334-.278.187-.151.38-.292.57-.419.118-.081.237-.155.355-.232.14-.084.273-.165.412-.243.122-.077.258-.141.387-.208.154-.081.308-.151.466-.222a11.5,11.5,0,0,1,1.295-.492c.1-.032.194-.046.287-.077.233-.06.466-.127.7-.176.179-.035.359-.056.545-.081.165-.021.323-.056.488-.07a10.693,10.693,0,0,1,1.069-.056A10.483,10.483,0,0,1,227,275.489a10.05,10.05,0,0,1-.079,1.2c-.014.137-.039.264-.061.4a7.639,7.639,0,0,1-.151.767c-.036.151-.079.3-.118.45-.061.229-.14.454-.222.682-.05.148-.108.292-.165.44-.108.253-.226.492-.348.735-.047.091-.083.186-.133.278,0,.011,0,.011-.011.011-.011.025-.022.039-.036.067a9.783,9.783,0,0,1-.534.837c-.057.084-.122.162-.187.246-.176.222-.348.45-.542.672,0,.011-.014.014-.022.025s-.047.039-.061.067c-.2.222-.412.44-.631.647-.093.084-.179.162-.273.243-.176.151-.355.306-.542.443-.108.084-.215.162-.33.243a6.951,6.951,0,0,1-.638.4c-.086.06-.169.106-.251.155a10.849,10.849,0,0,1-1.933.848.044.044,0,0,1-.032.014c-.3.1-.6.172-.9.246-.057.011-.115.032-.165.039a7.02,7.02,0,0,1-.864.137c-.079.011-.151.025-.226.035-.359.035-.735.06-1.1.06a10.483,10.483,0,0,1-10.567-10.363c.007-.338.025-.661.054-.974Z" transform="translate(-78.567 -59.552)" fill="#1a6f5d"/>
      <path id="Path_835" data-name="Path 835" d="M155.816,235a5.061,5.061,0,0,0,5.108-5.009,13.4,13.4,0,0,1,26.794,0,5.109,5.109,0,0,0,10.215,0,23.611,23.611,0,0,0-47.213,0,5.045,5.045,0,0,0,5.1,5.009Z" transform="translate(-77.089 -54.751)" fill="#1a6f5d"/>
      <path id="Path_836" data-name="Path 836" d="M244.5,235a5.053,5.053,0,0,0,5.1-5.009,13.407,13.407,0,0,1,26.808,0,5.1,5.1,0,0,0,10.208,0,23.617,23.617,0,0,0-47.224,0A5.064,5.064,0,0,0,244.5,235Z" transform="translate(-84.34 -54.751)" fill="#1a6f5d"/>
      <path id="Path_837" data-name="Path 837" d="M552.438,79.3a25.7,25.7,0,0,0-21.062-24.979,21.268,21.268,0,1,0-20.793,25.454,21.277,21.277,0,0,0,20.485-15.221A15.536,15.536,0,0,1,542.226,79.3v62.045c-11.965,31.751-39.315,52.213-69.889,52.213s-57.934-20.473-69.9-52.242V79.3A15.538,15.538,0,0,1,413.6,64.557a21.358,21.358,0,0,0,41.811-5.7,21.352,21.352,0,0,0-42.11-4.534A25.7,25.7,0,0,0,392.229,79.3v101.1a76.74,76.74,0,0,0,5.979,29.736,14.752,14.752,0,0,0-1.686,15.83c12.834,25.637,38.07,37.915,60.5,41.681v22.668a15.02,15.02,0,0,0,10.208,14.145v85.267c0,14.018-11.632,25.422-25.932,25.422s-25.921-11.4-25.921-25.422V326.576c0-19.548-16.212-35.431-36.123-35.431-19.932,0-36.137,15.886-36.137,35.431V438.468c0,14.014-11.625,25.422-25.921,25.422H228.833a22.435,22.435,0,0,1-22.3-18.852c1.675.032,3.346.039,5.014.039,18.816,0,39.121-1.706,55.56-5.255,16.445-3.567,29.031-8.991,32.411-16.449,33.156-73.165,5.5-132.767-10.3-157.874a98.306,98.306,0,0,0,24.147-64.49c0-55.056-45.678-99.852-101.813-99.852s-101.822,44.8-101.822,99.852a98.276,98.276,0,0,0,24.154,64.49c-15.8,25.1-43.461,84.707-10.3,157.874,5.847,12.925,39.322,19.745,72.64,21.332,1.51,16.343,15.549,29.194,32.6,29.194h88.364c19.932,0,36.127-15.9,36.127-35.431V326.575c0-14.014,11.632-25.422,25.932-25.422s25.915,11.408,25.915,25.422v63.158c0,19.537,16.208,35.431,36.127,35.431s36.137-15.9,36.137-35.431V304.466a15.045,15.045,0,0,0,10.2-14.145V267.653c22.436-3.768,47.658-16.04,60.5-41.682a14.752,14.752,0,0,0-1.682-15.83,76.878,76.878,0,0,0,5.976-29.736l.007-101.1Zm-432.5,121.708c0-49.231,40.592-89.336,90.675-89.832,3.562,1.442,18.039,7.964,18.039,18.584,0,5.78-4.953,9.712-9.867,11.046-4.659,1.259-10.836.661-14.193-4.837a5.165,5.165,0,0,0-7.005-1.71,4.951,4.951,0,0,0-1.754,6.87A21.586,21.586,0,0,0,214.615,151.4a26.4,26.4,0,0,0,6.89-.943c10.381-2.825,17.353-11.133,17.353-20.694,0-6.687-3-12.115-6.962-16.361,40.75,9.1,71.259,44.925,71.259,87.605,0,49.544-41.091,89.836-91.608,89.836s-91.611-40.292-91.611-89.836ZM196.089,434.7c-28.971-1.393-49.609-6.515-58.512-11.419-2.514-1.368-4.093-2.73-4.659-3.986-30.244-66.714-6.775-121.429,8.228-146.239a100.979,100.979,0,0,0,7.841,6.656c-.072.2-.133.415-.2.616a76.516,76.516,0,0,0-4.093,24.8c0,21.508,9.1,42,24.462,55.594.122.113.222.222.348.317a.05.05,0,0,1-.011.035,32.292,32.292,0,0,0-.592,6.075,31.444,31.444,0,0,0,12.155,24.737,32.587,32.587,0,0,0,15.036,6.536Zm5.1-45.874a21.672,21.672,0,1,1,22.092-21.666c0,.64-.032,1.27-.093,1.886v.049a21.957,21.957,0,0,1-22,19.731Zm5.122,9.611a32.1,32.1,0,0,0,26.564-25.113c.786-.281,1.564-.595,2.339-.908l.642-.267c.56-.232,1.115-.475,1.664-.721.247-.113.484-.232.725-.341.531-.246,1.065-.514,1.593-.767.226-.113.438-.222.664-.341.581-.3,1.162-.616,1.743-.929l.43-.243c1.471-.841,2.909-1.731,4.318-2.684.118-.081.24-.172.377-.264.56-.394,1.126-.777,1.675-1.189.165-.12.323-.243.488-.359.534-.387,1.044-.788,1.564-1.2.14-.113.3-.232.448-.352.577-.464,1.148-.939,1.7-1.418a2.163,2.163,0,0,0,.215-.183c1.295-1.129,2.554-2.3,3.759-3.521.1-.106.19-.2.294-.3.495-.514.972-1.02,1.449-1.537.129-.137.269-.292.395-.443q.673-.733,1.327-1.5c.122-.137.237-.281.359-.429.488-.57.961-1.15,1.431-1.748.05-.067.115-.137.165-.218,1.065-1.347,2.073-2.737,3.045-4.172.1-.151.194-.3.3-.45.366-.559.725-1.129,1.083-1.689q.178-.3.366-.6c.323-.535.653-1.09.968-1.639.115-.19.222-.383.334-.591.344-.616.685-1.242,1.019-1.864.061-.13.133-.257.194-.373.4-.767.786-1.555,1.166-2.339.025-.067.061-.12.083-.183.334-.7.653-1.407.968-2.132.093-.232.194-.464.283-.7.237-.545.466-1.115.7-1.678.1-.271.2-.535.308-.813.215-.538.405-1.09.6-1.639.1-.271.194-.538.287-.813.215-.609.405-1.224.6-1.85.061-.2.133-.4.194-.6.24-.823.488-1.65.7-2.48.05-.183.093-.373.143-.549q.248-.976.477-1.952c.072-.3.133-.609.2-.922.1-.475.194-.95.3-1.421.194-1.01.38-2.033.542-3.06a3.144,3.144,0,0,0,.05-.313c.176-1.129.319-2.269.438-3.423.032-.317.061-.626.093-.95.083-.869.143-1.748.194-2.631.021-.324.039-.654.061-1,.05-1.154.083-2.318.083-3.5a76.319,76.319,0,0,0-4.29-25.412q4.089-3.134,7.841-6.656c15.011,24.811,38.479,79.508,8.232,146.248a4.944,4.944,0,0,1-.391.665,1.792,1.792,0,0,0-.154.19c-.133.155-.269.324-.427.5-.072.07-.151.141-.222.222-.165.155-.348.317-.542.478-.093.084-.187.148-.276.222-.215.165-.448.338-.7.51-.1.077-.194.137-.3.211-.273.183-.581.369-.9.549a1.721,1.721,0,0,1-.251.155c-.4.232-.818.457-1.27.689l-.061.035c-.986.514-2.1,1.01-3.336,1.523,0,0-.022,0-.022,0-.592.232-1.212.475-1.847.718-.1.039-.194.07-.287.113-.57.2-1.166.408-1.765.619-.133.039-.269.081-.4.127-.6.2-1.22.394-1.858.591-.133.039-.269.084-.413.12-.674.208-1.377.408-2.091.605-.1.035-.2.06-.308.091q-3.82,1.061-8.361,2.023c-.022,0-.039.011-.061.011-.951.2-1.937.4-2.938.591-.05.011-.1.021-.165.035-.194.039-.4.081-.606.106-.581.113-1.162.229-1.754.317-.448.084-.911.162-1.377.243-.581.106-1.176.208-1.775.3-.768.127-1.542.246-2.339.369-.319.039-.631.091-.961.127-.685.106-1.374.2-2.073.3-.344.039-.7.091-1.044.13-.7.091-1.413.183-2.131.271-.348.039-.7.081-1.044.116-.757.091-1.51.176-2.278.257-.323.035-.653.077-.993.106-.857.091-1.722.176-2.611.264-.247.021-.484.049-.739.07-2.285.2-4.652.394-7.07.538-.276.021-.56.039-.839.049-.911.06-1.836.113-2.765.162-.405.032-.829.039-1.234.07q-1.243.058-2.489.113c-.459.014-.911.025-1.377.049-.818.025-1.646.049-2.478.081-.459.011-.929.014-1.4.025-.875.035-1.775.039-2.672.067-.423,0-.839.011-1.259.025-1.316,0-2.654.014-3.989.014-1.779,0-3.537-.014-5.255-.039l.014-36.6ZM542.234,180.4a67.075,67.075,0,0,1-4.555,24.3,15.4,15.4,0,0,0-17.03,8.038c-9.677,19.326-32.07,26.182-48.31,26.182s-38.637-6.86-48.311-26.182A15.4,15.4,0,0,0,406.99,204.7a66.926,66.926,0,0,1-4.555-24.3V163.843c15.936,24.66,41.661,39.729,69.9,39.729,28.214,0,53.957-15.06,69.889-39.716l0,16.547Z" transform="translate(-82.778 -37.953)" fill="#1a6f5d"/>
      <path id="Path_838" data-name="Path 838" d="M222.772,401.93a14.591,14.591,0,1,1-14.588-14.307,14.451,14.451,0,0,1,14.588,14.307" transform="translate(-80.595 -72.731)" fill="#1a6f5d"/>
      <g id="Group_901" data-name="Group 901" transform="translate(0.789 527.055)">
        <path id="Path_839" data-name="Path 839" d="M17.345-3.08a12.368,12.368,0,0,1-2.783,1.013,12.747,12.747,0,0,1-3.013.352A10.413,10.413,0,0,1,4.131-4.276a9.09,9.09,0,0,1-2.74-6.965,9.07,9.07,0,0,1,2.74-6.965,10.389,10.389,0,0,1,7.418-2.575,12.746,12.746,0,0,1,3.013.352,12.366,12.366,0,0,1,2.783,1.013v3.8a11.114,11.114,0,0,0-2.654-1.309,8.91,8.91,0,0,0-2.755-.422,5.2,5.2,0,0,0-4.06,1.632A6.387,6.387,0,0,0,6.4-11.241,6.411,6.411,0,0,0,7.876-6.767a5.216,5.216,0,0,0,4.06,1.618,9.119,9.119,0,0,0,2.755-.408,10.8,10.8,0,0,0,2.654-1.323Z" transform="translate(-1.391 20.781)" fill="#1a6f5d"/>
      </g>
      <g id="Group_902" data-name="Group 902" transform="translate(20.545 531.643)">
        <path id="Path_840" data-name="Path 840" d="M12.8-11.593a6.3,6.3,0,0,0-1.191-.394,5,5,0,0,0-1.162-.141,3.3,3.3,0,0,0-2.669,1.1,4.623,4.623,0,0,0-.933,3.11v6.36H2.359V-15.35H6.85v2.265a5.654,5.654,0,0,1,1.98-1.97,5.437,5.437,0,0,1,2.7-.633,4.874,4.874,0,0,1,.488.028c.179.011.438.035.775.07Z" transform="translate(-2.359 15.687)" fill="#1a6f5d"/>
      </g>
      <g id="Group_903" data-name="Group 903" transform="translate(32.166 531.642)">
        <path id="Path_841" data-name="Path 841" d="M16.3-8.5v1.266H5.78A3.257,3.257,0,0,0,6.928-4.909a4.3,4.3,0,0,0,2.74.774,10.772,10.772,0,0,0,2.9-.408A15.509,15.509,0,0,0,15.623-5.8V-2.4a19.23,19.23,0,0,1-3.185.886,16.847,16.847,0,0,1-3.185.31,8.592,8.592,0,0,1-5.94-1.9A6.807,6.807,0,0,1,1.2-8.441a6.875,6.875,0,0,1,2.08-5.3,8.033,8.033,0,0,1,5.71-1.942,7.231,7.231,0,0,1,5.308,1.97A7,7,0,0,1,16.3-8.5Zm-4.62-1.463a2.76,2.76,0,0,0-.746-2.012,2.6,2.6,0,0,0-1.951-.774,3.1,3.1,0,0,0-2.123.718A3.277,3.277,0,0,0,5.838-9.961Z" transform="translate(-1.203 15.688)" fill="#1a6f5d"/>
      </g>
      <g id="Group_904" data-name="Group 904" transform="translate(49.602 531.642)">
        <path id="Path_842" data-name="Path 842" d="M8.563-7.766A3.933,3.933,0,0,0,6.44-7.3a1.543,1.543,0,0,0-.7,1.379A1.622,1.622,0,0,0,6.311-4.6a2.434,2.434,0,0,0,1.578.464,2.861,2.861,0,0,0,2.138-.886A3.086,3.086,0,0,0,10.9-7.259v-.507Zm6.858-1.66V-1.56H10.9V-3.6A5.767,5.767,0,0,1,8.865-1.771a6.184,6.184,0,0,1-2.755.563A5.055,5.055,0,0,1,2.566-2.447,4.2,4.2,0,0,1,1.2-5.7,3.955,3.955,0,0,1,2.9-9.243a9.824,9.824,0,0,1,5.352-1.14H10.9v-.352a1.623,1.623,0,0,0-.846-1.52,5.422,5.422,0,0,0-2.626-.492,12.309,12.309,0,0,0-2.7.281,9.42,9.42,0,0,0-2.3.844v-3.363A27.825,27.825,0,0,1,5.321-15.5a24.037,24.037,0,0,1,2.927-.183q3.8,0,5.481,1.477t1.693,4.784Z" transform="translate(-1.203 15.688)" fill="#1a6f5d"/>
      </g>
      <g id="Group_905" data-name="Group 905" transform="translate(66.191 528.069)">
        <path id="Path_843" data-name="Path 843" d="M7.1-19.656v3.912h4.634v3.152H7.1v5.854a1.68,1.68,0,0,0,.387,1.295,2.454,2.454,0,0,0,1.535.338h2.31v3.152H7.491A5.347,5.347,0,0,1,3.7-3.038a5.081,5.081,0,0,1-1.1-3.7v-5.854H.375v-3.152H2.6v-3.912Z" transform="translate(-0.375 19.656)" fill="#1a6f5d"/>
      </g>
      <g id="Group_906" data-name="Group 906" transform="translate(79.24 531.642)">
        <path id="Path_844" data-name="Path 844" d="M16.3-8.5v1.266H5.78A3.257,3.257,0,0,0,6.928-4.909a4.3,4.3,0,0,0,2.74.774,10.772,10.772,0,0,0,2.9-.408A15.509,15.509,0,0,0,15.623-5.8V-2.4a19.23,19.23,0,0,1-3.185.886,16.847,16.847,0,0,1-3.185.31,8.592,8.592,0,0,1-5.94-1.9A6.807,6.807,0,0,1,1.2-8.441a6.875,6.875,0,0,1,2.08-5.3,8.033,8.033,0,0,1,5.71-1.942,7.231,7.231,0,0,1,5.308,1.97A7,7,0,0,1,16.3-8.5Zm-4.62-1.463a2.76,2.76,0,0,0-.746-2.012,2.6,2.6,0,0,0-1.951-.774,3.1,3.1,0,0,0-2.123.718A3.277,3.277,0,0,0,5.838-9.961Z" transform="translate(-1.203 15.688)" fill="#1a6f5d"/>
      </g>
      <g id="Group_907" data-name="Group 907" transform="translate(96.736 526.605)">
        <path id="Path_845" data-name="Path 845" d="M11.826-13.894v-7.387h4.519V-2.117H11.826v-2A5.881,5.881,0,0,1,9.788-2.328a5.744,5.744,0,0,1-2.6.563A5.266,5.266,0,0,1,2.93-3.791,7.919,7.919,0,0,1,1.266-9a7.945,7.945,0,0,1,1.664-5.22,5.266,5.266,0,0,1,4.261-2.026,5.573,5.573,0,0,1,2.583.577,6.187,6.187,0,0,1,2.052,1.773ZM8.87-4.959a2.567,2.567,0,0,0,2.2-1.027A5.058,5.058,0,0,0,11.825-9a5,5,0,0,0-.76-3,2.56,2.56,0,0,0-2.2-1.041,2.551,2.551,0,0,0-2.2,1.041,4.978,4.978,0,0,0-.76,3,5.033,5.033,0,0,0,.76,3.011,2.558,2.558,0,0,0,2.2,1.027Z" transform="translate(-1.266 21.281)" fill="#1a6f5d"/>
      </g>
      <g id="Group_908" data-name="Group 908" transform="translate(125.093 526.605)">
        <path id="Path_846" data-name="Path 846" d="M9.834-4.959a2.58,2.58,0,0,0,2.209-1.027A5.058,5.058,0,0,0,12.8-9a5,5,0,0,0-.76-3,2.573,2.573,0,0,0-2.209-1.041A2.6,2.6,0,0,0,7.61-11.994a5.022,5.022,0,0,0-.76,3,5.007,5.007,0,0,0,.76,3A2.6,2.6,0,0,0,9.834-4.959ZM6.85-13.894A6.331,6.331,0,0,1,8.9-15.667a5.654,5.654,0,0,1,2.6-.577,5.289,5.289,0,0,1,4.275,2.026A7.965,7.965,0,0,1,17.438-9a7.938,7.938,0,0,1-1.664,5.206A5.289,5.289,0,0,1,11.5-1.765a5.787,5.787,0,0,1-2.6-.563A6.176,6.176,0,0,1,6.85-4.115v2H2.359V-21.281H6.85Z" transform="translate(-2.359 21.281)" fill="#1a6f5d"/>
      </g>
      <g id="Group_909" data-name="Group 909" transform="translate(141.65 531.981)">
        <path id="Path_847" data-name="Path 847" d="M.344-15.312H4.834L8.622-5.954l3.214-9.358h4.491L10.415-.214a7.354,7.354,0,0,1-2.08,3.208,4.948,4.948,0,0,1-3.128.929H2.6v-2.9H4A2.949,2.949,0,0,0,5.667.659,2.3,2.3,0,0,0,6.484-.608l.129-.38Z" transform="translate(-0.344 15.312)" fill="#1a6f5d"/>
      </g>
      <g id="Group_910" data-name="Group 910" transform="translate(169.412 527.393)">
        <path id="Path_848" data-name="Path 848" d="M2.578-20.406H7.4V-2.03H2.578Z" transform="translate(-2.578 20.406)" fill="#1a6f5d"/>
      </g>
      <g id="Group_911" data-name="Group 911" transform="translate(177.712 531.643)">
        <path id="Path_849" data-name="Path 849" d="M13.614-14.913v3.588a7.043,7.043,0,0,0-1.836-.915,6.2,6.2,0,0,0-1.908-.3,3.928,3.928,0,0,0-2.941,1.083A4.119,4.119,0,0,0,5.881-8.441,4.142,4.142,0,0,0,6.928-5.43,3.948,3.948,0,0,0,9.869-4.36a6.668,6.668,0,0,0,1.994-.3,5.927,5.927,0,0,0,1.75-.915v3.6a12.342,12.342,0,0,1-2.138.563,12.2,12.2,0,0,1-2.181.2A8.64,8.64,0,0,1,3.341-3.122,6.757,6.757,0,0,1,1.2-8.441a6.782,6.782,0,0,1,2.138-5.333A8.657,8.657,0,0,1,9.3-15.687a12.2,12.2,0,0,1,2.181.2,12.19,12.19,0,0,1,2.138.577Z" transform="translate(-1.203 15.687)" fill="#1a6f5d"/>
      </g>
      <g id="Group_912" data-name="Group 912" transform="translate(192.956 531.642)">
        <path id="Path_850" data-name="Path 850" d="M8.951-12.536a2.668,2.668,0,0,0-2.281,1.055A5,5,0,0,0,5.88-8.441,5,5,0,0,0,6.669-5.4,2.676,2.676,0,0,0,8.951-4.361,2.613,2.613,0,0,0,11.189-5.4a5.027,5.027,0,0,0,.789-3.039,5.027,5.027,0,0,0-.789-3.039A2.606,2.606,0,0,0,8.951-12.536Zm0-3.152a7.928,7.928,0,0,1,5.667,1.928,6.954,6.954,0,0,1,2.037,5.319,6.975,6.975,0,0,1-2.037,5.319A7.953,7.953,0,0,1,8.951-1.209a8.016,8.016,0,0,1-5.7-1.914A6.932,6.932,0,0,1,1.2-8.442,6.911,6.911,0,0,1,3.255-13.76,7.99,7.99,0,0,1,8.951-15.688Z" transform="translate(-1.203 15.688)" fill="#1a6f5d"/>
      </g>
      <g id="Group_913" data-name="Group 913" transform="translate(211.679 531.643)">
        <path id="Path_851" data-name="Path 851" d="M16.491-9.961v8.4H11.972v-6.43a23.129,23.129,0,0,0-.086-2.462,2.609,2.609,0,0,0-.287-1,1.817,1.817,0,0,0-.717-.661,2.14,2.14,0,0,0-1.019-.239,2.613,2.613,0,0,0-2.209,1.069,4.745,4.745,0,0,0-.8,2.941V-1.56H2.359V-15.349H6.85v2.012A7.146,7.146,0,0,1,9-15.11a5.554,5.554,0,0,1,2.525-.577,4.6,4.6,0,0,1,3.7,1.477A6.346,6.346,0,0,1,16.491-9.96Z" transform="translate(-2.359 15.687)" fill="#1a6f5d"/>
      </g>
      <g id="Group_914" data-name="Group 914" transform="translate(229.983 526.605)">
        <path id="Path_852" data-name="Path 852" d="M2.359-15.906H6.85V-2.117H2.359Zm0-5.375H6.85v3.6H2.359Z" transform="translate(-2.359 21.281)" fill="#1a6f5d"/>
      </g>
      <g id="Group_915" data-name="Group 915" transform="translate(238.795 526.605)">
        <path id="Path_853" data-name="Path 853" d="M2.359-21.281H6.85V-10.84l5.165-5.066h5.222L10.379-9.574l7.4,7.458H12.331L6.85-7.871v5.755H2.359Z" transform="translate(-2.359 21.281)" fill="#1a6f5d"/>
      </g>
      <g id="Group_916" data-name="Group 916" transform="translate(254.832 531.642)">
        <path id="Path_854" data-name="Path 854" d="M8.563-7.766A3.933,3.933,0,0,0,6.44-7.3a1.543,1.543,0,0,0-.7,1.379A1.622,1.622,0,0,0,6.311-4.6a2.434,2.434,0,0,0,1.578.464,2.861,2.861,0,0,0,2.138-.886A3.086,3.086,0,0,0,10.9-7.259v-.507Zm6.858-1.66V-1.56H10.9V-3.6A5.767,5.767,0,0,1,8.865-1.771a6.184,6.184,0,0,1-2.755.563A5.055,5.055,0,0,1,2.566-2.447,4.2,4.2,0,0,1,1.2-5.7,3.955,3.955,0,0,1,2.9-9.243a9.824,9.824,0,0,1,5.352-1.14H10.9v-.352a1.623,1.623,0,0,0-.846-1.52,5.422,5.422,0,0,0-2.626-.492,12.309,12.309,0,0,0-2.7.281,9.42,9.42,0,0,0-2.3.844v-3.363A27.825,27.825,0,0,1,5.321-15.5a24.037,24.037,0,0,1,2.927-.183q3.8,0,5.481,1.477t1.693,4.784Z" transform="translate(-1.203 15.688)" fill="#1a6f5d"/>
      </g>
      <g id="Group_917" data-name="Group 917" transform="translate(0 551.82)">
        <path id="Path_855" data-name="Path 855" d="M11.45-21.281v2.9H8.968a2.043,2.043,0,0,0-1.334.338,1.535,1.535,0,0,0-.373,1.182v.957h3.845v3.152H7.26V-2.117H2.77V-12.754H.531v-3.152H2.77v-.957A4.132,4.132,0,0,1,4.047-20.2a6.059,6.059,0,0,1,3.974-1.083Z" transform="translate(-0.531 21.281)" fill="#1a6f5d"/>
      </g>
      <g id="Group_918" data-name="Group 918" transform="translate(12.862 556.858)">
        <path id="Path_856" data-name="Path 856" d="M12.8-11.593a6.3,6.3,0,0,0-1.191-.394,5,5,0,0,0-1.162-.141,3.3,3.3,0,0,0-2.669,1.1,4.623,4.623,0,0,0-.933,3.11v6.36H2.359V-15.35H6.85v2.265a5.654,5.654,0,0,1,1.98-1.97,5.437,5.437,0,0,1,2.7-.633,4.874,4.874,0,0,1,.488.028c.179.011.438.035.775.07Z" transform="translate(-2.359 15.687)" fill="#1a6f5d"/>
      </g>
      <g id="Group_919" data-name="Group 919" transform="translate(24.483 556.857)">
        <path id="Path_857" data-name="Path 857" d="M8.951-12.536a2.668,2.668,0,0,0-2.281,1.055A5,5,0,0,0,5.88-8.441,5,5,0,0,0,6.669-5.4,2.676,2.676,0,0,0,8.951-4.361,2.613,2.613,0,0,0,11.189-5.4a5.027,5.027,0,0,0,.789-3.039,5.027,5.027,0,0,0-.789-3.039A2.606,2.606,0,0,0,8.951-12.536Zm0-3.152a7.928,7.928,0,0,1,5.667,1.928,6.954,6.954,0,0,1,2.037,5.319,6.975,6.975,0,0,1-2.037,5.319A7.953,7.953,0,0,1,8.951-1.209a8.016,8.016,0,0,1-5.7-1.914A6.932,6.932,0,0,1,1.2-8.442,6.911,6.911,0,0,1,3.255-13.76,7.99,7.99,0,0,1,8.951-15.688Z" transform="translate(-1.203 15.688)" fill="#1a6f5d"/>
      </g>
      <g id="Group_920" data-name="Group 920" transform="translate(43.178 556.857)">
        <path id="Path_858" data-name="Path 858" d="M15.384-13.057a6.037,6.037,0,0,1,2.023-1.956,5.083,5.083,0,0,1,2.583-.675,4.587,4.587,0,0,1,3.687,1.477,6.291,6.291,0,0,1,1.277,4.249v8.4H20.434V-9.075c.007-.12.014-.288.014-.507A3.858,3.858,0,0,0,20-11.692a1.555,1.555,0,0,0-1.406-.661,2.25,2.25,0,0,0-1.98,1.041A5.323,5.323,0,0,0,15.9-8.329v6.768H11.381v-7.19a6.731,6.731,0,0,0-.4-2.941,1.544,1.544,0,0,0-1.435-.661,2.266,2.266,0,0,0-1.994,1.041,5.235,5.235,0,0,0-.7,2.969v6.782H2.328V-15.35H6.848v2.012A5.8,5.8,0,0,1,8.741-15.1a4.836,4.836,0,0,1,2.367-.591A4.843,4.843,0,0,1,13.691-15a4.367,4.367,0,0,1,1.693,1.942Z" transform="translate(-2.328 15.688)" fill="#1a6f5d"/>
      </g>
      <g id="Group_921" data-name="Group 921" transform="translate(77.123 553.284)">
        <path id="Path_859" data-name="Path 859" d="M7.1-19.656v3.912h4.634v3.152H7.1v5.854a1.68,1.68,0,0,0,.387,1.295,2.454,2.454,0,0,0,1.535.338h2.31v3.152H7.491A5.347,5.347,0,0,1,3.7-3.038a5.081,5.081,0,0,1-1.1-3.7v-5.854H.375v-3.152H2.6v-3.912Z" transform="translate(-0.375 19.656)" fill="#1a6f5d"/>
      </g>
      <g id="Group_922" data-name="Group 922" transform="translate(91.237 551.82)">
        <path id="Path_860" data-name="Path 860" d="M16.491-10.517v8.4H11.972v-6.4a23.491,23.491,0,0,0-.086-2.491,2.609,2.609,0,0,0-.287-1,1.817,1.817,0,0,0-.717-.661,2.14,2.14,0,0,0-1.019-.239A2.613,2.613,0,0,0,7.654-11.84,4.745,4.745,0,0,0,6.85-8.9v6.782H2.359V-21.281H6.85v7.387A7.146,7.146,0,0,1,9-15.667a5.554,5.554,0,0,1,2.525-.577,4.6,4.6,0,0,1,3.7,1.477,6.346,6.346,0,0,1,1.263,4.249Z" transform="translate(-2.359 21.281)" fill="#1a6f5d"/>
      </g>
      <g id="Group_923" data-name="Group 923" transform="translate(108.48 556.857)">
        <path id="Path_861" data-name="Path 861" d="M16.3-8.5v1.266H5.78A3.257,3.257,0,0,0,6.928-4.909a4.3,4.3,0,0,0,2.74.774,10.772,10.772,0,0,0,2.9-.408A15.509,15.509,0,0,0,15.623-5.8V-2.4a19.23,19.23,0,0,1-3.185.886,16.847,16.847,0,0,1-3.185.31,8.592,8.592,0,0,1-5.94-1.9A6.807,6.807,0,0,1,1.2-8.441a6.875,6.875,0,0,1,2.08-5.3,8.033,8.033,0,0,1,5.71-1.942,7.231,7.231,0,0,1,5.308,1.97A7,7,0,0,1,16.3-8.5Zm-4.62-1.463a2.76,2.76,0,0,0-.746-2.012,2.6,2.6,0,0,0-1.951-.774,3.1,3.1,0,0,0-2.123.718A3.277,3.277,0,0,0,5.838-9.961Z" transform="translate(-1.203 15.688)" fill="#1a6f5d"/>
      </g>
      <g id="Group_924" data-name="Group 924" transform="translate(136.13 552.608)">
        <path id="Path_862" data-name="Path 862" d="M2.578-20.406H7.973L14.788-7.8V-20.406h4.577V-2.03H13.97L7.155-14.637V-2.03H2.578Z" transform="translate(-2.578 20.406)" fill="#1a6f5d"/>
      </g>
      <g id="Group_925" data-name="Group 925" transform="translate(156.385 556.857)">
        <path id="Path_863" data-name="Path 863" d="M8.951-12.536a2.668,2.668,0,0,0-2.281,1.055A5,5,0,0,0,5.88-8.441,5,5,0,0,0,6.669-5.4,2.676,2.676,0,0,0,8.951-4.361,2.613,2.613,0,0,0,11.189-5.4a5.027,5.027,0,0,0,.789-3.039,5.027,5.027,0,0,0-.789-3.039A2.606,2.606,0,0,0,8.951-12.536Zm0-3.152a7.928,7.928,0,0,1,5.667,1.928,6.954,6.954,0,0,1,2.037,5.319,6.975,6.975,0,0,1-2.037,5.319A7.953,7.953,0,0,1,8.951-1.209a8.016,8.016,0,0,1-5.7-1.914A6.932,6.932,0,0,1,1.2-8.442,6.911,6.911,0,0,1,3.255-13.76,7.99,7.99,0,0,1,8.951-15.688Z" transform="translate(-1.203 15.688)" fill="#1a6f5d"/>
      </g>
      <g id="Group_926" data-name="Group 926" transform="translate(174.95 557.195)">
        <path id="Path_864" data-name="Path 864" d="M2.188-6.9v-8.414H6.707v1.379c0,.753-.007,1.689-.014,2.814s-.014,1.878-.014,2.251a23.241,23.241,0,0,0,.086,2.406,2.734,2.734,0,0,0,.3,1.055,1.962,1.962,0,0,0,.732.675,2.2,2.2,0,0,0,1.019.225,2.629,2.629,0,0,0,2.209-1.055,4.762,4.762,0,0,0,.8-2.941v-6.81H16.32V-1.524H11.829v-2A7.034,7.034,0,0,1,9.677-1.735a5.6,5.6,0,0,1-2.511.563,4.637,4.637,0,0,1-3.7-1.463A6.287,6.287,0,0,1,2.188-6.9Z" transform="translate(-2.188 15.313)" fill="#1a6f5d"/>
      </g>
      <g id="Group_927" data-name="Group 927" transform="translate(193.415 556.858)">
        <path id="Path_865" data-name="Path 865" d="M16.491-9.961v8.4H11.972v-6.43a23.129,23.129,0,0,0-.086-2.462,2.609,2.609,0,0,0-.287-1,1.817,1.817,0,0,0-.717-.661,2.14,2.14,0,0,0-1.019-.239,2.613,2.613,0,0,0-2.209,1.069,4.745,4.745,0,0,0-.8,2.941V-1.56H2.359V-15.349H6.85v2.012A7.146,7.146,0,0,1,9-15.11a5.554,5.554,0,0,1,2.525-.577,4.6,4.6,0,0,1,3.7,1.477A6.346,6.346,0,0,1,16.491-9.96Z" transform="translate(-2.359 15.687)" fill="#1a6f5d"/>
      </g>
      <g id="Group_928" data-name="Group 928" transform="translate(220.868 552.608)">
        <path id="Path_866" data-name="Path 866" d="M2.578-20.406H10.6a8.457,8.457,0,0,1,5.481,1.562A5.37,5.37,0,0,1,18-14.412a5.4,5.4,0,0,1-1.923,4.446A8.457,8.457,0,0,1,10.6-8.4H7.4v6.374H2.578ZM7.4-16.973v5.136h2.683a3.163,3.163,0,0,0,2.166-.675,2.386,2.386,0,0,0,.775-1.9,2.366,2.366,0,0,0-.775-1.9,3.214,3.214,0,0,0-2.166-.661Z" transform="translate(-2.578 20.406)" fill="#1a6f5d"/>
      </g>
      <g id="Group_929" data-name="Group 929" transform="translate(239.513 556.858)">
        <path id="Path_867" data-name="Path 867" d="M12.8-11.593a6.3,6.3,0,0,0-1.191-.394,5,5,0,0,0-1.162-.141,3.3,3.3,0,0,0-2.669,1.1,4.623,4.623,0,0,0-.933,3.11v6.36H2.359V-15.35H6.85v2.265a5.654,5.654,0,0,1,1.98-1.97,5.437,5.437,0,0,1,2.7-.633,4.874,4.874,0,0,1,.488.028c.179.011.438.035.775.07Z" transform="translate(-2.359 15.687)" fill="#1a6f5d"/>
      </g>
      <g id="Group_930" data-name="Group 930" transform="translate(251.127 556.857)">
        <path id="Path_868" data-name="Path 868" d="M8.951-12.536a2.668,2.668,0,0,0-2.281,1.055A5,5,0,0,0,5.88-8.441,5,5,0,0,0,6.669-5.4,2.676,2.676,0,0,0,8.951-4.361,2.613,2.613,0,0,0,11.189-5.4a5.027,5.027,0,0,0,.789-3.039,5.027,5.027,0,0,0-.789-3.039A2.606,2.606,0,0,0,8.951-12.536Zm0-3.152a7.928,7.928,0,0,1,5.667,1.928,6.954,6.954,0,0,1,2.037,5.319,6.975,6.975,0,0,1-2.037,5.319A7.953,7.953,0,0,1,8.951-1.209a8.016,8.016,0,0,1-5.7-1.914A6.932,6.932,0,0,1,1.2-8.442,6.911,6.911,0,0,1,3.255-13.76,7.99,7.99,0,0,1,8.951-15.688Z" transform="translate(-1.203 15.688)" fill="#1a6f5d"/>
      </g>
      <g id="Group_931" data-name="Group 931" transform="translate(266.827 551.821)">
        <path id="Path_869" data-name="Path 869" d="M2.09-15.906H6.58V-2.37A6,6,0,0,1,5.217,1.866,5.087,5.087,0,0,1,1.286,3.329H-.937V.43h.789A2.219,2.219,0,0,0,1.6-.132,3.625,3.625,0,0,0,2.09-2.37Zm0-5.375H6.58v3.6H2.09Z" transform="translate(0.937 21.281)" fill="#1a6f5d"/>
      </g>
      <g id="Group_932" data-name="Group 932" transform="translate(277.605 556.857)">
        <path id="Path_870" data-name="Path 870" d="M16.3-8.5v1.266H5.78A3.257,3.257,0,0,0,6.928-4.909a4.3,4.3,0,0,0,2.74.774,10.772,10.772,0,0,0,2.9-.408A15.509,15.509,0,0,0,15.623-5.8V-2.4a19.23,19.23,0,0,1-3.185.886,16.847,16.847,0,0,1-3.185.31,8.592,8.592,0,0,1-5.94-1.9A6.807,6.807,0,0,1,1.2-8.441a6.875,6.875,0,0,1,2.08-5.3,8.033,8.033,0,0,1,5.71-1.942,7.231,7.231,0,0,1,5.308,1.97A7,7,0,0,1,16.3-8.5Zm-4.62-1.463a2.76,2.76,0,0,0-.746-2.012,2.6,2.6,0,0,0-1.951-.774,3.1,3.1,0,0,0-2.123.718A3.277,3.277,0,0,0,5.838-9.961Z" transform="translate(-1.203 15.688)" fill="#1a6f5d"/>
      </g>
      <g id="Group_933" data-name="Group 933" transform="translate(295.044 556.858)">
        <path id="Path_871" data-name="Path 871" d="M13.614-14.913v3.588a7.043,7.043,0,0,0-1.836-.915,6.2,6.2,0,0,0-1.908-.3,3.928,3.928,0,0,0-2.941,1.083A4.119,4.119,0,0,0,5.881-8.441,4.142,4.142,0,0,0,6.928-5.43,3.948,3.948,0,0,0,9.869-4.36a6.668,6.668,0,0,0,1.994-.3,5.927,5.927,0,0,0,1.75-.915v3.6a12.342,12.342,0,0,1-2.138.563,12.2,12.2,0,0,1-2.181.2A8.64,8.64,0,0,1,3.341-3.122,6.757,6.757,0,0,1,1.2-8.441a6.782,6.782,0,0,1,2.138-5.333A8.657,8.657,0,0,1,9.3-15.687a12.2,12.2,0,0,1,2.181.2,12.19,12.19,0,0,1,2.138.577Z" transform="translate(-1.203 15.687)" fill="#1a6f5d"/>
      </g>
      <g id="Group_934" data-name="Group 934" transform="translate(309.52 553.284)">
        <path id="Path_872" data-name="Path 872" d="M7.1-19.656v3.912h4.634v3.152H7.1v5.854a1.68,1.68,0,0,0,.387,1.295,2.454,2.454,0,0,0,1.535.338h2.31v3.152H7.491A5.347,5.347,0,0,1,3.7-3.038a5.081,5.081,0,0,1-1.1-3.7v-5.854H.375v-3.152H2.6v-3.912Z" transform="translate(-0.375 19.656)" fill="#1a6f5d"/>
      </g>
    </g>
  </g>
</svg>
