<svg xmlns="http://www.w3.org/2000/svg" xmlns:xlink="http://www.w3.org/1999/xlink" width="487" height="507" viewBox="0 0 487 507">
  <defs>
    <clipPath id="clip-path">
      <rect id="Rectangle_143" data-name="Rectangle 143" width="487" height="507" transform="translate(4808 830.276)" fill="#fff" stroke="#707070" stroke-width="1"/>
    </clipPath>
  </defs>
  <g id="Mask_Group_2" data-name="Mask Group 2" transform="translate(-4808 -830.276)" clip-path="url(#clip-path)">
    <g id="noun-neurology-3754916" transform="translate(4770 830)">
      <path id="Path_666" data-name="Path 666" d="M314.07,532.336c-4.1-13.554-7.547-27.511-12.2-40.834-4.047-11.708-10.281-22.205-20.125-29.415-15.477-11.362-35.383-9.459-53.156-7.9-4.156.346-8.367.692-12.523.75-1.969.058-3.883,0-5.852-.115-1.039-.058-2.133-.173-3.172-.288,1.586.231-1.039-.231-1.094-.231a25.489,25.489,0,0,1-3.008-.692c-1.367-.346-2.734-.865-4.047-1.327-1.477-.519-.109-.058.164.058-.547-.288-1.148-.577-1.7-.865-1.039-.577-1.969-1.269-3.008-1.961,1.8,1.211.328.288-.055-.115-.492-.519-1.039-.98-1.531-1.557a7.282,7.282,0,0,0-.875-.98c-.82-.75,1.039,1.788.219.288-.492-.865-1.039-1.73-1.531-2.6a4.41,4.41,0,0,1-.6-1.384c.109,1.846.438,1.211.164.231-.273-.923-.547-1.846-.766-2.826-.109-.461-.164-.98-.273-1.442-.437-1.73.164,2.192.055.4-.055-.923-.164-1.9-.164-2.826V434.4c0-.634.492-2.653.219-3.172.383.75-.328,2.192-.055.577a12.522,12.522,0,0,1,.219-1.269c.273-1.615.656-3.172,1.094-4.787.984-3.691,2.242-7.267,2.953-11.016a28.168,28.168,0,0,0,.164-11.708,22,22,0,0,0-2.242-5.825c-.437-.807-.984-1.557-1.477-2.365l-.82-1.557c.273.865.273.807-.055-.058a12.1,12.1,0,0,0-.383-1.327c-.656-1.961,0,1.788,0-.058,0-1.9-.437,2.019-.055.288.438-1.9.164.4-.219.346a10.873,10.873,0,0,1,.6-1.1c.164.4-1.477,1.73-.328.577,1.313-1.384-1.859,1.038.109-.115a8.323,8.323,0,0,0,1.2-.692c.82-.634-2.406.865-1.477.634,1.094-.288,2.188-.75,3.281-1.1,3.5-1.154,7.055-2.307,10.555-3.518,3.336-1.211,6.016-3.172,7.109-6.921,1.914-6.575-2.352-11.592-8.094-13.265-2.953-.865-5.961-1.788-8.859-2.884-.766-.288-1.477-.577-2.242-.865-1.969-.75.82.923-.6-.288-1.586-1.384,1.2,1.327.383.461-.437-.461-.219-.173.711.923-.383-.75-.273-.519.328.807a5.986,5.986,0,0,1-.328-1.5c-.383,1.846.109.923.109-.058a33.816,33.816,0,0,1,.109-4.095c.055-.75.164-1.5.219-2.192.055-.346.273-1.673,0,.058.273-1.73.547-3.518.82-5.248.492-2.884,1.477-6.114,1.422-9.055-.164-6.633-5.141-10.324-10.555-12.227-6.07-2.192-12.523-3.518-18.7-5.248-.437-.115-.875-.231-1.367-.4,1.2.4-1.148-.634-1.2-.692,1.039.692-.984-.923-.984-.98.82.98-.711-1.211-.766-1.211.109.288.328,1.442-.164-.4-.055-.173-.383-2.826-.273-1.1a9.144,9.144,0,0,1,0-1.73c-.164.865-.109.807.055-.231.055-.115.984-2.538.328-1.154,0,0,1.422-2.365.6-1.154.273-.461.93-1.211,1.313-1.846.273-.4.547-.807.82-1.154,3.063-4.556,6.125-9.055,9.242-13.611l27.727-40.834c2.133-3.172,5.359-6.633,6.344-10.439.82-3.287.656-7.209.656-10.555,0-3.691,0-7.44-.328-11.132a40.449,40.449,0,0,0-.711-4.5c-.219-1.038-.437-2.134-.656-3.172.055.231-.492-3.114-.273-1.673a61.375,61.375,0,0,1-.383-10.035c.164-6,.219-12,.492-17.994.109-3,.328-6.056.6-9.055.164-1.615.328-3.172.492-4.787.273-2.6-.273,1.73.109-.807.164-1.038.273-2.076.438-3.057a156.171,156.171,0,0,1,3.555-16.725c.766-2.711,1.586-5.421,2.516-8.074.438-1.327.93-2.6,1.422-3.864.164-.4.328-.865.492-1.269-.82,2.076.273-.692.438-1.038a111.515,111.515,0,0,1,7.055-14.073c1.2-2.019,2.406-3.98,3.719-5.941l2.133-3.114c1.2-1.73-1.094,1.442.219-.288.492-.634.984-1.327,1.531-1.961a112,112,0,0,1,9.352-10.555c1.75-1.73,3.5-3.4,5.3-5.018.82-.75,1.7-1.442,2.516-2.192.383-.346.766-.634,1.148-.98-1.75,1.442.383-.288.711-.519A143.231,143.231,0,0,1,273.11,80.8c.93-.461,1.859-.923,2.789-1.327.547-.231,3.992-1.846,1.969-.923,2.242-.98,4.539-1.961,6.836-2.826,4.648-1.846,9.352-3.46,14.109-4.9a245.075,245.075,0,0,1,29.367-7.036c2.3-.4,4.594-.75,6.836-1.1.6-.115,1.258-.173,1.859-.288-2.187.346-.055,0,.328-.058,1.258-.173,2.516-.346,3.773-.461,4.977-.634,10.008-1.1,15.039-1.5a253.538,253.538,0,0,1,34.4-.634c2.9.173,5.742.4,8.641.75,1.531.173,3.063.346,4.648.577,2.516.346-1.641-.288.875.115.766.115,1.531.231,2.242.346,5.906.98,11.812,2.249,17.609,3.807A169.6,169.6,0,0,1,441,70.82c1.2.461,2.461.98,3.664,1.5l1.641.692c2.188.923-1.531-.692.656.288,2.789,1.269,5.523,2.6,8.258,4.037A146.3,146.3,0,0,1,469,85.527c2.3,1.5,4.539,3.114,6.781,4.787.93.692,1.859,1.384,2.734,2.076.547.4,1.094.865,1.641,1.269.711.577.711.577-.055-.058.328.288.711.577,1.039.865A162.071,162.071,0,0,1,504.053,118c.711.923,1.422,1.788,2.078,2.711.438.519.82,1.1,1.258,1.673-1.2-1.615.164.231.328.461,1.586,2.249,3.117,4.5,4.648,6.806,3.008,4.614,5.742,9.4,8.313,14.361s4.867,10.035,6.945,15.227c-.766-1.846.492,1.269.711,1.846.492,1.327.984,2.653,1.422,3.98.984,2.768,1.859,5.594,2.734,8.421q2.379,8.046,4.1,16.264c.6,2.826,1.094,5.652,1.531,8.536.164,1.211.383,2.365.547,3.576.109.692.219,1.442.273,2.192-.273-2.249.109.923.164,1.327,3.172,28.2.547,54.733-9.133,81.206-1.258,3.518-1.8,4.845-3.336,8.248-1.586,3.691-3.336,7.267-5.2,10.786a184.807,184.807,0,0,1-10.828,18.052c-3.773,5.479-8.531,11.189-12.906,17.3a114.917,114.917,0,0,0-9.789,16.264,92.245,92.245,0,0,0-9.242,34.316c-.82,12.227,1.094,24.628,4.047,36.393,3.391,13.784,8.313,27.165,13.344,40.372,1.641,4.326,5.469,7.382,10.117,6.056,3.883-1.154,7.383-6.287,5.742-10.67-4.211-11.016-8.312-22.147-11.539-33.567-1.367-4.787-2.57-9.632-3.555-14.534-.437-2.249-.82-4.441-1.148-6.69-.273-1.673-.055-.231,0,.115-.055-.577-.164-1.211-.219-1.788-.164-1.327-.273-2.6-.328-3.922a90.961,90.961,0,0,1,.055-12.8c.055-1.038.219-2.019.273-3.057-.219,2.307.164-.807.219-1.384.328-2.134.82-4.21,1.313-6.344.492-2.019,1.094-3.98,1.75-5.941.328-.98.766-1.961,1.094-3,.438-1.327-.82,1.846.109-.231.273-.634.547-1.327.875-1.961a95.407,95.407,0,0,1,6.672-12.4c5.8-9.343,12.8-16.956,19.3-26.876a179.233,179.233,0,0,0,15.8-30.106,187.7,187.7,0,0,0,14.109-71.459c-.055-36.739-9.625-73.709-28.82-104.507a170.852,170.852,0,0,0-80.609-68.287c-34.125-13.9-71.039-14.823-106.91-10.266-31.391,3.98-63.164,12.111-90.4,29.7a132.1,132.1,0,0,0-56.711,79.13,178.968,178.968,0,0,0-4.7,29.991c-.383,5.191-.547,10.439-.547,15.63,0,4.441-.437,8.824-.273,13.265a81.016,81.016,0,0,0,.93,9.574c.219,1.384.438,2.768.766,4.095a11.881,11.881,0,0,0,.383,1.5c.547,1.615.109-1.269,0-.173-.219,2.6.273,5.537.328,8.19,0,3.114-.109,6.171-.219,9.286-.055,1.73.055-.4.109-.692.219-.519.438-1.038.656-1.615-.055,0-.055.115-.109.173a5.5,5.5,0,0,0-.656.923c-.82,1.269-1.7,2.48-2.516,3.749Q168.06,275.882,148.755,304.4a19.967,19.967,0,0,0-1.2,1.788c.055-.115,1.75-2.422.109-.173-.547.75-1.094,1.5-1.586,2.307a25.756,25.756,0,0,0-1.914,4.383,24.191,24.191,0,0,0-.766,11.362,22.633,22.633,0,0,0,11.1,16.206,37.856,37.856,0,0,0,8.2,2.941c5.141,1.442,10.391,2.653,15.422,4.326,1.531.519-1.8-.634.82.346,3.172,1.211-4.594,2.653-1.8-5.594a21.667,21.667,0,0,0-.492,2.6c-.437,2.422-.875,4.9-1.258,7.325-.766,5.364-1.531,10.9-.547,16.322.984,5.306,4.047,8.594,8.641,10.612a68.821,68.821,0,0,0,7.438,2.884c1.2.4,2.461.807,3.719,1.211a16.425,16.425,0,0,0,1.586.461c.273.058.492.173.766.231,1.477.519,1.039.115-1.312-1.154l-2.133-3.807c0-1.038,0-2.019.055-3.057l2.133-3.807c1.477-1.9,3.938-1.788,1.969-1.211-.547.173-1.094.346-1.641.577-1.75.577-3.5,1.154-5.3,1.788-2.242.75-4.539,1.442-6.781,2.249a18.2,18.2,0,0,0-11.1,22.032c.93,3.4,2.68,6.171,4.32,9.17.766,1.384-.93-1.673.219.577.055.231.109.519.164.75h0V409.6c-.109,1.038-.109,1.038,0,.115-.109.577-.219,1.1-.328,1.673-1.2,5.652-3.336,11.074-4.211,16.841-1.258,8.709-.711,17.533,3.227,25.434,9.406,19.033,32.266,19.9,49.984,18.4,7.875-.634,15.7-1.5,23.57-1.384,1.8.058,3.609.115,5.469.288.656.058,4.266.288,1.586.115a20.385,20.385,0,0,1,3.172.577,40.154,40.154,0,0,1,5.141,1.442c.82.288,1.641.634,2.516.923,1.75.634-1.641-.923,0,0,.492.288.984.461,1.422.75.984.519,1.914,1.1,2.789,1.673.438.288.93.634,1.367.98.328.231.6.461.875.692-.82-.692-1.039-.865-.547-.461a67.038,67.038,0,0,1,5.2,5.364c.273.346.547.692.766.98-1.367-1.73.383.577.6.923.766,1.154,1.477,2.365,2.133,3.576q1.066,1.99,1.969,3.98c.273.577.547,1.211.766,1.788s.219.461-.055-.173c.219.519.383,1.038.6,1.557,2.68,7.44,4.594,15.169,6.836,22.782,1.859,6.287,3.719,12.573,5.633,18.918,1.367,4.441,5.688,7.325,10.117,6.056,4.32-1.673,7.273-6.633,5.906-11.074Z" transform="translate(-70.047 -42.24)" fill="#1a6f5d"/>
      <path id="Path_667" data-name="Path 667" d="M496.95,220.911a62.021,62.021,0,0,1,.109,14.592c.164-1.557,0-.173-.109.577-.164.865-.328,1.673-.547,2.538a35.2,35.2,0,0,1-1.422,4.672c.547-1.384-.164.231-.383.692a19.022,19.022,0,0,1-1.312,2.307c-.219.346-.437.634-.656.98.109-.115.766-.923.109-.231-.6.692-1.2,1.384-1.859,2.019-1.531,1.557-3.172,3.057-4.812,4.5-.656.577-1.312,1.154-2.023,1.73-.766.634-.055.058.055-.058-.383.346-.82.634-1.2.923a40.752,40.752,0,0,1-3.609,2.48c-.492.288-1.039.577-1.531.865-1.367.807.219,0,1.039-.058-1.367.115,1.258.577-.383-.115-.492-.231-1.039-.4-1.531-.634a11.108,11.108,0,0,0-4.484-1.038c-5.523,0-8.531,4.326-10.062,9.343-.164.519-.383,1.038-.492,1.557-.219.865.273-.75.328-.75-.109.231-.219.519-.328.75-.273.519-.492,1.038-.82,1.557-.219.346-1.531,2.249-.875,1.384.711-.923-.547.577-.766.807-.437.461-.93.923-1.422,1.384-.656.634.273-.173.328-.231a4.956,4.956,0,0,1-.875.634,23.022,23.022,0,0,1-2.516,1.557c-.328.173-.711.346-1.039.519.164-.058.984-.4.109-.058l-2.461.865c-.82.231-1.586.461-2.406.634-.328.058-2.3.4-.711.173,1.477-.231-1.148.058-1.75.058a32.173,32.173,0,0,1-3.336,0c-1.039-.058-2.023-.115-3.062-.231-.6-.058-1.258-.173-1.859-.231-1.422-.115,1.641.288-.273-.058-2.516-.4-5.031-.923-7.492-1.442-5.414-1.269-10.773-2.768-16.078-4.441-10.391-3.287-20.562-7.094-30.844-10.728-3.828-1.327-7.6-2.711-11.484-3.807-2.789-.807-5.906-1.673-8.8-1.442-2.844.231-5.469,1.5-8.258,2.249-1.312.346-2.68.634-4.047.923l-2.133.346c1.641-.231-.93.058-1.531.115a60.56,60.56,0,0,1-10.227,0c-.383-.058-2.352-.288-1.094-.115-.82-.115-1.641-.288-2.461-.461a48.952,48.952,0,0,1-5.687-1.557c-.82-.288-1.586-.577-2.406-.865,0,0-1.258-.577-.6-.231.656.288-.6-.288-.6-.288a50.16,50.16,0,0,1-5.3-3.172c-3.336-2.365-6.617-4.787-9.9-7.267-.6-.461-1.258-.923-1.859-1.384-.492-.4-1.7-1.384-.547-.4-1.039-.865-2.078-1.788-3.062-2.768-.328-.346-.656-.75-.984-1.1-.93-.98.711,1.442.219.288-.109-.288-1.094-1.9-.328-.4.6,1.1.273.692.164.288-.273-1.154.109,1.154.109,1.211a4.07,4.07,0,0,1,0-1.154c-.109.807-.273,2.134,0,.692a11.793,11.793,0,0,0-2.68-10.439c-1.258-1.442-1.258-1.961-3.172-4.21a20.934,20.934,0,0,0-5.086-4.383c-3.336-2.019-7.109-2.48-10.719-3.576a36.728,36.728,0,0,1-9.3-3.807c-3.937-2.249-7.109-4.96-11.43-6.46-.875-.288-1.75-.577-2.57-.923-.875-.346.055,0,.164.058-.328-.173-.711-.346-1.039-.519a33.057,33.057,0,0,1-4.211-2.711c1.2.923-.6-.577-.93-.923a21.632,21.632,0,0,1-1.531-1.673,9.9,9.9,0,0,1-.711-.865c.109.115.711,1.038.164.231a18.74,18.74,0,0,1-1.367-2.249c-.164-.288-1.2-2.422-.875-1.673s-.383-1.1-.492-1.442c-.219-.75-.383-1.442-.547-2.192-.055-.346-.164-.75-.219-1.154.109.865.055.865.055,0,0-.923-.055-1.846,0-2.768a9.06,9.06,0,0,1,.109-1.211c0,.173-.219,1.327,0,.288.164-.807.328-1.615.547-2.422.109-.4.273-.807.383-1.211.383-1.327-.055,0,.328-.807,1.969-4.268,3.117-8.074,2.9-12.861-.055-1.384.109-2.768.109-4.153,0-.461-.383,2.365-.109.75a9.391,9.391,0,0,1,.219-1.211,27.574,27.574,0,0,1,.766-3.057c.164-.461.273-.923.438-1.384.109-.288.766-1.9.219-.634-.6,1.327.328-.75.438-.98.273-.634.6-1.211.93-1.846.6-1.1,1.258-2.192,1.914-3.23.438-.634.875-1.327,1.313-1.961-.984,1.327.328-.4.711-.807a64.91,64.91,0,0,1,7.492-7.728c2.9-2.6,6.781-4.9,10.062-7.844,2.188-1.961,3.883-4.787,5.469-7.382.438-.75-.492.634-.492.634a6.047,6.047,0,0,1,.547-.692,19.729,19.729,0,0,1,1.367-1.673,40.162,40.162,0,0,1,3.008-3.172c.219-.231,1.7-1.5,1.039-.98-.711.577.219-.173.328-.231.383-.288.766-.577,1.2-.865a21.466,21.466,0,0,1,1.914-1.154l.984-.519c1.148-.634-1.094.4.109-.058.711-.288,1.477-.519,2.188-.75.383-.115,2.734-.692,1.367-.4a24.385,24.385,0,0,0,7.656-2.249,28.249,28.249,0,0,0,4.7-3.518c.328-.288.711-.577,1.039-.923.984-.865-1.312,1.038.164-.173a69.764,69.764,0,0,1,6.836-4.729c1.367-.807,2.734-1.615,4.156-2.307.711-.346,1.367-.692,2.078-.98-1.258.577.93-.346,1.313-.519a51.294,51.294,0,0,1,5.031-1.615c.82-.231,1.641-.4,2.461-.577.438-.058.82-.173,1.258-.231,1.477-.231-1.914.115.766-.058,1.75-.115,3.5-.173,5.25-.115.875.058,1.8.115,2.68.231-.219-.058-.875-.115.109.058,1.2.173,2.461.461,3.609.519,3.391.231,6.508-.923,9.734-1.73,1.148-.288,2.352-.577,3.5-.807.656-.115,1.313-.288,2.023-.4.547-.115,3.008-.461,1.477-.231a76.841,76.841,0,0,1,10.938-.634,48.635,48.635,0,0,1,11.1,1.269c4.594,1.038,9.023,3.46,13.781,3.518a24.813,24.813,0,0,0,4.1-.461c1.367-.231-1.969.173-.437.058,1.258-.115,2.57-.231,3.828-.231,1.313,0,2.625.115,3.992.173.328,0,1.586.231,0-.058l1.148.173c.93.173,1.859.4,2.734.634a28.591,28.591,0,0,1,9.9,4.672c3.883,2.653,7.328,4.268,12.031,4.729,1.367.115-.383,0-.875-.115.438.115.875.115,1.258.231.875.173,1.8.4,2.68.634,1.039.288,2.023.634,3.008.98.273.115,1.914.807.766.288s.766.4,1.039.577a34.757,34.757,0,0,1,3.445,2.076c.547.346,1.094.75,1.641,1.154a7.861,7.861,0,0,1,.82.634c-.6-.461-.6-.519,0,0a54.185,54.185,0,0,1,7.109,7.671c-.437-.634.875,1.384,1.094,1.673.547.807,1.039,1.673,1.531,2.538a26.929,26.929,0,0,0,3.938,5.652,33.112,33.112,0,0,0,4.1,3.345c1.313.98-.437-.4,0,0,.547.461,1.094.923,1.641,1.442a55.775,55.775,0,0,1,6.891,7.209,10.445,10.445,0,0,1,.711.923c-.109-.115-.656-.923-.109-.115.438.692.875,1.327,1.313,2.019a15.856,15.856,0,0,1,1.148,2.134,10.228,10.228,0,0,0,.547,1.1c-.492-1.1,0,0,.164.519,1.094,3.345,1.859,6.575,3.719,9.632,1.039,1.73,2.078,3.46,3.063,5.191,2.844,5.075,5.469,10.266,7.82,15.63.328.692.6,1.384.875,2.076.383.923-.055-.173-.109-.288.164.346.273.692.438,1.1.656,1.673,1.258,3.4,1.8,5.133a72.261,72.261,0,0,1,2.516,9.574c.164.75.219,1.5.383,2.192.219.98-.055-.346-.055-.519a6.725,6.725,0,0,1,.109,1.1,41.762,41.762,0,0,1,.164,4.556c0,.692-.055,1.327-.109,2.019-.055,1.673.328-1.326-.055.288a36.541,36.541,0,0,0-.6,8.017c.328,4.5,3.5,8.882,8.2,8.651,4.156-.173,8.586-3.807,8.2-8.651-.273-3.691,1.039-8.247.875-12.573a71.2,71.2,0,0,0-2.078-13.554,129.157,129.157,0,0,0-9.352-24.339c-2.57-5.248-5.469-10.208-8.422-15.227a9.21,9.21,0,0,1-.766-1.442c.219.577.219.923.055-.346a19.285,19.285,0,0,0-.82-3.057,39.894,39.894,0,0,0-3.391-7.5,57.39,57.39,0,0,0-8.859-11.189c-2.68-2.653-5.633-4.787-8.422-7.209-.164-.173-.766-.692.109.058-.164-.173-.984-1.211-.219-.115-.711-1.038-1.258-2.249-1.914-3.345a78.3,78.3,0,0,0-4.977-7.152,49.731,49.731,0,0,0-20.289-15.573,33.992,33.992,0,0,0-7.109-2.192c-1.531-.288-3.062-.346-4.594-.634-.219-.058-.383,0-.6-.058,1.313.288-.273-.173-.328-.231.93.634-.273-.173-.383-.288-.656-.519-1.367-.98-2.023-1.5a45.16,45.16,0,0,0-27.672-8.305c-1.914.058-3.828.4-5.742.634-1.094.173.273-.058.383-.058,0,0-1.586.058-.656.115-1.422-.115-2.953-.98-4.32-1.442a67.134,67.134,0,0,0-17.172-3.287,84.055,84.055,0,0,0-26.25,2.6c-1.258.346-2.516.75-3.828,1.038-1.367.346-.383.058-.328,0,.6-.058-.656-.058-.711-.058-1.914-.173-3.828-.634-5.8-.75a46.577,46.577,0,0,0-14.93,1.557,63.979,63.979,0,0,0-22.7,11.42c-1.477,1.154-2.953,2.307-4.375,3.518a13.466,13.466,0,0,1-1.367,1.154c-.6.461.984-.577-.164,0-.766.346.711-.115-.656.288-1.586.4-.6.173-.219.115-.984.231-1.969.231-2.953.461a30,30,0,0,0-3.062.807,36.67,36.67,0,0,0-7.109,3.345c-6.562,4.095-11.375,10.035-15.641,16.61.93-1.384-1.586,1.442-.328.4-1.094.923-2.352,1.615-3.445,2.48-2.516,1.9-4.977,3.864-7.328,6a66.953,66.953,0,0,0-8.8,9.459c-4.32,5.652-7.93,12.054-9.516,19.206a40.215,40.215,0,0,0-.984,8.074c0,.75.055,1.557.055,2.307,0,.519.055,1.038.055,1.615-.109,1.442.328-.75-.109.577-.164.4-.711,1.557-1.148,2.653a35.189,35.189,0,0,0,1.039,30.452,37.708,37.708,0,0,0,22.039,17.821c1.586.461,3.445,2.019,5.359,3.287a42.6,42.6,0,0,0,7.109,3.807,76.425,76.425,0,0,0,13.562,4.441,11.867,11.867,0,0,1,1.367.346c-.328-.115-1.367-.75.164.115.164.115,1.258.923.328.173.328.288.6.577.875.865.984.98-.547-.923.164.173.438.692.82,1.327,1.313,2.019.82,1.154,1.8,2.134,2.68,3.23l-2.133-3.807c-.766-2.48.273-3.691-.109-1.961a16.771,16.771,0,0,0-.328,3.057,17.641,17.641,0,0,0,.438,3.807,18.865,18.865,0,0,0,3.664,7.094c3.172,4.095,7.6,7.094,11.648,10.151,5.852,4.326,11.484,8.594,18.156,11.361A56.1,56.1,0,0,0,339.5,276.45a66.557,66.557,0,0,0,17.883-1.673,58.308,58.308,0,0,0,6.18-1.788,12.931,12.931,0,0,0,1.586-.519c.6-.577-2.352,0-1.641.231a3.081,3.081,0,0,0,1.258,0c1.586-.058-2.406-.519-.711-.115.492.115.984.173,1.477.288,1.367.346,2.734.692,4.1,1.154,3.336,1.038,6.617,2.192,9.844,3.345,17.336,6.114,34.672,13.207,52.773,16.322,9.133,1.557,18.32,2.249,27.125-1.5a32.7,32.7,0,0,0,14.875-12.227,30.926,30.926,0,0,0,3.172-6.69,10.539,10.539,0,0,0,.82-2.538c-.109.288-.273.577-.383.865-2.023,2.653-4.32,3.691-7,3.057,0,0,1.422.577,1.531.634,6.617,2.768,12.578.173,18.047-3.922,6.125-4.556,12.578-9.862,16.734-16.5,6.125-9.747,7.328-22.724,5.961-34.086-.547-4.5-3.391-8.882-8.2-8.651-3.773.288-8.586,3.922-7.984,8.767Z" transform="translate(-70.047 -40.127)" fill="#1a6f5d"/>
      <path id="Path_668" data-name="Path 668" d="M348.96,257.092c-.93,12.515,4.7,26.126,12.961,34.778a49.761,49.761,0,0,0,6.125,5.306c.273.231,1.148,1.038-.055-.058.328.288.711.577,1.039.923.656.634,1.313,1.269,1.969,1.961s1.258,1.384,1.859,2.134c.273.346.6.75.875,1.1-.984-1.269-.219-.288,0,0,1.258,1.846,2.406,3.691,3.5,5.652a118.259,118.259,0,0,1,5.25,11.016c.219.461.383.98.6,1.442-.6-1.442-.055-.173.055.115.383.98.766,1.9,1.094,2.884.766,2.019,1.531,4.095,2.3,6.114,2.789,7.555,5.414,15.4,9.461,22.32,2.625,4.441,6.234,9.055,11.43,10.035,6.344,1.211,11.867-2.6,14.6-8.536a19.437,19.437,0,0,0,2.023-9.113,19.722,19.722,0,0,0-.492-3.4c-.328-1.5.164,1.442.164,1.211-.055-1.846-.273-3.749-.328-5.594-.219-6.229-.164-12.515,0-18.744.219-8.421.711-16.841,1.586-25.2.109-.865.219-1.73.273-2.6.164-1.615,0,.173-.055.4.109-.634.164-1.211.273-1.846.273-1.73.547-3.46.875-5.133q.41-2.249.984-4.5c.164-.75.383-1.442.6-2.192.219-.692,1.148-3.114,0-.173,1.75-4.268,1.2-9.286-2.953-11.823-3.445-2.134-9.461-1.211-11.211,3.114-4.922,12.111-5.578,26.069-6.289,39.1-.656,11.362-1.2,23.012-.219,34.374.109,1.269.273,2.538.438,3.749,0,.115.164.634.109.692-.055.115.383.461-.055-.231-.492-.75.438-1.384-.164-.231.711-1.327-.6,1.154-.82,1.442.164-.231,1.094-1.211.164-.4a3.784,3.784,0,0,1,3.008-1.154,3.606,3.606,0,0,1,2.133.577c.656.288-.055,0-.273-.288-.328-.346-.656-.75-.984-1.1,1.039,1.269.164.173-.055-.173a81.1,81.1,0,0,1-4.43-8.767c-.383-.865-.711-1.73-1.039-2.538.656,1.557-.109-.346-.328-.923-.711-1.846-1.422-3.691-2.078-5.537-5.523-14.88-11.047-31.894-23.188-42.391-1.148-1.038-2.406-1.961-3.609-2.884-1.148-.923.711.634-.328-.288-.492-.461-1.039-.923-1.531-1.442-.766-.75-1.477-1.557-2.187-2.365l-.984-1.211c.93,1.211-.055-.115-.273-.4-1.094-1.73-1.969-3.46-2.9-5.306-.711-1.384-.055-.058.055.231-.164-.519-.383-.98-.547-1.5-.273-.865-.547-1.73-.82-2.653-.383-1.5-.711-3-.984-4.556-.383-1.961.164,2.019-.055-.231a14.9,14.9,0,0,1-.109-1.557,25.178,25.178,0,0,1,0-3.518c.328-4.5-3.992-8.824-8.2-8.651-4.758.115-7.875,3.691-8.258,8.536Z" transform="translate(-70.047 -30.97)" fill="#1a6f5d"/>
      <path id="Path_669" data-name="Path 669" d="M420.22,350.831a7.74,7.74,0,0,1-3.883,4.9c-.6.346-1.2.75-1.8,1.1-2.078-.288-4.211-.577-6.289-.865a8.53,8.53,0,0,1-2.3-2.192,4.688,4.688,0,0,1-1.039-1.846c-.6-1.442-.492-1.327-.383-.865.383,1.269-.219-3-.219-1.557a10.845,10.845,0,0,0,.109,1.327c.273,5.537.219,11.074.164,16.552-.055,14.765-.492,29.472-.6,44.236-.055,14.707,1.586,29.817,6.945,43.487,3.992,10.093,9.789,18.571,15.367,27.684,2.406,3.922,7.273,5.537,11.211,3.114,3.664-2.249,5.359-7.9,2.953-11.823-4.977-8.132-10.172-15.746-14.109-24.512.6,1.327.273.692-.055-.173-.273-.692-.492-1.384-.766-2.076-.547-1.557-1.039-3.114-1.477-4.729a88.468,88.468,0,0,1-2.242-10.035c-.164-.923-.328-1.846-.437-2.768l-.164-1.211c.164,1.5,0,.058,0-.231-.219-2.249-.437-4.5-.547-6.748-.273-4.787-.273-9.574-.219-14.361.273-14.534.547-29.011.547-43.544,0-4.672.109-9.4-.273-14.015-.219-2.768-.6-5.133-2.57-7.209-4.484-4.729-12.031-2.249-13.781,3.864-1.258,4.326,1.477,9.632,5.742,10.67a8.534,8.534,0,0,0,10.117-6.171Z" transform="translate(-70.047 -25.975)" fill="#1a6f5d"/>
      <g id="Group_752" data-name="Group 752" transform="translate(0.094 552.552)">
        <path id="Path_670" data-name="Path 670" d="M1.828,0a.911.911,0,0,1-.3.115,1.462,1.462,0,0,1-.312.033,1.094,1.094,0,0,1-.8-.28A1.123,1.123,0,0,1,.141-.944a1.1,1.1,0,0,1,.281-.791,1.069,1.069,0,0,1,.8-.3.943.943,0,0,1,.313.049,1.144,1.144,0,0,1,.3.115v.428a1.16,1.16,0,0,0-.281-.148.9.9,0,0,0-.3-.049.5.5,0,0,0-.422.2.735.735,0,0,0-.156.494.814.814,0,0,0,.156.527.513.513,0,0,0,.422.181.9.9,0,0,0,.3-.049,1.16,1.16,0,0,0,.281-.148Z" transform="translate(-0.141 2.031)" fill="#1a6f5d"/>
      </g>
      <g id="Group_753" data-name="Group 753" transform="translate(2.195 553.08)">
        <path id="Path_671" data-name="Path 671" d="M1.344-1.07A.3.3,0,0,0,1.219-1.1a.693.693,0,0,0-.125-.016.366.366,0,0,0-.3.132A.546.546,0,0,0,.7-.641V.084H.234V-1.5H.7v.264a.645.645,0,0,1,.2-.214.529.529,0,0,1,.3-.082H1.25a.717.717,0,0,1,.094.016Z" transform="translate(-0.234 1.531)" fill="#1a6f5d"/>
      </g>
      <g id="Group_754" data-name="Group 754" transform="translate(3.434 553.08)">
        <path id="Path_672" data-name="Path 672" d="M1.719-.707v.148H.609A.412.412,0,0,0,.719-.3a.46.46,0,0,0,.3.082,1.05,1.05,0,0,0,.313-.049,2.433,2.433,0,0,0,.328-.132v.379a1.884,1.884,0,0,1-.344.1A1.978,1.978,0,0,1,.969.117.845.845,0,0,1,.344-.1a.8.8,0,0,1-.219-.61A.786.786,0,0,1,.344-1.3a.8.8,0,0,1,.609-.231A.7.7,0,0,1,1.5-1.3a.8.8,0,0,1,.219.593ZM1.234-.872A.333.333,0,0,0,1.156-1.1a.266.266,0,0,0-.219-.1.323.323,0,0,0-.219.082.36.36,0,0,0-.109.247Z" transform="translate(-0.125 1.531)" fill="#1a6f5d"/>
      </g>
      <g id="Group_755" data-name="Group 755" transform="translate(5.289 553.08)">
        <path id="Path_673" data-name="Path 673" d="M.906-.625a.438.438,0,0,0-.234.049.177.177,0,0,0-.078.165.174.174,0,0,0,.063.148.263.263,0,0,0,.172.049.266.266,0,0,0,.219-.1.365.365,0,0,0,.094-.264V-.625Zm.719-.2V.084H1.141V-.147A.577.577,0,0,1,.922.067.7.7,0,0,1,.641.117.514.514,0,0,1,.266-.015.524.524,0,0,1,.125-.394.438.438,0,0,1,.3-.79.991.991,0,0,1,.859-.922h.281V-.971a.174.174,0,0,0-.094-.165A.439.439,0,0,0,.781-1.2a1.37,1.37,0,0,0-.3.033,1.018,1.018,0,0,0-.234.1v-.379a1.626,1.626,0,0,1,.313-.066c.1-.008.2-.016.3-.016a.843.843,0,0,1,.578.165.7.7,0,0,1,.188.544Z" transform="translate(-0.125 1.531)" fill="#1a6f5d"/>
      </g>
      <g id="Group_756" data-name="Group 756" transform="translate(7.039 552.668)">
        <path id="Path_674" data-name="Path 674" d="M.75-1.922v.445h.5v.363H.75v.676a.259.259,0,0,0,.031.148.289.289,0,0,0,.172.033H1.2V.1H.8A.58.58,0,0,1,.391-.01.66.66,0,0,1,.281-.439v-.676H.031v-.363h.25v-.445Z" transform="translate(-0.031 1.922)" fill="#1a6f5d"/>
      </g>
      <g id="Group_757" data-name="Group 757" transform="translate(8.441 553.08)">
        <path id="Path_675" data-name="Path 675" d="M1.719-.707v.148H.609A.412.412,0,0,0,.719-.3a.46.46,0,0,0,.3.082,1.05,1.05,0,0,0,.313-.049,2.433,2.433,0,0,0,.328-.132v.379a1.884,1.884,0,0,1-.344.1A1.978,1.978,0,0,1,.969.117.845.845,0,0,1,.344-.1a.8.8,0,0,1-.219-.61A.786.786,0,0,1,.344-1.3a.8.8,0,0,1,.609-.231A.7.7,0,0,1,1.5-1.3a.8.8,0,0,1,.219.593ZM1.234-.872A.333.333,0,0,0,1.156-1.1a.266.266,0,0,0-.219-.1.323.323,0,0,0-.219.082.36.36,0,0,0-.109.247Z" transform="translate(-0.125 1.531)" fill="#1a6f5d"/>
      </g>
      <g id="Group_758" data-name="Group 758" transform="translate(10.293 552.503)">
        <path id="Path_676" data-name="Path 676" d="M1.25-1.238v-.84h.484V.114H1.25V-.117A.707.707,0,0,1,1.016.1.655.655,0,0,1,.75.146.555.555,0,0,1,.3-.084.945.945,0,0,1,.125-.677.961.961,0,0,1,.3-1.271.566.566,0,0,1,.75-1.5a.544.544,0,0,1,.266.066.863.863,0,0,1,.234.2ZM.938-.216a.249.249,0,0,0,.219-.115A.53.53,0,0,0,1.25-.677a.518.518,0,0,0-.094-.33.248.248,0,0,0-.219-.132A.255.255,0,0,0,.7-1.007a.573.573,0,0,0-.078.33A.589.589,0,0,0,.7-.331.258.258,0,0,0,.938-.216Z" transform="translate(-0.125 2.078)" fill="#1a6f5d"/>
      </g>
      <g id="Group_759" data-name="Group 759" transform="translate(13.312 552.503)">
        <path id="Path_677" data-name="Path 677" d="M1.031-.216A.249.249,0,0,0,1.25-.331a.53.53,0,0,0,.094-.346.518.518,0,0,0-.094-.33.248.248,0,0,0-.219-.132.294.294,0,0,0-.25.132A.573.573,0,0,0,.7-.677a.589.589,0,0,0,.078.346A.3.3,0,0,0,1.031-.216ZM.7-1.238a.876.876,0,0,1,.219-.2A.62.62,0,0,1,1.2-1.5a.545.545,0,0,1,.453.231.987.987,0,0,1,.172.593.97.97,0,0,1-.172.593A.535.535,0,0,1,1.2.146.75.75,0,0,1,.922.1.714.714,0,0,1,.7-.117V.114H.234V-2.078H.7Z" transform="translate(-0.234 2.078)" fill="#1a6f5d"/>
      </g>
      <g id="Group_760" data-name="Group 760" transform="translate(15.066 553.113)">
        <path id="Path_678" data-name="Path 678" d="M.031-1.5H.516L.906-.429,1.25-1.5h.484L1.109.23A.74.74,0,0,1,.875.593.487.487,0,0,1,.547.708H.281V.379H.422A.236.236,0,0,0,.594.329.261.261,0,0,0,.688.181L.7.148Z" transform="translate(-0.031 1.5)" fill="#1a6f5d"/>
      </g>
      <g id="Group_761" data-name="Group 761" transform="translate(17.91 553.08)">
        <path id="Path_679" data-name="Path 679" d="M1.391-1.449v.4a1.144,1.144,0,0,0-.3-.115A1.259,1.259,0,0,0,.828-1.2a.366.366,0,0,0-.2.049.109.109,0,0,0-.062.1.11.11,0,0,0,.047.1A.381.381,0,0,0,.8-.905l.078.016a1,1,0,0,1,.5.165A.422.422,0,0,1,1.5-.378.433.433,0,0,1,1.312,0,.933.933,0,0,1,.8.117,1.579,1.579,0,0,1,.484.084,1.365,1.365,0,0,1,.172.018V-.361a.9.9,0,0,0,.281.115,1.322,1.322,0,0,0,.313.033.428.428,0,0,0,.2-.033.15.15,0,0,0,.078-.132A.12.12,0,0,0,1-.477.563.563,0,0,0,.8-.526L.719-.543A.774.774,0,0,1,.266-.691a.431.431,0,0,1-.125-.346A.419.419,0,0,1,.3-1.4a.817.817,0,0,1,.5-.132,1.31,1.31,0,0,1,.281.033c.1.012.207.029.313.049Z" transform="translate(-0.141 1.531)" fill="#1a6f5d"/>
      </g>
      <g id="Group_762" data-name="Group 762" transform="translate(19.633 552.503)">
        <path id="Path_680" data-name="Path 680" d="M1.734-.842V.114H1.25V-.612a1.882,1.882,0,0,0-.016-.28.572.572,0,0,0-.016-.132.171.171,0,0,0-.078-.066.2.2,0,0,0-.109-.033.294.294,0,0,0-.25.132A.573.573,0,0,0,.7-.661V.114H.234V-2.078H.7v.84a.761.761,0,0,1,.234-.2A.591.591,0,0,1,1.2-1.5a.471.471,0,0,1,.391.165.751.751,0,0,1,.141.494Z" transform="translate(-0.234 2.078)" fill="#1a6f5d"/>
      </g>
      <g id="Group_763" data-name="Group 763" transform="translate(21.469 553.08)">
        <path id="Path_681" data-name="Path 681" d="M.906-.625a.438.438,0,0,0-.234.049.177.177,0,0,0-.078.165.174.174,0,0,0,.063.148.263.263,0,0,0,.172.049.266.266,0,0,0,.219-.1.365.365,0,0,0,.094-.264V-.625Zm.719-.2V.084H1.141V-.147A.577.577,0,0,1,.922.067.7.7,0,0,1,.641.117.514.514,0,0,1,.266-.015.524.524,0,0,1,.125-.394.438.438,0,0,1,.3-.79.991.991,0,0,1,.859-.922h.281V-.971a.174.174,0,0,0-.094-.165A.439.439,0,0,0,.781-1.2a1.37,1.37,0,0,0-.3.033,1.018,1.018,0,0,0-.234.1v-.379a1.626,1.626,0,0,1,.313-.066c.1-.008.2-.016.3-.016a.843.843,0,0,1,.578.165.7.7,0,0,1,.188.544Z" transform="translate(-0.125 1.531)" fill="#1a6f5d"/>
      </g>
      <g id="Group_764" data-name="Group 764" transform="translate(23.332 553.08)">
        <path id="Path_682" data-name="Path 682" d="M1.391-1.449v.4a1.144,1.144,0,0,0-.3-.115A1.259,1.259,0,0,0,.828-1.2a.366.366,0,0,0-.2.049.109.109,0,0,0-.062.1.11.11,0,0,0,.047.1A.381.381,0,0,0,.8-.905l.078.016a1,1,0,0,1,.5.165A.422.422,0,0,1,1.5-.378.433.433,0,0,1,1.312,0,.933.933,0,0,1,.8.117,1.579,1.579,0,0,1,.484.084,1.365,1.365,0,0,1,.172.018V-.361a.9.9,0,0,0,.281.115,1.322,1.322,0,0,0,.313.033.428.428,0,0,0,.2-.033.15.15,0,0,0,.078-.132A.12.12,0,0,0,1-.477.563.563,0,0,0,.8-.526L.719-.543A.774.774,0,0,1,.266-.691a.431.431,0,0,1-.125-.346A.419.419,0,0,1,.3-1.4a.817.817,0,0,1,.5-.132,1.31,1.31,0,0,1,.281.033c.1.012.207.029.313.049Z" transform="translate(-0.141 1.531)" fill="#1a6f5d"/>
      </g>
      <g id="Group_765" data-name="Group 765" transform="translate(25.051 552.503)">
        <path id="Path_683" data-name="Path 683" d="M1.734-.842V.114H1.25V-.612a1.882,1.882,0,0,0-.016-.28.572.572,0,0,0-.016-.132.171.171,0,0,0-.078-.066.2.2,0,0,0-.109-.033.294.294,0,0,0-.25.132A.573.573,0,0,0,.7-.661V.114H.234V-2.078H.7v.84a.761.761,0,0,1,.234-.2A.591.591,0,0,1,1.2-1.5a.471.471,0,0,1,.391.165.751.751,0,0,1,.141.494Z" transform="translate(-0.234 2.078)" fill="#1a6f5d"/>
      </g>
      <g id="Group_766" data-name="Group 766" transform="translate(26.891 553.08)">
        <path id="Path_684" data-name="Path 684" d="M.906-.625a.438.438,0,0,0-.234.049.177.177,0,0,0-.078.165.174.174,0,0,0,.063.148.263.263,0,0,0,.172.049.266.266,0,0,0,.219-.1.365.365,0,0,0,.094-.264V-.625Zm.719-.2V.084H1.141V-.147A.577.577,0,0,1,.922.067.7.7,0,0,1,.641.117.514.514,0,0,1,.266-.015.524.524,0,0,1,.125-.394.438.438,0,0,1,.3-.79.991.991,0,0,1,.859-.922h.281V-.971a.174.174,0,0,0-.094-.165A.439.439,0,0,0,.781-1.2a1.37,1.37,0,0,0-.3.033,1.018,1.018,0,0,0-.234.1v-.379a1.626,1.626,0,0,1,.313-.066c.1-.008.2-.016.3-.016a.843.843,0,0,1,.578.165.7.7,0,0,1,.188.544Z" transform="translate(-0.125 1.531)" fill="#1a6f5d"/>
      </g>
      <g id="Group_767" data-name="Group 767" transform="translate(28.844 553.08)">
        <path id="Path_685" data-name="Path 685" d="M1.734-.872V.084H1.25V-.658a1.7,1.7,0,0,0-.016-.264.572.572,0,0,0-.016-.132.171.171,0,0,0-.078-.066.2.2,0,0,0-.109-.033.294.294,0,0,0-.25.132A.573.573,0,0,0,.7-.691V.084H.234V-1.5H.7v.231a.761.761,0,0,1,.234-.2A.591.591,0,0,1,1.2-1.531a.471.471,0,0,1,.391.165.751.751,0,0,1,.141.494Z" transform="translate(-0.234 1.531)" fill="#1a6f5d"/>
      </g>
      <g id="Group_768" data-name="Group 768" transform="translate(30.789 552.503)">
        <path id="Path_686" data-name="Path 686" d="M.234-2.078H.7V-.892l.547-.577h.563l-.734.725.8.857H1.3L.7-.546V.114H.234Z" transform="translate(-0.234 2.078)" fill="#1a6f5d"/>
      </g>
      <g id="Group_769" data-name="Group 769" transform="translate(33.469 553.08)">
        <path id="Path_687" data-name="Path 687" d="M1.391-1.449v.4a1.144,1.144,0,0,0-.3-.115A1.259,1.259,0,0,0,.828-1.2a.366.366,0,0,0-.2.049.109.109,0,0,0-.062.1.11.11,0,0,0,.047.1A.381.381,0,0,0,.8-.905l.078.016a1,1,0,0,1,.5.165A.422.422,0,0,1,1.5-.378.433.433,0,0,1,1.312,0,.933.933,0,0,1,.8.117,1.579,1.579,0,0,1,.484.084,1.365,1.365,0,0,1,.172.018V-.361a.9.9,0,0,0,.281.115,1.322,1.322,0,0,0,.313.033.428.428,0,0,0,.2-.033.15.15,0,0,0,.078-.132A.12.12,0,0,0,1-.477.563.563,0,0,0,.8-.526L.719-.543A.774.774,0,0,1,.266-.691a.431.431,0,0,1-.125-.346A.419.419,0,0,1,.3-1.4a.817.817,0,0,1,.5-.132,1.31,1.31,0,0,1,.281.033c.1.012.207.029.313.049Z" transform="translate(-0.141 1.531)" fill="#1a6f5d"/>
      </g>
      <g id="Group_770" data-name="Group 770" transform="translate(35.187 552.503)">
        <path id="Path_688" data-name="Path 688" d="M.234-1.468H.7V.114H.234Zm0-.61H.7v.412H.234Z" transform="translate(-0.234 2.078)" fill="#1a6f5d"/>
      </g>
      <g id="Group_771" data-name="Group 771" transform="translate(36.125 553.08)">
        <path id="Path_689" data-name="Path 689" d="M1.734-.872V.084H1.25V-.658a1.7,1.7,0,0,0-.016-.264.572.572,0,0,0-.016-.132.171.171,0,0,0-.078-.066.2.2,0,0,0-.109-.033.294.294,0,0,0-.25.132A.573.573,0,0,0,.7-.691V.084H.234V-1.5H.7v.231a.761.761,0,0,1,.234-.2A.591.591,0,0,1,1.2-1.531a.471.471,0,0,1,.391.165.751.751,0,0,1,.141.494Z" transform="translate(-0.234 1.531)" fill="#1a6f5d"/>
      </g>
      <g id="Group_772" data-name="Group 772" transform="translate(37.961 553.08)">
        <path id="Path_690" data-name="Path 690" d="M1.25-.18a.737.737,0,0,1-.234.2A.5.5,0,0,1,.75.084.555.555,0,0,1,.3-.147.919.919,0,0,1,.125-.724.928.928,0,0,1,.3-1.3.566.566,0,0,1,.75-1.531a.544.544,0,0,1,.266.066.863.863,0,0,1,.234.2V-1.5h.484V-.081A.714.714,0,0,1,1.5.5.95.95,0,0,1,.844.71,1.31,1.31,0,0,1,.563.677,1.069,1.069,0,0,1,.313.611v-.4A1.016,1.016,0,0,0,.547.331.66.66,0,0,0,.8.38.467.467,0,0,0,1.141.265.5.5,0,0,0,1.25-.081ZM.938-1.169A.267.267,0,0,0,.7-1.053a.573.573,0,0,0-.078.33A.556.556,0,0,0,.7-.394a.258.258,0,0,0,.234.115.249.249,0,0,0,.219-.115.5.5,0,0,0,.094-.33.518.518,0,0,0-.094-.33A.259.259,0,0,0,.938-1.169Z" transform="translate(-0.125 1.531)" fill="#1a6f5d"/>
      </g>
      <g id="Group_773" data-name="Group 773" transform="translate(40.031 552.503)">
        <path id="Path_691" data-name="Path 691" d="M1.734-.842V.114H1.25V-.612a1.882,1.882,0,0,0-.016-.28.572.572,0,0,0-.016-.132.171.171,0,0,0-.078-.066.2.2,0,0,0-.109-.033.294.294,0,0,0-.25.132A.573.573,0,0,0,.7-.661V.114H.234V-2.078H.7v.84a.761.761,0,0,1,.234-.2A.591.591,0,0,1,1.2-1.5a.471.471,0,0,1,.391.165.751.751,0,0,1,.141.494Z" transform="translate(-0.234 2.078)" fill="#1a6f5d"/>
      </g>
      <g id="Group_774" data-name="Group 774" transform="translate(0 555.387)">
        <path id="Path_692" data-name="Path 692" d="M1.219-2.078v.33H.953A.206.206,0,0,0,.8-1.7a.189.189,0,0,0-.031.132v.1h.406v.363H.766V.113H.3V-1.106H.047v-.363H.3v-.1a.492.492,0,0,1,.125-.379.6.6,0,0,1,.422-.132Z" transform="translate(-0.047 2.078)" fill="#1a6f5d"/>
      </g>
      <g id="Group_775" data-name="Group 775" transform="translate(1.379 555.964)">
        <path id="Path_693" data-name="Path 693" d="M1.344-1.07A.3.3,0,0,0,1.219-1.1a.693.693,0,0,0-.125-.016.366.366,0,0,0-.3.132A.546.546,0,0,0,.7-.641V.084H.234V-1.5H.7v.264a.645.645,0,0,1,.2-.214.529.529,0,0,1,.3-.082H1.25a.717.717,0,0,1,.094.016Z" transform="translate(-0.234 1.531)" fill="#1a6f5d"/>
      </g>
      <g id="Group_776" data-name="Group 776" transform="translate(2.617 555.964)">
        <path id="Path_694" data-name="Path 694" d="M.938-1.169a.312.312,0,0,0-.25.115.606.606,0,0,0-.078.346.676.676,0,0,0,.078.363.3.3,0,0,0,.25.115.267.267,0,0,0,.234-.115.607.607,0,0,0,.094-.363.546.546,0,0,0-.094-.346A.277.277,0,0,0,.938-1.169Zm0-.363a.812.812,0,0,1,.609.231.8.8,0,0,1,.219.593.816.816,0,0,1-.219.61A.836.836,0,0,1,.938.117.824.824,0,0,1,.328-.1a.842.842,0,0,1-.2-.61.826.826,0,0,1,.2-.593A.8.8,0,0,1,.938-1.531Z" transform="translate(-0.125 1.531)" fill="#1a6f5d"/>
      </g>
      <g id="Group_777" data-name="Group 777" transform="translate(4.605 555.964)">
        <path id="Path_695" data-name="Path 695" d="M1.609-1.235a.58.58,0,0,1,.219-.214.5.5,0,0,1,.281-.082.5.5,0,0,1,.391.165.751.751,0,0,1,.141.494V.084H2.156V-.839a.426.426,0,0,0-.047-.231.171.171,0,0,0-.156-.082.237.237,0,0,0-.2.115.606.606,0,0,0-.078.346V.084H1.188V-.74a.709.709,0,0,0-.047-.33A.139.139,0,0,0,1-1.152a.244.244,0,0,0-.219.132A.573.573,0,0,0,.7-.691V.084H.234V-1.5H.7v.231a.716.716,0,0,1,.2-.2.553.553,0,0,1,.25-.066.446.446,0,0,1,.266.082.567.567,0,0,1,.188.214Z" transform="translate(-0.234 1.531)" fill="#1a6f5d"/>
      </g>
      <g id="Group_778" data-name="Group 778" transform="translate(8.203 555.552)">
        <path id="Path_696" data-name="Path 696" d="M.75-1.922v.445h.5v.363H.75v.676a.259.259,0,0,0,.031.148.289.289,0,0,0,.172.033H1.2V.1H.8A.58.58,0,0,1,.391-.01.66.66,0,0,1,.281-.439v-.676H.031v-.363h.25v-.445Z" transform="translate(-0.031 1.922)" fill="#1a6f5d"/>
      </g>
      <g id="Group_779" data-name="Group 779" transform="translate(9.711 555.387)">
        <path id="Path_697" data-name="Path 697" d="M1.734-.842V.114H1.25V-.612a1.882,1.882,0,0,0-.016-.28.572.572,0,0,0-.016-.132.171.171,0,0,0-.078-.066.2.2,0,0,0-.109-.033.294.294,0,0,0-.25.132A.573.573,0,0,0,.7-.661V.114H.234V-2.078H.7v.84a.761.761,0,0,1,.234-.2A.591.591,0,0,1,1.2-1.5a.471.471,0,0,1,.391.165.751.751,0,0,1,.141.494Z" transform="translate(-0.234 2.078)" fill="#1a6f5d"/>
      </g>
      <g id="Group_780" data-name="Group 780" transform="translate(11.551 555.964)">
        <path id="Path_698" data-name="Path 698" d="M1.719-.707v.148H.609A.412.412,0,0,0,.719-.3a.46.46,0,0,0,.3.082,1.05,1.05,0,0,0,.313-.049,2.433,2.433,0,0,0,.328-.132v.379a1.884,1.884,0,0,1-.344.1A1.978,1.978,0,0,1,.969.117.845.845,0,0,1,.344-.1a.8.8,0,0,1-.219-.61A.786.786,0,0,1,.344-1.3a.8.8,0,0,1,.609-.231A.7.7,0,0,1,1.5-1.3a.8.8,0,0,1,.219.593ZM1.234-.872A.333.333,0,0,0,1.156-1.1a.266.266,0,0,0-.219-.1.323.323,0,0,0-.219.082.36.36,0,0,0-.109.247Z" transform="translate(-0.125 1.531)" fill="#1a6f5d"/>
      </g>
      <g id="Group_781" data-name="Group 781" transform="translate(14.48 555.47)">
        <path id="Path_699" data-name="Path 699" d="M.25-2H.828L1.547-.55V-2h.484V.109H1.469L.734-1.341V.109H.25Z" transform="translate(-0.25 2)" fill="#1a6f5d"/>
      </g>
      <g id="Group_782" data-name="Group 782" transform="translate(16.644 555.964)">
        <path id="Path_700" data-name="Path 700" d="M.938-1.169a.312.312,0,0,0-.25.115.606.606,0,0,0-.078.346.676.676,0,0,0,.078.363.3.3,0,0,0,.25.115.267.267,0,0,0,.234-.115.607.607,0,0,0,.094-.363.546.546,0,0,0-.094-.346A.277.277,0,0,0,.938-1.169Zm0-.363a.812.812,0,0,1,.609.231.8.8,0,0,1,.219.593.816.816,0,0,1-.219.61A.836.836,0,0,1,.938.117.824.824,0,0,1,.328-.1a.842.842,0,0,1-.2-.61.826.826,0,0,1,.2-.593A.8.8,0,0,1,.938-1.531Z" transform="translate(-0.125 1.531)" fill="#1a6f5d"/>
      </g>
      <g id="Group_783" data-name="Group 783" transform="translate(18.617 555.997)">
        <path id="Path_701" data-name="Path 701" d="M.219-.528V-1.5H.688V-.478a.182.182,0,0,0,.047.115.256.256,0,0,0,.078.082.293.293,0,0,0,.109.016.249.249,0,0,0,.219-.115.5.5,0,0,0,.094-.33V-1.5h.484V.082H1.234V-.149A.707.707,0,0,1,1,.065.605.605,0,0,1,.75.115.5.5,0,0,1,.344-.05.755.755,0,0,1,.219-.528Z" transform="translate(-0.219 1.5)" fill="#1a6f5d"/>
      </g>
      <g id="Group_784" data-name="Group 784" transform="translate(20.578 555.964)">
        <path id="Path_702" data-name="Path 702" d="M1.734-.872V.084H1.25V-.658a1.7,1.7,0,0,0-.016-.264.572.572,0,0,0-.016-.132.171.171,0,0,0-.078-.066.2.2,0,0,0-.109-.033.294.294,0,0,0-.25.132A.573.573,0,0,0,.7-.691V.084H.234V-1.5H.7v.231a.761.761,0,0,1,.234-.2A.591.591,0,0,1,1.2-1.531a.471.471,0,0,1,.391.165.751.751,0,0,1,.141.494Z" transform="translate(-0.234 1.531)" fill="#1a6f5d"/>
      </g>
      <g id="Group_785" data-name="Group 785" transform="translate(23.492 555.47)">
        <path id="Path_703" data-name="Path 703" d="M.25-2h.859a.849.849,0,0,1,.578.181.664.664,0,0,1,.2.511.652.652,0,0,1-.2.511.829.829,0,0,1-.578.181H.766V.109H.25Zm.516.4v.593h.281a.358.358,0,0,0,.234-.066.326.326,0,0,0,.078-.231.272.272,0,0,0-.078-.214A.322.322,0,0,0,1.047-1.6Z" transform="translate(-0.25 2)" fill="#1a6f5d"/>
      </g>
      <g id="Group_786" data-name="Group 786" transform="translate(25.48 555.964)">
        <path id="Path_704" data-name="Path 704" d="M1.344-1.07A.3.3,0,0,0,1.219-1.1a.693.693,0,0,0-.125-.016.366.366,0,0,0-.3.132A.546.546,0,0,0,.7-.641V.084H.234V-1.5H.7v.264a.645.645,0,0,1,.2-.214.529.529,0,0,1,.3-.082H1.25a.717.717,0,0,1,.094.016Z" transform="translate(-0.234 1.531)" fill="#1a6f5d"/>
      </g>
      <g id="Group_787" data-name="Group 787" transform="translate(26.723 555.964)">
        <path id="Path_705" data-name="Path 705" d="M.938-1.169a.312.312,0,0,0-.25.115.606.606,0,0,0-.078.346.676.676,0,0,0,.078.363.3.3,0,0,0,.25.115.267.267,0,0,0,.234-.115.607.607,0,0,0,.094-.363.546.546,0,0,0-.094-.346A.277.277,0,0,0,.938-1.169Zm0-.363a.812.812,0,0,1,.609.231.8.8,0,0,1,.219.593.816.816,0,0,1-.219.61A.836.836,0,0,1,.938.117.824.824,0,0,1,.328-.1a.842.842,0,0,1-.2-.61.826.826,0,0,1,.2-.593A.8.8,0,0,1,.938-1.531Z" transform="translate(-0.125 1.531)" fill="#1a6f5d"/>
      </g>
      <g id="Group_788" data-name="Group 788" transform="translate(28.379 555.387)">
        <path id="Path_706" data-name="Path 706" d="M.234-1.468H.7V.081A.751.751,0,0,1,.563.575.533.533,0,0,1,.141.74H-.094V.41h.078A.226.226,0,0,0,.172.344.416.416,0,0,0,.234.081Zm0-.61H.7v.412H.234Z" transform="translate(0.094 2.078)" fill="#1a6f5d"/>
      </g>
      <g id="Group_789" data-name="Group 789" transform="translate(29.535 555.964)">
        <path id="Path_707" data-name="Path 707" d="M1.719-.707v.148H.609A.412.412,0,0,0,.719-.3a.46.46,0,0,0,.3.082,1.05,1.05,0,0,0,.313-.049,2.433,2.433,0,0,0,.328-.132v.379a1.884,1.884,0,0,1-.344.1A1.978,1.978,0,0,1,.969.117.845.845,0,0,1,.344-.1a.8.8,0,0,1-.219-.61A.786.786,0,0,1,.344-1.3a.8.8,0,0,1,.609-.231A.7.7,0,0,1,1.5-1.3a.8.8,0,0,1,.219.593ZM1.234-.872A.333.333,0,0,0,1.156-1.1a.266.266,0,0,0-.219-.1.323.323,0,0,0-.219.082.36.36,0,0,0-.109.247Z" transform="translate(-0.125 1.531)" fill="#1a6f5d"/>
      </g>
      <g id="Group_790" data-name="Group 790" transform="translate(31.391 555.964)">
        <path id="Path_708" data-name="Path 708" d="M1.438-1.449v.412a.936.936,0,0,0-.2-.1.658.658,0,0,0-.2-.033.416.416,0,0,0-.312.132.462.462,0,0,0-.109.33.537.537,0,0,0,.109.363.435.435,0,0,0,.312.115A.6.6,0,0,0,1.25-.262a.866.866,0,0,0,.188-.115V.034A.9.9,0,0,1,1.2.1,2.026,2.026,0,0,1,.984.117.9.9,0,0,1,.344-.1a.8.8,0,0,1-.219-.61A.786.786,0,0,1,.344-1.3a.875.875,0,0,1,.641-.231A.828.828,0,0,1,1.2-1.5a1.978,1.978,0,0,1,.234.049Z" transform="translate(-0.125 1.531)" fill="#1a6f5d"/>
      </g>
      <g id="Group_791" data-name="Group 791" transform="translate(32.918 555.552)">
        <path id="Path_709" data-name="Path 709" d="M.75-1.922v.445h.5v.363H.75v.676a.259.259,0,0,0,.031.148.289.289,0,0,0,.172.033H1.2V.1H.8A.58.58,0,0,1,.391-.01.66.66,0,0,1,.281-.439v-.676H.031v-.363h.25v-.445Z" transform="translate(-0.031 1.922)" fill="#1a6f5d"/>
      </g>
    </g>
  </g>
</svg>
