<svg xmlns="http://www.w3.org/2000/svg" xmlns:xlink="http://www.w3.org/1999/xlink" width="220" height="246" viewBox="0 0 220 246">
  <defs>
    <clipPath id="clip-path">
      <rect id="Rectangle_146" data-name="Rectangle 146" width="220" height="246" transform="translate(4738 1712)" fill="#fff" stroke="#707070" stroke-width="1"/>
    </clipPath>
  </defs>
  <g id="Mask_Group_5" data-name="Mask Group 5" transform="translate(-4738 -1712)" clip-path="url(#clip-path)">
    <g id="noun-ent-3981844_1_" data-name="noun-ent-3981844 (1)" transform="translate(4738 1719.694)">
      <path id="Path_796" data-name="Path 796" d="M231.249,226.315H203.308a3.658,3.658,0,0,1-3.838-3.018l-.052-.331a10.579,10.579,0,0,1-.1-1.277l.026-5.308c.026-3.26.052-6.52.052-9.78a23.323,23.323,0,0,0-.231-3.789,4.129,4.129,0,0,0-.283-1.035,7.528,7.528,0,0,0-1.314-.066l-8.7.155q-6.453.131-12.9.22l-1.725.044a66.014,66.014,0,0,1-6.876-.089c-6.362-.529-11.23-3.171-14.114-7.688a10.67,10.67,0,0,1-1.571-6.563q.311-4.527.542-9.054a16.617,16.617,0,0,1-2.191-.771,8.979,8.979,0,0,1-5.458-5.925,7.555,7.555,0,0,1,2.241-7.093,16.978,16.978,0,0,1,1.7-1.5,32.664,32.664,0,0,1-5.536-1.916,16.534,16.534,0,0,1-3.734-2.334c-2.936-2.445-3.529-5.683-1.6-8.9l2.755-4.582c2.807-4.691,5.614-9.383,8.473-14.053a13.9,13.9,0,0,1,3.116-3.567A43.776,43.776,0,0,1,180.8,118.076a39.51,39.51,0,0,1,13.907,2.754c14.216,5.726,25.213,13.965,32.682,24.537a34.586,34.586,0,0,1,6.1,17.731c1.134,14.206,1.288,28.613,1.469,42.555q.075,5.78.154,11.564c.026,1.321.026,2.643,0,3.986v1.828a3.609,3.609,0,0,1-3.863,3.282Zm-24.208-6.607h20.37c0-.815,0-1.609-.024-2.424-.078-3.853-.1-7.731-.155-11.586-.155-13.832-.335-28.149-1.441-42.158a28.88,28.88,0,0,0-5.023-14.779c-6.746-9.559-16.353-16.74-29.359-21.961a31.063,31.063,0,0,0-10.815-2.136,35.194,35.194,0,0,0-23.358,8.239,6.858,6.858,0,0,0-1.545,1.784c-2.859,4.67-5.642,9.34-8.449,14.009l-2.729,4.6c-.413.684-.335.75.13,1.146a8.63,8.63,0,0,0,1.982,1.234,29.533,29.533,0,0,0,8.524,2.223c.592.089,1.186.222,1.752.353l.514.111a3.48,3.48,0,0,1,2.885,2.907l.026.353a3.139,3.139,0,0,1-1.314,2.8l-1.726,1.277c-.54.419-1.132.815-1.7,1.212a23.439,23.439,0,0,0-2.885,2.247,1.642,1.642,0,0,0-.592,1.519,2.269,2.269,0,0,0,1.39,1.366,11.555,11.555,0,0,0,1.573.529c.642.2,1.286.4,1.93.639a4.424,4.424,0,0,1,3.014,3.964c-.155,3.656-.387,7.313-.618,10.969a4.887,4.887,0,0,0,.644,3.04c1.623,2.578,4.274,3.964,8.06,4.273a58.055,58.055,0,0,0,5.923.066l1.778-.044c4.3-.066,8.576-.154,12.877-.22l8.706-.153c5.51-.089,8.575,2.048,9.374,6.74a27.55,27.55,0,0,1,.335,4.735c0,3.282-.026,6.542-.052,9.825Zm109.09,6.563H254.065a3.646,3.646,0,0,1-3.863-3.127l-.026-.4c-.026-.4-.052-.793-.052-1.189l.13-18.526q.194-23.855.309-47.733v-2.225a71.11,71.11,0,0,1,.722-12.51c.953-5.354,2.729-12.292,8.06-18.415a27.307,27.307,0,0,1,13.546-8.172,35.077,35.077,0,0,0,11.487-5.265,5.83,5.83,0,0,0,1.6-7.6,5.431,5.431,0,0,0-5.614-1.894,29.825,29.825,0,0,0-5.614,2.466,87.7,87.7,0,0,1-19.934,8.548c-9.916,2.643-19.316,2.225-27.944-1.234a40.636,40.636,0,0,1-8.369-4.339c-5-3.567-10.946-5.242-16.122-6.387a44.257,44.257,0,0,0-26.887,2.005c-13.032,5.33-22.149,12.554-27.918,22.071a75.367,75.367,0,0,0-6.979,16.674l-.385,1.19a3.769,3.769,0,0,1-3.453,2.4,15.458,15.458,0,0,1-11.794-3.964,11.1,11.1,0,0,1-3.064-10.86,25.737,25.737,0,0,1,2.807-6.938c5.253-8.921,11.1-19.627,14.782-31.257a66.665,66.665,0,0,0,1.958-8.788,17.583,17.583,0,0,0,.1-3.722l-.026-.728c-.54-18.568,6.052-34.735,19.6-48.041,9.786-9.625,22.1-16.74,37.575-21.806A130.688,130.688,0,0,1,248.629.319c27.017,1.939,49.732,10.837,67.524,26.454,13.187,11.586,20.99,25.683,23.153,41.895a58.826,58.826,0,0,1-.1,16.057,11.3,11.3,0,0,0,0,2.269,21.376,21.376,0,0,1,.026,2.576c-.54,8.415-3.63,16.3-6.232,22.225-1.854,4.229-4.095,8.348-6.232,12.357l-1.34,2.489a9.936,9.936,0,0,1-1.984,2.4,9.31,9.31,0,0,0-.694.706l-.439.551a6.12,6.12,0,0,0-1.031,1.475,24.533,24.533,0,0,0-1.21,6.322c-.078,21.828-.052,43.678-.052,65.506v19.34a3.67,3.67,0,0,1-3.889,3.325Zm-58.282-6.607h54.393V203.628q0-32.776.052-65.53a28.8,28.8,0,0,1,1.416-7.841,10.948,10.948,0,0,1,2.189-3.7l.387-.462a12.52,12.52,0,0,1,1.366-1.432,6.392,6.392,0,0,0,.72-.749l1.34-2.512c2.087-3.876,4.276-7.907,6.027-11.893,2.576-5.838,5.253-12.8,5.743-20.265a15.4,15.4,0,0,0-.026-1.894,18.556,18.556,0,0,1,.052-3.371,53.757,53.757,0,0,0,.1-14.515c-1.956-14.737-9.013-27.533-20.988-38.04C294.163,16.949,273.1,8.712,247.984,6.9A121.521,121.521,0,0,0,201.5,12.7c-14.292,4.648-25.573,11.19-34.509,19.956C154.575,44.835,148.78,59.086,149.271,76.2l.026.682a24.25,24.25,0,0,1-.181,4.89,75.942,75.942,0,0,1-2.137,9.538c-3.863,12.2-9.914,23.283-15.348,32.512a20.3,20.3,0,0,0-2.139,5.33,5.214,5.214,0,0,0,1.314,5.154,6.147,6.147,0,0,0,2.833,1.519,76.151,76.151,0,0,1,7.109-16.5c6.541-10.86,16.844-19.052,31.445-25.022a52.9,52.9,0,0,1,32.166-2.445c5.642,1.255,12.879,3.282,19.11,7.708a32.21,32.21,0,0,0,6.7,3.437c6.928,2.774,14.242,3.083,22.354.924a79.449,79.449,0,0,0,18.028-7.8,37.263,37.263,0,0,1,7.211-3.149c5.512-1.674,12.232.573,15.039,5a11.827,11.827,0,0,1-3.425,15.772,43.1,43.1,0,0,1-14.113,6.52,19.132,19.132,0,0,0-9.735,5.836c-3.375,3.877-5.409,8.634-6.619,15.463a64.894,64.894,0,0,0-.644,11.5v2.292q-.078,23.888-.309,47.753Z" transform="translate(-119.261 0.015)" fill="#1a6f5d"/>
      <g id="Group_864" data-name="Group 864" transform="translate(0.4 251.75)">
        <path id="Path_797" data-name="Path 797" d="M9.346-12.443a6.788,6.788,0,0,1-1.391.449,7.365,7.365,0,0,1-1.51.152,5.692,5.692,0,0,1-3.715-1.12A3.732,3.732,0,0,1,1.36-16.007a3.724,3.724,0,0,1,1.369-3.045,5.691,5.691,0,0,1,3.715-1.12,7.365,7.365,0,0,1,1.51.152,6.676,6.676,0,0,1,1.391.443v1.659a5.544,5.544,0,0,0-1.332-.57,5.079,5.079,0,0,0-1.377-.184,2.822,2.822,0,0,0-2.035.709,2.58,2.58,0,0,0-.74,1.956A2.589,2.589,0,0,0,4.6-14.05a2.816,2.816,0,0,0,2.035.709,5.018,5.018,0,0,0,1.377-.184A5.64,5.64,0,0,0,9.346-14.1Z" transform="translate(-1.36 20.172)" fill="#1a6f5d"/>
      </g>
      <g id="Group_865" data-name="Group 865" transform="translate(10.286 253.75)">
        <path id="Path_798" data-name="Path 798" d="M7.514-13.442a3.281,3.281,0,0,0-.592-.177,3.022,3.022,0,0,0-.585-.057A1.807,1.807,0,0,0,5-13.2a1.871,1.871,0,0,0-.466,1.367v2.773H2.281v-6.026h2.25v.994a2.723,2.723,0,0,1,1-.867,3.076,3.076,0,0,1,1.347-.272c.074,0,.155,0,.244.013s.216.016.385.032Z" transform="translate(-2.281 15.234)" fill="#1a6f5d"/>
      </g>
      <g id="Group_866" data-name="Group 866" transform="translate(16.111 253.75)">
        <path id="Path_799" data-name="Path 799" d="M8.729-12.088v.544H3.467a1.373,1.373,0,0,0,.57,1.019,2.386,2.386,0,0,0,1.369.335,6.288,6.288,0,0,0,1.458-.177A7.872,7.872,0,0,0,8.4-10.911V-9.43a10.9,10.9,0,0,1-1.6.392A9.729,9.729,0,0,1,5.2-8.9a4.7,4.7,0,0,1-2.968-.829,2.8,2.8,0,0,1-1.058-2.336,2.821,2.821,0,0,1,1.036-2.317,4.419,4.419,0,0,1,2.864-.848,3.919,3.919,0,0,1,2.657.861,2.857,2.857,0,0,1,1,2.285Zm-2.317-.639a1.13,1.13,0,0,0-.377-.886,1.393,1.393,0,0,0-.97-.335A1.686,1.686,0,0,0,4-13.633a1.382,1.382,0,0,0-.511.905Z" transform="translate(-1.172 15.235)" fill="#1a6f5d"/>
      </g>
      <g id="Group_867" data-name="Group 867" transform="translate(24.845 253.75)">
        <path id="Path_800" data-name="Path 800" d="M4.858-11.772a2.213,2.213,0,0,0-1.066.2.653.653,0,0,0-.355.6.671.671,0,0,0,.289.576,1.366,1.366,0,0,0,.8.2,1.554,1.554,0,0,0,1.066-.386,1.257,1.257,0,0,0,.437-.975v-.222ZM8.292-12.5v3.437H6.027v-.893a2.879,2.879,0,0,1-1.021.8A3.425,3.425,0,0,1,3.629-8.9a2.75,2.75,0,0,1-1.776-.544,1.737,1.737,0,0,1-.681-1.418,1.669,1.669,0,0,1,.851-1.557A5.521,5.521,0,0,1,4.7-12.918H6.027v-.152a.7.7,0,0,0-.422-.665,3.062,3.062,0,0,0-1.317-.215,6.783,6.783,0,0,0-1.347.127,5.016,5.016,0,0,0-1.155.367v-1.469a14.3,14.3,0,0,1,1.451-.228A13.3,13.3,0,0,1,4.7-15.234a4.587,4.587,0,0,1,2.753.646A2.464,2.464,0,0,1,8.292-12.5Z" transform="translate(-1.172 15.234)" fill="#1a6f5d"/>
      </g>
      <g id="Group_868" data-name="Group 868" transform="translate(33.149 252.186)">
        <path id="Path_801" data-name="Path 801" d="M3.727-19.094v1.709H6.051V-16H3.727v2.557a.67.67,0,0,0,.192.563,1.42,1.42,0,0,0,.777.146H5.851v1.38H3.927a2.952,2.952,0,0,1-1.895-.475,2.028,2.028,0,0,1-.555-1.614V-16H.359v-1.38H1.477v-1.709Z" transform="translate(-0.359 19.094)" fill="#1a6f5d"/>
      </g>
      <g id="Group_869" data-name="Group 869" transform="translate(39.69 253.75)">
        <path id="Path_802" data-name="Path 802" d="M8.729-12.088v.544H3.467a1.373,1.373,0,0,0,.57,1.019,2.386,2.386,0,0,0,1.369.335,6.288,6.288,0,0,0,1.458-.177A7.872,7.872,0,0,0,8.4-10.911V-9.43a10.9,10.9,0,0,1-1.6.392A9.729,9.729,0,0,1,5.2-8.9a4.7,4.7,0,0,1-2.968-.829,2.8,2.8,0,0,1-1.058-2.336,2.821,2.821,0,0,1,1.036-2.317,4.419,4.419,0,0,1,2.864-.848,3.919,3.919,0,0,1,2.657.861,2.857,2.857,0,0,1,1,2.285Zm-2.317-.639a1.13,1.13,0,0,0-.377-.886,1.393,1.393,0,0,0-.97-.335A1.686,1.686,0,0,0,4-13.633a1.382,1.382,0,0,0-.511.905Z" transform="translate(-1.172 15.235)" fill="#1a6f5d"/>
      </g>
      <g id="Group_870" data-name="Group 870" transform="translate(48.445 251.553)">
        <path id="Path_803" data-name="Path 803" d="M6.518-17.428v-3.228H8.775v8.368H6.518v-.874a3.022,3.022,0,0,1-1.029.785,3.2,3.2,0,0,1-1.3.247,2.805,2.805,0,0,1-2.139-.886A3.179,3.179,0,0,1,1.219-15.3a3.184,3.184,0,0,1,.836-2.279,2.811,2.811,0,0,1,2.139-.886,3.146,3.146,0,0,1,1.3.253,3.083,3.083,0,0,1,1.029.779Zm-1.488,3.9a1.356,1.356,0,0,0,1.1-.449A2,2,0,0,0,6.518-15.3a1.973,1.973,0,0,0-.385-1.31,1.351,1.351,0,0,0-1.1-.456,1.36,1.36,0,0,0-1.1.456A1.993,1.993,0,0,0,3.55-15.3a2.015,2.015,0,0,0,.377,1.317A1.366,1.366,0,0,0,5.03-13.529Z" transform="translate(-1.219 20.657)" fill="#1a6f5d"/>
      </g>
      <g id="Group_871" data-name="Group 871" transform="translate(62.649 251.553)">
        <path id="Path_804" data-name="Path 804" d="M6.034-13.528a1.348,1.348,0,0,0,1.1-.449,2,2,0,0,0,.385-1.317,1.973,1.973,0,0,0-.385-1.31,1.343,1.343,0,0,0-1.1-.456,1.392,1.392,0,0,0-1.118.456,1.975,1.975,0,0,0-.385,1.31,1.975,1.975,0,0,0,.385,1.31A1.392,1.392,0,0,0,6.034-13.528Zm-1.5-3.9a3.064,3.064,0,0,1,1.029-.779,3.194,3.194,0,0,1,1.3-.253A2.816,2.816,0,0,1,9-17.573a3.192,3.192,0,0,1,.836,2.279A3.187,3.187,0,0,1,9-13.016a2.811,2.811,0,0,1-2.139.886,3.247,3.247,0,0,1-1.3-.247,3,3,0,0,1-1.029-.785v.874H2.281v-8.368h2.25Z" transform="translate(-2.281 20.656)" fill="#1a6f5d"/>
      </g>
      <g id="Group_872" data-name="Group 872" transform="translate(70.942 253.895)">
        <path id="Path_805" data-name="Path 805" d="M.328-14.875h2.25l1.895,4.089,1.613-4.089h2.25l-2.961,6.6A3.252,3.252,0,0,1,4.332-6.874a2.742,2.742,0,0,1-1.569.405h-1.3V-7.735h.7A1.684,1.684,0,0,0,3-7.893a1.029,1.029,0,0,0,.407-.557l.059-.165Z" transform="translate(-0.328 14.875)" fill="#1a6f5d"/>
      </g>
      <g id="Group_873" data-name="Group 873" transform="translate(84.847 251.895)">
        <path id="Path_806" data-name="Path 806" d="M2.5-19.812H5.2L8.613-14.3v-5.507h2.3v8.027H8.206L4.794-17.293v5.507H2.5Z" transform="translate(-2.5 19.812)" fill="#1a6f5d"/>
      </g>
      <g id="Group_874" data-name="Group 874" transform="translate(94.995 253.75)">
        <path id="Path_807" data-name="Path 807" d="M4.858-11.772a2.213,2.213,0,0,0-1.066.2.653.653,0,0,0-.355.6.671.671,0,0,0,.289.576,1.366,1.366,0,0,0,.8.2,1.554,1.554,0,0,0,1.066-.386,1.257,1.257,0,0,0,.437-.975v-.222ZM8.292-12.5v3.437H6.027v-.893a2.879,2.879,0,0,1-1.021.8A3.425,3.425,0,0,1,3.629-8.9a2.75,2.75,0,0,1-1.776-.544,1.737,1.737,0,0,1-.681-1.418,1.669,1.669,0,0,1,.851-1.557A5.521,5.521,0,0,1,4.7-12.918H6.027v-.152a.7.7,0,0,0-.422-.665,3.062,3.062,0,0,0-1.317-.215,6.783,6.783,0,0,0-1.347.127,5.016,5.016,0,0,0-1.155.367v-1.469a14.3,14.3,0,0,1,1.451-.228A13.3,13.3,0,0,1,4.7-15.234a4.587,4.587,0,0,1,2.753.646A2.464,2.464,0,0,1,8.292-12.5Z" transform="translate(-1.172 15.234)" fill="#1a6f5d"/>
      </g>
      <g id="Group_875" data-name="Group 875" transform="translate(104.209 251.553)">
        <path id="Path_808" data-name="Path 808" d="M2.281-18.314h2.25v6.026H2.281Zm0-2.342h2.25v1.57H2.281Z" transform="translate(-2.281 20.656)" fill="#1a6f5d"/>
      </g>
      <g id="Group_876" data-name="Group 876" transform="translate(107.788 251.553)">
        <path id="Path_809" data-name="Path 809" d="M5.985-20.656v1.266H4.741a1.141,1.141,0,0,0-.666.146.619.619,0,0,0-.185.513v.418H5.815v1.38H3.89v4.646H1.633v-4.646H.515v-1.38H1.633v-.418a1.675,1.675,0,0,1,.644-1.45,3.365,3.365,0,0,1,1.991-.475Z" transform="translate(-0.515 20.656)" fill="#1a6f5d"/>
      </g>
      <g id="Group_877" data-name="Group 877" transform="translate(118.812 251.895)">
        <path id="Path_810" data-name="Path 810" d="M2.5-19.812H4.92v8.027H2.5Z" transform="translate(-2.5 19.812)" fill="#1a6f5d"/>
      </g>
      <g id="Group_878" data-name="Group 878" transform="translate(123.499 251.553)">
        <path id="Path_811" data-name="Path 811" d="M2.281-20.656h2.25V-16.1l2.59-2.216h2.62L6.3-15.548l3.708,3.26H7.285L4.531-14.8v2.513H2.281Z" transform="translate(-2.281 20.656)" fill="#1a6f5d"/>
      </g>
      <g id="Group_879" data-name="Group 879" transform="translate(132.064 251.553)">
        <path id="Path_812" data-name="Path 812" d="M2.281-20.656h2.25V-16.1l2.59-2.216h2.62L6.3-15.548l3.708,3.26H7.285L4.531-14.8v2.513H2.281Z" transform="translate(-2.281 20.656)" fill="#1a6f5d"/>
      </g>
      <g id="Group_880" data-name="Group 880" transform="translate(140.102 253.75)">
        <path id="Path_813" data-name="Path 813" d="M8.729-12.088v.544H3.467a1.373,1.373,0,0,0,.57,1.019,2.386,2.386,0,0,0,1.369.335,6.288,6.288,0,0,0,1.458-.177A7.872,7.872,0,0,0,8.4-10.911V-9.43a10.9,10.9,0,0,1-1.6.392A9.729,9.729,0,0,1,5.2-8.9a4.7,4.7,0,0,1-2.968-.829,2.8,2.8,0,0,1-1.058-2.336,2.821,2.821,0,0,1,1.036-2.317,4.419,4.419,0,0,1,2.864-.848,3.919,3.919,0,0,1,2.657.861,2.857,2.857,0,0,1,1,2.285Zm-2.317-.639a1.13,1.13,0,0,0-.377-.886,1.393,1.393,0,0,0-.97-.335A1.686,1.686,0,0,0,4-13.633a1.382,1.382,0,0,0-.511.905Z" transform="translate(-1.172 15.235)" fill="#1a6f5d"/>
      </g>
      <g id="Group_881" data-name="Group 881" transform="translate(149.361 253.75)">
        <path id="Path_814" data-name="Path 814" d="M7.514-13.442a3.281,3.281,0,0,0-.592-.177,3.022,3.022,0,0,0-.585-.057A1.807,1.807,0,0,0,5-13.2a1.871,1.871,0,0,0-.466,1.367v2.773H2.281v-6.026h2.25v.994a2.723,2.723,0,0,1,1-.867,3.076,3.076,0,0,1,1.347-.272c.074,0,.155,0,.244.013s.216.016.385.032Z" transform="translate(-2.281 15.234)" fill="#1a6f5d"/>
      </g>
      <g id="Group_882" data-name="Group 882" transform="translate(155.711 251.553)">
        <path id="Path_815" data-name="Path 815" d="M2.281-18.314h2.25v6.026H2.281Zm0-2.342h2.25v1.57H2.281Z" transform="translate(-2.281 20.656)" fill="#1a6f5d"/>
      </g>
      <g id="Group_883" data-name="Group 883" transform="translate(0 262.566)">
        <path id="Path_816" data-name="Path 816" d="M5.985-20.656v1.266H4.741a1.141,1.141,0,0,0-.666.146.619.619,0,0,0-.185.513v.418H5.815v1.38H3.89v4.646H1.633v-4.646H.515v-1.38H1.633v-.418a1.675,1.675,0,0,1,.644-1.45,3.365,3.365,0,0,1,1.991-.475Z" transform="translate(-0.515 20.656)" fill="#1a6f5d"/>
      </g>
      <g id="Group_884" data-name="Group 884" transform="translate(6.437 264.763)">
        <path id="Path_817" data-name="Path 817" d="M7.514-13.442a3.281,3.281,0,0,0-.592-.177,3.022,3.022,0,0,0-.585-.057A1.807,1.807,0,0,0,5-13.2a1.871,1.871,0,0,0-.466,1.367v2.773H2.281v-6.026h2.25v.994a2.723,2.723,0,0,1,1-.867,3.076,3.076,0,0,1,1.347-.272c.074,0,.155,0,.244.013s.216.016.385.032Z" transform="translate(-2.281 15.234)" fill="#1a6f5d"/>
      </g>
      <g id="Group_885" data-name="Group 885" transform="translate(12.262 264.763)">
        <path id="Path_818" data-name="Path 818" d="M5.05-13.854a1.413,1.413,0,0,0-1.14.462,1.968,1.968,0,0,0-.392,1.323A1.989,1.989,0,0,0,3.91-10.74a1.419,1.419,0,0,0,1.14.456,1.405,1.405,0,0,0,1.125-.456,2,2,0,0,0,.392-1.329,1.978,1.978,0,0,0-.392-1.323A1.4,1.4,0,0,0,5.05-13.854Zm0-1.38a4.351,4.351,0,0,1,2.842.842,2.848,2.848,0,0,1,1.021,2.323A2.852,2.852,0,0,1,7.892-9.74,4.368,4.368,0,0,1,5.05-8.9,4.4,4.4,0,0,1,2.2-9.74a2.841,2.841,0,0,1-1.029-2.33A2.837,2.837,0,0,1,2.2-14.392,4.38,4.38,0,0,1,5.05-15.234Z" transform="translate(-1.172 15.234)" fill="#1a6f5d"/>
      </g>
      <g id="Group_886" data-name="Group 886" transform="translate(21.619 264.763)">
        <path id="Path_819" data-name="Path 819" d="M8.792-14.088a2.915,2.915,0,0,1,1.014-.848,2.845,2.845,0,0,1,1.3-.3,2.461,2.461,0,0,1,1.843.646,2.534,2.534,0,0,1,.637,1.861v3.665H11.324v-3.285c0-.051.007-.122.007-.215a1.516,1.516,0,0,0-.222-.924.82.82,0,0,0-.7-.291,1.173,1.173,0,0,0-.992.456,2.151,2.151,0,0,0-.363,1.3v2.956H6.787V-12.2a2.611,2.611,0,0,0-.2-1.285.814.814,0,0,0-.718-.291,1.2,1.2,0,0,0-1.007.456,2.081,2.081,0,0,0-.348,1.3v2.963H2.25v-6.026H4.514v.886a2.765,2.765,0,0,1,.955-.772,2.7,2.7,0,0,1,1.184-.26,2.64,2.64,0,0,1,1.288.3,2.054,2.054,0,0,1,.851.842Z" transform="translate(-2.25 15.234)" fill="#1a6f5d"/>
      </g>
      <g id="Group_887" data-name="Group 887" transform="translate(38.626 263.199)">
        <path id="Path_820" data-name="Path 820" d="M3.727-19.094v1.709H6.051V-16H3.727v2.557a.67.67,0,0,0,.192.563,1.42,1.42,0,0,0,.777.146H5.851v1.38H3.927a2.952,2.952,0,0,1-1.895-.475,2.028,2.028,0,0,1-.555-1.614V-16H.359v-1.38H1.477v-1.709Z" transform="translate(-0.359 19.094)" fill="#1a6f5d"/>
      </g>
      <g id="Group_888" data-name="Group 888" transform="translate(45.69 262.566)">
        <path id="Path_821" data-name="Path 821" d="M9.364-15.953v3.665H7.1v-2.8a8.59,8.59,0,0,0-.044-1.082.963.963,0,0,0-.141-.437.863.863,0,0,0-.363-.291A1.164,1.164,0,0,0,6.041-17a1.393,1.393,0,0,0-1.11.468,1.9,1.9,0,0,0-.4,1.285v2.963H2.281v-8.368h2.25v3.228a3.5,3.5,0,0,1,1.081-.779,3.134,3.134,0,0,1,1.266-.253,2.471,2.471,0,0,1,1.85.646,2.534,2.534,0,0,1,.637,1.861Z" transform="translate(-2.281 20.656)" fill="#1a6f5d"/>
      </g>
      <g id="Group_889" data-name="Group 889" transform="translate(54.334 264.762)">
        <path id="Path_822" data-name="Path 822" d="M8.729-12.088v.544H3.467a1.373,1.373,0,0,0,.57,1.019,2.386,2.386,0,0,0,1.369.335,6.288,6.288,0,0,0,1.458-.177A7.872,7.872,0,0,0,8.4-10.911V-9.43a10.9,10.9,0,0,1-1.6.392A9.729,9.729,0,0,1,5.2-8.9a4.7,4.7,0,0,1-2.968-.829,2.8,2.8,0,0,1-1.058-2.336,2.821,2.821,0,0,1,1.036-2.317,4.419,4.419,0,0,1,2.864-.848,3.919,3.919,0,0,1,2.657.861,2.857,2.857,0,0,1,1,2.285Zm-2.317-.639a1.13,1.13,0,0,0-.377-.886,1.393,1.393,0,0,0-.97-.335A1.686,1.686,0,0,0,4-13.633a1.382,1.382,0,0,0-.511.905Z" transform="translate(-1.172 15.235)" fill="#1a6f5d"/>
      </g>
      <g id="Group_890" data-name="Group 890" transform="translate(68.179 262.908)">
        <path id="Path_823" data-name="Path 823" d="M2.5-19.812H5.2L8.613-14.3v-5.507h2.3v8.027H8.206L4.794-17.293v5.507H2.5Z" transform="translate(-2.5 19.812)" fill="#1a6f5d"/>
      </g>
      <g id="Group_891" data-name="Group 891" transform="translate(78.327 264.763)">
        <path id="Path_824" data-name="Path 824" d="M5.05-13.854a1.413,1.413,0,0,0-1.14.462,1.968,1.968,0,0,0-.392,1.323A1.989,1.989,0,0,0,3.91-10.74a1.419,1.419,0,0,0,1.14.456,1.405,1.405,0,0,0,1.125-.456,2,2,0,0,0,.392-1.329,1.978,1.978,0,0,0-.392-1.323A1.4,1.4,0,0,0,5.05-13.854Zm0-1.38a4.351,4.351,0,0,1,2.842.842,2.848,2.848,0,0,1,1.021,2.323A2.852,2.852,0,0,1,7.892-9.74,4.368,4.368,0,0,1,5.05-8.9,4.4,4.4,0,0,1,2.2-9.74a2.841,2.841,0,0,1-1.029-2.33A2.837,2.837,0,0,1,2.2-14.392,4.38,4.38,0,0,1,5.05-15.234Z" transform="translate(-1.172 15.234)" fill="#1a6f5d"/>
      </g>
      <g id="Group_892" data-name="Group 892" transform="translate(87.625 264.908)">
        <path id="Path_825" data-name="Path 825" d="M2.125-11.191v-3.684H4.39v.608c0,.326,0,.734-.007,1.228s-.007.823-.007.988a8.6,8.6,0,0,0,.044,1.044,1.051,1.051,0,0,0,.148.462.9.9,0,0,0,.363.291,1.228,1.228,0,0,0,.518.1,1.38,1.38,0,0,0,1.1-.462,1.9,1.9,0,0,0,.4-1.285v-2.975H9.208v6.026H6.951v-.874a3.378,3.378,0,0,1-1.073.785,3.137,3.137,0,0,1-1.258.247A2.505,2.505,0,0,1,2.762-9.33a2.536,2.536,0,0,1-.637-1.861Z" transform="translate(-2.125 14.875)" fill="#1a6f5d"/>
      </g>
      <g id="Group_893" data-name="Group 893" transform="translate(96.865 264.763)">
        <path id="Path_826" data-name="Path 826" d="M9.364-12.728v3.665H7.1v-2.8a8.52,8.52,0,0,0-.044-1.076.962.962,0,0,0-.141-.437.863.863,0,0,0-.363-.291,1.164,1.164,0,0,0-.511-.108,1.393,1.393,0,0,0-1.11.468,1.9,1.9,0,0,0-.4,1.285v2.963H2.281v-6.026h2.25v.886a3.5,3.5,0,0,1,1.081-.779,3.134,3.134,0,0,1,1.266-.253,2.471,2.471,0,0,1,1.85.646,2.534,2.534,0,0,1,.637,1.861Z" transform="translate(-2.281 15.234)" fill="#1a6f5d"/>
      </g>
      <g id="Group_894" data-name="Group 894" transform="translate(110.619 262.908)">
        <path id="Path_827" data-name="Path 827" d="M2.5-19.812H6.519a4.716,4.716,0,0,1,2.746.677,2.231,2.231,0,0,1,.962,1.937,2.25,2.25,0,0,1-.962,1.95,4.7,4.7,0,0,1-2.746.677H4.92v2.785H2.5Zm2.42,1.5v2.241H6.26a1.771,1.771,0,0,0,1.088-.291,1,1,0,0,0,.385-.836.965.965,0,0,0-.385-.823,1.782,1.782,0,0,0-1.088-.291Z" transform="translate(-2.5 19.812)" fill="#1a6f5d"/>
      </g>
      <g id="Group_895" data-name="Group 895" transform="translate(119.954 264.763)">
        <path id="Path_828" data-name="Path 828" d="M7.514-13.442a3.281,3.281,0,0,0-.592-.177,3.022,3.022,0,0,0-.585-.057A1.807,1.807,0,0,0,5-13.2a1.871,1.871,0,0,0-.466,1.367v2.773H2.281v-6.026h2.25v.994a2.723,2.723,0,0,1,1-.867,3.076,3.076,0,0,1,1.347-.272c.074,0,.155,0,.244.013s.216.016.385.032Z" transform="translate(-2.281 15.234)" fill="#1a6f5d"/>
      </g>
      <g id="Group_896" data-name="Group 896" transform="translate(125.779 264.763)">
        <path id="Path_829" data-name="Path 829" d="M5.05-13.854a1.413,1.413,0,0,0-1.14.462,1.968,1.968,0,0,0-.392,1.323A1.989,1.989,0,0,0,3.91-10.74a1.419,1.419,0,0,0,1.14.456,1.405,1.405,0,0,0,1.125-.456,2,2,0,0,0,.392-1.329,1.978,1.978,0,0,0-.392-1.323A1.4,1.4,0,0,0,5.05-13.854Zm0-1.38a4.351,4.351,0,0,1,2.842.842,2.848,2.848,0,0,1,1.021,2.323A2.852,2.852,0,0,1,7.892-9.74,4.368,4.368,0,0,1,5.05-8.9,4.4,4.4,0,0,1,2.2-9.74a2.841,2.841,0,0,1-1.029-2.33A2.837,2.837,0,0,1,2.2-14.392,4.38,4.38,0,0,1,5.05-15.234Z" transform="translate(-1.172 15.234)" fill="#1a6f5d"/>
      </g>
      <g id="Group_897" data-name="Group 897" transform="translate(133.641 262.566)">
        <path id="Path_830" data-name="Path 830" d="M.6-18.314h2.25V-12.4a2.418,2.418,0,0,1-.681,1.848,2.747,2.747,0,0,1-1.961.639H-.906v-1.266h.392a1.214,1.214,0,0,0,.881-.247A1.454,1.454,0,0,0,.6-12.4Zm0-2.342h2.25v1.57H.6Z" transform="translate(0.906 20.656)" fill="#1a6f5d"/>
      </g>
      <g id="Group_898" data-name="Group 898" transform="translate(139.038 264.762)">
        <path id="Path_831" data-name="Path 831" d="M8.729-12.088v.544H3.467a1.373,1.373,0,0,0,.57,1.019,2.386,2.386,0,0,0,1.369.335,6.288,6.288,0,0,0,1.458-.177A7.872,7.872,0,0,0,8.4-10.911V-9.43a10.9,10.9,0,0,1-1.6.392A9.729,9.729,0,0,1,5.2-8.9a4.7,4.7,0,0,1-2.968-.829,2.8,2.8,0,0,1-1.058-2.336,2.821,2.821,0,0,1,1.036-2.317,4.419,4.419,0,0,1,2.864-.848,3.919,3.919,0,0,1,2.657.861,2.857,2.857,0,0,1,1,2.285Zm-2.317-.639a1.13,1.13,0,0,0-.377-.886,1.393,1.393,0,0,0-.97-.335A1.686,1.686,0,0,0,4-13.633a1.382,1.382,0,0,0-.511.905Z" transform="translate(-1.172 15.235)" fill="#1a6f5d"/>
      </g>
      <g id="Group_899" data-name="Group 899" transform="translate(147.772 264.763)">
        <path id="Path_832" data-name="Path 832" d="M7.389-14.9v1.57a3.931,3.931,0,0,0-.925-.392,3.427,3.427,0,0,0-.955-.133,2.106,2.106,0,0,0-1.465.475,1.663,1.663,0,0,0-.526,1.31,1.679,1.679,0,0,0,.526,1.317,2.119,2.119,0,0,0,1.465.468,3.688,3.688,0,0,0,1-.133,3.048,3.048,0,0,0,.881-.4v1.576a7.117,7.117,0,0,1-1.073.247A6.782,6.782,0,0,1,5.228-8.9,4.745,4.745,0,0,1,2.245-9.74a2.792,2.792,0,0,1-1.073-2.33,2.778,2.778,0,0,1,1.073-2.323,4.725,4.725,0,0,1,2.983-.842,6.679,6.679,0,0,1,1.088.089,7.6,7.6,0,0,1,1.073.247Z" transform="translate(-1.172 15.234)" fill="#1a6f5d"/>
      </g>
      <g id="Group_900" data-name="Group 900" transform="translate(155.021 263.199)">
        <path id="Path_833" data-name="Path 833" d="M3.727-19.094v1.709H6.051V-16H3.727v2.557a.67.67,0,0,0,.192.563,1.42,1.42,0,0,0,.777.146H5.851v1.38H3.927a2.952,2.952,0,0,1-1.895-.475,2.028,2.028,0,0,1-.555-1.614V-16H.359v-1.38H1.477v-1.709Z" transform="translate(-0.359 19.094)" fill="#1a6f5d"/>
      </g>
    </g>
  </g>
</svg>
