<svg xmlns="http://www.w3.org/2000/svg" xmlns:xlink="http://www.w3.org/1999/xlink" width="450" height="481" viewBox="0 0 450 481">
  <defs>
    <clipPath id="clip-path">
      <rect id="Rectangle_148" data-name="Rectangle 148" width="450" height="481" transform="translate(4864 2390)" fill="#fff" stroke="#707070" stroke-width="1"/>
    </clipPath>
  </defs>
  <g id="Mask_Group_7" data-name="Mask Group 7" transform="translate(-4864 -2390)" clip-path="url(#clip-path)">
    <g id="noun-tooth-2044815" transform="translate(4883.728 2390)">
      <path id="Path_875" data-name="Path 875" d="M195.79,355.111c-5.281,33.083,15.7,83.244,38.607,109.343,11.933,13.589,24.291,20.769,35.758,20.769a13.529,13.529,0,0,0,10.654-4.767c6.856-8.256,3.394-24.24-1.854-48.447-7.056-32.552-16.726-77.143,2.757-100.59,9.863-11.87,26.357-17.64,50.887-17.64,24.065,0,40.562,5.773,50.432,17.647,19.479,23.448,9.809,68.032,2.742,100.59-5.245,24.2-8.714,40.18-1.858,48.436a13.539,13.539,0,0,0,10.654,4.767c11.467,0,23.829-7.184,35.758-20.772,22.905-26.1,43.888-76.253,38.6-109.334-8.513-53.343.7-65.123,14.657-82.955,16.336-20.878,38.707-49.47,42.284-151.774,1.246-35.573-6.691-62.263-23.592-79.323C488.167,26.823,468.373,19.6,443.434,19.6c-43.319,0-90.73,21.775-111.079,36.821C312.006,41.376,264.591,19.6,221.275,19.6c-24.942,0-44.74,7.219-58.842,21.454C145.539,58.114,137.6,84.8,138.845,120.384c3.576,102.306,25.945,130.9,42.281,151.774,13.956,17.832,23.17,29.612,14.66,82.958ZM173.511,51.491C184.6,40.3,200.673,34.62,221.283,34.62c42.367,0,92.117,24.468,105.8,37.033.032.031.079.035.107.066.072.066.122.136.193.2,18.18,15.01,55.835,22.023,71.029,22.289h.14a7.512,7.512,0,1,0,.136-15.021c-13.045-.227-37.616-5.518-53.114-13.508,19.773-13.051,61.5-31.061,97.864-31.061,20.607,0,36.678,5.679,47.769,16.872,13.887,14.019,20.374,37.023,19.279,68.371-3.412,97.514-23.22,122.834-39.134,143.173-15.173,19.4-27.155,34.711-17.628,94.385,4.121,25.826-12.276,71.269-35.084,97.255-8.331,9.489-16.443,14.933-22.995,15.481-1.228-5.424,2.46-22.4,5.2-35.025,7.7-35.514,18.262-84.149-5.846-113.16-12.8-15.4-33.785-23.21-62.866-23.21-28.594,0-49.581,7.806-62.369,23.2-24.1,29-13.561,77.643-5.861,113.16,2.742,12.632,6.419,29.619,5.195,35.036-6.555-.541-14.664-5.989-22.995-15.475-22.813-25.983-39.212-71.437-35.092-97.264,9.527-59.671-2.46-74.989-17.628-94.385-15.92-20.343-35.725-45.659-39.134-143.173-1.1-31.351,5.381-54.359,19.268-68.371Z" transform="translate(-115.452 -19.604)" fill="#1a6f5d"/>
      <path id="Path_876" data-name="Path 876" d="M211.146,230.836a7.8,7.8,0,0,0,3.8-.985,7.42,7.42,0,0,0,2.885-10.243C196.2,182.532,195.43,117.73,204.419,91.123a7.468,7.468,0,0,0-4.908-9.481,7.754,7.754,0,0,0-9.719,4.788c-10.07,29.825-9.373,99.419,14.657,140.608a7.742,7.742,0,0,0,6.7,3.8Z" transform="translate(-79.978 -28.819)" fill="#1a6f5d"/>
      <g id="Group_935" data-name="Group 935" transform="translate(0.788 536.981)">
        <path id="Path_877" data-name="Path 877" d="M17.315-3.208A12.388,12.388,0,0,1,14.537-2.2a12.788,12.788,0,0,1-3.007.349A10.427,10.427,0,0,1,4.126-4.4,9,9,0,0,1,1.391-11.31a8.979,8.979,0,0,1,2.735-6.915,10.4,10.4,0,0,1,7.4-2.556,12.787,12.787,0,0,1,3.007.349,12.386,12.386,0,0,1,2.778,1.006v3.772a11.117,11.117,0,0,0-2.649-1.3,8.937,8.937,0,0,0-2.749-.419,5.206,5.206,0,0,0-4.053,1.62A6.319,6.319,0,0,0,6.389-11.31,6.343,6.343,0,0,0,7.864-6.868a5.221,5.221,0,0,0,4.053,1.607,9.147,9.147,0,0,0,2.749-.405,10.8,10.8,0,0,0,2.649-1.313Z" transform="translate(-1.391 20.781)"/>
      </g>
      <g id="Group_936" data-name="Group 936" transform="translate(20.51 541.535)">
        <path id="Path_878" data-name="Path 878" d="M12.784-11.623a6.308,6.308,0,0,0-1.189-.391,5.017,5.017,0,0,0-1.16-.14,3.307,3.307,0,0,0-2.664,1.09,4.574,4.574,0,0,0-.931,3.087v6.314H2.359v-13.69H6.841V-13.1a5.629,5.629,0,0,1,1.976-1.956,5.45,5.45,0,0,1,2.692-.629c.15,0,.315.01.487.028s.437.035.773.07Z" transform="translate(-2.359 15.687)"/>
      </g>
      <g id="Group_937" data-name="Group 937" transform="translate(32.106 541.535)">
        <path id="Path_879" data-name="Path 879" d="M16.268-8.549v1.257H5.772a3.228,3.228,0,0,0,1.146,2.3,4.308,4.308,0,0,0,2.735.768,10.805,10.805,0,0,0,2.893-.405A15.527,15.527,0,0,0,15.6-5.867V-2.5a19.275,19.275,0,0,1-3.179.88,16.9,16.9,0,0,1-3.179.307A8.606,8.606,0,0,1,3.309-3.2,6.739,6.739,0,0,1,1.2-8.493,6.807,6.807,0,0,1,3.28-13.76a8.044,8.044,0,0,1,5.7-1.928,7.239,7.239,0,0,1,5.3,1.956,6.924,6.924,0,0,1,1.991,5.183ZM11.657-10a2.731,2.731,0,0,0-.745-2,2.6,2.6,0,0,0-1.948-.768,3.1,3.1,0,0,0-2.119.712A3.247,3.247,0,0,0,5.829-10Z" transform="translate(-1.203 15.688)"/>
      </g>
      <g id="Group_938" data-name="Group 938" transform="translate(49.509 541.535)">
        <path id="Path_880" data-name="Path 880" d="M8.549-7.823a3.943,3.943,0,0,0-2.119.461,1.53,1.53,0,0,0-.7,1.369A1.607,1.607,0,0,0,6.3-4.679a2.439,2.439,0,0,0,1.575.461A2.864,2.864,0,0,0,10.01-5.1a3.055,3.055,0,0,0,.874-2.221v-.5Zm6.845-1.648v7.809H10.884V-3.688A5.746,5.746,0,0,1,8.85-1.872,6.2,6.2,0,0,1,6.1-1.313,5.062,5.062,0,0,1,2.564-2.542,4.158,4.158,0,0,1,1.2-5.769a3.919,3.919,0,0,1,1.69-3.52,9.848,9.848,0,0,1,5.341-1.132h2.649v-.349a1.61,1.61,0,0,0-.845-1.509,5.436,5.436,0,0,0-2.621-.489,12.349,12.349,0,0,0-2.692.279,9.434,9.434,0,0,0-2.291.838v-3.339a27.907,27.907,0,0,1,2.878-.517,24.119,24.119,0,0,1,2.921-.182q3.791,0,5.47,1.467t1.69,4.75Z" transform="translate(-1.203 15.688)"/>
      </g>
      <g id="Group_939" data-name="Group 939" transform="translate(66.066 537.987)">
        <path id="Path_881" data-name="Path 881" d="M7.091-19.656v3.884h4.625v3.129H7.091v5.811a1.663,1.663,0,0,0,.387,1.285,2.459,2.459,0,0,0,1.532.335h2.306v3.129H7.478A5.356,5.356,0,0,1,3.7-3.158a5.026,5.026,0,0,1-1.1-3.674v-5.811H.375v-3.129h2.22v-3.884Z" transform="translate(-0.375 19.656)"/>
      </g>
      <g id="Group_940" data-name="Group 940" transform="translate(79.095 541.535)">
        <path id="Path_882" data-name="Path 882" d="M16.268-8.549v1.257H5.772a3.228,3.228,0,0,0,1.146,2.3,4.308,4.308,0,0,0,2.735.768,10.805,10.805,0,0,0,2.893-.405A15.527,15.527,0,0,0,15.6-5.867V-2.5a19.275,19.275,0,0,1-3.179.88,16.9,16.9,0,0,1-3.179.307A8.606,8.606,0,0,1,3.309-3.2,6.739,6.739,0,0,1,1.2-8.493,6.807,6.807,0,0,1,3.28-13.76a8.044,8.044,0,0,1,5.7-1.928,7.239,7.239,0,0,1,5.3,1.956,6.924,6.924,0,0,1,1.991,5.183ZM11.657-10a2.731,2.731,0,0,0-.745-2,2.6,2.6,0,0,0-1.948-.768,3.1,3.1,0,0,0-2.119.712A3.247,3.247,0,0,0,5.829-10Z" transform="translate(-1.203 15.688)"/>
      </g>
      <g id="Group_941" data-name="Group 941" transform="translate(96.554 536.534)">
        <path id="Path_883" data-name="Path 883" d="M11.806-13.947v-7.334h4.511V-2.255H11.806V-4.239A5.861,5.861,0,0,1,9.772-2.464a5.759,5.759,0,0,1-2.592.559A5.267,5.267,0,0,1,2.927-3.917,7.834,7.834,0,0,1,1.266-9.086a7.86,7.86,0,0,1,1.661-5.183A5.267,5.267,0,0,1,7.18-16.28a5.587,5.587,0,0,1,2.578.573,6.166,6.166,0,0,1,2.048,1.76ZM8.856-5.076A2.567,2.567,0,0,0,11.047-6.1a5,5,0,0,0,.759-2.99,4.947,4.947,0,0,0-.759-2.975,2.56,2.56,0,0,0-2.191-1.034,2.551,2.551,0,0,0-2.191,1.034,4.922,4.922,0,0,0-.759,2.975A4.977,4.977,0,0,0,6.665-6.1,2.559,2.559,0,0,0,8.856-5.076Z" transform="translate(-1.266 21.281)"/>
      </g>
      <g id="Group_942" data-name="Group 942" transform="translate(124.862 536.534)">
        <path id="Path_884" data-name="Path 884" d="M9.82-5.076A2.581,2.581,0,0,0,12.026-6.1a5,5,0,0,0,.759-2.99,4.947,4.947,0,0,0-.759-2.975A2.573,2.573,0,0,0,9.82-13.095,2.6,2.6,0,0,0,7.6-12.061a4.965,4.965,0,0,0-.759,2.975A4.951,4.951,0,0,0,7.6-6.11,2.6,2.6,0,0,0,9.82-5.077ZM6.842-13.947a6.31,6.31,0,0,1,2.048-1.76,5.668,5.668,0,0,1,2.592-.573,5.29,5.29,0,0,1,4.267,2.012A7.88,7.88,0,0,1,17.41-9.086a7.853,7.853,0,0,1-1.661,5.169,5.29,5.29,0,0,1-4.267,2.012,5.8,5.8,0,0,1-2.592-.559A6.156,6.156,0,0,1,6.842-4.238v1.984H2.359V-21.281H6.842Z" transform="translate(-2.359 21.281)"/>
      </g>
      <g id="Group_943" data-name="Group 943" transform="translate(141.384 541.871)">
        <path id="Path_885" data-name="Path 885" d="M.344-15.312H4.826l3.781,9.29,3.208-9.29H16.3L10.4-.322A7.3,7.3,0,0,1,8.32,2.863,4.957,4.957,0,0,1,5.2,3.785H2.592V.907H4A2.957,2.957,0,0,0,5.656.544,2.28,2.28,0,0,0,6.473-.714L6.6-1.091Z" transform="translate(-0.344 15.312)"/>
      </g>
      <g id="Group_944" data-name="Group 944" transform="translate(167.218 536.534)">
        <path id="Path_886" data-name="Path 886" d="M11.429-21.281V-18.4H8.952a2.047,2.047,0,0,0-1.332.335,1.519,1.519,0,0,0-.372,1.173v.95h3.838v3.129H7.248V-2.255H2.765V-12.815H.531v-3.129H2.765v-.95A4.091,4.091,0,0,1,4.04-20.205a6.071,6.071,0,0,1,3.967-1.076Z" transform="translate(-0.531 21.281)"/>
      </g>
      <g id="Group_945" data-name="Group 945" transform="translate(178.996 541.535)">
        <path id="Path_887" data-name="Path 887" d="M8.549-7.823a3.943,3.943,0,0,0-2.119.461,1.53,1.53,0,0,0-.7,1.369A1.607,1.607,0,0,0,6.3-4.679a2.439,2.439,0,0,0,1.575.461A2.864,2.864,0,0,0,10.01-5.1a3.055,3.055,0,0,0,.874-2.221v-.5Zm6.845-1.648v7.809H10.884V-3.688A5.746,5.746,0,0,1,8.85-1.872,6.2,6.2,0,0,1,6.1-1.313,5.062,5.062,0,0,1,2.564-2.542,4.158,4.158,0,0,1,1.2-5.769a3.919,3.919,0,0,1,1.69-3.52,9.848,9.848,0,0,1,5.341-1.132h2.649v-.349a1.61,1.61,0,0,0-.845-1.509,5.436,5.436,0,0,0-2.621-.489,12.349,12.349,0,0,0-2.692.279,9.434,9.434,0,0,0-2.291.838v-3.339a27.907,27.907,0,0,1,2.878-.517,24.119,24.119,0,0,1,2.921-.182q3.791,0,5.47,1.467t1.69,4.75Z" transform="translate(-1.203 15.688)"/>
      </g>
      <g id="Group_946" data-name="Group 946" transform="translate(197.215 541.87)">
        <path id="Path_888" data-name="Path 888" d="M2.188-6.959v-8.354H6.7v1.369c0,.747-.007,1.676-.014,2.794S6.67-9.285,6.67-8.915a22.951,22.951,0,0,0,.086,2.389,2.7,2.7,0,0,0,.3,1.048,1.955,1.955,0,0,0,.73.671A2.205,2.205,0,0,0,8.8-4.584a2.629,2.629,0,0,0,2.205-1.048,4.709,4.709,0,0,0,.8-2.92v-6.761h4.482v13.69H11.811V-3.607A7.012,7.012,0,0,1,9.663-1.832a5.616,5.616,0,0,1-2.506.559A4.641,4.641,0,0,1,3.462-2.726,6.22,6.22,0,0,1,2.188-6.959Z" transform="translate(-2.188 15.313)"/>
      </g>
      <g id="Group_947" data-name="Group 947" transform="translate(214.638 541.871)">
        <path id="Path_889" data-name="Path 889" d="M1.566-15.312H13.81v3.059l-7.389,7.5H13.81v3.129H1.265V-4.681l7.389-7.5H1.566Z" transform="translate(-1.265 15.312)"/>
      </g>
      <g id="Group_948" data-name="Group 948" transform="translate(229.518 541.535)">
        <path id="Path_890" data-name="Path 890" d="M8.549-7.823a3.943,3.943,0,0,0-2.119.461,1.53,1.53,0,0,0-.7,1.369A1.607,1.607,0,0,0,6.3-4.679a2.439,2.439,0,0,0,1.575.461A2.864,2.864,0,0,0,10.01-5.1a3.055,3.055,0,0,0,.874-2.221v-.5Zm6.845-1.648v7.809H10.884V-3.688A5.746,5.746,0,0,1,8.85-1.872,6.2,6.2,0,0,1,6.1-1.313,5.062,5.062,0,0,1,2.564-2.542,4.158,4.158,0,0,1,1.2-5.769a3.919,3.919,0,0,1,1.69-3.52,9.848,9.848,0,0,1,5.341-1.132h2.649v-.349a1.61,1.61,0,0,0-.845-1.509,5.436,5.436,0,0,0-2.621-.489,12.349,12.349,0,0,0-2.692.279,9.434,9.434,0,0,0-2.291.838v-3.339a27.907,27.907,0,0,1,2.878-.517,24.119,24.119,0,0,1,2.921-.182q3.791,0,5.47,1.467t1.69,4.75Z" transform="translate(-1.203 15.688)"/>
      </g>
      <g id="Group_949" data-name="Group 949" transform="translate(247.894 541.535)">
        <path id="Path_891" data-name="Path 891" d="M16.465-10v8.34H11.954V-8.046a22.84,22.84,0,0,0-.086-2.445,2.58,2.58,0,0,0-.286-.992,1.81,1.81,0,0,0-.716-.657,2.146,2.146,0,0,0-1.017-.237,2.613,2.613,0,0,0-2.205,1.062,4.693,4.693,0,0,0-.8,2.92v6.733H2.359v-13.69H6.842v2a7.125,7.125,0,0,1,2.148-1.76,5.568,5.568,0,0,1,2.52-.573A4.606,4.606,0,0,1,15.2-14.22,6.277,6.277,0,0,1,16.465-10Z" transform="translate(-2.359 15.687)"/>
      </g>
      <g id="Group_950" data-name="Group 950" transform="translate(274.04 541.535)">
        <path id="Path_892" data-name="Path 892" d="M8.549-7.823a3.943,3.943,0,0,0-2.119.461,1.53,1.53,0,0,0-.7,1.369A1.607,1.607,0,0,0,6.3-4.679a2.439,2.439,0,0,0,1.575.461A2.864,2.864,0,0,0,10.01-5.1a3.055,3.055,0,0,0,.874-2.221v-.5Zm6.845-1.648v7.809H10.884V-3.688A5.746,5.746,0,0,1,8.85-1.872,6.2,6.2,0,0,1,6.1-1.313,5.062,5.062,0,0,1,2.564-2.542,4.158,4.158,0,0,1,1.2-5.769a3.919,3.919,0,0,1,1.69-3.52,9.848,9.848,0,0,1,5.341-1.132h2.649v-.349a1.61,1.61,0,0,0-.845-1.509,5.436,5.436,0,0,0-2.621-.489,12.349,12.349,0,0,0-2.692.279,9.434,9.434,0,0,0-2.291.838v-3.339a27.907,27.907,0,0,1,2.878-.517,24.119,24.119,0,0,1,2.921-.182q3.791,0,5.47,1.467t1.69,4.75Z" transform="translate(-1.203 15.688)"/>
      </g>
      <g id="Group_951" data-name="Group 951" transform="translate(292.413 536.534)">
        <path id="Path_893" data-name="Path 893" d="M2.359-21.281H6.842v10.366L12-15.944h5.213L10.364-9.658l7.389,7.4H12.312L6.842-7.968v5.714H2.359Z" transform="translate(-2.359 21.281)"/>
      </g>
      <g id="Group_952" data-name="Group 952" transform="translate(309.483 536.534)">
        <path id="Path_894" data-name="Path 894" d="M9.82-5.076A2.581,2.581,0,0,0,12.026-6.1a5,5,0,0,0,.759-2.99,4.947,4.947,0,0,0-.759-2.975A2.573,2.573,0,0,0,9.82-13.095,2.6,2.6,0,0,0,7.6-12.061a4.965,4.965,0,0,0-.759,2.975A4.951,4.951,0,0,0,7.6-6.11,2.6,2.6,0,0,0,9.82-5.077ZM6.842-13.947a6.31,6.31,0,0,1,2.048-1.76,5.668,5.668,0,0,1,2.592-.573,5.29,5.29,0,0,1,4.267,2.012A7.88,7.88,0,0,1,17.41-9.086a7.853,7.853,0,0,1-1.661,5.169,5.29,5.29,0,0,1-4.267,2.012,5.8,5.8,0,0,1-2.592-.559A6.156,6.156,0,0,1,6.842-4.238v1.984H2.359V-21.281H6.842Z" transform="translate(-2.359 21.281)"/>
      </g>
      <g id="Group_953" data-name="Group 953" transform="translate(326.789 541.535)">
        <path id="Path_895" data-name="Path 895" d="M8.549-7.823a3.943,3.943,0,0,0-2.119.461,1.53,1.53,0,0,0-.7,1.369A1.607,1.607,0,0,0,6.3-4.679a2.439,2.439,0,0,0,1.575.461A2.864,2.864,0,0,0,10.01-5.1a3.055,3.055,0,0,0,.874-2.221v-.5Zm6.845-1.648v7.809H10.884V-3.688A5.746,5.746,0,0,1,8.85-1.872,6.2,6.2,0,0,1,6.1-1.313,5.062,5.062,0,0,1,2.564-2.542,4.158,4.158,0,0,1,1.2-5.769a3.919,3.919,0,0,1,1.69-3.52,9.848,9.848,0,0,1,5.341-1.132h2.649v-.349a1.61,1.61,0,0,0-.845-1.509,5.436,5.436,0,0,0-2.621-.489,12.349,12.349,0,0,0-2.692.279,9.434,9.434,0,0,0-2.291.838v-3.339a27.907,27.907,0,0,1,2.878-.517,24.119,24.119,0,0,1,2.921-.182q3.791,0,5.47,1.467t1.69,4.75Z" transform="translate(-1.203 15.688)"/>
      </g>
      <g id="Group_954" data-name="Group 954" transform="translate(345.168 541.535)">
        <path id="Path_896" data-name="Path 896" d="M12.784-11.623a6.308,6.308,0,0,0-1.189-.391,5.017,5.017,0,0,0-1.16-.14,3.307,3.307,0,0,0-2.664,1.09,4.574,4.574,0,0,0-.931,3.087v6.314H2.359v-13.69H6.841V-13.1a5.629,5.629,0,0,1,1.976-1.956,5.45,5.45,0,0,1,2.692-.629c.15,0,.315.01.487.028s.437.035.773.07Z" transform="translate(-2.359 15.687)"/>
      </g>
      <g id="Group_955" data-name="Group 955" transform="translate(0 561.568)">
        <path id="Path_897" data-name="Path 897" d="M11.429-21.281V-18.4H8.952a2.047,2.047,0,0,0-1.332.335,1.519,1.519,0,0,0-.372,1.173v.95h3.838v3.129H7.248V-2.255H2.765V-12.815H.531v-3.129H2.765v-.95A4.091,4.091,0,0,1,4.04-20.205a6.071,6.071,0,0,1,3.967-1.076Z" transform="translate(-0.531 21.281)"/>
      </g>
      <g id="Group_956" data-name="Group 956" transform="translate(12.841 566.569)">
        <path id="Path_898" data-name="Path 898" d="M12.784-11.623a6.308,6.308,0,0,0-1.189-.391,5.017,5.017,0,0,0-1.16-.14,3.307,3.307,0,0,0-2.664,1.09,4.574,4.574,0,0,0-.931,3.087v6.314H2.359v-13.69H6.841V-13.1a5.629,5.629,0,0,1,1.976-1.956,5.45,5.45,0,0,1,2.692-.629c.15,0,.315.01.487.028s.437.035.773.07Z" transform="translate(-2.359 15.687)"/>
      </g>
      <g id="Group_957" data-name="Group 957" transform="translate(24.437 566.568)">
        <path id="Path_899" data-name="Path 899" d="M8.936-12.559a2.669,2.669,0,0,0-2.277,1.048,4.946,4.946,0,0,0-.788,3.017,4.946,4.946,0,0,0,.788,3.017A2.677,2.677,0,0,0,8.936-4.443,2.614,2.614,0,0,0,11.17-5.476a4.971,4.971,0,0,0,.788-3.017,4.97,4.97,0,0,0-.788-3.017A2.606,2.606,0,0,0,8.936-12.559Zm0-3.129a7.939,7.939,0,0,1,5.657,1.914,6.885,6.885,0,0,1,2.034,5.28,6.905,6.905,0,0,1-2.034,5.28,7.965,7.965,0,0,1-5.657,1.9,8.027,8.027,0,0,1-5.685-1.9A6.863,6.863,0,0,1,1.2-8.494a6.842,6.842,0,0,1,2.048-5.28A8,8,0,0,1,8.936-15.688Z" transform="translate(-1.203 15.688)"/>
      </g>
      <g id="Group_958" data-name="Group 958" transform="translate(43.097 566.568)">
        <path id="Path_900" data-name="Path 900" d="M15.36-13.076a6.012,6.012,0,0,1,2.019-1.942,5.1,5.1,0,0,1,2.578-.671,4.59,4.59,0,0,1,3.68,1.467A6.223,6.223,0,0,1,24.911-10v8.34H20.4v-7.46c.007-.119.014-.286.014-.5a3.813,3.813,0,0,0-.444-2.1,1.555,1.555,0,0,0-1.4-.657,2.25,2.25,0,0,0-1.976,1.034,5.262,5.262,0,0,0-.716,2.962v6.719H11.364V-8.8a6.651,6.651,0,0,0-.4-2.92,1.544,1.544,0,0,0-1.432-.657,2.266,2.266,0,0,0-1.991,1.034,5.176,5.176,0,0,0-.7,2.948v6.733H2.328v-13.69H6.839v2A5.774,5.774,0,0,1,8.729-15.1a4.848,4.848,0,0,1,2.363-.587A4.854,4.854,0,0,1,13.67-15a4.343,4.343,0,0,1,1.69,1.928Z" transform="translate(-2.328 15.688)"/>
      </g>
      <g id="Group_959" data-name="Group 959" transform="translate(76.982 563.02)">
        <path id="Path_901" data-name="Path 901" d="M7.091-19.656v3.884h4.625v3.129H7.091v5.811a1.663,1.663,0,0,0,.387,1.285,2.459,2.459,0,0,0,1.532.335h2.306v3.129H7.478A5.356,5.356,0,0,1,3.7-3.158a5.026,5.026,0,0,1-1.1-3.674v-5.811H.375v-3.129h2.22v-3.884Z" transform="translate(-0.375 19.656)"/>
      </g>
      <g id="Group_960" data-name="Group 960" transform="translate(91.066 561.567)">
        <path id="Path_902" data-name="Path 902" d="M16.465-10.594v8.34H11.954V-8.611a23.2,23.2,0,0,0-.086-2.473,2.58,2.58,0,0,0-.286-.992,1.81,1.81,0,0,0-.716-.657,2.146,2.146,0,0,0-1.017-.237,2.613,2.613,0,0,0-2.205,1.062,4.693,4.693,0,0,0-.8,2.92v6.733H2.359V-21.281H6.842v7.334a7.125,7.125,0,0,1,2.148-1.76,5.568,5.568,0,0,1,2.52-.573A4.607,4.607,0,0,1,15.2-14.813a6.277,6.277,0,0,1,1.26,4.219Z" transform="translate(-2.359 21.281)"/>
      </g>
      <g id="Group_961" data-name="Group 961" transform="translate(108.276 566.568)">
        <path id="Path_903" data-name="Path 903" d="M16.268-8.549v1.257H5.772a3.228,3.228,0,0,0,1.146,2.3,4.308,4.308,0,0,0,2.735.768,10.805,10.805,0,0,0,2.893-.405A15.527,15.527,0,0,0,15.6-5.867V-2.5a19.275,19.275,0,0,1-3.179.88,16.9,16.9,0,0,1-3.179.307A8.606,8.606,0,0,1,3.309-3.2,6.739,6.739,0,0,1,1.2-8.493,6.807,6.807,0,0,1,3.28-13.76a8.044,8.044,0,0,1,5.7-1.928,7.239,7.239,0,0,1,5.3,1.956,6.924,6.924,0,0,1,1.991,5.183ZM11.657-10a2.731,2.731,0,0,0-.745-2,2.6,2.6,0,0,0-1.948-.768,3.1,3.1,0,0,0-2.119.712A3.247,3.247,0,0,0,5.829-10Z" transform="translate(-1.203 15.688)"/>
      </g>
      <g id="Group_962" data-name="Group 962" transform="translate(135.874 562.35)">
        <path id="Path_904" data-name="Path 904" d="M2.578-20.406H7.963l6.8,12.517V-20.406h4.568V-2.162H13.948l-6.8-12.517V-2.162H2.578Z" transform="translate(-2.578 20.406)"/>
      </g>
      <g id="Group_963" data-name="Group 963" transform="translate(156.091 566.568)">
        <path id="Path_905" data-name="Path 905" d="M8.936-12.559a2.669,2.669,0,0,0-2.277,1.048,4.946,4.946,0,0,0-.788,3.017,4.946,4.946,0,0,0,.788,3.017A2.677,2.677,0,0,0,8.936-4.443,2.614,2.614,0,0,0,11.17-5.476a4.971,4.971,0,0,0,.788-3.017,4.97,4.97,0,0,0-.788-3.017A2.606,2.606,0,0,0,8.936-12.559Zm0-3.129a7.939,7.939,0,0,1,5.657,1.914,6.885,6.885,0,0,1,2.034,5.28,6.905,6.905,0,0,1-2.034,5.28,7.965,7.965,0,0,1-5.657,1.9,8.027,8.027,0,0,1-5.685-1.9A6.863,6.863,0,0,1,1.2-8.494a6.842,6.842,0,0,1,2.048-5.28A8,8,0,0,1,8.936-15.688Z" transform="translate(-1.203 15.688)"/>
      </g>
      <g id="Group_964" data-name="Group 964" transform="translate(174.625 566.904)">
        <path id="Path_906" data-name="Path 906" d="M2.188-6.959v-8.354H6.7v1.369c0,.747-.007,1.676-.014,2.794S6.67-9.285,6.67-8.915a22.951,22.951,0,0,0,.086,2.389,2.7,2.7,0,0,0,.3,1.048,1.955,1.955,0,0,0,.73.671A2.205,2.205,0,0,0,8.8-4.584a2.629,2.629,0,0,0,2.205-1.048,4.709,4.709,0,0,0,.8-2.92v-6.761h4.482v13.69H11.811V-3.607A7.012,7.012,0,0,1,9.663-1.832a5.616,5.616,0,0,1-2.506.559A4.641,4.641,0,0,1,3.462-2.726,6.22,6.22,0,0,1,2.188-6.959Z" transform="translate(-2.188 15.313)"/>
      </g>
      <g id="Group_965" data-name="Group 965" transform="translate(193.052 566.569)">
        <path id="Path_907" data-name="Path 907" d="M16.465-10v8.34H11.954V-8.046a22.84,22.84,0,0,0-.086-2.445,2.58,2.58,0,0,0-.286-.992,1.81,1.81,0,0,0-.716-.657,2.146,2.146,0,0,0-1.017-.237,2.613,2.613,0,0,0-2.205,1.062,4.693,4.693,0,0,0-.8,2.92v6.733H2.359v-13.69H6.842v2a7.125,7.125,0,0,1,2.148-1.76,5.568,5.568,0,0,1,2.52-.573A4.606,4.606,0,0,1,15.2-14.22,6.277,6.277,0,0,1,16.465-10Z" transform="translate(-2.359 15.687)"/>
      </g>
      <g id="Group_966" data-name="Group 966" transform="translate(220.453 562.35)">
        <path id="Path_908" data-name="Path 908" d="M2.578-20.406h8.005a8.473,8.473,0,0,1,5.47,1.551,5.319,5.319,0,0,1,1.919,4.4,5.351,5.351,0,0,1-1.919,4.414,8.473,8.473,0,0,1-5.47,1.551H7.39v6.328H2.578ZM7.39-17v5.1h2.678a3.169,3.169,0,0,0,2.162-.671A2.362,2.362,0,0,0,13-14.455a2.343,2.343,0,0,0-.773-1.886A3.22,3.22,0,0,0,10.068-17Z" transform="translate(-2.578 20.406)"/>
      </g>
      <g id="Group_967" data-name="Group 967" transform="translate(239.062 566.569)">
        <path id="Path_909" data-name="Path 909" d="M12.784-11.623a6.308,6.308,0,0,0-1.189-.391,5.017,5.017,0,0,0-1.16-.14,3.307,3.307,0,0,0-2.664,1.09,4.574,4.574,0,0,0-.931,3.087v6.314H2.359v-13.69H6.841V-13.1a5.629,5.629,0,0,1,1.976-1.956,5.45,5.45,0,0,1,2.692-.629c.15,0,.315.01.487.028s.437.035.773.07Z" transform="translate(-2.359 15.687)"/>
      </g>
      <g id="Group_968" data-name="Group 968" transform="translate(250.654 566.568)">
        <path id="Path_910" data-name="Path 910" d="M8.936-12.559a2.669,2.669,0,0,0-2.277,1.048,4.946,4.946,0,0,0-.788,3.017,4.946,4.946,0,0,0,.788,3.017A2.677,2.677,0,0,0,8.936-4.443,2.614,2.614,0,0,0,11.17-5.476a4.971,4.971,0,0,0,.788-3.017,4.97,4.97,0,0,0-.788-3.017A2.606,2.606,0,0,0,8.936-12.559Zm0-3.129a7.939,7.939,0,0,1,5.657,1.914,6.885,6.885,0,0,1,2.034,5.28,6.905,6.905,0,0,1-2.034,5.28,7.965,7.965,0,0,1-5.657,1.9,8.027,8.027,0,0,1-5.685-1.9A6.863,6.863,0,0,1,1.2-8.494a6.842,6.842,0,0,1,2.048-5.28A8,8,0,0,1,8.936-15.688Z" transform="translate(-1.203 15.688)"/>
      </g>
      <g id="Group_969" data-name="Group 969" transform="translate(266.325 561.568)">
        <path id="Path_911" data-name="Path 911" d="M2.084-15.944H6.566V-2.506a5.941,5.941,0,0,1-1.36,4.2A5.093,5.093,0,0,1,1.282,3.152H-.937V.274H-.15A2.222,2.222,0,0,0,1.6-.285a3.584,3.584,0,0,0,.487-2.221Zm0-5.336H6.566V-17.7H2.084Z" transform="translate(0.937 21.281)"/>
      </g>
      <g id="Group_970" data-name="Group 970" transform="translate(277.083 566.568)">
        <path id="Path_912" data-name="Path 912" d="M16.268-8.549v1.257H5.772a3.228,3.228,0,0,0,1.146,2.3,4.308,4.308,0,0,0,2.735.768,10.805,10.805,0,0,0,2.893-.405A15.527,15.527,0,0,0,15.6-5.867V-2.5a19.275,19.275,0,0,1-3.179.88,16.9,16.9,0,0,1-3.179.307A8.606,8.606,0,0,1,3.309-3.2,6.739,6.739,0,0,1,1.2-8.493,6.807,6.807,0,0,1,3.28-13.76a8.044,8.044,0,0,1,5.7-1.928,7.239,7.239,0,0,1,5.3,1.956,6.924,6.924,0,0,1,1.991,5.183ZM11.657-10a2.731,2.731,0,0,0-.745-2,2.6,2.6,0,0,0-1.948-.768,3.1,3.1,0,0,0-2.119.712A3.247,3.247,0,0,0,5.829-10Z" transform="translate(-1.203 15.688)"/>
      </g>
      <g id="Group_971" data-name="Group 971" transform="translate(294.489 566.569)">
        <path id="Path_913" data-name="Path 913" d="M13.59-14.919v3.562a7.045,7.045,0,0,0-1.833-.908,6.215,6.215,0,0,0-1.9-.293,3.933,3.933,0,0,0-2.936,1.076,4.076,4.076,0,0,0-1.045,2.99A4.1,4.1,0,0,0,6.917-5.5,3.953,3.953,0,0,0,9.853-4.442a6.689,6.689,0,0,0,1.991-.293,5.927,5.927,0,0,0,1.747-.908v3.576a12.372,12.372,0,0,1-2.134.559,12.243,12.243,0,0,1-2.177.2,8.654,8.654,0,0,1-5.943-1.9A6.69,6.69,0,0,1,1.2-8.493a6.716,6.716,0,0,1,2.134-5.294,8.671,8.671,0,0,1,5.943-1.9,12.242,12.242,0,0,1,2.177.2,12.219,12.219,0,0,1,2.134.573Z" transform="translate(-1.203 15.687)"/>
      </g>
      <g id="Group_972" data-name="Group 972" transform="translate(308.938 563.02)">
        <path id="Path_914" data-name="Path 914" d="M7.091-19.656v3.884h4.625v3.129H7.091v5.811a1.663,1.663,0,0,0,.387,1.285,2.459,2.459,0,0,0,1.532.335h2.306v3.129H7.478A5.356,5.356,0,0,1,3.7-3.158a5.026,5.026,0,0,1-1.1-3.674v-5.811H.375v-3.129h2.22v-3.884Z" transform="translate(-0.375 19.656)"/>
      </g>
    </g>
  </g>
</svg>
