<svg xmlns="http://www.w3.org/2000/svg" xmlns:xlink="http://www.w3.org/1999/xlink" width="487" height="481" viewBox="0 0 487 481">
  <defs>
    <clipPath id="clip-path">
      <rect id="Rectangle_143" data-name="Rectangle 143" width="487" height="481" transform="translate(4808 830)" fill="#fff" stroke="#707070" stroke-width="1"/>
    </clipPath>
  </defs>
  <g id="Mask_Group_2" data-name="Mask Group 2" transform="translate(-4808 -830)" clip-path="url(#clip-path)">
    <g id="noun-neurology-3754916" transform="translate(4699.953 787.76)">
      <path id="Path_666" data-name="Path 666" d="M314.07,506.95c-4.1-12.852-7.547-26.086-12.2-38.719-4.047-11.1-10.281-21.055-20.125-27.891-15.477-10.773-35.383-8.969-53.156-7.492-4.156.328-8.367.656-12.523.711-1.969.055-3.883,0-5.852-.109-1.039-.055-2.133-.164-3.172-.273,1.586.219-1.039-.219-1.094-.219a26.676,26.676,0,0,1-3.008-.656c-1.367-.328-2.734-.82-4.047-1.258-1.477-.492-.109-.055.164.055-.547-.273-1.148-.547-1.7-.82-1.039-.547-1.969-1.2-3.008-1.859,1.8,1.148.328.273-.055-.109-.492-.492-1.039-.93-1.531-1.477a7.043,7.043,0,0,0-.875-.93c-.82-.711,1.039,1.7.219.273-.492-.82-1.039-1.641-1.531-2.461a4.073,4.073,0,0,1-.6-1.312c.109,1.75.438,1.148.164.219-.273-.875-.547-1.75-.766-2.68-.109-.437-.164-.93-.273-1.367-.437-1.641.164,2.078.055.383-.055-.875-.164-1.8-.164-2.68V414.09c0-.6.492-2.516.219-3.008.383.711-.328,2.078-.055.547a11.312,11.312,0,0,1,.219-1.2,45.581,45.581,0,0,1,1.094-4.539c.984-3.5,2.242-6.891,2.953-10.445a25.357,25.357,0,0,0,.164-11.1,20.22,20.22,0,0,0-2.242-5.523c-.437-.766-.984-1.477-1.477-2.242l-.82-1.477c.273.82.273.766-.055-.055a11.023,11.023,0,0,0-.383-1.258c-.656-1.859,0,1.7,0-.055,0-1.8-.437,1.914-.055.273.438-1.8.164.383-.219.328a10.159,10.159,0,0,1,.6-1.039c.164.383-1.477,1.641-.328.547,1.313-1.312-1.859.984.109-.109a8.448,8.448,0,0,0,1.2-.656c.82-.6-2.406.82-1.477.6,1.094-.273,2.188-.711,3.281-1.039,3.5-1.094,7.055-2.187,10.555-3.336,3.336-1.148,6.016-3.008,7.109-6.562,1.914-6.234-2.352-10.992-8.094-12.578-2.953-.82-5.961-1.7-8.859-2.734-.766-.273-1.477-.547-2.242-.82-1.969-.711.82.875-.6-.273-1.586-1.312,1.2,1.258.383.438-.437-.437-.219-.164.711.875-.383-.711-.273-.492.328.766a5.426,5.426,0,0,1-.328-1.422c-.383,1.75.109.875.109-.055a30.41,30.41,0,0,1,.109-3.883c.055-.711.164-1.422.219-2.078.055-.328.273-1.586,0,.055.273-1.641.547-3.336.82-4.977.492-2.734,1.477-5.8,1.422-8.586-.164-6.289-5.141-9.789-10.555-11.594-6.07-2.078-12.523-3.336-18.7-4.977-.437-.109-.875-.219-1.367-.383,1.2.383-1.148-.6-1.2-.656,1.039.656-.984-.875-.984-.93.82.93-.711-1.148-.766-1.148.109.273.328,1.367-.164-.383-.055-.164-.383-2.68-.273-1.039a8.223,8.223,0,0,1,0-1.641c-.164.82-.109.766.055-.219.055-.109.984-2.406.328-1.094,0,0,1.422-2.242.6-1.094.273-.437.93-1.148,1.313-1.75.273-.383.547-.766.82-1.094,3.063-4.32,6.125-8.586,9.242-12.906l27.727-38.719c2.133-3.008,5.359-6.289,6.344-9.9.82-3.117.656-6.836.656-10.008,0-3.5,0-7.055-.328-10.555a36.519,36.519,0,0,0-.711-4.266c-.219-.984-.437-2.023-.656-3.008.055.219-.492-2.953-.273-1.586a55.206,55.206,0,0,1-.383-9.516c.164-5.687.219-11.375.492-17.062.109-2.844.328-5.742.6-8.586.164-1.531.328-3.008.492-4.539.273-2.461-.273,1.641.109-.766.164-.984.273-1.969.438-2.9a141.445,141.445,0,0,1,3.555-15.859c.766-2.57,1.586-5.141,2.516-7.656.438-1.258.93-2.461,1.422-3.664.164-.383.328-.82.492-1.2-.82,1.969.273-.656.438-.984a103.68,103.68,0,0,1,7.055-13.344c1.2-1.914,2.406-3.773,3.719-5.633l2.133-2.953c1.2-1.641-1.094,1.367.219-.273.492-.6.984-1.258,1.531-1.859a108.243,108.243,0,0,1,9.352-10.008c1.75-1.641,3.5-3.227,5.3-4.758.82-.711,1.7-1.367,2.516-2.078.383-.328.766-.6,1.148-.93-1.75,1.367.383-.273.711-.492A144.676,144.676,0,0,1,273.11,78.8c.93-.437,1.859-.875,2.789-1.258.547-.219,3.992-1.75,1.969-.875,2.242-.93,4.539-1.859,6.836-2.68,4.648-1.75,9.352-3.281,14.109-4.648a256.32,256.32,0,0,1,29.367-6.672c2.3-.383,4.594-.711,6.836-1.039.6-.109,1.258-.164,1.859-.273-2.187.328-.055,0,.328-.055,1.258-.164,2.516-.328,3.773-.437,4.977-.6,10.008-1.039,15.039-1.422a267.343,267.343,0,0,1,34.4-.6c2.9.164,5.742.383,8.641.711,1.531.164,3.063.328,4.648.547,2.516.328-1.641-.273.875.109.766.109,1.531.219,2.242.328,5.906.93,11.812,2.133,17.609,3.609,5.578,1.477,11.156,3.172,16.57,5.2,1.2.438,2.461.93,3.664,1.422l1.641.656c2.188.875-1.531-.656.656.273,2.789,1.2,5.523,2.461,8.258,3.828A148.232,148.232,0,0,1,469,83.285c2.3,1.422,4.539,2.953,6.781,4.539.93.656,1.859,1.313,2.734,1.969.547.383,1.094.82,1.641,1.2.711.547.711.547-.055-.055.328.273.711.547,1.039.82a157.82,157.82,0,0,1,22.914,22.312c.711.875,1.422,1.7,2.078,2.57.438.492.82,1.039,1.258,1.586-1.2-1.531.164.219.328.438,1.586,2.133,3.117,4.266,4.648,6.453a155.978,155.978,0,0,1,8.313,13.617,158.963,158.963,0,0,1,6.945,14.438c-.766-1.75.492,1.2.711,1.75.492,1.258.984,2.516,1.422,3.773.984,2.625,1.859,5.3,2.734,7.984q2.379,7.629,4.1,15.422c.6,2.68,1.094,5.359,1.531,8.094.164,1.148.383,2.242.547,3.391.109.656.219,1.367.273,2.078-.273-2.133.109.875.164,1.258,3.172,26.742.547,51.9-9.133,77a81.905,81.905,0,0,1-3.336,7.82c-1.586,3.5-3.336,6.891-5.2,10.227a173.623,173.623,0,0,1-10.828,17.117c-3.773,5.2-8.531,10.609-12.906,16.406a107.989,107.989,0,0,0-9.789,15.422,83.957,83.957,0,0,0-9.242,32.539c-.82,11.594,1.094,23.352,4.047,34.508,3.391,13.07,8.313,25.758,13.344,38.281,1.641,4.1,5.469,7,10.117,5.742,3.883-1.094,7.383-5.961,5.742-10.117-4.211-10.445-8.312-21-11.539-31.828-1.367-4.539-2.57-9.133-3.555-13.781-.437-2.133-.82-4.211-1.148-6.344-.273-1.586-.055-.219,0,.109-.055-.547-.164-1.148-.219-1.7-.164-1.258-.273-2.461-.328-3.719a81.794,81.794,0,0,1,.055-12.141c.055-.984.219-1.914.273-2.9-.219,2.188.164-.766.219-1.312.328-2.023.82-3.992,1.313-6.016.492-1.914,1.094-3.773,1.75-5.633.328-.93.766-1.859,1.094-2.844.438-1.258-.82,1.75.109-.219.273-.6.547-1.258.875-1.859a89.048,89.048,0,0,1,6.672-11.758c5.8-8.859,12.8-16.078,19.3-25.484a167.066,167.066,0,0,0,15.8-28.547,170,170,0,0,0,14.109-67.758c-.055-34.836-9.625-69.891-28.82-99.094A168.838,168.838,0,0,0,447.289,54.3c-34.125-13.18-71.039-14.055-106.91-9.734-31.391,3.773-63.164,11.484-90.4,28.164-27.891,17.062-48.234,43.312-56.711,75.031a161.589,161.589,0,0,0-4.7,28.438c-.383,4.922-.547,9.9-.547,14.82,0,4.211-.437,8.367-.273,12.578a72.962,72.962,0,0,0,.93,9.078c.219,1.313.438,2.625.766,3.883a10.794,10.794,0,0,0,.383,1.422c.547,1.531.109-1.2,0-.164-.219,2.461.273,5.25.328,7.766,0,2.953-.109,5.852-.219,8.8-.055,1.641.055-.383.109-.656.219-.492.438-.984.656-1.531-.055,0-.055.109-.109.164a5.222,5.222,0,0,0-.656.875c-.82,1.2-1.7,2.352-2.516,3.555q-19.359,26.988-38.664,54.031a18.909,18.909,0,0,0-1.2,1.7c.055-.109,1.75-2.3.109-.164-.547.711-1.094,1.422-1.586,2.188a23.787,23.787,0,0,0-1.914,4.156,21.8,21.8,0,0,0-.766,10.773,21.494,21.494,0,0,0,11.1,15.367,39.226,39.226,0,0,0,8.2,2.789c5.141,1.367,10.391,2.516,15.422,4.1,1.531.492-1.8-.6.82.328,3.172,1.148-4.594,2.516-1.8-5.3a19.6,19.6,0,0,0-.492,2.461c-.437,2.3-.875,4.648-1.258,6.945-.766,5.086-1.531,10.336-.547,15.477.984,5.031,4.047,8.148,8.641,10.062a71.141,71.141,0,0,0,7.438,2.734c1.2.383,2.461.766,3.719,1.148.547.164,1.039.328,1.586.438.273.055.492.164.766.219,1.477.492,1.039.109-1.312-1.094l-2.133-3.609c0-.984,0-1.914.055-2.9l2.133-3.609c1.477-1.8,3.938-1.7,1.969-1.148-.547.164-1.094.328-1.641.547-1.75.547-3.5,1.094-5.3,1.7-2.242.711-4.539,1.367-6.781,2.133-8.641,3.063-13.672,11.867-11.1,20.891.93,3.227,2.68,5.852,4.32,8.7.766,1.313-.93-1.586.219.547.055.219.109.492.164.711h0v1.477c-.109.984-.109.984,0,.109-.109.547-.219,1.039-.328,1.586-1.2,5.359-3.336,10.5-4.211,15.969-1.258,8.258-.711,16.625,3.227,24.117,9.406,18.047,32.266,18.867,49.984,17.445,7.875-.6,15.7-1.422,23.57-1.312,1.8.055,3.609.109,5.469.273.656.055,4.266.273,1.586.109a21.389,21.389,0,0,1,3.172.547,41.874,41.874,0,0,1,5.141,1.367c.82.273,1.641.6,2.516.875,1.75.6-1.641-.875,0,0,.492.273.984.438,1.422.711.984.492,1.914,1.039,2.789,1.586.438.273.93.6,1.367.93.328.219.6.438.875.656-.82-.656-1.039-.82-.547-.437a65.248,65.248,0,0,1,5.2,5.086c.273.328.547.656.766.93-1.367-1.641.383.547.6.875.766,1.094,1.477,2.242,2.133,3.391q1.066,1.887,1.969,3.773c.273.547.547,1.148.766,1.7s.219.438-.055-.164c.219.492.383.984.6,1.477,2.68,7.055,4.594,14.383,6.836,21.6,1.859,5.961,3.719,11.922,5.633,17.938a8.418,8.418,0,0,0,10.117,5.742c4.32-1.586,7.273-6.289,5.906-10.5Z" fill="#c93957"/>
      <path id="Path_667" data-name="Path 667" d="M496.95,213.66a55.784,55.784,0,0,1,.109,13.836c.164-1.477,0-.164-.109.547-.164.82-.328,1.586-.547,2.406a32.1,32.1,0,0,1-1.422,4.43c.547-1.312-.164.219-.383.656a17.812,17.812,0,0,1-1.312,2.188c-.219.328-.437.6-.656.93.109-.109.766-.875.109-.219-.6.656-1.2,1.313-1.859,1.914-1.531,1.477-3.172,2.9-4.812,4.266-.656.547-1.312,1.094-2.023,1.641-.766.6-.055.055.055-.055-.383.328-.82.6-1.2.875a40.909,40.909,0,0,1-3.609,2.352c-.492.273-1.039.547-1.531.82-1.367.766.219,0,1.039-.055-1.367.109,1.258.547-.383-.109-.492-.219-1.039-.383-1.531-.6a11.614,11.614,0,0,0-4.484-.984c-5.523,0-8.531,4.1-10.062,8.859-.164.492-.383.984-.492,1.477-.219.82.273-.711.328-.711-.109.219-.219.492-.328.711-.273.492-.492.984-.82,1.477-.219.328-1.531,2.133-.875,1.313.711-.875-.547.547-.766.766-.437.438-.93.875-1.422,1.313-.656.6.273-.164.328-.219a4.956,4.956,0,0,1-.875.6,23.268,23.268,0,0,1-2.516,1.477c-.328.164-.711.328-1.039.492.164-.055.984-.383.109-.055l-2.461.82c-.82.219-1.586.438-2.406.6-.328.055-2.3.383-.711.164,1.477-.219-1.148.055-1.75.055-1.094.055-2.187.055-3.336,0-1.039-.055-2.023-.109-3.062-.219-.6-.055-1.258-.164-1.859-.219-1.422-.109,1.641.273-.273-.055-2.516-.383-5.031-.875-7.492-1.367-5.414-1.2-10.773-2.625-16.078-4.211-10.391-3.117-20.562-6.727-30.844-10.172-3.828-1.258-7.6-2.57-11.484-3.609-2.789-.766-5.906-1.586-8.8-1.367-2.844.219-5.469,1.422-8.258,2.133-1.312.328-2.68.6-4.047.875l-2.133.328c1.641-.219-.93.055-1.531.109a63.853,63.853,0,0,1-10.227,0c-.383-.055-2.352-.273-1.094-.109-.82-.109-1.641-.273-2.461-.437a51.081,51.081,0,0,1-5.687-1.477c-.82-.273-1.586-.547-2.406-.82,0,0-1.258-.547-.6-.219.656.273-.6-.273-.6-.273a50.8,50.8,0,0,1-5.3-3.008c-3.336-2.242-6.617-4.539-9.9-6.891-.6-.437-1.258-.875-1.859-1.312-.492-.383-1.7-1.312-.547-.383-1.039-.82-2.078-1.7-3.062-2.625-.328-.328-.656-.711-.984-1.039-.93-.93.711,1.367.219.273-.109-.273-1.094-1.8-.328-.383.6,1.039.273.656.164.273-.273-1.094.109,1.094.109,1.148a3.662,3.662,0,0,1,0-1.094c-.109.766-.273,2.023,0,.656a10.772,10.772,0,0,0-2.68-9.9c-1.258-1.367-1.258-1.859-3.172-3.992a20.667,20.667,0,0,0-5.086-4.156c-3.336-1.914-7.109-2.352-10.719-3.391a37.874,37.874,0,0,1-9.3-3.609c-3.937-2.133-7.109-4.7-11.43-6.125-.875-.273-1.75-.547-2.57-.875-.875-.328.055,0,.164.055-.328-.164-.711-.328-1.039-.492a33.326,33.326,0,0,1-4.211-2.57c1.2.875-.6-.547-.93-.875a20.96,20.96,0,0,1-1.531-1.586,9.506,9.506,0,0,1-.711-.82c.109.109.711.984.164.219a17.621,17.621,0,0,1-1.367-2.133c-.164-.273-1.2-2.3-.875-1.586s-.383-1.039-.492-1.367c-.219-.711-.383-1.367-.547-2.078-.055-.328-.164-.711-.219-1.094.109.82.055.82.055,0,0-.875-.055-1.75,0-2.625a8.158,8.158,0,0,1,.109-1.148c0,.164-.219,1.258,0,.273.164-.766.328-1.531.547-2.3.109-.383.273-.766.383-1.148.383-1.258-.055,0,.328-.766,1.969-4.047,3.117-7.656,2.9-12.2-.055-1.312.109-2.625.109-3.937,0-.437-.383,2.242-.109.711a8.489,8.489,0,0,1,.219-1.148,25.041,25.041,0,0,1,.766-2.9c.164-.437.273-.875.438-1.312.109-.273.766-1.8.219-.6-.6,1.258.328-.711.438-.93.273-.6.6-1.148.93-1.75.6-1.039,1.258-2.078,1.914-3.062.438-.6.875-1.258,1.313-1.859-.984,1.258.328-.383.711-.766a63.185,63.185,0,0,1,7.492-7.328c2.9-2.461,6.781-4.648,10.062-7.437a31.309,31.309,0,0,0,5.469-7c.438-.711-.492.6-.492.6a5.792,5.792,0,0,1,.547-.656,18.946,18.946,0,0,1,1.367-1.586,39.026,39.026,0,0,1,3.008-3.008c.219-.219,1.7-1.422,1.039-.93-.711.547.219-.164.328-.219.383-.273.766-.547,1.2-.82a21.732,21.732,0,0,1,1.914-1.094l.984-.492c1.148-.6-1.094.383.109-.055.711-.273,1.477-.492,2.188-.711.383-.109,2.734-.656,1.367-.383a25.394,25.394,0,0,0,7.656-2.133,28.187,28.187,0,0,0,4.7-3.336c.328-.273.711-.547,1.039-.875.984-.82-1.312.984.164-.164a70,70,0,0,1,6.836-4.484c1.367-.766,2.734-1.531,4.156-2.187.711-.328,1.367-.656,2.078-.93-1.258.547.93-.328,1.313-.492,1.641-.6,3.336-1.094,5.031-1.531.82-.219,1.641-.383,2.461-.547.438-.055.82-.164,1.258-.219,1.477-.219-1.914.109.766-.055,1.75-.109,3.5-.164,5.25-.109.875.055,1.8.109,2.68.219-.219-.055-.875-.109.109.055,1.2.164,2.461.438,3.609.492,3.391.219,6.508-.875,9.734-1.641,1.148-.273,2.352-.547,3.5-.766.656-.109,1.313-.273,2.023-.383.547-.109,3.008-.437,1.477-.219a80.987,80.987,0,0,1,10.938-.6,51.172,51.172,0,0,1,11.1,1.2c4.594.984,9.023,3.281,13.781,3.336a26.114,26.114,0,0,0,4.1-.437c1.367-.219-1.969.164-.437.055,1.258-.109,2.57-.219,3.828-.219,1.313,0,2.625.109,3.992.164.328,0,1.586.219,0-.055l1.148.164c.93.164,1.859.383,2.734.6a29.308,29.308,0,0,1,9.9,4.43,25.02,25.02,0,0,0,12.031,4.484c1.367.109-.383,0-.875-.109.438.109.875.109,1.258.219.875.164,1.8.383,2.68.6,1.039.273,2.023.6,3.008.93.273.109,1.914.766.766.273s.766.383,1.039.547a35.184,35.184,0,0,1,3.445,1.969c.547.328,1.094.711,1.641,1.094a7.825,7.825,0,0,1,.82.6c-.6-.437-.6-.492,0,0a52.555,52.555,0,0,1,7.109,7.273c-.437-.6.875,1.313,1.094,1.586.547.766,1.039,1.586,1.531,2.406a25.56,25.56,0,0,0,3.938,5.359,32.831,32.831,0,0,0,4.1,3.172c1.313.93-.437-.383,0,0,.547.438,1.094.875,1.641,1.367a54.233,54.233,0,0,1,6.891,6.836,9.985,9.985,0,0,1,.711.875c-.109-.109-.656-.875-.109-.109.438.656.875,1.258,1.313,1.914a14.8,14.8,0,0,1,1.148,2.023,9.506,9.506,0,0,0,.547,1.039c-.492-1.039,0,0,.164.492,1.094,3.172,1.859,6.234,3.719,9.133,1.039,1.641,2.078,3.281,3.063,4.922a166.394,166.394,0,0,1,7.82,14.82c.328.656.6,1.313.875,1.969.383.875-.055-.164-.109-.273.164.328.273.656.438,1.039.656,1.586,1.258,3.227,1.8,4.867a65.684,65.684,0,0,1,2.516,9.078c.164.711.219,1.422.383,2.078.219.93-.055-.328-.055-.492a6.057,6.057,0,0,1,.109,1.039,37.559,37.559,0,0,1,.164,4.32c0,.656-.055,1.258-.109,1.914-.055,1.586.328-1.258-.055.273a32.9,32.9,0,0,0-.6,7.6c.328,4.266,3.5,8.422,8.2,8.2,4.156-.164,8.586-3.609,8.2-8.2-.273-3.5,1.039-7.82.875-11.922a64.282,64.282,0,0,0-2.078-12.852,118.671,118.671,0,0,0-9.352-23.078c-2.57-4.977-5.469-9.68-8.422-14.438a8.588,8.588,0,0,1-.766-1.367c.219.547.219.875.055-.328a17.538,17.538,0,0,0-.82-2.9,36.906,36.906,0,0,0-3.391-7.109,54.988,54.988,0,0,0-8.859-10.609c-2.68-2.516-5.633-4.539-8.422-6.836-.164-.164-.766-.656.109.055-.164-.164-.984-1.148-.219-.109-.711-.984-1.258-2.133-1.914-3.172a74.3,74.3,0,0,0-4.977-6.781,49.51,49.51,0,0,0-20.289-14.766,35.37,35.37,0,0,0-7.109-2.078c-1.531-.273-3.062-.328-4.594-.6-.219-.055-.383,0-.6-.055,1.313.273-.273-.164-.328-.219.93.6-.273-.164-.383-.273-.656-.492-1.367-.93-2.023-1.422a46.928,46.928,0,0,0-27.672-7.875c-1.914.055-3.828.383-5.742.6-1.094.164.273-.055.383-.055,0,0-1.586.055-.656.109a20.844,20.844,0,0,1-4.32-1.367A70.4,70.4,0,0,0,374.668,81.1a88.463,88.463,0,0,0-26.25,2.461c-1.258.328-2.516.711-3.828.984-1.367.328-.383.055-.328,0,.6-.055-.656-.055-.711-.055-1.914-.164-3.828-.6-5.8-.711a49.01,49.01,0,0,0-14.93,1.477,65.382,65.382,0,0,0-22.7,10.828c-1.477,1.094-2.953,2.188-4.375,3.336a13.316,13.316,0,0,1-1.367,1.094c-.6.438.984-.547-.164,0-.766.328.711-.109-.656.273-1.586.383-.6.164-.219.109-.984.219-1.969.219-2.953.438a31.325,31.325,0,0,0-3.062.766,37.61,37.61,0,0,0-7.109,3.172c-6.562,3.883-11.375,9.516-15.641,15.75.93-1.312-1.586,1.367-.328.383-1.094.875-2.352,1.531-3.445,2.352-2.516,1.8-4.977,3.664-7.328,5.687a64.963,64.963,0,0,0-8.8,8.969c-4.32,5.359-7.93,11.43-9.516,18.211a36.256,36.256,0,0,0-.984,7.656c0,.711.055,1.477.055,2.188,0,.492.055.984.055,1.531-.109,1.367.328-.711-.109.547-.164.383-.711,1.477-1.148,2.516-4.156,9.406-4.047,19.852,1.039,28.875,4.7,8.313,12.961,14.219,22.039,16.9,1.586.438,3.445,1.914,5.359,3.117a43.413,43.413,0,0,0,7.109,3.609,79.407,79.407,0,0,0,13.562,4.211,12.4,12.4,0,0,1,1.367.328c-.328-.109-1.367-.711.164.109.164.109,1.258.875.328.164.328.273.6.547.875.82.984.93-.547-.875.164.164.438.656.82,1.258,1.313,1.914.82,1.094,1.8,2.023,2.68,3.063l-2.133-3.609c-.766-2.352.273-3.5-.109-1.859a15.112,15.112,0,0,0-.328,2.9,15.9,15.9,0,0,0,.438,3.609,17.579,17.579,0,0,0,3.664,6.727c3.172,3.883,7.6,6.727,11.648,9.625,5.852,4.1,11.484,8.148,18.156,10.773a58.745,58.745,0,0,0,19.141,3.828,70.067,70.067,0,0,0,17.883-1.586,60.776,60.776,0,0,0,6.18-1.7,13.437,13.437,0,0,0,1.586-.492c.6-.547-2.352,0-1.641.219a3.245,3.245,0,0,0,1.258,0c1.586-.055-2.406-.492-.711-.109.492.109.984.164,1.477.273,1.367.328,2.734.656,4.1,1.094,3.336.984,6.617,2.078,9.844,3.172,17.336,5.8,34.672,12.523,52.773,15.477,9.133,1.477,18.32,2.133,27.125-1.422a32.388,32.388,0,0,0,14.875-11.594,28.676,28.676,0,0,0,3.172-6.344,9.63,9.63,0,0,0,.82-2.406c-.109.273-.273.547-.383.82-2.023,2.516-4.32,3.5-7,2.9,0,0,1.422.547,1.531.6,6.617,2.625,12.578.164,18.047-3.719,6.125-4.32,12.578-9.352,16.734-15.641,6.125-9.242,7.328-21.547,5.961-32.32-.547-4.266-3.391-8.422-8.2-8.2-3.773.273-8.586,3.719-7.984,8.313Z" fill="#c93957"/>
      <path id="Path_668" data-name="Path 668" d="M348.96,256.65c-.93,11.867,4.7,24.773,12.961,32.977a49.108,49.108,0,0,0,6.125,5.031c.273.219,1.148.984-.055-.055.328.273.711.547,1.039.875.656.6,1.313,1.2,1.969,1.859s1.258,1.313,1.859,2.023c.273.328.6.711.875,1.039-.984-1.2-.219-.273,0,0,1.258,1.75,2.406,3.5,3.5,5.359a109.663,109.663,0,0,1,5.25,10.445c.219.438.383.93.6,1.367-.6-1.367-.055-.164.055.109.383.93.766,1.8,1.094,2.734.766,1.914,1.531,3.883,2.3,5.8,2.789,7.164,5.414,14.6,9.461,21.164,2.625,4.211,6.234,8.586,11.43,9.516,6.344,1.148,11.867-2.461,14.6-8.094a16.073,16.073,0,0,0,1.531-11.867c-.328-1.422.164,1.367.164,1.148-.055-1.75-.273-3.555-.328-5.3-.219-5.906-.164-11.867,0-17.773.219-7.984.711-15.969,1.586-23.9.109-.82.219-1.641.273-2.461.164-1.531,0,.164-.055.383.109-.6.164-1.148.273-1.75.273-1.641.547-3.281.875-4.867q.41-2.133.984-4.266c.164-.711.383-1.367.6-2.078.219-.656,1.148-2.953,0-.164,1.75-4.047,1.2-8.8-2.953-11.211-3.445-2.023-9.461-1.148-11.211,2.953-4.922,11.484-5.578,24.719-6.289,37.078-.656,10.773-1.2,21.82-.219,32.594.109,1.2.273,2.406.438,3.555,0,.109.164.6.109.656-.055.109.383.438-.055-.219-.492-.711.438-1.312-.164-.219.711-1.258-.6,1.094-.82,1.367.164-.219,1.094-1.148.164-.383a3.9,3.9,0,0,1,3.008-1.094,3.754,3.754,0,0,1,2.133.547c.656.273-.055,0-.273-.273-.328-.328-.656-.711-.984-1.039,1.039,1.2.164.164-.055-.164a75.436,75.436,0,0,1-4.43-8.312c-.383-.82-.711-1.641-1.039-2.406.656,1.477-.109-.328-.328-.875-.711-1.75-1.422-3.5-2.078-5.25-5.523-14.109-11.047-30.242-23.188-40.2-1.148-.984-2.406-1.859-3.609-2.734-1.148-.875.711.6-.328-.273-.492-.437-1.039-.875-1.531-1.367-.766-.711-1.477-1.477-2.187-2.242l-.984-1.148c.93,1.148-.055-.109-.273-.383a57.109,57.109,0,0,1-2.9-5.031c-.711-1.312-.055-.055.055.219-.164-.492-.383-.93-.547-1.422-.273-.82-.547-1.641-.82-2.516-.383-1.422-.711-2.844-.984-4.32-.383-1.859.164,1.914-.055-.219a13.409,13.409,0,0,1-.109-1.477,22.641,22.641,0,0,1,0-3.336c.328-4.266-3.992-8.367-8.2-8.2-4.758.109-7.875,3.5-8.258,8.094Z" fill="#c93957"/>
      <path id="Path_669" data-name="Path 669" d="M420.22,350.27a7.42,7.42,0,0,1-3.883,4.648c-.6.328-1.2.711-1.8,1.039-2.078-.273-4.211-.547-6.289-.82a8.354,8.354,0,0,1-2.3-2.078,4.39,4.39,0,0,1-1.039-1.75c-.6-1.367-.492-1.258-.383-.82.383,1.2-.219-2.844-.219-1.477a9.763,9.763,0,0,0,.109,1.258c.273,5.25.219,10.5.164,15.7-.055,14-.492,27.945-.6,41.945-.055,13.945,1.586,28.273,6.945,41.234,3.992,9.57,9.789,17.609,15.367,26.25a8.381,8.381,0,0,0,11.211,2.953c3.664-2.133,5.359-7.492,2.953-11.211-4.977-7.711-10.172-14.93-14.109-23.242.6,1.258.273.656-.055-.164-.273-.656-.492-1.312-.766-1.969-.547-1.477-1.039-2.953-1.477-4.484a80.184,80.184,0,0,1-2.242-9.516c-.164-.875-.328-1.75-.437-2.625l-.164-1.148c.164,1.422,0,.055,0-.219-.219-2.133-.437-4.266-.547-6.4-.273-4.539-.273-9.078-.219-13.617.273-13.781.547-27.508.547-41.289,0-4.43.109-8.914-.273-13.289-.219-2.625-.6-4.867-2.57-6.836-4.484-4.484-12.031-2.133-13.781,3.664a8.3,8.3,0,0,0,5.742,10.117,8.574,8.574,0,0,0,10.117-5.852Z" fill="#c93957"/>
      <g id="Group_752" data-name="Group 752" transform="translate(70 568.203)">
        <path id="Path_670" data-name="Path 670" d="M1.828-.109a.942.942,0,0,1-.3.109,1.539,1.539,0,0,1-.312.031,1.13,1.13,0,0,1-.8-.266A1.033,1.033,0,0,1,.141-1a1.014,1.014,0,0,1,.281-.75,1.1,1.1,0,0,1,.8-.281.99.99,0,0,1,.313.047,1.182,1.182,0,0,1,.3.109v.406a1.183,1.183,0,0,0-.281-.141.945.945,0,0,0-.3-.047.514.514,0,0,0-.422.188A.673.673,0,0,0,.672-1a.744.744,0,0,0,.156.5.526.526,0,0,0,.422.172.944.944,0,0,0,.3-.047,1.183,1.183,0,0,0,.281-.141Z" fill="#c93957"/>
      </g>
      <g id="Group_753" data-name="Group 753" transform="translate(72.008 568.203)">
        <path id="Path_671" data-name="Path 671" d="M1.344-1.094a.31.31,0,0,0-.125-.031.729.729,0,0,0-.125-.016.375.375,0,0,0-.3.125A.5.5,0,0,0,.7-.688V0H.234V-1.5H.7v.25a.628.628,0,0,1,.2-.2.551.551,0,0,1,.3-.078H1.25a.753.753,0,0,1,.094.016Z" fill="#c93957"/>
      </g>
      <g id="Group_754" data-name="Group 754" transform="translate(73.355 568.203)">
        <path id="Path_672" data-name="Path 672" d="M1.719-.75v.141H.609a.38.38,0,0,0,.109.25.479.479,0,0,0,.3.078,1.1,1.1,0,0,0,.313-.047,2.512,2.512,0,0,0,.328-.125v.359A1.964,1.964,0,0,1,1.313,0,2.083,2.083,0,0,1,.969.031a.873.873,0,0,1-.625-.2A.737.737,0,0,1,.125-.75a.724.724,0,0,1,.219-.563.825.825,0,0,1,.609-.219.721.721,0,0,1,.547.219.738.738,0,0,1,.219.563ZM1.234-.906a.305.305,0,0,0-.078-.219.273.273,0,0,0-.219-.094.333.333,0,0,0-.219.078.333.333,0,0,0-.109.234Z" fill="#c93957"/>
      </g>
      <g id="Group_755" data-name="Group 755" transform="translate(75.211 568.203)">
        <path id="Path_673" data-name="Path 673" d="M.906-.672a.458.458,0,0,0-.234.047.165.165,0,0,0-.078.156.161.161,0,0,0,.063.141.273.273,0,0,0,.172.047.273.273,0,0,0,.219-.094.336.336,0,0,0,.094-.25V-.672Zm.719-.187V0H1.141V-.219a.565.565,0,0,1-.219.2A.729.729,0,0,1,.641.031.531.531,0,0,1,.266-.094.483.483,0,0,1,.125-.453.407.407,0,0,1,.3-.828,1.034,1.034,0,0,1,.859-.953h.281V-1a.164.164,0,0,0-.094-.156.457.457,0,0,0-.266-.062,1.442,1.442,0,0,0-.3.031,1.049,1.049,0,0,0-.234.094v-.359a1.7,1.7,0,0,1,.313-.062c.1-.008.2-.016.3-.016a.875.875,0,0,1,.578.156.64.64,0,0,1,.188.516Z" fill="#c93957"/>
      </g>
      <g id="Group_756" data-name="Group 756" transform="translate(77.055 568.203)">
        <path id="Path_674" data-name="Path 674" d="M.75-1.922V-1.5h.5v.344H.75v.641a.235.235,0,0,0,.031.141.3.3,0,0,0,.172.031H1.2V0H.8A.6.6,0,0,1,.391-.109.6.6,0,0,1,.281-.516v-.641H.031V-1.5h.25v-.422Z" fill="#c93957"/>
      </g>
      <g id="Group_757" data-name="Group 757" transform="translate(78.363 568.203)">
        <path id="Path_675" data-name="Path 675" d="M1.719-.75v.141H.609a.38.38,0,0,0,.109.25.479.479,0,0,0,.3.078,1.1,1.1,0,0,0,.313-.047,2.512,2.512,0,0,0,.328-.125v.359A1.964,1.964,0,0,1,1.313,0,2.083,2.083,0,0,1,.969.031a.873.873,0,0,1-.625-.2A.737.737,0,0,1,.125-.75a.724.724,0,0,1,.219-.563.825.825,0,0,1,.609-.219.721.721,0,0,1,.547.219.738.738,0,0,1,.219.563ZM1.234-.906a.305.305,0,0,0-.078-.219.273.273,0,0,0-.219-.094.333.333,0,0,0-.219.078.333.333,0,0,0-.109.234Z" fill="#c93957"/>
      </g>
      <g id="Group_758" data-name="Group 758" transform="translate(80.215 568.203)">
        <path id="Path_676" data-name="Path 676" d="M1.25-1.281v-.8h.484V0H1.25V-.219a.7.7,0,0,1-.234.2A.687.687,0,0,1,.75.031.565.565,0,0,1,.3-.187.863.863,0,0,1,.125-.75.878.878,0,0,1,.3-1.312.577.577,0,0,1,.75-1.531a.567.567,0,0,1,.266.063.854.854,0,0,1,.234.188ZM.938-.312a.253.253,0,0,0,.219-.109A.484.484,0,0,0,1.25-.75a.474.474,0,0,0-.094-.312.25.25,0,0,0-.219-.125A.258.258,0,0,0,.7-1.062.522.522,0,0,0,.625-.75.535.535,0,0,0,.7-.422.263.263,0,0,0,.938-.312Z" fill="#c93957"/>
      </g>
      <g id="Group_759" data-name="Group 759" transform="translate(83.125 568.203)">
        <path id="Path_677" data-name="Path 677" d="M1.031-.312A.253.253,0,0,0,1.25-.422.484.484,0,0,0,1.344-.75a.474.474,0,0,0-.094-.312.25.25,0,0,0-.219-.125.3.3,0,0,0-.25.125A.522.522,0,0,0,.7-.75a.535.535,0,0,0,.078.328A.307.307,0,0,0,1.031-.312ZM.7-1.281a.862.862,0,0,1,.219-.187A.647.647,0,0,1,1.2-1.531a.555.555,0,0,1,.453.219.9.9,0,0,1,.172.563.886.886,0,0,1-.172.563A.545.545,0,0,1,1.2.031.786.786,0,0,1,.922-.016.7.7,0,0,1,.7-.219V0H.234V-2.078H.7Z" fill="#c93957"/>
      </g>
      <g id="Group_760" data-name="Group 760" transform="translate(85.082 568.203)">
        <path id="Path_678" data-name="Path 678" d="M.031-1.5H.516L.906-.484,1.25-1.5h.484L1.109.141A.7.7,0,0,1,.875.484.5.5,0,0,1,.547.594H.281V.281H.422A.245.245,0,0,0,.594.234.247.247,0,0,0,.688.094L.7.062Z" fill="#c93957"/>
      </g>
      <g id="Group_761" data-name="Group 761" transform="translate(87.816 568.203)">
        <path id="Path_679" data-name="Path 679" d="M1.391-1.453v.375a1.182,1.182,0,0,0-.3-.109,1.324,1.324,0,0,0-.266-.031.381.381,0,0,0-.2.047.1.1,0,0,0-.062.094.1.1,0,0,0,.047.094A.4.4,0,0,0,.8-.937l.078.016a1.033,1.033,0,0,1,.5.156A.389.389,0,0,1,1.5-.437a.4.4,0,0,1-.187.359A.974.974,0,0,1,.8.031,1.662,1.662,0,0,1,.484,0,1.43,1.43,0,0,1,.172-.062V-.422a.932.932,0,0,0,.281.109,1.391,1.391,0,0,0,.313.031.449.449,0,0,0,.2-.031.141.141,0,0,0,.078-.125A.111.111,0,0,0,1-.531.588.588,0,0,0,.8-.578L.719-.594A.8.8,0,0,1,.266-.734a.4.4,0,0,1-.125-.328A.389.389,0,0,1,.3-1.406a.85.85,0,0,1,.5-.125,1.379,1.379,0,0,1,.281.031c.1.012.207.027.313.047Z" fill="#c93957"/>
      </g>
      <g id="Group_762" data-name="Group 762" transform="translate(89.445 568.203)">
        <path id="Path_680" data-name="Path 680" d="M1.734-.906V0H1.25V-.687a1.693,1.693,0,0,0-.016-.266.516.516,0,0,0-.016-.125.169.169,0,0,0-.078-.062.21.21,0,0,0-.109-.031.3.3,0,0,0-.25.125A.522.522,0,0,0,.7-.734V0H.234V-2.078H.7v.8a.753.753,0,0,1,.234-.187A.617.617,0,0,1,1.2-1.531a.483.483,0,0,1,.391.156.686.686,0,0,1,.141.469Z" fill="#c93957"/>
      </g>
      <g id="Group_763" data-name="Group 763" transform="translate(91.391 568.203)">
        <path id="Path_681" data-name="Path 681" d="M.906-.672a.458.458,0,0,0-.234.047.165.165,0,0,0-.078.156.161.161,0,0,0,.063.141.273.273,0,0,0,.172.047.273.273,0,0,0,.219-.094.336.336,0,0,0,.094-.25V-.672Zm.719-.187V0H1.141V-.219a.565.565,0,0,1-.219.2A.729.729,0,0,1,.641.031.531.531,0,0,1,.266-.094.483.483,0,0,1,.125-.453.407.407,0,0,1,.3-.828,1.034,1.034,0,0,1,.859-.953h.281V-1a.164.164,0,0,0-.094-.156.457.457,0,0,0-.266-.062,1.442,1.442,0,0,0-.3.031,1.049,1.049,0,0,0-.234.094v-.359a1.7,1.7,0,0,1,.313-.062c.1-.008.2-.016.3-.016a.875.875,0,0,1,.578.156.64.64,0,0,1,.188.516Z" fill="#c93957"/>
      </g>
      <g id="Group_764" data-name="Group 764" transform="translate(93.238 568.203)">
        <path id="Path_682" data-name="Path 682" d="M1.391-1.453v.375a1.182,1.182,0,0,0-.3-.109,1.324,1.324,0,0,0-.266-.031.381.381,0,0,0-.2.047.1.1,0,0,0-.062.094.1.1,0,0,0,.047.094A.4.4,0,0,0,.8-.937l.078.016a1.033,1.033,0,0,1,.5.156A.389.389,0,0,1,1.5-.437a.4.4,0,0,1-.187.359A.974.974,0,0,1,.8.031,1.662,1.662,0,0,1,.484,0,1.43,1.43,0,0,1,.172-.062V-.422a.932.932,0,0,0,.281.109,1.391,1.391,0,0,0,.313.031.449.449,0,0,0,.2-.031.141.141,0,0,0,.078-.125A.111.111,0,0,0,1-.531.588.588,0,0,0,.8-.578L.719-.594A.8.8,0,0,1,.266-.734a.4.4,0,0,1-.125-.328A.389.389,0,0,1,.3-1.406a.85.85,0,0,1,.5-.125,1.379,1.379,0,0,1,.281.031c.1.012.207.027.313.047Z" fill="#c93957"/>
      </g>
      <g id="Group_765" data-name="Group 765" transform="translate(94.863 568.203)">
        <path id="Path_683" data-name="Path 683" d="M1.734-.906V0H1.25V-.687a1.693,1.693,0,0,0-.016-.266.516.516,0,0,0-.016-.125.169.169,0,0,0-.078-.062.21.21,0,0,0-.109-.031.3.3,0,0,0-.25.125A.522.522,0,0,0,.7-.734V0H.234V-2.078H.7v.8a.753.753,0,0,1,.234-.187A.617.617,0,0,1,1.2-1.531a.483.483,0,0,1,.391.156.686.686,0,0,1,.141.469Z" fill="#c93957"/>
      </g>
      <g id="Group_766" data-name="Group 766" transform="translate(96.813 568.203)">
        <path id="Path_684" data-name="Path 684" d="M.906-.672a.458.458,0,0,0-.234.047.165.165,0,0,0-.078.156.161.161,0,0,0,.063.141.273.273,0,0,0,.172.047.273.273,0,0,0,.219-.094.336.336,0,0,0,.094-.25V-.672Zm.719-.187V0H1.141V-.219a.565.565,0,0,1-.219.2A.729.729,0,0,1,.641.031.531.531,0,0,1,.266-.094.483.483,0,0,1,.125-.453.407.407,0,0,1,.3-.828,1.034,1.034,0,0,1,.859-.953h.281V-1a.164.164,0,0,0-.094-.156.457.457,0,0,0-.266-.062,1.442,1.442,0,0,0-.3.031,1.049,1.049,0,0,0-.234.094v-.359a1.7,1.7,0,0,1,.313-.062c.1-.008.2-.016.3-.016a.875.875,0,0,1,.578.156.64.64,0,0,1,.188.516Z" fill="#c93957"/>
      </g>
      <g id="Group_767" data-name="Group 767" transform="translate(98.656 568.203)">
        <path id="Path_685" data-name="Path 685" d="M1.734-.906V0H1.25V-.7a1.526,1.526,0,0,0-.016-.25.516.516,0,0,0-.016-.125.169.169,0,0,0-.078-.062.21.21,0,0,0-.109-.031.3.3,0,0,0-.25.125A.522.522,0,0,0,.7-.734V0H.234V-1.5H.7v.219a.753.753,0,0,1,.234-.187A.617.617,0,0,1,1.2-1.531a.483.483,0,0,1,.391.156.686.686,0,0,1,.141.469Z" fill="#c93957"/>
      </g>
      <g id="Group_768" data-name="Group 768" transform="translate(100.602 568.203)">
        <path id="Path_686" data-name="Path 686" d="M.234-2.078H.7V-.953L1.25-1.5h.563l-.734.687.8.813H1.3L.7-.625V0H.234Z" fill="#c93957"/>
      </g>
      <g id="Group_769" data-name="Group 769" transform="translate(103.375 568.203)">
        <path id="Path_687" data-name="Path 687" d="M1.391-1.453v.375a1.182,1.182,0,0,0-.3-.109,1.324,1.324,0,0,0-.266-.031.381.381,0,0,0-.2.047.1.1,0,0,0-.062.094.1.1,0,0,0,.047.094A.4.4,0,0,0,.8-.937l.078.016a1.033,1.033,0,0,1,.5.156A.389.389,0,0,1,1.5-.437a.4.4,0,0,1-.187.359A.974.974,0,0,1,.8.031,1.662,1.662,0,0,1,.484,0,1.43,1.43,0,0,1,.172-.062V-.422a.932.932,0,0,0,.281.109,1.391,1.391,0,0,0,.313.031.449.449,0,0,0,.2-.031.141.141,0,0,0,.078-.125A.111.111,0,0,0,1-.531.588.588,0,0,0,.8-.578L.719-.594A.8.8,0,0,1,.266-.734a.4.4,0,0,1-.125-.328A.389.389,0,0,1,.3-1.406a.85.85,0,0,1,.5-.125,1.379,1.379,0,0,1,.281.031c.1.012.207.027.313.047Z" fill="#c93957"/>
      </g>
      <g id="Group_770" data-name="Group 770" transform="translate(105 568.203)">
        <path id="Path_688" data-name="Path 688" d="M.234-1.5H.7V0H.234Zm0-.578H.7v.391H.234Z" fill="#c93957"/>
      </g>
      <g id="Group_771" data-name="Group 771" transform="translate(105.938 568.203)">
        <path id="Path_689" data-name="Path 689" d="M1.734-.906V0H1.25V-.7a1.526,1.526,0,0,0-.016-.25.516.516,0,0,0-.016-.125.169.169,0,0,0-.078-.062.21.21,0,0,0-.109-.031.3.3,0,0,0-.25.125A.522.522,0,0,0,.7-.734V0H.234V-1.5H.7v.219a.753.753,0,0,1,.234-.187A.617.617,0,0,1,1.2-1.531a.483.483,0,0,1,.391.156.686.686,0,0,1,.141.469Z" fill="#c93957"/>
      </g>
      <g id="Group_772" data-name="Group 772" transform="translate(107.883 568.203)">
        <path id="Path_690" data-name="Path 690" d="M1.25-.25a.729.729,0,0,1-.234.188A.524.524,0,0,1,.75,0,.565.565,0,0,1,.3-.219.841.841,0,0,1,.125-.766.848.848,0,0,1,.3-1.313.577.577,0,0,1,.75-1.531a.567.567,0,0,1,.266.063.854.854,0,0,1,.234.188V-1.5h.484V-.156A.661.661,0,0,1,1.5.391a.984.984,0,0,1-.656.2A1.379,1.379,0,0,1,.563.563,1.116,1.116,0,0,1,.313.5V.125A1.04,1.04,0,0,0,.547.234.692.692,0,0,0,.8.281.483.483,0,0,0,1.141.172.455.455,0,0,0,1.25-.156ZM.938-1.187A.272.272,0,0,0,.7-1.078a.522.522,0,0,0-.078.313A.506.506,0,0,0,.7-.453a.263.263,0,0,0,.234.109.253.253,0,0,0,.219-.109A.46.46,0,0,0,1.25-.766a.474.474,0,0,0-.094-.313A.263.263,0,0,0,.938-1.187Z" fill="#c93957"/>
      </g>
      <g id="Group_773" data-name="Group 773" transform="translate(109.844 568.203)">
        <path id="Path_691" data-name="Path 691" d="M1.734-.906V0H1.25V-.687a1.693,1.693,0,0,0-.016-.266.516.516,0,0,0-.016-.125.169.169,0,0,0-.078-.062.21.21,0,0,0-.109-.031.3.3,0,0,0-.25.125A.522.522,0,0,0,.7-.734V0H.234V-2.078H.7v.8a.753.753,0,0,1,.234-.187A.617.617,0,0,1,1.2-1.531a.483.483,0,0,1,.391.156.686.686,0,0,1,.141.469Z" fill="#c93957"/>
      </g>
      <g id="Group_774" data-name="Group 774" transform="translate(70 570.938)">
        <path id="Path_692" data-name="Path 692" d="M1.219-2.078v.313H.953A.213.213,0,0,0,.8-1.719a.172.172,0,0,0-.031.125V-1.5h.406v.344H.766V0H.3V-1.156H.047V-1.5H.3v-.094a.452.452,0,0,1,.125-.359.625.625,0,0,1,.422-.125Z" fill="#c93957"/>
      </g>
      <g id="Group_775" data-name="Group 775" transform="translate(71.191 570.938)">
        <path id="Path_693" data-name="Path 693" d="M1.344-1.094a.31.31,0,0,0-.125-.031.729.729,0,0,0-.125-.016.375.375,0,0,0-.3.125A.5.5,0,0,0,.7-.688V0H.234V-1.5H.7v.25a.628.628,0,0,1,.2-.2.551.551,0,0,1,.3-.078H1.25a.753.753,0,0,1,.094.016Z" fill="#c93957"/>
      </g>
      <g id="Group_776" data-name="Group 776" transform="translate(72.539 570.938)">
        <path id="Path_694" data-name="Path 694" d="M.938-1.187a.319.319,0,0,0-.25.109A.551.551,0,0,0,.609-.75a.614.614,0,0,0,.078.344A.307.307,0,0,0,.938-.3a.272.272,0,0,0,.234-.109A.554.554,0,0,0,1.266-.75a.5.5,0,0,0-.094-.328A.282.282,0,0,0,.938-1.187Zm0-.344a.837.837,0,0,1,.609.219.738.738,0,0,1,.219.563.751.751,0,0,1-.219.578.864.864,0,0,1-.609.2.851.851,0,0,1-.609-.2.773.773,0,0,1-.2-.578.759.759,0,0,1,.2-.562A.825.825,0,0,1,.938-1.531Z" fill="#c93957"/>
      </g>
      <g id="Group_777" data-name="Group 777" transform="translate(74.418 570.938)">
        <path id="Path_695" data-name="Path 695" d="M1.609-1.25a.568.568,0,0,1,.219-.2.525.525,0,0,1,.281-.078.511.511,0,0,1,.391.156.686.686,0,0,1,.141.469V0H2.156V-.875a.387.387,0,0,0-.047-.219.173.173,0,0,0-.156-.078.24.24,0,0,0-.2.109.551.551,0,0,0-.078.328V0H1.188V-.781a.641.641,0,0,0-.047-.313A.14.14,0,0,0,1-1.172a.246.246,0,0,0-.219.125A.522.522,0,0,0,.7-.734V0H.234V-1.5H.7v.219a.7.7,0,0,1,.2-.187.577.577,0,0,1,.25-.062.463.463,0,0,1,.266.078.548.548,0,0,1,.188.2Z" fill="#c93957"/>
      </g>
      <g id="Group_778" data-name="Group 778" transform="translate(78.219 570.938)">
        <path id="Path_696" data-name="Path 696" d="M.75-1.922V-1.5h.5v.344H.75v.641a.235.235,0,0,0,.031.141.3.3,0,0,0,.172.031H1.2V0H.8A.6.6,0,0,1,.391-.109.6.6,0,0,1,.281-.516v-.641H.031V-1.5h.25v-.422Z" fill="#c93957"/>
      </g>
      <g id="Group_779" data-name="Group 779" transform="translate(79.523 570.938)">
        <path id="Path_697" data-name="Path 697" d="M1.734-.906V0H1.25V-.687a1.693,1.693,0,0,0-.016-.266.516.516,0,0,0-.016-.125.169.169,0,0,0-.078-.062.21.21,0,0,0-.109-.031.3.3,0,0,0-.25.125A.522.522,0,0,0,.7-.734V0H.234V-2.078H.7v.8a.753.753,0,0,1,.234-.187A.617.617,0,0,1,1.2-1.531a.483.483,0,0,1,.391.156.686.686,0,0,1,.141.469Z" fill="#c93957"/>
      </g>
      <g id="Group_780" data-name="Group 780" transform="translate(81.473 570.938)">
        <path id="Path_698" data-name="Path 698" d="M1.719-.75v.141H.609a.38.38,0,0,0,.109.25.479.479,0,0,0,.3.078,1.1,1.1,0,0,0,.313-.047,2.512,2.512,0,0,0,.328-.125v.359A1.964,1.964,0,0,1,1.313,0,2.083,2.083,0,0,1,.969.031a.873.873,0,0,1-.625-.2A.737.737,0,0,1,.125-.75a.724.724,0,0,1,.219-.563.825.825,0,0,1,.609-.219.721.721,0,0,1,.547.219.738.738,0,0,1,.219.563ZM1.234-.906a.305.305,0,0,0-.078-.219.273.273,0,0,0-.219-.094.333.333,0,0,0-.219.078.333.333,0,0,0-.109.234Z" fill="#c93957"/>
      </g>
      <g id="Group_781" data-name="Group 781" transform="translate(84.277 570.938)">
        <path id="Path_699" data-name="Path 699" d="M.25-2H.828L1.547-.625V-2h.484V0H1.469L.734-1.375V0H.25Z" fill="#c93957"/>
      </g>
      <g id="Group_782" data-name="Group 782" transform="translate(86.566 570.938)">
        <path id="Path_700" data-name="Path 700" d="M.938-1.187a.319.319,0,0,0-.25.109A.551.551,0,0,0,.609-.75a.614.614,0,0,0,.078.344A.307.307,0,0,0,.938-.3a.272.272,0,0,0,.234-.109A.554.554,0,0,0,1.266-.75a.5.5,0,0,0-.094-.328A.282.282,0,0,0,.938-1.187Zm0-.344a.837.837,0,0,1,.609.219.738.738,0,0,1,.219.563.751.751,0,0,1-.219.578.864.864,0,0,1-.609.2.851.851,0,0,1-.609-.2.773.773,0,0,1-.2-.578.759.759,0,0,1,.2-.562A.825.825,0,0,1,.938-1.531Z" fill="#c93957"/>
      </g>
      <g id="Group_783" data-name="Group 783" transform="translate(88.445 570.938)">
        <path id="Path_701" data-name="Path 701" d="M.219-.578V-1.5H.688v.969a.168.168,0,0,0,.047.109.249.249,0,0,0,.078.078.308.308,0,0,0,.109.016.253.253,0,0,0,.219-.109A.46.46,0,0,0,1.234-.75V-1.5h.484V0H1.234V-.219A.7.7,0,0,1,1-.016.634.634,0,0,1,.75.031.51.51,0,0,1,.344-.125.689.689,0,0,1,.219-.578Z" fill="#c93957"/>
      </g>
      <g id="Group_784" data-name="Group 784" transform="translate(90.391 570.938)">
        <path id="Path_702" data-name="Path 702" d="M1.734-.906V0H1.25V-.7a1.526,1.526,0,0,0-.016-.25.516.516,0,0,0-.016-.125.169.169,0,0,0-.078-.062.21.21,0,0,0-.109-.031.3.3,0,0,0-.25.125A.522.522,0,0,0,.7-.734V0H.234V-1.5H.7v.219a.753.753,0,0,1,.234-.187A.617.617,0,0,1,1.2-1.531a.483.483,0,0,1,.391.156.686.686,0,0,1,.141.469Z" fill="#c93957"/>
      </g>
      <g id="Group_785" data-name="Group 785" transform="translate(93.289 570.938)">
        <path id="Path_703" data-name="Path 703" d="M.25-2h.859a.88.88,0,0,1,.578.172.613.613,0,0,1,.2.484.6.6,0,0,1-.2.484.859.859,0,0,1-.578.172H.766V0H.25Zm.516.375v.563h.281a.372.372,0,0,0,.234-.062.3.3,0,0,0,.078-.219.251.251,0,0,0-.078-.2.333.333,0,0,0-.234-.078Z" fill="#c93957"/>
      </g>
      <g id="Group_786" data-name="Group 786" transform="translate(95.293 570.938)">
        <path id="Path_704" data-name="Path 704" d="M1.344-1.094a.31.31,0,0,0-.125-.031.729.729,0,0,0-.125-.016.375.375,0,0,0-.3.125A.5.5,0,0,0,.7-.688V0H.234V-1.5H.7v.25a.628.628,0,0,1,.2-.2.551.551,0,0,1,.3-.078H1.25a.753.753,0,0,1,.094.016Z" fill="#c93957"/>
      </g>
      <g id="Group_787" data-name="Group 787" transform="translate(96.645 570.938)">
        <path id="Path_705" data-name="Path 705" d="M.938-1.187a.319.319,0,0,0-.25.109A.551.551,0,0,0,.609-.75a.614.614,0,0,0,.078.344A.307.307,0,0,0,.938-.3a.272.272,0,0,0,.234-.109A.554.554,0,0,0,1.266-.75a.5.5,0,0,0-.094-.328A.282.282,0,0,0,.938-1.187Zm0-.344a.837.837,0,0,1,.609.219.738.738,0,0,1,.219.563.751.751,0,0,1-.219.578.864.864,0,0,1-.609.2.851.851,0,0,1-.609-.2.773.773,0,0,1-.2-.578.759.759,0,0,1,.2-.562A.825.825,0,0,1,.938-1.531Z" fill="#c93957"/>
      </g>
      <g id="Group_788" data-name="Group 788" transform="translate(98.52 570.938)">
        <path id="Path_706" data-name="Path 706" d="M.234-1.5H.7V-.031A.686.686,0,0,1,.563.438.548.548,0,0,1,.141.594H-.094V.281h.078A.233.233,0,0,0,.172.219a.379.379,0,0,0,.063-.25Zm0-.578H.7v.391H.234Z" fill="#c93957"/>
      </g>
      <g id="Group_789" data-name="Group 789" transform="translate(99.457 570.938)">
        <path id="Path_707" data-name="Path 707" d="M1.719-.75v.141H.609a.38.38,0,0,0,.109.25.479.479,0,0,0,.3.078,1.1,1.1,0,0,0,.313-.047,2.512,2.512,0,0,0,.328-.125v.359A1.964,1.964,0,0,1,1.313,0,2.083,2.083,0,0,1,.969.031a.873.873,0,0,1-.625-.2A.737.737,0,0,1,.125-.75a.724.724,0,0,1,.219-.563.825.825,0,0,1,.609-.219.721.721,0,0,1,.547.219.738.738,0,0,1,.219.563ZM1.234-.906a.305.305,0,0,0-.078-.219.273.273,0,0,0-.219-.094.333.333,0,0,0-.219.078.333.333,0,0,0-.109.234Z" fill="#c93957"/>
      </g>
      <g id="Group_790" data-name="Group 790" transform="translate(101.313 570.938)">
        <path id="Path_708" data-name="Path 708" d="M1.438-1.453v.391a.959.959,0,0,0-.2-.094.691.691,0,0,0-.2-.031.427.427,0,0,0-.312.125A.424.424,0,0,0,.609-.75a.491.491,0,0,0,.109.344A.449.449,0,0,0,1.031-.3.63.63,0,0,0,1.25-.328a.875.875,0,0,0,.188-.109v.391A.943.943,0,0,1,1.2.016,2.134,2.134,0,0,1,.984.031a.934.934,0,0,1-.641-.2A.737.737,0,0,1,.125-.75a.724.724,0,0,1,.219-.562.9.9,0,0,1,.641-.219A.87.87,0,0,1,1.2-1.5a2.073,2.073,0,0,1,.234.047Z" fill="#c93957"/>
      </g>
      <g id="Group_791" data-name="Group 791" transform="translate(102.934 570.938)">
        <path id="Path_709" data-name="Path 709" d="M.75-1.922V-1.5h.5v.344H.75v.641a.235.235,0,0,0,.031.141.3.3,0,0,0,.172.031H1.2V0H.8A.6.6,0,0,1,.391-.109.6.6,0,0,1,.281-.516v-.641H.031V-1.5h.25v-.422Z" fill="#c93957"/>
      </g>
    </g>
  </g>
</svg>
