<svg xmlns="http://www.w3.org/2000/svg" width="57.131" height="70.485" viewBox="0 0 57.131 70.485">
  <g id="noun-pregnancy-3907779" transform="translate(-328.494 -102.165) rotate(1)">
    <path id="Path_873" data-name="Path 873" d="M269.331,249.972c3.149-4.926-.444-16.122-5.326-20.575a6.451,6.451,0,0,0-5.308-1.954,8.77,8.77,0,0,0-1.412.4c-.011,0-.014-.018-.024-.013-17.2,5.472-22.854.091-23.09-.14l-.469-.478-.75.308c-.391.159-9.543,3.978-10.581,9.681-.532,2.924,1.177,5.788,5.086,8.524-2.814,1.079-10.888,4.616-12.9,10.325-1.43,4.061.542,8.325,5.865,12.674l.26.212h47.458l-.293-.677c-.042-.094-3.967-9.3-4.09-13.749a15.258,15.258,0,0,0,5.574-4.537ZM265.9,267.862H221.553c-4.8-4.011-6.59-7.9-5.3-11.576,2.219-6.312,12.878-9.926,12.987-9.963l1-.334-.789-.509c-4.054-2.642-5.858-5.384-5.358-8.155.789-4.356,7.077-7.64,9.151-8.613,1.747,1.286,7.788,4.507,21,1.153-1.892,2.579-1.211,6.67-.529,10.454.525,2.908,1.025,5.655.06,6.768-2.382,2.755-6.6,4.037-15,6.587-1.494.454-3.118.945-4.875,1.491-2.723.836-3.632,2.472-2.487,4.489.877,1.543,2.973,2.43,5.749,2.43a11.758,11.758,0,0,0,1.187-.059,83.094,83.094,0,0,0,23.753-6.651c.42,4.026,2.925,10.391,3.792,12.487Zm-27.842-6.9a8.136,8.136,0,0,1-.888.044c-1.43,0-3.311-.3-4.114-1.712-.856-1.509-.314-2.574,1.631-3.168,1.754-.546,3.367-1.035,4.861-1.487,8.732-2.653,13.118-3.983,15.767-7.044,1.215-1.41.715-4.186.134-7.4-.916-5.079-1.958-10.836,3.677-11.709a2.153,2.153,0,0,1,.359-.028,5,5,0,0,1,3.1,1.543c4.607,4.2,8.045,15.033,5.15,19.574-3.691,5.77-21.283,10.48-29.673,11.384Z" transform="translate(117.336 -103.028)" fill="#1a6f5d"/>
    <path id="Path_874" data-name="Path 874" d="M18.2,29.078c10.423,0,18.216-7.151,18.216-13.545,0-4.435-3.617-7.905-9.345-9.658a2.473,2.473,0,0,0,.517-1.363C27.587,2.024,23.378,0,18.208,0S8.819,2.024,8.819,4.512a2.479,2.479,0,0,0,.521,1.363C3.613,7.628,0,11.1,0,15.533c-.008,6.393,7.782,13.545,18.2,13.545Zm0-1.058c-8.129,0-14.47-4.955-16.017-10.114,11.418-.6,18.05-3.144,22.532-5.467a15.494,15.494,0,0,0,7.542,3.86,11.535,11.535,0,0,0,2.268.206c-.71,5.624-7.45,11.514-16.325,11.514ZM10.634,4.512c0-1.905,3.4-3.454,7.571-3.454s7.56,1.549,7.56,3.454a1.705,1.705,0,0,1-.3.884A32.247,32.247,0,0,0,18.2,4.61a32.145,32.145,0,0,0-7.26.785,1.75,1.75,0,0,1-.3-.884ZM18.2,5.671c9.615,0,16.325,4.022,16.388,9.785a8.467,8.467,0,0,1-1.773-.163,13.82,13.82,0,0,1-7.061-3.929l-.55-.624-.884.475c-4.29,2.323-10.719,5.041-22.382,5.643a7.718,7.718,0,0,1-.126-1.325c0-5.808,6.743-9.862,16.388-9.862Z" transform="translate(344.628 96.165) rotate(1)" fill="#1a6f5d"/>
  </g>
</svg>
