<svg xmlns="http://www.w3.org/2000/svg" width="43.461" height="43.795" viewBox="0 0 43.461 43.795">
  <path id="Path_874" data-name="Path 874" d="M21.347,43.057c12.227,0,21.368-10.588,21.368-20.056,0-6.566-4.243-11.705-10.962-14.3a4.279,4.279,0,0,0,.607-2.019C32.36,3,27.424,0,21.359,0S10.345,3,10.345,6.681A4.284,4.284,0,0,0,10.957,8.7C4.238,11.3,0,16.434,0,23c-.009,9.467,9.128,20.056,21.348,20.056Zm0-1.567c-9.535,0-16.974-7.337-18.789-14.976,13.394-.885,21.174-4.655,26.431-8.095a17.4,17.4,0,0,0,8.847,5.716,10.81,10.81,0,0,0,2.661.306c-.833,8.327-8.739,17.049-19.15,17.049ZM12.475,6.68c0-2.821,3.988-5.114,8.881-5.114s8.868,2.293,8.868,5.114a2.99,2.99,0,0,1-.351,1.308,30.34,30.34,0,0,0-8.526-1.163A30.245,30.245,0,0,0,12.83,7.989a3.066,3.066,0,0,1-.355-1.308ZM21.347,8.4c11.278,0,19.15,5.955,19.223,14.489a7.936,7.936,0,0,1-2.08-.242c-5-1.187-8.248-5.773-8.283-5.818l-.646-.924-1.037.7C23.493,20.045,15.951,24.07,2.27,24.961A14.344,14.344,0,0,1,2.123,23c0-8.6,7.91-14.6,19.223-14.6Z" transform="matrix(1, 0.017, -0.017, 1, 0.751, 0)" fill="#1a6f5d"/>
</svg>
