<svg xmlns="http://www.w3.org/2000/svg" width="67.089" height="60.85" viewBox="0 0 67.089 60.85">
  <path id="Path_873" data-name="Path 873" d="M279.785,260.405c3.745-7.184-.527-23.511-6.334-30.006-2.036-2.277-4.227-3.241-6.313-2.85a8.987,8.987,0,0,0-1.68.58c-.013,0-.016-.026-.029-.019-20.46,7.98-27.18.133-27.461-.2l-.557-.7-.892.449c-.465.232-11.349,5.8-12.584,14.118-.633,4.264,1.4,8.442,6.049,12.431-3.347,1.573-12.949,6.732-15.341,15.058-1.7,5.922.645,12.142,6.975,18.484l.31.309h56.441l-.348-.987c-.05-.137-4.717-13.561-4.864-20.051,3.022-2.025,5.4-4.25,6.629-6.617ZM275.7,286.5H222.963c-5.714-5.849-7.838-11.524-6.3-16.883,2.639-9.205,15.316-14.476,15.445-14.53l1.194-.487-.938-.742c-4.822-3.853-6.966-7.852-6.372-11.893.938-6.353,8.417-11.142,10.883-12.562,2.078,1.876,9.262,6.572,24.975,1.681-2.25,3.761-1.441,9.728-.629,15.246.624,4.242,1.219,8.247.071,9.871-2.832,4.018-7.847,5.888-17.838,9.607-1.776.663-3.708,1.379-5.8,2.175-3.238,1.22-4.319,3.6-2.957,6.547,1.043,2.251,3.536,3.544,6.837,3.544a11.437,11.437,0,0,0,1.412-.086c7.31-.965,19.664-4.591,28.249-9.7.5,5.872,3.478,15.153,4.509,18.211Zm-33.112-10.059a7.91,7.91,0,0,1-1.056.064c-1.7,0-3.938-.433-4.893-2.5-1.018-2.2-.373-3.754,1.939-4.62,2.086-.8,4-1.509,5.781-2.168,10.385-3.869,15.6-5.808,18.751-10.273,1.445-2.057.851-6.1.159-10.788-1.09-7.407-2.329-15.8,4.373-17.077a2.1,2.1,0,0,1,.427-.041c1.081,0,2.384.8,3.683,2.251,5.479,6.126,9.568,21.924,6.124,28.546-4.389,8.415-25.311,15.284-35.289,16.6Z" transform="translate(-214.104 -227.21)" fill="#1a6f5d"/>
</svg>
