<svg xmlns="http://www.w3.org/2000/svg" width="480" height="481" viewBox="0 0 480 481">
  <path id="noun-surgery-room-2485202_1_" data-name="noun-surgery-room-2485202 (1)" d="M370.508,87.484c-36.938,0-67.072,34.451-67.072,76.579.021,6,4.283,10.862,9.546,10.887h24.466c2.379,18.411,16.293,32.772,33.057,32.772s30.661-14.361,33.04-32.772h24.47c5.271-.015,9.541-4.875,9.563-10.887,0-42.128-30.131-76.579-67.072-76.579Zm0,21.862c22.814,0,39.022,19.5,43.933,43.743H326.569c4.912-24.253,21.119-43.743,43.938-43.743Zm-13.478,65.6h27.161c-3.32,7.735-8.326,10.887-13.683,10.887S359.4,182.324,357.029,174.951Zm13.328,43.572c-5.271.107-9.481,5.051-9.417,11.063v32.831c0,6.046,4.3,10.945,9.593,10.945s9.593-4.9,9.593-10.945V229.585a11.732,11.732,0,0,0-2.832-7.891,9.011,9.011,0,0,0-6.936-3.172ZM317.927,220.7l0,0a9.466,9.466,0,0,0-8.4,5.656l-14.376,28.4a12.2,12.2,0,0,0-1.4,8.584,10.9,10.9,0,0,0,4.557,7.012,8.529,8.529,0,0,0,7.6.976,10.064,10.064,0,0,0,5.81-5.685l14.354-28.4a12.268,12.268,0,0,0,.137-10.965,9.47,9.47,0,0,0-8.279-5.578Zm104.866.083,0,0a9.54,9.54,0,0,0-8.014,5.695,12.271,12.271,0,0,0,.15,10.765l14.359,28.4c2.636,5.241,8.5,7.051,13.093,4.045s6.187-9.691,3.547-14.932l-14.432-28.4a9.407,9.407,0,0,0-8.7-5.573ZM236.365,295.189c-18.412,0-33.617,17.236-33.617,38.238s15.207,38.258,33.617,38.258,33.527-17.259,33.527-38.258-15.112-38.238-33.527-38.238Zm268.337,0c-18.412,0-33.6,17.236-33.6,38.238s15.189,38.258,33.6,38.258,33.545-17.259,33.545-38.258-15.133-38.238-33.545-38.238ZM236.365,317.051c8.053,0,14.359,7.188,14.359,16.376s-6.3,16.376-14.359,16.376-14.432-7.188-14.432-16.376S228.313,317.051,236.365,317.051Zm268.337,0c8.052,0,14.376,7.188,14.376,16.376S512.755,349.8,504.7,349.8s-14.432-7.188-14.432-16.376S496.65,317.051,504.7,317.051ZM187.951,363.766c-15.6-1.088-30.2,10.575-34.371,28.328l-22.369,94.962a12.3,12.3,0,0,0,.963,8.31,9.887,9.887,0,0,0,5.832,5.1c5.122,1.562,10.384-1.908,11.757-7.749l22.275-94.986c1.836-7.813,7.98-12.6,14.637-12.17a15.417,15.417,0,0,1,2.978.556c7.86,2.406,12.289,11.131,10.183,20.09l-4.587,19.622a12.085,12.085,0,0,0,1.985,9.926,57.574,57.574,0,0,0,19.934,15.562c12.635,5.87,31.487,7.964,52.94-4.27h0a10.5,10.5,0,0,0,5.1-6.3,12.331,12.331,0,0,0-.462-8.559,10.046,10.046,0,0,0-5.729-5.548,8.543,8.543,0,0,0-7.479.873c-16.888,9.633-28.688,7.476-37.139,3.543-5.956-2.767-7.163-4.88-8.912-6.763l2.9-12.424c4.766-20.285-5.99-41.445-23.772-46.885a30.831,30.831,0,0,0-6.589-1.215v0h-.056Zm365.79,0a30.828,30.828,0,0,0-6.589,1.215c-17.782,5.436-28.539,26.6-23.772,46.88l2.9,12.424c-1.75,1.884-2.957,4-8.912,6.768-8.45,3.923-20.251,6.085-37.139-3.543a8.544,8.544,0,0,0-7.479-.874,10.027,10.027,0,0,0-5.733,5.548,12.33,12.33,0,0,0-.458,8.559,10.493,10.493,0,0,0,5.1,6.3c21.449,12.234,40.283,10.14,52.918,4.27a57.791,57.791,0,0,0,19.956-15.562,12.1,12.1,0,0,0,1.985-9.926l-4.608-19.622c-2.105-8.959,2.34-17.684,10.2-20.09a13.932,13.932,0,0,1,2.9-.556c6.679-.468,12.87,4.328,14.715,12.17L592,492.71h0a10.867,10.867,0,0,0,4.467,6.671,8.577,8.577,0,0,0,7.3,1.108,9.871,9.871,0,0,0,5.836-5.109,12.317,12.317,0,0,0,.954-8.325l-22.373-94.962c-4.167-17.753-18.783-29.416-34.384-28.328a.124.124,0,0,0-.06,0ZM275.48,393.46a8.7,8.7,0,0,0-4.326,1.283s-18.133,9.779-34.106,9.779v0a9.013,9.013,0,0,0-6.919,3.113,12.038,12.038,0,0,0,0,15.635,8.981,8.981,0,0,0,6.919,3.113c22.365,0,42.68-12.107,42.68-12.107v0c4.082-2.2,6.268-7.349,5.246-12.365s-4.98-8.535-9.494-8.452Zm190.524,0c-4.463.068-8.292,3.636-9.242,8.608S458,412.1,462.033,414.278c0,0,20.3,12.107,42.663,12.107v0a8.974,8.974,0,0,0,6.919-3.113,12.038,12.038,0,0,0,0-15.635,9.007,9.007,0,0,0-6.919-3.113c-15.972,0-34.088-9.779-34.088-9.779v0a8.616,8.616,0,0,0-4.6-1.283Zm-95.5,11.058c-18.412,0-33.545,17.236-33.545,38.238s15.133,38.258,33.545,38.258,33.527-17.259,33.527-38.258S388.915,404.518,370.5,404.518Zm0,21.862c8.052,0,14.359,7.188,14.359,16.376s-6.3,16.4-14.359,16.4-14.376-7.212-14.376-16.4S362.448,426.38,370.5,426.38Zm-52.713,10.887c-21.646,0-39.6,18.426-42.586,42.205-.843,6.593,3.628,12.507,9.473,12.512h47.544c7.9-.015,12.391-10.311,7.637-17.509a48.162,48.162,0,0,1-7.71-26.321c-.017-6.007-4.279-10.867-9.546-10.887Zm100.6,0c-5.267.02-9.529,4.88-9.546,10.887a48.114,48.114,0,0,1-7.715,26.321c-4.754,7.2-.265,17.494,7.637,17.509h47.549c5.84,0,10.333-5.919,9.49-12.512-2.987-23.784-20.957-42.205-42.6-42.205ZM313.744,459.6a80.254,80.254,0,0,0,2.678,10.526l-17.8-.039c4.976-6.715,10.667-9.711,15.126-10.482Zm113.423.039a21.374,21.374,0,0,1,14.9,10.462l-17.5,0a78.916,78.916,0,0,0,2.6-10.462Zm122.613,10.292v0a8.43,8.43,0,0,0-.993.024,9.4,9.4,0,0,0-7.12,4.646,12.214,12.214,0,0,0-1.361,9.228l5.447,23.077v0a10.937,10.937,0,0,0,4.446,6.764,8.581,8.581,0,0,0,7.342,1.137,9.89,9.89,0,0,0,5.862-5.168,12.332,12.332,0,0,0,.886-8.393l-5.447-23.077h0c-1.057-4.753-4.758-8.125-9.058-8.242Zm-358.057.024v0c-4.189.254-7.744,3.582-8.78,8.218L177.5,501.251a12.331,12.331,0,0,0,.886,8.393,9.893,9.893,0,0,0,5.862,5.168,8.585,8.585,0,0,0,7.342-1.137,10.914,10.914,0,0,0,4.441-6.764l5.447-23.077a12.148,12.148,0,0,0-1.746-9.8,9.116,9.116,0,0,0-8.005-4.079Zm63.739,32.924c-15.763,0-28.714,14.8-28.714,32.772s12.951,32.836,28.714,32.836H485.538c15.763,0,28.735-14.86,28.735-32.836s-12.969-32.772-28.735-32.772Zm0,21.862H485.538c5.477,0,9.546,4.665,9.546,10.911s-4.073,10.975-9.546,10.975l-230.077,0c-5.477,0-9.546-4.729-9.546-10.975s4.073-10.911,9.546-10.911Z" transform="translate(-130.885 -87.484)" fill="#1a6f5d"/>
</svg>
