<?xml version="1.0" encoding="UTF-8"?>
<svg xmlns="http://www.w3.org/2000/svg" xmlns:xlink="http://www.w3.org/1999/xlink" width="21px" height="19px" viewBox="0 0 21 19" version="1.1">
<g id="surface1">
<path style=" stroke:none;fill-rule:nonzero;fill:rgb(0%,0%,0%);fill-opacity:1;" d="M 14 17.8125 L 15.75 17.8125 C 16.164062 17.8125 16.546875 17.589844 16.757812 17.222656 L 20.839844 10.097656 C 21.050781 9.730469 21.050781 9.277344 20.84375 8.90625 C 20.636719 8.535156 20.253906 8.3125 19.832031 8.3125 L 5.25 8.3125 C 4.835938 8.3125 4.453125 8.535156 4.242188 8.902344 L 1.75 13.25 L 1.75 3.5625 C 1.75 3.234375 2.011719 2.96875 2.332031 2.96875 L 6.617188 2.96875 C 6.769531 2.96875 6.917969 3.03125 7.027344 3.144531 L 7.996094 4.125 C 8.761719 4.90625 9.800781 5.34375 10.882812 5.34375 L 15.167969 5.34375 C 15.488281 5.34375 15.75 5.609375 15.75 5.9375 L 15.75 7.125 L 17.5 7.125 L 17.5 5.9375 C 17.5 4.628906 16.453125 3.5625 15.167969 3.5625 L 10.882812 3.5625 C 10.261719 3.5625 9.667969 3.3125 9.230469 2.867188 L 8.265625 1.882812 C 7.828125 1.4375 7.234375 1.1875 6.613281 1.1875 L 2.332031 1.1875 C 1.046875 1.1875 0 2.253906 0 3.5625 L 0 15.4375 C 0 16.746094 1.046875 17.8125 2.332031 17.8125 Z M 14 17.8125 "/>
</g>
</svg>
