<svg xmlns="http://www.w3.org/2000/svg" viewBox="0 0 433.44 492.33"><g id="Layer_2" data-name="Layer 2"><g id="Layer_1-2" data-name="Layer 1"><path d="M400.37,146.3a11.59,11.59,0,0,0,16.6,0l13-13a11.59,11.59,0,0,0,0-16.6L386.88,73.67a11.59,11.59,0,0,0-16.6,0l-13,13a11.59,11.59,0,0,0,0,16.6l8.3,8.3-17.12,17.12A205.57,205.57,0,0,0,248.36,83.53V59.14H265a11.52,11.52,0,0,0,11.41-11.41V11.41A11.52,11.52,0,0,0,265,0H168a11.52,11.52,0,0,0-11.41,11.41V47.73A11.52,11.52,0,0,0,168,59.14h16.61V83A207.81,207.81,0,0,0,85,127.62L67.83,110.5l8.3-8.3a11.59,11.59,0,0,0,0-16.6l-13-13a11.59,11.59,0,0,0-16.6,0L3.5,116.21a11.59,11.59,0,0,0,0,16.6l13,13a11.59,11.59,0,0,0,16.6,0l8.3-8.3L58.49,154.6A204.24,204.24,0,0,0,10.77,286.37c0,113.61,92.34,206,206,206s206-92.35,206-206a205.19,205.19,0,0,0-47.21-131.25L392.59,138ZM216.72,448.75c-89.23,0-162.38-72.63-162.38-162.38A162.29,162.29,0,0,1,216.72,124C306,124,379.1,196.62,379.1,286.37S306,448.75,216.72,448.75Z"/><path d="M288.83,264.58H238.51V183.65a21.79,21.79,0,0,0-43.58,0V286.37a21.92,21.92,0,0,0,21.79,21.79h72.63a21.92,21.92,0,0,0,21.78-21.79c-.51-11.93-9.85-21.79-22.3-21.79Z"/></g></g></svg>