<svg xmlns="http://www.w3.org/2000/svg" viewBox="0 0 483.83 502.86"><g id="Layer_2" data-name="Layer 2"><g id="Layer_1-2" data-name="Layer 1"><path d="M340.87,418.69a17.88,17.88,0,0,0,25.41,0L415,370a18,18,0,0,0-25.4-25.41l-36,36-13.23-13.23a18,18,0,1,0-25.41,25.41Z"/><path d="M431.39,49.23H408.63v-5.3a43.94,43.94,0,0,0-87.87,0v5.3h-34.4v-5.3a43.94,43.94,0,0,0-87.87,0v5.3h-34.4v-5.3a43.94,43.94,0,0,0-87.87,0v5.3H53.46A53.31,53.31,0,0,0,0,102.69v346.7a53.32,53.32,0,0,0,53.46,53.47H430.34a53.32,53.32,0,0,0,53.46-53.47V103.22a52.22,52.22,0,0,0-52.41-54Zm-82.57-4.76a15.88,15.88,0,1,1,31.76,0V82.58a15.88,15.88,0,0,1-31.76,0Zm-121.75,0a15.88,15.88,0,1,1,31.76,0V82.58a15.88,15.88,0,0,1-31.76,0Zm-122.27,0a15.88,15.88,0,1,1,31.76,0V82.58a15.88,15.88,0,1,1-31.76,0ZM457.33,449.93a26,26,0,0,1-25.94,25.93H54.51a26,26,0,0,1-25.94-25.94V169.38H456.8V449.92Z"/><path d="M96.33,305.42h54.52a14,14,0,0,0,13.76-13.76V236.61a14,14,0,0,0-13.76-13.76H96.33a14,14,0,0,0-13.76,13.76v55a14,14,0,0,0,13.76,13.77Z"/><path d="M216,305.42h54.52a14,14,0,0,0,13.77-13.76V236.61a14,14,0,0,0-13.77-13.76H216a14,14,0,0,0-13.76,13.76v55c-.53,7.42,5.82,13.77,13.76,13.77Z"/><path d="M335.05,305.42h54.52a14,14,0,0,0,13.76-13.76V236.61a14,14,0,0,0-13.76-13.76H335.05a14,14,0,0,0-13.76,13.76v55a14,14,0,0,0,13.76,13.77Z"/><path d="M96.33,422.93h54.52a14,14,0,0,0,13.76-13.76V354.12a14,14,0,0,0-13.76-13.76H96.33a14,14,0,0,0-13.76,13.76v55a14,14,0,0,0,13.76,13.77Z"/><path d="M216,422.93h54.52a14,14,0,0,0,13.77-13.76V354.12a14,14,0,0,0-13.77-13.76H216a14,14,0,0,0-13.76,13.76v55c-.53,7.42,5.82,13.77,13.76,13.77Z"/></g></g></svg>