<?xml version="1.0" encoding="utf-8"?>
<!-- Generator: Adobe Illustrator 28.1.0, SVG Export Plug-In . SVG Version: 6.00 Build 0)  -->
<svg version="1.1" id="Layer_2_00000162312241563621892950000006497283239114455996_"
	 xmlns="http://www.w3.org/2000/svg" xmlns:xlink="http://www.w3.org/1999/xlink" x="0px" y="0px" viewBox="0 0 40 29.3"
	 style="enable-background:new 0 0 40 29.3;" xml:space="preserve">
<style type="text/css">
	.st0{fill:#45BA82;}
</style>
<g id="Layer_1-2_00000077285298436748165210000016791731176092222387_">
	<g id="Layer_1-2">
		<g>
			<g id="_84DH8B">
				<g>
					<g>
						<path class="st0" d="M20.5,23.2c-1.5,1.1-3.1,1.7-4.8,2c-1,0.2-2,0.2-3-0.1c-0.7-0.2-1.2-0.7-1.4-1.4c-0.2-1-0.5-2.1-0.7-3.1
							c-0.1-0.6-0.2-1.1-0.3-1.7c0-0.2-0.1-0.2-0.3-0.3c-0.5-0.1-1-0.2-1.3-0.6c-0.3-0.3-0.4-0.6-0.2-1c0.9-2,1.4-4.2,1.5-6.4
							c0.1-2.3,0.8-4.4,2.3-6.3c1.8-2.3,4.1-3.7,7-4.1c3.3-0.5,6.3,0.4,8.8,2.6c2.1,1.8,3.3,4,3.6,6.8c0.2,1.5,0,2.9-0.4,4.4
							c-0.4,1.4-0.8,2.7-1.1,4.1c-0.2,0.8-0.3,1.5-0.3,2.3c-0.1,2.6-0.2,5.3-0.2,7.9c0,0.1,0,0.2,0,0.4c0,0.1-0.1,0.1-0.1,0.2
							c0-0.1-0.1-0.1-0.1-0.2c0-0.2,0-0.5,0-0.7c0.1-2.7,0.2-5.4,0.3-8.2c0.1-1.3,0.4-2.5,0.8-3.8c0.3-1.2,0.7-2.5,0.9-3.7
							c0.4-2.2,0-4.4-1.1-6.3c-1.6-3-4.2-4.8-7.5-5.4C17.1-0.5,11.4,3.3,10.4,9c-0.2,0.9-0.2,1.8-0.3,2.7c-0.2,1.9-0.7,3.7-1.4,5.5
							c-0.1,0.3-0.1,0.6,0.2,0.8c0.4,0.2,0.8,0.3,1.2,0.5c0.2,0.1,0.3,0.1,0.4,0.3c0.1,0.6,0.2,1.3,0.4,2c0.2,0.9,0.4,1.9,0.6,2.8
							c0.2,1,0.9,1.4,1.8,1.6c1.4,0.3,2.7,0,4-0.4c1.2-0.4,2.3-0.9,3.2-1.7c0.2-0.1,0.2-0.1,0.3,0.1c0.1,0.8,0.2,1.5,0,2.3
							c-0.2,1.1-0.4,2.2-0.6,3.3c0,0.1-0.1,0.1-0.2,0.2c0-0.1-0.1-0.2-0.1-0.3c0.2-1,0.4-2,0.6-3.1C20.6,24.8,20.6,24,20.5,23.2
							L20.5,23.2L20.5,23.2z"/>
						<path class="st0" d="M29.4,29.3L29.3,29c0,0,0,0,0,0c0-0.1-0.1-0.1-0.1-0.2c0-0.2,0-0.5,0-0.7c0-0.8,0-1.5,0.1-2.2
							c0.1-1.9,0.1-4,0.2-5.9c0-1.2,0.4-2.3,0.7-3.4l0.2-0.8c0.3-1.1,0.6-2.2,0.8-3.3c0.4-2.1,0-4.2-1.1-6.2
							c-1.6-2.9-4.1-4.7-7.4-5.3c-2.7-0.5-5.4,0.1-7.7,1.7C12.6,4,11.1,6.4,10.6,9c-0.1,0.6-0.2,1.3-0.2,1.9c0,0.3,0,0.5-0.1,0.8
							c-0.2,1.9-0.7,3.8-1.4,5.6c-0.1,0.3-0.1,0.4,0.1,0.5c0.3,0.2,0.7,0.3,1.2,0.4c0.2,0,0.4,0.2,0.5,0.5c0.1,0.3,0.1,0.6,0.2,0.8
							c0.1,0.4,0.1,0.7,0.2,1.1c0.2,0.9,0.4,1.8,0.6,2.7l0,0.1c0.2,0.8,0.7,1.3,1.6,1.4c1.2,0.2,2.4,0.1,3.9-0.4
							c1.3-0.4,2.4-1,3.2-1.7c0.1-0.1,0.2-0.1,0.4-0.1c0.2,0.1,0.2,0.3,0.2,0.3c0.1,0.8,0.1,1.6,0,2.4c-0.1,0.9-0.3,1.8-0.5,2.7
							l-0.1,0.7c0,0.1-0.1,0.2-0.1,0.2c0,0,0,0,0,0L20,29.3L19.8,29c0,0,0,0,0-0.1c0-0.1-0.1-0.2-0.1-0.3c0.1-0.4,0.1-0.8,0.2-1.2
							c0.1-0.6,0.2-1.2,0.3-1.9c0.1-0.6,0.1-1.3,0-1.9c-1.4,1-2.9,1.6-4.6,1.9c-1.2,0.2-2.2,0.2-3.1-0.1c-0.8-0.3-1.4-0.8-1.6-1.5
							c-0.3-1.1-0.5-2.1-0.7-3.1c-0.1-0.4-0.2-0.9-0.2-1.3L10,19c0-0.1,0-0.1-0.1-0.1c-0.5-0.1-1-0.2-1.4-0.6
							c-0.3-0.3-0.4-0.7-0.2-1.2c0.9-2,1.4-4.2,1.5-6.3c0.2-2.4,0.9-4.6,2.3-6.4c1.8-2.4,4.2-3.8,7.1-4.2c3.4-0.5,6.4,0.4,9,2.6
							c2.1,1.8,3.3,4.1,3.7,6.9c0.2,1.3,0,2.7-0.4,4.4c-0.1,0.5-0.3,1-0.4,1.5c-0.2,0.9-0.5,1.8-0.7,2.7c-0.2,0.7-0.3,1.5-0.3,2.3
							c-0.1,1.9-0.1,3.8-0.2,5.7c0,0.7,0,1.5-0.1,2.2v0.1c0,0.1,0,0.2,0,0.3c0,0.1-0.1,0.2-0.1,0.2c0,0,0,0,0,0.1L29.4,29.3
							L29.4,29.3L29.4,29.3z"/>
					</g>
					<g>
						<path class="st0" d="M15,11.9h1c0.1,0,0.2,0,0.2,0c0,0,0.1,0.1,0.1,0.1c-0.1,0-0.1,0.1-0.1,0.1c-0.5,0-0.9,0-1.4,0
							c-0.2,0-0.2-0.1-0.2-0.3V9.2c0-0.6,0-1.1,0-1.7c0-0.2,0.1-0.3,0.3-0.3c1.2,0,2.4,0,3.6,0c2.3,0,4.6,0,6.8,0
							c0.3,0,0.4,0.1,0.4,0.3c0,1.4,0,2.8,0,4.2c0,0.3-0.1,0.3-0.3,0.3c-1.6,0-3.2,0-4.8,0c-0.1,0-0.1,0-0.2,0
							c-0.1,0-0.1-0.1-0.1-0.1c0-0.1,0.1-0.1,0.1-0.1c0.1,0,0.2,0,0.2,0h4.8V7.5H15V11.9L15,11.9z"/>
						<path class="st0" d="M25.5,12.4L25.5,12.4c-1.2,0-2.5,0-3.6,0h-1.2c-0.1,0-0.1,0-0.2,0c-0.1,0-0.1-0.1-0.2-0.1c0,0,0,0,0,0
							l-0.1-0.1l0.1-0.1c0,0,0,0,0,0c0-0.1,0.1-0.1,0.2-0.2s0.2,0,0.2,0h4.7v-4H15.2v4h0.9c0.1,0,0.1,0,0.2,0c0.1,0,0.1,0.1,0.2,0.1
							c0,0,0,0,0,0l0.1,0.1l-0.2,0.1c0,0,0,0,0,0c-0.1,0.1-0.1,0.1-0.2,0.1c-0.4,0-0.8,0-1.2,0h-0.2c-0.1,0-0.2,0-0.3-0.1
							c-0.1-0.1-0.1-0.2-0.1-0.3V8.7c0-0.4,0-0.8,0-1.2c0-0.1,0-0.3,0.1-0.4c0.1-0.1,0.2-0.1,0.4-0.1c0.9,0,1.8,0,2.6,0h2.5
							c1.8,0,3.5,0,5.3,0c0.1,0,0.3,0,0.4,0.1S26,7.5,26,7.6c0,1.4,0,2.8,0,4.2c0,0.1,0,0.3-0.1,0.4S25.6,12.4,25.5,12.4L25.5,12.4z
							"/>
					</g>
					<rect x="15.1" y="7.5" class="st0" width="10.5" height="4.8"/>
				</g>
			</g>
			<rect x="26.8" y="7.1" class="st0" width="0.9" height="5.3"/>
		</g>
	</g>
</g>
</svg>
