<svg width="16" height="16" viewBox="0 0 16 16" fill="none" xmlns="http://www.w3.org/2000/svg">
<path d="M8.93936e-07 7.99996C0.000437492 6.25178 0.573493 4.55187 1.63152 3.16021C2.68955 1.76856 4.1743 0.761779 5.85869 0.293856C7.54308 -0.174068 9.33438 -0.0773739 10.9586 0.569148C12.5828 1.21567 13.9506 2.37643 14.8527 3.87389C15.7547 5.37135 16.1415 7.12307 15.9537 8.86114C15.766 10.5992 15.0141 12.2279 13.813 13.4982C12.612 14.7685 11.0279 15.6104 9.30306 15.8951C7.57823 16.1799 5.80761 15.8918 4.262 15.075L0.622001 15.985C0.538226 16.006 0.450426 16.005 0.367156 15.982C0.283886 15.9591 0.207987 15.9149 0.146856 15.8539C0.0857261 15.7929 0.0414494 15.717 0.0183415 15.6338C-0.00476649 15.5506 -0.00591733 15.4628 0.015001 15.379L0.925001 11.738C0.316917 10.5859 -0.000614893 9.30269 8.93936e-07 7.99996ZM7.25 5.30696C7.403 5.13396 7.64 4.99996 8 4.99996C8.36 4.99996 8.597 5.13396 8.75 5.30696C8.911 5.49096 9 5.74496 9 5.99996C9 6.31696 8.929 6.52296 8.834 6.68496C8.733 6.85896 8.598 6.99896 8.411 7.19496L8.389 7.21896C8.2 7.41596 7.968 7.66296 7.791 7.99996C7.611 8.34596 7.5 8.76096 7.5 9.29296C7.5 9.42557 7.55268 9.55274 7.64645 9.64651C7.74022 9.74028 7.86739 9.79296 8 9.79296C8.13261 9.79296 8.25979 9.74028 8.35355 9.64651C8.44732 9.55274 8.5 9.42557 8.5 9.29296C8.5 8.90896 8.577 8.65496 8.677 8.46396C8.782 8.26396 8.925 8.10496 9.111 7.90996L9.153 7.86696C9.323 7.68996 9.535 7.46896 9.698 7.18896C9.884 6.86896 10 6.48896 10 5.99996C10 5.52696 9.839 5.02996 9.5 4.64596C9.153 4.25196 8.64 3.99996 8 3.99996C7.36 3.99996 6.847 4.25196 6.5 4.64596C6.16 5.03096 6 5.52596 6 5.99996C6 6.13257 6.05268 6.25974 6.14645 6.35351C6.24022 6.44728 6.36739 6.49996 6.5 6.49996C6.63261 6.49996 6.75979 6.44728 6.85355 6.35351C6.94732 6.25974 7 6.13257 7 5.99996C7 5.74496 7.089 5.48996 7.25 5.30696ZM8.7 11.513C8.7 11.3273 8.62625 11.1493 8.49498 11.018C8.3637 10.8867 8.18565 10.813 8 10.813C7.81435 10.813 7.6363 10.8867 7.50503 11.018C7.37375 11.1493 7.3 11.3273 7.3 11.513C7.3 11.6986 7.37375 11.8767 7.50503 12.0079C7.6363 12.1392 7.81435 12.213 8 12.213C8.18565 12.213 8.3637 12.1392 8.49498 12.0079C8.62625 11.8767 8.7 11.6986 8.7 11.513Z" fill="#09CE87"/>
</svg>
