<svg xmlns="http://www.w3.org/2000/svg" width="27.743" height="29.265" viewBox="0 0 27.743 29.265">
  <g id="Group_11" data-name="Group 11" transform="translate(-947.301 -604)">
    <g id="Vector_1_" data-name="Vector (1)" transform="translate(935 603.636)">
      <path id="Path_1" data-name="Path 1" d="M39.812,11.182C38.587,1.279,28.767.46,28.366.431,27.878.375,16.411-.809,14.5,9.606a3.772,3.772,0,0,0,.7,3.24,12.837,12.837,0,0,1-2.529,3.535,1.407,1.407,0,0,0-.289,1.421,2.835,2.835,0,0,0,1.6,1.5c.5.231.441,1.415.336,1.947a.906.906,0,0,0,.313.9,1.785,1.785,0,0,1,.655,1.509c-.17.763-.526,2.348.453,3.465.751.857,2.038,1.19,3.924,1.017a24.33,24.33,0,0,0,6.83-1.649.913.913,0,0,0,.49-.486.89.89,0,0,0,0-.693.913.913,0,0,0-.488-.491.891.891,0,0,0-.693,0,23.083,23.083,0,0,1-6.286,1.517,3.17,3.17,0,0,1-2.418-.406c-.327-.371-.216-1.12-.047-1.874a3.337,3.337,0,0,0-.886-2.93c.1-.933.082-2.766-1.424-3.462a2.083,2.083,0,0,1-.509-.307c1.921-2.163,2.859-3.76,2.792-4.751a1.361,1.361,0,0,0-.479-.977c-.409-.345-.357-1.254-.263-1.658a8.675,8.675,0,0,1,6.456-7.236,15.049,15.049,0,0,1,5.426-.5c.021,0,.041.006.064.006.088.006,8.733.608,9.792,9.169A13.954,13.954,0,0,1,36.4,20.7a16.8,16.8,0,0,0-2.128,8.005.908.908,0,0,0,.9.924h.009a.907.907,0,0,0,.9-.889,15.245,15.245,0,0,1,1.942-7.24,15.682,15.682,0,0,0,1.8-10.324Z" fill="#3fbca1"/>
    </g>
  </g>
</svg>
