<svg xmlns="http://www.w3.org/2000/svg" width="40" height="35" viewBox="0 0 40 35">
  <g id="Group_10" data-name="Group 10" transform="translate(-935 -638)">
    <rect id="Rectangle_5" data-name="Rectangle 5" width="40" height="35" transform="translate(935 638)" fill="none"/>
    <g id="Layer_1" data-name="Layer 1" transform="translate(946.984 639.435)">
      <g id="Layer_1-2" data-name="Layer 1-2" transform="translate(0 0)">
        <g id="Group_9" data-name="Group 9">
          <g id="_84DH8B" data-name=" 84DH8B">
            <g id="Group_8" data-name="Group 8">
              <g id="Group_6" data-name="Group 6">
                <path id="Path_10" data-name="Path 10" d="M14.346,25.47a13,13,0,0,1-5.58,2.223,7.6,7.6,0,0,1-3.507-.131,2.195,2.195,0,0,1-1.667-1.555c-.289-1.139-.556-2.288-.81-3.438-.139-.624-.255-1.248-.382-1.872-.035-.186-.139-.252-.324-.285a2.87,2.87,0,0,1-1.551-.624.854.854,0,0,1-.232-1.073A20.506,20.506,0,0,0,2.03,11.708,11.722,11.722,0,0,1,4.669,4.832,12.514,12.514,0,0,1,12.8.333a12.715,12.715,0,0,1,10.2,2.8,11.333,11.333,0,0,1,4.214,7.39,11.6,11.6,0,0,1-.475,4.8c-.428,1.511-.914,3.011-1.285,4.533a12.446,12.446,0,0,0-.347,2.529c-.116,2.879-.2,5.77-.278,8.649a2.508,2.508,0,0,1-.023.416.966.966,0,0,1-.15.252c-.046-.077-.127-.153-.139-.241-.012-.263,0-.536,0-.8.1-2.978.185-5.967.324-8.945a17.98,17.98,0,0,1,.891-4.106c.394-1.358.8-2.715,1.088-4.095A9.477,9.477,0,0,0,25.529,6.6,12.093,12.093,0,0,0,16.858.661C10.353-.521,3.824,3.683,2.608,9.836c-.2.974-.255,1.96-.37,2.945A20.893,20.893,0,0,1,.594,18.825c-.162.361-.127.646.243.832a7.86,7.86,0,0,0,1.4.5c.243.066.37.153.417.361.15.712.278,1.423.44,2.135.22,1.018.463,2.025.695,3.044A2.26,2.26,0,0,0,5.85,27.43a9.809,9.809,0,0,0,4.677-.438,10.831,10.831,0,0,0,3.762-1.883c.174-.142.278-.088.324.142a7.085,7.085,0,0,1,.035,2.518c-.208,1.215-.475,2.431-.718,3.635-.023.088-.116.142-.185.219-.035-.088-.116-.2-.093-.285.22-1.128.463-2.244.671-3.383a7.514,7.514,0,0,0,.023-2.5h0Z" transform="translate(0.008 0.013)" fill="#45ba82"/>
                <path id="Path_11" data-name="Path 11" d="M24.646,32.122l-.185-.307s-.023-.033-.035-.055a.469.469,0,0,1-.116-.274c-.012-.263,0-.526,0-.81.035-.821.058-1.642.081-2.452.069-2.124.139-4.325.243-6.492a16.344,16.344,0,0,1,.775-3.755l.254-.876c.335-1.171.694-2.387.948-3.591a9.412,9.412,0,0,0-1.249-6.788A11.836,11.836,0,0,0,16.85.9,12.409,12.409,0,0,0,7.9,2.715a11.216,11.216,0,0,0-5.043,7.2c-.139.679-.208,1.38-.278,2.058-.035.3-.058.58-.093.876a21.749,21.749,0,0,1-1.654,6.1c-.15.339-.058.482.139.58a6.279,6.279,0,0,0,1.365.482.669.669,0,0,1,.567.515c.069.307.127.613.185.92.081.405.162.81.254,1.215.22.985.451,1.982.671,2.956l.023.088a2.054,2.054,0,0,0,1.9,1.577,9.4,9.4,0,0,0,4.569-.438,10.351,10.351,0,0,0,3.678-1.85.4.4,0,0,1,.4-.109c.208.066.243.3.266.372a7.482,7.482,0,0,1,.035,2.584c-.162.985-.37,1.971-.567,2.923l-.15.723a.426.426,0,0,1-.173.252.194.194,0,0,0-.046.055l-.243.285-.127-.339-.035-.066a.453.453,0,0,1-.069-.307c.093-.449.173-.9.266-1.347.139-.668.278-1.347.393-2.025A6.682,6.682,0,0,0,14.19,25.9a13.444,13.444,0,0,1-5.367,2.058,7.868,7.868,0,0,1-3.609-.131,2.385,2.385,0,0,1-1.8-1.7c-.3-1.161-.567-2.321-.821-3.438-.1-.482-.208-.974-.289-1.456l-.081-.427c-.012-.077-.023-.1-.15-.12A3.115,3.115,0,0,1,.4,20.013a1.034,1.034,0,0,1-.278-1.292A20.253,20.253,0,0,0,1.837,11.78a12.009,12.009,0,0,1,2.683-7A12.528,12.528,0,0,1,12.779.153,12.948,12.948,0,0,1,23.142,3a11.571,11.571,0,0,1,4.279,7.511,11.6,11.6,0,0,1-.486,4.872c-.15.536-.312,1.062-.463,1.6-.278.963-.578,1.949-.821,2.934a12.493,12.493,0,0,0-.335,2.5c-.093,2.069-.15,4.182-.208,6.219l-.069,2.431v.1a1.24,1.24,0,0,1-.035.35.753.753,0,0,1-.127.252c-.012.022-.035.044-.046.066l-.2.307h0Z" transform="translate(-0.01 -0.004)" fill="#45ba82" stroke="#45ba82" stroke-width="1"/>
              </g>
              <g id="Group_7" data-name="Group 7" transform="translate(7.865 7.78)">
                <path id="Path_12" data-name="Path 12" d="M6.967,12.4H8.105a2.1,2.1,0,0,1,.263,0c.055.022.1.088.142.142-.055.044-.109.12-.164.12h-1.5c-.219,0-.186-.164-.186-.3V7.6c0-.241.077-.318.318-.318h11.4c.3,0,.383.077.383.383-.011,1.555-.011,3.1,0,4.653,0,.285-.088.361-.372.361h-5.3a.936.936,0,0,1-.175,0,.7.7,0,0,1-.142-.109c.044-.055.088-.131.142-.153a.706.706,0,0,1,.263,0h5.266V7.608H6.967v4.806Z" transform="translate(-6.474 -7.094)" fill="#45ba82"/>
                <path id="Path_13" data-name="Path 13" d="M18.424,12.913H13.07a.747.747,0,0,1-.208-.022.548.548,0,0,1-.175-.12l-.033-.033-.164-.131.142-.164.033-.033a.447.447,0,0,1,.2-.175.559.559,0,0,1,.263-.022h5.124v-4.4H7.191v4.4h1a1.157,1.157,0,0,1,.263.022.415.415,0,0,1,.2.153c0,.011.022.022.033.033l.153.164-.175.142-.033.033a.406.406,0,0,1-.252.142h-1.5a.356.356,0,0,1-.285-.109.448.448,0,0,1-.1-.35V7.636a.5.5,0,0,1,.12-.394A.51.51,0,0,1,7,7.11H18.4a.616.616,0,0,1,.449.142.631.631,0,0,1,.142.449c-.011,1.489-.011,3.011,0,4.653a.57.57,0,0,1-.131.427.58.58,0,0,1-.427.142Z" transform="translate(-6.49 -7.11)" fill="#45ba82"/>
              </g>
              <rect id="Rectangle_3" data-name="Rectangle 3" width="11.452" height="5.277" transform="translate(8.472 8.295)" fill="#45ba82"/>
            </g>
          </g>
          <rect id="Rectangle_4" data-name="Rectangle 4" width="0.996" height="5.803" transform="translate(21.617 7.78)" fill="#45ba82"/>
        </g>
      </g>
    </g>
  </g>
</svg>
