<svg xmlns="http://www.w3.org/2000/svg" width="12.109" height="14.946" viewBox="0 0 12.109 14.946">
  <g id="Layer_1" data-name="Layer 1" transform="translate(-55.01 -32.004)">
    <g id="Layer_1-2" data-name="Layer 1-2" transform="translate(55 32)">
      <g id="Group_9" data-name="Group 9" transform="translate(0.01 0.004)">
        <g id="_84DH8B" data-name=" 84DH8B">
          <g id="Group_8" data-name="Group 8">
            <g id="Group_6" data-name="Group 6">
              <path id="Path_10" data-name="Path 10" d="M6.422,11.948a5.545,5.545,0,0,1-2.455,1.034,3.17,3.17,0,0,1-1.543-.061A.99.99,0,0,1,1.69,12.2c-.127-.53-.244-1.064-.357-1.6-.061-.29-.112-.581-.168-.871a.148.148,0,0,0-.143-.132A1.226,1.226,0,0,1,.341,9.3a.412.412,0,0,1-.1-.5A9.986,9.986,0,0,0,1,5.546a5.637,5.637,0,0,1,1.161-3.2A5.437,5.437,0,0,1,5.739.254a5.381,5.381,0,0,1,4.487,1.3A5.348,5.348,0,0,1,12.08,5a5.69,5.69,0,0,1-.209,2.231c-.188.7-.4,1.4-.565,2.108a6.1,6.1,0,0,0-.153,1.176c-.051,1.339-.087,2.684-.122,4.023a1.233,1.233,0,0,1-.01.194.455.455,0,0,1-.066.117.345.345,0,0,1-.061-.112c-.005-.122,0-.25,0-.372.046-1.385.081-2.776.143-4.161a8.777,8.777,0,0,1,.392-1.91c.173-.632.351-1.263.479-1.9a4.62,4.62,0,0,0-.565-3.219A5.33,5.33,0,0,0,7.527.407,5.416,5.416,0,0,0,1.257,4.675c-.087.453-.112.912-.163,1.37A10.159,10.159,0,0,1,.371,8.856c-.071.168-.056.3.107.387a3.338,3.338,0,0,0,.616.234c.107.031.163.071.183.168.066.331.122.662.194.993.1.474.2.942.306,1.416a1.012,1.012,0,0,0,.907.8,4.1,4.1,0,0,0,2.058-.2A4.671,4.671,0,0,0,6.4,11.78c.076-.066.122-.041.143.066a3.481,3.481,0,0,1,.015,1.171c-.092.565-.209,1.131-.316,1.691-.01.041-.051.066-.081.1-.015-.041-.051-.092-.041-.132.1-.525.2-1.044.3-1.574a3.693,3.693,0,0,0,.01-1.161h0Z" transform="translate(-0.101 -0.093)" fill="#45ba82"/>
              <path id="Path_11" data-name="Path 11" d="M10.858,14.944l-.081-.143s-.01-.015-.015-.025a.225.225,0,0,1-.051-.127c-.005-.122,0-.244,0-.377.015-.382.025-.764.036-1.141.031-.988.061-2.012.107-3.02a7.978,7.978,0,0,1,.341-1.747l.112-.407c.148-.545.306-1.11.418-1.67a4.587,4.587,0,0,0-.55-3.158A5.22,5.22,0,0,0,7.425.42a5.227,5.227,0,0,0-3.942.845,5.225,5.225,0,0,0-2.22,3.351c-.061.316-.092.642-.122.957-.015.138-.025.27-.041.407A10.569,10.569,0,0,1,.371,8.818c-.066.158-.025.224.061.27a2.67,2.67,0,0,0,.6.224.3.3,0,0,1,.25.239c.031.143.056.285.081.428.036.188.071.377.112.565.1.458.2.922.3,1.375l.01.041a.921.921,0,0,0,.835.733,3.932,3.932,0,0,0,2.012-.2,4.473,4.473,0,0,0,1.62-.861.171.171,0,0,1,.178-.051c.092.031.107.138.117.173a3.674,3.674,0,0,1,.015,1.2c-.071.458-.163.917-.25,1.36l-.066.336a.2.2,0,0,1-.076.117.089.089,0,0,0-.02.025l-.107.132-.056-.158-.015-.031a.22.22,0,0,1-.031-.143c.041-.209.076-.418.117-.626.061-.311.122-.626.173-.942a3.281,3.281,0,0,0,.025-.973,5.736,5.736,0,0,1-2.363.957A3.286,3.286,0,0,1,2.3,12.948a1.078,1.078,0,0,1-.794-.789c-.132-.54-.25-1.08-.362-1.6-.046-.224-.092-.453-.127-.677l-.036-.2c-.005-.036-.01-.046-.066-.056a1.333,1.333,0,0,1-.733-.316.5.5,0,0,1-.122-.6A9.857,9.857,0,0,0,.815,5.482,5.771,5.771,0,0,1,2,2.227,5.452,5.452,0,0,1,5.632.073,5.487,5.487,0,0,1,10.2,1.4,5.459,5.459,0,0,1,12.08,4.891a5.688,5.688,0,0,1-.214,2.266c-.066.25-.138.494-.2.744-.122.448-.255.907-.362,1.365a6.12,6.12,0,0,0-.148,1.161c-.041.963-.066,1.945-.092,2.893l-.031,1.131V14.5a.608.608,0,0,1-.015.163.358.358,0,0,1-.056.117c-.005.01-.015.02-.02.031l-.087.143h0Z" transform="translate(-0.01 -0.004)" fill="#45ba82"/>
            </g>
            <g id="Group_7" data-name="Group 7" transform="translate(3.3 3.619)">
              <path id="Path_12" data-name="Path 12" d="M6.8,9.663h.53a.978.978,0,0,1,.122,0c.025.01.046.041.066.066-.025.02-.051.056-.076.056h-.7c-.1,0-.087-.076-.087-.138V7.428c0-.112.036-.148.148-.148h5.3c.138,0,.178.036.178.178-.005.723-.005,1.441,0,2.164,0,.132-.041.168-.173.168H9.649a.435.435,0,0,1-.081,0A.327.327,0,0,1,9.5,9.74c.02-.025.041-.061.066-.071a.328.328,0,0,1,.122,0h2.45V7.433H6.8V9.669Z" transform="translate(-6.572 -7.193)" fill="#45ba82"/>
              <path id="Path_13" data-name="Path 13" d="M12.041,9.809H9.551a.347.347,0,0,1-.1-.01.255.255,0,0,1-.081-.056l-.015-.015-.076-.061.066-.076.015-.015a.208.208,0,0,1,.092-.081.26.26,0,0,1,.122-.01H11.96V7.436H6.816V9.483h.463a.538.538,0,0,1,.122.01.193.193,0,0,1,.092.071c0,.005.01.01.015.015l.071.076L7.5,9.723l-.015.015a.189.189,0,0,1-.117.066h-.7a.166.166,0,0,1-.132-.051A.208.208,0,0,1,6.49,9.59V7.354a.232.232,0,0,1,.056-.183.237.237,0,0,1,.183-.061h5.3a.287.287,0,0,1,.209.066.294.294,0,0,1,.066.209c-.005.693-.005,1.4,0,2.164a.265.265,0,0,1-.061.2.27.27,0,0,1-.2.066Z" transform="translate(-6.49 -7.11)" fill="#45ba82"/>
            </g>
            <rect id="Rectangle_3" data-name="Rectangle 3" width="5.327" height="2.455" transform="translate(3.58 3.858)" fill="#45ba82"/>
          </g>
        </g>
        <rect id="Rectangle_4" data-name="Rectangle 4" width="0.463" height="2.699" transform="translate(9.498 3.619)" fill="#45ba82"/>
      </g>
    </g>
  </g>
</svg>
