<svg width="18" height="12" viewBox="0 0 18 12" fill="none" xmlns="http://www.w3.org/2000/svg">
<path fill-rule="evenodd" clip-rule="evenodd" d="M3.1665 0.166016C2.50346 0.166016 1.86758 0.429408 1.39874 0.898249C0.929896 1.36709 0.666504 2.00297 0.666504 2.66602V9.33268C0.666504 9.99572 0.929896 10.6316 1.39874 11.1005C1.86758 11.5693 2.50346 11.8327 3.1665 11.8327H11.4998C12.1629 11.8327 12.7988 11.5693 13.2676 11.1005C13.7364 10.6316 13.9998 9.99572 13.9998 9.33268V8.01102L15.9107 9.92185C16.0272 10.0384 16.1757 10.1177 16.3373 10.1498C16.4989 10.182 16.6665 10.1655 16.8187 10.1024C16.971 10.0394 17.1011 9.93257 17.1927 9.79556C17.2842 9.65856 17.3331 9.49747 17.3332 9.33268V2.66602C17.3331 2.50122 17.2842 2.34014 17.1927 2.20313C17.1011 2.06613 16.971 1.95934 16.8187 1.89628C16.6665 1.83323 16.4989 1.81672 16.3373 1.84886C16.1757 1.881 16.0272 1.96034 15.9107 2.07685L13.9998 3.98768V2.66602C13.9998 2.00297 13.7364 1.36709 13.2676 0.898249C12.7988 0.429408 12.1629 0.166016 11.4998 0.166016H3.1665Z" fill="#09CE87"/>
</svg>
