<svg width="14" height="18" viewBox="0 0 14 18" fill="none" xmlns="http://www.w3.org/2000/svg">
<path d="M13.875 1.5V14C13.875 14.1658 13.8092 14.3247 13.6919 14.4419C13.5747 14.5592 13.4158 14.625 13.25 14.625H2.625C2.29348 14.625 1.97554 14.7567 1.74112 14.9911C1.5067 15.2255 1.375 15.5435 1.375 15.875H12C12.1658 15.875 12.3247 15.9408 12.4419 16.0581C12.5592 16.1753 12.625 16.3342 12.625 16.5C12.625 16.6658 12.5592 16.8247 12.4419 16.9419C12.3247 17.0592 12.1658 17.125 12 17.125H0.75C0.58424 17.125 0.425269 17.0592 0.308058 16.9419C0.190848 16.8247 0.125 16.6658 0.125 16.5V3.375C0.125 2.71196 0.388392 2.07607 0.857233 1.60723C1.32607 1.13839 1.96196 0.875 2.625 0.875H13.25C13.4158 0.875 13.5747 0.940848 13.6919 1.05806C13.8092 1.17527 13.875 1.33424 13.875 1.5Z" fill="#09CE87"/>
</svg>
