<svg xmlns="http://www.w3.org/2000/svg" width="28.473" height="27.792" viewBox="0 0 28.473 27.792">
  <path id="Star_4" data-name="Star 4" d="M14.809,1.924a.183.183,0,0,1,.069-.106.233.233,0,0,1,.243,0,.183.183,0,0,1,.069.106L17.711,9.9a2.2,2.2,0,0,0,2.1,1.537h8.225a.184.184,0,0,1,.12.034.232.232,0,0,1,.076.227.184.184,0,0,1-.076.1l-6.712,5.016a2.2,2.2,0,0,0-.781,2.425l2.55,8.072a.184.184,0,0,1,0,.126.233.233,0,0,1-.2.14.183.183,0,0,1-.118-.045l-6.583-4.919a2.2,2.2,0,0,0-2.634,0L7.1,27.531a.183.183,0,0,1-.118.045.233.233,0,0,1-.2-.14.183.183,0,0,1,0-.126l2.55-8.072a2.2,2.2,0,0,0-.781-2.425l-.6.8.6-.8L1.847,11.8a.184.184,0,0,1-.076-.1.232.232,0,0,1,.076-.227.184.184,0,0,1,.12-.034h8.225a2.2,2.2,0,0,0,2.1-1.537Z" transform="translate(-0.763 -0.784)" fill="#fc0" stroke="#fc0" stroke-width="2"/>
</svg>
