<svg width="30" height="29" viewBox="0 0 30 29" fill="none" xmlns="http://www.w3.org/2000/svg">
<path d="M14.8093 1.92352C14.8301 1.85769 14.8583 1.8318 14.8787 1.81775C14.9058 1.79918 14.9479 1.78377 15 1.78377C15.0521 1.78377 15.0942 1.79918 15.1213 1.81775C15.1417 1.8318 15.1699 1.8577 15.1907 1.92353L17.7106 9.90038C17.9996 10.8155 18.8486 11.4377 19.8084 11.4377H28.0331C28.1002 11.4377 28.1334 11.4561 28.1535 11.4715C28.1795 11.4915 28.2068 11.5263 28.2229 11.5746C28.2389 11.623 28.2379 11.6671 28.229 11.6987C28.2221 11.7231 28.2066 11.7577 28.1528 11.7979L21.4412 16.8135C20.6918 17.3735 20.3786 18.3463 20.6604 19.2384L23.2102 27.31C23.2307 27.3752 23.2228 27.4125 23.2141 27.436C23.2027 27.4667 23.1774 27.5034 23.1352 27.5333C23.0931 27.5633 23.0501 27.5751 23.0173 27.5757C22.9923 27.5762 22.9544 27.5714 22.8997 27.5305L16.317 22.6112C15.536 22.0275 14.464 22.0275 13.683 22.6112L7.10028 27.5305C7.04556 27.5714 7.00769 27.5762 6.98267 27.5757C6.94988 27.5751 6.90689 27.5633 6.86475 27.5333C6.82261 27.5034 6.79727 27.4667 6.7859 27.436C6.77723 27.4125 6.76927 27.3752 6.78984 27.31L9.33961 19.2384C9.62143 18.3463 9.30819 17.3735 8.55875 16.8135L7.96013 17.6145L8.55875 16.8135L1.84719 11.7979C1.79345 11.7577 1.77786 11.7231 1.771 11.6987C1.7621 11.6671 1.76105 11.623 1.77713 11.5746C1.7932 11.5263 1.82047 11.4915 1.8465 11.4715C1.86658 11.4561 1.89982 11.4377 1.96692 11.4377H10.1916C11.1514 11.4377 12.0004 10.8155 12.2894 9.90038L14.8093 1.92352Z" stroke="#FFCC00" stroke-width="2"/>
</svg>
