<svg width="44" height="44" viewBox="0 0 44 44" fill="none" xmlns="http://www.w3.org/2000/svg">
<circle cx="22" cy="22" r="22" fill="#3FBCA1"/>
<path d="M18.1802 26.5198L31.4364 12.3919C31.8483 11.9529 32.3726 11.7334 33.0092 11.7334C33.6458 11.7334 34.17 11.9529 34.5819 12.3919C34.9938 12.8309 35.1998 13.3896 35.1998 14.0681C35.1998 14.7465 34.9938 15.3053 34.5819 15.7443L19.753 31.5484C19.3036 32.0273 18.7794 32.2667 18.1802 32.2667C17.5811 32.2667 17.0568 32.0273 16.6075 31.5484L9.41768 23.8858C9.00576 23.4468 8.7998 22.888 8.7998 22.2096C8.7998 21.5311 9.00576 20.9724 9.41768 20.5334C9.82959 20.0944 10.3538 19.8749 10.9904 19.8749C11.627 19.8749 12.1513 20.0944 12.5632 20.5334L18.1802 26.5198Z" fill="#FFFDEE"/>
</svg>
