<svg width="40" height="30" viewBox="0 0 40 30" fill="none" xmlns="http://www.w3.org/2000/svg">
<path d="M39.8122 11.1817C38.5871 1.27908 28.7664 0.460439 28.3658 0.431202C27.8776 0.375651 16.4107 -0.808454 14.5045 9.60583C14.4606 9.79294 14.063 11.6846 15.2003 12.8453C15.0775 13.2575 14.3788 14.4884 12.6713 16.3801C12.3175 16.7719 12.2064 17.3186 12.3819 17.801C12.6041 18.4091 13.142 18.912 13.9811 19.3009C14.484 19.5318 14.4226 20.716 14.3174 21.2481C14.2443 21.5843 14.3671 21.9264 14.6302 22.1427C14.639 22.1486 15.4635 22.8473 15.2851 23.6514C15.1155 24.4145 14.7588 25.9991 15.7383 27.116C16.4897 27.9726 17.7761 28.3059 19.6619 28.1334C19.8023 28.1246 23.1119 27.8791 26.4917 26.4844C26.7139 26.3909 26.8893 26.2184 26.9829 25.9962C27.0765 25.774 27.0765 25.5284 26.9829 25.3033C26.8893 25.0811 26.7168 24.9056 26.4946 24.8121C26.2724 24.7185 26.0268 24.7185 25.8017 24.8121C22.7114 26.0868 19.5537 26.3266 19.5157 26.3295C18.3024 26.4406 17.4223 26.2915 17.0978 25.9231C16.7704 25.5518 16.8815 24.8033 17.051 24.049C17.3551 22.6924 16.6183 21.6252 16.1651 21.1194C16.2646 20.1868 16.247 18.3536 14.7413 17.6577C14.484 17.5408 14.3261 17.4326 14.2326 17.3507C16.1535 15.1872 17.092 13.5909 17.0247 12.5997C16.9896 12.0968 16.744 11.7898 16.5452 11.6232C16.1359 11.2782 16.1885 10.3689 16.2821 9.96544C16.9633 6.23478 19.1356 3.79932 22.7377 2.72924C25.5035 1.9106 28.1378 2.22344 28.1641 2.22636C28.1846 2.22636 28.205 2.23221 28.2284 2.23221C28.3161 2.23806 36.9615 2.84034 38.0199 11.401C38.6134 16.1959 37.5375 18.3857 36.3973 20.7043C35.3857 22.7626 34.3419 24.891 34.2688 28.7094C34.263 28.9521 34.3536 29.1801 34.5232 29.3555C34.6898 29.531 34.9149 29.6274 35.1664 29.6333H35.1752C35.6663 29.6333 36.0698 29.2357 36.0786 28.7445C36.1429 25.3267 37.099 23.3824 38.0229 21.5024C39.2274 19.0465 40.4759 16.5087 39.818 11.1788L39.8122 11.1817Z" fill="#09CE87"/>
<path d="M10.5367 17.6841C10.5367 17.4414 10.4432 17.2163 10.2707 17.0438C10.1011 16.8742 9.87304 16.7777 9.63037 16.7777C9.38771 16.7777 9.16258 16.8713 8.99008 17.0438C7.06335 18.9705 7.06335 22.1047 8.99008 24.0315C9.15966 24.201 9.38771 24.2975 9.63037 24.2975C9.87304 24.2975 10.0982 24.204 10.2707 24.0315C10.4402 23.8619 10.5367 23.6338 10.5367 23.3912C10.5367 23.1485 10.4432 22.9234 10.2707 22.7509C9.04855 21.5288 9.04855 19.5436 10.2707 18.3214C10.4402 18.1519 10.5367 17.9238 10.5367 17.6812V17.6841Z" fill="#09CE87"/>
<path d="M5.70957 20.5376C5.70957 18.7278 6.41419 17.0262 7.69478 15.7456C7.86435 15.5761 7.96083 15.348 7.96083 15.1053C7.96083 14.8627 7.86728 14.6375 7.69478 14.465C7.5252 14.2955 7.29715 14.199 7.05448 14.199C6.81181 14.199 6.58669 14.2925 6.41419 14.465C4.79152 16.0877 3.89979 18.2425 3.89979 20.5376C3.89979 22.8327 4.79152 24.9875 6.41419 26.6102C6.58376 26.7797 6.81181 26.8762 7.05448 26.8762C7.29715 26.8762 7.52228 26.7827 7.69478 26.6102C7.86435 26.4406 7.96083 26.2125 7.96083 25.9699C7.96083 25.7272 7.86728 25.5021 7.69478 25.3296C6.41419 24.049 5.70957 22.3474 5.70957 20.5376Z" fill="#09CE87"/>
<path d="M4.93207 12.9827C5.10164 12.8132 5.19812 12.5851 5.19812 12.3424C5.19812 12.0998 5.10457 11.8746 4.93207 11.7021C4.76249 11.5326 4.53444 11.4361 4.29177 11.4361C4.0491 11.4361 3.82398 11.5296 3.65148 11.7021C1.29789 14.0587 -0.000244141 17.1958 -0.000244141 20.5376C-0.000244141 23.8794 1.29789 27.0137 3.65148 29.3702C3.82105 29.5397 4.0491 29.6362 4.29177 29.6362C4.53444 29.6362 4.75957 29.5427 4.93207 29.3702C5.10164 29.2006 5.19812 28.9725 5.19812 28.7299C5.19812 28.4872 5.10457 28.2621 4.93207 28.0896C0.76577 23.9233 0.76577 17.1461 4.93207 12.9827Z" fill="#09CE87"/>
</svg>
