<?xml version="1.0" encoding="UTF-8"?>
<svg id="Layer_2" data-name="Layer 2" xmlns="http://www.w3.org/2000/svg" viewBox="0 0 23.79 29.34">
  <defs>
    <style>
      .cls-1 {
        fill: #45ba82;
        stroke-width: 0px;
      }
    </style>
  </defs>
  <g id="Layer_1-2" data-name="Layer 1">
    <g id="Layer_1-2" data-name="Layer 1-2">
      <g>
        <g id="_84DH8B" data-name=" 84DH8B">
          <g>
            <g>
              <path class="cls-1" d="M12.42,23.28c-1.46,1.1-3.07,1.73-4.82,2.03-1.01.18-2.03.2-3.03-.12-.73-.23-1.25-.66-1.44-1.42-.25-1.04-.48-2.09-.7-3.14-.12-.57-.22-1.14-.33-1.71-.03-.17-.12-.23-.28-.26-.49-.08-.96-.21-1.34-.57-.29-.28-.36-.6-.2-.98.86-2.05,1.36-4.18,1.5-6.4.14-2.32.85-4.44,2.28-6.28C5.85,2.15,8.2.75,11.08.32c3.32-.49,6.28.37,8.81,2.56,2.06,1.77,3.27,4.04,3.64,6.75.2,1.49-.03,2.95-.41,4.38-.37,1.38-.79,2.75-1.11,4.14-.18.75-.27,1.54-.3,2.31-.1,2.63-.17,5.27-.24,7.9,0,.13,0,.25-.02.38-.02.08-.08.15-.13.23-.04-.07-.11-.14-.12-.22-.01-.24,0-.49,0-.73.09-2.72.16-5.45.28-8.17.06-1.28.43-2.52.77-3.75.34-1.24.69-2.48.94-3.74.44-2.24-.01-4.35-1.11-6.32-1.64-2.96-4.16-4.78-7.49-5.42C8.97-.46,3.33,3.38,2.28,9c-.17.89-.22,1.79-.32,2.69-.21,1.91-.68,3.74-1.42,5.52-.14.33-.11.59.21.76.38.2.8.34,1.21.46.21.06.32.14.36.33.13.65.24,1.3.38,1.95.19.93.4,1.85.6,2.78.21.96.87,1.41,1.78,1.58,1.39.27,2.73.02,4.04-.4,1.18-.38,2.3-.9,3.25-1.72.15-.13.24-.08.28.13.13.77.16,1.54.03,2.3-.18,1.11-.41,2.22-.62,3.32-.02.08-.1.13-.16.2-.03-.08-.1-.18-.08-.26.19-1.03.4-2.05.58-3.09.13-.74.13-1.49.02-2.28h0Z"/>
              <path class="cls-1" d="M21.31,29.34l-.16-.28s-.02-.03-.03-.05c-.04-.06-.1-.14-.1-.25-.01-.24,0-.48,0-.74.03-.75.05-1.5.07-2.24.06-1.94.12-3.95.21-5.93.05-1.18.37-2.33.67-3.43l.22-.8c.29-1.07.6-2.18.82-3.28.41-2.07.04-4.16-1.08-6.2-1.61-2.91-4.09-4.7-7.36-5.32-2.67-.51-5.42.08-7.74,1.66-2.31,1.58-3.86,3.92-4.36,6.58-.12.62-.18,1.26-.24,1.88-.03.27-.05.53-.08.8-.22,1.93-.7,3.8-1.43,5.57-.13.31-.05.44.12.53.31.17.69.31,1.18.44.2.05.43.16.49.47.06.28.11.56.16.84.07.37.14.74.22,1.11.19.9.39,1.81.58,2.7l.02.08c.18.8.69,1.26,1.64,1.44,1.17.23,2.39.1,3.95-.4,1.34-.43,2.35-.97,3.18-1.69.12-.11.24-.14.35-.1.18.06.21.27.23.34.14.82.15,1.62.03,2.36-.14.9-.32,1.8-.49,2.67l-.13.66c-.02.11-.09.18-.15.23-.02.02-.03.03-.04.05l-.21.26-.11-.31s-.02-.04-.03-.06c-.04-.08-.08-.17-.06-.28.08-.41.15-.82.23-1.23.12-.61.24-1.23.34-1.85.11-.64.13-1.27.05-1.91-1.35.95-2.87,1.57-4.64,1.88-1.19.21-2.19.17-3.12-.12-.85-.27-1.38-.79-1.56-1.55-.26-1.06-.49-2.12-.71-3.14-.09-.44-.18-.89-.25-1.33l-.07-.39c-.01-.07-.02-.09-.13-.11-.5-.09-1.03-.22-1.44-.62-.35-.33-.43-.74-.24-1.18.85-2.03,1.35-4.16,1.48-6.34.15-2.45.93-4.6,2.32-6.39C5.74,1.98,8.15.57,11.05.14c3.37-.5,6.38.38,8.96,2.6,2.08,1.8,3.33,4.11,3.7,6.86.18,1.31.04,2.73-.42,4.45-.13.49-.27.97-.4,1.46-.24.88-.5,1.78-.71,2.68-.16.69-.26,1.45-.29,2.28-.08,1.89-.13,3.82-.18,5.68-.02.74-.04,1.48-.06,2.22v.09c0,.1,0,.21-.03.32-.02.09-.07.17-.11.23-.01.02-.03.04-.04.06l-.17.28h0Z"/>
            </g>
            <g>
              <path class="cls-1" d="M6.94,11.96h1.04c.08,0,.17-.01.24,0,.05.02.09.08.13.13-.05.04-.1.11-.15.11-.46,0-.91,0-1.37,0-.2,0-.17-.15-.17-.27v-2.69c0-.56,0-1.11,0-1.67,0-.22.07-.29.29-.29,1.19,0,2.39,0,3.58,0,2.28,0,4.55,0,6.83,0,.27,0,.35.07.35.35-.01,1.42-.01,2.83,0,4.25,0,.26-.08.33-.34.33-1.62,0-3.23,0-4.84,0-.05,0-.11.01-.16,0-.05-.02-.09-.07-.13-.1.04-.05.08-.12.13-.14.07-.03.16,0,.24,0h4.81v-4.39H6.94v4.39Z"/>
              <path class="cls-1" d="M17.39,12.41h-.01c-1.21,0-2.44,0-3.63,0h-1.25c-.05,0-.12,0-.19-.02-.07-.03-.12-.07-.16-.11,0,0-.02-.02-.03-.03l-.15-.12.13-.15s.02-.02.03-.03c.04-.05.09-.13.18-.16.09-.03.17-.03.24-.02h4.68v-4.02H7.13v4.02h.91c.07,0,.15,0,.24.02.09.03.14.09.18.14,0,.01.02.02.03.03l.14.15-.16.13s-.02.02-.03.03c-.05.05-.12.12-.23.13-.39,0-.79,0-1.17,0h-.2c-.11,0-.2-.03-.26-.1-.1-.1-.09-.23-.09-.32v-3.21c0-.39,0-.79,0-1.18,0-.11,0-.26.11-.36.1-.11.25-.12.36-.12.88,0,1.76,0,2.64,0h2.49c1.76,0,3.52,0,5.28,0,.14,0,.3.02.41.13s.13.28.13.41c-.01,1.36-.01,2.75,0,4.25,0,.13-.01.28-.12.39s-.26.13-.39.13Z"/>
            </g>
            <rect class="cls-1" x="7.04" y="7.58" width="10.46" height="4.82"/>
          </g>
        </g>
        <rect class="cls-1" x="18.66" y="7.11" width=".91" height="5.3"/>
      </g>
    </g>
  </g>
</svg>