<?xml version="1.0" encoding="UTF-8"?>
<svg id="Layer_2" data-name="Layer 2" xmlns="http://www.w3.org/2000/svg" viewBox="0 0 103.84 76">
  <defs>
    <style>
      .cls-1 {
        fill: #45ba82;
        stroke-width: 0px;
      }
    </style>
  </defs>
  <g id="Layer_1-2" data-name="Layer 1">
    <g>
      <path class="cls-1" d="M103.37,28.09C100.19,2.38,74.69.25,73.65.17c-1.27-.15-31.04-3.22-35.99,23.82-.11.48-1.14,5.4,1.81,8.41-.32,1.07-2.13,4.27-6.57,9.17-.92,1.02-1.21,2.43-.75,3.69.57,1.58,1.97,2.89,4.15,3.89,1.3.6,1.15,3.68.87,5.06-.19.87.13,1.76.81,2.32.02.02,2.17,1.83,1.7,3.92-.44,1.98-1.37,6.1,1.18,8.99,1.95,2.22,5.29,3.09,10.19,2.64.36-.03,8.96-.66,17.74-4.28.58-.24,1.03-.69,1.27-1.27.24-.58.24-1.22,0-1.8-.24-.58-.69-1.03-1.27-1.27-.58-.24-1.22-.24-1.8,0-8.02,3.31-16.22,3.93-16.32,3.94-3.15.29-5.44-.1-6.28-1.06-.85-.97-.56-2.91-.12-4.86.79-3.52-1.13-6.29-2.3-7.61.26-2.42.21-7.18-3.7-8.98-.66-.31-1.07-.59-1.32-.79,4.99-5.62,7.42-9.77,7.25-12.33-.09-1.3-.73-2.1-1.25-2.54-1.06-.9-.93-3.25-.69-4.3,1.77-9.69,7.41-16.01,16.76-18.78,7.18-2.13,14.02-1.31,14.09-1.3.05,0,.11.01.17.01.23.01,22.68,1.58,25.42,23.81,1.54,12.45-1.25,18.13-4.21,24.15-2.62,5.34-5.34,10.87-5.52,20.79-.01.63.22,1.22.66,1.67.44.45,1.02.71,1.67.72h.03c1.27,0,2.32-1.03,2.35-2.31.17-8.87,2.65-13.92,5.04-18.8,3.13-6.37,6.37-12.96,4.66-26.8Z"/>
      <path class="cls-1" d="M27.36,44.97c0-.63-.24-1.22-.69-1.66-.44-.44-1.03-.69-1.66-.69s-1.22.24-1.66.69c-5,5-5,13.14,0,18.14.44.44,1.03.69,1.66.69s1.22-.24,1.66-.69c.44-.44.69-1.03.69-1.66s-.24-1.22-.69-1.66c-3.17-3.17-3.17-8.33,0-11.5.44-.44.69-1.03.69-1.66Z"/>
      <path class="cls-1" d="M14.82,52.38c0-4.7,1.83-9.12,5.15-12.44.44-.44.69-1.03.69-1.66s-.24-1.22-.69-1.66c-.44-.44-1.03-.69-1.66-.69s-1.22.24-1.66.69c-4.21,4.21-6.53,9.81-6.53,15.76s2.32,11.55,6.53,15.76c.44.44,1.03.69,1.66.69s1.22-.24,1.66-.69.69-1.03.69-1.66-.24-1.22-.69-1.66c-3.32-3.32-5.15-7.74-5.15-12.44Z"/>
      <path class="cls-1" d="M12.81,32.77c.44-.44.69-1.03.69-1.66s-.24-1.22-.69-1.66c-.44-.44-1.03-.69-1.66-.69s-1.22.24-1.66.69C3.37,35.56,0,43.7,0,52.38s3.37,16.82,9.48,22.93c.44.44,1.03.69,1.66.69s1.22-.24,1.66-.69c.44-.44.69-1.03.69-1.66s-.24-1.22-.69-1.66c-10.81-10.81-10.81-28.41,0-39.22Z"/>
    </g>
  </g>
</svg>