<svg width="15" height="13" viewBox="0 0 15 13" fill="none" xmlns="http://www.w3.org/2000/svg">
<path d="M12.1926 6.57166C12.1955 6.27645 12.1755 5.98147 12.1328 5.68936L12.1327 5.68894C12.122 5.62018 12.0979 5.55419 12.0618 5.49475C12.0256 5.4353 11.9781 5.38356 11.9219 5.34248C11.8658 5.3014 11.8021 5.27178 11.7345 5.25531C11.6669 5.23885 11.5967 5.23586 11.5279 5.24652C11.4591 5.25717 11.3932 5.28127 11.3337 5.31743C11.2743 5.35358 11.2225 5.4011 11.1814 5.45725C11.1403 5.5134 11.1107 5.5771 11.0942 5.6447C11.0778 5.7123 11.0748 5.78249 11.0854 5.85125L11.0855 5.85154C11.1238 6.08964 11.1434 6.33039 11.1441 6.57155C11.1438 7.60121 10.7962 8.60067 10.1574 9.4083C9.51859 10.216 8.62598 10.7846 7.62392 11.0222C6.62187 11.2598 5.56895 11.1525 4.63546 10.7176C3.70196 10.2827 2.94246 9.54571 2.47979 8.62577C2.01712 7.70583 1.87833 6.65674 2.08585 5.64816C2.29338 4.63958 2.83509 3.73047 3.62339 3.06786C4.41169 2.40525 5.40048 2.02789 6.42986 1.99679C7.45923 1.96569 8.469 2.28269 9.29587 2.8965L9.29584 2.89654L9.29771 2.8978C9.40962 2.97331 9.54635 3.00273 9.67942 2.97995C9.81248 2.95717 9.93163 2.88393 10.012 2.77549C10.0925 2.66706 10.1279 2.53178 10.1111 2.39785C10.0942 2.26391 10.0263 2.14164 9.92153 2.05651L9.92156 2.05647L9.91977 2.05515C9.20521 1.52563 8.3752 1.17317 7.49793 1.02674C6.62066 0.880299 5.72116 0.944058 4.87332 1.21278C4.02548 1.48149 3.2535 1.9475 2.6208 2.57252C1.9881 3.19753 1.51273 3.96372 1.23374 4.80814C0.954759 5.65256 0.88012 6.55111 1.01596 7.42998C1.1518 8.30884 1.49424 9.14295 2.01515 9.86377C2.53605 10.5846 3.22057 11.1715 4.01245 11.5764C4.80434 11.9813 5.68099 12.1926 6.57041 12.1929H6.57047C8.06115 12.1916 9.49042 11.5989 10.5445 10.545C11.5985 9.4911 12.1913 8.06209 12.1926 6.57166ZM12.1926 6.57166C12.1926 6.57159 12.1926 6.57153 12.1926 6.57147L12.1426 6.57143L12.1926 6.57193C12.1926 6.57184 12.1926 6.57175 12.1926 6.57166Z" fill="#003333" stroke="black" stroke-width="0.1"/>
<path d="M13.1013 1.01837L7.44218 6.98977L5.61403 5.06234L5.61435 5.06203L5.60579 5.05429C5.48581 4.94583 5.32992 4.88796 5.16912 4.89451C5.00836 4.90107 4.85752 4.97141 4.74621 5.08891C4.63511 5.20619 4.57125 5.3619 4.5653 5.52452C4.55935 5.68712 4.61163 5.84724 4.7135 5.97282L4.71316 5.9731L4.7211 5.98148L6.99542 8.38228C6.99545 8.38232 6.99548 8.38235 6.99551 8.38238C7.11218 8.50622 7.27239 8.57782 7.44156 8.57858L7.44289 8.57857C7.61203 8.57782 7.77223 8.50624 7.88889 8.38243C7.88894 8.38238 7.88898 8.38233 7.88903 8.38228L13.9943 1.93747L13.9946 1.93777L14.0019 1.92881C14.1038 1.80323 14.1561 1.64311 14.1501 1.48051C14.1441 1.31789 14.0803 1.16218 13.9692 1.0449C13.8579 0.927396 13.707 0.857056 13.5463 0.850502C13.3855 0.843945 13.2296 0.901822 13.1096 1.01028L13.1093 1.00995L13.1013 1.01837Z" fill="#02827B" stroke="#02827B" stroke-width="0.3"/>
</svg>
