
<svg width="40" height="30" viewBox="0 0 40 30" fill="none" xmlns="http://www.w3.org/2000/svg">
<path d="M27.4145 11.2001C26.1964 1.33359 16.4069 0.509651 16.0068 0.482977C15.5207 0.426664 4.09222 -0.758863 2.19241 9.62636C2.15092 9.81308 1.75377 11.6951 2.88002 12.8628C2.74665 13.2837 2.05015 14.4959 0.378558 16.3483C0.0169723 16.7484 -0.0956528 17.2997 0.0851401 17.7917C0.307426 18.4022 0.849805 18.909 1.69153 19.3003C2.17463 19.5225 2.11239 20.6814 2.00866 21.203C1.93456 21.5498 2.05904 21.9025 2.33468 22.1248C2.34357 22.1307 3.14973 22.8035 2.9719 23.5948C2.8 24.3565 2.44434 25.9451 3.42833 27.0655C4.1841 27.925 5.4704 28.2599 7.35538 28.085C7.49468 28.0761 10.7905 27.8331 14.1573 26.4431C14.6316 26.2474 14.8568 25.7021 14.6612 25.2309C14.4656 24.7566 13.9202 24.5314 13.449 24.727C10.3844 25.9896 7.24572 26.2326 7.20719 26.2356C6.00981 26.3453 5.14438 26.2 4.82725 25.8414C4.51012 25.4828 4.61978 24.7448 4.78872 24.0038C5.09103 22.6494 4.35896 21.5794 3.90846 21.0726C4.00627 20.139 3.98256 18.3103 2.47398 17.6138C2.2428 17.5071 2.09461 17.4093 1.99977 17.3323C3.89957 15.1865 4.83021 13.5979 4.76204 12.6109C4.72648 12.1011 4.47752 11.7899 4.27301 11.618C3.87586 11.2831 3.92921 10.394 4.02109 9.9998C4.69684 6.30095 6.84857 3.8884 10.417 2.83032C13.1615 2.01527 15.7756 2.32944 15.8023 2.3324C15.826 2.3324 15.8497 2.33833 15.8675 2.33833C16.2202 2.35907 24.5248 2.9222 25.5769 11.4313C26.1638 16.1882 25.0968 18.3637 23.9676 20.6636C22.9599 22.7116 21.9196 24.8307 21.8485 28.6363C21.8425 28.8852 21.9374 29.1194 22.1093 29.2972C22.2812 29.475 22.5123 29.5758 22.7465 29.5817H22.7791C23.2829 29.5817 23.6979 29.1727 23.7068 28.6718C23.772 25.2812 24.7174 23.3488 25.6362 21.4816C26.8366 19.0365 28.0784 16.5083 27.4234 11.2001H27.4145Z" fill="#09CE87"/>
<path d="M39.6193 16.3512C37.9477 14.4989 37.2512 13.2837 37.1179 12.8658C38.2382 11.7069 37.8558 9.85752 37.8114 9.65894C35.9116 -0.726277 24.4801 0.426648 24.0118 0.479996C23.9466 0.48296 23.7659 0.497779 23.4961 0.533345C22.9893 0.598549 22.6277 1.06683 22.6929 1.57365C22.7256 1.81964 22.853 2.04193 23.0486 2.19308C23.2442 2.34424 23.4902 2.40944 23.7332 2.37684C23.9852 2.34424 24.1304 2.34424 24.1304 2.33535C24.1541 2.33535 24.1749 2.33238 24.2045 2.32942C24.2312 2.32645 26.8038 2.01229 29.5572 2.81845C33.1463 3.87357 35.3099 6.29797 35.9946 10.0442C36.0776 10.3969 36.125 11.2861 35.7337 11.618C35.5292 11.7899 35.2803 12.1011 35.2447 12.6109C35.1765 13.5979 36.1072 15.1835 38.007 17.3323C37.9122 17.4093 37.761 17.5071 37.5328 17.6138C36.0242 18.3103 36.0005 20.139 36.0983 21.0726C35.6478 21.5794 34.9157 22.6494 35.218 24.0038C35.384 24.7448 35.4937 25.4798 35.1795 25.8414C34.8624 26.2 33.991 26.3452 32.7788 26.2356C32.7462 26.2356 29.6312 25.9985 26.5578 24.73C26.3296 24.6351 26.0747 24.6351 25.8465 24.73C25.6153 24.8248 25.4374 25.0056 25.3426 25.2338C25.147 25.708 25.3722 26.2504 25.8465 26.446C29.2133 27.836 32.4973 28.0761 32.6277 28.088C32.9537 28.1176 33.2649 28.1324 33.5524 28.1324C34.9572 28.1324 35.9442 27.7857 36.5725 27.0684C37.5565 25.9481 37.2008 24.3624 37.0289 23.5978C36.8541 22.8153 37.6602 22.1336 37.6632 22.1307C37.9418 21.9084 38.0663 21.5557 37.9922 21.2089C37.8766 20.6695 37.8469 19.5196 38.3093 19.3062C39.151 18.9179 39.6934 18.4111 39.9157 17.7976C40.0965 17.3056 39.9809 16.7543 39.6223 16.3542L39.6193 16.3512Z" fill="#09CE87"/>
<path d="M17.8293 4.8665C18.2235 4.54048 18.2798 3.95364 17.9508 3.55649C17.7938 3.36681 17.5685 3.24825 17.3225 3.22454C17.0736 3.20083 16.8335 3.27493 16.6438 3.43497C14.3498 5.33478 12.9835 7.9459 12.5834 11.2002C11.9284 16.5084 13.1702 19.0365 14.3706 21.4817C15.2864 23.3489 16.2348 25.2783 16.3 28.6719C16.3089 29.1757 16.7268 29.5847 17.2277 29.5847H17.2455C17.4944 29.5788 17.7256 29.478 17.8975 29.3002C18.0694 29.1224 18.1613 28.8853 18.1583 28.6393C18.0872 24.8337 17.0469 22.7146 16.0392 20.6666C14.91 18.3637 13.84 16.1912 14.4298 11.4343C14.7707 8.66908 15.9177 6.46103 17.8323 4.87242L17.8293 4.8665Z" fill="#09CE87"/>
</svg>
