<svg xmlns="http://www.w3.org/2000/svg" xmlns:xlink="http://www.w3.org/1999/xlink" width="13" height="13" viewBox="0 0 13 13">
  <defs>
    <clipPath id="clip-path">
      <rect id="Rectangle_18155" data-name="Rectangle 18155" width="13" height="13" transform="translate(84 224.621)" fill="#fff" stroke="#707070" stroke-width="1"/>
    </clipPath>
  </defs>
  <g id="Mask_Group_6" data-name="Mask Group 6" transform="translate(-84 -224.621)" clip-path="url(#clip-path)">
    <g id="noun-countdown-6121455" transform="translate(84 224.909)">
      <path id="Path_55024" data-name="Path 55024" d="M12.631,13.683H9.085a.03.03,0,0,0-.021.009.03.03,0,0,0-.009.021v.443a.031.031,0,0,0,.03.03h3.547a.031.031,0,0,0,.03-.03v-.443a.03.03,0,0,0-.009-.021A.03.03,0,0,0,12.631,13.683Zm-.372-.313V12.046a1.054,1.054,0,0,0-.19-.6A1.342,1.342,0,0,0,11.539,11a.156.156,0,0,1,0-.281,1.341,1.341,0,0,0,.531-.446,1.053,1.053,0,0,0,.189-.6V8.354h-2.8V9.678a1.053,1.053,0,0,0,.19.6,1.341,1.341,0,0,0,.531.446.156.156,0,0,1,0,.281,1.342,1.342,0,0,0-.531.446,1.054,1.054,0,0,0-.189.6V13.37Zm.156-5.329h.217a.03.03,0,0,0,.03-.03V7.568a.031.031,0,0,0-.03-.03H9.085a.031.031,0,0,0-.03.03v.443a.03.03,0,0,0,.03.03h3.33Zm-1.861,8.365a.156.156,0,1,0-.016.312h.018l.038,0,.038,0h.227a.156.156,0,1,0,0-.313h-.25l-.036,0h-.018Zm-1.2-.2a.156.156,0,0,0-.084.3l.048.013.035.009.035.009.035.009.035.009.035.008.035.008.035.008.017,0a.156.156,0,1,0,.066-.305l-.015,0L9.6,16.272l-.034-.008-.033-.008L9.5,16.247l-.033-.008-.033-.008L9.4,16.222l-.046-.013Zm-1.124-.453a.156.156,0,1,0-.147.275l.038.02.032.017.032.016.032.016.032.016.032.016.032.016.032.015.026.012a.156.156,0,1,0,.132-.283l-.024-.011-.03-.014-.03-.015-.03-.015-.03-.015-.03-.015-.03-.015-.03-.016-.037-.02Zm-1-.687a.156.156,0,1,0-.2.237l.015.013.026.023.027.023.027.022.027.022.027.022.027.022.028.022.028.022.015.012a.156.156,0,1,0,.19-.248l-.014-.011L7.43,15.23,7.4,15.209l-.026-.021-.026-.021-.026-.021L7.3,15.125,7.274,15.1l-.025-.021-.015-.013Zm-.827-.886a.156.156,0,0,0-.25.187l.022.029.021.028.021.028.022.028.022.028.022.027.022.027.022.027.025.03a.156.156,0,0,0,.238-.2l-.023-.027-.021-.026-.021-.026-.021-.026-.021-.026-.021-.026-.02-.026-.02-.026-.02-.027Zm-.616-1.044a.156.156,0,1,0-.284.129l.018.04.015.032.015.032.015.032.016.032.015.032.016.032.016.032.013.024a.156.156,0,1,0,.277-.144l-.012-.023L5.9,13.36l-.015-.03-.016-.03-.015-.03-.014-.03-.014-.03-.014-.031-.017-.039ZM5.42,11.985a.156.156,0,1,0-.305.064l.006.029.008.036.008.036.008.035.008.035.009.035.009.035.009.035.009.034a.156.156,0,0,0,.3-.08l-.008-.032-.008-.033-.009-.033-.008-.033-.008-.033-.008-.034-.007-.034-.007-.034-.006-.029Zm-.113-1.207a.156.156,0,0,0-.313,0v.276L5,11.1a.156.156,0,1,0,.312-.014v-.3Zm.149-1.2a.156.156,0,0,0-.3-.07l-.008.033-.008.036-.008.036-.008.036-.007.036-.007.036L5.1,9.752l-.007.036-.006.03a.156.156,0,0,0,.307.055L5.4,9.845,5.4,9.811l.007-.034.007-.034.007-.034.007-.034.007-.034.008-.034.008-.033Zm.408-1.141A.156.156,0,1,0,5.582,8.3l-.01.02-.015.032-.015.032-.015.032-.015.032L5.5,8.481l-.014.033-.014.033-.019.045a.156.156,0,1,0,.288.12l.017-.041.013-.031.014-.031L5.8,8.577l.014-.031.014-.031.014-.03.014-.03.01-.02ZM6.51,7.409a.156.156,0,0,0-.245-.193l-.02.025-.022.028L6.2,7.3l-.021.028-.021.028-.021.028-.021.029L6.1,7.439l-.024.034a.156.156,0,1,0,.256.179l.022-.031.02-.027.02-.027.02-.027.02-.026.02-.026.02-.026.021-.026.02-.025Zm.853-.861a.156.156,0,1,0-.2-.242l-.038.031L7.1,6.36l-.027.023L7.048,6.4l-.027.023-.026.023-.026.023L6.943,6.5l-.019.017a.156.156,0,0,0,.208.231L7.15,6.73l.025-.022L7.2,6.686l.025-.022.025-.022.025-.022L7.3,6.6l.026-.021.036-.03Zm1.02-.657a.156.156,0,0,0-.141-.279l-.021.011-.032.016-.032.016-.032.016-.031.017-.031.017-.031.017L8,5.74l-.042.024a.156.156,0,0,0,.156.271l.039-.022L8.183,6l.029-.016.03-.016.03-.016.03-.016.03-.016.03-.015Zm1.136-.419a.156.156,0,1,0-.076-.3l-.015,0-.035.009-.035.009L9.322,5.2l-.035.01-.035.01-.035.01-.035.01-.035.01-.015,0a.156.156,0,1,0,.093.3l.046-.014.033-.01.033-.009.033-.009L9.4,5.5l.034-.009.033-.009L9.5,5.476l.015,0Zm1.2-.16A.156.156,0,1,0,10.712,5h-.118l-.038,0-.037,0-.037,0-.037,0-.037,0h-.016a.156.156,0,1,0,.026.311l.049,0,.035,0,.035,0,.035,0,.036,0h.112ZM13.966,7a.155.155,0,0,1-.306.055l-.21-1.167a.156.156,0,0,1,.126-.18l1.167-.21A.155.155,0,0,1,14.8,5.8l-.758.137a5.865,5.865,0,0,1-2.2,10.708.156.156,0,0,1-.051-.307A5.553,5.553,0,0,0,13.816,6.162l.15.834Zm-3.76,5.43a.156.156,0,1,1-.313,0v-.233a.894.894,0,0,1,.16-.507,1.072,1.072,0,0,1,.424-.357.155.155,0,1,1,.134.28.759.759,0,0,0-.3.252.584.584,0,0,0-.1.331Zm0,.583a.156.156,0,0,1-.313,0v-.031a.156.156,0,0,1,.313,0Z" transform="translate(-3.879 -5)" fill="#033" stroke="#033" stroke-width="0.2" fill-rule="evenodd"/>
      <text id="Created_by_Orange_Cat" data-name="Created by Orange Cat" transform="translate(0 14.712)" fill="#033" font-size="1" font-family="Arial-BoldMT, Arial" font-weight="700"><tspan x="0" y="0">Created by Orange Cat</tspan></text>
      <text id="from_the_Noun_Project" data-name="from the Noun Project" transform="translate(0 15.712)" fill="#033" font-size="1" font-family="Arial-BoldMT, Arial" font-weight="700"><tspan x="0" y="0">from the Noun Project</tspan></text>
    </g>
  </g>
</svg>
