<?xml version="1.0" encoding="UTF-8"?>
<svg id="Layer_2" data-name="Layer 2" xmlns="http://www.w3.org/2000/svg" viewBox="0 0 24.89 23.93">
  <defs>
    <style>
      .cls-1 {
        stroke-width: 0px;
      }
    </style>
  </defs>
  <g id="Layer_1-2" data-name="Layer 1">
    <g>
      <path class="cls-1" d="M23.14,3.49h-3.64c-.17-1.95-1.81-3.49-3.81-3.49s-3.64,1.53-3.81,3.49h-3.95c-.62,0-1.13.51-1.13,1.12v8.68c0,.62.51,1.12,1.13,1.12h15.21c.62,0,1.13-.51,1.13-1.12V4.61c0-.62-.51-1.13-1.13-1.13h0ZM13.66,3.33c.05-.16.19-.28.36-.3l.88-.13.4-.79c.07-.15.22-.24.4-.24s.33.09.4.24l.4.79.88.13c.17.03.3.14.36.3s.01.34-.11.46l-.64.62.15.88c.03.17-.04.33-.18.44-.08.05-.16.09-.26.09-.07,0-.14-.02-.21-.05l-.78-.41-.79.41c-.07.04-.14.05-.21.05-.1,0-.18-.03-.26-.09-.14-.11-.21-.27-.18-.44l.15-.88-.64-.62c-.14-.12-.18-.3-.13-.46h0ZM7.5,4.61c0-.24.19-.44.44-.44h3.95c.05.55.22,1.07.47,1.53h-4.87v-1.09ZM23.58,13.29c0,.24-.19.44-.44.44H7.93c-.25,0-.44-.2-.44-.44v-4.89h16.09v4.89h0ZM23.58,7.72H7.5v-1.34h5.37c.7.78,1.71,1.27,2.84,1.27s2.13-.49,2.83-1.27h5.06v1.34h0ZM23.58,5.7h-4.55c.26-.46.43-.98.47-1.53h3.64c.25,0,.44.2.44.44v1.09Z"/>
      <path class="cls-1" d="M24.67,17.05c-.49-.49-1.14-.76-1.84-.76-.42,0-.84.1-1.21.3l-3.42,1.78c-.5-1-1.53-1.69-2.72-1.69h-3.88c-1.43-.88-2.82-1.32-4.12-1.32-1.04,0-2.03.28-2.97.84l.02-1.18c0-.09-.03-.18-.1-.24-.06-.07-.15-.11-.24-.11l-3.69-.07c-.09,0-.17.04-.23.1-.07.07-.11.15-.11.24l-.16,8.4c0,.09.04.18.1.24.06.07.15.11.24.11l3.68.07c.18,0,.34-.16.34-.34v-.32s1.35-.89,1.35-.89c.17-.12.38-.17.59-.17.1,0,.19.01.28.04l5.93,1.66c.49.14,1,.2,1.51.2.42,0,.83-.05,1.23-.14.63-.14,1.23-.4,1.78-.75l7.51-4.82c.19-.13.32-.33.35-.56.02-.23-.06-.46-.22-.62h0ZM24.17,17.65l-7.51,4.82c-.48.31-1,.53-1.56.65-.35.08-.72.12-1.08.12-.45,0-.89-.06-1.32-.18l-5.93-1.66c-.16-.04-.31-.07-.47-.07-.34,0-.68.1-.96.29l-.95.63.1-5.23c.96-.67,1.94-1,2.99-1,1.2,0,2.46.42,3.84,1.28.06.03.12.05.18.05h3.97c1.21,0,2.23.93,2.35,2.12h-5.39c-.19,0-.34.16-.34.34s.16.34.34.34h5.74c.19,0,.35-.16.35-.34v-.1c0-.25-.04-.48-.09-.71l3.5-1.82c.28-.15.58-.22.89-.22.51,0,.99.2,1.36.56.02.02.02.04.02.06s-.02.04-.04.05h0Z"/>
    </g>
  </g>
</svg>