<svg width="111" height="116" viewBox="0 0 111 116" fill="none" xmlns="http://www.w3.org/2000/svg">
<path d="M7.48021 14C7.48021 6.26801 13.7482 0 21.4802 0H96.9565C104.689 0 110.957 6.26801 110.957 14V102C110.957 109.732 104.688 116 96.9565 116H0L1.23574 114.626C5.2559 110.157 7.48021 104.359 7.48021 98.3481V14Z" fill="#09CE87"/>
<path d="M23.8458 24.9874C21.848 26.748 20.8214 27.6705 20.7603 27.7549C20.0777 28.7393 19.7337 29.7067 19.7337 30.663C19.7337 31.5461 20.4051 32.2604 21.7537 32.8117C22.7637 33.2279 23.6571 33.4361 24.4341 33.4361C24.8503 33.4361 25.2388 33.0086 25.5995 32.1536C26.1156 34.1617 27.2976 35.1629 29.1345 35.1629H65.0231C68.7912 35.1629 71.6659 34.2517 73.647 32.4292C74.485 34.2517 75.717 35.1629 77.3596 35.1629H80.4674C81.777 35.1629 83.1256 34.5723 84.5018 33.3854C84.8126 33.7679 85.2566 34.1335 85.8282 34.4879C86.5718 34.9379 87.271 35.1685 87.9203 35.1685H89.1856C91.2556 35.1685 92.6762 34.606 93.4476 33.4754C94.108 32.5079 94.4354 30.8486 94.4354 28.4918C94.4354 26.1349 93.7861 24.065 92.482 22.4394C92.3488 22.2706 92.2434 22.1862 92.1712 22.1862C92.1102 22.1862 92.0214 22.2819 91.8938 22.4675L89.563 25.9043C89.4353 26.0899 89.4353 26.2418 89.563 26.3599C90.3843 27.0968 91.0502 27.8055 91.5663 28.4861C91.7106 28.6718 91.7772 28.8405 91.7772 28.9811C91.7772 29.2624 91.5331 29.403 91.0391 29.403H87.2932C87.8426 28.6886 88.1201 27.6368 88.1201 26.2474C88.1201 25.3474 87.9148 24.5375 87.5041 23.8175C86.9769 22.8837 86.2277 22.4169 85.2621 22.4169C84.0745 22.4169 83.0368 23.0694 82.1433 24.3743C81.3664 25.5106 80.9779 26.613 80.9779 27.6818C80.9779 28.5368 81.1111 29.1105 81.3775 29.3974H77.2042C76.6049 29.3974 76.2497 29.2849 76.1387 29.0655C76.5217 28.4186 76.7159 27.5187 76.7159 26.3655C76.7159 25.4093 76.4495 24.6218 75.9112 24.0087C75.3507 23.3619 74.6071 23.0412 73.6803 23.0412C71.5604 23.0412 68.9854 24.7456 65.961 28.1599C66.6769 26.3655 67.0376 22.1412 67.0376 20.2794C67.0376 19.8125 67.0098 19.0363 66.9599 18.5863C67.3705 18.7157 67.6702 18.7776 67.8644 18.7776C68.042 18.7776 68.1253 18.7269 68.1253 18.6257C68.1253 18.5132 68.0531 18.2994 67.9144 17.9788L66.0109 13.687C65.8333 13.2989 65.7001 13.102 65.5947 13.102C65.5115 13.102 65.3228 13.2314 65.0287 13.4845L61.7822 16.3476C63.0863 19.16 63.7356 25.3193 63.7356 29.3974H61.932V29.3861H29.6784V29.3974H29.5785C28.8792 29.3974 28.4186 28.8011 28.2022 27.6143L27.009 21.0613C26.9646 20.8419 26.8981 20.7294 26.8093 20.7294C26.7316 20.7294 26.6372 20.7913 26.5207 20.9094L23.6017 23.8962L23.8403 24.9874H23.8458ZM83.564 26.703C83.8969 26.5343 84.2355 26.4499 84.5795 26.4499C84.8792 26.4499 85.1955 26.5455 85.534 26.7424C85.917 26.9618 86.1112 27.2149 86.1112 27.4905C86.1112 27.8055 85.917 28.0811 85.5229 28.3286C85.1733 28.5593 84.8348 28.6718 84.5074 28.6718C84.2577 28.6718 83.9358 28.5368 83.5418 28.2611C83.1478 27.9855 82.9535 27.7268 82.9535 27.4793C82.9535 27.1643 83.1589 26.9055 83.5695 26.703H83.564ZM71.2552 26.8718C72.3984 26.8718 72.97 27.3612 72.97 28.3399C72.97 28.6099 72.5649 28.8743 71.7546 29.1161C70.8001 29.403 69.5681 29.5492 68.0587 29.5492C67.6924 29.5492 67.315 29.538 66.9321 29.5211C68.6969 27.7493 70.1342 26.8662 71.2552 26.8662V26.8718ZM25.0778 29.5099C23.4463 29.4142 22.636 29.1724 22.636 28.773C22.636 28.4186 23.2187 27.7999 24.3786 26.9168L25.0834 29.5099H25.0778Z" fill="#F8F7EE"/>
<path d="M82.6372 20.6056C82.7482 20.7181 82.8536 20.7181 82.9646 20.6056L84.3465 19.2163L85.7505 20.5944C85.8559 20.7069 85.9614 20.7069 86.0668 20.6L87.5541 19.1094C87.6207 19.0419 87.6484 18.9857 87.6484 18.9407C87.6484 18.8901 87.6207 18.8394 87.5596 18.8001L86.0446 17.3151C85.9114 17.1857 85.7838 17.1857 85.6561 17.3151L84.3409 18.6876L82.9258 17.3151C82.7926 17.1857 82.665 17.1857 82.5373 17.3151L81.1721 18.7269C81.0334 18.8676 81.0223 18.9969 81.1389 19.115L82.6428 20.6056H82.6372Z" fill="#F8F7EE"/>
<path d="M89.2745 18.0294C89.108 18.1981 89.0913 18.35 89.2356 18.4906L90.9393 20.1556C91.0669 20.2737 91.189 20.2737 91.3111 20.1556L93.0037 18.4681C93.1314 18.3387 93.1258 18.215 93.0037 18.0969L91.2723 16.4206C91.1224 16.2744 90.9782 16.2744 90.845 16.4206L89.28 18.035L89.2745 18.0294Z" fill="#F8F7EE"/>
<path d="M64.7679 38.2396L63.2029 39.8652C63.042 40.0283 63.0253 40.169 63.153 40.2983L64.8567 41.9858C64.9843 42.1152 65.1064 42.1152 65.234 41.9858L66.8989 40.2758C67.0265 40.1465 67.0321 40.0284 66.9266 39.9215L65.1841 38.234C65.0398 38.099 64.9011 38.099 64.7679 38.234V38.2396Z" fill="#F8F7EE"/>
<path d="M92.2768 58.1237C91.4832 58.1237 91.0837 57.9212 91.0837 57.5162C91.0837 57.1956 91.2946 56.9425 91.7108 56.7681C92.0104 56.6387 92.3545 56.5768 92.7374 56.5768C92.8484 56.5768 93.0094 56.605 93.2313 56.6612C93.4533 56.7175 93.6198 56.7456 93.7252 56.7456C93.9028 56.7456 93.9861 56.6668 93.9861 56.5037C93.9861 56.4081 93.9583 56.3012 93.9084 56.1718C93.7641 55.8175 93.4977 55.5194 93.1037 55.2831C92.7097 55.0469 92.3157 54.9287 91.9272 54.9287C91.2946 54.9287 90.7341 55.3 90.2624 56.0481C89.8461 56.7062 89.6353 57.3587 89.6353 58.0056C89.6353 58.3037 89.7352 58.5793 89.9349 58.8437C90.1347 59.108 90.3789 59.2487 90.6619 59.2655C90.3012 59.4512 89.8572 59.7662 89.3356 60.2049L89.2468 61.6168C90.8007 60.5593 92.4932 59.7605 94.3246 59.2262L94.6021 57.3981L93.2369 57.8818C92.7596 58.0506 92.4378 58.1349 92.2713 58.1349L92.2768 58.1237Z" fill="#F8F7EE"/>
<path d="M91.3112 77.5353C91.8606 77.5353 92.5376 76.4159 93.3423 74.1829C93.7197 73.131 93.9417 72.2816 94.0193 71.6291C94.0748 71.0948 94.147 69.3286 94.2191 66.3305C94.2857 63.6024 94.319 61.7631 94.319 60.8181C94.319 60.4468 94.2524 60.2612 94.1192 60.2612C94.0194 60.2612 93.864 60.3175 93.6531 60.4243L89.7573 62.4831C89.9072 70.3354 90.1569 74.9085 90.4954 76.2022C90.7285 77.0909 91.0004 77.5353 91.3112 77.5353Z" fill="#F8F7EE"/>
<path d="M85.4285 95.2312C86.3164 94.1793 86.716 92.5762 86.6328 90.4219L86.3331 82.5864C86.7992 82.7326 87.1378 82.8001 87.3486 82.8001C87.5928 82.8001 87.7149 82.7045 87.7149 82.5189C87.7149 82.3839 87.665 82.2039 87.5651 81.9733L85.6616 77.6815C85.484 77.2934 85.3508 77.0965 85.2454 77.0965C85.151 77.0965 84.9679 77.2259 84.6793 77.479L81.5328 80.3027C81.9767 81.9114 82.3874 83.7339 82.7592 85.7701C83.1088 87.6769 83.2864 88.9763 83.2864 89.6738C83.2864 90.1238 83.0811 90.4163 82.6704 90.5513C82.4207 90.6356 81.9767 90.6806 81.3441 90.6806H80.6171V90.6919H80.4562C79.9234 90.6919 79.5516 90.4444 79.3407 89.955C79.1465 89.2125 79.0299 88.7457 78.9911 88.5713C78.8468 88.0819 78.5915 87.8344 78.2142 87.8344C77.7647 87.8344 77.4761 88.0763 77.3595 88.56C77.243 89.0438 77.1431 89.5107 77.0599 89.955C76.8823 90.4444 76.5493 90.6919 76.0554 90.6919C75.5615 90.6919 75.2396 90.4444 75.0676 89.9438C74.9233 89.2744 74.8234 88.8075 74.7679 88.5488C74.6514 88.0482 74.385 87.8007 73.9799 87.8007C73.5748 87.8007 73.2862 88.0538 73.153 88.56C72.9754 89.235 72.8589 89.7019 72.8034 89.9663C72.6203 90.4725 72.2873 90.7256 71.7989 90.7256C71.2329 90.7256 70.8444 90.4669 70.6446 89.955C70.4615 89.1957 70.345 88.7175 70.295 88.5263C70.1618 88.0144 69.8844 87.7557 69.4682 87.7557C69.1074 87.7557 68.8189 88.0425 68.6024 88.6163C68.4859 89.0607 68.3638 89.5107 68.2362 89.955C67.9864 90.4669 67.548 90.7256 66.9209 90.7256H66.7212V90.6863H65.7944C65.195 90.6863 64.8399 90.5738 64.7289 90.3544C65.1118 89.7075 65.306 88.8075 65.306 87.6544C65.306 86.6982 65.0397 85.9107 64.5014 85.2976C63.9409 84.6507 63.1972 84.3301 62.2705 84.3301C60.1506 84.3301 57.5756 86.0345 54.5511 89.4488C55.267 87.6544 55.6277 83.1095 55.6277 81.2477C55.6277 80.7808 55.6 80.3252 55.55 79.8752C55.9607 80.0046 56.2603 80.0664 56.4546 80.0664C56.6322 80.0664 56.7154 80.0158 56.7154 79.9146C56.7154 79.8021 56.6433 79.5883 56.5045 79.2677L54.6011 74.9759C54.4235 74.5878 54.2903 74.3909 54.1848 74.3909C54.1016 74.3909 53.9129 74.5203 53.6188 74.7734L50.3723 77.6365C51.6765 80.4489 52.3258 86.6082 52.3258 90.6863H50.5222V90.675H30.3442C29.6616 90.675 28.9679 90.3938 28.2631 89.8369C27.9524 89.5894 27.403 89.0494 26.6094 88.2113C26.4263 88.0144 26.2709 88.0482 26.1432 88.3013L24.1399 92.4918C26.0211 94.2693 26.959 95.4112 26.959 95.923C26.959 96.5418 25.9046 97.5768 23.8013 99.0336C22.1809 100.159 20.8157 100.991 19.7169 101.525C19.4228 101.672 19.2785 101.897 19.2785 102.212C19.2785 102.785 19.6226 103.078 20.3163 103.078H26.1932C26.5206 103.078 26.7759 102.977 26.959 102.774C27.4862 102.2 27.969 101.407 28.413 100.4C28.9235 99.2474 29.1788 98.2067 29.1788 97.273V96.1537C29.4396 96.3449 29.7338 96.4462 30.0556 96.4574H53.6077C57.3758 96.4574 60.2504 95.5462 62.2316 93.7237C63.0696 95.5462 64.3016 96.4574 65.9442 96.4574H66.9487C67.8255 96.4574 68.6413 95.8837 69.3905 94.7306C69.9232 95.8668 70.6668 96.4349 71.6214 96.4349C72.254 96.4349 72.9532 95.8668 73.7135 94.7306C73.9133 95.1806 74.2074 95.563 74.5903 95.8893C75.0177 96.2549 75.445 96.4349 75.8834 96.4349C76.5438 96.4349 77.2763 95.8837 78.0754 94.7812C78.8302 95.8837 79.6182 96.4349 80.4451 96.4349H80.6226V96.463H82.8036C83.8747 96.463 84.7515 96.058 85.4341 95.2424L85.4285 95.2312ZM60.3337 90.3994C59.3792 90.6863 58.1472 90.8325 56.6377 90.8325C56.2715 90.8325 55.8941 90.8213 55.5112 90.8044C57.2759 89.0325 58.7132 88.1494 59.8342 88.1494C60.9552 88.1494 61.549 88.6388 61.549 89.6175C61.549 89.8875 61.1439 90.1519 60.3337 90.3938V90.3994Z" fill="#F8F7EE"/>
<path d="M93.6642 77.6984C93.6142 77.4621 93.5532 77.344 93.4866 77.344C93.4033 77.344 93.2424 77.4734 93.0093 77.7378L89.2246 81.9171C90.3345 89.4544 91.0614 93.8644 91.4055 95.1412C91.6497 96.0468 91.9383 96.5024 92.2712 96.5024C92.582 96.5024 92.9094 96.1312 93.259 95.3831C93.5421 94.7643 93.8029 93.8531 94.036 92.6494C94.2635 91.5075 94.3745 90.5625 94.3745 89.8144C94.3745 86.4676 94.3634 84.4426 94.3356 83.7283C94.2524 81.3883 94.0249 79.3802 93.6586 77.6928L93.6642 77.6984Z" fill="#F8F7EE"/>
<path d="M20.9323 21.7193C21.0433 21.8318 21.1487 21.8318 21.2597 21.7193L22.6416 20.3299L24.0456 21.708C24.151 21.8205 24.2565 21.8205 24.3619 21.7137L25.8492 20.2231C25.9158 20.1556 25.9435 20.0993 25.9435 20.0543C25.9435 20.0037 25.9158 19.9531 25.8547 19.9137L24.3397 18.4287C24.2065 18.2994 24.0789 18.2994 23.9512 18.4287L22.636 19.8012L21.2209 18.4287C21.0877 18.2994 20.9601 18.2994 20.8324 18.4287L19.4672 19.8406C19.3285 19.9812 19.3174 20.1106 19.434 20.2287L20.9379 21.7193H20.9323Z" fill="#F8F7EE"/>
<path d="M32.3421 72.6529V72.726H70.0287C71.0998 72.726 71.9766 72.321 72.6592 71.5054C73.5471 70.4535 73.9467 68.8504 73.8634 66.6961L73.5637 58.8606C74.0299 59.0068 74.3684 59.0743 74.5793 59.0743C74.8235 59.0743 74.9456 58.9787 74.9456 58.7931C74.9456 58.6581 74.8956 58.4781 74.7957 58.2475L72.8923 53.9557C72.7147 53.5676 72.5815 53.3707 72.476 53.3707C72.3817 53.3707 72.1986 53.5001 71.91 53.7532L68.7634 56.5769C69.2074 58.1856 69.618 60.0081 69.9899 62.0443C70.3395 63.9511 70.5171 65.2505 70.5171 65.948C70.5171 66.398 70.3117 66.6905 69.9011 66.8255C69.6624 66.9042 69.2462 66.9492 68.658 66.9492V66.9379H32.5363V66.9042C28.3076 66.9042 24.8613 63.3268 24.8613 58.9281C24.8613 54.5294 28.302 50.952 32.5363 50.952V50.907H67.8089C69.1352 50.907 70.1286 50.3389 70.7779 49.2026C71.4383 50.3389 72.3706 50.907 73.5748 50.907H74.5793C75.5394 50.907 76.3107 50.2657 76.8879 48.9776C77.7481 50.3164 78.8635 50.9857 80.2342 50.9857C81.3219 50.9857 82.221 50.5751 82.9424 49.7539C83.6472 48.9664 83.9968 48.0158 83.9968 46.9077C83.9968 45.4002 83.7082 44.0333 83.1311 42.8015C82.3375 41.1084 81.1443 40.259 79.5572 40.259C78.2364 40.259 77.243 40.7709 76.5716 41.789C76.1276 42.4584 75.8834 43.2402 75.8335 44.1346C75.7891 44.804 75.2452 45.1415 74.1908 45.1415H73.5748C72.7036 45.1415 72.1098 44.8715 71.7934 44.3258C71.6991 44.1627 71.5659 43.6677 71.3772 42.8352C71.2607 42.2896 70.9999 42.0196 70.6003 42.0196C70.2007 42.0196 69.8955 42.2896 69.7346 42.8352C69.4849 43.7015 69.3184 44.2021 69.2351 44.3258C68.8855 44.8658 68.2695 45.1415 67.3816 45.1415V45.1302H32.3365V45.2146C25.0722 45.3215 19.1953 51.4301 19.1953 58.9281C19.1953 66.4261 25.0722 72.5347 32.3365 72.6416L32.3421 72.6529ZM79.7237 43.2965C79.8902 43.0996 80.101 42.9984 80.3508 42.9984C80.8169 42.9984 81.2276 43.3752 81.5772 44.129C81.8713 44.7533 82.0156 45.3383 82.0156 45.8839C82.0156 46.6545 81.7825 47.0427 81.3108 47.0427C80.7115 47.0427 80.2342 46.6546 79.8846 45.8727C79.6071 45.2652 79.4684 44.6352 79.4684 43.994C79.4684 43.7296 79.5516 43.499 79.7181 43.3021L79.7237 43.2965Z" fill="#F8F7EE"/>
<path d="M59.1239 79.5152C59.1239 80.3927 59.6122 81.2027 60.5668 81.2027C61.0551 81.2027 62.1317 80.7583 62.1317 79.549C62.1317 78.0134 61.1661 77.5409 60.589 77.5409C60.0618 77.5409 59.1239 78.0865 59.1239 79.5096V79.5152ZM61.7266 79.549C61.7266 79.7008 61.2494 80.1958 60.6001 80.1958C59.862 80.1958 59.5623 79.7121 59.5623 79.3296C59.5623 78.8065 60.0895 78.5309 60.4169 78.5309C61.2937 78.5309 61.7322 79.4196 61.7322 79.549H61.7266Z" fill="#F8F7EE"/>
<path d="M76.4771 77.4509C73.8744 78.0696 70.3838 78.8234 67.0097 79.4984L66.6545 80.6121L66.7156 80.6458C69.6179 80.0609 72.6313 79.4196 75.5615 78.7109L76.5382 77.5071L76.4771 77.4509Z" fill="#F8F7EE"/>
<path d="M68.8134 81.5964C68.486 81.7258 68.1308 81.872 67.7756 82.0351C67.598 82.4176 67.537 82.8001 67.537 83.2051C67.537 83.7001 67.6535 84.1726 67.9532 84.482C68.2473 84.7914 68.7523 85.0276 69.4904 85.0276C70.3173 85.0276 71.2052 84.662 72.0654 84.0039H72.1542C72.6869 84.2795 73.3085 84.3301 73.9578 84.3301C74.6959 84.3301 75.2619 84.0939 75.6171 83.3626C75.7947 83.0364 75.7669 82.6876 75.7669 82.3558C75.7669 81.9002 75.4728 80.9495 74.7291 79.9989H74.6126C74.2297 80.2914 73.8745 80.5839 73.5194 80.9327C74.1409 81.7933 74.5238 82.5245 74.5571 82.7608C74.4073 82.8676 74.0854 82.9408 73.8468 82.9408C73.5804 82.9408 73.2252 82.8676 72.8978 82.7608C72.304 82.5414 71.8934 81.9733 71.8323 81.0452L71.7435 81.0114C71.3606 81.1577 71.1497 81.3039 70.8279 81.467L70.9166 82.7101C70.9166 83.0757 70.5892 83.5482 69.6125 83.5482C68.991 83.5482 68.6968 83.1995 68.6968 82.637C68.6968 82.3108 68.7579 81.9958 68.9022 81.6301L68.8134 81.5964Z" fill="#F8F7EE"/>
<path d="M48.1803 59.2261C47.8307 59.3611 47.4533 59.5186 47.076 59.693C46.8873 60.1036 46.8207 60.5142 46.8207 60.9417C46.8207 61.4705 46.9483 61.9767 47.2647 62.3086C47.581 62.6404 48.1193 62.8936 48.9073 62.8936C49.7897 62.8936 50.7386 62.5054 51.6543 61.8023H51.7486C52.3202 62.0948 52.9806 62.1511 53.6743 62.1511C54.4623 62.1511 55.0672 61.8979 55.4446 61.1161C55.6333 60.7673 55.6 60.3961 55.6 60.0417C55.6 59.5524 55.2837 58.5399 54.4956 57.5274H54.368C53.9573 57.8424 53.58 58.1518 53.1971 58.523C53.863 59.4399 54.2737 60.2217 54.3014 60.4748C54.146 60.593 53.7964 60.6717 53.5411 60.6717C53.2581 60.6717 52.8752 60.593 52.5311 60.4748C51.8985 60.2386 51.4545 59.6367 51.3935 58.6411L51.2991 58.6017C50.8885 58.7592 50.6665 58.9167 50.3169 59.0911L50.4112 60.4186C50.4112 60.8067 50.0616 61.3186 49.0183 61.3186C48.3524 61.3186 48.036 60.9473 48.036 60.3455C48.036 59.9967 48.0971 59.6649 48.258 59.2711L48.1637 59.2317L48.1803 59.2261Z" fill="#F8F7EE"/>
<path d="M56.3658 54.7994C53.5855 55.4632 49.8562 56.2619 46.2546 56.9819L45.8772 58.1744L45.9383 58.2138C49.0349 57.5894 52.2592 56.9088 55.3891 56.1438L56.4324 54.8557L56.3713 54.7994H56.3658Z" fill="#F8F7EE"/>
<path d="M83.0701 52.752L83.0313 52.7126C80.8059 53.247 77.8036 53.8713 74.9235 54.4676L74.6127 55.3451L74.6515 55.3732C77.1433 54.8782 79.7127 54.3326 82.2488 53.7082L83.0701 52.7576V52.752Z" fill="#F8F7EE"/>
<path d="M81.7936 39.2915L81.8213 39.3196C83.3363 38.8246 84.9069 38.279 86.4441 37.6546L86.9435 36.704L86.9158 36.6647C85.5617 37.199 83.7304 37.8234 81.9767 38.4196L81.788 39.2971L81.7936 39.2915Z" fill="#F8F7EE"/>
<path d="M47.8474 21.4043L48.6687 20.4537L48.6299 20.4143C46.4045 20.9487 43.4022 21.5731 40.522 22.1693L40.2113 23.0468L40.2501 23.0749C42.7418 22.5799 45.3113 22.0343 47.8474 21.4099V21.4043Z" fill="#F8F7EE"/>
<path d="M86.1444 15.3351C86.2332 15.4869 87.1821 15.5657 87.3875 15.5657C88.0367 15.3238 89.3076 14.8176 90.0068 13.912C90.1178 13.9513 90.2177 13.9907 90.3065 14.0526L90.8947 13.2257C90.7671 13.1357 90.6173 13.0851 90.4452 13.0626C90.4952 12.8995 90.5229 12.7195 90.5229 12.5282C90.5229 11.1839 89.9236 10.7227 89.4463 10.7227C88.6583 10.7227 87.7426 11.4876 87.7426 12.4608C87.7426 13.1976 88.2587 13.5801 89.2576 13.7545C88.5029 14.3282 87.2376 14.8232 86.1222 15.2676L86.1499 15.3295L86.1444 15.3351ZM88.3253 12.0333C88.3253 11.7914 88.6749 11.5101 89.0523 11.5101C89.5296 11.5101 89.918 12.1851 89.9291 12.7532C89.9291 12.832 89.918 12.9051 89.8903 12.9839C88.9524 12.7926 88.3253 12.4608 88.3253 12.0333Z" fill="#F8F7EE"/>
<path d="M64.2239 104.557C64.124 104.557 64.0463 104.591 63.9741 104.664C63.902 104.732 63.8687 104.822 63.8687 104.917C63.8687 105.013 63.902 105.097 63.9741 105.17C64.0463 105.244 64.124 105.277 64.2239 105.277C64.3237 105.277 64.4014 105.244 64.4736 105.17C64.5402 105.097 64.579 105.013 64.579 104.917C64.579 104.822 64.5457 104.732 64.4736 104.664C64.4014 104.597 64.3182 104.557 64.2239 104.557Z" fill="#F8F7EE"/>
<path d="M63.3914 104.557C63.2915 104.557 63.2138 104.591 63.1417 104.664C63.0695 104.732 63.0362 104.822 63.0362 104.917C63.0362 105.013 63.0695 105.097 63.1417 105.17C63.2138 105.244 63.2915 105.277 63.3914 105.277C63.4913 105.277 63.569 105.244 63.6412 105.17C63.7077 105.097 63.7466 105.013 63.7466 104.917C63.7466 104.822 63.7133 104.732 63.6412 104.664C63.569 104.597 63.4858 104.557 63.3914 104.557Z" fill="#F8F7EE"/>
<path d="M66.355 99.9505C66.2551 99.9505 66.1718 99.9843 66.1053 100.057C66.0387 100.131 65.9998 100.215 65.9998 100.31C65.9998 100.406 66.0331 100.49 66.1053 100.564C66.1718 100.637 66.2606 100.67 66.355 100.67C66.4493 100.67 66.5326 100.637 66.6047 100.564C66.6713 100.496 66.7102 100.412 66.7102 100.31C66.7102 100.209 66.6769 100.131 66.6047 100.057C66.5381 99.9899 66.4493 99.9505 66.355 99.9505Z" fill="#F8F7EE"/>
<path d="M66.0554 102.448H65.5337C65.3117 102.448 65.1064 102.431 64.9233 102.403C64.7346 102.375 64.4293 102.313 64.002 102.217L63.8799 102.797C64.1186 102.853 64.274 102.887 64.3406 102.904L64.5459 102.949C64.668 102.982 64.7512 103.022 64.7956 103.072C64.84 103.123 64.8622 103.185 64.8622 103.264C64.8622 103.376 64.8345 103.466 64.7845 103.528C64.7346 103.59 64.6458 103.629 64.5181 103.657C64.3905 103.685 64.2074 103.697 63.9632 103.697H63.719C63.3694 103.697 63.1141 103.624 62.9476 103.472C62.7812 103.32 62.6979 103.1 62.6979 102.808C62.6979 102.639 62.7312 102.431 62.7923 102.195H62.204C62.1208 102.465 62.0819 102.712 62.0819 102.943C62.0819 103.252 62.1541 103.511 62.2983 103.719C62.4426 103.927 62.6369 104.079 62.8866 104.175C63.1308 104.27 63.4138 104.321 63.7246 104.321H63.9687C64.4904 104.321 64.8733 104.237 65.123 104.068C65.3728 103.899 65.4949 103.635 65.4949 103.275C65.4949 103.202 65.4949 103.14 65.4782 103.084H66.688V101.059H66.0609V102.459L66.0554 102.448Z" fill="#F8F7EE"/>
<path d="M71.4547 100.558C71.5213 100.49 71.5602 100.406 71.5602 100.305C71.5602 100.204 71.5269 100.125 71.4547 100.052C71.3881 99.9842 71.2993 99.9449 71.205 99.9449C71.1107 99.9449 71.0219 99.9786 70.9553 100.052C70.8887 100.125 70.8498 100.209 70.8498 100.305C70.8498 100.4 70.8831 100.485 70.9553 100.558C71.0219 100.631 71.1107 100.665 71.205 100.665C71.2993 100.665 71.3826 100.631 71.4547 100.558Z" fill="#F8F7EE"/>
<path d="M72.0321 99.9505C71.9322 99.9505 71.849 99.9843 71.7824 100.057C71.7158 100.131 71.6769 100.215 71.6769 100.31C71.6769 100.406 71.7102 100.49 71.7824 100.564C71.849 100.637 71.9378 100.67 72.0321 100.67C72.1264 100.67 72.2097 100.637 72.2818 100.564C72.3484 100.496 72.3873 100.412 72.3873 100.31C72.3873 100.209 72.354 100.131 72.2818 100.057C72.2152 99.9899 72.1264 99.9505 72.0321 99.9505Z" fill="#F8F7EE"/>
<path d="M71.3107 102.448H67.7812V99.9731H67.1541V103.072H71.9434V101.047H71.3107V102.448Z" fill="#F8F7EE"/>
<path d="M75.2229 101.368C75.2895 101.301 75.3284 101.211 75.3284 101.115C75.3284 101.019 75.2951 100.935 75.2229 100.862C75.1508 100.789 75.0731 100.755 74.9732 100.755C74.8733 100.755 74.7901 100.789 74.7235 100.862C74.6569 100.935 74.618 101.014 74.618 101.115C74.618 101.216 74.6513 101.301 74.7235 101.368C74.7956 101.436 74.8789 101.475 74.9732 101.475C75.0675 101.475 75.1508 101.441 75.2229 101.368Z" fill="#F8F7EE"/>
<path d="M81.4385 100.912C81.2664 100.806 81.0777 100.755 80.8613 100.755C80.5949 100.755 80.3729 100.845 80.1898 101.019C80.0067 101.199 79.8679 101.447 79.7847 101.767C79.7736 101.807 79.7514 101.88 79.7292 102.004C79.7015 102.122 79.6793 102.212 79.6571 102.268C79.6349 102.324 79.6016 102.369 79.5572 102.403C79.5072 102.437 79.4406 102.454 79.3518 102.454H76.4217V101.267H75.7946V102.561C75.7946 102.881 75.728 103.117 75.5948 103.269C75.4616 103.421 75.2563 103.494 74.9733 103.494C74.4128 103.494 74.1353 103.219 74.1353 102.667C74.1353 102.476 74.1686 102.246 74.2408 101.981H73.6525C73.5637 102.279 73.5249 102.538 73.5249 102.769C73.5249 103.072 73.5915 103.325 73.7247 103.528C73.8578 103.73 74.0354 103.877 74.2519 103.972C74.4683 104.068 74.7125 104.113 74.9733 104.113C75.3451 104.113 75.6503 104.023 75.889 103.843C76.1276 103.663 76.2885 103.41 76.3662 103.072H79.3518C79.5017 103.072 79.646 103.044 79.7681 102.988C79.8957 102.932 80.0011 102.853 80.0844 102.752C80.2065 102.859 80.3452 102.937 80.4895 102.994C80.6338 103.05 80.7836 103.072 80.9334 103.072C81.1277 103.072 81.2997 103.027 81.4607 102.943C81.6216 102.853 81.7492 102.729 81.8491 102.561C81.949 102.392 81.9934 102.195 81.9934 101.964C81.9934 101.734 81.9435 101.537 81.8436 101.357C81.7437 101.171 81.6105 101.025 81.4385 100.918V100.912ZM81.2165 102.352C81.1166 102.442 80.9889 102.487 80.8391 102.487C80.7503 102.487 80.656 102.47 80.5672 102.437C80.4728 102.403 80.3841 102.358 80.3064 102.29C80.3175 102.257 80.323 102.229 80.3286 102.201C80.3286 102.172 80.3396 102.15 80.3452 102.133C80.3563 102.043 80.3785 101.959 80.4062 101.874C80.4617 101.706 80.5228 101.582 80.5949 101.503C80.6671 101.424 80.7559 101.385 80.8724 101.385C81.0222 101.385 81.1443 101.441 81.2331 101.548C81.3219 101.655 81.3719 101.79 81.3719 101.953C81.3719 102.116 81.3219 102.251 81.222 102.341L81.2165 102.352Z" fill="#F8F7EE"/>
<path d="M83.5195 99.568C83.4751 99.5286 83.4529 99.478 83.4529 99.4161C83.4529 99.3542 83.4696 99.3149 83.5084 99.2811C83.5473 99.253 83.5972 99.2361 83.6582 99.2361C83.7082 99.2361 83.7581 99.2474 83.8192 99.2699L83.9468 99.0167C83.8414 98.9661 83.7415 98.938 83.6361 98.938C83.4973 98.938 83.3863 98.9774 83.292 99.0561C83.1976 99.1348 83.1477 99.2417 83.1477 99.3655C83.1477 99.4724 83.181 99.5567 83.242 99.613H83.1477V99.8773H84.0134V99.613H83.6805C83.6139 99.613 83.5584 99.5961 83.514 99.5567L83.5195 99.568Z" fill="#F8F7EE"/>
<path d="M83.9025 100.226H83.2754V103.067H83.9025V100.226Z" fill="#F8F7EE"/>
<path d="M86.4609 102.448V102.206C86.4609 101.734 86.3222 101.374 86.0447 101.126C85.7672 100.879 85.3843 100.755 84.9015 100.755H84.5907V101.391H84.8959C85.1235 101.391 85.3066 101.419 85.4398 101.469C85.5785 101.52 85.6729 101.604 85.7395 101.722C85.8005 101.841 85.8338 101.998 85.8338 102.206V102.448H84.3576V103.072H91.3611V101.047H90.734V102.448H86.4609Z" fill="#F8F7EE"/>
<path d="M90.8506 103.444C90.7507 103.444 90.6675 103.477 90.6009 103.551C90.5343 103.618 90.4955 103.702 90.4955 103.804C90.4955 103.905 90.5287 103.984 90.6009 104.057C90.6675 104.124 90.7563 104.164 90.8506 104.164C90.945 104.164 91.0282 104.13 91.1003 104.057C91.1669 103.984 91.2058 103.899 91.2058 103.804C91.2058 103.708 91.1725 103.624 91.1003 103.551C91.0338 103.477 90.945 103.444 90.8506 103.444Z" fill="#F8F7EE"/>
<path d="M92.4264 99.9731H91.7993V103.067H92.4264V99.9731Z" fill="#F8F7EE"/>
<path d="M32.1922 101.902C32.0702 101.835 31.9148 101.779 31.715 101.739L31.2599 101.655C31.1267 101.627 31.0324 101.599 30.9825 101.554C30.927 101.509 30.9048 101.452 30.9048 101.379C30.9048 101.284 30.9436 101.21 31.0213 101.149C31.099 101.087 31.21 101.053 31.3487 101.053C31.4542 101.053 31.5485 101.07 31.6262 101.109C31.7039 101.149 31.7705 101.199 31.8093 101.267C31.8482 101.329 31.8704 101.402 31.8704 101.475H32.5252C32.5252 101.278 32.4808 101.104 32.3865 100.952C32.2921 100.8 32.159 100.682 31.9814 100.597C31.8038 100.513 31.5874 100.468 31.3432 100.468C31.1156 100.468 30.9159 100.507 30.7494 100.586C30.5829 100.665 30.4608 100.777 30.372 100.912C30.2832 101.047 30.2388 101.205 30.2388 101.374C30.2388 101.531 30.2666 101.66 30.3221 101.767C30.3776 101.874 30.4608 101.964 30.5773 102.037C30.6883 102.105 30.8382 102.155 31.0102 102.189L31.4708 102.274C31.6206 102.302 31.7261 102.341 31.7927 102.397C31.8593 102.454 31.887 102.515 31.887 102.594C31.887 102.69 31.8426 102.769 31.7594 102.83C31.6761 102.892 31.5485 102.92 31.382 102.92C31.2655 102.92 31.1656 102.904 31.0823 102.864C30.9991 102.825 30.9381 102.774 30.8937 102.712C30.8493 102.65 30.8271 102.577 30.8271 102.499H30.1722C30.1722 102.684 30.2222 102.859 30.3165 103.01C30.4109 103.162 30.5496 103.286 30.7327 103.376C30.9159 103.466 31.1323 103.511 31.382 103.511C31.6317 103.511 31.8426 103.472 32.0147 103.393C32.1867 103.314 32.3199 103.207 32.4087 103.067C32.4975 102.932 32.5419 102.774 32.5419 102.605C32.5419 102.437 32.5141 102.296 32.4531 102.184C32.3976 102.071 32.3032 101.975 32.1867 101.908L32.1922 101.902Z" fill="#F8F7EE"/>
<path d="M33.0248 101.16H33.8406V103.466H34.4954V101.16H35.3112V100.513H33.0248V101.16Z" fill="#F8F7EE"/>
<path d="M36.4429 100.513L35.4385 103.466H36.1599L36.3486 102.87H37.4807L37.6694 103.466H38.3908L37.3863 100.513H36.4429ZM36.5317 102.29L36.8702 101.222H36.9535L37.292 102.29H36.5317Z" fill="#F8F7EE"/>
<path d="M40.8828 102.375C41.0104 102.29 41.1103 102.178 41.188 102.032C41.2601 101.885 41.299 101.717 41.299 101.537C41.299 101.34 41.2601 101.16 41.1769 101.008C41.0992 100.856 40.9827 100.738 40.8384 100.648C40.6941 100.564 40.5276 100.519 40.35 100.519H38.9737V103.472H39.6286V102.521H39.734L40.5553 103.472H41.3767L40.5054 102.499C40.6386 102.493 40.7607 102.454 40.8772 102.375H40.8828ZM39.6286 101.914V101.143H40.3112C40.3667 101.143 40.4222 101.16 40.4777 101.194C40.5276 101.227 40.5664 101.272 40.5997 101.329C40.633 101.385 40.6441 101.452 40.6441 101.525C40.6441 101.599 40.6275 101.666 40.5997 101.728C40.572 101.784 40.5332 101.829 40.4777 101.863C40.4277 101.897 40.3722 101.914 40.3112 101.914H39.6286Z" fill="#F8F7EE"/>
<path d="M41.8205 101.16H42.6363V103.466H43.2911V101.16H44.1069V100.513H41.8205V101.16Z" fill="#F8F7EE"/>
<path d="M46.6655 100.513L45.661 103.466H46.3825L46.5711 102.87H47.7032L47.8919 103.466H48.6134L47.6089 100.513H46.6655ZM46.7598 102.29L47.0983 101.222H47.1816L47.5201 102.29H46.7598Z" fill="#F8F7EE"/>
<path d="M50.478 102.369H51.0996C51.0885 102.454 51.0496 102.527 50.9941 102.6C50.9386 102.673 50.8609 102.74 50.7611 102.791C50.6612 102.842 50.5446 102.87 50.4114 102.87C50.2671 102.87 50.1395 102.836 50.023 102.763C49.9064 102.69 49.8176 102.589 49.751 102.459C49.6845 102.33 49.6512 102.172 49.6512 101.998C49.6512 101.824 49.6845 101.666 49.751 101.537C49.8176 101.407 49.912 101.306 50.023 101.233C50.1395 101.16 50.2671 101.126 50.4114 101.126C50.5557 101.126 50.6945 101.165 50.811 101.244C50.9275 101.323 51.0108 101.419 51.0607 101.531H51.7322C51.6934 101.362 51.6157 101.199 51.4991 101.036C51.3826 100.873 51.2383 100.744 51.0552 100.637C50.872 100.535 50.6556 100.479 50.4114 100.479C50.1506 100.479 49.912 100.547 49.6955 100.676C49.4791 100.805 49.3071 100.985 49.1794 101.216C49.0518 101.447 48.9908 101.711 48.9908 101.998C48.9908 102.285 49.0518 102.549 49.1794 102.78C49.3071 103.01 49.4736 103.19 49.6955 103.32C49.912 103.449 50.1562 103.517 50.417 103.517C50.5335 103.517 50.6445 103.5 50.7444 103.472C50.8443 103.444 50.9386 103.399 51.0108 103.348C51.0829 103.297 51.1495 103.241 51.1995 103.179H51.2217L51.2661 103.477H51.76V101.919H50.478V102.38V102.369Z" fill="#F8F7EE"/>
<path d="M53.2805 100.513L52.276 103.466H52.9974L53.1861 102.87H54.3182L54.5069 103.466H55.2283L54.2239 100.513H53.2805ZM53.3693 102.29L53.7078 101.222H53.791L54.1295 102.29H53.3693Z" fill="#F8F7EE"/>
<path d="M56.4659 100.513H55.8111V103.466H56.4659V100.513Z" fill="#F8F7EE"/>
<path d="M59.1794 102.307H59.0962L58.1749 100.513H57.3647V103.466H58.0251V101.677H58.1083L59.0351 103.466H59.8398V100.513H59.1794V102.307Z" fill="#F8F7EE"/>
<path d="M98.2035 43.6453C97.976 43.2796 97.6263 43.2065 97.2212 43.3528C96.805 43.5046 97.249 43.3471 96.1835 43.7296C96.0836 43.4146 95.8949 42.9647 95.7173 42.6834C94.8127 41.2153 93.9526 39.781 91.8105 39.1678C90.8837 38.9035 89.3187 38.881 87.9924 39.3197C87.0767 39.6178 86.0057 40.5009 85.6061 41.2434C85.0012 42.3628 84.6516 45.389 87.0268 46.469C88.5973 47.1833 90.6617 46.6265 92.7594 46.2102C92.7705 46.469 92.7983 47.0033 92.7705 47.2227C92.6817 47.9202 92.543 48.7696 91.6884 49.7539C91.1834 50.3389 90.4009 50.8226 89.0302 50.9633C87.6761 51.1039 85.5007 49.4839 85.4008 49.4052C85.0678 49.1352 84.6572 48.9945 84.3186 49.2589C83.9801 49.5233 83.9135 50.0183 84.1744 50.3614C84.2465 50.457 85.9225 53.0557 89.069 53.2301C89.4297 53.2526 90.4286 53.3032 90.7894 53.2301C91.8993 53.0164 93.5641 52.4651 94.4742 51.4751C95.4509 50.412 95.9226 49.2533 96.2501 48.1452C96.6385 46.8177 96.6385 45.7321 96.5941 45.2709C97.7762 44.669 97.249 44.939 97.7928 44.6409C97.9871 44.534 98.431 44.0221 98.2035 43.6565V43.6453ZM89.5685 44.3484C89.0302 44.1009 88.3254 43.2459 88.5196 42.2334C88.5973 41.8172 89.4519 40.9678 90.6229 41.5472C92.1046 42.284 92.4764 43.6678 92.5208 44.6521C90.634 44.7984 90.1734 44.624 89.5685 44.3484Z" fill="#F8F7EE"/>
<path d="M88.9248 63.2874C88.6973 62.9217 88.3477 62.8486 87.9425 62.9949C87.5263 63.1467 87.9703 62.9893 86.9048 63.3717C86.8049 63.0568 86.6162 62.6068 86.4386 62.3255C85.5341 60.8574 84.6739 59.4231 82.5318 58.8099C81.605 58.5456 80.0401 58.5231 78.7137 58.9618C77.7981 59.2599 76.727 60.143 76.3275 60.8855C75.7226 62.0049 75.3729 65.0311 77.7481 66.1111C79.3186 66.8254 81.383 66.2686 83.4808 65.8523C83.4919 66.1111 83.5196 66.6454 83.4918 66.8648C83.4031 67.5623 83.2643 68.4117 82.4097 69.396C81.9047 69.981 81.1222 70.4647 79.7515 70.6054C78.3974 70.746 76.222 69.126 76.1221 69.0473C75.7891 68.7773 75.3785 68.6367 75.04 68.901C74.7014 69.1654 74.6349 69.6604 74.8957 70.0035C74.9678 70.0991 76.6438 72.6978 79.7903 72.8722C80.1511 72.8947 81.15 72.9453 81.5107 72.8722C82.6206 72.6585 84.2854 72.1072 85.1955 71.1172C86.1723 70.0541 86.644 68.8954 86.9714 67.7873C87.3598 66.4598 87.3598 65.3742 87.3155 64.913C88.4975 64.3111 87.9703 64.5811 88.5141 64.283C88.7084 64.1761 89.1523 63.6642 88.9248 63.2986V63.2874ZM80.2842 63.9905C79.7459 63.743 79.0411 62.888 79.2354 61.8755C79.3131 61.4593 80.1677 60.6099 81.3386 61.1893C82.8204 61.9261 83.1922 63.3099 83.2366 64.2942C81.3497 64.4405 80.8891 64.2661 80.2842 63.9905Z" fill="#F8F7EE"/>
</svg>
