<?xml version="1.0" encoding="UTF-8"?>
<svg id="Layer_2" data-name="Layer 2" xmlns="http://www.w3.org/2000/svg" viewBox="0 0 75.97 93.71">
  <defs>
    <style>
      .cls-1 {
        fill: #45ba82;
        stroke-width: 0px;
      }
    </style>
  </defs>
  <g id="Layer_1-2" data-name="Layer 1">
    <g>
      <g id="_84DH8B" data-name="84DH8B">
        <g>
          <g>
            <path class="cls-1" d="M39.63,74.37c-4.67,3.51-9.82,5.52-15.39,6.5-3.24.57-6.48.64-9.68-.37-2.33-.73-4-2.12-4.59-4.53-.81-3.33-1.53-6.67-2.25-10.02-.39-1.82-.7-3.65-1.04-5.47-.1-.53-.38-.75-.91-.84-1.56-.27-3.08-.66-4.27-1.81-.94-.91-1.14-1.91-.63-3.13,2.75-6.54,4.36-13.36,4.79-20.43.45-7.42,2.71-14.18,7.29-20.07C18.66,6.85,26.15,2.39,35.37,1.02c10.59-1.57,20.06,1.19,28.15,8.17,6.58,5.67,10.46,12.91,11.62,21.56.64,4.76-.09,9.41-1.31,14-1.18,4.41-2.51,8.79-3.55,13.23-.56,2.41-.85,4.91-.95,7.39-.33,8.41-.53,16.83-.77,25.25-.01.4.01.81-.07,1.2-.05.26-.27.48-.41.72-.13-.23-.36-.46-.37-.7-.04-.77-.02-1.55,0-2.32.28-8.7.51-17.41.88-26.1.18-4.1,1.37-8.04,2.45-11.99,1.08-3.96,2.22-7.93,3.01-11.95,1.41-7.14-.04-13.91-3.53-20.2-5.25-9.47-13.29-15.27-23.92-17.3C28.62-1.47,10.61,10.81,7.24,28.76c-.53,2.83-.7,5.73-1.02,8.6-.68,6.09-2.18,11.96-4.53,17.62-.44,1.06-.34,1.9.66,2.44,1.21.65,2.55,1.1,3.88,1.46.66.18,1.03.44,1.16,1.05.42,2.07.78,4.15,1.22,6.22.62,2.96,1.27,5.92,1.92,8.87.67,3.06,2.79,4.5,5.69,5.06,4.44.86,8.71.06,12.92-1.29,3.78-1.22,7.34-2.88,10.38-5.51.47-.41.76-.26.88.42.42,2.45.5,4.92.1,7.36-.57,3.55-1.3,7.08-1.99,10.61-.05.24-.33.43-.5.64-.09-.27-.31-.57-.27-.82.6-3.29,1.29-6.56,1.84-9.86.4-2.37.43-4.77.05-7.27Z"/>
            <path class="cls-1" d="M68.05,93.71l-.5-.9c-.03-.06-.07-.11-.11-.17-.14-.2-.31-.46-.33-.79-.04-.77-.02-1.53,0-2.37.08-2.39.15-4.78.22-7.17.19-6.21.39-12.63.66-18.94.16-3.77,1.17-7.43,2.15-10.97l.71-2.57c.94-3.42,1.91-6.96,2.61-10.48,1.31-6.62.14-13.28-3.46-19.8-5.15-9.29-13.06-15.01-23.52-17.01-8.54-1.63-17.33.25-24.73,5.3-7.39,5.04-12.34,12.51-13.94,21.03-.37,1.97-.57,4.02-.76,6-.08.85-.16,1.7-.26,2.55-.69,6.15-2.23,12.13-4.58,17.78-.42,1-.16,1.39.39,1.69.99.53,2.19.98,3.76,1.41.63.17,1.38.5,1.58,1.51.18.89.35,1.78.52,2.67.23,1.18.45,2.37.7,3.55.6,2.87,1.24,5.79,1.86,8.61l.06.25c.56,2.56,2.22,4.03,5.23,4.61,3.75.72,7.64.33,12.62-1.27,4.29-1.38,7.52-3.09,10.17-5.4.39-.34.77-.45,1.13-.32.57.2.68.87.72,1.09.45,2.63.49,5.17.11,7.55-.46,2.86-1.03,5.74-1.58,8.53l-.41,2.1c-.07.34-.3.57-.48.75-.05.05-.1.1-.14.15l-.67.82-.35-1c-.02-.07-.06-.14-.09-.2-.12-.25-.26-.55-.2-.91.24-1.31.49-2.62.74-3.93.37-1.94.76-3.94,1.09-5.92.34-2.05.4-4.06.17-6.11-4.31,3.05-9.17,5.02-14.82,6.02-3.81.68-6.98.55-9.96-.39-2.72-.86-4.4-2.52-4.99-4.95-.83-3.39-1.55-6.77-2.26-10.04-.3-1.41-.56-2.85-.81-4.24l-.23-1.25c-.04-.22-.07-.3-.43-.36-1.61-.28-3.28-.71-4.59-1.97-1.11-1.07-1.37-2.35-.76-3.78,2.72-6.47,4.32-13.28,4.74-20.24.48-7.82,2.97-14.68,7.42-20.4C18.32,6.32,25.99,1.81,35.28.43c10.75-1.59,20.38,1.2,28.63,8.31,6.66,5.74,10.64,13.12,11.82,21.93.56,4.2.14,8.72-1.33,14.23-.41,1.55-.85,3.1-1.28,4.65-.78,2.8-1.59,5.7-2.27,8.57-.51,2.19-.83,4.64-.93,7.27-.24,6.04-.41,12.19-.57,18.14-.07,2.37-.13,4.73-.2,7.1,0,.09,0,.19,0,.29,0,.33,0,.67-.08,1.02-.06.3-.23.53-.36.72-.04.06-.08.12-.12.18l-.53.88Z"/>
          </g>
          <g>
            <path class="cls-1" d="M22.15,38.21c1.15,0,2.23,0,3.31,0,.26,0,.53-.04.77.03.17.05.29.27.43.41-.16.13-.31.36-.47.36-1.46.03-2.92.02-4.38.02-.64,0-.53-.48-.53-.86,0-2.86,0-5.73,0-8.59,0-1.78.03-3.55-.01-5.33-.02-.71.21-.94.92-.93,3.81.03,7.62.01,11.43.01,7.28,0,14.55.01,21.83-.02.86,0,1.13.22,1.12,1.11-.04,4.53-.04,9.05,0,13.58,0,.84-.26,1.06-1.08,1.06-5.16-.03-10.31-.02-15.47-.02-.17,0-.36.04-.51-.02-.16-.06-.29-.21-.43-.33.14-.15.25-.38.41-.44.23-.08.51-.03.77-.03,4.81,0,9.63,0,14.44,0,.28,0,.57,0,.91,0v-14.02H22.15v14.01Z"/>
            <path class="cls-1" d="M55.52,39.65h-.04c-3.86-.02-7.8-.02-11.6-.02h-3.87s-.08,0-.11,0c-.16.01-.38.02-.6-.06-.22-.08-.38-.23-.5-.34-.03-.03-.06-.06-.09-.08l-.49-.39.41-.47s.06-.07.08-.11c.12-.17.29-.4.58-.5.28-.1.55-.08.78-.07.06,0,.12,0,.18,0h14.76v-12.83H22.74v12.83h2.72c.06,0,.12,0,.19,0,.22,0,.49-.02.76.06.29.09.46.3.59.46.03.04.06.07.09.1l.46.47-.51.41s-.06.06-.1.09c-.15.16-.38.39-.73.4-1.26.02-2.53.02-3.75.02h-.64c-.36,0-.64-.11-.84-.32-.31-.32-.29-.74-.29-1.01v-.13c0-2.23,0-4.46,0-6.69v-1.91c0-.51,0-1.02,0-1.53,0-1.24.01-2.52-.02-3.78,0-.36.02-.83.35-1.16.33-.34.8-.38,1.16-.38,2.81.02,5.62.02,8.43.02h3s4.95,0,4.95,0c5.62,0,11.25,0,16.88-.02.45,0,.96.05,1.32.41.36.36.4.88.4,1.3-.04,4.35-.04,8.79,0,13.57,0,.4-.04.91-.39,1.26-.34.34-.82.4-1.25.4Z"/>
          </g>
          <rect class="cls-1" x="22.45" y="24.22" width="33.43" height="15.41"/>
        </g>
      </g>
      <rect class="cls-1" x="59.57" y="22.72" width="2.9" height="16.93"/>
    </g>
  </g>
</svg>