<?xml version="1.0" encoding="UTF-8"?>
<svg xmlns="http://www.w3.org/2000/svg" version="1.1" viewBox="0 0 40 29.2">
  <defs>
    <style>
      .cls-1 {
        fill: #004f4f;
      }

      .cls-2 {
        fill: #3fbca1;
      }

      .cls-3 {
        fill: #44b981;
      }
    </style>
  </defs>
  <!-- Generator: Adobe Illustrator 28.6.0, SVG Export Plug-In . SVG Version: 1.2.0 Build 709)  -->
  <g>
    <g id="Layer_1">
      <g id="Vector">
        <path id="Path_5" class="cls-2" d="M27.4-67.8c-1.2-9.9-11-10.7-11.4-10.7-.5,0-11.9-1.2-13.8,9.1-.3,1.1,0,2.3.7,3.2-.6,1.3-1.5,2.5-2.5,3.5-.4.4-.5.9-.3,1.4.3.7.9,1.2,1.6,1.5.5.2.4,1.4.3,1.9,0,.3,0,.7.3.9.4.4.7.9.6,1.5-.2.8-.5,2.4.5,3.5.8.9,2,1.2,3.9,1,2.3-.2,4.6-.8,6.8-1.6.5-.2.7-.7.5-1.2s-.7-.7-1.2-.5c-2,.8-4.1,1.3-6.2,1.5-.8.2-1.7,0-2.4-.4-.3-.4-.2-1.1,0-1.8.2-1.1-.1-2.2-.9-2.9,0-.9,0-2.8-1.4-3.5-.2,0-.3-.2-.5-.3,1.9-2.1,2.8-3.7,2.8-4.7,0-.4-.2-.7-.5-1-.4-.3-.3-1.2-.3-1.6.5-3.5,3-6.3,6.4-7.2,1.7-.5,3.6-.7,5.4-.5,0,0,0,0,0,0,.4,0,8.7.6,9.7,9.1.6,3.2,0,6.4-1.6,9.2-1.4,2.4-2.1,5.2-2.1,8,0,.2,0,.5.3.7.2.2.4.3.6.3h0c.5,0,.9-.4.9-.9,0-2.5.7-5,1.9-7.2,1.8-3.1,2.4-6.8,1.8-10.3h0Z"/>
        <path id="Path_6" class="cls-2" d="M39.6-62.6c-1-1-1.9-2.2-2.5-3.5.7-.9,1-2.1.7-3.2-1.9-10.4-13.3-9.2-13.8-9.2,0,0-.2,0-.5,0-.5,0-.9.5-.8,1,0,.2.2.5.4.6.2.2.4.2.7.2.3,0,.4,0,.4,0,0,0,0,0,0,0,1.8-.2,3.6,0,5.4.5,3.4.9,6,3.7,6.4,7.2,0,.4.1,1.2-.3,1.6-.3.2-.5.6-.5,1,0,1,.9,2.6,2.8,4.7-.1.1-.3.2-.5.3-1.5.7-1.5,2.5-1.4,3.5-.7.8-1.1,1.9-.9,2.9.2.7.3,1.5,0,1.8s-1.2.5-2.4.4c-2.1-.2-4.2-.7-6.2-1.5-.5-.2-1,0-1.2.5-.2.5,0,1,.5,1.2,0,0,0,0,0,0,2.2.9,4.5,1.4,6.8,1.6.3,0,.6,0,.9,0,1.1.1,2.2-.3,3-1.1,1-1.1.6-2.7.5-3.5,0-.6.2-1.1.6-1.5.3-.2.4-.6.3-.9-.1-.5-.1-1.7.3-1.9.7-.3,1.3-.8,1.6-1.5.2-.5,0-1.1-.3-1.4h0Z"/>
        <path id="Path_7" class="cls-2" d="M17.8-74.1c.4-.3.5-.9.1-1.3-.2-.2-.4-.3-.6-.3-.2,0-.5,0-.7.2-2.3,2-3.8,4.7-4.1,7.8-.6,3.5,0,7.2,1.8,10.3,1.2,2.2,1.9,4.7,1.9,7.2,0,.5.4.9.9.9h0c.5,0,.9-.4.9-.9,0-2.8-.8-5.5-2.1-8-1.6-2.8-2.2-6.1-1.6-9.2.2-2.5,1.4-4.9,3.4-6.6h0Z"/>
      </g>
      <g>
        <path class="cls-3" d="M33.1-19h0c-.4.3-.9.2-1.2-.2l-1.8-2.6,1.8-2.6c.3-.4.8-.5,1.2-.2h0c.4.3.5.8.2,1.2l-1.1,1.6,1.1,1.7c.3.4.2.9-.2,1.2Z"/>
        <g>
          <path class="cls-1" d="M16.8-31.1c.1,0,.2,0,.3-.1,0,0,.1-.2.1-.3s0-.2-.1-.3c0,0-.2-.1-.3-.1s-.2,0-.3.1-.1.2-.1.3,0,.2.1.3.2.1.3.1Z"/>
          <path class="cls-1" d="M15.7-31.1c.1,0,.2,0,.3-.1,0,0,.1-.2.1-.3s0-.2-.1-.3c0,0-.2-.1-.3-.1s-.2,0-.3.1-.1.2-.1.3,0,.2.1.3.2.1.3.1Z"/>
          <path class="cls-1" d="M29.7-31.1c.1,0,.2,0,.3-.1s.1-.2.1-.3,0-.2-.1-.3-.2-.1-.3-.1-.2,0-.3.1c0,0-.1.2-.1.3s0,.2.1.3c0,0,.2.1.3.1Z"/>
          <path class="cls-1" d="M37.7-29.1c0-.2-.2-.5-.4-.6-.2-.2-.4-.3-.6-.4-.2,0-.5-.1-.8-.1-.5,0-.9.1-1.2.4-.4.3-.7.7-.9,1.1v-1.2h-.7v2.4h-1.2s0,0,0,0c0,0,0,0,0,0h-.7v-1.2c0-.2,0-.4,0-.6,0-.2-.2-.3-.3-.5s-.3-.2-.4-.3c-.2,0-.4-.1-.6-.1s-.5,0-.7.1c-.2,0-.4.2-.6.4-.2.2-.3.3-.4.5,0,.2-.1.4-.1.6s0,.4.1.6c0,.2.2.3.3.4h-1.3c-.2,0-.3,0-.4-.1s-.2-.2-.3-.3c0-.1-.1-.3-.2-.4,0-.2,0-.3,0-.5,0-.2,0-.3,0-.5,0-.2-.1-.3-.2-.5-.1-.1-.2-.3-.4-.3-.2,0-.4-.1-.6-.1s-.2,0-.3,0c-.1,0-.2,0-.3,0-.1,0-.2,0-.3,0,0,0-.2,0-.2,0l.2.6c.1,0,.3-.1.5-.1.2,0,.3,0,.4,0,.2,0,.4,0,.6.2.1.1.2.4.3.7,0,.3,0,.6.1.7,0,.2.1.3.2.4h-8.2v-1.2c0-.2,0-.4-.1-.6,0-.2-.2-.4-.3-.5-.1-.1-.3-.2-.5-.3-.2,0-.4-.1-.6-.1s-.5,0-.7.1c-.2,0-.4.2-.5.4-.1.2-.3.4-.3.6,0,.2-.1.5-.1.7s0,.4,0,.6c0,.2.2.4.3.5.1.1.3.3.5.4.2,0,.5.1.8.1h9c.1,0,.2,0,.3,0,.1,0,.2-.2.3-.4.1.2.3.3.5.4.2,0,.4.1.6.1h4.8s0,0,0,0c0,0,0,0,0,0h5.9v-1.5c0-.3,0-.6-.1-.8ZM17.1-27.5h-.8c-.1,0-.3,0-.4,0-.1,0-.2,0-.3-.2-.1,0-.2-.2-.2-.3,0-.1,0-.3,0-.5s0-.3,0-.4c0-.1.1-.2.2-.3,0,0,.2-.2.3-.2.1,0,.2,0,.4,0,.3,0,.5.1.7.3.2.2.2.5.2.9v.9ZM30.5-27.5h-.9c-.2,0-.3,0-.5-.2-.1,0-.2-.2-.3-.3,0-.1-.1-.3-.1-.6s0-.3,0-.4c0-.1.1-.2.2-.3s.2-.2.3-.2c.1,0,.2,0,.4,0s.3,0,.4,0c.1,0,.2.1.3.2,0,0,.1.2.2.3s0,.2,0,.3v1.3ZM37.2-27.5h-3.3c0-.3.1-.6.2-.9.1-.3.3-.5.5-.7.2-.2.4-.3.6-.4s.5-.2.7-.2c.4,0,.7.1,1,.4.2.2.3.6.3,1.2v.7Z"/>
          <path class="cls-1" d="M7.2-24.4c.1,0,.2,0,.3-.1,0,0,.1-.2.1-.3s0-.2-.1-.3c0,0-.2-.1-.3-.1s-.2,0-.3.1-.1.2-.1.3,0,.2.1.3.2.1.3.1Z"/>
          <path class="cls-1" d="M6.2-24.4c.1,0,.2,0,.3-.1,0,0,.1-.2.1-.3s0-.2-.1-.3c0,0-.2-.1-.3-.1s-.2,0-.3.1-.1.2-.1.3,0,.2.1.3.2.1.3.1Z"/>
          <path class="cls-1" d="M19-24.5c0,0,.1-.2.1-.3s0-.2-.1-.3c0,0-.2-.1-.3-.1s-.2,0-.3.1c0,0-.1.2-.1.3s0,.2.1.3c0,0,.2.1.3.1s.2,0,.3-.1Z"/>
          <path class="cls-1" d="M23.5-19.2c-.1,0-.2,0-.3.1s-.1.2-.1.3,0,.2.1.3.2.1.3.1.2,0,.3-.1.1-.2.1-.3,0-.2-.1-.3-.2-.1-.3-.1Z"/>
          <path class="cls-1" d="M22.5-19.2c-.1,0-.2,0-.3.1s-.1.2-.1.3,0,.2.1.3.2.1.3.1.2,0,.3-.1c0,0,.1-.2.1-.3s0-.2-.1-.3c0,0-.2-.1-.3-.1Z"/>
          <path class="cls-1" d="M25.5-20.7h-1.3c-.2,0-.3,0-.4,0-.1,0-.2-.1-.3-.2,0,0-.1-.2-.2-.3,0-.1,0-.2,0-.4v-1.5h-.7v1.8c0,.2,0,.3-.1.5,0,.1-.2.2-.4.2h-.7c-.3,0-.6,0-.7-.2-.2-.1-.2-.3-.2-.6s0-.6-.1-.8c0-.3-.2-.5-.4-.7-.2-.2-.3-.3-.6-.4-.2-.1-.5-.2-.8-.2s-.4,0-.6,0c-.2,0-.4.1-.6.3-.2.1-.4.3-.5.5-.2.2-.3.5-.5.8v-1.2h-.6v2.4h-7.7v-1.2c0-.2,0-.4-.1-.6,0-.2-.2-.4-.3-.5-.1-.1-.3-.2-.5-.3-.2,0-.4-.1-.6-.1s-.5,0-.7.1c-.2,0-.4.2-.5.4-.1.2-.3.4-.3.6,0,.2-.1.5-.1.7s0,.4,0,.6c0,.2.2.4.3.5.1.1.3.3.5.4.2,0,.5.1.8.1h12.6c.2,0,.4,0,.6-.2.2-.1.3-.3.4-.5,0,.2.2.4.4.5.2,0,.4.1.6.1,0,0,0,0,0,0h.7c.1,0,.2,0,.3,0,0,0,.2,0,.3,0,0,0,.2-.1.2-.2,0,0,.1-.2.2-.3,0,.2.2.4.4.5.2,0,.4.1.6.1h2v-3.1h-.7v2.4ZM7.6-20.7h-.8c-.1,0-.3,0-.4,0-.1,0-.2,0-.3-.2-.1,0-.2-.2-.2-.3,0-.1,0-.3,0-.5s0-.3,0-.4c0-.1.1-.2.2-.3,0,0,.2-.2.3-.2.1,0,.2,0,.4,0,.3,0,.5.1.7.3.2.2.2.5.2.9v.9ZM19.8-20.9c0,.1-.2.2-.4.2h-2.9c0-.3,0-.5.2-.8s.3-.5.4-.7c.2-.2.4-.4.6-.5.2-.1.5-.2.8-.2.4,0,.7.1,1,.4.2.3.3.7.3,1.1s0,.4,0,.5Z"/>
          <path class="cls-1" d="M25.8-19.2c-.1,0-.2,0-.3.1s-.1.2-.1.3,0,.2.1.3.2.1.3.1.2,0,.3-.1.1-.2.1-.3,0-.2-.1-.3-.2-.1-.3-.1Z"/>
        </g>
        <g>
          <path class="cls-3" d="M14-30.8c-.3-2.8-3.2-3.1-3.3-3.1-.1,0-3.4-.4-4,2.6,0,0-.1.6.2.9,0,.1-.2.5-.7,1-.1.1-.1.3,0,.4,0,.2.2.3.5.4.1,0,.1.4,0,.6,0,0,0,.2,0,.3,0,0,.2.2.2.4,0,.2-.2.7.1,1,.2.2.6.3,1.1.3,0,0,1,0,2-.5,0,0,.1,0,.1-.1,0,0,0-.1,0-.2,0,0,0-.1-.1-.1,0,0-.1,0-.2,0-.9.4-1.8.4-1.8.4-.3,0-.6,0-.7-.1,0-.1,0-.3,0-.5,0-.4-.1-.7-.3-.8,0-.3,0-.8-.4-1,0,0-.1,0-.1,0,.5-.6.8-1.1.8-1.4,0-.1,0-.2-.1-.3-.1,0-.1-.4,0-.5.2-1.1.8-1.8,1.8-2.1.8-.2,1.5-.1,1.6-.1,0,0,0,0,0,0,0,0,2.5.2,2.8,2.6.2,1.4-.1,2-.5,2.7-.3.6-.6,1.2-.6,2.3,0,0,0,.1,0,.2,0,0,.1,0,.2,0h0c.1,0,.3-.1.3-.3,0-1,.3-1.5.6-2.1.3-.7.7-1.4.5-2.9Z"/>
          <path class="cls-3" d="M5.6-29c0,0,0-.1,0-.2,0,0-.1,0-.2,0s-.1,0-.2,0c-.6.6-.6,1.4,0,2,0,0,.1,0,.2,0s.1,0,.2,0c0,0,0-.1,0-.2s0-.1,0-.2c-.3-.3-.3-.9,0-1.3,0,0,0-.1,0-.2Z"/>
          <path class="cls-3" d="M4.2-28.2c0-.5.2-1,.6-1.4s0-.1,0-.2,0-.1,0-.2c0,0-.1,0-.2,0s-.1,0-.2,0c-.5.5-.7,1.1-.7,1.7s.3,1.3.7,1.7c0,0,.1,0,.2,0s.1,0,.2,0,0-.1,0-.2,0-.1,0-.2c-.4-.4-.6-.9-.6-1.4Z"/>
          <path class="cls-3" d="M4-30.3s0-.1,0-.2,0-.1,0-.2c0,0-.1,0-.2,0s-.1,0-.2,0c-.7.7-1,1.6-1,2.5s.4,1.9,1,2.5c0,0,.1,0,.2,0s.1,0,.2,0c0,0,0-.1,0-.2s0-.1,0-.2c-1.2-1.2-1.2-3.1,0-4.3Z"/>
        </g>
      </g>
      <g>
        <circle class="cls-3" cx="31.1" cy="20.5" r="1.7"/>
        <g>
          <path class="cls-1" d="M17.2,11.8c0,0,.2,0,.2-.1,0,0,.1-.1.1-.2s0-.2-.1-.2c0,0-.1-.1-.2-.1s-.2,0-.2.1c0,0-.1.1-.1.2s0,.2.1.2c0,0,.1.1.2.1Z"/>
          <path class="cls-1" d="M16.2,11.8c0,0,.2,0,.2-.1s.1-.1.1-.2,0-.2-.1-.2-.1-.1-.2-.1-.2,0-.2.1c0,0-.1.1-.1.2s0,.2.1.2c0,0,.1.1.2.1Z"/>
          <path class="cls-1" d="M32.2,11.8c0,0,.2,0,.2-.1s.1-.1.1-.2,0-.2-.1-.2-.1-.1-.2-.1-.2,0-.2.1-.1.1-.1.2,0,.2.1.2.1.1.2.1Z"/>
          <path class="cls-1" d="M31.2,11.8c0,0,.2,0,.2-.1s.1-.1.1-.2,0-.2-.1-.2-.1-.1-.2-.1-.2,0-.2.1-.1.1-.1.2,0,.2.1.2.1.1.2.1Z"/>
          <path class="cls-1" d="M35.1,11.8c0,0,.2,0,.2-.1,0,0,.1-.1.1-.2s0-.2-.1-.2c0,0-.1-.1-.2-.1s-.2,0-.2.1c0,0-.1.1-.1.2s0,.2.1.2c0,0,.1.1.2.1Z"/>
          <path class="cls-1" d="M34.9,15.1h-1.1s0,0,0,0c0,0,0,0,0,0h-.7v-1.1c0-.2,0-.4,0-.6s-.1-.3-.3-.4-.2-.2-.4-.3c-.2,0-.3-.1-.5-.1s-.5,0-.7.1c-.2,0-.4.2-.5.4-.1.1-.2.3-.3.5,0,.2-.1.4-.1.6s0,.4.1.6c0,.2.2.3.3.4h-1.2c-.3,0-.5,0-.7-.2-.1-.1-.2-.3-.2-.5s0-.5-.1-.8c0-.2-.2-.4-.3-.6-.1-.2-.3-.3-.5-.4-.2,0-.4-.1-.7-.1s-.3,0-.5,0c-.2,0-.3.1-.5.2-.2.1-.3.3-.5.4-.2.2-.3.4-.4.7v-3.6h-.6v4.7h-6.2v-1.1c0-.2,0-.4,0-.6,0-.2-.2-.3-.3-.5-.1-.1-.3-.2-.4-.3-.2,0-.4-.1-.6-.1s-.4,0-.6.1-.3.2-.5.4c-.1.2-.2.3-.3.5,0,.2-.1.4-.1.7s0,.3,0,.5c0,.2.1.3.3.5.1.1.3.2.5.3.2,0,.5.1.8.1h10.6c.2,0,.4,0,.5-.1.2,0,.3-.2.4-.4,0,.2.2.4.4.5.2,0,.3.1.6.1,0,0,0,0,0,0h4.4s0,0,0,0c0,0,0,0,0,0h1.7v-2.8h-.6v2.2ZM17.5,15.1h-.7c-.1,0-.3,0-.4,0s-.2,0-.3-.2c0,0-.2-.2-.2-.3,0-.1,0-.3,0-.4s0-.3,0-.4c0-.1.1-.2.2-.3,0,0,.2-.2.3-.2.1,0,.2,0,.3,0,.3,0,.5,0,.6.3.1.2.2.5.2.8v.9ZM27.8,15c0,0-.2.1-.3.1h-2.6c0-.3,0-.5.2-.7.1-.2.2-.5.4-.6.2-.2.4-.3.6-.4.2-.1.4-.2.7-.2.4,0,.7.1.9.4.2.3.3.6.3,1s0,.4,0,.5ZM32.4,15.1h-.8c-.2,0-.3,0-.4-.1-.1,0-.2-.2-.3-.3,0-.1-.1-.3-.1-.5s0-.3,0-.4c0-.1.1-.2.2-.3s.2-.2.3-.2c.1,0,.2,0,.3,0s.3,0,.4,0,.2.1.2.2c0,0,.1.2.1.3,0,0,0,.2,0,.3v1.2Z"/>
          <path class="cls-1" d="M6.7,18c0,0,.2,0,.2-.1,0,0,.1-.1.1-.2s0-.2-.1-.2c0,0-.1-.1-.2-.1s-.2,0-.2.1c0,0-.1.1-.1.2s0,.2.1.2c0,0,.1.1.2.1Z"/>
          <path class="cls-1" d="M5.7,18c0,0,.2,0,.2-.1s.1-.1.1-.2,0-.2-.1-.2-.1-.1-.2-.1-.2,0-.2.1c0,0-.1.1-.1.2s0,.2.1.2c0,0,.1.1.2.1Z"/>
          <path class="cls-1" d="M14.4,19h-.6v2.2h-6.2v-1.1c0-.2,0-.4,0-.6,0-.2-.2-.3-.3-.5-.1-.1-.3-.2-.4-.3-.2,0-.4-.1-.6-.1s-.4,0-.6.1-.3.2-.5.4c-.1.2-.2.3-.3.5,0,.2-.1.4-.1.7s0,.3,0,.5c0,.2.1.3.3.5.1.1.3.2.5.3.2,0,.5.1.8.1h8v-2.8ZM7,21.3h-.7c-.1,0-.3,0-.4,0s-.2,0-.3-.2c0,0-.2-.2-.2-.3,0-.1,0-.3,0-.4s0-.3,0-.4c0-.1.1-.2.2-.3,0,0,.2-.2.3-.2.1,0,.2,0,.3,0,.3,0,.5,0,.6.3.1.2.2.5.2.8v.9Z"/>
          <path class="cls-1" d="M14.2,22.7c0,0-.2,0-.2.1,0,0-.1.1-.1.2s0,.2.1.2c0,0,.1.1.2.1s.2,0,.2-.1c0,0,.1-.1.1-.2s0-.2-.1-.2c0,0-.1-.1-.2-.1Z"/>
          <path class="cls-1" d="M13.2,22.7c0,0-.2,0-.2.1,0,0-.1.1-.1.2s0,.2.1.2c0,0,.1.1.2.1s.2,0,.2-.1c0,0,.1-.1.1-.2s0-.2-.1-.2c0,0-.1-.1-.2-.1Z"/>
          <rect class="cls-1" x="15.6" y="16.5" width=".6" height="5.3"/>
          <path class="cls-1" d="M22,22.7c0,0-.2,0-.2.1,0,0-.1.1-.1.2s0,.2.1.2c0,0,.1.1.2.1s.2,0,.2-.1c0,0,.1-.1.1-.2s0-.2-.1-.2c0,0-.1-.1-.2-.1Z"/>
          <path class="cls-1" d="M24.2,21.3h-1c-.2,0-.3,0-.4,0-.1,0-.2-.1-.3-.2,0,0-.1-.2-.1-.3,0-.1,0-.2,0-.3v-1.4h-.6v1.7c0,.2,0,.3,0,.4,0,.1-.2.2-.4.2h-.7c-.3,0-.5,0-.7-.2-.1-.2-.2-.4-.2-.7s0-.4,0-.6c0-.2-.1-.4-.2-.5-.1-.1-.3-.2-.5-.3-.2,0-.4-.1-.7-.1h-.8v.6h.6c.3,0,.5,0,.6,0,.1,0,.3.1.3.3,0,.1.1.3.1.4,0,.2,0,.4,0,.6s0,.3-.1.4-.2.1-.4.1h-1.6v.6h1.7c0,0,.2,0,.3,0,0,0,.2,0,.3-.1,0,0,.2-.1.2-.2,0,0,.1-.2.1-.3,0,.1,0,.2.1.3s.1.1.2.2c0,0,.2,0,.3,0,0,0,.2,0,.3,0h.8c0,0,.2,0,.3,0,0,0,.2,0,.3,0,0,0,.1,0,.2-.2s.1-.2.2-.3c0,.2.2.4.3.4.2,0,.4.1.6.1h1.6v-5.3h-.6v4.7Z"/>
          <rect class="cls-1" x="26" y="16.5" width=".6" height="5.3"/>
        </g>
        <g>
          <g id="_x38_4DH8B">
            <g>
              <g>
                <path class="cls-3" d="M8.8,13.8c-.5.4-1.1.6-1.7.7-.4,0-.7,0-1.1,0-.3,0-.4-.2-.5-.5,0-.4-.2-.7-.2-1.1,0-.2,0-.4-.1-.6,0,0,0,0,0,0-.2,0-.3,0-.5-.2-.1,0-.1-.2,0-.3.3-.7.5-1.5.5-2.2,0-.8.3-1.5.8-2.2.6-.8,1.4-1.3,2.4-1.4,1.2-.2,2.2.1,3.1.9.7.6,1.1,1.4,1.3,2.3,0,.5,0,1-.1,1.5-.1.5-.3,1-.4,1.4,0,.3,0,.5-.1.8,0,.9,0,1.8,0,2.7,0,0,0,0,0,.1,0,0,0,0,0,0,0,0,0,0,0,0,0,0,0-.2,0-.3,0-.9,0-1.9,0-2.8,0-.4.1-.9.3-1.3.1-.4.2-.9.3-1.3.2-.8,0-1.5-.4-2.2-.6-1-1.4-1.7-2.6-1.9-2-.4-3.9,1-4.3,2.9,0,.3,0,.6-.1.9,0,.7-.2,1.3-.5,1.9,0,.1,0,.2,0,.3.1,0,.3.1.4.2,0,0,.1,0,.1.1,0,.2,0,.5.1.7,0,.3.1.6.2,1,0,.3.3.5.6.5.5,0,.9,0,1.4-.1.4-.1.8-.3,1.1-.6,0,0,0,0,0,0,0,.3,0,.5,0,.8,0,.4-.1.8-.2,1.2,0,0,0,0,0,0,0,0,0,0,0,0,0-.4.1-.7.2-1.1,0-.3,0-.5,0-.8Z"/>
                <path class="cls-3" d="M11.9,15.9h0c0-.1,0-.1,0-.1,0,0,0,0,0,0,0,0,0-.2,0-.3,0-.3,0-.5,0-.8,0-.7,0-1.4,0-2.1,0-.4.1-.8.2-1.2v-.3c.2-.4.3-.8.4-1.1.1-.7,0-1.4-.4-2.2-.6-1-1.4-1.6-2.6-1.8-.9-.2-1.9,0-2.7.6-.8.5-1.3,1.4-1.5,2.3,0,.2,0,.4,0,.7,0,0,0,.2,0,.3,0,.7-.2,1.3-.5,1.9,0,.1,0,.2,0,.2.1,0,.2.1.4.2,0,0,.1,0,.2.2,0,0,0,.2,0,.3,0,.1,0,.3,0,.4,0,.3.1.6.2.9h0c0,.3.2.5.6.5.4,0,.8,0,1.4-.1.5-.1.8-.3,1.1-.6,0,0,0,0,.1,0,0,0,0,0,0,.1,0,.3,0,.6,0,.8,0,.3-.1.6-.2.9v.2c0,0,0,0,0,0,0,0,0,0,0,0h0c0,0,0,0,0,0,0,0,0,0,0,0,0,0,0,0,0,0,0-.1,0-.3,0-.4,0-.2,0-.4.1-.6,0-.2,0-.4,0-.7-.5.3-1,.5-1.6.7-.4,0-.8,0-1.1,0-.3,0-.5-.3-.5-.5,0-.4-.2-.7-.2-1.1,0-.2,0-.3,0-.5h0c0-.2,0-.2,0-.2-.2,0-.4,0-.5-.2-.1-.1-.1-.3,0-.4.3-.7.5-1.4.5-2.2,0-.8.3-1.6.8-2.2.6-.8,1.5-1.3,2.5-1.5,1.2-.2,2.2.1,3.1.9.7.6,1.2,1.4,1.3,2.4,0,.5,0,.9-.1,1.5,0,.2,0,.3-.1.5,0,.3-.2.6-.2.9,0,.2,0,.5-.1.8,0,.7,0,1.3,0,2,0,.3,0,.5,0,.8,0,0,0,0,0,0,0,0,0,0,0,.1,0,0,0,0,0,0,0,0,0,0,0,0h0Z"/>
              </g>
              <g>
                <path class="cls-3" d="M6.9,9.9c.1,0,.2,0,.4,0,0,0,0,0,0,0,0,0,0,0,0,0,0,0,0,0,0,0-.2,0-.3,0-.5,0,0,0,0,0,0,0,0-.3,0-.6,0-.9,0-.2,0-.4,0-.6,0,0,0-.1.1-.1.4,0,.8,0,1.2,0,.8,0,1.6,0,2.4,0,0,0,.1,0,.1.1,0,.5,0,1,0,1.5,0,0,0,.1-.1.1-.6,0-1.1,0-1.7,0,0,0,0,0,0,0,0,0,0,0,0,0,0,0,0,0,0,0,0,0,0,0,0,0,.5,0,1,0,1.6,0,0,0,0,0,0,0v-1.5h-3.6v1.5Z"/>
                <path class="cls-3" d="M10.5,10.1h0c-.4,0-.8,0-1.3,0h-.4s0,0,0,0c0,0,0,0,0,0,0,0,0,0,0,0,0,0,0,0,0,0h0s0,0,0,0c0,0,0,0,0,0,0,0,0,0,0,0,0,0,0,0,0,0,0,0,0,0,0,0h1.6v-1.4h-3.5v1.4h.3s0,0,0,0c0,0,0,0,0,0,0,0,0,0,0,0,0,0,0,0,0,0h0c0,0,0,0,0,0,0,0,0,0,0,0,0,0,0,0,0,0-.1,0-.3,0-.4,0h0s0,0,0,0c0,0,0,0,0-.1h0c0-.3,0-.5,0-.7v-.2c0,0,0-.1,0-.2,0-.1,0-.3,0-.4,0,0,0,0,0-.1,0,0,0,0,.1,0,.3,0,.6,0,.9,0h.3s.5,0,.5,0c.6,0,1.2,0,1.8,0,0,0,.1,0,.1,0,0,0,0,0,0,.1,0,.5,0,1,0,1.5,0,0,0,0,0,.1,0,0,0,0-.1,0Z"/>
              </g>
              <rect class="cls-3" x="7" y="8.4" width="3.6" height="1.7"/>
            </g>
          </g>
          <rect class="cls-3" x="11" y="8.2" width=".3" height="1.8"/>
        </g>
      </g>
    </g>
  </g>
</svg>