<svg width="16" height="16" viewBox="0 0 16 16" fill="none" xmlns="http://www.w3.org/2000/svg">
<path d="M8.93936e-07 8.00191C0.000437492 6.25373 0.573493 4.55382 1.63152 3.16217C2.68955 1.77051 4.1743 0.763732 5.85869 0.295809C7.54308 -0.172115 9.33438 -0.0754208 10.9586 0.571101C12.5828 1.21762 13.9506 2.37838 14.8527 3.87584C15.7547 5.3733 16.1415 7.12502 15.9537 8.86309C15.766 10.6012 15.0141 12.2299 13.813 13.5002C12.612 14.7704 11.0279 15.6123 9.30306 15.8971C7.57823 16.1818 5.80761 15.8937 4.262 15.0769L0.622001 15.9869C0.538226 16.008 0.450426 16.007 0.367156 15.984C0.283886 15.961 0.207987 15.9169 0.146856 15.8558C0.0857261 15.7948 0.0414494 15.719 0.0183415 15.6358C-0.00476649 15.5525 -0.00591733 15.4647 0.015001 15.3809L0.925001 11.7399C0.316917 10.5878 -0.000614893 9.30464 8.93936e-07 8.00191ZM7.25 5.30891C7.403 5.13591 7.64 5.00191 8 5.00191C8.36 5.00191 8.597 5.13591 8.75 5.30891C8.911 5.49291 9 5.74691 9 6.00191C9 6.31891 8.929 6.52491 8.834 6.68691C8.733 6.86091 8.598 7.00091 8.411 7.19691L8.389 7.22091C8.2 7.41791 7.968 7.66491 7.791 8.00191C7.611 8.34791 7.5 8.76291 7.5 9.29491C7.5 9.42752 7.55268 9.5547 7.64645 9.64846C7.74022 9.74223 7.86739 9.79491 8 9.79491C8.13261 9.79491 8.25979 9.74223 8.35355 9.64846C8.44732 9.5547 8.5 9.42752 8.5 9.29491C8.5 8.91091 8.577 8.65691 8.677 8.46591C8.782 8.26591 8.925 8.10691 9.111 7.91191L9.153 7.86891C9.323 7.69191 9.535 7.47091 9.698 7.19091C9.884 6.87091 10 6.49091 10 6.00191C10 5.52891 9.839 5.03191 9.5 4.64791C9.153 4.25391 8.64 4.00191 8 4.00191C7.36 4.00191 6.847 4.25391 6.5 4.64791C6.16 5.03291 6 5.52791 6 6.00191C6 6.13452 6.05268 6.2617 6.14645 6.35546C6.24022 6.44923 6.36739 6.50191 6.5 6.50191C6.63261 6.50191 6.75979 6.44923 6.85355 6.35546C6.94732 6.2617 7 6.13452 7 6.00191C7 5.74691 7.089 5.49191 7.25 5.30891ZM8.7 11.5149C8.7 11.3293 8.62625 11.1512 8.49498 11.0199C8.3637 10.8887 8.18565 10.8149 8 10.8149C7.81435 10.8149 7.6363 10.8887 7.50503 11.0199C7.37375 11.1512 7.3 11.3293 7.3 11.5149C7.3 11.7006 7.37375 11.8786 7.50503 12.0099C7.6363 12.1412 7.81435 12.2149 8 12.2149C8.18565 12.2149 8.3637 12.1412 8.49498 12.0099C8.62625 11.8786 8.7 11.7006 8.7 11.5149Z" fill="#09CE87"/>
</svg>
