<svg width="18" height="12" viewBox="0 0 18 12" fill="none" xmlns="http://www.w3.org/2000/svg">
<path fill-rule="evenodd" clip-rule="evenodd" d="M3.16406 0.164062C2.50102 0.164062 1.86514 0.427455 1.3963 0.896296C0.927455 1.36514 0.664063 2.00102 0.664062 2.66406V9.33073C0.664063 9.99377 0.927455 10.6297 1.3963 11.0985C1.86514 11.5673 2.50102 11.8307 3.16406 11.8307H11.4974C12.1604 11.8307 12.7963 11.5673 13.2652 11.0985C13.734 10.6297 13.9974 9.99377 13.9974 9.33073V8.00906L15.9082 9.9199C16.0248 10.0364 16.1732 10.1157 16.3349 10.1479C16.4965 10.18 16.664 10.1635 16.8163 10.1005C16.9685 10.0374 17.0987 9.93062 17.1902 9.79361C17.2818 9.6566 17.3307 9.49552 17.3307 9.33073V2.66406C17.3307 2.49927 17.2818 2.33819 17.1902 2.20118C17.0987 2.06417 16.9685 1.95739 16.8163 1.89433C16.664 1.83127 16.4965 1.81477 16.3349 1.84691C16.1732 1.87905 16.0248 1.95839 15.9082 2.0749L13.9974 3.98573V2.66406C13.9974 2.00102 13.734 1.36514 13.2652 0.896296C12.7963 0.427455 12.1604 0.164062 11.4974 0.164062H3.16406Z" fill="#09CE87"/>
</svg>
