<svg xmlns="http://www.w3.org/2000/svg" width="289.797" height="96.848" viewBox="0 0 289.797 96.848">
  <g id="logo" transform="translate(0)">
    <path id="Path_1" data-name="Path 1" d="M4226.411-64.816a48.427,48.427,0,0,1,48.437,48.442,48.425,48.425,0,0,1-48.437,48.406,48.421,48.421,0,0,1-48.419-48.414v0a48.424,48.424,0,0,1,48.427-48.431Z" transform="translate(-4177.992 64.816)"/>
    <g id="Group_1" data-name="Group 1" transform="translate(113.704 17.388)">
      <path id="Path_2" data-name="Path 2" d="M4265.733-6.672a21.857,21.857,0,0,1-10.662-2.5,18.065,18.065,0,0,1-7.115-6.866,19.538,19.538,0,0,1-2.542-10.015,21.029,21.029,0,0,1,2.467-10.34,18.4,18.4,0,0,1,6.8-7.047,19.12,19.12,0,0,1,9.979-2.575,17.118,17.118,0,0,1,15.42,9.16,19.112,19.112,0,0,1,2.11,9.659l-.07,3.075h-27.192a10.211,10.211,0,0,0,3.9,6.441,12.717,12.717,0,0,0,7.908,2.361,13.321,13.321,0,0,0,4.686-.788,16.279,16.279,0,0,0,4.54-2.791l4.722,6.577a22.059,22.059,0,0,1-7.049,4.184A22.692,22.692,0,0,1,4265.733-6.672Zm-1-30.9q-8.095,0-9.733,7.3h17.889v-.287a7,7,0,0,0-2.54-5.045,8.433,8.433,0,0,0-5.613-1.965Z" transform="translate(-4245.409 60.331)"/>
      <path id="Path_3" data-name="Path 3" d="M4285.235-6.71a23.771,23.771,0,0,1-9.3-1.719,16.281,16.281,0,0,1-6.58-4.864l6.15-5.223a12.634,12.634,0,0,0,4.866,3.4,15.336,15.336,0,0,0,5.51,1.036,5.892,5.892,0,0,0,3.577-1,3.276,3.276,0,0,0,1.364-2.789,2.936,2.936,0,0,0-1.292-2.5,25.574,25.574,0,0,0-6.153-2.145q-7.223-1.855-10.228-5.082a10.046,10.046,0,0,1-2.645-7.083,9.247,9.247,0,0,1,2.006-5.9,13.333,13.333,0,0,1,5.293-3.97,17.714,17.714,0,0,1,7.155-1.433,22.322,22.322,0,0,1,8.368,1.575,18.755,18.755,0,0,1,6.578,4.294l-5.291,5.793a18.621,18.621,0,0,0-4.619-3.113,11.255,11.255,0,0,0-4.827-1.25q-5.15,0-5.153,3.575a3.286,3.286,0,0,0,1.579,2.719,24.791,24.791,0,0,0,6.508,2.361,20.351,20.351,0,0,1,9.587,4.722,9.156,9.156,0,0,1,2.433,6.653,10.257,10.257,0,0,1-1.969,6.152,13.179,13.179,0,0,1-5.328,4.257,18.065,18.065,0,0,1-7.588,1.54Z" transform="translate(-4228.969 60.352)"/>
      <path id="Path_4" data-name="Path 4" d="M4306.834-6.705a14.8,14.8,0,0,1-8.512-2.575,18.26,18.26,0,0,1-6.044-7.011,23.949,23.949,0,0,1,0-20.282,17.482,17.482,0,0,1,6.151-6.9,16,16,0,0,1,8.834-2.5,14.623,14.623,0,0,1,7.014,1.611,13.442,13.442,0,0,1,4.793,4.184V-45.2h9.733V-7.417h-9.806V-12.5a15.811,15.811,0,0,1-5.191,4.149A14.935,14.935,0,0,1,4306.834-6.705Zm2.647-8.515a9.012,9.012,0,0,0,7.084-3.076,13.381,13.381,0,0,0,0-16.169,9.025,9.025,0,0,0-7.084-3.076,8.836,8.836,0,0,0-6.978,3.076,13.526,13.526,0,0,0,0,16.169,8.818,8.818,0,0,0,6.979,3.084Z" transform="translate(-4214.781 60.356)"/>
      <path id="Path_5" data-name="Path 5" d="M4333.255-6.705a14.786,14.786,0,0,1-8.512-2.575,18.294,18.294,0,0,1-6.046-7.011,23.937,23.937,0,0,1,0-20.282,17.488,17.488,0,0,1,6.152-6.9,16,16,0,0,1,8.833-2.5,14.614,14.614,0,0,1,7.014,1.611,13.406,13.406,0,0,1,4.791,4.184V-45.2h9.731V-7.417h-9.8V-12.5a15.825,15.825,0,0,1-5.189,4.149,14.942,14.942,0,0,1-6.974,1.646Zm2.647-8.515a9,9,0,0,0,7.083-3.076,13.382,13.382,0,0,0,0-16.169,9.018,9.018,0,0,0-7.083-3.076,8.825,8.825,0,0,0-6.977,3.076,13.521,13.521,0,0,0,0,16.169,8.813,8.813,0,0,0,6.978,3.084Z" transform="translate(-4196.642 60.356)"/>
      <path id="Path_6" data-name="Path 6" d="M4344.05-1.564V-54.506h9.729V-1.564Z" transform="translate(-4177.687 54.506)"/>
    </g>
    <g id="Group_2" data-name="Group 2" transform="translate(66.416 28.489)">
      <path id="Path_7" data-name="Path 7" d="M4225.443-42.025a4.464,4.464,0,0,1-4.471,4.452,4.457,4.457,0,0,1-4.451-4.452,4.473,4.473,0,0,1,4.45-4.469,4.477,4.477,0,0,1,4.471,4.469Z" transform="translate(-4216.521 46.494)" fill="#fff"/>
    </g>
    <path id="Path_8" data-name="Path 8" d="M4231.346-29.608a2.024,2.024,0,0,1-1.638.826,1.961,1.961,0,0,1-.993-.27l-5.92-3.322-5.9,3.322a1.97,1.97,0,0,1-.994.27,2.015,2.015,0,0,1-1.638-.826,2.036,2.036,0,0,1-.37-1.507,2.025,2.025,0,0,1,.806-1.326l6.731-4.958,1.368-1.012,1.382,1.012,6.73,4.958a2.041,2.041,0,0,1,.439,2.834Z" transform="translate(-4151.928 80.532)" fill="#fffdee"/>
    <path id="Path_9" data-name="Path 9" d="M4241.49-16.975a2.038,2.038,0,0,0-1.562-.045,2.031,2.031,0,0,0-1.136,1.074h0l-.037.079a18.519,18.519,0,0,1-2.076,3.542,16.2,16.2,0,0,1-6.2,4.891,18.721,18.721,0,0,1-3.71,1.18,18.96,18.96,0,0,1-3.868.312c-.643.024-1.3-.093-1.94-.121l-.887-.148-.872-.207a14.8,14.8,0,0,1-6.157-3.488,24.14,24.14,0,0,1-6.843-12.043c.146,0,.288.022.43.03a43.48,43.48,0,0,0,10.047-.57,21.433,21.433,0,0,0,5.229-1.724,15.659,15.659,0,0,0,4.824-3.641,14.749,14.749,0,0,0,3.037-5.52,15.254,15.254,0,0,0,.6-3.23,11.914,11.914,0,0,0-.338-3.515,10.539,10.539,0,0,0-3.958-5.763,14.021,14.021,0,0,0-5.733-2.393,22.493,22.493,0,0,0-5.669-.356,17.849,17.849,0,0,0-2.8.379c-.455.091-.947.233-1.369.354l-1.243.378a20.766,20.766,0,0,0-9.543,6.321,25.459,25.459,0,0,0-5.06,9.963,28.392,28.392,0,0,0-.842,4.42,34.781,34.781,0,0,1-5.105-1.3h-.019c-.023-.01-.048-.015-.072-.024a1.609,1.609,0,0,0-1.223.135,1.608,1.608,0,0,0-.768.96,1.6,1.6,0,0,0,.135,1.222,1.6,1.6,0,0,0,.959.768c1.992.58,3.975,1.046,5.969,1.455a22.929,22.929,0,0,0,.433,3.92,28.1,28.1,0,0,0,12.935,18.2,25.416,25.416,0,0,0,10.861,3.567c.481.035.96.049,1.439.069l1.434-.032c.909-.089,1.8-.1,2.7-.272a26.668,26.668,0,0,0,5.271-1.321,25.415,25.415,0,0,0,4.833-2.459,23.176,23.176,0,0,0,4.079-3.483,21.04,21.04,0,0,0,4.945-9.168,2.04,2.04,0,0,0-1.128-2.393Zm-35.845-12.143a28.59,28.59,0,0,1,1.629-7.276,10.128,10.128,0,0,1,4.229-5.734l.921-.459a7.858,7.858,0,0,1,.843-.337,7.312,7.312,0,0,1,1.785-.357,6.335,6.335,0,0,1,3.508.714,5.186,5.186,0,0,1,2.888,4.366c.025.337.035.7.035,1.1a7.392,7.392,0,0,1-.182,1.349,8.925,8.925,0,0,1-1.087,2.739,12.283,12.283,0,0,1-5.42,4.439,26.37,26.37,0,0,1-8.288,2.223c-.3.035-.595.049-.891.076a24.914,24.914,0,0,1,.023-2.845Z" transform="translate(-4170.675 73.484)" fill="#fffdee"/>
  </g>
</svg>
