<svg xmlns="http://www.w3.org/2000/svg" width="114.467" height="157.801" viewBox="0 0 114.467 157.801">
  <g id="Group_18036" transform="translate(-155.682 -35.591)">
    <g id="Group_18024" transform="translate(147.964 31.973) rotate(-4.012)">
      <g id="Group_18022" transform="translate(1.014 11.033)">
        <path id="Path_59978" d="M26.118,61.969h0a1.326,1.326,0,0,1-.506-.517,3.3,3.3,0,0,1-.278-1.411l-.01-.219c-.081-1.017-.215-2.094-.412-3.306-.194-1.175-.4-2.432-.64-3.669a32.913,32.913,0,0,0-.913-3.4c-.5-1.334-1.061-2.672-1.745-4.091-.43-.831-.879-1.617-1.372-2.382-.07-.112-.143-.224-.215-.335l.02.028.029.043-.027-.041.03.04-.5-.738c-.492-.742-1-1.507-1.534-2.243-.429-.595-.87-1.176-1.343-1.735-.209-.232-.419-.462-.632-.69h0c-.438-.471-.9-.956-1.421-1.486l-.582-.592c-.5-.514-1.007-1.028-1.519-1.533-.409-.4-.838-.794-1.249-1.173-.308-.284-.615-.566-.918-.855-.228-.215-.452-.431-.68-.646-.5-.48-1-.957-1.508-1.424-.311-.267-.627-.53-.943-.79-.6-.491-1.212-1-1.775-1.55-.355-.347-.7-.714-1.041-1.069-.452-.476-.921-.97-1.41-1.422-.2-.162-.4-.317-.6-.469s-.389-.295-.577-.45l-.234-.183c-.118-.09-.24-.18-.35-.279a1.987,1.987,0,0,1-1.2-1.534,5.219,5.219,0,0,1-.038-.776v-.2c0-.322,0-.649,0-.973,0-.61-.027-1.221-.052-1.843l-.012-.3c-.043-1.169-.086-2.377-.035-3.565A71.433,71.433,0,0,1,.54,6.7h0c.013-.094.029-.186.044-.277.17-1.077.333-2.154.5-3.23.08-.509.148-1.018.258-1.515.052-.236.109-.465.176-.7a1.522,1.522,0,0,1,.306-.62A.5.5,0,0,1,2.242.2,1.528,1.528,0,0,1,2.806,0,1.591,1.591,0,0,1,4.594,1.4c.007.054.009.108.011.162A7.1,7.1,0,0,1,4.5,2.681q-.081.626-.155,1.251c-.1.849-.169,1.7-.24,2.552-.024.291-.05.585-.074.875h0C3.921,8.723,3.8,10.131,3.7,11.518q-.036.839-.052,1.678c.053.534.112,1.164.152,1.792.068,1.009.1,2.034.136,3.03l.01.335c.041,1.145.047,2.176.015,3.153a2.117,2.117,0,0,1-.1.636q.255.151.5.318a17.812,17.812,0,0,1,2.1,1.733l.451.41.131.115c.651.563,1.353,1.087,2.032,1.591l.271.2c.842.63,1.64,1.328,2.427,2.02.392.347.791.687,1.193,1.026.606.513,1.232,1.045,1.822,1.6,1,.939,1.981,1.921,2.816,2.767a34.225,34.225,0,0,1,2.683,2.993c.562.724,1.088,1.5,1.6,2.254.2.3.408.608.613.9a30.332,30.332,0,0,1,2.134,3.569,33.791,33.791,0,0,1,1.607,3.728,24.445,24.445,0,0,1,1.078,4.053c.217,1.21.37,2.451.521,3.651l.03.261c.183,1.446.309,2.745.391,3.972.018.24.041.479.067.722a3.289,3.289,0,0,1,.012.842,1.59,1.59,0,0,1-.657,1.065,1.449,1.449,0,0,1-.8.249A1.551,1.551,0,0,1,26.118,61.969Z" transform="translate(81.663 89.169)"/>
        <path id="Path_64792" d="M26.1,101.548s-5.393,1.415-6.357-1.708c0,0-4.252,5.14-7.747-.088,0,0-5.32,6.684-7.229-.082S-6.724,38.326,6.725,15.134,68.131-4.4,79.913,22.189s3.365,77.852-3.948,81.4-7.2-1.64-7.2-1.64c-4.323,8.253-5.163-.059-5.163-.059,1.813-11.391,1.9-37.848,1.9-37.848,10.8,2.2,11.462-4.018,11.462-4.018C78.244,49.661,65.3,51.072,65.3,51.072,64.66,33.946,54.777,14.637,54.777,14.637S45.962,38.408,23.792,36.6c0,0,3.146-2.041,3.7-3.589,0,0-14.1,6.775-19.764,5.839,0,0-.826,31.279-.8,32.317s-.464,22.3,19.15,23.041Z" transform="translate(13.39 -0.158)"/>
        <g id="Group_18019" transform="translate(12.675 14.386) rotate(0.974)">
          <path id="Path_64530" d="M8.292-.047S0,0-.049,7.766l-.065,10.35s1.507,7.757,9.279,7.712,17.093.936,17.679-9.931S24.348-.14,15.025-.086L8.292-.048Z" transform="translate(36.1 27.221)" fill="none" stroke="#000" stroke-linecap="round" stroke-linejoin="round" stroke-width="1.5"/>
          <path id="Path_64531" d="M-.006.921a15.591,15.591,0,0,1,11.923.494" transform="translate(24.472 31.135)" fill="none" stroke="#000" stroke-linecap="round" stroke-linejoin="round" stroke-width="1.5"/>
          <path id="Ellipse_3568" d="M4.93-.026C7.653-.041,9.854,1.1,9.845,2.531S7.623,5.126,4.9,5.141-.024,4.011-.015,2.584,2.207-.012,4.93-.026Z" transform="matrix(-0.99, 0.142, -0.142, -0.99, 51.897, 37.802)" fill="none" stroke="#000" stroke-linecap="round" stroke-width="1.5"/>
          <path id="Ellipse_3569" d="M2.6.015C4.03.023,5.2,2.227,5.218,4.937s-1.137,4.9-2.57,4.892S.04,7.617.026,4.907,1.162.007,2.6.015Z" transform="translate(21.534 34.37) rotate(105.094)" fill="none" stroke="#000" stroke-linecap="round" stroke-width="1.5"/>
          <path id="Ellipse_3570" d="M3.109-.018c1.717-.01,3.1,1.952,3.081,4.381S4.771,8.77,3.054,8.78-.043,6.829-.028,4.4,1.392-.008,3.109-.018Z" transform="translate(32.753 65.022) rotate(180)" fill="#c93957"/>
          <path id="Path_64532" d="M7.772-.044S6.2,3.069,3.086,3.087A3,3,0,0,1,0,.127C0,.084,0,.042,0,0" transform="translate(26.061 58.334)" fill="none" stroke="#000" stroke-linecap="round" stroke-linejoin="round" stroke-width="1.5"/>
          <path id="Path_64533" d="M2.592-.015A4.523,4.523,0,0,0-.025,4.142C-.051,8.282,6.71,4.1,6.71,4.1" transform="translate(26.206 43.325)" fill="none" stroke="#000" stroke-linecap="round" stroke-linejoin="round" stroke-width="1.5"/>
          <path id="Ellipse_3571" d="M2.073-.012A2.18,2.18,0,0,1,4.131,2.3,2.244,2.244,0,0,1,2.044,4.645,2.18,2.18,0,0,1-.015,2.329,2.244,2.244,0,0,1,2.073-.012Z" transform="translate(19.245 38.453) rotate(180)"/>
          <path id="Ellipse_3572" d="M1.814-.01a2.09,2.09,0,0,1,1.8,2.318A2.151,2.151,0,0,1,1.785,4.647a2.09,2.09,0,0,1-1.8-2.318A2.151,2.151,0,0,1,1.814-.01Z" transform="translate(49.817 38.277) rotate(180)"/>
          <path id="Path_64535" d="M1.637-.009S-.451,2.589.051,5.175" transform="translate(41.152 43.24)" fill="none" stroke="#000" stroke-linecap="round" stroke-linejoin="round" stroke-width="1.5"/>
          <path id="Path_64536" d="M1.146-.007S-.426,2.589.078,4.139" transform="translate(45.264 44.251)" fill="none" stroke="#000" stroke-linecap="round" stroke-linejoin="round" stroke-width="1.5"/>
          <path id="Path_64537" d="M.662,0S-.389,2.589.119,4.139" transform="translate(49.375 44.228)" fill="none" stroke="#000" stroke-linecap="round" stroke-linejoin="round" stroke-width="1.5"/>
          <path id="Path_64538" d="M1.146-.007S-.426,2.589.078,4.141" transform="translate(12.11 43.406)" fill="none" stroke="#000" stroke-linecap="round" stroke-linejoin="round" stroke-width="1.5"/>
          <path id="Path_64539" d="M1.035-.006A15.17,15.17,0,0,0-.026,4.142" transform="translate(15.327 43.388)" fill="none" stroke="#000" stroke-linecap="round" stroke-linejoin="round" stroke-width="1.5"/>
          <path id="Path_64540" d="M1.035-.006A6.617,6.617,0,0,0-.019,3.106" transform="translate(18.43 44.405)" fill="none" stroke="#000" stroke-linecap="round" stroke-linejoin="round" stroke-width="1.5"/>
          <path id="Path_64541" d="M4.145-.024S2.563,4.646-.039,6.21" transform="translate(36.305 2.895)" fill="none" stroke="#fff" stroke-linecap="round" stroke-linejoin="round" stroke-width="1.5"/>
          <path id="Path_64542" d="M10.365-.06S6.691,7.208-.071,11.385" transform="translate(24.409 -0.14)" fill="none" stroke="#fff" stroke-linecap="round" stroke-linejoin="round" stroke-width="1.5"/>
          <path id="Path_64543" d="M4.145-.024A26.34,26.34,0,0,1-.026,4.139" transform="translate(20.251 1.957)" fill="none" stroke="#fff" stroke-linecap="round" stroke-linejoin="round" stroke-width="1.5"/>
          <path id="Path_64544" d="M0,0S3.583,7.225,3.56,10.85" transform="translate(68.368 13.066)" fill="none" stroke="#fff" stroke-linecap="round" stroke-linejoin="round" stroke-width="1.5"/>
          <path id="Path_64545" d="M-.027,4.308S9.879-6.1,17.065,5.247" transform="translate(39.323 17.721)" fill="none" stroke="#000" stroke-linecap="round" stroke-linejoin="round" stroke-width="1.5"/>
          <path id="Path_64546" d="M24.82,7.852S24.352.09,18.652.123,7.772-.332,5.179.2-.024,3.851-.05,7.994l-.068,10.87s-.036,5.694,5.664,5.662l14.508-.083s4.673-1.064,4.722-8.827Z" transform="translate(-0.17 27.202)" fill="none" stroke="#000" stroke-linecap="round" stroke-linejoin="round" stroke-width="1.5"/>
          <path id="Path_64547" d="M3.965,13.926s12.322,2.641,11.11-6.21C13.9-.876,4.138,1.011,4.138,1.011L0,0" transform="translate(62.537 34.318)" fill="none" stroke="#000" stroke-linecap="round" stroke-linejoin="round" stroke-width="1.5"/>
        </g>
        <path id="Path_59980" d="M42.025,6.491,40.817,6.5c-2.228.012-4.474-.051-6.579-.117-1.849-.056-3.726-.153-5.539-.247l-.98-.05-1.046-.052c-1.776-.086-3.611-.181-5.416-.309-2.027-.144-4.147-.37-6.3-.674-1.266-.176-2.241-.324-3.157-.477l-.182-.031c-.5-.084-1.006-.167-1.505-.259l-.36-.065c-.407-.071-.823-.145-1.222-.236-.47-.106-.941-.217-1.409-.336-.328-.084-.661-.188-.985-.287l-.251-.077c-.975-.294-1.923-.614-2.635-.858A18.817,18.817,0,0,1,.993,1.514h0L.9,1.469a3.282,3.282,0,0,1-.517-.328A.883.883,0,0,1,0,.624.538.538,0,0,1,.223.108a.69.69,0,0,1,.491-.1h0A.58.58,0,0,1,1.247.28c.159.064.323.124.488.18.142.043.282.085.424.126h0c.822.234,1.67.428,2.489.616l.6.139.632.149q.6.144,1.212.28c.522.113,1.037.215,1.527.3l.313.058h-.01c2.147.333,4.316.613,6.343.865l.428.053c1.952.244,3.972.5,5.966.668,3.294.279,6.657.458,9.818.617,2.725.124,5.573.174,8.7.158,1.362-.007,2.753-.027,4.259-.06,1.925-.043,3.875-.179,5.767-.312l.722-.05c1.214-.085,2.448-.136,3.641-.183.9-.037,1.835-.075,2.753-.126q1-.059,2-.131l.612-.049c.2-.017.408-.034.62-.054l.1-.008h-.016l-.067.009c1.111-.088,2.154-.146,3.19-.175l.714-.02c.742-.018,1.508-.038,2.26-.089.938-.081,1.889-.184,2.807-.282.51-.054,1.014-.109,1.521-.16l.479-.048c.57-.056,1.16-.114,1.734-.192.7-.1,1.412-.213,2.184-.363l.707-.157c.653-.144,1.327-.294,1.991-.414a20.65,20.65,0,0,1,2.187-.238,2.961,2.961,0,0,0,.314-.038c.075-.018.15-.041.223-.067l.306-.1a4.778,4.778,0,0,1,.743-.166,1.448,1.448,0,0,1,1.652,1.152A1.389,1.389,0,0,1,82.9,3.546h0a1.438,1.438,0,0,1-.556.194c-.092.012-.182.028-.276.046-.132.031-.258.066-.387.1a4.916,4.916,0,0,1-.76.172,7.119,7.119,0,0,1-.733.044h-.1c-.3.008-.6.025-.9.046-.724.064-1.457.159-2.239.292l-.612.106c-.57.1-1.161.2-1.743.279-1.31.175-2.652.27-3.951.365-.306.021-.607.045-.909.07l-.212.015h0l.082-.007-.082.006.082-.01-.5.04h0l-1.18.094h-.056c-.1.007-.2.014-.3.023h.012c-.7.053-1.317.092-1.88.116-.4.019-.8.024-1.189.027l-.417,0c-1.086.019-2.2.067-3.31.143h-.132l-.386.031h-.043c-.981.077-2.027.154-3.076.2-1.122.048-2.243.08-3.3.113-1.315.037-2.651.11-3.937.183-.834.046-1.669.093-2.5.129-1.355.059-2.4.091-3.379.1l-1.008.005Z" transform="translate(16.876 125.116)"/>
        <path id="Path_59999" d="M102.819,23.536c-.86-.056-1.718-.125-2.575-.192-.958-.077-1.946-.155-2.923-.212-2.143-.128-3.781-.184-5.3-.179l-.443,0c-1.825.01-3.467.046-5.025.11l-1.6.066c-1.332.056-2.665.114-4,.155-.885.027-1.77.062-2.654.094s-1.771.066-2.656.095c-.594.017-1.188.027-1.78.03-.961.005-1.921,0-2.882-.015l-.75-.007c-1.741-.017-4.036-.032-6.356-.019-1.7.01-3.256.033-4.738.073-1.657.042-3.343.106-4.973.164-1.94.07-3.943.142-5.915.187q-1.235.024-2.472.031-1.378.008-2.757,0c-1.521-.011-3.154-.063-5.3-.169l-.929-.051c-1.351-.074-2.7-.148-4.052-.21-.95-.044-1.9-.082-2.855-.122l-2.009-.083c-1.424-.075-2.837-.164-4.257-.253-2.645-.164-9.333-.313-12.023-.386q-.926-.026-1.855-.046c-1.147-.028-2.293-.053-3.442-.1q-1.613-.061-3.226-.135-1.185-.052-2.37-.1l-.407-.016-.436-.013c.039-.289.087-.575.14-.858a23.84,23.84,0,0,1,.741-2.469c.131-.379.258-.758.378-1.141.162-.524.312-1.06.451-1.58.189-.689.383-1.4.617-2.088.327-.875.706-1.762,1.128-2.641.6-1.041,1.257-2.088,2.006-3.2l.049-.071c.235-.338.476-.686.738-1.01.287-.354.558-.678.831-.99.6-.621,1.238-1.221,1.854-1.8.466-.438.946-.888,1.4-1.346.183-.18.361-.359.542-.541.334-.336.666-.671,1.008-1,.443-.426,4.89-.894,5.529-1.468l.046-.041.044-.037L17.426-.1a18.3,18.3,0,0,0,2.247.946c.711.255,1.659.588,2.622.894l.25.081c.322.1.653.211.983.3.468.125.938.24,1.407.35.406.1.819.173,1.22.246l.36.067c.5.1,1,.183,1.5.27l.182.032c.915.159,1.892.313,3.151.5,2.152.316,4.27.552,6.293.7,1.8.134,3.635.23,5.405.322l1.048.054.979.052c1.81.1,3.682.2,5.529.257,2.1.069,4.344.134,6.569.121l2.212-.012,1-.006c.98-.01,2.021-.044,3.374-.1.832-.038,1.667-.087,2.5-.134,1.287-.075,2.62-.153,3.932-.191,1.052-.029,2.178-.063,3.294-.118,1.048-.045,2.091-.125,3.072-.206H76.6l.386-.032h.131c1.111-.077,2.221-.129,3.3-.148l.416,0c.4,0,.794,0,1.187-.028.563-.026,1.177-.066,1.876-.121h-.011c.1-.009.2-.018.3-.024h.054l1.176-.1h0l.5-.042-.157.007c.4-.04.8-.071,1.2-.1,1.3-.1,2.636-.2,3.946-.38.583-.079,1.169-.187,1.738-.291l.611-.111c.779-.139,1.513-.238,2.235-.3.3-.02.6-.039.9-.048h.1a7.325,7.325,0,0,0,.732-.046,4.737,4.737,0,0,0,.758-.179c.129-.039.258-.077.389-.108.093-.018.184-.034.275-.047a1.378,1.378,0,0,0,.552-.2c.544.726,1.065,1.481,1.566,2.213l.5.721-.068-.086-.068-.089a28.368,28.368,0,0,1,1.683,2.769c.691,1.39,1.267,2.7,1.762,4a30.844,30.844,0,0,1,.925,3.324c.239,1.211.452,2.441.647,3.591.2,1.186.334,2.245.414,3.235l.011.215a3.147,3.147,0,0,0,.282,1.385,1.334,1.334,0,0,0,.512.507h0C105.618,23.707,104.176,23.622,102.819,23.536Z" transform="translate(0.617 126.89)" fill="#c93957"/>
        <path id="Path_64791" d="M1.591,50.08h0a1.318,1.318,0,0,0,.623-.344,3,3,0,0,0,.629-1.211l.064-.193c.336-.9.741-1.847,1.241-2.9.488-1.018,1.01-2.108,1.554-3.17a30.269,30.269,0,0,1,1.751-2.856Q8.74,37.7,10.19,36.128c.628-.648,1.265-1.245,1.938-1.819.1-.08.2-.166.294-.249l-.027.02-.04.031.038-.03-.039.028.667-.546c.666-.551,1.357-1.116,2.062-1.653.567-.432,1.146-.851,1.746-1.239.262-.158.525-.315.79-.467h0c.545-.319,1.118-.643,1.759-.992l.717-.391c.617-.342,1.24-.682,1.866-1.012.5-.261,1.015-.51,1.511-.752.372-.18.743-.361,1.112-.55l.822-.415c.608-.309,1.216-.618,1.827-.916.37-.165.743-.324,1.118-.481.709-.3,1.432-.605,2.118-.963.434-.225,2.835-.483,3.254-.721.561-.32-.052-.341.539-.629.236-.1.471-.192.7-.276s.452-.17.675-.265c.092-.037.182-.072.274-.107.138-.053.278-.1.41-.166a1.954,1.954,0,0,0,1.555-1.093,4.789,4.789,0,0,0,.236-.695l.051-.185c.086-.293.169-.587.256-.88.158-.553.336-1.1.52-1.661l.087-.266c.34-1.051.687-2.135.941-3.227A63.193,63.193,0,0,0,41.284,6.6h0c.01-.089.019-.174.028-.263.11-1.024.225-2.037.339-3.056.052-.478.114-.96.134-1.438q.014-.339.006-.676a1.381,1.381,0,0,0-.139-.64A.507.507,0,0,0,41.288.28a1.549,1.549,0,0,0-.5-.326c-.895-.372-.686-.2-.96.658A6.256,6.256,0,0,0,39.65,1.66c-.055.392-.109.783-.169,1.173-.12.795-.267,1.587-.417,2.378-.05.271-.1.543-.151.813h0c-.241,1.265-.479,2.575-.74,3.858q-.177.771-.376,1.537c-.188.472-.406,1.027-.605,1.589-.322.9-.619,1.823-.9,2.717l-.1.3c-.331,1.029-.6,1.964-.818,2.861a1.878,1.878,0,0,0-.06.6c-.193.055-.382.1-.569.165-.862.266-3.658.674-4.456,1.058l-.545.26-.154.072c-.776.349-1.59.648-2.379.935L26.9,22.1c-.978.361-1.931.794-2.872,1.229-.468.217-.945.424-1.419.633-.719.314-1.462.639-2.176.993-1.211.6-2.415,1.246-3.442,1.806A33.757,33.757,0,0,0,13.619,28.8c-.731.517-1.44,1.094-2.125,1.65-.276.222-.55.445-.825.664a29.059,29.059,0,0,0-2.982,2.705,31.471,31.471,0,0,0-2.51,2.983A22.217,22.217,0,0,0,3.1,40.193c-.519,1.045-.983,2.133-1.435,3.185l-.1.23c-.546,1.265-1,2.415-1.392,3.508-.08.212-.163.425-.249.639a2.887,2.887,0,0,0-.225.761,1.447,1.447,0,0,0,.366,1.131,1.464,1.464,0,0,0,.352.28,1.59,1.59,0,0,0,.362.148A1.67,1.67,0,0,0,1.591,50.08Z" transform="translate(-0.602 97.902)"/>
      </g>
    </g>
  </g>
</svg>
