<svg xmlns="http://www.w3.org/2000/svg" width="142.579" height="180.973" viewBox="0 0 142.579 180.973">
  <g id="Group_18035" transform="translate(-122.663 -16.954)">
    <path id="Path_64795" d="M126.2,194.778c-1.261-2.659-2.6-41.236-2.6-41.236l9.443-6.5,13.51-6.2,17.34-2.795,23.382-.93,14.046-1.02,13.712-.675,16.169,2.887,16.831,9.124,13.524,16.015-1.326,28.5-58.977,2.827-3.618.279L187.275,196l-35.469,1.929S127.466,197.441,126.2,194.778Z" fill="#008278"/>
    <g id="Group_18028">
      <g id="Group_18023" transform="translate(17.141 19.611) rotate(-6.024)">
        <g id="Group_18018" transform="translate(-1.988 -0.21)">
          <path id="Path_63816" d="M171.183,58.767S143.511,50.029,124.091,51c0,0-17.953-9.793-14.958-18.526a3.1,3.1,0,0,1,5.093-1.31,8.789,8.789,0,0,1,2.1,3.816s-7.767-13.594.488-14.077c7.662-.449,6.31,7.28,6.31,7.28s0-13.591,9.225-9.708c0,0,2.428.486.485,6.8s15.051,8.256,23.79,8.256,31.072-.974,29.13,22.33-3.4,27.186-3.4,27.186H170.214S172.64,65.567,171.183,58.767Z" stroke="#000" stroke-linecap="round" stroke-linejoin="round" stroke-width="1.5"/>
          <path id="Path_63817" d="M138.17,68.966S127.976,86.929,130.888,91.3c0,0,2.912,3.876,8.253-1.46" fill="none" stroke="#000" stroke-linecap="round" stroke-linejoin="round" stroke-width="1.5"/>
          <path id="Path_63818" d="M145.454,99.061s-4.856,10.681-12.139,2.916" fill="none" stroke="#000" stroke-linecap="round" stroke-linejoin="round" stroke-width="1.5"/>
          <ellipse id="Ellipse_3333" cx="5.097" cy="3.156" rx="5.097" ry="3.156" transform="translate(133.8 75.277) rotate(180)" fill="none" stroke="#000" stroke-linecap="round" stroke-linejoin="round" stroke-width="1.5"/>
          <ellipse id="Ellipse_3334" cx="5.826" cy="3.156" rx="5.826" ry="3.156" transform="translate(157.104 75.277) rotate(180)" fill="none" stroke="#000" stroke-linecap="round" stroke-linejoin="round" stroke-width="1.5"/>
          <path id="Path_63819" d="M159.529,66.537s-12.139-5.343-14.077-5.343" fill="none" stroke="#000" stroke-linecap="round" stroke-linejoin="round" stroke-width="1.5"/>
          <path id="Path_63820" d="M134.772,60.228s-6.311,0-11.167,3.4" fill="none" stroke="#000" stroke-linecap="round" stroke-linejoin="round" stroke-width="1.5"/>
          <ellipse id="Ellipse_3335" cx="2.185" cy="1.942" rx="2.185" ry="1.942" transform="translate(154.191 74.788) rotate(180)"/>
          <ellipse id="Ellipse_3336" cx="2.185" cy="1.942" rx="2.185" ry="1.942" transform="translate(131.132 75.034) rotate(180)"/>
          <path id="Path_63827" d="M133.8,44.69s-7.282-.973-10.195-7.285" fill="none" stroke="#000" stroke-linecap="round" stroke-linejoin="round" stroke-width="1.5"/>
          <path id="Path_63828" d="M139.142,42.748s-7.284-.974-8.254-5.343" fill="none" stroke="#000" stroke-linecap="round" stroke-linejoin="round" stroke-width="1.5"/>
          <path id="Path_63830" d="M123.606,50.516s-6.753,37.165-4.856,48.548c1.938,11.654,4.855,20.874,17.478,19.9l-.172,14.867,38.441,1.92,2.513-38.15s10.682.971,10.194-7.282-4.854-7.28-4.854-7.28H170.213s1.938-16.022.97-24.277C171.183,58.77,152.25,51.488,123.606,50.516Z" fill="none" stroke="#000" stroke-linecap="round" stroke-linejoin="round" stroke-width="1.5"/>
          <path id="Path_63831" d="M158.978,84.382s-2.415,1.209-2.415,2.414" fill="none" stroke="#000" stroke-linecap="round" stroke-linejoin="round" stroke-width="1.5"/>
          <path id="Path_63832" d="M154.147,83.175a4.458,4.458,0,0,0-2.414,3.62" fill="none" stroke="#000" stroke-linecap="round" stroke-linejoin="round" stroke-width="1.5"/>
          <path id="Path_63833" d="M127.58,81.967a4.467,4.467,0,0,0-2.414,3.623" fill="none" stroke="#000" stroke-linecap="round" stroke-linejoin="round" stroke-width="1.5"/>
          <path id="Path_63834" d="M122.75,80.759a5.29,5.29,0,0,0-1.208,3.624" fill="none" stroke="#000" stroke-linecap="round" stroke-linejoin="round" stroke-width="1.5"/>
          <path id="Path_63835" d="M149.316,81.967S146.9,83.778,146.9,85.59" fill="none" stroke="#000" stroke-linecap="round" stroke-linejoin="round" stroke-width="1.5"/>
          <path id="Path_63836" d="M180.892,88.868s-5.826,0-7.282,3.884" fill="none" stroke="#000" stroke-linecap="round" stroke-linejoin="round" stroke-width="1.5"/>
          <line id="Line_1" data-name="Line 1" x1="3.826" y2="26.732" transform="translate(226.145 169.742)" fill="none" stroke="#000" stroke-width="1.3"/>
        </g>
      </g>
      <path id="Path_60088" d="M189.826,139.887c-.436-.491-.878-.977-1.3-1.479.385.421.77.849,1.148,1.276l-.04-.032c.164.18.32.362.476.547C190.015,140.1,189.92,139.992,189.826,139.887Z" fill="#fff"/>
      <path id="Path_60089" d="M186.388,136.289a1.328,1.328,0,0,0-.978-.091c.188-.19.375-.382.555-.577l.1.108.073.082c.15.167.306.332.456.5.043.047.087.1.132.142C186.621,136.393,186.5,136.346,186.388,136.289Z" fill="#fff"/>
      <path id="Path_63822" d="M173.651,157.074s8.772-9.128,12.053-17.56c0,0,6.982,16.7,14.092,16.212" fill="none" stroke="#000" stroke-linecap="round" stroke-linejoin="round" stroke-width="2"/>
      <g id="Group_18026" transform="translate(13.966 127.172)">
        <path id="Path_63826" d="M247.682,36.886C220.924-2,183.2,10.1,183.2,10.1s-1.7,35.842-7.665,52.533a159.4,159.4,0,0,1-10.331-15.867A156.35,156.35,0,0,1,149.7,10.553a64.3,64.3,0,0,0-39.94,16.227" fill="none" stroke="#000" stroke-linecap="round" stroke-linejoin="round" stroke-width="1.5"/>
      </g>
    </g>
    <path id="Path_1163" data-name="Path 1163" d="M-.3,1.134,2.42,40.963" transform="translate(123.785 153.357)" fill="none" stroke="#000" stroke-width="1.3"/>
  </g>
</svg>
