<svg xmlns="http://www.w3.org/2000/svg" width="499.254" height="553.33" viewBox="0 0 499.254 553.33">
  <g id="Layer_2" data-name="Layer 2" transform="translate(0.004)">
    <g id="Layer_1" data-name="Layer 1">
      <path id="Path_1146" data-name="Path 1146" d="M95.58.44c2.74.27,5.24,1.66,8,1.83,3,.41,6-.14,9-.21,4.37,2.33,8.81,4.54,13.34,6.55.75,4.26-.54,8.67-2,12.69l3.08.34a23.508,23.508,0,0,0,1,2.32c1.66,4,2.67,8.47,5.94,11.53-.1.89-.23,1.77-.37,2.66-.31,1.68-.61,3.37-.89,5.06h3.13c.54,1.87,1.13,3.72,1.59,5.61-.1.8-.18,1.6-.25,2.41-3.39,2.69-4.68,6.9-5.85,10.88q-.69,1.35-1.44,2.67c-3.79,2.29-5.78,6.45-7.25,10.45-.59,1-1.16,1.92-1.72,2.89l-3.13-.11a19.86,19.86,0,0,0,.57,9.62c1.07.6,2.14,1.2,3.18,1.85.55,1.5,1.1,3,1.67,4.49,2.11,1.15,4.29,2.17,6.44,3.27l4-.16h3l.55,1.92c3.64,1.17,7.28,3.9,11.25,2.55l.92-.15,1.56,1.73a35.22,35.22,0,0,0,9.3,7.66c2.62,4.09,3.26,9,5.53,13.27.59,1.15,1.17,2.3,1.74,3.46-1,4.84.12,9.76,2.2,14.15-.07.55-.2,1.65-.27,2.19a26.78,26.78,0,0,0,.88,10.65l.43.91c.33.69.64,1.4.94,2.12-.05.42-.16,1.25-.21,1.67a22.37,22.37,0,0,0,.26,10.29c.5,1.65,1.07,3.28,1.56,4.94-2.26,3.4-.86,7.6-.91,11.39l2.71,1.31c0,1.08,0,2.16.08,3.24.41,4,.35,9.2,4.09,11.7.09,1.14.22,2.28.37,3.43l-1.35,1.84c.83,3.58.19,7.81,3,10.61-.21,1-.45,2.06-.7,3.09a21.38,21.38,0,0,0,.35,12.69c.56,1.47-.21,2.94-.69,4.31-1.1,2.76-1,5.78-1,8.7.81,1.64,2.21,3.71.85,5.46-2.2,3.29-1,7.45-1,11.14,2.55,1.87,1.43,4.77,1.2,7.4.33,3.16,1.19,6.24,1.56,9.41l.32,2.59-1.41,1.84a24.88,24.88,0,0,0-3.16,11.47l-.48,1.71c-3.6,2-5.64,5.73-8,8.94l-2.14-1-1.13-.74c3.18-3.54,2.5-8.74,1.56-13,.3-.85.57-1.7.91-2.52,2.19-3.76,2.43-8.91-.81-12.16a12.77,12.77,0,0,1-.58-3.29c.72-4.11,2.15-8.49.46-12.56v-4.25l1.79.45A26.89,26.89,0,0,0,167,243.09c2-3.77,1.55-9.42-1.9-12.2,0-.92-.07-1.84-.07-2.76.12-4.13-.38-8.41-2.51-12q-.84-1.52-1.68-3c1.89-3.87-.73-7.81-1.11-11.71l-1.86-.61c0-1.26.11-2.51.13-3.76.14-3.54-.87-6.95-1.44-10.41l-2-.88c0-5.2.78-10.41-.72-15.51h-1.69c0-1.56.1-3.12.23-4.68l.52-1.75a20.93,20.93,0,0,0-2.8-7.82c-1.36-.08-2.71-.08-4.06-.09-.47.69-.93,1.39-1.39,2.08-4.88,1.33-7.66,7.4-5.7,12-.2.5-.59,1.49-.79,2-3.09,3.12-3.83,7.74-4,12,0,1.3.14,2.6.27,3.91l-2,1c0,3.54-.8,7.28.72,10.64a13.4,13.4,0,0,1,.8,4.26c-.32,3.66.81,7.18,2.17,10.53l2.19.31c.54.72,1.09,1.44,1.65,2.15-.36,4.77,2.53,8.88,5.63,12.2.17.22.53.64.7.86.07.48.2,1.44.26,1.92.25,3.53,1.56,6.85,2.76,10.15.87.64,1.73,1.29,2.6,1.95,0,.51-.13,1.54-.17,2.05l-.15,1.11c-.73,3.39.22,6.78.66,10.14l1.85,1.55c0,1-.07,2-.1,3a17.81,17.81,0,0,0-.1,12.09,13,13,0,0,1-.41,5.75,15.76,15.76,0,0,0,.34,10.58c-.17,1-.27,2-.48,3-1.7,3.89-2.21,8.46-.51,12.44-.32,1.11-.61,2.23-1,3.34A18.39,18.39,0,0,0,150.8,321a31,31,0,0,1-1.49,4.68c-1.43,3.34-1.52,7-1.27,10.61.05,1,.09,2.08.14,3.13l-1.82,1.28a33.731,33.731,0,0,0-1.52,10.69c0,1,0,2,.07,3-3.58,3-3.89,8.35-3.81,12.73.07,1,.16,2,.26,3l-2.08,1.17c-.54,3.24-1.52,6.52-.87,9.83A9.13,9.13,0,0,1,138,386c-1,3.54-2.6,8.82.75,11.49-.25,1.33-.58,2.65-.87,4-1,3.33,0,6.8.45,10.14.52,1.32,1.79,2.62,1.27,4.15-.8,4.39-2.12,9.75,1.06,13.51-.18,1.12-.36,2.25-.53,3.39l-2,.32.47,2.06c.17,3.69.06,7.42.9,11.05,0,.35.1,1.06.14,1.42-.72.79-1.45,1.57-2.18,2.35-.44,2.78-.9,5.55-1.47,8.3l1.07,1.15c-.06,1.38-.12,2.79-.13,4.19-3.56,3-2.85,8.25-2.72,12.41v2.47c-2.56,3-2.19,7.3-3.27,10.94l1.24.65v4c-1.93,3.31-2,7.2-2.18,10.93,1.68,1.29,1.32,3.42,1.52,5.27l-2.37,1.46c0,3.55-.91,7.33.77,10.64a24.442,24.442,0,0,1-.13,4l-.7,1.49c.59,3.22-.36,9,4,9.74a6.31,6.31,0,0,1,.15,5.42,11.35,11.35,0,0,1,2.83,9.53,12.59,12.59,0,0,1-5.43-1.81c-4.58-.57-9,.44-13.48,1.2-1.12-5-2.65-10-2.25-15.24.68-.71,1.37-1.41,2.06-2.1,1-4.61.56-9.21,0-13.83.59-.67,1.19-1.33,1.79-2a27.37,27.37,0,0,0-1.63-11.8c1.1-4.46,1.9-9.62-.77-13.69-1.29-2-.36-4.36.54-6.29-.46-2.68-.8-5.37-1.15-8.05a3.19,3.19,0,0,1-.73-6.15c-.57-3.33,0-7.4-2.27-10.11l-2-.42.2-3.45,2-1.76c-.06-3.11-.77-6.15-1.07-9.22-.15-.19-.47-.55-.63-.73-.23-1-.44-2.09-.63-3.13,1.54-4.34,1-8.94.23-13.37a36.928,36.928,0,0,0-.92-4.2l1.86.16c.42-3.93.92-7.92,0-11.81l-.15-2.5,2.1-2.23c.53-3.45,1.77-7,.6-10.43-.15-.82-.29-1.63-.42-2.42a16.25,16.25,0,0,0,.21-12.44l-1-1.9c.3-.89.58-1.76.86-2.64,1.43-3.91.64-8.19-1-11.88V365.6c1.28-4.27,1.4-9-.73-13a29.3,29.3,0,0,1-1-3c2.69-.62,1.69-3.78,1.93-5.79a10.34,10.34,0,0,0-2-7c.24-1.12.55-2.23.86-3.33l.44-1.64c-.14-3,.26-6.3-1-9.13l-.8-1.69a10.6,10.6,0,0,1,1.23-5.14c0-3.51.55-7.38-1.92-10.25.18-1,.37-1.95.55-2.92a20.48,20.48,0,0,0-.39-12.44,32.572,32.572,0,0,1-.06-3.42,17.08,17.08,0,0,0,.66-9.15,2.92,2.92,0,0,0-2.84-2.36c-1.57-.15-3.15-.26-4.71-.45l-.78-.88c-4.15,2.4-4.2,7.87-2.25,11.75-.09.92-.18,1.84-.26,2.78-1.39,3.75-1.2,7.81-1.06,11.75l.9.05v3c-2.13,3.53-1.94,7.69-1.78,11.66.45,1.53.86,3.07,1.25,4.63-2.87,3.7-2.39,8.74-1.2,13l.48,2.58c-.5.86-1,1.72-1.56,2.57a57.5,57.5,0,0,0,.21,10.33c0,.67,0,2,0,2.69l-.91,1.36A43.92,43.92,0,0,0,96,362.5l1.9.89c-.25.43-.49.87-.72,1.33,0,.49.1,1.47.13,2-.65.74-1.31,1.49-2,2.22-.11,3.24-.13,6.48-.11,9.72l2.24-.32-1.4,1.3.52,2.71-1.68,2.2c.07,3.46-.48,7.07.57,10.44.15.48.43,1.42.58,1.9l-.25,1c-1.24,4.21-1.05,9.51,2.22,12.79-.06,1.14-.11,2.3-.16,3.46-.11,3.47-.29,7,.62,10.42.49,1.38,1,2.74,1.53,4.12l1.23.77h-2c-.57,3.84-1.67,7.9,0,11.63-.15,1.22-.3,2.45-.53,3.66-.86,3.56-1.69,7.28-1.27,11,.26.28.76.86,1,1.14-.27,1.8.62,4.86-2.18,4.72-.39,3.21-.84,6.42-1.23,9.64l2.25,1.45-.36,3.58-2.6.27c-.46,4.08-1.94,8.37,0,12.31.84,1.87-.58,3.14-2,4.06-.2,3.37-1.14,7,.3,10.2a11.48,11.48,0,0,1,.62,4.17l-2,1.27c0,2.81-.06,5.64,0,8.46,3,3.17.29,7.14.76,10.85a24.39,24.39,0,0,0,1.16,6.08c2.18,1.32,1.92,3.76,1.16,5.84-.09,4-.36,8-.12,11.95-5.12-.48-11-2.89-15.7.36-1.08.08-2.15.17-3.22.27a6.54,6.54,0,0,1-.34-7.47c.38-2.76,1.44-5.47,3.88-7,2-4.47,1.19-9.18.56-13.8,2-3.54,1.17-7.93.31-11.69a10.62,10.62,0,0,1-.26-4.82c.47-3.88.88-8.8-2.28-11.68.18-1.08.39-2.16.57-3.23.76-4,.51-8.4-1.78-11.93-.42-.94-.75-1.93-1.07-2.89,2.14-3.45.66-7.42.09-11.07L72.68,465c.12-1,.23-2,.31-3,.6-4.47.21-9.23-2.38-13.05.14-1,.26-2.08.38-3.11a23.41,23.41,0,0,0-1.5-12.09c-.17-.9-.29-1.8-.43-2.68,2-3.84,1.21-8.19.94-12.3a17.51,17.51,0,0,1,.79-4.26c.82-2.49,1.64-5.06,1.37-7.71-.07-3.1-1.39-6.53.82-9.21a26,26,0,0,0-.62-10.13c-.15-.65-.47-1.95-.62-2.6.22-4.4,2.17-10.63-2.5-13.32a24.87,24.87,0,0,0-1.1-4.34l2,1.14c-.14-4.5-.95-9.27-4-12.75a16,16,0,0,0-.06-1.7c0-4.49.29-10.12-3.76-13.07.09-1.21.25-2.42.38-3.61,0-4.11-.13-9-3.54-11.86.06-1.1.16-2.2.29-3.28l.63-1.24c-.72-3.8-.66-8.07-3.43-11.09l.27-2.63c.64-4.08.52-8.37-1.33-12.14a16.15,16.15,0,0,1-.11-3.74,16.15,16.15,0,0,0-1.15-12.4c.28-1.27.56-2.52.87-3.77a20.92,20.92,0,0,0,.62-9.4l-.44-2c-.21-1.05-.33-2.11-.48-3.15l2-2q.24-3.89.86-7.71c-.13-.58-.39-1.75-.53-2.34-.1-1.14-.16-2.28-.18-3.41,4.21-1.65,3.71-7,4.84-10.67.13-1.21.25-2.41.35-3.62,3.22-3.07,5.7-7.58,5.62-12.11.68-.74,1.3-1.54,2-2.3l1.68-.4C73,212,74.92,208,73.72,203.71c.54-1.11,1.14-2.2,1.76-3.28l.28-.49c.24-3.76,1.52-8.25-1.27-11.38.23-1.05.52-2.08.8-3.11,1.12-3.07-.21-6.25-.48-9.35l-1.52-1.48c-.8-1.21-1.5-2.47-2.24-3.71,2.19-3.79-1.64-7.39-3.23-10.65L65,160.13a32.6,32.6,0,0,0-2.16-2.67l-3.33.1a13.83,13.83,0,0,0-2,10.51c.17,1.19.36,2.39.51,3.59l-2.13.72c-.53,3.7-2.25,7.9.13,11.32-.55,1.13-1.19,2.22-1.77,3.34a19.69,19.69,0,0,0-2.05,12.25c-.41.9-.8,1.81-1.18,2.73-1.27,3.73-3.78,7.95-1.92,11.88l.67-1a22,22,0,0,0-.94,3.65c-3.65,2.93-3.93,8.09-3.89,12.4v2.72c-3.61,2.91-3.18,8-2.95,12.14q.2,1.6.45,3.21c-.84,1.48-1.73,3-1.62,4.8,0,2.83-.63,6.14,1.48,8.44-.05.64-.13,1.92-.17,2.56a44.52,44.52,0,0,0,.73,13.08c.05.84.1,1.68.13,2.53C39,280.94,40.19,286,40.21,290l2.39.67c-.35,1.85-.67,3.7-.87,5.58a30.5,30.5,0,0,0,2,10.77c-.8.63-1.62,1.22-2.46,1.8-2.32-3.33-4.64-6.74-7.86-9.28-.4-.9-.76-1.81-1.07-2.74A25.2,25.2,0,0,0,28,284.87a6,6,0,0,1-.6-2.84c2-3.92,1.89-8.34,1.82-12.62,0-.9.05-1.8.1-2.7,2.75-3.86,2.25-9,.37-13.17l-.16-1.66a14.14,14.14,0,0,1,1.18-3.16c-.09-3.62.14-7.62-1.86-10.79.86-4.35,1.62-8.74.87-13.18a27.1,27.1,0,0,1-1.28-3.11v-.71a19.26,19.26,0,0,0,2.35-13.77c-.07-.79-.23-2.38-.3-3.18,4.52-2.45,3.5-8.71,3.69-13.06l.91-1.71L37,187.94c.34-3.59,1-7.22.28-10.81-.16-1.06-.37-2.11-.56-3.16,3.3-4.11,2.27-9.51,1.16-14.2-.7-1.77.94-2.89,1.94-4,.94-4.2,0-8.46.2-12.65,2.08-4.12,3.69-8.9,2-13.45,2.63-4.6,5.31-9.67,4.76-15.14.38-.75.74-1.5,1.07-2.27,3.23-1.41,5.53-4.14,8.12-6.42.1-.61.32-1.84.42-2.46,1.5-.12,3-.17,4.5-.28,3.32-.65,6.55-1.66,9.88-2.23.19-.5.57-1.49.75-2H75.9c3.81.2,6.87-2.43,9.76-4.54.16-.58.49-1.73.66-2.31l.69-2.4,2.67-.49A37.8,37.8,0,0,0,92,79.82c-.88-.47-1.75-.95-2.61-1.45-1.12-.8-2.22-1.62-3.29-2.46.2-4.31-3.3-7.91-6.36-10.55A39,39,0,0,0,77.65,60a48.309,48.309,0,0,0-4.73-7.87c-.38-1-.7-1.93-1-2.91.45-1.95,1-3.9,1.46-5.85l2.75-.31c-.17-1.38-.34-2.77-.48-4.15,0-1,0-1.89.06-2.83,3-3,4.9-6.86,6.47-10.75,0-.54.08-1.63.11-2.17.54-1,2.45-1.84,1.81-3.23-1.28-3.29-.76-6.8-1-10.23C87,6.26,92.08,4.32,95.58.44Z" fill="#ca576c"/>
      <path id="Path_1147" data-name="Path 1147" d="M369.37,1.67C371.07.91,373-.51,374.89.39l-.65.66c-1.42,1.15-2.09,2.86-3,4.34-.27-.54-.8-1.64-1.06-2.19-3.18.63-5.52,3.23-8.31,4.74-.17.63-.53,1.88-.71,2.51l-1.49.5c-4.62,1.46-9.49,6.77-7.29,11.75,0,1-.09,2-.11,3-2.33,3.64-2.68,8-3.9,12-.54,1-1.1,1.9-1.7,2.81l-2,1.38c-.05,4-.25,9.78,4.61,11,.18.51.56,1.53.75,2a24.2,24.2,0,0,0,3.68,8.32c1.83.32,3.68.67,5.53,1a29.642,29.642,0,0,0,1.51,3.88l-2.47.3a83.992,83.992,0,0,0,3.65,10.68l2.83.06.85,2.1a29.359,29.359,0,0,0-3.27,12.23l-1.07.1c-4.94.61-10.78.64-14.56,4.31l-2.64-.37c-1.58-.08-3.17,0-4.73.05a16.88,16.88,0,0,1-6.8,2.18c0,.69-.13,2.06-.18,2.75l-3.73.58-2.72.38c-2.84,2.13-6.08,4-7.75,7.3l-1.58,2.19c-3.54,2.86-6.22,7-6.32,11.69-.06.88-.16,2.64-.22,3.52l-1.82.72-.44.15c-.34,4-1,7.94-1.2,11.95-.19,4.9-2.34,9.42-3.3,14.18l1.49.43-1.13,1.31-.24,2.9-2.52.45a45.14,45.14,0,0,0-1.81,10.69l1.5-.81a6.48,6.48,0,0,0-.79,5.39l-2.12-.45c-.09,3.77-.19,7.55,0,11.32l1.61.19a27,27,0,0,0-.83,3.9c-4.44,1.88-4.1,7.79-4.13,11.79,0,1.18.05,2.37.11,3.56a3.46,3.46,0,0,0-2.08,3,28.089,28.089,0,0,0,.82,10.37l.92,3.12-1.52.05c-.23,4.31,0,8.75,2.11,12.63-.07.72-.13,1.45-.18,2.18a182.07,182.07,0,0,1-8.07,17c-1.38,3-2.62,6.41-1.69,9.74a49.73,49.73,0,0,1,.05,22.89c-.84,3.65-.7,7.64,1.35,10.89.69,2.41,1.48,4.79,2.33,7.16-.42,1.18-.82,2.36-1.21,3.55a24.391,24.391,0,0,1-5.27-1.33c-3.92-4.72-8.81-8.78-11.6-14.36-1-2.27-1.67-4.64-2.57-6.93.73-8.31,2.33-16.57,2-25,.35-12.5-3.1-24.62-4.24-37a229,229,0,0,1,0-23.14c.07-2.72,1.46-5.14,2.07-7.74,2.46-8.6,1-17.7,3.23-26.31,1.17-6.67,1.92-13.74,5.28-19.74.17-.77.52-2.31.69-3.08A108.38,108.38,0,0,1,305,106c4.57-4.11,10.68-5.43,15.92-8.36,8-1.24,15.82-4,24-4.57a58.591,58.591,0,0,0,6.26-2.16,22.411,22.411,0,0,1,4.2-1.91,37.161,37.161,0,0,0,5.38-6.22l-1.47-2.39c-2.29-1.25-4.79-2.39-6.09-4.8-2.72-4-1.84-9.13-4-13.32A22,22,0,0,0,345.6,59c-.08-.57-.25-1.71-.33-2.29a20.55,20.55,0,0,1-3.95-15.76c.08-3.65,4-5.63,4.39-9.23,1.69-4.37-.06-9.45,2.42-13.54.36-4.18,3.93-6.7,6.87-9.18C359.46,6,364.62,4.22,369.37,1.67Z" fill="#d4d4d4"/>
      <path id="Path_1148" data-name="Path 1148" d="M410.56,16.76c1.86,2.88,4.3,5.39,6,8.38.86,3.14,1.51,6.36,3,9.31l2.9,2.89c.08,3.52.84,7.39-1,10.63-1.29,2.56-2.59,5.11-3.82,7.69a7.69,7.69,0,0,1-2.36,4.08,42.1,42.1,0,0,1,.19-6.92c.27-2.18.51-4.36.78-6.54l.85-.61c-.16,1.44-.28,2.88-.35,4.33,3.65-2.07,4.59-7.66,2.29-11.1l-1.88-.7a18.109,18.109,0,0,1-2.29-2.88c-.62-3.26-1.23-6.53-1.78-9.81l-2.59-.66a33.288,33.288,0,0,0-.59-3.86C410.07,19.93,410.4,17.82,410.56,16.76Z" fill="#d4d4d4"/>
      <path id="Path_1149" data-name="Path 1149" d="M405.78,64.15l.85-.79c1.67-.18,3.35-.31,5.05-.39-1,3.23-1.32,6.6-2.18,9.85-.8,2.85-3.76,4.41-4.79,7.15a30.521,30.521,0,0,0-.19,5.06c3,2.91,6.13,5.8,10.14,7.15,3.09,1.41,6.8.73,9.66,2.73,3,.45,6.15.08,9,1.39,1.83.85,3.9.82,5.87,1.19A64.71,64.71,0,0,1,470.91,119c11.11,13.49,20.34,29.32,22.79,46.88,1.39,7.25.35,14.74,2.11,22,2.83,10.35,4.21,21.21,3,31.92-.44,15.15-5.14,29.91-4.53,45.12,0,5,1.42,9.89,2,14.86.41,5.76-1.74,11.3-4.19,16.41a94.483,94.483,0,0,1-9.81,10.29c-1.63,1.52-4,.94-6,1.14-.68-6.28,4.37-11.5,3.67-17.79-.72-7.63-2.6-15.25-1.33-22.95,2.64-4.72.48-10.26-1.68-14.7-2.27-4-4.19-8.21-6.22-12.35,0-1.88-.31-3.69-1.73-5,.19-.88.42-1.75.64-2.62,3.87-3.24,1.67-8.88,1.8-13.19a23.1,23.1,0,0,1,0-3,57,57,0,0,0,.06-11.53l-2.78-.27c0-1.29.09-2.58.18-3.86,1.43-3.61-.72-7.1-1.72-10.51L465,187.83c.16-.91.33-1.8.53-2.69,1.77-4.47,1-9.4-.82-13.71-.12-.54-.35-1.62-.47-2.16a17.88,17.88,0,0,0-3.48-13.1l-.89-1.4-.32-.88a44.208,44.208,0,0,0-2.25-12.59c-.26-.77-.49-1.55-.69-2.33,0-.3.1-.91.14-1.21.77-3.7-.25-7.61-1.73-11l-1.61-1c-.29-.89-.59-1.76-.91-2.62.72-4.49-2.56-7.9-4.66-11.48l-2.68-.24c-.28-.48-.82-1.43-1.09-1.91-2-4.49-6.79-6.89-11.43-7.58a34.3,34.3,0,0,0-3.42-.56c-1.71-4.5-7.32-4-11.21-4.33l.89,1.48-1.64-1.06-2.36-.2c-3.43-3-8.3-3.83-12.68-3.15-.61-.73-1.24-1.44-1.89-2.11.29-4.25-.12-8.5,0-12.75.33-2.86.94-5.68,1.52-8.49-.28,2.17-1.32,4.8,1.08,6.27a45.34,45.34,0,0,0,2.85-12.88Z" fill="#d4d4d4"/>
      <path id="Path_1150" data-name="Path 1150" d="M328.87,171.65c.76-1,1.54-2,2.36-2.88,3,2.84,3.89,7.45,7.75,9.43.24.82.51,1.65.79,2.48L342,182.2l-1.86-.35a105.163,105.163,0,0,0,1.06,12c.15.87.34,1.73.55,2.6-3.17,3.7-2.77,8.93-1.69,13.37q.36,1.53.81,3.06l-2,.55c-1.35,9.18-9.29,16.48-8.53,26.07v3.06c-4.51,2-3.82,8.35-3.28,12.43.14,1.14.25,2.28.35,3.43l-2.08,1c-.82,3.8-1.43,7.79-.12,11.58.29,1.25.65,2.51,1,3.75-4.47,1.41-2.06,7.11-2.5,10.53h2.44c-.38,1.39-.78,2.78-1.11,4.18-.66,4.37-2.25,10.2,1.44,13.6-.16.81-.3,1.62-.42,2.45-1.07,3.91-.12,7.9.48,11.8l2.12.44c-.1,1.17-.2,2.36-.29,3.55-1.73,4.27,0,9.57,3,12.84,0,1-.1,2.06-.11,3.11a23.46,23.46,0,0,0,1.59,10.11l-1.51.3c1.35.55,2.69,1.12,4.05,1.69v2.83c-.5,4.18,1.09,8.1,2.34,12l2,.61a11,11,0,0,0,.95,2.94c-1.92,4.34.72,9.13,2.14,13.31l-.24,2.53a22.3,22.3,0,0,0-2.42,13.19c.07.57.2,1.72.26,2.29-3.9,3.12-3.28,8.55-2.52,12.92.26,1.27.55,2.54.86,3.82l-2.28.53c.23,4,.36,8.12,2.09,11.8.29.91.57,1.83.92,2.74-2,4.2-.89,9.23,1.52,13-.09,6.12,1.65,12,3.44,17.74,0-.85.05-1.69.11-2.52l.74-1.45c-.07,1.37-.16,2.74-.28,4.12a18,18,0,0,0,1.91,13.39c.21.85.4,1.71.56,2.59a21,21,0,0,0-1.24,7.9c-.9-8-4.35-15.32-6.06-23.11-2-7.58-4.33-15.05-6.53-22.56a145.122,145.122,0,0,1-4.88-15l-2.56-.83,1.79.3c-1.42-8.55-3.22-17.09-2.54-25.8-.61-5.85,2.31-11.22,2.24-17,0-3.33.19-6.79-.94-10-5.45-13.69-9.87-27.77-14-41.91-1.3-7.93-5.15-15.35-4.68-23.54.47.73.94,1.47,1.41,2.23,1.6-.28,3.2-.54,4.8-.88,0-4.32-.53-9.4-4.64-11.8l-.2-2.66-1.32-1,2.18.43c-.31-3.91,1.71-8.71-1-12,.1-.27.29-.82.38-1.09.14-.53.41-1.6.54-2.13,2.06-3.78-.08-7.88-.2-11.84l-2.08-.51q.15-1.65.21-3.3c2.5-3.87,3.13-8.58,3.32-13.08a21.485,21.485,0,0,1,.09-2.41c3.72-3,5-8.6,3.83-13.17v-2.76c4.08-2,2.65-7.5,3.9-11.14l-2.63-.09c.69-.69,1.37-1.39,2.07-2.08-.07-.5-.22-1.48-.29-2,2.25-1.82,2.07-4.73,2.2-7.33.25,1,.51,2,.79,3a111.4,111.4,0,0,0-.81-11.84,30,30,0,0,0,2.76-12.09c0-1.16.07-2.31.1-3.46l2.37-.38C326.87,179.28,330.72,175.64,328.87,171.65Z" fill="#d4d4d4"/>
      <path id="Path_1151" data-name="Path 1151" d="M428.34,172a29.456,29.456,0,0,1,1.78-3.38c1.26,1.39,2.55,2.79,3.82,4.2.64,1.5,1,3.19,2.11,4.46,1.25,1.33,2.59,2.59,3.86,3.91l-1.66.29c1,3.79,2.57,7.39,3.51,11.2l1.66-.55a12.559,12.559,0,0,0,.5,5.34l-1.68-.63c.21,3.72-.18,7.63,1.24,11.16.75,1.69,1.63,3.32,2.46,5l-2.46.41c1.21,3.81-.07,9.17,4,11.48l-.08,3.59-.93.12c.22,3.67,1.94,7,2.31,10.69l1.13-.29a67,67,0,0,0,3,16.32l2.39-.17v3l1.4,1.62-2-.8c-.1,3.94-1.35,7.86-.76,11.81.18,1.16.37,2.34.59,3.51-4,1.9-1.57,7.15-1.85,10.58a35.449,35.449,0,0,1,2.1,5.59c-2.25,3.35-2.94,7.38-3.81,11.24l1.94-.37a40.562,40.562,0,0,0-2.46,3.9c-.16,1.45-.16,2.92-.19,4.39a37.759,37.759,0,0,0,5.44.64c.2,6.78-2.94,12.92-4.24,19.45-3.46,10.95-6.32,22.09-10.44,32.82-1.25,3.9-2.87,7.67-4,11.59a27,27,0,0,0,.92,15.06c1.15,6.81.81,13.79.66,20.68-1,11.42-5.39,22.15-8.49,33.1-4.66,14-8.41,28.19-11.81,42.49l-2.86-.1c0-.43.05-1.31.07-1.75.05-1.26.08-2.51.1-3.76l1.45.75c.31-4.09,2.7-8.51.5-12.42,2.23-5.14,4.54-10.72,3.09-16.42l.51-1a25.4,25.4,0,0,0,3.39-13.91c-.15-1-.3-2.06-.46-3.08,3.67-3.21,3.16-9.08,1.52-13.2,0-.9.07-1.8.14-2.67,2.95-5.91-1-11.95-.63-18,.13-4-2-7.47-3-11.2-1.07-4.75.8-9.51.49-14.3l-1.69-.41a6.61,6.61,0,0,0,1.51-4.09l2.06-.8c1-2.64,1.75-5.48,3.88-7.46l-1.43-.4c.77-5.45,3.3-10.37,5.2-15.47-.34-1-.7-2.08-1-3.1l.36-2.48c2.94-2.36,2.71-6.57,4.1-9.8-.45-.93-.92-1.87-1.32-2.8.59-1.13,1.26-2.21,1.95-3.28l-1.62-.16c4.15-2.62,3-8.23,2.54-12.36a25.381,25.381,0,0,0,0-3.8c3.3-3.17,2.4-8.54,1.25-12.51l-.95,1.28a7,7,0,0,0,.68-4.71c2.51-3.61,2.19-8,1.29-12l-2,.58,1.5-1.69-.77-2.27c1.95-3.43,1.31-7.45,1.31-11.21l-2.23-1.73c.08-1.31.13-2.61.15-3.92l1.32-1.62c-.81-3.58-.33-8-3.47-10.56,0-.92.08-1.83.13-2.74.44-4.81-1.49-9.38-4.09-13.31l-.72-2a12.6,12.6,0,0,0-1.49-6.1c-1.15-2.14-2-4.77-4.64-5.49-.05-.72-.08-1.43-.09-2.14-.28-.47-.84-1.43-1.13-1.9l1.33,1.22a45.3,45.3,0,0,0,0-11.1l-2.36.23c0-.42.07-1.27.09-1.69.15-1.15.37-2.28.58-3.42.89-3.89.44-7.89.29-11.83h-2.19a49.791,49.791,0,0,0,1.51-7.16c.12.66.35,2,.46,2.63,2.7-2,3.74-5.32,5.4-8.1C428.34,173.76,428.33,172.88,428.34,172Z" fill="#d4d4d4"/>
      <path id="Path_1152" data-name="Path 1152" d="M127.05,18c3.6,1.58,6.16,4.69,8.81,7.48,3.18,4.46,4,10,4.66,15.32A9.08,9.08,0,0,1,144,49.86c-1.43,5.43-4.62,10.18-7.45,15-1.29,2.55-1.89,5.41-3.43,7.84s-3.67,4.19-5.57,6.22c-.86,1.66-1.52,3.42-2.41,5.07.12,1.85-.41,4,1,5.54a37,37,0,0,0,6.18,3.83c3.47.14,7,.31,10.21,1.83,6-.08,11.13,3.7,17,4.36a54.52,54.52,0,0,1,34.3,28.76c4.74,11.64,6.67,24.2,7.5,36.67,1.22,5.27,1.43,10.66,1.9,16,2.08,11.67,7.23,22.87,6.64,35,.43,8-.86,16-1.31,24-1,8.93-2.54,18-.77,27,1.32,9,3.39,19.28-1.73,27.56-3.42,5.5-7.82,10.79-13.62,13.87-.79-.41-1.59-.8-2.38-1.18-2-3.68,1-7.54,1.94-11.12,3.11-6.44-.18-13.41.15-20.11-.26-7.47,3.32-14.59,2.61-22.06-2.42-9.53-8-17.81-11.27-27.05a17.16,17.16,0,0,0-3-5.62c.25-1,.49-2.06.7-3.09.82-4.15.75-8.82-1.67-12.45-.15-1.15-.28-2.29-.37-3.43-.4-3.95,0-9.59-4.09-11.7,0-1.08-.07-2.16-.08-3.24-.44-4.19.89-9.07-1.8-12.7-.49-1.66-1.06-3.29-1.56-4.94.87,1.31,1.73,2.64,2.55,4-.9-4.71,1-10.53-2.81-14.27.05-.42.16-1.25.21-1.67-.3-.72-.61-1.43-.94-2.12l1.43-.14c.07-3.23-.1-6.47-.27-9.69L169.4,144c.07-.54.2-1.64.27-2.19,1-4.8.82-10.06-2.2-14.15-.57-1.16-1.15-2.31-1.74-3.46l1.77.69c-.47-5.06-1.7-10.74-6.32-13.65-1.31-4.38-5.39-8.59-10.28-8l-1.56-1.73c-1.26-2-3.71-2.18-5.82-2.6a12.84,12.84,0,0,0-6.9-1.72h-3c-3.06-2.87-7.09-4.21-10.79-6,.08.72.23,2.17.31,2.89-.57-1.49-1.12-3-1.67-4.49-.79-3.68-2.6-7.75-.62-11.36.56-1,1.13-1.93,1.72-2.89l2.84-.22c1.4-2.57,2.92-5.08,4.57-7.5-.06-.91-.11-1.82-.16-2.73q.75-1.32,1.44-2.67h2.26c1.7-3.41,3.7-6.88,3.59-10.83.07-.81.15-1.61.25-2.41l1.6-1.29c-.22-1.95-.65-3.86-1.06-5.77-1.47-1.2-2.93-2.43-4.37-3.66.14-.89.27-1.77.37-2.66.57-4.6-1.23-10.18-5.9-11.6-.35-.76-.66-1.54-1-2.32a27.941,27.941,0,0,1,.05-3.68Z" fill="#d4d4d4"/>
      <path id="Path_1153" data-name="Path 1153" d="M79.12,20.27l3-.27c0,.79.11,2.38.14,3.17,0,.54-.08,1.63-.11,2.17H79.44c-1.82,3.35-4.09,6.71-3.76,10.73-.06.94-.08,1.88-.06,2.83a22.54,22.54,0,0,0-4.11,2.86A34.05,34.05,0,0,0,69.89,48l2,1.26a30.1,30.1,0,0,0,1,2.91c-1.72,3.5,1.57,6.68,2.58,9.9l2.8.89c-.16-.73-.49-2.19-.65-2.92a39,39,0,0,1,2.09,5.35c.12,4.77,3.51,8.33,6.12,12,.06-.36.17-1.08.23-1.44,1.07.84,2.17,1.66,3.29,2.46,0,3.91-1.36,7.57-2.39,11.29l-.69,2.4c-3.64,1.06-6.76,3.29-10.25,4.71,0,.54-.13,1.6-.17,2.14H71.47A39.92,39.92,0,0,0,61,100.22l-.08,2.87c-1.5.11-3,.16-4.5.28-4,1.43-7.76,4.44-8.54,8.88-.33.77-.69,1.52-1.07,2.27A14.85,14.85,0,0,0,43,127.14c-2.05,4.26-3.89,8.83-3.76,13.65a20.73,20.73,0,0,1-1,8.24c-1.74,4.77-.25,9.95-1.5,14.82A21.25,21.25,0,0,0,36.73,174c.19,1.05.4,2.1.56,3.16l-2.14,1.28c0,3.6,0,7.2-.08,10.8l-.91,1.71c-2.37,3.91-4.21,8.39-3.69,13.06.07.8.23,2.39.3,3.18l-1.48.37a30.49,30.49,0,0,0-.87,13.4v.71c-1,4.33-3.69,8-5.37,12.05-2.24,5.69-4.89,11.22-6.71,17.07-2.38,5.83.15,12,.58,18,.32,6.72.59,13.54-1,20.13.5,5.32,3.44,10,4.89,15.13.62,1.7-.93,2.91-1.73,4.19L16.41,308C8.92,302.5,2.71,294.88.34,285.74c-.9-5.4.14-10.79,1.47-16a109.9,109.9,0,0,0-.47-26.88c.31-6.73-1.54-13.29-1.3-20,.17-7-.7-14.12,1.33-20.9,1.21-6.51,4.32-12.49,5.26-19.07,1.09-12.39,2.11-24.81,3.79-37.14a98.64,98.64,0,0,1,7.11-20,71.87,71.87,0,0,1,16.73-18,97.358,97.358,0,0,1,19.2-8.25c1.37-.15,2.76-.29,4.14-.47,2.55-1.56,5.56-1.52,8.38-2.12a34.77,34.77,0,0,1,7.57-2.06c2.47-1.25,4.63-3.13,7.39-3.76,2.66-4-.35-8.27-1.4-12.26a23.661,23.661,0,0,0-2.05-2,37,37,0,0,1-4.76-14C70.26,59.94,69.46,56,67.2,53a19.33,19.33,0,0,1-.3-11.61L69.73,40c.06-1.46.14-2.92.26-4.37C71.65,29.78,75.48,25,79.12,20.27Z" fill="#d4d4d4"/>
      <path id="Path_1154" data-name="Path 1154" d="M146,155.89c1.35,0,2.7,0,4.06.09-.8.69-1.58,1.4-2.35,2.11.55.62,1.67,1.84,2.22,2.46.05,1.63.12,3.26.19,4.9l2.18.14c-.13,1.56-.21,3.12-.23,4.68l-1,.06c.87,3.87.53,8,2.33,11.67.71,4.71.47,9.81,2.84,14.07l1.69,1c0,1.25-.09,2.5-.13,3.76-.27,4.29.07,8.9,3,12.32q.84,1.48,1.68,3l-1.6.44c.55,4,.54,8.87,4.11,11.58,0,.92,0,1.84.07,2.76-.12,1.32-.24,2.65-.38,4,.5,4.81,2.73,9.47,2,14.37a34,34,0,0,0-.4,7.74l1,.27v4.25c-1.72,3.67-4.21,9.42-.46,12.56a12.77,12.77,0,0,0,.58,3.29c-.49,4-1.28,8.48.81,12.16-.34.82-.61,1.67-.91,2.52-1.79,3.86-2.33,8.08-2.66,12.28l1.1.73,1.13.74,2.14,1,1.37,2.12c3.15-3,5.85-6.68,6.66-11.06l.48-1.71,1.53.41c1.22-3.32,2.29-6.68,3.18-10.1l2-.75c.38,7.7-1.75,15.18-2.68,22.76-4.71,22.19-12.2,43.74-21.1,64.58-1.38,4.58-3,9.1-4,13.81-1.85,14.31.7,28.75-.8,43.08a249.239,249.239,0,0,1-14.23,46.83c-2,5.34-3.56,10.86-5.42,16.27-.56,1.55-1.18,3.25-2.76,4.08L132.22,494v-4l1.77.45c.45-4,1.25-8.06.26-12,0-.84-.05-1.66,0-2.47,3.17-3.36,3-8.13,2.72-12.41,0-1.4.07-2.81.13-4.19l1.16,1.21c.95-4.26,2.11-8.62,1.42-13,0-.36-.11-1.07-.14-1.42a29.94,29.94,0,0,0,1.61-13c-.85.64-1.68,1.29-2.51,1.95l-.47-2.06,2-.32c.17-1.14.35-2.27.53-3.39.51-3.43.93-7,.07-10.41-1.92-5.31,1.28-11-1-16.28l-1.83-1.11c.29-1.34.62-2.66.87-4,.11-3.72,3-8.76-.75-11.49a9.13,9.13,0,0,0,.41-4.83l1.45.65c.87-3.81,2.27-7.69,1.5-11.65-.1-1-.19-2-.26-3,3.81-3,3.94-8.33,3.81-12.73,0-1-.06-2-.07-3l2-1.38a27.81,27.81,0,0,0,1.36-10.59c-.05-1.05-.09-2.09-.14-3.13,3.75-2.45,2.41-7.77,3.25-11.55l-2,.94A31,31,0,0,0,150.8,321c2.27-3.43,3.53-8.68,1.09-12.22.35-1.11.64-2.23,1-3.34l1.05-1.62c.42-3.58,1-7.42-.54-10.82.21-1,.31-2,.48-3,1.8-3.54,1.5-7.55,1.37-11.38l-1.71.8a13,13,0,0,0,.41-5.75c3.81-2.87,1.83-8.54.1-12.09,0-1,.06-2,.1-3,0-4.33,1.13-9.45-2.36-12.8,0-.51.13-1.54.17-2.05-.42-4.28-.95-10.13-5.36-12.1-.06-.48-.19-1.44-.26-1.92.11-5.15-3.21-9.32-6.33-13.06-.56-.71-1.11-1.43-1.65-2.15-.26-3.89-1.9-7.47-2.61-11.27l-1.75.43a13.4,13.4,0,0,0-.8-4.26,2.43,2.43,0,0,0,1.79-2.49,57,57,0,0,0-.54-9.13c-.13-1.31-.24-2.61-.27-3.91,4.53-1.69,3.55-8,4-12,.2-.49.59-1.48.79-2,1.92-4,3.65-8.07,5.7-12C145.11,157.28,145.57,156.58,146,155.89Z" fill="#d4d4d4"/>
      <path id="Path_1155" data-name="Path 1155" d="M62.81,157.46q1.13,1.29,2.16,2.67c2,3.61,3.81,7.32,6.08,10.78.74,1.24,1.44,2.5,2.24,3.71L72,173.91q.8,5.58,1.35,11.19l2,.35c-.28,1-.57,2.06-.8,3.11a79.4,79.4,0,0,0-.76,12.23l1.75-.36c-.62,1.08-1.22,2.17-1.76,3.28-2.11,3.9-3.92,8.08-4,12.6-.66.76-1.28,1.56-2,2.3a15.75,15.75,0,0,0-5.62,12.11c-.1,1.21-.22,2.41-.35,3.62l-2.48-.07c-.9,3.55-2.26,7-2.36,10.74,0,1.13.08,2.27.18,3.41l-2.11,1.85a27.08,27.08,0,0,0-.21,10.19c.15,1,.27,2.1.48,3.15-3.4,3.08-2.55,8.39-1.31,12.29l1.15-.86c-.31,1.25-.59,2.5-.87,3.77-1.37,4-2.25,9.13,1.15,12.4a16.15,16.15,0,0,0,.11,3.74,11.8,11.8,0,0,0,1.33,12.14l-.27,2.63c-.47,4.56-.51,9.37,1.25,13.68a4.34,4.34,0,0,0,1.55-1.35c-.13,1.08-.23,2.18-.29,3.28-.23,4.12.84,8.15,1.34,12.22l2.2-.36c-.13,1.19-.29,2.4-.38,3.61A21.42,21.42,0,0,0,66,353.87a16.192,16.192,0,0,0,.06,1.7,25,25,0,0,0,2.06,11.61,24.869,24.869,0,0,1,1.1,4.34,77.941,77.941,0,0,0,1.05,11.1c.49.73,1,1.47,1.45,2.22.15.65.47,2,.62,2.6a3,3,0,0,0-2.08,3.32c-.39,4.33,1.89,8.67.45,12.92A33.74,33.74,0,0,0,69,414.08l1.79.41a17.51,17.51,0,0,0-.79,4.26l-1.87.91c-.16,3.81-.52,7.75.93,11.39.14.88.26,1.78.43,2.68-1.78,3.38-1.31,7.19-.59,10.78l2.1,1.31c-.12,1-.24,2.07-.38,3.11-.68,4.43-1.07,9.59,2.38,13.05-.08,1-.19,2-.31,3-1,4.39.9,8.65,2.13,12.78a27.642,27.642,0,0,0,1.07,2.89c-1.62,3.91-1.25,8.78,1.78,11.93-.18,1.07-.39,2.15-.57,3.23-.1.75-.32,2.26-.42,3,.15,2.74.3,5.48.66,8.22l2,.44a10.62,10.62,0,0,0,.26,4.82l-2.24-.26c-.91-7-5.36-13-6.19-20.06-2.49-9.08-5.21-18.1-7.65-27.2-1-3-1.54-6.15-3-9-3.38-13.42-9.42-27-6.71-41.1.07-5.31,1-10.58,1-15.88-.75-5-.5-10.1-2-15-3.77-14.54-11-27.88-15.31-42.24-2.83-9.36-6.13-18.62-7.9-28.26-.84-4.31-1.61-8.63-2.6-12.91l.91-.8c-2.47-2.65-1.8-6.56-2.51-9.85-1-5.29.68-10.87-1.22-16a137.449,137.449,0,0,1,1.43-24.66h3.44c.11.67.32,2,.42,2.67l.16,1.66c-1.33,4.31-1.87,8.83-.37,13.17,0,.9-.08,1.8-.1,2.7L27.4,270.5c-.61,3.77-2.62,7.89-.06,11.39a6,6,0,0,0,.6,2.84c-1.94,3.91.92,7.65,2.35,11.19l2,.7c.31.93.67,1.84,1.07,2.74-.11.53-.32,1.6-.43,2.13a38.64,38.64,0,0,0,6.29,8.05l2-.9c.84-.58,1.66-1.17,2.46-1.8,2.38-3.33.63-7.45.19-11.08l-2.19.31c.2-1.88.52-3.73.87-5.58A79,79,0,0,0,43,278.42c0-.85-.08-1.69-.13-2.53,2.82-1.82,2-5.29,1.73-8.09-.33-1.87-.18-4.32-2.46-5,0-.64.12-1.92.17-2.56,1.62-4.23.78-8.89.14-13.24q-.25-1.6-.45-3.21l2.68-.9c.21-3.75.4-7.49.27-11.24v-2.72c3.83-2.69,3.45-8.24,3.89-12.4a22,22,0,0,1,.94-3.65c1.72-3.25,3.92-7.48,1.25-10.87.38-.92.77-1.83,1.18-2.73.51-.67,1.05-1.33,1.6-2,.44-3.32,3.76-7.6.45-10.28.58-1.12,1.22-2.21,1.77-3.34a25.52,25.52,0,0,0,2-12c-.15-1.2-.34-2.4-.51-3.59a11.09,11.09,0,0,0,3.09-7.17C61.33,159.75,62.08,158.61,62.81,157.46Z" fill="#d4d4d4"/>
      <path id="Path_1156" data-name="Path 1156" d="M182.46,242c.57,4,1.65,7.85,2.31,11.8a289.31,289.31,0,0,1,.18,32c-1.42-.35-2.83-.71-4.22-1.09l1.41-1.84-.32-2.59,1.81.22c.35-3.79-.36-7.53-.84-11.26l-1.36.51c-.52-5.66.26-11.35-.48-17C180.31,249.05,182.05,245.58,182.46,242Z" fill="#d4d4d4"/>
      <path id="Path_1157" data-name="Path 1157" d="M103.2,275c1.56.19,3.14.3,4.71.45.22,3.57.19,7.15.28,10.72l1.9.79a32.57,32.57,0,0,0,.06,3.42,12.44,12.44,0,0,0,.39,12.44c-.18,1-.37,1.94-.55,2.92-1.41,5-.63,10.13.55,15.05l.14.34.8,1.69L110,322a73.312,73.312,0,0,0,.13,11.09l1.89.51c-.31,1.1-.62,2.21-.86,3.33-1.4,4.16-.32,8.53.08,12.76.31,1,.67,2,1,3-2,3.35-1.19,7.4-1,11.09.42.48,1.27,1.42,1.7,1.9v2.63c-3,3-.77,7.16-.78,10.77l1.82,1.11c-.28.88-.56,1.75-.86,2.64l1,1.9c-2.75,3.37-1.27,8.56-.21,12.44.13.79.27,1.6.42,2.42-2.73,3.59-3.27,8.31-2.7,12.66l.15,2.5c-2.16,3-2.32,6.72-2.44,10.24l.56,1.41a36.933,36.933,0,0,1,.92,4.2c-3.26,3-1.51,8.08-1.6,12l1.37,1.38c.19,1,.4,2.08.63,3.13l-3.14.22c-1.44-18.11-1.42-36.3-1.32-54.46a31.24,31.24,0,0,0-1-6.51l-1.56,1.56c-.29,7-1.17,14-1,21,0,4,.87,8,.22,12-.61,4.79.14,9.72-.78,14.46l-1.65.31c.06-2.08.13-4.14.18-6.2l-1.23-.77c-.51-1.38-1-2.74-1.53-4.12l2.64-.26a39,39,0,0,1-1.19-9.92l-2.07-.24c.05-1.16.1-2.32.16-3.46a26.58,26.58,0,0,0-2-13.77c-.15-.48-.43-1.42-.58-1.9a3.2,3.2,0,0,0,1.68-3.07,32.34,32.34,0,0,0-.57-9.57l-.48-2.8,1.4-1.3.33-.08a53,53,0,0,0-.48-11.54c0-.5-.1-1.48-.13-2,.23-.46.47-.9.72-1.33a83,83,0,0,0,.33-9.72L97.33,352c0-.3-.1-.91-.14-1.21V348.1c1.12-.79,2.12-1.77,2-3.25a30.67,30.67,0,0,0-.61-9.65L98,332.66c1-1.08,2-2.24,1.83-3.8a36.26,36.26,0,0,0-.72-10.75c.39-.64.78-1.28,1.18-1.91-.21-4.27-.14-8.56-.56-12.82v-3l1.11-.07c.11-3.92,2.12-8.45-1-11.73.08-.94.17-1.86.26-2.78C101.56,282.32,101.84,278.49,103.2,275Z" fill="#d4d4d4"/>
      <path id="Path_1158" data-name="Path 1158" d="M378.3,279l2.54-1.11a41.609,41.609,0,0,1,5.22,3.44,10.21,10.21,0,0,0,1.67,4.57,45.33,45.33,0,0,0,0,14.19l2,1.4a6.11,6.11,0,0,0,.46,4.36l-2,.5c.32,3.44.74,6.88,1.17,10.31l2.07-.33a38.091,38.091,0,0,0-.07,4.78l-1.92,1c.4,4-.43,8.71,2.56,12v2.46c-2.44,4.15-.84,9.17.53,13.42.35,1.07.76,2.14,1.14,3.22-.71.77-1.4,1.55-2.09,2.34.63,3.49.54,7.27,2.68,10.3,0,.94,0,1.9.07,2.86-1.7,3.71-.76,7.85-.82,11.78l2.37.05a8.849,8.849,0,0,0,.06,4.54l-2.27,1.67a82.076,82.076,0,0,1,.83,9.67h1.15a12.571,12.571,0,0,0-1.27,4.45l-2.46.76c-1,3.55-2.83,7.16-1.95,10.95.12,1,.25,2,.37,3.06-1.28.61-2.37,1.54-2.36,3.07a21.61,21.61,0,0,0,.46,10.26c.11.81.24,1.63.4,2.46-2.93,3.38-1.3,8.32-1.65,12.4l1.59-.55c.52,2.1,1.37,4.12,2,6.2-1-.44-2-1-3-1.43-.09-1.14-.17-2.26-.24-3.38-1.29-2-.63-4.53-.86-6.79-.93-14.34-.62-28.76-2.06-43.05.05-15-.75-30-1.2-45-.23-2.33.48-5.2-1.65-6.82-.26,4.21-.18,8.45-1.16,12.58-.66,9.41-.65,18.89-1.84,28.27-.28,14-.86,28-.44,42-.83,4.75-.29,9.63-1.26,14.35l-.8-2.14-2.19.36,1.1-1.41c.13-1,.23-2,.35-3,1.32-3.75,1-7.74.74-11.63l-2.43-.29.66-4.77h1c-.24-3.78-1.42-7.41-2.36-11.05H371.1a27.334,27.334,0,0,0,.1-3.5c-.4-3.87-2-7.51-2.16-11.42l-1.82-.19q.6-1.14,1.26-2.25c-.35-1-.67-1.93-1-2.9l2.38-.59a31,31,0,0,0-.09-10.82c-.2-1.14-.41-2.27-.64-3.38,3.25-3.57,2.5-8.8,1.22-13-.15-1.08-.28-2.15-.42-3.21,4.36-2.47,2-8.47,1.67-12.44-.2-1.19-.36-2.38-.53-3.56.75-.69,1.51-1.37,2.28-2,.23-3.46.5-7-.77-10.32-.08-1.29-.15-2.58-.21-3.86a2.68,2.68,0,0,0,2.1-2.87,47.071,47.071,0,0,0,0-9.27c-.18-1.15-.38-2.28-.6-3.4l2.39-2.21a81.474,81.474,0,0,0-.53-10.71c-.16-1.3-.33-2.6-.5-3.88l2.07.2C377.54,286.72,377.89,282.87,378.3,279Z" fill="#d4d4d4"/>
      <path id="Path_1159" data-name="Path 1159" d="M99.17,441.06q1.77-1.8,2.88.43a57.171,57.171,0,0,1-1.26,6.06c-.72-1-1.43-1.89-2.15-2.83C98.87,443.51,99,442.28,99.17,441.06Z" fill="#d4d4d4"/>
      <path id="Path_1160" data-name="Path 1160" d="M373.49,449.05c.64-.32,1.29-.63,1.95-.94,0,1.78,0,3.58.05,5.38l-1.94-.19v-.59Q373.57,450.87,373.49,449.05Z" fill="#d4d4d4"/>
      <path id="Path_1161" data-name="Path 1161" d="M131.93,517.47A77.171,77.171,0,0,1,132,529c-.37-.93-.73-1.86-1.08-2.78l-1.08.11a24.44,24.44,0,0,0,.13-4v-.85H131Q131.44,519.44,131.93,517.47Z" fill="#d4d4d4"/>
      <path id="Path_1162" data-name="Path 1162" d="M384.3,2.4,386.82,0l2.5,1.77c.09.55.28,1.64.37,2.19,4.17,1.77,7.53,5.16,12.12,5.93,1,4.54,4.44,8.34,8.1,11.1a33.288,33.288,0,0,1,.59,3.86,54,54,0,0,0,2.35,11.5l2-1a18.11,18.11,0,0,0,2.29,2.88,35.193,35.193,0,0,1-.06,7.47l-.85.61c-.27,2.18-.51,4.36-.78,6.54-3.68,1.07-4,5.64-6.62,8-.74.85-1.44,1.73-2.22,2.52l-.85.79c-1,.87-2,1.7-3,2.53-.29,1.37-.59,2.73-.86,4.11-.58,2.81-1.19,5.63-1.52,8.49l-3,.78a48.461,48.461,0,0,0,1.18,10.61L400.34,92c.65.67,1.28,1.38,1.89,2.11.38.52,1.13,1.58,1.51,2.11a31.43,31.43,0,0,0,11.17,1l2.36.2,1.64,1.06a21.41,21.41,0,0,0,10.32,2.85,34.292,34.292,0,0,1,3.42.56c2.76,3.7,6.74,6.92,11.43,7.58.27.48.81,1.43,1.09,1.91a30,30,0,0,0,7.34,11.72c.32.86.62,1.73.91,2.62-.14.47-.42,1.41-.57,1.88.7,3.08,1.25,6.2,2.07,9.24l1.84.85c0,.3-.11.91-.14,1.21.2.78.43,1.56.69,2.33l-1.87,1.32a60.2,60.2,0,0,0,1.37,9.47,32.535,32.535,0,0,0,2.75,1.8l.32.88.89,1.4-1.2,2.54c1.38,3.57,1.72,7.82,4.68,10.56.12.54.35,1.62.47,2.16-2.2,4.29-.9,9.48.82,13.71-.2.89-.37,1.78-.53,2.69-.91,4.35,1,9.1,3.78,12.44-.09,1.28-.15,2.57-.18,3.86a44.049,44.049,0,0,0,1.05,10.37l1.67,1.43v3l-1.78,1.46c-.35,3.9-1.36,7.9,0,11.73-.22.87-.45,1.74-.64,2.62a31,31,0,0,0-.95,15c-3,6.39-2.29,13.76-1.61,20.59l2,2c-1.13,6.19.09,12.33.23,18.54-3.06,2.94-5.78,6.88-6.5,11.11-.65.73-1.3,1.46-1.94,2.2l-2.2.31a14.2,14.2,0,0,1-5.1,3.11l-2.44-2.45a40.575,40.575,0,0,1,2.46-3.9c1.64-2.54,3.1-5.44,3.25-8.49-1-2.57-1.85-5.3-.85-8a44.608,44.608,0,0,0-.78-10.51c-.22-1.17-.41-2.35-.59-3.51l2.17-.67c.32-3.25.89-6.47,1.13-9.73l-.54-.61-1.4-1.62v-3c-.26-3.61-1.47-7.06-2.21-10.59l-2.3-.68a51.61,51.61,0,0,0-1.66-15.59l-1.75.19.08-3.59a29.28,29.28,0,0,0-1.16-11.13l-.35-.76c-.83-1.67-1.71-3.3-2.46-5l2,.64a40.931,40.931,0,0,0-1.61-11.17,12.56,12.56,0,0,1-.5-5.34c.86-4-1-8-3.51-10.94-1.27-1.32-2.61-2.58-3.86-3.91l2.08.38a28.249,28.249,0,0,0-3.79-9.81c-1.43.22-2.84.46-4.22.77a29.454,29.454,0,0,0-1.78,3.38l-2.28.6c-1.15,2.52-2.45,5-3.55,7.5a49.787,49.787,0,0,1-1.51,7.16c-.6,3.94-1.07,8.71,1.9,11.86-.21,1.14-.43,2.27-.58,3.42a19.33,19.33,0,0,0,.89,11.34c.29.47.85,1.43,1.13,1.9a17.1,17.1,0,0,0,.09,2.14c-.13,3.73,2.13,6.85,3.45,10.18l2.68,1.41.72,2c-1.65,3.88,1,7.65,1.65,11.45l2.44,1.86c-.05.91-.09,1.82-.13,2.74a33.42,33.42,0,0,0,.63,11.24l1.52.94c0,1.31-.07,2.61-.15,3.92-.74,4.3-1.05,8.89.92,12.94l.77,2.27-1.5,1.69c-.26,3.82-.43,7.74.68,11.46a7,7,0,0,1-.68,4.71c-1.43,3-1.09,6.53-.83,9.79l.53,1.44a25.385,25.385,0,0,1,0,3.8l-1.68.63c-.61,3.87-1.4,7.79-.86,11.73l1.62.16c-.69,1.07-1.36,2.15-1.95,3.28l-1.53.91a33.239,33.239,0,0,0-1.25,11.69l-.36,2.48c-4,3.75-3.77,10.1-3.9,15.21-.79.62-1.57,1.25-2.35,1.88-1.15,3.29-2.48,6.59-2.45,10.14a6.61,6.61,0,0,1-1.51,4.09c-2.26,2.78-1.36,6.57-1.42,9.86,3.49,4.74.7,11.1,3,16.37l2.49,1.16c-1.42,5.44-1.58,11.29.77,16.52-.07.87-.13,1.77-.14,2.67a18.48,18.48,0,0,0-1.52,13.2c.16,1,.31,2,.46,3.08l-2,.62c-1,3.73-2.21,7.58-1.25,11.46,0,.46-.07,1.37-.1,1.83l-.51,1c-3.17,4.37-3.21,9.9-3.56,15.05A46.532,46.532,0,0,0,414.93,478l.63,1.88c0,1.25-.05,2.5-.1,3.76-3.21,3.05-1.6,7.91-2.07,11.82.55.29,1.66.85,2.22,1.13a4.66,4.66,0,0,1-2.14,4.31c-.17,3.86-2.31,8.6,1,11.67a14.06,14.06,0,0,1-1,5.43,19,19,0,0,0,1,9.09c3.16,2.25,1.19,6.24,2,9.39a53.545,53.545,0,0,0,2.56,5.82c1.4.44,2.85.83,4.24,1.42.35,2.53-.72,5-1.12,7.47-1.11.12-2.2.25-3.28.39-.43.44-1.29,1.31-1.71,1.75a19.9,19.9,0,0,1-6.18-1.49c-4.42-1.21-8.74.78-13.15.77a13.65,13.65,0,0,0-3-2.84c-1.09-2.66-2.09-5.35-3.34-7.94.78-1.7,1.75-3.29,2.5-5,1.24-4.15.43-8.53.45-12.77,2.84-3,1.8-7.42,1.83-11.15-.45-1.29-2.07-2.53-1.29-4,1.56-4.43,1.94-9.76-.52-13.91-.22-3.14,1.7-6,1-9.18.23-2.88-1.23-5.36-2.18-8,.14-3.7.68-7.42,0-11.1.11-1.42-1.13-2.21-2-3.05-.46-4.74,1.25-9.57-.59-14.22-.61-2.08-1.46-4.1-2-6.2l1.5-.55c-.39-3.78-.3-7.64-1.44-11.3-.16-.83-.29-1.65-.4-2.46,2.41-4,2.23-8.85,1.9-13.33-.12-1-.25-2.05-.37-3.06l2.15-1.54a45.588,45.588,0,0,0,2.26-10.17,12.57,12.57,0,0,1,1.27-4.45l1.74-.36a44.559,44.559,0,0,0-1.45-11,8.85,8.85,0,0,1-.06-4.54c.68-3.94,1-8.46-1.55-11.83,0-1-.07-1.92-.07-2.86,1.69-4.09.66-8.58-.59-12.64-.38-1.08-.79-2.15-1.14-3.22,1.81-4.19,1.87-9.45-.53-13.42v-2.46a23.92,23.92,0,0,0-.64-13,38.1,38.1,0,0,1,.07-4.78c.19-3.52.43-7.24-1.22-10.48a6.11,6.11,0,0,1-.46-4.36c.92-3.52.38-7.15-.43-10.63-2.7-3.26.24-7.38-1.16-11-1.35-2.53-5.2-5.33-7.34-2L378.3,279l-2.63.85a55.158,55.158,0,0,0-1.18,10.41l.8.11c.17,1.28.34,2.58.5,3.88-3.21,3.44-2.66,8.66-1.86,12.92.22,1.12.42,2.25.6,3.4l-1.95,1.11a75.2,75.2,0,0,0-.18,11c.06,1.28.13,2.57.21,3.86-2.7,3.53-2.49,8.26-1.51,12.37.17,1.18.33,2.37.53,3.56-2.75,3.55-2.36,8.29-1.67,12.44.14,1.06.27,2.13.42,3.21-3,3.08-1.8,7.77-1.8,11.62l.58,1.42c.23,1.11.44,2.24.64,3.38l-2.13,1a68.156,68.156,0,0,0-.16,10.4c.3,1,.62,1.93,1,2.9q-.66,1.11-1.26,2.25c-1.66,3.84-.28,10,4,11.61a27.34,27.34,0,0,1-.1,3.5c-.05.4-.14,1.19-.18,1.58.56,3.11,1.34,6.17,1.91,9.29l1.67.2-.66,4.77c-.16,4-1.38,8.7,1.69,11.92-.12,1-.22,2-.35,3l-1.1,1.41-.27.34a50.871,50.871,0,0,0-.32,10.32q.08,1.81.06,3.66c-1.77,3.53-2.35,7.45-2.92,11.32l1.84,1.05c-.1,1.22-.18,2.45-.27,3.69-1.58.77-2.88,2.06-2.63,4-1.06,4.72,1.33,9.71-1,14.17-.65,3.93-.87,8.17.68,11.94a21.18,21.18,0,0,0-.9,15.1,4.33,4.33,0,0,1-.77,4,24.14,24.14,0,0,0,1.06,9.8c3.08,3.15.07,7.4,1.32,11.14.06,2.92,2.25,5.7,1.34,8.6-2.82,4.28-8.44,3.17-12.36,5.65-1.54.37-2.65-1-3.91-1.54-4.1-.21-8.28-.26-12.1,1.43-2.81.34-1.62-3.5-1.61-5.14a13.51,13.51,0,0,0,2.05-9.33l3.7-1.42c.71-2.79,1.49-5.55,2.15-8.34-.63-1.92-1.68-4.19-.39-6.07a14.63,14.63,0,0,0,.33-14,23.62,23.62,0,0,0,1.23-13.32l-2-1.52c0-1.11-.05-2.21-.05-3.3l2-1.52c-1.2-3.7-.1-8.15-2.88-11.23-.16-.88-.35-1.74-.56-2.59l1.4-2.11c-1-3.79-.53-8.18-3.31-11.28.12-1.38.21-2.75.28-4.12.07-3.09-.79-6.09-1.18-9.12l-1.92-.86c-.27-1.52-.5-3-.7-4.55.9-4.16-.2-8.51-2-12.27-.35-.91-.63-1.83-.92-2.74a20.35,20.35,0,0,0,.19-12.33c-.31-1.28-.6-2.55-.86-3.82l1.72-2c.66-3.59,1.47-7.25.8-10.9-.06-.57-.19-1.72-.26-2.29,3.37-2.76,3-7.43,4.06-11.26l-1.64-1.93.24-2.53c2.77-2.71,1.07-6.6.23-9.76a7.34,7.34,0,0,0-2.37-3.55,11,11,0,0,1-.95-2.94c.15-4.52-1-9.37-4.34-12.61v-2.83c0-3.77-1.15-7.38-2.13-11l-2-1.14c0-1,.06-2.09.11-3.11.13-4.35.34-9.51-3-12.84.09-1.19.19-2.38.29-3.55-.05-4.15.8-9.13-2.6-12.24.12-.83.26-1.64.42-2.45,1.14-4.46,1.41-9.69-1.44-13.6.33-1.4.73-2.79,1.11-4.18.87-3.46.44-7.08.06-10.57-.38-1.24-.74-2.5-1-3.75,3.37-3.27,2-8.41,2.2-12.6-.1-1.15-.21-2.29-.35-3.43,2.87-3.44,3.06-8.17,3.28-12.43v-3.06c2.59-2.16,3.39-5.55,4.44-8.6.64-1.36-.13-2.77-.38-4.11,3.46-3.76,8-8.27,6.49-13.91q-.45-1.53-.81-3.06c3.13-3.72,2.8-8.95,1.69-13.37-.21-.87-.4-1.73-.55-2.6,3.18-2.9,2.7-8.27.8-11.68l-2.23-1.52c-.28-.83-.55-1.66-.79-2.48-.56-3.36-1.5-6.9-3.93-9.41-1-1.18-2.65-.47-3.82,0-.82.93-1.6,1.9-2.36,2.88-2.2,2.72-3.47,6-5.29,9,0,.93-.05,1.86-.06,2.8,0,1.15-.06,2.3-.1,3.46l-2.69.66c-1,4.76-1.7,9.69-.19,14.44l-1.85,1.77c-.52,3.76-1.07,7.59-.21,11.36.07.49.22,1.47.29,2-.7.69-1.38,1.39-2.07,2.08a47.828,47.828,0,0,0-1.27,11.23c0,.92,0,1.83,0,2.76-3.05,3.65-3.91,8.54-3.83,13.17,0,.8-.07,1.6-.09,2.41-4.25,2.61-4.86,8.73-3.32,13.08q-.06,1.65-.21,3.3c-.44,4.16-.6,9,2.28,12.35-.13.53-.4,1.6-.54,2.13-.09.27-.28.82-.38,1.09-1.59,3.59-1.51,7.6-1.81,11.45l.61.16,1.32,1,.2,2.66c.06,4,1.63,7.65,2.35,11.49l2.29.31c-1.6.34-3.2.6-4.8.88-.47-.76-.94-1.5-1.41-2.23-2.91-2.71-5.62-5.7-9.17-7.6-1.3-4.73-1.75-10.07-4.75-14.12,1.3-6,4.53-11.94,2.36-18.19l1.92-2.24c-.23-3.15-.56-6.28-1.05-9.39-.85-1.18-1.54-2.48-1.06-4a50.461,50.461,0,0,0,.07-12.22l-1.94-1.45c.05-.73.11-1.46.18-2.18,1.6-4,.88-8.34.74-12.51l-1.33-.17-.92-3.12c2.52-4,1.31-8.95,1.26-13.4-.06-1.19-.1-2.38-.11-3.56,3.6-2.68,3.51-7.75,4.13-11.79a27,27,0,0,1,.83-3.9l1.16-1.4a55.661,55.661,0,0,0-.6-9.66,6.48,6.48,0,0,1,.79-5.39,21.8,21.8,0,0,0,2.83-10.33l.24-2.9,1.13-1.31c2.67-2.51,2.94-6.34,3.57-9.73-.6-1-1.14-2-1.64-3,.16-2.29,2.36-3.77,2.81-6a56.15,56.15,0,0,0,1.09-8.67l-2.38.67,1.82-.72c.06-.88.16-2.64.22-3.52l2-.38c1.54-3.73,4.32-7.11,4.3-11.31l1.58-2.19,3.12-.28a66.554,66.554,0,0,1,7-5.32l.4-2.08,3.73-.58a72.843,72.843,0,0,0,9.86-2.45c.61-.85,1.22-1.69,1.85-2.53l2.64.37c3.87.92,7.89-.15,11.51-1.54l.68-2,2.37-.76,1.07-.1,2.9-.21c.67-3.94,2.26-8.18.37-12l-.85-2.1c-1.57-3.6-2.33-7.49-4-11a29.646,29.646,0,0,1-1.51-3.88c.09-2.84-2.94-3.06-4.4-4.79A24,24,0,0,0,350,54.89c-.19-.5-.57-1.52-.75-2-.92-4.1-1.93-8.19-2.64-12.34.6-.91,1.16-1.85,1.7-2.81l2.56-.23c2.2-3.56,2-7.81,1.34-11.78,0-1,.07-2,.11-3l1.53-.7a56.23,56.23,0,0,1,4.9-10.27l.86-.78,1.49-.5c3.72-.81,7-2.89,10.08-5.06.95-1.48,1.62-3.19,3-4.34A55.05,55.05,0,0,1,384.3,2.4Z" fill="#008278"/>
    </g>
  </g>
</svg>
