<svg xmlns="http://www.w3.org/2000/svg" xmlns:xlink="http://www.w3.org/1999/xlink" width="90" height="91" viewBox="0 0 90 91">
  <defs>
    <clipPath id="clip-path">
      <rect id="Rectangle_478" data-name="Rectangle 478" width="90" height="91" transform="translate(-2072 -2622)" fill="#fff" stroke="#707070" stroke-width="1"/>
    </clipPath>
  </defs>
  <g id="Mask_Group_3" data-name="Mask Group 3" transform="translate(2072 2622)" clip-path="url(#clip-path)">
    <g id="noun-anonymous-689258" transform="translate(-2072 -2627)">
      <path id="Path_4852" data-name="Path 4852" d="M57.472,5.085a34.724,34.724,0,0,0-26.35,9.325,35.135,35.135,0,0,0-11.1,24.406l-8.51,12.519a8.686,8.686,0,0,0-1.49,5.521A8.881,8.881,0,0,0,18.955,65H20v5A15.017,15.017,0,0,0,35,85H47.062l2.761,10.306,34.292-9.188-1.068-3.98a36.606,36.606,0,0,1,3.11-26.191A35,35,0,0,0,57.472,5.085ZM79.485,52.521a44.454,44.454,0,0,0-4.423,28.258L55.127,86.121,52.817,77.5H35A7.508,7.508,0,0,1,27.5,70V57.5H18.955A1.409,1.409,0,0,1,17.5,56.346a1.232,1.232,0,0,1,.21-.795l9.787-14.4V40A27.5,27.5,0,0,1,54.983,12.5q.982,0,1.974.068A27.5,27.5,0,0,1,79.485,52.521Z"/>
      <path id="Path_4853" data-name="Path 4853" d="M55.582,20.011A15,15,0,0,0,40,35h5a10,10,0,0,1,10.392-9.993,10.157,10.157,0,0,1,9.6,9.6,10.052,10.052,0,0,1-4.649,8.846A16.375,16.375,0,0,0,52.5,57.232V57.5h5v-.268a11.4,11.4,0,0,1,5.521-9.554,15,15,0,0,0-7.439-27.667Z"/>
      <rect id="Rectangle_477" data-name="Rectangle 477" width="5" height="5" transform="translate(52.5 62.5)"/>
      <text id="Created_by_Arthur_Shlain" data-name="Created by Arthur Shlain" transform="translate(0 115)" font-size="5" font-family="Arial-BoldMT, Arial" font-weight="700"><tspan x="0" y="0">Created by Arthur Shlain</tspan></text>
      <text id="from_the_Noun_Project" data-name="from the Noun Project" transform="translate(0 120)" font-size="5" font-family="Arial-BoldMT, Arial" font-weight="700"><tspan x="0" y="0">from the Noun Project</tspan></text>
    </g>
  </g>
</svg>
