<svg xmlns="http://www.w3.org/2000/svg" width="16.186" height="17.85" viewBox="0 0 16.186 17.85"><defs><style>.a{fill:#033;}</style></defs><path class="a" d="M17.845,8.238a9.205,9.205,0,0,1-.3,2,5.778,5.778,0,0,1-.776,1.753,4.1,4.1,0,0,1-1.316,1.246,3.714,3.714,0,0,1-1.922.474,2.786,2.786,0,0,1-1.39-.34,2.38,2.38,0,0,1-.939-.963A2.977,2.977,0,0,1,8.687,13.67a2.561,2.561,0,0,1-2.2-1.182,3.87,3.87,0,0,1-.547-1.37A5.907,5.907,0,0,1,5.87,9.331a8.3,8.3,0,0,1,.544-2.188A5.948,5.948,0,0,1,7.421,5.467,4.256,4.256,0,0,1,8.8,4.4a3.859,3.859,0,0,1,1.682-.374,5.23,5.23,0,0,1,1.006.086,4.118,4.118,0,0,1,.781.234,4.222,4.222,0,0,1,.647.341c.2.127.4.259.593.393L13.024,10.7a1.869,1.869,0,0,0,.014.658.921.921,0,0,0,.2.406.723.723,0,0,0,.326.212,1.209,1.209,0,0,0,1.144-.225,2.439,2.439,0,0,0,.613-.781A5.028,5.028,0,0,0,15.736,9.8a8.051,8.051,0,0,0,.181-1.461,9.338,9.338,0,0,0-.23-2.73,5.427,5.427,0,0,0-1.011-2.113,4.692,4.692,0,0,0-1.811-1.361,6.575,6.575,0,0,0-2.639-.483,5.827,5.827,0,0,0-2.61.569A5.989,5.989,0,0,0,5.633,3.795a7.569,7.569,0,0,0-1.3,2.372,10.691,10.691,0,0,0-.547,2.956,9.829,9.829,0,0,0,.279,3.016,5.447,5.447,0,0,0,1.1,2.162,4.6,4.6,0,0,0,1.867,1.3,7.162,7.162,0,0,0,2.577.431,8.825,8.825,0,0,0,1.691-.182c.279-.056.543-.123.8-.2a5.985,5.985,0,0,0,.685-.245L13.137,17a3.925,3.925,0,0,1-.766.379,7.376,7.376,0,0,1-.906.262,8.837,8.837,0,0,1-1.892.212,9.92,9.92,0,0,1-3.449-.555A6.347,6.347,0,0,1,3.61,15.641,6.942,6.942,0,0,1,2.1,12.912,11.642,11.642,0,0,1,1.68,9.123,11.555,11.555,0,0,1,2.4,5.487,9,9,0,0,1,4.151,2.6,7.959,7.959,0,0,1,6.816.692,8.343,8.343,0,0,1,10.267,0a8.71,8.71,0,0,1,3.344.6,6.5,6.5,0,0,1,2.414,1.684,6.912,6.912,0,0,1,1.432,2.6A9.95,9.95,0,0,1,17.845,8.238ZM8.266,9.331a3.794,3.794,0,0,0,.2,1.882,1.009,1.009,0,0,0,.97.636,1.072,1.072,0,0,0,.332-.061,1.185,1.185,0,0,0,.383-.23,2.042,2.042,0,0,0,.388-.468,3.6,3.6,0,0,0,.357-.792l.381-4.368a2.279,2.279,0,0,0-.593-.078,2.052,2.052,0,0,0-.987.226,1.954,1.954,0,0,0-.7.665A3.9,3.9,0,0,0,8.53,7.836,9.272,9.272,0,0,0,8.267,9.33Z" transform="translate(-1.67)"/></svg>