<svg xmlns="http://www.w3.org/2000/svg" width="446.864" height="448.222" viewBox="0 0 446.864 448.222">
  <g id="Eating_disorder-pana" data-name="Eating disorder-pana" transform="translate(-22.886 -26.658)">
    <g id="freepik--background-complete--inject-97">
      <path id="Path_128" data-name="Path 128" d="M429.86,403.77a19.22,19.22,0,0,0-2.33-14.66,20,20,0,0,0-12.24-8.72,2,2,0,0,0-1.41,0,1.92,1.92,0,0,0-.69,1.8,23.19,23.19,0,0,0,4.64,13.69,24,24,0,0,0,12,8.39" fill="#e0e0e0"/>
      <path id="Path_129" data-name="Path 129" d="M399.26,436.84c4.06,10.42,10.56,17.76,19.33,18.85,1.76.21,3.19-.81,4.87-.76a11.169,11.169,0,0,1,2.73,1.29,4.05,4.05,0,0,0,1.44.45c9.13.31,17.43-5.29,23.58-15.32,8.58-14.06,7.73-30-1.88-35.7a24.343,24.343,0,0,0-4-1.93,17.5,17.5,0,0,0-4.94-1c-3.09-.21-6.71.31-11.62,1.54l-.51.14c-7.84-4.24-14.35-4.83-20.93-2.38C396.91,405.93,393.29,421.52,399.26,436.84Z" fill="#ebebeb"/>
      <path id="Path_130" data-name="Path 130" d="M400.75,422a7.549,7.549,0,0,1-.57-3,15.62,15.62,0,0,1,1.55-7.27,15.9,15.9,0,0,1,4.74-5.79,7.87,7.87,0,0,1,2.74-1.49c.06.11-1,.66-2.43,1.86a17.669,17.669,0,0,0-4.42,5.71,17.35,17.35,0,0,0-1.69,7C400.64,420.8,400.88,422,400.75,422Z" fill="#fafafa"/>
      <path id="Path_131" data-name="Path 131" d="M402,429.12c-.19,0-.45-.7-.59-1.61s-.08-1.68.11-1.71.45.69.58,1.61S402.17,429.09,402,429.12Z" fill="#fafafa"/>
      <path id="Path_132" data-name="Path 132" d="M452.72,381.54c0,.12-2,.66-4.93,2.08a38.291,38.291,0,0,0-5,2.87,37.131,37.131,0,0,0-9.84,9.89,36,36,0,0,0-2.81,5c-1.37,3-1.87,4.92-2,4.89a5.078,5.078,0,0,1,.28-1.4,11.768,11.768,0,0,1,.48-1.6,21.847,21.847,0,0,1,.79-2.08,32,32,0,0,1,2.72-5.11,37.765,37.765,0,0,1,4.49-5.54,38.367,38.367,0,0,1,5.53-4.53,33.889,33.889,0,0,1,5.14-2.79c.76-.36,1.48-.59,2.1-.83a15.061,15.061,0,0,1,1.62-.51A5.439,5.439,0,0,1,452.72,381.54Z" fill="#e0e0e0"/>
      <path id="Path_133" data-name="Path 133" d="M292.54,38.69l2.25-7.57,13.29,4.39-3.41,8.73Z" fill="#e0e0e0"/>
      <path id="Path_134" data-name="Path 134" d="M304.79,72.71v.06l-16.38,42.71c-.72,1.87-3,3.23-6.3,3.63A27.83,27.83,0,0,1,269.28,117h-.07c-10.1-3.89-14.61-10.18-13.17-13.94l16.38-42.71a.189.189,0,0,0,0-.06.311.311,0,0,1,0-.08c1.62-4.17,6.36-7.35,11.1-10.48,3.18-2.07,5.27-6,6.3-8.42.12-.29.23-.54.32-.78l-.28-.11a2.41,2.41,0,0,1-1.62-3l.69-1.8a2.42,2.42,0,0,1,3.21-1.16l15.18,5.82a2.64,2.64,0,0,1,1.74,2.12,2.1,2.1,0,0,1-.13.89l-.69,1.8a2.43,2.43,0,0,1-3.21,1.15l-.28-.11c-.09.24-.18.5-.28.79-.83,2.47-1.93,6.81-.95,10.48,1.44,5.49,2.83,11,1.25,15.21C304.82,72.66,304.79,72.69,304.79,72.71Z" fill="#fafafa"/>
      <path id="Path_135" data-name="Path 135" d="M304.79,72.71a4.4,4.4,0,0,0,.14-.45,11.288,11.288,0,0,0,.33-1.34,17.331,17.331,0,0,0,0-5.31,68.274,68.274,0,0,0-1.82-8.3,14.37,14.37,0,0,1-.22-5.35,26.441,26.441,0,0,1,1.46-5.86l.05-.13.12.05a3,3,0,0,0,1.76.25,2.08,2.08,0,0,0,1.44-1c.25-.56.47-1.22.71-1.83a1.94,1.94,0,0,0,0-1.83,2.69,2.69,0,0,0-1.5-1.22l-2-.76-4.12-1.57-8.74-3.35a2.74,2.74,0,0,0-2.24,0,2,2,0,0,0-.83.74,9.845,9.845,0,0,0-.46,1.13c-.14.38-.32.8-.43,1.16a1.83,1.83,0,0,0,.09,1.13,2.68,2.68,0,0,0,1.76,1.53l.18.06-.07.18a28.051,28.051,0,0,1-2.55,5,15.26,15.26,0,0,1-3.94,4.2c-1.61,1.09-3.26,2.15-4.84,3.34a25.932,25.932,0,0,0-4.43,4A12.069,12.069,0,0,0,273,59.65c-.41.91-.76,1.91-1.14,2.87-.74,1.95-1.5,3.91-2.26,5.89L264.92,80.5l-8.06,21A13.549,13.549,0,0,0,256,104a5.12,5.12,0,0,0,.37,2.53,12.29,12.29,0,0,0,2.94,4.25,24,24,0,0,0,4.07,3.13,33.272,33.272,0,0,0,4.47,2.32,34.129,34.129,0,0,0,9.3,2.63,21.05,21.05,0,0,0,4.62.08,11,11,0,0,0,4.26-1.21,5.51,5.51,0,0,0,1.63-1.36,6.679,6.679,0,0,0,.91-1.9c.52-1.33,1-2.65,1.52-3.93l2.85-7.39,8.62-22.3c2-5.27,3.21-8.16,3.21-8.16a4.005,4.005,0,0,1-.18.55l-.59,1.6c-.53,1.4-1.3,3.45-2.3,6.08l-8.5,22.35-2.82,7.4c-.49,1.29-1,2.6-1.51,3.94l-.39,1a4.351,4.351,0,0,1-.56,1,5.81,5.81,0,0,1-1.74,1.45,11.61,11.61,0,0,1-4.38,1.27,21.76,21.76,0,0,1-4.7-.08,34.33,34.33,0,0,1-9.41-2.64,32.831,32.831,0,0,1-4.52-2.34,24.251,24.251,0,0,1-4.14-3.18,12.57,12.57,0,0,1-3.05-4.39,5.7,5.7,0,0,1-.39-2.72,14.617,14.617,0,0,1,.86-2.62l8-21,4.64-12.08c.76-2,1.52-4,2.26-5.89.38-1,.72-1.94,1.15-2.91a13,13,0,0,1,1.72-2.6,26.241,26.241,0,0,1,4.5-4.08c1.6-1.19,3.26-2.26,4.86-3.34a14.94,14.94,0,0,0,3.84-4.09A27.22,27.22,0,0,0,290,40.48l.11.24a3.11,3.11,0,0,1-2-1.74,2.26,2.26,0,0,1-.1-1.36c.14-.44.3-.8.45-1.2a11.4,11.4,0,0,1,.49-1.18,2.28,2.28,0,0,1,1-.88,3,3,0,0,1,2.51,0l8.74,3.36,4.11,1.59,2,.76A3,3,0,0,1,309,41.49a2.28,2.28,0,0,1,.07,2.08c-.26.62-.45,1.23-.74,1.85a2.34,2.34,0,0,1-1.64,1.12,3.22,3.22,0,0,1-1.9-.27l.17-.07c-1.44,3.93-2.07,7.83-1.29,11.06a64.576,64.576,0,0,1,1.77,8.34,17.391,17.391,0,0,1-.08,5.34,10.141,10.141,0,0,1-.37,1.33,1.89,1.89,0,0,1-.2.44Z" fill="#e0e0e0"/>
      <path id="Path_136" data-name="Path 136" d="M304,45.71a62,62,0,0,1-6.82-2.39,63.872,63.872,0,0,1-6.69-2.79,65.863,65.863,0,0,1,6.83,2.4A64.433,64.433,0,0,1,304,45.71Z" fill="#e0e0e0"/>
      <path id="Path_137" data-name="Path 137" d="M301.25,77.89c-1-1.41-3-1.71-4.71-1.58s-3.49.58-5.18.22a9.05,9.05,0,0,1-4.89-3.47,36.462,36.462,0,0,0-4-4.67,10.48,10.48,0,0,0-11-1.49L257.4,103.57s-.38,7,14.18,11.49,15.84-2.23,15.84-2.23Z" fill="#e0e0e0"/>
      <path id="Path_138" data-name="Path 138" d="M119.85,327.49l3.74-4.39a8.64,8.64,0,0,0,1.27-9.36,19.38,19.38,0,0,0-8.89-8.59,21.1,21.1,0,0,0-14.69-2,8.83,8.83,0,0,0-6.81,8.15l-.31,6.76a25.27,25.27,0,1,0,25.69,9.4Zm-19.8-10,.27-5.89a2.92,2.92,0,0,1,2.29-2.71,15.21,15.21,0,0,1,10.66,1.46,13.66,13.66,0,0,1,6.32,6,2.79,2.79,0,0,1-.47,3l-3.35,3.95a24.82,24.82,0,0,0-15.72-5.77Z" fill="#f5f5f5"/>
      <rect id="Rectangle_6" data-name="Rectangle 6" width="44.16" height="12.89" transform="translate(405.179 224.643) rotate(-19.84)" fill="#e0e0e0"/>
      <rect id="Rectangle_7" data-name="Rectangle 7" width="17.52" height="38.07" rx="1.9" transform="translate(389.706 217.382) rotate(-19.84)" fill="#e0e0e0"/>
      <path id="Path_139" data-name="Path 139" d="M417.34,247.85a2.68,2.68,0,0,0,.83-.67,1.88,1.88,0,0,0,.35-1.22,8.941,8.941,0,0,0-.55-1.7c-1-2.59-2.32-6.29-4-10.86s-3.66-10.05-5.86-16.11q-.42-1.14-.84-2.31-.21-.57-.42-1.17l-.22-.58a1.6,1.6,0,0,0-.28-.49,1.74,1.74,0,0,0-2.1-.42l-2.45.89-10.23,3.7a1.69,1.69,0,0,0-1.06,2c.28.83.61,1.72.91,2.56.62,1.71,1.22,3.39,1.82,5,1.19,3.31,2.33,6.5,3.43,9.54s2.12,5.92,3.09,8.63l1.4,3.91c.22.62.44,1.24.66,1.84.1.3.21.6.31.89a1.82,1.82,0,0,0,.46.71,1.73,1.73,0,0,0,1.52.44c.52-.14,1.08-.37,1.59-.54l2.93-1,4.69-1.66,3-1,.78-.26a.751.751,0,0,1,.27-.07l-.26.11-.76.3-2.94,1.1-4.67,1.73-2.92,1.07c-.53.18-1,.4-1.62.57a2.06,2.06,0,0,1-1.79-.5,2.1,2.1,0,0,1-.54-.83l-.33-.89-.67-1.84c-.46-1.25-.93-2.55-1.42-3.9-1-2.7-2-5.58-3.13-8.62s-2.26-6.22-3.45-9.52l-1.83-5c-.3-.86-.62-1.69-.92-2.6a2.13,2.13,0,0,1,1.33-2.5l10.23-3.68,2.46-.89a2.15,2.15,0,0,1,2.56.56,2,2,0,0,1,.35.6l.22.59.42,1.18c.28.77.55,1.54.83,2.3l5.78,16.15c1.62,4.58,2.93,8.3,3.86,10.9.11.32.21.63.31.91a2.66,2.66,0,0,1,.21.84,2,2,0,0,1-.41,1.28,1.79,1.79,0,0,1-.64.52,1.419,1.419,0,0,1-.29.01Z" fill="#ebebeb"/>
      <rect id="Rectangle_8" data-name="Rectangle 8" width="17.52" height="38.07" rx="1.9" transform="translate(439.498 199.333) rotate(-19.85)" fill="#e0e0e0"/>
      <path id="Path_140" data-name="Path 140" d="M467.12,229.88a2.24,2.24,0,0,0,.83-.67,1.85,1.85,0,0,0,.35-1.22,9.171,9.171,0,0,0-.55-1.7c-1-2.59-2.32-6.29-4-10.85s-3.66-10.06-5.87-16.12c-.28-.76-.55-1.52-.84-2.3l-.42-1.17-.22-.59a1.441,1.441,0,0,0-.28-.48,1.73,1.73,0,0,0-2.1-.42l-2.45.88-10.23,3.7a1.7,1.7,0,0,0-1.06,2c.28.82.61,1.71.91,2.56q.93,2.55,1.82,5c1.19,3.3,2.33,6.49,3.43,9.53l3.09,8.63,1.4,3.91c.22.63.44,1.24.66,1.84.1.31.21.6.32.9a1.73,1.73,0,0,0,2,1.14c.51-.14,1.07-.37,1.58-.54l2.93-1,4.69-1.65,3-1,.78-.26a1.15,1.15,0,0,1,.27-.07,1,1,0,0,1-.26.11l-.76.3-2.94,1.11-4.67,1.72-2.92,1.07c-.52.18-1,.4-1.62.57a2,2,0,0,1-2.33-1.32l-.33-.9-.67-1.83-1.42-3.91-3.13-8.61c-1.1-3-2.26-6.22-3.45-9.53l-1.83-5c-.3-.86-.62-1.68-.92-2.6a2.13,2.13,0,0,1,1.34-2.49l10.22-3.69,2.46-.88a2.15,2.15,0,0,1,2.56.55,2,2,0,0,1,.35.6l.22.6.42,1.17.83,2.3c2.17,6.08,4.13,11.55,5.78,16.15s2.94,8.3,3.86,10.9c.11.33.22.63.32.92a2.851,2.851,0,0,1,.2.84,2,2,0,0,1-.41,1.27,1.79,1.79,0,0,1-.64.52,1.42,1.42,0,0,1-.3.01Z" fill="#ebebeb"/>
      <path id="Path_141" data-name="Path 141" d="M459.38,203.6a84.9,84.9,0,0,1-7.93,3.1,81.339,81.339,0,0,1-8.08,2.68,84.9,84.9,0,0,1,7.93-3.1C455.72,204.69,459.34,203.49,459.38,203.6Z" fill="#ebebeb"/>
      <path id="Path_142" data-name="Path 142" d="M464.79,218.59a84.908,84.908,0,0,1-7.93,3.1,81.335,81.335,0,0,1-8.08,2.68,84.9,84.9,0,0,1,7.93-3.1C461.13,219.68,464.75,218.48,464.79,218.59Z" fill="#ebebeb"/>
      <path id="Path_143" data-name="Path 143" d="M409.65,221.55a83.357,83.357,0,0,1-7.93,3.09,83.959,83.959,0,0,1-8.08,2.69,81.689,81.689,0,0,1,7.93-3.1,79,79,0,0,1,8.08-2.68Z" fill="#ebebeb"/>
      <path id="Path_144" data-name="Path 144" d="M415.06,236.54a83.36,83.36,0,0,1-7.93,3.09,83.946,83.946,0,0,1-8.08,2.69,81.689,81.689,0,0,1,7.93-3.1,79,79,0,0,1,8.08-2.68Z" fill="#ebebeb"/>
      <path id="Path_145" data-name="Path 145" d="M23.53,121.96,34.3,158.87l8.88-10.37,15.39,25.37L48,130.01l-9.16,10.7Z" fill="#e0e0e0"/>
      <path id="Path_146" data-name="Path 146" d="M448.14,85.16l-3.51,33.74a5.49,5.49,0,0,0,4.23,5.92h0a5.49,5.49,0,0,0,6.52-3.85L464.73,88a4.32,4.32,0,0,0-3.49-5.44l-8.16-1.25a4.3,4.3,0,0,0-4.94,3.85Z" fill="#ebebeb"/>
      <path id="Path_147" data-name="Path 147" d="M454.55,145.09a8.26,8.26,0,1,1-3.43-11.17,8.26,8.26,0,0,1,3.43,11.17Z" fill="#ebebeb"/>
      <path id="Path_148" data-name="Path 148" d="M191.76,37.6l11.58,31.88A5.49,5.49,0,0,0,209.73,73h0a5.49,5.49,0,0,0,4.18-6.31l-6-33.71a4.32,4.32,0,0,0-5.52-3.37L194.54,32a4.31,4.31,0,0,0-2.78,5.6Z" fill="#ebebeb"/>
      <path id="Path_149" data-name="Path 149" d="M223.7,88.71a8.27,8.27,0,1,1-2.226-5.935A8.27,8.27,0,0,1,223.7,88.71Z" fill="#ebebeb"/>
    </g>
    <g id="freepik--Table--inject-97">
      <path id="Path_150" data-name="Path 150" d="M469.75,474.62c0,.14-98.39.26-219.74.26s-219.76-.12-219.76-.26,98.37-.26,219.76-.26S469.75,474.47,469.75,474.62Z" fill="#263238"/>
    </g>
    <g id="freepik--Character--inject-97">
      <path id="Path_151" data-name="Path 151" d="M361.8,220.05c-.92,3.54-1.65,5.94-1.8,6.42a34,34,0,0,0,1.8-6.42Z" fill="none"/>
      <path id="Path_152" data-name="Path 152" d="M211.75,105.94l-12.24,9.52C219.05,140.6,259,152.8,289.2,160.77l2.94-15.26C264.17,138.09,228.06,126.92,211.75,105.94Z" fill="#09877c"/>
      <path id="Path_153" data-name="Path 153" d="M369.07,191.38c-6.75-18.49-18.66-24.17-18.66-24.17,3.5,10.95,14,42.67,11.39,52.84a34,34,0,0,1-1.8,6.42v.09h0a36.831,36.831,0,0,1-5.4,9.42c-18.54,23.68-80.76,28.1-130.75,31.64-6.7.48-13,.93-19.34,1.42l1.2,15.46c6.26-.49,12.56-.94,19.24-1.41,58.54-4.16,115.12-8.88,137.9-38C373.68,231.25,374.93,207.46,369.07,191.38Z" fill="#09877c"/>
      <path id="Path_154" data-name="Path 154" d="M360,226.47v.08h0Z" fill="#09877c"/>
      <path id="Path_155" data-name="Path 155" d="M320.25,169.36c8.08,3,34.88,14,40.19,31.58a40.69,40.69,0,0,1,1.36,19.11,170.016,170.016,0,0,0,3.59-17.22,37.37,37.37,0,0,0-17.52-37.35,129.573,129.573,0,0,0-22.28-10.68c-5.85-2.14-14-4.24-23.45-6.68-3.17-.82-6.52-1.69-10-2.61l-2.94,15.26c3.14.83,6.17,1.61,9.07,2.36C307.31,165.47,315.13,167.48,320.25,169.36Z" fill="#09877c"/>
      <g id="Group_9" data-name="Group 9" opacity="0.3">
        <path id="Path_156" data-name="Path 156" d="M347.24,165.09a130,130,0,0,0-21.65-10.29c-5.85-2.14-14-4.24-23.45-6.68-3.17-.82-6.52-1.69-10-2.61l-2.94,15.26c3.14.83,6.17,1.61,9.07,2.36,9,2.34,16.86,4.35,22,6.23,8.08,3,34.21,12.53,39.52,30.11,2,6.66,3.12,14.56,2,20.58C371,191.23,365,175.8,347.24,165.09Z"/>
      </g>
      <path id="Path_157" data-name="Path 157" d="M346,250.07a13,13,0,0,1-.8-3,13.35,13.35,0,0,1-.57-3.07,7.54,7.54,0,0,1,1.08,3A7.649,7.649,0,0,1,346,250.07Z" fill="#263238"/>
      <path id="Path_158" data-name="Path 158" d="M342.25,251.31a5.41,5.41,0,0,1-1-2.46,5.53,5.53,0,0,1-.23-2.63,9.291,9.291,0,0,1,.74,2.51,9,9,0,0,1,.49,2.58Z" fill="#263238"/>
      <path id="Path_159" data-name="Path 159" d="M339,257.38a20,20,0,0,1-1.38-4.36,20.241,20.241,0,0,1-.87-4.5,40,40,0,0,1,2.25,8.86Z" fill="#263238"/>
      <path id="Path_160" data-name="Path 160" d="M357.94,240.38a42,42,0,0,1-1.37-6.1,12.26,12.26,0,0,1,1.37,6.1Z" fill="#263238"/>
      <path id="Path_161" data-name="Path 161" d="M354.47,242.6a9.21,9.21,0,0,1-1.22-5.09,23.8,23.8,0,0,1,1.22,5.09Z" fill="#263238"/>
      <path id="Path_162" data-name="Path 162" d="M351.53,249.39a20.747,20.747,0,0,1-1.37-4.36,20.2,20.2,0,0,1-.87-4.49,21,21,0,0,1,1.37,4.36,20.31,20.31,0,0,1,.87,4.49Z" fill="#263238"/>
      <path id="Path_163" data-name="Path 163" d="M334.29,255.19a6.19,6.19,0,0,1-.9-2.35,6.27,6.27,0,0,1-.39-2.48,6.19,6.19,0,0,1,.9,2.35,6.27,6.27,0,0,1,.39,2.48Z" fill="#263238"/>
      <path id="Path_164" data-name="Path 164" d="M330.57,257.44a7.9,7.9,0,0,1-1-2.6,7.63,7.63,0,0,1-.5-2.73A14.82,14.82,0,0,1,330.57,257.44Z" fill="#263238"/>
      <path id="Path_165" data-name="Path 165" d="M328.28,262.31a40.76,40.76,0,0,1-2.62-8.83,20.832,20.832,0,0,1,1.56,4.34,21.441,21.441,0,0,1,1.06,4.49Z" fill="#263238"/>
      <path id="Path_166" data-name="Path 166" d="M323.52,260.63a8.581,8.581,0,0,1-.95-2.82,8.38,8.38,0,0,1-.44-2.93,8.48,8.48,0,0,1,.94,2.81A8.579,8.579,0,0,1,323.52,260.63Z" fill="#263238"/>
      <path id="Path_167" data-name="Path 167" d="M319.6,262.06a6.68,6.68,0,0,1-1.12-2.6,6.78,6.78,0,0,1-.44-2.8,23.649,23.649,0,0,1,1.56,5.4Z" fill="#263238"/>
      <path id="Path_168" data-name="Path 168" d="M316.63,267.51a49.2,49.2,0,0,1-2.52-9.75,47.441,47.441,0,0,1,2.52,9.75Z" fill="#263238"/>
      <path id="Path_169" data-name="Path 169" d="M361.32,239.86a31.861,31.861,0,0,1-1.59-5.52,31.912,31.912,0,0,1-1.07-5.64,32.41,32.41,0,0,1,1.58,5.52,32.548,32.548,0,0,1,1.08,5.64Z" fill="#263238"/>
      <path id="Path_170" data-name="Path 170" d="M362.82,231.54a26.879,26.879,0,0,1-2-7.19,13.44,13.44,0,0,1,1.27,3.53,13.21,13.21,0,0,1,.73,3.66Z" fill="#263238"/>
      <path id="Path_171" data-name="Path 171" d="M365.35,226.52a25.632,25.632,0,0,1-1.49-4.22,26.38,26.38,0,0,1-1.24-4.3,15.32,15.32,0,0,1,1.73,4.14,15.579,15.579,0,0,1,1,4.38Z" fill="#263238"/>
      <path id="Path_172" data-name="Path 172" d="M367.88,223.66a38.935,38.935,0,0,1-2.08-5.92,37.441,37.441,0,0,1-1.58-6.06,37.321,37.321,0,0,1,2.08,5.91,37.693,37.693,0,0,1,1.58,6.07Z" fill="#263238"/>
      <path id="Path_173" data-name="Path 173" d="M369.82,201.06c-.12,0-1-2.27-2.18-5.07a19.091,19.091,0,0,1-1.7-5.26c.13,0,1,2.27,2.18,5.06a19.2,19.2,0,0,1,1.7,5.27Z" fill="#263238"/>
      <path id="Path_174" data-name="Path 174" d="M368.49,214.36a19.319,19.319,0,0,1-1.81-4,18.612,18.612,0,0,1-1.33-4.18,18.159,18.159,0,0,1,1.81,4A18.571,18.571,0,0,1,368.49,214.36Z" fill="#263238"/>
      <path id="Path_175" data-name="Path 175" d="M369.07,207.34a19,19,0,0,1-1.88-4.16,19.481,19.481,0,0,1-1.39-4.34,20.511,20.511,0,0,1,1.87,4.16,20.867,20.867,0,0,1,1.4,4.34Z" fill="#263238"/>
      <path id="Path_176" data-name="Path 176" d="M177.09,176.17C184.73,139.53,191.35,97,244.4,98.1c0,0,32.9,4.61,49.6,27.86,9.82,13.68,20.81,74.25,24.83,122.32h0c.17,2,.05,15.67.2,17.58l-139.34,18.8L168.15,286s-1.62-22.3,0-59.76C169.25,201,174.38,189.14,177.09,176.17Z" fill="#263238"/>
      <path id="Path_177" data-name="Path 177" d="M252.14,111.52l-3.47-3-35,16.23a10,10,0,0,0-8.93,10.14L211,251.33c.35,7.9,2.28,14.66,7.37,20.71l5.36,6.37c12.21,14.53,35.69,12.08,43.91-5a12.93,12.93,0,0,0,1.11-3.07,25.077,25.077,0,0,0,.39-2.63c.59-9.43.24-17.55.24-17.55.11-10.32.11-14.55.11-14.46s21.76-3.63,26.25-32c2.23-14.12.7-33.32-1.1-52.2C292.15,125.31,273.19,110.42,252.14,111.52Z" fill="#ffbf9d"/>
      <path id="Path_178" data-name="Path 178" d="M265.87,199.48a4.88,4.88,0,0,0-3.26-2.07h-.21c-3.48-.23-7.39-.49-10,.86a4,4,0,0,0-1.72,2.29,2.9,2.9,0,0,0,2.12,3.85c1.76.27,3.33-1.14,5.09-1.36a13.81,13.81,0,0,1,4.4.07c1.29.31,2.27.95,3.25.06a3,3,0,0,0,.33-3.7Z" fill="#ff9a6c"/>
      <path id="Path_179" data-name="Path 179" d="M251.29,185.45c-.06.08-1-.73-2.73-1.64a17,17,0,0,0-14.74-.57c-1.81.77-2.8,1.5-2.85,1.42a2.58,2.58,0,0,1,.66-.56,13.238,13.238,0,0,1,2-1.2,16.09,16.09,0,0,1,15.07.59,14.929,14.929,0,0,1,1.94,1.35C251.1,185.2,251.31,185.43,251.29,185.45Z" fill="#ff9a6c"/>
      <path id="Path_180" data-name="Path 180" d="M281.43,129.88a4.43,4.43,0,0,1,.56,1.66,11.643,11.643,0,0,1,.26,1.9,2.84,2.84,0,0,1-.12,1.2,1.22,1.22,0,0,1-1.16.81,1.67,1.67,0,0,1-1.23-.61,3.5,3.5,0,0,1-.58-1,5,5,0,0,1-.3-1.93,2.81,2.81,0,0,1,.46-1.71c.09,0-.14.66-.09,1.71a5.08,5.08,0,0,0,.38,1.75c.24.62.68,1.31,1.36,1.31s.85-.81.8-1.47a15.916,15.916,0,0,0-.14-1.86A8.878,8.878,0,0,1,281.43,129.88Z" fill="#fafafa"/>
      <path id="Path_181" data-name="Path 181" d="M244.06,172.16a3.64,3.64,0,0,1-3.51,3.68,3.48,3.48,0,0,1-3.75-3.28,3.64,3.64,0,0,1,3.5-3.68,3.48,3.48,0,0,1,3.76,3.28Z" fill="#263238"/>
      <path id="Path_182" data-name="Path 182" d="M283.4,172.16a3.65,3.65,0,0,1-3.51,3.68,3.49,3.49,0,0,1-3.76-3.28,3.65,3.65,0,0,1,3.51-3.68,3.49,3.49,0,0,1,3.76,3.28Z" fill="#263238"/>
      <path id="Path_183" data-name="Path 183" d="M291.28,161.06c-.45.48-3.21-1.56-7.13-1.55s-6.79,2-7.22,1.5c-.21-.21.25-1.07,1.5-2a10,10,0,0,1,5.78-1.79,9.56,9.56,0,0,1,5.67,1.83C291.09,160,291.5,160.85,291.28,161.06Z" fill="#263238"/>
      <path id="Path_184" data-name="Path 184" d="M251.06,162.08c-.5.42-3-1.89-6.94-2.28s-7,1.27-7.33.75c-.18-.23.36-1,1.7-1.82a10,10,0,0,1,5.93-1.18,9.61,9.61,0,0,1,5.46,2.4C251,161,251.3,161.89,251.06,162.08Z" fill="#263238"/>
      <path id="Path_185" data-name="Path 185" d="M266.74,189.3c0-.22,2.41-.65,6.36-1.15,1-.11,1.95-.31,2.12-1a5.976,5.976,0,0,0-.67-3c-.95-2.42-1.93-4.95-3-7.61-4.12-10.85-7.1-19.77-6.66-19.93s4.13,8.5,8.25,19.34l2.84,7.67c.38,1.13,1,2.42.52,3.92a2.53,2.53,0,0,1-1.64,1.47,7.129,7.129,0,0,1-1.7.24C269.22,189.5,266.75,189.52,266.74,189.3Z" fill="#263238"/>
      <path id="Path_186" data-name="Path 186" d="M269.48,235.67a72.24,72.24,0,0,1-38-10.11s9.58,19.65,38,17Z" fill="#ff9a6c"/>
      <path id="Path_187" data-name="Path 187" d="M234.56,150.29c.22-1.1,3.74-1,7.74-2.09s7.14-2.71,7.8-1.83c.3.43-.15,1.49-1.35,2.68a12.42,12.42,0,0,1-5.57,3,12,12,0,0,1-6.27-.05C235.34,151.54,234.48,150.81,234.56,150.29Z" fill="#263238"/>
      <path id="Path_188" data-name="Path 188" d="M277.15,146c.7-.88,3.38.1,6.63.2s6-.48,6.62.46c.27.46-.18,1.34-1.4,2.16a9.6,9.6,0,0,1-10.68-.53C277.19,147.35,276.83,146.43,277.15,146Z" fill="#263238"/>
      <path id="Path_189" data-name="Path 189" d="M208,184.56s15.29-2.12,41.05-45.86a126.489,126.489,0,0,0,13-30.84l-13.34-1.24s-38.91,13.13-39.55,13.67-8.92,20.92-8.92,20.92Z" fill="#263238"/>
      <path id="Path_190" data-name="Path 190" d="M212.82,182.47c0-2.12-2.45-7.1-4.54-7.43-5.58-.86-15.63-.4-15.71,13.76-.11,19.36,19.35,15.48,19.38,14.92S212.85,189.77,212.82,182.47Z" fill="#ffbf9d"/>
      <path id="Path_191" data-name="Path 191" d="M206.08,196.35c-.08-.06-.34.24-.91.5a3.35,3.35,0,0,1-2.52,0c-2-.76-3.74-4-3.82-7.51a11.13,11.13,0,0,1,1-4.82,3.87,3.87,0,0,1,2.56-2.57,1.7,1.7,0,0,1,2,.93c.26.54.13.93.24,1s.41-.32.26-1.12a2.21,2.21,0,0,0-.75-1.22,2.59,2.59,0,0,0-1.87-.5c-1.49.09-2.84,1.46-3.54,3a11.59,11.59,0,0,0-1.2,5.39c.1,3.9,2.08,7.57,4.88,8.39a3.63,3.63,0,0,0,3.08-.49C206.05,196.82,206.15,196.39,206.08,196.35Z" fill="#ff9a6c"/>
      <path id="Path_192" data-name="Path 192" d="M263.67,204a7.091,7.091,0,0,0-1.09-.66,5.39,5.39,0,0,0-3.38-.11c-1.43.29-3.06,1.14-5.13,1.21a4.1,4.1,0,0,1-3-1.11,2.85,2.85,0,0,1-.86-1.54,2.82,2.82,0,0,1,.29-1.8,5.341,5.341,0,0,1,1.08-1.39,4.73,4.73,0,0,1,1.43-1,8.12,8.12,0,0,1,3.11-.57h2.81a23.272,23.272,0,0,0,2.42-.08,7.19,7.19,0,0,1,3.53.5,4.379,4.379,0,0,1,.82.52c.17.15.25.23.24.25a10.807,10.807,0,0,0-1.15-.59,7.58,7.58,0,0,0-3.42-.31c-.74.06-1.56.13-2.44.14s-1.82,0-2.79,0a7.9,7.9,0,0,0-2.93.56,4.93,4.93,0,0,0-2.24,2.12,2.24,2.24,0,0,0,.45,2.74,3.66,3.66,0,0,0,2.65,1c1.9,0,3.56-.83,5.05-1.09a5.38,5.38,0,0,1,3.54.29,2.9,2.9,0,0,1,.8.57A1.015,1.015,0,0,1,263.67,204Z" fill="#263238"/>
      <path id="Path_193" data-name="Path 193" d="M180.73,255a2.744,2.744,0,0,0-.06-.46c-.06-.31-.07-.79-.12-1.38-.1-1.23-.25-3-.45-5.27-.43-4.61-1-11.23-1.81-19.4-.36-4.1-.73-8.59-1-13.43a120.652,120.652,0,0,1,0-15.45,71.9,71.9,0,0,1,1.07-8.31,60.132,60.132,0,0,1,2.18-8.46,46.55,46.55,0,0,1,8.87-16c4.14-4.81,9.3-8.34,14.34-11.41s10.1-5.78,14.57-8.87a95.72,95.72,0,0,0,21-19.55,98.4,98.4,0,0,0,10.55-16.3c1-2.06,1.8-3.66,2.28-4.78l.57-1.25c.13-.28.21-.42.21-.42s-.05.15-.16.44l-.53,1.28c-.44,1.12-1.2,2.74-2.19,4.82a96,96,0,0,1-31.5,36.16c-4.48,3.12-9.53,5.83-14.57,8.91s-10.13,6.57-14.21,11.31A46.23,46.23,0,0,0,181.05,183a60.209,60.209,0,0,0-2.17,8.39,75.612,75.612,0,0,0-1.09,8.25,121.992,121.992,0,0,0,0,15.4c.24,4.83.58,9.32.92,13.42.69,8.19,1.31,14.82,1.65,19.41.17,2.29.29,4.08.35,5.29,0,.58.05,1,.06,1.37A1.2,1.2,0,0,1,180.73,255Z" fill="#455a64"/>
      <path id="Path_194" data-name="Path 194" d="M336.77,474.62l-22.13-91.4s.33-5,5.27-23.39S315,320.5,315,320.5L306.32,262c-3.87-4-35.19-7.12-35.19-7.12s-3.32,14.26-26,16.46-35.24-16.46-35.24-16.46c-16.16-.84-35.45-.84-35.45-.84l1.36,54.44,3.53,81.32-15.27,84.85Z" fill="#455a64"/>
      <path id="Path_195" data-name="Path 195" d="M175.8,254s-27.75,2.82-27.34,40.59c.35,31.88,4,67.69,4,67.69l53.3-21.5L190.6,287.92C190.6,286.9,175.8,254,175.8,254Z" fill="#455a64"/>
      <path id="Path_196" data-name="Path 196" d="M335,287.92c-5.37-11.35-9.13-16.79-16-22-3.22-2.47-20.47-6.84-20.47-6.84v51l10.31,51,50.47-15.92S342,302.85,335,287.92Z" fill="#455a64"/>
      <path id="Path_197" data-name="Path 197" d="M302.31,301.45a4.43,4.43,0,0,1,.56.56c.35.39.88.95,1.51,1.72a64.5,64.5,0,0,1,5,6.76,70.411,70.411,0,0,1,10.11,25.7,67,67,0,0,1,1,15.24,83.771,83.771,0,0,1-1.64,12.36c-.71,3.48-1.41,6.26-1.89,8.19-.25.92-.45,1.65-.59,2.2a4.859,4.859,0,0,1-.24.76,4.182,4.182,0,0,1,.14-.78c.12-.56.28-1.3.49-2.23.43-1.94,1.07-4.73,1.73-8.21A87.885,87.885,0,0,0,320,351.4a68.429,68.429,0,0,0-1-15.12,72.28,72.28,0,0,0-9.91-25.59,76.546,76.546,0,0,0-4.83-6.84c-.61-.78-1.12-1.35-1.44-1.77a4.68,4.68,0,0,1-.51-.63Z" fill="#263238"/>
      <path id="Path_198" data-name="Path 198" d="M305.76,306a69.417,69.417,0,0,1,3.74-11.43,34.933,34.933,0,0,1-1.62,5.8,34,34,0,0,1-2.12,5.63Z" fill="#263238"/>
      <path id="Path_199" data-name="Path 199" d="M186,284c.13-.05,4.43,12.82,9.59,28.73s9.24,28.84,9.1,28.89-4.43-12.82-9.59-28.73S185.86,284,186,284Z" fill="#263238"/>
      <g id="Group_10" data-name="Group 10" opacity="0.3">
        <path id="Path_200" data-name="Path 200" d="M177.57,411.92c9.12,2.79,23.36,9,32.48,11.8,9.54,2.91,20.36,5.71,29,.81,2.27-1.28,4.37-3.09,7-3.44s5.22.89,7.64,2c21.24,9.92,48.84,9,72,5.2l-5.89-13.48-76.4-18.56-57.23,6.44Z"/>
      </g>
      <path id="Path_201" data-name="Path 201" d="M228.14,384.29s-26-13.26-32.1-14.8-25.41,2.75-25.63,7.4a64.6,64.6,0,0,0,0,7.4s-5.69,4-3.28,8.21,4.82,4.17,4.82,4.17-3.51,3.05-1.54,5.9,4,6.36,4,6.36-.84,3.72,1.44,5.25,17.83,3.95,29,3.29,16.65-2.19,16.65-2.19Z" fill="#ffbf9d"/>
      <path id="Path_202" data-name="Path 202" d="M355.18,346.42c.9,2.47,8.84,47.74,8.2,63.46-.65,16.14-9,24.56-25.35,23.07s-91.17-11.82-109.77-29.3L217.49,397,229,371.08s17.11,8.76,28.64,12.11,62.66.18,62.66.18L318.58,366l1.14-8.41h0Z" fill="#ffbf9d"/>
      <path id="Path_203" data-name="Path 203" d="M341.44,406a48.332,48.332,0,0,0-1.21-4.84A24.86,24.86,0,0,0,323.66,385a41.627,41.627,0,0,0-4.88-1.07,6.29,6.29,0,0,1,1.35,0,21.617,21.617,0,0,1,3.63.68A24.14,24.14,0,0,1,340.58,401a21.57,21.57,0,0,1,.78,3.61,6,6,0,0,1,.08,1.39Z" fill="#ff9a6c"/>
      <path id="Path_204" data-name="Path 204" d="M237.23,259.37l-26.1,95.25-7-13.15L159.8,359.34a241.893,241.893,0,0,0,11.46,26.05c19.06,36.4,44.37,38.51,60,33.58s25.56-57.53,28.93-80c3.9-26,4.53-82,4.53-82Z" fill="#ffbf9d"/>
      <path id="Path_205" data-name="Path 205" d="M206.92,396.11a11.6,11.6,0,0,1-.64-1.61,16.261,16.261,0,0,1-.62-1.95c-.19-.77-.47-1.63-.64-2.62s-.41-2.06-.52-3.24-.24-2.42-.32-3.74a55.846,55.846,0,0,1,.36-8.61,63.469,63.469,0,0,1,3.79-15.13c.35-.94.7-1.78,1-2.5s.6-1.35.86-1.85a9.609,9.609,0,0,1,.83-1.52,11.529,11.529,0,0,1-.65,1.61c-.23.51-.48,1.14-.77,1.87s-.63,1.57-.95,2.51a68.82,68.82,0,0,0-3.62,15.08,58.911,58.911,0,0,0-.4,8.52c.07,1.31.11,2.56.27,3.71s.29,2.24.46,3.22.39,1.85.55,2.62a18.63,18.63,0,0,0,.53,1.95A10.561,10.561,0,0,1,206.92,396.11Z" fill="#ff9a6c"/>
      <path id="Path_206" data-name="Path 206" d="M254.05,369.32a2.36,2.36,0,0,1,0,.56,13.219,13.219,0,0,1-.23,1.58c-.21,1.37-.56,3.35-1.07,5.78A156.7,156.7,0,0,1,247.62,396c-2.42,7.2-5.69,13.36-8.84,17.24a21.3,21.3,0,0,1-4.21,4.12,8.3,8.3,0,0,1-1.37.84,2.8,2.8,0,0,1-.5.24,2.108,2.108,0,0,1,.45-.33,12.664,12.664,0,0,0,1.3-.91,23.391,23.391,0,0,0,4-4.19,61.187,61.187,0,0,0,8.64-17.18,185.993,185.993,0,0,0,5.22-18.62c.55-2.42,1-4.38,1.23-5.74.13-.64.24-1.15.32-1.57A2.09,2.09,0,0,1,254.05,369.32Z" fill="#ff9a6c"/>
      <path id="Path_207" data-name="Path 207" d="M264.35,275.71s.69-16.12,1-22.5-10-31.43-10.22-32-1.43-8.46-1.43-8.46,2.27,1.17,4.43-1.85c1.25-1.77-.8-7.39-2.67-8.59s-5.06-.11-5.06-.11,0-3.63-5.49-3.52c0,0-.77-5.61-12.2-3.74,0,0,.11-1.43-3.3-1.21s-13.19,2.31-13.85,4.62,2.09,16,2.09,19.89.11,4.18,1.76,7.58,15,25.23,18.17,30l-3.71,15.74" fill="#ffbf9d"/>
      <path id="Path_208" data-name="Path 208" d="M233.89,271.57a1.411,1.411,0,0,1,0-.27,5.213,5.213,0,0,1,.17-.79l.69-3.08c.62-2.71,1.53-6.65,2.68-11.64v.11c-2.41-3.62-5.11-8-8.16-12.92s-6.43-10.41-9.84-16.54c-.42-.78-.78-1.57-1.16-2.39a9.37,9.37,0,0,1-.78-2.64c-.2-1.85,0-3.67-.29-5.51-.43-3.71-1.07-7.52-1.58-11.45-.13-1-.25-2-.34-3a12.429,12.429,0,0,1,0-3.11,2.39,2.39,0,0,1,1.06-1.28,8.88,8.88,0,0,1,1.38-.76,22.407,22.407,0,0,1,2.93-1.08,48.594,48.594,0,0,1,6.15-1.42,22.521,22.521,0,0,1,3.21-.35,6,6,0,0,1,1.66.2A1.54,1.54,0,0,1,233,195l-.3-.28,1.93-.25c.67,0,1.35-.1,2-.12a13.66,13.66,0,0,1,5,.74,5.37,5.37,0,0,1,3.5,3.59l-.26-.22a7.65,7.65,0,0,1,3.67.71,3.75,3.75,0,0,1,2.09,3.06l-.34-.24a9.741,9.741,0,0,1,2.61-.46,4.71,4.71,0,0,1,2.61.57,5.62,5.62,0,0,1,1.69,2,14.62,14.62,0,0,1,1,2.34,10.519,10.519,0,0,1,.51,2.48,5.09,5.09,0,0,1-.08,1.29,2.6,2.6,0,0,1-.6,1.18,5.12,5.12,0,0,1-2,1.57,3.15,3.15,0,0,1-2.52,0l.35-.25c.36,2.34.72,4.65,1.1,6.89a16.428,16.428,0,0,0,.34,1.62q.33.78.63,1.56c.42,1,.82,2.07,1.22,3.09,1.59,4.07,3.05,8,4.33,11.69s2.42,7.23,3.22,10.58c.17.84.4,1.65.5,2.48.06.41.14.81.18,1.22s0,.81,0,1.21c0,1.58-.14,3.08-.21,4.51-.29,5.71-.51,10.23-.67,13.36-.09,1.53-.15,2.72-.2,3.55,0,.39-.05.69-.06.91a1.44,1.44,0,0,1,0,.31v-1.22c0-.83.07-2,.12-3.56.13-3.13.31-7.66.54-13.36.05-1.43.11-2.93.17-4.51a9.241,9.241,0,0,0-.05-1.17c-.05-.39-.12-.79-.18-1.2-.11-.81-.35-1.61-.52-2.45-.81-3.32-2-6.82-3.25-10.53s-2.77-7.6-4.37-11.66L255.61,223l-.64-1.56a13.8,13.8,0,0,1-.37-1.71c-.39-2.25-.75-4.55-1.12-6.9l-.07-.43.42.18a2.74,2.74,0,0,0,2.12,0,4.65,4.65,0,0,0,1.76-1.43,2.67,2.67,0,0,0,.56-2.12,10.22,10.22,0,0,0-.49-2.36,12.83,12.83,0,0,0-1-2.25,5.4,5.4,0,0,0-1.52-1.84A4.21,4.21,0,0,0,253,202a9.35,9.35,0,0,0-2.46.44l-.32.1v-.34a3.25,3.25,0,0,0-1.82-2.61,7,7,0,0,0-3.42-.65h-.21l-.05-.23a4,4,0,0,0-1.16-1.93,6.62,6.62,0,0,0-2-1.24,13.23,13.23,0,0,0-4.83-.71c-.67,0-1.33.07-2,.12l-1.9.25h-.3v-.32c0-.31-.44-.66-.9-.77a5.429,5.429,0,0,0-1.51-.18,20.527,20.527,0,0,0-3.12.34,48.558,48.558,0,0,0-6.09,1.4,23.379,23.379,0,0,0-2.87,1.05,8.169,8.169,0,0,0-1.3.72,1.88,1.88,0,0,0-.86,1,12.51,12.51,0,0,0,0,2.93c.09,1,.21,2,.33,3,.5,3.93,1.14,7.73,1.56,11.46.28,1.87.09,3.77.29,5.52a15.86,15.86,0,0,0,1.87,4.88c3.37,6.09,6.78,11.59,9.77,16.55s5.69,9.33,8.06,13v.11l-2.8,11.6c-.33,1.33-.59,2.35-.76,3.07l-.21.78a1.25,1.25,0,0,1-.1.23Z" fill="#ff9a6c"/>
      <path id="Path_209" data-name="Path 209" d="M253,207.85a1.725,1.725,0,0,1,.55.65,5.11,5.11,0,0,1,.52,2,7.371,7.371,0,0,1-.14,2.8,8.1,8.1,0,0,1-.38-2.75A18,18,0,0,0,253,207.85Z" fill="#ff9a6c"/>
      <path id="Path_210" data-name="Path 210" d="M250.42,202.22a8.67,8.67,0,0,1-2.51,1.42,7.43,7.43,0,0,0-2.55,1.59,4.89,4.89,0,0,0-1.18,3.36,28.923,28.923,0,0,0,.68,6.83c.35,1.73.67,2.78.59,2.81a10.651,10.651,0,0,1-.95-2.73,24.15,24.15,0,0,1-.84-6.94,7.49,7.49,0,0,1,.34-2,4.25,4.25,0,0,1,1-1.65,7.44,7.44,0,0,1,2.76-1.6C249.43,202.69,250.38,202.15,250.42,202.22Z" fill="#ff9a6c"/>
      <path id="Path_211" data-name="Path 211" d="M244.9,198.72a4.08,4.08,0,0,1-1,.33l-2.84.7-4.21,1a3.37,3.37,0,0,0-2,1.15,4.26,4.26,0,0,0-.66,2.46c0,.91.1,1.82.16,2.71s.13,1.73.2,2.55c.11,1.59.21,3,.3,4.31s.13,2.23.15,2.92a3.889,3.889,0,0,1,0,1.07,4.13,4.13,0,0,1-.19-1.06c-.09-.68-.2-1.67-.32-2.9s-.26-2.72-.41-4.3c-.07-.82-.15-1.67-.23-2.55a26.733,26.733,0,0,1-.17-2.76,4.68,4.68,0,0,1,.77-2.75,3.77,3.77,0,0,1,2.32-1.31l4.24-.87c1.21-.24,2.19-.43,2.87-.54A4.42,4.42,0,0,1,244.9,198.72Z" fill="#ff9a6c"/>
      <path id="Path_212" data-name="Path 212" d="M238.18,228.58c0,.06-.45,0-1-.41a4.56,4.56,0,0,1-1.86-4.74c.16-.66.41-1,.47-1a7.71,7.71,0,0,0,.22,3.46,7.62,7.62,0,0,0,2.17,2.69Z" fill="#ff9a6c"/>
      <path id="Path_213" data-name="Path 213" d="M250,228.07c0,.06-.44,0-1-.45a5.57,5.57,0,0,1-1.76-2,5.64,5.64,0,0,1-.64-2.62c0-.7.16-1.11.22-1.1a7.88,7.88,0,0,0,3.2,6.2Z" fill="#ff9a6c"/>
      <path id="Path_214" data-name="Path 214" d="M230.22,230.07a2.47,2.47,0,0,1-1.07-.74,7,7,0,0,1-2-5.79c.11-.8.33-1.26.39-1.24a12.65,12.65,0,0,0,.42,4.2,12.4,12.4,0,0,0,2.26,3.57Z" fill="#ff9a6c"/>
      <path id="Path_215" data-name="Path 215" d="M233.15,194.9a8.87,8.87,0,0,1-1,.36c-.65.23-1.58.6-2.71,1.09l-1.85.82a7.621,7.621,0,0,0-1.93,1.16,5,5,0,0,0-1.91,4.47c.23,1.83.64,3.62.91,5.23s.52,3,.74,4.28.36,2.22.46,2.9a4,4,0,0,1,.1,1.08,4,4,0,0,1-.3-1c-.16-.67-.37-1.65-.62-2.87s-.54-2.69-.86-4.26-.7-3.35-.95-5.27a5.28,5.28,0,0,1,.45-2.82,6.05,6.05,0,0,1,1.67-2.07,7.94,7.94,0,0,1,2.07-1.19l1.88-.76A12.32,12.32,0,0,1,233.15,194.9Z" fill="#ff9a6c"/>
      <path id="Path_216" data-name="Path 216" d="M204.38,418.4a3.281,3.281,0,0,1-.54-.18l-1.53-.61a49.524,49.524,0,0,1-5.44-2.64,53.511,53.511,0,0,1-15.13-12.89,96.53,96.53,0,0,1-10.65-16.84c-1.17-2.26-2.08-4.12-2.69-5.41-.28-.6-.5-1.09-.69-1.49a3.068,3.068,0,0,1-.21-.53,2.25,2.25,0,0,1,.31.49q.3.57.78,1.44c.7,1.32,1.65,3.13,2.82,5.33a105.753,105.753,0,0,0,10.73,16.68,56.06,56.06,0,0,0,14.91,12.9,59.753,59.753,0,0,0,5.34,2.77l1.49.7a2.39,2.39,0,0,1,.5.28Z" fill="#ff9a6c"/>
      <path id="Path_217" data-name="Path 217" d="M208.83,205.91a5.32,5.32,0,1,1-1.555-3.778A5.34,5.34,0,0,1,208.83,205.91Z" fill="#455a64"/>
      <path id="Path_218" data-name="Path 218" d="M328.28,275.15c-4.68-9.15-8.41-19.81-10.13-34.57l-48.7.91c.47,18-3,39.39-3.42,56.3a194.161,194.161,0,0,0,49.41-1c.43-4.9-2.56-9.45-2.13-14.35,1.46,3.56,6.34,6.75,7.8,10.31,4.83-1.91,13.54-7.53,13.54-7.53C334.65,285.78,330.55,279.58,328.28,275.15Z" fill="#263238"/>
      <path id="Path_219" data-name="Path 219" d="M294.18,291.36a3,3,0,0,1-.12-.7c-.07-.51-.15-1.18-.26-2-.22-1.76-.47-4.31-.74-7.46-.53-6.32-1-15.06-.92-24.73s.66-18.42,1.29-24.72c.31-3.15.6-5.7.85-7.45.11-.84.21-1.51.28-2a3.171,3.171,0,0,1,.14-.7,6.262,6.262,0,0,1,0,.71c-.05.52-.12,1.19-.19,2-.19,1.76-.42,4.31-.69,7.47-.53,6.3-1.05,15-1.13,24.68s.33,18.39.77,24.7c.22,3.15.42,5.71.57,7.47.07.84.12,1.52.16,2A3.452,3.452,0,0,1,294.18,291.36Z" fill="#455a64"/>
      <path id="Path_220" data-name="Path 220" d="M324.13,283a.869.869,0,0,1-.14-.21l-.36-.65-1.36-2.51c-.59-1.09-1.29-2.44-2-4s-1.69-3.37-2.57-5.4-1.92-4.23-2.89-6.65-2-5-3-7.76c-2-5.51-4-11.65-5.75-18.19s-3-12.87-4-18.65c-.46-2.89-.92-5.64-1.21-8.23s-.59-5-.79-7.22-.33-4.21-.45-6-.19-3.28-.22-4.52,0-2.15-.07-2.85v-.74a2.277,2.277,0,0,1,0-.25.61.61,0,0,1,0,.25l.06.74c0,.69.1,1.64.17,2.85s.14,2.75.3,4.5.26,3.75.52,5.95.48,4.61.85,7.19.79,5.32,1.26,8.21c1,5.76,2.35,12.07,4.07,18.6s3.72,12.65,5.69,18.16c1,2.74,2,5.35,3,7.75S317.09,268,318,270s1.76,3.83,2.5,5.43,1.41,2.95,2,4.05l1.27,2.56.32.67Q324.15,283,324.13,283Z" fill="#455a64"/>
      <g id="Group_11" data-name="Group 11" opacity="0.3">
        <path id="Path_221" data-name="Path 221" d="M330.52,452.84,286,445.33l-60-6.28-51.13-9.43-3.45,4c9,12.84,41,17.86,60.83,19.21,17,1.16,33.59,2.45,50.62,2.9s38.83,1.74,51.32,13.33Z"/>
      </g>
      <path id="Path_222" data-name="Path 222" d="M122.86,366.39c.32,1.58.7,3.15,1.13,4.7a.477.477,0,0,0-.09-.33C123.66,369.85,123.29,368.35,122.86,366.39Z" fill="none"/>
      <path id="Path_223" data-name="Path 223" d="M246.89,430.29c-29.37-1.7-61-7.67-76.7-13.48-14.68-5.45-31.24-13.29-41.3-33.82a54.611,54.611,0,0,1-6-16.6c-2.33-10.62-6.31-35.28.22-58.77-5,4.61-9,13.49-11.83,27.11-4.92,23.86-1.86,42.91,4.87,57,9.53,19.89,31.08,34.38,45.67,39.22,28,9.29,53.11,12.91,84.13,14.7,41.7,2.41,88.93,7.22,109.94,26.25l9.61-10.61C339.91,438.1,293.65,433,246.89,430.29Z" fill="#09877c"/>
      <path id="Path_224" data-name="Path 224" d="M122.86,366.39c-2.57-12.61-1.6-25.87,3.26-35.05,6.09-11.49,19.34-19,22.44-19.29h-.1V294.61c-7.25,0-17.1,5.39-25.38,13C116.55,331.11,120.53,355.77,122.86,366.39Z" fill="#09877c"/>
      <g id="Group_12" data-name="Group 12" opacity="0.3">
        <path id="Path_225" data-name="Path 225" d="M122.86,366.39c-2.57-12.61-1.6-25.87,3.26-35.05,6.09-11.49,19.34-19,22.44-19.29h-.1V294.61c-5.55,0-12.62,3.16-19.34,8.05a20.67,20.67,0,0,0-7.72,12.13C116.62,335,120.76,356.84,122.86,366.39Z"/>
      </g>
      <path id="Path_226" data-name="Path 226" d="M125.13,374.72a2.789,2.789,0,0,1-.28-.66c-.16-.45-.43-1.1-.69-2a66.808,66.808,0,0,1-1.91-7.37c-.65-3.15-1.23-6.94-1.68-11.17s-.78-8.89-1.16-13.77a87.658,87.658,0,0,1-.24-13.84,48.8,48.8,0,0,1,2-11.12,40.211,40.211,0,0,1,2.92-7c.41-.8.8-1.38,1-1.79a4.069,4.069,0,0,1,.39-.61,3.39,3.39,0,0,1-.3.66c-.21.42-.57,1-.94,1.84a43.308,43.308,0,0,0-2.76,7.05,50.43,50.43,0,0,0-1.91,11,90.777,90.777,0,0,0,.28,13.77c.38,4.88.69,9.54,1.12,13.76s1,8,1.56,11.15a69.721,69.721,0,0,0,1.74,7.38c.24.87.47,1.53.6,2a6.231,6.231,0,0,1,.26.72Z" fill="#263238"/>
      <path id="Path_227" data-name="Path 227" d="M157.84,418.24a7.49,7.49,0,0,1,0-3.15,7.63,7.63,0,0,1,.76-3.06,13.311,13.311,0,0,1-.25,3.12A13.911,13.911,0,0,1,157.84,418.24Z" fill="#263238"/>
      <path id="Path_228" data-name="Path 228" d="M161.68,419.08a9.1,9.1,0,0,1,.2-2.62,9.41,9.41,0,0,1,.47-2.58,9,9,0,0,1-.67,5.2Z" fill="#263238"/>
      <path id="Path_229" data-name="Path 229" d="M165.52,424.77a19.51,19.51,0,0,1,.39-4.55,20.471,20.471,0,0,1,.91-4.49,39.77,39.77,0,0,1-1.3,9Z" fill="#263238"/>
      <path id="Path_230" data-name="Path 230" d="M144.92,409.86a7.69,7.69,0,0,1,0-3.15,7.83,7.83,0,0,1,.76-3.06,40.461,40.461,0,0,1-.72,6.21Z" fill="#263238"/>
      <path id="Path_231" data-name="Path 231" d="M148.6,411.71a8.9,8.9,0,0,1,.21-2.62,8.61,8.61,0,0,1,.47-2.58,5.62,5.62,0,0,1,0,2.65,5.47,5.47,0,0,1-.68,2.55Z" fill="#263238"/>
      <path id="Path_232" data-name="Path 232" d="M152.24,418.15a39.771,39.771,0,0,1,1.3-9,19.609,19.609,0,0,1-.39,4.56,20.459,20.459,0,0,1-.91,4.44Z" fill="#263238"/>
      <path id="Path_233" data-name="Path 233" d="M170,422.1a5.94,5.94,0,0,1,.13-2.51,6.32,6.32,0,0,1,.65-2.43A12.48,12.48,0,0,1,170,422.1Z" fill="#263238"/>
      <path id="Path_234" data-name="Path 234" d="M173.93,423.94a7.56,7.56,0,0,1,.21-2.77,7.79,7.79,0,0,1,.72-2.69,7.36,7.36,0,0,1-.21,2.78,7.44,7.44,0,0,1-.72,2.68Z" fill="#263238"/>
      <path id="Path_235" data-name="Path 235" d="M176.73,428.54a20.809,20.809,0,0,1,.58-4.57,20.561,20.561,0,0,1,1.09-4.48,41,41,0,0,1-1.67,9.05Z" fill="#263238"/>
      <path id="Path_236" data-name="Path 236" d="M181.29,426.37a8.28,8.28,0,0,1,.13-3,8.57,8.57,0,0,1,.64-2.89,8.209,8.209,0,0,1-.13,3,8.669,8.669,0,0,1-.64,2.89Z" fill="#263238"/>
      <path id="Path_237" data-name="Path 237" d="M185.33,427.38a9.54,9.54,0,0,1,.33-2.8,9.42,9.42,0,0,1,.65-2.74,6.57,6.57,0,0,1-.14,2.83A6.77,6.77,0,0,1,185.33,427.38Z" fill="#263238"/>
      <path id="Path_238" data-name="Path 238" d="M188.86,432.49a24.54,24.54,0,0,1,.48-5,25,25,0,0,1,1-4.94,23.771,23.771,0,0,1-.48,5,24.359,24.359,0,0,1-1,4.94Z" fill="#263238"/>
      <path id="Path_239" data-name="Path 239" d="M194.71,429.81a8.18,8.18,0,0,1,.12-2.93,8.33,8.33,0,0,1,.64-2.85,8.39,8.39,0,0,1-.12,2.92A8.52,8.52,0,0,1,194.71,429.81Z" fill="#263238"/>
      <path id="Path_240" data-name="Path 240" d="M198.64,430.48a19.641,19.641,0,0,1,.65-6.29,10.12,10.12,0,0,1-.06,3.17,9.56,9.56,0,0,1-.59,3.12Z" fill="#263238"/>
      <path id="Path_241" data-name="Path 241" d="M203.21,434.33a36.721,36.721,0,0,1,1.14-8.7A19.089,19.089,0,0,1,204,430,19.39,19.39,0,0,1,203.21,434.33Z" fill="#263238"/>
      <path id="Path_242" data-name="Path 242" d="M209.37,432.4a9.33,9.33,0,0,1-.06-3.07,9.17,9.17,0,0,1,.46-3.05,18.16,18.16,0,0,1-.4,6.12Z" fill="#263238"/>
      <path id="Path_243" data-name="Path 243" d="M213.75,433a17.659,17.659,0,0,1,.73-5.95,9.059,9.059,0,0,1-.11,3A8.621,8.621,0,0,1,213.75,433Z" fill="#263238"/>
      <path id="Path_244" data-name="Path 244" d="M217.77,437.27a23,23,0,0,1,.31-4.81,21.509,21.509,0,0,1,.83-4.75,44.4,44.4,0,0,1-1.14,9.56Z" fill="#263238"/>
      <path id="Path_245" data-name="Path 245" d="M223.8,434.83a10.68,10.68,0,0,1-.05-3.32,10.93,10.93,0,0,1,.46-3.3,20.83,20.83,0,0,1-.41,6.62Z" fill="#263238"/>
      <path id="Path_246" data-name="Path 246" d="M229.24,435.09a17.31,17.31,0,0,1,.56-6,9.05,9.05,0,0,1,0,3,8.81,8.81,0,0,1-.56,3Z" fill="#263238"/>
      <path id="Path_247" data-name="Path 247" d="M234,439.78a34,34,0,0,1,.27-5.21,35.064,35.064,0,0,1,.52-5.19,21.131,21.131,0,0,1,0,5.23A21.63,21.63,0,0,1,234,439.78Z" fill="#263238"/>
      <path id="Path_248" data-name="Path 248" d="M240.29,436a17.82,17.82,0,0,1,.25-6.12,9.38,9.38,0,0,1,.13,3.07,9.51,9.51,0,0,1-.38,3.05Z" fill="#263238"/>
      <path id="Path_249" data-name="Path 249" d="M246.25,436.68a9.65,9.65,0,0,1-.15-3.11,9.32,9.32,0,0,1,.37-3.1,9.69,9.69,0,0,1,.15,3.12,9.28,9.28,0,0,1-.37,3.09Z" fill="#263238"/>
      <path id="Path_250" data-name="Path 250" d="M251.64,441.54a59.592,59.592,0,0,1,1.05-11A57.369,57.369,0,0,1,251.64,441.54Z" fill="#263238"/>
      <path id="Path_251" data-name="Path 251" d="M258.54,437.6a10,10,0,0,1-.23-3.19,10.2,10.2,0,0,1,.29-3.18,10,10,0,0,1,.23,3.19A10.26,10.26,0,0,1,258.54,437.6Z" fill="#263238"/>
      <path id="Path_252" data-name="Path 252" d="M264.12,438.44a9.089,9.089,0,0,1-.05-3.36,9.25,9.25,0,0,1,.71-3.27,13.68,13.68,0,0,1-.19,3.33,14.3,14.3,0,0,1-.47,3.3Z" fill="#263238"/>
      <path id="Path_253" data-name="Path 253" d="M268.22,442a25,25,0,0,1,.29-5,23.35,23.35,0,0,1,.81-5,25,25,0,0,1-.29,5,25.338,25.338,0,0,1-.81,5Z" fill="#263238"/>
      <path id="Path_254" data-name="Path 254" d="M274.12,439.52a13.38,13.38,0,0,1,0-3.66,13.209,13.209,0,0,1,.55-3.63,13.23,13.23,0,0,1,0,3.67A12.881,12.881,0,0,1,274.12,439.52Z" fill="#263238"/>
      <path id="Path_255" data-name="Path 255" d="M279.76,439.28a9.7,9.7,0,0,1,.12-3.14,9.93,9.93,0,0,1,.63-3.07,9.52,9.52,0,0,1-.11,3.14,9.761,9.761,0,0,1-.64,3.07Z" fill="#263238"/>
      <path id="Path_256" data-name="Path 256" d="M285,443.05a28.545,28.545,0,0,1,.41-4.59,27,27,0,0,1,.65-4.55,26.53,26.53,0,0,1-1.06,9.14Z" fill="#263238"/>
      <path id="Path_257" data-name="Path 257" d="M290.69,440.45a10.431,10.431,0,0,1,.15-3.22,10.261,10.261,0,0,1,.67-3.15,9.74,9.74,0,0,1-.15,3.22,10.26,10.26,0,0,1-.67,3.15Z" fill="#263238"/>
      <path id="Path_258" data-name="Path 258" d="M296.18,441.62a10.439,10.439,0,0,1,.13-3.34A10.759,10.759,0,0,1,297,435a21.78,21.78,0,0,1-.79,6.63Z" fill="#263238"/>
      <path id="Path_259" data-name="Path 259" d="M300.24,445.65a47.948,47.948,0,0,1,1.49-9.81,23.391,23.391,0,0,1-.49,4.94,24.121,24.121,0,0,1-1,4.87Z" fill="#263238"/>
      <path id="Path_260" data-name="Path 260" d="M305.26,442.63a26.55,26.55,0,0,1,1.05-6,8.17,8.17,0,0,1-.19,3.08,7.92,7.92,0,0,1-.86,2.92Z" fill="#263238"/>
      <path id="Path_261" data-name="Path 261" d="M310.27,443.55a18.68,18.68,0,0,1,.81-6.12,9,9,0,0,1-.15,3.09A9.419,9.419,0,0,1,310.27,443.55Z" fill="#263238"/>
      <path id="Path_262" data-name="Path 262" d="M313.81,448.57a24.18,24.18,0,0,1,.49-5,24.709,24.709,0,0,1,1-4.94,24.639,24.639,0,0,1-.5,5,25.151,25.151,0,0,1-.99,4.94Z" fill="#263238"/>
      <path id="Path_263" data-name="Path 263" d="M318.48,445.31a8.37,8.37,0,0,1,.26-3,8.91,8.91,0,0,1,.78-2.9,8.88,8.88,0,0,1-.27,3,8.749,8.749,0,0,1-.77,2.9Z" fill="#263238"/>
      <path id="Path_264" data-name="Path 264" d="M323.23,446.57a8.51,8.51,0,0,1,.2-3,9.079,9.079,0,0,1,.71-2.94,9.109,9.109,0,0,1-.2,3,8.89,8.89,0,0,1-.71,2.94Z" fill="#263238"/>
      <path id="Path_265" data-name="Path 265" d="M327.66,450.09a16.592,16.592,0,0,1,.42-4.07,16.4,16.4,0,0,1,.94-4,16.589,16.589,0,0,1-.42,4.07A16.4,16.4,0,0,1,327.66,450.09Z" fill="#263238"/>
      <path id="Path_266" data-name="Path 266" d="M332.22,448.68a7.18,7.18,0,0,1,.21-2.7,7.08,7.08,0,0,1,.73-2.61,7.44,7.44,0,0,1-.21,2.7,7.15,7.15,0,0,1-.73,2.61Z" fill="#263238"/>
      <path id="Path_267" data-name="Path 267" d="M336.77,450.59a7.7,7.7,0,0,1,.31-2.82,8,8,0,0,1,.81-2.72,7.609,7.609,0,0,1-.3,2.83,8.13,8.13,0,0,1-.82,2.71Z" fill="#263238"/>
      <path id="Path_268" data-name="Path 268" d="M339,455.43a41.308,41.308,0,0,1,2.27-9,21.529,21.529,0,0,1-.88,4.58A20.816,20.816,0,0,1,339,455.43Z" fill="#263238"/>
      <path id="Path_269" data-name="Path 269" d="M344.11,454a11.089,11.089,0,0,1,.6-2.83,11.4,11.4,0,0,1,.83-2.78,6.45,6.45,0,0,1-.33,2.9A6.54,6.54,0,0,1,344.11,454Z" fill="#263238"/>
      <path id="Path_270" data-name="Path 270" d="M348.49,455.79a7.221,7.221,0,0,1,.42-2.68,7.119,7.119,0,0,1,.93-2.54A14.53,14.53,0,0,1,348.49,455.79Z" fill="#263238"/>
      <path id="Path_271" data-name="Path 271" d="M351.13,459.88a16.784,16.784,0,0,1,1.22-3.44,17.2,17.2,0,0,1,1.49-3.34,17.65,17.65,0,0,1-2.71,6.78Z" fill="#263238"/>
      <path id="Path_272" data-name="Path 272" d="M139.31,411a64.181,64.181,0,0,1,1.47-11.39A64.181,64.181,0,0,1,139.31,411Z" fill="#263238"/>
      <path id="Path_273" data-name="Path 273" d="M136.23,403.2a13.83,13.83,0,0,1,.38-3.73,13.57,13.57,0,0,1,.89-3.63,27.15,27.15,0,0,1-1.27,7.36Z" fill="#263238"/>
      <path id="Path_274" data-name="Path 274" d="M132.71,398.07a9.07,9.07,0,0,1,.29-3.27,8.71,8.71,0,0,1,1-3.11,12.349,12.349,0,0,1-.52,3.22,12.869,12.869,0,0,1-.77,3.16Z" fill="#263238"/>
      <path id="Path_275" data-name="Path 275" d="M128.85,398.07a31.861,31.861,0,0,1,.83-5.68A32.4,32.4,0,0,1,131,386.8a32,32,0,0,1-.83,5.69A32.429,32.429,0,0,1,128.85,398.07Z" fill="#263238"/>
      <path id="Path_276" data-name="Path 276" d="M126,390.39a18.179,18.179,0,0,1,.88-4.3,18.621,18.621,0,0,1,1.38-4.16,37.05,37.05,0,0,1-2.26,8.46Z" fill="#263238"/>
      <path id="Path_277" data-name="Path 277" d="M351.13,468.65l7.46-12.86,8.5,6.43-11.03,11.22Z" fill="#e0e0e0"/>
    </g>
    <g id="freepik--weighing-machine--inject-97">
      <path id="Path_278" data-name="Path 278" d="M354.72,359.77a62.22,62.22,0,0,1-14.13-37.41l-10.66-8.53,11.92-6.33a62.46,62.46,0,1,1,12.87,52.27Z" fill="#fff"/>
      <path id="Path_279" data-name="Path 279" d="M354.72,359.77s.25.26.7.77,1.11,1.32,2.06,2.27a61.66,61.66,0,0,0,8.83,7.77,63,63,0,0,0,16.48,8.51,62.259,62.259,0,1,0-40.74-71.51v.09h-.09L330,314v-.31l10.64,8.54h.06v.08a62.419,62.419,0,0,0,8,28.57,70.761,70.761,0,0,0,4.32,6.66l1.24,1.62c.28.37.41.56.41.56s-.16-.17-.44-.53-.73-.9-1.28-1.6a64.741,64.741,0,0,1-4.4-6.63,62,62,0,0,1-8.17-28.64l.06.12L329.82,314l-.22-.18.25-.13,11.9-6.35-.1.14a62.956,62.956,0,1,1,24.62,63.29,60.863,60.863,0,0,1-8.78-7.86C355.58,360.9,354.72,359.77,354.72,359.77Z" fill="#263238"/>
      <path id="Path_280" data-name="Path 280" d="M360.39,270.91c-3.73,18.93-10.11,51.94-13.56,69.87a13.79,13.79,0,0,0,9.81,15.89l72.06,20.25a13.79,13.79,0,0,0,16.84-9L468.15,299a13.78,13.78,0,0,0-9.62-17.65L377.41,260.2a13.79,13.79,0,0,0-17.02,10.71Z" fill="#455a64"/>
      <path id="Path_281" data-name="Path 281" d="M394.37,276.81c.26.34,7.58,14.55,7.58,14.55s10.07-3.43,20.36,5.26l15.06-9s-6.19-9.4-22.32-12.68C402,272.25,394.37,276.81,394.37,276.81Z" fill="#fff"/>
      <path id="Path_282" data-name="Path 282" d="M422.25,297.26,422,297c-9.94-8.41-19.75-5.2-19.85-5.16l-.43.14-.2-.4c-2.88-5.59-7.27-14.06-7.55-14.5l-.29-.45.45-.29c.32-.19,7.92-4.64,21-2,16.16,3.28,22.4,12.51,22.65,12.91l.3.45ZM407,290.19A24,24,0,0,1,422.36,296l14.24-8.55c-1.46-1.88-7.94-9.23-21.66-12-11-2.23-18.06.73-19.85,1.61,1.18,2.19,5.45,10.45,7.13,13.72a19.169,19.169,0,0,1,4.78-.59Z" fill="#263238"/>
      <path id="Path_283" data-name="Path 283" d="M401.87,274.49a9.3,9.3,0,0,1,.76,2.5c.35,1.41.39,2.62.22,2.63a9.349,9.349,0,0,1-.75-2.5C401.75,275.72,401.7,274.5,401.87,274.49Z" fill="#263238"/>
      <path id="Path_284" data-name="Path 284" d="M404.44,277c-.14.05-.47-.54-.61-1.35s0-1.49.12-1.49.28.63.42,1.39S404.59,277,404.44,277Z" fill="#263238"/>
      <path id="Path_285" data-name="Path 285" d="M406.35,276.89c-.15,0-.38-.64-.52-1.48s-.12-1.55,0-1.58.38.64.52,1.49S406.5,276.87,406.35,276.89Z" fill="#263238"/>
      <path id="Path_286" data-name="Path 286" d="M408,276.92c-.15,0-.32-.67-.39-1.52s0-1.55.14-1.57.33.67.4,1.53S408.16,276.91,408,276.92Z" fill="#263238"/>
      <path id="Path_287" data-name="Path 287" d="M409.87,276.83c-.15,0-.27-.64-.26-1.43s.14-1.42.29-1.41.26.63.26,1.42S410,276.83,409.87,276.83Z" fill="#263238"/>
      <path id="Path_288" data-name="Path 288" d="M411.76,277.18c-.15,0-.18-.7-.14-1.54s.13-1.51.28-1.52.3.69.26,1.55S411.91,277.2,411.76,277.18Z" fill="#263238"/>
      <path id="Path_289" data-name="Path 289" d="M413.63,277.53c-.15,0-.2-.67-.11-1.43s.28-1.37.43-1.36.2.64.11,1.42S413.78,277.55,413.63,277.53Z" fill="#263238"/>
      <path id="Path_290" data-name="Path 290" d="M416.06,280.64a13.07,13.07,0,0,1,1.49-5.14,6.8,6.8,0,0,1-.49,2.65,7,7,0,0,1-1,2.49Z" fill="#263238"/>
      <path id="Path_291" data-name="Path 291" d="M415.25,277.67c-.15,0-.17-.62-.11-1.33s.16-1.29.31-1.3.29.6.23,1.34S415.39,277.69,415.25,277.67Z" fill="#263238"/>
      <path id="Path_292" data-name="Path 292" d="M428.39,286.26c-.12-.09.44-1.07,1.36-2.11s1.82-1.72,1.92-1.61-.61,1-1.51,2S428.51,286.35,428.39,286.26Z" fill="#263238"/>
      <path id="Path_293" data-name="Path 293" d="M398.08,278.5c-.14.06-.56-.54-.95-1.35s-.59-1.52-.46-1.59.56.54.95,1.35S398.21,278.43,398.08,278.5Z" fill="#263238"/>
      <path id="Path_294" data-name="Path 294" d="M400.35,277.78c-.13.06-.54-.47-.81-1.23s-.32-1.43-.17-1.47.41.55.68,1.28S400.49,277.71,400.35,277.78Z" fill="#263238"/>
      <path id="Path_295" data-name="Path 295" d="M427.71,283.73c-.09-.11.45-.73,1.13-1.47s1.27-1.32,1.39-1.24-.28.85-1,1.61S427.8,283.86,427.71,283.73Z" fill="#263238"/>
      <path id="Path_296" data-name="Path 296" d="M426.18,282.59c-.12-.1.26-.69.83-1.33s1.13-1.07,1.25-1-.27.7-.84,1.34S426.29,282.7,426.18,282.59Z" fill="#263238"/>
      <path id="Path_297" data-name="Path 297" d="M424.76,281.71c-.12-.09.21-.71.73-1.39s1.05-1.15,1.17-1.06-.21.71-.74,1.39S424.88,281.8,424.76,281.71Z" fill="#263238"/>
      <path id="Path_298" data-name="Path 298" d="M423.26,280.62c-.13-.08.11-.68.53-1.34s.86-1.14,1-1.06-.11.69-.53,1.35S423.38,280.7,423.26,280.62Z" fill="#263238"/>
      <path id="Path_299" data-name="Path 299" d="M421.47,279.89c-.13-.06.06-.75.49-1.49s.94-1.24,1.07-1.15-.17.71-.6,1.43S421.61,280,421.47,279.89Z" fill="#263238"/>
      <path id="Path_300" data-name="Path 300" d="M419.73,279.16c-.14-.05,0-.67.37-1.38s.74-1.21.87-1.13,0,.69-.38,1.38S419.86,279.22,419.73,279.16Z" fill="#263238"/>
      <path id="Path_301" data-name="Path 301" d="M418.54,278.51c-.14,0-.16-.65.06-1.36s.56-1.22.7-1.17,0,.64-.18,1.33S418.69,278.53,418.54,278.51Z" fill="#263238"/>
      <path id="Path_302" data-name="Path 302" d="M431.23,285.76c-.08-.13.41-.55,1-1s1.16-.81,1.27-.7-.29.65-.94,1.14S431.3,285.89,431.23,285.76Z" fill="#263238"/>
      <path id="Path_303" data-name="Path 303" d="M433,287.36c-.08-.13.4-.55,1-1s1.16-.81,1.27-.7-.29.65-.94,1.13S433.09,287.49,433,287.36Z" fill="#263238"/>
      <path id="Path_304" data-name="Path 304" d="M415,284.72c-.23.2-4.83,6.21-4.83,6.21l6.34,1.93Z" fill="#09877c"/>
      <g id="Group_13" data-name="Group 13" opacity="0.3">
        <path id="Path_305" data-name="Path 305" d="M384.53,266.24l23.1,42.33,44.86-24.73,7.37,1.94a9.14,9.14,0,0,1,6.29,11.89l-23.08,65.1a14.07,14.07,0,0,1-17.26,9.29c-18.32-5.2-51.12-14.43-67.45-18.47-5.69-1.41-9.59-8.9-8.44-14.65l12.84-64.44a12.41,12.41,0,0,1,16-10.07Z"/>
      </g>
    </g>
    <g id="freepik--healthy-food--inject-97">
      <path id="Path_306" data-name="Path 306" d="M371.58,191.71a68.19,68.19,0,0,1-40-17.94l-14.88,1.69L321,161.3a68.53,68.53,0,1,1,50.62,30.41Z" fill="#fff"/>
      <path id="Path_307" data-name="Path 307" d="M371.58,191.71h1.15c.76,0,1.88.17,3.36.16a68.113,68.113,0,0,0,12.87-.85,73.848,73.848,0,0,0,9.08-2.13,71.88,71.88,0,0,0,10.29-4.1,68.333,68.333,0,1,0-87.21-23.65l.05.08v.08l-4.3,14.16-.19-.22,14.88-1.68h.07v.05a68.34,68.34,0,0,0,28.43,15.87,74.924,74.924,0,0,0,8.53,1.79l2.22.29c.5.06.75.11.75.11l-.75-.07-2.24-.24a71.639,71.639,0,0,1-8.55-1.71,68.13,68.13,0,0,1-28.6-15.81h.12l-14.87,1.72h-.27l.08-.26,4.27-14.17v.16A68.423,68.423,0,1,1,389,191.27a66.1,66.1,0,0,1-12.91.76c-1.48,0-2.6-.17-3.36-.21Z" fill="#263238"/>
      <path id="Path_308" data-name="Path 308" d="M332.94,93s12.49,1.42,19.37,9.43,8.7,13.93,8.7,13.93,4.18.16,9.82-3.36a20.8,20.8,0,0,0,7.64-7.85s-3.48-3.06-9.28-12.35-.62-22.06-.62-22.06l-6.31-.82s-2.72,10-2.57,16.72L352,74.32l-8.35,5.21,8.09,12.94c-6.53-4.68-15.7-5.55-15.7-5.55Z" fill="#455a64"/>
      <g id="Group_14" data-name="Group 14" opacity="0.3">
        <path id="Path_309" data-name="Path 309" d="M332.94,93s12.49,1.42,19.37,9.43,8.7,13.93,8.7,13.93,4.18.16,9.82-3.36a20.8,20.8,0,0,0,7.64-7.85s-3.48-3.06-9.28-12.35-.62-22.06-.62-22.06l-6.31-.82s-2.72,10-2.57,16.72L352,74.32l-8.35,5.21,8.09,12.94c-6.53-4.68-15.7-5.55-15.7-5.55Z"/>
      </g>
      <path id="Path_310" data-name="Path 310" d="M333.3,101.62c-7.43,5.85-16.17,3.16-19.24-3.91-2.87,1.29-12.38.49-15.26-8-2.44-7.19,3.12-14,9-16.11a14.74,14.74,0,0,1-1-16.76,15.32,15.32,0,0,1,15.69-6.65A18.68,18.68,0,0,1,334.4,33.11a18.32,18.32,0,0,1,20,5.24c2.18-5.71,9.52-8.92,15.15-6.62s8.42,9.65,5.77,15.17a12.27,12.27,0,0,1,12,7.55,12.48,12.48,0,0,1-3.71,13.76c-4,3.25-8.94,4.26-13.22,1.59-1.08,3.24-5.29,5.14-8.69,5.47a8.82,8.82,0,0,1-8.47-4.5c.46,4.33-2.29,8.31-5.75,11.08s-6.32,2.46-11.62,1.21C340,91,339.66,96.62,333.3,101.62Z" fill="#455a64"/>
      <g id="Group_15" data-name="Group 15" opacity="0.3">
        <path id="Path_311" data-name="Path 311" d="M356.53,52.82c-.07,0-.43-.43-1.25-1.1a9.49,9.49,0,0,0-4-1.83,8.61,8.61,0,0,0-10.51,7.54,8.34,8.34,0,0,0,.59,4.47l.57,1.3-1.18-.79a6.83,6.83,0,0,0-6-.65,6.61,6.61,0,0,0-3.66,3.3,8.59,8.59,0,0,0-.75,4.49,2.55,2.55,0,0,1-.32-1.22,6.93,6.93,0,0,1,.59-3.49,7,7,0,0,1,3.9-3.74,7.52,7.52,0,0,1,6.71.63l-.61.52a9,9,0,0,1-.68-4.91,9.81,9.81,0,0,1,4.6-7.11,9.57,9.57,0,0,1,6.89-.92,9,9,0,0,1,4.1,2.17,4,4,0,0,1,1.01,1.34Z"/>
      </g>
      <g id="Group_16" data-name="Group 16" opacity="0.3">
        <path id="Path_312" data-name="Path 312" d="M313.27,94c-.08,0-.53-.46-.76-1.51a6.09,6.09,0,0,1,.65-4.07,6.32,6.32,0,0,1,3-2.86c1-.41,1.7-.34,1.7-.25s-.6.28-1.43.78a7.08,7.08,0,0,0-2.55,2.71,6.88,6.88,0,0,0-.8,3.6C313.16,93.31,313.39,93.89,313.27,94Z"/>
      </g>
      <path id="Path_313" data-name="Path 313" d="M407,78.82a11.41,11.41,0,0,0,.83-8.76,11.8,11.8,0,0,0-5.74-6.82,1.21,1.21,0,0,0-.82-.19c-.39.1-.56.55-.66.94a13.82,13.82,0,0,0,.64,8.54,14.22,14.22,0,0,0,5.63,6.59" fill="#455a64"/>
      <path id="Path_314" data-name="Path 314" d="M384.53,93.29c.79,6.58,3.44,11.77,8.32,13.69,1,.38,1.94,0,2.91.29a6.321,6.321,0,0,1,1.37,1.14,2.5,2.5,0,0,0,.76.47c5.2,1.53,10.8-.46,15.82-5.31,7-6.81,8.88-16.11,4.2-20.79a14.909,14.909,0,0,0-2-1.69,10.34,10.34,0,0,0-2.69-1.31,22.58,22.58,0,0,0-6.91-.84H406c-3.87-3.6-7.53-4.9-11.67-4.47C387.76,75.19,383.37,83.61,384.53,93.29Z" fill="#09877c"/>
      <path id="Path_315" data-name="Path 315" d="M387.59,85a4.279,4.279,0,0,1,.12-1.82,9.3,9.3,0,0,1,2-4,9.5,9.5,0,0,1,3.58-2.62,4.6,4.6,0,0,1,1.8-.45c0,.07-.67.23-1.68.71A10.34,10.34,0,0,0,390,79.47a10.16,10.16,0,0,0-2,3.75C387.69,84.28,387.66,85,387.59,85Z" fill="#fafafa"/>
      <path id="Path_316" data-name="Path 316" d="M387.23,89.26c-.11,0-.15-.47-.09-1s.2-1,.31-1,.16.47.1,1S387.35,89.27,387.23,89.26Z" fill="#fafafa"/>
      <path id="Path_317" data-name="Path 317" d="M423.42,69.43c0,.08-1.22.1-3.14.47a23.509,23.509,0,0,0-3.29.91,24.86,24.86,0,0,0-3.76,1.78A23.891,23.891,0,0,0,409.87,75a22.639,22.639,0,0,0-2.35,2.43C406.3,79,405.72,80,405.65,80a4,4,0,0,1,.37-.76,9,9,0,0,1,.51-.85c.22-.32.45-.7.76-1.08a20,20,0,0,1,2.33-2.53A22.117,22.117,0,0,1,413,72.24a23,23,0,0,1,3.85-1.78,20.14,20.14,0,0,1,3.37-.84c.48-.1.93-.12,1.32-.17a9.816,9.816,0,0,1,1,0A4.781,4.781,0,0,1,423.42,69.43Z" fill="#263238"/>
      <path id="Path_318" data-name="Path 318" d="M383.72,136.8c3-3.21,4.64-9.22,5.29-13.59a21.88,21.88,0,0,0-2.07-12.91,1.23,1.23,0,0,0-.6-.68,1.27,1.27,0,0,0-.94.17,15.6,15.6,0,0,0-1.68,27" fill="#455a64"/>
      <path id="Path_319" data-name="Path 319" d="M393.31,125.42c3.24-.81,6.7-4,8.89-6.52a16.57,16.57,0,0,0,3.92-9.06.718.718,0,0,0-.78-.95,11.79,11.79,0,0,0-12,16.53" fill="#455a64"/>
      <path id="Path_320" data-name="Path 320" d="M391.65,136.47a6.37,6.37,0,0,0-2.1-6.09,9.5,9.5,0,0,0-6.26-2.2,10.37,10.37,0,0,0-5.68,1.51,7.07,7.07,0,0,0-1,11.48,10,10,0,0,0,6.85,2.51,8.21,8.21,0,0,0,5.75-2.1c1.5-1.46,2.64-3.46,2.47-5.11" fill="#09877c"/>
      <path id="Path_321" data-name="Path 321" d="M413.32,142.68c8.49,1.53,16.94-7.89,19-14a1.65,1.65,0,0,0-2.08-2.43,19.86,19.86,0,0,0-16.91,16.46" fill="#455a64"/>
      <path id="Path_322" data-name="Path 322" d="M422.88,138a6.36,6.36,0,0,0-2.1-6.1,9.55,9.55,0,0,0-6.26-2.19,10.37,10.37,0,0,0-5.68,1.51,7.08,7.08,0,0,0-1,11.48,10,10,0,0,0,6.85,2.51,8.21,8.21,0,0,0,5.75-2.1c1.5-1.47,2.64-3.46,2.47-5.11" fill="#09877c"/>
      <path id="Path_323" data-name="Path 323" d="M360.69,124.68a6.36,6.36,0,0,0-2.1-6.1,9.55,9.55,0,0,0-6.26-2.19,10.37,10.37,0,0,0-5.68,1.51,7.08,7.08,0,0,0-1,11.48,10,10,0,0,0,6.85,2.51,8.2,8.2,0,0,0,5.75-2.1c1.5-1.47,2.64-3.46,2.47-5.11" fill="#09877c"/>
      <path id="Path_324" data-name="Path 324" d="M379,139.82c-.07-4.43-3.12-9.84-5.71-13.42a21.86,21.86,0,0,0-10.5-7.79,1.31,1.31,0,0,0-.91-.07,1.28,1.28,0,0,0-.55.78A15.61,15.61,0,0,0,379,139.82" fill="#455a64"/>
      <path id="Path_325" data-name="Path 325" d="M348,132.19a41,41,0,0,1-4.48-6.25,13.89,13.89,0,0,1-1.9-7.36,1,1,0,0,1,1.49-1.1A23.5,23.5,0,0,1,361.35,138l.24,1.27a18.19,18.19,0,0,1-13.44,2,28.25,28.25,0,0,1-10.37-4.1,14.86,14.86,0,0,1-6.31-9A20.09,20.09,0,0,1,348,132.19Z" fill="#455a64"/>
      <path id="Path_326" data-name="Path 326" d="M401,124.75c4-4.08,9.51-6.31,15.06-7.61a21.41,21.41,0,0,1-19,23.89l-.33-.61C394.84,135.05,397,128.83,401,124.75Z" fill="#455a64"/>
      <path id="Path_327" data-name="Path 327" d="M430.36,136.62s-4.17,18.6-17.08,34.45c-18.87,23.18-61.35,16.68-72.9-1.48-4.44-7-16.18-32.85-16.18-32.85Z" fill="#fff"/>
      <path id="Path_328" data-name="Path 328" d="M430.36,136.62h-8.12l-22.35.12-75.66.23.29-.44c3.44,7.53,7.07,15.32,11,23.19q1.51,3,3.11,6a30.651,30.651,0,0,0,3.59,5.57,31,31,0,0,0,10,8,54.21,54.21,0,0,0,23.6,6.16,52.81,52.81,0,0,0,21.8-3.45,39.7,39.7,0,0,0,15.57-11.2,92.7,92.7,0,0,0,13.91-24.39c1.21-3.11,2-5.57,2.51-7.25l.75-2.57a67.511,67.511,0,0,1-3,9.91,91.189,91.189,0,0,1-13.79,24.59,40.06,40.06,0,0,1-15.72,11.4,53.06,53.06,0,0,1-22,3.65,54.71,54.71,0,0,1-23.88-6.2,31.73,31.73,0,0,1-10.24-8.18,31.312,31.312,0,0,1-3.65-5.67q-1.605-3-3.12-6c-3.92-7.88-7.54-15.67-11-23.21l-.21-.45h.49l75.9.07,22.27.06h6Z" fill="#263238"/>
      <path id="Path_329" data-name="Path 329" d="M423.38,153.94c0,.18-20.38.3-45.52.27s-45.52-.19-45.52-.37,20.38-.3,45.52-.27S423.38,153.76,423.38,153.94Z" fill="#09877c"/>
      <path id="Path_330" data-name="Path 330" d="M425.22,151.32c0,.18-21.11.3-47.14.27s-47.14-.19-47.14-.37,21.11-.3,47.14-.27S425.22,151.15,425.22,151.32Z" fill="#09877c"/>
    </g>
    <g id="freepik--Sport--inject-97">
      <path id="Path_331" data-name="Path 331" d="M178.71,96.74a55,55,0,0,1-11.31,33.49L169.9,142l-11.69-2.36a55.21,55.21,0,1,1,20.5-42.94Z" fill="#fff"/>
      <path id="Path_332" data-name="Path 332" d="M178.71,96.74a9.071,9.071,0,0,0-.07-.92c-.07-.61-.1-1.52-.17-2.7,0-.6-.07-1.26-.11-2s-.24-1.51-.37-2.37-.28-1.79-.44-2.78-.5-2-.77-3.1l-.44-1.68-.23-.88c-.11-.28-.22-.57-.32-.87-.44-1.17-.89-2.4-1.37-3.69a56.379,56.379,0,0,0-4.12-7.92,55.69,55.69,0,0,0-14.77-15.78l-1.22-.91-1.32-.8-2.67-1.62a11.13,11.13,0,0,0-1.41-.75l-1.44-.69c-1-.45-1.94-1-3-1.38l-3.13-1.14-1.59-.57-1.65-.42-3.35-.86c-1.15-.22-2.31-.36-3.48-.55a55.17,55.17,0,0,0-29.6,3.92,57.62,57.62,0,0,0-13.82,8.64c-1,.93-2.06,1.88-3.11,2.82s-1.9,2.09-2.86,3.13a36.347,36.347,0,0,0-2.66,3.36L78,66l-1.13,1.85L75.7,69.67c-.19.31-.38.62-.56.94l-.48,1c-.62,1.32-1.29,2.63-1.88,4l-1.53,4.16a19.442,19.442,0,0,0-.62,2.14L70.07,84a57.12,57.12,0,0,0-1.26,18.07A59.871,59.871,0,0,0,73,118.4a58.391,58.391,0,0,0,8.65,13.9l2.71,3c.93,1,2,1.82,2.93,2.72.5.44,1,.91,1.48,1.32l1.59,1.18,1.57,1.18.78.59c.27.18.56.34.84.51l3.32,2c1.11.65,2.3,1.14,3.44,1.72l1.72.83c.59.23,1.19.44,1.78.66,1.19.43,2.36.89,3.54,1.28l3.61.93c.6.14,1.19.34,1.8.43l1.81.28c1.21.17,2.4.39,3.6.52l3.59.18a51.941,51.941,0,0,0,13.8-1.22,55.23,55.23,0,0,0,22.54-10.88l.08-.06h.08l11.69,2.37-.2.21c-.89-4.22-1.72-8.14-2.49-11.8v-.13a55.24,55.24,0,0,0,10.56-24,62,62,0,0,0,.78-7,14.8,14.8,0,0,1,.06-1.81,1.535,1.535,0,0,0,0-.61v2.42a57.207,57.207,0,0,1-.71,7,54.8,54.8,0,0,1-10.47,24.17v-.13l2.52,11.8.06.26h-.27l-11.69-2.34h.16a55.54,55.54,0,0,1-22.69,11,52.35,52.35,0,0,1-13.91,1.26l-3.62-.18c-1.21-.13-2.42-.35-3.64-.52l-1.83-.28c-.61-.09-1.2-.29-1.81-.43l-3.64-.94c-1.19-.39-2.38-.85-3.58-1.28-.59-.22-1.2-.43-1.79-.67l-1.74-.83c-1.15-.58-2.35-1.08-3.47-1.73l-3.36-2c-.28-.17-.56-.33-.84-.52l-.79-.59L90,140.9l-1.6-1.19c-.52-.41-1-.89-1.5-1.33-1-.91-2-1.77-3-2.74l-2.74-3a58.75,58.75,0,0,1-8.73-14,59.81,59.81,0,0,1-4.22-16.44,57.9,57.9,0,0,1,1.28-18.24l.56-2.19a18.358,18.358,0,0,1,.63-2.16l1.54-4.2c.6-1.36,1.28-2.68,1.91-4l.48-1c.18-.32.38-.63.57-.94l1.14-1.88,1.14-1.87,1.3-1.74a37.061,37.061,0,0,1,2.69-3.39c1-1,1.91-2.13,2.89-3.15l3.14-2.85a58,58,0,0,1,14-8.7,55.61,55.61,0,0,1,29.85-3.91c1.18.19,2.35.34,3.5.56l3.38.87,1.67.43,1.6.58,3.15,1.16c1,.41,2,.94,3,1.39l1.46.71a10.12,10.12,0,0,1,1.41.76L153.2,50l1.32.81,1.22.91a56,56,0,0,1,14.81,15.93,57.66,57.66,0,0,1,4.1,8L176,79.37c.11.3.21.59.32.88s.15.59.23.88c.14.58.29,1.14.42,1.69.27,1.1.58,2.13.76,3.12s.28,1.92.41,2.78.24,1.66.35,2.39a18,18,0,0,1,.09,2c0,1.18.08,2.08.11,2.71S178.71,96.74,178.71,96.74Z" fill="#263238"/>
      <path id="Path_333" data-name="Path 333" d="M131.63,44.41l.5-5.65a8.49,8.49,0,0,0-4.29-8.23,19.15,19.15,0,0,0-12-1.84,20.75,20.75,0,0,0-12.9,6.77,8.67,8.67,0,0,0-.83,10.39l3.59,5.6a24.84,24.84,0,1,0,25.94-7Zm-21.56,3.21-3.13-4.87a2.88,2.88,0,0,1,.3-3.48,14.87,14.87,0,0,1,9.38-4.88,13.43,13.43,0,0,1,8.45,1.19,2.77,2.77,0,0,1,1.33,2.67l-.4,5.06a24.41,24.41,0,0,0-15.88,4.31Z" fill="#e0e0e0"/>
      <path id="Path_334" data-name="Path 334" d="M133.44,124.16l1.88-2.21a4.33,4.33,0,0,0,.65-4.7,9.84,9.84,0,0,0-4.48-4.32,10.51,10.51,0,0,0-7.38-1,4.44,4.44,0,0,0-3.43,4.09l-.15,3.4a12.71,12.71,0,1,0,12.91,4.73Zm-10-5,.14-3a1.48,1.48,0,0,1,1.15-1.37,7.61,7.61,0,0,1,5.36.74,6.91,6.91,0,0,1,3.18,3,1.43,1.43,0,0,1-.24,1.51l-1.69,2a12.47,12.47,0,0,0-7.9-2.9Z" fill="#e0e0e0"/>
      <path id="Path_335" data-name="Path 335" d="M173.55,90.47c2,11.84-3.4,22.61-12,24.06l-12.84,2.11c-4.41-3.28-5.2-14-6.37-20.93-1.08-6.45-4.89-17.06-2.26-21.54,0,0,10.35-1.86,14.28-2.52C163,70.2,171.56,78.63,173.55,90.47Z" fill="#09877c"/>
      <g id="Group_17" data-name="Group 17" opacity="0.3">
        <path id="Path_336" data-name="Path 336" d="M173.55,90.47c2,11.84-3.4,22.61-12,24.06l-12.84,2.11c-4.41-3.28-5.2-14-6.37-20.93-1.08-6.45-4.89-17.06-2.26-21.54,0,0,10.35-1.86,14.28-2.52C163,70.2,171.56,78.63,173.55,90.47Z"/>
      </g>
      <path id="Path_337" data-name="Path 337" d="M157.13,93.19c2,11.84-1.8,22.34-8.44,23.45s-13.64-7.58-15.63-19.42,1.79-22.34,8.44-23.46S155.14,81.34,157.13,93.19Z" fill="#09877c"/>
      <rect id="Rectangle_9" data-name="Rectangle 9" width="51.28" height="11.28" rx="3.4" transform="matrix(0.986, -0.165, 0.165, 0.986, 104.432, 98.21)" fill="#09877c"/>
      <path id="Path_338" data-name="Path 338" d="M115,101.93c2,11.84-3.4,22.61-12,24.06L90.13,128.1c-4.41-3.28-5.2-14-6.37-20.93-1.08-6.46-4.89-17.06-2.26-21.54,0,0,10.36-1.87,14.28-2.52C104.4,81.66,113,90.09,115,101.93Z" fill="#09877c"/>
      <g id="Group_18" data-name="Group 18" opacity="0.3">
        <path id="Path_339" data-name="Path 339" d="M115,101.93c2,11.84-3.4,22.61-12,24.06L90.13,128.1c-4.41-3.28-5.2-14-6.37-20.93-1.08-6.46-4.89-17.06-2.26-21.54,0,0,10.36-1.87,14.28-2.52C104.4,81.66,113,90.09,115,101.93Z"/>
      </g>
      <ellipse id="Ellipse_5" data-name="Ellipse 5" cx="12.2" cy="21.74" rx="12.2" ry="21.74" transform="matrix(0.986, -0.165, 0.165, 0.986, 70.901, 87.237)" fill="#09877c"/>
      <path id="Path_340" data-name="Path 340" d="M96.81,104.94a.75.75,0,0,1-.08-.24,4.429,4.429,0,0,0-.16-.7c-.13-.63-.36-1.54-.69-2.7-.18-.58-.39-1.21-.62-1.91a16.887,16.887,0,0,0-.91-2.2,23.09,23.09,0,0,0-3-5A15,15,0,0,0,89,89.85a8.68,8.68,0,0,0-3.14-1.7,5.93,5.93,0,0,0-3.72.09A7.3,7.3,0,0,0,79,90.7a17.31,17.31,0,0,0-3,8.18,33,33,0,0,0,3.11,18.58,17.29,17.29,0,0,0,5.57,6.74,7.15,7.15,0,0,0,3.78,1.29A5.9,5.9,0,0,0,92,124.36a8.57,8.57,0,0,0,2.41-2.62,15.43,15.43,0,0,0,1.45-3A23.57,23.57,0,0,0,97,113.06c.11-.85.08-1.65.13-2.38s0-1.4,0-2c-.07-1.21-.14-2.14-.23-2.77l-.08-.72a.78.78,0,0,1,0-.25.81.81,0,0,1,.06.24,4.993,4.993,0,0,0,.12.71c.13.63.23,1.57.34,2.78a17.749,17.749,0,0,0,.08,2,11.153,11.153,0,0,1-.1,2.41,22.94,22.94,0,0,1-1.12,5.76A15.5,15.5,0,0,1,94.74,122a9.13,9.13,0,0,1-2.51,2.77A6.44,6.44,0,0,1,88.41,126a7.8,7.8,0,0,1-4-1.35,17.67,17.67,0,0,1-5.76-6.92,33.13,33.13,0,0,1-3.17-18.89,17.64,17.64,0,0,1,3.19-8.42A7.77,7.77,0,0,1,82,87.8a6.44,6.44,0,0,1,4-.08,9.12,9.12,0,0,1,3.27,1.8A15.84,15.84,0,0,1,91.69,92a22.93,22.93,0,0,1,2.94,5.08c.37.78.6,1.55.87,2.24a18.337,18.337,0,0,1,.58,1.93c.3,1.18.5,2.1.59,2.73l.12.72a.94.94,0,0,1,.02.24Z" fill="#263238"/>
      <path id="Path_341" data-name="Path 341" d="M86.55,108.92l-.72.17.32,1.29-1,.24-.31-1.29-2.36.58-.23-1,1.13-4.38,1.06-.26-1,4.15,1.17-.29L84.32,107l1-.23.27,1.15.72-.17Z" fill="#263238"/>
      <path id="Path_342" data-name="Path 342" d="M88.37,107.88l-.31.77.29,1.19-1,.24-1.57-6.49,1-.24.89,3.68,1-2.24,1.17-.28-.92,2.33,2.18,2.34-1.18.29Z" fill="#263238"/>
      <rect id="Rectangle_10" data-name="Rectangle 10" width="33.91" height="9.9" transform="translate(93.556 39.071) rotate(26.21)" fill="#455a64"/>
      <rect id="Rectangle_11" data-name="Rectangle 11" width="29.23" height="13.45" rx="1.46" transform="translate(76.418 52.883) rotate(-63.79)" fill="#455a64"/>
      <path id="Path_343" data-name="Path 343" d="M87.18,58.17a1.76,1.76,0,0,0,.82.11,1.44,1.44,0,0,0,.86-.46,6.69,6.69,0,0,0,.64-1.21c.93-1.9,2.25-4.63,3.88-8s3.6-7.38,5.78-11.83L100,35.1l.42-.86.21-.43a1.19,1.19,0,0,0,.11-.41,1.32,1.32,0,0,0-.89-1.4l-1.8-.89-7.49-3.68a1.3,1.3,0,0,0-1.66.46c-.31.6-.62,1.26-.93,1.87-.61,1.25-1.22,2.48-1.82,3.69l-3.44,7-3.12,6.3c-.49,1-1,1.94-1.42,2.86L77.5,51c-.11.22-.22.43-.32.65a1.39,1.39,0,0,0-.15.63,1.34,1.34,0,0,0,.57,1.07c.35.22.78.4,1.14.59L80.88,55l3.41,1.71,2.15,1.09.56.29.18.11L87,58.1l-.57-.27-2.18-1-3.44-1.67-2.14-1c-.38-.19-.77-.35-1.18-.59a1.56,1.56,0,0,1-.51-2l.32-.65q.31-.66.66-1.35c.45-.92.91-1.88,1.4-2.87l3.09-6.32c1.09-2.23,2.24-4.56,3.43-7l1.81-3.7c.32-.63.6-1.24,1-1.89a1.62,1.62,0,0,1,2.09-.59l7.49,3.69,1.79.88a1.66,1.66,0,0,1,1.06,1.71,1.54,1.54,0,0,1-.14.52l-.22.43-.42.86c-.28.57-.56,1.13-.83,1.69l-5.85,11.8-4,7.94q-.18.34-.33.66a2,2,0,0,1-.36.56,1.49,1.49,0,0,1-.92.46,1.47,1.47,0,0,1-.63-.08.71.71,0,0,1-.24-.15Z" fill="#263238"/>
      <rect id="Rectangle_12" data-name="Rectangle 12" width="29.23" height="13.45" rx="1.46" transform="translate(112.877 70.825) rotate(-63.79)" fill="#455a64"/>
      <path id="Path_344" data-name="Path 344" d="M123.64,76.12a1.79,1.79,0,0,0,.81.1,1.42,1.42,0,0,0,.86-.45,6.39,6.39,0,0,0,.65-1.21c.92-1.91,2.24-4.64,3.87-8l5.78-11.83c.28-.56.55-1.12.83-1.69l.42-.86.21-.43a1.26,1.26,0,0,0,.12-.42,1.33,1.33,0,0,0-.88-1.38l-1.8-.88L127,45.39a1.29,1.29,0,0,0-1.65.47c-.31.59-.62,1.25-.93,1.87l-1.82,3.69c-1.2,2.41-2.35,4.75-3.44,7L116,64.7c-.49,1-1,1.94-1.41,2.86L114,68.9l-.33.65a1.41,1.41,0,0,0-.14.63,1.34,1.34,0,0,0,.57,1.08c.35.21.77.39,1.14.58l2.13,1.07,3.42,1.71,2.15,1.1.56.29a1,1,0,0,1,.18.11l-.2-.08-.57-.26-2.18-1-3.44-1.66-2.14-1c-.39-.2-.77-.35-1.18-.6a1.56,1.56,0,0,1-.68-1.25,1.61,1.61,0,0,1,.17-.74l.31-.66q.33-.66.66-1.35l1.4-2.87,3.1-6.32c1.09-2.22,2.24-4.56,3.42-7l1.82-3.69c.31-.63.6-1.24.94-1.9a1.63,1.63,0,0,1,2.09-.59l7.49,3.69,1.8.89a1.65,1.65,0,0,1,1.06,1.71,1.5,1.5,0,0,1-.15.51l-.21.44-.42.86c-.29.56-.56,1.13-.84,1.68l-5.84,11.8c-1.67,3.34-3,6-4,7.94l-.34.67a2.42,2.42,0,0,1-.35.56,1.52,1.52,0,0,1-.93.45,1.37,1.37,0,0,1-.63-.08,1.07,1.07,0,0,1-.2-.15Z" fill="#263238"/>
      <path id="Path_345" data-name="Path 345" d="M134,57.84a64.479,64.479,0,0,1-5.93-2.74,64.529,64.529,0,0,1-5.79-3,62.117,62.117,0,0,1,5.94,2.73A64.888,64.888,0,0,1,134,57.84Z" fill="#263238"/>
      <path id="Path_346" data-name="Path 346" d="M128.64,68.82a63.888,63.888,0,0,1-5.94-2.74c-3.23-1.59-5.83-2.95-5.79-3a60.852,60.852,0,0,1,5.94,2.73,60.173,60.173,0,0,1,5.79,3.01Z" fill="#263238"/>
      <path id="Path_347" data-name="Path 347" d="M97.63,39.92c0,.08-2.7-1.15-5.94-2.74a60.17,60.17,0,0,1-5.79-3,63.888,63.888,0,0,1,5.94,2.74,60.169,60.169,0,0,1,5.79,3Z" fill="#263238"/>
      <path id="Path_348" data-name="Path 348" d="M92.22,50.89a61.369,61.369,0,0,1-5.93-2.73c-3.24-1.6-5.83-3-5.79-3a63.893,63.893,0,0,1,5.94,2.74,63.427,63.427,0,0,1,5.78,2.99Z" fill="#263238"/>
    </g>
    <g id="freepik--Drink--inject-97">
      <path id="Path_349" data-name="Path 349" d="M92.91,352.14A53.44,53.44,0,0,1,123,368.72l11.71-.36-4.26,10.78a53.64,53.64,0,1,1-37.52-27Z" fill="#fff"/>
      <path id="Path_350" data-name="Path 350" d="M92.91,352.14a6.64,6.64,0,0,1-.89-.09l-2.62-.31-1.92-.24-2.34-.05-2.72-.06c-1,0-2,.14-3.1.21l-1.68.12-.88.08-.89.15-3.77.67a55.451,55.451,0,0,0-8.27,2.58A54,54,0,0,0,46.2,366.6l-1.08,1-1,1.12-2,2.28a9.449,9.449,0,0,0-1,1.21l-.91,1.26c-.6.86-1.27,1.69-1.83,2.6l-1.63,2.79L36,380.29l-.69,1.51-1.4,3.06c-.4,1.05-.74,2.14-1.12,3.23a53.65,53.65,0,0,0-1.36,29,56.381,56.381,0,0,0,5.88,14.69l2.17,3.46c.8,1.1,1.66,2.18,2.49,3.28a36.74,36.74,0,0,0,2.76,3.11l1.43,1.54,1.57,1.4,1.58,1.4c.27.23.53.47.8.69l.86.63c1.16.82,2.29,1.68,3.47,2.49l3.72,2.17a17.477,17.477,0,0,0,1.94,1l2,.91a55.55,55.55,0,0,0,17,4.32A57.9,57.9,0,0,0,95.39,457a56.692,56.692,0,0,0,14.78-5.87l3.32-2.08c1.07-.72,2.07-1.56,3.1-2.33.5-.4,1-.76,1.51-1.19l1.41-1.31,1.4-1.3.69-.65c.22-.22.43-.47.64-.7l2.5-2.83c.81-.95,1.49-2,2.23-3l1.09-1.51c.33-.52.63-1.06.94-1.58.62-1.06,1.26-2.11,1.84-3.17s1-2.2,1.51-3.29c.23-.55.53-1.07.72-1.64s.38-1.13.58-1.69c.37-1.12.79-2.22,1.12-3.35s.53-2.27.79-3.4a50.78,50.78,0,0,0,1.21-13.4,53.81,53.81,0,0,0-6.51-23.42v-.16q2.25-5.67,4.28-10.77l.17.24-11.72.34h-.07v-.05a53.69,53.69,0,0,0-21.12-14.23,58.669,58.669,0,0,0-6.54-2l-1.71-.37-.58-.14a2.956,2.956,0,0,1,.59.09l1.72.33a57.434,57.434,0,0,1,6.57,1.88,55,55,0,0,1,9.9,4.76,54.279,54.279,0,0,1,11.4,9.42l-.12-.05,11.72-.38H135l-.09.25q-2.025,5.115-4.25,10.78V379a54,54,0,0,1,6.61,23.6A51.221,51.221,0,0,1,136,416.15c-.27,1.14-.53,2.28-.8,3.43s-.75,2.25-1.13,3.38c-.19.57-.38,1.14-.58,1.71s-.48,1.1-.72,1.65c-.51,1.1-1,2.21-1.52,3.32s-1.23,2.13-1.85,3.2c-.31.53-.62,1.08-.95,1.6L127.38,436c-.75,1-1.44,2.06-2.25,3l-2.53,2.86c-.21.24-.42.48-.64.71l-.7.66-1.41,1.31-1.42,1.33c-.48.43-1,.8-1.52,1.2-1,.78-2,1.62-3.13,2.35l-3.35,2.1a56.929,56.929,0,0,1-14.92,5.93,58.3,58.3,0,0,1-16.45,1.2,56.36,56.36,0,0,1-17.22-4.36l-2-.92a17,17,0,0,1-2-1l-3.75-2.2c-1.2-.81-2.35-1.68-3.51-2.52l-.87-.63c-.27-.22-.54-.47-.8-.7l-1.6-1.42-1.59-1.41L44.33,442a34.4,34.4,0,0,1-2.78-3.15c-.84-1.11-1.71-2.19-2.52-3.31L36.85,432a56.67,56.67,0,0,1-5.91-14.83A54.06,54.06,0,0,1,32.35,388c.38-1.09.73-2.19,1.14-3.25s.95-2.06,1.41-3.08c.24-.51.47-1,.7-1.52a11.43,11.43,0,0,1,.83-1.43c.56-.94,1.11-1.88,1.65-2.81s1.24-1.75,1.85-2.61l.92-1.27a10.39,10.39,0,0,1,1-1.22l2-2.29,1-1.12,1.09-1a54.321,54.321,0,0,1,17.78-11.42,56.408,56.408,0,0,1,8.33-2.54l3.79-.65.89-.15.88-.07,1.7-.12c1.09-.06,2.13-.18,3.1-.18l2.74.09,2.34.07,1.93.26L92,352C92.61,352.08,92.91,352.14,92.91,352.14Z" fill="#263238"/>
      <path id="Path_351" data-name="Path 351" d="M99,389.79a5.23,5.23,0,0,0-5-3.58,3.8,3.8,0,0,0,1.84-5.28c-1.6-3.87-4.71-4.09-4.71-4.09a4.28,4.28,0,0,0,1.56-5.54c-1.55-3.76-6-2.92-6-2.92s3.75-1.55,2.64-5.11-5.46-3-5.46-3L86,355.16l-5.29-12.77a5.24,5.24,0,0,0-3.16-3l-15.18-5.17L47.43,340.4l-2.15.89-7.1,14.38A5.28,5.28,0,0,0,38,360l5.29,12.78,5.07,2.1s-3.45,2.71-1.72,6,5.47,1.75,5.47,1.75S48.43,385.21,50,389a4.27,4.27,0,0,0,5,2.82s-2,2.36-.45,6.22a3.8,3.8,0,0,0,5,2.44,5.25,5.25,0,0,0-1,6.07c1.6,3.86,4.81,3.41,4.81,3.41L61.17,416l11.18,27s3.66,5,10.31,2.27a7.68,7.68,0,0,0,4.92-9.07s2.55,5.86,8.06,3.7l.73-.3c5.43-2.37,3.09-8.31,3.09-8.31a7.68,7.68,0,0,0,9.89,2.94c6.65-2.75,5.7-8.89,5.7-8.89l-11.18-27L98,395.6S100.6,393.65,99,389.79Z" fill="#f5f5f5"/>
      <path id="Path_352" data-name="Path 352" d="M99,389.79a4.83,4.83,0,0,1,.51,1.53,4.6,4.6,0,0,1-1.41,4.39v-.24l5.89,2.68h.07v.07l11.31,27h0a8.78,8.78,0,0,1-1.1,5.26,9.29,9.29,0,0,1-4.23,3.76,9,9,0,0,1-5.9.87,8.33,8.33,0,0,1-5-3.69l.74-.36a8.33,8.33,0,0,1,.23,5.09,6.14,6.14,0,0,1-3.61,3.81,9.168,9.168,0,0,1-2.61.75,6,6,0,0,1-2.79-.41,8.08,8.08,0,0,1-3.91-4l.86-.3a8.07,8.07,0,0,1-5,9.53,10,10,0,0,1-5.87.81A8.93,8.93,0,0,1,72,443.31h0v-.07c-3.57-8.63-7.32-17.67-11.2-27l-.08-.19.07-.19c.7-1.9,1.46-4,2.22-6.06l.56.69a4.89,4.89,0,0,1-3.3-1,7.11,7.11,0,0,1-2.56-6.22A5.52,5.52,0,0,1,59.25,400l.54.88a4.38,4.38,0,0,1-3.44-.11,4.87,4.87,0,0,1-2.28-2.62,6.81,6.81,0,0,1,.54-6.75l.53.85a3.839,3.839,0,0,1-.81.11A4.63,4.63,0,0,1,51,391.29a5.84,5.84,0,0,1-1.76-3,5.07,5.07,0,0,1,.42-3.45,7.3,7.3,0,0,1,2.22-2.59l.49.92a5.69,5.69,0,0,1-3.6.19,4.34,4.34,0,0,1-2.65-2.46,4.5,4.5,0,0,1-.1-3.58,7.23,7.23,0,0,1,2.08-2.81l.12.89-5.07-2.1-.2-.09-.08-.19q-1.71-4.15-3.39-8.21l-1.67-4a6,6,0,0,1-.35-4.55c2.49-5.31,5-10.2,7.4-15.11l.08-.16.17-.07,17.11-7,.16-.07.16.05c3,1,5.92,2,8.78,3l4.22,1.45,2.08.72a5.69,5.69,0,0,1,2,1.15A5.94,5.94,0,0,1,81,342l.81,2c.53,1.29,1,2.56,1.57,3.81l3,7.28.06.14-.06.14-2.12,5.07-.37-.5a6.86,6.86,0,0,1,3.59.64,4.37,4.37,0,0,1,2.24,2.71,4.11,4.11,0,0,1-.38,3.36,5.7,5.7,0,0,1-2.47,2.08l-.17-.58a6.74,6.74,0,0,1,3.84.5A4.91,4.91,0,0,1,93,371.22a5,5,0,0,1,.23,3.36,4.58,4.58,0,0,1-1.94,2.47l-.1-.45a5.84,5.84,0,0,1,3.5,2,7.941,7.941,0,0,1,1.64,3.09,3.93,3.93,0,0,1-.34,3,4.19,4.19,0,0,1-1.9,1.67l-.06-.26a5.13,5.13,0,0,1,4.3,2.29,4.93,4.93,0,0,1,.71,1.43,7.7,7.7,0,0,0-.82-1.34A5.06,5.06,0,0,0,94,386.34h-.63l.57-.27a4,4,0,0,0,1.72-1.59,3.61,3.61,0,0,0,.25-2.71,6.34,6.34,0,0,0-4.8-4.7l-.63-.1.52-.35a4.09,4.09,0,0,0,1.69-2.2,4.48,4.48,0,0,0-.25-3,4.3,4.3,0,0,0-2.2-2.32,6.19,6.19,0,0,0-3.48-.43l-2.08.31,1.91-.9a5.06,5.06,0,0,0,2.15-1.85,3.43,3.43,0,0,0,.29-2.83,3.65,3.65,0,0,0-1.92-2.28,6.1,6.1,0,0,0-3.18-.54l-.6.05.22-.55,2.1-5.08v.28l-3-7.26c-.52-1.25-1.05-2.51-1.58-3.8s-.94-2.64-2-3.47a4.86,4.86,0,0,0-1.73-1l-2.07-.7L71,337.65l-8.79-3h.32l-17.08,7.1.25-.24c-2.36,4.86-4.93,9.94-7.32,15a5,5,0,0,0,.34,3.85c.55,1.34,1.11,2.68,1.67,4l3.4,8.21-.28-.28,5.08,2.1.79.33-.67.56c-1.49,1.25-2.59,3.36-1.67,5.14a3.26,3.26,0,0,0,2,1.89,4.77,4.77,0,0,0,2.89-.16l3.45-1.25-2.95,2.17c-1.53,1.12-2.69,3.07-2.2,4.93a3.94,3.94,0,0,0,4,3.31,3.3,3.3,0,0,0,.6-.07l1.46-.35-.93,1.2a5,5,0,0,0-.92,2.73,7.27,7.27,0,0,0,.56,2.93,3.87,3.87,0,0,0,1.77,2.08,3.44,3.44,0,0,0,2.58.09l2.51-.89-2,1.77c-3.07,2.77-.35,9,3.39,8.57l.84-.1-.28.79-2.23,6.07v-.37c3.86,9.35,7.6,18.4,11.16,27l-.06-.1a8,8,0,0,0,4.61,2.75,9.16,9.16,0,0,0,5.31-.72,7.65,7.65,0,0,0,3.89-3.42,7.57,7.57,0,0,0,.59-5l-.81-3.72L88,436a7.21,7.21,0,0,0,3.42,3.53,5.3,5.3,0,0,0,2.36.36,8.249,8.249,0,0,0,2.35-.68A5.3,5.3,0,0,0,99.27,436a7.53,7.53,0,0,0-.19-4.53l-1.14-3.37,1.88,3a7.62,7.62,0,0,0,4.52,3.33,8.29,8.29,0,0,0,5.39-.78,8.68,8.68,0,0,0,3.94-3.44,8.18,8.18,0,0,0,1-4.8v.08c-4.61-11.32-8.37-20.54-11-27.08l.1.1L98,395.73l-.19-.09.17-.15a4.5,4.5,0,0,0,1.44-4.15A10.272,10.272,0,0,0,99,389.79Z" fill="#263238"/>
      <path id="Path_353" data-name="Path 353" d="M83.91,360.27c.11.28-8,3.89-18.13,8.08s-18.43,7.36-18.54,7.09,8-3.89,18.13-8.08S83.8,360,83.91,360.27Z" fill="#263238"/>
      <path id="Path_354" data-name="Path 354" d="M85.71,355.3c.11.27-9.27,4.42-21,9.25s-21.26,8.54-21.38,8.27,9.28-4.42,21-9.26S85.6,355,85.71,355.3Z" fill="#263238"/>
      <path id="Path_355" data-name="Path 355" d="M87.72,368.3c.11.27-7.94,3.86-18,8s-18.29,7.3-18.4,7,7.94-3.86,18-8S87.61,368,87.72,368.3Z" fill="#263238"/>
      <path id="Path_356" data-name="Path 356" d="M91.13,376.54c.11.27-7.95,3.86-18,8s-18.29,7.3-18.4,7,7.94-3.86,18-8S91,376.27,91.13,376.54Z" fill="#263238"/>
      <path id="Path_357" data-name="Path 357" d="M94.89,385.63c.11.27-8,3.86-18,8s-18.29,7.3-18.4,7,7.94-3.86,18-8S94.77,385.36,94.89,385.63Z" fill="#263238"/>
      <path id="Path_358" data-name="Path 358" d="M98.65,394.72c.11.27-8,3.86-18,8s-18.29,7.3-18.4,7,7.94-3.86,18-8S98.53,394.45,98.65,394.72Z" fill="#263238"/>
      <path id="Path_359" data-name="Path 359" d="M104,398.51c.11.28-9.36,4.45-21.15,9.33s-21.45,8.61-21.56,8.34,9.36-4.45,21.15-9.33S103.84,398.24,104,398.51Z" fill="#263238"/>
      <rect id="Rectangle_13" data-name="Rectangle 13" width="21.43" height="10.11" rx="0.89" transform="translate(40.055 332.529) rotate(-22.47)" fill="#455a64"/>
      <path id="Path_360" data-name="Path 360" d="M47,340.54c-.27.12-1.35-1.81-2.41-4.3s-1.7-4.6-1.43-4.72,1.35,1.81,2.41,4.3S47.23,340.43,47,340.54Z" fill="#263238"/>
      <path id="Path_361" data-name="Path 361" d="M50.22,338.91c-.27.12-1.35-1.81-2.41-4.3s-1.7-4.61-1.43-4.72,1.35,1.81,2.41,4.3S50.49,338.8,50.22,338.91Z" fill="#263238"/>
      <path id="Path_362" data-name="Path 362" d="M53.68,337.68c-.27.11-1.35-1.81-2.41-4.31s-1.7-4.6-1.43-4.72,1.35,1.81,2.41,4.31S54,337.56,53.68,337.68Z" fill="#263238"/>
      <path id="Path_363" data-name="Path 363" d="M57.27,336c-.27.12-1.35-1.81-2.41-4.3s-1.7-4.6-1.43-4.72,1.35,1.81,2.42,4.3S57.55,335.93,57.27,336Z" fill="#263238"/>
      <path id="Path_364" data-name="Path 364" d="M60.62,334.59c-.27.12-1.35-1.81-2.41-4.3s-1.7-4.61-1.43-4.72,1.35,1.81,2.41,4.3S60.9,334.48,60.62,334.59Z" fill="#263238"/>
    </g>
    <g id="freepik--fast-food--inject-97">
      <path id="Path_365" data-name="Path 365" d="M128.36,230c4.49-9.31,1.52-21.6-6.74-27.82s-20.88-5.68-28.59,1.2A14,14,0,0,0,87,192.44a21.93,21.93,0,0,0-12.24-3.73,30.89,30.89,0,0,0-22.44,9c-5.84,5.89-9,17.37-8.74,25.65-4.62-.72-11.36,3.73-14.22,7.43a30.71,30.71,0,0,0,29.33,49.07,27.12,27.12,0,0,0,48.93,4.71c1.08-1.84,2-3.89,3.75-5.14,2-1.44,4.59-1.54,7-1.94a26,26,0,0,0,10-47.52Z" fill="#fff"/>
      <path id="Path_366" data-name="Path 366" d="M128.36,230l.56.38a16.281,16.281,0,0,1,1.59,1.18,24.29,24.29,0,0,1,5.15,5.68A27.27,27.27,0,0,1,140,248.65a24.77,24.77,0,0,1-3.07,15.9,28.37,28.37,0,0,1-6.21,7.36,27.431,27.431,0,0,1-4.27,2.91,26.525,26.525,0,0,1-2.39,1.18l-1.26.49-.64.24-.66.19A31.732,31.732,0,0,1,116,278a9.37,9.37,0,0,0-5.19,2.06c-1.41,1.31-2.23,3.16-3.29,4.88a25.779,25.779,0,0,1-3.8,4.85,31.208,31.208,0,0,1-2.33,2.11c-.85.64-1.7,1.29-2.62,1.85a30.492,30.492,0,0,1-5.86,2.83,26.94,26.94,0,0,1-13.35,1.13,27.85,27.85,0,0,1-12.68-5.94A27.28,27.28,0,0,1,58.47,280l.21.12a30.7,30.7,0,0,1-11.13-.31,32.939,32.939,0,0,1-10.61-4.34,31.46,31.46,0,0,1-8.57-8,29.8,29.8,0,0,1-4.78-11,32.79,32.79,0,0,1-.4-11.21,32.17,32.17,0,0,1,3.39-10.5c.45-.8.91-1.59,1.4-2.35l.79-1.12.4-.55.44-.53a22.16,22.16,0,0,1,4-3.6,22.57,22.57,0,0,1,4.7-2.56,10.66,10.66,0,0,1,5.23-.81l-.22.2a40.6,40.6,0,0,1,1.3-11,41.059,41.059,0,0,1,1.64-5.18,34.621,34.621,0,0,1,2.3-4.84,24.54,24.54,0,0,1,7-7.73,31.28,31.28,0,0,1,9-4.6,30.2,30.2,0,0,1,9.58-1.51,24.32,24.32,0,0,1,9.14,1.68,16.58,16.58,0,0,1,7.09,5.28,13.28,13.28,0,0,1,2.84,7.87l-.24-.1a22.81,22.81,0,0,1,12.32-5.39,23.88,23.88,0,0,1,11.94,1.65,21,21,0,0,1,4.74,2.76,23.481,23.481,0,0,1,3.59,3.6,23,23,0,0,1,4,7.9,24.58,24.58,0,0,1,1,7,25.732,25.732,0,0,1-.23,2.83,19.941,19.941,0,0,1-.45,2.32,17.881,17.881,0,0,1-1,3l-.44,1s.13-.34.4-1a19.657,19.657,0,0,0,1-3,20.512,20.512,0,0,0,.42-2.31,23.877,23.877,0,0,0,.21-2.83,24.69,24.69,0,0,0-1-7,23.17,23.17,0,0,0-4-7.81,20.247,20.247,0,0,0-1.65-1.85,18.7,18.7,0,0,0-1.92-1.71,20.42,20.42,0,0,0-4.7-2.72,23.71,23.71,0,0,0-11.81-1.6,22.55,22.55,0,0,0-12.16,5.34l-.24.22v-.32a13,13,0,0,0-2.8-7.69,16.18,16.18,0,0,0-7-5.17,24.24,24.24,0,0,0-9-1.65,28.32,28.32,0,0,0-4.75.37,29.209,29.209,0,0,0-4.72,1.14A30.691,30.691,0,0,0,55.78,195a23.88,23.88,0,0,0-6.87,7.63,33.769,33.769,0,0,0-2.27,4.78A41,41,0,0,0,45,212.5a40.34,40.34,0,0,0-1.27,10.89v.22H43.5a10.2,10.2,0,0,0-5,.79,23.37,23.37,0,0,0-8.58,6l-.42.52-.39.54-.78,1.1c-.49.76-.94,1.54-1.39,2.32a31.92,31.92,0,0,0-3.34,10.37,32.28,32.28,0,0,0,.4,11.1,29.5,29.5,0,0,0,4.72,10.82,31.08,31.08,0,0,0,8.45,7.93,32.9,32.9,0,0,0,10.49,4.3,30.6,30.6,0,0,0,11,.3h.16v.15a27,27,0,0,0,8.31,11.67,27.6,27.6,0,0,0,12.5,5.87,26.63,26.63,0,0,0,13.18-1.11,29.449,29.449,0,0,0,5.79-2.79,31.607,31.607,0,0,0,2.59-1.82,30.455,30.455,0,0,0,2.31-2.09,25.209,25.209,0,0,0,3.76-4.78,20.693,20.693,0,0,1,3.35-4.94,7.31,7.31,0,0,1,2.55-1.49,15.4,15.4,0,0,1,2.81-.63,31.826,31.826,0,0,0,5.43-1.08l.65-.18.63-.24,1.25-.48c.8-.39,1.62-.71,2.37-1.16a27.08,27.08,0,0,0,10.4-10.15,24.7,24.7,0,0,0,3.09-15.75,27.24,27.24,0,0,0-4.25-11.37,24.921,24.921,0,0,0-5.08-5.7,18,18,0,0,0-1.58-1.21Z" fill="#263238"/>
      <circle id="Ellipse_6" data-name="Ellipse 6" cx="7.4" cy="7.4" r="7.4" transform="translate(137.327 230.686) rotate(-80.76)" fill="#fff"/>
      <path id="Path_367" data-name="Path 367" d="M153.23,224.56a7.537,7.537,0,0,0-.31-1.79,7.36,7.36,0,0,0-5.76-5.32,7.25,7.25,0,0,0-3.8.33,6.47,6.47,0,0,0-1.82,1A6.541,6.541,0,0,0,140,220.3a7.18,7.18,0,0,0,0,8.52,7.33,7.33,0,0,0,3.35,2.53,7.46,7.46,0,0,0,3.8.33,7.35,7.35,0,0,0,5.76-5.33c.29-1.13.26-1.79.31-1.79a5.89,5.89,0,0,1-.16,1.83,7.47,7.47,0,0,1-5.85,5.61,7.61,7.61,0,0,1-4-.31,6.93,6.93,0,0,1-1.93-1,7.23,7.23,0,0,1-1.61-1.61,7.55,7.55,0,0,1,0-9,7.45,7.45,0,0,1,1.61-1.61,7.16,7.16,0,0,1,1.93-1,7.61,7.61,0,0,1,4-.31,7.47,7.47,0,0,1,5.85,5.61,5.829,5.829,0,0,1,.17,1.79Z" fill="#263238"/>
      <path id="Path_368" data-name="Path 368" d="M69,200.14l5.86,51.08A3.07,3.07,0,0,0,78,253.94l20.81-.64a3.07,3.07,0,0,0,3-2.94l2.23-51Z" fill="#09877c"/>
      <path id="Path_369" data-name="Path 369" d="M69,200.14h.63l1.84-.05,7.05-.17,25.5-.59h.08v.08c-.57,13.59-1.3,30.43-2.1,48.59l-.09,2.16a3.22,3.22,0,0,1-.73,2,3.17,3.17,0,0,1-1.86,1.1,6.478,6.478,0,0,1-1.07.07H97.19l-8.31.25-8,.25-2,.06h-1a2.89,2.89,0,0,1-1-.15,3.16,3.16,0,0,1-1.58-1.13,3.37,3.37,0,0,1-.63-1.8c-1.13-10-2.15-18.94-3-26.47s-1.53-13.62-2-17.83c-.23-2.1-.41-3.73-.54-4.84-.06-.54-.1-1-.13-1.25a1.578,1.578,0,0,1,0-.42,2.3,2.3,0,0,0,.06.43c.06.28.09.72.15,1.27.13,1.11.33,2.75.57,4.86.5,4.21,1.21,10.3,2.08,17.82s1.91,16.47,3.06,26.41a3.15,3.15,0,0,0,.6,1.71A3,3,0,0,0,77,253.71a5.39,5.39,0,0,0,1.89.11l2-.06,8-.25,8.32-.26h1a9,9,0,0,0,1-.07,2.914,2.914,0,0,0,2.42-2.93c0-.71.07-1.43.1-2.16.8-18.2,1.54-35,2.14-48.64l.08.08-25.45.5-7.07.13H69.58Z" fill="#263238"/>
      <g id="Group_19" data-name="Group 19" opacity="0.3">
        <path id="Path_370" data-name="Path 370" d="M103.09,221.23a292.589,292.589,0,0,1-31.77.83l1.6,15.36s18.7,2.43,29.54-1.86Z"/>
      </g>
      <g id="Group_20" data-name="Group 20" opacity="0.3">
        <path id="Path_371" data-name="Path 371" d="M103.92,202.14s-8.67,4.57-22.56,4.25c-10.09-.24-12-2.61-12-2.61l-.21-2.3L104,200.2Z"/>
      </g>
      <path id="Path_372" data-name="Path 372" d="M105.41,196.53l.94,3.49s-3.86,3.47-20.13,3.88c-14.56.37-18.2-2.18-18.2-2.18l-1.18-.93.86-3.37Z" fill="#e0e0e0"/>
      <path id="Path_373" data-name="Path 373" d="M105.41,196.53h-.76l-2.16.07-8,.22-26.8.67.1-.07c-.28,1.07-.57,2.21-.86,3.37v-.1l1.22.95a8.41,8.41,0,0,0,1.48.62c.26.09.51.17.77.24l.78.2a31.2,31.2,0,0,0,3.13.57,56.255,56.255,0,0,0,6.1.49,104.111,104.111,0,0,0,11.08-.24,58.284,58.284,0,0,0,8.93-1.28,24.41,24.41,0,0,0,3.41-1,10.2,10.2,0,0,0,2.52-1.27h0c-.29-1.12-.52-2-.68-2.59-.07-.29-.13-.51-.17-.67a2.292,2.292,0,0,1,0-.24l.06.22a3.806,3.806,0,0,0,.19.67c.17.59.41,1.47.73,2.59h0a10,10,0,0,1-2.53,1.31,28,28,0,0,1-3.42,1,59.28,59.28,0,0,1-9,1.32,103.993,103.993,0,0,1-11.09.26,57,57,0,0,1-6.13-.49,31.4,31.4,0,0,1-3.14-.57l-.79-.2q-.39-.1-.78-.24a7.25,7.25,0,0,1-1.52-.65c-.44-.33-.85-.66-1.24-1h0v-.06c.29-1.16.59-2.3.86-3.37v-.07h.07l26.86-.6,8-.16h2.88Z" fill="#263238"/>
      <path id="Path_374" data-name="Path 374" d="M67.69,197.72c0,1.7,8.47,2.6,19,2.46,7.16-.09,17.53-1.87,18.75-3.7.95-1.42-8.54-2.81-19-2.47S67.63,196,67.69,197.72Z" fill="#fff"/>
      <path id="Path_375" data-name="Path 375" d="M67.69,197.72a.61.61,0,0,1,0-.2,1.09,1.09,0,0,1,.36-.48,6.51,6.51,0,0,1,2.05-1,45.209,45.209,0,0,1,8.23-1.55,104.524,104.524,0,0,1,12.4-.64c2.34,0,4.79.13,7.33.37,1.27.13,2.55.28,3.85.52a18.727,18.727,0,0,1,1.94.44,7.839,7.839,0,0,1,1,.35,2.28,2.28,0,0,1,.45.26.62.62,0,0,1,.28.51.45.45,0,0,1-.12.27,1.8,1.8,0,0,1-.19.2,3.151,3.151,0,0,1-.41.31,7.764,7.764,0,0,1-.91.46,18.327,18.327,0,0,1-1.89.65c-1.26.36-2.53.63-3.78.87-2.51.46-5,.77-7.28,1-1.17.1-2.31.16-3.42.2s-2.18,0-3.22,0c-2.08,0-4-.06-5.78-.15a48.72,48.72,0,0,1-8.32-1,6.63,6.63,0,0,1-2.12-.81,1.08,1.08,0,0,1-.39-.45.33.33,0,0,1,0-.14v-.05a.478.478,0,0,0,.06.19,1,1,0,0,0,.39.42,6.54,6.54,0,0,0,2.12.76,49.518,49.518,0,0,0,8.3.9c1.77.08,3.7.12,5.78.12h3.22c1.1,0,2.24-.1,3.4-.2a73.076,73.076,0,0,0,7.26-1c1.25-.24,2.51-.51,3.77-.87a17,17,0,0,0,1.86-.64,6.621,6.621,0,0,0,.88-.45,2.32,2.32,0,0,0,.39-.29.85.85,0,0,0,.16-.17.29.29,0,0,0,.09-.17.44.44,0,0,0-.21-.33,2.1,2.1,0,0,0-.41-.24,6.084,6.084,0,0,0-.93-.34,18.372,18.372,0,0,0-1.92-.44c-1.29-.23-2.58-.39-3.84-.52-2.53-.24-5-.35-7.31-.38a107.613,107.613,0,0,0-12.39.59,46.571,46.571,0,0,0-8.21,1.5,6.82,6.82,0,0,0-2.06.93,1.27,1.27,0,0,0-.36.45A.891.891,0,0,0,67.69,197.72Z" fill="#263238"/>
      <path id="Path_376" data-name="Path 376" d="M97.16,193.55l.53,2s-2.16,2.13-11.32,2.18-10.23-1.23-10.23-1.23l-.28-.31.11-2.1Z" fill="#e0e0e0"/>
      <path id="Path_377" data-name="Path 377" d="M97.16,193.55h-.43l-1.22.05-4.49.13-15,.4.09-.09c0,.66-.06,1.38-.1,2.1v-.07l.2.22a.57.57,0,0,0,.2.18A6.271,6.271,0,0,0,78,197c.58.12,1.17.2,1.75.27,1.16.14,2.3.2,3.41.25,2.22.07,4.31.07,6.19-.05a29.669,29.669,0,0,0,5-.7,12.621,12.621,0,0,0,1.9-.58,5.09,5.09,0,0,0,1.38-.75h0c-.16-.62-.28-1.11-.37-1.45l-.09-.38v-.14a.64.64,0,0,1,0,.12,2.639,2.639,0,0,0,.11.37l.42,1.46h0a5.13,5.13,0,0,1-1.4.78,13,13,0,0,1-1.91.62,29.711,29.711,0,0,1-5,.73c-1.89.13-4,.14-6.2.07a31.2,31.2,0,0,1-3.43-.23c-.59-.08-1.18-.15-1.77-.28a6.46,6.46,0,0,1-1.76-.57,1.07,1.07,0,0,1-.25-.22l-.2-.22h0c0-.72.07-1.44.1-2.1H76l15.11-.31,4.48-.08H97.2Z" fill="#263238"/>
      <path id="Path_378" data-name="Path 378" d="M76,194.21c0,1,4.8,1.58,10.66,1.39s10.57-1.12,10.54-2.08-4.8-1.58-10.66-1.39S75.93,193.26,76,194.21Z" fill="#fff"/>
      <path id="Path_379" data-name="Path 379" d="M76,194.21a.23.23,0,0,1,0-.11.62.62,0,0,1,.2-.27,3.6,3.6,0,0,1,1.15-.56,25.32,25.32,0,0,1,4.63-.89,59.248,59.248,0,0,1,7-.37c1.31,0,2.7.05,4.13.18.71.07,1.44.16,2.17.3a8.783,8.783,0,0,1,1.09.29,2.741,2.741,0,0,1,.53.23.71.71,0,0,1,.4.5.7.7,0,0,1-.36.53,3.669,3.669,0,0,1-.52.27,8.411,8.411,0,0,1-1.07.36c-.72.19-1.44.32-2.15.44-1.41.23-2.79.36-4.11.45a59.69,59.69,0,0,1-7,.09,25.191,25.191,0,0,1-4.68-.58,3.85,3.85,0,0,1-1.19-.48.71.71,0,0,1-.21-.26.23.23,0,0,1,0-.12.53.53,0,0,0,.26.34,3.43,3.43,0,0,0,1.18.44,25.85,25.85,0,0,0,4.67.52,62.53,62.53,0,0,0,7-.13c1.31-.09,2.68-.23,4.09-.46a20.138,20.138,0,0,0,2.13-.44,9.945,9.945,0,0,0,1-.35,3.131,3.131,0,0,0,.48-.25c.14-.1.27-.23.27-.36s-.14-.25-.3-.34a2.708,2.708,0,0,0-.49-.22,9.9,9.9,0,0,0-1.07-.28c-.72-.14-1.44-.23-2.15-.3-1.42-.13-2.8-.18-4.11-.19a61.935,61.935,0,0,0-7,.33,26.777,26.777,0,0,0-4.62.82,3.76,3.76,0,0,0-1.16.52.52.52,0,0,0-.19.35Z" fill="#263238"/>
      <path id="Path_380" data-name="Path 380" d="M84.81,193.44l-1.4-22.86,2.88-.24,1.4,23C86.56,193.36,85.86,193.76,84.81,193.44Z" fill="#fff"/>
      <path id="Path_381" data-name="Path 381" d="M84.81,193.44a4.138,4.138,0,0,0,.74.1,5.439,5.439,0,0,0,.89-.09,8.241,8.241,0,0,1,1.25-.15h0c-.29-4.17-.84-12.88-1.45-22.92v-.08l.1.09-2.88.24.09-.1c.38,6.42.72,12.13,1,16.23.11,2.05.2,3.7.27,4.85,0,.57.05,1,.06,1.32v.02a7.651,7.651,0,0,0-.09-1.3c-.08-1.14-.19-2.78-.33-4.82-.26-4.12-.62-9.84-1-16.29v-.1h.1l2.88-.24h.09v.18c.61,10,1.11,18.75,1.34,22.93h0a8.453,8.453,0,0,0-1.24.13,5.289,5.289,0,0,1-.91.07,2.591,2.591,0,0,1-.55-.09Z" fill="#263238"/>
      <path id="Path_382" data-name="Path 382" d="M85.42,170.51l1.37,22.92H85.72l-1.53-22.84Z" fill="#455a64"/>
      <path id="Path_383" data-name="Path 383" d="M83.74,193.25c0-.06,1.28.13,2.86.07s2.83-.31,2.84-.25a3.3,3.3,0,0,1-.81.22,12.431,12.431,0,0,1-2,.23,13.17,13.17,0,0,1-2-.1,3.42,3.42,0,0,1-.89-.17Z" fill="#263238"/>
      <path id="Path_384" data-name="Path 384" d="M104.6,201a7.15,7.15,0,0,1-.59-1.67,9,9,0,0,1-.41-1.73,7.15,7.15,0,0,1,.59,1.67,10.059,10.059,0,0,1,.41,1.73Z" fill="#263238"/>
      <path id="Path_385" data-name="Path 385" d="M101.64,202a8.119,8.119,0,0,1-.63-1.71,8.8,8.8,0,0,1-.45-1.78,8,8,0,0,1,.63,1.72A8.79,8.79,0,0,1,101.64,202Z" fill="#263238"/>
      <path id="Path_386" data-name="Path 386" d="M98.41,202.89a8.82,8.82,0,0,1-.56-1.8,8.61,8.61,0,0,1-.36-1.86A9.46,9.46,0,0,1,98,201a9.14,9.14,0,0,1,.41,1.89Z" fill="#263238"/>
      <path id="Path_387" data-name="Path 387" d="M94.58,203.46a10.049,10.049,0,0,1-.45-1.85,10.35,10.35,0,0,1-.26-1.89,8.44,8.44,0,0,1,.45,1.85,9.309,9.309,0,0,1,.26,1.89Z" fill="#263238"/>
      <path id="Path_388" data-name="Path 388" d="M90.56,203.8a18,18,0,0,1,0-3.79,20,20,0,0,1,0,3.79Z" fill="#263238"/>
      <path id="Path_389" data-name="Path 389" d="M87.26,203.82a8,8,0,0,1-.06-1.8,9.43,9.43,0,0,1,.14-1.81A8,8,0,0,1,87.4,202a9.16,9.16,0,0,1-.14,1.82Z" fill="#263238"/>
      <path id="Path_390" data-name="Path 390" d="M83.77,203.84a7.09,7.09,0,0,1,.06-1.8,7.209,7.209,0,0,1,.35-1.77,11.511,11.511,0,0,1-.15,1.79A10.49,10.49,0,0,1,83.77,203.84Z" fill="#263238"/>
      <path id="Path_391" data-name="Path 391" d="M79.64,203.73a9.791,9.791,0,0,1,.33-1.85,9.23,9.23,0,0,1,.53-1.8,9.39,9.39,0,0,1-.34,1.85,8.6,8.6,0,0,1-.52,1.8Z" fill="#263238"/>
      <path id="Path_392" data-name="Path 392" d="M75.88,203.59a8.55,8.55,0,0,1,.3-1.87,9.91,9.91,0,0,1,.5-1.83,9,9,0,0,1-.31,1.87,9.48,9.48,0,0,1-.49,1.83Z" fill="#263238"/>
      <path id="Path_393" data-name="Path 393" d="M71.41,202.91a7.31,7.31,0,0,1,.42-1.75,8.439,8.439,0,0,1,.61-1.7,8.851,8.851,0,0,1-.42,1.76A8.63,8.63,0,0,1,71.41,202.91Z" fill="#263238"/>
      <path id="Path_394" data-name="Path 394" d="M68.06,201.81a6.18,6.18,0,0,1,.36-1.56,7.3,7.3,0,0,1,.56-1.52,13.67,13.67,0,0,1-.92,3.08Z" fill="#263238"/>
      <path id="Path_395" data-name="Path 395" d="M64.41,229.27a17.13,17.13,0,0,0-5.74-1.52c-3.92-.29-9.13.76-9.08,8.5.08,12.37,14.81,21.6,34.09,25.13s30-2.28,33.52-7.76c3.12-4.88,3.62-14.76-6.4-15.41C99.6,237.49,100,245.26,64.41,229.27Z" fill="#ffbf9d"/>
      <path id="Path_396" data-name="Path 396" d="M44,242.22a6.78,6.78,0,0,1-.55-10.05,8.73,8.73,0,0,1,6.08-2.33A19,19,0,0,1,56,231.17s20.7,9.79,31.42,11.05,18.74-1.08,21.71-1.62,10.18-.9,11.8,3.42-.63,8.42-4.32,10.92-22.52,7.19-45.32.7C52.65,250.33,44,242.22,44,242.22Z" fill="#b4675e"/>
      <path id="Path_397" data-name="Path 397" d="M107.84,247.55a3.922,3.922,0,0,1-.67-.05,7.23,7.23,0,0,1-3.43-1.9,5.65,5.65,0,0,0-2.35-1.43c-1.2-.22-2.35.55-3.69,1.44a9.28,9.28,0,0,1-4.34,1.89c-2.56.17-4.51-1.57-6.23-3.11-1.53-1.36-3-2.64-4.62-2.6a7.729,7.729,0,0,0-2.78.89c-1.39.63-3,1.34-4.68.9-2-.54-3.1-2.37-4-4-.79-1.37-1.53-2.66-2.7-3a5.39,5.39,0,0,0-2.84.34,7.73,7.73,0,0,1-3.82.41,7.79,7.79,0,0,1-3.67-2.5l-.06-.06a4.9,4.9,0,0,0-2.65-1.74,1.42,1.42,0,0,0-1.14.5A.52.52,0,0,0,54,234a1.06,1.06,0,0,1-2,.66,2.6,2.6,0,0,1,.51-2.46,3.52,3.52,0,0,1,3-1.29,6.67,6.67,0,0,1,4,2.37l.06.06a6,6,0,0,0,2.62,1.91,5.78,5.78,0,0,0,2.76-.37,7.19,7.19,0,0,1,4-.35c2,.57,3,2.38,4,4,.79,1.37,1.54,2.67,2.72,3,1,.26,2-.22,3.27-.78a9.29,9.29,0,0,1,3.61-1.07c2.48-.08,4.4,1.64,6.08,3.14s3,2.69,4.67,2.56a7.36,7.36,0,0,0,3.32-1.54c1.5-1,3.2-2.12,5.24-1.75A7.37,7.37,0,0,1,105.1,244a5.55,5.55,0,0,0,2.4,1.43c1.16.18,2.32-.61,3.56-1.45,1.4-.94,3-2,4.9-1.83a1.06,1.06,0,1,1-.21,2.11c-1.14-.11-2.29.67-3.5,1.49A8.2,8.2,0,0,1,107.84,247.55Z" fill="#09877c"/>
      <path id="Path_398" data-name="Path 398" d="M70.84,236.8a6.3,6.3,0,0,0-1.59-1.3,6.089,6.089,0,0,0-2-.4,1.536,1.536,0,0,1,.62-.16,3.13,3.13,0,0,1,1.51.29,3.21,3.21,0,0,1,1.19,1C70.8,236.54,70.87,236.78,70.84,236.8Z" fill="#fff"/>
      <path id="Path_399" data-name="Path 399" d="M83.38,240.11c0,.09-.87,0-1.88.22s-1.78.62-1.82.54a3.17,3.17,0,0,1,1.76-.83,3.07,3.07,0,0,1,1.94.07Z" fill="#fff"/>
      <path id="Path_400" data-name="Path 400" d="M85.41,241c0,.07-.26,0-.5-.08s-.4-.28-.37-.35.26,0,.5.08S85.45,240.92,85.41,241Z" fill="#fff"/>
      <path id="Path_401" data-name="Path 401" d="M102,243.05a11.688,11.688,0,0,0-2.3-.05,11.423,11.423,0,0,0-2.18.66,4.11,4.11,0,0,1,4.44-.6Z" fill="#fff"/>
      <path id="Path_402" data-name="Path 402" d="M116,242.5c0,.09-.9.13-1.94.45s-1.82.77-1.87.7a3.62,3.62,0,0,1,1.78-1A3.74,3.74,0,0,1,116,242.5Z" fill="#fff"/>
      <path id="Path_403" data-name="Path 403" d="M57.57,232.24a5.49,5.49,0,0,0-2.3-.62,5.49,5.49,0,0,0-2.27.71,1.631,1.631,0,0,1,.54-.5,3.38,3.38,0,0,1,1.73-.51,3.5,3.5,0,0,1,1.74.44C57.41,232,57.6,232.22,57.57,232.24Z" fill="#fff"/>
      <path id="Path_404" data-name="Path 404" d="M59.48,234c-.06.06-.39-.16-.74-.51s-.59-.66-.53-.72.38.17.74.51S59.54,234,59.48,234Z" fill="#fff"/>
      <path id="Path_405" data-name="Path 405" d="M58,238.86a21.19,21.19,0,0,0-7-1.53c-4.37-.17-9.83,1.1-9.78,8.52C41.3,258.22,58,267.45,80,271s34.11-2.28,38.09-7.76c3.55-4.88,4.12-14.77-7.27-15.41C98,247.09,98.47,254.87,58,238.86Z" fill="#ffbf9d"/>
      <path id="Path_406" data-name="Path 406" d="M68.38,261.9a3.49,3.49,0,0,0-1.06,2.4,1.27,1.27,0,0,0,1.12,1.22c.83.06,1.36-.8,1.61-1.57a2.8,2.8,0,0,0,.13-.64C70.41,260.5,69.05,261.32,68.38,261.9Z" fill="#fff"/>
      <path id="Path_407" data-name="Path 407" d="M76.28,256.31a3.45,3.45,0,0,0-1.06,2.39,1.29,1.29,0,0,0,1.12,1.23c.83.06,1.36-.81,1.61-1.58a2.8,2.8,0,0,0,.13-.64C78.31,254.9,77,255.72,76.28,256.31Z" fill="#fff"/>
      <path id="Path_408" data-name="Path 408" d="M55.49,255.54a3.47,3.47,0,0,0-1.06,2.39,1.27,1.27,0,0,0,1.12,1.23c.82.06,1.35-.81,1.61-1.57a2.911,2.911,0,0,0,.13-.64C57.51,254.13,56.16,255,55.49,255.54Z" fill="#fff"/>
      <path id="Path_409" data-name="Path 409" d="M94.7,264.09a3.49,3.49,0,0,0-.23,2.61,1.29,1.29,0,0,0,1.46.8c.8-.22,1-1.21,1-2a2.35,2.35,0,0,0-.09-.64C96.16,262.1,95.14,263.32,94.7,264.09Z" fill="#fff"/>
      <path id="Path_410" data-name="Path 410" d="M79.11,264.07a3.5,3.5,0,0,0-.23,2.61,1.28,1.28,0,0,0,1.46.8c.8-.21,1-1.21,1-2a2.82,2.82,0,0,0-.08-.65C80.57,262.09,79.55,263.31,79.11,264.07Z" fill="#fff"/>
      <path id="Path_411" data-name="Path 411" d="M86.64,261.38a3.5,3.5,0,0,0-.23,2.61,1.28,1.28,0,0,0,1.46.8c.8-.21,1-1.21,1-2a2.37,2.37,0,0,0-.09-.65C88.1,259.4,87.08,260.62,86.64,261.38Z" fill="#fff"/>
      <path id="Path_412" data-name="Path 412" d="M64.18,256.73a3.53,3.53,0,0,0-1.56,2.1,1.29,1.29,0,0,0,.82,1.45c.79.24,1.5-.49,1.92-1.18a2.66,2.66,0,0,0,.26-.6C66.47,255.81,65,256.31,64.18,256.73Z" fill="#fff"/>
      <path id="Path_413" data-name="Path 413" d="M57.31,240.07a3.712,3.712,0,0,1-.71-.21c-.45-.15-1.1-.37-1.92-.6a13.77,13.77,0,0,0-6.5-.46,8.07,8.07,0,0,0-3.27,1.44A6.76,6.76,0,0,0,43,242.47a6.63,6.63,0,0,0-.68,2.61v-.19a2.46,2.46,0,0,1,0-.55,5.48,5.48,0,0,1,.52-2,6.62,6.62,0,0,1,1.9-2.35,8.08,8.08,0,0,1,3.37-1.52,11.28,11.28,0,0,1,3.69-.11,16.811,16.811,0,0,1,2.93.67c.82.26,1.46.51,1.9.69a3.481,3.481,0,0,1,.68.35Z" fill="#fff"/>
      <path id="Path_414" data-name="Path 414" d="M72.61,245.8a2.15,2.15,0,0,1-.55-.13l-1.45-.44c-1.22-.4-2.9-1-4.73-1.65a49.937,49.937,0,0,1-4.63-1.94c-.58-.28-1-.51-1.36-.68a1.919,1.919,0,0,1-.48-.29,17.267,17.267,0,0,1,1.93.78c1.18.5,2.81,1.16,4.64,1.85l4.7,1.73,1.42.53A2.61,2.61,0,0,1,72.61,245.8Z" fill="#fff"/>
      <path id="Path_415" data-name="Path 415" d="M77,247.43a4.28,4.28,0,0,1-1.24-.33c-.67-.22-1.22-.37-1.2-.46a2.3,2.3,0,0,1,1.29.17C76.55,247,77.05,247.36,77,247.43Z" fill="#fff"/>
      <path id="Path_416" data-name="Path 416" d="M118.2,253.5a8.12,8.12,0,0,0-.79-1,8.64,8.64,0,0,0-2.81-2.1,12.87,12.87,0,0,0-5.07-1.19,33.588,33.588,0,0,0-6.42.57,47.11,47.11,0,0,1-6.45.74,36.251,36.251,0,0,1-5.3-.19,34.849,34.849,0,0,1-3.53-.58c-.41-.09-.73-.17-.94-.23a1.89,1.89,0,0,1-.33-.1,1.22,1.22,0,0,1,.34,0l.95.17c.83.15,2,.35,3.53.49a39.829,39.829,0,0,0,5.27.13,50.661,50.661,0,0,0,6.42-.76,32.24,32.24,0,0,1,6.47-.56,13,13,0,0,1,5.15,1.28,8.39,8.39,0,0,1,2.81,2.21,5.81,5.81,0,0,1,.55.81,1.26,1.26,0,0,1,.15.31Z" fill="#fff"/>
      <path id="Path_417" data-name="Path 417" d="M59.6,219.84a26.08,26.08,0,0,1-16.92-9.94c-1.26-1.66-2.35-3.89-1.44-5.77s3.31-2.4,5.31-2a8.93,8.93,0,0,1,7,7.09c-1.08-2.43-1.57-5.31-.47-7.74s4.19-4,6.57-2.82a6.21,6.21,0,0,1,2.81,3.83c1.84,5.75-.35,11.94-2.52,17.57" fill="#09877c"/>
    </g>
  </g>
</svg>
