<svg xmlns="http://www.w3.org/2000/svg" xmlns:xlink="http://www.w3.org/1999/xlink" width="25" height="27.649" viewBox="0 0 25 27.649">
  <defs>
    <clipPath id="clip-path">
      <rect id="Rectangle_2" data-name="Rectangle 2" width="25" height="27.649" transform="translate(1309 119)" fill="#fff" stroke="#707070" stroke-width="1"/>
    </clipPath>
  </defs>
  <g id="Mask_Group_2" data-name="Mask Group 2" transform="translate(-1309 -119)" clip-path="url(#clip-path)">
    <g id="noun-medical-history-2228524" transform="translate(1306.399 119)">
      <path id="Path_45" data-name="Path 45" d="M163.6,10.679a1.652,1.652,0,0,0-.489-1.175,1.686,1.686,0,0,0-2.355,0l-.528.528V1.688A1.686,1.686,0,0,0,158.546,0H145.059a.562.562,0,0,0-.4.163l-4.5,4.5a.562.562,0,0,0-.163.4V11.8h1.124V5.622h2.81a1.686,1.686,0,0,0,1.686-1.686V1.126h12.925a.562.562,0,0,1,.562.562v9.447l-6.923,6.923a.562.562,0,0,0-.129.219l-.781,2.338a.562.562,0,0,0,.708.714l2.338-.781h0a.562.562,0,0,0,.219-.129l4.569-4.575v9.447a.562.562,0,0,1-.562.562H141.687a.562.562,0,0,1-.562-.562V16.3H140v8.992a1.686,1.686,0,0,0,1.686,1.686h16.859a1.686,1.686,0,0,0,1.686-1.686V14.72l2.883-2.883a1.652,1.652,0,0,0,.489-1.158ZM143.935,4.5h-2.017L144.5,1.918V3.935a.561.561,0,0,1-.562.562Zm8.891,15,.275.275-.41.135Zm9.492-8.43-8.177,8.155-.764-.764,8.183-8.183a.54.54,0,1,1,.764.764Z" transform="translate(-136.769 -0.002)"/>
      <path id="Path_46" data-name="Path 46" d="M245,373.33h5.62v1.124H245Z" transform="translate(-236.71 -355.347)"/>
      <path id="Path_47" data-name="Path 47" d="M198.33,420H206.2v1.124H198.33Z" transform="translate(-192.288 -399.769)"/>
      <path id="Path_48" data-name="Path 48" d="M198.33,466.67h14.611v1.124H198.33Z" transform="translate(-192.288 -444.191)"/>
      <path id="Path_49" data-name="Path 49" d="M198.33,373.33h1.124v1.124H198.33Z" transform="translate(-192.288 -355.347)"/>
      <path id="Path_50" data-name="Path 50" d="M140,268.33h1.124v2.248H140Z" transform="translate(-136.768 -255.405)"/>
      <path id="Path_51" data-name="Path 51" d="M233.858,120.731a3.748,3.748,0,0,0-1.124-2.681,3.9,3.9,0,0,0-5.058-.337,3.9,3.9,0,0,0-5.058.337,3.765,3.765,0,0,0,0,5.384l4.653,4.586a.562.562,0,0,0,.787,0l4.676-4.6A3.748,3.748,0,0,0,233.858,120.731Zm-10.442-1.894a2.765,2.765,0,0,1,3.866,0,.562.562,0,0,0,.787,0,2.765,2.765,0,0,1,3.866,0,2.568,2.568,0,0,1,.7,2.585h-2.709a.562.562,0,0,0-.4.163l-.725.731-2.411-2.411h0a.562.562,0,0,0-.793,0l-1.523,1.517h-1.349a2.569,2.569,0,0,1,.691-2.585Zm4.26,7.98-4.26-4.192-.062-.079h.95a.562.562,0,0,0,.4-.163l1.287-1.292L228.4,123.5a.562.562,0,0,0,.792,0l.961-.955H232l-.062.073Z" transform="translate(-214.329 -111.306)"/>
      <g id="Group_37" data-name="Group 37" transform="translate(0 33.319)">
        <path id="Path_52" data-name="Path 52" d="M4.648-41.323a1.347,1.347,0,0,1-.3.114,1.389,1.389,0,0,1-.329.038,1.125,1.125,0,0,1-.811-.286,1.023,1.023,0,0,1-.3-.776,1.025,1.025,0,0,1,.3-.777,1.124,1.124,0,0,1,.811-.287,1.389,1.389,0,0,1,.329.038,1.332,1.332,0,0,1,.3.114v.424a1.162,1.162,0,0,0-.29-.147.959.959,0,0,0-.3-.047.567.567,0,0,0-.445.181.721.721,0,0,0-.162.5.721.721,0,0,0,.162.5.568.568,0,0,0,.445.181.954.954,0,0,0,.3-.047,1.149,1.149,0,0,0,.29-.147Z" transform="translate(-2.906 43.296)"/>
      </g>
      <g id="Group_38" data-name="Group 38" transform="translate(7.147 33.432)">
        <path id="Path_53" data-name="Path 53" d="M1.5-40.953v.437h.507v.351H1.5v.652a.19.19,0,0,0,.042.145.269.269,0,0,0,.169.038h.252v.351H1.544a.571.571,0,0,1-.412-.121.572.572,0,0,1-.121-.412v-.652H.765v-.351H1.01v-.437Z" transform="translate(-0.765 40.953)"/>
      </g>
      <g id="Group_39" data-name="Group 39" transform="translate(10.485 33.27)">
        <path id="Path_54" data-name="Path 54" d="M3.78-43.489v-.823h.495v2.134H3.78V-42.4a.662.662,0,0,1-.224.2.6.6,0,0,1-.282.063.574.574,0,0,1-.467-.226.9.9,0,0,1-.182-.581.9.9,0,0,1,.182-.581.574.574,0,0,1,.467-.226.6.6,0,0,1,.281.064.674.674,0,0,1,.224.2Zm-.324.995A.278.278,0,0,0,3.7-42.61a.57.57,0,0,0,.083-.335.571.571,0,0,0-.083-.335.278.278,0,0,0-.241-.115.276.276,0,0,0-.239.115.569.569,0,0,0-.083.335.569.569,0,0,0,.083.335A.276.276,0,0,0,3.456-42.494Z" transform="translate(-2.625 44.312)"/>
      </g>
      <g id="Group_40" data-name="Group 40" transform="translate(13.585 33.27)">
        <path id="Path_55" data-name="Path 55" d="M5.723-42.5a.278.278,0,0,0,.24-.115.566.566,0,0,0,.084-.335.566.566,0,0,0-.084-.335.278.278,0,0,0-.24-.115.282.282,0,0,0-.242.116.562.562,0,0,0-.084.334.562.562,0,0,0,.084.334A.281.281,0,0,0,5.723-42.5ZM5.4-43.49a.678.678,0,0,1,.225-.2.609.609,0,0,1,.284-.064.573.573,0,0,1,.467.226.9.9,0,0,1,.182.581.9.9,0,0,1-.182.581.573.573,0,0,1-.467.226.609.609,0,0,1-.284-.064.674.674,0,0,1-.225-.2v.222H4.906v-2.134H5.4Z" transform="translate(-4.906 44.313)"/>
      </g>
      <g id="Group_41" data-name="Group 41" transform="translate(18.406 33.27)">
        <path id="Path_56" data-name="Path 56" d="M4.906-44.312H5.4v2.134H4.906Z" transform="translate(-4.906 44.312)"/>
      </g>
      <g id="Group_42" data-name="Group 42" transform="translate(19.369 33.27)">
        <path id="Path_57" data-name="Path 57" d="M4.906-43.715H5.4v1.536H4.906Zm0-.6H5.4v.4H4.906Z" transform="translate(-4.906 44.313)"/>
      </g>
      <g id="Group_43" data-name="Group 43" transform="translate(20.332 33.27)">
        <path id="Path_58" data-name="Path 58" d="M5.723-42.5a.278.278,0,0,0,.24-.115.566.566,0,0,0,.084-.335.566.566,0,0,0-.084-.335.278.278,0,0,0-.24-.115.282.282,0,0,0-.242.116.562.562,0,0,0-.084.334.562.562,0,0,0,.084.334A.281.281,0,0,0,5.723-42.5ZM5.4-43.49a.678.678,0,0,1,.225-.2.609.609,0,0,1,.284-.064.573.573,0,0,1,.467.226.9.9,0,0,1,.182.581.9.9,0,0,1-.182.581.573.573,0,0,1-.467.226.609.609,0,0,1-.284-.064.674.674,0,0,1-.225-.2v.222H4.906v-2.134H5.4Z" transform="translate(-4.906 44.313)"/>
      </g>
      <g id="Group_44" data-name="Group 44" transform="translate(25.436 33.432)">
        <path id="Path_59" data-name="Path 59" d="M1.5-40.953v.437h.507v.351H1.5v.652a.19.19,0,0,0,.042.145.269.269,0,0,0,.169.038h.252v.351H1.544a.571.571,0,0,1-.412-.121.572.572,0,0,1-.121-.412v-.652H.765v-.351H1.01v-.437Z" transform="translate(-0.765 40.953)"/>
      </g>
      <g id="Group_45" data-name="Group 45" transform="translate(28.685 33.432)">
        <path id="Path_60" data-name="Path 60" d="M1.5-40.953v.437h.507v.351H1.5v.652a.19.19,0,0,0,.042.145.269.269,0,0,0,.169.038h.252v.351H1.544a.571.571,0,0,1-.412-.121.572.572,0,0,1-.121-.412v-.652H.765v-.351H1.01v-.437Z" transform="translate(-0.765 40.953)"/>
      </g>
    </g>
  </g>
</svg>
