<?xml version="1.0" encoding="UTF-8"?>
<svg id="Layer_2" data-name="Layer 2" xmlns="http://www.w3.org/2000/svg" viewBox="0 0 1733.6 613.72">
  <defs>
    <style>
      .cls-1 {
        fill: #004f4f;
      }

      .cls-1, .cls-2, .cls-3 {
        stroke-width: 0px;
      }

      .cls-2 {
        fill: #00b5b6;
      }

      .cls-3 {
        fill: #f8f7ee;
      }
    </style>
  </defs>
  <g id="Layer_1-2" data-name="Layer 1">
    <g>
      <path class="cls-1" d="m250.65,112.43c138.43,0,250.65,112.22,250.65,250.65s-112.22,250.65-250.65,250.65S0,501.5,0,363.08,112.22,112.43,250.65,112.43"/>
      <path class="cls-1" d="m688.5,320.22c-27.92,0-44.72,12.59-50.38,37.77h92.59v-1.49c-.51-10.16-5.29-19.64-13.15-26.11-8.13-6.81-18.45-10.42-29.05-10.17h-.02Zm5.2,159.96c-19.21.44-38.19-4.02-55.19-12.95-15.35-8.19-28.1-20.5-36.84-35.54-8.96-15.78-13.51-33.7-13.16-51.84-.4-18.65,4.01-37.07,12.78-53.52,8.21-15.11,20.37-27.72,35.18-36.47,15.67-9.09,33.54-13.7,51.65-13.33,33.42-.51,64.28,17.82,79.81,47.41,7.96,15.42,11.74,32.66,10.92,49.99l-.36,15.91h-140.73c2.25,13.28,9.47,25.2,20.19,33.34,11.91,8.51,26.31,12.81,40.93,12.22,8.27.11,16.48-1.27,24.25-4.08,8.57-3.49,16.52-8.37,23.51-14.45l24.44,34.04c-10.7,9.44-23.08,16.79-36.48,21.66-13.08,4.95-26.93,7.52-40.91,7.6"/>
      <path class="cls-1" d="m879.72,480.13c-16.49.29-32.86-2.73-48.15-8.89-13.31-5.36-25.02-14.03-34.04-25.18l31.84-27.06c6.88,7.79,15.51,13.82,25.18,17.6,9.1,3.53,18.78,5.34,28.53,5.36,6.57.31,13.05-1.5,18.5-5.18,4.63-3.32,7.29-8.74,7.06-14.44.13-5.18-2.39-10.06-6.69-12.95-10.1-5.05-20.79-8.77-31.85-11.1-24.92-6.4-42.57-15.17-52.94-26.3-9.17-9.97-14.08-23.12-13.69-36.66-.18-11.08,3.49-21.88,10.38-30.55,7.26-9.04,16.69-16.11,27.41-20.55,11.69-5.02,24.3-7.54,37.03-7.42,14.83-.09,29.54,2.68,43.32,8.15,12.79,4.92,24.39,12.49,34.04,22.22l-27.39,29.99c-7.11-6.54-15.17-11.98-23.89-16.11-7.74-3.99-16.28-6.21-24.99-6.47-17.77,0-26.67,6.16-26.67,18.51.16,5.77,3.23,11.07,8.17,14.07,10.6,5.63,21.94,9.74,33.69,12.22,18.42,3.58,35.55,12.02,49.62,24.43,8.66,9.32,13.19,21.74,12.59,34.44.13,11.44-3.45,22.61-10.19,31.85-7.1,9.64-16.61,17.24-27.58,22.03-12.36,5.48-25.77,8.21-39.28,8"/>
      <path class="cls-1" d="m1078.72,436.06c13.99.46,27.45-5.38,36.67-15.92,18.75-24.75,18.75-58.94,0-83.69-9.22-10.54-22.68-16.38-36.67-15.92-13.83-.43-27.1,5.42-36.12,15.92-18.51,24.83-18.51,58.86,0,83.69,8.99,10.53,22.28,16.39,36.12,15.97v-.04Zm-13.7,44.08c-15.71.18-31.09-4.48-44.06-13.33-13.37-9.21-24.16-21.71-31.3-36.29-15.55-33.27-15.55-71.71,0-104.98,7.21-14.55,18.21-26.9,31.84-35.74,13.65-8.69,29.55-13.2,45.74-12.95,12.6-.29,25.07,2.57,36.29,8.34,9.89,5.12,18.39,12.55,24.81,21.66v-25.93h50.37v195.54h-50.73v-26.31c-7.34,8.98-16.48,16.3-26.86,21.48-11.17,5.73-23.56,8.65-36.1,8.52"/>
      <path class="cls-1" d="m1309.33,436.06c13.99.47,27.45-5.38,36.67-15.92,18.76-24.75,18.76-58.94,0-83.69-9.21-10.54-22.67-16.38-36.67-15.92-13.83-.44-27.1,5.42-36.12,15.92-18.51,24.83-18.51,58.86,0,83.69,8.99,10.53,22.28,16.4,36.12,15.97v-.04Zm-13.7,44.08c-15.71.18-31.09-4.47-44.06-13.33-13.37-9.21-24.15-21.71-31.3-36.29-15.56-33.27-15.56-71.71,0-104.98,7.21-14.55,18.21-26.9,31.84-35.74,13.65-8.69,29.55-13.2,45.73-12.95,12.61-.29,25.08,2.57,36.3,8.34,9.88,5.12,18.39,12.55,24.8,21.66v-25.93h50.37v195.54h-50.74v-26.31c-7.33,8.98-16.48,16.3-26.85,21.48-11.16,5.73-23.55,8.65-36.1,8.52"/>
      <rect class="cls-1" x="1449.64" y="202.43" width="50.36" height="274.03"/>
      <path class="cls-2" d="m389.91,283.03c0,12.75-10.4,23.05-23.15,23.05s-23.03-10.3-23.03-23.05,10.38-23.13,23.03-23.13,23.15,10.39,23.15,23.13"/>
      <path class="cls-3" d="m411.04,376.01c-2.01,2.79-5.24,4.28-8.47,4.28-1.74,0-3.49-.44-5.15-1.4l-30.64-17.2-30.56,17.2c-1.66.96-3.41,1.4-5.15,1.4-3.23,0-6.46-1.48-8.46-4.28-3.41-4.71-2.45-11.26,2.26-14.67l34.84-25.67,7.07-5.24,7.15,5.24,34.83,25.67c4.63,3.4,5.68,9.95,2.27,14.67"/>
      <path class="cls-3" d="m180.96,342.07c1.16-12.87,3.99-25.52,8.43-37.66,3.47-12.21,11.24-22.76,21.89-29.68l4.77-2.38c1.42-.66,2.88-1.25,4.37-1.75,2.98-1,6.09-1.62,9.23-1.85,6.28-.54,12.59.74,18.16,3.69,8.7,4.28,14.42,12.92,14.96,22.6.12,1.75.18,3.64.17,5.71-.1,2.36-.42,4.69-.95,6.98-1.07,5.01-2.97,9.8-5.62,14.18-6.93,10.22-16.68,18.2-28.06,22.98-13.58,6.15-28.06,10.04-42.89,11.51-1.54.18-3.08.25-4.61.39-.24-4.91-.21-9.83.11-14.73h.04Zm185.54,62.85c-5.32-2.38-11.57,0-13.96,5.33v.03s-.19.41-.19.41c-2.9,6.49-6.5,12.64-10.76,18.33-8.43,10.96-19.46,19.65-32.07,25.32-6.17,2.7-12.61,4.75-19.21,6.11-6.6,1.22-13.31,1.76-20.02,1.62-3.33.12-6.73-.48-10.05-.63l-4.59-.77-4.51-1.07c-11.93-3.35-22.86-9.55-31.87-18.05-17.63-16.87-29.95-38.54-35.42-62.34.75,0,1.49.11,2.23.16,17.39,1.03,34.83.04,52-2.95,9.36-1.8,18.46-4.79,27.06-8.92,9.46-4.6,17.94-11,24.97-18.85,7.24-8.28,12.59-18.03,15.71-28.57,1.64-5.44,2.68-11.04,3.11-16.72.32-6.11-.26-12.25-1.75-18.19-3.22-11.99-10.45-22.51-20.48-29.83-8.83-6.29-18.99-10.53-29.68-12.39-9.66-1.85-19.52-2.47-29.34-1.84-4.88.27-9.73.93-14.51,1.96-2.37.47-4.91,1.21-7.09,1.83l-6.43,1.95c-19.21,6.07-36.32,17.4-49.39,32.72-12.44,15.03-21.39,32.65-26.19,51.57-2.06,7.5-3.52,15.15-4.37,22.88-8.96-1.57-17.8-3.82-26.42-6.73h-.09c-.13-.05-.26-.08-.38-.12-4.41-1.28-9.02,1.26-10.3,5.67-1.29,4.41,1.25,9.02,5.66,10.3,10.31,3,20.57,5.41,30.9,7.53.16,6.81.92,13.6,2.24,20.29,8.35,39.29,32.59,73.38,66.96,94.18,17.09,10.35,36.32,16.66,56.22,18.46,2.49.18,4.99.25,7.46.36l7.42-.17c4.7-.46,9.34-.54,13.97-1.41,9.3-1.34,18.44-3.63,27.27-6.84,8.76-3.33,17.15-7.6,25.01-12.73,7.72-5.18,14.81-11.23,21.13-18.03,12.37-13.44,21.17-29.74,25.6-47.45,1.37-5.01-1.11-10.27-5.84-12.41"/>
    </g>
    <g>
      <path class="cls-1" d="m1634.97,224.68h0c-.17.49-.37.97-.59,1.43-.94,2.09-2.2,4.01-3.76,5.72-3.32,3.66-7.82,6.12-12.71,6.89-6.74,1.11-13.72-1.18-18.67-6.14-.25-.25-.48-.49-.72-.76-1.55-1.7-2.79-3.61-3.71-5.72-.44-1-.8-2.04-1.08-3.13l-5.32-18.9-12.88-45.82-44.78-12.54-19.87-5.56c-.97-.26-1.91-.6-2.84-1-2.2-.96-4.25-2.33-6.06-4.04-5.29-5.01-7.9-12.35-6.8-19.14.79-4.91,3.13-9.28,6.78-12.64,1.78-1.64,3.86-3,6.08-3.96.47-.22.96-.41,1.45-.58,2.28-.81,4.68-1.21,7.1-1.21,1.15,0,2.3.09,3.44.28l80.67,12.17,3.05,20.01,20.03,3.02,12.3,80.87c.56,3.61.18,7.32-1.08,10.74Z"/>
      <path class="cls-2" d="m1725.87,104.48c-1.4-1.33-2.96-2.49-4.65-3.44-1.62-.92-3.36-1.64-5.19-2.13l-19.23-5.38-9.3-2.6-34.92-9.77-9.75-34.69-2.22-7.92-5.88-20.93c-.44-1.67-1.05-3.24-1.81-4.72-.92-1.81-2.08-3.48-3.47-5.01-.25-.28-.52-.57-.8-.84-4.54-4.53-10.62-7.05-16.83-7.05-1.24,0-2.49.1-3.73.31-5.59.89-10.43,3.67-13.98,7.58-.22.24-.43.48-.63.73-1.11,1.32-2.07,2.76-2.87,4.28-.6,1.14-1.11,2.33-1.53,3.57-.26.79-.49,1.6-.67,2.42-.02.08-.04.17-.06.25-.25,1.18-.14,4.12.06,7.07v67.32h-75.78s-.03,0-.08.01c-1.32.2-2.62.52-3.9.94-.23.07-.44.14-.63.2h0s-6.43,3.05-9.03,5.45c-4.37,4.03-7.18,9.27-8.12,15.15-1.33,8.2,1.77,17.01,8.1,23.01,2.64,2.5,5.75,4.41,9.06,5.56.56.2,1.13.37,1.69.52l4.84,1.35,57.43,16.08,16.42,58.39,1.11,3.93c.18.68.39,1.34.62,1.98,1.13,3.22,2.86,6.13,5.15,8.65.28.31.57.62.87.92,4.94,4.96,11.6,7.69,18.38,7.69,1.36,0,2.72-.11,4.07-.33,5.85-.94,11.26-3.88,15.25-8.27,2.28-2.51,4.04-5.4,5.21-8.57,0-.03.02-.05.03-.08.86-2.33,1.37-4.77,1.52-7.24.02-.36.02-.97,0-1.67v-71.47h70.11c.31,0,.54,0,.64,0,.87-.05,1.72-.16,2.56-.31,1-.17,1.98-.42,2.94-.73,1.52-.48,2.99-1.11,4.37-1.88,1.4-.78,2.7-1.69,3.92-2.72.25-.21.49-.43.73-.65,3.83-3.53,6.56-8.33,7.45-13.89,1.25-7.74-1.82-15.74-7.45-21.07Zm-95.26,127.35c-3.32,3.66-7.82,6.12-12.71,6.89-6.74,1.11-13.72-1.18-18.67-6.14-.25-.25-.48-.49-.72-.76-1.55-1.7-2.79-3.61-3.71-5.72-.44-1-.8-2.04-1.08-3.13l-5.32-18.9-12.88-45.82-44.78-12.54-19.87-5.56c-.97-.26-1.91-.6-2.84-1-2.2-.96-4.25-2.33-6.06-4.04-5.29-5.01-7.9-12.35-6.8-19.14.79-4.91,3.13-9.28,6.78-12.64,1.78-1.64,3.86-3,6.08-3.96.47-.22.96-.41,1.45-.58,2.28-.81,4.68-1.21,7.1-1.21,1.15,0,2.3.09,3.44.28l80.67,12.17,3.05,20.01,20.03,3.02,12.3,80.87c.56,3.61.18,7.32-1.08,10.74h0c-.17.49-.37.97-.59,1.43-.94,2.09-2.2,4.01-3.76,5.72Zm99.12-106.86c-.73,4.58-2.92,8.66-6.31,11.78-.21.19-.42.38-.64.57-.5.43-1.02.83-1.56,1.21-1.67,1.17-3.5,2.07-5.48,2.7-.83.26-1.66.47-2.49.61-1.13.21-2.3.31-3.47.31-1.06,0-2.14-.09-3.21-.25h-.02s-.02,0-.02,0l-.43-.07-4.82-.73-67.88-10.25-2.46-.37-3.26-.49-2.25-.33-2.26-.34-16.27-2.46-2.48-16.25-.34-2.26-.35-2.25-.59-3.88-.28-1.83-10.21-67.08-.73-4.78-.23-1.49c-.36-2.38-.31-4.78.19-7.14.15-.73.36-1.5.62-2.27.56-1.67,1.32-3.26,2.3-4.72.44-.68.92-1.32,1.44-1.94l.03-.04.03-.04c.12-.15.26-.31.47-.55,3.15-3.47,7.26-5.7,11.88-6.43,1.03-.17,2.09-.26,3.14-.26,5.26,0,10.46,2.18,14.26,5.98.23.23.46.47.68.72.73.8,1.39,1.66,1.96,2.56,1.11,1.72,1.95,3.61,2.49,5.66v.02s0,.02,0,.02l8.11,28.84,1.28,4.55,8.47,30.14.56,1.96,1.96.55,31.7,8.87,3.22.9,28.53,7.98h.02s.02,0,.02,0c2.17.58,4.25,1.58,6.13,2.93.75.54,1.47,1.13,2.15,1.77,4.95,4.68,7.39,11.52,6.36,17.85Z"/>
      <path class="cls-1" d="m1729.73,124.98c-.73,4.58-2.92,8.66-6.31,11.78-.21.19-.42.38-.64.57-.5.43-1.02.83-1.56,1.21-1.67,1.17-3.5,2.07-5.48,2.7-.83.26-1.66.47-2.49.61-1.13.21-2.3.31-3.47.31-1.06,0-2.14-.09-3.21-.25h-.02s-.02,0-.02,0l-.43-.07-4.82-.73-67.88-10.25-2.46-.37-3.26-.49-2.25-.33-2.26-.34-16.27-2.46-2.48-16.25-.34-2.26-.35-2.25-.59-3.88-.28-1.83-10.21-67.08-.73-4.78-.23-1.49c-.36-2.38-.31-4.78.19-7.14.15-.73.36-1.5.62-2.27.56-1.67,1.32-3.26,2.3-4.72.44-.68.92-1.32,1.44-1.94l.03-.04.03-.04c.12-.15.26-.31.47-.55,3.15-3.47,7.26-5.7,11.88-6.43,1.03-.17,2.09-.26,3.14-.26,5.26,0,10.46,2.18,14.26,5.98.23.23.46.47.68.72.73.8,1.39,1.66,1.96,2.56,1.11,1.72,1.95,3.61,2.49,5.66v.02s0,.02,0,.02l8.11,28.84,1.28,4.55,8.47,30.14.56,1.96,1.96.55,31.7,8.87,3.22.9,28.53,7.98h.02s.02,0,.02,0c2.17.58,4.25,1.58,6.13,2.93.75.54,1.47,1.13,2.15,1.77,4.95,4.68,7.39,11.52,6.36,17.85Z"/>
    </g>
  </g>
</svg>