<svg xmlns="http://www.w3.org/2000/svg" width="965.3" height="434.571" viewBox="0 0 965.3 434.571">
  <g id="Group_317" data-name="Group 317" transform="translate(-3.228 1.142)">
    <g id="Group_315" data-name="Group 315">
      <g id="Group_257" data-name="Group 257" transform="translate(238.088 571.543) rotate(-139)">
        <g id="Group_215" data-name="Group 215" transform="translate(35.32 218.526)">
          <path id="Path_1031" data-name="Path 1031" d="M0,.17S14.16,3.03,20.99,0" transform="translate(0 1.654)" fill="#008278"/>
          <path id="Path_1032" data-name="Path 1032" d="M0,1.824a13.209,13.209,0,0,0,4.98,3.12A17.3,17.3,0,0,0,10.44,6a15.73,15.73,0,0,0,5.64-.8,9.2,9.2,0,0,0,4.91-3.55c-2.1-.47-3.72-.87-5.39-1.14a39.318,39.318,0,0,0-4.96-.5,31.832,31.832,0,0,0-5.12.26A19.889,19.889,0,0,0,0,1.824Z" transform="translate(0 0)" fill="#008278"/>
        </g>
        <g id="Group_216" data-name="Group 216" transform="translate(43.11 203.73)">
          <path id="Path_1033" data-name="Path 1033" d="M0,3.51S10.34,2.71,15.74,0" transform="translate(0 0.86)" fill="#008278"/>
          <path id="Path_1034" data-name="Path 1034" d="M0,4.37A9.782,9.782,0,0,0,4.35,6.24,11.663,11.663,0,0,0,8.6,6.18a11.108,11.108,0,0,0,4.01-1.63A8,8,0,0,0,15.74.86,18.137,18.137,0,0,0,11.29.02,15.422,15.422,0,0,0,7.43.29,14.891,14.891,0,0,0,3.7,1.58,12.539,12.539,0,0,0,0,4.37Z" transform="translate(0 0)" fill="#008278"/>
        </g>
        <g id="Group_217" data-name="Group 217" transform="translate(42.46 189.005)">
          <path id="Path_1035" data-name="Path 1035" d="M0,1.12S7.79,2.39,11.77,0" transform="translate(0 1.585)" fill="#008278"/>
          <path id="Path_1036" data-name="Path 1036" d="M0,2.7a6.535,6.535,0,0,0,2.87,2.64A6.827,6.827,0,0,0,6.15,6a6.58,6.58,0,0,0,3.33-1.07,4.958,4.958,0,0,0,2.3-3.34C10.29,1,9.39.585,8.47.325A7.961,7.961,0,0,0,5.84.015a8.372,8.372,0,0,0-2.72.64A10.42,10.42,0,0,0,0,2.7Z" transform="translate(0 0)" fill="#008278"/>
        </g>
        <g id="Group_218" data-name="Group 218" transform="translate(21.79 191.179)">
          <path id="Path_1037" data-name="Path 1037" d="M0,0A21.545,21.545,0,0,1,8.11,2.7" transform="translate(0 2.131)" fill="#008278"/>
          <path id="Path_1038" data-name="Path 1038" d="M0,2.131a8.788,8.788,0,0,0,1.61,2.66,3.852,3.852,0,0,0,1.68,1.12,3.811,3.811,0,0,0,1.97.06,10.738,10.738,0,0,0,2.86-1.15,4.784,4.784,0,0,0-.94-3.16A4.192,4.192,0,0,0,5.12.191a4.113,4.113,0,0,0-2.48,0A5.346,5.346,0,0,0,0,2.131Z" transform="translate(0 0)" fill="#008278"/>
        </g>
        <g id="Group_219" data-name="Group 219" transform="translate(0 195.586)">
          <path id="Path_1039" data-name="Path 1039" d="M0,0S8.43,4.13,10.98,2.06" transform="translate(0 1.074)" fill="#008278"/>
          <path id="Path_1040" data-name="Path 1040" d="M0,1.074A6.555,6.555,0,0,0,1.8,4.4a6.451,6.451,0,0,0,2.77,1.62,6.5,6.5,0,0,0,3.45.02,7.589,7.589,0,0,0,.94-.36,5.341,5.341,0,0,0,.91-.57,3.878,3.878,0,0,0,.77-.85,2.288,2.288,0,0,0,.34-1.12,2.927,2.927,0,0,1-.53-.21,1.7,1.7,0,0,1-.39-.22,4.8,4.8,0,0,1-.62-.5l-.52-.46c-.18-.16-.35-.29-.5-.4A6.388,6.388,0,0,0,6.22.264a7.354,7.354,0,0,0-2.7-.23A9.289,9.289,0,0,0,0,1.074Z" transform="translate(0 0)" fill="#008278"/>
        </g>
        <g id="Group_220" data-name="Group 220" transform="translate(9.38 174.849)">
          <path id="Path_1041" data-name="Path 1041" d="M0,.216A120.4,120.4,0,0,1,13.52.206" transform="translate(0 2.985)" fill="#008278"/>
          <path id="Path_1042" data-name="Path 1042" d="M0,3.2a9.387,9.387,0,0,0,3.45,2.21,9.447,9.447,0,0,0,3.34.58,9.4,9.4,0,0,0,3.3-.62A10.536,10.536,0,0,0,13.52,3.2,7.667,7.667,0,0,0,10.2.661,8.727,8.727,0,0,0,6.73,0a8.822,8.822,0,0,0-3.42.72A8.437,8.437,0,0,0,0,3.2Z" transform="translate(0 0)" fill="#008278"/>
        </g>
        <g id="Group_221" data-name="Group 221" transform="translate(55.97 161.484)">
          <path id="Path_1043" data-name="Path 1043" d="M0,1.12A40.349,40.349,0,0,0,11.77,0" transform="translate(0 2.066)" fill="#008278"/>
          <path id="Path_1044" data-name="Path 1044" d="M0,3.186a6.438,6.438,0,0,0,3.04,2.4,6.813,6.813,0,0,0,3.19.43,6.883,6.883,0,0,0,3.01-1.05,6.971,6.971,0,0,0,2.53-2.89A9.241,9.241,0,0,0,8.48.306,7.275,7.275,0,0,0,5.62.046a7.551,7.551,0,0,0-2.73.84A10.509,10.509,0,0,0,0,3.186Z" transform="translate(0 0)" fill="#008278"/>
        </g>
        <g id="Group_222" data-name="Group 222" transform="translate(65.68 184.479)">
          <path id="Path_1045" data-name="Path 1045" d="M0,2.23S3.18,3.02,10.02,0" transform="translate(0 1.341)" fill="#008278"/>
          <path id="Path_1046" data-name="Path 1046" d="M0,3.571A4.6,4.6,0,0,0,2.86,5.9a5.562,5.562,0,0,0,3.02.08,5.4,5.4,0,0,0,2.53-1.45,6.085,6.085,0,0,0,1.61-3.19A8.574,8.574,0,0,0,6.81.091a5.748,5.748,0,0,0-2.43.08,5.668,5.668,0,0,0-2.07,1.06A23.28,23.28,0,0,0,0,3.571Z" transform="translate(0 0)" fill="#008278"/>
        </g>
        <g id="Group_223" data-name="Group 223" transform="translate(78.08 171.682)">
          <path id="Path_1047" data-name="Path 1047" d="M0,3.82S11.77,2.7,17.18,0" transform="translate(0 0.768)" fill="#008278"/>
          <path id="Path_1048" data-name="Path 1048" d="M0,4.588a10.944,10.944,0,0,0,4.73,1.77,13.85,13.85,0,0,0,4.59-.13,12.922,12.922,0,0,0,4.35-1.68,8.716,8.716,0,0,0,3.5-3.78,22.051,22.051,0,0,0-4.78-.76,18.684,18.684,0,0,0-4.24.34,18,18,0,0,0-4.11,1.36A13.97,13.97,0,0,0,0,4.588Z" transform="translate(0 0)" fill="#008278"/>
        </g>
        <g id="Group_224" data-name="Group 224" transform="translate(76.33 157.688)">
          <path id="Path_1049" data-name="Path 1049" d="M0,2.87S8.91,2.39,12.88,0" transform="translate(0 1.082)" fill="#008278"/>
          <path id="Path_1050" data-name="Path 1050" d="M0,3.952a7.713,7.713,0,0,0,3.6,2.02,8.091,8.091,0,0,0,3.56.1A7.872,7.872,0,0,0,10.51,4.6a5.974,5.974,0,0,0,2.38-3.53A19.317,19.317,0,0,0,9.14.082a9.7,9.7,0,0,0-6.12,1.21A10.4,10.4,0,0,0,0,3.952Z" transform="translate(0 0)" fill="#008278"/>
        </g>
        <g id="Group_225" data-name="Group 225" transform="translate(88.91 193.745)">
          <path id="Path_1051" data-name="Path 1051" d="M0,3.19S11.77,2.07,14.31,0" transform="translate(0 0.965)" fill="#008278"/>
          <path id="Path_1052" data-name="Path 1052" d="M0,4.155a9.088,9.088,0,0,0,3.98,1.89,10.242,10.242,0,0,0,3.86.05,9.793,9.793,0,0,0,3.68-1.46,7.819,7.819,0,0,0,1.67-1.46A4.439,4.439,0,0,0,14.31.965c-.91-.18-1.48-.35-2.16-.54A12.724,12.724,0,0,0,10.3.085,11.569,11.569,0,0,0,6.77.2,11.43,11.43,0,0,0,3.34,1.4,10.661,10.661,0,0,0,0,4.155Z" transform="translate(0 0)" fill="#008278"/>
        </g>
        <g id="Group_226" data-name="Group 226" transform="translate(86.37 210.094)">
          <path id="Path_1053" data-name="Path 1053" d="M0,1.91S7.48,1.75,8.59,0" transform="translate(0 1.486)" fill="#008278"/>
          <path id="Path_1054" data-name="Path 1054" d="M0,3.4a5.707,5.707,0,0,0,2.43,2.21,4.317,4.317,0,0,0,2.48.37,4.581,4.581,0,0,0,2.41-1.16,4.866,4.866,0,0,0,1.04-1.34,2.4,2.4,0,0,0,.23-1.99A3.417,3.417,0,0,1,7.06.836,7.741,7.741,0,0,0,6,.286,3.7,3.7,0,0,0,4.02.046a4.429,4.429,0,0,0-1.98.88A7.593,7.593,0,0,0,0,3.4Z" transform="translate(0 0)" fill="#008278"/>
        </g>
        <g id="Group_227" data-name="Group 227" transform="translate(123.43 207.07)">
          <path id="Path_1055" data-name="Path 1055" d="M0,3.98S8.91,3.5,11.13,0" transform="translate(0 0.19)" fill="#008278"/>
          <path id="Path_1056" data-name="Path 1056" d="M0,4.17A6.671,6.671,0,0,0,3.39,6.14a6.864,6.864,0,0,0,3.4-.08A6.6,6.6,0,0,0,9.9,4.189a5.4,5.4,0,0,0,1.11-1.75,5.36,5.36,0,0,0,.25-1.09c0-.2,0-.4-.01-.59a4.956,4.956,0,0,0-.12-.58c-.21.02-.4.02-.59.02-.17.01-.33.01-.48.01-.33-.03-.61-.03-.88-.07-.55-.07-.98-.1-1.45-.13a8.156,8.156,0,0,0-2.56.28A8.575,8.575,0,0,0,2.64,1.5,10.6,10.6,0,0,0,0,4.17Z" transform="translate(0 0)" fill="#008278"/>
        </g>
        <g id="Group_228" data-name="Group 228" transform="translate(109.25 147.79)">
          <path id="Path_1057" data-name="Path 1057" d="M0,6.52S6.84,3.5,9.06,0" transform="translate(0 0)" fill="#008278"/>
          <path id="Path_1058" data-name="Path 1058" d="M0,6.52a6.353,6.353,0,0,0,3.65.78A6.2,6.2,0,0,0,6.59,6.28,6.1,6.1,0,0,0,8.73,3.86,4.968,4.968,0,0,0,9.06,0,23.039,23.039,0,0,0,5.62.32a6.7,6.7,0,0,0-2.36.98A7.117,7.117,0,0,0,1.37,3.2,9.362,9.362,0,0,0,0,6.52Z" transform="translate(0 0)" fill="#008278"/>
        </g>
        <g id="Group_229" data-name="Group 229" transform="translate(265.38 22.495)">
          <path id="Path_1059" data-name="Path 1059" d="M0,9.23S8.74,1.27,14.47,0" transform="translate(0 0.695)" fill="#008278"/>
          <path id="Path_1060" data-name="Path 1060" d="M0,9.925A14.085,14.085,0,0,0,4.77,9a18.177,18.177,0,0,0,3.72-1.94A19.479,19.479,0,0,0,11.58,4.4,33.591,33.591,0,0,0,14.47.7,7.643,7.643,0,0,0,9.36.225a11.954,11.954,0,0,0-4.27,1.88,12.794,12.794,0,0,0-3.24,3.2A10.412,10.412,0,0,0,0,9.925Z" transform="translate(0 0)" fill="#008278"/>
        </g>
        <g id="Group_230" data-name="Group 230" transform="translate(259.81 6.688)">
          <path id="Path_1061" data-name="Path 1061" d="M0,6.84A66.376,66.376,0,0,1,10.49,0" transform="translate(0 0.602)" fill="#008278"/>
          <path id="Path_1062" data-name="Path 1062" d="M0,7.442a9.333,9.333,0,0,0,3.88.01,8.5,8.5,0,0,0,2.86-1.18,8.257,8.257,0,0,0,2.21-2.13A9.576,9.576,0,0,0,10.5.6,7.248,7.248,0,0,0,6.55.073a7.565,7.565,0,0,0-3.11,1.19,7.733,7.733,0,0,0-2.31,2.38A7.335,7.335,0,0,0,0,7.442Z" transform="translate(0 0)" fill="#008278"/>
        </g>
        <g id="Group_231" data-name="Group 231" transform="translate(249.559 22.02)">
          <path id="Path_1063" data-name="Path 1063" d="M0,7.64A87.359,87.359,0,0,1,7.31,0" transform="translate(0.231 0.22)" fill="#008278"/>
          <path id="Path_1064" data-name="Path 1064" d="M.231,7.86a7.607,7.607,0,0,0,3.5-.42,5.993,5.993,0,0,0,2.23-1.47,5.719,5.719,0,0,0,1.31-2.28A9.01,9.01,0,0,0,7.551.22a6.064,6.064,0,0,0-3.61.12,5.662,5.662,0,0,0-2.36,1.53A5.784,5.784,0,0,0,.231,4.3,6.963,6.963,0,0,0,.231,7.86Z" transform="translate(0 0)" fill="#008278"/>
        </g>
        <g id="Group_232" data-name="Group 232" transform="translate(231.19 44.2)">
          <path id="Path_1065" data-name="Path 1065" d="M0,12.25S4.13,3.82,7.79,0" transform="translate(0.48 0)" fill="#008278"/>
          <path id="Path_1066" data-name="Path 1066" d="M.48,12.25a10.647,10.647,0,0,0,3.75-2.09A11.427,11.427,0,0,0,6.56,7.44,11.689,11.689,0,0,0,7.92,4.2,13.978,13.978,0,0,0,8.27,0a7.426,7.426,0,0,0-4.2,1.47A9.483,9.483,0,0,0,1.44,4.32,9.83,9.83,0,0,0,.12,7.9,8.812,8.812,0,0,0,.48,12.25Z" transform="translate(0 0)" fill="#008278"/>
        </g>
        <g id="Group_233" data-name="Group 233" transform="translate(251.89 41.346)">
          <path id="Path_1067" data-name="Path 1067" d="M0,8.75S3.02,2.07,5.56,0" transform="translate(0.93 0.144)" fill="#008278"/>
          <path id="Path_1068" data-name="Path 1068" d="M.93,8.894a8.321,8.321,0,0,0,3.24-1.25A6,6,0,0,0,5.93,5.8a5.567,5.567,0,0,0,.75-2.33A16.021,16.021,0,0,0,6.5.143,4.865,4.865,0,0,0,2.86.7,5.572,5.572,0,0,0,0,5.464,6.485,6.485,0,0,0,.93,8.894Z" transform="translate(0 0)" fill="#008278"/>
        </g>
        <g id="Group_234" data-name="Group 234" transform="translate(237.983 62.81)">
          <path id="Path_1069" data-name="Path 1069" d="M0,14.47S2.38,4.93,4.29,0" transform="translate(1.337 0)" fill="#008278"/>
          <path id="Path_1070" data-name="Path 1070" d="M1.337,14.47a10.531,10.531,0,0,0,3.22-3.04,11.913,11.913,0,0,0,1.63-3.42,11.827,11.827,0,0,0,.46-3.73A11.276,11.276,0,0,0,5.627,0a8.852,8.852,0,0,0-3.48,2.85,10.768,10.768,0,0,0-1.72,3.5,11.265,11.265,0,0,0-.4,3.86A9.556,9.556,0,0,0,1.337,14.47Z" transform="translate(0 0)" fill="#008278"/>
        </g>
        <g id="Group_235" data-name="Group 235" transform="translate(217.893 67.58)">
          <path id="Path_1071" data-name="Path 1071" d="M0,12.41S.63,1.75,1.74,0" transform="translate(2.497 0)" fill="#008278"/>
          <path id="Path_1072" data-name="Path 1072" d="M2.5,12.41a8.83,8.83,0,0,0,2.57-2.94,8.169,8.169,0,0,0,.94-3,8.181,8.181,0,0,0-.24-3.06,10.058,10.058,0,0,0-.6-1.59c-.28-.58-.59-1.05-.93-1.82a4.1,4.1,0,0,0-1.93,1.15,7.314,7.314,0,0,0-1.19,1.5,7.771,7.771,0,0,0-.73,6.43A7.859,7.859,0,0,0,2.5,12.41Z" transform="translate(0 0)" fill="#008278"/>
        </g>
        <g id="Group_236" data-name="Group 236" transform="translate(289.492 0)">
          <path id="Path_1073" data-name="Path 1073" d="M0,4.77S5.09.63,7.95,0" transform="translate(0.048 1.24)" fill="#008278"/>
          <path id="Path_1074" data-name="Path 1074" d="M.048,6.01a7.748,7.748,0,0,0,3.24.49,4.685,4.685,0,0,0,2.17-.7,4.336,4.336,0,0,0,1.47-1.61A15.475,15.475,0,0,0,8,1.23,4.515,4.515,0,0,0,4.748,0,4.76,4.76,0,0,0,2.2.75,4.633,4.633,0,0,0,.518,2.69,6.176,6.176,0,0,0,.048,6.01Z" transform="translate(0 0)" fill="#008278"/>
        </g>
        <g id="Group_237" data-name="Group 237" transform="translate(308.256 4.908)">
          <path id="Path_1075" data-name="Path 1075" d="M0,1.662A10.132,10.132,0,0,1,7.16.072" transform="translate(0.054 2.77)" fill="#008278"/>
          <path id="Path_1076" data-name="Path 1076" d="M.054,4.432c1.22.64,1.9,1.05,2.52,1.29a2.589,2.589,0,0,0,1.51.22,2.706,2.706,0,0,0,1.35-.8,11.91,11.91,0,0,0,1.77-2.3A4.339,4.339,0,0,0,5.234.432a3.411,3.411,0,0,0-2.36-.36A3.572,3.572,0,0,0,.8,1.372,3.9,3.9,0,0,0,.054,4.432Z" transform="translate(0 0)" fill="#008278"/>
        </g>
        <g id="Group_238" data-name="Group 238" transform="translate(226.426 89.21)">
          <path id="Path_1077" data-name="Path 1077" d="M0,11.93S6.99,2.86,6.36,0" transform="translate(0.174 0)" fill="#008278"/>
          <path id="Path_1078" data-name="Path 1078" d="M.174,11.93a8.2,8.2,0,0,0,3.94-1.44,8.729,8.729,0,0,0,2.5-2.64,8.614,8.614,0,0,0,1.23-3.57,7.006,7.006,0,0,0-.1-2.17A3.346,3.346,0,0,0,6.534,0a6.474,6.474,0,0,1-1.61,1.26,14.44,14.44,0,0,0-1.35,1.02A10.048,10.048,0,0,0,1.5,4.72a10.332,10.332,0,0,0-1.25,3.1A10.1,10.1,0,0,0,.174,11.93Z" transform="translate(0 0)" fill="#008278"/>
        </g>
        <g id="Group_239" data-name="Group 239" transform="translate(203.237 97.81)">
          <path id="Path_1079" data-name="Path 1079" d="M0,8.43S3.66,4.61,4.13,0" transform="translate(0.463 0)" fill="#008278"/>
          <path id="Path_1080" data-name="Path 1080" d="M.463,8.43a5.182,5.182,0,0,0,3.41-.53,4.8,4.8,0,0,0,1.96-2.01,4.822,4.822,0,0,0,.5-2.84A4.577,4.577,0,0,0,4.593,0a15.413,15.413,0,0,0-2.75,1.6A4.633,4.633,0,0,0,.493,3.15,4.8,4.8,0,0,0,0,5.23,10.6,10.6,0,0,0,.463,8.43Z" transform="translate(0 0)" fill="#008278"/>
        </g>
        <g id="Group_240" data-name="Group 240" transform="translate(216.398 112.43)">
          <path id="Path_1081" data-name="Path 1081" d="M0,10.5S6.2,4.61,6.68,0" transform="translate(0.031 0)" fill="#008278"/>
          <path id="Path_1082" data-name="Path 1082" d="M.031,10.5a6.973,6.973,0,0,0,3.94-.77,7.272,7.272,0,0,0,2.62-2.3,7.019,7.019,0,0,0,1.29-3.4A5.113,5.113,0,0,0,6.711,0c-1.37.88-2.28,1.35-3.07,1.97a8.831,8.831,0,0,0-1.95,2.01A9.244,9.244,0,0,0,.421,6.66,10.481,10.481,0,0,0,.031,10.5Z" transform="translate(0 0)" fill="#008278"/>
        </g>
        <g id="Group_241" data-name="Group 241" transform="translate(242.731 103.83)">
          <path id="Path_1083" data-name="Path 1083" d="M0,10.18A24.352,24.352,0,0,0,5.24,0" transform="translate(0.259 0.01)" fill="#008278"/>
          <path id="Path_1084" data-name="Path 1084" d="M.259,10.19a5.868,5.868,0,0,0,3.71-.99,6.381,6.381,0,0,0,2.17-2.43,6.324,6.324,0,0,0,.7-3.18A6.1,6.1,0,0,0,5.5,0a10.8,10.8,0,0,0-3.07,1.92A7.4,7.4,0,0,0,.8,4.03a7.5,7.5,0,0,0-.74,2.56A11.967,11.967,0,0,0,.259,10.19Z" transform="translate(0 0)" fill="#008278"/>
        </g>
        <g id="Group_242" data-name="Group 242" transform="translate(141.37 129.79)">
          <path id="Path_1085" data-name="Path 1085" d="M0,6.84S7.16,5.25,10.49,0" transform="translate(0 0.01)" fill="#008278"/>
          <path id="Path_1086" data-name="Path 1086" d="M0,6.85A6.283,6.283,0,0,0,3.94,7.99,7.217,7.217,0,0,0,7.45,6.92a7.083,7.083,0,0,0,2.59-2.75A5.592,5.592,0,0,0,10.5,0,23.4,23.4,0,0,0,6.83.71a9.755,9.755,0,0,0-2.52,1.1A9.976,9.976,0,0,0,2.12,3.66,13.823,13.823,0,0,0,0,6.85Z" transform="translate(0 0)" fill="#008278"/>
        </g>
        <g id="Group_243" data-name="Group 243" transform="translate(164.44 145.908)">
          <path id="Path_1087" data-name="Path 1087" d="M0,6.52S7.95,1.75,9.06,0" transform="translate(0 0.112)" fill="#008278"/>
          <path id="Path_1088" data-name="Path 1088" d="M0,6.632a7.079,7.079,0,0,0,3.64.5A6.388,6.388,0,0,0,6.4,6.1a6.368,6.368,0,0,0,2.03-2.23,6.3,6.3,0,0,0,.63-1.65A4.108,4.108,0,0,0,9.06.1C8.23.092,7.73.022,7.12,0a8.5,8.5,0,0,0-1.55.11,6.413,6.413,0,0,0-2.54,1.02A6.646,6.646,0,0,0,1.1,3.172,8.059,8.059,0,0,0,0,6.632Z" transform="translate(0 0)" fill="#008278"/>
        </g>
        <g id="Group_244" data-name="Group 244" transform="translate(184.227 125.81)">
          <path id="Path_1089" data-name="Path 1089" d="M0,10.18S4.45,3.18,5.24,0" transform="translate(0.563 0)" fill="#008278"/>
          <path id="Path_1090" data-name="Path 1090" d="M.563,10.18a7.169,7.169,0,0,0,3.52-1.26A6.482,6.482,0,0,0,6.1,6.66a6.485,6.485,0,0,0,.8-2.99A5.684,5.684,0,0,0,5.8,0a12.236,12.236,0,0,0-3.17,1.67,6.8,6.8,0,0,0-1.8,2.12,7.024,7.024,0,0,0-.81,2.74A8.391,8.391,0,0,0,.563,10.18Z" transform="translate(0 0)" fill="#008278"/>
        </g>
        <g id="Group_245" data-name="Group 245" transform="translate(198.73 135.5)">
          <path id="Path_1091" data-name="Path 1091" d="M0,9.39S7.31,1.75,8.43,0" transform="translate(0.059 0)" fill="#008278"/>
          <path id="Path_1092" data-name="Path 1092" d="M.059,9.38a8.162,8.162,0,0,0,3.88-.68,7.853,7.853,0,0,0,2.64-1.89A7.916,7.916,0,0,0,8.26,4a6.973,6.973,0,0,0,.23-4,10.412,10.412,0,0,0-3.77.88,7.955,7.955,0,0,0-2.55,1.87A8.142,8.142,0,0,0,.519,5.48,8.224,8.224,0,0,0,.059,9.38Z" transform="translate(0 0.01)" fill="#008278"/>
        </g>
        <g id="Group_246" data-name="Group 246" transform="translate(182.757 154.599)">
          <path id="Path_1093" data-name="Path 1093" d="M0,7.32A56.935,56.935,0,0,0,5.88,0" transform="translate(0.293 0.001)" fill="#008278"/>
          <path id="Path_1094" data-name="Path 1094" d="M.293,7.321a6.176,6.176,0,0,0,3.35-.19,4.831,4.831,0,0,0,2.08-1.45,4.671,4.671,0,0,0,1.02-2.34A5.731,5.731,0,0,0,6.183,0a7.8,7.8,0,0,0-3.23.53,4.6,4.6,0,0,0-1.88,1.36,4.787,4.787,0,0,0-.96,2.14A7.223,7.223,0,0,0,.293,7.321Z" transform="translate(0 0)" fill="#008278"/>
        </g>
        <g id="Group_247" data-name="Group 247" transform="translate(178.417 180.83)">
          <path id="Path_1095" data-name="Path 1095" d="M0,7.64S5.09,3.5,7.31,0" transform="translate(0.033 0.01)" fill="#008278"/>
          <path id="Path_1096" data-name="Path 1096" d="M.033,7.65a6.426,6.426,0,0,0,3.58-.01,5.753,5.753,0,0,0,2.46-1.46,5.637,5.637,0,0,0,1.46-2.53A5.63,5.63,0,0,0,7.333,0a10.664,10.664,0,0,0-3.39.58A5.676,5.676,0,0,0,1.8,1.95,6.06,6.06,0,0,0,.433,4.16,8.471,8.471,0,0,0,.033,7.65Z" transform="translate(0 0)" fill="#008278"/>
        </g>
        <g id="Group_248" data-name="Group 248" transform="translate(152.53 196.231)">
          <path id="Path_1097" data-name="Path 1097" d="M0,3.02S5.73,1.75,6.84,0" transform="translate(0 1.009)" fill="#008278"/>
          <path id="Path_1098" data-name="Path 1098" d="M0,4.029A5.3,5.3,0,0,0,2.5,5.8a3.407,3.407,0,0,0,2.19-.04,3.649,3.649,0,0,0,1.8-1.5,3.774,3.774,0,0,0,.33-.63,4.606,4.606,0,0,0,.24-.77,3.777,3.777,0,0,0,.06-.89,2.681,2.681,0,0,0-.08-.48,2.9,2.9,0,0,0-.2-.47,2.6,2.6,0,0,1-.5-.1c-.15-.04-.25-.08-.39-.13a5.961,5.961,0,0,1-.66-.28L4.74.279c-.18-.07-.35-.12-.49-.16a2.56,2.56,0,0,0-1.67.04,3.111,3.111,0,0,0-1.41,1.15A7.159,7.159,0,0,0,0,4.029Z" transform="translate(0 0)" fill="#008278"/>
        </g>
        <g id="Group_249" data-name="Group 249" transform="translate(201.244 160.79)">
          <path id="Path_1099" data-name="Path 1099" d="M0,10.5,6.68,0" transform="translate(0.416 0)" fill="#008278"/>
          <path id="Path_1100" data-name="Path 1100" d="M.416,10.5a8.324,8.324,0,0,0,3.65-1.36,7.878,7.878,0,0,0,2.22-2.28,7.885,7.885,0,0,0,1.13-2.97A8.071,8.071,0,0,0,7.1,0a8.083,8.083,0,0,0-3.66,1.36A7.813,7.813,0,0,0,.106,6.61,8.172,8.172,0,0,0,.416,10.5Z" transform="translate(0 0)" fill="#008278"/>
        </g>
        <g id="Group_250" data-name="Group 250" transform="translate(224.55 130.41)">
          <path id="Path_1101" data-name="Path 1101" d="M0,13.04S3.81,3.18,4.61,0" transform="translate(0.96 0)" fill="#008278"/>
          <path id="Path_1102" data-name="Path 1102" d="M.96,13.04a8.989,8.989,0,0,0,3.43-2.41A9.47,9.47,0,0,0,6.21,7.58a9.5,9.5,0,0,0,.57-3.52A7.95,7.95,0,0,0,5.58,0,10.56,10.56,0,0,0,2.32,2.54,9.753,9.753,0,0,0,0,8.98,9.046,9.046,0,0,0,.96,13.04Z" transform="translate(0 0)" fill="#008278"/>
        </g>
        <g id="Group_251" data-name="Group 251" transform="translate(148.07 176.181)">
          <path id="Path_1103" data-name="Path 1103" d="M0,3.02S5.73,1.75,6.84,0" transform="translate(0 1.019)" fill="#008278"/>
          <path id="Path_1104" data-name="Path 1104" d="M0,4.039a5.3,5.3,0,0,0,2.5,1.77,3.407,3.407,0,0,0,2.19-.04,3.649,3.649,0,0,0,1.8-1.5,3.51,3.51,0,0,0,.33-.64,4.606,4.606,0,0,0,.24-.77,3.777,3.777,0,0,0,.06-.89,2.681,2.681,0,0,0-.08-.48,2.9,2.9,0,0,0-.2-.47,2.6,2.6,0,0,1-.5-.1,2.573,2.573,0,0,1-.39-.13,5.961,5.961,0,0,1-.66-.28L4.74.279c-.18-.07-.35-.12-.49-.16a2.56,2.56,0,0,0-1.67.04,3.111,3.111,0,0,0-1.41,1.15A7.294,7.294,0,0,0,0,4.039Z" transform="translate(0 0)" fill="#008278"/>
        </g>
        <g id="Group_252" data-name="Group 252" transform="translate(117.694 167.708)">
          <ellipse id="Ellipse_174" data-name="Ellipse 174" cx="2.2" cy="2.93" rx="2.2" ry="2.93" transform="translate(8.21 0.995) rotate(77.449)" fill="#008278"/>
          <path id="Path_1105" data-name="Path 1105" d="M8.736,3.062A4.644,4.644,0,0,0,5.076.092a4.339,4.339,0,0,0-3.28.6,4.008,4.008,0,0,0-1.41,1.65,4.153,4.153,0,0,0,1.09,4.93,4.006,4.006,0,0,0,1.98.9,4.374,4.374,0,0,0,3.24-.85,5.765,5.765,0,0,0,1.73-2.13A3.489,3.489,0,0,0,8.736,3.062Zm0,0a1.384,1.384,0,0,1-.92,1.55,2.047,2.047,0,0,1-1.79-.24,1.39,1.39,0,0,1-.75-1.07.188.188,0,0,1,.28-.16.753.753,0,0,1,.39.54.731.731,0,0,1-.13.65.187.187,0,0,1-.32-.04A1.386,1.386,0,0,1,5.736,3a2.058,2.058,0,0,1,1.53-.96A1.36,1.36,0,0,1,8.736,3.062Z" transform="translate(0 0)" fill="#008278"/>
        </g>
        <g id="Group_253" data-name="Group 253" transform="translate(106.896 207.688)">
          <ellipse id="Ellipse_175" data-name="Ellipse 175" cx="1.47" cy="2.2" rx="1.47" ry="2.2" transform="translate(6.937 1.248) rotate(77.449)" fill="#008278"/>
          <path id="Path_1106" data-name="Path 1106" d="M7.3,2.6a2.685,2.685,0,0,0-.91-1.32A5.39,5.39,0,0,0,4.514.192a3.558,3.558,0,0,0-2.68.15,3.2,3.2,0,0,0-1.35,1.28,3.621,3.621,0,0,0,1.05,4.77,3.183,3.183,0,0,0,1.77.59,3.492,3.492,0,0,0,2.49-1,5.574,5.574,0,0,0,1.24-1.79A2.623,2.623,0,0,0,7.3,2.6Zm0,0a.853.853,0,0,1-.81.97,1.7,1.7,0,0,1-1.35-.53c-.35-.34-.52-.81-.38-1.04.07-.12.23-.19.49-.07a1.4,1.4,0,0,1,.69.98,1.425,1.425,0,0,1-.21,1.17c-.18.21-.36.22-.47.14-.23-.16-.27-.66-.09-1.11a1.692,1.692,0,0,1,1-1.04A.832.832,0,0,1,7.3,2.6Z" transform="translate(0 0)" fill="#008278"/>
        </g>
        <g id="Group_254" data-name="Group 254" transform="translate(117.066 185.898)">
          <ellipse id="Ellipse_176" data-name="Ellipse 176" cx="1.47" cy="2.2" rx="1.47" ry="2.2" transform="translate(6.933 1.246) rotate(77.449)" fill="#008278"/>
          <path id="Path_1107" data-name="Path 1107" d="M7.3,2.6a2.685,2.685,0,0,0-.91-1.32A5.39,5.39,0,0,0,4.514.192a3.558,3.558,0,0,0-2.68.15,3.2,3.2,0,0,0-1.35,1.28,3.621,3.621,0,0,0,1.05,4.77,3.183,3.183,0,0,0,1.77.59,3.492,3.492,0,0,0,2.49-1,5.574,5.574,0,0,0,1.24-1.79A2.634,2.634,0,0,0,7.3,2.6Zm0,0a.853.853,0,0,1-.81.97,1.7,1.7,0,0,1-1.35-.53c-.35-.34-.52-.81-.38-1.04.07-.12.23-.19.49-.07a1.4,1.4,0,0,1,.69.98,1.425,1.425,0,0,1-.21,1.17c-.18.21-.36.22-.47.14-.23-.16-.27-.66-.09-1.11a1.692,1.692,0,0,1,1-1.04A.832.832,0,0,1,7.3,2.6Z" transform="translate(0 0)" fill="#008278"/>
        </g>
        <g id="Group_255" data-name="Group 255" transform="translate(141.37 159.622)">
          <circle id="Ellipse_177" data-name="Ellipse 177" cx="2.2" cy="2.2" r="2.2" transform="translate(2.98 1.458)" fill="#008278"/>
          <path id="Path_1108" data-name="Path 1108" d="M7.32,3.178a4.725,4.725,0,0,0-.75-1.72,3.522,3.522,0,0,0-2.2-1.4A3.643,3.643,0,0,0,1.14,1.1,4.022,4.022,0,0,0,.1,4.8a4.036,4.036,0,0,0,2.5,2.92,3.639,3.639,0,0,0,3.38-.43,3.508,3.508,0,0,0,1.4-2.22A4.518,4.518,0,0,0,7.32,3.178Zm0,0a1.3,1.3,0,0,1-.64,1.44,1.082,1.082,0,0,1-1.36-.28.732.732,0,0,1,.06-1.01.345.345,0,0,1,.57.16.351.351,0,0,1-.46.38.733.733,0,0,1-.48-.9,1.067,1.067,0,0,1,1.11-.82A1.307,1.307,0,0,1,7.32,3.178Z" transform="translate(0 0)" fill="#008278"/>
        </g>
        <g id="Group_256" data-name="Group 256" transform="translate(163.496 165.048)">
          <ellipse id="Ellipse_178" data-name="Ellipse 178" cx="1.47" cy="2.2" rx="1.47" ry="2.2" transform="translate(6.942 1.248) rotate(77.449)" fill="#008278"/>
          <path id="Path_1109" data-name="Path 1109" d="M7.3,2.6a2.685,2.685,0,0,0-.91-1.32A5.39,5.39,0,0,0,4.514.192a3.558,3.558,0,0,0-2.68.15,3.2,3.2,0,0,0-1.35,1.28,3.621,3.621,0,0,0,1.05,4.77,3.207,3.207,0,0,0,1.77.59,3.492,3.492,0,0,0,2.49-1,5.574,5.574,0,0,0,1.24-1.79A2.562,2.562,0,0,0,7.3,2.6Zm0,0a.853.853,0,0,1-.81.97,1.7,1.7,0,0,1-1.35-.53c-.35-.34-.52-.81-.38-1.04.07-.12.23-.19.49-.07a1.4,1.4,0,0,1,.69.98,1.425,1.425,0,0,1-.21,1.17c-.18.21-.36.22-.47.14-.23-.16-.27-.66-.09-1.11a1.692,1.692,0,0,1,1-1.04A.832.832,0,0,1,7.3,2.6Z" transform="translate(0 0)" fill="#008278"/>
        </g>
      </g>
      <g id="Group_259" data-name="Group 259" transform="translate(444.312)">
        <path id="Path_1110" data-name="Path 1110" d="M1588.43,2389.57s9.24,10.75,17.85,13.44c3.66,1.14,16.63-.32,16.63-.32s-5.43-10.35-15.48-13.49A31.338,31.338,0,0,0,1588.43,2389.57Z" transform="translate(-1571.976 -2387.894)" fill="none" stroke="#000" stroke-linecap="round" stroke-linejoin="round" stroke-miterlimit="10" stroke-width="2"/>
        <path id="Path_1111" data-name="Path 1111" d="M1588.42,2389.57s27.22,6.12,34.49,13.11" transform="translate(-1571.966 -2387.894)" fill="none" stroke="#000" stroke-linecap="round" stroke-linejoin="round" stroke-miterlimit="10" stroke-width="2"/>
        <g id="Group_258" data-name="Group 258" transform="translate(0 9.085)">
          <path id="Path_1112" data-name="Path 1112" d="M1639.364,2428.69s-1.68-12.39-4.16-17.12-11.27-14.59-11.27-14.59-7.92,10.19-.08,20.55S1639.364,2428.69,1639.364,2428.69Z" transform="translate(-1620.39 -2396.98)" fill="none" stroke="#000" stroke-linecap="round" stroke-linejoin="round" stroke-miterlimit="10" stroke-width="2"/>
          <path id="Path_1113" data-name="Path 1113" d="M1635.8,2426.35s-13.66-14.55-12.95-26.98" transform="translate(-1619.253 -2396.98)" fill="none" stroke="#000" stroke-linecap="round" stroke-linejoin="round" stroke-miterlimit="10" stroke-width="2"/>
        </g>
      </g>
      <g id="Group_263" data-name="Group 263" transform="matrix(-0.998, 0.07, -0.07, -0.998, 909.195, 380.503)">
        <path id="Path_1120" data-name="Path 1120" d="M23.72,51.95C27.53,32.01,17.56,10.18,0,0" transform="translate(0 0)" fill="none" stroke="#000" stroke-linecap="round" stroke-linejoin="round" stroke-miterlimit="10" stroke-width="3"/>
        <path id="Path_1121" data-name="Path 1121" d="M5.969,24.95s-5.48.22-5.93-7.03S2.889,1.82,16.389.13s15.99,13.7,15.99,13.7,1.09,7.61-4.08,8-6.04-6.47-6.04-6.47,2.67,11.38-4.48,13.13-7.35-11.12-7.35-11.12S9.589,24.72,5.969,24.95Z" transform="translate(8.031 49.71)" fill="#008278"/>
        <g id="Group_262" data-name="Group 262" transform="translate(22.29 28.53)">
          <path id="Path_1122" data-name="Path 1122" d="M0,0S4.73,15.49,14.51,12.74C14.5,12.74,11.7.71,0,0Z" transform="translate(0 0.08)" fill="none" stroke="#000" stroke-linecap="round" stroke-linejoin="round" stroke-miterlimit="10" stroke-width="3"/>
          <path id="Path_1123" data-name="Path 1123" d="M14.42,12.82S3.96,4.69,0,0" transform="translate(0.08 0)" fill="none" stroke="#000" stroke-linecap="round" stroke-linejoin="round" stroke-miterlimit="10" stroke-width="3"/>
        </g>
        <path id="Path_1124" data-name="Path 1124" d="M11.714,0S-.476.7.014,25.42L8.3,1.63s7.12,9.57-8.29,23.78" transform="translate(9.576 26.22)" fill="none" stroke="#000" stroke-linecap="round" stroke-linejoin="round" stroke-miterlimit="10" stroke-width="3"/>
      </g>
      <g id="Group_265" data-name="Group 265" transform="translate(651.71)">
        <path id="Path_1138" data-name="Path 1138" d="M285.3,2177.39s-16.94,16.65-20.47,31.34c-1.5,6.24,2.4,27.77,2.4,27.77s16.7-10.24,20.81-27.38A52.711,52.711,0,0,0,285.3,2177.39Z" transform="translate(-228.54 -2177.39)" fill="none" stroke="#000" stroke-linecap="round" stroke-linejoin="round" stroke-miterlimit="10" stroke-width="2"/>
        <path id="Path_1139" data-name="Path 1139" d="M286.6,2177.39s-7.19,46.18-18.06,59.11" transform="translate(-229.84 -2177.39)" fill="none" stroke="#000" stroke-linecap="round" stroke-linejoin="round" stroke-miterlimit="10" stroke-width="2"/>
        <path id="Path_1140" data-name="Path 1140" d="M297.006,2206.86s2.79,13.21,11.25,19.83l16.93,13.25s1.95-22.62-10.28-31.14C314.906,2208.8,309.266,2205.95,297.006,2206.86Z" transform="translate(-297.006 -2177.39)" fill="none" stroke="#000" stroke-linecap="round" stroke-linejoin="round" stroke-miterlimit="10" stroke-width="2"/>
      </g>
      <g id="Group_269" data-name="Group 269" transform="translate(814.929 108.637)">
        <path id="Path_1148" data-name="Path 1148" d="M1034.969,2234.712l-7.9,4.416s-49.484-61.711-57.24-71.889l-82.582,46.415-5.88-8.224,91.374-51.4Z" transform="translate(-881.37 -2154.03)"/>
        <path id="Path_1149" data-name="Path 1149" d="M972.785,2238.771c4.54-10.5,17.406-15.552,28.714-13.878a17.958,17.958,0,0,1,9.19,3.684,29.607,29.607,0,0,1,7.788,10.482,41.645,41.645,0,0,1,2.329,18.7c-.592,7.546-5.008,14.314-10.327,19.7-12.967,13.13-31.26,19.571-49.351,23.223l-.327-.062c-15.529-9.969-30.24-22.608-37.561-39.547-3.006-6.954-4.657-14.859-2.477-22.11a41.776,41.776,0,0,1,8.948-16.58,29.5,29.5,0,0,1,11.059-6.939,17.91,17.91,0,0,1,9.906-.1c11.144,2.546,21.3,11.923,21.728,23.348Z" transform="translate(-897.29 -2167.45)" fill="#008278"/>
      </g>
      <g id="Group_271" data-name="Group 271" transform="translate(766.536)">
        <g id="Group_270" data-name="Group 270">
          <path id="Path_1150" data-name="Path 1150" d="M375.6,2270.831c-.253.045-8.616-9.589-14.4,3.639" transform="translate(-325.155 -2254.898)" fill="none" stroke="#000" stroke-linecap="round" stroke-linejoin="round" stroke-miterlimit="10" stroke-width="2"/>
          <path id="Path_1151" data-name="Path 1151" d="M369.067,2267.96c-.059.015,5.608,1.708,1.174,11.186" transform="translate(-327.332 -2255.02)" fill="none" stroke="#000" stroke-linecap="round" stroke-linejoin="round" stroke-miterlimit="10" stroke-width="2"/>
          <path id="Path_1152" data-name="Path 1152" d="M375.03,2290.03c.007,0-5.444,1.24-8.207,10.087-2.748,8.883,1.53,9.425-1.493,18.249" transform="translate(-327.651 -2260.698)" fill="none" stroke="#000" stroke-linecap="round" stroke-linejoin="round" stroke-miterlimit="10" stroke-width="2"/>
          <path id="Path_1153" data-name="Path 1153" d="M391.394,2306.78c.022,0-10.235-.312-14.194,12.389" transform="translate(-352.831 -2265.007)" fill="none" stroke="#000" stroke-linecap="round" stroke-linejoin="round" stroke-miterlimit="10" stroke-width="2"/>
          <path id="Path_1154" data-name="Path 1154" d="M402.835,2323.212c-.007.007-3.1-9.277-9.715-14.424-6.083-4.5-2.993-20.96,8.363-20.344" transform="translate(-373.824 -2260.286)" fill="none" stroke="#000" stroke-linecap="round" stroke-linejoin="round" stroke-miterlimit="10" stroke-width="2"/>
          <path id="Path_1155" data-name="Path 1155" d="M392.643,2295.262c-.045,0-.2-10.272-3.253-11.572" transform="translate(-363.135 -2259.067)" fill="none" stroke="#000" stroke-linecap="round" stroke-linejoin="round" stroke-miterlimit="10" stroke-width="2"/>
          <path id="Path_1156" data-name="Path 1156" d="M392.789,2363.168c.007.045,8.319-1.753,6.93-7.881-1.471-6.053-10.681-18.695-10.6-18.717" transform="translate(-370.166 -2272.67)" fill="none" stroke="#000" stroke-linecap="round" stroke-linejoin="round" stroke-miterlimit="10" stroke-width="2"/>
          <path id="Path_1157" data-name="Path 1157" d="M407.543,2348.572c.03,0-5.92,6.075-12.723-4.471" transform="translate(-382.068 -2274.607)" fill="none" stroke="#000" stroke-linecap="round" stroke-linejoin="round" stroke-miterlimit="10" stroke-width="2"/>
          <path id="Path_1158" data-name="Path 1158" d="M357.922,2310.16c-.1-.059-13.236-12.79-4.516-29.138,8.623-16.622,19.742-16.311,19.735-16.207h0c5.177-10.346,13.206-17.529,20.054-12.783,7,4.783,9.656,19.95,9.626,19.891-5.86,21.822-15.367,46.719-22.683,72.878-.067-.045-8.1,10.354-16.511,7.479-8.564-2.963-10.161-13.54-10.086-13.488" transform="translate(-344.368 -2250.538)" fill="none" stroke="#000" stroke-linecap="round" stroke-linejoin="round" stroke-miterlimit="10" stroke-width="2"/>
          <path id="Path_1159" data-name="Path 1159" d="M423.411,2358.017c.3.208-20.2-4.932-15.865-25.677a95.193,95.193,0,0,1,6.276-17.15" transform="translate(-406.945 -2267.17)" fill="none" stroke="#000" stroke-linecap="round" stroke-linejoin="round" stroke-miterlimit="10" stroke-width="2"/>
          <path id="Path_1160" data-name="Path 1160" d="M323.836,2283.8c-.082-.03,12.181,2.488,10.71,13.332" transform="translate(-256.469 -2259.095)" fill="none" stroke="#000" stroke-linecap="round" stroke-linejoin="round" stroke-miterlimit="10" stroke-width="2"/>
          <path id="Path_1161" data-name="Path 1161" d="M333.012,2291.1c-.067.052-5.637-3.751-6.692,5.489" transform="translate(-256.659 -2260.784)" fill="none" stroke="#000" stroke-linecap="round" stroke-linejoin="round" stroke-miterlimit="10" stroke-width="2"/>
          <path id="Path_1162" data-name="Path 1162" d="M349.379,2298.99c-.045.059,3.9,4.687,1.181,12.381-2.837,7.873-6.707,5.942-9.418,14.409" transform="translate(-286.172 -2263.003)" fill="none" stroke="#000" stroke-linecap="round" stroke-linejoin="round" stroke-miterlimit="10" stroke-width="2"/>
          <path id="Path_1163" data-name="Path 1163" d="M335.962,2318.38c-.074.156,8.8,5.459,4.449,16.251" transform="translate(-272.421 -2267.991)" fill="none" stroke="#000" stroke-linecap="round" stroke-linejoin="round" stroke-miterlimit="10" stroke-width="2"/>
          <path id="Path_1164" data-name="Path 1164" d="M313.412,2338.313c.015-.059,7.962-5.719,16.623-6.343,7.829-1.166,15.9-11.327,5.118-16.89" transform="translate(-254.423 -2267.142)" fill="none" stroke="#000" stroke-linecap="round" stroke-linejoin="round" stroke-miterlimit="10" stroke-width="2"/>
          <path id="Path_1165" data-name="Path 1165" d="M315.91,2318.441c.059-.1,6.143-6.157,9.7-4.947" transform="translate(-241.525 -2266.693)" fill="none" stroke="#000" stroke-linecap="round" stroke-linejoin="round" stroke-miterlimit="10" stroke-width="2"/>
          <path id="Path_1166" data-name="Path 1166" d="M342.634,2373.991c.015.067-5.979-5.281-1.478-9.893,4.531-4.546,19.319-10.733,19.3-10.748" transform="translate(-293.873 -2276.987)" fill="none" stroke="#000" stroke-linecap="round" stroke-linejoin="round" stroke-miterlimit="10" stroke-width="2"/>
          <path id="Path_1167" data-name="Path 1167" d="M337.27,2360.5c0-.008,1.322,7.658,12.746,1.545" transform="translate(-281.795 -2278.826)" fill="none" stroke="#000" stroke-linecap="round" stroke-linejoin="round" stroke-miterlimit="10" stroke-width="2"/>
          <path id="Path_1168" data-name="Path 1168" d="M336.528,2331.336c-.1.289,18.747-5.808,22.661-17.492,3.476-11-8.556-17.016-8.348-17.358h0c1.2-7.368-4.56-16.815-12.894-22.26-8.051-5.556-16.192,3.1-16.452,3.313-5.86,21.822-15.367,46.719-22.683,72.878-.045-.074,2.005,12.946,10.2,14.276,8.1,1.144,14.476-8.088,14.513-7.977" transform="translate(-263.034 -2256.154)" fill="none" stroke="#000" stroke-linecap="round" stroke-linejoin="round" stroke-miterlimit="10" stroke-width="2"/>
          <path id="Path_1169" data-name="Path 1169" d="M313.01,2374.431c.074.735,17.217,2.563,26.717-16.259a108.058,108.058,0,0,0,6.016-14.573" transform="translate(-259.503 -2274.479)" fill="none" stroke="#000" stroke-linecap="round" stroke-linejoin="round" stroke-miterlimit="10" stroke-width="2"/>
        </g>
      </g>
    </g>
    <g id="Layer_2" data-name="Layer 2" transform="translate(368.261 39.05)">
      <g id="Layer_1" data-name="Layer 1">
        <path id="Path_1080-2" data-name="Path 1080" d="M174.658,146.73c.991,1.314,1.982,2.581,3.042,3.849s2.028,2.466,3.111,3.687c2.95,3.388,6.061,6.66,9.218,9.771.622.622,1.244,1.221,1.89,1.8s1.314,1.221,1.982,1.8c1.221,1.106,2.443,2.189,3.687,3.226h0l2.42,2.028h0l1.821,1.429q4.01,3.134,8.227,5.992c1.659,1.106,3.2-1.567,1.567-2.673A146.736,146.736,0,0,1,197.8,167.01c-.691-.576-1.383-1.175-2.051-1.8l-.553-.484-1.429-1.337c-2.3-2.12-4.609-4.333-6.683-6.637q-1.59-1.659-3.111-3.388c-1.037-1.152-2.051-2.3-3.042-3.5C178.829,148.919,176.686,147.859,174.658,146.73Z" transform="translate(-138.695 191.343)" fill="#fff"/>
        <path id="Path_1081-2" data-name="Path 1081" d="M51.163,106.365a36.872,36.872,0,0,1,17.86-5.715c15.348,0,21.086,16.408,21.985,25.1a2.1,2.1,0,0,1-1.636,2.3,50.813,50.813,0,0,1-10.048,1.083A29.337,29.337,0,0,1,50.2,108.762a2.1,2.1,0,0,1,.968-2.4ZM66.742,122.2a28.368,28.368,0,0,0,12.583,2.673h2.028a38.917,38.917,0,0,0,5.254-.576,37.4,37.4,0,0,0-2.627-8.458c-2.189-4.77-5.854-9.61-12.053-10.785a14.448,14.448,0,0,0-2.9-.277,31.3,31.3,0,0,0-14.334,4.356A24.52,24.52,0,0,0,66.742,122.2Z" transform="translate(269.616 131.231)"/>
        <path id="Path_1082-2" data-name="Path 1082" d="M49.543,131.917a2.051,2.051,0,0,0,1.314.484,2.1,2.1,0,0,0,1.59-.76c14.127-17.238,38.439-9.61,38.67-9.541a2.062,2.062,0,1,0,1.291-3.918c-.277,0-27.216-8.6-43.164,10.831A2.074,2.074,0,0,0,49.543,131.917Z" transform="translate(269.877 151.631)"/>
        <path id="Path_1083-2" data-name="Path 1083" d="M143.851,136.088s-47.243,10-53.3.945,2.881-11.338,2.881-11.338S75.407,134.037,67.917,130,72,121.247,72,121.247s-19.312,9.564-21.663,3.134a15.855,15.855,0,0,1-.968-10.232S1.662,97.464,30.584,64.095,51.9,72.345,51.9,72.345s12.214-25,24.543-13.2,6.914,21.778,6.914,21.778S91.493,63.4,98.959,68.7s5.877,16.685,5.877,16.685,83.309,13.827,82.156,51.944-11.523,47.842-24.958,70.288c0,0-22.769-1.959-30.719,9.218,0,0,24.151-43.786,12.583-80.82Z" transform="translate(240.095 66.64)"/>
        <path id="Path_1084-2" data-name="Path 1084" d="M30.2,63.929C38.286,54.711,44.025,50.24,48.634,50.24a6.038,6.038,0,0,1,4.609,2.3c2.3,2.742,2.788,7.835,2.65,12.4,3.526-4.609,8.688-9.771,14.611-9.771a11.914,11.914,0,0,1,8.5,3.733,26.11,26.11,0,0,1,8.365,14.357c2.6-3.388,5.992-6.453,9.7-6.453a7.052,7.052,0,0,1,4.148,1.383c6.453,4.609,6.914,12.859,6.914,16.662,12.767,2.3,83.124,17.146,82.018,53.718-.991,32.632-8.642,44.777-19.243,61.554-1.544,2.443-3.111,4.955-4.77,7.651-.392.668-.83,1.36-1.244,2.074a2.028,2.028,0,0,1-1.936,1.014h-7.006c-6.66.323-17.284,1.936-21.87,8.388a1.843,1.843,0,0,1-.714.622,1.777,1.777,0,0,1-.438.184,2.1,2.1,0,0,1-.53,0,1.91,1.91,0,0,1-.507,0h-.323a1.267,1.267,0,0,1-.346-.184,1.083,1.083,0,0,1-.346-.3h0a1.474,1.474,0,0,1-.23-.3h0a1.43,1.43,0,0,1-.161-.438h0a1.591,1.591,0,0,1,0-.461,1.913,1.913,0,0,1,0-.507,4.15,4.15,0,0,1,.184-.484.484.484,0,0,1,0-.138c1.291-2.3,22.492-42.726,12.882-77.294a221.348,221.348,0,0,1-36.872,4.379c-9.218,0-14.588-1.5-16.731-4.609a11.684,11.684,0,0,1-2.351-8,44.823,44.823,0,0,1-13.136,2.535,13.32,13.32,0,0,1-6.337-1.337,5.669,5.669,0,0,1-3.618-4.886,30.1,30.1,0,0,1-8.6,1.682c-4.171,0-5.738-1.936-6.337-3.572a20.9,20.9,0,0,1-1.383-9.633,66.831,66.831,0,0,1-13.32-7.282c-1.06-.737-2.12-1.567-3.157-2.443A30.7,30.7,0,0,1,21.164,91.537C18.813,82.872,21.855,73.539,30.2,63.929ZM25.151,90.546c3.964,14.91,25.88,22.746,26.11,22.815a2.12,2.12,0,0,1,1.267,2.65,14.4,14.4,0,0,0,.945,8.78c.253.714,1.475.853,2.466.853a42.773,42.773,0,0,0,14.772-4.4c.968-.507,1.682-.784,1.705-.807a2.058,2.058,0,0,1,1.682,3.756s-.576.3-1.5.714c-3.249,1.682-3.941,2.95-3.941,3.2s.254.53,1.452,1.175a9.218,9.218,0,0,0,4.379.853,53.6,53.6,0,0,0,17.215-4.4,12.007,12.007,0,0,1,2.3-1.014,2.074,2.074,0,0,1,1.383,3.895l-1.936.83a3.618,3.618,0,0,0-1.8,2.3,7.444,7.444,0,0,0,1.682,5.231c.6.876,3.042,2.881,13.32,2.881,15.533,0,37.633-4.609,37.863-4.609a2.051,2.051,0,0,1,2.3,1.406c8.757,28.161-2.3,59.411-8.688,74.044a45.353,45.353,0,0,1,17.445-3.941h6.2c1.844-3.088,3.641-5.923,5.37-8.665,10.255-16.132,17.653-27.977,18.621-59.48,1.383-35.928-79.322-49.893-80.151-50.031a2.074,2.074,0,0,1-1.705-2.3s1.36-10.186-4.978-14.7a3.065,3.065,0,0,0-1.774-.622c-3.365,0-7.881,6.13-10.624,11.753l-.184.392a2.074,2.074,0,0,1-2.742.853,2.051,2.051,0,0,1-.853-2.719v-.253c.668-1.521,3.5-9.495-6.637-19.174A7.9,7.9,0,0,0,70.6,59.228c-6.775,0-13.62,10.97-15.694,15.21a2.051,2.051,0,0,1-2.489,1.06,2.074,2.074,0,0,1-1.383-2.3c.991-5.416,1.613-15.095-.853-18.044a1.821,1.821,0,0,0-1.521-.853c-1.774,0-6.107,1.59-15.325,12.237C25.934,75.152,23.169,83.195,25.151,90.546Z" transform="translate(238.96 65.47)"/>
        <path id="Path_1085-2" data-name="Path 1085" d="M28.25,129.786h0a2.837,2.837,0,0,0,0,.461h0a1.428,1.428,0,0,0,.161.438h0a1.474,1.474,0,0,0,.23.3h0a1.084,1.084,0,0,0,.346.3,1.268,1.268,0,0,0,.346.184h.323a1.912,1.912,0,0,0,.507,0,2.1,2.1,0,0,0,.53,0,1.774,1.774,0,0,0,.438-.184h.115a71.74,71.74,0,0,1,22.469-8.965h.138a17.214,17.214,0,0,1,6.153,0,7.491,7.491,0,0,1,1.774.507,6.914,6.914,0,0,1,3.918,4.1,9.012,9.012,0,0,1,.553,1.682,1.5,1.5,0,0,0,0,.3,2.1,2.1,0,0,0,2.3,1.244,2.051,2.051,0,0,0,1.544-1.59,2.3,2.3,0,0,0,0-.9,9.079,9.079,0,0,0-.323-1.129,11.131,11.131,0,0,0-6.038-7.259l-.53-.253a10.525,10.525,0,0,0-1.429-.507,13.046,13.046,0,0,0-2.143-.415,22.792,22.792,0,0,0-6.245,0h0a69.644,69.644,0,0,0-21.616,8h0c-1.567.853-2.581,1.452-2.765,1.567a1.729,1.729,0,0,0-.645.645.485.485,0,0,0,0,.138,4.147,4.147,0,0,0-.184.484,1.913,1.913,0,0,0,.069.853Z" transform="translate(341.086 153.716)"/>
        <path id="Path_1086-2" data-name="Path 1086" d="M53.146,122.833a56.092,56.092,0,0,0,12.053,1.8,3.5,3.5,0,0,0,2.881-1.314,16.5,16.5,0,0,0,2.627-9.034,40.27,40.27,0,0,0,0-4.24s-4.886-8.227-9.84-8.112a3.18,3.18,0,0,0-2.3,1.567c-2.7,3.71-4.609,13.021-5.185,17.215C53.261,121.911,53.146,122.833,53.146,122.833Z" transform="translate(282.889 132.9)"/>
        <path id="Path_1087-2" data-name="Path 1087" d="M99.069,286.277c.76,27.769,17.63,43.786,36.872,53.119,2.143,1.037,4.309,1.982,6.5,2.858a141.293,141.293,0,0,0,30.489,8.043h0a170,170,0,0,0,17.053,1.751h3.5l1.705-1.2,1.06-.738H189.8c-2.558-.138-6.314-.392-10.854-.922a151.714,151.714,0,0,1-31.434-7.052q-4.333-1.521-8.227-3.249c-2.3-1.014-4.425-2.074-6.5-3.2-20.51-11.062-31.2-27.654-31.779-49.317-.991-36.158,60.816-118.084,97.758-163.621C251.467,57.622,300.9,7.084,307.836,4.319a1.89,1.89,0,0,1,.853,1.014c1.429,3.526-1.613,12.26-4.77,19.081-1.106,2.074-1.913,3.779-2.3,4.609a2.074,2.074,0,0,0,3.687,1.844c.3-.53,1.175-2.3,2.3-4.609,4.425-8.227,10.854-16.777,14.979-15.463a1.06,1.06,0,0,1,.784.737c1.129,3.388-3.756,12.951-8.688,20.741-1.244,1.774-2.3,3.319-2.973,4.425a2.074,2.074,0,0,0,3.318,2.189c.553-.784,1.636-2.3,2.927-4.309,6.844-9.518,14.887-17.468,17.814-15.855a1.06,1.06,0,0,1,.576.853c.484,2.742-2.927,8.688-7.029,14.357a62.227,62.227,0,0,0-6.476,8.089,2.074,2.074,0,0,0,3.249,2.535c1.06-1.2,3.779-4.332,6.568-8.158,5.07-5.162,8.55-5.9,10-5.946.576,2.512-1.314,10.278-20.487,34.245C307.283,83.341,285.782,107.146,265,130.169c-32.056,35.6-65.31,72.339-77.04,93.08-14.634,25.88-17.837,45.676-9.218,57.2,8.965,12.03,29.751,14.565,61.853,7.559a118.1,118.1,0,0,0,3.272,28.807l1.844-1.314,1.844-1.29,68.744-48.4h0l.714-.507h0l5.093-3.6c-1.521.507-50.492,16.984-79.437,23.621h-.253l-1.821.392c-67.937,15-77.455-14.611-50.884-61.6,26.8-47.4,166.525-178.923,154.4-195.885,0,0-4.909-1.8-13.09,6.66,4.978-6.8,10.347-15.855,5.83-18.3-5.877-3.157-16.984,11.523-21.478,17.929,4.609-6.914,14.749-23.714,7.766-25.949-6.568-2.1-14.288,10.6-17.768,17.192,3.342-6.8,9.4-21.455,2.742-23.76C299.332-.705,97.272,220.252,99.069,286.277Z" transform="translate(-97.006 2.525)" fill="#fff"/>
        <path id="Path_1088-2" data-name="Path 1088" d="M98.2,287.444c.691,25.7,15.21,45.215,42.058,56.737,2.1.922,4.24,1.775,6.5,2.558l.807.3a139.551,139.551,0,0,0,18.021,4.932h0c2.9.6,5.646,1.106,8.273,1.5h.369l3.388.484,1.8.23,3.111.346,1.452.138h4.448l1.682.115h.507c2.3.115,3.849.115,4.171.115h0a2.051,2.051,0,0,0,2.028-1.982h0a2.165,2.165,0,0,0-.369-1.2,2.074,2.074,0,0,0-1.29-.807h-4.148c-2.558-.138-6.314-.392-10.854-.922a151.7,151.7,0,0,1-31.434-7.052q-4.332-1.521-8.227-3.249c-2.3-1.014-4.425-2.074-6.5-3.2-20.51-11.062-31.2-27.654-31.779-49.317-.991-36.158,60.816-118.084,97.758-163.621C252.651,58.72,302.083,8.182,309.02,5.417a1.89,1.89,0,0,1,.853,1.014c1.429,3.526-1.613,12.26-4.77,19.081-1.106,2.074-1.913,3.779-2.3,4.609a2.074,2.074,0,0,0,3.687,1.844c.3-.53,1.175-2.3,2.3-4.609,4.425-8.227,10.854-16.777,14.979-15.463a1.06,1.06,0,0,1,.784.737c1.129,3.388-3.756,12.951-8.688,20.741-1.244,1.774-2.3,3.319-2.973,4.425a2.074,2.074,0,0,0,3.319,2.189c.553-.784,1.636-2.3,2.927-4.309,6.844-9.518,14.887-17.468,17.814-15.855a1.06,1.06,0,0,1,.576.853c.484,2.742-2.927,8.688-7.029,14.357a62.225,62.225,0,0,0-6.476,8.089,2.074,2.074,0,0,0,3.249,2.535c1.06-1.2,3.779-4.332,6.568-8.158,5.07-5.162,8.55-5.9,10-5.946.576,2.512-1.314,10.278-20.487,34.245-14.887,18.644-36.388,42.449-57.175,65.472-32.056,35.6-65.31,72.339-77.04,93.08-14.634,25.88-17.837,45.676-9.218,57.2,8.965,12.03,29.751,14.565,61.853,7.559l2.074-.461h.254l1.844-.415h0c22.884-5.416,57.267-16.477,71.44-21.179h0l5.231-1.728h0l1.221-.392a2.074,2.074,0,0,0,1.291-2.627h0a2.074,2.074,0,0,0-2.6-1.267c-.484.161-50.584,17.053-79.529,23.667l-1.083.23c-30.627,6.914-50.976,4.909-58.881-5.715-7.536-10.117-4.263-28.346,9.518-52.7,11.523-20.326,44.593-56.968,76.6-92.411,53.188-58.765,85.313-95.269,77.8-105.639a2.3,2.3,0,0,0-.945-.737,9.218,9.218,0,0,0-6.36.668,15.1,15.1,0,0,0,2.051-8.435,5.162,5.162,0,0,0-2.7-3.733c-3.342-1.8-7.467.184-11.523,3.618a14.08,14.08,0,0,0,.922-8.411,5.139,5.139,0,0,0-3.457-3.388c-3.8-1.221-7.651,1.06-11.039,4.609a14.7,14.7,0,0,0-.207-7.835,5.9,5.9,0,0,0-3.779-3.549c-1.314-.415-2.858.207-5.623,2.3-14.058,10.578-65.679,65.1-114.627,126.518C147.427,183.026,97.28,253.361,98.2,287.444Z" transform="translate(-98.189 1.427)"/>
        <path id="Path_1089-2" data-name="Path 1089" d="M90.614,138.139s-2.535,37.817,17.468,61.784c0,0,79.69-14.611,104.326-29.291,0,0-55.078-25.488-42.8-47.1l3.2-9.218s-68.744,20.741-82.2,23.783Z" transform="translate(55.137 149.05)" fill="#015050"/>
        <path id="Path_1090-2" data-name="Path 1090" d="M89.733,142.7V139.17a2.3,2.3,0,0,1,.207-.784,2.074,2.074,0,0,1,1.406-1.106c12.352-2.7,72.685-20.9,81.073-23.437l.968-.3a2.1,2.1,0,0,1,1.36,0,2.305,2.305,0,0,1,.737.484,2.1,2.1,0,0,1,.484,2.051h0l-3.2,9.218v.277h0a11.062,11.062,0,0,0-1.475,6.614,14.06,14.06,0,0,0,.622,2.95c2.7,8.412,12.836,16.823,22.584,23.253.576.392,1.175.76,1.774,1.129.968.622,1.913,1.221,2.858,1.775h0l2.143,1.291.991.576.968.553,3.872,2.166c.83.415,1.613.853,2.3,1.244l1.429.737h0l1.244.622,1.544.76.323.161h0l.484.254a2.534,2.534,0,0,1,.484.323,2.444,2.444,0,0,1,.392.461,2.5,2.5,0,0,1,.184.438.553.553,0,0,1,0,.184.254.254,0,0,1,0,.184.161.161,0,0,1,0,.115v.161a1.911,1.911,0,0,1,0,.507l-.138.369a1.428,1.428,0,0,1-.254.392,1.659,1.659,0,0,1-.553.507c-.438.276-.922.53-1.406.807-23.9,13.228-88.448,25.88-101.4,28.323H111.6l-2.051.392h-.369a2.074,2.074,0,0,1-1.567-.737l-.691-.853c-.484-.6-.968-1.221-1.406-1.844a78.538,78.538,0,0,1-12.7-28.207A118.11,118.11,0,0,1,89.733,142.7ZM110.2,198.835c9.564-1.821,73.63-14.242,99.095-26.963l-.53-.254a180.142,180.142,0,0,1-16.523-9.633l-1.014-.668c-9.979-6.752-20.28-15.6-23.23-24.8a17.633,17.633,0,0,1-.807-3.941,15.117,15.117,0,0,1,1.913-8.734l.254-.714,1.521-4.332v-.138h0l-4.609,1.383h0c-18.114,5.439-59.388,17.791-72.27,20.879v.807h0a117.533,117.533,0,0,0,2.788,27.124,74.459,74.459,0,0,0,13.481,29.959Z" transform="translate(53.851 147.904)" fill="#015050"/>
        <path id="Path_1091-2" data-name="Path 1091" d="M31.231,174.646h0v-.277l3.2-9.218c9.541-24.612,30.627-64.988,41.9-85.59l1.936-3.526V75.92a66.832,66.832,0,0,0,13.574,7.1A20.9,20.9,0,0,0,93.246,92.6c.6,1.636,2.166,3.572,6.337,3.572a30.1,30.1,0,0,0,8.573-1.636,5.669,5.669,0,0,0,3.618,4.84,13.32,13.32,0,0,0,6.337,1.337,44.824,44.824,0,0,0,13.136-2.535,11.684,11.684,0,0,0,2.42,7.559c2.143,3.2,7.467,4.609,16.731,4.609a221.351,221.351,0,0,0,36.872-4.379c9.61,34.568-11.523,74.874-12.882,77.294a.483.483,0,0,0,0,.138,4.154,4.154,0,0,0-.184.484,1.913,1.913,0,0,0,0,.507,1.59,1.59,0,0,0,0,.461h0a1.428,1.428,0,0,0,.161.438h0a1.475,1.475,0,0,0,.23.3h0a1.083,1.083,0,0,0,.346.3,1.268,1.268,0,0,0,.346.184h.323a1.915,1.915,0,0,0,.507,0,2.1,2.1,0,0,0,.53,0,1.774,1.774,0,0,0,.438-.184h.115a71.741,71.741,0,0,1,22.469-8.965h6.291a7.491,7.491,0,0,1,1.774.507,6.914,6.914,0,0,1,3.918,4.1c-42.818,4.309-105.5,24.843-138.986,36.665h0l-.323-.161-1.544-.76-1.244-.622h0l-1.429-.737c-.737-.392-1.521-.83-2.3-1.244l-1.913-1.06-1.959-1.106-1.014-.6-3.088-1.821h0l-2.858-1.774c-.6-.369-1.2-.737-1.774-1.129-9.748-6.43-19.888-14.841-22.584-23.253a14.06,14.06,0,0,1-.622-2.95,43.406,43.406,0,0,1,1.221-6.337Zm112.092-41.735a36.872,36.872,0,0,0-17.86,5.715,2.1,2.1,0,0,0-.968,2.3,29.337,29.337,0,0,0,29.129,20.441,50.814,50.814,0,0,0,10.048-1.083,2.1,2.1,0,0,0,1.636-2.3C164.41,149.319,158.672,132.911,143.323,132.911ZM124.1,184.578a2.051,2.051,0,0,0,1.314.484,2.1,2.1,0,0,0,1.59-.76c14.127-17.238,38.439-9.61,38.67-9.541a2.062,2.062,0,1,0,1.291-3.918c-.277,0-27.216-8.6-43.164,10.831A2.074,2.074,0,0,0,124.1,184.578ZM72.966,197l.507.3a21.155,21.155,0,0,0,8.412,1.682c10.578,0,19.98-7.1,20.487-7.49a2.051,2.051,0,0,0,.369-2.881,2.074,2.074,0,0,0-2.9-.392c-.207.161-13.528,10.163-24.728,5.277a2.005,2.005,0,0,0-2.028.254,1.89,1.89,0,0,0-.691.83,2.1,2.1,0,0,0,.553,2.42Zm.737-30.6.184.184c3.111,3.065,9.564,3.572,13.5,3.572H90.5a2.074,2.074,0,1,0-.323-4.125c-4.056.323-11.269,0-13.458-2.3-1.521-1.613-1.083-2.489,9.979-13.5q3.111-3.088,7.19-7.213c17.445-17.883,16.708-30.028,16.662-30.466a2.074,2.074,0,0,0-4.125.3c0,.207.415,10.97-15.509,27.1-2.719,2.765-5.093,5.139-7.167,7.213a119.625,119.625,0,0,0-9.587,10.163c-3.065,3.872-3.18,6.222-.484,9.08ZM56.973,118.3A27.816,27.816,0,0,0,74.9,133.395a38.209,38.209,0,0,0,10.9,1.5,46.658,46.658,0,0,0,5.847-.368,2.051,2.051,0,0,0,1.827-1.844c.691-7.19-1.244-21.5-13.643-24.151a26.3,26.3,0,0,0-4.148-.553H74.372a21.109,21.109,0,0,0-17.192,8.458,2.028,2.028,0,0,0-.23,1.867Z" transform="translate(195.316 98.97)" fill="#fff"/>
        <path id="Path_1092-2" data-name="Path 1092" d="M52.03,116.274a38.921,38.921,0,0,0,5.254-.576,37.4,37.4,0,0,0-2.627-8.458,16.5,16.5,0,0,1-2.627,9.034Z" transform="translate(298.939 139.827)" fill="#fff"/>
        <path id="Path_1093-2" data-name="Path 1093" d="M58.4,106.8a24.52,24.52,0,0,0,12.053,13.136c.691-4.194,2.489-13.5,5.185-17.215a14.449,14.449,0,0,0-2.9-.277A31.3,31.3,0,0,0,58.4,106.8Z" transform="translate(265.905 133.566)" fill="#fff"/>
        <path id="Path_1094-2" data-name="Path 1094" d="M91.594,120.294l.184.184.3-9.218C89.013,115.086,88.9,117.436,91.594,120.294Z" transform="translate(177.402 145.072)" fill="#fff"/>
        <path id="Path_1095-2" data-name="Path 1095" d="M91.03,130.3V127.05a1.89,1.89,0,0,0-.691.83A2.1,2.1,0,0,0,91.03,130.3Z" transform="translate(177.229 165.67)" fill="#fff"/>
        <path id="Path_1096-2" data-name="Path 1096" d="M107.033,115.25v-4.356l.253-8.273h0l.254-8.665.323-4.125h-1.314a21.109,21.109,0,0,0-17.192,8.458,2.028,2.028,0,0,0-.207,1.913A27.815,27.815,0,0,0,107.033,115.25Z" transform="translate(163.163 117.115)" fill="#fff"/>
        <path id="Path_1097-2" data-name="Path 1097" d="M88.664,184.337c1.014,8.273,12.145,17.491,23.045,24.635.76.53,1.544,1.014,2.3,1.521,6.914,4.4,13.551,7.881,16.892,9.564l.807.438.415.207a3.065,3.065,0,0,1,.553.277l.507.23v-2.281l-1.544-.76-1.244-.622h0l-1.429-.738c-.737-.392-1.521-.83-2.3-1.244-2.489-1.36-5.185-2.9-7.974-4.609h0l-2.858-1.774c-.6-.369-1.2-.737-1.774-1.129-9.748-6.43-19.888-14.841-22.584-23.253a14.056,14.056,0,0,1-.622-2.95,43.389,43.389,0,0,1,1.475-6.614h0v-.277l3.2-9.218c9.541-24.612,30.627-64.988,41.9-85.59l.138-4.609s-30.3,54.848-43.256,87.572c-.277.645-.53,1.291-.761,1.913a.323.323,0,0,0,0,.138h0c-1.291,3.3-2.3,6.314-3.134,8.988h0a41.022,41.022,0,0,0-1.682,7.743h0A10.094,10.094,0,0,0,88.664,184.337Z" transform="translate(134.335 98.474)" fill="#fff"/>
        <path id="Path_1098-2" data-name="Path 1098" d="M87.675,185.643c1.106,9.011,12.744,18.736,24.036,26.156l1.014.668c6.453,4.171,12.652,7.582,16.57,9.61l2.535,1.314h0a.6.6,0,0,1,.207,0h0l1.314.622a1.936,1.936,0,0,0,.876.184,2.143,2.143,0,0,0,1.06-.276,1.659,1.659,0,0,0,.553-.507,1.43,1.43,0,0,0,.253-.392l.138-.369a1.914,1.914,0,0,0,0-.507h0a.161.161,0,0,0,0-.115.253.253,0,0,0,0-.184.552.552,0,0,0,0-.184,2.49,2.49,0,0,0-.184-.438,2.443,2.443,0,0,0-.392-.461,2.535,2.535,0,0,0-.484-.323l-.484-.254h0l-.323-.161-1.544-.761-1.244-.622h0l-1.429-.737c-.737-.392-1.521-.83-2.3-1.244-2.489-1.36-5.185-2.9-7.974-4.609h0l-2.858-1.774c-.6-.369-1.2-.737-1.774-1.129-11.246-7.282-22.308-16.362-23.23-23.875a11.31,11.31,0,0,1,0-2.3,43.4,43.4,0,0,1,1.475-6.614h0c.83-2.742,1.936-5.946,3.319-9.449,9.541-24.612,30.627-64.988,41.9-85.59l1.936-3.526v-.115a2.074,2.074,0,0,0-.853-2.7,2.028,2.028,0,0,0-2.3.253,1.475,1.475,0,0,0-.507.553c-4.01,7.259-31.756,57.844-43.786,88.839l-.277.76c-.23.553-.438,1.106-.622,1.636s-.622,1.659-.9,2.443v.161c-.53,1.5-1.014,2.927-1.429,4.286a45.769,45.769,0,0,0-2.166,9.449A12.006,12.006,0,0,0,87.675,185.643Z" transform="translate(133.273 97.421)"/>
        <path id="Path_1099-2" data-name="Path 1099" d="M216.475,168.215s165.58-63.49,199.134-40.905,35.374,46.736,19.289,75.427-145.185,19.7-179.453,18.667S6.555,225.3,8.4,210.135c0,0-4.909-5.231,24.29-5.6,0,0-31.895,5.37-31.733.3s43.509-12.629,77.663-9.08S216.475,168.215,216.475,168.215Z" transform="translate(29.2 159.672)" fill="#fff"/>
        <path id="Path_1100-2" data-name="Path 1100" d="M31.141,197.84l4.471-.507,2.3-.23,2.3-.207,4.033-.3,2.3-.161h1.314l3.388.484,1.8.23,3.111.346,1.452.138h1.06l2.1.161h1.291l1.682.115H60.639a242.864,242.864,0,0,0-29.567,1.844c-.691-.576-1.383-1.175-2.051-1.8Zm0,0,4.471-.507,2.3-.23,2.3-.207,4.033-.3,2.3-.161h1.314l3.388.484,1.8.23,3.111.346,1.452.138h4.448l1.682.115H60.639a242.84,242.84,0,0,0-29.567,1.844c-.691-.576-1.383-1.175-2.051-1.8Zm0,0,4.471-.507,2.3-.23,2.3-.207,4.033-.3,2.3-.161h1.314l3.388.484,1.8.23,3.111.346,1.452.138h4.448l1.682.115H60.639a242.84,242.84,0,0,0-29.567,1.844c-.691-.576-1.383-1.175-2.051-1.8Zm-11.177-.415,3.157-.553,3.872-.576c3.918-.553,8-1.037,12.145-1.406h0c2.835-.23,5.669-.438,8.527-.576h0c4.356-.253,8.665-.369,12.882-.369H71.079c3,.161,5.9.369,8.665.668a57.31,57.31,0,0,0,5.946.277c11.523,0,28.092-2.535,45.514-6.061l2.3-.438,2.3-.484c38.163-8,79-20.142,81.05-20.741,1.267-.484,7.651-2.927,17.445-6.43h0l2.65-.945h0l2.3-.83.323-.138h0c33.6-11.592,96.283-32.125,139.147-36.434,1.429-.161,2.858-.277,4.24-.392,3.664-.277,7.19-.438,10.486-.438,11.177,0,19.151,1.705,24.359,5.208C449.85,148.292,456,172.4,437.752,204.915c-8.25,14.726-43.21,21.87-106.907,21.87-23.045,0-44.662-.922-60.517-1.59-5.485-.23-10.255-.438-13.827-.553s-9.495-.161-18.6-.161H174.275c-109.626,0-159.2-3.134-165.764-10.509a4.218,4.218,0,0,1-1.06-2.3,3.227,3.227,0,0,1-.3-1.728,9.218,9.218,0,0,1-6.222-1.89,3.3,3.3,0,0,1-.945-2.3c-.046-1.267.069-4.816,19.98-8.319ZM11.484,211.39c.853,1.267,7.49,5.208,55.839,7.4,34.245,1.544,77.386,1.728,106.861,1.728h63.628c9.218,0,15.072,0,18.713.161s8.411.323,13.827.553c15.809.668,37.449,1.59,60.332,1.59,76.234,0,98.265-10.739,103.312-19.75,17.169-30.627,11.523-52.382-18.644-72.731-4.448-2.973-11.868-4.609-22.054-4.609-41.481,0-117.807,25.1-154.4,38.071-12.537,4.425-20.418,7.444-20.741,7.559h-.161c-2.489.761-42.5,12.7-80.543,20.741h-.138c-19.5,4.125-38.463,7.19-51.6,7.19a42.208,42.208,0,0,1-6.361-.3c-3.48-.369-7.144-.622-10.97-.76h0c-1.36,0-2.765-.115-4.171-.115H60.593a242.857,242.857,0,0,0-29.567,1.844c-1.383.184-2.719.346-4.033.553-11.039,1.59-19.174,3.687-22.077,5.3a23.045,23.045,0,0,0,4.609.346H11.23c3.664-1.36,10.163-2.143,19.4-2.3h2.95a2.074,2.074,0,0,1,.369,4.1,201.113,201.113,0,0,1-21.893,2.466,4.61,4.61,0,0,0-.784.415,2.3,2.3,0,0,1,.207.553ZM31.141,197.84l4.471-.507,2.3-.23,2.3-.207,4.033-.3,2.3-.161h1.314l3.388.484,1.8.23,3.111.346,1.452.138h4.448l1.682.115H60.639a242.84,242.84,0,0,0-29.567,1.844c-.691-.576-1.383-1.175-2.051-1.8Zm0,0,4.471-.507,2.3-.23,2.3-.207,4.033-.3,2.3-.161h1.314l3.388.484,1.8.23,3.111.346,1.452.138h1.06l2.1.161h1.291l1.682.115H60.639a242.864,242.864,0,0,0-29.567,1.844c-.691-.576-1.383-1.175-2.051-1.8Z" transform="translate(28.259 158.508)"/>
        <path id="Path_1101-2" data-name="Path 1101" d="M99.975,285c.576,21.709,11.269,38.255,31.779,49.317a58.706,58.706,0,0,0,6.5,3.2c2.281.9,5.346,2.3,8.227,3.249a151.712,151.712,0,0,0,31.411,7.052c4.609.53,8.3.784,10.854.922H195.2c3,.161,5.9.369,8.665.668a57.294,57.294,0,0,0,5.946.276c11.523,0,28.092-2.535,45.514-6.061a78.537,78.537,0,0,1-12.7-28.207,118.106,118.106,0,0,1-3.272-28.807c-32.1,6.914-52.889,4.471-61.853-7.559-8.619-11.523-5.416-31.319,9.218-57.2,11.73-20.741,44.984-57.613,77.132-93.149,20.741-23.045,42.288-46.828,57.175-65.472,19.174-23.967,21.063-31.733,20.487-34.245-1.452,0-4.932.784-10,5.946-2.788,3.826-5.508,6.914-6.568,8.158a2.074,2.074,0,0,1-3.249-2.535,62.219,62.219,0,0,1,6.476-8.089c4.1-5.669,7.513-11.523,7.029-14.357a1.06,1.06,0,0,0-.576-.853c-3.019-1.613-11.062,6.384-17.86,15.924-1.291,1.982-2.3,3.526-2.927,4.309a2.074,2.074,0,0,1-3.434-2.3c.714-1.106,1.728-2.65,2.973-4.425,4.932-7.674,9.817-17.238,8.688-20.626a1.06,1.06,0,0,0-.784-.737c-4.125-1.314-10.555,7.236-14.979,15.463-1.083,2.3-1.959,3.987-2.3,4.609a2.074,2.074,0,0,1-3.687-1.844c.415-.922,1.221-2.627,2.3-4.609,3.157-6.914,6.2-15.556,4.77-19.081a1.89,1.89,0,0,0-.853-1.014c-6.914,2.881-56.369,53.419-108.935,118.314C160.791,166.92,98.984,248.846,99.975,285Z" transform="translate(-95.837 3.752)" fill="#fff"/>
        <path id="Path_1102-2" data-name="Path 1102" d="M75.8,146.666l.184.184c3.111,3.065,9.564,3.572,13.5,3.572H92.6a2.074,2.074,0,1,0-.323-4.125c-4.056.323-11.269,0-13.458-2.3-1.521-1.613-1.083-2.489,9.979-13.5q3.111-3.088,7.19-7.213c17.468-17.883,16.731-30.028,16.685-30.466a2.074,2.074,0,0,0-4.125.3c0,.207.415,10.97-15.509,27.1-2.719,2.765-5.093,5.139-7.167,7.213a119.63,119.63,0,0,0-9.587,10.163C73.216,141.458,73.1,143.809,75.8,146.666Z" transform="translate(193.199 118.699)"/>
        <path id="Path_1103-2" data-name="Path 1103" d="M77.836,133.67l.507.3a21.155,21.155,0,0,0,8.411,1.682c10.578,0,19.98-7.1,20.487-7.49a2.051,2.051,0,0,0,.369-2.881,2.074,2.074,0,0,0-2.9-.392c-.207.161-13.528,10.163-24.728,5.277a2,2,0,0,0-2.028.254,1.89,1.89,0,0,0-.691.83,2.1,2.1,0,0,0,.576,2.42Z" transform="translate(190.423 162.3)"/>
        <path id="Path_1104-2" data-name="Path 1104" d="M97.477,96.794s-1.406,16.961-4.609,16.339-9.218-1.8-9.218-1.8S85.194,90.825,89,90.94s8.573,5.853,8.573,5.853Z" transform="translate(185.785 118.564)"/>
        <path id="Path_1105-2" data-name="Path 1105" d="M81.592,98.269a21.109,21.109,0,0,1,17.192-8.458H100.1a26.293,26.293,0,0,1,4.148.553c12.4,2.65,14.334,16.961,13.643,24.151a2.051,2.051,0,0,1-1.821,1.844,46.681,46.681,0,0,1-5.854.369,38.209,38.209,0,0,1-10.9-1.5,27.816,27.816,0,0,1-17.929-15.095,2.028,2.028,0,0,1,.207-1.867Zm17.054,12.4.807.323a32.263,32.263,0,0,0,10.232,1.705h.53a28.741,28.741,0,0,0,3.641-.161,26.456,26.456,0,0,0-1.867-10.762h0a11.822,11.822,0,0,0-8.619-7.4c-.461,0-.945-.184-1.406-.23s-1.36-.207-2-.254H98.784a17.215,17.215,0,0,0-13.067,5.761A24.52,24.52,0,0,0,98.646,110.667Z" transform="translate(170.881 117.088)"/>
        <path id="Path_1106-2" data-name="Path 1106" d="M91.835,60.59c-3.5,2.927-4.286,8.388-3.987,12.7A21.155,21.155,0,0,0,92.8,85.594c1.291,1.5-.9,3.71-2.3,2.3a24.751,24.751,0,0,1-5.877-14.5c-.323-5.07.807-11.523,4.909-14.887,1.521-1.267,3.71.922,2.3,2.3Z" transform="translate(188.039 75.769)" fill="#fff"/>
        <path id="Path_1107-2" data-name="Path 1107" d="M83.868,63.048a36.434,36.434,0,0,0-.484,10.37,17.883,17.883,0,0,0,4.609,8.988,1.613,1.613,0,0,1,0,2.3,1.567,1.567,0,0,1-2.189,0,21.178,21.178,0,0,1-5.393-10.347,40.56,40.56,0,0,1,.507-12.03,1.544,1.544,0,0,1,1.89-1.083,1.567,1.567,0,0,1,1.083,1.913Z" transform="translate(202.873 79.763)" fill="#fff"/>
        <path id="Path_1108-2" data-name="Path 1108" d="M80.719,65.936a3.624,3.624,0,0,0,0,.53h0v2.166h0a8.944,8.944,0,0,0,.254,1.129,3.436,3.436,0,0,0,.346,1.037c.115.346,0-.207,0,0v.23a3.2,3.2,0,0,0,.253.484,7.948,7.948,0,0,0,.576.945l.161.207c.138.184-.161-.161,0,0l.415.461a1.613,1.613,0,0,1,0,2.3,1.59,1.59,0,0,1-2.3,0,11.523,11.523,0,0,1-2.812-10.255,1.567,1.567,0,0,1,2.028-1.129,1.59,1.59,0,0,1,1.083,1.913Z" transform="translate(214.664 83.373)" fill="#fff"/>
        <path id="Path_1109-2" data-name="Path 1109" d="M36.536,83.183a128.662,128.662,0,0,1,.392,36.435,1.567,1.567,0,0,1-1.544,1.544,1.544,1.544,0,0,1-1.544-1.544,126.219,126.219,0,0,0-.3-35.6C33.241,82.054,36.214,81.224,36.536,83.183Z" transform="translate(360.845 106.986)" fill="#fff"/>
        <path id="Path_1110-2" data-name="Path 1110" d="M36.5,90.775a57.982,57.982,0,0,1-5.37,36.872c-.9,1.774-3.572.207-2.673-1.567A54.387,54.387,0,0,0,33.5,91.513c-.369-1.959,2.627-2.788,3-.83Z" transform="translate(373.514 116.77)" fill="#fff"/>
        <path id="Path_1111-2" data-name="Path 1111" d="M95.654.629A49.57,49.57,0,0,1,104,39a46.966,46.966,0,0,1-3.549,10.831c-.83,1.821-3.5.23-2.673-1.567a46.275,46.275,0,0,0-4.793-46C91.8.652,94.5-.892,95.654.7Z" transform="translate(157.603 -0.03)"/>
        <path id="Path_1112-2" data-name="Path 1112" d="M91.966,1.38a80.935,80.935,0,0,1,3.872,48.4,79.873,79.873,0,0,1-4.309,13.159,1.567,1.567,0,0,1-2.12.576,1.59,1.59,0,0,1-.553-2.12A77.547,77.547,0,0,0,93,14.976,78.354,78.354,0,0,0,88.97,2.14c-.76-1.844,2.3-2.65,3-.83Z" transform="translate(173.942 0.302)"/>
      </g>
    </g>
  </g>
</svg>
