<?xml version="1.0" encoding="UTF-8"?>
<svg xmlns="http://www.w3.org/2000/svg" xmlns:xlink="http://www.w3.org/1999/xlink" width="26px" height="26px" viewBox="0 0 26 26" version="1.1">
<g id="surface1">
<path style="fill:none;stroke-width:8;stroke-linecap:square;stroke-linejoin:miter;stroke:rgb(0%,0%,0%);stroke-opacity:1;stroke-miterlimit:4;" d="M 7.998798 4.018787 L 234.001202 4.018787 C 236.21905 4.018787 238.000601 5.808751 238.000601 7.987838 L 238.000601 110.988589 C 238.000601 113.206588 236.21905 114.996552 234.001202 114.996552 L 7.998798 114.996552 C 5.78095 114.996552 3.999399 113.206588 3.999399 110.988589 L 3.999399 7.987838 C 3.999399 5.808751 5.78095 4.018787 7.998798 4.018787 Z M 7.998798 4.018787 " transform="matrix(0.107438,0,0,0.100386,0,0.00672587)"/>
<path style=" stroke:none;fill-rule:nonzero;fill:rgb(0%,0%,0%);fill-opacity:1;" d="M 22.988281 3.730469 L 11.082031 3.730469 C 10.714844 3.753906 10.425781 4.039062 10.425781 4.382812 C 10.425781 4.730469 10.714844 5.015625 11.082031 5.039062 L 22.988281 5.039062 C 23.359375 5.015625 23.644531 4.730469 23.644531 4.382812 C 23.644531 4.039062 23.359375 3.753906 22.988281 3.730469 Z M 22.988281 3.730469 "/>
<path style=" stroke:none;fill-rule:nonzero;fill:rgb(0%,0%,0%);fill-opacity:1;" d="M 15.484375 6.914062 L 11.226562 6.914062 C 10.785156 6.914062 10.425781 7.222656 10.425781 7.601562 C 10.425781 7.980469 10.785156 8.289062 11.226562 8.289062 L 15.484375 8.289062 C 15.925781 8.289062 16.285156 7.980469 16.285156 7.601562 C 16.285156 7.222656 15.925781 6.914062 15.484375 6.914062 Z M 15.484375 6.914062 "/>
<path style="fill:none;stroke-width:8;stroke-linecap:butt;stroke-linejoin:miter;stroke:rgb(0%,0%,0%);stroke-opacity:1;stroke-miterlimit:4;" d="M -0.00270433 0.0108245 L 1.996995 119.004514 " transform="matrix(0.107438,0,0,0.100386,8.433884,0.00672587)"/>
<path style=" stroke:none;fill-rule:nonzero;fill:rgb(0%,0%,0%);fill-opacity:1;" d="M 4.4375 2.976562 C 3.03125 2.980469 1.894531 4.042969 1.890625 5.359375 C 1.886719 5.59375 2.019531 5.808594 2.234375 5.925781 C 2.453125 6.042969 2.71875 6.042969 2.9375 5.925781 C 3.152344 5.808594 3.285156 5.59375 3.28125 5.359375 C 3.28125 4.761719 3.800781 4.277344 4.4375 4.277344 C 5.078125 4.277344 5.597656 4.761719 5.597656 5.359375 C 5.597656 5.957031 5.078125 6.441406 4.4375 6.441406 C 4.1875 6.4375 3.957031 6.5625 3.828125 6.761719 C 3.703125 6.964844 3.703125 7.214844 3.828125 7.417969 C 3.957031 7.617188 4.1875 7.742188 4.4375 7.738281 C 5.84375 7.738281 6.984375 6.671875 6.984375 5.359375 C 6.984375 4.042969 5.84375 2.976562 4.4375 2.976562 Z M 4.4375 2.976562 "/>
<path style=" stroke:none;fill-rule:nonzero;fill:rgb(0%,0%,0%);fill-opacity:1;" d="M 4.445312 8.519531 L 4.4375 8.519531 C 4.054688 8.519531 3.742188 8.8125 3.742188 9.171875 C 3.746094 9.53125 4.058594 9.824219 4.441406 9.824219 C 4.828125 9.824219 5.140625 9.53125 5.140625 9.171875 C 5.140625 8.8125 4.832031 8.519531 4.445312 8.519531 Z M 4.445312 8.519531 "/>
<path style="fill:none;stroke-width:8;stroke-linecap:square;stroke-linejoin:miter;stroke:rgb(0%,0%,0%);stroke-opacity:1;stroke-miterlimit:4;" d="M 7.998798 3.986185 L 234.001202 3.986185 C 236.21905 3.986185 238.000601 5.776149 238.000601 7.994148 L 238.000601 110.994899 C 238.000601 113.212898 236.21905 115.002862 234.001202 115.002862 L 7.998798 115.002862 C 5.78095 115.002862 3.999399 113.212898 3.999399 110.994899 L 3.999399 7.994148 C 3.999399 5.776149 5.78095 3.986185 7.998798 3.986185 Z M 7.998798 3.986185 " transform="matrix(0.107438,0,0,0.100386,0,14.06078)"/>
<path style="fill:none;stroke-width:8;stroke-linecap:butt;stroke-linejoin:miter;stroke:rgb(0%,0%,0%);stroke-opacity:1;stroke-miterlimit:4;" d="M -0.00270433 0.0171346 L 1.996995 119.010825 " transform="matrix(0.107438,0,0,0.100386,8.433884,14.06078)"/>
<path style=" stroke:none;fill-rule:nonzero;fill:rgb(0%,0%,0%);fill-opacity:1;" d="M 4.4375 17.03125 C 3.03125 17.035156 1.894531 18.097656 1.890625 19.414062 C 1.886719 19.644531 2.019531 19.863281 2.234375 19.980469 C 2.453125 20.097656 2.71875 20.097656 2.9375 19.980469 C 3.152344 19.863281 3.285156 19.644531 3.28125 19.414062 C 3.28125 18.816406 3.800781 18.332031 4.4375 18.332031 C 5.078125 18.332031 5.597656 18.816406 5.597656 19.414062 C 5.597656 20.011719 5.078125 20.496094 4.4375 20.496094 C 4.1875 20.492188 3.957031 20.613281 3.828125 20.816406 C 3.703125 21.019531 3.703125 21.269531 3.828125 21.46875 C 3.957031 21.671875 4.1875 21.796875 4.4375 21.792969 C 5.84375 21.792969 6.984375 20.726562 6.984375 19.414062 C 6.984375 18.097656 5.84375 17.03125 4.4375 17.03125 Z M 4.4375 17.03125 "/>
<path style=" stroke:none;fill-rule:nonzero;fill:rgb(0%,0%,0%);fill-opacity:1;" d="M 4.445312 22.570312 L 4.4375 22.570312 C 4.054688 22.574219 3.742188 22.867188 3.742188 23.226562 C 3.746094 23.585938 4.058594 23.875 4.441406 23.875 C 4.828125 23.875 5.140625 23.585938 5.140625 23.226562 C 5.140625 22.867188 4.832031 22.574219 4.445312 22.570312 Z M 4.445312 22.570312 "/>
<path style=" stroke:none;fill-rule:nonzero;fill:rgb(0%,0%,0%);fill-opacity:1;" d="M 22.988281 17.8125 L 11.082031 17.8125 C 10.714844 17.835938 10.425781 18.121094 10.425781 18.464844 C 10.425781 18.8125 10.714844 19.097656 11.082031 19.121094 L 22.988281 19.121094 C 23.359375 19.097656 23.644531 18.8125 23.644531 18.464844 C 23.644531 18.121094 23.359375 17.835938 22.988281 17.8125 Z M 22.988281 17.8125 "/>
<path style=" stroke:none;fill-rule:nonzero;fill:rgb(0%,0%,0%);fill-opacity:1;" d="M 15.484375 20.996094 L 11.226562 20.996094 C 10.785156 20.996094 10.425781 21.304688 10.425781 21.683594 C 10.425781 22.0625 10.785156 22.371094 11.226562 22.371094 L 15.484375 22.371094 C 15.925781 22.371094 16.285156 22.0625 16.285156 21.683594 C 16.285156 21.304688 15.925781 20.996094 15.484375 20.996094 Z M 15.484375 20.996094 "/>
<path style=" stroke:none;fill-rule:nonzero;fill:rgb(0%,0%,0%);fill-opacity:1;" d="M 22.722656 6.914062 L 17.796875 6.914062 C 17.285156 6.914062 16.871094 7.222656 16.871094 7.601562 C 16.871094 7.980469 17.285156 8.289062 17.796875 8.289062 L 22.722656 8.289062 C 23.234375 8.289062 23.648438 7.980469 23.648438 7.601562 C 23.648438 7.222656 23.234375 6.914062 22.722656 6.914062 Z M 22.722656 6.914062 "/>
<path style=" stroke:none;fill-rule:nonzero;fill:rgb(0%,0%,0%);fill-opacity:1;" d="M 22.722656 20.96875 L 17.796875 20.96875 C 17.285156 20.96875 16.871094 21.277344 16.871094 21.65625 C 16.871094 22.035156 17.285156 22.34375 17.796875 22.34375 L 22.722656 22.34375 C 23.234375 22.34375 23.648438 22.035156 23.648438 21.65625 C 23.648438 21.277344 23.234375 20.96875 22.722656 20.96875 Z M 22.722656 20.96875 "/>
</g>
</svg>
