<svg xmlns="http://www.w3.org/2000/svg" width="965.301" height="434.571" viewBox="0 0 965.301 434.571">
  <g id="Group_317" data-name="Group 317" transform="translate(-149.172 -201.515)">
    <g id="Group_315" data-name="Group 315" transform="translate(78.35 -1155.233)">
      <g id="Group_257" data-name="Group 257" transform="translate(653.95 1759.971) rotate(-41)">
        <g id="Group_215" data-name="Group 215" transform="translate(35.32)">
          <path id="Path_1031" data-name="Path 1031" d="M1579.85,2271.76s14.16-2.86,20.99.17" transform="translate(-1579.85 -2267.57)" fill="#008278"/>
          <path id="Path_1032" data-name="Path 1032" d="M1579.85,2271.76a13.209,13.209,0,0,1,4.98-3.12,17.3,17.3,0,0,1,5.46-1.06,15.73,15.73,0,0,1,5.64.8,9.2,9.2,0,0,1,4.91,3.55c-2.1.47-3.72.87-5.39,1.14a39.318,39.318,0,0,1-4.96.5,31.832,31.832,0,0,1-5.12-.26A19.889,19.889,0,0,1,1579.85,2271.76Z" transform="translate(-1579.85 -2267.57)" fill="#008278"/>
        </g>
        <g id="Group_216" data-name="Group 216" transform="translate(43.11 14.404)">
          <path id="Path_1033" data-name="Path 1033" d="M1587.64,2284.01s10.34.8,15.74,3.51" transform="translate(-1587.64 -2281.974)" fill="#008278"/>
          <path id="Path_1034" data-name="Path 1034" d="M1587.64,2284.01a9.782,9.782,0,0,1,4.35-1.87,11.663,11.663,0,0,1,4.25.06,11.108,11.108,0,0,1,4.01,1.63,8,8,0,0,1,3.13,3.69,18.137,18.137,0,0,1-4.45.84,15.422,15.422,0,0,1-3.86-.27,14.891,14.891,0,0,1-3.73-1.29A12.539,12.539,0,0,1,1587.64,2284.01Z" transform="translate(-1587.64 -2281.974)" fill="#008278"/>
        </g>
        <g id="Group_217" data-name="Group 217" transform="translate(42.46 29.521)">
          <path id="Path_1035" data-name="Path 1035" d="M1586.99,2300.4s7.79-1.27,11.77,1.12" transform="translate(-1586.99 -2297.091)" fill="#008278"/>
          <path id="Path_1036" data-name="Path 1036" d="M1586.99,2300.4a6.535,6.535,0,0,1,2.87-2.64,6.827,6.827,0,0,1,3.28-.66,6.58,6.58,0,0,1,3.33,1.07,4.958,4.958,0,0,1,2.3,3.34c-1.49.59-2.39,1.01-3.31,1.27a7.961,7.961,0,0,1-2.63.31,8.372,8.372,0,0,1-2.72-.64A10.42,10.42,0,0,1,1586.99,2300.4Z" transform="translate(-1586.99 -2297.091)" fill="#008278"/>
        </g>
        <g id="Group_218" data-name="Group 218" transform="translate(21.79 27.291)">
          <path id="Path_1037" data-name="Path 1037" d="M1566.32,2298.8a21.545,21.545,0,0,0,8.11-2.7" transform="translate(-1566.32 -2294.861)" fill="#008278"/>
          <path id="Path_1038" data-name="Path 1038" d="M1566.32,2298.8a8.788,8.788,0,0,1,1.61-2.66,3.852,3.852,0,0,1,1.68-1.12,3.811,3.811,0,0,1,1.97-.06,10.738,10.738,0,0,1,2.86,1.15,4.784,4.784,0,0,1-.94,3.16,4.192,4.192,0,0,1-2.06,1.47,4.113,4.113,0,0,1-2.48,0A5.346,5.346,0,0,1,1566.32,2298.8Z" transform="translate(-1566.32 -2294.861)" fill="#008278"/>
        </g>
        <g id="Group_219" data-name="Group 219" transform="translate(0 22.686)">
          <path id="Path_1039" data-name="Path 1039" d="M1544.53,2295.45s8.43-4.13,10.98-2.06" transform="translate(-1544.53 -2290.256)" fill="#008278"/>
          <path id="Path_1040" data-name="Path 1040" d="M1544.53,2295.45a6.555,6.555,0,0,1,1.8-3.33,6.435,6.435,0,0,1,6.22-1.64,7.589,7.589,0,0,1,.94.36,5.341,5.341,0,0,1,.91.57,3.878,3.878,0,0,1,.77.85,2.288,2.288,0,0,1,.34,1.12,2.927,2.927,0,0,0-.53.21,1.7,1.7,0,0,0-.39.22,4.8,4.8,0,0,0-.62.5l-.52.46c-.18.16-.35.29-.5.4a6.388,6.388,0,0,1-2.2,1.09,7.354,7.354,0,0,1-2.7.23A9.289,9.289,0,0,1,1544.53,2295.45Z" transform="translate(-1544.53 -2290.256)" fill="#008278"/>
        </g>
        <g id="Group_220" data-name="Group 220" transform="translate(9.38 43.699)">
          <path id="Path_1041" data-name="Path 1041" d="M1553.91,2314.06a120.4,120.4,0,0,0,13.52.01" transform="translate(-1553.91 -2311.27)" fill="#008278"/>
          <path id="Path_1042" data-name="Path 1042" d="M1553.91,2314.06a9.48,9.48,0,0,1,10.09-2.17,10.536,10.536,0,0,1,3.43,2.17,7.667,7.667,0,0,1-3.32,2.54,8.727,8.727,0,0,1-3.47.66,8.822,8.822,0,0,1-3.42-.72A8.437,8.437,0,0,1,1553.91,2314.06Z" transform="translate(-1553.91 -2311.27)" fill="#008278"/>
        </g>
        <g id="Group_221" data-name="Group 221" transform="translate(55.97 57.002)">
          <path id="Path_1043" data-name="Path 1043" d="M1600.5,2327.44a40.349,40.349,0,0,1,11.77,1.12" transform="translate(-1600.5 -2324.573)" fill="#008278"/>
          <path id="Path_1044" data-name="Path 1044" d="M1600.5,2327.44a6.438,6.438,0,0,1,3.04-2.4,6.813,6.813,0,0,1,3.19-.43,6.883,6.883,0,0,1,3.01,1.05,6.971,6.971,0,0,1,2.53,2.89,9.241,9.241,0,0,1-3.29,1.77,7.275,7.275,0,0,1-2.86.26,7.551,7.551,0,0,1-2.73-.84A10.509,10.509,0,0,1,1600.5,2327.44Z" transform="translate(-1600.5 -2324.573)" fill="#008278"/>
        </g>
        <g id="Group_222" data-name="Group 222" transform="translate(65.68 33.908)">
          <path id="Path_1045" data-name="Path 1045" d="M1610.21,2304.06s3.18-.79,10.02,2.23" transform="translate(-1610.21 -2301.479)" fill="#008278"/>
          <path id="Path_1046" data-name="Path 1046" d="M1610.21,2304.06a4.6,4.6,0,0,1,2.86-2.33,5.562,5.562,0,0,1,3.02-.08,5.4,5.4,0,0,1,2.53,1.45,6.085,6.085,0,0,1,1.61,3.19,8.574,8.574,0,0,1-3.21,1.25,5.748,5.748,0,0,1-2.43-.08,5.668,5.668,0,0,1-2.07-1.06A23.28,23.28,0,0,1,1610.21,2304.06Z" transform="translate(-1610.21 -2301.479)" fill="#008278"/>
        </g>
        <g id="Group_223" data-name="Group 223" transform="translate(78.08 46.368)">
          <path id="Path_1047" data-name="Path 1047" d="M1622.61,2315.84s11.77,1.12,17.18,3.82" transform="translate(-1622.61 -2313.938)" fill="#008278"/>
          <path id="Path_1048" data-name="Path 1048" d="M1622.61,2315.84a10.944,10.944,0,0,1,4.73-1.77,13.85,13.85,0,0,1,4.59.13,12.922,12.922,0,0,1,4.35,1.68,8.716,8.716,0,0,1,3.5,3.78,22.051,22.051,0,0,1-4.78.76,18.684,18.684,0,0,1-4.24-.34,18,18,0,0,1-4.11-1.36A13.97,13.97,0,0,1,1622.61,2315.84Z" transform="translate(-1622.61 -2313.938)" fill="#008278"/>
        </g>
        <g id="Group_224" data-name="Group 224" transform="translate(76.33 60.628)">
          <path id="Path_1049" data-name="Path 1049" d="M1620.86,2330.47s8.91.48,12.88,2.87" transform="translate(-1620.86 -2328.198)" fill="#008278"/>
          <path id="Path_1050" data-name="Path 1050" d="M1620.86,2330.47a7.713,7.713,0,0,1,3.6-2.02,8.091,8.091,0,0,1,3.56-.1,7.872,7.872,0,0,1,3.35,1.47,5.974,5.974,0,0,1,2.38,3.53,19.317,19.317,0,0,1-3.75.99,9.7,9.7,0,0,1-6.12-1.21A10.4,10.4,0,0,1,1620.86,2330.47Z" transform="translate(-1620.86 -2328.198)" fill="#008278"/>
        </g>
        <g id="Group_225" data-name="Group 225" transform="translate(88.91 24.54)">
          <path id="Path_1051" data-name="Path 1051" d="M1633.44,2294.21s11.77,1.12,14.31,3.19" transform="translate(-1633.44 -2292.11)" fill="#008278"/>
          <path id="Path_1052" data-name="Path 1052" d="M1633.44,2294.21a9.088,9.088,0,0,1,3.98-1.89,10.242,10.242,0,0,1,3.86-.05,9.793,9.793,0,0,1,3.68,1.46,7.819,7.819,0,0,1,1.67,1.46,4.439,4.439,0,0,1,1.12,2.21c-.91.18-1.48.35-2.16.54a12.724,12.724,0,0,1-1.85.34,11.569,11.569,0,0,1-3.53-.11,11.43,11.43,0,0,1-3.43-1.2A10.661,10.661,0,0,1,1633.44,2294.21Z" transform="translate(-1633.44 -2292.11)" fill="#008278"/>
        </g>
        <g id="Group_226" data-name="Group 226" transform="translate(86.37 8.421)">
          <path id="Path_1053" data-name="Path 1053" d="M1630.9,2278.62s7.48.16,8.59,1.91" transform="translate(-1630.9 -2275.991)" fill="#008278"/>
          <path id="Path_1054" data-name="Path 1054" d="M1630.9,2278.62a5.707,5.707,0,0,1,2.43-2.21,4.317,4.317,0,0,1,2.48-.37,4.581,4.581,0,0,1,2.41,1.16,4.866,4.866,0,0,1,1.04,1.34,2.4,2.4,0,0,1,.23,1.99,3.417,3.417,0,0,0-1.53.65,7.741,7.741,0,0,1-1.06.55,3.7,3.7,0,0,1-1.98.24,4.429,4.429,0,0,1-1.98-.88A7.593,7.593,0,0,1,1630.9,2278.62Z" transform="translate(-1630.9 -2275.991)" fill="#008278"/>
        </g>
        <g id="Group_227" data-name="Group 227" transform="translate(123.43 11.154)">
          <path id="Path_1055" data-name="Path 1055" d="M1667.96,2280.87s8.91.48,11.13,3.98" transform="translate(-1667.96 -2278.724)" fill="#008278"/>
          <path id="Path_1056" data-name="Path 1056" d="M1667.96,2280.87a6.671,6.671,0,0,1,3.39-1.97,6.864,6.864,0,0,1,3.4.08,6.6,6.6,0,0,1,3.11,1.87,4.724,4.724,0,0,1,1.36,2.84c0,.2,0,.4-.01.59a4.956,4.956,0,0,1-.12.58c-.21-.02-.4-.02-.59-.02-.17-.01-.33-.01-.48-.01-.33.03-.61.03-.88.07-.55.07-.98.1-1.45.13a8.156,8.156,0,0,1-2.56-.28,8.574,8.574,0,0,1-2.53-1.21A10.6,10.6,0,0,1,1667.96,2280.87Z" transform="translate(-1667.96 -2278.724)" fill="#008278"/>
        </g>
        <g id="Group_228" data-name="Group 228" transform="translate(109.25 69.428)">
          <path id="Path_1057" data-name="Path 1057" d="M1653.78,2337.8s6.84,3.02,9.06,6.52" transform="translate(-1653.78 -2336.999)" fill="#008278"/>
          <path id="Path_1058" data-name="Path 1058" d="M1653.78,2337.8a6.353,6.353,0,0,1,3.65-.78,6.2,6.2,0,0,1,2.94,1.02,6.1,6.1,0,0,1,2.14,2.42,4.968,4.968,0,0,1,.33,3.86,23.039,23.039,0,0,1-3.44-.32,6.7,6.7,0,0,1-2.36-.98,7.117,7.117,0,0,1-1.89-1.9A9.362,9.362,0,0,1,1653.78,2337.8Z" transform="translate(-1653.78 -2336.999)" fill="#008278"/>
        </g>
        <g id="Group_229" data-name="Group 229" transform="translate(265.38 192.12)">
          <path id="Path_1059" data-name="Path 1059" d="M1809.91,2459.69s8.74,7.96,14.47,9.23" transform="translate(-1809.91 -2459.69)" fill="#008278"/>
          <path id="Path_1060" data-name="Path 1060" d="M1809.91,2459.69a14.085,14.085,0,0,1,4.77.93,18.177,18.177,0,0,1,3.72,1.94,19.479,19.479,0,0,1,3.09,2.66,33.591,33.591,0,0,1,2.89,3.7,7.643,7.643,0,0,1-5.11.47,11.954,11.954,0,0,1-4.27-1.88,12.794,12.794,0,0,1-3.24-3.2A10.412,10.412,0,0,1,1809.91,2459.69Z" transform="translate(-1809.91 -2459.69)" fill="#008278"/>
        </g>
        <g id="Group_230" data-name="Group 230" transform="translate(259.81 210.201)">
          <path id="Path_1061" data-name="Path 1061" d="M1804.34,2477.98a66.376,66.376,0,0,0,10.49,6.84" transform="translate(-1804.34 -2477.771)" fill="#008278"/>
          <path id="Path_1062" data-name="Path 1062" d="M1804.34,2477.98a9.333,9.333,0,0,1,3.88-.01,8.5,8.5,0,0,1,2.86,1.18,8.257,8.257,0,0,1,2.21,2.13,9.576,9.576,0,0,1,1.55,3.54,7.248,7.248,0,0,1-3.95.53,7.565,7.565,0,0,1-3.11-1.19,7.733,7.733,0,0,1-2.31-2.38A7.335,7.335,0,0,1,1804.34,2477.98Z" transform="translate(-1804.34 -2477.771)" fill="#008278"/>
        </g>
        <g id="Group_231" data-name="Group 231" transform="translate(249.559 194.617)">
          <path id="Path_1063" data-name="Path 1063" d="M1794.32,2462.23a87.359,87.359,0,0,0,7.31,7.64" transform="translate(-1794.089 -2462.187)" fill="#008278"/>
          <path id="Path_1064" data-name="Path 1064" d="M1794.32,2462.23a7.607,7.607,0,0,1,3.5.42,5.993,5.993,0,0,1,2.23,1.47,5.719,5.719,0,0,1,1.31,2.28,9.01,9.01,0,0,1,.28,3.47,6.064,6.064,0,0,1-3.61-.12,5.662,5.662,0,0,1-2.36-1.53,5.784,5.784,0,0,1-1.35-2.43A6.963,6.963,0,0,1,1794.32,2462.23Z" transform="translate(-1794.089 -2462.187)" fill="#008278"/>
        </g>
        <g id="Group_232" data-name="Group 232" transform="translate(231.19 168.09)">
          <path id="Path_1065" data-name="Path 1065" d="M1776.2,2435.66s4.13,8.43,7.79,12.25" transform="translate(-1775.72 -2435.66)" fill="#008278"/>
          <path id="Path_1066" data-name="Path 1066" d="M1776.2,2435.66a10.647,10.647,0,0,1,3.75,2.09,11.427,11.427,0,0,1,2.33,2.72,11.688,11.688,0,0,1,1.36,3.24,13.978,13.978,0,0,1,.35,4.2,7.426,7.426,0,0,1-4.2-1.47,9.483,9.483,0,0,1-2.63-2.85,9.83,9.83,0,0,1-1.32-3.58A8.812,8.812,0,0,1,1776.2,2435.66Z" transform="translate(-1775.72 -2435.66)" fill="#008278"/>
        </g>
        <g id="Group_233" data-name="Group 233" transform="translate(251.89 174.3)">
          <path id="Path_1067" data-name="Path 1067" d="M1797.35,2441.87s3.02,6.68,5.56,8.75" transform="translate(-1796.42 -2441.87)" fill="#008278"/>
          <path id="Path_1068" data-name="Path 1068" d="M1797.35,2441.87a8.321,8.321,0,0,1,3.24,1.25,6,6,0,0,1,1.76,1.84,5.567,5.567,0,0,1,.75,2.33,16.021,16.021,0,0,1-.18,3.33,4.865,4.865,0,0,1-3.64-.56,5.572,5.572,0,0,1-2.86-4.76A6.485,6.485,0,0,1,1797.35,2441.87Z" transform="translate(-1796.42 -2441.87)" fill="#008278"/>
        </g>
        <g id="Group_234" data-name="Group 234" transform="translate(237.983 147.26)">
          <path id="Path_1069" data-name="Path 1069" d="M1783.85,2414.83s2.38,9.54,4.29,14.47" transform="translate(-1782.513 -2414.83)" fill="#008278"/>
          <path id="Path_1070" data-name="Path 1070" d="M1783.85,2414.83a10.531,10.531,0,0,1,3.22,3.04,11.767,11.767,0,0,1,2.09,7.15,11.276,11.276,0,0,1-1.02,4.28,8.852,8.852,0,0,1-3.48-2.85,10.768,10.768,0,0,1-1.72-3.5,11.265,11.265,0,0,1-.4-3.86A9.556,9.556,0,0,1,1783.85,2414.83Z" transform="translate(-1782.513 -2414.83)" fill="#008278"/>
        </g>
        <g id="Group_235" data-name="Group 235" transform="translate(217.893 144.55)">
          <path id="Path_1071" data-name="Path 1071" d="M1764.92,2412.12s.63,10.66,1.74,12.41" transform="translate(-1762.423 -2412.12)" fill="#008278"/>
          <path id="Path_1072" data-name="Path 1072" d="M1764.92,2412.12a8.83,8.83,0,0,1,2.57,2.94,8.184,8.184,0,0,1,.7,6.06,10.058,10.058,0,0,1-.6,1.59c-.28.58-.59,1.05-.93,1.82a4.1,4.1,0,0,1-1.93-1.15,7.314,7.314,0,0,1-1.19-1.5,7.771,7.771,0,0,1-.73-6.43A7.859,7.859,0,0,1,1764.92,2412.12Z" transform="translate(-1762.423 -2412.12)" fill="#008278"/>
        </g>
        <g id="Group_236" data-name="Group 236" transform="translate(289.492 218.021)">
          <path id="Path_1073" data-name="Path 1073" d="M1834.07,2486.1s5.09,4.14,7.95,4.77" transform="translate(-1834.022 -2485.592)" fill="#008278"/>
          <path id="Path_1074" data-name="Path 1074" d="M1834.07,2486.1a7.748,7.748,0,0,1,3.24-.49,4.685,4.685,0,0,1,2.17.7,4.336,4.336,0,0,1,1.47,1.61,15.475,15.475,0,0,1,1.07,2.96,4.515,4.515,0,0,1-3.25,1.23,4.76,4.76,0,0,1-2.55-.75,4.633,4.633,0,0,1-1.68-1.94A6.176,6.176,0,0,1,1834.07,2486.1Z" transform="translate(-1834.022 -2485.592)" fill="#008278"/>
        </g>
        <g id="Group_237" data-name="Group 237" transform="translate(308.256 213.649)">
          <path id="Path_1075" data-name="Path 1075" d="M1852.84,2482.77a10.132,10.132,0,0,0,7.16,1.59" transform="translate(-1852.786 -2481.219)" fill="#008278"/>
          <path id="Path_1076" data-name="Path 1076" d="M1852.84,2482.77c1.22-.64,1.9-1.05,2.52-1.29a2.589,2.589,0,0,1,1.51-.22,2.706,2.706,0,0,1,1.35.8,11.91,11.91,0,0,1,1.77,2.3,4.339,4.339,0,0,1-1.97,2.41,3.411,3.411,0,0,1-2.36.36,3.572,3.572,0,0,1-2.07-1.3A3.9,3.9,0,0,1,1852.84,2482.77Z" transform="translate(-1852.786 -2481.219)" fill="#008278"/>
        </g>
        <g id="Group_238" data-name="Group 238" transform="translate(226.426 123.4)">
          <path id="Path_1077" data-name="Path 1077" d="M1771.13,2390.97s6.99,9.07,6.36,11.93" transform="translate(-1770.956 -2390.97)" fill="#008278"/>
          <path id="Path_1078" data-name="Path 1078" d="M1771.13,2390.97a8.2,8.2,0,0,1,3.94,1.44,8.729,8.729,0,0,1,2.5,2.64,8.614,8.614,0,0,1,1.23,3.57,7.006,7.006,0,0,1-.1,2.17,3.346,3.346,0,0,1-1.21,2.11,6.474,6.474,0,0,0-1.61-1.26,14.44,14.44,0,0,1-1.35-1.02,10.048,10.048,0,0,1-2.07-2.44,10.332,10.332,0,0,1-1.25-3.1A10.1,10.1,0,0,1,1771.13,2390.97Z" transform="translate(-1770.956 -2390.97)" fill="#008278"/>
        </g>
        <g id="Group_239" data-name="Group 239" transform="translate(203.237 118.217)">
          <path id="Path_1079" data-name="Path 1079" d="M1748.23,2385.87s3.66,3.82,4.13,8.43" transform="translate(-1747.767 -2385.787)" fill="#008278"/>
          <path id="Path_1080" data-name="Path 1080" d="M1748.23,2385.87a5.182,5.182,0,0,1,3.41.53,4.826,4.826,0,0,1,2.46,4.85,4.577,4.577,0,0,1-1.74,3.05,15.413,15.413,0,0,1-2.75-1.6,4.633,4.633,0,0,1-1.35-1.55,4.8,4.8,0,0,1-.49-2.08A10.6,10.6,0,0,1,1748.23,2385.87Z" transform="translate(-1747.767 -2385.787)" fill="#008278"/>
        </g>
        <g id="Group_240" data-name="Group 240" transform="translate(216.398 101.577)">
          <path id="Path_1081" data-name="Path 1081" d="M1760.96,2369.18s6.2,5.89,6.68,10.5" transform="translate(-1760.928 -2369.147)" fill="#008278"/>
          <path id="Path_1082" data-name="Path 1082" d="M1760.96,2369.18a6.973,6.973,0,0,1,3.94.77,7.272,7.272,0,0,1,2.62,2.3,7.019,7.019,0,0,1,1.29,3.4,5.113,5.113,0,0,1-1.17,4.03c-1.37-.88-2.28-1.35-3.07-1.97a8.831,8.831,0,0,1-1.95-2.01,9.244,9.244,0,0,1-1.27-2.68A10.481,10.481,0,0,1,1760.96,2369.18Z" transform="translate(-1760.928 -2369.147)" fill="#008278"/>
        </g>
        <g id="Group_241" data-name="Group 241" transform="translate(242.731 110.504)">
          <path id="Path_1083" data-name="Path 1083" d="M1787.52,2378.09a24.352,24.352,0,0,1,5.24,10.18" transform="translate(-1787.261 -2378.074)" fill="#008278"/>
          <path id="Path_1084" data-name="Path 1084" d="M1787.52,2378.09a5.868,5.868,0,0,1,3.71.99,6.428,6.428,0,0,1,2.87,5.61,6.1,6.1,0,0,1-1.34,3.59,10.8,10.8,0,0,1-3.07-1.92,7.4,7.4,0,0,1-1.63-2.11,7.5,7.5,0,0,1-.74-2.56A11.967,11.967,0,0,1,1787.52,2378.09Z" transform="translate(-1787.261 -2378.074)" fill="#008278"/>
        </g>
        <g id="Group_242" data-name="Group 242" transform="translate(141.37 86.757)">
          <path id="Path_1085" data-name="Path 1085" d="M1685.9,2355.47s7.16,1.59,10.49,6.84" transform="translate(-1685.9 -2354.327)" fill="#008278"/>
          <path id="Path_1086" data-name="Path 1086" d="M1685.9,2355.47a6.283,6.283,0,0,1,3.94-1.14,7.217,7.217,0,0,1,3.51,1.07,7.083,7.083,0,0,1,2.59,2.75,5.592,5.592,0,0,1,.46,4.17,23.4,23.4,0,0,1-3.67-.71,9.755,9.755,0,0,1-2.52-1.1,9.976,9.976,0,0,1-2.19-1.85A13.823,13.823,0,0,1,1685.9,2355.47Z" transform="translate(-1685.9 -2354.327)" fill="#008278"/>
        </g>
        <g id="Group_243" data-name="Group 243" transform="translate(164.44 71.445)">
          <path id="Path_1087" data-name="Path 1087" d="M1708.97,2339.57s7.95,4.77,9.06,6.52" transform="translate(-1708.97 -2339.015)" fill="#008278"/>
          <path id="Path_1088" data-name="Path 1088" d="M1708.97,2339.57a7.079,7.079,0,0,1,3.64-.5,6.333,6.333,0,0,1,4.79,3.26,6.3,6.3,0,0,1,.63,1.65,4.108,4.108,0,0,1,0,2.12c-.83.01-1.33.08-1.94.1a8.5,8.5,0,0,1-1.55-.11,6.413,6.413,0,0,1-2.54-1.02,6.646,6.646,0,0,1-1.93-2.04A8.057,8.057,0,0,1,1708.97,2339.57Z" transform="translate(-1708.97 -2339.015)" fill="#008278"/>
        </g>
        <g id="Group_244" data-name="Group 244" transform="translate(184.227 88.55)">
          <path id="Path_1089" data-name="Path 1089" d="M1729.32,2356.12s4.45,7,5.24,10.18" transform="translate(-1728.757 -2356.12)" fill="#008278"/>
          <path id="Path_1090" data-name="Path 1090" d="M1729.32,2356.12a7.169,7.169,0,0,1,3.52,1.26,6.606,6.606,0,0,1,2.82,5.25,5.684,5.684,0,0,1-1.1,3.67,12.236,12.236,0,0,1-3.17-1.67,6.8,6.8,0,0,1-1.8-2.12,7.024,7.024,0,0,1-.81-2.74A8.391,8.391,0,0,1,1729.32,2356.12Z" transform="translate(-1728.757 -2356.12)" fill="#008278"/>
        </g>
        <g id="Group_245" data-name="Group 245" transform="translate(198.73 79.632)">
          <path id="Path_1091" data-name="Path 1091" d="M1743.32,2347.22s7.31,7.64,8.43,9.39" transform="translate(-1743.26 -2347.202)" fill="#008278"/>
          <path id="Path_1092" data-name="Path 1092" d="M1743.32,2347.22a8.162,8.162,0,0,1,3.88.68,8,8,0,0,1,4.32,4.7,6.973,6.973,0,0,1,.23,4,10.412,10.412,0,0,1-3.77-.88,7.955,7.955,0,0,1-2.55-1.87,8.142,8.142,0,0,1-1.65-2.73A8.224,8.224,0,0,1,1743.32,2347.22Z" transform="translate(-1743.26 -2347.202)" fill="#008278"/>
        </g>
        <g id="Group_246" data-name="Group 246" transform="translate(182.757 62.477)">
          <path id="Path_1093" data-name="Path 1093" d="M1727.58,2330.19a56.935,56.935,0,0,1,5.88,7.32" transform="translate(-1727.287 -2330.048)" fill="#008278"/>
          <path id="Path_1094" data-name="Path 1094" d="M1727.58,2330.19a6.176,6.176,0,0,1,3.35.19,4.831,4.831,0,0,1,2.08,1.45,4.671,4.671,0,0,1,1.02,2.34,5.731,5.731,0,0,1-.56,3.34,7.8,7.8,0,0,1-3.23-.53,4.6,4.6,0,0,1-1.88-1.36,4.787,4.787,0,0,1-.96-2.14A7.223,7.223,0,0,1,1727.58,2330.19Z" transform="translate(-1727.287 -2330.048)" fill="#008278"/>
        </g>
        <g id="Group_247" data-name="Group 247" transform="translate(178.417 35.811)">
          <path id="Path_1095" data-name="Path 1095" d="M1722.98,2303.63s5.09,4.14,7.31,7.64" transform="translate(-1722.947 -2303.381)" fill="#008278"/>
          <path id="Path_1096" data-name="Path 1096" d="M1722.98,2303.63a6.426,6.426,0,0,1,3.58.01,5.753,5.753,0,0,1,2.46,1.46,5.771,5.771,0,0,1,1.26,6.18,10.664,10.664,0,0,1-3.39-.58,5.676,5.676,0,0,1-2.14-1.37,6.06,6.06,0,0,1-1.37-2.21A8.471,8.471,0,0,1,1722.98,2303.63Z" transform="translate(-1722.947 -2303.381)" fill="#008278"/>
        </g>
        <g id="Group_248" data-name="Group 248" transform="translate(152.53 22.349)">
          <path id="Path_1097" data-name="Path 1097" d="M1697.06,2291.85s5.73,1.27,6.84,3.02" transform="translate(-1697.06 -2289.919)" fill="#008278"/>
          <path id="Path_1098" data-name="Path 1098" d="M1697.06,2291.85a5.3,5.3,0,0,1,2.5-1.77,3.407,3.407,0,0,1,2.19.04,3.649,3.649,0,0,1,1.8,1.5,3.774,3.774,0,0,1,.33.63,4.606,4.606,0,0,1,.24.77,3.777,3.777,0,0,1,.06.89,2.681,2.681,0,0,1-.08.48,2.9,2.9,0,0,1-.2.47,2.6,2.6,0,0,0-.5.1c-.15.04-.25.08-.39.13a5.961,5.961,0,0,0-.66.28l-.55.23c-.18.07-.35.12-.49.16a2.56,2.56,0,0,1-1.67-.04,3.111,3.111,0,0,1-1.41-1.15A7.159,7.159,0,0,1,1697.06,2291.85Z" transform="translate(-1697.06 -2289.919)" fill="#008278"/>
        </g>
        <g id="Group_249" data-name="Group 249" transform="translate(201.244 53.25)">
          <path id="Path_1099" data-name="Path 1099" d="M1746.19,2320.82l6.68,10.5" transform="translate(-1745.774 -2320.82)" fill="#008278"/>
          <path id="Path_1100" data-name="Path 1100" d="M1746.19,2320.82a8.324,8.324,0,0,1,3.65,1.36,7.839,7.839,0,0,1,3.35,5.25,2.449,2.449,0,1,1-3.98,2.53,7.813,7.813,0,0,1-3.33-5.25A8.172,8.172,0,0,1,1746.19,2320.82Z" transform="translate(-1745.774 -2320.82)" fill="#008278"/>
        </g>
        <g id="Group_250" data-name="Group 250" transform="translate(224.55 81.09)">
          <path id="Path_1101" data-name="Path 1101" d="M1770.04,2348.66s3.81,9.86,4.61,13.04" transform="translate(-1769.08 -2348.66)" fill="#008278"/>
          <path id="Path_1102" data-name="Path 1102" d="M1770.04,2348.66a8.989,8.989,0,0,1,3.43,2.41,9.484,9.484,0,0,1,2.39,6.57,7.95,7.95,0,0,1-1.2,4.06,10.56,10.56,0,0,1-3.26-2.54,9.753,9.753,0,0,1-2.32-6.44A9.046,9.046,0,0,1,1770.04,2348.66Z" transform="translate(-1769.08 -2348.66)" fill="#008278"/>
        </g>
        <g id="Group_251" data-name="Group 251" transform="translate(148.07 42.389)">
          <path id="Path_1103" data-name="Path 1103" d="M1692.6,2311.89s5.73,1.27,6.84,3.02" transform="translate(-1692.6 -2309.959)" fill="#008278"/>
          <path id="Path_1104" data-name="Path 1104" d="M1692.6,2311.89a5.3,5.3,0,0,1,2.5-1.77,3.407,3.407,0,0,1,2.19.04,3.649,3.649,0,0,1,1.8,1.5,3.51,3.51,0,0,1,.33.64,4.606,4.606,0,0,1,.24.77,3.777,3.777,0,0,1,.06.89,2.681,2.681,0,0,1-.08.48,2.9,2.9,0,0,1-.2.47,2.6,2.6,0,0,0-.5.1,2.573,2.573,0,0,0-.39.13,5.961,5.961,0,0,0-.66.28l-.55.23c-.18.07-.35.12-.49.16a2.56,2.56,0,0,1-1.67-.04,3.111,3.111,0,0,1-1.41-1.15A7.294,7.294,0,0,1,1692.6,2311.89Z" transform="translate(-1692.6 -2309.959)" fill="#008278"/>
        </g>
        <g id="Group_252" data-name="Group 252" transform="translate(117.693 48.613)">
          <ellipse id="Ellipse_174" data-name="Ellipse 174" cx="2.2" cy="2.93" rx="2.2" ry="2.93" transform="translate(2.49 5.951) rotate(-77.449)" fill="#008278"/>
          <path id="Path_1105" data-name="Path 1105" d="M1670.96,2321.34a4.644,4.644,0,0,1-3.66,2.97,4.339,4.339,0,0,1-3.28-.6,4.008,4.008,0,0,1-1.41-1.65,4.153,4.153,0,0,1,1.09-4.93,4.006,4.006,0,0,1,1.98-.9,4.374,4.374,0,0,1,3.24.85,5.765,5.765,0,0,1,1.73,2.13A3.489,3.489,0,0,1,1670.96,2321.34Zm0,0a1.384,1.384,0,0,0-.92-1.55,2.047,2.047,0,0,0-1.79.24,1.39,1.39,0,0,0-.75,1.07.188.188,0,0,0,.28.16.753.753,0,0,0,.39-.54.731.731,0,0,0-.13-.65.187.187,0,0,0-.32.04,1.386,1.386,0,0,0,.24,1.29,2.058,2.058,0,0,0,1.53.96A1.36,1.36,0,0,0,1670.96,2321.34Z" transform="translate(-1662.224 -2316.183)" fill="#008278"/>
        </g>
        <g id="Group_253" data-name="Group 253" transform="translate(106.896 9.869)">
          <ellipse id="Ellipse_175" data-name="Ellipse 175" cx="1.47" cy="2.2" rx="1.47" ry="2.2" transform="translate(2.642 4.779) rotate(-77.449)" fill="#008278"/>
          <path id="Path_1106" data-name="Path 1106" d="M1658.73,2281.82a2.685,2.685,0,0,1-.91,1.32,5.39,5.39,0,0,1-1.88,1.09,3.558,3.558,0,0,1-2.68-.15,3.2,3.2,0,0,1-1.35-1.28,3.621,3.621,0,0,1,1.05-4.77,3.183,3.183,0,0,1,1.77-.59,3.492,3.492,0,0,1,2.49,1,5.574,5.574,0,0,1,1.24,1.79A2.623,2.623,0,0,1,1658.73,2281.82Zm0,0a.853.853,0,0,0-.81-.97,1.7,1.7,0,0,0-1.35.53c-.35.34-.52.81-.38,1.04.07.12.23.19.49.07a1.4,1.4,0,0,0,.69-.98,1.425,1.425,0,0,0-.21-1.17c-.18-.21-.36-.22-.47-.14-.23.16-.27.66-.09,1.11a1.692,1.692,0,0,0,1,1.04A.832.832,0,0,0,1658.73,2281.82Z" transform="translate(-1651.426 -2277.439)" fill="#008278"/>
        </g>
        <g id="Group_254" data-name="Group 254" transform="translate(117.066 31.659)">
          <ellipse id="Ellipse_176" data-name="Ellipse 176" cx="1.47" cy="2.2" rx="1.47" ry="2.2" transform="translate(2.638 4.78) rotate(-77.449)" fill="#008278"/>
          <path id="Path_1107" data-name="Path 1107" d="M1668.9,2303.61a2.685,2.685,0,0,1-.91,1.32,5.39,5.39,0,0,1-1.88,1.09,3.558,3.558,0,0,1-2.68-.15,3.2,3.2,0,0,1-1.35-1.28,3.621,3.621,0,0,1,1.05-4.77,3.183,3.183,0,0,1,1.77-.59,3.492,3.492,0,0,1,2.49,1,5.574,5.574,0,0,1,1.24,1.79A2.634,2.634,0,0,1,1668.9,2303.61Zm0,0a.853.853,0,0,0-.81-.97,1.7,1.7,0,0,0-1.35.53c-.35.34-.52.81-.38,1.04.07.12.23.19.49.07a1.4,1.4,0,0,0,.69-.98,1.425,1.425,0,0,0-.21-1.17c-.18-.21-.36-.22-.47-.14-.23.16-.27.66-.09,1.11a1.692,1.692,0,0,0,1,1.04A.832.832,0,0,0,1668.9,2303.61Z" transform="translate(-1661.596 -2299.229)" fill="#008278"/>
        </g>
        <g id="Group_255" data-name="Group 255" transform="translate(141.37 56.964)">
          <circle id="Ellipse_177" data-name="Ellipse 177" cx="2.2" cy="2.2" r="2.2" transform="translate(2.98 2.095)" fill="#008278"/>
          <path id="Path_1108" data-name="Path 1108" d="M1693.22,2329.31a4.725,4.725,0,0,1-.75,1.72,3.522,3.522,0,0,1-2.2,1.4,3.643,3.643,0,0,1-3.23-1.04,4.076,4.076,0,0,1,1.46-6.62,3.639,3.639,0,0,1,3.38.43,3.508,3.508,0,0,1,1.4,2.22A4.518,4.518,0,0,1,1693.22,2329.31Zm0,0a1.3,1.3,0,0,0-.64-1.44,1.082,1.082,0,0,0-1.36.28.732.732,0,0,0,.06,1.01.345.345,0,0,0,.57-.16.351.351,0,0,0-.46-.38.733.733,0,0,0-.48.9,1.067,1.067,0,0,0,1.11.82A1.307,1.307,0,0,0,1693.22,2329.31Z" transform="translate(-1685.9 -2324.535)" fill="#008278"/>
        </g>
        <g id="Group_256" data-name="Group 256" transform="translate(163.496 52.509)">
          <ellipse id="Ellipse_178" data-name="Ellipse 178" cx="1.47" cy="2.2" rx="1.47" ry="2.2" transform="translate(2.647 4.778) rotate(-77.449)" fill="#008278"/>
          <path id="Path_1109" data-name="Path 1109" d="M1715.33,2324.46a2.685,2.685,0,0,1-.91,1.32,5.39,5.39,0,0,1-1.88,1.09,3.558,3.558,0,0,1-2.68-.15,3.2,3.2,0,0,1-1.35-1.28,3.621,3.621,0,0,1,1.05-4.77,3.207,3.207,0,0,1,1.77-.59,3.492,3.492,0,0,1,2.49,1,5.574,5.574,0,0,1,1.24,1.79A2.562,2.562,0,0,1,1715.33,2324.46Zm0,0a.853.853,0,0,0-.81-.97,1.7,1.7,0,0,0-1.35.53c-.35.34-.52.81-.38,1.04.07.12.23.19.49.07a1.4,1.4,0,0,0,.69-.98,1.425,1.425,0,0,0-.21-1.17c-.18-.21-.36-.22-.47-.14-.23.16-.27.66-.09,1.11a1.692,1.692,0,0,0,1,1.04A.832.832,0,0,0,1715.33,2324.46Z" transform="translate(-1708.026 -2320.079)" fill="#008278"/>
        </g>
      </g>
      <g id="Group_259" data-name="Group 259" transform="translate(-1044.326 -1030.004)">
        <path id="Path_1110" data-name="Path 1110" d="M1622.91,2389.57s-9.24,10.75-17.85,13.44c-3.66,1.14-16.63-.32-16.63-.32s5.43-10.35,15.48-13.49A31.338,31.338,0,0,1,1622.91,2389.57Z" fill="none" stroke="#000" stroke-linecap="round" stroke-linejoin="round" stroke-miterlimit="10" stroke-width="2"/>
        <path id="Path_1111" data-name="Path 1111" d="M1622.91,2389.57s-27.22,6.12-34.49,13.11" fill="none" stroke="#000" stroke-linecap="round" stroke-linejoin="round" stroke-miterlimit="10" stroke-width="2"/>
        <g id="Group_258" data-name="Group 258">
          <path id="Path_1112" data-name="Path 1112" d="M1620.39,2428.69s1.68-12.39,4.16-17.12,11.27-14.59,11.27-14.59,7.92,10.19.08,20.55S1620.39,2428.69,1620.39,2428.69Z" fill="none" stroke="#000" stroke-linecap="round" stroke-linejoin="round" stroke-miterlimit="10" stroke-width="2"/>
          <path id="Path_1113" data-name="Path 1113" d="M1622.82,2426.35s13.66-14.55,12.95-26.98" fill="none" stroke="#000" stroke-linecap="round" stroke-linejoin="round" stroke-miterlimit="10" stroke-width="2"/>
        </g>
      </g>
      <g id="Group_263" data-name="Group 263" transform="matrix(0.998, 0.07, -0.07, 0.998, -1205.024, -658.432)">
        <path id="Path_1120" data-name="Path 1120" d="M1522.84,2245.9c3.81,19.94-6.16,41.77-23.72,51.95" fill="none" stroke="#000" stroke-linecap="round" stroke-linejoin="round" stroke-miterlimit="10" stroke-width="3"/>
        <path id="Path_1121" data-name="Path 1121" d="M1513.12,2223.19s-5.48-.22-5.93,7.03,2.85,16.1,16.35,17.79,15.99-13.7,15.99-13.7,1.09-7.61-4.08-8-6.04,6.47-6.04,6.47,2.67-11.38-4.48-13.13-7.35,11.12-7.35,11.12S1516.74,2223.42,1513.12,2223.19Z" fill="#008278"/>
        <g id="Group_262" data-name="Group 262">
          <path id="Path_1122" data-name="Path 1122" d="M1521.41,2269.24s4.73-15.49,14.51-12.74C1535.91,2256.5,1533.11,2268.53,1521.41,2269.24Z" fill="none" stroke="#000" stroke-linecap="round" stroke-linejoin="round" stroke-miterlimit="10" stroke-width="3"/>
          <path id="Path_1123" data-name="Path 1123" d="M1535.91,2256.5s-10.46,8.13-14.42,12.82" fill="none" stroke="#000" stroke-linecap="round" stroke-linejoin="round" stroke-miterlimit="10" stroke-width="3"/>
        </g>
        <path id="Path_1124" data-name="Path 1124" d="M1520.41,2271.63s-12.19-.7-11.7-25.42L1517,2270s7.12-9.57-8.29-23.78" fill="none" stroke="#000" stroke-linecap="round" stroke-linejoin="round" stroke-miterlimit="10" stroke-width="3"/>
      </g>
      <g id="Group_265" data-name="Group 265" transform="translate(62.34 -819.5)">
        <path id="Path_1138" data-name="Path 1138" d="M268.54,2177.39s16.94,16.65,20.47,31.34c1.5,6.24-2.4,27.77-2.4,27.77s-16.7-10.24-20.81-27.38A52.711,52.711,0,0,1,268.54,2177.39Z" fill="none" stroke="#000" stroke-linecap="round" stroke-linejoin="round" stroke-miterlimit="10" stroke-width="2"/>
        <path id="Path_1139" data-name="Path 1139" d="M268.54,2177.39s7.19,46.18,18.06,59.11" fill="none" stroke="#000" stroke-linecap="round" stroke-linejoin="round" stroke-miterlimit="10" stroke-width="2"/>
        <path id="Path_1140" data-name="Path 1140" d="M325.3,2206.86s-2.79,13.21-11.25,19.83l-16.93,13.25s-1.95-22.62,10.28-31.14C307.4,2208.8,313.04,2205.95,325.3,2206.86Z" fill="none" stroke="#000" stroke-linecap="round" stroke-linejoin="round" stroke-miterlimit="10" stroke-width="2"/>
      </g>
      <g id="Group_269" data-name="Group 269" transform="translate(-810.548 -687.503)">
        <path id="Path_1148" data-name="Path 1148" d="M881.37,2234.712l7.9,4.416s49.484-61.711,57.24-71.889l82.582,46.415,5.88-8.224-91.374-51.4Z"/>
        <path id="Path_1149" data-name="Path 1149" d="M967.968,2238.771c-4.54-10.5-17.406-15.552-28.714-13.878a17.958,17.958,0,0,0-9.19,3.684,29.607,29.607,0,0,0-7.788,10.482,41.645,41.645,0,0,0-2.329,18.7c.592,7.546,5.008,14.314,10.327,19.7,12.967,13.13,31.26,19.571,49.351,23.223l.327-.062c15.529-9.969,30.24-22.608,37.561-39.547,3.006-6.954,4.657-14.859,2.477-22.11a41.776,41.776,0,0,0-8.948-16.58,29.5,29.5,0,0,0-11.059-6.939,17.91,17.91,0,0,0-9.906-.1c-11.144,2.546-21.3,11.923-21.728,23.348Z" transform="translate(-8.494 -13.421)" fill="#008278"/>
      </g>
      <g id="Group_271" data-name="Group 271" transform="translate(118.217 -779.648)">
        <g id="Group_270" data-name="Group 270" transform="translate(57.811 2137.538)">
          <path id="Path_1150" data-name="Path 1150" d="M361.2,2270.831c.253.045,8.616-9.589,14.4,3.639" transform="translate(-314.861 -2254.898)" fill="none" stroke="#000" stroke-linecap="round" stroke-linejoin="round" stroke-miterlimit="10" stroke-width="2"/>
          <path id="Path_1151" data-name="Path 1151" d="M371.936,2267.96c.059.015-5.608,1.708-1.174,11.186" transform="translate(-316.884 -2255.02)" fill="none" stroke="#000" stroke-linecap="round" stroke-linejoin="round" stroke-miterlimit="10" stroke-width="2"/>
          <path id="Path_1152" data-name="Path 1152" d="M365.33,2290.03c-.007,0,5.444,1.24,8.207,10.087,2.748,8.883-1.53,9.425,1.493,18.249" transform="translate(-315.923 -2260.698)" fill="none" stroke="#000" stroke-linecap="round" stroke-linejoin="round" stroke-miterlimit="10" stroke-width="2"/>
          <path id="Path_1153" data-name="Path 1153" d="M377.2,2306.78c-.022,0,10.235-.312,14.194,12.389" transform="translate(-318.977 -2265.007)" fill="none" stroke="#000" stroke-linecap="round" stroke-linejoin="round" stroke-miterlimit="10" stroke-width="2"/>
          <path id="Path_1154" data-name="Path 1154" d="M390.06,2323.212c.007.007,3.1-9.277,9.715-14.424,6.083-4.5,2.993-20.96-8.363-20.344" transform="translate(-322.285 -2260.286)" fill="none" stroke="#000" stroke-linecap="round" stroke-linejoin="round" stroke-miterlimit="10" stroke-width="2"/>
          <path id="Path_1155" data-name="Path 1155" d="M389.39,2295.262c.045,0,.2-10.272,3.253-11.572" transform="translate(-322.113 -2259.067)" fill="none" stroke="#000" stroke-linecap="round" stroke-linejoin="round" stroke-miterlimit="10" stroke-width="2"/>
          <path id="Path_1156" data-name="Path 1156" d="M396.206,2363.168c-.007.045-8.319-1.753-6.93-7.881,1.471-6.053,10.681-18.695,10.6-18.717" transform="translate(-322.043 -2272.67)" fill="none" stroke="#000" stroke-linecap="round" stroke-linejoin="round" stroke-miterlimit="10" stroke-width="2"/>
          <path id="Path_1157" data-name="Path 1157" d="M394.82,2348.572c-.03,0,5.92,6.075,12.723-4.471" transform="translate(-323.509 -2274.607)" fill="none" stroke="#000" stroke-linecap="round" stroke-linejoin="round" stroke-miterlimit="10" stroke-width="2"/>
          <path id="Path_1158" data-name="Path 1158" d="M395.319,2310.16c.1-.059,13.236-12.79,4.516-29.138-8.623-16.622-19.742-16.311-19.735-16.207h0c-5.177-10.346-13.206-17.529-20.054-12.783-7,4.783-9.656,19.95-9.626,19.891,5.86,21.822,15.367,46.719,22.683,72.878.067-.045,8.1,10.354,16.511,7.479,8.564-2.963,10.161-13.54,10.086-13.488" transform="translate(-312.087 -2250.538)" fill="none" stroke="#000" stroke-linecap="round" stroke-linejoin="round" stroke-miterlimit="10" stroke-width="2"/>
          <path id="Path_1159" data-name="Path 1159" d="M406.949,2358.017c-.3.208,20.2-4.932,15.865-25.677a95.193,95.193,0,0,0-6.276-17.15" transform="translate(-326.629 -2267.17)" fill="none" stroke="#000" stroke-linecap="round" stroke-linejoin="round" stroke-miterlimit="10" stroke-width="2"/>
          <path id="Path_1160" data-name="Path 1160" d="M334.668,2283.8c.082-.03-12.181,2.488-10.71,13.332" transform="translate(-305.248 -2259.095)" fill="none" stroke="#000" stroke-linecap="round" stroke-linejoin="round" stroke-miterlimit="10" stroke-width="2"/>
          <path id="Path_1161" data-name="Path 1161" d="M326.32,2291.1c.067.052,5.637-3.751,6.692,5.489" transform="translate(-305.888 -2260.784)" fill="none" stroke="#000" stroke-linecap="round" stroke-linejoin="round" stroke-miterlimit="10" stroke-width="2"/>
          <path id="Path_1162" data-name="Path 1162" d="M343.28,2298.99c.045.059-3.9,4.687-1.181,12.381,2.837,7.873,6.707,5.942,9.418,14.409" transform="translate(-309.701 -2263.003)" fill="none" stroke="#000" stroke-linecap="round" stroke-linejoin="round" stroke-miterlimit="10" stroke-width="2"/>
          <path id="Path_1163" data-name="Path 1163" d="M341.613,2318.38c.074.156-8.8,5.459-4.449,16.251" transform="translate(-308.368 -2267.991)" fill="none" stroke="#000" stroke-linecap="round" stroke-linejoin="round" stroke-miterlimit="10" stroke-width="2"/>
          <path id="Path_1164" data-name="Path 1164" d="M340.365,2338.313c-.015-.059-7.962-5.719-16.623-6.343-7.829-1.166-15.9-11.327-5.118-16.89" transform="translate(-302.567 -2267.142)" fill="none" stroke="#000" stroke-linecap="round" stroke-linejoin="round" stroke-miterlimit="10" stroke-width="2"/>
          <path id="Path_1165" data-name="Path 1165" d="M325.61,2318.441c-.059-.1-6.143-6.157-9.7-4.947" transform="translate(-303.21 -2266.693)" fill="none" stroke="#000" stroke-linecap="round" stroke-linejoin="round" stroke-miterlimit="10" stroke-width="2"/>
          <path id="Path_1166" data-name="Path 1166" d="M357.3,2373.991c-.015.067,5.979-5.281,1.478-9.893-4.531-4.546-19.319-10.733-19.3-10.748" transform="translate(-309.273 -2276.987)" fill="none" stroke="#000" stroke-linecap="round" stroke-linejoin="round" stroke-miterlimit="10" stroke-width="2"/>
          <path id="Path_1167" data-name="Path 1167" d="M350.016,2360.5c0-.008-1.322,7.658-12.746,1.545" transform="translate(-308.704 -2278.826)" fill="none" stroke="#000" stroke-linecap="round" stroke-linejoin="round" stroke-miterlimit="10" stroke-width="2"/>
          <path id="Path_1168" data-name="Path 1168" d="M322.1,2331.336c.1.289-18.747-5.808-22.661-17.492-3.476-11,8.556-17.016,8.348-17.358h0c-1.2-7.368,4.56-16.815,12.894-22.26,8.051-5.556,16.192,3.1,16.452,3.313,5.86,21.822,15.367,46.719,22.683,72.878.045-.074-2.005,12.946-10.2,14.276-8.1,1.144-14.476-8.088-14.513-7.977" transform="translate(-298.811 -2256.154)" fill="none" stroke="#000" stroke-linecap="round" stroke-linejoin="round" stroke-miterlimit="10" stroke-width="2"/>
          <path id="Path_1169" data-name="Path 1169" d="M345.743,2374.431c-.074.735-17.217,2.563-26.717-16.259a108.058,108.058,0,0,1-6.016-14.573" transform="translate(-302.464 -2274.479)" fill="none" stroke="#000" stroke-linecap="round" stroke-linejoin="round" stroke-miterlimit="10" stroke-width="2"/>
        </g>
      </g>
    </g>
    <g id="Layer_2" data-name="Layer 2" transform="translate(270.286 232.677)">
      <g id="Layer_1" data-name="Layer 1" transform="translate(2.981 9.03)">
        <path id="Path_1080-2" data-name="Path 1080" d="M212.319,146.73c-.991,1.314-1.982,2.581-3.042,3.849s-2.028,2.466-3.111,3.687c-2.95,3.388-6.061,6.66-9.218,9.771-.622.622-1.244,1.221-1.89,1.8s-1.314,1.221-1.982,1.8c-1.221,1.106-2.443,2.189-3.687,3.226h0l-2.42,2.028h0l-1.821,1.429q-4.01,3.134-8.227,5.992c-1.659,1.106-3.2-1.567-1.567-2.673a146.736,146.736,0,0,0,13.827-10.624c.691-.576,1.383-1.175,2.051-1.8l.553-.484,1.429-1.337c2.3-2.12,4.609-4.333,6.683-6.637q1.59-1.659,3.111-3.388c1.037-1.152,2.051-2.3,3.042-3.5C208.148,148.919,210.291,147.859,212.319,146.73Z" transform="translate(227.89 191.343)" fill="#fff"/>
        <path id="Path_1081-2" data-name="Path 1081" d="M89.974,106.365a36.872,36.872,0,0,0-17.86-5.715c-15.348,0-21.086,16.408-21.985,25.1a2.1,2.1,0,0,0,1.636,2.3,50.813,50.813,0,0,0,10.048,1.083,29.337,29.337,0,0,0,29.129-20.372,2.1,2.1,0,0,0-.968-2.4ZM74.4,122.2a28.368,28.368,0,0,1-12.583,2.673H59.785a38.917,38.917,0,0,1-5.254-.576,37.4,37.4,0,0,1,2.627-8.458c2.189-4.77,5.853-9.61,12.053-10.785a14.448,14.448,0,0,1,2.9-.277,31.3,31.3,0,0,1,14.334,4.356A24.52,24.52,0,0,1,74.4,122.2Z" transform="translate(65.419 131.231)"/>
        <path id="Path_1082-2" data-name="Path 1082" d="M93.067,131.917a2.051,2.051,0,0,1-1.314.484,2.1,2.1,0,0,1-1.59-.76c-14.127-17.238-38.439-9.61-38.67-9.541a2.062,2.062,0,1,1-1.291-3.918c.277,0,27.216-8.6,43.164,10.831A2.074,2.074,0,0,1,93.067,131.917Z" transform="translate(63.686 151.631)"/>
        <path id="Path_1083-2" data-name="Path 1083" d="M64.427,136.088s47.243,10,53.3.945-2.881-11.338-2.881-11.338,18.021,8.342,25.511,4.309-4.079-8.757-4.079-8.757,19.312,9.564,21.663,3.134a15.855,15.855,0,0,0,.968-10.232s47.7-16.685,18.782-50.054-21.317,8.25-21.317,8.25-12.214-25-24.543-13.2-6.914,21.778-6.914,21.778S116.786,63.4,109.32,68.7s-5.877,16.685-5.877,16.685S20.134,99.216,21.287,137.333s11.523,47.842,24.958,70.288c0,0,22.769-1.959,30.719,9.218,0,0-24.151-43.786-12.583-80.82Z" transform="translate(27.798 66.64)"/>
        <path id="Path_1084-2" data-name="Path 1084" d="M180.364,63.929c-8.089-9.218-13.827-13.689-18.436-13.689a6.038,6.038,0,0,0-4.609,2.3c-2.3,2.742-2.788,7.835-2.65,12.4-3.526-4.609-8.688-9.771-14.611-9.771a11.914,11.914,0,0,0-8.5,3.733,26.11,26.11,0,0,0-8.365,14.357c-2.6-3.388-5.992-6.453-9.7-6.453a7.052,7.052,0,0,0-4.148,1.383c-6.453,4.609-6.914,12.859-6.914,16.662C89.658,87.158,19.3,102,20.407,138.572c.991,32.632,8.642,44.777,19.243,61.554,1.544,2.443,3.111,4.955,4.77,7.651.392.668.83,1.36,1.244,2.074a2.028,2.028,0,0,0,1.936,1.014h7.006c6.66.323,17.284,1.936,21.87,8.388a1.843,1.843,0,0,0,.714.622,1.777,1.777,0,0,0,.438.184,2.1,2.1,0,0,0,.53,0,1.91,1.91,0,0,0,.507,0h.323a1.267,1.267,0,0,0,.346-.184,1.083,1.083,0,0,0,.346-.3h0a1.474,1.474,0,0,0,.23-.3h0a1.429,1.429,0,0,0,.161-.438h0a1.59,1.59,0,0,0,0-.461,1.914,1.914,0,0,0,0-.507,4.148,4.148,0,0,0-.184-.484.484.484,0,0,0,0-.138C78.6,214.944,57.395,174.523,67,139.955a221.348,221.348,0,0,0,36.872,4.379c9.218,0,14.588-1.5,16.731-4.609a11.684,11.684,0,0,0,2.351-8,44.823,44.823,0,0,0,13.136,2.535,13.32,13.32,0,0,0,6.337-1.337,5.669,5.669,0,0,0,3.618-4.886,30.1,30.1,0,0,0,8.6,1.682c4.171,0,5.738-1.936,6.337-3.572a20.9,20.9,0,0,0,1.383-9.633,66.831,66.831,0,0,0,13.32-7.282c1.06-.737,2.12-1.567,3.157-2.443A30.7,30.7,0,0,0,189.4,91.537C191.749,82.872,188.707,73.539,180.364,63.929Zm5.047,26.617c-3.964,14.91-25.88,22.746-26.11,22.815a2.12,2.12,0,0,0-1.267,2.65,14.4,14.4,0,0,1-.945,8.78c-.253.714-1.475.853-2.466.853a42.772,42.772,0,0,1-14.772-4.4c-.968-.507-1.682-.784-1.705-.807a2.058,2.058,0,0,0-1.682,3.756s.576.3,1.5.714c3.249,1.682,3.941,2.95,3.941,3.2s-.254.53-1.452,1.175a9.218,9.218,0,0,1-4.379.853,53.6,53.6,0,0,1-17.215-4.4,12.007,12.007,0,0,0-2.3-1.014,2.074,2.074,0,0,0-1.383,3.895l1.936.83a3.618,3.618,0,0,1,1.8,2.3,7.444,7.444,0,0,1-1.682,5.231c-.6.876-3.042,2.881-13.32,2.881-15.533,0-37.633-4.609-37.863-4.609a2.051,2.051,0,0,0-2.3,1.406c-8.757,28.161,2.3,59.411,8.688,74.044a45.353,45.353,0,0,0-17.445-3.941h-6.2c-1.844-3.088-3.641-5.923-5.37-8.665-10.255-16.132-17.653-27.977-18.621-59.48-1.383-35.928,79.322-49.893,80.151-50.031a2.074,2.074,0,0,0,1.705-2.3s-1.36-10.186,4.978-14.7a3.065,3.065,0,0,1,1.774-.622c3.365,0,7.881,6.13,10.624,11.753l.184.392a2.074,2.074,0,0,0,2.742.853,2.051,2.051,0,0,0,.853-2.719v-.253c-.668-1.521-3.5-9.495,6.637-19.174a7.9,7.9,0,0,1,5.531-2.581c6.775,0,13.62,10.97,15.694,15.21a2.051,2.051,0,0,0,2.489,1.06,2.074,2.074,0,0,0,1.383-2.3c-.991-5.416-1.613-15.095.853-18.044a1.821,1.821,0,0,1,1.521-.853c1.774,0,6.107,1.59,15.325,12.237C184.628,75.152,187.393,83.195,185.411,90.546Z" transform="translate(26.65 65.47)"/>
        <path id="Path_1085-2" data-name="Path 1085" d="M70.055,129.786h0a2.837,2.837,0,0,1,0,.461h0a1.428,1.428,0,0,1-.161.438h0a1.474,1.474,0,0,1-.23.3h0a1.084,1.084,0,0,1-.346.3,1.268,1.268,0,0,1-.346.184h-.323a1.912,1.912,0,0,1-.507,0,2.1,2.1,0,0,1-.53,0,1.774,1.774,0,0,1-.438-.184h-.115a71.74,71.74,0,0,0-22.469-8.965h-.138a17.214,17.214,0,0,0-6.153,0,7.491,7.491,0,0,0-1.774.507,6.914,6.914,0,0,0-3.918,4.1,9.012,9.012,0,0,0-.553,1.682,1.5,1.5,0,0,1,0,.3,2.1,2.1,0,0,1-2.3,1.244,2.051,2.051,0,0,1-1.544-1.59,2.3,2.3,0,0,1,0-.9,9.078,9.078,0,0,1,.323-1.129,11.131,11.131,0,0,1,6.038-7.259l.53-.253a10.525,10.525,0,0,1,1.429-.507,13.047,13.047,0,0,1,2.143-.415,22.793,22.793,0,0,1,6.245,0h0a69.644,69.644,0,0,1,21.616,8h0c1.567.853,2.581,1.452,2.765,1.567a1.729,1.729,0,0,1,.645.645.485.485,0,0,1,0,.138,4.147,4.147,0,0,1,.184.484,1.913,1.913,0,0,1-.069.853Z" transform="translate(36.781 153.716)"/>
        <path id="Path_1086-2" data-name="Path 1086" d="M70.762,122.833a56.092,56.092,0,0,1-12.053,1.8,3.5,3.5,0,0,1-2.881-1.314,16.5,16.5,0,0,1-2.627-9.034,40.27,40.27,0,0,1,0-4.24s4.886-8.227,9.84-8.112a3.18,3.18,0,0,1,2.3,1.567c2.7,3.71,4.609,13.021,5.185,17.215C70.647,121.911,70.762,122.833,70.762,122.833Z" transform="translate(69.375 132.9)"/>
        <path id="Path_1087-2" data-name="Path 1087" d="M344.841,286.277c-.76,27.769-17.63,43.786-36.872,53.119-2.143,1.037-4.309,1.982-6.5,2.858a141.293,141.293,0,0,1-30.489,8.043h0a170,170,0,0,1-17.053,1.751h-3.5l-1.705-1.2-1.06-.738h6.453c2.558-.138,6.314-.392,10.854-.922a151.714,151.714,0,0,0,31.434-7.052q4.333-1.521,8.227-3.249c2.3-1.014,4.425-2.074,6.5-3.2,20.51-11.062,31.2-27.654,31.779-49.317.991-36.158-60.816-118.084-97.758-163.621C192.443,57.622,143.011,7.084,136.074,4.319a1.89,1.89,0,0,0-.853,1.014c-1.429,3.526,1.613,12.26,4.77,19.081,1.106,2.074,1.913,3.779,2.3,4.609a2.074,2.074,0,0,1-3.687,1.844c-.3-.53-1.175-2.3-2.3-4.609-4.425-8.227-10.854-16.777-14.979-15.463a1.06,1.06,0,0,0-.784.737c-1.129,3.388,3.756,12.951,8.688,20.741,1.244,1.774,2.3,3.319,2.973,4.425a2.074,2.074,0,0,1-3.318,2.189c-.553-.784-1.636-2.3-2.927-4.309-6.844-9.518-14.887-17.468-17.814-15.855a1.06,1.06,0,0,0-.576.853c-.484,2.742,2.927,8.688,7.029,14.357a62.223,62.223,0,0,1,6.476,8.089,2.074,2.074,0,0,1-3.249,2.535c-1.06-1.2-3.779-4.333-6.568-8.158-5.07-5.162-8.55-5.9-10-5.946-.576,2.512,1.314,10.278,20.487,34.245,14.887,18.644,36.388,42.449,57.175,65.472,32.056,35.6,65.31,72.339,77.04,93.08,14.634,25.88,17.837,45.676,9.218,57.2-8.965,12.03-29.751,14.565-61.853,7.559a118.1,118.1,0,0,1-3.272,28.807L198.2,315.5l-1.844-1.29-68.744-48.4h0l-.714-.507h0l-5.093-3.6c1.521.507,50.492,16.984,79.437,23.621h.253l1.821.392c67.937,15,77.455-14.611,50.884-61.6C227.4,176.72,87.679,45.2,99.8,28.24c0,0,4.909-1.8,13.09,6.66-4.978-6.8-10.347-15.855-5.83-18.3,5.877-3.157,16.984,11.523,21.478,17.929-4.609-6.914-14.749-23.714-7.766-25.949,6.568-2.1,14.288,10.6,17.768,17.192-3.342-6.8-9.4-21.455-2.742-23.76C144.578-.705,346.639,220.253,344.841,286.277Z" transform="translate(129.268 2.525)" fill="#fff"/>
        <path id="Path_1088-2" data-name="Path 1088" d="M348.024,287.444c-.691,25.7-15.21,45.215-42.058,56.737-2.1.922-4.24,1.775-6.5,2.558l-.807.3a139.551,139.551,0,0,1-18.021,4.932h0c-2.9.6-5.646,1.106-8.273,1.5H272l-3.388.484-1.8.23-3.111.346-1.452.138H257.8l-1.682.115h-.507c-2.3.115-3.849.115-4.171.115h0a2.051,2.051,0,0,1-2.028-1.982h0a2.165,2.165,0,0,1,.369-1.2,2.074,2.074,0,0,1,1.29-.807h4.148c2.558-.138,6.314-.392,10.854-.922a151.7,151.7,0,0,0,31.434-7.052q4.332-1.521,8.227-3.249c2.3-1.014,4.425-2.074,6.5-3.2,20.51-11.062,31.2-27.654,31.779-49.317.991-36.158-60.816-118.084-97.758-163.621C193.575,58.72,144.143,8.182,137.206,5.417a1.89,1.89,0,0,0-.853,1.014c-1.429,3.526,1.613,12.26,4.77,19.081,1.106,2.074,1.913,3.779,2.3,4.609a2.074,2.074,0,0,1-3.687,1.844c-.3-.53-1.175-2.3-2.3-4.609-4.425-8.227-10.854-16.777-14.979-15.463a1.06,1.06,0,0,0-.784.737c-1.129,3.388,3.756,12.951,8.688,20.741,1.244,1.774,2.3,3.319,2.973,4.425a2.074,2.074,0,0,1-3.319,2.189c-.553-.784-1.636-2.3-2.927-4.309-6.844-9.518-14.887-17.468-17.814-15.855a1.06,1.06,0,0,0-.576.853c-.484,2.742,2.927,8.688,7.029,14.357a62.225,62.225,0,0,1,6.476,8.089,2.074,2.074,0,0,1-3.249,2.535c-1.06-1.2-3.779-4.333-6.568-8.158-5.07-5.162-8.55-5.9-10-5.946-.576,2.512,1.314,10.278,20.487,34.245,14.887,18.644,36.388,42.449,57.175,65.472,32.056,35.6,65.31,72.339,77.04,93.08,14.634,25.88,17.837,45.676,9.218,57.2-8.965,12.03-29.751,14.565-61.853,7.559l-2.074-.461h-.254l-1.844-.415h0c-22.884-5.416-57.267-16.477-71.44-21.179h0l-5.231-1.728h0l-1.221-.392A2.074,2.074,0,0,1,121.1,262.3h0a2.074,2.074,0,0,1,2.6-1.267c.484.161,50.584,17.053,79.529,23.667l1.083.23c30.627,6.914,50.976,4.909,58.881-5.715,7.536-10.117,4.263-28.346-9.518-52.7-11.523-20.326-44.593-56.968-76.6-92.411-53.188-58.765-85.313-95.269-77.8-105.639a2.3,2.3,0,0,1,.945-.737,9.218,9.218,0,0,1,6.36.668,15.1,15.1,0,0,1-2.051-8.435,5.162,5.162,0,0,1,2.7-3.733c3.342-1.8,7.467.184,11.523,3.618a14.08,14.08,0,0,1-.922-8.412,5.139,5.139,0,0,1,3.457-3.388c3.8-1.221,7.651,1.06,11.039,4.609a14.7,14.7,0,0,1,.207-7.835,5.9,5.9,0,0,1,3.779-3.549c1.314-.415,2.858.207,5.623,2.3,14.058,10.578,65.679,65.1,114.627,126.518C298.8,183.026,348.946,253.361,348.024,287.444Z" transform="translate(128.135 1.427)"/>
        <path id="Path_1089-2" data-name="Path 1089" d="M212.3,138.139s2.535,37.817-17.468,61.784c0,0-79.69-14.611-104.326-29.291,0,0,55.078-25.488,42.8-47.1l-3.2-9.218s68.744,20.741,82.2,23.783Z" transform="translate(118.117 149.05)" fill="#015050"/>
        <path id="Path_1090-2" data-name="Path 1090" d="M215.5,142.7V139.17a2.3,2.3,0,0,0-.207-.784,2.074,2.074,0,0,0-1.406-1.106c-12.352-2.7-72.685-20.9-81.073-23.437l-.968-.3a2.1,2.1,0,0,0-1.36,0,2.305,2.305,0,0,0-.737.484,2.1,2.1,0,0,0-.484,2.051h0l3.2,9.218v.277h0a11.062,11.062,0,0,1,1.475,6.614,14.06,14.06,0,0,1-.622,2.95c-2.7,8.412-12.836,16.823-22.584,23.253-.576.392-1.175.76-1.774,1.129-.968.622-1.913,1.221-2.858,1.775h0l-2.143,1.291-.991.576-.968.553-3.872,2.166c-.83.415-1.613.853-2.3,1.244l-1.429.737h0l-1.244.622-1.544.76-.323.161h0l-.484.254a2.534,2.534,0,0,0-.484.323,2.444,2.444,0,0,0-.392.461,2.5,2.5,0,0,0-.184.438.553.553,0,0,0,0,.184.253.253,0,0,0,0,.184.161.161,0,0,0,0,.115v.161a1.911,1.911,0,0,0,0,.507l.138.369a1.428,1.428,0,0,0,.254.392,1.659,1.659,0,0,0,.553.507c.438.276.922.53,1.406.807,23.9,13.228,88.448,25.88,101.4,28.323h.138l2.051.392h.369a2.074,2.074,0,0,0,1.567-.737l.691-.853c.484-.6.968-1.221,1.406-1.844a78.538,78.538,0,0,0,12.7-28.207A118.11,118.11,0,0,0,215.5,142.7Zm-20.464,56.138c-9.564-1.821-73.63-14.242-99.095-26.963l.53-.254a180.143,180.143,0,0,0,16.523-9.633l1.014-.668c9.979-6.752,20.28-15.6,23.23-24.8a17.633,17.633,0,0,0,.807-3.941,15.117,15.117,0,0,0-1.913-8.734l-.254-.714-1.521-4.332v-.138h0l4.609,1.383h0c18.114,5.439,59.388,17.791,72.27,20.879v.807h0a117.533,117.533,0,0,1-2.788,27.124,74.459,74.459,0,0,1-13.481,29.959Z" transform="translate(117.09 147.904)" fill="#015050"/>
        <path id="Path_1091-2" data-name="Path 1091" d="M210.431,174.646h0v-.277l-3.2-9.218c-9.541-24.612-30.627-64.988-41.9-85.59L163.4,76.035V75.92a66.832,66.832,0,0,1-13.574,7.1,20.9,20.9,0,0,1-1.406,9.587c-.6,1.636-2.166,3.572-6.337,3.572a30.1,30.1,0,0,1-8.573-1.636,5.669,5.669,0,0,1-3.618,4.84,13.32,13.32,0,0,1-6.337,1.337,44.824,44.824,0,0,1-13.136-2.535,11.684,11.684,0,0,1-2.42,7.559c-2.143,3.2-7.467,4.609-16.731,4.609a221.349,221.349,0,0,1-36.872-4.379c-9.61,34.568,11.523,74.874,12.882,77.294a.483.483,0,0,1,0,.138,4.152,4.152,0,0,1,.184.484,1.913,1.913,0,0,1,0,.507,1.59,1.59,0,0,1,0,.461h0a1.429,1.429,0,0,1-.161.438h0a1.476,1.476,0,0,1-.23.3h0a1.083,1.083,0,0,1-.346.3,1.268,1.268,0,0,1-.346.184h-.323a1.914,1.914,0,0,1-.507,0,2.1,2.1,0,0,1-.53,0,1.774,1.774,0,0,1-.438-.184h-.115a71.741,71.741,0,0,0-22.469-8.965H35.7a7.491,7.491,0,0,0-1.774.507,6.914,6.914,0,0,0-3.918,4.1C72.828,185.846,135.511,206.379,169,218.2h0l.323-.161,1.544-.76,1.244-.622h0l1.429-.737c.737-.392,1.521-.83,2.3-1.244l1.913-1.06,1.959-1.106,1.014-.6,3.088-1.821h0l2.858-1.774c.6-.369,1.2-.737,1.774-1.129,9.748-6.43,19.888-14.841,22.584-23.253a14.06,14.06,0,0,0,.622-2.95,43.406,43.406,0,0,0-1.221-6.337ZM98.339,132.911a36.872,36.872,0,0,1,17.86,5.715,2.1,2.1,0,0,1,.968,2.3,29.337,29.337,0,0,1-29.129,20.441,50.814,50.814,0,0,1-10.048-1.083,2.1,2.1,0,0,1-1.636-2.3C77.253,149.319,82.991,132.911,98.339,132.911Zm19.22,51.667a2.051,2.051,0,0,1-1.314.484,2.1,2.1,0,0,1-1.59-.76c-14.127-17.238-38.439-9.61-38.67-9.541a2.062,2.062,0,1,1-1.291-3.918c.277,0,27.216-8.6,43.164,10.831A2.074,2.074,0,0,1,117.559,184.578ZM168.7,197l-.507.3a21.155,21.155,0,0,1-8.412,1.682c-10.578,0-19.98-7.1-20.487-7.49a2.051,2.051,0,0,1-.369-2.881,2.074,2.074,0,0,1,2.9-.392c.207.161,13.528,10.163,24.728,5.277a2.005,2.005,0,0,1,2.028.254,1.89,1.89,0,0,1,.691.83,2.1,2.1,0,0,1-.553,2.42Zm-.737-30.6-.184.184c-3.111,3.065-9.564,3.572-13.5,3.572h-3.111a2.074,2.074,0,1,1,.323-4.125c4.056.323,11.269,0,13.458-2.3,1.521-1.613,1.083-2.489-9.979-13.5q-3.111-3.088-7.19-7.213c-17.445-17.883-16.708-30.028-16.662-30.466a2.074,2.074,0,0,1,4.125.3c0,.207-.415,10.97,15.509,27.1,2.719,2.765,5.093,5.139,7.167,7.213a119.625,119.625,0,0,1,9.587,10.163c3.065,3.872,3.18,6.222.484,9.08Zm16.731-48.1a27.816,27.816,0,0,1-17.929,15.095,38.209,38.209,0,0,1-10.9,1.5,46.658,46.658,0,0,1-5.847-.368,2.051,2.051,0,0,1-1.827-1.844c-.691-7.19,1.244-21.5,13.643-24.151a26.3,26.3,0,0,1,4.148-.553h1.314a21.109,21.109,0,0,1,17.192,8.458,2.028,2.028,0,0,1,.23,1.867Z" transform="translate(39.194 98.97)" fill="#fff"/>
        <path id="Path_1092-2" data-name="Path 1092" d="M57.284,116.274a38.921,38.921,0,0,1-5.254-.576,37.4,37.4,0,0,1,2.627-8.458,16.5,16.5,0,0,0,2.627,9.034Z" transform="translate(67.919 139.827)" fill="#fff"/>
        <path id="Path_1093-2" data-name="Path 1093" d="M75.638,106.8a24.52,24.52,0,0,1-12.053,13.136c-.691-4.194-2.489-13.5-5.185-17.215a14.449,14.449,0,0,1,2.9-.277A31.3,31.3,0,0,1,75.638,106.8Z" transform="translate(76.229 133.566)" fill="#fff"/>
        <path id="Path_1094-2" data-name="Path 1094" d="M90.154,120.294l-.184.184-.3-9.218C92.735,115.086,92.85,117.436,90.154,120.294Z" transform="translate(117.022 145.072)" fill="#fff"/>
        <path id="Path_1095-2" data-name="Path 1095" d="M90.2,130.3V127.05a1.89,1.89,0,0,1,.691.83A2.1,2.1,0,0,1,90.2,130.3Z" transform="translate(117.713 165.67)" fill="#fff"/>
        <path id="Path_1096-2" data-name="Path 1096" d="M89.83,115.25v-4.356l-.253-8.273h0l-.254-8.665L89,89.831h1.314a21.109,21.109,0,0,1,17.192,8.458,2.028,2.028,0,0,1,.207,1.913A27.815,27.815,0,0,1,89.83,115.25Z" transform="translate(116.148 117.115)" fill="#fff"/>
        <path id="Path_1097-2" data-name="Path 1097" d="M137.522,184.337c-1.014,8.273-12.145,17.491-23.045,24.635-.76.53-1.544,1.014-2.3,1.521-6.914,4.4-13.551,7.881-16.892,9.564l-.807.438-.415.207a3.065,3.065,0,0,0-.553.277l-.507.23v-2.281l1.544-.76,1.244-.622h0l1.429-.738c.737-.392,1.521-.83,2.3-1.244,2.489-1.36,5.185-2.9,7.974-4.609h0l2.858-1.774c.6-.369,1.2-.737,1.774-1.129,9.748-6.43,19.888-14.841,22.584-23.253a14.056,14.056,0,0,0,.622-2.95,43.389,43.389,0,0,0-1.475-6.614h0v-.277l-3.2-9.218c-9.541-24.612-30.627-64.988-41.9-85.59L88.62,75.54s30.3,54.848,43.256,87.572c.277.645.53,1.291.761,1.913a.323.323,0,0,1,0,.138h0c1.291,3.3,2.3,6.314,3.134,8.988h0a41.022,41.022,0,0,1,1.682,7.743h0A10.094,10.094,0,0,1,137.522,184.337Z" transform="translate(115.652 98.474)" fill="#fff"/>
        <path id="Path_1098-2" data-name="Path 1098" d="M140.822,185.643c-1.106,9.011-12.744,18.736-24.036,26.156l-1.014.668c-6.453,4.171-12.652,7.582-16.57,9.61l-2.535,1.314h0a.6.6,0,0,0-.207,0h0l-1.314.622a1.936,1.936,0,0,1-.876.184,2.143,2.143,0,0,1-1.06-.276,1.659,1.659,0,0,1-.553-.507,1.43,1.43,0,0,1-.253-.392l-.138-.369a1.913,1.913,0,0,1,0-.507h0a.161.161,0,0,1,0-.115.253.253,0,0,1,0-.184.553.553,0,0,1,0-.184,2.49,2.49,0,0,1,.184-.438,2.442,2.442,0,0,1,.392-.461,2.534,2.534,0,0,1,.484-.323l.484-.254h0l.323-.161,1.544-.761,1.244-.622h0l1.429-.737c.737-.392,1.521-.83,2.3-1.244,2.489-1.36,5.185-2.9,7.974-4.609h0l2.858-1.774c.6-.369,1.2-.737,1.774-1.129,11.246-7.282,22.308-16.362,23.23-23.875a11.31,11.31,0,0,0,0-2.3,43.4,43.4,0,0,0-1.475-6.614h0c-.83-2.742-1.936-5.946-3.319-9.449-9.541-24.612-30.627-64.988-41.9-85.59l-1.936-3.526v-.115a2.074,2.074,0,0,1,.853-2.7,2.028,2.028,0,0,1,2.3.254,1.474,1.474,0,0,1,.507.553c4.01,7.259,31.756,57.844,43.786,88.839l.277.76c.23.553.438,1.106.622,1.636s.622,1.659.9,2.443v.161c.53,1.5,1.014,2.927,1.429,4.286a45.769,45.769,0,0,1,2.166,9.449A12.006,12.006,0,0,1,140.822,185.643Z" transform="translate(114.403 97.421)"/>
        <path id="Path_1099-2" data-name="Path 1099" d="M229.207,168.215S63.627,104.726,30.073,127.31-5.3,174.046,10.784,202.737s145.185,19.7,179.453,18.667,248.889,3.895,247.045-11.269c0,0,4.909-5.231-24.29-5.6,0,0,31.895,5.37,31.733.3s-43.509-12.629-77.663-9.08S229.207,168.215,229.207,168.215Z" transform="translate(1.29 159.672)" fill="#fff"/>
        <path id="Path_1100-2" data-name="Path 1100" d="M416.753,197.84l-4.471-.507-2.3-.23-2.3-.207-4.033-.3-2.3-.161h-1.314l-3.388.484-1.8.23-3.111.346-1.452.138h-1.06l-2.1.161h-1.291l-1.682.115h3.111a242.864,242.864,0,0,1,29.567,1.844c.691-.576,1.383-1.175,2.051-1.8Zm0,0-4.471-.507-2.3-.23-2.3-.207-4.033-.3-2.3-.161h-1.314l-3.388.484-1.8.23-3.111.346-1.452.138h-4.448l-1.682.115h3.111a242.84,242.84,0,0,1,29.567,1.844c.691-.576,1.383-1.175,2.051-1.8Zm0,0-4.471-.507-2.3-.23-2.3-.207-4.033-.3-2.3-.161h-1.314l-3.388.484-1.8.23-3.111.346-1.452.138h-4.448l-1.682.115h3.111a242.84,242.84,0,0,1,29.567,1.844c.691-.576,1.383-1.175,2.051-1.8Zm11.177-.415-3.157-.553L420.9,196.3c-3.918-.553-8-1.037-12.145-1.406h0c-2.835-.23-5.669-.438-8.527-.576h0c-4.356-.253-8.665-.369-12.882-.369H376.815c-3,.161-5.9.369-8.665.668a57.31,57.31,0,0,1-5.946.277c-11.523,0-28.092-2.535-45.514-6.061l-2.3-.438-2.3-.484c-38.163-8-79-20.142-81.05-20.741-1.267-.484-7.651-2.927-17.445-6.43h0l-2.65-.945h0l-2.3-.83-.323-.138h0c-33.6-11.592-96.283-32.125-139.147-36.434-1.429-.161-2.858-.277-4.24-.392-3.664-.277-7.19-.438-10.486-.438-11.177,0-19.151,1.705-24.359,5.208C-1.956,148.292-8.11,172.4,10.142,204.915c8.25,14.726,43.21,21.87,106.907,21.87,23.045,0,44.662-.922,60.517-1.59,5.485-.23,10.255-.438,13.827-.553s9.495-.161,18.6-.161h63.628c109.626,0,159.2-3.134,165.764-10.509a4.218,4.218,0,0,0,1.06-2.3,3.227,3.227,0,0,0,.3-1.728,9.218,9.218,0,0,0,6.222-1.89,3.3,3.3,0,0,0,.945-2.3c.046-1.267-.069-4.816-19.98-8.319Zm8.481,13.965c-.853,1.267-7.49,5.208-55.839,7.4-34.245,1.544-77.386,1.728-106.861,1.728H210.083c-9.218,0-15.072,0-18.713.161s-8.412.323-13.827.553c-15.809.668-37.449,1.59-60.332,1.59-76.234,0-98.265-10.739-103.312-19.75C-3.27,172.444,2.376,150.689,32.542,130.34c4.448-2.973,11.868-4.609,22.054-4.609,41.481,0,117.807,25.1,154.4,38.071,12.537,4.425,20.418,7.444,20.741,7.559h.161c2.489.761,42.5,12.7,80.543,20.741h.138c19.5,4.125,38.463,7.19,51.6,7.19a42.208,42.208,0,0,0,6.361-.3c3.48-.369,7.144-.622,10.97-.76h0c1.36,0,2.765-.115,4.171-.115H387.3a242.857,242.857,0,0,1,29.567,1.844c1.383.184,2.719.346,4.033.553,11.039,1.59,19.174,3.687,22.077,5.3a23.045,23.045,0,0,1-4.609.346h-1.705c-3.664-1.36-10.163-2.143-19.4-2.3h-2.95a2.074,2.074,0,0,0-.369,4.1,201.113,201.113,0,0,0,21.893,2.466,4.61,4.61,0,0,1,.784.415,2.3,2.3,0,0,0-.207.553ZM416.753,197.84l-4.471-.507-2.3-.23-2.3-.207-4.033-.3-2.3-.161h-1.314l-3.388.484-1.8.23-3.111.346-1.452.138h-4.448l-1.682.115h3.111a242.84,242.84,0,0,1,29.567,1.844c.691-.576,1.383-1.175,2.051-1.8Zm0,0-4.471-.507-2.3-.23-2.3-.207-4.033-.3-2.3-.161h-1.314l-3.388.484-1.8.23-3.111.346-1.452.138h-1.06l-2.1.161h-1.291l-1.682.115h3.111a242.864,242.864,0,0,1,29.567,1.844c.691-.576,1.383-1.175,2.051-1.8Z" transform="translate(0.019 158.508)"/>
        <path id="Path_1101-2" data-name="Path 1101" d="M341.585,285c-.576,21.709-11.269,38.255-31.779,49.317a58.706,58.706,0,0,1-6.5,3.2c-2.281.9-5.346,2.3-8.227,3.249a151.712,151.712,0,0,1-31.411,7.052c-4.609.53-8.3.784-10.854.922h-6.453c-3,.161-5.9.369-8.665.668a57.294,57.294,0,0,1-5.946.276c-11.523,0-28.092-2.535-45.514-6.061a78.537,78.537,0,0,0,12.7-28.207,118.106,118.106,0,0,0,3.272-28.807c32.1,6.914,52.889,4.471,61.853-7.559,8.619-11.523,5.416-31.319-9.218-57.2-11.73-20.741-44.984-57.613-77.132-93.149-20.741-23.045-42.288-46.828-57.175-65.472-19.174-23.967-21.063-31.733-20.487-34.245,1.452,0,4.932.784,10,5.946,2.788,3.826,5.508,6.914,6.568,8.158a2.074,2.074,0,0,0,3.249-2.535,62.222,62.222,0,0,0-6.476-8.089c-4.1-5.669-7.513-11.523-7.029-14.357a1.06,1.06,0,0,1,.576-.853c3.019-1.613,11.062,6.384,17.86,15.924,1.291,1.982,2.3,3.526,2.927,4.309a2.074,2.074,0,0,0,3.434-2.3c-.714-1.106-1.728-2.65-2.973-4.425-4.932-7.674-9.817-17.238-8.688-20.625a1.06,1.06,0,0,1,.784-.737c4.125-1.314,10.555,7.236,14.979,15.463,1.083,2.3,1.959,3.987,2.3,4.609a2.074,2.074,0,0,0,3.687-1.844c-.415-.922-1.221-2.627-2.3-4.609-3.157-6.914-6.2-15.556-4.77-19.081a1.89,1.89,0,0,1,.853-1.014c6.914,2.881,56.369,53.419,108.935,118.314C280.769,166.92,342.576,248.846,341.585,285Z" transform="translate(130.449 3.752)" fill="#fff"/>
        <path id="Path_1102-2" data-name="Path 1102" d="M110.761,146.666l-.184.184c-3.111,3.065-9.564,3.572-13.5,3.572H93.961a2.074,2.074,0,1,1,.323-4.125c4.056.323,11.269,0,13.458-2.3,1.521-1.613,1.083-2.489-9.979-13.5q-3.111-3.088-7.19-7.213C73.105,105.392,73.843,93.248,73.889,92.81a2.074,2.074,0,0,1,4.125.3c0,.207-.415,10.97,15.509,27.1,2.719,2.765,5.093,5.139,7.167,7.213a119.629,119.629,0,0,1,9.587,10.163C113.342,141.458,113.458,143.809,110.761,146.666Z" transform="translate(96.414 118.699)"/>
        <path id="Path_1103-2" data-name="Path 1103" d="M107.3,133.67l-.507.3a21.155,21.155,0,0,1-8.411,1.682c-10.578,0-19.98-7.1-20.487-7.49a2.051,2.051,0,0,1-.369-2.881,2.074,2.074,0,0,1,2.9-.392c.207.161,13.528,10.163,24.728,5.277a2,2,0,0,1,2.028.254,1.89,1.89,0,0,1,.691.83,2.1,2.1,0,0,1-.576,2.42Z" transform="translate(100.615 162.3)"/>
        <path id="Path_1104-2" data-name="Path 1104" d="M83.742,96.794s1.406,16.961,4.609,16.339,9.218-1.8,9.218-1.8-1.544-20.51-5.347-20.4-8.573,5.853-8.573,5.853Z" transform="translate(109.168 118.563)"/>
        <path id="Path_1105-2" data-name="Path 1105" d="M117.666,98.269a21.109,21.109,0,0,0-17.192-8.458H99.16a26.293,26.293,0,0,0-4.148.553c-12.4,2.65-14.334,16.961-13.643,24.151a2.051,2.051,0,0,0,1.821,1.844,46.681,46.681,0,0,0,5.854.369,38.209,38.209,0,0,0,10.9-1.5,27.816,27.816,0,0,0,17.929-15.095,2.028,2.028,0,0,0-.207-1.867Zm-17.054,12.4-.807.323A32.263,32.263,0,0,1,89.573,112.7h-.53a28.741,28.741,0,0,1-3.641-.161,26.456,26.456,0,0,1,1.867-10.762h0a11.822,11.822,0,0,1,8.619-7.4c.461,0,.945-.184,1.406-.23s1.36-.207,2-.254h1.175a17.215,17.215,0,0,1,13.067,5.761A24.52,24.52,0,0,1,100.612,110.667Z" transform="translate(106.033 117.088)"/>
        <path id="Path_1106-2" data-name="Path 1106" d="M85.93,60.59c3.5,2.927,4.286,8.388,3.987,12.7a21.155,21.155,0,0,1-4.955,12.306c-1.291,1.5.9,3.71,2.3,2.3a24.751,24.751,0,0,0,5.877-14.5c.323-5.07-.807-11.523-4.909-14.887-1.521-1.267-3.71.922-2.3,2.3Z" transform="translate(110.368 75.769)" fill="#fff"/>
        <path id="Path_1107-2" data-name="Path 1107" d="M84.789,63.048a36.434,36.434,0,0,1,.484,10.37,17.883,17.883,0,0,1-4.609,8.988,1.613,1.613,0,0,0,0,2.3,1.567,1.567,0,0,0,2.189,0,21.178,21.178,0,0,0,5.393-10.347,40.56,40.56,0,0,0-.507-12.03,1.544,1.544,0,0,0-1.89-1.083,1.567,1.567,0,0,0-1.083,1.913Z" transform="translate(104.642 79.763)" fill="#fff"/>
        <path id="Path_1108-2" data-name="Path 1108" d="M79.839,65.936a3.624,3.624,0,0,1,0,.53h0v2.166h0a8.944,8.944,0,0,1-.254,1.129A3.436,3.436,0,0,1,79.24,70.8c-.115.346,0-.207,0,0v.23a3.2,3.2,0,0,1-.253.484,7.948,7.948,0,0,1-.576.945l-.161.207c-.138.184.161-.161,0,0l-.415.461a1.613,1.613,0,0,0,0,2.3,1.59,1.59,0,0,0,2.3,0A11.523,11.523,0,0,0,82.95,65.176a1.567,1.567,0,0,0-2.028-1.129,1.59,1.59,0,0,0-1.083,1.913Z" transform="translate(100.95 83.373)" fill="#fff"/>
        <path id="Path_1109-2" data-name="Path 1109" d="M35.019,83.183a128.662,128.662,0,0,0-.392,36.435,1.567,1.567,0,0,0,1.544,1.544,1.544,1.544,0,0,0,1.544-1.544,126.219,126.219,0,0,1,.3-35.6C38.314,82.054,35.342,81.224,35.019,83.183Z" transform="translate(43.772 106.986)" fill="#fff"/>
        <path id="Path_1110-2" data-name="Path 1110" d="M29.235,90.775a57.982,57.982,0,0,0,5.37,36.872c.9,1.774,3.572.207,2.673-1.567a54.387,54.387,0,0,1-5.047-34.568c.369-1.959-2.627-2.788-3-.83Z" transform="translate(36.926 116.77)" fill="#fff"/>
        <path id="Path_1111-2" data-name="Path 1111" d="M101.954.629A49.57,49.57,0,0,0,93.612,39,46.967,46.967,0,0,0,97.161,49.83c.83,1.821,3.5.23,2.673-1.567a46.275,46.275,0,0,1,4.793-46C105.8.652,103.107-.892,101.954.7Z" transform="translate(120.961 -0.03)"/>
        <path id="Path_1112-2" data-name="Path 1112" d="M94.564,1.38a80.935,80.935,0,0,0-3.872,48.4A79.873,79.873,0,0,0,95,62.934a1.567,1.567,0,0,0,2.12.576,1.59,1.59,0,0,0,.553-2.12,77.547,77.547,0,0,1-4.148-46.413A78.354,78.354,0,0,1,97.56,2.14c.76-1.844-2.3-2.65-3-.83Z" transform="translate(115.699 0.302)"/>
      </g>
    </g>
  </g>
</svg>
