<svg xmlns="http://www.w3.org/2000/svg" width="242.001" height="114.087" viewBox="0 0 242.001 114.087">
  <path id="infinity" d="M248,128a56,56,0,0,1-95.6,39.6q-.171-.171-.332-.353L92.12,99.552a40,40,0,1,0,0,56.9l8.519-9.619a8,8,0,1,1,11.978,10.608l-8.687,9.808q-.16.181-.332.353a56,56,0,1,1,0-79.2q.171.171.332.353l59.951,67.693a40,40,0,1,0,0-56.9l-8.519,9.619a8,8,0,1,1-11.977-10.609l8.687-9.808q.16-.181.332-.353A56,56,0,0,1,248,128Z" transform="translate(-6.999 -70.957)" stroke="#000" stroke-width="2"/>
</svg>
