<?xml version="1.0" encoding="utf-8"?>
<!-- Generator: Adobe Illustrator 17.0.0, SVG Export Plug-In . SVG Version: 6.00 Build 0)  -->
<!DOCTYPE svg PUBLIC "-//W3C//DTD SVG 1.1//EN" "http://www.w3.org/Graphics/SVG/1.1/DTD/svg11.dtd">
<svg version="1.1" id="Layer_1" xmlns="http://www.w3.org/2000/svg" xmlns:xlink="http://www.w3.org/1999/xlink" x="0px" y="0px"
	 width="470px" height="357px" viewBox="0 0 470 357" enable-background="new 0 0 470 357" xml:space="preserve">
<path fill="#F6F7F8" d="M155.333,260.736c0,0-43.333-28.714-43.333-85.892s18.667-87.177,67.333-105.177s108.333-14,136.667,6.674
	C335.6,90.642,359.333,111,358.667,139c0,0,14,79.736-30,106.868L155.333,260.736z"/>
<path fill="#FFCC00" d="M304,165.833c0,0,2.26,16.592,5.13,20.296c0,0,3.182,9.99,10.026,8.847c0,0,8.381-5.643,9.862-11.476
	l11.918,3.333l-0.315,41.486L260,216.667l-43.893-6.483c0,0,33.395-24.996,39.477-29.173
	C261.667,176.833,286.833,164.167,304,165.833z"/>
<path fill="#FFCC00" d="M363.504,170.206l19.09-0.181c0,0,3.953,7.397,1.578,23.022c0,0-0.678,17.545-14.601,24.198
	c0,0-8.372,5.762-28.434,1.639s-0.138-0.26-0.138-0.26V193c0,0,6.75,3.67,15,0.835c0,0,7.75-4.21,7.625-23.335"/>
<path fill="#FFFFFF" d="M343.333,145.565c0,0,0.769,3.416-9.532,2.9L323,146.5v3.5l-3.167,7.042c0,0-5.916-8.473-9.875-9.007
	c0,0-5.795,3.466-1.44,7.091l1.603,1.321c0,0-1.81,6.429-5.497,8.867c0,0,2.5,29.705,14.063,29.134c0,0,5.225-0.759,10.331-10.946
	c0,0,10.311,4.875,15.584,2.25c0,0,6.549-4.124,7.317-18.906l0.305-18.407L343.333,145.565z"/>
<path fill="#FFFFFF" d="M359.39,137.816l-7.842,1.364l-4.215,1.57l-0.605,2.589l6.772,2.744l5.906,5.694l5.852,3.585l-0.092,14.471
	l14.333-0.512l-1.083-15.161C378.417,154.16,377.614,141.882,359.39,137.816z"/>
<g>
	<path d="M379.704,170.019c-0.102,0-0.205-0.026-0.301-0.08c-0.292-0.166-0.345-0.196-0.531-2.295
		c-0.207-2.336-0.475-6.586-0.775-12.292c-0.7-13.302-18.637-16.759-18.818-16.792c-0.332-0.061-0.551-0.379-0.49-0.711
		c0.061-0.332,0.38-0.551,0.711-0.49c0.194,0.036,4.797,0.904,9.567,3.519c6.394,3.506,9.938,8.489,10.25,14.41
		c0.629,11.949,0.911,13.683,0.959,13.904c0.062,0.164,0.053,0.353-0.04,0.517C380.124,169.907,379.917,170.019,379.704,170.019z"/>
	<path d="M344.69,166.844c-0.284,0-0.538-0.198-0.597-0.487c-0.069-0.33,0.144-0.653,0.474-0.722
		c0.524-0.109,1.065-0.221,1.493-0.47c0.309-0.179,0.65-0.512,0.681-0.908c0.019-0.247-0.078-0.537-0.198-0.863
		c-0.181-0.493-0.37-0.988-0.56-1.484c-1.158-3.033-2.357-6.169-2.023-9.463c0.034-0.335,0.333-0.579,0.669-0.546
		c0.336,0.034,0.58,0.334,0.546,0.669c-0.304,3.005,0.841,6.004,1.949,8.904c0.191,0.501,0.382,1,0.565,1.498
		c0.132,0.357,0.312,0.846,0.27,1.38c-0.058,0.736-0.538,1.435-1.285,1.868c-0.599,0.348-1.268,0.487-1.859,0.609
		C344.773,166.84,344.731,166.844,344.69,166.844z"/>
	<path d="M339.544,174.807c-0.111,0-0.224-0.03-0.325-0.094c-0.285-0.18-0.371-0.557-0.191-0.842
		c1.053-1.671,3.142-2.573,5.081-2.191c0.331,0.065,0.547,0.386,0.482,0.717c-0.065,0.331-0.385,0.547-0.717,0.482
		c-1.43-0.281-3.035,0.41-3.813,1.644C339.945,174.706,339.747,174.807,339.544,174.807z"/>
	<path d="M341.116,187.38c-0.813,0-1.662-0.118-2.546-0.355c-13.724-3.676-17.285-7.851-17.43-8.027
		c-0.214-0.26-0.177-0.645,0.083-0.86c0.259-0.214,0.642-0.178,0.858,0.081c0.041,0.048,3.564,4.079,16.805,7.625
		c2.423,0.649,4.445,0.304,6.183-1.055c6.478-5.064,6.245-22.256,6.241-22.429l0.002-14.287c0-0.337,0.273-0.611,0.611-0.611l0,0
		c0.337,0,0.611,0.273,0.611,0.611l-0.002,14.276c0.013,0.72,0.242,17.967-6.71,23.402
		C344.436,186.836,342.86,187.38,341.116,187.38z"/>
	<path d="M315.379,156.483c-0.224,0-0.44-0.124-0.547-0.338c-1.525-3.05-4.074-3.086-4.099-3.086c-0.337,0-0.611-0.273-0.611-0.611
		s0.273-0.611,0.611-0.611c0.135,0,3.333,0.043,5.192,3.761c0.151,0.302,0.029,0.669-0.273,0.819
		C315.564,156.462,315.471,156.483,315.379,156.483z"/>
	<path d="M319.412,157.582c0,0,5.624-0.489,3.912-10.514c0,0,14.182,3.912,17.605,0.734c0,0,4.146-3.11,6.33-6.084
		c0.188-0.256,0.362-0.511,0.517-0.763c1.956-3.179,17.116-0.489,15.405-8.803c-1.712-8.314-21.518-6.602-21.518-6.602
		s6.113-6.602-2.934-5.869c-9.047,0.734-19.562,8.558-22.007,11.004c0,0-1.467-3.912-3.179,0.733
		c-1.712,4.646-0.978,7.091-0.978,7.091s-3.668,1.467-3.423,5.624l0.245,4.646C309.386,148.78,316.522,149.421,319.412,157.582"/>
	<path d="M319.411,158.193c-0.257,0-0.488-0.161-0.576-0.407c-2.727-7.703-9.437-8.392-9.504-8.398
		c-0.303-0.027-0.539-0.273-0.555-0.576l-0.245-4.646c-0.212-3.605,2.287-5.398,3.346-5.992c-0.142-0.98-0.242-3.343,1.092-6.966
		c0.423-1.148,1.124-2.673,2.321-2.673c0.741,0,1.278,0.601,1.612,1.142c3.379-3.029,13.183-9.907,21.776-10.604
		c0.482-0.039,0.938-0.059,1.355-0.059c2.21,0,3.578,0.568,4.068,1.69c0.588,1.345-0.321,3.048-1.102,4.153
		c0.713-0.033,1.665-0.063,2.777-0.063c6.166,0,16.705,0.94,18.001,7.235c0.324,1.576,0.107,2.924-0.647,4.004
		c-1.69,2.423-5.712,3.029-9.26,3.563c-2.462,0.371-5.007,0.754-5.576,1.679c-0.158,0.257-0.341,0.527-0.544,0.804
		c-2.148,2.925-6.049,5.904-6.431,6.193c-1.024,0.932-2.808,1.386-5.45,1.386c-4.324,0-9.689-1.232-11.803-1.764
		c0.498,3.695,0.031,6.498-1.39,8.339c-1.374,1.78-3.139,1.952-3.213,1.959C319.447,158.192,319.429,158.193,319.411,158.193z
		 M309.97,148.248c1.731,0.316,7.191,1.833,9.829,8.622c0.478-0.153,1.259-0.526,1.934-1.414c1.284-1.69,1.626-4.555,0.989-8.286
		c-0.035-0.206,0.038-0.415,0.192-0.556c0.155-0.14,0.371-0.192,0.572-0.136c0.071,0.02,7.156,1.957,12.384,1.957
		c2.275,0,3.881-0.374,4.643-1.082c0.016-0.014,0.032-0.028,0.049-0.041c0.041-0.031,4.1-3.092,6.204-5.957
		c0.183-0.25,0.348-0.493,0.489-0.722c0.867-1.408,3.447-1.797,6.434-2.247c3.304-0.498,7.05-1.062,8.44-3.054
		c0.562-0.806,0.71-1.806,0.452-3.059c-1.164-5.65-12.14-6.26-16.805-6.26c-2.371,0-4.045,0.142-4.062,0.143
		c-0.252,0.022-0.49-0.113-0.601-0.34c-0.111-0.226-0.071-0.498,0.1-0.683c0.615-0.666,2.26-2.821,1.769-3.944
		c-0.338-0.771-1.821-1.096-4.205-0.902c-8.937,0.725-19.447,8.649-21.624,10.827c-0.147,0.147-0.359,0.209-0.561,0.165
		c-0.203-0.044-0.369-0.188-0.443-0.382c-0.219-0.577-0.644-1.144-0.859-1.144c-0.005,0-0.492,0.021-1.175,1.874
		c-1.622,4.404-0.973,6.682-0.966,6.705c0.091,0.303-0.065,0.625-0.358,0.742c-0.131,0.054-3.256,1.371-3.041,5.021L309.97,148.248z
		"/>
	<path d="M355.52,220.92c-3.753,0-7.522-0.508-11.37-1.026c-0.995-0.134-2-0.269-3.017-0.398c-0.335-0.042-0.572-0.348-0.529-0.683
		c0.042-0.335,0.352-0.57,0.683-0.529c1.02,0.129,2.028,0.265,3.027,0.399c10.728,1.445,19.994,2.693,30.219-5.968
		c4.749-4.022,7.685-9.695,8.728-16.862c0.944-6.482,1.355-12.479,0.29-20.676l-0.025-0.197c-0.437-3.494-0.751-4.358-0.867-4.568
		c-0.344-0.163-0.814-0.162-1.231-0.16l-17.649,0.061c0.22,3.118,0.744,16.021-5.043,22.212c-2.136,2.285-4.898,3.393-8.208,3.292
		c-0.196-0.01-4.55-0.264-9.86-2.892c-0.302-0.15-0.426-0.516-0.276-0.818c0.149-0.302,0.515-0.426,0.818-0.276
		c5.071,2.51,9.327,2.764,9.37,2.767c2.931,0.085,5.378-0.889,7.264-2.905c6.094-6.517,4.682-21.775,4.667-21.928
		c-0.017-0.171,0.039-0.341,0.155-0.469c0.115-0.128,0.279-0.201,0.451-0.201l18.309-0.063c0.57-0.001,1.276-0.005,1.908,0.355
		c0.412,0.235,0.83,0.827,1.406,5.442l0.024,0.191c1.083,8.336,0.666,14.427-0.292,21.009c-1.087,7.469-4.165,13.397-9.147,17.617
		C368.56,219.375,362.066,220.92,355.52,220.92z"/>
	<path d="M317.745,195.132c-1.013,0-1.993-0.243-2.935-0.73c-8.591-4.439-10.887-28.056-10.98-29.059
		c-0.02-0.209,0.07-0.414,0.237-0.542c4.107-3.14,5.02-7.085,5.21-8.322c-0.872-0.473-2.835-1.745-3.085-3.717
		c-0.194-1.534,0.68-3.081,2.6-4.596c0.264-0.208,0.649-0.164,0.858,0.101c0.209,0.265,0.164,0.649-0.101,0.858
		c-1.559,1.231-2.281,2.402-2.146,3.481c0.226,1.805,2.753,2.951,2.779,2.962c0.232,0.103,0.377,0.34,0.362,0.594
		c-0.013,0.219-0.371,5.337-5.464,9.398c0.31,2.898,2.808,23.891,10.291,27.758c1.786,0.922,3.693,0.775,5.831-0.452
		c0.385-0.287,5.388-4.109,7.078-9.74c0.097-0.323,0.438-0.506,0.76-0.409c0.323,0.097,0.507,0.437,0.41,0.76
		c-1.87,6.234-7.324,10.229-7.556,10.396c-0.017,0.012-0.034,0.023-0.052,0.034C320.429,194.723,319.06,195.132,317.745,195.132z"/>
	<path d="M214.669,211.697c-0.189,0-0.375-0.087-0.494-0.252c-0.198-0.273-0.138-0.655,0.135-0.853
		c0.034-0.025,3.713-2.709,32.664-24.422c15.225-11.418,30.026-16.654,39.763-19.036c10.566-2.585,17.427-2.467,17.716-2.46
		c0.337,0.007,0.604,0.287,0.597,0.624c-0.007,0.333-0.279,0.597-0.61,0.597c-0.004,0-0.009,0-0.013,0
		c-0.072-0.003-7.024-0.118-17.446,2.437c-9.614,2.357-24.232,7.534-39.273,18.815c-28.981,21.736-32.645,24.408-32.679,24.433
		C214.92,211.659,214.794,211.697,214.669,211.697z"/>
	<path fill="#FFFFFF" d="M359.39,140.344c0,0-22.007-5.269-22.985-4.029c-0.864,1.096,0.105,1.668,0.105,1.668"/>
	<path d="M359.391,140.954c-0.047,0-0.095-0.006-0.143-0.017c-9.972-2.387-20.97-4.575-22.421-4.167
		c-0.128,0.182-0.186,0.342-0.165,0.457c0.024,0.131,0.158,0.229,0.159,0.229c0.29,0.172,0.387,0.546,0.215,0.836
		c-0.171,0.29-0.546,0.387-0.836,0.215c-0.062-0.037-0.612-0.379-0.738-1.057c-0.093-0.497,0.064-1.007,0.465-1.516
		c0.357-0.452,0.845-1.071,12.462,1.33c5.569,1.151,11.089,2.47,11.144,2.484c0.328,0.078,0.53,0.408,0.452,0.736
		C359.917,140.766,359.667,140.954,359.391,140.954z"/>
	<path fill="#FFFFFF" d="M357.923,141.566c0,0-22.985-4.401-23.474-2.69c-0.489,1.712,4.157,3.179,4.157,3.179"/>
	<path d="M338.607,142.666c-0.061,0-0.123-0.009-0.184-0.028c-0.87-0.275-5.181-1.756-4.56-3.929
		c0.198-0.693,0.976-1.016,4.509-0.743c1.982,0.153,4.704,0.493,8.091,1.01c5.752,0.878,11.518,1.98,11.576,1.991
		c0.331,0.064,0.548,0.383,0.485,0.715c-0.063,0.331-0.381,0.55-0.714,0.485c-10.053-1.925-21.109-3.528-22.78-2.983
		c0.093,0.669,1.966,1.723,3.762,2.29c0.321,0.102,0.5,0.445,0.398,0.766C339.106,142.5,338.866,142.666,338.607,142.666z"/>
	<path fill="#FFFFFF" d="M357.434,143.645c-11.737,0.245-18.094-5.624-18.828-2.201c-0.734,3.423,17.85,7.825,17.85,7.825
		s5.135,4.89,8.803,5.868v14.183"/>
	<path d="M365.259,169.932c-0.337,0-0.611-0.273-0.611-0.611v-13.73c-3.435-1.149-7.706-5.032-8.493-5.766
		c-0.859-0.209-5.037-1.244-9.094-2.606c-8.628-2.895-9.299-4.755-9.053-5.903c0.13-0.606,0.42-1.043,0.862-1.298
		c1.021-0.591,2.602-0.083,4.996,0.684c3.048,0.978,7.651,2.455,13.555,2.332c0.337-0.007,0.616,0.26,0.624,0.598
		c0.007,0.337-0.261,0.616-0.598,0.623c-6.106,0.128-10.828-1.387-13.953-2.39c-1.856-0.595-3.459-1.11-4.011-0.79
		c-0.054,0.031-0.197,0.114-0.279,0.497c-0.035,0.164-0.103,1.686,8.24,4.487c4.476,1.502,9.107,2.605,9.153,2.616
		c0.105,0.025,0.202,0.077,0.28,0.152c0.05,0.048,5.066,4.794,8.539,5.72c0.267,0.071,0.453,0.313,0.453,0.59v14.183
		C365.869,169.658,365.596,169.932,365.259,169.932z"/>
	<path d="M340.852,229.073c-0.005,0-0.01,0-0.015,0c-0.337-0.008-0.604-0.288-0.596-0.625c0.378-15.713,0.004-41.44,0-41.698
		c-0.005-0.337,0.264-0.615,0.602-0.62c0.003,0,0.006,0,0.009,0c0.333,0,0.605,0.267,0.61,0.602c0.004,0.258,0.379,26.009,0,41.746
		C341.455,228.809,341.183,229.073,340.852,229.073z"/>
	<path d="M259.554,217.222c-0.188,0-0.373-0.086-0.493-0.25c-0.199-0.272-0.14-0.654,0.132-0.854l22.748-16.669
		c0.273-0.2,0.655-0.14,0.854,0.132c0.199,0.272,0.14,0.654-0.132,0.854l-22.748,16.669
		C259.806,217.183,259.68,217.222,259.554,217.222z"/>
	<path d="M222.15,212.766c-0.191,0-0.378-0.089-0.497-0.256l-3.053-4.275c-0.196-0.274-0.133-0.656,0.142-0.852
		c0.275-0.196,0.656-0.133,0.852,0.142l3.053,4.275c0.196,0.274,0.133,0.656-0.142,0.852
		C222.397,212.729,222.273,212.766,222.15,212.766z"/>
	<path d="M228.868,214.293c-0.188,0-0.374-0.087-0.493-0.25l-5.801-7.939c-0.199-0.272-0.14-0.654,0.133-0.853
		c0.273-0.199,0.655-0.139,0.853,0.133l5.801,7.939c0.199,0.272,0.14,0.654-0.133,0.853
		C229.119,214.255,228.993,214.293,228.868,214.293z"/>
	<path d="M235.89,213.987c-0.187,0-0.372-0.086-0.492-0.248l-8.549-11.603c-0.2-0.271-0.142-0.654,0.129-0.854
		c0.272-0.2,0.654-0.142,0.854,0.129l8.549,11.603c0.2,0.271,0.142,0.654-0.129,0.854
		C236.143,213.949,236.016,213.987,235.89,213.987z"/>
	<path d="M246.883,215.514c-0.182,0-0.363-0.081-0.483-0.236l-13.74-17.71c-0.207-0.266-0.158-0.65,0.108-0.857
		c0.267-0.207,0.65-0.158,0.857,0.108l13.74,17.71c0.207,0.266,0.158,0.65-0.108,0.857
		C247.145,215.472,247.013,215.514,246.883,215.514z"/>
	<path d="M259.401,217.346c-0.175,0-0.348-0.075-0.469-0.219l-20.152-24.122c-0.216-0.259-0.182-0.644,0.077-0.86
		c0.259-0.216,0.644-0.182,0.86,0.077l20.153,24.122c0.216,0.259,0.182,0.644-0.077,0.86
		C259.678,217.3,259.539,217.346,259.401,217.346z"/>
	<path d="M265.814,212.461c-0.172,0-0.343-0.072-0.464-0.213l-20.458-23.816c-0.22-0.256-0.191-0.641,0.065-0.861
		c0.256-0.22,0.641-0.191,0.861,0.065l20.458,23.816c0.22,0.256,0.19,0.641-0.066,0.861
		C266.096,212.412,265.954,212.461,265.814,212.461z"/>
	<path d="M272.836,207.575c-0.169,0-0.337-0.07-0.458-0.206l-20.763-23.511c-0.223-0.253-0.199-0.639,0.054-0.862
		c0.253-0.224,0.639-0.199,0.862,0.054l20.763,23.511c0.223,0.253,0.199,0.639-0.053,0.862
		C273.124,207.525,272.98,207.575,272.836,207.575z"/>
	<path d="M280.47,202.079c-0.165,0-0.329-0.066-0.45-0.197l-21.068-22.9c-0.228-0.248-0.212-0.635,0.036-0.863
		c0.248-0.228,0.634-0.212,0.863,0.036l21.068,22.9c0.228,0.248,0.212,0.635-0.036,0.863
		C280.766,202.026,280.617,202.079,280.47,202.079z"/>
	<path d="M340.927,207.575h-68.091c-0.337,0-0.611-0.273-0.611-0.611c0-0.337,0.273-0.611,0.611-0.611h68.091
		c0.337,0,0.611,0.273,0.611,0.611C341.537,207.302,341.264,207.575,340.927,207.575z"/>
	<path d="M340.927,216.125c-0.005,0-0.01,0-0.015,0l-77.556-1.832c-0.337-0.008-0.604-0.288-0.596-0.625
		c0.008-0.337,0.29-0.614,0.625-0.596l77.556,1.832c0.337,0.008,0.604,0.288,0.596,0.625
		C341.529,215.861,341.258,216.125,340.927,216.125z"/>
	<path d="M340.927,222.537c-0.006,0-0.012,0-0.018,0l-54.35-1.527c-0.337-0.009-0.603-0.29-0.593-0.628
		c0.009-0.331,0.281-0.594,0.61-0.594c0.006,0,0.012,0,0.018,0l54.35,1.527c0.337,0.009,0.603,0.29,0.593,0.628
		C341.528,222.275,341.257,222.537,340.927,222.537z"/>
	<path d="M340.927,200.552h-58.625c-0.337,0-0.611-0.273-0.611-0.611c0-0.337,0.273-0.611,0.611-0.611h58.625
		c0.337,0,0.611,0.273,0.611,0.611C341.537,200.279,341.264,200.552,340.927,200.552z"/>
	<path d="M347.339,220.4c-0.33,0-0.602-0.264-0.61-0.596l-0.611-25.343c-0.008-0.337,0.259-0.617,0.596-0.625
		c0.005,0,0.01,0,0.015,0c0.33,0,0.602,0.264,0.61,0.596l0.611,25.343c0.008,0.337-0.259,0.617-0.596,0.625
		C347.349,220.4,347.344,220.4,347.339,220.4z"/>
	<path d="M357.109,221.01c-0.296,0-0.555-0.215-0.602-0.516l-3.969-25.343c-0.052-0.333,0.176-0.646,0.509-0.698
		c0.331-0.05,0.646,0.175,0.698,0.509l3.969,25.343c0.052,0.333-0.176,0.646-0.509,0.698
		C357.172,221.008,357.14,221.01,357.109,221.01z"/>
	<path d="M366.881,218.873c-0.253,0-0.49-0.159-0.577-0.411l-8.855-25.649c-0.11-0.319,0.059-0.667,0.378-0.777
		c0.318-0.11,0.666,0.059,0.776,0.378l8.855,25.648c0.11,0.319-0.059,0.667-0.378,0.777
		C367.014,218.862,366.947,218.873,366.881,218.873z"/>
	<path d="M379.705,208.186c-0.151,0-0.303-0.056-0.421-0.168l-19.236-18.32c-0.244-0.233-0.254-0.619-0.021-0.863
		c0.233-0.244,0.619-0.253,0.863-0.021l19.236,18.32c0.244,0.233,0.254,0.619,0.021,0.863
		C380.027,208.122,379.866,208.186,379.705,208.186z"/>
	<path d="M384.285,193.835c-0.081,0-0.163-0.016-0.241-0.05l-21.984-9.466c-0.31-0.133-0.453-0.493-0.319-0.802
		c0.133-0.31,0.492-0.453,0.802-0.319l21.984,9.466c0.31,0.133,0.453,0.493,0.319,0.802
		C384.746,193.697,384.521,193.835,384.285,193.835z"/>
	<path d="M384.897,181.011c-0.023,0-0.046-0.001-0.069-0.004l-21.679-2.443c-0.335-0.038-0.576-0.34-0.539-0.675
		c0.038-0.335,0.342-0.578,0.675-0.538l21.679,2.443c0.335,0.038,0.576,0.34,0.539,0.675
		C385.467,180.78,385.203,181.011,384.897,181.011z"/>
	<path d="M334.133,159.256c-1.23,0-2.097-0.272-2.577-0.808c-0.316-0.353-0.454-0.81-0.397-1.321
		c0.004-0.043,0.014-0.085,0.027-0.126c0.259-0.778,1.289-2.25,3.327-2.25c2.167,0,5.191,0.929,5.191,2.443
		C339.705,158.534,335.75,159.256,334.133,159.256z M332.369,157.331c-0.004,0.165,0.049,0.248,0.098,0.303
		c0.225,0.251,0.848,0.401,1.667,0.401c1.76,0,3.694-0.608,4.275-0.956c-0.375-0.397-2.006-1.106-3.893-1.106
		C333.041,155.973,332.486,157.055,332.369,157.331z"/>
	<path d="M329.63,152.92c-0.188,0-0.373-0.086-0.493-0.25c-0.199-0.272-0.14-0.654,0.132-0.854
		c0.199-0.146,4.958-3.548,11.027-0.353c0.298,0.157,0.413,0.526,0.256,0.825c-0.157,0.298-0.525,0.413-0.825,0.256
		c-5.402-2.843-9.693,0.226-9.736,0.257C329.881,152.881,329.755,152.92,329.63,152.92z"/>
	<path d="M349.07,158.173c-1.564,0-2.174-0.848-2.239-0.945c-0.122-0.182-0.136-0.416-0.038-0.612
		c0.209-0.418,1.324-2.501,2.774-2.501c0.123,0,0.245,0.015,0.363,0.045c0.947,0.237,1.658,1.213,1.617,2.222
		c-0.028,0.702-0.48,1.523-1.665,1.721C349.601,158.149,349.327,158.173,349.07,158.173z M348.116,156.749
		c0.192,0.101,0.499,0.202,0.954,0.202c0.191,0,0.397-0.018,0.612-0.054c0.627-0.105,0.641-0.451,0.646-0.565
		c0.017-0.423-0.314-0.894-0.693-0.988C349.221,155.241,348.558,156.025,348.116,156.749z"/>
	<path d="M347.34,152.918c-0.176,0-0.35-0.075-0.471-0.221c-0.214-0.259-0.18-0.642,0.079-0.857c0.085-0.07,2.1-1.717,4.814-1.039
		c0.327,0.082,0.526,0.413,0.444,0.741c-0.082,0.328-0.414,0.526-0.741,0.444c-2.098-0.525-3.672,0.74-3.737,0.794
		C347.614,152.873,347.477,152.918,347.34,152.918z"/>
	<path d="M336.652,155.973c0,0-0.611,2.137,0,2.137s2.443-0.916,2.443-0.916S337.568,155.973,336.652,155.973"/>
	<path d="M350.087,155.362c0,0-0.916,1.832-0.305,2.137C350.392,157.805,351.308,155.668,350.087,155.362"/>
	<path fill="#1A6F5D" d="M331.963,356.35l-178.27-25.697c-2.229-0.321-3.821-2.509-3.685-5.066
		c2.648-49.893,13.619-102.337,17.027-117.698c0.562-2.53,2.725-4.222,4.981-3.896l178.205,25.688
		c2.276,0.328,3.879,2.596,3.673,5.204c-1.191,15.062-5.707,64.783-16.937,117.514C336.413,354.953,334.237,356.677,331.963,356.35"
		/>
	<path fill="#122C27" d="M332.518,357c-0.214,0-0.43-0.016-0.643-0.046l-178.27-25.697c-2.552-0.368-4.361-2.82-4.208-5.703
		c2.655-50.008,13.714-102.806,17.041-117.797c0.568-2.558,2.679-4.415,5.021-4.415c0.214,0,0.431,0.016,0.644,0.046l178.205,25.688
		c2.583,0.372,4.425,2.945,4.195,5.856c-1.121,14.181-5.656,64.569-16.948,117.593C337.002,355.118,334.884,357,332.518,357z
		 M171.46,204.563c-1.774,0-3.384,1.454-3.828,3.458c-3.321,14.968-14.364,67.683-17.014,117.598
		c-0.119,2.248,1.24,4.152,3.162,4.429l178.27,25.697c0.155,0.022,0.313,0.034,0.468,0.034c1.793,0,3.409-1.475,3.842-3.508
		c11.277-52.951,15.806-103.273,16.925-117.435c0.18-2.271-1.205-4.27-3.151-4.551l-178.205-25.688
		C171.774,204.575,171.616,204.563,171.46,204.563z"/>
	<path fill="#122C27" d="M128.106,226.306c-0.207,0-0.408-0.105-0.523-0.295c-0.175-0.289-0.082-0.664,0.206-0.839
		c13.536-8.192,27.935-15.097,42.797-20.522c0.316-0.116,0.667,0.047,0.783,0.364c0.116,0.317-0.047,0.667-0.364,0.783
		c-14.788,5.398-29.115,12.268-42.584,20.419C128.323,226.277,128.213,226.306,128.106,226.306z"/>
	<path fill="#122C27" d="M382.553,274.474c-9.937-15.166-20.606-29.529-31.711-42.688l0.933-0.788
		c11.137,13.197,21.836,27.599,31.799,42.807L382.553,274.474z"/>
	<path fill="#1A6F5D" d="M169.323,204.4c0,0-20.774,17.975-30.587,28.488c-1.277,1.368-0.511,3.606,1.337,3.898l225.612,35.685
		c1.732,0.274,3.136-1.387,2.574-3.048c-2.908-8.602-10.379-30.028-15.237-37.947c0,0-0.688-1.569-3.491-1.896
		c-2.802-0.327-175.308-25.27-175.308-25.27S171.152,203.362,169.323,204.4"/>
	<path fill="#122C27" d="M366.061,273.111C366.06,273.111,366.06,273.111,366.061,273.111c-0.157,0-0.315-0.013-0.471-0.037
		l-225.612-35.685c-1.093-0.173-1.961-0.901-2.321-1.947c-0.356-1.033-0.113-2.171,0.633-2.971
		c9.723-10.416,30.426-28.353,30.634-28.533c0.03-0.026,0.063-0.05,0.098-0.069c0.661-0.375,1.508-0.565,2.517-0.565
		c1.337,0,2.556,0.334,2.815,0.409c3.573,0.517,172.501,24.942,175.248,25.262c2.865,0.334,3.798,1.897,3.955,2.206
		c4.877,7.967,12.31,29.257,15.281,38.047c0.307,0.909,0.163,1.876-0.395,2.653C367.89,272.651,366.999,273.111,366.061,273.111z
		 M169.674,204.904c-1.126,0.977-21.042,18.276-30.492,28.401c-0.444,0.476-0.583,1.126-0.371,1.74
		c0.211,0.611,0.718,1.037,1.357,1.138l225.612,35.685c0.094,0.015,0.188,0.022,0.28,0.022h0c0.546,0,1.066-0.27,1.39-0.721
		c0.325-0.454,0.409-1.018,0.23-1.55c-2.961-8.76-10.368-29.981-15.18-37.823c-0.015-0.024-0.027-0.049-0.039-0.074
		c-0.021-0.043-0.628-1.258-3.002-1.534c-2.779-0.324-168.281-24.254-175.325-25.272c-0.031-0.004-0.062-0.012-0.092-0.021
		c-0.012-0.004-1.218-0.369-2.504-0.369C170.771,204.525,170.144,204.652,169.674,204.904z"/>
	<path fill="#FFFFFF" d="M194.995,203.891c0,0-12.708-2.186-12.041,2.747c0,0,0.14,2.242,8.075,0.761"/>
	<path d="M186.436,208.517c-1.605,0-2.761-0.27-3.454-0.81c-0.512-0.399-0.613-0.831-0.633-0.987l0,0
		c-0.127-0.942,0.148-1.77,0.797-2.396c2.643-2.549,11.007-1.198,11.952-1.035c0.332,0.057,0.556,0.373,0.498,0.705
		c-0.057,0.332-0.373,0.554-0.705,0.498c-2.399-0.412-9.034-1.087-10.897,0.71c-0.37,0.357-0.509,0.784-0.436,1.342
		c0.049,0.099,0.872,1.464,7.36,0.253c0.331-0.062,0.651,0.157,0.712,0.488c0.062,0.332-0.157,0.65-0.488,0.712
		C189.29,208.345,187.719,208.517,186.436,208.517z"/>
	<path fill="#FFFFFF" d="M196.196,203.3c0,0-7.685,2.969-10.11,9.797c-2.425,6.829,2.084,3.1,3.501,1.667
		c1.315-1.33,3.458-3.435,3.458-3.435"/>
	<path d="M186.051,217.678c-0.238,0-0.46-0.054-0.657-0.177c-0.871-0.547-0.836-1.924,0.116-4.607
		c2.49-7.012,10.141-10.037,10.465-10.163c0.315-0.121,0.668,0.035,0.789,0.349s-0.035,0.668-0.349,0.79
		c-0.074,0.029-7.456,2.956-9.755,9.432c-0.872,2.455-0.657,3.071-0.611,3.163c0.386,0.083,1.805-0.817,3.102-2.13
		c1.303-1.318,3.443-3.42,3.464-3.441c0.241-0.236,0.627-0.233,0.864,0.008c0.236,0.241,0.233,0.627-0.008,0.864
		c-0.021,0.021-2.155,2.117-3.451,3.428C189.384,215.838,187.442,217.678,186.051,217.678z"/>
	<path fill="#FFFFFF" d="M211.071,209.096c0,0-0.745,0.232-2.265-2.605c-1.52-2.837-9.725-10.58-12.641-3.045
		c-2.916,7.534-5.341,14.363-3.678,14.763c3.327,0.802,5.349-10.89,7.678-10.328C202.494,208.442,211.071,209.096,211.071,209.096"
		/>
	<path d="M192.814,218.859c-0.156,0-0.314-0.019-0.47-0.056c-0.34-0.082-0.611-0.299-0.783-0.628
		c-0.744-1.42,0.312-5.332,4.034-14.95c1.15-2.97,3.055-3.594,4.451-3.594c3.811,0,8.244,4.606,9.297,6.572
		c0.984,1.836,1.565,2.212,1.7,2.279l0.074,0.006c0.292,0.022,0.527,0.249,0.56,0.54c0.033,0.291-0.145,0.565-0.425,0.652
		c-0.125,0.039-0.276,0.043-0.432,0.01c-1.535-0.12-8.655-0.698-10.798-1.215c0,0-0.001,0-0.001,0c-0.621,0-1.76,2.611-2.44,4.172
		C196.249,215.701,194.872,218.859,192.814,218.859z M192.648,217.619c0.056,0.012,0.112,0.018,0.166,0.018
		c1.258,0,2.639-3.167,3.647-5.48c1.196-2.742,2.14-4.908,3.54-4.908c0.103,0,0.206,0.012,0.307,0.037
		c1.588,0.383,6.286,0.82,8.91,1.045c-0.305-0.422-0.623-0.94-0.951-1.552c-0.922-1.72-4.944-5.927-8.221-5.927
		c-1.496,0-2.579,0.92-3.312,2.814c-1.21,3.125-2.557,6.692-3.378,9.453C192.261,216.8,192.573,217.512,192.648,217.619z"/>
	<path d="M219.805,102.212c-0.074,0-0.148-0.013-0.221-0.042c-0.314-0.122-0.47-0.476-0.348-0.79l6.53-16.791
		c0.122-0.314,0.476-0.47,0.79-0.348c0.314,0.122,0.47,0.476,0.348,0.79l-6.53,16.791
		C220.281,102.064,220.05,102.212,219.805,102.212z"/>
	<path d="M233.332,119.003c-0.221,0-0.433-0.12-0.542-0.329c-0.156-0.299-0.039-0.668,0.26-0.824l23.321-12.127
		c0.299-0.156,0.668-0.039,0.824,0.26c0.156,0.299,0.039,0.668-0.26,0.824l-23.321,12.127
		C233.523,118.981,233.427,119.003,233.332,119.003z"/>
	<path d="M240.328,138.126c-0.329,0-0.601-0.262-0.61-0.593c-0.01-0.337,0.256-0.618,0.593-0.628l16.325-0.467
		c0.342-0.007,0.618,0.256,0.628,0.593c0.01,0.337-0.256,0.618-0.593,0.628l-16.325,0.467
		C240.34,138.126,240.334,138.126,240.328,138.126z"/>
	<path d="M200.216,179.172c-0.031,0-0.063-0.003-0.095-0.007c-0.333-0.052-0.561-0.364-0.509-0.698l2.332-14.926
		c0.052-0.333,0.364-0.561,0.698-0.509c0.333,0.052,0.561,0.364,0.509,0.698l-2.332,14.926
		C200.772,178.956,200.512,179.172,200.216,179.172z"/>
	<path d="M161.503,166.112c-0.169,0-0.337-0.069-0.457-0.206c-0.224-0.252-0.201-0.638,0.052-0.862l20.523-18.191
		c0.253-0.224,0.639-0.2,0.862,0.052c0.224,0.252,0.201,0.638-0.052,0.862l-20.523,18.191
		C161.791,166.061,161.647,166.112,161.503,166.112z"/>
	<path d="M159.17,127.865c-0.312,0-0.579-0.238-0.607-0.555c-0.031-0.336,0.217-0.633,0.553-0.663l15.392-1.399
		c0.338-0.03,0.633,0.217,0.663,0.553c0.031,0.336-0.217,0.633-0.553,0.663l-15.392,1.399
		C159.207,127.864,159.188,127.865,159.17,127.865z"/>
	<path d="M162.902,114.339c-0.244,0-0.472-0.147-0.567-0.384c-1.689-4.223-3.771-8.87-4.387-9.477
		c-0.049-0.007-0.209-0.03-0.573-0.03c-2.471,0-9.24,1.011-9.308,1.021c-0.307,0.044-0.597-0.144-0.679-0.441
		c-0.082-0.298,0.071-0.61,0.356-0.727c2.19-0.902,8.116-3.404,9.222-4.141c0.508-0.58-0.027-5.202-1.188-10.078
		c-0.074-0.312,0.106-0.629,0.412-0.724c0.306-0.095,0.635,0.062,0.751,0.362c1.327,3.412,3.58,8.472,4.434,9.042
		c0.024,0.016,0.268,0.159,1.314,0.159c3.009,0,8.896-1.17,8.955-1.182c0.31-0.063,0.617,0.124,0.706,0.428
		c0.089,0.304-0.07,0.625-0.365,0.74c-3.412,1.327-8.472,3.58-9.042,4.434c-0.492,0.738-0.099,5.857,0.55,10.214
		c0.017,0.055,0.025,0.114,0.025,0.175c0,0.335-0.27,0.608-0.605,0.611C162.91,114.338,162.906,114.339,162.902,114.339z
		 M157.375,103.227c0.58,0,0.909,0.046,1.135,0.16c0.648,0.324,1.924,2.922,3.224,5.928c-0.27-2.758-0.397-5.769,0.193-6.654
		c0.506-0.76,2.638-1.878,4.79-2.863c-1.434,0.193-2.905,0.342-4.028,0.342c-1,0-1.614-0.112-1.992-0.364
		c-0.702-0.468-1.71-2.324-2.637-4.301c0.635,4.336,0.15,5.322-0.417,5.701c-0.726,0.484-3.055,1.535-5.219,2.472
		C154.269,103.425,156.23,103.227,157.375,103.227z"/>
	<path d="M247.087,159.416c-0.049,0-0.1-0.006-0.15-0.019c-0.301-0.076-0.497-0.365-0.456-0.672
		c0.322-2.442,0.594-5.338,0.504-6.027c-0.553-0.378-3.098-1.447-5.282-2.276c-0.289-0.11-0.45-0.417-0.376-0.717
		c0.074-0.3,0.358-0.497,0.667-0.46c0.045,0.005,4.474,0.542,5.78,0.542c0.034,0,0.066,0,0.095-0.001
		c0.499-0.416,1.516-3.091,2.176-5.405c0.088-0.309,0.401-0.496,0.714-0.43c0.314,0.067,0.523,0.365,0.478,0.683
		c-0.343,2.42-0.577,5.343-0.357,5.845c0.319,0.427,3.098,1.56,5.486,2.337c0.301,0.098,0.478,0.41,0.406,0.718
		c-0.071,0.309-0.365,0.512-0.681,0.467c-0.031-0.004-3.112-0.438-4.905-0.438c-0.745,0-0.932,0.078-0.939,0.081
		c-0.438,0.305-1.698,3.03-2.589,5.377C247.566,159.263,247.335,159.416,247.087,159.416z M246.145,150.913
		c1.091,0.498,1.721,0.867,1.881,1.103c0.092,0.136,0.292,0.431,0.117,2.754c0.544-1.094,1.101-1.986,1.552-2.216
		c0.194-0.099,0.539-0.212,1.49-0.212c0.166,0,0.341,0.003,0.522,0.009c-0.958-0.451-1.71-0.914-1.918-1.321
		c-0.16-0.315-0.215-0.95-0.208-1.721c-0.804,1.635-1.322,1.674-1.547,1.691C247.706,151.025,246.994,150.985,246.145,150.913z"/>
	<path d="M147.976,188.034c-0.177,0-0.347-0.077-0.464-0.214c-0.139-0.163-0.183-0.387-0.115-0.59l2.798-8.396
		c0.071-0.212,0.252-0.369,0.472-0.408c0.221-0.04,0.444,0.045,0.584,0.22l5.597,6.996c0.135,0.169,0.171,0.397,0.094,0.6
		c-0.078,0.202-0.256,0.348-0.47,0.384l-8.396,1.399C148.043,188.031,148.01,188.034,147.976,188.034z M150.999,180.285
		l-2.123,6.368l6.368-1.061L150.999,180.285z"/>
	<path d="M251.056,86.819c-0.16,0-0.316-0.063-0.432-0.179l-6.064-6.063c-0.151-0.151-0.212-0.369-0.161-0.577
		c0.051-0.207,0.206-0.373,0.409-0.437l8.862-2.798c0.217-0.069,0.454-0.011,0.616,0.151c0.161,0.161,0.219,0.398,0.151,0.616
		l-2.799,8.862c-0.064,0.203-0.23,0.359-0.437,0.409C251.153,86.814,251.104,86.819,251.056,86.819z M246.135,80.425l4.641,4.641
		l2.142-6.783L246.135,80.425z"/>
	<path d="M277.416,120.554c-1.01,0-1.832-0.822-1.832-1.832s0.822-1.832,1.832-1.832s1.832,0.822,1.832,1.832
		S278.426,120.554,277.416,120.554z M277.416,118.111c-0.337,0-0.611,0.274-0.611,0.611s0.274,0.611,0.611,0.611
		s0.611-0.274,0.611-0.611S277.753,118.111,277.416,118.111z"/>
	<path d="M135.15,140.925c-1.494,0-2.71-1.216-2.71-2.71s1.216-2.71,2.71-2.71c1.494,0,2.709,1.216,2.709,2.71
		S136.644,140.925,135.15,140.925z M135.15,136.727c-0.821,0-1.488,0.668-1.488,1.488s0.668,1.488,1.488,1.488
		c0.821,0,1.488-0.668,1.488-1.488S135.97,136.727,135.15,136.727z"/>
	<path d="M192.287,84.487c-4.452,0-8.074-3.622-8.074-8.073c0-4.452,3.622-8.074,8.074-8.074c4.452,0,8.073,3.622,8.073,8.074
		C200.36,80.866,196.738,84.487,192.287,84.487z M192.287,69.562c-3.778,0-6.852,3.074-6.852,6.852c0,3.778,3.074,6.852,6.852,6.852
		c3.778,0,6.852-3.074,6.852-6.852C199.139,72.636,196.065,69.562,192.287,69.562z"/>
	<path d="M202.082,94.749c-0.217,0-0.427-0.116-0.538-0.32l-6.063-11.194c-0.161-0.297-0.05-0.667,0.246-0.828
		c0.297-0.16,0.667-0.05,0.828,0.246l6.063,11.194c0.161,0.297,0.05,0.667-0.246,0.828C202.28,94.725,202.18,94.749,202.082,94.749z
		"/>
	<path d="M196.95,77.957c-0.312,0-0.579-0.238-0.607-0.555c-0.138-1.514-0.633-2.632-1.472-3.324
		c-1.115-0.919-2.505-0.79-2.52-0.789c-0.335,0.032-0.635-0.209-0.67-0.543c-0.035-0.334,0.204-0.634,0.538-0.671
		c0.077-0.008,1.892-0.194,3.412,1.047c1.11,0.906,1.759,2.309,1.928,4.169c0.031,0.336-0.217,0.633-0.553,0.663
		C196.987,77.957,196.969,77.957,196.95,77.957z"/>
	<path d="M188.315,121.498L188.315,121.498c1.548,0.774,3.444,0.261,4.359-1.209c1.541-2.476,4.449-5.728,9.018-5.538
		c7.328,0.305,9.771,7.633,6.412,14.351c-1.897,3.795-0.969,7.493,0.198,9.992c0.842,1.802,3.06,2.475,4.772,1.464l1.377-0.814
		c1.372-0.811,1.982-2.466,1.483-3.979c-0.72-2.185-1.409-5.515-0.503-8.8c2.443-8.855-1.832-20.763-13.435-19.847
		c-8.432,0.666-13.216,4.493-15.355,10.229C186.047,118.946,186.789,120.736,188.315,121.498"/>
	<path d="M224.287,148.187c0,2.614-2.119,4.733-4.733,4.733c-2.614,0-4.733-2.119-4.733-4.733c0-2.614,2.119-4.733,4.733-4.733
		C222.168,143.454,224.287,145.573,224.287,148.187"/>
</g>
<g>
	<path d="M449.991,278.263c-0.221,0-0.419-0.154-0.467-0.379c-0.556-2.64-1.585-4.327-3.058-5.015
		c-1.739-0.811-3.521,0.046-3.631,0.101c-0.198,0.116-0.457,0.075-0.608-0.108c-0.168-0.203-0.14-0.504,0.063-0.672
		c0.156-0.13,2.105-1.073,4.156-0.358c1.99,0.694,3.34,2.664,4.012,5.855c0.054,0.258-0.111,0.511-0.369,0.566
		C450.056,278.259,450.023,278.263,449.991,278.263z"/>
	<path d="M445.615,279.128c-0.224,0-0.423-0.158-0.468-0.385c-0.578-2.949-0.242-4.886,1.001-5.757
		c0.681-0.478,1.488-0.477,1.711-0.343c0.226,0.136,0.299,0.429,0.163,0.655c-0.104,0.173-0.3,0.256-0.488,0.225
		c-0.067-0.006-0.623-0.035-1.066,0.445c-0.484,0.522-0.943,1.742-0.384,4.591c0.051,0.259-0.118,0.509-0.377,0.56
		C445.677,279.125,445.646,279.128,445.615,279.128z"/>
	<path d="M443.102,297.61c-0.26,0-0.472-0.208-0.477-0.469c-0.046-2.671,0.572-3.897,1.17-5.082
		c0.572-1.134,1.113-2.205,1.099-4.641c-0.086-4.543-2.378-6.343-2.639-6.534c-0.192-0.14-0.263-0.409-0.151-0.618l0.842,0.45
		l-0.421-0.225l0.288-0.381c0.494,0.361,2.942,2.391,3.036,7.297c0.015,2.673-0.603,3.898-1.201,5.083
		c-0.571,1.131-1.11,2.2-1.068,4.635c0.004,0.264-0.205,0.481-0.469,0.486C443.108,297.61,443.105,297.61,443.102,297.61z"/>
	<path d="M450.829,298.232c-0.003,0-0.006,0-0.009,0c-0.264-0.005-0.473-0.223-0.468-0.486c0.118-6.426-4.636-8.338-5.178-8.535
		c-0.232-0.084-0.379-0.337-0.316-0.576l0.923,0.243l-0.461-0.122l0.172-0.445c0.617,0.224,5.946,2.364,5.816,9.453
		C451.301,298.024,451.089,298.232,450.829,298.232z"/>
	<path d="M446.779,301.877c-0.13,0-0.231-0.06-0.275-0.092c-0.214-0.154-0.263-0.452-0.11-0.666
		c0.013-0.018,0.027-0.036,0.042-0.052l0.031-0.037c1.093-1.305,4.06-4.474,7.996-5.706c1.861-0.559,3.203-2.793,3.196-5.315
		c-0.007-2.745-1.623-4.859-4.323-5.656c-0.253-0.075-0.397-0.34-0.323-0.593c0.075-0.253,0.341-0.397,0.593-0.323
		c3.128,0.923,5,3.378,5.008,6.569c0.007,2.934-1.621,5.553-3.871,6.229c-3.793,1.188-6.733,4.438-7.544,5.407
		C447.049,301.824,446.901,301.877,446.779,301.877z"/>
	<path d="M451.143,288.082c-0.264,0-0.477-0.214-0.477-0.477c0-0.085,0.022-0.165,0.061-0.234c0.015-0.037,0.039-0.101,0.072-0.187
		c1.355-3.524,2.671-5.238,4.023-5.238c0.003,0,0.006,0,0.009,0c0.264,0.002,0.476,0.217,0.475,0.48
		c-0.002,0.263-0.215,0.475-0.477,0.475c-0.002,0-0.004,0-0.006,0c-0.41,0-1.529,0.454-3.132,4.626
		C451.567,287.849,451.477,288.082,451.143,288.082z"/>
	<path d="M445.049,317.107c-1.624-1.093-3.955-3.599-2.402-6.061c1.541-2.36,6.788-6.093,8.512-7.32
		c0.198-0.141,0.385-0.274,0.446-0.32c0.048-0.045,0.105-0.082,0.171-0.105c0.249-0.088,0.521,0.043,0.609,0.292
		c0.122,0.346,0,0.432-0.672,0.911c-4.528,3.222-7.308,5.597-8.262,7.058c-1.452,2.303,1.984,4.654,2.131,4.753
		c0.209,0.141,0.276,0.421,0.149,0.639l-0.824-0.481l0.412,0.241L445.049,317.107z"/>
	<path d="M449.831,310.109c-0.283,0-0.559-0.027-0.828-0.083c-1.598-0.329-2.433-1.55-2.718-2.06l0.399-0.252l-0.063-0.487
		c0.12-0.015,0.344,0,0.497,0.273c0.221,0.395,0.865,1.341,2.077,1.591c1.29,0.266,2.852-0.3,4.648-1.68
		c0.209-0.16,0.509-0.122,0.669,0.088c0.161,0.209,0.121,0.509-0.088,0.669C452.745,309.459,451.204,310.109,449.831,310.109z"/>
	<path d="M445.856,323.749c-0.222,0-0.449-0.012-0.681-0.038c-3.877-0.517-6.465-4.958-7.663-7.56
		c-0.023-0.049-0.04-0.086-0.052-0.111c-0.049-0.077-0.076-0.168-0.074-0.265c0.276-14.137,0.286-28.261,0.032-41.979
		c-0.002-0.11,0.034-0.216,0.099-0.3c0.036-0.078,0.111-0.257,0.183-0.43c0.829-1.984,3.35-8.023,6.957-8.435
		c4.362-0.408,8.972,5.742,10.635,11.818c1.551,0.676,7.371,3.736,9.042,12.093c1.515,9.227-7.257,13.808-8.475,14.381
		c-0.016,0.01-0.033,0.02-0.051,0.029l-0.002-0.004c-0.051,0.023-0.08,0.036-0.086,0.037c-0.239,0.062-0.484-0.065-0.57-0.294
		c-0.086-0.23,0.017-0.488,0.238-0.596c0.007-0.004,0.015-0.007,0.023-0.01c0.263-0.121,9.451-4.433,7.984-13.37
		c-1.642-8.208-7.481-10.98-8.634-11.452c-0.247-0.101-0.326-0.262-0.345-0.392c-1.491-5.637-5.815-11.643-9.661-11.288
		c-2.014,0.23-4.095,2.873-6.175,7.853c-0.09,0.215-0.153,0.367-0.207,0.478c0.252,13.649,0.241,27.699-0.032,41.763
		c0.012,0.026,0.024,0.052,0.036,0.077c1.899,4.123,4.419,6.679,6.912,7.011c4.063,0.451,6.484-4.066,6.746-4.583
		c0.112-0.221,0.382-0.333,0.612-0.239l-0.361,0.884l0.181-0.441l0.423,0.222C452.61,319.161,450.152,323.748,445.856,323.749z"/>
	<path d="M449.614,318.82c-0.815,0-1.44-0.103-1.603-0.312c-0.116-0.148-0.135-0.358-0.048-0.524
		c0.122-0.233,0.411-0.323,0.644-0.201c0.006,0.003,0.013,0.007,0.019,0.01c0.531,0.111,3.778,0.31,6.797-1.512
		c2.824-1.704,4.639-4.623,5.394-8.674c0.001-0.006,0.002-0.011,0.004-0.017c0.032-0.218,0.761-5.464,0.22-9.801
		c-0.033-0.262,0.153-0.5,0.415-0.533c0.261-0.033,0.5,0.153,0.533,0.415c0.292,2.342,0.217,4.956,0.102,6.737
		c-0.134,2.076-0.231,2.968-0.348,3.371l0.013,0.002c-1.361,7.305-5.732,9.837-9.159,10.675
		C451.612,318.698,450.5,318.82,449.614,318.82z"/>
	<path d="M426.084,280.461c-0.031,0-0.062-0.003-0.094-0.009c-0.259-0.052-0.427-0.303-0.375-0.561
		c1.066-5.347,4.647-6.36,6.138-6.547c0.742-0.093,1.666-0.118,1.862,0.291c0.114,0.238,0.013,0.523-0.224,0.637
		c-0.131,0.062-0.276,0.06-0.4,0.006c-0.315-0.061-1.904-0.129-3.435,0.834c-1.529,0.961-2.54,2.632-3.005,4.966
		C426.506,280.304,426.307,280.461,426.084,280.461z"/>
	<path d="M430.401,280.446c-0.027,0-0.055-0.002-0.083-0.007c-0.26-0.046-0.433-0.293-0.387-0.553
		c0.458-2.603-0.042-3.462-0.381-3.742c-0.432-0.358-1.041-0.168-1.109-0.145c-0.112,0.049-0.242,0.055-0.364,0.007
		c-0.246-0.095-0.368-0.372-0.272-0.618c0.183-0.471,1.264-0.45,1.665-0.338c0.992,0.277,2.04,1.37,1.401,5.002
		C430.83,280.283,430.628,280.446,430.401,280.446z"/>
	<path d="M433.073,297.269c-0.003,0-0.007,0-0.01,0c-0.264-0.006-0.473-0.224-0.467-0.487c0.049-2.313-0.492-3.315-1.066-4.376
		c-0.587-1.086-1.193-2.209-1.199-4.599c0.028-4.17,2.163-6.389,2.816-6.97l0.019-0.017l0.316,0.344l0.491-0.055
		c0.027,0.247-0.132,0.389-0.192,0.442c-0.579,0.515-2.47,2.487-2.496,6.258c0.005,2.145,0.529,3.116,1.084,4.143
		c0.607,1.124,1.235,2.286,1.18,4.85C433.544,297.062,433.332,297.269,433.073,297.269z"/>
	<path d="M425.477,297.292c-0.26,0-0.473-0.209-0.477-0.47c-0.08-5.299,3.895-7.505,5.608-8.208l0.055-0.023l0.189,0.424l0.493,0.08
		c-0.043,0.267-0.259,0.355-0.374,0.402c-1.532,0.628-5.087,2.598-5.016,7.31c0.004,0.264-0.207,0.481-0.47,0.485
		C425.482,297.292,425.479,297.292,425.477,297.292z"/>
	<path d="M429.4,300.839c-0.155,0-0.303-0.077-0.392-0.205c-0.128-0.165-3.161-3.983-7.321-5.216
		c-2.209-0.756-3.74-2.813-3.744-5.008c-0.003-2.425,1.727-4.414,4.748-5.457c0.25-0.086,0.521,0.046,0.607,0.295
		c0.086,0.249-0.046,0.521-0.295,0.607c-2.611,0.902-4.108,2.562-4.105,4.553c0.003,1.794,1.269,3.48,3.079,4.1
		c4.471,1.325,7.798,5.474,7.875,5.699c0.085,0.249-0.048,0.521-0.298,0.606C429.503,300.83,429.451,300.839,429.4,300.839z"/>
	<path d="M425.161,288.738c-0.125,0-0.249-0.048-0.343-0.145c-0.059-0.061-0.079-0.103-0.137-0.229
		c-1.071-2.295-2.256-3.639-3.102-3.501c-0.26,0.042-0.505-0.135-0.547-0.395c-0.042-0.26,0.135-0.505,0.395-0.547
		c1.719-0.274,3.187,2.044,4.119,4.04l0.031,0.067c0.104,0.184,0.075,0.423-0.084,0.577
		C425.401,288.693,425.281,288.738,425.161,288.738z"/>
	<path d="M430.4,314.799c-0.072,0-0.133-0.011-0.18-0.035c-0.186-0.093-0.291-0.296-0.259-0.502c0.034-0.22,0.214-0.382,0.427-0.402
		c0.292-0.08,1.754-0.646,2.238-1.701c0.26-0.567,0.201-1.187-0.179-1.895c-1.539-2.834-7.826-7.748-8.364-8.12
		c-0.092-0.05-0.167-0.131-0.211-0.235c-0.097-0.234,0.006-0.505,0.235-0.614c0.296-0.142,0.296-0.142,1.619,0.915
		c0.601,0.48,1.534,1.242,2.563,2.149c2.589,2.279,4.27,4.114,4.997,5.453c0.917,1.71,0.276,2.927-0.423,3.647
		C432.261,314.08,430.978,314.799,430.4,314.799z"/>
	<path d="M427.048,307.595c-1.28,0-3.023-0.605-5.296-2.592c-0.199-0.174-0.219-0.475-0.045-0.674
		c0.174-0.198,0.475-0.218,0.674-0.045c2.501,2.188,4.164,2.47,5.118,2.32c0.938-0.147,1.384-0.732,1.445-0.818
		c0.074-0.156,0.23-0.266,0.414-0.273c0.258-0.008,0.485,0.196,0.495,0.46c0.014,0.384-0.655,0.996-1.263,1.285
		C428.179,307.453,427.668,307.595,427.048,307.595z"/>
	<path d="M431.761,320.834c-0.533,0-1.095-0.083-1.682-0.271c-4.061-1.336-6.375-5.207-7.181-6.809l-0.02-0.039
		c-0.039-0.062-0.064-0.135-0.07-0.214c-0.018-0.228,0.127-0.437,0.347-0.499c0.174-0.048,0.417-0.032,0.596,0.322
		c0.587,1.167,2.801,5.073,6.623,6.331c3.794,1.214,6.423-2.95,7.015-3.999c0.273-14.059,0.283-28.099,0.031-41.735
		c-0.028-0.052-0.059-0.112-0.095-0.183c-2.154-4.215-4.374-6.045-6.419-5.295c-3.899,1.438-7.868,7.223-9.153,11.754
		c-0.029,0.239-0.253,0.362-0.385,0.435c-1.958,1.078-6.654,4.121-7.953,9.092c-0.784,3.279,1.723,6.701,7.253,9.885
		c0.417,0.24,0.669,0.385,0.564,0.756c-0.072,0.254-0.335,0.4-0.589,0.329c-0.074-0.021-0.138-0.058-0.191-0.106
		c-0.05-0.031-0.139-0.082-0.26-0.151c-7.497-4.317-8.327-8.334-7.703-10.944c1.387-5.306,6.292-8.52,8.381-9.675
		c1.387-4.74,5.57-10.743,9.707-12.269c1.79-0.657,4.56-0.191,7.598,5.757c0.047,0.091,0.08,0.158,0.102,0.197
		c0.059,0.078,0.093,0.175,0.095,0.277c0.255,13.725,0.245,27.862-0.031,42.015c-0.002,0.084-0.025,0.164-0.067,0.234
		C437.775,316.933,435.416,320.834,431.761,320.834z M420.313,300.105c-0.016,0.056-0.02,0.11-0.017,0.16
		C420.293,300.213,420.298,300.159,420.313,300.105z"/>
	<path d="M427.299,315.154c-0.228,0-0.619-0.082-1.363-0.335c-1.631-0.556-9.837-3.727-11.278-11.567l0.018-0.003
		c-0.181-0.877-0.489-4.587,0.018-7.322c0.048-0.259,0.296-0.43,0.557-0.382c0.259,0.048,0.43,0.297,0.382,0.557
		c-0.56,3.018-0.061,6.809-0.038,6.97c0.001,0.003,0.001,0.006,0.002,0.009c1.432,7.793,10.492,10.946,11.624,11.113
		c0.003-0.001,0.005-0.001,0.008-0.002c0.258-0.058,0.513,0.103,0.571,0.361c0.038,0.169-0.022,0.355-0.15,0.471
		C427.574,315.089,427.502,315.154,427.299,315.154z"/>
</g>
<g>
	<path fill="#FFFFFF" d="M451.283,187.176c0,0,7.607,0.882,11.326-4.452l0.335,1.282l0.921-0.095c0,0,4.135,2.465,4.135,5.652V204
		c0,0-1,5.375-9.813,7.625s-16.25,1.063-18.375,0.313s-7.229-3.188-8.146-6.813l-0.476-15.375c0,0,0.418-4.264,4.813-5.892
		L451.283,187.176z"/>
	<path d="M467.684,200.048c0,4.447-8.161,8.053-18.229,8.053c-10.068,0-17.787-3.605-17.787-8.053v-6.017
		c0,4.447,7.72,8.053,17.787,8.053c10.068,0,18.229-3.605,18.229-8.053V200.048z"/>
	<path d="M449.455,208.577c-10.241,0-18.263-3.746-18.263-8.529v-6.017c0-0.263,0.213-0.476,0.476-0.476s0.476,0.213,0.476,0.476
		c0,4.178,7.766,7.577,17.312,7.577c9.623,0,17.753-3.47,17.753-7.577c0-0.263,0.213-0.476,0.476-0.476s0.476,0.213,0.476,0.476
		v6.017C468.159,204.831,459.943,208.577,449.455,208.577z M432.143,196.804v3.244c0,4.178,7.766,7.577,17.312,7.577
		c9.623,0,17.753-3.47,17.753-7.577v-3.276c-2.45,3.398-9.377,5.787-17.753,5.787C441.302,202.559,434.555,200.185,432.143,196.804z
		"/>
	<path d="M448.013,197.632c-9.519,0-17.264-3.739-17.264-8.336c0-4.824,8.391-8.749,18.705-8.749c4.964,0,9.608,0.812,13.076,2.286
		c3.63,1.543,5.629,3.681,5.629,6.022c0,4.645-7.859,8.324-18.686,8.749C448.988,197.623,448.497,197.632,448.013,197.632z
		 M449.455,181.499c-4.773,0-9.28,0.861-12.692,2.426c-3.217,1.475-5.062,3.433-5.062,5.372c0,4.003,7.47,7.385,16.312,7.385
		c0.471,0,0.949-0.01,1.423-0.028c10.132-0.397,17.772-3.749,17.772-7.798C467.208,184.799,459.244,181.499,449.455,181.499z"/>
	<path d="M447.909,194.431c-7.42,0-12.602-2.639-12.602-6.418l0.221-5.77c0.01-0.262,0.229-0.464,0.494-0.457
		c0.262,0.01,0.467,0.231,0.457,0.494l-0.221,5.752c0,3.149,4.9,5.448,11.651,5.448c7.35,0,14.299-2.656,14.299-5.466l0.221-5.77
		c0.01-0.262,0.229-0.464,0.494-0.457c0.262,0.01,0.467,0.231,0.457,0.494l-0.221,5.752
		C463.16,191.852,455.274,194.431,447.909,194.431z"/>
	<path fill="#18715D" d="M462.905,182.262c0,2.835-6.905,5.132-14.334,5.132c-7.429,0-12.568-2.298-12.568-5.132
		s6.022-5.132,13.45-5.132C456.883,177.129,462.905,179.427,462.905,182.262"/>
	<path d="M448.572,187.87c-7.558,0-13.043-2.359-13.043-5.608c0-3.145,6.117-5.608,13.926-5.608c7.809,0,13.927,2.463,13.927,5.608
		C463.381,185.726,455.694,187.87,448.572,187.87z M449.454,177.605c-7.761,0-12.974,2.408-12.974,4.657
		c0,2.289,4.523,4.657,12.092,4.657c7.931,0,13.858-2.459,13.858-4.657C462.429,180.013,457.216,177.605,449.454,177.605z"/>
	<path d="M443.912,184.308c-0.71,0-1.433-0.05-2.138-0.187c-0.537-0.104-1.146-0.259-1.6-0.62c-0.553-0.441-0.793-0.963-0.753-1.643
		c0.021-0.366,0.187-0.704,0.482-0.977c0.206-0.192,0.472-0.341,0.77-0.431c1.446-0.437,2.972-0.663,4.536-0.672
		c0.001,0,0.002,0,0.003,0c0.262,0,0.474,0.211,0.476,0.473c0.001,0.263-0.21,0.477-0.473,0.478
		c-1.472,0.008-2.907,0.22-4.265,0.631c-0.16,0.048-0.298,0.123-0.398,0.217c-0.17,0.158-0.177,0.292-0.18,0.336
		c-0.019,0.32,0.04,0.561,0.396,0.844c0.292,0.233,0.764,0.348,1.188,0.43c1.436,0.277,2.936,0.171,4.344,0.013
		c0.259-0.03,0.496,0.159,0.525,0.42c0.029,0.261-0.159,0.496-0.42,0.525C445.629,184.233,444.78,184.308,443.912,184.308z"/>
	<path fill="#18715D" d="M447.226,182.218c-0.169-1.127,0.018-2.276,0.283-3.384c0.143-0.599,0.315-1.205,0.661-1.714
		c0.346-0.51,0.898-0.914,1.513-0.939c1.055-0.042,1.827,0.971,2.282,1.924c0.023-1.066,0.147-2.129,0.37-3.172
		c0.071-0.332,0.155-0.669,0.345-0.95c0.419-0.621,1.298-0.82,2.008-0.583c0.71,0.237,1.255,0.833,1.593,1.501
		c0.339,0.668,0.497,1.41,0.653,2.142c0.542-0.981,1.299-2.095,2.421-2.082c0.672,0.008,1.282,0.461,1.629,1.037
		c0.348,0.576,0.471,1.258,0.526,1.929c0.095,1.147,0.009,2.31-0.253,3.431"/>
	<path d="M447.225,182.693c-0.232,0-0.434-0.169-0.47-0.405c-0.192-1.281,0.054-2.578,0.29-3.565
		c0.142-0.594,0.327-1.278,0.73-1.871c0.469-0.69,1.174-1.118,1.887-1.147c0.699-0.024,1.352,0.297,1.918,0.933
		c0.064-0.607,0.16-1.21,0.288-1.805c0.076-0.355,0.177-0.763,0.416-1.116c0.517-0.766,1.591-1.09,2.553-0.768
		c0.766,0.256,1.429,0.873,1.867,1.738c0.188,0.371,0.323,0.755,0.432,1.142c0.544-0.736,1.25-1.342,2.196-1.342
		c0.009,0,0.018,0,0.027,0c0.786,0.009,1.564,0.495,2.031,1.267c0.427,0.708,0.541,1.513,0.593,2.135
		c0.099,1.202,0.01,2.406-0.264,3.579c-0.06,0.256-0.317,0.415-0.572,0.355c-0.256-0.06-0.415-0.316-0.355-0.572
		c0.252-1.076,0.334-2.181,0.242-3.283c-0.043-0.519-0.134-1.183-0.459-1.722c-0.293-0.485-0.775-0.802-1.228-0.807
		c-0.005,0-0.009,0-0.014,0c-0.86,0-1.512,0.98-1.985,1.836c-0.096,0.174-0.291,0.269-0.486,0.24
		c-0.197-0.029-0.354-0.177-0.395-0.372c-0.147-0.693-0.299-1.409-0.612-2.026c-0.188-0.371-0.609-1.028-1.32-1.265
		c-0.546-0.183-1.189-0.007-1.463,0.398c-0.144,0.213-0.214,0.504-0.274,0.783c-0.216,1.01-0.337,2.048-0.359,3.082
		c-0.005,0.22-0.16,0.408-0.375,0.455c-0.214,0.046-0.434-0.061-0.529-0.26c-0.24-0.502-0.89-1.655-1.792-1.655
		c-0.014,0-0.028,0-0.043,0.001c-0.407,0.016-0.843,0.296-1.138,0.731c-0.312,0.46-0.469,1.045-0.592,1.557
		c-0.229,0.959-0.441,2.09-0.275,3.203c0.039,0.26-0.14,0.502-0.4,0.541C447.273,182.692,447.249,182.693,447.225,182.693z"/>
	<path d="M448.13,213.443c-4.848,0-9.042-0.913-12.129-2.64c-2.959-1.656-4.589-3.904-4.589-6.33l-0.662-15.466
		c-0.011-0.262,0.192-0.484,0.455-0.495c0.256-0.011,0.484,0.193,0.495,0.455l0.662,15.486c0,3.907,5.526,8.039,15.767,8.039
		c4.719,0,9.547-0.927,13.248-2.544c3.573-1.561,5.698-3.568,5.831-5.507c0.326-4.758-0.107-15.311-0.111-15.417
		c-0.011-0.262,0.193-0.484,0.456-0.495c0.269-0.012,0.484,0.193,0.495,0.456c0.004,0.107,0.439,10.712,0.11,15.522
		C467.833,209.267,458.474,213.443,448.13,213.443z"/>
</g>
<g>
	<path d="M59.204,311.162c-2.419,0-5.063-0.506-7.645-1.462c-3.501-1.297-6.539-3.284-8.554-5.596
		c-2.081-2.386-2.838-4.849-2.132-6.933c0.887-2.617,3.965-4.179,8.235-4.179c2.419,0,5.063,0.506,7.645,1.462
		c3.501,1.296,6.539,3.284,8.554,5.596c2.081,2.387,2.838,4.849,2.132,6.933C66.552,309.6,63.474,311.162,59.204,311.162z
		 M49.107,293.95c-3.839,0-6.578,1.319-7.327,3.528c-1.258,3.712,3.278,8.791,10.111,11.323c2.477,0.918,5.006,1.402,7.313,1.402
		c3.839,0,6.578-1.319,7.326-3.528c1.258-3.712-3.278-8.792-10.111-11.323C53.943,294.435,51.414,293.95,49.107,293.95z"/>
	<path d="M33.01,305.146c-1.52,0-2.848-0.408-3.947-1.212c-1.398-1.024-2.287-2.61-2.569-4.587
		c-0.481-3.361,0.833-7.452,3.513-10.942c3.053-3.975,7.278-6.445,11.026-6.445c1.52,0,2.848,0.408,3.947,1.212
		c1.398,1.024,2.287,2.61,2.569,4.587c0.48,3.362-0.833,7.452-3.514,10.942C40.983,302.676,36.758,305.146,33.01,305.146z
		 M41.034,282.918c-3.404,0-7.434,2.383-10.266,6.07c-2.526,3.29-3.769,7.111-3.325,10.222c0.245,1.716,1.001,3.082,2.187,3.949
		c0.931,0.682,2.069,1.028,3.381,1.028c3.404,0,7.434-2.383,10.266-6.07c2.526-3.29,3.77-7.111,3.325-10.222
		c-0.245-1.716-1.001-3.082-2.187-3.949C43.483,283.264,42.346,282.918,41.034,282.918z"/>
	<path d="M33.01,305.146c-1.52,0-2.848-0.408-3.947-1.212c-1.398-1.024-2.287-2.61-2.569-4.587
		c-0.481-3.361,0.833-7.452,3.513-10.942c3.053-3.975,7.278-6.445,11.026-6.445c1.52,0,2.848,0.408,3.947,1.212
		c1.398,1.024,2.287,2.61,2.569,4.587c0.48,3.362-0.833,7.452-3.514,10.942C40.983,302.676,36.758,305.146,33.01,305.146z
		 M41.034,282.918c-3.404,0-7.434,2.383-10.266,6.07c-2.526,3.29-3.769,7.111-3.325,10.222c0.245,1.716,1.001,3.082,2.187,3.949
		c0.931,0.682,2.069,1.028,3.381,1.028c3.404,0,7.434-2.383,10.266-6.07c2.526-3.29,3.77-7.111,3.325-10.222
		c-0.245-1.716-1.001-3.082-2.187-3.949C43.483,283.264,42.346,282.918,41.034,282.918z"/>
	<path fill="#1A6F5D" d="M42.902,295.177c0,0-0.834-4.097,2.533-5.509c3.367-1.411,8.036-1.69,13.654,0.647
		c5.618,2.337,9.979,6.649,9.755,10.319c0,0,0.221,1.583-1.682,3.317c0,0-2.364-6.387-9.646-8.683
		C50.232,292.973,47.236,292.669,42.902,295.177"/>
	<path d="M67.161,304.431c-0.038,0-0.076-0.004-0.113-0.014c-0.155-0.038-0.281-0.15-0.336-0.299l0,0
		c-0.023-0.062-2.382-6.199-9.341-8.393c-3.581-1.129-6.258-1.828-8.538-1.828c-1.937,0-3.639,0.507-5.691,1.694
		c-0.134,0.077-0.296,0.085-0.437,0.022c-0.141-0.063-0.242-0.191-0.273-0.342c-0.316-1.55-0.133-4.809,2.817-6.046
		c1.777-0.745,3.738-1.123,5.829-1.123c2.615,0,5.372,0.595,8.194,1.769c6.03,2.508,10.248,7.024,10.051,10.753
		c0.026,0.328,0.047,1.961-1.839,3.681C67.395,304.387,67.279,304.431,67.161,304.431z M48.833,292.939
		c2.403,0,5.158,0.717,8.826,1.873c6.093,1.921,8.822,6.555,9.659,8.301c1.161-1.307,1.055-2.368,1.05-2.418
		c-0.003-0.028-0.005-0.062-0.003-0.09c0.201-3.287-3.866-7.52-9.46-9.847c-2.705-1.125-5.338-1.696-7.826-1.696
		c-1.963,0-3.799,0.353-5.458,1.048c-2.19,0.918-2.377,3.167-2.321,4.298C45.233,293.383,46.922,292.939,48.833,292.939z"/>
	<path d="M37.578,308.448c-1.52,0-2.848-0.408-3.947-1.212c-1.398-1.024-2.287-2.61-2.569-4.588
		c-0.481-3.361,0.833-7.452,3.513-10.941c3.053-3.976,7.278-6.445,11.026-6.445c1.52,0,2.848,0.408,3.947,1.212
		c1.398,1.024,2.287,2.61,2.569,4.588c0.481,3.361-0.833,7.452-3.513,10.942C45.552,305.979,41.327,308.448,37.578,308.448z
		 M45.602,286.221c-3.404,0-7.434,2.383-10.266,6.07c-2.526,3.289-3.769,7.111-3.324,10.222c0.245,1.716,1.001,3.082,2.187,3.949
		c0.931,0.682,2.069,1.027,3.381,1.027c3.404,0,7.434-2.383,10.266-6.07c2.526-3.289,3.769-7.111,3.325-10.222
		c-0.245-1.716-1.001-3.082-2.187-3.95C48.051,286.566,46.914,286.221,45.602,286.221z"/>
	<path fill="#FFFFFF" d="M50.445,288.041c-2.681-4.155-6.549-4.969-6.549-4.969c2.445,1.255,3.312,3.686,3.207,7.263
		c-0.105,3.577-3.641,10.072-9.458,13.138c-5.817,3.066-8.986-0.58-8.986-0.58s1.307,3.861,7.118,4.843
		c0,0,5.516,1.501,11.279-4.642c5.763-6.143,5-12.789,3.87-14.278L50.445,288.041z"/>
	<path d="M37.374,308.378C37.374,308.378,37.374,308.378,37.374,308.378c-0.949,0-1.564-0.139-1.696-0.172
		c-6.007-1.024-7.415-4.99-7.472-5.158l-0.78-2.305l1.596,1.837c0.058,0.066,1.48,1.642,4.168,1.642
		c1.333,0,2.758-0.394,4.233-1.172c5.775-3.044,9.107-9.458,9.203-12.728c0.106-3.618-0.803-5.722-2.947-6.823l-3.175-1.63
		l3.492,0.735c0.166,0.035,4.095,0.904,6.853,5.178l0.474,0.766c1.273,1.722,1.966,8.605-3.917,14.876
		C43.361,307.734,39.384,308.378,37.374,308.378z M30.376,304.62c0.989,1.022,2.681,2.171,5.481,2.645l0.046,0.01
		c0.004,0.001,0.556,0.145,1.471,0.145c1.855,0,5.535-0.604,9.332-4.652c5.437-5.796,4.943-12.203,3.838-13.66l-0.026-0.037
		l-0.48-0.776c-1.13-1.751-2.483-2.883-3.639-3.601c0.873,1.369,1.256,3.228,1.184,5.658c-0.105,3.588-3.539,10.293-9.714,13.548
		c-1.614,0.851-3.189,1.282-4.68,1.282C32.06,305.18,31.12,304.936,30.376,304.62z"/>
	<path fill="#1A6F5D" d="M32.121,304.619c0,0-4.294-0.741-4.943-4.339c-0.649-3.599,0.133-7.973,3.75-12.255
		c3.617-4.282,8.928-6.69,12.554-5.138c0,0,1.636,0.379,2.941,2.756c0,0-6.936-0.181-10.89,5.639
		C31.578,297.104,30.593,299.733,32.121,304.619"/>
	<path d="M32.121,305.099c-0.027,0-0.054-0.002-0.081-0.007c-0.189-0.033-4.633-0.842-5.334-4.726
		c-0.548-3.039-0.325-7.701,3.856-12.65c3.012-3.566,7.027-5.781,10.478-5.781c0.939,0,1.814,0.168,2.599,0.498
		c0.306,0.087,1.922,0.643,3.204,2.98c0.083,0.15,0.078,0.334-0.011,0.48c-0.089,0.147-0.252,0.241-0.422,0.23l-0.057,0
		c-0.689,0-6.838,0.152-10.424,5.43c-3.844,5.658-4.818,8.184-3.37,12.862c0.029,0.062,0.046,0.132,0.046,0.205
		c0,0.265-0.214,0.479-0.479,0.479C32.124,305.099,32.122,305.099,32.121,305.099z M41.04,282.893c-3.128,0-6.954,2.136-9.746,5.441
		c-3.94,4.664-4.157,9.024-3.645,11.861c0.419,2.324,2.587,3.349,3.774,3.741c-1.215-4.556-0.058-7.372,3.713-12.923
		c3.247-4.78,8.437-5.657,10.45-5.816c-1.063-1.539-2.164-1.832-2.217-1.845c-0.025-0.006-0.053-0.015-0.076-0.025
		C42.619,283.04,41.861,282.893,41.04,282.893z"/>
	<path fill="#FFFFFF" d="M66.236,308.176c3.178-3.397,2.574-7.121,2.574-7.121c-0.361,2.522-2.478,3.868-6.1,4.585
		c-3.622,0.717-11.426-1.044-16.633-5.669c-5.207-4.625-2.717-8.353-2.717-8.353s-3.388,2.073-2.24,7.613
		c0,0,0.521,5.388,8.79,9.265c8.269,3.877,14.647,1.669,15.724,0.297L66.236,308.176z"/>
	<path d="M59.037,311.152C59.037,311.152,59.037,311.152,59.037,311.152c-3.046,0-6.185-0.748-9.331-2.223
		c-8.201-3.845-9.004-9.138-9.061-9.624c-1.189-5.787,2.314-8.004,2.463-8.096l1.859-1.138l-1.211,1.813
		c-0.089,0.137-2.168,3.46,2.637,7.729c4.41,3.918,10.62,5.702,14.523,5.702c0.64,0,1.212-0.049,1.699-0.145
		c3.644-0.721,5.408-2.011,5.718-4.182l0.444-3.11l0.503,3.101c0.026,0.161,0.604,3.997-2.698,7.525l-0.591,0.606
		C65.169,310.128,62.527,311.152,59.037,311.152z M42.331,293.394c-0.701,1.106-1.321,2.945-0.742,5.738l0.008,0.051
		c0.005,0.049,0.629,5.179,8.516,8.877c2.975,1.395,6.061,2.132,8.924,2.132c3.334,0,5.683-1.013,6.22-1.697l0.034-0.039
		l0.601-0.616c1.379-1.474,2.006-3.016,2.281-4.249c-1.046,1.192-2.811,2.011-5.371,2.518c-0.548,0.109-1.182,0.164-1.885,0.164
		c-4.078,0-10.562-1.86-15.159-5.944C42.652,297.57,42.167,295.055,42.331,293.394z"/>
</g>
<g>
	<path fill="#1A6F5D" d="M74.116,130.792c0,7.69-7.972,13.923-16.215,13.923c-8.244,0-13.638-6.234-13.638-13.923
		c0-7.69,6.683-14.47,14.927-14.372C68.639,116.532,74.116,123.102,74.116,130.792"/>
	<path fill="#FFFFFF" d="M49.989,127.971c0.043,0.17,0.106,0.323,0.232,0.414c0.11,0.079,0.258,0.068,0.377,0.003
		c0.55-0.297,0.882-0.874,1.178-1.434c0.429-0.811,0.838-1.679,0.971-2.581c0.077-0.527-0.528-0.88-0.917-0.535
		c-0.131,0.116-0.251,0.248-0.359,0.38c-0.623,0.764-1.115,1.644-1.448,2.586l-0.041,0.195
		C49.914,127.319,49.908,127.654,49.989,127.971"/>
	<path fill="#FFFFFF" d="M50.401,128.897L50.401,128.897c-0.163,0-0.317-0.049-0.445-0.141c-0.261-0.188-0.358-0.474-0.409-0.673
		c-0.093-0.366-0.097-0.774-0.012-1.179l0.042-0.196c0.004-0.019,0.009-0.039,0.016-0.057c0.352-0.996,0.865-1.912,1.524-2.722
		c0.136-0.167,0.274-0.313,0.41-0.434c0.186-0.164,0.412-0.252,0.655-0.252c0.296,0,0.579,0.131,0.776,0.36
		c0.2,0.231,0.285,0.528,0.24,0.835c-0.143,0.976-0.574,1.888-1.019,2.729c-0.331,0.627-0.71,1.268-1.364,1.622
		C50.686,128.86,50.543,128.897,50.401,128.897z M50.463,126.928l-0.035,0.166c-0.057,0.269-0.055,0.533,0.004,0.765
		c0.009,0.035,0.017,0.063,0.025,0.085c0.389-0.247,0.656-0.709,0.916-1.202c0.406-0.768,0.799-1.595,0.923-2.434
		c0.006-0.042-0.003-0.077-0.028-0.106c-0.023-0.027-0.057-0.044-0.086-0.044c-0.012,0-0.027,0.003-0.05,0.022
		c-0.099,0.088-0.202,0.197-0.307,0.326C51.237,125.227,50.779,126.042,50.463,126.928z"/>
	<path fill="#FFFFFF" d="M51.994,135.77c-0.231,0-0.458-0.119-0.586-0.311c-0.158-0.237-0.154-0.499-0.143-0.673
		c-0.051-0.072-0.083-0.159-0.085-0.253c-0.022-0.817-0.015-1.645,0.02-2.461c0.007-0.167,0.019-0.446,0.199-0.681
		c0.141-0.184,0.375-0.294,0.6-0.284c0.211,0.007,0.396,0.11,0.509,0.281c0.116,0.176,0.116,0.361,0.116,0.46l0,3.224
		c0,0.076,0,0.217-0.074,0.362c-0.101,0.197-0.294,0.321-0.518,0.334C52.02,135.769,52.007,135.77,51.994,135.77z"/>
	<path d="M57.882,115.905c0.023-3.855,0.045-7.71,0.068-11.564c0.586,3.518,1.173,7.036,1.759,10.554l4.374,0.044
		c-1.515,0.531-2.967,1.26-4.311,2.165c-0.139,0.094-0.289,0.207-0.321,0.376c-0.033,0.172,0.068,0.339,0.163,0.483
		c0.72,1.088,1.439,2.175,2.159,3.263c-0.949-1.22-2.035-2.323-3.23-3.278c-0.471,1.858-1.142,3.662-1.996,5.364
		c0.102-1.806,0.204-3.612,0.307-5.418c0.006-0.104,0.008-0.219-0.057-0.299c-0.068-0.083-0.184-0.095-0.288-0.102
		c-0.902-0.057-1.804-0.114-2.705-0.17c0.933-0.253,1.865-0.505,2.798-0.757c-0.582-1.061-1.165-2.122-1.747-3.184
		c0.861,0.965,1.852,1.804,2.934,2.483"/>
	<path d="M56.548,123.768c-0.039,0-0.078-0.005-0.118-0.015c-0.209-0.056-0.35-0.251-0.338-0.467l0.302-5.343l-2.619-0.165
		c-0.223-0.014-0.403-0.187-0.425-0.409c-0.022-0.222,0.119-0.428,0.335-0.486l2.238-0.606l-1.468-2.675
		c-0.112-0.203-0.053-0.458,0.137-0.592c0.19-0.134,0.449-0.104,0.604,0.069c0.671,0.753,1.421,1.423,2.234,1.999l0.063-10.74
		c0.001-0.237,0.184-0.433,0.42-0.452c0.235-0.019,0.447,0.146,0.486,0.38l1.696,10.177l3.992,0.04
		c0.221,0.002,0.409,0.163,0.446,0.382s-0.09,0.432-0.299,0.505c-1.48,0.518-2.895,1.229-4.207,2.113
		c-0.062,0.042-0.097,0.069-0.117,0.087c0.014,0.031,0.042,0.079,0.084,0.142l2.159,3.263c0.135,0.204,0.085,0.479-0.114,0.622
		c-0.199,0.143-0.476,0.103-0.626-0.09c-0.781-1.004-1.658-1.928-2.613-2.752c-0.464,1.645-1.083,3.244-1.845,4.763
		C56.877,123.674,56.718,123.768,56.548,123.768z M56.591,117.042c0.141,0.012,0.386,0.052,0.56,0.264
		c0.182,0.222,0.166,0.487,0.159,0.614l-0.165,2.918c0.379-0.979,0.699-1.983,0.957-3.003c0.038-0.15,0.15-0.271,0.297-0.32
		c0.147-0.049,0.309-0.021,0.43,0.076c0.06,0.048,0.121,0.097,0.18,0.146c-0.023-0.105-0.03-0.22-0.006-0.343
		c0.071-0.371,0.37-0.573,0.515-0.67c0.751-0.506,1.534-0.958,2.343-1.353l-2.157-0.022c-0.221-0.002-0.409-0.163-0.445-0.381
		l-0.884-5.302l-0.037,6.24c-0.002,0.251-0.205,0.454-0.456,0.454c-0.001,0-0.002,0-0.003,0c-0.081,0-0.157-0.022-0.222-0.059
		c-0.038-0.011-0.075-0.028-0.11-0.05c-0.328-0.206-0.648-0.426-0.958-0.659l0.413,0.753c0.068,0.123,0.075,0.269,0.02,0.398
		c-0.055,0.129-0.166,0.225-0.301,0.262L56.591,117.042z"/>
</g>
<g>
	<path fill="#FFFFFF" d="M14.846,200.614c0,0,32.809,11.868,44.539,19.569l-12.227,24.336c0,0-33.665-15.019-44.584-19.207
		L14.846,200.614z"/>
	<path d="M47.341,245.031l-0.343-0.153c-0.337-0.15-33.78-15.062-44.564-19.199l-0.404-0.155l12.621-25.4l0.33,0.119
		c0.329,0.119,32.987,11.972,44.622,19.61l0.293,0.192L47.341,245.031z M3.119,225.1c10.587,4.108,40.316,17.33,43.856,18.906
		l11.9-23.685c-11.16-7.177-40.393-17.959-43.834-19.216L3.119,225.1z"/>
	<path d="M15.402,206.946c0,0,6.558,2.067,14.144,6.193l-7.83,16.169c0,0-7.275-3.218-14.173-5.954L15.402,206.946z"/>
	<path d="M21.904,229.822l-0.348-0.154c-0.073-0.032-7.348-3.247-14.159-5.948l-0.392-0.156l8.19-17.097l0.326,0.103
		c0.066,0.021,6.682,2.126,14.214,6.223l0.33,0.179L21.904,229.822z M8.079,223.144c5.858,2.333,11.947,4.992,13.447,5.65
		l7.501-15.488c-6.384-3.436-12.033-5.414-13.42-5.879L8.079,223.144z"/>
	<path d="M42.278,226.549c-0.054,0-0.109-0.011-0.161-0.035l-1.87-0.842c-0.191-0.086-0.282-0.307-0.205-0.503
		c0.051-0.131,0.006-0.262-0.041-0.349c-0.099-0.184-0.298-0.335-0.494-0.376c-0.363-0.076-0.803,0.052-1.307,0.381
		c-0.146,0.094-0.335,0.083-0.468-0.028c-0.133-0.111-0.177-0.296-0.11-0.456l0.076-0.178c-0.429-0.211-0.958-0.239-1.396-0.061
		c-0.152,0.062-0.327,0.023-0.439-0.099c-0.111-0.121-0.135-0.299-0.06-0.446c0.301-0.587,0.513-1.36,0.119-1.608
		c-0.276-0.174-0.718,0.038-0.969,0.334c-0.167,0.197-0.299,0.433-0.438,0.684c-0.133,0.239-0.271,0.486-0.45,0.717
		c-0.131,0.17-0.375,0.202-0.547,0.074c-0.172-0.129-0.209-0.371-0.084-0.545c0.479-0.666,0.753-1.463,0.788-2.278
		c-0.572,0.054-1.119,0.343-1.502,0.773c-0.137,0.325-0.324,0.619-0.495,0.889c-0.105,0.166-0.317,0.229-0.497,0.147
		c-0.179-0.082-0.27-0.284-0.212-0.472c0.107-0.352,0.285-0.677,0.515-0.961c0.041-0.108,0.072-0.217,0.09-0.329
		c0.054-0.324-0.037-0.737-0.315-0.9c-0.319-0.189-0.787,0.007-1.038,0.296c-0.322,0.371-0.464,0.918-0.589,1.401
		c-0.054,0.21-0.268,0.337-0.48,0.283c-0.211-0.055-0.337-0.269-0.283-0.48c0.139-0.539,0.313-1.21,0.757-1.72
		c0.461-0.531,1.331-0.871,2.032-0.458c0.432,0.255,0.647,0.706,0.702,1.156c0.525-0.306,1.134-0.462,1.74-0.412
		c0.197,0.017,0.351,0.177,0.36,0.374c0.012,0.253,0.004,0.506-0.023,0.757c0.429-0.214,0.932-0.263,1.357,0.005
		c0.566,0.357,0.722,1.049,0.458,1.916c0.576-0.028,1.167,0.142,1.63,0.494c0.034,0.026,0.063,0.056,0.086,0.09
		c0.406-0.148,0.791-0.186,1.152-0.11c0.423,0.089,0.816,0.385,1.025,0.772c0.111,0.206,0.164,0.423,0.158,0.635l1.588,0.715
		c0.198,0.089,0.287,0.322,0.198,0.521C42.571,226.463,42.428,226.549,42.278,226.549z"/>
	<path d="M40.062,229.707c-0.042,0-0.086-0.007-0.128-0.022l-2.166-0.746c-0.126-0.043-0.221-0.147-0.254-0.276
		c-0.032-0.129,0.002-0.265,0.092-0.363c0.19-0.206,0.256-0.524,0.179-0.852c-0.078-0.327-0.281-0.582-0.543-0.68
		c-0.262-0.099-0.582-0.041-0.856,0.155c-0.274,0.195-0.433,0.479-0.426,0.759c0.003,0.133-0.06,0.258-0.169,0.334
		c-0.109,0.076-0.249,0.091-0.372,0.041l-2.015-0.815c-0.138-0.056-0.233-0.185-0.245-0.334c-0.012-0.149,0.062-0.291,0.19-0.368
		c0.074-0.045,0.065-0.16,0.058-0.208c-0.024-0.157-0.127-0.296-0.241-0.324c-0.227-0.056-0.472,0.087-0.632,0.293
		c-0.044,0.146-0.117,0.282-0.219,0.401c-0.122,0.142-0.328,0.178-0.491,0.087c-0.163-0.092-0.24-0.286-0.182-0.464
		c0.037-0.114,0.088-0.225,0.151-0.332c0.004-0.072-0.011-0.14-0.025-0.187c-0.065-0.213-0.232-0.39-0.416-0.441
		c-0.425-0.117-0.901,0.171-1.16,0.523c-0.007,0.01-0.014,0.019-0.021,0.029c-0.129,0.173-0.372,0.21-0.547,0.083
		c-0.174-0.127-0.215-0.37-0.09-0.546c0.006-0.008,0.011-0.016,0.017-0.023c0.086-0.127,0.103-0.308,0.045-0.488
		c-0.06-0.187-0.187-0.328-0.339-0.376c-0.151-0.048-0.336-0.006-0.493,0.113c-0.157,0.119-0.248,0.284-0.244,0.443
		c0.006,0.217-0.165,0.399-0.382,0.405c-0.214,0.003-0.399-0.165-0.405-0.382c-0.012-0.413,0.196-0.823,0.556-1.094
		c0.36-0.272,0.81-0.36,1.205-0.235c0.394,0.125,0.712,0.456,0.851,0.885c0.005,0.015,0.009,0.03,0.014,0.044
		c0.388-0.19,0.816-0.248,1.204-0.141c0.373,0.103,0.699,0.392,0.877,0.761c0.273-0.145,0.588-0.204,0.915-0.123
		c0.425,0.105,0.759,0.495,0.831,0.971c0.026,0.17,0.014,0.334-0.031,0.482l1.108,0.448c0.118-0.334,0.349-0.637,0.666-0.863
		c0.488-0.348,1.082-0.441,1.59-0.251c0.508,0.191,0.894,0.652,1.032,1.235c0.09,0.379,0.064,0.758-0.066,1.087l1.705,0.587
		c0.206,0.071,0.315,0.295,0.244,0.501C40.378,229.604,40.226,229.707,40.062,229.707z"/>
	<path d="M32.462,231.135c-0.099,0-0.198-0.037-0.274-0.111c-0.156-0.151-0.16-0.401-0.008-0.557
		c0.13-0.134,0.107-0.313,0.064-0.439c-0.102-0.305-0.395-0.568-0.683-0.612c-0.618-0.096-1.25,0.274-1.898,0.695
		c-0.143,0.093-0.329,0.083-0.462-0.024c-0.132-0.107-0.181-0.287-0.121-0.446c0.184-0.483,0.206-0.81,0.064-0.944
		c-0.119-0.113-0.393-0.078-0.574,0.074c-0.164,0.137-0.283,0.344-0.382,0.561c-0.034,0.129-0.088,0.253-0.163,0.368
		c-0.111,0.17-0.333,0.228-0.513,0.134c-0.18-0.094-0.259-0.31-0.182-0.498c0.033-0.08,0.067-0.164,0.105-0.25
		c0.03-0.173-0.021-0.368-0.143-0.488c-0.169-0.166-0.477-0.195-0.674-0.063c-0.181,0.122-0.425,0.074-0.547-0.107
		c-0.121-0.18-0.074-0.425,0.107-0.546c0.51-0.344,1.227-0.278,1.666,0.154c0.059,0.058,0.111,0.12,0.156,0.187
		c0.021-0.019,0.042-0.038,0.064-0.056c0.435-0.365,1.161-0.48,1.622-0.042c0.257,0.244,0.338,0.555,0.338,0.854
		c0.487-0.247,1.056-0.435,1.656-0.342c0.576,0.089,1.114,0.558,1.309,1.14c0.156,0.465,0.066,0.917-0.246,1.238
		C32.667,231.095,32.564,231.135,32.462,231.135z"/>
	<path fill="#FFFFFF" d="M19.097,227.36c1.313-1.525,1.267-4.04-0.1-5.517c-0.085-0.092-0.178-0.187-0.203-0.309
		c-0.022-0.11,0.014-0.223,0.055-0.327c0.604-1.536,2.163-2.452,3.173-3.758c0.813-1.052,1.262-2.379,1.254-3.708
		c-0.001-0.202-0.017-0.418-0.137-0.581c-0.098-0.134-0.254-0.214-0.407-0.28c-1.89-0.818-4.307-0.148-5.507,1.525
		c-0.86,1.199-1.086,2.73-1.226,4.199l-0.368,0.921c-0.058,0.674-0.597,1.278-1.26,1.413c-0.596,0.121-1.256-0.101-1.801,0.168
		c-0.179,0.088-0.33,0.223-0.473,0.361c-0.729,0.699-1.338,1.522-1.793,2.424"/>
	<path d="M52.746,226.02c-6.23-3.771-20.727-9.177-20.872-9.231l1.029-2.768c0.606,0.225,14.906,5.559,21.373,9.473L52.746,226.02z"
		/>
	<path d="M49.453,234.011c-0.126,0-0.251-0.042-0.36-0.126c-0.26-0.201-0.383-0.611-0.279-0.933
		c0.029-0.092,0.068-0.179,0.102-0.255c0.031-0.07,0.087-0.196,0.089-0.247c-0.065-0.017-0.241,0.006-0.389,0.103
		c-0.042,0.028-0.085,0.057-0.128,0.087c-0.302,0.208-0.714,0.492-1.2,0.351c-0.109-0.032-0.199-0.109-0.247-0.212
		c-0.048-0.103-0.049-0.221-0.003-0.325l0.311-0.702c-0.318,0.051-0.625,0.182-0.88,0.377l-0.023,0.018
		c-0.111,0.086-0.262,0.203-0.478,0.228c-0.212,0.023-0.394-0.057-0.503-0.106l-1.836-0.827c-0.198-0.089-0.287-0.322-0.197-0.521
		c0.089-0.198,0.322-0.287,0.521-0.197l1.835,0.827c0.022,0.01,0.063,0.028,0.089,0.037c0.024-0.015,0.06-0.043,0.086-0.063
		l0.027-0.021c0.431-0.329,0.967-0.528,1.508-0.559c0.27-0.016,0.473,0.061,0.605,0.227c0.156,0.194,0.167,0.446,0.032,0.75
		l-0.005,0.011c0.018-0.012,0.036-0.024,0.053-0.036c0.25-0.164,0.678-0.312,1.062-0.194c0.227,0.07,0.4,0.227,0.488,0.44
		c0.14,0.339,0.003,0.648-0.097,0.874c-0.026,0.059-0.053,0.118-0.072,0.177c0.127,0.003,0.25,0.067,0.323,0.182
		c0.117,0.183,0.063,0.427-0.12,0.544C49.668,233.98,49.56,234.011,49.453,234.011z"/>
	<path d="M47.71,237.639c-0.019,0-0.038-0.001-0.057-0.004c-0.215-0.031-0.364-0.231-0.333-0.446
		c0.016-0.112-0.112-0.264-0.274-0.325c-0.23-0.087-0.522-0.06-0.804-0.033c-0.175,0.017-0.34-0.086-0.403-0.25
		c-0.064-0.164-0.011-0.35,0.129-0.456c0.089-0.067,0.145-0.19,0.149-0.329c0.004-0.138-0.044-0.264-0.129-0.336
		c-0.085-0.073-0.217-0.1-0.353-0.074c-0.136,0.026-0.249,0.1-0.301,0.199c-0.025,0.047-0.046,0.098-0.067,0.15
		c-0.096,0.23-0.242,0.577-0.638,0.654c-0.226,0.044-0.421-0.035-0.538-0.082l-2.166-0.868c-0.095-0.038-0.318-0.127-0.416-0.364
		c-0.097-0.233-0.005-0.453,0.026-0.525c0.055-0.132,0.121-0.251,0.184-0.365c0.076-0.137,0.147-0.267,0.184-0.392
		c0.043-0.147,0.005-0.293-0.041-0.316c-0.053-0.027-0.227,0.055-0.365,0.237c-0.045,0.06-0.088,0.124-0.131,0.188
		c-0.162,0.24-0.346,0.513-0.665,0.671c-0.098,0.049-0.211,0.055-0.314,0.016c-0.102-0.038-0.184-0.118-0.226-0.219
		c-0.101-0.246-0.086-0.507-0.073-0.717c0.006-0.102,0.017-0.272-0.007-0.316c-0.061-0.011-0.281,0.106-0.387,0.161
		c-0.04,0.021-0.08,0.042-0.119,0.061c-0.834,0.417-1.931,0.208-2.554-0.485c-0.145-0.162-0.132-0.411,0.03-0.556
		c0.162-0.145,0.411-0.132,0.556,0.03c0.388,0.431,1.097,0.566,1.616,0.307c0.035-0.017,0.07-0.036,0.106-0.055
		c0.312-0.163,0.783-0.409,1.213-0.1c0.206,0.147,0.291,0.345,0.323,0.542c0.001-0.001,0.002-0.002,0.002-0.003
		c0.309-0.41,0.844-0.714,1.341-0.47c0.466,0.229,0.579,0.798,0.45,1.242c-0.061,0.209-0.161,0.392-0.25,0.553
		c-0.034,0.062-0.067,0.122-0.097,0.181l2.072,0.83c0.017,0.007,0.05,0.02,0.077,0.029c0.026-0.044,0.058-0.12,0.08-0.175
		c0.031-0.075,0.063-0.149,0.099-0.216c0.166-0.312,0.475-0.532,0.849-0.603c0.374-0.072,0.742,0.019,1.011,0.249
		c0.269,0.229,0.416,0.578,0.405,0.959c-0.002,0.072-0.01,0.141-0.022,0.21c0.147,0.014,0.296,0.044,0.442,0.099
		c0.446,0.168,0.856,0.626,0.776,1.175C48.07,237.498,47.902,237.639,47.71,237.639z"/>
	<path fill="#196C5A" d="M37.781,198.271l-4.234,8.147c0,0-2.611,4.481,1.774,6.84c2.411,1.297,4.216,0.684,5.352-0.131
		c0.726-0.521,1.295-1.23,1.687-2.032l4.17-8.533C44.939,201.44,37.781,198.271,37.781,198.271"/>
</g>
<g>
	<path fill="#05120E" d="M114.328,36.359l1.924,1.604c0,0,16.615-14.261,19.246-16.634l20.096,16.847l2.02-1.937L135.38,17.587
		L114.328,36.359z"/>
	<path d="M155.616,38.819l-20.108-16.857c-3.39,3.012-18.783,16.226-18.944,16.364l-0.307,0.264l-2.662-2.219l21.775-19.417
		l22.96,19.262L155.616,38.819z M135.486,20.694l20.086,16.839l1.325-1.27L135.389,18.22l-20.328,18.127l1.186,0.989
		c2.283-1.96,16.531-14.199,18.93-16.362L135.486,20.694z"/>
	<path fill="#FFFFFF" d="M136.111,37.583c0,0,1.856-4.992,7.056-4.917c0,0,4.833-0.833,6.917,6.75c0,0,2.138,9.417-13.973,15.917
		c0,0-15.194-5.833-14.111-15.333c0,0,0.417-5.387,5.083-7.36C131.75,30.667,136.305,36.917,136.111,37.583z"/>
	<path d="M136.157,55.719h-0.093c-0.062,0-0.123-0.012-0.18-0.035c-5.903-2.392-9.978-5.341-12.457-9.016
		c-1.439-2.133-2.089-4.28-1.882-6.208c0.219-2.037,0.745-3.679,1.656-5.166c0.646-1.054,1.883-2.075,2.823-2.618
		c0.703-0.406,1.555-0.604,2.602-0.604c0.115,0,0.231,0.002,0.346,0.007c2.763,0.108,5.878,1.638,7.139,4.392
		c1.26-2.754,4.375-4.283,7.138-4.392c0.115-0.004,0.23-0.007,0.346-0.007c1.047,0,1.899,0.197,2.602,0.604
		c0.94,0.543,2.177,1.563,2.823,2.618c0.911,1.487,1.437,3.129,1.656,5.166c0.207,1.929-0.444,4.075-1.882,6.208
		c-2.479,3.675-6.553,6.624-12.456,9.016C136.28,55.707,136.219,55.719,136.157,55.719z M128.627,33.031
		c-0.875,0-1.569,0.155-2.123,0.475c-0.808,0.467-1.93,1.382-2.485,2.289c-0.834,1.362-1.317,2.877-1.521,4.768
		c-0.231,2.148,0.81,4.215,1.724,5.57c2.35,3.485,6.24,6.302,11.889,8.61c5.649-2.308,9.538-5.125,11.889-8.61
		c0.914-1.355,1.955-3.421,1.724-5.57c-0.203-1.891-0.687-3.406-1.521-4.768c-0.555-0.906-1.678-1.822-2.486-2.289
		c-0.554-0.32-1.248-0.475-2.123-0.475c-0.103,0-0.206,0.002-0.308,0.006c-2.716,0.106-5.972,1.85-6.655,4.87
		c-0.049,0.218-0.243,0.373-0.467,0.373h-0.107c-0.224,0-0.418-0.155-0.467-0.373c-0.684-3.021-3.939-4.764-6.656-4.87
		C128.832,33.033,128.73,33.031,128.627,33.031z"/>
</g>
<g>
	<path d="M257.095,28.711c-0.102,0-0.202-0.03-0.288-0.088c-0.21-0.141-5.146-3.526-5.539-9.046
		c-0.385-5.403,2.012-10.73,2.114-10.955c0.064-0.14,0.186-0.244,0.335-0.284c0.148-0.04,0.306-0.012,0.432,0.077
		c0.177,0.126,4.346,3.154,4.953,9.687c0.6,6.46-1.471,10.192-1.559,10.348c-0.071,0.125-0.191,0.214-0.33,0.247
		C257.174,28.706,257.134,28.711,257.095,28.711z M254.058,9.683c-0.611,1.555-2.053,5.729-1.761,9.82
		c0.288,4.054,3.391,6.925,4.604,7.9c0.519-1.217,1.618-4.449,1.176-9.206C257.638,13.474,255.144,10.687,254.058,9.683z"/>
	<path d="M239.386,40.162C239.386,40.162,239.386,40.162,239.386,40.162c-5.071,0-8.274-2.398-8.408-2.5
		c-0.113-0.086-0.186-0.216-0.2-0.358c-0.014-0.142,0.031-0.283,0.125-0.391l1.724-1.975c0.013-0.014,0.026-0.028,0.04-0.041
		c3.268-2.993,7.991-4.51,14.04-4.51c5.784,0,10.597,1.404,10.8,1.464c0.187,0.055,0.327,0.212,0.361,0.404
		c0.034,0.192-0.044,0.387-0.2,0.504c-0.063,0.047-6.429,4.734-13.818,6.784C242.365,39.953,240.864,40.162,239.386,40.162z
		 M232.065,37.147c1.022,0.623,3.673,1.984,7.32,1.984h0c1.385,0,2.794-0.196,4.187-0.583c5.593-1.552,10.587-4.654,12.571-5.987
		c-1.735-0.414-5.379-1.146-9.438-1.146c-5.769,0-10.252,1.42-13.323,4.221L232.065,37.147z"/>
	<path d="M232.757,38.009c-0.24,0-0.455-0.168-0.504-0.412c-0.057-0.279,0.123-0.551,0.402-0.608l24.017-4.904l-3.669-21.398
		c-0.048-0.28,0.14-0.547,0.421-0.595c0.283-0.048,0.547,0.14,0.595,0.421l3.753,21.89c0.047,0.274-0.132,0.536-0.405,0.592
		l-24.506,5.004C232.826,38.006,232.791,38.009,232.757,38.009z"/>
	<path d="M261.408,35.947c-0.109,0-0.219-0.034-0.312-0.106l-11.665-8.893c-8.881-1.881-13.559-5.963-15.922-9.064
		c-2.542-3.336-3.02-6.227-3.055-6.457c-0.004-0.025-0.006-0.051-0.007-0.076c-0.001-0.031,0.002-0.062,0.007-0.092
		c0.017-0.102,0.065-0.2,0.142-0.278c0.008-0.008,0.017-0.016,0.025-0.024c0.009-0.008,0.019-0.016,0.029-0.024
		c0.084-0.064,0.182-0.098,0.281-0.104c0,0,0.001,0,0.001,0l0,0c0.041-0.002,0.081,0,0.122,0.007
		c0.017,0.003,0.034,0.007,0.052,0.012c9.079,2.509,16.742,12.563,17.063,12.989c0.134,0.178,0.139,0.421,0.012,0.604
		c-0.127,0.183-0.357,0.263-0.57,0.2c-5.86-1.744-12.578-8.237-15.528-11.323c0.427,1.082,1.134,2.495,2.283,3.991
		c2.269,2.955,6.78,6.856,15.389,8.653c0.075,0.016,0.146,0.048,0.207,0.095l11.757,8.963c0.226,0.172,0.27,0.496,0.097,0.722
		C261.717,35.877,261.564,35.947,261.408,35.947z M232.723,12.486c2.546,2.662,8.217,8.194,13.426,10.512
		C243.883,20.364,238.669,14.878,232.723,12.486z"/>
	<path d="M260.367,44.74c0,0-1.927-4.893-3.517-6.322c-1.59-1.429,2.089-0.566,3.228,2.326
		C261.216,43.635,261.782,45.724,260.367,44.74"/>
	<path d="M225.021,30.52c0,0,3.107-7.649,5.976-5.976c0,0,0.239,0.239-1.912,1.912C226.933,28.13,225.021,32.91,225.021,30.52"/>
	<path d="M264.741,25.465c0,0,0.208-8.253,3.482-7.7c0,0,0.308,0.139-1.114,2.464S265.584,27.702,264.741,25.465"/>
</g>
<polygon points="420.288,83.984 422.391,74.169 422.391,86.554 "/>
<path d="M422.391,87.045c-0.144,0-0.285-0.064-0.38-0.18l-2.103-2.57c-0.094-0.115-0.131-0.268-0.1-0.413l2.103-9.815
	c0.053-0.245,0.283-0.413,0.531-0.385c0.249,0.026,0.439,0.237,0.439,0.488v12.385c0,0.207-0.13,0.392-0.325,0.462
	C422.501,87.035,422.446,87.045,422.391,87.045z M420.817,83.856l1.084,1.324v-6.381L420.817,83.856z"/>
<polygon points="424.494,89.125 422.391,98.939 422.391,86.554 "/>
<path d="M422.391,99.43c-0.017,0-0.035-0.001-0.052-0.003c-0.249-0.026-0.439-0.237-0.439-0.488V86.554
	c0-0.207,0.13-0.392,0.326-0.462c0.194-0.069,0.413-0.009,0.544,0.151l2.103,2.57c0.094,0.115,0.131,0.268,0.1,0.413l-2.103,9.815
	C422.821,99.27,422.62,99.43,422.391,99.43z M422.881,87.928v6.38l1.083-5.056L422.881,87.928z"/>
<polygon points="424.961,84.451 434.776,86.554 422.391,86.554 "/>
<path d="M434.78,87.045c-0.001,0-0.003,0-0.005,0h-12.385c-0.207,0-0.392-0.13-0.462-0.326c-0.07-0.195-0.009-0.413,0.151-0.545
	l2.571-2.103c0.115-0.094,0.268-0.131,0.413-0.1l9.787,2.097c0.238,0.034,0.42,0.239,0.42,0.485
	C435.271,86.825,435.051,87.045,434.78,87.045z M423.765,86.064h6.381l-5.056-1.084L423.765,86.064z"/>
<polygon points="419.82,88.657 410.005,86.554 422.391,86.554 "/>
<path d="M419.82,89.148c-0.034,0-0.069-0.004-0.103-0.011l-9.815-2.103c-0.245-0.053-0.411-0.282-0.385-0.531
	c0.027-0.25,0.237-0.439,0.488-0.439h12.385c0.207,0,0.392,0.13,0.462,0.326c0.07,0.195,0.009,0.413-0.151,0.545l-2.57,2.103
	C420.043,89.109,419.932,89.148,419.82,89.148z M414.636,87.045l5.057,1.084l1.324-1.084H414.636z"/>
<path d="M422.391,87.045c-0.055,0-0.111-0.009-0.165-0.029c-0.195-0.07-0.326-0.255-0.326-0.462V74.169
	c0-0.251,0.189-0.461,0.439-0.488c0.248-0.027,0.479,0.14,0.531,0.385l2.103,9.815c0.031,0.146-0.006,0.298-0.1,0.413l-2.103,2.57
	C422.676,86.981,422.535,87.045,422.391,87.045z M422.881,78.8v6.38l1.083-1.324L422.881,78.8z"/>
<path d="M422.39,99.43c-0.229,0-0.43-0.16-0.479-0.388l-2.103-9.815c-0.031-0.146,0.006-0.298,0.1-0.413l2.103-2.57
	c0.132-0.161,0.349-0.221,0.545-0.151c0.195,0.07,0.325,0.255,0.325,0.462v12.385c0,0.251-0.189,0.461-0.439,0.488
	C422.425,99.429,422.407,99.43,422.39,99.43z M420.817,89.253l1.084,5.056v-6.381L420.817,89.253z"/>
<path d="M422.391,87.045h-12.385c-0.251,0-0.461-0.189-0.488-0.439c-0.026-0.249,0.14-0.479,0.385-0.531l9.815-2.103
	c0.145-0.031,0.298,0.005,0.413,0.1l2.57,2.103c0.16,0.131,0.221,0.349,0.151,0.545C422.783,86.914,422.598,87.045,422.391,87.045z
	 M414.636,86.064h6.381l-1.324-1.084L414.636,86.064z"/>
<path d="M424.961,89.148c-0.112,0-0.222-0.039-0.311-0.111l-2.571-2.103c-0.16-0.131-0.221-0.349-0.151-0.545
	c0.07-0.195,0.255-0.326,0.462-0.326h12.385c0.251,0,0.461,0.189,0.488,0.439c0.026,0.25-0.14,0.479-0.385,0.531l-9.814,2.103
	C425.03,89.144,424.995,89.148,424.961,89.148z M423.765,87.045l1.324,1.084l5.056-1.084H423.765z"/>
<path d="M422.483,101.162c-1.982,0-3.794-0.295-5.385-0.876c-2.189-0.799-4.314-2.255-6.318-4.328
	c-1.515-1.567-2.909-4.466-3.242-6.743c-0.002-0.016-0.004-0.031-0.005-0.047l-0.086-1.767c-0.001-0.025,0-0.05,0.002-0.075
	c0.681-6.507,2.224-8.914,5.652-12.161c1.969-1.866,3.821-2.348,6.037-2.785c0.713-0.14,1.46-0.209,2.284-0.209
	c1.535,0,3.071,0.241,4.513,0.487c2.037,0.348,3.936,1.366,5.645,3.027c1.806,1.757,3.229,3.393,4.303,5.663
	c1.137,2.403,1.484,4.094,0.692,8.342c-0.276,1.482-1.385,3.873-2.373,5.117c-1.649,2.078-3.502,4.154-5.871,5.263
	c-1.406,0.659-3.011,1.001-5.051,1.076C423.015,101.157,422.749,101.162,422.483,101.162z M408.512,89.097
	c0.313,2.095,1.588,4.748,2.973,6.18c1.9,1.965,3.902,3.34,5.95,4.088c1.483,0.542,3.182,0.816,5.049,0.816
	c0.254,0,0.508-0.005,0.761-0.014c1.904-0.071,3.389-0.383,4.672-0.984c2.185-1.024,3.944-3.001,5.519-4.985
	c0.891-1.123,1.928-3.357,2.177-4.687c0.776-4.166,0.388-5.621-0.615-7.743c-1.011-2.138-2.371-3.697-4.101-5.379
	c-1.563-1.52-3.288-2.45-5.126-2.763c-1.4-0.239-2.889-0.473-4.347-0.473c-0.76,0-1.445,0.062-2.094,0.19
	c-2.127,0.419-3.771,0.847-5.552,2.535c-3.12,2.955-4.666,5.057-5.347,11.514L408.512,89.097z"/>
<path d="M422.545,104.454c-2.434,0-4.658-0.362-6.61-1.075c-2.687-0.981-5.297-2.77-7.758-5.316
	c-1.855-1.919-3.563-5.471-3.971-8.262c-0.002-0.016-0.004-0.031-0.005-0.047l-0.107-2.182c-0.001-0.025,0-0.05,0.002-0.075
	c0.837-7.997,2.733-10.955,6.944-14.944c2.409-2.282,4.679-2.874,7.398-3.409c0.872-0.172,1.787-0.256,2.798-0.256
	c1.885,0,3.776,0.296,5.552,0.599c2.492,0.426,4.817,1.673,6.909,3.707c2.221,2.16,3.971,4.171,5.29,6.959
	c1.392,2.944,1.818,5.016,0.846,10.23c-0.338,1.814-1.696,4.743-2.906,6.268c-2.027,2.555-4.304,5.106-7.208,6.466
	c-1.722,0.806-3.69,1.225-6.193,1.318C423.194,104.448,422.865,104.454,422.545,104.454z M405.179,89.682
	c0.388,2.61,1.977,5.915,3.702,7.699c2.357,2.439,4.843,4.146,7.39,5.076c2.089,0.763,4.51,1.097,7.217,0.997
	c2.367-0.088,4.214-0.478,5.813-1.226c2.72-1.274,4.902-3.727,6.855-6.187c1.11-1.398,2.401-4.181,2.71-5.838
	c0.965-5.176,0.482-6.988-0.768-9.63c-1.256-2.655-2.942-4.589-5.087-6.675c-1.947-1.893-4.097-3.052-6.39-3.443
	c-1.734-0.296-3.578-0.585-5.387-0.585c-0.946,0-1.799,0.078-2.608,0.237c-2.646,0.521-4.69,1.053-6.913,3.159
	c-4.019,3.807-5.832,6.639-6.639,14.297L405.179,89.682z"/>
<path d="M421.803,69.87c-0.13,0-0.255-0.052-0.347-0.143c-0.092-0.092-0.144-0.217-0.144-0.347v-2.998
	c-0.832-0.214-1.866-0.747-1.866-1.759c0-1.047,0.951-1.577,2.827-1.577c2.337,0,2.827,1.005,2.827,1.849
	c0,0.118-0.053,1.092-1.753,1.491v2.992c0,0.271-0.219,0.49-0.49,0.491L421.803,69.87C421.803,69.87,421.803,69.87,421.803,69.87z
	 M422.274,64.027c-1.526,0-1.846,0.324-1.846,0.596c0,0.545,1.141,0.827,1.447,0.873c0.24,0.036,0.419,0.242,0.419,0.485v2.907
	h0.074v-2.907c0-0.242,0.176-0.448,0.415-0.485c1.001-0.155,1.3-0.497,1.337-0.63C424.11,64.47,423.873,64.027,422.274,64.027z"/>
<path d="M422.274,68.818c-2.268,0-4.113-1.845-4.113-4.113c0-2.268,1.845-4.113,4.113-4.113c2.268,0,4.113,1.845,4.113,4.113
	C426.386,66.973,424.541,68.818,422.274,68.818z M422.274,61.573c-1.727,0-3.132,1.405-3.132,3.132c0,1.727,1.405,3.132,3.132,3.132
	c1.727,0,3.132-1.405,3.132-3.132C425.405,62.978,424.001,61.573,422.274,61.573z"/>
<path d="M125.412,256.232c-1.76-1.742-3.91-3.35-6.071-4.755c3.274-4.385,5.619-8.548,2.856-8.693
	c-2.678-0.141-5.291,2.789-7.347,6.031c-2.297-1.247-4.246-2.153-5.257-2.604c-0.216-0.096-0.426,0.145-0.301,0.346
	c0.981,1.573,2.361,4.261,3.339,6.224c-1.198,2.399-1.919,4.282-1.919,4.282c-3.725-1.863-6.208,0-6.208,0l6.208,4.656
	c0,0,2.65-2.84,5.53-6.32c2.92,0.331,7.269,0.984,8.966,1.243C125.44,256.678,125.579,256.396,125.412,256.232"/>
<g>
	<path d="M297.185,85.069c0.016-0.412,0.164-0.845,0.439-1.285c1.134-1.816,2.822-1.745,3.91-1.326
		c0.112-0.554,0.371-1.337,0.965-1.803c0.457-0.358,1.019-0.471,1.67-0.336c1.185,0.245,1.835,1.126,1.785,2.418
		c-0.005,0.141-0.019,0.275-0.036,0.396c0.703-0.001,1.868,0.126,2.697,0.874c0.663,0.598,0.977,1.46,0.934,2.561
		c-0.043,1.097-0.42,1.904-1.122,2.398c-0.894,0.629-2.082,0.561-2.789,0.44c-0.01,0.589-0.161,1.461-0.861,2.046
		c-0.6,0.502-1.468,0.678-2.58,0.523c-1.921-0.268-2.936-1.516-2.858-3.514c0.014-0.36,0.063-0.68,0.111-0.918
		C298.679,87.272,297.127,86.542,297.185,85.069z M305.083,82.703c0.05-1.295-0.808-1.472-1.09-1.53
		c-0.394-0.082-0.707-0.026-0.956,0.169c-0.547,0.427-0.702,1.437-0.716,1.789l-0.029,0.751l-0.637-0.398
		c-0.207-0.127-2.07-1.195-3.291,0.761c-0.194,0.31-0.297,0.599-0.307,0.857c-0.046,1.19,1.996,1.715,2.017,1.72l0.454,0.109
		l-0.14,0.446c-0.001,0.004-0.152,0.494-0.176,1.117c-0.06,1.533,0.649,2.413,2.107,2.616c0.858,0.12,1.497,0.01,1.9-0.328
		c0.732-0.612,0.521-1.85,0.52-1.855l-0.124-0.707l0.684,0.214c0.016,0.005,1.655,0.504,2.629-0.185
		c0.466-0.329,0.718-0.907,0.75-1.717c0.032-0.83-0.185-1.463-0.647-1.88c-0.937-0.846-2.581-0.624-2.597-0.622l-0.694,0.098
		l0.219-0.666C304.958,83.462,305.066,83.123,305.083,82.703z"/>
	<path d="M296.125,100.606c0.009-0.22,0.05-0.436,0.123-0.647c0.065-0.188,0.154-0.362,0.26-0.523
		c-0.131-0.795-0.47-3.533,0.857-4.541c0.666-0.506,1.592-0.483,2.753,0.067c0.266-0.019,0.806,0.002,1.297,0.383
		c0.501,0.389,0.805,1.027,0.906,1.901c0.602,0.055,1.707,0.267,2.308,1.076c0.459,0.618,0.528,1.43,0.205,2.412
		c-0.344,1.048-0.908,1.719-1.676,1.993c-0.82,0.293-1.649,0.04-2.122-0.168c-0.337,0.494-1.03,1.308-1.976,1.375
		c-0.799,0.056-1.559-0.416-2.26-1.404C296.327,101.862,296.101,101.217,296.125,100.606z M299.182,98.626
		c-0.017,0.005-1.729,0.52-2.112,1.622c-0.178,0.514-0.03,1.113,0.442,1.778c0.512,0.722,1.011,1.071,1.485,1.039
		c0.703-0.048,1.315-0.939,1.492-1.278l0.22-0.422l0.402,0.255c0.008,0.005,0.941,0.581,1.759,0.286
		c0.499-0.18,0.882-0.666,1.137-1.443c0.228-0.696,0.203-1.241-0.076-1.618c-0.468-0.633-1.605-0.751-2.004-0.744l-0.425,0.008
		l-0.02-0.425c-0.035-0.801-0.243-1.372-0.601-1.65c-0.344-0.267-0.746-0.198-0.75-0.197l-0.148,0.031l-0.135-0.067
		c-0.895-0.446-1.553-0.517-1.955-0.211c-0.666,0.506-0.696,1.995-0.606,3.037c0.75-0.568,1.597-0.821,1.652-0.837L299.182,98.626z"
		/>
</g>
<g>
	<path d="M44.494,53.562c-0.13,0-0.259-0.035-0.373-0.105c-0.249-0.153-6.117-3.812-7.608-10.031
		c-1.481-6.175,0.908-11.366,1.01-11.584c0.098-0.209,0.292-0.358,0.52-0.399c0.227-0.041,0.461,0.031,0.626,0.193
		c0.248,0.244,6.094,6.036,7.361,11.32c0.544,2.267-0.691,9.232-0.834,10.018C45.154,53.208,45,53.404,44.785,53.5
		C44.692,53.542,44.593,53.562,44.494,53.562z M38.431,33.45c-0.584,1.727-1.529,5.484-0.531,9.644
		c1.021,4.257,4.445,7.284,6.082,8.524c0.412-2.525,1.004-6.897,0.661-8.327C43.729,39.482,40.044,35.19,38.431,33.45z"/>
	<path d="M44.494,53.562c-0.203,0-0.405-0.087-0.546-0.254c-3.89-4.628-6.38-20.384-6.484-21.052
		c-0.061-0.389,0.206-0.754,0.595-0.814c0.389-0.061,0.754,0.205,0.814,0.595c0.025,0.16,2.531,16.029,6.167,20.354
		c0.253,0.302,0.214,0.751-0.087,1.005C44.819,53.507,44.656,53.562,44.494,53.562z"/>
	<path d="M48.176,54.766c-0.096,0-0.193-0.019-0.284-0.059c-0.24-0.104-0.404-0.332-0.426-0.593
		c-0.03-0.34-0.667-8.369,3.902-11.553c0.028-0.019,0.057-0.037,0.087-0.052c0.066-0.033,1.662-0.818,4.954-0.818
		c0.545,0,1.114,0.022,1.691,0.064c0.205,0.015,0.394,0.118,0.517,0.283c0.124,0.165,0.17,0.374,0.128,0.576
		c-0.042,0.199-1.067,4.908-4.2,7.36l-5.929,4.64C48.488,54.714,48.333,54.766,48.176,54.766z M52.134,43.767
		c-2.829,2.02-3.256,6.563-3.282,8.852l4.814-3.768c2.01-1.573,3.052-4.35,3.466-5.72c-0.245-0.009-0.487-0.013-0.723-0.013
		C53.761,43.118,52.372,43.664,52.134,43.767z"/>
</g>
<g>
	<path d="M407.981,150.976l-0.66-0.052c-0.063-0.005-6.272-0.566-7.406-6.709c-1.101-5.964,1.011-8.916,1.101-9.038l0.416-0.565
		l0.451,0.539c0.151,0.181,3.711,4.453,4.56,6.796c0.839,2.316,1.445,8.126,1.47,8.373L407.981,150.976z M401.551,136.488
		c-0.5,1.105-1.275,3.605-0.551,7.526c0.78,4.226,4.251,5.395,5.738,5.705c-0.19-1.639-0.703-5.667-1.331-7.398
		C404.805,140.66,402.57,137.762,401.551,136.488z"/>
	<path d="M406.231,150.056c-4.517-3.673-5.251-12.6-5.281-12.978l1.1-0.085c0.007,0.088,0.729,8.834,4.877,12.207L406.231,150.056z"
		/>
	<path d="M410.239,155.543c-0.037,0.004-0.075,0.004-0.114,0c-0.293-0.029-0.511-0.282-0.497-0.575
		c0.003-0.057,0.27-5.689-0.028-7.387c-0.324-1.844,0.881-6.489,1.02-7.013c0.049-0.186,0.192-0.333,0.376-0.388
		c0.184-0.054,0.384-0.009,0.527,0.12c0.497,0.45,4.82,4.48,3.741,7.48c-0.478,1.329-1.408,2.432-2.308,3.499
		c-1.041,1.235-2.024,2.401-2.232,3.796C410.687,155.328,410.483,155.517,410.239,155.543z M411.456,141.776
		c-0.405,1.708-0.965,4.495-0.769,5.614c0.173,0.982,0.175,3.059,0.138,4.8c0.395-0.562,0.845-1.095,1.288-1.622
		c0.837-0.993,1.702-2.019,2.113-3.162C414.82,145.757,412.817,143.191,411.456,141.776z"/>
</g>
<g>
	<path d="M354.715,45.883c-0.645-1.214-1.367-2.381-2.157-3.494c-2.555-3.602-5.142-6.73-8.108-10.166
		c-2.246-2.602-4.831-5.249-8.189-5.767c-0.582-0.09-1.202-0.107-1.747,0.151c-0.57,0.27-0.989,0.809-1.301,1.376
		c-1.213,2.204-1.071,4.953-0.237,7.272c0.834,2.318,2.283,4.31,3.651,6.319c1.744,2.561,3.39,5.213,5.436,7.514
		c2.046,2.301,4.548,4.262,7.478,5.077c0.838,0.233,1.729,0.37,2.588,0.165c1.339-0.319,2.438-1.457,2.991-2.779
		c0.079-0.189,0.148-0.381,0.208-0.575C355.856,49.251,355.595,47.392,354.715,45.883"/>
	<path d="M348.678,54.473C348.678,54.473,348.678,54.473,348.678,54.473c-2.459-0.851-4.823-2.539-7.028-5.019
		c-1.664-1.87-3.079-3.988-4.447-6.035c-0.343-0.513-0.686-1.025-1.032-1.535l-0.412-0.603c-1.242-1.813-2.527-3.688-3.301-5.84
		c-1-2.778-0.9-5.594,0.273-7.724c0.439-0.797,0.945-1.323,1.548-1.608c0.737-0.349,1.533-0.28,2.067-0.198
		c0.503,0.078,1.008,0.204,1.503,0.375c2.764,0.956,5.007,3.245,7.02,5.577c3.031,3.511,5.575,6.591,8.14,10.208
		c0.808,1.139,1.546,2.335,2.194,3.555c0.972,1.668,1.213,3.684,0.651,5.513c-0.065,0.211-0.141,0.422-0.226,0.626
		c-0.659,1.575-1.951,2.764-3.372,3.102c-0.828,0.197-1.737,0.143-2.863-0.171C349.154,54.629,348.914,54.554,348.678,54.473z
		 M337.487,27.327c-0.432-0.149-0.873-0.26-1.31-0.327c-0.621-0.096-1.074-0.063-1.427,0.104c-0.381,0.18-0.736,0.565-1.054,1.144
		c-1.02,1.853-1.094,4.338-0.201,6.819c0.727,2.019,1.97,3.835,3.173,5.59l0.414,0.606c0.348,0.512,0.693,1.027,1.037,1.542
		c1.348,2.016,2.742,4.102,4.354,5.915c2.078,2.337,4.287,3.922,6.565,4.71l0,0c0.214,0.074,0.433,0.142,0.649,0.202
		c0.939,0.261,1.673,0.312,2.312,0.16c1.084-0.258,2.084-1.199,2.61-2.455c0.071-0.17,0.135-0.347,0.189-0.524
		c0.472-1.536,0.268-3.232-0.56-4.653c-0.637-1.197-1.35-2.353-2.13-3.453c-2.54-3.581-5.066-6.638-8.076-10.125
		C342.252,30.519,340.13,28.241,337.487,27.327z"/>
	<path fill="#196F5C" d="M349.03,37.708l-9.981,7.457c0,0,9.107,13.736,14.86,8.16C359.662,47.749,349.03,37.708,349.03,37.708"/>
	<path fill="#196F5C" d="M348.715,54.837C348.715,54.837,348.715,54.837,348.715,54.837c-5.022-1.738-9.919-9.057-10.125-9.368
		c-0.162-0.244-0.105-0.571,0.129-0.746l9.981-7.457c0.215-0.16,0.513-0.143,0.708,0.041c0.275,0.259,6.723,6.413,6.759,11.942
		c0.011,1.75-0.62,3.254-1.875,4.471C352.756,55.21,350.879,55.585,348.715,54.837z M339.805,45.288
		c1.125,1.589,5.264,7.121,9.27,8.507c0,0,0.001,0,0.001,0c1.763,0.61,3.219,0.327,4.45-0.866c1.045-1.013,1.549-2.213,1.539-3.671
		c-0.027-4.385-4.779-9.501-6.085-10.824L339.805,45.288z"/>
	<path fill="#FFFFFF" d="M349.15,40.862c-0.12-0.042-0.227-0.125-0.296-0.243c-0.546-0.936-1.494-2.121-2.667-3.339l-6.267-6.497
		c-0.579-0.601-1.236-1.282-2.014-1.551c-0.001,0-0.001,0-0.001,0c-0.639-0.221-1.52-0.086-1.887,0.521
		c-0.158,0.26-0.495,0.344-0.757,0.186c-0.26-0.158-0.344-0.497-0.186-0.757c0.681-1.125,2.152-1.351,3.19-0.992
		c0.001,0,0.001,0,0.002,0.001c1.028,0.356,1.782,1.138,2.447,1.828l6.267,6.497c0.714,0.741,2.031,2.186,2.826,3.548
		c0.153,0.263,0.065,0.601-0.198,0.754C349.464,40.901,349.297,40.912,349.15,40.862z"/>
	<path fill="#FFFFFF" d="M353.881,50.014c-0.073-0.025-0.141-0.066-0.2-0.122c-0.22-0.21-0.228-0.559-0.018-0.779
		c0.047-0.049,0.079-0.249-0.095-0.689c-0.647-1.637-1.496-3.176-2.522-4.574c-0.18-0.246-0.127-0.59,0.118-0.771
		c0.245-0.18,0.591-0.128,0.771,0.118c1.082,1.475,1.976,3.097,2.658,4.821c0.319,0.806,0.274,1.43-0.132,1.856
		C354.306,50.035,354.078,50.082,353.881,50.014z"/>
</g>
</svg>
