<?xml version="1.0" encoding="utf-8"?>
<!-- Generator: Adobe Illustrator 17.0.0, SVG Export Plug-In . SVG Version: 6.00 Build 0)  -->
<!DOCTYPE svg PUBLIC "-//W3C//DTD SVG 1.1//EN" "http://www.w3.org/Graphics/SVG/1.1/DTD/svg11.dtd">
<svg version="1.1" id="Layer_1" xmlns="http://www.w3.org/2000/svg" xmlns:xlink="http://www.w3.org/1999/xlink" x="0px" y="0px"
	 width="143px" height="195px" viewBox="0 0 143 195" enable-background="new 0 0 143 195" xml:space="preserve">
<g>
	<path d="M49.301,67.231c-0.074,0-0.148-0.02-0.216-0.061c-6.215-3.777-12.806-7.025-19.588-9.653
		c-0.214-0.083-0.321-0.324-0.238-0.539c0.083-0.214,0.324-0.321,0.539-0.238c6.828,2.646,13.463,5.915,19.72,9.718
		c0.196,0.119,0.259,0.376,0.14,0.572C49.579,67.159,49.442,67.231,49.301,67.231z"/>
	<path d="M45.521,67.877c-0.048,0-0.098-0.009-0.146-0.026c-1.916-0.717-4.002-0.954-6.03-0.686c-0.228,0.03-0.437-0.13-0.467-0.358
		c-0.03-0.228,0.13-0.437,0.358-0.467c2.163-0.286,4.387-0.033,6.431,0.731c0.215,0.081,0.325,0.321,0.244,0.536
		C45.849,67.774,45.69,67.877,45.521,67.877z"/>
	<path d="M44.725,59.722c-0.204,0-0.407-0.085-0.551-0.252c-7.433-8.591-14.535-17.647-21.108-26.917
		c-0.178-0.251-0.179-0.587-0.003-0.839c0.177-0.252,0.492-0.366,0.79-0.285l13.686,3.753c-2.597-10.389-5.508-20.83-8.659-31.055
		c-0.102-0.33,0.043-0.687,0.346-0.853c0.303-0.166,0.681-0.097,0.906,0.167l17.354,20.391c0.532-6.292,1.422-12.605,2.649-18.79
		c0.062-0.312,0.319-0.547,0.634-0.582c0.317-0.036,0.618,0.139,0.747,0.429c3.562,8.049,6.717,16.384,9.377,24.774
		c0.122,0.384-0.091,0.793-0.474,0.915c-0.383,0.121-0.793-0.091-0.915-0.474c-2.408-7.594-5.223-15.142-8.38-22.471
		c-1.097,5.965-1.878,12.032-2.324,18.067c-0.022,0.295-0.219,0.547-0.5,0.639c-0.281,0.091-0.59,0.005-0.781-0.22L31.297,7.06
		c2.887,9.57,5.559,19.302,7.956,28.979c0.062,0.251-0.013,0.516-0.199,0.697c-0.185,0.181-0.452,0.249-0.702,0.181l-12.91-3.541
		c6.211,8.651,12.876,17.1,19.833,25.14c0.263,0.304,0.23,0.765-0.074,1.028C45.064,59.664,44.894,59.722,44.725,59.722z"/>
	<path d="M65.679,31.371c-0.23,0-0.416-0.186-0.416-0.416V13.591c0-0.23,0.186-0.416,0.416-0.416c0.23,0,0.416,0.186,0.416,0.416
		v17.363C66.095,31.184,65.909,31.371,65.679,31.371z"/>
	<path d="M117.664,78.488c-0.099,0-0.197-0.035-0.277-0.106c-2.627-2.341-6.396-3.341-9.837-2.612
		c-0.225,0.047-0.446-0.096-0.494-0.321c-0.048-0.225,0.096-0.446,0.321-0.494c3.695-0.783,7.743,0.291,10.564,2.805
		c0.172,0.153,0.187,0.416,0.034,0.588C117.893,78.441,117.779,78.488,117.664,78.488z"/>
	<path d="M124.156,99.76c-0.23,0-0.416-0.186-0.416-0.416v-5.666c0-0.23,0.186-0.416,0.416-0.416c0.23,0,0.416,0.186,0.416,0.416
		v5.666C124.573,99.574,124.386,99.76,124.156,99.76z"/>
	<path d="M123.846,86.879c-0.186,0-0.355-0.125-0.403-0.313c-0.648-2.528-1.954-4.852-3.777-6.721
		c-0.161-0.165-0.157-0.428,0.007-0.589c0.164-0.161,0.428-0.157,0.589,0.007c1.925,1.973,3.304,4.426,3.988,7.096
		c0.057,0.223-0.077,0.45-0.3,0.507C123.915,86.875,123.88,86.879,123.846,86.879z"/>
	<path d="M17.476,140.491c-0.221,0-0.405-0.174-0.416-0.397c-0.105-2.326-0.073-4.683,0.096-7.006
		c0.017-0.229,0.214-0.399,0.446-0.385c0.229,0.017,0.402,0.216,0.385,0.446c-0.167,2.291-0.199,4.615-0.095,6.908
		c0.01,0.23-0.167,0.424-0.397,0.435C17.489,140.491,17.483,140.491,17.476,140.491z"/>
	<path d="M18.444,147.563c-0.153,0-0.301-0.085-0.373-0.232c-0.692-1.398-0.998-2.959-0.885-4.514
		c0.017-0.229,0.219-0.399,0.445-0.385c0.229,0.017,0.402,0.216,0.385,0.445c-0.102,1.408,0.175,2.82,0.801,4.085
		c0.102,0.206,0.018,0.456-0.189,0.558C18.569,147.549,18.506,147.563,18.444,147.563z"/>
	<path d="M17.858,130.978c-0.005,0-0.009,0-0.014,0c-0.23-0.008-0.41-0.2-0.402-0.43c0.14-4.178,1.047-8.243,2.695-12.084
		c0.091-0.211,0.335-0.309,0.547-0.218c0.211,0.091,0.309,0.336,0.218,0.547c-1.608,3.745-2.492,7.71-2.628,11.783
		C18.266,130.8,18.081,130.978,17.858,130.978z"/>
	<path fill="#1A6F5D" d="M37.765,152.673c0,0,0.662-26.754,7.836-55.453c0,0,35.411-8.101,44.206-7.175l9.721,18.516l1.101,47.164
		c-0.915,14.037,0,22.887,0,22.887c-35.704,29.601-62.864,7.934-62.864,7.934C35.323,174.95,37.765,152.673,37.765,152.673"/>
	<path d="M62.623,194.611c-15.242,0-25.021-7.662-25.118-7.739c-0.076-0.06-0.128-0.145-0.148-0.24
		c-2.398-11.39-0.088-33.25-0.008-33.987c0.023-0.824,0.82-27.415,7.848-55.526c0.038-0.152,0.158-0.27,0.311-0.305
		c0.317-0.073,31.856-7.259,42.649-7.259c0.644,0,1.214,0.026,1.693,0.076c0.138,0.015,0.26,0.097,0.325,0.22l9.72,18.516
		c0.03,0.057,0.046,0.12,0.048,0.184l1.101,47.164c0,0.012,0,0.025-0.001,0.037c-0.902,13.835-0.011,22.729-0.001,22.817
		c0.014,0.138-0.041,0.275-0.148,0.364C88.346,189.336,75.469,194.611,62.623,194.611z M38.141,186.309
		c1.135,0.85,10.433,7.469,24.482,7.469c12.589,0,25.229-5.164,37.57-15.347c-0.131-1.466-0.808-10.028,0.018-22.716l-1.098-47.048
		l-9.57-18.229c-0.403-0.034-0.868-0.051-1.386-0.051c-10.193,0-39.214,6.503-42.214,7.182c-7.023,28.23-7.755,54.847-7.762,55.114
		c0,0.012-0.001,0.023-0.002,0.035C38.155,152.939,35.794,174.868,38.141,186.309z"/>
	<path d="M83.514,63.198c-0.025,0-0.051-0.002-0.077-0.007c-0.226-0.042-0.375-0.26-0.332-0.486
		c0.002-0.012,0.234-1.317-0.336-2.077c-0.234-0.313-0.574-0.488-1.038-0.536c-1.943-0.199-2.949,2.29-2.959,2.315
		c-0.084,0.214-0.326,0.319-0.54,0.235c-0.214-0.084-0.319-0.326-0.234-0.54c0.05-0.127,1.254-3.1,3.819-2.838
		c0.7,0.072,1.246,0.364,1.622,0.868c0.788,1.055,0.498,2.659,0.485,2.727C83.885,63.058,83.71,63.198,83.514,63.198z"/>
	<path d="M61.912,63.578c-0.044,0-0.089-0.007-0.133-0.022c-0.218-0.073-0.335-0.31-0.261-0.528
		c0.052-0.154,1.302-3.766,3.597-3.531c2.338,0.24,2.398,3.408,2.4,3.543c0.002,0.23-0.182,0.418-0.412,0.421
		c-0.002,0-0.003,0-0.004,0c-0.228,0-0.414-0.183-0.416-0.412c0-0.025-0.053-2.559-1.652-2.723
		c-1.619-0.166-2.713,2.937-2.723,2.969C62.248,63.469,62.086,63.578,61.912,63.578z"/>
	<path d="M68.852,77.99c-0.312,0-0.597-0.066-0.85-0.198c-0.725-0.38-1.067-1.232-0.965-2.398c0.184-2.104,2.409-3.193,3.183-3.51
		l0.175-1.995c0.02-0.229,0.221-0.399,0.451-0.378c0.229,0.02,0.398,0.222,0.378,0.451l-0.198,2.254
		c-0.014,0.165-0.125,0.306-0.282,0.358c-0.026,0.009-2.707,0.939-2.878,2.892c-0.07,0.798,0.12,1.377,0.522,1.588
		c0.619,0.325,1.758-0.117,3.044-1.183c0.177-0.146,0.44-0.122,0.586,0.055c0.147,0.177,0.122,0.44-0.055,0.586
		C70.788,77.486,69.716,77.99,68.852,77.99z"/>
	<path d="M64.943,41.7c0,0-0.858-3.338-3.138-3.572c-3.135-0.322-8.373,6.939-8.226,11.829c0.147,4.89,3.225,5.856,5.816,2.547
		c0,0,2.599,6.441,8.691-0.732c0,0,3.939,7.554,10.004,0.703c0,0,2.912,6.149,8.381,2.811c0,0,2.94,5.826,7.639,1.435l-0.847,9.662
		c0,0-0.11,4.538,4.763,4.714l2.28,0.234c0,0,0.737-5.124,1.702-9.574c0.965-4.45,1.614-11.858-2.717-11.653
		c0,0,2.215-8.872-7.131-7.232c0,0,0.793-5.768-4.365-5.973c-5.158-0.205-8.745,4.626-8.745,4.626s0.937-4.128-3.908-4.626
		C70.296,36.401,64.943,41.7,64.943,41.7"/>
	<path d="M64.202,69.17c-0.137,0.881-0.688,1.511-1.23,1.408c-0.542-0.103-0.87-0.901-0.733-1.781
		c0.137-0.881,0.688-1.511,1.23-1.408C64.011,67.491,64.339,68.289,64.202,69.17"/>
	<path d="M79.946,69.64c-0.244,0.852-0.863,1.392-1.384,1.206c-0.521-0.185-0.746-1.027-0.502-1.878
		c0.244-0.852,0.863-1.392,1.384-1.206C79.964,67.948,80.189,68.789,79.946,69.64"/>
	<path d="M69.962,94.789c-0.02,0-0.04-0.002-0.061-0.004c-2.472-0.361-4.542-1.663-6.152-3.869
		c-3.066-4.203-4.498-11.601-4.257-21.988c0.179-7.697,1.262-14.262,1.273-14.328c0.038-0.227,0.253-0.379,0.479-0.342
		c0.227,0.038,0.38,0.252,0.342,0.479c-0.043,0.259-4.238,25.992,2.836,35.688c1.473,2.019,3.356,3.208,5.599,3.536
		c0.227,0.033,0.385,0.245,0.352,0.472C70.343,94.64,70.165,94.789,69.962,94.789z"/>
	<path d="M92.353,89.768c-0.034,0-0.067-0.004-0.101-0.013c-0.223-0.056-0.359-0.282-0.303-0.505
		c0.678-2.711,1.37-11.869,1.377-11.961c0.01-0.138,0.088-0.261,0.208-0.33c0.12-0.069,0.266-0.074,0.39-0.013
		c0.024,0.012,2.49,1.185,4.321,0.345c0.876-0.402,1.484-1.222,1.807-2.436c0.3-1.132,0.203-2.048-0.29-2.725
		c-0.89-1.221-2.804-1.334-2.823-1.335c-0.23-0.012-0.406-0.207-0.395-0.437c0.012-0.23,0.206-0.407,0.436-0.395
		c0.094,0.005,2.324,0.129,3.452,1.672c0.651,0.89,0.794,2.045,0.425,3.433c-0.39,1.467-1.153,2.47-2.268,2.98
		c-1.627,0.745-3.548,0.218-4.476-0.125c-0.165,2.08-0.753,9.118-1.355,11.527C92.709,89.641,92.539,89.768,92.353,89.768z"/>
	<path fill="#1A6F5D" d="M57.143,78.061c-10.493-6.049-20.545,5.911-27.399,22.287c0,0,6.831,2.427,14.237,3.122
		c0,0,7.265-15.14,17.519-22.266L57.143,78.061z"/>
	<path d="M43.981,103.885c-0.013,0-0.026-0.001-0.039-0.002c-7.373-0.691-14.269-3.119-14.338-3.144
		c-0.108-0.038-0.195-0.119-0.241-0.224c-0.046-0.105-0.047-0.224-0.003-0.329c2.964-7.082,6.394-12.991,9.919-17.086
		c4.027-4.679,8.149-7.051,12.251-7.051c1.963,0,3.921,0.555,5.821,1.651c0.012,0.007,0.024,0.015,0.036,0.023l4.357,3.142
		c0.11,0.079,0.174,0.206,0.173,0.341c-0.001,0.135-0.068,0.261-0.179,0.338c-10.048,6.983-17.309,21.954-17.381,22.105
		C44.287,103.795,44.14,103.885,43.981,103.885z M30.301,100.097c1.566,0.519,7.305,2.317,13.434,2.93
		c1.01-2.017,7.808-15.122,17.049-21.827l-3.868-2.789c-1.766-1.015-3.579-1.529-5.387-1.529
		C44.28,76.882,36.555,85.336,30.301,100.097z"/>
	<path fill="#FFFFFF" d="M55.232,92.659c-0.047,0-0.094-0.008-0.141-0.025l-4.966-1.787c-0.206-0.074-0.319-0.294-0.26-0.505
		c0.059-0.21,0.272-0.339,0.485-0.295c1.514,0.313,3.051,0.408,4.584,0.284c-1.538-1.139-2.701-2.428-3.463-3.843
		c-1.088-2.017-1.315-4.357-0.608-6.259c0.061-0.163,0.216-0.271,0.39-0.271c0.001,0,0.001,0,0.002,0
		c0.175,0.001,0.33,0.11,0.39,0.274c1.149,3.168,2.933,6.179,5.161,8.708c0.152,0.173,0.135,0.436-0.037,0.588
		c-0.173,0.152-0.436,0.135-0.588-0.037c-2.036-2.311-3.66-4.91-4.839-7.741c-0.184,1.405,0.113,2.955,0.862,4.343
		c0.841,1.56,2.222,2.964,4.105,4.175c0.146,0.094,0.218,0.268,0.182,0.438c-0.036,0.17-0.174,0.299-0.346,0.324
		c-0.842,0.125-1.692,0.179-2.533,0.186l1.761,0.634c0.216,0.078,0.329,0.316,0.251,0.533
		C55.563,92.553,55.403,92.659,55.232,92.659z"/>
	<path fill="#FFFFFF" d="M72.724,49.337c-0.51,0-1.026-0.3-1.339-0.787c-0.296-0.461-0.376-0.993-0.413-1.406
		c-0.082-0.917,0.04-1.649,0.373-2.235c0.113-0.2,0.367-0.27,0.567-0.157c0.2,0.113,0.27,0.368,0.157,0.568
		c-0.246,0.435-0.334,1.007-0.267,1.75c0.028,0.317,0.087,0.722,0.285,1.031c0.14,0.217,0.404,0.427,0.677,0.402
		c0.234-0.019,0.431,0.15,0.451,0.379c0.02,0.229-0.15,0.431-0.379,0.451C72.798,49.335,72.761,49.337,72.724,49.337z"/>
	<path fill="#FFFFFF" d="M74.575,48.642c-0.51,0-1.026-0.3-1.338-0.788c-0.296-0.461-0.376-0.993-0.413-1.405
		c-0.082-0.917,0.04-1.649,0.373-2.236c0.113-0.2,0.367-0.27,0.567-0.157c0.2,0.113,0.27,0.368,0.157,0.568
		c-0.246,0.435-0.334,1.007-0.267,1.75c0.028,0.317,0.087,0.722,0.285,1.03c0.139,0.218,0.404,0.425,0.676,0.403
		c0.23-0.021,0.431,0.15,0.451,0.379c0.02,0.229-0.149,0.431-0.379,0.451C74.65,48.641,74.613,48.642,74.575,48.642z"/>
	<path fill="#FFFFFF" d="M57.335,48.951c-0.016,0-0.031-0.001-0.047-0.003c-0.228-0.026-0.393-0.232-0.367-0.461
		c0.178-1.574,0.76-3.087,1.683-4.375c0.134-0.187,0.394-0.23,0.581-0.096c0.187,0.134,0.23,0.394,0.096,0.581
		c-0.84,1.172-1.37,2.55-1.532,3.983C57.725,48.794,57.544,48.951,57.335,48.951z"/>
	<path fill="#1A6F5D" d="M95.957,81.875c0,0,32.347-19.225,25.023,27.465c0,0-15.204-1.936-19.138-1.705l-1.448,8.773
		c0,0-11.23-23.697-14.843-26.997C85.55,89.411,93.312,82.963,95.957,81.875"/>
	<path d="M100.393,116.824c-0.159,0-0.306-0.091-0.376-0.238c-0.112-0.236-11.236-23.66-14.747-26.868
		c-0.089-0.081-0.138-0.197-0.135-0.317c0.003-0.12,0.058-0.234,0.15-0.311c0.318-0.264,7.789-6.458,10.486-7.589
		c0.526-0.309,6.887-3.964,13.345-3.964c3.866,0,6.955,1.32,9.182,3.924c4.193,4.902,5.234,14.303,3.094,27.943
		c-0.035,0.223-0.238,0.377-0.464,0.349c-0.135-0.017-13.567-1.721-18.318-1.721c-0.147,0-0.285,0.002-0.413,0.005l-1.393,8.439
		c-0.03,0.18-0.173,0.319-0.353,0.344C100.432,116.823,100.412,116.824,100.393,116.824z M86.167,89.443
		c3.441,3.768,11.752,20.842,14.031,25.59l1.232-7.466c0.032-0.192,0.192-0.336,0.386-0.348c0.225-0.013,0.491-0.02,0.793-0.02
		c4.394,0,15.7,1.386,18.021,1.676c2.019-13.172,1.021-22.212-2.966-26.873c-2.062-2.41-4.938-3.632-8.549-3.632
		c-6.367,0-12.881,3.824-12.946,3.863c-0.017,0.01-0.036,0.019-0.054,0.027C93.874,83.182,87.705,88.181,86.167,89.443z"/>
	<path fill="#FFFFFF" d="M122.857,106.773c-0.005,0-0.01,0-0.015,0l-20.849-0.756c-0.159-0.006-0.301-0.102-0.366-0.248
		c-0.044-0.099-4.37-10.069-3.503-23.931c0.014-0.229,0.209-0.402,0.442-0.39c0.23,0.014,0.404,0.212,0.39,0.442
		c-0.781,12.482,2.695,21.727,3.334,23.305l20.582,0.746c0.23,0.008,0.409,0.201,0.401,0.431
		C123.265,106.597,123.08,106.773,122.857,106.773z"/>
	<path fill="#FFFFFF" d="M44.592,102.639c-0.044,0-0.088-0.007-0.132-0.022c-4.989-1.665-10.155-2.911-15.354-3.7
		c-0.227-0.035-0.384-0.247-0.349-0.474c0.035-0.227,0.248-0.384,0.474-0.349c5.246,0.797,10.458,2.053,15.492,3.734
		c0.218,0.073,0.336,0.309,0.263,0.527C44.928,102.528,44.766,102.639,44.592,102.639z"/>
	<path fill="#FFFFFF" d="M60.534,192.198c-0.93,0-1.86-0.049-2.787-0.161c-3.514-0.427-6.823-1.746-10.023-3.021l-12.017-4.789
		c-0.214-0.085-0.318-0.327-0.233-0.541c0.085-0.214,0.328-0.318,0.541-0.233l12.017,4.789c3.151,1.256,6.409,2.554,9.815,2.968
		c3.499,0.425,7.094-0.099,10.477-0.674c6.992-1.186,14.296-2.818,20.347-6.694c2.111-1.352,4.093-2.994,6.01-4.583
		c2.658-2.203,5.406-4.481,8.564-6.045c0.206-0.102,0.456-0.018,0.558,0.188c0.102,0.206,0.018,0.456-0.188,0.558
		c-3.071,1.521-5.782,3.767-8.402,5.94c-1.936,1.605-3.938,3.264-6.092,4.644c-6.177,3.956-13.579,5.612-20.657,6.813
		C65.904,191.791,63.223,192.198,60.534,192.198z"/>
	<path fill="#FFFFFF" d="M97.027,95.786c-0.15,0-0.292-0.081-0.366-0.219c-1.756-3.252-2.546-7.07-2.223-10.753
		c0.02-0.229,0.222-0.398,0.451-0.378c0.229,0.02,0.398,0.222,0.378,0.451c-0.241,2.747,0.166,5.573,1.154,8.16
		c-0.227-3.267-0.296-6.562-0.204-9.825c0.006-0.226,0.192-0.405,0.416-0.405c0.004,0,0.008,0,0.012,0
		c0.23,0.006,0.411,0.198,0.404,0.428c-0.113,4.017,0.019,8.083,0.393,12.085c0.019,0.197-0.104,0.38-0.294,0.437
		C97.108,95.78,97.067,95.786,97.027,95.786z"/>
	<path fill="#FFFFFF" d="M42.944,181.214c-0.143,0-0.282-0.073-0.359-0.205c-2.036-3.463-2.675-7.691-1.754-11.601
		c0.053-0.224,0.277-0.364,0.501-0.31c0.224,0.053,0.362,0.277,0.31,0.501c-0.873,3.703-0.268,7.708,1.661,10.988
		c0.116,0.198,0.05,0.453-0.148,0.57C43.089,181.195,43.016,181.214,42.944,181.214z"/>
	<path fill="#FFFFFF" d="M53.701,186.814c-0.077,0-0.155-0.021-0.224-0.066c-4.734-3.034-8.615-7.271-11.224-12.253
		c-0.107-0.204-0.028-0.455,0.176-0.562c0.203-0.107,0.455-0.028,0.562,0.176c2.542,4.854,6.323,8.982,10.935,11.938
		c0.194,0.124,0.25,0.382,0.126,0.575C53.972,186.747,53.838,186.814,53.701,186.814z"/>
	<path fill="#FFFFFF" d="M80.821,145.501c-0.065,0-0.13-0.015-0.192-0.047c-0.204-0.106-0.283-0.357-0.177-0.562
		c1.311-2.522,1.905-5.472,1.672-8.305c-0.019-0.229,0.152-0.43,0.381-0.449c0.23-0.022,0.43,0.152,0.449,0.381
		c0.246,2.987-0.38,6.097-1.763,8.757C81.117,145.419,80.972,145.501,80.821,145.501z"/>
	<path fill="#FFFFFF" d="M79.599,155.461c-0.063,0-0.128-0.014-0.188-0.045c-0.205-0.104-0.287-0.355-0.183-0.56
		c2.053-4.043,3.554-8.347,4.459-12.792c0.046-0.225,0.265-0.371,0.491-0.325c0.225,0.046,0.371,0.266,0.325,0.491
		c-0.921,4.519-2.446,8.894-4.533,13.003C79.897,155.378,79.75,155.461,79.599,155.461z"/>
	<path fill="#FFFFFF" d="M28,136.805c4.823-9.417,12.967-27.127,17.153-35.614c2.856-5.789,6.615-11.099,11.227-15.616
		c5.569-5.455,14.19-11.329,22.735-10.566c0,0,1.526,0.916-0.61,1.526c-2.136,0.61-7.934,2.441-9.46,4.272
		c0,0,9.155-5.798,15.868-5.188c6.714,0.61-9.46,4.272-13.122,7.629c0,0,13.427-7.629,15.563-4.883
		c2.136,2.747-8.239,3.967-12.817,7.019c0,0,9.765-5.188,11.291-2.746c0.354,0.567,0.138,1.158-0.697,1.557
		c-9.831,4.699-17.46,7.751-26.615,26.671c-8.597,17.766-18.332,47.046-29.448,47.148c-12.534,0.115-9.431-33.365,0.589-57.456"/>
	<path d="M29.003,158.43c-2.3,0-4.184-1.064-5.598-3.164c-2.824-4.192-3.674-12.497-2.393-23.384
		c1.212-10.3,4.223-21.775,8.26-31.483c0.088-0.212,0.332-0.313,0.544-0.225c0.212,0.088,0.313,0.332,0.225,0.544
		c-4.009,9.64-6.999,21.034-8.202,31.261c-1.258,10.69-0.457,18.795,2.257,22.822c1.251,1.856,2.902,2.797,4.91,2.797
		c0.02,0,0.039,0,0.059,0c8.446-0.077,16.359-18.2,23.34-34.189c1.994-4.567,3.877-8.88,5.737-12.723
		c8.87-18.331,16.295-21.863,25.696-26.334c0.368-0.175,0.739-0.352,1.114-0.531c0.335-0.16,0.552-0.356,0.608-0.551
		c0.036-0.126,0.009-0.259-0.085-0.409c-0.91-1.457-6.83,0.815-10.743,2.893c-0.197,0.104-0.439,0.036-0.553-0.154
		c-0.114-0.19-0.058-0.437,0.127-0.56c1.864-1.242,4.671-2.191,7.148-3.028c2.687-0.908,5.465-1.846,5.749-2.792
		c0.034-0.114,0.053-0.3-0.178-0.597c-0.668-0.859-2.982-0.411-5.769,0.605c-0.072,0.027-0.145,0.055-0.219,0.083
		c-0.262,0.1-0.529,0.201-0.8,0.305c-2.79,1.105-5.891,2.66-8.242,3.996c-0.184,0.104-0.418,0.054-0.542-0.117
		c-0.125-0.171-0.101-0.409,0.055-0.552c1.592-1.46,5.31-2.915,8.721-4.215c0.195-0.076,0.387-0.149,0.574-0.219
		c2.092-0.796,4.625-1.763,5.211-2.276c-0.159-0.057-0.486-0.138-1.14-0.198c-1.753-0.159-3.689,0.136-5.584,0.653
		c-0.265,0.131-0.531,0.207-0.673,0.248c-0.564,0.161-1.154,0.34-1.752,0.532c-4.131,1.515-7.544,3.657-7.6,3.692
		c-0.173,0.11-0.401,0.077-0.536-0.077c-0.135-0.154-0.138-0.384-0.007-0.541c1.245-1.495,4.987-2.919,7.573-3.764
		c0.878-0.329,1.792-0.633,2.721-0.887c0.182-0.105,0.208-0.178,0.208-0.179c0.002-0.056-0.123-0.198-0.254-0.296
		c-9.676-0.802-18.811,7.04-22.301,10.458c-4.491,4.399-8.241,9.615-11.145,15.503c-1.689,3.424-4.038,8.383-6.525,13.634
		c-3.634,7.671-7.752,16.365-10.63,21.985c-0.105,0.204-0.356,0.285-0.56,0.181c-0.205-0.105-0.286-0.356-0.181-0.561
		c2.873-5.608,6.988-14.297,10.619-21.962c2.488-5.254,4.839-10.216,6.531-13.646c2.946-5.973,6.751-11.264,11.309-15.729
		c3.585-3.511,13.007-11.581,23.063-10.684c0.063,0.006,0.123,0.025,0.177,0.058c0.075,0.045,0.672,0.42,0.726,0.977
		c1.66-0.378,3.336-0.567,4.895-0.425c1.134,0.103,1.906,0.293,1.986,0.883c0.058,0.424-0.271,0.794-1.172,1.269
		c0.904,0.016,1.54,0.268,1.918,0.753c0.346,0.445,0.453,0.899,0.318,1.348c-0.259,0.861-1.397,1.529-3.031,2.184
		c0.56,0.118,0.962,0.377,1.212,0.776c0.22,0.352,0.282,0.727,0.178,1.083c-0.088,0.301-0.341,0.732-1.049,1.07
		c-0.375,0.179-0.747,0.356-1.115,0.531c-9.253,4.401-16.562,7.878-25.304,25.945c-1.853,3.829-3.733,8.135-5.723,12.694
		c-3.603,8.252-7.329,16.785-11.291,23.366c-4.565,7.582-8.754,11.286-12.805,11.323C29.049,158.43,29.026,158.43,29.003,158.43z"/>
	<path fill="#FFFFFF" d="M109.384,138.33c0,0-21.056-59.507-40.587-63.474c0,0-10.986-2.136,6.408,7.324
		c0,0-10.376-6.103-12.817-6.408c-2.441-0.305-9.765-1.526,8.85,7.934c0,0-8.85-4.883-12.207-5.798
		c-3.357-0.915-8.545,0.305,8.239,7.324c0,0-11.291-5.798-12.512-3.357c-1.221,2.441,15.13,4.445,29.296,39.366
		c13.122,32.347,14.648,36.925,18.615,36.925c9.155,0,10.986-2.136,18.31-48.826"/>
	<path d="M102.67,158.582c-2.166,0-3.602-1.373-5.688-5.441c-2.182-4.255-5.14-11.559-10.508-24.82
		c-0.872-2.153-1.805-4.457-2.805-6.923c-10.372-25.57-21.878-33.381-26.791-36.716c-1.919-1.303-2.976-2.021-2.491-2.992
		c0.166-0.331,0.456-0.567,0.864-0.7c0.596-0.195,1.458-0.15,2.451,0.047c-2.905-1.837-2.634-2.626-2.515-2.972
		c0.377-1.097,2.572-0.934,3.955-0.557c0.242,0.066,0.511,0.152,0.801,0.254c-1.342-1.01-1.558-1.54-1.421-1.983
		c0.255-0.826,1.665-0.709,3.628-0.455l0.29,0.037c0.667,0.083,1.873,0.565,3.291,1.232c-0.775-0.787-0.854-1.266-0.724-1.628
		c0.384-1.069,2.834-0.716,3.87-0.515c4.559,0.926,9.548,4.878,14.832,11.746c4.192,5.45,8.593,12.751,13.078,21.7
		c7.629,15.22,12.937,30.148,12.99,30.297c0.077,0.217-0.037,0.455-0.254,0.531c-0.217,0.076-0.455-0.037-0.531-0.254
		c-0.052-0.149-5.346-15.034-12.952-30.208C86.018,88.27,76.569,76.86,68.714,75.265c-1.462-0.284-2.774-0.242-2.925-0.016
		c-0.016,0.098,0.033,0.959,5.361,4.15c2.26,1.245,4.091,2.319,4.267,2.423c0.196,0.115,0.263,0.366,0.151,0.564
		c-0.112,0.198-0.361,0.269-0.561,0.161c-1.701-0.925-3.125-1.735-4.314-2.446c-3.282-1.803-7.09-3.756-8.356-3.914l-0.294-0.038
		c-0.578-0.075-2.281-0.295-2.703-0.104c0.132,0.328,1.084,1.381,6.684,4.452c2.773,1.391,5.224,2.741,5.415,2.846
		c0.199,0.11,0.273,0.359,0.167,0.559c-0.106,0.201-0.354,0.279-0.557,0.176c-2.036-1.035-3.829-1.976-5.373-2.821
		c-2.485-1.248-5.223-2.529-6.755-2.947c-1.553-0.423-2.859-0.235-2.948,0.024c-0.004,0.012-0.244,1.002,5.686,3.92
		c2.73,1.049,5.3,2.35,5.802,2.607c0.199,0.102,0.282,0.343,0.187,0.546c-0.094,0.203-0.332,0.295-0.538,0.209
		c-2.305-0.964-4.171-1.808-5.682-2.548c-2.423-0.938-4.84-1.641-5.919-1.288c-0.191,0.062-0.314,0.155-0.378,0.281
		c-0.16,0.32,0.94,1.066,2.214,1.931c4.976,3.378,16.628,11.289,27.095,37.092c1,2.466,1.933,4.77,2.805,6.924
		c10.436,25.779,12.04,29.741,15.424,29.741c8.663,0,10.528-1.486,17.898-48.474c0.036-0.227,0.251-0.382,0.476-0.347
		c0.227,0.036,0.383,0.249,0.347,0.476c-3.462,22.069-5.84,35.3-8.492,42.01C110.257,158.1,107.272,158.582,102.67,158.582z"/>
	<path d="M88.442,68.875c-0.099,0-0.198-0.008-0.297-0.024c-0.492-0.082-0.879-0.366-1.062-0.778
		c-0.247-0.556-0.189-1.107-0.138-1.592c0.092-0.875,0.299-1.292,0.5-1.694c0.12-0.242,0.234-0.47,0.333-0.819
		c0.061-0.212,0.276-0.338,0.487-0.293c0.089,0.01,0.175,0.048,0.244,0.115c0.55,0.534,1.173,1.138,1.52,1.93
		c0.341,0.779,0.381,1.891-0.299,2.622C89.413,68.68,88.931,68.875,88.442,68.875z M88.356,64.809
		c-0.056,0.127-0.112,0.24-0.166,0.347c-0.183,0.368-0.341,0.685-0.417,1.41c-0.046,0.438-0.086,0.815,0.071,1.168
		c0.092,0.208,0.315,0.274,0.439,0.294c0.304,0.051,0.649-0.054,0.836-0.255c0.423-0.454,0.378-1.192,0.146-1.721
		C89.062,65.588,88.724,65.187,88.356,64.809z"/>
</g>
</svg>
