<svg xmlns="http://www.w3.org/2000/svg" xmlns:xlink="http://www.w3.org/1999/xlink" width="108" height="157" viewBox="0 0 108 157">
  <defs>
    <clipPath id="clip-path">
      <rect id="Rectangle_279" data-name="Rectangle 279" width="108" height="157" transform="translate(3369 4279)" fill="#fff" stroke="#707070" stroke-width="1"/>
    </clipPath>
  </defs>
  <g id="Mask_Group_1" data-name="Mask Group 1" transform="translate(-3369 -4279)" clip-path="url(#clip-path)">
    <g id="not-subscribed" transform="translate(3352 4275.816)">
      <path id="Path_622" data-name="Path 622" d="M49.3,67.231a.416.416,0,0,1-.216-.061A124.3,124.3,0,0,0,29.5,57.517a.417.417,0,1,1,.3-.777,125.108,125.108,0,0,1,19.72,9.718.417.417,0,0,1-.217.773Z"/>
      <path id="Path_623" data-name="Path 623" d="M45.521,67.877a.441.441,0,0,1-.146-.026,12.57,12.57,0,0,0-6.03-.686.416.416,0,0,1-.109-.825,13.413,13.413,0,0,1,6.431.731.416.416,0,0,1-.146.806Z"/>
      <path id="Path_624" data-name="Path 624" d="M44.725,59.722a.725.725,0,0,1-.551-.252c-7.433-8.591-14.535-17.647-21.108-26.917a.728.728,0,0,1,.787-1.124l13.686,3.753c-2.6-10.389-5.508-20.83-8.659-31.055a.729.729,0,0,1,1.252-.686L47.486,23.832a170.836,170.836,0,0,1,2.649-18.79.729.729,0,0,1,1.381-.153,242.732,242.732,0,0,1,9.377,24.774A.729.729,0,1,1,59.5,30.1C57.1,22.51,54.281,14.962,51.124,7.633A169.088,169.088,0,0,0,48.8,25.7a.728.728,0,0,1-1.281.419L31.3,7.06c2.887,9.57,5.559,19.3,7.956,28.979a.729.729,0,0,1-.9.878l-12.91-3.541c6.211,8.651,12.876,17.1,19.833,25.14a.729.729,0,0,1-.074,1.028A.719.719,0,0,1,44.725,59.722Z"/>
      <path id="Path_625" data-name="Path 625" d="M65.679,31.371a.416.416,0,0,1-.416-.416V13.591a.416.416,0,0,1,.832,0V30.954A.417.417,0,0,1,65.679,31.371Z"/>
      <path id="Path_626" data-name="Path 626" d="M117.664,78.488a.415.415,0,0,1-.277-.106,11.467,11.467,0,0,0-9.837-2.612.417.417,0,0,1-.173-.815,12.315,12.315,0,0,1,10.564,2.805.417.417,0,0,1-.277.728Z"/>
      <path id="Path_627" data-name="Path 627" d="M124.156,99.76a.416.416,0,0,1-.416-.416V93.678a.416.416,0,1,1,.832,0v5.666A.415.415,0,0,1,124.156,99.76Z"/>
      <path id="Path_628" data-name="Path 628" d="M123.846,86.879a.416.416,0,0,1-.4-.313,14.959,14.959,0,0,0-3.777-6.721.417.417,0,1,1,.6-.582,15.784,15.784,0,0,1,3.988,7.1.416.416,0,0,1-.4.52Z"/>
      <path id="Path_629" data-name="Path 629" d="M17.476,140.491a.417.417,0,0,1-.416-.4,59.772,59.772,0,0,1,.1-7.006.417.417,0,0,1,.831.061,58.758,58.758,0,0,0-.095,6.908.417.417,0,0,1-.4.435Z"/>
      <path id="Path_630" data-name="Path 630" d="M18.444,147.563a.415.415,0,0,1-.373-.232,8.753,8.753,0,0,1-.885-4.514.416.416,0,1,1,.83.06,7.925,7.925,0,0,0,.8,4.085.416.416,0,0,1-.373.6Z"/>
      <path id="Path_631" data-name="Path 631" d="M17.858,130.978h-.014a.416.416,0,0,1-.4-.43,33.357,33.357,0,0,1,2.695-12.084.416.416,0,1,1,.765.329,32.5,32.5,0,0,0-2.628,11.783A.417.417,0,0,1,17.858,130.978Z"/>
      <path id="Path_632" data-name="Path 632" d="M37.765,152.673A286.806,286.806,0,0,1,45.6,97.22s35.411-8.1,44.206-7.175l9.721,18.516,1.1,47.164a150.712,150.712,0,0,0,0,22.887c-35.7,29.6-62.864,7.934-62.864,7.934-2.442-11.6,0-33.873,0-33.873" fill="#1a6f5d"/>
      <path id="Path_633" data-name="Path 633" d="M62.623,194.611a43.351,43.351,0,0,1-25.118-7.739.414.414,0,0,1-.148-.24c-2.4-11.39-.088-33.25-.008-33.987A289.889,289.889,0,0,1,45.2,97.119a.416.416,0,0,1,.311-.305c.317-.073,31.856-7.259,42.649-7.259a16.619,16.619,0,0,1,1.693.076.418.418,0,0,1,.325.22l9.72,18.516a.423.423,0,0,1,.048.184l1.1,47.164c0,.012,0,.025,0,.037a151.788,151.788,0,0,0,0,22.817.419.419,0,0,1-.148.364C88.346,189.336,75.469,194.611,62.623,194.611Zm-24.482-8.3a42.773,42.773,0,0,0,24.482,7.469c12.589,0,25.229-5.164,37.57-15.347a156.747,156.747,0,0,1,.018-22.716l-1.1-47.048-9.57-18.229c-.4-.034-.868-.051-1.386-.051-10.193,0-39.214,6.5-42.214,7.182a289.018,289.018,0,0,0-7.762,55.114c0,.012,0,.023,0,.035C38.155,152.939,35.794,174.868,38.141,186.309Z"/>
      <path id="Path_634" data-name="Path 634" d="M83.514,63.2a.408.408,0,0,1-.077-.007.415.415,0,0,1-.332-.486,3.123,3.123,0,0,0-.336-2.077,1.4,1.4,0,0,0-1.038-.536c-1.943-.2-2.949,2.29-2.959,2.315A.416.416,0,1,1,78,62.1c.05-.127,1.254-3.1,3.819-2.838a2.211,2.211,0,0,1,1.622.868,3.914,3.914,0,0,1,.485,2.727A.42.42,0,0,1,83.514,63.2Z"/>
      <path id="Path_635" data-name="Path 635" d="M61.912,63.578a.417.417,0,0,1-.394-.55c.052-.154,1.3-3.766,3.6-3.531,2.338.24,2.4,3.408,2.4,3.543a.417.417,0,0,1-.412.421h0a.415.415,0,0,1-.416-.412c0-.025-.053-2.559-1.652-2.723-1.619-.166-2.713,2.937-2.723,2.969A.419.419,0,0,1,61.912,63.578Z"/>
      <path id="Path_636" data-name="Path 636" d="M68.852,77.99a1.814,1.814,0,0,1-.85-.2,2.273,2.273,0,0,1-.965-2.4c.184-2.1,2.409-3.193,3.183-3.51l.175-2a.416.416,0,0,1,.829.073l-.2,2.254a.414.414,0,0,1-.282.358c-.026.009-2.707.939-2.878,2.892-.07.8.12,1.377.522,1.588.619.325,1.758-.117,3.044-1.183a.416.416,0,1,1,.531.641A5.322,5.322,0,0,1,68.852,77.99Z"/>
      <path id="Path_637" data-name="Path 637" d="M64.943,41.7s-.858-3.338-3.138-3.572c-3.135-.322-8.373,6.939-8.226,11.829S56.8,55.813,59.4,52.5c0,0,2.6,6.441,8.691-.732,0,0,3.939,7.554,10,.7,0,0,2.912,6.149,8.381,2.811,0,0,2.94,5.826,7.639,1.435l-.847,9.662A4.621,4.621,0,0,0,98.026,71.1l2.28.234s.737-5.124,1.7-9.574S103.622,49.9,99.291,50.1c0,0,2.215-8.872-7.131-7.232,0,0,.793-5.768-4.365-5.973s-8.745,4.626-8.745,4.626.937-4.128-3.908-4.626-10.2,4.8-10.2,4.8"/>
      <path id="Path_638" data-name="Path 638" d="M64.2,69.17c-.137.881-.688,1.511-1.23,1.408s-.87-.9-.733-1.781.688-1.511,1.23-1.408.87.9.733,1.781"/>
      <path id="Path_639" data-name="Path 639" d="M79.946,69.64c-.244.852-.863,1.392-1.384,1.206s-.746-1.027-.5-1.878.863-1.392,1.384-1.206.745,1.027.5,1.878"/>
      <path id="Path_640" data-name="Path 640" d="M69.962,94.789c-.02,0-.04,0-.061,0a9.086,9.086,0,0,1-6.152-3.869c-3.066-4.2-4.5-11.6-4.257-21.988A114.5,114.5,0,0,1,60.765,54.6a.416.416,0,0,1,.821.137c-.043.259-4.238,25.992,2.836,35.688a8.28,8.28,0,0,0,5.6,3.536.416.416,0,0,1-.059.828Z"/>
      <path id="Path_641" data-name="Path 641" d="M92.353,89.768a.389.389,0,0,1-.1-.013.417.417,0,0,1-.3-.5c.678-2.711,1.37-11.869,1.377-11.961a.416.416,0,0,1,.6-.343c.024.012,2.49,1.185,4.321.345a3.46,3.46,0,0,0,1.807-2.436,3.121,3.121,0,0,0-.29-2.725A4.176,4.176,0,0,0,96.939,70.8a.417.417,0,0,1,.041-.832,4.95,4.95,0,0,1,3.452,1.672,3.9,3.9,0,0,1,.425,3.433,4.244,4.244,0,0,1-2.268,2.98,6.174,6.174,0,0,1-4.476-.125A113.51,113.51,0,0,1,92.758,89.45.42.42,0,0,1,92.353,89.768Z"/>
      <path id="Path_642" data-name="Path 642" d="M57.143,78.061c-10.493-6.049-20.545,5.911-27.4,22.287a67,67,0,0,0,14.237,3.122S51.246,88.33,61.5,81.2Z" fill="#1a6f5d"/>
      <path id="Path_643" data-name="Path 643" d="M43.981,103.885l-.039,0A67.95,67.95,0,0,1,29.6,100.739a.412.412,0,0,1-.241-.224.418.418,0,0,1,0-.329C32.324,93.1,35.754,87.2,39.279,83.1c4.027-4.679,8.149-7.051,12.251-7.051A11.579,11.579,0,0,1,57.351,77.7l.036.023,4.357,3.142a.415.415,0,0,1-.006.679c-10.048,6.983-17.309,21.954-17.381,22.1A.416.416,0,0,1,43.981,103.885ZM30.3,100.1a67.487,67.487,0,0,0,13.434,2.93C44.745,101.01,51.543,87.9,60.784,81.2l-3.868-2.789a10.756,10.756,0,0,0-5.387-1.529C44.28,76.882,36.555,85.336,30.3,100.1Z"/>
      <path id="Path_644" data-name="Path 644" d="M55.232,92.659a.411.411,0,0,1-.141-.025l-4.966-1.787a.417.417,0,0,1,.225-.8,16.159,16.159,0,0,0,4.584.284,11.837,11.837,0,0,1-3.463-3.843,7.749,7.749,0,0,1-.608-6.259.416.416,0,0,1,.39-.271h0a.417.417,0,0,1,.39.274,27.472,27.472,0,0,0,5.161,8.708.417.417,0,1,1-.625.551,27.9,27.9,0,0,1-4.839-7.741,7.282,7.282,0,0,0,.862,4.343,11.712,11.712,0,0,0,4.1,4.175.416.416,0,0,1-.164.762,18.3,18.3,0,0,1-2.533.186l1.761.634a.417.417,0,0,1-.141.809Z" fill="#fff"/>
      <path id="Path_645" data-name="Path 645" d="M72.724,49.337a1.643,1.643,0,0,1-1.339-.787,3.079,3.079,0,0,1-.413-1.406,3.751,3.751,0,0,1,.373-2.235.416.416,0,1,1,.724.411,2.969,2.969,0,0,0-.267,1.75,2.327,2.327,0,0,0,.285,1.031.8.8,0,0,0,.677.4.417.417,0,0,1,.072.83C72.8,49.335,72.761,49.337,72.724,49.337Z" fill="#fff"/>
      <path id="Path_646" data-name="Path 646" d="M74.575,48.642a1.639,1.639,0,0,1-1.338-.788,3.079,3.079,0,0,1-.413-1.4,3.756,3.756,0,0,1,.373-2.236.416.416,0,1,1,.724.411,2.969,2.969,0,0,0-.267,1.75,2.32,2.32,0,0,0,.285,1.03.8.8,0,0,0,.676.4.417.417,0,0,1,.072.83A1.038,1.038,0,0,1,74.575,48.642Z" fill="#fff"/>
      <path id="Path_647" data-name="Path 647" d="M57.335,48.951a.371.371,0,0,1-.047,0,.417.417,0,0,1-.367-.461A9.328,9.328,0,0,1,58.6,44.112a.416.416,0,0,1,.677.485,8.492,8.492,0,0,0-1.532,3.983A.417.417,0,0,1,57.335,48.951Z" fill="#fff"/>
      <path id="Path_648" data-name="Path 648" d="M95.957,81.875S128.3,62.65,120.98,109.34c0,0-15.2-1.936-19.138-1.705l-1.448,8.773s-11.23-23.7-14.843-27c0,0,7.761-6.448,10.406-7.536" fill="#1a6f5d"/>
      <path id="Path_649" data-name="Path 649" d="M100.393,116.824a.416.416,0,0,1-.376-.238c-.112-.236-11.236-23.66-14.747-26.868a.415.415,0,0,1-.135-.317.421.421,0,0,1,.15-.311c.318-.264,7.789-6.458,10.486-7.589.526-.309,6.887-3.964,13.345-3.964a11.5,11.5,0,0,1,9.182,3.924c4.193,4.9,5.234,14.3,3.094,27.943a.415.415,0,0,1-.464.349c-.135-.017-13.567-1.721-18.318-1.721-.147,0-.285,0-.413,0l-1.393,8.439a.416.416,0,0,1-.353.344A.379.379,0,0,1,100.393,116.824ZM86.167,89.443c3.441,3.768,11.752,20.842,14.031,25.59l1.232-7.466a.417.417,0,0,1,.386-.348c.225-.013.491-.02.793-.02,4.394,0,15.7,1.386,18.021,1.676C122.649,95.7,121.651,86.663,117.664,82a10.7,10.7,0,0,0-8.549-3.632c-6.367,0-12.881,3.824-12.946,3.863a.544.544,0,0,1-.054.027C93.874,83.182,87.705,88.181,86.167,89.443Z"/>
      <path id="Path_650" data-name="Path 650" d="M122.857,106.773h-.015l-20.849-.756a.418.418,0,0,1-.366-.248,56.349,56.349,0,0,1-3.5-23.931.417.417,0,0,1,.832.052A56.19,56.19,0,0,0,102.29,105.2l20.582.746a.416.416,0,0,1-.015.832Z" fill="#fff"/>
      <path id="Path_651" data-name="Path 651" d="M44.592,102.639a.406.406,0,0,1-.132-.022,92.468,92.468,0,0,0-15.354-3.7.416.416,0,1,1,.125-.823,93.286,93.286,0,0,1,15.492,3.734.416.416,0,0,1-.131.811Z" fill="#fff"/>
      <path id="Path_652" data-name="Path 652" d="M60.534,192.2a23.218,23.218,0,0,1-2.787-.161,40.643,40.643,0,0,1-10.023-3.021l-12.017-4.789a.417.417,0,0,1,.308-.774l12.017,4.789a40,40,0,0,0,9.815,2.968,36.732,36.732,0,0,0,10.477-.674c6.992-1.186,14.3-2.818,20.347-6.694a62.265,62.265,0,0,0,6.01-4.583,45.349,45.349,0,0,1,8.564-6.045.416.416,0,1,1,.37.746,44.668,44.668,0,0,0-8.4,5.94,62.932,62.932,0,0,1-6.092,4.644c-6.177,3.956-13.579,5.612-20.657,6.813A47.7,47.7,0,0,1,60.534,192.2Z" fill="#fff"/>
      <path id="Path_653" data-name="Path 653" d="M97.027,95.786a.415.415,0,0,1-.366-.219,19.327,19.327,0,0,1-2.223-10.753.416.416,0,0,1,.829.073,18.5,18.5,0,0,0,1.154,8.16c-.227-3.267-.3-6.562-.2-9.825a.417.417,0,0,1,.416-.4h.012a.415.415,0,0,1,.4.428,100.114,100.114,0,0,0,.393,12.085.415.415,0,0,1-.294.437A.392.392,0,0,1,97.027,95.786Z" fill="#fff"/>
      <path id="Path_654" data-name="Path 654" d="M42.944,181.214a.414.414,0,0,1-.359-.205,15.9,15.9,0,0,1-1.754-11.6.417.417,0,1,1,.811.191A15.058,15.058,0,0,0,43.3,180.587a.417.417,0,0,1-.148.57A.424.424,0,0,1,42.944,181.214Z" fill="#fff"/>
      <path id="Path_655" data-name="Path 655" d="M53.7,186.814a.409.409,0,0,1-.224-.066,32.467,32.467,0,0,1-11.224-12.253.416.416,0,0,1,.738-.386,31.634,31.634,0,0,0,10.935,11.938.416.416,0,0,1-.225.767Z" fill="#fff"/>
      <path id="Path_656" data-name="Path 656" d="M80.821,145.5a.416.416,0,0,1-.369-.609,15.484,15.484,0,0,0,1.672-8.305.416.416,0,1,1,.83-.068,16.32,16.32,0,0,1-1.763,8.757A.416.416,0,0,1,80.821,145.5Z" fill="#fff"/>
      <path id="Path_657" data-name="Path 657" d="M79.6,155.461a.41.41,0,0,1-.188-.045.417.417,0,0,1-.183-.56,50.52,50.52,0,0,0,4.459-12.792.416.416,0,0,1,.816.166,51.373,51.373,0,0,1-4.533,13A.415.415,0,0,1,79.6,155.461Z" fill="#fff"/>
      <path id="Path_658" data-name="Path 658" d="M28,136.8c4.823-9.417,12.967-27.127,17.153-35.614A57.272,57.272,0,0,1,56.38,85.575c5.569-5.455,14.19-11.329,22.735-10.566,0,0,1.526.916-.61,1.526s-7.934,2.441-9.46,4.272c0,0,9.155-5.8,15.868-5.188s-9.46,4.272-13.122,7.629c0,0,13.427-7.629,15.563-4.883s-8.239,3.967-12.817,7.019c0,0,9.765-5.188,11.291-2.746.354.567.138,1.158-.7,1.557-9.831,4.7-17.46,7.751-26.615,26.671-8.6,17.766-18.332,47.046-29.448,47.148-12.534.115-9.431-33.365.589-57.456" fill="#fff"/>
      <path id="Path_659" data-name="Path 659" d="M29,158.43a6.507,6.507,0,0,1-5.6-3.164c-2.824-4.192-3.674-12.5-2.393-23.384a123.039,123.039,0,0,1,8.26-31.483.416.416,0,0,1,.769.319,122.143,122.143,0,0,0-8.2,31.261c-1.258,10.69-.457,18.795,2.257,22.822a5.723,5.723,0,0,0,4.91,2.8h.059c8.446-.077,16.359-18.2,23.34-34.189,1.994-4.567,3.877-8.88,5.737-12.723,8.87-18.331,16.3-21.863,25.7-26.334l1.114-.531a1.065,1.065,0,0,0,.608-.551.5.5,0,0,0-.085-.409c-.91-1.457-6.83.815-10.743,2.893a.416.416,0,0,1-.426-.714,32.886,32.886,0,0,1,7.148-3.028c2.687-.908,5.465-1.846,5.749-2.792a.628.628,0,0,0-.178-.6c-.668-.859-2.982-.411-5.769.605l-.219.083-.8.305a70.059,70.059,0,0,0-8.242,4,.416.416,0,0,1-.487-.669c1.592-1.46,5.31-2.915,8.721-4.215.195-.076.387-.149.574-.219a30.234,30.234,0,0,0,5.211-2.276,4.931,4.931,0,0,0-1.14-.2,16.2,16.2,0,0,0-5.584.653,4,4,0,0,1-.673.248c-.564.161-1.154.34-1.752.532a45.31,45.31,0,0,0-7.6,3.692.416.416,0,0,1-.543-.618c1.245-1.5,4.987-2.919,7.573-3.764.878-.329,1.792-.633,2.721-.887.182-.105.208-.178.208-.179,0-.056-.123-.2-.254-.3-9.676-.8-18.811,7.04-22.3,10.458a56.715,56.715,0,0,0-11.145,15.5C43.835,104.8,41.486,109.76,39,115.011c-3.634,7.671-7.752,16.365-10.63,21.985a.416.416,0,1,1-.741-.38c2.873-5.608,6.988-14.3,10.619-21.962,2.488-5.254,4.839-10.216,6.531-13.646A57.549,57.549,0,0,1,56.087,85.279C59.672,81.768,69.094,73.7,79.15,74.595a.412.412,0,0,1,.177.058,1.508,1.508,0,0,1,.726.977,15.888,15.888,0,0,1,4.895-.425c1.134.1,1.906.293,1.986.883.058.424-.271.794-1.172,1.269a2.341,2.341,0,0,1,1.918.753A1.447,1.447,0,0,1,88,79.458c-.259.861-1.4,1.529-3.031,2.184a1.78,1.78,0,0,1,1.212.776,1.312,1.312,0,0,1,.178,1.083,1.787,1.787,0,0,1-1.049,1.07l-1.115.531c-9.253,4.4-16.562,7.878-25.3,25.945-1.853,3.829-3.733,8.135-5.723,12.694-3.6,8.252-7.329,16.785-11.291,23.366-4.565,7.582-8.754,11.286-12.805,11.323Z"/>
      <path id="Path_660" data-name="Path 660" d="M109.384,138.33S88.328,78.823,68.8,74.856c0,0-10.986-2.136,6.408,7.324,0,0-10.376-6.1-12.817-6.408s-9.765-1.526,8.85,7.934c0,0-8.85-4.883-12.207-5.8s-8.545.305,8.239,7.324c0,0-11.291-5.8-12.512-3.357s15.13,4.445,29.3,39.366c13.122,32.347,14.648,36.925,18.615,36.925,9.155,0,10.986-2.136,18.31-48.826" fill="#fff"/>
      <path id="Path_661" data-name="Path 661" d="M102.67,158.582c-2.166,0-3.6-1.373-5.688-5.441-2.182-4.255-5.14-11.559-10.508-24.82q-1.308-3.229-2.805-6.923C73.3,95.828,61.791,88.017,56.878,84.682c-1.919-1.3-2.976-2.021-2.491-2.992a1.4,1.4,0,0,1,.864-.7,5.207,5.207,0,0,1,2.451.047c-2.9-1.837-2.634-2.626-2.515-2.972.377-1.1,2.572-.934,3.955-.557.242.066.511.152.8.254-1.342-1.01-1.558-1.54-1.421-1.983.255-.826,1.665-.709,3.628-.455l.29.037a14.024,14.024,0,0,1,3.291,1.232c-.775-.787-.854-1.266-.724-1.628.384-1.069,2.834-.716,3.87-.515,4.559.926,9.548,4.878,14.832,11.746a136.692,136.692,0,0,1,13.078,21.7,302.056,302.056,0,0,1,12.99,30.3.416.416,0,1,1-.785.277A300.933,300.933,0,0,0,96.04,108.262c-10.022-19.992-19.471-31.4-27.326-33-1.462-.284-2.774-.242-2.925-.016-.016.1.033.959,5.361,4.15,2.26,1.245,4.091,2.319,4.267,2.423a.417.417,0,0,1-.41.725c-1.7-.925-3.125-1.735-4.314-2.446-3.282-1.8-7.09-3.756-8.356-3.914l-.294-.038a9.417,9.417,0,0,0-2.7-.1c.132.328,1.084,1.381,6.684,4.452,2.773,1.391,5.224,2.741,5.415,2.846a.416.416,0,0,1-.39.735q-3.054-1.553-5.373-2.821a47.041,47.041,0,0,0-6.755-2.947c-1.553-.423-2.859-.235-2.948.024,0,.012-.244,1,5.686,3.92,2.73,1.049,5.3,2.35,5.8,2.607a.417.417,0,0,1-.351.755c-2.305-.964-4.171-1.808-5.682-2.548-2.423-.938-4.84-1.641-5.919-1.288a.6.6,0,0,0-.378.281c-.16.32.94,1.066,2.214,1.931,4.976,3.378,16.628,11.289,27.095,37.092q1.5,3.7,2.805,6.924c10.436,25.779,12.04,29.741,15.424,29.741,8.663,0,10.528-1.486,17.9-48.474a.417.417,0,0,1,.823.129c-3.462,22.069-5.84,35.3-8.492,42.01C110.257,158.1,107.272,158.582,102.67,158.582Z"/>
      <path id="Path_662" data-name="Path 662" d="M88.442,68.875a1.859,1.859,0,0,1-.3-.024,1.37,1.37,0,0,1-1.062-.778,2.976,2.976,0,0,1-.138-1.592,4.268,4.268,0,0,1,.5-1.694,4.345,4.345,0,0,0,.333-.819.452.452,0,0,1,.731-.178,6.361,6.361,0,0,1,1.52,1.93,2.467,2.467,0,0,1-.3,2.622A1.784,1.784,0,0,1,88.442,68.875Zm-.086-4.066c-.056.127-.112.24-.166.347a3.486,3.486,0,0,0-.417,1.41,2.231,2.231,0,0,0,.071,1.168.562.562,0,0,0,.439.294.976.976,0,0,0,.836-.255,1.632,1.632,0,0,0,.146-1.721A4.331,4.331,0,0,0,88.356,64.809Z"/>
    </g>
  </g>
</svg>
