<svg xmlns="http://www.w3.org/2000/svg" xmlns:xlink="http://www.w3.org/1999/xlink" width="59" height="94" viewBox="0 0 59 94">
  <defs>
    <clipPath id="clip-path">
      <rect id="Rectangle_1" data-name="Rectangle 1" width="59" height="94" transform="translate(617 450)" fill="#fff" stroke="#707070" stroke-width="1"/>
    </clipPath>
  </defs>
  <g id="Mask_Group_1" data-name="Mask Group 1" transform="translate(-617 -450)" clip-path="url(#clip-path)">
    <g id="noun-coupon-1347062" transform="translate(598 444.999)">
      <path id="Path_1" data-name="Path 1" d="M50.785,66.411a9.515,9.515,0,0,0-3.544-1.588,11.685,11.685,0,0,0-1.507-.2,5.993,5.993,0,0,1-1.441-.237,4.645,4.645,0,0,1-3.037-4.311A4.58,4.58,0,0,1,45.83,55.5h.42a4.581,4.581,0,0,1,4.575,4.575,1.6,1.6,0,1,0,3.2,0A7.784,7.784,0,0,0,47.961,52.5V49.737a1.6,1.6,0,1,0-3.2,0v2.645A7.77,7.77,0,0,0,43.219,67.4a8.679,8.679,0,0,0,2.236.41,8.764,8.764,0,0,1,1.106.141A6.3,6.3,0,0,1,48.905,69a5.175,5.175,0,0,1,2.227,4.113,4.876,4.876,0,0,1-4.87,4.871h-.44a4.877,4.877,0,0,1-4.871-4.871,1.6,1.6,0,0,0-3.2,0,8.078,8.078,0,0,0,7.026,8v3.45a1.6,1.6,0,0,0,3.2,0V81a8.081,8.081,0,0,0,6.355-7.883A8.384,8.384,0,0,0,50.785,66.411Z"/>
      <path id="Path_2" data-name="Path 2" d="M76.243,17.964c1.791-4.171,1.673-7.813-.331-10.251a7.765,7.765,0,0,0-5.417-2.654c-4.9-.487-11.471,2.1-17.155,6.766a32.828,32.828,0,0,0-7.41,8.4,8.865,8.865,0,0,0-6.243,2.655L25.625,37.666c-.025.026-.049.054-.072.082A13.477,13.477,0,0,0,22.5,46.28v40.7A8.03,8.03,0,0,0,30.519,95H61.561a8.03,8.03,0,0,0,8.02-8.021V46.28a13.482,13.482,0,0,0-3.053-8.532c-.023-.027-.048-.056-.073-.082l-4.606-4.842a35.57,35.57,0,0,0,5.6-3.787A30.663,30.663,0,0,0,76.243,17.964ZM66.582,46.28v40.7A5.026,5.026,0,0,1,61.562,92H30.519a5.026,5.026,0,0,1-5.02-5.021V46.28a10.469,10.469,0,0,1,2.339-6.587l14-14.721a5.914,5.914,0,0,1,8.378-.021l6.538,6.873a16.251,16.251,0,0,1-5.206,1.031,5.478,5.478,0,0,0,.043-.657,5.567,5.567,0,1,0-1.335,3.6,12.148,12.148,0,0,0,1.237.063,20.052,20.052,0,0,0,7.5-1.68l5.243,5.512A10.464,10.464,0,0,1,66.582,46.28ZM48.393,32.2a3.844,3.844,0,0,1-1.2-.954A3.728,3.728,0,0,1,46.5,29.89,2.358,2.358,0,0,1,48.393,32.2Zm-4.544-.841A6.542,6.542,0,0,0,44.88,33.15a6.718,6.718,0,0,0,1.562,1.359,2.31,2.31,0,0,1-.4.041,2.34,2.34,0,0,1-2.192-3.193Zm15.839-.805L52.371,22.86a8.866,8.866,0,0,0-3.24-2.08,31.163,31.163,0,0,1,6.11-6.635c5.015-4.112,10.889-6.5,14.957-6.1a4.8,4.8,0,0,1,3.394,1.57c1.24,1.51,1.2,4.122-.105,7.166a27.652,27.652,0,0,1-7.937,9.937A31.854,31.854,0,0,1,59.688,30.552Z" stroke="#000" stroke-width="1"/>
      <text id="Created_by_Maxim_Kulikov" data-name="Created by Maxim Kulikov" transform="translate(0 115)" font-size="5" font-family="Arial-BoldMT, Arial" font-weight="700"><tspan x="0" y="0">Created by Maxim Kulikov</tspan></text>
      <text id="from_the_Noun_Project" data-name="from the Noun Project" transform="translate(0 120)" font-size="5" font-family="Arial-BoldMT, Arial" font-weight="700"><tspan x="0" y="0">from the Noun Project</tspan></text>
    </g>
  </g>
</svg>
