<svg xmlns="http://www.w3.org/2000/svg" xmlns:xlink="http://www.w3.org/1999/xlink" width="49" height="49" viewBox="0 0 49 49">
  <defs>
    <clipPath id="clip-path">
      <rect id="Rectangle_476" data-name="Rectangle 476" width="49" height="49" transform="translate(-2142 -2611)" fill="#fff"/>
    </clipPath>
  </defs>
  <g id="Mask_Group_2" data-name="Mask Group 2" transform="translate(2142 2611)" clip-path="url(#clip-path)">
    <g id="noun-secured-5109851" transform="translate(-2142 -2611)">
      <g id="Group_814" data-name="Group 814" transform="translate(4.55 0)">
        <path id="Path_4851" data-name="Path 4851" d="M21.966,44.73a1.557,1.557,0,0,1-.607-.121,32.214,32.214,0,0,1-19.11-29.4V6.814A1.537,1.537,0,0,1,3.767,5.3H4.838a36.683,36.683,0,0,0,16.44-3.883,1.5,1.5,0,0,1,1.375,0A36.683,36.683,0,0,0,39.094,5.3h1.072a1.537,1.537,0,0,1,1.517,1.517v8.392a32.214,32.214,0,0,1-19.11,29.4,1.557,1.557,0,0,1-.607.121ZM5.283,8.33v6.875A29.14,29.14,0,0,0,21.966,41.495,29.14,29.14,0,0,0,38.65,15.206V8.33A39.635,39.635,0,0,1,21.966,4.448,39.635,39.635,0,0,1,5.283,8.33ZM20.43,28.087a1.557,1.557,0,0,1-1.072-.425l-4.611-4.53a1.517,1.517,0,0,1,2.123-2.164l3.559,3.478,8.655-8.513a1.516,1.516,0,0,1,2.144,2.144L21.5,27.642A1.517,1.517,0,0,1,20.43,28.087Z" transform="translate(-2.25 -1.247)"/>
      </g>
      <text id="Created_by_Arkinasi" data-name="Created by Arkinasi" transform="translate(0 75.232)" font-size="10" font-family="Arial-BoldMT, Arial" font-weight="700"><tspan x="0" y="0">Created by Arkinasi</tspan></text>
      <text id="from_the_Noun_Project" data-name="from the Noun Project" transform="translate(0 85.343)" font-size="10" font-family="Arial-BoldMT, Arial" font-weight="700"><tspan x="0" y="0">from the Noun Project</tspan></text>
    </g>
  </g>
</svg>
