<svg xmlns="http://www.w3.org/2000/svg" xmlns:xlink="http://www.w3.org/1999/xlink" width="392" height="349" viewBox="0 0 392 349">
  <defs>
    <clipPath id="clip-path">
      <rect id="Rectangle_1" data-name="Rectangle 1" width="334" height="349" transform="translate(606 413)" fill="#fff" stroke="#707070" stroke-width="1"/>
    </clipPath>
    <clipPath id="clip-path-2">
      <rect id="Rectangle_2" data-name="Rectangle 2" width="86" height="87" transform="translate(1157 453.775)" fill="#fff" stroke="#707070" stroke-width="1"/>
    </clipPath>
  </defs>
  <g id="Group_6" data-name="Group 6" transform="translate(-990 -304)">
    <g id="Group_4" data-name="Group 4">
      <g id="Group_3" data-name="Group 3" transform="translate(404 -109)">
        <g id="Group_1" data-name="Group 1">
          <g id="Mask_Group_1" data-name="Mask Group 1" clip-path="url(#clip-path)">
            <g id="noun-redemption-6176409" transform="translate(524 319.9)">
              <path id="Path_1" data-name="Path 1" d="M172.1,225.7a63.215,63.215,0,1,0,0,89.4,63.192,63.192,0,0,0,0-89.4Zm-44.7-12.3a57,57,0,1,1-57,57,56.975,56.975,0,0,1,57-57Zm6.2,48-6.2-15.6-6.1,15.3a5.094,5.094,0,0,1-4.5,3.5l-16.8,1,12.8,10.6a4.751,4.751,0,0,1,1.8,5.2l-4.2,16.3,14.1-8.9a5.233,5.233,0,0,1,5.4-.1l14.2,9-4.2-16.3h0a4.881,4.881,0,0,1,1.7-5.1l12.9-10.7-16.8-1h0a5.459,5.459,0,0,1-4.1-3.2Zm15.2,50.9-21.3-13.5-21.3,13.5a47.029,47.029,0,0,0,42.6,0Zm-16.7-81.9,9.7,24.3,26.1,1.7a5.007,5.007,0,0,1,2.9,8.8h0L150.6,282l6.4,25a47.012,47.012,0,1,0-59.1,0l6.4-25L84.1,265.3a4.961,4.961,0,0,1,3.1-8.8l26-1.7,9.7-24.3a4.934,4.934,0,0,1,9.2-.1Zm239,19.4V237.4H327.8v12.4Zm39.8-12.5v12.4h43.3V237.3Zm-29.8,0v12.4h19.8V237.3Zm19.8,97.3V259.8H381.1v74.8h19.8Zm10-74.8v74.8H447a1.58,1.58,0,0,0,1.6-1.6V259.8Zm-39.8,74.8V259.8H333.4V333a1.58,1.58,0,0,0,1.6,1.6ZM409,210.5c-4.7,2-9.6,7.1-12,16.6h3.4c10.6-6.2,15.1-11.4,15.8-15,.7-3.2-4.2-2.9-7.2-1.6Zm-43.2,1.6c.8,3.6,5.2,8.8,15.8,15H385c-2.4-9.5-7.3-14.6-12-16.6-3-1.3-7.9-1.6-7.2,1.6ZM345.7,373.6l-8.6-4.4c-6.6,10.4-18.5,23.4-29.6,28.8-32.5,16.1-80.7,13.3-107.6-11.3a51.366,51.366,0,0,1-11.3-14.5h0c-1.5-3,.4-5.1,1.9-7.6l-28.9-1.1L175.1,389c.9-1.4,2.3-3.9,3.4-4.8a5.051,5.051,0,0,1,7,.9c17.2,22.6,48.8,32.6,76.7,32.6,17.3,0,34.6-3.6,49.7-11.1,12.6-6.3,26.3-20.9,33.8-33ZM172.8,168.2l8.6,4.4c6.6-10.4,18.5-23.4,29.6-28.8,32.5-16.1,80.8-13.3,107.7,11.3A51.366,51.366,0,0,1,330,169.6h0c1.5,3-.3,5.1-1.9,7.6l28.9,1.1-13.5-25.5c-.9,1.4-2.2,3.9-3.4,4.8a5.051,5.051,0,0,1-7-.9c-17.2-22.6-48.8-32.6-76.7-32.6a113.678,113.678,0,0,0-49.7,11.1c-12.7,6.3-26.4,20.9-33.9,33Z" fill="#033"/>
              <text id="Created_by_Sugiyarto" data-name="Created by Sugiyarto" transform="translate(0 527)" font-size="5" font-family="Arial-BoldMT, Arial" font-weight="700"><tspan x="0" y="0">Created by Sugiyarto</tspan></text>
              <text id="from_the_Noun_Project" data-name="from the Noun Project" transform="translate(0 532)" font-size="5" font-family="Arial-BoldMT, Arial" font-weight="700"><tspan x="0" y="0">from the Noun Project</tspan></text>
            </g>
          </g>
          <rect id="Rectangle_3" data-name="Rectangle 3" width="133" height="152" transform="translate(586 516)" fill="#fff"/>
          <rect id="Rectangle_4" data-name="Rectangle 4" width="133" height="152" transform="translate(845 516)" fill="#fff"/>
        </g>
        <g id="Mask_Group_2" data-name="Mask Group 2" transform="translate(-517 99.225)" clip-path="url(#clip-path-2)">
          <g id="noun-offer-3025743" transform="translate(1150.372 454.295)">
            <path id="Path_2" data-name="Path 2" d="M160.122,125.869l-3.571-6.219a2.272,2.272,0,0,1,0-2.251l3.58-6.219a5.173,5.173,0,0,0-1.9-7.054l-6.239-3.59a2.241,2.241,0,0,1-1.126-1.95V91.454a5.166,5.166,0,0,0-5.162-5.162h-7.131a2.262,2.262,0,0,1-1.95-1.126l-3.59-6.229a5.17,5.17,0,0,0-7.054-1.892l-6.219,3.58a2.272,2.272,0,0,1-2.251,0l-6.219-3.58a5.165,5.165,0,0,0-7.054,1.892l-3.59,6.239a2.241,2.241,0,0,1-1.95,1.126H91.564A5.166,5.166,0,0,0,86.4,91.463v7.131a2.262,2.262,0,0,1-1.126,1.95l-6.229,3.59a5.182,5.182,0,0,0-1.9,7.054l3.58,6.219a2.272,2.272,0,0,1,0,2.251l-3.58,6.219a5.165,5.165,0,0,0,1.892,7.054l6.239,3.59a2.241,2.241,0,0,1,1.126,1.95V145.6a5.166,5.166,0,0,0,5.162,5.162h7.131a2.262,2.262,0,0,1,1.95,1.125l3.59,6.229a5.17,5.17,0,0,0,7.054,1.892l6.219-3.58a2.272,2.272,0,0,1,2.251,0l6.219,3.58a5.16,5.16,0,0,0,2.571.689,4.966,4.966,0,0,0,1.349-.184,5.145,5.145,0,0,0,3.134-2.406l3.59-6.239a2.241,2.241,0,0,1,1.95-1.126H145.7a5.166,5.166,0,0,0,5.162-5.162v-7.131a2.262,2.262,0,0,1,1.126-1.95l6.239-3.59A5.154,5.154,0,0,0,160.122,125.869Zm-57.595-23.432a7.238,7.238,0,0,1,10.227,0,7.231,7.231,0,1,1-10.227,0Zm2.988,31.931-2.746-2.746,28.943-28.943,2.746,2.746Zm29.2.233a7.231,7.231,0,1,1,0-10.227A7.214,7.214,0,0,1,134.711,134.6Z" transform="translate(-68.836 -76.352)" fill="#033333"/>
            <text id="Created_by_IconPai" data-name="Created by IconPai" transform="translate(-0.372 95.48)" font-size="1" font-family="Arial-BoldMT, Arial" font-weight="700"><tspan x="0" y="0">Created by IconPai</tspan></text>
            <text id="from_the_Noun_Project-2" data-name="from the Noun Project" transform="translate(-0.372 95.48)" font-size="1" font-family="Arial-BoldMT, Arial" font-weight="700"><tspan x="0" y="0">from the Noun Project</tspan></text>
          </g>
        </g>
      </g>
    </g>
    <g id="Group_1069" data-name="Group 1069" transform="translate(1232 436.999)">
      <path id="Path_74" data-name="Path 74" d="M1393.707,883.155s-4.1,13.012-4.31,14.4.042,4.12,3.368,4.12,15.461-3.822,15.461-3.822Z" transform="translate(-1386.53 -820.826)" fill="#033333" stroke="#033333" stroke-width="1"/>
      <g id="Group_65" data-name="Group 65">
        <path id="Path_54754" data-name="Path 54754" d="M42.916,0c23.7,0,42.916,18.581,42.916,41.5S66.618,83,42.916,83,0,64.416,0,41.5,19.217,0,42.916,0Z" fill="#033333"/>
        <path id="ic_sms_24px" d="M37.115,2H4.319A4.008,4.008,0,0,0,.238,5.923l-.8,21.609L-4.726,41.326,8.416,33.379h28.7a4.026,4.026,0,0,0,4.1-3.923V5.923A4.026,4.026,0,0,0,37.115,2ZM14.566,19.65h-4.1V15.729h4.1Zm8.2,0h-4.1V15.729h4.1Zm8.2,0h-4.1V15.729h4.1Z" transform="translate(22.351 22.678)" fill="#fff"/>
      </g>
    </g>
  </g>
</svg>
