<svg id="Group_1069" data-name="Group 1069" xmlns="http://www.w3.org/2000/svg" width="97" height="90" viewBox="0 0 97 90">
  <path id="Path_74" data-name="Path 74" d="M1394.18,883.155s-4.541,14.423-4.777,15.961.047,4.567,3.733,4.567,17.137-4.236,17.137-4.236Z" transform="translate(-1386.225 -816.069)" fill="#033333" stroke="#033333" stroke-width="1"/>
  <g id="Group_65" data-name="Group 65">
    <path id="Path_54754" data-name="Path 54754" d="M48.5,0C75.285,0,97,20.147,97,45S75.285,90,48.5,90,0,69.848,0,45,21.717,0,48.5,0Z" fill="#033333"/>
    <path id="ic_sms_24px" d="M41.651,2H5.3A4.442,4.442,0,0,0,.776,6.348L-.116,30.3l-4.61,15.29L9.841,36.781h31.81A4.462,4.462,0,0,0,46.2,32.433V6.348A4.462,4.462,0,0,0,41.651,2ZM16.658,21.564H12.114V17.217h4.544Zm9.088,0H21.2V17.217h4.544Zm9.088,0H30.29V17.217h4.544Z" transform="translate(25.085 24.223)" fill="#fff"/>
  </g>
</svg>
