<svg xmlns="http://www.w3.org/2000/svg" xmlns:xlink="http://www.w3.org/1999/xlink" width="32" height="42" viewBox="0 0 32 42">
  <defs>
    <clipPath id="clip-path">
      <rect id="Rectangle_4" data-name="Rectangle 4" width="32" height="42" transform="translate(1024 238)" fill="#fff" stroke="#707070" stroke-width="1"/>
    </clipPath>
  </defs>
  <g id="Mask_Group_3" data-name="Mask Group 3" transform="translate(-1024 -238)" clip-path="url(#clip-path)">
    <g id="noun-trash-5083505" transform="translate(1011.488 228.986)">
      <g id="Group_4" data-name="Group 4">
        <rect id="Rectangle_3" data-name="Rectangle 3" width="57.886" height="57.886" fill="none"/>
        <path id="Path_17" data-name="Path 17" d="M202.921,165.736h5.223a7.039,7.039,0,0,1,1.94-4.084,5.723,5.723,0,0,1,4.111-1.712h4.88a5.72,5.72,0,0,1,4.111,1.712,7.046,7.046,0,0,1,1.941,4.084h5.228a1.455,1.455,0,0,1,1.451,1.451h0a1.455,1.455,0,0,1-1.451,1.451H202.921a1.455,1.455,0,0,1-1.451-1.451h0a1.455,1.455,0,0,1,1.451-1.451Zm5.69,31.9h16.056A4.645,4.645,0,0,0,229.3,193V171.54H203.98v21.469a4.645,4.645,0,0,0,4.63,4.631Zm2.224-20.7h0a1.455,1.455,0,0,1,1.451,1.451v12.391a1.455,1.455,0,0,1-1.451,1.451h0a1.456,1.456,0,0,1-1.451-1.451V178.394a1.455,1.455,0,0,1,1.45-1.451Zm11.608,0h0a1.455,1.455,0,0,1,1.451,1.451v12.391a1.455,1.455,0,0,1-1.451,1.451h0a1.455,1.455,0,0,1-1.451-1.451V178.394a1.455,1.455,0,0,1,1.45-1.451Zm-5.8,0h0a1.455,1.455,0,0,1,1.451,1.451v12.391a1.455,1.455,0,0,1-1.451,1.451h0a1.455,1.455,0,0,1-1.451-1.451V178.394a1.455,1.455,0,0,1,1.446-1.451Zm-5.567-11.207H222.2a4.039,4.039,0,0,0-1.06-2.038,2.878,2.878,0,0,0-2.065-.864H214.2a2.876,2.876,0,0,0-2.065.864,4.039,4.039,0,0,0-1.06,2.038Z" transform="translate(-187.695 -149.004)" fill="#676666" fill-rule="evenodd"/>
      </g>
      <text id="Created_by_Devit_Hermanvianto" data-name="Created by Devit Hermanvianto" transform="translate(0.001 59.57)" font-size="1" font-family="Arial-BoldMT, Arial" font-weight="700"><tspan x="0" y="0">Created by Devit Hermanvianto</tspan></text>
      <text id="from_the_Noun_Project" data-name="from the Noun Project" transform="translate(0.001 59.912)" font-size="1" font-family="Arial-BoldMT, Arial" font-weight="700"><tspan x="0" y="0">from the Noun Project</tspan></text>
    </g>
  </g>
</svg>
