<svg xmlns="http://www.w3.org/2000/svg" xmlns:xlink="http://www.w3.org/1999/xlink" width="526" height="365.761" viewBox="0 0 526 365.761">
  <defs>
    <clipPath id="clip-path">
      <rect id="Rectangle_25" data-name="Rectangle 25" width="526" height="143" transform="translate(876 696)" fill="#fff" stroke="#707070" stroke-width="1"/>
    </clipPath>
  </defs>
  <g id="Group_19" data-name="Group 19" transform="translate(-255 -317.239)">
    <g id="freepik--Character--inject-43" transform="translate(243.29 214.79)">
      <path id="Path_450" data-name="Path 450" d="M412.92,171.5a10.52,10.52,0,0,0,13.28-16.17,10.94,10.94,0,0,0-.08-20.77A13.1,13.1,0,0,0,413.43,116a14.73,14.73,0,0,0-16-8.59A10.47,10.47,0,0,0,381.14,119" fill="#263238"/>
      <path id="Path_451" data-name="Path 451" d="M390.72,115.63l2,1.06a44.63,44.63,0,0,1,20.84,56.82c-8.31,20-17.73,41.94-23.14,52.17-11.2,21.17-34.21,13.54-34.21,13.54l-11.34,26.53-27.08,7L294,237.6l43.08-95.19C346.56,119.3,367.88,105.55,390.72,115.63Z" fill="#ffbf9d"/>
      <path id="Path_452" data-name="Path 452" d="M356.45,239.28s-14-6.16-23.73-22.5c0,0-1.3,18.7,20.94,27.7Z" fill="#ff9a6c"/>
      <path id="Path_453" data-name="Path 453" d="M416.57,162.69S417.8,146.46,413,140c-5.86-7.76-13.6-.94-20-6.82s-11.94-13.32-22.47-11.48c-11.52,2-9.9,8.42-15.26,17.61-21.76,37.27-34.32,44.51-27,25.44.8-2.09-3.88-6.49-.4-15.26,4.5-11.38,10.84-24.75,17.21-31.2,5.36-5.43,11.36-8,20.52-9.55,14.46-2.42,28.92,4.79,38.17,10.78S426,146.44,416.57,162.69Z" fill="#263238"/>
      <path id="Path_454" data-name="Path 454" d="M329.89,164.9a6.51,6.51,0,0,0-3.38-8.78c-4.17-1.66-9.75-1.67-13.71,6.67-7,14.81,9.3,18.8,9.53,18.38S327,171.13,329.89,164.9Z" fill="#ffbf9d"/>
      <path id="Path_455" data-name="Path 455" d="M321.75,174.08c-.05-.08-.35.06-.88,0a2.87,2.87,0,0,1-1.94-.87c-1.3-1.32-1.44-4.43-.25-7.13a9.65,9.65,0,0,1,2.48-3.35,3.29,3.29,0,0,1,2.87-1.06,1.45,1.45,0,0,1,1.19,1.43c0,.51-.23.76-.16.82s.43-.1.6-.77a1.82,1.82,0,0,0-.14-1.2,2.14,2.14,0,0,0-1.25-1.05,4,4,0,0,0-3.78,1,9.66,9.66,0,0,0-2.85,3.7c-1.32,3-1.11,6.54.73,8.18a3.07,3.07,0,0,0,2.55.72C321.55,174.42,321.79,174.13,321.75,174.08Z" fill="#ff9a6c"/>
      <path id="Path_456" data-name="Path 456" d="M344.66,136.83c1.23,2.26,2.55,4.62,4.71,6s5.44,1.43,7-.63c.69-.93,1.05-2.23,2.11-2.67,1.28-.53,2.6.52,3.75,1.27,4,2.62,11.36.49,14.55-3.08a4.27,4.27,0,0,0,4.54,3.66,15.129,15.129,0,0,0,5.11-1.32c2-.8,4.5-1.19,6.29.07,1,.7,1.67,1.86,2.81,2.32,2,.82,4.08-.94,5.35-2.7s2.62-3.85,4.77-4c2-.18,3.66,1.37,5.28,2.53s4.12,1.92,5.45.43a3.92,3.92,0,0,0,.71-3,10.6,10.6,0,0,0-9.31-9.28,14.37,14.37,0,0,0-22.22-14.54A14.58,14.58,0,0,0,362.38,106a10.57,10.57,0,0,0-17.63,8.24c-3.39.15-7,1.6-8.57,4.59s-.21,7.5,3.11,8.2a5.85,5.85,0,0,0,6.34,9.82" fill="#263238"/>
      <path id="Path_457" data-name="Path 457" d="M406.66,131.25a1.321,1.321,0,0,1-.14.26,7.55,7.55,0,0,1-.5.73,10.41,10.41,0,0,1-2.49,2.27,11.8,11.8,0,0,1-5,1.78,10.89,10.89,0,0,1-6.84-1.36l.41-.19a6,6,0,0,1-2.36,3.87,16.75,16.75,0,0,1-4.33,2.3,12.329,12.329,0,0,1-2.49.83,5.62,5.62,0,0,1-2.75-.32,6,6,0,0,1-3.82-4.09l.62.12a12.26,12.26,0,0,1-8.51,5.18,9,9,0,0,1-5.59-.88,16.549,16.549,0,0,1-4.19-3.46h.48a12.9,12.9,0,0,1-5.75,2.73,6.9,6.9,0,0,1-5.79-1.23,9,9,0,0,1-2.95-9.45l.25.32a8.41,8.41,0,0,1-5.39-1.83,9.3,9.3,0,0,1-2.69-3.35,8,8,0,0,1-.71-2.61,3.612,3.612,0,0,1,0-1,9.63,9.63,0,0,0,.94,3.44,9.15,9.15,0,0,0,2.68,3.15,8.08,8.08,0,0,0,5.13,1.65h.35l-.1.34a8.51,8.51,0,0,0,2.86,8.82,6.23,6.23,0,0,0,5.27,1,12.22,12.22,0,0,0,5.43-2.6l.26-.21.22.24a15.58,15.58,0,0,0,4,3.3,8.27,8.27,0,0,0,5.16.81,11.63,11.63,0,0,0,8-4.88l.45-.64.18.77a5.26,5.26,0,0,0,3.38,3.6,4.92,4.92,0,0,0,2.42.31,11.859,11.859,0,0,0,2.34-.77,16.82,16.82,0,0,0,4.2-2.18,5.4,5.4,0,0,0,2.19-3.48l.06-.41.35.21a10.54,10.54,0,0,0,6.51,1.4,11.64,11.64,0,0,0,4.88-1.61,12.83,12.83,0,0,0,3.37-2.88Z" fill="#455a64"/>
      <path id="Path_458" data-name="Path 458" d="M394.68,190.82a3.42,3.42,0,0,1-4.52,1.51,3.27,3.27,0,0,1-1.68-4.36,3.41,3.41,0,0,1,4.52-1.52,3.27,3.27,0,0,1,1.68,4.37Z" fill="#263238"/>
      <path id="Path_459" data-name="Path 459" d="M405.72,182.32c-.58.2-2-2.7-5.23-4.4s-6.49-1.34-6.64-1.92c-.08-.27.68-.78,2.12-1a9.47,9.47,0,0,1,5.57,1.05,9,9,0,0,1,3.9,4C406,181.35,406,182.24,405.72,182.32Z" fill="#263238"/>
      <path id="Path_460" data-name="Path 460" d="M364.18,176.41a3.41,3.41,0,0,1-4.52,1.51,3.26,3.26,0,0,1-1.68-4.36A3.43,3.43,0,0,1,362.5,172a3.28,3.28,0,0,1,1.68,4.41Z" fill="#263238"/>
      <path id="Path_461" data-name="Path 461" d="M373.46,166.29c-.58.2-2-2.7-5.23-4.4s-6.49-1.33-6.64-1.92c-.08-.27.68-.78,2.12-1a9.37,9.37,0,0,1,5.57,1,9,9,0,0,1,3.9,4C373.77,165.32,373.74,166.21,373.46,166.29Z" fill="#263238"/>
      <path id="Path_462" data-name="Path 462" d="M372,197.41c.08-.19,2.29.52,5.78,1.83.87.35,1.75.6,2.19.11a4.84,4.84,0,0,0,.74-2.75c.27-2.42.57-5,.87-7.62,1.33-10.79,2.76-19.49,3.2-19.43s-.3,8.85-1.63,19.64c-.35,2.66-.67,5.18-1,7.6-.19,1.11-.21,2.46-1.29,3.48a2.32,2.32,0,0,1-2,.5,6.67,6.67,0,0,1-1.52-.55C373.94,198.66,371.88,197.6,372,197.41Z" fill="#263238"/>
      <path id="Path_463" data-name="Path 463" d="M363.47,149.11c.68-.81,4,.91,8.18,1.92s7.9,1.12,8.12,2.16c.09.49-.8,1.16-2.46,1.58a14.59,14.59,0,0,1-12.42-3.11C363.63,150.51,363.16,149.5,363.47,149.11Z" fill="#263238"/>
      <path id="Path_464" data-name="Path 464" d="M410.91,172.84c-1.06.4-3.34-1.72-6.53-3.39s-6.17-2.51-6.4-3.6c-.08-.52.72-1,2.26-1.15a11.51,11.51,0,0,1,5.95,1.49,11.36,11.36,0,0,1,4.47,4.15C411.41,171.68,411.39,172.63,410.91,172.84Z" fill="#263238"/>
      <path id="Path_465" data-name="Path 465" d="M363.23,207.23c-.19.1-.74-.5-1.53-1.52L360.33,204a9.268,9.268,0,0,0-1.73-1.8,8.66,8.66,0,0,0-4.38-1.1c-1.25,0-2.05,0-2.11-.21s.68-.64,2-.89a8.8,8.8,0,0,1,2.41-.1,6.54,6.54,0,0,1,2.92,1,8.35,8.35,0,0,1,2,2.25,16.351,16.351,0,0,1,1.14,2C363.2,206.32,363.42,207.12,363.23,207.23Z" fill="#263238"/>
      <path id="Path_466" data-name="Path 466" d="M233.09,210.36s21.9,0,35,1.27c14,1.35,25.07,2.92,25.07,2.92l13.17-4.2-1.75,28.21,15,24.11,15.21-5.92,12.29-4.32,6-9,39.64,20.77-47.78,98.38H176.49l26.7-62.15Z" fill="#033"/>
      <path id="Path_467" data-name="Path 467" d="M117.21,340c.31-1.22-1-21.61,9.3-27.09s69.59-84.86,77.8-91.82c20.93-17.75,44.94-8.09,44.94-8.09s-17.51,42.46-21.77,53.3-30.61,47-30.14,46.16c3.31-6-24.66,36.09-24.66,36.09Z" fill="#033"/>
      <path id="Path_468" data-name="Path 468" d="M222.28,250.07a3.888,3.888,0,0,1-.22.71l-.73,2c-.68,1.78-1.62,4.27-2.78,7.32-2.42,6.22-5.72,14.72-9.36,24.1s-7.06,17.85-9.51,24.05c-1.22,3-2.22,5.49-2.94,7.26l-.82,2a3.11,3.11,0,0,1-.32.67,3.64,3.64,0,0,1,.22-.71c.19-.5.43-1.17.74-2,.67-1.78,1.62-4.27,2.78-7.33L208.7,284l9.5-24c1.23-3,2.23-5.5,2.94-7.27.34-.81.62-1.46.82-2a5.144,5.144,0,0,1,.32-.66Z" fill="#263238"/>
      <path id="Path_469" data-name="Path 469" d="M312.78,259.87a4.767,4.767,0,0,1-.49-.55L311,257.66l-4.83-6.17-3.34-4.28a2.17,2.17,0,0,0-2.39-1,9.08,9.08,0,0,0-2.36,2l-10.19,10.3-.45.46v-3.93a281.081,281.081,0,0,1,2-28.36c.44-3.61.87-6.53,1.19-8.53q.24-1.45.39-2.31a4.93,4.93,0,0,1,.17-.8,3.8,3.8,0,0,1-.07.81c-.07.58-.17,1.35-.29,2.32-.26,2-.63,4.94-1,8.55C289,234,288.19,244,288,255.08v3.28l-.45-.18,10.23-10.26c.39-.4.78-.78,1.17-1.16a4.08,4.08,0,0,1,1.37-1,2,2,0,0,1,1.67.12,4.23,4.23,0,0,1,1.19,1c1.22,1.56,2.29,3,3.3,4.34l4.7,6.27,1.25,1.71A3.7,3.7,0,0,1,312.78,259.87Z" fill="#263238"/>
      <path id="Path_470" data-name="Path 470" d="M358.56,246.86a4,4,0,0,1-.18.6c-.13.38-.32.95-.6,1.66a64.58,64.58,0,0,1-2.68,6,70.229,70.229,0,0,1-12.69,17.51l-.34.33-.1-.45c-.08-.33-.16-.69-.24-1a62.061,62.061,0,0,1-1.5-13.53l.31.23-12.37,4.1-3.52,1.12-.94.28c-.22.06-.33.09-.33.07a1.09,1.09,0,0,1,.3-.14l.92-.35,3.48-1.25,12.31-4.28.31-.11v.33a63.606,63.606,0,0,0,1.54,13.41l.23,1-.43-.12a73.409,73.409,0,0,0,12.74-17.31c1.29-2.43,2.21-4.46,2.81-5.87l.7-1.63A2.892,2.892,0,0,1,358.56,246.86Z" fill="#263238"/>
      <path id="Path_471" data-name="Path 471" d="M269.77,362.63c-.13-.07,10.59-22.3,23.94-49.66s24.27-49.49,24.4-49.42-10.59,22.29-23.94,49.65S269.9,362.69,269.77,362.63Z" fill="#263238"/>
      <path id="Path_472" data-name="Path 472" d="M254.45,329.56a4.279,4.279,0,0,1,1.13.16c.72.14,1.75.37,3,.68a96.866,96.866,0,0,1,9.77,3c3.77,1.38,7.08,2.76,9.44,3.88,1.18.56,2.13,1,2.77,1.38a4.53,4.53,0,0,1,1,.59,5.409,5.409,0,0,1-1.07-.4l-2.83-1.23c-2.39-1-5.72-2.4-9.46-3.73s-7.19-2.38-9.7-3.09l-3-.84A5.6,5.6,0,0,1,254.45,329.56Z" fill="#263238"/>
      <path id="Path_473" data-name="Path 473" d="M250.82,343.9a5.212,5.212,0,0,1,1.07-.29c.69-.16,1.7-.35,3-.56a95.142,95.142,0,0,1,9.88-1.12,97.141,97.141,0,0,1,9.95-.1c1.28.05,2.3.12,3,.19a5.094,5.094,0,0,1,1.1.16,4.221,4.221,0,0,1-1.11,0h-3c-2.54,0-6.05,0-9.91.26s-7.35.63-9.87,1l-3,.4A3.812,3.812,0,0,1,250.82,343.9Z" fill="#263238"/>
      <g id="Group_15" data-name="Group 15" opacity="0.3">
        <path id="Path_474" data-name="Path 474" d="M289.2,256.82l1.82,5.7s8.09-10.65,10.61-9.52,9.82,5.13,9.82,5.13-8.79-11.82-9.65-12-1.76-.19-3.55,1.61Z"/>
      </g>
      <g id="Group_16" data-name="Group 16" opacity="0.3">
        <path id="Path_475" data-name="Path 475" d="M342.42,271.64a53.2,53.2,0,0,1-1.74-13.81c-4.34,1.5-13.22,4.13-17.3,5.88,3.51-.46,8.34-.65,11.86-1.11a1.41,1.41,0,0,1,1.86,1.59,97.993,97.993,0,0,1,.61,12.93,17.93,17.93,0,0,0,10-10.57Z"/>
      </g>
      <g id="Group_17" data-name="Group 17" opacity="0.3">
        <path id="Path_476" data-name="Path 476" d="M160.91,313.56c-5.86-2.56-12.62-2.19-18.86-.78h0c10.95.88,21.2,6.88,28.65,15.8C171.42,322.23,166.77,316.13,160.91,313.56Z"/>
      </g>
      <path id="Path_477" data-name="Path 477" d="M399.66,267.77s11.3,3.93,24.85,35.79c7.51,17.68,17.67,35.57,10.65,51.2-3.29,7.3-53.18,10-53.18,10s-7.63-7.14-7.89-12.9,0-11.25,0-11.25l-14.77-8.1L384,277.22Z" fill="#033"/>
      <path id="Path_478" data-name="Path 478" d="M425.26,320.31l-23.82-68.72-27.78,10.93L387.26,335s18.4,6.11,28.17.46A18.868,18.868,0,0,0,425.26,320.31Z" fill="#ffbf9d"/>
      <path id="Path_479" data-name="Path 479" d="M427.57,203.78c-.88-1.86-3.28-2.6-5.31-2.23a14.25,14.25,0,0,0-5.47,2.8l8,6.85a14,14,0,0,0,2.54-3.35A4.81,4.81,0,0,0,427.57,203.78Z" fill="#ff9a6c"/>
      <path id="Path_480" data-name="Path 480" d="M373.66,262.52c.2-.47-4.17-19.56.5-25.6s21.56-23.71,21.56-23.71-2.46-9.33,5.56-9.43c0,0,1.89-7.61,7.94-5.47,0,0,2.72-2,6.42,1.24s17.15,14.43,17.82,18.9a12.86,12.86,0,0,1-2,8.36s-11.64,8.43-16.47,11.73c-3.79,2.6-13,7.33-12.64,16.26Z" fill="#ffbf9d"/>
      <path id="Path_481" data-name="Path 481" d="M410.88,217.28a3.49,3.49,0,0,0,.49-.53A2.88,2.88,0,0,0,412,215a4.29,4.29,0,0,0-1-2.6,24.83,24.83,0,0,0-2.49-2.61,60.762,60.762,0,0,0-5-4.3,23.147,23.147,0,0,1-2.17-1.68,10.14,10.14,0,0,1,2.39,1.38,41.641,41.641,0,0,1,5.15,4.22,23.218,23.218,0,0,1,2.52,2.7,4.51,4.51,0,0,1,1,2.9,2.93,2.93,0,0,1-.79,1.91C411.16,217.24,410.89,217.3,410.88,217.28Z" fill="#ff9a6c"/>
      <path id="Path_482" data-name="Path 482" d="M423.38,213.15a19,19,0,0,1-2-2.27c-1.19-1.43-2.84-3.38-4.79-5.44s-3.81-3.81-5.18-5.06a22.59,22.59,0,0,1-2.2-2.07,14.749,14.749,0,0,1,2.44,1.79,59.56,59.56,0,0,1,5.32,5,65.451,65.451,0,0,1,4.7,5.57,15.815,15.815,0,0,1,1.71,2.48Z" fill="#ff9a6c"/>
      <path id="Path_483" data-name="Path 483" d="M421.53,223a18,18,0,0,0,1.11-2.18,18.885,18.885,0,0,0,.35-2.42,2.85,2.85,0,0,1,.14,2.58A3.171,3.171,0,0,1,421.53,223Z" fill="#ff9a6c"/>
      <path id="Path_484" data-name="Path 484" d="M402.3,254.8a3.326,3.326,0,0,1,0-.42v-1.27a13,13,0,0,1,1.37-4.64,19.14,19.14,0,0,1,5-5.82,40.426,40.426,0,0,1,3.9-2.79c1.44-.91,3-1.83,4.49-2.92,3.08-2.14,6.41-4.56,10-7.16l2.71-2,1.39-1,.18-.13h0v-.05l.05-.09.22-.36c.15-.25.28-.51.41-.77a12,12,0,0,0,1.27-6.89,9,9,0,0,0-1.68-3.21,35.613,35.613,0,0,0-2.47-2.94c-1.75-1.9-3.65-3.75-5.63-5.58s-4.05-3.64-6.17-5.46a24,24,0,0,0-3.26-2.58,4.84,4.84,0,0,0-3.9-.54,3,3,0,0,0-.64.28h-.07a.33.33,0,0,1-.2,0h-.05l-.18-.05-.35-.09a5.831,5.831,0,0,0-1.42-.22,4.61,4.61,0,0,0-2.64.9,9.05,9.05,0,0,0-3,4.75v.18h-.19a6.83,6.83,0,0,0-3.09.73,4.59,4.59,0,0,0-2,2.28,7.89,7.89,0,0,0-.56,3,13.328,13.328,0,0,0,.34,3v.14l-.09.1c-5.82,6.11-11.2,11.85-15.91,17.07l-3.39,3.83c-.53.63-1.07,1.24-1.57,1.86a11,11,0,0,0-1.34,1.88A13.42,13.42,0,0,0,372.6,242a29.9,29.9,0,0,0-.3,4,78.329,78.329,0,0,0,.95,12,33.352,33.352,0,0,1,.55,4.29,5.343,5.343,0,0,0-.17-1.09c-.17-.72-.31-1.81-.55-3.18a75.1,75.1,0,0,1-1.09-12,30.546,30.546,0,0,1,.27-4.07,13.631,13.631,0,0,1,1.24-4.3,10.589,10.589,0,0,1,1.38-1.95c.49-.63,1-1.24,1.56-1.88,1.07-1.26,2.2-2.54,3.37-3.86,4.7-5.24,10.05-11,15.87-17.12l-.06.23a13.548,13.548,0,0,1-.36-3.18,8.48,8.48,0,0,1,.59-3.24,5.15,5.15,0,0,1,2.24-2.53,7.39,7.39,0,0,1,3.33-.8l-.25.2a9.63,9.63,0,0,1,3.17-5.05,5.15,5.15,0,0,1,2.94-1,6.76,6.76,0,0,1,1.56.23l.38.1.19.05h0a.27.27,0,0,0-.18,0h.05l.09-.06a4.41,4.41,0,0,1,.74-.33,5.4,5.4,0,0,1,4.32.59,10.171,10.171,0,0,1,1.75,1.27l1.59,1.37c2.12,1.82,4.19,3.64,6.17,5.48s3.9,3.69,5.66,5.62a36.73,36.73,0,0,1,2.49,3,17.08,17.08,0,0,1,.91,1.81l.43.87.28.95a12.4,12.4,0,0,1-1.33,7.17c-.13.26-.27.53-.42.78l-.23.39-.07.09v.05h0s-.08.08-.07.08l-.18.13-1.39,1-2.73,2c-3.58,2.59-6.92,5-10,7.11-1.54,1.08-3.09,2-4.52,2.9a38.912,38.912,0,0,0-3.89,2.74,18.76,18.76,0,0,0-5,5.69,13.08,13.08,0,0,0-1.44,4.55,10.271,10.271,0,0,1-.06,1.26A2.694,2.694,0,0,1,402.3,254.8Z" fill="#ff9a6c"/>
      <path id="Path_485" data-name="Path 485" d="M366.64,286.49l4,19.45c-.85,3.29,7.89,53.5,11.28,59.54s11.55,9.6,25.64,9.88,23.88-11.41,27.26-19.64-5-26.19-8.7-40.73-9.88-36.56-9.88-36.56Z" fill="#033"/>
      <path id="Path_486" data-name="Path 486" d="M366.64,286.49l.85-.16,2.57-.44,9.88-1.65,36.28-6h.17l.05.18c3.07,11.29,6.6,24.31,10.45,38.54,1.95,7.09,4.64,14.29,6.81,21.92.28,1,.54,1.92.77,2.89s.46,1.95.66,2.94.34,2,.51,3c.07.51.09,1,.14,1.53a11.263,11.263,0,0,1,.07,1.54,12.67,12.67,0,0,1-1.22,6.07,34.393,34.393,0,0,1-3.13,5.41,32.52,32.52,0,0,1-14.27,11.64,24.24,24.24,0,0,1-8.85,1.73,63.835,63.835,0,0,1-8.79-.57,39.941,39.941,0,0,1-8.34-2,20.3,20.3,0,0,1-7.14-4.31,14.859,14.859,0,0,1-2.47-3.28,25.141,25.141,0,0,1-1.35-3.78c-.73-2.53-1.32-5.05-1.89-7.51-2.21-9.87-3.85-19-5.23-27.1q-1-6.09-1.77-11.38c-.24-1.76-.46-3.46-.65-5.08-.08-.81-.16-1.6-.22-2.38a11.14,11.14,0,0,1,0-2.31V306l-2.91-14.46c-.32-1.64-.57-2.89-.74-3.75-.08-.41-.14-.72-.18-.95s-.05-.31-.05-.31l.08.33.21,1c.19.86.46,2.12.81,3.76.7,3.3,1.72,8.14,3,14.36V306a11.05,11.05,0,0,0,0,2.22c.06.77.15,1.56.24,2.37.19,1.62.42,3.3.67,5.06.51,3.52,1.12,7.32,1.82,11.36,1.4,8.1,3.07,17.22,5.3,27.07.57,2.46,1.17,5,1.9,7.48a24.513,24.513,0,0,0,1.32,3.69,14.531,14.531,0,0,0,2.39,3.16,19.46,19.46,0,0,0,7,4.18,38.843,38.843,0,0,0,8.24,2c5.67.65,11.78,1.21,17.39-1.14a32.11,32.11,0,0,0,14-11.46,33.421,33.421,0,0,0,3.09-5.33,12.2,12.2,0,0,0,1.18-5.85,10.766,10.766,0,0,0-.08-1.5,9.511,9.511,0,0,0-.14-1.5c-.16-1-.27-2-.49-3s-.41-1.95-.66-2.91-.49-1.93-.76-2.88c-2.16-7.6-4.85-14.81-6.79-21.94-3.82-14.22-7.33-27.25-10.36-38.56l.22.15L380.1,284.4l-10,1.56-2.61.4Z" fill="#263238"/>
      <path id="Path_487" data-name="Path 487" d="M370.65,305.94a2.58,2.58,0,0,1-.23.59c-.19.43-.44,1-.74,1.67-.68,1.5-1.63,3.56-2.78,6.09-2.35,5.15-5.5,12.3-8.95,20.21s-6.66,15.05-9.09,20.16c-1.22,2.56-2.22,4.62-2.93,6-.35.66-.62,1.2-.84,1.62a2.341,2.341,0,0,1-.32.55,3.078,3.078,0,0,1,.23-.59l.74-1.67c.69-1.5,1.63-3.56,2.78-6.09,2.35-5.15,5.5-12.3,9-20.22s6.66-15,9.09-20.15c1.22-2.56,2.22-4.62,2.94-6l.83-1.62a2.339,2.339,0,0,1,.27-.55Z" fill="#263238"/>
      <g id="Group_18" data-name="Group 18" opacity="0.3">
        <path id="Path_488" data-name="Path 488" d="M374.2,330.7c-2-13.38-4.05-27.2-6.69-40-1.52,23.89,3.23,47.94,12.58,70Z"/>
      </g>
      <path id="Path_510" data-name="Path 510" d="M123.86,320.13S113.7,321.61,113,335.78s1.81,16.85,2.36,19.57,9.62,16.17,11.26,17.26,46.5,0,46.5,0,2.54-14,3.09-17.62-.55-14.17-11.45-23.25S123.86,320.13,123.86,320.13Z" fill="#002323"/>
      <path id="Path_511" data-name="Path 511" d="M188.79,368.26s6.44,1.11,10.31,4.79,7.37,5.71,7.18,9.39-5,11.42-6.63,11.24L198,393.5Z" fill="#ffbf9d"/>
      <path id="Path_512" data-name="Path 512" d="M203.9,394.2l.41,5.19a.49.49,0,0,1-.75.45l-4.59-3-32.75-60.22a2.8,2.8,0,0,1,1.12-3.8h0a2.8,2.8,0,0,1,3.8,1.12Z" fill="#263238"/>
      <rect id="Rectangle_24" data-name="Rectangle 24" width="1.82" height="19.4" rx="0.86" transform="matrix(0.881, -0.474, 0.474, 0.881, 172.354, 334.652)" fill="#263238"/>
      <path id="Path_513" data-name="Path 513" d="M154.07,387.14s-28.14-14.48-28.14-15.29S115,345.64,143.32,345.36c0,0,16.18-1.69,23.51,11.28l10.73,11.29Z" fill="#ffbf9d"/>
      <path id="Path_514" data-name="Path 514" d="M177.37,359.42s-4.89-4.23-8.25-3.13-4.83,6.63-4.83,6.63-7.74.37-9.21,2.76a23.54,23.54,0,0,0-2.21,6.63s-7.73,3.87-3.68,11.24c0,0-2.95,4.05.73,8.84s15.11,10.5,18.24,11.05,9.94,0,9.94,0,13.08,4.24,16.58,2.21l.92-1.77a5.6,5.6,0,0,0,1.94-2.65c.94-2.86-3.19-5.34-3.19-5.34s3.12-.74,3.29-5-6.28-13.08-10.14-17.32S177.37,359.42,177.37,359.42Z" fill="#ffbf9d"/>
      <path id="Path_515" data-name="Path 515" d="M195.6,394.6a.991.991,0,0,1-.13.41,1.83,1.83,0,0,1-.9.82,2.241,2.241,0,0,1-.89.18,2.09,2.09,0,0,1-1.05-.23,13,13,0,0,1-2.07-1.46c-2.89-2.37-6.58-5.95-10.56-10-2-2-3.88-3.95-5.48-5.85s-2.9-3.67-4-5.17c-2.21-3-3.45-5-3.29-5s.06.12.23.35l.69,1c.62.83,1.52,2,2.66,3.5s2.5,3.21,4.08,5.08,3.51,3.76,5.48,5.8c4,4,7.62,7.65,10.42,10.07a14.791,14.791,0,0,0,2,1.49,1.84,1.84,0,0,0,.93.24,2.209,2.209,0,0,0,.8-.11,1.81,1.81,0,0,0,.89-.7C195.53,394.73,195.58,394.59,195.6,394.6Z" fill="#ff9a6c"/>
      <path id="Path_516" data-name="Path 516" d="M194.68,405.38a1.562,1.562,0,0,1-.46-.14l-1.28-.52c-1.11-.46-2.72-1.14-4.68-2a80,80,0,0,1-14.63-8.28,45.478,45.478,0,0,1-6.85-6.25,68.932,68.932,0,0,1-4.68-5.95c-1.24-1.76-2.2-3.22-2.85-4.22l-.74-1.18c-.16-.27-.24-.42-.22-.43a2,2,0,0,1,.31.37l.82,1.12c.7,1,1.7,2.4,3,4.12a75.192,75.192,0,0,0,4.74,5.85,47.3,47.3,0,0,0,6.8,6.16,87.56,87.56,0,0,0,14.48,8.35l4.6,2.18,1.24.6a1.631,1.631,0,0,1,.4.22Z" fill="#ff9a6c"/>
      <path id="Path_517" data-name="Path 517" d="M178.1,403.44a5,5,0,0,1-1.17-.23,31.992,31.992,0,0,1-3.11-1,30.8,30.8,0,0,1-9.37-5.26,19.652,19.652,0,0,1-2.2-2.17c-.64-.74-1.29-1.43-1.93-2.07-1.27-1.29-2.46-2.4-3.47-3.32l-2.41-2.17a7.308,7.308,0,0,1-.86-.83,5.268,5.268,0,0,1,1,.67c.61.47,1.47,1.16,2.52,2s2.27,2,3.57,3.26c.65.64,1.32,1.33,2,2.08a22.531,22.531,0,0,0,2.15,2.1,33.72,33.72,0,0,0,9.18,5.4C176.48,402.92,178.13,403.35,178.1,403.44Z" fill="#ff9a6c"/>
      <path id="Path_518" data-name="Path 518" d="M169.71,356.16a13.2,13.2,0,0,0-2.52,1.34,7.14,7.14,0,0,0-2.08,2.44,11.59,11.59,0,0,0-1.16,4v.22h-.23a10.69,10.69,0,0,0-4.27.45,8,8,0,0,0-2.11,1,5.84,5.84,0,0,0-1.58,1.79,7.25,7.25,0,0,0-1.26,5.18l.08.34h-.33a3.47,3.47,0,0,0-2.55.9,9.12,9.12,0,0,0-1.65,2.05,10.5,10.5,0,0,0-1.09,2.09,7,7,0,0,0-.35,2,7.1,7.1,0,0,0,.49,2.82,8.493,8.493,0,0,1,.43,1c-.03.05-.08-.07-.18-.21a4.552,4.552,0,0,1-.4-.69,6.64,6.64,0,0,1-.65-2.9,7,7,0,0,1,.31-2.09,9.88,9.88,0,0,1,1.08-2.19,9,9,0,0,1,1.7-2.19,4,4,0,0,1,2.88-1l-.25.31a7.59,7.59,0,0,1,1.3-5.58,6.18,6.18,0,0,1,1.73-1.94,8.27,8.27,0,0,1,2.25-1,11.3,11.3,0,0,1,4.49-.42l-.26.2a11.59,11.59,0,0,1,1.28-4.13,7.14,7.14,0,0,1,2.25-2.48,7.76,7.76,0,0,1,1.93-.95A2.46,2.46,0,0,1,169.71,356.16Z" fill="#ff9a6c"/>
      <path id="Path_519" data-name="Path 519" d="M167.21,333.93a18.52,18.52,0,0,1-1.27-1.57,41,41,0,0,0-3.71-4,37.14,37.14,0,0,0-33.31-9.48,39.351,39.351,0,0,0-5.27,1.46,17.371,17.371,0,0,1-1.9.66,2.069,2.069,0,0,1,.46-.24c.31-.14.76-.38,1.37-.61a33.36,33.36,0,0,1,5.26-1.63,36.36,36.36,0,0,1,33.64,9.58,33.388,33.388,0,0,1,3.62,4.16c.39.51.65.95.85,1.23a2.6,2.6,0,0,1,.26.44Z" fill="#263238"/>
      <path id="Path_520" data-name="Path 520" d="M171.48,329.88c-.07.06-1-1.23-2.8-3.12a49.678,49.678,0,0,0-7.58-6.65,50.178,50.178,0,0,0-8.79-4.93c-2.38-1-3.91-1.51-3.89-1.6a4.4,4.4,0,0,1,1.11.26,29.405,29.405,0,0,1,2.92,1A42.85,42.85,0,0,1,169,326.51a30.506,30.506,0,0,1,1.92,2.42,4.649,4.649,0,0,1,.56.95Z" fill="#263238"/>
    </g>
    <g id="Mask_Group_1" data-name="Mask Group 1" transform="translate(-621 -156)" clip-path="url(#clip-path)">
      <g id="Subscriber-pana" transform="translate(761.185 476.65)">
        <g id="freepik--Character--inject-38">
          <rect id="Rectangle_4" data-name="Rectangle 4" width="526.26" height="128.48" rx="62.05" transform="translate(114.58 233.63)" fill="#09877c"/>
          <g id="Group_2" data-name="Group 2" opacity="0.3">
            <rect id="Rectangle_5" data-name="Rectangle 5" width="526.26" height="128.48" rx="62.05" transform="translate(114.58 233.63)"/>
          </g>
          <rect id="Rectangle_6" data-name="Rectangle 6" width="526.26" height="128.48" rx="64.24" transform="translate(114.58 223.11)" fill="#09877c"/>
          <path id="Path_51" data-name="Path 51" d="M263.37,277.05v31.74H256.3v-4a13,13,0,0,1-10.23,4.46c-8.14,0-13.67-4.46-13.67-14v-18.2h7.43v17.12c0,5.76,2.74,8.5,7.43,8.5,5.17,0,8.68-3.21,8.68-9.57V277.05Z" transform="translate(61)" fill="#fff"/>
          <path id="Path_52" data-name="Path 52" d="M306.82,292.92c0,9.87-6.84,16.29-16.11,16.29-4.34,0-8-1.49-10.52-4.52v4.1h-7.07v-44.1h7.43v16.23a13.16,13.16,0,0,1,10.16-4.22C300,276.7,306.82,283.06,306.82,292.92Zm-7.55,0c0-6.06-4-9.92-9.39-9.92s-9.45,3.86-9.45,9.92,4.1,9.93,9.45,9.93,9.39-3.85,9.39-9.93Z" transform="translate(61)" fill="#fff"/>
          <path id="Path_53" data-name="Path 53" d="M310.27,305.64l2.85-5.65a21.26,21.26,0,0,0,11.05,3.15c4.7,0,6.66-1.3,6.66-3.5,0-6.06-19.61-.36-19.61-13,0-6,5.41-9.92,14-9.92,4.22,0,9,1,11.89,2.73l-2.85,5.65a17.33,17.33,0,0,0-9.1-2.38c-4.51,0-6.65,1.48-6.65,3.56,0,6.42,19.61.72,19.61,13.14,0,5.94-5.47,9.81-14.38,9.81C318.41,309.21,313.12,307.66,310.27,305.64Z" transform="translate(61)" fill="#fff"/>
          <path id="Path_54" data-name="Path 54" d="M341.89,292.92c0-9.51,7.13-16.22,17.17-16.22,6.18,0,11.12,2.55,13.55,7.37l-5.7,3.32A9,9,0,0,0,359,283c-5.46,0-9.62,3.8-9.62,9.92s4.16,9.93,9.62,9.93a9,9,0,0,0,7.91-4.4l5.7,3.33c-2.43,4.75-7.37,7.43-13.55,7.43C349,309.21,341.89,302.43,341.89,292.92Z" transform="translate(61)" fill="#fff"/>
          <path id="Path_55" data-name="Path 55" d="M397.4,276.7v7.07a9.319,9.319,0,0,0-1.72-.18c-5.65,0-9.22,3.33-9.22,9.81v15.39H379V277.05h7.08v4.64C388.25,278.36,392.11,276.7,397.4,276.7Z" transform="translate(61)" fill="#fff"/>
          <path id="Path_56" data-name="Path 56" d="M402.69,267.37a4.53,4.53,0,0,1,4.76-4.46c2.73,0,4.75,1.84,4.75,4.28a4.76,4.76,0,0,1-9.51.18Zm1,9.68h7.43v31.74H403.7Z" transform="translate(61)" fill="#fff"/>
          <path id="Path_57" data-name="Path 57" d="M454.58,292.92c0,9.87-6.84,16.29-16.11,16.29-4.34,0-8-1.49-10.52-4.52v4.1h-7.07v-44.1h7.43v16.23a13.16,13.16,0,0,1,10.16-4.22C447.74,276.7,454.58,283.06,454.58,292.92Zm-7.55,0c0-6.06-4-9.92-9.39-9.92s-9.45,3.86-9.45,9.92,4.1,9.93,9.45,9.93S447,299,447,292.92Z" transform="translate(61)" fill="#fff"/>
          <path id="Path_58" data-name="Path 58" d="M491.37,295.3h-24.9c.89,4.63,4.75,7.61,10.28,7.61a11.35,11.35,0,0,0,8.61-3.45l4,4.58c-2.86,3.38-7.31,5.17-12.78,5.17-10.64,0-17.53-6.84-17.53-16.29s6.95-16.22,16.4-16.22c9.27,0,16.05,6.48,16.05,16.4C491.49,293.69,491.43,294.59,491.37,295.3Zm-25-4.93h18a8.63,8.63,0,0,0-9-7.73,8.77,8.77,0,0,0-8.96,7.73Z" transform="translate(61)" fill="#fff"/>
          <path id="Path_59" data-name="Path 59" d="M497.25,304.57a4.61,4.61,0,0,1,4.82-4.58,4.53,4.53,0,0,1,4.69,4.58,4.58,4.58,0,0,1-4.69,4.64,4.65,4.65,0,0,1-4.82-4.64Zm.42-37.38h8.8L505,295h-5.9Z" transform="translate(61)" fill="#fff"/>
          <path id="Path_64" data-name="Path 64" d="M350.43,119.72a2.34,2.34,0,0,0,2.42,2.19,2.25,2.25,0,0,0,2.25-2.28,2.33,2.33,0,0,0-2.42-2.19,2.23,2.23,0,0,0-2.25,2.28Z" fill="#263238"/>
          <path id="Path_65" data-name="Path 65" d="M347.18,113.62c.31.29,2-1.15,4.49-1.33s4.44.94,4.69.62c.13-.15-.21-.68-1.05-1.2a6.48,6.48,0,0,0-3.79-.87,6.14,6.14,0,0,0-3.54,1.44C347.25,112.93,347,113.5,347.18,113.62Z" fill="#263238"/>
          <path id="Path_66" data-name="Path 66" d="M363.81,134c0-.15-1.58-.3-4.13-.44-.65,0-1.26-.1-1.4-.53a3.26,3.26,0,0,1,.28-1.93q.74-2.4,1.54-5c2.12-7.14,3.61-13,3.32-13.07s-2.24,5.63-4.36,12.77q-.76,2.64-1.46,5a3.76,3.76,0,0,0-.15,2.54,1.62,1.62,0,0,0,1.13.86,3.87,3.87,0,0,0,1.09.07C362.23,134.25,363.81,134.15,363.81,134Z" fill="#263238"/>
          <path id="Path_67" data-name="Path 67" d="M346.41,107.58c.57.54,2.65-.19,5.2-.37s4.73.08,5.18-.54c.2-.31-.17-.86-1.15-1.34a8.47,8.47,0,0,0-4.29-.67,8.37,8.37,0,0,0-4.08,1.41C346.41,106.71,346.15,107.32,346.41,107.58Z" fill="#263238"/>
          <path id="Path_72" data-name="Path 72" d="M374,118.22a2.34,2.34,0,0,0,2.42,2.19,2.23,2.23,0,0,0,2.25-2.28,2.34,2.34,0,0,0-2.42-2.19,2.25,2.25,0,0,0-2.25,2.28Z" fill="#263238"/>
          <path id="Path_73" data-name="Path 73" d="M371.26,112.36c.31.32,2.28-.92,5-.82s4.72,1.44,5,1.15c.15-.14-.16-.7-1-1.31a7.52,7.52,0,0,0-4-1.3,7.14,7.14,0,0,0-4,1C371.41,111.68,371.11,112.22,371.26,112.36Z" fill="#263238"/>
          <path id="Path_74" data-name="Path 74" d="M371,104.49c.24.69,2.75.38,5.7.76s5.33,1.2,5.73.59c.18-.29-.23-.94-1.19-1.61a10,10,0,0,0-8.71-1C371.45,103.63,370.9,104.17,371,104.49Z" fill="#263238"/>
          <path id="Path_76" data-name="Path 76" d="M367.93,143.55a5.33,5.33,0,0,0,2.37-1,4.46,4.46,0,0,0,1.51-2.24,5.57,5.57,0,0,0,0-3.31l-.06-.18.3.17c-2.4.53-4.57,1-6.14,1.29a12.889,12.889,0,0,1-2.57.38,14.613,14.613,0,0,1,2.49-.74c1.55-.39,3.71-.9,6.11-1.44l.23-.05.07.21.06.2a5.88,5.88,0,0,1,0,3.62,4.69,4.69,0,0,1-1.75,2.39,3.92,3.92,0,0,1-1.87.7C368.18,143.64,367.92,143.58,367.93,143.55Z" fill="#263238"/>
          <path id="Path_77" data-name="Path 77" d="M418.81,129.08a2,2,0,0,1-.67-.17,3.92,3.92,0,0,1-1.56-1.25,5.83,5.83,0,0,1-1.15-2.93,17.7,17.7,0,0,1,.17-4.17,11.28,11.28,0,0,0-.21-4.88,4.64,4.64,0,0,0-1.51-2.17,11.35,11.35,0,0,0-2.5-1.47,17.5,17.5,0,0,1-2.78-1.49,5.92,5.92,0,0,1-2.08-2.62c-.91-2.12-.82-4.5-1.33-6.73a7.67,7.67,0,0,0-1.32-3.06,4.35,4.35,0,0,0-2.66-1.63c-1-.24-2.14-.28-3.21-.49a4.86,4.86,0,0,1-2.83-1.51,6.63,6.63,0,0,1-1.27-2.77c-.24-.95-.38-1.88-.57-2.75a10.711,10.711,0,0,0-.84-2.41,10.161,10.161,0,0,0-1.34-1.93A10.49,10.49,0,0,0,385,81.28a16.209,16.209,0,0,0-2.65-.06,7.14,7.14,0,0,1,2.68-.14,10.48,10.48,0,0,1,6.41,3.32,10,10,0,0,1,1.42,2,10.622,10.622,0,0,1,.91,2.5c.2.88.35,1.81.59,2.72a6.25,6.25,0,0,0,1.19,2.57,4.26,4.26,0,0,0,2.57,1.34c1,.2,2.11.23,3.22.48a4.93,4.93,0,0,1,3,1.81,8.28,8.28,0,0,1,1.42,3.26c.52,2.33.44,4.66,1.29,6.65a5.4,5.4,0,0,0,1.9,2.41,16.41,16.41,0,0,0,2.7,1.47,12.481,12.481,0,0,1,2.59,1.54,5.17,5.17,0,0,1,1.61,2.39,11.37,11.37,0,0,1,.18,5.06,17.521,17.521,0,0,0-.25,4.09,5.79,5.79,0,0,0,1,2.85A4,4,0,0,0,418.81,129.08Z" fill="#455a64"/>
          <path id="Path_78" data-name="Path 78" d="M328.82,89.28a2,2,0,0,1,.5.32l1.4,1a24.479,24.479,0,0,0,5.51,2.85,13.45,13.45,0,0,0,8.95.18,9.33,9.33,0,0,0,4.28-3.07,32.319,32.319,0,0,0,2.93-5A15.561,15.561,0,0,1,356,80.72a15.169,15.169,0,0,1,4.8-2.77,18.21,18.21,0,0,1,9.27-.68,24.69,24.69,0,0,1,6,1.86c.68.3,1.19.56,1.53.75a2.681,2.681,0,0,1,.51.31,2.37,2.37,0,0,1-.55-.21c-.36-.16-.88-.39-1.57-.67a27.519,27.519,0,0,0-6-1.68,18.17,18.17,0,0,0-9,.77,14.85,14.85,0,0,0-4.63,2.7,15,15,0,0,0-3.44,4.62,31.1,31.1,0,0,1-3,5.11A9.61,9.61,0,0,1,345.34,94a13.66,13.66,0,0,1-9.24-.28,23.23,23.23,0,0,1-5.5-3c-.6-.44-1-.8-1.34-1a2.891,2.891,0,0,1-.44-.44Z" fill="#455a64"/>
          <path id="Path_79" data-name="Path 79" d="M324.6,104.13c.06-.07.83.61,2.21,1.46a20,20,0,0,0,5.86,2.38,19.75,19.75,0,0,0,6.31.37c1.62-.17,2.6-.45,2.63-.36s-.23.13-.67.28a12,12,0,0,1-1.91.44,17.27,17.27,0,0,1-6.48-.22,17.47,17.47,0,0,1-5.94-2.58,12.317,12.317,0,0,1-1.53-1.23C324.74,104.35,324.57,104.16,324.6,104.13Z" fill="#455a64"/>
          <path id="Path_80" data-name="Path 80" d="M334,113.48c.06-.14,1.76.56,4,.92s4,.28,4.06.43a11.21,11.21,0,0,1-8-1.35Z" fill="#455a64"/>
          <path id="Path_82" data-name="Path 82" d="M427.54,199.18c.1,0,.4-1.32,1.35-3.29a26.7,26.7,0,0,1,4.95-6.92,62.159,62.159,0,0,1,6.49-5.63,25.406,25.406,0,0,0,2.77-2.26,19.157,19.157,0,0,0-3,1.93,45.867,45.867,0,0,0-6.66,5.55,23.831,23.831,0,0,0-4.91,7.16,14,14,0,0,0-.83,2.5,2.67,2.67,0,0,0-.16.96Z" fill="#263238"/>
          <path id="Path_83" data-name="Path 83" d="M330,216.52a18,18,0,0,0,.11-3.39c0-2.1-.14-5-.38-8.18s-.57-6.08-.87-8.15a17.338,17.338,0,0,0-.62-3.34,21.51,21.51,0,0,0,.21,3.39c.19,2.27.43,5.06.69,8.14s.4,5.88.55,8.15a21.28,21.28,0,0,0,.31,3.38Z" fill="#263238"/>
          <path id="Path_98" data-name="Path 98" d="M421.32,170.81a2.62,2.62,0,0,1,.27,1,4.35,4.35,0,0,1-.73,2.78,6.29,6.29,0,0,1-3.67,2.69,19.5,19.5,0,0,1-6,.51,24.382,24.382,0,0,0-3.48.18,8.49,8.49,0,0,0-3.47,1.24,7.21,7.21,0,0,0-2.49,3,20.376,20.376,0,0,0-1.28,4.07c-.32,1.44-.61,2.93-1.07,4.44a12.3,12.3,0,0,1-11,8.83,13,13,0,0,1-9.4-3.35,14.291,14.291,0,0,1-2.94-3.78,8.26,8.26,0,0,0-2.87-3.29,6.82,6.82,0,0,0-4.06-.71,33.88,33.88,0,0,0-4,.68,20.38,20.38,0,0,1-3.81.52,9.89,9.89,0,0,1-3.52-.56,12,12,0,0,1-5-3.36,11.65,11.65,0,0,1-2.35-3.93,10,10,0,0,1-.45-1.61c-.05-.49-.13-.89-.13-1.22v-.76a1.151,1.151,0,0,1,0-.25,12.079,12.079,0,0,0,.75,3.77,11.511,11.511,0,0,0,2.38,3.8,11.64,11.64,0,0,0,4.94,3.21,9.67,9.67,0,0,0,3.39.51,20.1,20.1,0,0,0,3.73-.54,35,35,0,0,1,4-.72,7.27,7.27,0,0,1,4.33.75,8.72,8.72,0,0,1,3.06,3.45,14.089,14.089,0,0,0,2.86,3.66,12.56,12.56,0,0,0,9,3.21,12.1,12.1,0,0,0,8.43-4.37c2.07-2.45,2.56-5.63,3.23-8.49A20,20,0,0,1,401.3,182a7.75,7.75,0,0,1,2.66-3.18,8.79,8.79,0,0,1,3.66-1.28,23.718,23.718,0,0,1,3.53-.14,20.29,20.29,0,0,0,6-.42,6.17,6.17,0,0,0,3.58-2.53,4.31,4.31,0,0,0,.79-2.67,7.393,7.393,0,0,0-.2-.97Z" fill="#fff"/>
          <path id="Path_101" data-name="Path 101" d="M436.56,182.59a2.763,2.763,0,0,1-.61-1.24,7.14,7.14,0,0,1-.14-3.33,7.28,7.28,0,0,1,1.38-3.05c.54-.67,1-1,1-.92a9.24,9.24,0,0,0-1.66,8.54Z" fill="#fff"/>
          <path id="Path_102" data-name="Path 102" d="M461,202.41a1.7,1.7,0,0,1-.11.44,7.618,7.618,0,0,1-.46,1.2,11.679,11.679,0,0,1-2.87,3.76,12.23,12.23,0,0,1-6.36,2.91c-2.7.4-5.59-.46-8.49-1.18a19,19,0,0,0-4.31-.66,12.05,12.05,0,0,0-4,.62,13.65,13.65,0,0,0-5.68,3.71,13.069,13.069,0,0,0-2.49,3.89c-.42,1-.53,1.63-.59,1.62a1.269,1.269,0,0,1,.06-.45,8.7,8.7,0,0,1,.34-1.24,12.512,12.512,0,0,1,2.4-4.07,13.91,13.91,0,0,1,5.81-3.92,12.09,12.09,0,0,1,4.13-.67,20,20,0,0,1,4.42.66c2.93.73,5.74,1.58,8.31,1.21a12,12,0,0,0,6.18-2.71,12.24,12.24,0,0,0,2.93-3.57A8.809,8.809,0,0,0,461,202.41Z" fill="#fff"/>
          <path id="Path_113" data-name="Path 113" d="M263.37,277.05v31.74H256.3v-4a13,13,0,0,1-10.23,4.46c-8.14,0-13.67-4.46-13.67-14v-18.2h7.43v17.12c0,5.76,2.74,8.5,7.43,8.5,5.17,0,8.68-3.21,8.68-9.57V277.05Z" transform="translate(-51.58 0.392)" fill="#fff"/>
          <path id="Path_114" data-name="Path 114" d="M232.4,309.257v-31.74h7.07v4a13,13,0,0,1,10.23-4.46c8.14,0,13.67,4.46,13.67,14v18.2h-7.43v-17.12c0-5.76-2.74-8.5-7.43-8.5-5.17,0-8.68,3.21-8.68,9.57v16.05Z" transform="translate(-12.425 -0.608)" fill="#fff"/>
          <path id="Path_115" data-name="Path 115" d="M310.27,305.64l2.85-5.65a21.26,21.26,0,0,0,11.05,3.15c4.7,0,6.66-1.3,6.66-3.5,0-6.06-19.61-.36-19.61-13,0-6,5.41-9.92,14-9.92,4.22,0,9,1,11.89,2.73l-2.85,5.65a17.33,17.33,0,0,0-9.1-2.38c-4.51,0-6.65,1.48-6.65,3.56,0,6.42,19.61.72,19.61,13.14,0,5.94-5.47,9.81-14.38,9.81C318.41,309.21,313.12,307.66,310.27,305.64Z" transform="translate(-52)" fill="#fff"/>
        </g>
      </g>
    </g>
  </g>
</svg>
