<svg xmlns="http://www.w3.org/2000/svg" xmlns:xlink="http://www.w3.org/1999/xlink" width="459" height="301" viewBox="0 0 459 301">
  <defs>
    <clipPath id="clip-path">
      <rect id="Rectangle_26" data-name="Rectangle 26" width="459" height="301" transform="translate(864 145)" fill="#fff" stroke="#707070" stroke-width="1"/>
    </clipPath>
  </defs>
  <g id="Group_22" data-name="Group 22" transform="translate(-864 -145)">
    <path id="Path_593" data-name="Path 593" d="M111.47,133.35s.17-.57.52-1.67a23.92,23.92,0,0,1,2.22-4.61,25.92,25.92,0,0,1,5.55-6.18,28.56,28.56,0,0,1,10-5.2,29.37,29.37,0,0,1,6.7-1,28,28,0,0,1,7.41.94,31.8,31.8,0,0,1,14.45,8.55,34.2,34.2,0,0,1,5.64,7.55,34.7,34.7,0,0,1,3.48,9.41,42,42,0,0,1-1.24,21.61,43.22,43.22,0,0,1-13,19.88,38.922,38.922,0,0,1-5.18,3.66,32.352,32.352,0,0,1-5.9,2.66A27.47,27.47,0,0,1,129,190a34.35,34.35,0,0,1-12.76-5,49,49,0,0,1-10.69-9.28,56.4,56.4,0,0,1-8.11-12.12,39.72,39.72,0,0,1-4.17-14.36,28.15,28.15,0,0,1,2.9-15,31.769,31.769,0,0,1,4.37-6.5,34.17,34.17,0,0,1,5.88-5.32,34.73,34.73,0,0,1,7.05-3.81,33.45,33.45,0,0,1,7.87-1.94,34.941,34.941,0,0,1,8.17.23,37.826,37.826,0,0,1,21.58,11.68,36.19,36.19,0,0,1,5,6.84,40.141,40.141,0,0,1,3.3,7.85,44.63,44.63,0,0,1-3.81,33.64,34.72,34.72,0,0,1-11.8,12.68,23.56,23.56,0,0,1-8,3.21,19.6,19.6,0,0,1-8.59-.3,21.68,21.68,0,0,1-7.65-3.75,30,30,0,0,1-6-6,41.26,41.26,0,0,1-7.07-15.05,42.16,42.16,0,0,1-.95-16.3,38.279,38.279,0,0,1,1.94-7.86,33.81,33.81,0,0,1,3.68-7.12c6-8.8,16.26-14.41,26.51-14.07a27.25,27.25,0,0,1,14.12,4.72,30,30,0,0,1,9.74,10.79,29.08,29.08,0,0,1,3.39,13.69A33.22,33.22,0,0,1,162,165a32.261,32.261,0,0,1-3.28,5.86,23.65,23.65,0,0,1-2.06,2.59l-1.1,1.23c-.37.4-.8.75-1.19,1.13a34.461,34.461,0,0,1-10.85,6.71,35.63,35.63,0,0,1-23.65.82,30.4,30.4,0,0,1-9.85-5.3,34.16,34.16,0,0,1-7.11-7.89,37.2,37.2,0,0,1-4.34-9A37.8,37.8,0,0,1,97,151.81a32.25,32.25,0,0,1,.82-8.76c.18-.68.36-1.36.53-2s.47-1.3.7-1.94l.35-1,.44-.9c.29-.6.57-1.2.86-1.78a35.86,35.86,0,0,1,19.11-16.28c.76-.33,1.54-.49,2.26-.73l1.07-.32,1-.22c.68-.14,1.33-.29,2-.4l1.78-.21a25.407,25.407,0,0,1,3-.17,15.589,15.589,0,0,1,2.15.06l1.74.14-1.74-.08a16,16,0,0,0-2.14,0,23.808,23.808,0,0,0-3,.2l-1.77.22c-.62.11-1.26.26-1.94.4l-1,.23-1.06.33c-.72.24-1.5.4-2.25.73a35.78,35.78,0,0,0-18.94,16.25l-.85,1.77-.43.9-.35.95c-.22.64-.48,1.27-.69,1.92s-.34,1.34-.52,2a31.71,31.71,0,0,0-.79,8.68,35.57,35.57,0,0,0,6,18.17,33.94,33.94,0,0,0,7.06,7.79A29.85,29.85,0,0,0,120,183a35.23,35.23,0,0,0,23.38-.85,33.71,33.71,0,0,0,10.71-6.64c.39-.37.81-.71,1.18-1.11l1.08-1.21a26.62,26.62,0,0,0,2-2.56,33.2,33.2,0,0,0,5.94-19A28.61,28.61,0,0,0,161,138.1a29.53,29.53,0,0,0-9.59-10.61,26.78,26.78,0,0,0-13.88-4.63c-10.06-.33-20.19,5.2-26.08,13.87a33.3,33.3,0,0,0-3.62,7,37.71,37.71,0,0,0-1.92,7.75,41.8,41.8,0,0,0,1,16.11,40.79,40.79,0,0,0,7,14.86,29.78,29.78,0,0,0,5.88,5.88,21.39,21.39,0,0,0,7.48,3.66,19,19,0,0,0,8.36.29,23.08,23.08,0,0,0,7.86-3.14,34.38,34.38,0,0,0,11.63-12.49,44.08,44.08,0,0,0,3.76-33.24,39.7,39.7,0,0,0-3.25-7.75,37.55,37.55,0,0,0-18.36-16.09,35.19,35.19,0,0,0-7.83-2.18,33.84,33.84,0,0,0-8-.22,32.93,32.93,0,0,0-7.74,1.89,34.91,34.91,0,0,0-6.94,3.75,34.38,34.38,0,0,0-5.79,5.24,31.1,31.1,0,0,0-4.31,6.4,27.67,27.67,0,0,0-2.86,14.74,39.45,39.45,0,0,0,4.11,14.2,56.66,56.66,0,0,0,8,12,48.91,48.91,0,0,0,10.59,9.21,33.86,33.86,0,0,0,12.5,4.95,27,27,0,0,0,13-1,31.459,31.459,0,0,0,5.82-2.62,37.461,37.461,0,0,0,5.13-3.61,42.88,42.88,0,0,0,13-19.69,41.69,41.69,0,0,0,1.27-21.42,34.54,34.54,0,0,0-3.43-9.33,33.9,33.9,0,0,0-5.58-7.5,31.51,31.51,0,0,0-14.31-8.51,26.225,26.225,0,0,0-23.99,5.1,25.89,25.89,0,0,0-5.56,6.12A23.35,23.35,0,0,0,112,131.7C111.67,132.79,111.47,133.35,111.47,133.35Z" transform="translate(1081.81 83.83)" fill="#263238"/>
    <g id="Group_21" data-name="Group 21" transform="translate(1080.239 82.714)">
      <path id="Path_446" data-name="Path 446" d="M119.25,164.32h7s0,5.85,6.08,6a5.65,5.65,0,0,0,5.46-3.6,6.23,6.23,0,0,0-.5-5.64c-1.18-1.95-3.77-3.72-8.46-2.89v-15.7h6.89v9.19s9.65,2.5,9.65,13.14c0,10.19-9.13,12.55-13,12.55C129.3,177.33,119.12,176.61,119.25,164.32Z" fill="#033"/>
      <rect id="Rectangle_23" data-name="Rectangle 23" width="6.99" height="6.53" transform="translate(128.77 132.69)" fill="#033"/>
    </g>
    <g id="Mask_Group_2" data-name="Mask Group 2" clip-path="url(#clip-path)">
      <g id="Stomachache-pana" transform="translate(848.73 104.098)">
        <g id="freepik--background-complete--inject-57">
          <path id="Path_521" data-name="Path 521" d="M31,212.13c1.4,1.05,35.52,36.62,35.52,36.62l2.59-15L102,257.89,62,212.64,59.54,229.2Z" fill="#f5f5f5"/>
          <path id="Path_522" data-name="Path 522" d="M442.08,303c-.84,0-23.86-5.42-23.86-5.42l2.9,6.73-19.52-1.12,27.9,7.71-3.35-7.3Z" fill="#ebebeb"/>
          <path id="Path_523" data-name="Path 523" d="M86.74,284.36c-.84-.06-23.86-5.44-23.86-5.44l2.89,6.73-19.52-1.13,27.9,7.73L70.81,285Z" fill="#ebebeb"/>
          <path id="Path_524" data-name="Path 524" d="M402.9,444.07c-1-.52-26-19.37-26-19.37l-.1,9.68-23-11.84,29.61,24.33-.12-10.63Z" fill="#ebebeb"/>
          <path id="Path_525" data-name="Path 525" d="M454.75,224c-1.6.79-49.51,15.26-49.51,15.26l12.42,9.28-37,18.56L440,251.77l-13.85-9.86Z" fill="#f5f5f5"/>
          <path id="Path_526" data-name="Path 526" d="M112.25,404.32c-1.6.79-49.51,15.25-49.51,15.25l12.42,9.28-37,18.56,59.35-15.3-13.85-9.86Z" fill="#f5f5f5"/>
          <path id="Path_527" data-name="Path 527" d="M326,145.12c-.46,1.06-18.22,28.31-18.22,28.31l10.06-.59-10.63,24.72,23.1-32.46-11,.9Z" fill="#ebebeb"/>
          <path id="Path_528" data-name="Path 528" d="M388.07,190.18a6.24,6.24,0,1,0-6.26-10.47q-2.61-6.33-5.2-12.66l-5,4.34,1.32,5.05a6.46,6.46,0,0,0-4.3,10.06c-3.62.09-7.57.93-9.81,3.79a8.61,8.61,0,0,0,0,9.91,11.38,11.38,0,0,0,9.13,4.6,17,17,0,0,0,9.9-3.3,7.66,7.66,0,1,0,10.27-11.32Z" fill="#f5f5f5"/>
          <path id="Path_532" data-name="Path 532" d="M406.31,108.9a16.477,16.477,0,0,1-1.38,1.3,13.46,13.46,0,0,0-3.94,7.93,13.7,13.7,0,0,1-.2,1.89,4.94,4.94,0,0,1-.16-1.92,11.52,11.52,0,0,1,1.19-4.5,11.639,11.639,0,0,1,2.86-3.67,4.93,4.93,0,0,1,1.63-1.03Z" fill="#e0e0e0"/>
          <path id="Path_533" data-name="Path 533" d="M415.56,148.07a28,28,0,0,0-12.48-9,7.17,7.17,0,0,1,2.24.58,20.5,20.5,0,0,1,4.94,2.64,20.82,20.82,0,0,1,4.05,3.86A7.3,7.3,0,0,1,415.56,148.07Z" fill="#e0e0e0"/>
          <path id="Path_534" data-name="Path 534" d="M384.93,155a5.259,5.259,0,0,1-.26-2,14,14,0,0,1,3.47-9.14,5.24,5.24,0,0,1,1.54-1.36,22,22,0,0,0-3.61,5.8,21.87,21.87,0,0,0-1.14,6.7Z" fill="#e0e0e0"/>
          <path id="Path_535" data-name="Path 535" d="M376.45,83.82a5.36,5.36,0,0,0-9.27,4.92A4.74,4.74,0,1,0,371.57,96a5.12,5.12,0,1,0,8.53-4.59,4.21,4.21,0,1,0-3.4-7.29" fill="#f5f5f5"/>
          <path id="Path_536" data-name="Path 536" d="M406.49,189.66a3.09,3.09,0,1,0,.76-.17" fill="#f5f5f5"/>
          <path id="Path_537" data-name="Path 537" d="M366.26,66.44a3.09,3.09,0,1,0,.76-.17" fill="#f5f5f5"/>
          <path id="Path_538" data-name="Path 538" d="M389.81,162.1a4.28,4.28,0,0,1-.53-.76,11.843,11.843,0,0,1-1-2.3,13.88,13.88,0,0,1,4.38-15.12,11.733,11.733,0,0,1,2.09-1.41,2.55,2.55,0,0,1,.85-.35c.05.08-1.15.64-2.7,2a14.3,14.3,0,0,0-4.27,14.74C389.18,160.94,389.9,162.05,389.81,162.1Z" fill="#fff"/>
          <path id="Path_539" data-name="Path 539" d="M406.24,126.43a4.84,4.84,0,0,1-1.21-1.67,11,11,0,0,1-.12-9.7,4.94,4.94,0,0,1,1.16-1.7,19.628,19.628,0,0,1-.83,1.85,12.2,12.2,0,0,0,.12,9.39C405.86,125.74,406.31,126.38,406.24,126.43Z" fill="#fff"/>
          <path id="Path_540" data-name="Path 540" d="M398.75,104.14a12.7,12.7,0,0,1,.09-5.27,12.89,12.89,0,0,1,1.76-5c.15.06-.74,2.24-1.24,5.06S398.91,104.13,398.75,104.14Z" fill="#fff"/>
          <path id="Path_541" data-name="Path 541" d="M368.92,157.8a9.92,9.92,0,0,1,2.52-9.32,26.415,26.415,0,0,0-2,4.47A25.69,25.69,0,0,0,368.92,157.8Z" fill="#fff"/>
        </g>
        <g id="freepik--Table--inject-57">
          <path id="Path_542" data-name="Path 542" d="M474.73,476.62c0,.29-100.62.52-224.72.52s-224.74-.23-224.74-.52,100.6-.52,224.74-.52S474.73,476.33,474.73,476.62Z" fill="#263238"/>
        </g>
        <g id="freepik--speech-bubble--inject-57">
          <path id="Path_543" data-name="Path 543" d="M106.76,73.95,85.41,51.84,80.1,86.81l-28.61-.97,17.9,23.51L51.38,132.99l29.83-5.88,4.31,30.01,24.12-18.27,30.41,15.93-6.66-30.72,34.5-5.44-26.83-15.83L156.7,75.81,129.88,86.29l-3.26-33.28Z" fill="#fff"/>
          <path id="Path_544" data-name="Path 544" d="M106.76,74s.44-.49,1.3-1.41l3.83-4.07,14.64-15.54.19-.19v.26c.9,9,2,20.28,3.31,33.28l-.23-.15,26.81-10.51.53-.21-.29.5c-4.82,8.34-10.08,17.42-15.62,27l-.08-.3c8.54,5,17.53,10.32,26.84,15.82l.58.34-.66.1-34.5,5.45.21-.31c2.12,9.79,4.37,20.15,6.66,30.72l.12.54-.49-.25-26.35-13.8-4.06-2.12h.27L85.68,157.33l-.35.26-.06-.43q-2.2-15.34-4.31-30l.3.21-29.83,5.87-.63.12.39-.5,18-23.63v.27L51.33,86l-.26-.34h.43l28.6,1-.18.15C82,73,83.83,61.31,85.28,51.82v-.24l.17.18L101.3,68.22l4.07,4.26c.92,1,1.39,1.47,1.39,1.47s-.47-.46-1.39-1.4l-4.1-4.2-16-16.42.21-.07c-1.43,9.49-3.19,21.21-5.26,35v.15h-.16l-28.6-.94.16-.33,17.92,23.5.11.13-.11.14-18,23.65-.24-.38,29.83-5.9h.26v.27q2.1,14.64,4.32,30l-.41-.17,24.11-18.27.13-.1.15.07,4.06,2.13,26.35,13.8-.38.28c-2.28-10.57-4.53-20.93-6.65-30.72v-.26h.26l34.5-5.42-.08.44L140.94,103l-.19-.11.11-.19,15.67-27,.24.28L130,86.45l-.22.08v-.22c-1.25-13-2.34-24.25-3.21-33.29l.21.08-14.8,15.49-3.84,4C107.2,73.51,106.76,74,106.76,74Z" fill="#263238"/>
          <path id="Path_545" data-name="Path 545" d="M169,138.77c5.19,6.82-2.52,14.53-9.34,9.34h0C154.41,141.28,162.12,133.57,169,138.77Z" fill="#fff"/>
          <path id="Path_546" data-name="Path 546" d="M169,138.77a10.141,10.141,0,0,1-1.38-.76,7.48,7.48,0,0,0-4.1-.69l-.67.11-.66.24a7,7,0,0,0-1.33.68,6.79,6.79,0,0,0-2.09,2.5,6.57,6.57,0,0,0-.48,3.54,8.68,8.68,0,0,0,1.57,3.55,8.7,8.7,0,0,0,3.51,1.53,6.66,6.66,0,0,0,3.54-.47,6.8,6.8,0,0,0,2.5-2.09,6.2,6.2,0,0,0,.68-1.33c.08-.23.17-.45.24-.67a5.194,5.194,0,0,0,.11-.67,7.42,7.42,0,0,0-.69-4.09,11.49,11.49,0,0,1-.75-1.38,2.173,2.173,0,0,1,.26.31,11.153,11.153,0,0,1,.67,1,7.35,7.35,0,0,1,.88,4.24,4.535,4.535,0,0,1-.11.71,5.434,5.434,0,0,1-.23.72,7,7,0,0,1-.7,1.43,7.15,7.15,0,0,1-2.65,2.28,7,7,0,0,1-3.83.54l-1-.22a7.781,7.781,0,0,1-1-.38l-.48-.2-.45-.28-.44-.29-.23-.14-.11-.08h-.06a9,9,0,0,1-1.66-3.8,6.53,6.53,0,0,1,2.83-6.48,7,7,0,0,1,1.43-.7c.24-.08.48-.17.71-.23l.71-.1a7.32,7.32,0,0,1,4.24.87c.44.28.76.52,1,.68S169,138.75,169,138.77Z" fill="#263238"/>
          <path id="Path_547" data-name="Path 547" d="M112,87.46l-1.35,22.6a3.67,3.67,0,0,1-3.43,3.44h0a3.67,3.67,0,0,1-3.87-3.25l-2.59-22.7a2.87,2.87,0,0,1,2.89-3.2l5.51.06A2.86,2.86,0,0,1,112,87.46Z" fill="#09877c"/>
          <path id="Path_548" data-name="Path 548" d="M101.25,126.23a5.51,5.51,0,1,0,.28-4.221,5.51,5.51,0,0,0-.28,4.221Z" fill="#09877c"/>
        </g>
        <g id="freepik--Character--inject-57">
          <path id="Path_549" data-name="Path 549" d="M260.9,50.57a11.23,11.23,0,0,0-11.37-6.28,15.35,15.35,0,0,0-18.9-.58A13.65,13.65,0,0,0,209.5,53.84a11.41,11.41,0,0,0-10.91,18.71,11,11,0,0,0,3.56,21.53l56.07-30.8A11.24,11.24,0,0,0,260.9,50.57Z" fill="#263238"/>
          <path id="Path_550" data-name="Path 550" d="M200.48,95.54A46.52,46.52,0,0,1,248.93,55.1l2.41.12c25.87,2.8,38,26.35,34.43,52.13l-6.88,97.74,14.8,7L248.9,244.78l-51.41-36.32,20.13-6.62.36-17.06s-24.76-5.12-23.83-30.08C194.6,142.65,197.55,117.9,200.48,95.54Z" fill="#ffbf9d"/>
          <path id="Path_551" data-name="Path 551" d="M218,184.78s15.68,1.7,33-8c0,0-8.32,18.36-33.09,14.88Z" fill="#ff9a6c"/>
          <path id="Path_552" data-name="Path 552" d="M210.74,120.28a3.57,3.57,0,0,0,3.25,3.77,3.41,3.41,0,0,0,3.83-3,3.56,3.56,0,0,0-3.25-3.77,3.41,3.41,0,0,0-3.83,3Z" fill="#263238"/>
          <path id="Path_553" data-name="Path 553" d="M205.23,108c.42.48,3.22-1.38,7.05-1.18s6.55,2.26,7,1.81c.21-.2-.2-1.06-1.38-2a9.76,9.76,0,0,0-5.56-2,9.45,9.45,0,0,0-5.64,1.52C205.47,107,205,107.79,205.23,108Z" fill="#263238"/>
          <path id="Path_554" data-name="Path 554" d="M244.42,122a3.57,3.57,0,0,0,3.25,3.76,3.42,3.42,0,0,0,3.84-3,3.58,3.58,0,0,0-3.26-3.77,3.41,3.41,0,0,0-3.83,3.01Z" fill="#263238"/>
          <path id="Path_555" data-name="Path 555" d="M242.88,110.59c.41.49,3.22-1.37,7.05-1.17s6.54,2.25,7,1.81c.22-.2-.19-1.06-1.37-2a9.89,9.89,0,0,0-5.57-2,9.45,9.45,0,0,0-5.64,1.52C243.11,109.55,242.67,110.37,242.88,110.59Z" fill="#263238"/>
          <path id="Path_556" data-name="Path 556" d="M227.55,138.33c0-.22-2.33-.75-6.17-1.43-1-.15-1.89-.39-2-1.07a5.9,5.9,0,0,1,.8-2.87q1.54-3.48,3.26-7.31c4.55-10.41,7.89-19,7.47-19.17s-4.45,8.11-9,18.53q-1.65,3.84-3.15,7.36c-.42,1.09-1.12,2.32-.7,3.81a2.45,2.45,0,0,0,1.54,1.51,6.7,6.7,0,0,0,1.65.32C225.12,138.41,227.53,138.55,227.55,138.33Z" fill="#263238"/>
          <path id="Path_557" data-name="Path 557" d="M259.14,103.64c-.19-1.08-3.65-1.06-7.55-2.15s-7-2.76-7.61-1.9c-.29.41.13,1.46,1.29,2.64a12.07,12.07,0,0,0,5.41,3,11.74,11.74,0,0,0,6.13,0C258.37,104.86,259.21,104.15,259.14,103.64Z" fill="#263238"/>
          <path id="Path_558" data-name="Path 558" d="M220,100.09c-.75-.92-4-.22-7.77-.42s-7-1-7.79-.17c-.35.42.1,1.33,1.46,2.24a13.15,13.15,0,0,0,12.53.48C219.87,101.41,220.37,100.54,220,100.09Z" fill="#263238"/>
          <path id="Path_559" data-name="Path 559" d="M203.44,84.22s7.36-15.3,15.07-18.57c9.34-4,12.77,6.24,21.58,4.25s17.73-5.8,26.27,1.36c9.36,7.83,4.55,12.76,4.6,23.86.2,45,7.77,58.09,11.15,37.07.37-2.3,6.89-3.82,8.32-13.56,1.87-12.62,3.12-28,.74-37.15-2-7.7-6.08-13.16-13.55-19.33C265.83,52.42,249,51.39,237.53,52S203.38,64.6,203.44,84.22Z" fill="#263238"/>
          <path id="Path_560" data-name="Path 560" d="M280.55,131.43a6.79,6.79,0,0,1,7.64-6.16c4.63.67,9.67,3.57,8.89,13.17-1.39,17-18.2,12.12-18.19,11.63C278.9,149.73,279.91,138.55,280.55,131.43Z" fill="#ffbf9d"/>
          <path id="Path_561" data-name="Path 561" d="M283.12,144c.08,0,.28.24.76.51a3,3,0,0,0,2.21.22c1.86-.51,3.6-3.24,3.94-6.3a9.84,9.84,0,0,0-.49-4.32,3.43,3.43,0,0,0-2-2.46,1.53,1.53,0,0,0-1.82.67c-.26.46-.18.81-.28.83s-.34-.31-.14-1a1.9,1.9,0,0,1,.75-1,2.25,2.25,0,0,1,1.68-.3,4.2,4.2,0,0,1,2.88,2.9,10.05,10.05,0,0,1,.64,4.83c-.39,3.42-2.41,6.48-4.93,7a3.14,3.14,0,0,1-2.67-.67C283.11,144.38,283.06,144,283.12,144Z" fill="#ff9a6c"/>
          <path id="Path_562" data-name="Path 562" d="M281.86,98.38c-2.29,1.4-4.71,2.84-7.39,3s-5.66-1.55-6-4.22c-.15-1.19.21-2.56-.52-3.51-.88-1.14-2.62-.89-4.05-.8-5,.27-10.51-5.49-11.53-10.38a4.45,4.45,0,0,1-6,.94,16.19,16.19,0,0,1-3.93-3.86c-1.41-1.79-3.43-3.42-5.7-3.21-1.27.11-2.49.8-3.75.63-2.23-.31-3.2-3-3.43-5.23s-.36-4.84-2.2-6.15-4-.67-6.08-.47-4.72-.41-5.15-2.46a4.07,4.07,0,0,1,.92-3.05,11.05,11.05,0,0,1,13.25-3.53A15,15,0,0,1,258,54.51a15.21,15.21,0,0,1,24,6.75,11,11,0,0,1,11.62,16.63c3,1.9,5.46,5.08,5.34,8.61s-3.72,6.88-7.08,5.79A6.107,6.107,0,1,1,281,97.84" fill="#263238"/>
          <path id="Path_563" data-name="Path 563" d="M228.8,61a.94.94,0,0,0,0,.31,5.828,5.828,0,0,0,.06.92,10.85,10.85,0,0,0,1.08,3.35,12.21,12.21,0,0,0,3.58,4.22,11.44,11.44,0,0,0,6.88,2.34l-.27-.4a6.21,6.21,0,0,0,.11,4.73,17.749,17.749,0,0,0,2.71,4.34,13,13,0,0,0,1.81,2A5.93,5.93,0,0,0,247.41,84,6.22,6.22,0,0,0,253,82.3l-.63-.21a12.84,12.84,0,0,0,5,9.12,9.3,9.3,0,0,0,5.51,2.11,16.8,16.8,0,0,0,5.58-.94l-.45-.22a13.36,13.36,0,0,0,3.78,5.46,7.17,7.17,0,0,0,5.86,1.92,9.4,9.4,0,0,0,7.59-7l-.39.16a8.83,8.83,0,0,0,5.82,1.15,9.46,9.46,0,0,0,4.17-1.62,8.13,8.13,0,0,0,2-2,4.089,4.089,0,0,0,.48-.86A10.08,10.08,0,0,1,294.66,92a9.37,9.37,0,0,1-4.07,1.45,8.44,8.44,0,0,1-5.48-1.18l-.31-.2-.09.36a8.86,8.86,0,0,1-7.18,6.47,6.49,6.49,0,0,1-5.31-1.8,12.81,12.81,0,0,1-3.55-5.18l-.12-.33-.33.1a16.069,16.069,0,0,1-5.33.89,8.58,8.58,0,0,1-5.09-2,12.1,12.1,0,0,1-4.71-8.6l-.07-.81-.56.6a5.56,5.56,0,0,1-4.94,1.5,5.42,5.42,0,0,1-2.35-1,12.87,12.87,0,0,1-1.71-1.93,17.08,17.08,0,0,1-2.65-4.15,5.6,5.6,0,0,1-.16-4.28l.16-.4h-.43a11,11,0,0,1-6.6-2.14,12.17,12.17,0,0,1-3.57-4A13,13,0,0,1,228.8,61Z" fill="#455a64"/>
          <path id="Path_564" data-name="Path 564" d="M236.45,147.49a6.91,6.91,0,0,0-1.94-2.19,6.62,6.62,0,0,0-5.26-.73A10.67,10.67,0,0,0,225,147c-2.14,1.94-1.65,4.11-1.23,9,4.84-.62,9.65.68,14.26-.91a11.66,11.66,0,0,0-1.58-7.6Z" fill="#ff9a6c"/>
          <path id="Path_565" data-name="Path 565" d="M225,146.42h.07Z" fill="#ff9a6c"/>
          <path id="Path_566" data-name="Path 566" d="M223.72,156c0-.13,2.09-.52,5.51-.6,1.71-.06,3.73-.08,6-.27L236,155a4.871,4.871,0,0,0,.78-.11,1.08,1.08,0,0,0,.86-.84,4.42,4.42,0,0,0,0-1.65c-.1-.62-.21-1.25-.34-1.86a9.42,9.42,0,0,0-1.28-3.34,4.46,4.46,0,0,0-2.53-1.84,8.81,8.81,0,0,0-3-.27,11.54,11.54,0,0,0-2.65.44,6.36,6.36,0,0,0-3.21,2c-.58.71-.8,1.2-.89,1.16a2.8,2.8,0,0,1,.56-1.4,6.4,6.4,0,0,1,3.31-2.5,11.26,11.26,0,0,1,2.81-.6,9.4,9.4,0,0,1,3.34.21,5.43,5.43,0,0,1,3.1,2.18,10.06,10.06,0,0,1,1.46,3.7c.14.65.25,1.29.34,1.92a5.09,5.09,0,0,1,0,2.06,2,2,0,0,1-.59,1,2.35,2.35,0,0,1-1,.52,5.338,5.338,0,0,1-.95.13l-.86.06c-2.27.14-4.32.08-6,.05C225.84,156,223.74,156.12,223.72,156Z" fill="#263238"/>
          <path id="Path_567" data-name="Path 567" d="M253.59,129.3c-.17.26-2.32-1.05-5.29-1.39s-5.37.37-5.47.08c-.05-.13.5-.49,1.51-.8a10.46,10.46,0,0,1,8,1C253.22,128.7,253.66,129.19,253.59,129.3Z" fill="#ff9a6c"/>
          <path id="Path_568" data-name="Path 568" d="M215.33,126.67c-.15.27-2.22-.78-5-1s-5,.48-5.06.2.45-.48,1.37-.8a9.73,9.73,0,0,1,3.77-.44,9.88,9.88,0,0,1,3.66,1C215,126.13,215.4,126.56,215.33,126.67Z" fill="#ff9a6c"/>
          <path id="Path_569" data-name="Path 569" d="M227.27,104.4c-.07-.15.36-.44.88-1a5.5,5.5,0,0,0,1.32-2.59,5.38,5.38,0,0,0-.32-2.89c-.27-.72-.57-1.15-.46-1.26s.6.17,1.11.92a4.69,4.69,0,0,1-1.17,6.37C227.89,104.45,227.31,104.52,227.27,104.4Z" fill="#ff9a6c"/>
          <path id="Path_570" data-name="Path 570" d="M235.14,105.17c-.11.08-.53-.25-1-1a7.13,7.13,0,0,1-.34-6.36c.36-.77.74-1.14.85-1.08.27.14-.54,1.93-.39,4.24S235.39,105,235.14,105.17Z" fill="#ff9a6c"/>
          <path id="Path_571" data-name="Path 571" d="M276.14,64.14a14.229,14.229,0,0,1,.14,3.57,4.6,4.6,0,0,1-.84,2.73,3.57,3.57,0,0,1-2.58.94,12.4,12.4,0,0,1-3.41-.55.63.63,0,0,0-.33,1.21c2.25.57,5.38,1.25,7.2-.71A5.54,5.54,0,0,0,277.5,68a15.31,15.31,0,0,0-.16-4.22c-.13-.79-1.34-.45-1.2.34Z" fill="#455a64"/>
          <path id="Path_572" data-name="Path 572" d="M280.18,63.8A15.309,15.309,0,0,0,280,68a5.48,5.48,0,0,0,1.18,3.31c1.82,2,5,1.28,7.2.71a.63.63,0,0,0-.33-1.21,12.41,12.41,0,0,1-3.42.55,3.57,3.57,0,0,1-2.57-.94,4.58,4.58,0,0,1-.84-2.73,13.781,13.781,0,0,1,.14-3.57c.13-.79-1.07-1.13-1.21-.34Z" fill="#455a64"/>
          <path id="Path_573" data-name="Path 573" d="M281.64,83.25a13.85,13.85,0,0,1-.14-3.58,4.6,4.6,0,0,1,.84-2.73,3.62,3.62,0,0,1,2.58-.94,13.2,13.2,0,0,1,3.41.55.63.63,0,0,0,.33-1.21c-2.25-.57-5.38-1.24-7.2.72a5.51,5.51,0,0,0-1.18,3.3,15.309,15.309,0,0,0,.16,4.22c.13.79,1.34.46,1.2-.33Z" fill="#455a64"/>
          <path id="Path_574" data-name="Path 574" d="M277.59,83.58a14.929,14.929,0,0,0,.16-4.22,5.45,5.45,0,0,0-1.18-3.3c-1.82-2-4.95-1.29-7.2-.72a.63.63,0,0,0,.33,1.21,13.21,13.21,0,0,1,3.42-.55,3.65,3.65,0,0,1,2.57.94,4.6,4.6,0,0,1,.84,2.73,13.851,13.851,0,0,1-.14,3.58C276.25,84.03,277.46,84.37,277.59,83.58Z" fill="#455a64"/>
          <path id="Path_575" data-name="Path 575" d="M233.61,165.43c-.1.12-.7-.25-1.72-.69a12.61,12.61,0,0,0-8.36-.65c-1.07.28-1.73.55-1.81.42s.48-.63,1.56-1.11a9.82,9.82,0,0,1,9,.69C233.24,164.74,233.7,165.34,233.61,165.43Z" fill="#ff9a6c"/>
          <path id="Path_576" data-name="Path 576" d="M332.55,218.21s15.34,5.06,26.59,28.19c8.69,17.89,26.87,56.21,26.87,56.21l-53.84,19.72-5.47-22.5Z" fill="#09877c"/>
          <path id="Path_577" data-name="Path 577" d="M332.55,218.21l-53.66-13.12c-27.44,14.63-42,14.95-61-4.33l-58.46,13.59,1.16,89.49,1,74.91-12.63,97.87h187.4l-5.48-156.37Z" fill="#09877c"/>
          <path id="Path_578" data-name="Path 578" d="M336.34,476.62a2.1,2.1,0,0,1-.08-.58c0-.41-.09-1-.15-1.72-.11-1.53-.27-3.76-.47-6.61-.36-5.77-.88-14.08-1.52-24.34s-1.32-22.51-2.12-36.09q-.3-5.1-.6-10.44c-.16-3.58-.16-7.2-.25-10.91-.13-7.4-.26-15.06-.39-22.91-.52-31.42-.86-59.86-1-80.44,0-10.29-.06-18.62,0-24.38,0-2.88.07-5.11.12-6.63,0-.74.05-1.32.06-1.72a2.27,2.27,0,0,1,.06-.59c.05,2.87.8,51.12,1.79,113.74.13,7.85.25,15.51.37,22.92.08,3.69.08,7.35.22,10.88s.38,7,.57,10.44c.71,13.58,1.35,25.82,1.9,36.1s.9,18.58,1.19,24.34c.11,2.87.2,5.09.27,6.63v1.72A2,2,0,0,1,336.34,476.62Z" fill="#263238"/>
          <path id="Path_579" data-name="Path 579" d="M159.72,214.26s-11.59,2.82-20.65,16.86-31.38,53.72-31.38,53.72l53.75,29.39Z" fill="#09877c"/>
          <path id="Path_580" data-name="Path 580" d="M148.94,476.62v-.42c0-.28.08-.71.14-1.24.14-1.11.35-2.72.62-4.79.59-4.19,1.44-10.26,2.5-17.85,2.22-15.22,5.33-36.56,8.9-61.12v.09c-.17-8.81-.35-18.2-.54-27.87-.53-31.52-1-60.05-1.37-80.72-.12-10.32-.22-18.67-.29-24.47v-8.38a2.441,2.441,0,0,1,0-.59,2.49,2.49,0,0,1,.07.59,15.065,15.065,0,0,0,.08,1.73c0,1.54.13,3.77.22,6.65.15,5.79.37,14.14.63,24.45.43,20.67,1,49.2,1.67,80.72.18,9.67.35,19.06.51,27.87v.08c-3.72,24.53-7,45.85-9.26,61.06-1.19,7.58-2.14,13.63-2.8,17.81-.34,2.06-.6,3.66-.79,4.76-.1.53-.17.93-.23,1.23a1.82,1.82,0,0,1-.06.41Z" fill="#263238"/>
          <path id="Path_586" data-name="Path 586" d="M280.07,364.75s-10,1.3-15.36-3.7-12.39-12.56-17.57-13.77-19.61-1.4-20.53-1.21c-.72.14-7.23,4.17-10.13,6a1.59,1.59,0,0,0-.41,2.34c1.25,1.61,3.68,3.88,7.21,3.52,5.36-.56,7.59-2.65,7.59-2.65l6.22,1.31a11.93,11.93,0,0,1-5.49,4.67c-3.51,1.29-16.28,4-20,3.66s-22.38-.33-24.78,3.18-1.3,5.55,3,6.29,25.71.74,26.82,1.11-29.6,1.67-36.07,3.89-2.59,5.73-.93,7.39,37.55-.92,37.55-.92-35,7.4-36.07,9.62-.37,5.92,4.07,5.92,36.26-5,36.26-5-29.6,9.07-30.52,10.92.18,4.44,1.66,5,39-5.36,39-5.36,28.49-3,33.67-6.85,16.28-2.77,16.28-2.77Z" fill="#ffbf9d"/>
          <path id="Path_587" data-name="Path 587" d="M280.07,364.75s65.86-3.58,71.87-8l-14.63-36.28,44.17-16.18s13.63,40.42,14.68,56.38-.09,27.41-6.81,33c-7.58,6.28-15.55,5.83-26.82,8a123.08,123.08,0,0,1-39.06,1.19l-43.4-5.59V365.88" fill="#ffbf9d"/>
          <path id="Path_588" data-name="Path 588" d="M379.47,363.48c-.12.13-1.49-1-4-2.48a21.261,21.261,0,0,0-2.09-1.09c-.75-.39-1.59-.71-2.47-1.07a31.47,31.47,0,0,0-12.1-2c-.95.06-1.85.08-2.69.21a22.848,22.848,0,0,0-2.32.35c-2.83.56-4.52,1.22-4.58,1.05s1.55-1,4.41-1.77a22.392,22.392,0,0,1,2.37-.49,25.193,25.193,0,0,1,2.77-.31,31.169,31.169,0,0,1,6.36.34,31.559,31.559,0,0,1,6.13,1.74,23.5,23.5,0,0,1,2.51,1.19,18.741,18.741,0,0,1,2.08,1.23C378.33,362,379.55,363.4,379.47,363.48Z" fill="#ff9a6c"/>
          <path id="Path_589" data-name="Path 589" d="M242.54,384.49a3.77,3.77,0,0,0-4-5.75,58.273,58.273,0,0,1-10.41,1.6c-6.81.38-15-.92-16.82-.42-3.79,1.05-17.46,8.2-23.76,9.88a27.84,27.84,0,0,1-12.06.36L159.72,418s66.47,35.69,69.83,36.74,14.94,4.63,16,1.89a7.72,7.72,0,0,0,0-5.26l-22.71-12.19s31.12,8.62,34.48,8.41,6.73-3.37,3.16-6.52-30.71-12.2-30.71-12.2,34.44,5.38,38.28,4.84c4.28-.6,4.62-6.31,0-8s-37.64-8.41-37-10.09,32.17-1.81,34.42-4,2.8-6.12-4.56-7.8-34.49.42-38.7-2.31-3.36-9.26-3.36-9.26,11.77,1.13,16.19-.84C238.81,389.8,240.61,387.28,242.54,384.49Z" fill="#ffbf9d"/>
          <path id="Path_590" data-name="Path 590" d="M128.2,351.18l24.4-41.78-42.36-23.16s-11.67,26-19.18,41.72S76.77,354.76,85,368.7s82.91,53.24,82.91,53.24l15.72-27.87Z" fill="#ffbf9d"/>
          <path id="Path_591" data-name="Path 591" d="M242.34,458.19c-4.24,0-10.74-2-13-2.95-3.26-1.32-67.17-35.31-69.89-36.76l.47-.88c.67.35,66.59,35.41,69.79,36.72,4.74,1.92,14.26,4.1,15.36,2.11a3.82,3.82,0,0,0,.16-4.11,3.74,3.74,0,0,0-1.41-1.24l-25.2-13.54,4.31,1.2c10.58,2.93,31.13,8.39,34.2,8.39h.12c1.88-.12,3.65-1.21,4.1-2.54.35-1-.08-2.08-1.24-3.1-3.46-3.06-30.26-12-30.53-12.1l.22-1s36.59,4.63,38.27,4.83a2.49,2.49,0,0,0,2.84-2,4.324,4.324,0,0,0-3.08-5c-1.7-.65-7.64-2.05-13.92-3.52C238,419,231.22,417.2,230.6,416a.66.66,0,0,1,0-.55c.4-1.07,4.39-1.45,17.92-2.23,6.81-.4,13.85-.8,15.94-1.41a2.67,2.67,0,0,0,1.88-2.72c-.05-1.7-1.53-3.84-5.52-4.75-3.18-.73-10.09-.74-17.41-.75-9.75,0-19,0-21.45-1.64-4.42-2.87-3.62-9.45-3.59-9.73l.07-.48h.48c.11,0,11.69,1.1,15.94-.8,3.74-1.66,5.47-4.17,7.31-6.82a3.15,3.15,0,0,0,0-3.64,3.24,3.24,0,0,0-3.5-1.34,59.7,59.7,0,0,1-10.5,1.62,93.092,93.092,0,0,1-11.1-.31,28.553,28.553,0,0,0-5.62-.13,91.143,91.143,0,0,0-8.89,3.78c-5.26,2.4-11.23,5.13-14.87,6.1a27.9,27.9,0,0,1-12.3.37l.23-1a27.739,27.739,0,0,0,11.81-.36c3.56-.95,9.49-3.66,14.71-6.05a91.267,91.267,0,0,1,9-3.84c.9-.25,3-.1,6,.1a89.072,89.072,0,0,0,11,.31,58.144,58.144,0,0,0,10.32-1.59,4.26,4.26,0,0,1,4.56,1.74,4.12,4.12,0,0,1,0,4.78c-1.83,2.65-3.72,5.39-7.72,7.17s-13.61,1.12-15.94.92c-.09,1.51-.08,6.18,3.18,8.3,2.23,1.45,12.15,1.46,20.9,1.47,7.38,0,14.34,0,17.63.77,4.55,1,6.24,3.62,6.3,5.7a3.66,3.66,0,0,1-2.6,3.71c-2.2.64-9,1-16.16,1.45-6.34.36-14.84.85-16.77,1.5,2.22,1.23,14.26,4.06,22.4,6,6.59,1.55,12.28,2.89,14.05,3.56a5.36,5.36,0,0,1,3.68,6.18,3.5,3.5,0,0,1-3.92,2.78L234.59,430c8,2.75,23.49,8.31,26.21,10.71,2,1.74,1.81,3.36,1.53,4.18-.59,1.71-2.69,3.06-5,3.21-2.64.19-21.7-4.9-30.39-7.26l17.38,9.33a4.53,4.53,0,0,1,1.64,6.71C245.46,457.84,244.1,458.19,242.34,458.19Z" fill="#ff9a6c"/>
          <path id="Path_592" data-name="Path 592" d="M128.72,351c0,.32-5.41-.19-11.88,1s-11.36,3.5-11.5,3.2,4.66-3,11.31-4.2S128.79,350.8,128.72,351Z" fill="#ff9a6c"/>
        </g>
      </g>
    </g>
  </g>
</svg>
