<svg xmlns="http://www.w3.org/2000/svg" xmlns:xlink="http://www.w3.org/1999/xlink" width="392" height="349" viewBox="0 0 392 349">
  <defs>
    <clipPath id="clip-path">
      <rect id="Rectangle_1" data-name="Rectangle 1" width="334" height="349" transform="translate(606 413)" fill="#fff" stroke="#707070" stroke-width="1"/>
    </clipPath>
    <clipPath id="clip-path-2">
      <rect id="Rectangle_2" data-name="Rectangle 2" width="86" height="87" transform="translate(1157 453.775)" fill="#fff" stroke="#707070" stroke-width="1"/>
    </clipPath>
    <clipPath id="clip-path-3">
      <rect id="Rectangle_8014" data-name="Rectangle 8014" width="93" height="87" transform="translate(0.275 -0.499)" fill="#fff" stroke="#707070" stroke-width="1"/>
    </clipPath>
  </defs>
  <g id="Group_5" data-name="Group 5" transform="translate(-517 -304)">
    <g id="Group_2" data-name="Group 2" transform="translate(-69 -109)">
      <g id="Group_1" data-name="Group 1">
        <g id="Mask_Group_1" data-name="Mask Group 1" clip-path="url(#clip-path)">
          <g id="noun-redemption-6176409" transform="translate(524 319.9)">
            <path id="Path_1" data-name="Path 1" d="M172.1,225.7a63.215,63.215,0,1,0,0,89.4,63.192,63.192,0,0,0,0-89.4Zm-44.7-12.3a57,57,0,1,1-57,57,56.975,56.975,0,0,1,57-57Zm6.2,48-6.2-15.6-6.1,15.3a5.094,5.094,0,0,1-4.5,3.5l-16.8,1,12.8,10.6a4.751,4.751,0,0,1,1.8,5.2l-4.2,16.3,14.1-8.9a5.233,5.233,0,0,1,5.4-.1l14.2,9-4.2-16.3h0a4.881,4.881,0,0,1,1.7-5.1l12.9-10.7-16.8-1h0a5.459,5.459,0,0,1-4.1-3.2Zm15.2,50.9-21.3-13.5-21.3,13.5a47.029,47.029,0,0,0,42.6,0Zm-16.7-81.9,9.7,24.3,26.1,1.7a5.007,5.007,0,0,1,2.9,8.8h0L150.6,282l6.4,25a47.012,47.012,0,1,0-59.1,0l6.4-25L84.1,265.3a4.961,4.961,0,0,1,3.1-8.8l26-1.7,9.7-24.3a4.934,4.934,0,0,1,9.2-.1Zm239,19.4V237.4H327.8v12.4Zm39.8-12.5v12.4h43.3V237.3Zm-29.8,0v12.4h19.8V237.3Zm19.8,97.3V259.8H381.1v74.8h19.8Zm10-74.8v74.8H447a1.58,1.58,0,0,0,1.6-1.6V259.8Zm-39.8,74.8V259.8H333.4V333a1.58,1.58,0,0,0,1.6,1.6ZM409,210.5c-4.7,2-9.6,7.1-12,16.6h3.4c10.6-6.2,15.1-11.4,15.8-15,.7-3.2-4.2-2.9-7.2-1.6Zm-43.2,1.6c.8,3.6,5.2,8.8,15.8,15H385c-2.4-9.5-7.3-14.6-12-16.6-3-1.3-7.9-1.6-7.2,1.6ZM345.7,373.6l-8.6-4.4c-6.6,10.4-18.5,23.4-29.6,28.8-32.5,16.1-80.7,13.3-107.6-11.3a51.366,51.366,0,0,1-11.3-14.5h0c-1.5-3,.4-5.1,1.9-7.6l-28.9-1.1L175.1,389c.9-1.4,2.3-3.9,3.4-4.8a5.051,5.051,0,0,1,7,.9c17.2,22.6,48.8,32.6,76.7,32.6,17.3,0,34.6-3.6,49.7-11.1,12.6-6.3,26.3-20.9,33.8-33ZM172.8,168.2l8.6,4.4c6.6-10.4,18.5-23.4,29.6-28.8,32.5-16.1,80.8-13.3,107.7,11.3A51.366,51.366,0,0,1,330,169.6h0c1.5,3-.3,5.1-1.9,7.6l28.9,1.1-13.5-25.5c-.9,1.4-2.2,3.9-3.4,4.8a5.051,5.051,0,0,1-7-.9c-17.2-22.6-48.8-32.6-76.7-32.6a113.678,113.678,0,0,0-49.7,11.1c-12.7,6.3-26.4,20.9-33.9,33Z" fill="#033"/>
            <text id="Created_by_Sugiyarto" data-name="Created by Sugiyarto" transform="translate(0 527)" font-size="5" font-family="Arial-BoldMT, Arial" font-weight="700"><tspan x="0" y="0">Created by Sugiyarto</tspan></text>
            <text id="from_the_Noun_Project" data-name="from the Noun Project" transform="translate(0 532)" font-size="5" font-family="Arial-BoldMT, Arial" font-weight="700"><tspan x="0" y="0">from the Noun Project</tspan></text>
          </g>
        </g>
        <rect id="Rectangle_3" data-name="Rectangle 3" width="133" height="152" transform="translate(586 516)" fill="#fff"/>
        <rect id="Rectangle_4" data-name="Rectangle 4" width="133" height="152" transform="translate(845 516)" fill="#fff"/>
      </g>
      <g id="Mask_Group_2" data-name="Mask Group 2" transform="translate(-517 99.225)" clip-path="url(#clip-path-2)">
        <g id="noun-offer-3025743" transform="translate(1150.372 454.295)">
          <path id="Path_2" data-name="Path 2" d="M160.122,125.869l-3.571-6.219a2.272,2.272,0,0,1,0-2.251l3.58-6.219a5.173,5.173,0,0,0-1.9-7.054l-6.239-3.59a2.241,2.241,0,0,1-1.126-1.95V91.454a5.166,5.166,0,0,0-5.162-5.162h-7.131a2.262,2.262,0,0,1-1.95-1.126l-3.59-6.229a5.17,5.17,0,0,0-7.054-1.892l-6.219,3.58a2.272,2.272,0,0,1-2.251,0l-6.219-3.58a5.165,5.165,0,0,0-7.054,1.892l-3.59,6.239a2.241,2.241,0,0,1-1.95,1.126H91.564A5.166,5.166,0,0,0,86.4,91.463v7.131a2.262,2.262,0,0,1-1.126,1.95l-6.229,3.59a5.182,5.182,0,0,0-1.9,7.054l3.58,6.219a2.272,2.272,0,0,1,0,2.251l-3.58,6.219a5.165,5.165,0,0,0,1.892,7.054l6.239,3.59a2.241,2.241,0,0,1,1.126,1.95V145.6a5.166,5.166,0,0,0,5.162,5.162h7.131a2.262,2.262,0,0,1,1.95,1.125l3.59,6.229a5.17,5.17,0,0,0,7.054,1.892l6.219-3.58a2.272,2.272,0,0,1,2.251,0l6.219,3.58a5.16,5.16,0,0,0,2.571.689,4.966,4.966,0,0,0,1.349-.184,5.145,5.145,0,0,0,3.134-2.406l3.59-6.239a2.241,2.241,0,0,1,1.95-1.126H145.7a5.166,5.166,0,0,0,5.162-5.162v-7.131a2.262,2.262,0,0,1,1.126-1.95l6.239-3.59A5.154,5.154,0,0,0,160.122,125.869Zm-57.595-23.432a7.238,7.238,0,0,1,10.227,0,7.231,7.231,0,1,1-10.227,0Zm2.988,31.931-2.746-2.746,28.943-28.943,2.746,2.746Zm29.2.233a7.231,7.231,0,1,1,0-10.227A7.214,7.214,0,0,1,134.711,134.6Z" transform="translate(-68.836 -76.352)" fill="#033333"/>
          <text id="Created_by_IconPai" data-name="Created by IconPai" transform="translate(-0.372 95.48)" font-size="1" font-family="Arial-BoldMT, Arial" font-weight="700"><tspan x="0" y="0">Created by IconPai</tspan></text>
          <text id="from_the_Noun_Project-2" data-name="from the Noun Project" transform="translate(-0.372 95.48)" font-size="1" font-family="Arial-BoldMT, Arial" font-weight="700"><tspan x="0" y="0">from the Noun Project</tspan></text>
        </g>
      </g>
    </g>
    <g id="Mask_Group_10" data-name="Mask Group 10" transform="translate(751.725 441.499)" clip-path="url(#clip-path-3)">
      <g id="noun-video-call-4960851" transform="translate(-4.929 0.297)">
        <path id="Path_55582" data-name="Path 55582" d="M430.734,236.95,420,239.689v9.333l10.736,2.736Z" transform="translate(-356.11 -202.134)" fill="#033333"/>
        <path id="Path_55583" data-name="Path 55583" d="M225.962,198.33h23.62a4.464,4.464,0,0,1,4.294,4.012V222.4a4.16,4.16,0,0,1-4.294,4.012h-23.62a4.464,4.464,0,0,1-4.294-4.012V202.338a4.16,4.16,0,0,1,4.294-4.008Z" transform="translate(-194.283 -170.156)" fill="#033333"/>
        <path id="Path_55584" data-name="Path 55584" d="M106.251,112.693a3.77,3.77,0,0,0,.2,2.812,4.167,4.167,0,0,0,2.133,1.993,4.576,4.576,0,0,0,3.009.192l15.186-4.264a2.336,2.336,0,0,1,1.69.2,47.5,47.5,0,0,0,51.954-5.715,41.166,41.166,0,0,0,14.559-27.145A39.872,39.872,0,0,0,189.122,55.5,44.18,44.18,0,0,0,168.57,38.187a48.016,48.016,0,0,0-27.508-2.831,45.978,45.978,0,0,0-24.1,12.713,40.975,40.975,0,0,0-11.61,23.47A39.8,39.8,0,0,0,110.6,96.923a1.931,1.931,0,0,1,.215,1.58Zm15.943-46.01a7.768,7.768,0,0,1,2.515-5.671,8.909,8.909,0,0,1,6.073-2.35H154.4a8.908,8.908,0,0,1,6.073,2.35,7.768,7.768,0,0,1,2.515,5.671v1.2l12.317-3.14a2.267,2.267,0,0,1,1.869.34,1.964,1.964,0,0,1,.845,1.6V86.743a1.943,1.943,0,0,1-.629,1.419,2.227,2.227,0,0,1-1.519.588,2.364,2.364,0,0,1-.566-.07L163,85.536v1.2a7.768,7.768,0,0,1-2.515,5.671,8.908,8.908,0,0,1-6.073,2.35h-23.62a8.909,8.909,0,0,1-6.073-2.35,7.768,7.768,0,0,1-2.515-5.671Z" transform="translate(-99.107 -34.495)" fill="#033333"/>
        <g id="Group_1063" data-name="Group 1063" transform="translate(0 113.002)">
          <path id="Path_55585" data-name="Path 55585" d="M9.564-36.252a5.383,5.383,0,0,1-1.159.406,5.664,5.664,0,0,1-1.257.137,4.485,4.485,0,0,1-3.1-1.021A3.527,3.527,0,0,1,2.9-39.5a3.533,3.533,0,0,1,1.142-2.773,4.479,4.479,0,0,1,3.1-1.027,5.664,5.664,0,0,1,1.257.137,5.315,5.315,0,0,1,1.159.408v1.513a4.567,4.567,0,0,0-1.107-.521,3.9,3.9,0,0,0-1.148-.166,2.246,2.246,0,0,0-1.7.648A2.465,2.465,0,0,0,4.991-39.5a2.466,2.466,0,0,0,.618,1.774,2.249,2.249,0,0,0,1.7.645,3.88,3.88,0,0,0,1.148-.164,4.517,4.517,0,0,0,1.107-.524Z" transform="translate(-2.901 43.307)"/>
        </g>
        <g id="Group_1064" data-name="Group 1064" transform="translate(27.312 113.415)">
          <path id="Path_55586" data-name="Path 55586" d="M3.575-40.953V-39.4H5.508v1.249H3.575v2.327a.651.651,0,0,0,.161.516,1.083,1.083,0,0,0,.647.135h.961v1.254H3.739a2.286,2.286,0,0,1-1.576-.433A1.954,1.954,0,0,1,1.7-35.819v-2.327H.765V-39.4H1.7v-1.558Z" transform="translate(-0.765 40.953)"/>
        </g>
        <g id="Group_1065" data-name="Group 1065" transform="translate(40.065 112.838)">
          <path id="Path_55587" data-name="Path 55587" d="M7.036-41.376v-2.936h1.89v7.62H7.036v-.793a2.484,2.484,0,0,1-.854.709A2.445,2.445,0,0,1,5.1-36.55a2.254,2.254,0,0,1-1.783-.806,3.057,3.057,0,0,1-.7-2.074,3.058,3.058,0,0,1,.7-2.074A2.254,2.254,0,0,1,5.1-42.31a2.435,2.435,0,0,1,1.076.229,2.532,2.532,0,0,1,.857.706ZM5.8-37.82a1.091,1.091,0,0,0,.92-.411,1.934,1.934,0,0,0,.316-1.2,1.935,1.935,0,0,0-.316-1.2,1.091,1.091,0,0,0-.92-.411,1.084,1.084,0,0,0-.915.411,1.931,1.931,0,0,0-.316,1.2,1.929,1.929,0,0,0,.316,1.2,1.084,1.084,0,0,0,.916.408Z" transform="translate(-2.622 44.312)"/>
        </g>
        <g id="Group_1066" data-name="Group 1066" transform="translate(51.911 112.833)">
          <path id="Path_55588" data-name="Path 55588" d="M8.029-37.825a1.088,1.088,0,0,0,.917-.411,1.922,1.922,0,0,0,.319-1.2,1.922,1.922,0,0,0-.319-1.2,1.088,1.088,0,0,0-.917-.411,1.1,1.1,0,0,0-.926.413,1.909,1.909,0,0,0-.322,1.193A1.906,1.906,0,0,0,7.1-38.24,1.1,1.1,0,0,0,8.029-37.825ZM6.779-41.381a2.547,2.547,0,0,1,.86-.706,2.463,2.463,0,0,1,1.084-.229,2.25,2.25,0,0,1,1.783.806,3.062,3.062,0,0,1,.7,2.074,3.061,3.061,0,0,1-.7,2.074,2.25,2.25,0,0,1-1.783.806,2.464,2.464,0,0,1-1.084-.229,2.532,2.532,0,0,1-.86-.706v.793H4.906v-7.62H6.781Z" transform="translate(-4.906 44.317)"/>
        </g>
        <g id="Group_1067" data-name="Group 1067" transform="translate(69.481 113.146)">
          <path id="Path_55589" data-name="Path 55589" d="M5.963-36.542H2.809l-.5,1.333H.281l2.9-7.307h2.4l2.9,7.31H6.455ZM3.312-37.895H5.455L4.385-40.8Z" transform="translate(-0.281 42.516)"/>
        </g>
      </g>
    </g>
  </g>
</svg>
