<svg xmlns="http://www.w3.org/2000/svg" width="429" height="294.98" viewBox="0 0 429 294.98">
  <g id="svgexport-6_96_" data-name="svgexport-6 (96)" transform="translate(0.5 0.5)">
    <path id="Path_54510" data-name="Path 54510" d="M177.208,306.956l-32.474-10.825a7.11,7.11,0,0,1-4.853-6.473H187.2a6.27,6.27,0,0,0,6.27-6.27V182.875a86.681,86.681,0,1,0-173.362,0V283.389a6.27,6.27,0,0,0,6.27,6.27H73.687a7.11,7.11,0,0,1-4.853,6.473L36.36,306.956A53.11,53.11,0,0,0,0,357.4v13.1a6.27,6.27,0,1,0,12.539,0V357.4a40.585,40.585,0,0,1,27.787-38.552l12.223-4.074c17.063,27.12,49.61,46.858,51.01,47.7a6.269,6.269,0,0,0,6.452,0c1.4-.839,33.942-20.575,51.009-47.7l12.225,4.075A40.585,40.585,0,0,1,201.03,357.4v13.1a6.27,6.27,0,0,0,12.539,0V357.4a53.111,53.111,0,0,0-36.362-50.447ZM32.642,182.875a74.142,74.142,0,1,1,148.284,0V277.12H139.857v-4.157a59.862,59.862,0,0,0,26.8-49.882v-20.1c0-7.12-4.547-18.671-43.863-36.692-20.179-9.249-40-15.885-40.835-16.163A6.27,6.27,0,0,0,78,162.02c.2.066,20.008,6.7,39.577,15.666,36.133,16.561,36.549,24.944,36.549,25.292v20.1a47.338,47.338,0,1,1-94.676,0V204.392A20.476,20.476,0,0,1,62.894,193l8.9-13.35A6.269,6.269,0,1,0,61.362,172.7l-8.9,13.351a32.971,32.971,0,0,0-5.555,18.345v18.688a59.864,59.864,0,0,0,26.8,49.882v4.157H32.642Zm74.139,166.789c-8.028-5.294-29.159-20.269-41.941-38.983l7.959-2.653a19.646,19.646,0,0,0,13.451-18.662V279.328a59.92,59.92,0,0,0,41.069,0v10.035a19.646,19.646,0,0,0,13.451,18.662l7.957,2.652c-12.766,18.679-33.916,33.682-41.946,38.984Z" transform="translate(0 -82.791)" stroke="#000" stroke-width="1"/>
    <path id="Path_54511" data-name="Path 54511" d="M98.456,235.676a6.27,6.27,0,0,0,6.27-6.269v-6.7a6.27,6.27,0,0,0-12.539,0v6.7A6.269,6.269,0,0,0,98.456,235.676Z" transform="translate(-15.124 -102.519)" stroke="#000" stroke-width="1"/>
    <path id="Path_54512" data-name="Path 54512" d="M154.568,235.676a6.27,6.27,0,0,0,6.269-6.269v-6.7a6.269,6.269,0,0,0-12.539,0v6.7A6.27,6.27,0,0,0,154.568,235.676Z" transform="translate(-24.33 -102.519)" stroke="#000" stroke-width="1"/>
    <path id="Path_54513" data-name="Path 54513" d="M104.761,264.975a6.27,6.27,0,0,0,3.148,8.289,40.6,40.6,0,0,0,31.944,0,6.27,6.27,0,0,0-5.141-11.437,28.108,28.108,0,0,1-21.664,0A6.27,6.27,0,0,0,104.761,264.975Z" transform="translate(-17.097 -109.875)" stroke="#000" stroke-width="1"/>
    <path id="Path_54514" data-name="Path 54514" d="M340.377,265.248a40.6,40.6,0,0,0,31.944,0,6.27,6.27,0,0,0-5.142-11.437,28.106,28.106,0,0,1-21.663,0,6.269,6.269,0,1,0-5.139,11.437Z" transform="translate(-55.236 -108.56)" stroke="#000" stroke-width="1"/>
    <path id="Path_54515" data-name="Path 54515" d="M433,304.326l-39.173-13.058a7.123,7.123,0,0,1-4.877-6.766V261.359a66.369,66.369,0,0,0,20.1-47.609V202.175c4.341-6.975,20.415-34.693,20.1-62.208-.192-16.927-6.631-31.354-18.617-41.721-13.878-12-34.522-18.085-61.363-18.085-27.1,0-46.47,6.548-57.585,19.461a39.813,39.813,0,0,0-3.3,4.429,6.252,6.252,0,0,0-.7.11,39.513,39.513,0,0,0-22.017,13.979,44.916,44.916,0,0,0-9.776,28.6c0,24.382,14.8,43.346,20.1,49.356V213.75A66.368,66.368,0,0,0,296,261.359V284.5a7.124,7.124,0,0,1-4.877,6.766L256.39,302.845a6.269,6.269,0,1,0,3.965,11.9l20.275-6.759a86.658,86.658,0,0,0,123.686,0l24.719,8.24a40.585,40.585,0,0,1,27.787,38.552v13.1a6.269,6.269,0,1,0,12.539,0v-13.1A53.109,53.109,0,0,0,433,304.326ZM288.433,213.75v-20.1a6.25,6.25,0,0,0-1.827-4.424h0c-.183-.184-18.276-18.7-18.276-42.482,0-12.679,6.319-22.163,14.115-27.065a34.362,34.362,0,0,0-.211,9.331,6.27,6.27,0,0,0,12.4-1.867,26.707,26.707,0,0,1,6.459-19.336c8.5-9.88,25.13-15.1,48.082-15.1,23.741,0,41.627,5.057,53.16,15.031,11.614,10.044,14.177,23.151,14.281,32.378.136,11.909-3.461,24.211-7.564,34.306v-.873a30.535,30.535,0,0,0-6.279-17.163c-9.862-13.149-27.3-15.91-40.2-15.91H311.927a19.646,19.646,0,0,0-18.662,13.45l-3.646,10.939a6.269,6.269,0,1,0,11.9,3.966l3.646-10.939a7.122,7.122,0,0,1,6.766-4.877h50.649c32.485,0,33.884,18.5,33.936,20.534V213.75a54.039,54.039,0,0,1-108.079,0ZM342.472,321.4a74.255,74.255,0,0,1-48.319-17.922l.932-.311A19.646,19.646,0,0,0,308.537,284.5V271a66.385,66.385,0,0,0,67.873,0v13.5a19.646,19.646,0,0,0,13.451,18.662l.931.31A74.378,74.378,0,0,1,342.472,321.4Z" transform="translate(-41.361 -80.161)" stroke="#000" stroke-width="1"/>
    <path id="Path_54516" data-name="Path 54516" d="M326.914,227.66a6.27,6.27,0,0,0,6.269-6.27v-6.7a6.269,6.269,0,1,0-12.539,0v6.7A6.27,6.27,0,0,0,326.914,227.66Z" transform="translate(-52.606 -101.204)" stroke="#000" stroke-width="1"/>
    <path id="Path_54517" data-name="Path 54517" d="M391.043,227.66a6.27,6.27,0,0,0,6.269-6.27v-6.7a6.269,6.269,0,1,0-12.539,0v6.7A6.27,6.27,0,0,0,391.043,227.66Z" transform="translate(-63.127 -101.204)" stroke="#000" stroke-width="1"/>
  </g>
</svg>
