<svg xmlns="http://www.w3.org/2000/svg" width="133.335" height="186.162" viewBox="0 0 133.335 186.162">
  <g id="Old_care" data-name="Old care" transform="translate(0.5 0.5)">
    <path id="Path_54348" data-name="Path 54348" d="M105.3,130.565l-.121-.034c-.058-.016-1.027-.261-2.687-.555a2.717,2.717,0,0,0-1.707-1.752L87.595,123.7a2.718,2.718,0,0,0-2.524.405l-4.084,3.1v-5.6A49.975,49.975,0,0,0,115.047,83.6a12.713,12.713,0,0,0,9.492-23.584V47.432a11.754,11.754,0,0,0-10.584-11.681,50.113,50.113,0,0,0-16.8-24.942,49.83,49.83,0,0,0-56.641-3.7c-3,1.808-.192,6.459,2.8,4.656a44.375,44.375,0,0,1,65.129,24.568,11.3,11.3,0,0,0-7.549,10.644V57.739a12.33,12.33,0,0,0,9.641,12.016v4.3a44.368,44.368,0,1,1-88.737,0v-.047l-.073-4.239A12.331,12.331,0,0,0,31.44,57.739V46.976a11.3,11.3,0,0,0-7.556-10.647,44.571,44.571,0,0,1,8.689-15.51c2.289-2.652-1.827-6.2-4.114-3.553A50.021,50.021,0,0,0,18.377,35.751,11.755,11.755,0,0,0,7.794,47.432V60.016A12.713,12.713,0,0,0,17.286,83.6,49.978,49.978,0,0,0,51.347,121.61v5.312l-3.707-2.814a2.718,2.718,0,0,0-2.524-.407l-13.194,4.523a2.716,2.716,0,0,0-1.681,1.682c-1.894.322-3.015.606-3.089.624-.041.01-.082.023-.123.034a37.221,37.221,0,0,0-18.7,13.153,36.6,36.6,0,0,0-7.38,22.149v16.576a2.717,2.717,0,0,0,2.717,2.717H107.479c3.5,0,3.5-5.433,0-5.433H69.071V157.6c0-.071-.006-.138-.01-.208a21.392,21.392,0,0,0,7.438-2.879l2.589,2.332a2.721,2.721,0,0,0,1.818.7c.076,0,.153,0,.23-.008a2.716,2.716,0,0,0,1.9-1.023l16.949-21.441c2.135.316,3.513.639,3.793.708a31.73,31.73,0,0,1,15.881,11.2,31.21,31.21,0,0,1,6.291,18.884v13.86H121.97c-3.5,0-3.5,5.434,0,5.434h6.7a2.717,2.717,0,0,0,2.718-2.717V165.867a36.612,36.612,0,0,0-7.38-22.149,37.225,37.225,0,0,0-18.7-13.153Zm21.6-58.828a7.285,7.285,0,0,1-7.277,7.277,7.2,7.2,0,0,1-3.8-1.075c.081-1.043.126-2.094.141-3.153h2.6c3.5,0,3.5-5.433,0-5.433h-2.589V67.747c1.483-3.19,5.128-2.927,5.536-2.887a2.7,2.7,0,0,0,.5.01,7.284,7.284,0,0,1,4.895,6.868Zm-20.573-14V46.976a5.853,5.853,0,0,1,4.869-5.759,2.627,2.627,0,0,0,1.7-.083,6.308,6.308,0,0,1,6.207,6.3V59.037a12.571,12.571,0,0,0-7.148,2.56,2.711,2.711,0,0,0-1.009,1.558,2.681,2.681,0,0,0-.366.938,6.885,6.885,0,0,1-4.256-6.354ZM19.533,41.128h.627a5.854,5.854,0,0,1,5.847,5.848V57.739a6.883,6.883,0,0,1-4.381,6.4V64.1a3.83,3.83,0,0,0-1.249-2.5,12.579,12.579,0,0,0-7.148-2.56v-11.6a6.31,6.31,0,0,1,6.3-6.3Zm-6.82,37.886a7.273,7.273,0,0,1-2.393-14.142,2.557,2.557,0,0,0,.487-.01c.421-.041,3.9-.292,5.444,2.65l.031,1.841H13.776c-3.5,0-3.5,5.433,0,5.433h2.6c.016,1.059.061,2.111.141,3.153a7.2,7.2,0,0,1-3.8,1.075ZM66.168,123.86a49.89,49.89,0,0,0,9.386-.89v8.008l-9.222,7.3-9.55-7.344v-7.966a49.879,49.879,0,0,0,9.386.89ZM6.381,179.727v-13.86a31.212,31.212,0,0,1,6.291-18.886,31.753,31.753,0,0,1,15.881-11.2c.3-.072,1.794-.422,4.1-.753l7.45,9.572c2.15,2.765,6.435-.578,4.287-3.337l-6.721-8.637a2.723,2.723,0,0,0,.072-.654l7.764-2.663,16.627,12.625L49.962,153.221a2.747,2.747,0,0,0,1.848,4.71,2.714,2.714,0,0,0,1.848-.725l2.758-2.556a17.532,17.532,0,0,0,4.795,2.294,16.725,16.725,0,0,0,2.435.538c0,.041-.006.081-.006.121v22.122ZM63,151.806a11.879,11.879,0,0,1-2.445-.995l5.829-5.4,5.847,5.264A12.618,12.618,0,0,1,63,151.806Zm17.574-.932-1.739-1.567a2.649,2.649,0,0,0-.5-.446l-7.723-6.955L87.2,129.31l8.193,2.81Zm0,0" transform="translate(0.001 0.001)" stroke="#000" stroke-width="1"/>
    <path id="Path_54349" data-name="Path 54349" d="M151.659,64.265a33.421,33.421,0,0,1,18.259.04c3.364.975,4.867-4.249,1.509-5.22a38.752,38.752,0,0,0-21.528.038,2.718,2.718,0,1,0,1.76,5.142Zm0,0" transform="translate(-94.558 -36.763)" stroke="#000" stroke-width="1"/>
    <path id="Path_54350" data-name="Path 54350" d="M133.643,98.958A57.692,57.692,0,0,1,164.934,99a2.7,2.7,0,0,0,.756.107,2.73,2.73,0,0,0,.753-5.327,62.128,62.128,0,0,0-34.557.04c-3.308,1.132-1.551,6.261,1.756,5.142Zm0,0" transform="translate(-83.061 -58.324)" stroke="#000" stroke-width="1"/>
    <path id="Path_54351" data-name="Path 54351" d="M86.7,159.322a16.029,16.029,0,0,0,31.981,1.565,4.87,4.87,0,0,1,5.661-.031,16.033,16.033,0,1,0,.511-5.82,9.9,9.9,0,0,0-6.655.092,16.028,16.028,0,0,0-31.5,4.194Zm53.6-10.6a10.6,10.6,0,1,1-10.595,10.6A10.607,10.607,0,0,1,140.3,148.726Zm-37.567,0a10.6,10.6,0,1,1-10.6,10.6A10.608,10.608,0,0,1,102.729,148.726Zm0,0" transform="translate(-55.345 -91.472)" stroke="#000" stroke-width="1"/>
  </g>
</svg>
