<svg xmlns="http://www.w3.org/2000/svg" width="396.18" height="400.739" viewBox="0 0 396.18 400.739">
  <g id="wondering" transform="translate(1.595 1.602)">
    <g id="Group_454" data-name="Group 454" transform="translate(0 0)">
      <path id="Path_54389" data-name="Path 54389" d="M303.773,192.005c-8.038,0-15.8-2.674-21.3-7.336a5.825,5.825,0,0,0-7.536,8.884,44.439,44.439,0,0,0,28.832,10.1,5.825,5.825,0,1,0,0-11.649Z" transform="translate(-63.277 -40.939)" stroke="#000" stroke-width="3"/>
      <path id="Path_54390" data-name="Path 54390" d="M227.175,185.344a5.826,5.826,0,0,0-8.21-.674c-5.5,4.662-13.258,7.336-21.3,7.336a5.825,5.825,0,1,0,0,11.65,44.442,44.442,0,0,0,28.832-10.1,5.825,5.825,0,0,0,.674-8.21Z" transform="translate(-45.175 -40.94)" stroke="#000" stroke-width="3"/>
      <path id="Path_54391" data-name="Path 54391" d="M294.042,221.765a5.824,5.824,0,0,0-5.825,5.825v2.33a5.825,5.825,0,1,0,11.649,0v-2.33A5.824,5.824,0,0,0,294.042,221.765Z" transform="translate(-66.701 -49.534)" stroke="#000" stroke-width="3"/>
      <path id="Path_54392" data-name="Path 54392" d="M214.608,221.765a5.824,5.824,0,0,0-5.825,5.825v2.33a5.825,5.825,0,0,0,11.65,0v-2.33A5.824,5.824,0,0,0,214.608,221.765Z" transform="translate(-48.959 -49.534)" stroke="#000" stroke-width="3"/>
      <path id="Path_54393" data-name="Path 54393" d="M430.685,30.576a19.438,19.438,0,0,0-19.416,19.416,5.825,5.825,0,1,0,11.649,0,7.766,7.766,0,1,1,15.533,0v1.525a2.694,2.694,0,0,1-1.4,2.365l-6.432,3.52a11.068,11.068,0,0,0-5.757,9.713v3.854a5.825,5.825,0,0,0,11.65,0V67.455l6.133-3.356A14.341,14.341,0,0,0,450.1,51.515V49.99a19.439,19.439,0,0,0-19.417-19.414Z" transform="translate(-94.187 -6.83)" stroke="#000" stroke-width="3"/>
      <path id="Path_54394" data-name="Path 54394" d="M434.594,100.113a5.824,5.824,0,0,0-5.825,5.825v.76a5.825,5.825,0,0,0,11.65,0v-.76A5.825,5.825,0,0,0,434.594,100.113Z" transform="translate(-98.095 -22.362)" stroke="#000" stroke-width="3"/>
      <path id="Path_54395" data-name="Path 54395" d="M386.207,24.273a55.859,55.859,0,0,0-99.222,48.816l-2.239,6.275a31.9,31.9,0,0,0-3.689-.352c-9.2-26.591-46.225-47.063-90.568-49.941a157.719,157.719,0,0,0-27.438.582,5.825,5.825,0,0,0,1.283,11.579,145.925,145.925,0,0,1,25.4-.536c39.56,2.568,73.431,20.571,80.546,42.827a10.329,10.329,0,0,0,9.742,7.116c.235,0,.457.025.687.034l-2.527,7.083a9.2,9.2,0,0,0,10.211,12.17l8.159-1.386c1.75,11.448-.022,27.689-4.975,45.38a29.486,29.486,0,0,0-8.176-1.158h-6.16V129.112A29.222,29.222,0,0,0,261.9,103.389a13.993,13.993,0,0,0-13.472.121c-16.911,9.327-40.547,13.774-64.86,12.2a139.775,139.775,0,0,1-40.077-8.434,14.008,14.008,0,0,0-16.43,5.011,29.039,29.039,0,0,0-5.332,16.829v23.652c-4.575.157-8.482-.509-14.254,1.135-4.946-17.672-6.716-33.9-4.971-45.342l8.074,1.372a9.205,9.205,0,0,0,10.212-12.17l-8.8-24.668a55.189,55.189,0,0,0,2.569-13.153c6.347-5.391,14.838-9.97,24.728-13.3a5.825,5.825,0,0,0-3.722-11.039A94.679,94.679,0,0,0,113.81,46,55.813,55.813,0,0,0,12.768,24.273,55.88,55.88,0,0,0,84.4,105.48l6.614,1.123c-2.857,18.172,2.335,40.466,5.921,52.786A29.553,29.553,0,0,0,85.981,182.36v8.419a29.624,29.624,0,0,0,29.591,29.59h6.858a53.691,53.691,0,0,0,48.555,44.817v14.8H138.452a55.5,55.5,0,0,0-55.045,46.937l-8.745,54.664a13.857,13.857,0,0,0,13.68,16.052H310.633a13.855,13.855,0,0,0,13.68-16.049l-3.588-22.421a5.825,5.825,0,1,0-11.5,1.841l3.588,22.425a2.205,2.205,0,0,1-2.178,2.556H281.8V348.366a5.825,5.825,0,0,0-11.65,0v37.622H128.824V348.366a5.825,5.825,0,0,0-11.65,0v37.622H88.342a2.2,2.2,0,0,1-2.178-2.559l8.746-54.667a43.9,43.9,0,0,1,43.541-37.127h12.255a55.414,55.414,0,0,0,97.561,0h12.255a43.9,43.9,0,0,1,43.541,37.123l.855,5.367a5.825,5.825,0,0,0,11.5-1.832l-.855-5.371a55.5,55.5,0,0,0-55.045-46.936H227.99v-14.8a53.689,53.689,0,0,0,48.555-44.817H283.4a29.624,29.624,0,0,0,29.591-29.59v-8.419a29.551,29.551,0,0,0-10.885-22.913c3.592-12.331,8.8-34.667,5.934-52.859l6.528-1.108a55.855,55.855,0,0,0,71.636-81.208ZM79.37,94.968a44.45,44.45,0,0,1-43.709-1.542,44.206,44.206,0,0,1-13.27-62.588,44.208,44.208,0,0,1,78.421,38.947,10.406,10.406,0,0,0,.045,6.767l7.561,21.19L85.89,93.916a10.419,10.419,0,0,0-6.521,1.052Zm18.261,95.811V182.36a17.965,17.965,0,0,1,17.941-17.948h6.16v44.307h-6.16a17.961,17.961,0,0,1-17.941-17.94ZM234.469,291.634a43.753,43.753,0,0,1-69.964,0h6.914a11.228,11.228,0,0,0,11.215-11.215V265.377H216.34v15.042a11.228,11.228,0,0,0,11.215,11.215Zm-10.826-37.907H175.332a42,42,0,0,1-41.95-41.95V129.111a17.451,17.451,0,0,1,3.2-10.113,2.36,2.36,0,0,1,2.772-.836,151.573,151.573,0,0,0,43.461,9.171c26.86,1.741,52.16-3.1,71.24-13.621a2.4,2.4,0,0,1,2.3-.075,17.585,17.585,0,0,1,9.234,15.477v82.667A42,42,0,0,1,223.644,253.727Zm77.7-62.948a17.961,17.961,0,0,1-17.941,17.94h-6.16V164.412h6.16a17.965,17.965,0,0,1,17.941,17.948ZM383.342,65a43.827,43.827,0,0,1-20.027,28.428,44.445,44.445,0,0,1-43.708,1.542,10.5,10.5,0,0,0-4.843-1.193,10.056,10.056,0,0,0-1.68.141l-22.526,3.826,7.561-21.192a10.411,10.411,0,0,0,.044-6.765,44.208,44.208,0,0,1,78.421-38.946A43.884,43.884,0,0,1,383.342,65Z" transform="translate(-2.993 0)" stroke="#000" stroke-width="3"/>
      <path id="Path_54396" data-name="Path 54396" d="M70.147,30.576A19.438,19.438,0,0,0,50.731,49.992a5.825,5.825,0,0,0,11.65,0,7.766,7.766,0,1,1,15.533,0v1.525a2.694,2.694,0,0,1-1.4,2.365L70.079,57.4a11.068,11.068,0,0,0-5.757,9.713v3.854a5.825,5.825,0,0,0,11.65,0V67.455L82.1,64.1a14.341,14.341,0,0,0,7.459-12.584V49.991A19.439,19.439,0,0,0,70.147,30.576Z" transform="translate(-13.656 -6.83)" stroke="#000" stroke-width="3"/>
      <path id="Path_54397" data-name="Path 54397" d="M74.056,100.113a5.824,5.824,0,0,0-5.825,5.825v.76a5.825,5.825,0,0,0,11.65,0v-.76A5.824,5.824,0,0,0,74.056,100.113Z" transform="translate(-17.564 -22.362)" stroke="#000" stroke-width="3"/>
      <path id="Path_54398" data-name="Path 54398" d="M268.141,263.383a42.592,42.592,0,0,0-36.836,0,5.825,5.825,0,0,0,4.842,10.6,31,31,0,0,1,27.152,0,5.825,5.825,0,0,0,4.842-10.6Z" transform="translate(-53.229 -57.895)" stroke="#000" stroke-width="3"/>
    </g>
  </g>
</svg>
