<svg xmlns="http://www.w3.org/2000/svg" xmlns:xlink="http://www.w3.org/1999/xlink" width="538" height="398" viewBox="0 0 538 398">
  <defs>
    <clipPath id="clip-path">
      <rect id="Rectangle_8025" data-name="Rectangle 8025" width="538" height="398" transform="translate(4744 398)" fill="#fff" stroke="#707070" stroke-width="1"/>
    </clipPath>
  </defs>
  <g id="Mask_Group_22" data-name="Mask Group 22" transform="translate(-4744 -398)" clip-path="url(#clip-path)">
    <g id="noun-blood-3087805" transform="translate(4673.469 317.297)">
      <path id="Path_56016" data-name="Path 56016" d="M598.49,234c0-26.578-14.637-41.215-41.215-41.215H337.485C363.5,171.914,377.2,151.644,378.2,132.351c.762-14.641-5.973-28.559-18.969-39.2a19.935,19.935,0,0,0-25.527.359l-160.06,135.84h-34.84a37.338,37.338,0,0,0-37.3,37.3l0,134.67a37.338,37.338,0,0,0,37.3,37.3h53.7c33.8,31.734,81.164,32.652,145.56,32.68.023,0,.047,0,.074,0h63.324c27.348,0,41.215-13.867,41.215-41.219q0-15.428-5.871-25.117c19.543-3.66,30.551-17.852,30.551-40.242,0-10.344-2.379-18.914-6.828-25.535,18.219-4.3,28.766-18.492,28.766-39.824,0-9.562-2.125-17.688-6.1-24.141h42.645c-8.414,14.422-15.656,31.574-15.656,48.082a41.414,41.414,0,1,0,82.828,0c0-17.59-8.293-36.02-17.453-51.043,14.906-5.508,22.926-18.609,22.926-38.258ZM401.47,454.22H343.837c-1.949,0-3.812,0-5.727,0a24.141,24.141,0,0,1,.032-48.282h63.324c15.289,0,24.141,3.953,24.141,24.141S416.76,454.22,401.47,454.22Zm24.68-65.355H356.209a24.143,24.143,0,0,1,0-48.286H426.15c16.7,0,24.141,7.441,24.141,24.141S442.846,388.865,426.15,388.865Zm46.078-89.5c0,16.473-7.672,24.145-24.141,24.145H372.7a24.143,24.143,0,0,1,0-48.286h75.387C464.56,275.22,472.228,282.892,472.228,299.361Zm-24.141-41.215H372.7a41.156,41.156,0,0,0-31.164,68.106,41.126,41.126,0,0,0-16.887,64.93,41.089,41.089,0,0,0-20.055,62.75c-46.012-1.043-78.863-6.012-102.55-29.867a8.527,8.527,0,0,0-6.059-2.523H138.814a20.242,20.242,0,0,1-20.219-20.219V266.643a20.242,20.242,0,0,1,20.219-20.219h37.973a8.532,8.532,0,0,0,5.523-2.027l162.45-137.86a2.911,2.911,0,0,1,3.664-.168c6.141,5.031,13.336,13.469,12.73,25.1-.656,12.621-10.676,33.754-54.691,62.723l-.023.023a8.5,8.5,0,0,0-1.633,1.453c-.121.137-.234.277-.348.422a8.667,8.667,0,0,0-1.055,1.7c-.023.051-.059.1-.078.148a8.4,8.4,0,0,0-.57,2.074c-.031.191-.043.383-.059.578-.02.242-.074.48-.074.727a8.435,8.435,0,0,0,.109,1.094c.016.105-.012.211.008.316.1.574,9.313,57.645-17.352,89.152-11.586,13.7-28.75,20.645-51.012,20.645a8.539,8.539,0,1,0,0,17.078c27.52,0,49.066-8.977,64.051-26.684,24.609-29.09,24.031-73.395,22.328-93.062h236.53c16.922,0,24.141,7.219,24.141,24.141,0,13.828-4.926,21.086-15.922,23.316a200.6,200.6,0,0,0-13.9-16.973,201.621,201.621,0,0,0-14.539,17.8Z" stroke="#000" stroke-width="5"/>
      <g id="Group_1446" data-name="Group 1446" transform="translate(70 644)">
        <path id="Path_56017" data-name="Path 56017" d="M18.766-1.125A13.3,13.3,0,0,1,15.735,0a13.627,13.627,0,0,1-3.281.391A11.208,11.208,0,0,1,4.375-2.453a10.2,10.2,0,0,1-2.984-7.734,10.175,10.175,0,0,1,2.984-7.734,11.183,11.183,0,0,1,8.078-2.859,13.627,13.627,0,0,1,3.281.391,13.3,13.3,0,0,1,3.031,1.125v4.219A12.009,12.009,0,0,0,15.875-16.5a9.532,9.532,0,0,0-3-.469,5.61,5.61,0,0,0-4.422,1.813,7.181,7.181,0,0,0-1.609,4.969A7.208,7.208,0,0,0,8.454-5.219a5.626,5.626,0,0,0,4.422,1.8,9.754,9.754,0,0,0,3-.453,11.674,11.674,0,0,0,2.891-1.469Z" stroke="#000" stroke-width="5"/>
      </g>
      <g id="Group_1447" data-name="Group 1447" transform="translate(90.551 644)">
        <path id="Path_56018" data-name="Path 56018" d="M13.734-11.141a6.765,6.765,0,0,0-1.3-.437,5.346,5.346,0,0,0-1.266-.156,3.566,3.566,0,0,0-2.906,1.219A5.2,5.2,0,0,0,7.25-7.063V0H2.359V-15.312H7.25V-12.8a6.217,6.217,0,0,1,2.156-2.187,5.829,5.829,0,0,1,2.938-.7,5.207,5.207,0,0,1,.531.031c.2.012.477.039.844.078Z" stroke="#000" stroke-width="5"/>
      </g>
      <g id="Group_1448" data-name="Group 1448" transform="translate(104.359 644)">
        <path id="Path_56019" data-name="Path 56019" d="M17.641-7.7V-6.3H6.188a3.641,3.641,0,0,0,1.25,2.578,4.619,4.619,0,0,0,2.984.859,11.52,11.52,0,0,0,3.156-.453A16.707,16.707,0,0,0,16.907-4.7V-.938a20.629,20.629,0,0,1-3.469.984A18.006,18.006,0,0,1,9.969.391,9.241,9.241,0,0,1,3.5-1.719,7.635,7.635,0,0,1,1.2-7.641a7.713,7.713,0,0,1,2.266-5.891,8.645,8.645,0,0,1,6.219-2.156A7.79,7.79,0,0,1,15.469-13.5a7.851,7.851,0,0,1,2.172,5.8ZM12.61-9.328a3.1,3.1,0,0,0-.812-2.234,2.8,2.8,0,0,0-2.125-.859,3.335,3.335,0,0,0-2.312.8,3.665,3.665,0,0,0-1.109,2.3Z" stroke="#000" stroke-width="5"/>
      </g>
      <g id="Group_1449" data-name="Group 1449" transform="translate(123.348 644)">
        <path id="Path_56020" data-name="Path 56020" d="M9.219-6.891a4.216,4.216,0,0,0-2.312.516,1.724,1.724,0,0,0-.766,1.531,1.817,1.817,0,0,0,.625,1.469,2.616,2.616,0,0,0,1.719.516,3.087,3.087,0,0,0,2.328-.984,3.463,3.463,0,0,0,.953-2.484v-.562Zm7.469-1.844V0H11.766V-2.266A6.323,6.323,0,0,1,9.547-.234a6.625,6.625,0,0,1-3,.625A5.441,5.441,0,0,1,2.687-.984,4.707,4.707,0,0,1,1.2-4.594,4.421,4.421,0,0,1,3.047-8.531Q4.9-9.8,8.875-9.8h2.891v-.391a1.81,1.81,0,0,0-.922-1.687,5.808,5.808,0,0,0-2.859-.547,13.157,13.157,0,0,0-2.937.313,10.134,10.134,0,0,0-2.5.938v-3.734a29.776,29.776,0,0,1,3.141-.578,25.681,25.681,0,0,1,3.188-.2q4.137,0,5.969,1.641t1.844,5.313Z" stroke="#000" stroke-width="5"/>
      </g>
      <g id="Group_1450" data-name="Group 1450" transform="translate(142.242 644)">
        <path id="Path_56021" data-name="Path 56021" d="M7.7-19.656v4.344H12.75v3.5H7.7v6.5a1.89,1.89,0,0,0,.422,1.438A2.632,2.632,0,0,0,9.8-3.5h2.516V0H8.125Q5.219,0,4-1.2,2.793-2.422,2.8-5.312v-6.5H.375v-3.5H2.8v-4.344Z" stroke="#000" stroke-width="5"/>
      </g>
      <g id="Group_1451" data-name="Group 1451" transform="translate(155.629 644)">
        <path id="Path_56022" data-name="Path 56022" d="M17.641-7.7V-6.3H6.188a3.641,3.641,0,0,0,1.25,2.578,4.619,4.619,0,0,0,2.984.859,11.52,11.52,0,0,0,3.156-.453A16.707,16.707,0,0,0,16.907-4.7V-.938a20.629,20.629,0,0,1-3.469.984A18.006,18.006,0,0,1,9.969.391,9.241,9.241,0,0,1,3.5-1.719,7.635,7.635,0,0,1,1.2-7.641a7.713,7.713,0,0,1,2.266-5.891,8.645,8.645,0,0,1,6.219-2.156A7.79,7.79,0,0,1,15.469-13.5a7.851,7.851,0,0,1,2.172,5.8ZM12.61-9.328a3.1,3.1,0,0,0-.812-2.234,2.8,2.8,0,0,0-2.125-.859,3.335,3.335,0,0,0-2.312.8,3.665,3.665,0,0,0-1.109,2.3Z" stroke="#000" stroke-width="5"/>
      </g>
      <g id="Group_1452" data-name="Group 1452" transform="translate(174.617 644)">
        <path id="Path_56023" data-name="Path 56023" d="M12.766-13.078v-8.2h4.922V0H12.766V-2.219A6.444,6.444,0,0,1,10.547-.235,6.155,6.155,0,0,1,7.719.39,5.694,5.694,0,0,1,3.079-1.86,8.908,8.908,0,0,1,1.266-7.641a8.938,8.938,0,0,1,1.813-5.8,5.694,5.694,0,0,1,4.641-2.25,5.972,5.972,0,0,1,2.813.641,6.776,6.776,0,0,1,2.234,1.969ZM9.547-3.156A2.776,2.776,0,0,0,11.938-4.3a5.7,5.7,0,0,0,.828-3.344,5.639,5.639,0,0,0-.828-3.328,2.769,2.769,0,0,0-2.391-1.156,2.76,2.76,0,0,0-2.391,1.156,5.611,5.611,0,0,0-.828,3.328A5.673,5.673,0,0,0,7.157-4.3,2.766,2.766,0,0,0,9.547-3.156Z" stroke="#000" stroke-width="5"/>
      </g>
      <g id="Group_1453" data-name="Group 1453" transform="translate(204.41 644)">
        <path id="Path_56024" data-name="Path 56024" d="M10.5-3.156A2.79,2.79,0,0,0,12.906-4.3a5.7,5.7,0,0,0,.828-3.344,5.639,5.639,0,0,0-.828-3.328A2.783,2.783,0,0,0,10.5-12.125a2.816,2.816,0,0,0-2.422,1.156A5.66,5.66,0,0,0,7.25-7.641a5.643,5.643,0,0,0,.828,3.328A2.807,2.807,0,0,0,10.5-3.156ZM7.25-13.078a6.934,6.934,0,0,1,2.234-1.969,6.059,6.059,0,0,1,2.828-.641,5.718,5.718,0,0,1,4.656,2.25,8.961,8.961,0,0,1,1.813,5.8,8.93,8.93,0,0,1-1.812,5.781A5.718,5.718,0,0,1,12.313.391,6.2,6.2,0,0,1,9.484-.234,6.766,6.766,0,0,1,7.25-2.219V0H2.359V-21.281H7.25Z" stroke="#000" stroke-width="5"/>
      </g>
      <g id="Group_1454" data-name="Group 1454" transform="translate(224.453 644)">
        <path id="Path_56025" data-name="Path 56025" d="M.344-15.312H5.234L9.359-4.921l3.5-10.391H17.75L11.312,1.454A8.179,8.179,0,0,1,9.047,5.017,5.316,5.316,0,0,1,5.641,6.048H2.8V2.829H4.328a3.163,3.163,0,0,0,1.813-.406,2.555,2.555,0,0,0,.891-1.406L7.172.595Z" stroke="#000" stroke-width="5"/>
      </g>
      <g id="Group_1455" data-name="Group 1455" transform="translate(252.453 644)">
        <path id="Path_56026" data-name="Path 56026" d="M7.828-16.438V-3.985H9.719a6.969,6.969,0,0,0,4.938-1.594,6.078,6.078,0,0,0,1.7-4.656,5.992,5.992,0,0,0-1.7-4.609,6.937,6.937,0,0,0-4.938-1.594Zm-5.25-3.969H8.125a26.976,26.976,0,0,1,6.922.656,9.077,9.077,0,0,1,3.906,2.25,8.643,8.643,0,0,1,2.125,3.188,11.132,11.132,0,0,1,.7,4.078,11.331,11.331,0,0,1-.7,4.125,8.732,8.732,0,0,1-2.125,3.2,9.326,9.326,0,0,1-3.937,2.25A26.906,26.906,0,0,1,8.125,0H2.578Z" stroke="#000" stroke-width="5"/>
      </g>
      <g id="Group_1456" data-name="Group 1456" transform="translate(275.695 644)">
        <path id="Path_56027" data-name="Path 56027" d="M16.547-12.766a6.633,6.633,0,0,1,2.2-2.172,5.453,5.453,0,0,1,2.813-.75,4.948,4.948,0,0,1,4.016,1.641,7.079,7.079,0,0,1,1.391,4.719V0H22.047V-8.344c.008-.133.016-.32.016-.562a4.353,4.353,0,0,0-.484-2.344,1.683,1.683,0,0,0-1.531-.734,2.438,2.438,0,0,0-2.156,1.156,6,6,0,0,0-.781,3.312V0H12.188V-7.985a7.608,7.608,0,0,0-.437-3.266,1.67,1.67,0,0,0-1.562-.734,2.455,2.455,0,0,0-2.172,1.156,5.9,5.9,0,0,0-.766,3.3V0H2.328V-15.313H7.25v2.234a6.362,6.362,0,0,1,2.063-1.953,5.186,5.186,0,0,1,2.578-.656,5.2,5.2,0,0,1,2.813.766,4.822,4.822,0,0,1,1.844,2.156Z" stroke="#000" stroke-width="5"/>
      </g>
      <g id="Group_1457" data-name="Group 1457" transform="translate(304.867 644)">
        <path id="Path_56028" data-name="Path 56028" d="M2.359-15.312H7.25V0H2.359Zm0-5.969H7.25v4H2.359Z" stroke="#000" stroke-width="5"/>
      </g>
      <g id="Group_1458" data-name="Group 1458" transform="translate(314.469 644)">
        <path id="Path_56029" data-name="Path 56029" d="M7.7-19.656v4.344H12.75v3.5H7.7v6.5a1.89,1.89,0,0,0,.422,1.438A2.632,2.632,0,0,0,9.8-3.5h2.516V0H8.125Q5.219,0,4-1.2,2.793-2.422,2.8-5.312v-6.5H.375v-3.5H2.8v-4.344Z" stroke="#000" stroke-width="5"/>
      </g>
      <g id="Group_1459" data-name="Group 1459" transform="translate(327.852 644)">
        <path id="Path_56030" data-name="Path 56030" d="M13.734-11.141a6.765,6.765,0,0,0-1.3-.437,5.346,5.346,0,0,0-1.266-.156,3.566,3.566,0,0,0-2.906,1.219A5.2,5.2,0,0,0,7.25-7.063V0H2.359V-15.312H7.25V-12.8a6.217,6.217,0,0,1,2.156-2.187,5.829,5.829,0,0,1,2.938-.7,5.207,5.207,0,0,1,.531.031c.2.012.477.039.844.078Z" stroke="#000" stroke-width="5"/>
      </g>
      <g id="Group_1460" data-name="Group 1460" transform="translate(341.66 644)">
        <path id="Path_56031" data-name="Path 56031" d="M.344-15.312H5.234L9.359-4.921l3.5-10.391H17.75L11.312,1.454A8.179,8.179,0,0,1,9.047,5.017,5.316,5.316,0,0,1,5.641,6.048H2.8V2.829H4.328a3.163,3.163,0,0,0,1.813-.406,2.555,2.555,0,0,0,.891-1.406L7.172.595Z" stroke="#000" stroke-width="5"/>
      </g>
      <g id="Group_1461" data-name="Group 1461" transform="translate(369.66 644)">
        <path id="Path_56032" data-name="Path 56032" d="M.141-20.406H5.422L10.844-5.344,16.25-20.406h5.281L13.969,0H7.7Z" stroke="#000" stroke-width="5"/>
      </g>
      <g id="Group_1462" data-name="Group 1462" transform="translate(391.328 644)">
        <path id="Path_56033" data-name="Path 56033" d="M9.219-6.891a4.216,4.216,0,0,0-2.312.516,1.724,1.724,0,0,0-.766,1.531,1.817,1.817,0,0,0,.625,1.469,2.616,2.616,0,0,0,1.719.516,3.087,3.087,0,0,0,2.328-.984,3.463,3.463,0,0,0,.953-2.484v-.562Zm7.469-1.844V0H11.766V-2.266A6.323,6.323,0,0,1,9.547-.234a6.625,6.625,0,0,1-3,.625A5.441,5.441,0,0,1,2.687-.984,4.707,4.707,0,0,1,1.2-4.594,4.421,4.421,0,0,1,3.047-8.531Q4.9-9.8,8.875-9.8h2.891v-.391a1.81,1.81,0,0,0-.922-1.687,5.808,5.808,0,0,0-2.859-.547,13.157,13.157,0,0,0-2.937.313,10.134,10.134,0,0,0-2.5.938v-3.734a29.776,29.776,0,0,1,3.141-.578,25.681,25.681,0,0,1,3.188-.2q4.137,0,5.969,1.641t1.844,5.313Z" stroke="#000" stroke-width="5"/>
      </g>
      <g id="Group_1463" data-name="Group 1463" transform="translate(410.227 644)">
        <path id="Path_56034" data-name="Path 56034" d="M14.312-14.828v3.719a18.075,18.075,0,0,0-3.031-.984,12.729,12.729,0,0,0-2.766-.328,4.863,4.863,0,0,0-2.078.344A1.136,1.136,0,0,0,5.765-11a.984.984,0,0,0,.516.891,4.885,4.885,0,0,0,1.844.469l.859.125q3.762.486,5.063,1.578a4.239,4.239,0,0,1,1.3,3.422A4.165,4.165,0,0,1,13.531-.828,9.641,9.641,0,0,1,8.156.391,22.063,22.063,0,0,1,5,.156,25.259,25.259,0,0,1,1.687-.562V-4.281A13.667,13.667,0,0,0,4.672-3.2a14.354,14.354,0,0,0,3.141.344A4.643,4.643,0,0,0,9.968-3.25a1.292,1.292,0,0,0,.719-1.187,1.067,1.067,0,0,0-.5-.969,5.2,5.2,0,0,0-1.984-.5l-.859-.109A8.938,8.938,0,0,1,2.765-7.531a4.151,4.151,0,0,1-1.312-3.359A4.118,4.118,0,0,1,3.109-14.5a8.918,8.918,0,0,1,5.125-1.187,19.648,19.648,0,0,1,2.828.219,31.23,31.23,0,0,1,3.25.641Z" stroke="#000" stroke-width="5"/>
      </g>
      <g id="Group_1464" data-name="Group 1464" transform="translate(426.891 644)">
        <path id="Path_56035" data-name="Path 56035" d="M2.359-15.312H7.25V0H2.359Zm0-5.969H7.25v4H2.359Z" stroke="#000" stroke-width="5"/>
      </g>
      <g id="Group_1465" data-name="Group 1465" transform="translate(436.488 644)">
        <path id="Path_56036" data-name="Path 56036" d="M2.359-21.281H7.25V0H2.359Z" stroke="#000" stroke-width="5"/>
      </g>
      <g id="Group_1466" data-name="Group 1466" transform="translate(446.086 644)">
        <path id="Path_56037" data-name="Path 56037" d="M2.359-15.312H7.25V0H2.359Zm0-5.969H7.25v4H2.359Z" stroke="#000" stroke-width="5"/>
      </g>
      <g id="Group_1467" data-name="Group 1467" transform="translate(455.684 644)">
        <path id="Path_56038" data-name="Path 56038" d="M17.641-7.7V-6.3H6.188a3.641,3.641,0,0,0,1.25,2.578,4.619,4.619,0,0,0,2.984.859,11.52,11.52,0,0,0,3.156-.453A16.707,16.707,0,0,0,16.907-4.7V-.938a20.629,20.629,0,0,1-3.469.984A18.006,18.006,0,0,1,9.969.391,9.241,9.241,0,0,1,3.5-1.719,7.635,7.635,0,0,1,1.2-7.641a7.713,7.713,0,0,1,2.266-5.891,8.645,8.645,0,0,1,6.219-2.156A7.79,7.79,0,0,1,15.469-13.5a7.851,7.851,0,0,1,2.172,5.8ZM12.61-9.328a3.1,3.1,0,0,0-.812-2.234,2.8,2.8,0,0,0-2.125-.859,3.335,3.335,0,0,0-2.312.8,3.665,3.665,0,0,0-1.109,2.3Z" stroke="#000" stroke-width="5"/>
      </g>
      <g id="Group_1468" data-name="Group 1468" transform="translate(474.672 644)">
        <path id="Path_56039" data-name="Path 56039" d="M.422-15.312H5.312L9.141-4.734l3.8-10.578h4.906L11.812,0H6.437Z" stroke="#000" stroke-width="5"/>
      </g>
      <g id="Group_1469" data-name="Group 1469" transform="translate(70 672)">
        <path id="Path_56040" data-name="Path 56040" d="M12.422-21.281v3.219h-2.7a2.193,2.193,0,0,0-1.453.375,1.725,1.725,0,0,0-.406,1.313v1.062h4.187v3.5H7.86V0H2.969V-11.812H.531v-3.5H2.969v-1.062a4.635,4.635,0,0,1,1.391-3.7,6.508,6.508,0,0,1,4.328-1.2Z" stroke="#000" stroke-width="5"/>
      </g>
      <g id="Group_1470" data-name="Group 1470" transform="translate(82.184 672)">
        <path id="Path_56041" data-name="Path 56041" d="M13.734-11.141a6.765,6.765,0,0,0-1.3-.437,5.346,5.346,0,0,0-1.266-.156,3.566,3.566,0,0,0-2.906,1.219A5.2,5.2,0,0,0,7.25-7.063V0H2.359V-15.312H7.25V-12.8a6.217,6.217,0,0,1,2.156-2.187,5.829,5.829,0,0,1,2.938-.7,5.207,5.207,0,0,1,.531.031c.2.012.477.039.844.078Z" stroke="#000" stroke-width="5"/>
      </g>
      <g id="Group_1471" data-name="Group 1471" transform="translate(95.992 672)">
        <path id="Path_56042" data-name="Path 56042" d="M9.641-12.188a2.885,2.885,0,0,0-2.484,1.172A5.637,5.637,0,0,0,6.3-7.641a5.636,5.636,0,0,0,.859,3.375A2.893,2.893,0,0,0,9.641-3.11a2.826,2.826,0,0,0,2.437-1.156,5.664,5.664,0,0,0,.859-3.375,5.664,5.664,0,0,0-.859-3.375A2.819,2.819,0,0,0,9.641-12.188Zm0-3.5a8.533,8.533,0,0,1,6.172,2.141,7.8,7.8,0,0,1,2.219,5.906,7.828,7.828,0,0,1-2.219,5.906A8.559,8.559,0,0,1,9.641.39a8.626,8.626,0,0,1-6.2-2.125A7.779,7.779,0,0,1,1.2-7.641a7.755,7.755,0,0,1,2.234-5.906A8.6,8.6,0,0,1,9.641-15.688Z" stroke="#000" stroke-width="5"/>
      </g>
      <g id="Group_1472" data-name="Group 1472" transform="translate(115.227 672)">
        <path id="Path_56043" data-name="Path 56043" d="M16.547-12.766a6.633,6.633,0,0,1,2.2-2.172,5.453,5.453,0,0,1,2.813-.75,4.948,4.948,0,0,1,4.016,1.641,7.079,7.079,0,0,1,1.391,4.719V0H22.047V-8.344c.008-.133.016-.32.016-.562a4.353,4.353,0,0,0-.484-2.344,1.683,1.683,0,0,0-1.531-.734,2.438,2.438,0,0,0-2.156,1.156,6,6,0,0,0-.781,3.312V0H12.188V-7.985a7.608,7.608,0,0,0-.437-3.266,1.67,1.67,0,0,0-1.562-.734,2.455,2.455,0,0,0-2.172,1.156,5.9,5.9,0,0,0-.766,3.3V0H2.328V-15.313H7.25v2.234a6.362,6.362,0,0,1,2.063-1.953,5.186,5.186,0,0,1,2.578-.656,5.2,5.2,0,0,1,2.813.766,4.822,4.822,0,0,1,1.844,2.156Z" stroke="#000" stroke-width="5"/>
      </g>
      <g id="Group_1473" data-name="Group 1473" transform="translate(154.152 672)">
        <path id="Path_56044" data-name="Path 56044" d="M7.7-19.656v4.344H12.75v3.5H7.7v6.5a1.89,1.89,0,0,0,.422,1.438A2.632,2.632,0,0,0,9.8-3.5h2.516V0H8.125Q5.219,0,4-1.2,2.793-2.422,2.8-5.312v-6.5H.375v-3.5H2.8v-4.344Z" stroke="#000" stroke-width="5"/>
      </g>
      <g id="Group_1474" data-name="Group 1474" transform="translate(167.535 672)">
        <path id="Path_56045" data-name="Path 56045" d="M17.75-9.328V0H12.828V-7.109a26.6,26.6,0,0,0-.094-2.766,2.94,2.94,0,0,0-.312-1.109,1.994,1.994,0,0,0-.781-.734,2.3,2.3,0,0,0-1.109-.266A2.827,2.827,0,0,0,8.125-10.8,5.345,5.345,0,0,0,7.25-7.531V0H2.359V-21.281H7.25v8.2a7.816,7.816,0,0,1,2.344-1.969,5.953,5.953,0,0,1,2.75-.641,4.965,4.965,0,0,1,4.031,1.641A7.142,7.142,0,0,1,17.75-9.328Z" stroke="#000" stroke-width="5"/>
      </g>
      <g id="Group_1475" data-name="Group 1475" transform="translate(187.469 672)">
        <path id="Path_56046" data-name="Path 56046" d="M17.641-7.7V-6.3H6.188a3.641,3.641,0,0,0,1.25,2.578,4.619,4.619,0,0,0,2.984.859,11.52,11.52,0,0,0,3.156-.453A16.707,16.707,0,0,0,16.907-4.7V-.938a20.629,20.629,0,0,1-3.469.984A18.006,18.006,0,0,1,9.969.391,9.241,9.241,0,0,1,3.5-1.719,7.635,7.635,0,0,1,1.2-7.641a7.713,7.713,0,0,1,2.266-5.891,8.645,8.645,0,0,1,6.219-2.156A7.79,7.79,0,0,1,15.469-13.5a7.851,7.851,0,0,1,2.172,5.8ZM12.61-9.328a3.1,3.1,0,0,0-.812-2.234,2.8,2.8,0,0,0-2.125-.859,3.335,3.335,0,0,0-2.312.8,3.665,3.665,0,0,0-1.109,2.3Z" stroke="#000" stroke-width="5"/>
      </g>
      <g id="Group_1476" data-name="Group 1476" transform="translate(216.207 672)">
        <path id="Path_56047" data-name="Path 56047" d="M2.578-20.406H8.453l7.422,14v-14h4.984V0H14.984L7.563-14V0H2.578Z" stroke="#000" stroke-width="5"/>
      </g>
      <g id="Group_1477" data-name="Group 1477" transform="translate(239.641 672)">
        <path id="Path_56048" data-name="Path 56048" d="M9.641-12.188a2.885,2.885,0,0,0-2.484,1.172A5.637,5.637,0,0,0,6.3-7.641a5.636,5.636,0,0,0,.859,3.375A2.893,2.893,0,0,0,9.641-3.11a2.826,2.826,0,0,0,2.437-1.156,5.664,5.664,0,0,0,.859-3.375,5.664,5.664,0,0,0-.859-3.375A2.819,2.819,0,0,0,9.641-12.188Zm0-3.5a8.533,8.533,0,0,1,6.172,2.141,7.8,7.8,0,0,1,2.219,5.906,7.828,7.828,0,0,1-2.219,5.906A8.559,8.559,0,0,1,9.641.39a8.626,8.626,0,0,1-6.2-2.125A7.779,7.779,0,0,1,1.2-7.641a7.755,7.755,0,0,1,2.234-5.906A8.6,8.6,0,0,1,9.641-15.688Z" stroke="#000" stroke-width="5"/>
      </g>
      <g id="Group_1478" data-name="Group 1478" transform="translate(258.879 672)">
        <path id="Path_56049" data-name="Path 56049" d="M2.188-5.969v-9.344H7.109v1.531c0,.836-.008,1.875-.016,3.125s-.016,2.086-.016,2.5a26.311,26.311,0,0,0,.094,2.672A3.08,3.08,0,0,0,7.5-4.313a2.154,2.154,0,0,0,.8.75,2.357,2.357,0,0,0,1.109.25,2.843,2.843,0,0,0,2.406-1.172,5.364,5.364,0,0,0,.875-3.266v-7.563h4.891V0H12.688V-2.219A7.694,7.694,0,0,1,10.344-.235,6,6,0,0,1,7.609.39,5,5,0,0,1,3.578-1.235,7.075,7.075,0,0,1,2.188-5.969Z" stroke="#000" stroke-width="5"/>
      </g>
      <g id="Group_1479" data-name="Group 1479" transform="translate(278.813 672)">
        <path id="Path_56050" data-name="Path 56050" d="M17.75-9.328V0H12.828V-7.141a26.185,26.185,0,0,0-.094-2.734,2.94,2.94,0,0,0-.312-1.109,1.994,1.994,0,0,0-.781-.734,2.3,2.3,0,0,0-1.109-.266A2.827,2.827,0,0,0,8.125-10.8,5.345,5.345,0,0,0,7.25-7.531V0H2.359V-15.312H7.25v2.234a7.816,7.816,0,0,1,2.344-1.969,5.953,5.953,0,0,1,2.75-.641,4.965,4.965,0,0,1,4.031,1.641A7.142,7.142,0,0,1,17.75-9.328Z" stroke="#000" stroke-width="5"/>
      </g>
      <g id="Group_1480" data-name="Group 1480" transform="translate(308.492 672)">
        <path id="Path_56051" data-name="Path 56051" d="M2.578-20.406h8.734a9.085,9.085,0,0,1,5.969,1.734,6.015,6.015,0,0,1,2.094,4.922,6.052,6.052,0,0,1-2.094,4.938,9.085,9.085,0,0,1-5.969,1.734H7.828V0H2.578Zm5.25,3.813v5.7H10.75a3.4,3.4,0,0,0,2.359-.75,2.675,2.675,0,0,0,.844-2.109,2.653,2.653,0,0,0-.844-2.109,3.455,3.455,0,0,0-2.359-.734Z" stroke="#000" stroke-width="5"/>
      </g>
      <g id="Group_1481" data-name="Group 1481" transform="translate(329.016 672)">
        <path id="Path_56052" data-name="Path 56052" d="M13.734-11.141a6.765,6.765,0,0,0-1.3-.437,5.346,5.346,0,0,0-1.266-.156,3.566,3.566,0,0,0-2.906,1.219A5.2,5.2,0,0,0,7.25-7.063V0H2.359V-15.312H7.25V-12.8a6.217,6.217,0,0,1,2.156-2.187,5.829,5.829,0,0,1,2.938-.7,5.207,5.207,0,0,1,.531.031c.2.012.477.039.844.078Z" stroke="#000" stroke-width="5"/>
      </g>
      <g id="Group_1482" data-name="Group 1482" transform="translate(342.82 672)">
        <path id="Path_56053" data-name="Path 56053" d="M9.641-12.188a2.885,2.885,0,0,0-2.484,1.172A5.637,5.637,0,0,0,6.3-7.641a5.636,5.636,0,0,0,.859,3.375A2.893,2.893,0,0,0,9.641-3.11a2.826,2.826,0,0,0,2.437-1.156,5.664,5.664,0,0,0,.859-3.375,5.664,5.664,0,0,0-.859-3.375A2.819,2.819,0,0,0,9.641-12.188Zm0-3.5a8.533,8.533,0,0,1,6.172,2.141,7.8,7.8,0,0,1,2.219,5.906,7.828,7.828,0,0,1-2.219,5.906A8.559,8.559,0,0,1,9.641.39a8.626,8.626,0,0,1-6.2-2.125A7.779,7.779,0,0,1,1.2-7.641a7.755,7.755,0,0,1,2.234-5.906A8.6,8.6,0,0,1,9.641-15.688Z" stroke="#000" stroke-width="5"/>
      </g>
      <g id="Group_1483" data-name="Group 1483" transform="translate(362.059 672)">
        <path id="Path_56054" data-name="Path 56054" d="M2.359-15.312H7.25V-.281a6.752,6.752,0,0,1-1.484,4.7A5.482,5.482,0,0,1,1.484,6.047H-.937V2.828h.859A2.388,2.388,0,0,0,1.828,2.2,4.088,4.088,0,0,0,2.359-.281Zm0-5.969H7.25v4H2.359Z" stroke="#000" stroke-width="5"/>
      </g>
      <g id="Group_1484" data-name="Group 1484" transform="translate(371.656 672)">
        <path id="Path_56055" data-name="Path 56055" d="M17.641-7.7V-6.3H6.188a3.641,3.641,0,0,0,1.25,2.578,4.619,4.619,0,0,0,2.984.859,11.52,11.52,0,0,0,3.156-.453A16.707,16.707,0,0,0,16.907-4.7V-.938a20.629,20.629,0,0,1-3.469.984A18.006,18.006,0,0,1,9.969.391,9.241,9.241,0,0,1,3.5-1.719,7.635,7.635,0,0,1,1.2-7.641a7.713,7.713,0,0,1,2.266-5.891,8.645,8.645,0,0,1,6.219-2.156A7.79,7.79,0,0,1,15.469-13.5a7.851,7.851,0,0,1,2.172,5.8ZM12.61-9.328a3.1,3.1,0,0,0-.812-2.234,2.8,2.8,0,0,0-2.125-.859,3.335,3.335,0,0,0-2.312.8,3.665,3.665,0,0,0-1.109,2.3Z" stroke="#000" stroke-width="5"/>
      </g>
      <g id="Group_1485" data-name="Group 1485" transform="translate(390.648 672)">
        <path id="Path_56056" data-name="Path 56056" d="M14.719-14.828v3.984a7.612,7.612,0,0,0-2-1.016,6.629,6.629,0,0,0-2.078-.328,4.232,4.232,0,0,0-3.2,1.2A4.628,4.628,0,0,0,6.3-7.64,4.653,4.653,0,0,0,7.438-4.3a4.253,4.253,0,0,0,3.2,1.188,7.133,7.133,0,0,0,2.172-.328,6.412,6.412,0,0,0,1.906-1.016v4a13.234,13.234,0,0,1-2.328.625,13.04,13.04,0,0,1-2.375.219A9.292,9.292,0,0,1,3.531-1.734,7.577,7.577,0,0,1,1.2-7.64a7.607,7.607,0,0,1,2.328-5.922,9.311,9.311,0,0,1,6.484-2.125,13.04,13.04,0,0,1,2.375.219,13.073,13.073,0,0,1,2.328.641Z" stroke="#000" stroke-width="5"/>
      </g>
      <g id="Group_1486" data-name="Group 1486" transform="translate(407.242 672)">
        <path id="Path_56057" data-name="Path 56057" d="M7.7-19.656v4.344H12.75v3.5H7.7v6.5a1.89,1.89,0,0,0,.422,1.438A2.632,2.632,0,0,0,9.8-3.5h2.516V0H8.125Q5.219,0,4-1.2,2.793-2.422,2.8-5.312v-6.5H.375v-3.5H2.8v-4.344Z" stroke="#000" stroke-width="5"/>
      </g>
    </g>
  </g>
</svg>
