<svg xmlns="http://www.w3.org/2000/svg" xmlns:xlink="http://www.w3.org/1999/xlink" width="721" height="630" viewBox="0 0 721 630">
  <defs>
    <clipPath id="clip-path">
      <rect id="Rectangle_8029" data-name="Rectangle 8029" width="721" height="630" transform="translate(10129 -2524)" fill="#fff" stroke="#707070" stroke-width="1"/>
    </clipPath>
  </defs>
  <g id="Mask_Group_26" data-name="Mask Group 26" transform="translate(-10129 2524)" clip-path="url(#clip-path)">
    <g id="noun-split-personality-2247034" transform="translate(10129 -2511.007)">
      <path id="Path_56189" data-name="Path 56189" d="M744.566,307.682l-4.3-5.735c-14.247-19.13-13.267-28.361-10.43-34.863,9.491-21.713,5.385-35.68,1.035-50.49a134.35,134.35,0,0,1-2.908-14.511c-.508-3.045-1.061-6.339-1.726-9.933-5.182-28.052-21.844-80.2-75.248-114.268C609.879,51.653,558.338,41.5,483.9,44.954a229.448,229.448,0,0,0-54.424,9.278,230.033,230.033,0,0,0-54.429-9.278c-74.446-3.456-125.972,6.7-167.078,32.93C154.57,111.955,137.9,164.1,132.72,192.151c-.665,3.593-1.218,6.892-1.726,9.938a133.705,133.705,0,0,1-2.913,14.521c-4.345,14.79-8.451,28.763,1.035,50.47,2.837,6.507,3.817,15.738-10.41,34.842l-4.3,5.745c-20.078,26.716-32.092,44.2-29.65,61.651,2.863,21.433,22.149,28.717,30.869,31.615-.284.685-.6,1.426-.974,2.233l-.726,1.548c-2.6,5.476-9.841,20.743.233,35.979a30.979,30.979,0,0,0-1.112,10.1l.015.376c-.193,10.181,5.309,16.755,8.6,20.682.619.736,1.426,1.705,1.792,2.238a8.966,8.966,0,0,1-.228,1.3c-3.2,13.13-6.9,37.736,4.268,55a35.32,35.32,0,0,0,23.464,15.7c24.484,4.5,42.613,2.726,57.2,1.3l.2-.02a166.724,166.724,0,0,1,18.85-1.157c5.918.091,10.5,3.639,11.049,5.009,4.02,12.42,7.9,34.051,5.588,54.15-1.447,12.643-3.162,16.388-7.6,25.26L230.3,638.65a11.369,11.369,0,0,0,18.266,13.541l7.126-9.608.447-.888c5.207-10.4,8.349-16.688,10.3-33.731,2.726-23.707-1.822-49.155-6.557-63.773-3.786-11.577-17.677-20.48-32.294-20.708a184.9,184.9,0,0,0-21.439,1.264l-.218.02c-14.511,1.416-29.524,2.888-50.856-1.035a12.306,12.306,0,0,1-8.491-5.7c-5.542-8.562-4.289-24.86-1.259-37.294,3-12.475-2.335-18.845-6.228-23.489-2.264-2.7-3.324-4.142-3.3-5.588.015-.528,0-1.056-.02-1.584l-11.359.447,11.354-.6c-.1-2.6.315-3.385.914-4.2l5.827-7.973-7.08-6.887c-5.121-4.984-4.436-9.09-.944-16.46l.8-1.7c5.309-11.648,6.446-19.525,3.583-24.8l-1.426-2.629L134.9,383.69a21.43,21.43,0,0,0-5.791-2.233c-.4-.117-1.447-.421-2.015-.65-.787-.31-1.761-.634-2.857-.995l-.325-.107c-9.567-3.126-15.688-6.456-16.627-13.48-1.325-9.486,13.44-29.128,25.311-44.927l4.334-5.786c10.323-13.861,22.905-34.908,13.028-57.55-6.177-14.135-4.131-21.1-.056-34.975a150.3,150.3,0,0,0,3.517-17.16c.492-2.929,1.02-6.106,1.66-9.567,4.512-24.423,18.967-69.787,65.117-99.229,36.9-23.545,84.338-32.615,153.8-29.386q8.725.411,17.378,1.578c-29.224,14.567-54.855,35.015-73.645,59.733-30.823,40.624-47.669,111.69-39.192,165.311,8.374,52.942,39.112,113.918,57.26,138.467,15.749,21.255,23.358,36.482,23.936,47.917,2.238,43.679-7.5,86.212-34.711,151.46l-4.558,7.085a11.37,11.37,0,0,0,19.124,12.3l5.644-8.77.386-.924c28.939-69.2,39.264-114.7,36.828-162.309-.832-16.332-9.582-34.929-28.366-60.285-16.805-22.733-45.293-79.293-53.079-128.49-7.618-48.155,7.364-111.786,34.842-148,22.464-29.549,56.007-52.282,93.646-64.707,37.64,12.425,71.177,35.153,93.641,64.7,27.483,36.223,42.461,99.854,34.847,148C550.2,339.912,521.7,396.473,504.908,419.2c-18.794,25.366-27.549,43.963-28.377,60.29-2.436,47.6,7.887,93.108,36.828,162.309l.386.924,5.644,8.775a11.37,11.37,0,0,0,19.125-12.3l-4.558-7.085c-27.209-65.245-36.95-107.776-34.711-151.46.584-11.43,8.187-26.657,23.946-47.922,18.14-24.54,48.876-85.51,57.25-138.454,8.481-53.612-8.369-124.678-39.2-165.311C522.453,104.246,496.827,83.8,467.6,69.236c5.761-.766,11.557-1.3,17.373-1.578,69.457-3.228,116.892,5.842,153.8,29.386,46.151,29.447,60.606,74.811,65.117,99.235.639,3.456,1.172,6.634,1.66,9.562a150.384,150.384,0,0,0,3.522,17.186c4.07,13.861,6.116,20.819-.066,34.964-9.872,22.631,2.71,43.679,13.054,57.571l4.324,5.771c11.861,15.784,26.625,35.432,25.291,44.983-.929,6.953-7.045,10.288-16.612,13.409l-.325.107c-1.1.355-2.076.685-2.913,1.015-.513.208-1.563.513-2.025.65a21.17,21.17,0,0,0-5.74,2.223l-2.619,1.639-1.426,2.736c-2.751,5.273-1.584,13.1,3.725,24.748l.766,1.629c3.472,7.324,4.157,11.43-.964,16.414l-7.08,6.887,5.827,7.973c.6.817,1.015,1.6.914,4.2l-.005.152c-.02.543-.036,1.086-.02,1.513.03,1.518-1.035,2.954-3.294,5.654-3.893,4.649-9.227,11.019-6.223,23.529,3.02,12.4,4.274,28.7-1.269,37.259a12.3,12.3,0,0,1-8.481,5.695c-21.342,3.923-36.351,2.451-50.876,1.035l-.208-.02a184.938,184.938,0,0,0-21.413-1.264c-14.633.228-28.524,9.136-32.325,20.743-4.725,14.587-9.273,40.034-6.547,63.732,1.949,17.048,5.091,23.332,10.3,33.742l.447.888,7.126,9.608a11.369,11.369,0,0,0,18.266-13.541l-5.943-8.009c-4.436-8.872-6.151-12.617-7.6-25.265-2.309-20.089,1.568-41.719,5.573-54.089.568-1.426,5.151-4.969,11.085-5.065a167.594,167.594,0,0,1,18.824,1.157l.223.02c14.567,1.421,32.7,3.192,57.2-1.3a35.324,35.324,0,0,0,23.454-15.7c11.166-17.256,7.466-41.862,4.279-54.962a9.542,9.542,0,0,1-.239-1.34c.365-.538,1.172-1.5,1.792-2.243,3.269-3.908,8.73-10.43,8.593-20.647l.015-.386a31.056,31.056,0,0,0-1.112-10.12c10.075-15.237,2.832-30.5.249-35.944l-.69-1.467q-.586-1.279-1.025-2.35c8.709-2.888,28-10.166,30.853-31.543,2.441-17.535-9.572-35.02-29.64-61.722Z" transform="translate(-65.82 -44.301)" stroke="#000" stroke-width="5"/>
      <g id="Group_1602" data-name="Group 1602" transform="translate(0.203 686.09)">
        <path id="Path_56190" data-name="Path 56190" d="M4.671.932a3.7,3.7,0,0,1-.771.284,3.266,3.266,0,0,1-.812.1A2.916,2.916,0,0,1,1.017.607,2.612,2.612,0,0,1,.266-1.362a2.582,2.582,0,0,1,.751-1.969,2.882,2.882,0,0,1,2.071-.731,3.266,3.266,0,0,1,.812.1,4.006,4.006,0,0,1,.771.284V-2.6a3.074,3.074,0,0,0-.731-.365,2.264,2.264,0,0,0-.751-.122,1.466,1.466,0,0,0-1.137.467,1.8,1.8,0,0,0-.406,1.259A1.832,1.832,0,0,0,2.052-.1,1.487,1.487,0,0,0,3.189.343a2.56,2.56,0,0,0,.751-.1,2.681,2.681,0,0,0,.731-.386Z" transform="translate(-0.266 4.062)"/>
      </g>
      <g id="Group_1603" data-name="Group 1603" transform="translate(5.659 687.389)">
        <path id="Path_56191" data-name="Path 56191" d="M3.356-1.905a2.33,2.33,0,0,0-.325-.122,1.459,1.459,0,0,0-.325-.041.918.918,0,0,0-.751.325,1.375,1.375,0,0,0-.244.873V.917H.453V-2.961H1.712v.629A1.412,1.412,0,0,1,2.24-2.88a1.5,1.5,0,0,1,.751-.183h.142a1.938,1.938,0,0,1,.2.02Z" transform="translate(-0.453 3.063)"/>
      </g>
      <g id="Group_1604" data-name="Group 1604" transform="translate(8.882 687.389)">
        <path id="Path_56192" data-name="Path 56192" d="M4.4-1.032v.345h-2.9a1,1,0,0,0,.325.67,1.193,1.193,0,0,0,.751.2,3.208,3.208,0,0,0,.812-.1,4.043,4.043,0,0,0,.832-.365V.673A3.92,3.92,0,0,1,3.34.937a5.223,5.223,0,0,1-.873.081A2.355,2.355,0,0,1,.823.49,1.966,1.966,0,0,1,.234-1.032,1.961,1.961,0,0,1,.8-2.514a2.226,2.226,0,0,1,1.584-.548,1.975,1.975,0,0,1,1.462.548A2.008,2.008,0,0,1,4.4-1.032ZM3.138-1.459a.715.715,0,0,0-.223-.548.694.694,0,0,0-.528-.223.854.854,0,0,0-.589.2.938.938,0,0,0-.284.568Z" transform="translate(-0.234 3.063)"/>
      </g>
      <g id="Group_1605" data-name="Group 1605" transform="translate(13.699 687.389)">
        <path id="Path_56193" data-name="Path 56193" d="M2.265-.829a1.038,1.038,0,0,0-.589.142A.434.434,0,0,0,1.493-.3a.478.478,0,0,0,.142.365.719.719,0,0,0,.447.122.8.8,0,0,0,.589-.244.849.849,0,0,0,.244-.629V-.829ZM4.173-1.3V.917H2.914V.348a1.528,1.528,0,0,1-.568.508,1.611,1.611,0,0,1-.751.162A1.414,1.414,0,0,1,.6.673,1.24,1.24,0,0,1,.234-.241,1.149,1.149,0,0,1,.7-1.256a2.66,2.66,0,0,1,1.482-.325h.731v-.081a.436.436,0,0,0-.244-.426A1.408,1.408,0,0,0,1.96-2.23a3.441,3.441,0,0,0-.751.081,3.054,3.054,0,0,0-.629.223V-2.86A5.6,5.6,0,0,1,1.371-3a5.416,5.416,0,0,1,.812-.061,2.237,2.237,0,0,1,1.523.426A1.708,1.708,0,0,1,4.173-1.3Z" transform="translate(-0.234 3.063)"/>
      </g>
      <g id="Group_1606" data-name="Group 1606" transform="translate(18.292 686.374)">
        <path id="Path_56194" data-name="Path 56194" d="M1.926-3.844v1.117H3.2v.873H1.926V-.19a.492.492,0,0,0,.1.365.844.844,0,0,0,.447.081H3.1V1.15H2.047A1.466,1.466,0,0,1,.992.846,1.434,1.434,0,0,1,.687-.19V-1.854H.078v-.873H.687V-3.844Z" transform="translate(-0.078 3.844)"/>
      </g>
      <g id="Group_1607" data-name="Group 1607" transform="translate(21.89 687.389)">
        <path id="Path_56195" data-name="Path 56195" d="M4.4-1.032v.345h-2.9a1,1,0,0,0,.325.67,1.193,1.193,0,0,0,.751.2,3.208,3.208,0,0,0,.812-.1,4.043,4.043,0,0,0,.832-.365V.673A3.92,3.92,0,0,1,3.34.937a5.223,5.223,0,0,1-.873.081A2.355,2.355,0,0,1,.823.49,1.966,1.966,0,0,1,.234-1.032,1.961,1.961,0,0,1,.8-2.514a2.226,2.226,0,0,1,1.584-.548,1.975,1.975,0,0,1,1.462.548A2.008,2.008,0,0,1,4.4-1.032ZM3.138-1.459a.715.715,0,0,0-.223-.548.694.694,0,0,0-.528-.223.854.854,0,0,0-.589.2.938.938,0,0,0-.284.568Z" transform="translate(-0.234 3.063)"/>
      </g>
      <g id="Group_1608" data-name="Group 1608" transform="translate(26.732 685.968)">
        <path id="Path_56196" data-name="Path 56196" d="M3.173-2.065V-4.156H4.412v5.4H3.173V.675a1.749,1.749,0,0,1-.568.508,1.513,1.513,0,0,1-.711.162A1.474,1.474,0,0,1,.7.777,2.312,2.312,0,0,1,.25-.705,2.292,2.292,0,0,1,.7-2.167a1.488,1.488,0,0,1,1.2-.568,1.473,1.473,0,0,1,.69.162,1.821,1.821,0,0,1,.589.508ZM2.341.452A.7.7,0,0,0,2.95.168,1.468,1.468,0,0,0,3.173-.7a1.344,1.344,0,0,0-.223-.832.687.687,0,0,0-.609-.3.711.711,0,0,0-.609.3,1.42,1.42,0,0,0-.2.832,1.553,1.553,0,0,0,.2.873A.72.72,0,0,0,2.341.452Z" transform="translate(-0.25 4.156)"/>
      </g>
      <g id="Group_1609" data-name="Group 1609" transform="translate(34.553 685.968)">
        <path id="Path_56197" data-name="Path 56197" d="M2.524.452A.7.7,0,0,0,3.133.168,1.468,1.468,0,0,0,3.356-.7a1.344,1.344,0,0,0-.223-.832.687.687,0,0,0-.609-.3.711.711,0,0,0-.609.3,1.42,1.42,0,0,0-.2.832,1.553,1.553,0,0,0,.2.873A.72.72,0,0,0,2.524.452ZM1.712-2.065a1.66,1.66,0,0,1,.548-.508,1.613,1.613,0,0,1,.731-.162,1.478,1.478,0,0,1,1.177.568A2.243,2.243,0,0,1,4.635-.7,2.262,2.262,0,0,1,4.168.777a1.463,1.463,0,0,1-1.177.568,1.613,1.613,0,0,1-.731-.162A1.559,1.559,0,0,1,1.712.676v.568H.453v-5.4H1.712Z" transform="translate(-0.453 4.156)"/>
      </g>
      <g id="Group_1610" data-name="Group 1610" transform="translate(39.137 687.49)">
        <path id="Path_56198" data-name="Path 56198" d="M.063-2.984H1.3L2.357-.366,3.25-2.984H4.488L2.844,1.259a2.175,2.175,0,0,1-.568.914,1.366,1.366,0,0,1-.873.264H.692V1.6h.386a.849.849,0,0,0,.467-.1.716.716,0,0,0,.223-.345l.041-.122Z" transform="translate(-0.063 2.984)"/>
      </g>
      <g id="Group_1611" data-name="Group 1611" transform="translate(46.75 687.389)">
        <path id="Path_56199" data-name="Path 56199" d="M3.356-1.905a2.33,2.33,0,0,0-.325-.122,1.459,1.459,0,0,0-.325-.041.918.918,0,0,0-.751.325,1.375,1.375,0,0,0-.244.873V.917H.453V-2.961H1.712v.629A1.412,1.412,0,0,1,2.24-2.88a1.5,1.5,0,0,1,.751-.183h.142a1.938,1.938,0,0,1,.2.02Z" transform="translate(-0.453 3.063)"/>
      </g>
      <g id="Group_1612" data-name="Group 1612" transform="translate(49.968 687.389)">
        <path id="Path_56200" data-name="Path 56200" d="M2.265-.829a1.038,1.038,0,0,0-.589.142A.434.434,0,0,0,1.493-.3a.478.478,0,0,0,.142.365.719.719,0,0,0,.447.122.8.8,0,0,0,.589-.244.849.849,0,0,0,.244-.629V-.829ZM4.173-1.3V.917H2.914V.348a1.528,1.528,0,0,1-.568.508,1.611,1.611,0,0,1-.751.162A1.414,1.414,0,0,1,.6.673,1.24,1.24,0,0,1,.234-.241,1.149,1.149,0,0,1,.7-1.256a2.66,2.66,0,0,1,1.482-.325h.731v-.081a.436.436,0,0,0-.244-.426A1.408,1.408,0,0,0,1.96-2.23a3.441,3.441,0,0,0-.751.081,3.054,3.054,0,0,0-.629.223V-2.86A5.6,5.6,0,0,1,1.371-3a5.416,5.416,0,0,1,.812-.061,2.237,2.237,0,0,1,1.523.426A1.708,1.708,0,0,1,4.173-1.3Z" transform="translate(-0.234 3.063)"/>
      </g>
      <g id="Group_1613" data-name="Group 1613" transform="translate(54.215 685.968)">
        <path id="Path_56201" data-name="Path 56201" d="M.645-2.634H1.9V1.183a1.67,1.67,0,0,1-.386,1.177,1.341,1.341,0,0,1-1.076.426H-.188V1.955H.036A.562.562,0,0,0,.5,1.792a.93.93,0,0,0,.142-.609Zm0-1.523H1.9v1.015H.645Z" transform="translate(0.188 4.156)"/>
      </g>
      <g id="Group_1614" data-name="Group 1614" transform="translate(57.199 687.389)">
        <path id="Path_56202" data-name="Path 56202" d="M4.4-1.032v.345h-2.9a1,1,0,0,0,.325.67,1.193,1.193,0,0,0,.751.2,3.208,3.208,0,0,0,.812-.1,4.043,4.043,0,0,0,.832-.365V.673A3.92,3.92,0,0,1,3.34.937a5.223,5.223,0,0,1-.873.081A2.355,2.355,0,0,1,.823.49,1.966,1.966,0,0,1,.234-1.032,1.961,1.961,0,0,1,.8-2.514a2.226,2.226,0,0,1,1.584-.548,1.975,1.975,0,0,1,1.462.548A2.008,2.008,0,0,1,4.4-1.032ZM3.138-1.459a.715.715,0,0,0-.223-.548.694.694,0,0,0-.528-.223.854.854,0,0,0-.589.2.938.938,0,0,0-.284.568Z" transform="translate(-0.234 3.063)"/>
      </g>
      <g id="Group_1615" data-name="Group 1615" transform="translate(62.077 687.389)">
        <path id="Path_56203" data-name="Path 56203" d="M3.55-2.839v.934a5.56,5.56,0,0,0-.771-.244,3.509,3.509,0,0,0-.711-.081,1.4,1.4,0,0,0-.528.081.271.271,0,0,0-.162.264.266.266,0,0,0,.122.244,1.277,1.277,0,0,0,.487.122l.2.02a2.575,2.575,0,0,1,1.279.406,1.037,1.037,0,0,1,.345.873,1.068,1.068,0,0,1-.467.934,2.442,2.442,0,0,1-1.36.3A5.731,5.731,0,0,1,1.175.957,6.464,6.464,0,0,1,.342.775V-.159A4.4,4.4,0,0,0,1.093.1a3.971,3.971,0,0,0,.812.081,1.12,1.12,0,0,0,.548-.1A.311.311,0,0,0,2.636-.2a.289.289,0,0,0-.142-.264,1.361,1.361,0,0,0-.487-.122l-.223-.02A2.273,2.273,0,0,1,.606-.992a1.063,1.063,0,0,1-.325-.853,1.025,1.025,0,0,1,.426-.914,2.241,2.241,0,0,1,1.3-.3A4.336,4.336,0,0,1,2.717-3a5.831,5.831,0,0,1,.832.162Z" transform="translate(-0.281 3.062)"/>
      </g>
      <g id="Group_1616" data-name="Group 1616" transform="translate(66.528 685.968)">
        <path id="Path_56204" data-name="Path 56204" d="M4.371-1.131V1.244H3.113V-.563c0-.335-.01-.568-.02-.69a.634.634,0,0,0-.081-.284.4.4,0,0,0-.2-.183A.5.5,0,0,0,2.544-1.8a.729.729,0,0,0-.629.3,1.475,1.475,0,0,0-.2.832V1.244H.453v-5.4H1.712v2.091A1.723,1.723,0,0,1,2.3-2.573a1.534,1.534,0,0,1,.69-.162,1.234,1.234,0,0,1,1.015.426,1.713,1.713,0,0,1,.365,1.177Z" transform="translate(-0.453 4.156)"/>
      </g>
      <g id="Group_1617" data-name="Group 1617" transform="translate(0 693.074)">
        <path id="Path_56205" data-name="Path 56205" d="M3.114-4.156v.812h-.67a.605.605,0,0,0-.386.1.438.438,0,0,0-.1.325v.284H3.033v.873H1.957v3H.718v-3H.109v-.873H.718v-.284a1.175,1.175,0,0,1,.345-.934,1.715,1.715,0,0,1,1.117-.3Z" transform="translate(-0.109 4.156)"/>
      </g>
      <g id="Group_1618" data-name="Group 1618" transform="translate(3.538 694.495)">
        <path id="Path_56206" data-name="Path 56206" d="M3.356-1.905a2.33,2.33,0,0,0-.325-.122,1.459,1.459,0,0,0-.325-.041.918.918,0,0,0-.751.325,1.375,1.375,0,0,0-.244.873V.917H.453V-2.961H1.712v.629A1.412,1.412,0,0,1,2.24-2.88a1.5,1.5,0,0,1,.751-.183h.142a1.938,1.938,0,0,1,.2.02Z" transform="translate(-0.453 3.063)"/>
      </g>
      <g id="Group_1619" data-name="Group 1619" transform="translate(6.76 694.495)">
        <path id="Path_56207" data-name="Path 56207" d="M2.366-2.169a.729.729,0,0,0-.629.3,1.42,1.42,0,0,0-.2.832,1.553,1.553,0,0,0,.2.873.739.739,0,0,0,.629.284A.752.752,0,0,0,3-.159a1.468,1.468,0,0,0,.223-.873A1.344,1.344,0,0,0,3-1.865.741.741,0,0,0,2.366-2.169Zm0-.893a2.117,2.117,0,0,1,1.563.548A1.942,1.942,0,0,1,4.5-1.032,2.029,2.029,0,0,1,3.929.49a2.152,2.152,0,0,1-1.563.528A2.184,2.184,0,0,1,.8.49,2.01,2.01,0,0,1,.234-1.032,1.924,1.924,0,0,1,.8-2.514,2.15,2.15,0,0,1,2.366-3.062Z" transform="translate(-0.234 3.063)"/>
      </g>
      <g id="Group_1620" data-name="Group 1620" transform="translate(11.922 694.495)">
        <path id="Path_56208" data-name="Path 56208" d="M4.067-2.332a1.554,1.554,0,0,1,.548-.528,1.363,1.363,0,0,1,.731-.2,1.212,1.212,0,0,1,.995.426,1.713,1.713,0,0,1,.365,1.177V.917H5.447v-2.03a.213.213,0,0,0,.02-.081v-.142a1.141,1.141,0,0,0-.122-.609.434.434,0,0,0-.386-.183.642.642,0,0,0-.568.3,1.558,1.558,0,0,0-.183.832V.917H2.95v-2.03a1.781,1.781,0,0,0-.122-.832.407.407,0,0,0-.386-.183.62.62,0,0,0-.548.3,1.558,1.558,0,0,0-.183.832V.917H.453V-2.961H1.712v.568A1.513,1.513,0,0,1,2.219-2.9a1.421,1.421,0,0,1,.67-.162,1.282,1.282,0,0,1,.711.2,1.216,1.216,0,0,1,.467.528Z" transform="translate(-0.453 3.063)"/>
      </g>
      <g id="Group_1621" data-name="Group 1621" transform="translate(21.317 693.48)">
        <path id="Path_56209" data-name="Path 56209" d="M1.926-3.844v1.117H3.2v.873H1.926V-.19a.492.492,0,0,0,.1.365.844.844,0,0,0,.447.081H3.1V1.15H2.047A1.466,1.466,0,0,1,.992.846,1.434,1.434,0,0,1,.687-.19V-1.854H.078v-.873H.687V-3.844Z" transform="translate(-0.078 3.844)"/>
      </g>
      <g id="Group_1622" data-name="Group 1622" transform="translate(25.199 693.074)">
        <path id="Path_56210" data-name="Path 56210" d="M4.371-1.131V1.244H3.113V-.563c0-.335-.01-.568-.02-.69a.634.634,0,0,0-.081-.284.4.4,0,0,0-.2-.183A.5.5,0,0,0,2.544-1.8a.729.729,0,0,0-.629.3,1.475,1.475,0,0,0-.2.832V1.244H.453v-5.4H1.712v2.091A1.723,1.723,0,0,1,2.3-2.573a1.534,1.534,0,0,1,.69-.162,1.234,1.234,0,0,1,1.015.426,1.713,1.713,0,0,1,.365,1.177Z" transform="translate(-0.453 4.156)"/>
      </g>
      <g id="Group_1623" data-name="Group 1623" transform="translate(29.97 694.495)">
        <path id="Path_56211" data-name="Path 56211" d="M4.4-1.032v.345h-2.9a1,1,0,0,0,.325.67,1.193,1.193,0,0,0,.751.2,3.208,3.208,0,0,0,.812-.1,4.043,4.043,0,0,0,.832-.365V.673A3.92,3.92,0,0,1,3.34.937a5.223,5.223,0,0,1-.873.081A2.355,2.355,0,0,1,.823.49,1.966,1.966,0,0,1,.234-1.032,1.961,1.961,0,0,1,.8-2.514a2.226,2.226,0,0,1,1.584-.548,1.975,1.975,0,0,1,1.462.548A2.008,2.008,0,0,1,4.4-1.032ZM3.138-1.459a.715.715,0,0,0-.223-.548.694.694,0,0,0-.528-.223.854.854,0,0,0-.589.2.938.938,0,0,0-.284.568Z" transform="translate(-0.234 3.063)"/>
      </g>
      <g id="Group_1624" data-name="Group 1624" transform="translate(37.609 693.297)">
        <path id="Path_56212" data-name="Path 56212" d="M.5-3.984H2L3.87-.432V-3.984H5.149V1.193h-1.5L1.779-2.36V1.193H.5Z" transform="translate(-0.5 3.984)"/>
      </g>
      <g id="Group_1625" data-name="Group 1625" transform="translate(43.212 694.495)">
        <path id="Path_56213" data-name="Path 56213" d="M2.366-2.169a.729.729,0,0,0-.629.3,1.42,1.42,0,0,0-.2.832,1.553,1.553,0,0,0,.2.873.739.739,0,0,0,.629.284A.752.752,0,0,0,3-.159a1.468,1.468,0,0,0,.223-.873A1.344,1.344,0,0,0,3-1.865.741.741,0,0,0,2.366-2.169Zm0-.893a2.117,2.117,0,0,1,1.563.548A1.942,1.942,0,0,1,4.5-1.032,2.029,2.029,0,0,1,3.929.49a2.152,2.152,0,0,1-1.563.528A2.184,2.184,0,0,1,.8.49,2.01,2.01,0,0,1,.234-1.032,1.924,1.924,0,0,1,.8-2.514,2.15,2.15,0,0,1,2.366-3.062Z" transform="translate(-0.234 3.063)"/>
      </g>
      <g id="Group_1626" data-name="Group 1626" transform="translate(48.339 694.596)">
        <path id="Path_56214" data-name="Path 56214" d="M.422-.629V-2.984H1.681v1.807c0,.315.005.543.02.69A.541.541,0,0,0,1.782-.2a.646.646,0,0,0,.2.2.618.618,0,0,0,.284.061.723.723,0,0,0,.609-.3A1.386,1.386,0,0,0,3.1-1.076V-2.984H4.34V.893H3.1V.325a1.91,1.91,0,0,1-.609.508A1.473,1.473,0,0,1,1.8.995,1.31,1.31,0,0,1,.767.589,1.873,1.873,0,0,1,.422-.629Z" transform="translate(-0.422 2.984)"/>
      </g>
      <g id="Group_1627" data-name="Group 1627" transform="translate(53.439 694.495)">
        <path id="Path_56215" data-name="Path 56215" d="M4.371-1.459V.917H3.113V-.89c0-.335-.01-.568-.02-.69a.634.634,0,0,0-.081-.284.4.4,0,0,0-.2-.183.5.5,0,0,0-.264-.081.729.729,0,0,0-.629.3,1.475,1.475,0,0,0-.2.832V.917H.453V-2.961H1.712v.568A1.723,1.723,0,0,1,2.3-2.9a1.534,1.534,0,0,1,.69-.162,1.234,1.234,0,0,1,1.015.426,1.713,1.713,0,0,1,.365,1.177Z" transform="translate(-0.453 3.062)"/>
      </g>
      <g id="Group_1628" data-name="Group 1628" transform="translate(61.032 693.297)">
        <path id="Path_56216" data-name="Path 56216" d="M.5-3.984H2.713a2.328,2.328,0,0,1,1.523.447A1.508,1.508,0,0,1,4.763-2.3a1.557,1.557,0,0,1-.528,1.259,2.386,2.386,0,0,1-1.523.426H1.84V1.192H.5Zm1.34.974v1.441h.731a.861.861,0,0,0,.589-.183A.7.7,0,0,0,3.383-2.3a.65.65,0,0,0-.223-.528.861.861,0,0,0-.589-.183Z" transform="translate(-0.5 3.984)"/>
      </g>
      <g id="Group_1629" data-name="Group 1629" transform="translate(66.179 694.495)">
        <path id="Path_56217" data-name="Path 56217" d="M3.356-1.905a2.33,2.33,0,0,0-.325-.122,1.459,1.459,0,0,0-.325-.041.918.918,0,0,0-.751.325,1.375,1.375,0,0,0-.244.873V.917H.453V-2.961H1.712v.629A1.412,1.412,0,0,1,2.24-2.88a1.5,1.5,0,0,1,.751-.183h.142a1.938,1.938,0,0,1,.2.02Z" transform="translate(-0.453 3.063)"/>
      </g>
      <g id="Group_1630" data-name="Group 1630" transform="translate(69.396 694.495)">
        <path id="Path_56218" data-name="Path 56218" d="M2.366-2.169a.729.729,0,0,0-.629.3,1.42,1.42,0,0,0-.2.832,1.553,1.553,0,0,0,.2.873.739.739,0,0,0,.629.284A.752.752,0,0,0,3-.159a1.468,1.468,0,0,0,.223-.873A1.344,1.344,0,0,0,3-1.865.741.741,0,0,0,2.366-2.169Zm0-.893a2.117,2.117,0,0,1,1.563.548A1.942,1.942,0,0,1,4.5-1.032,2.029,2.029,0,0,1,3.929.49a2.152,2.152,0,0,1-1.563.528A2.184,2.184,0,0,1,.8.49,2.01,2.01,0,0,1,.234-1.032,1.924,1.924,0,0,1,.8-2.514,2.15,2.15,0,0,1,2.366-3.062Z" transform="translate(-0.234 3.063)"/>
      </g>
      <g id="Group_1631" data-name="Group 1631" transform="translate(73.731 693.074)">
        <path id="Path_56219" data-name="Path 56219" d="M.645-2.634H1.9V1.183a1.67,1.67,0,0,1-.386,1.177,1.341,1.341,0,0,1-1.076.426H-.188V1.955H.036A.562.562,0,0,0,.5,1.792a.93.93,0,0,0,.142-.609Zm0-1.523H1.9v1.015H.645Z" transform="translate(0.188 4.156)"/>
      </g>
      <g id="Group_1632" data-name="Group 1632" transform="translate(76.715 694.495)">
        <path id="Path_56220" data-name="Path 56220" d="M4.4-1.032v.345h-2.9a1,1,0,0,0,.325.67,1.193,1.193,0,0,0,.751.2,3.208,3.208,0,0,0,.812-.1,4.043,4.043,0,0,0,.832-.365V.673A3.92,3.92,0,0,1,3.34.937a5.223,5.223,0,0,1-.873.081A2.355,2.355,0,0,1,.823.49,1.966,1.966,0,0,1,.234-1.032,1.961,1.961,0,0,1,.8-2.514a2.226,2.226,0,0,1,1.584-.548,1.975,1.975,0,0,1,1.462.548A2.008,2.008,0,0,1,4.4-1.032ZM3.138-1.459a.715.715,0,0,0-.223-.548.694.694,0,0,0-.528-.223.854.854,0,0,0-.589.2.938.938,0,0,0-.284.568Z" transform="translate(-0.234 3.063)"/>
      </g>
      <g id="Group_1633" data-name="Group 1633" transform="translate(81.532 694.495)">
        <path id="Path_56221" data-name="Path 56221" d="M3.665-2.839v.995a2.116,2.116,0,0,0-.508-.244,1.934,1.934,0,0,0-.528-.081,1.049,1.049,0,0,0-.812.3,1.159,1.159,0,0,0-.284.832,1.187,1.187,0,0,0,.284.853,1.049,1.049,0,0,0,.812.3A1.815,1.815,0,0,0,3.178.044,1.432,1.432,0,0,0,3.665-.22V.795a2.418,2.418,0,0,1-.589.162,3.1,3.1,0,0,1-.609.061A2.355,2.355,0,0,1,.823.49,1.966,1.966,0,0,1,.234-1.032,1.883,1.883,0,0,1,.823-2.514a2.315,2.315,0,0,1,1.644-.548A3.1,3.1,0,0,1,3.077-3a2.418,2.418,0,0,1,.589.162Z" transform="translate(-0.234 3.062)"/>
      </g>
      <g id="Group_1634" data-name="Group 1634" transform="translate(85.541 693.48)">
        <path id="Path_56222" data-name="Path 56222" d="M1.926-3.844v1.117H3.2v.873H1.926V-.19a.492.492,0,0,0,.1.365.844.844,0,0,0,.447.081H3.1V1.15H2.047A1.466,1.466,0,0,1,.992.846,1.434,1.434,0,0,1,.687-.19V-1.854H.078v-.873H.687V-3.844Z" transform="translate(-0.078 3.844)"/>
      </g>
    </g>
  </g>
</svg>
