<svg xmlns="http://www.w3.org/2000/svg" xmlns:xlink="http://www.w3.org/1999/xlink" width="550" height="391" viewBox="0 0 550 391">
  <defs>
    <clipPath id="clip-path">
      <rect id="Rectangle_8021" data-name="Rectangle 8021" width="550" height="391" transform="translate(5514 -769)" fill="#fff" stroke="#707070" stroke-width="1"/>
    </clipPath>
  </defs>
  <g id="Mask_Group_18" data-name="Mask Group 18" transform="translate(-5514 769)" clip-path="url(#clip-path)">
    <g id="noun-mouse-liver-with-tumors-4248207" transform="translate(5443.469 -847.782)">
      <path id="Path_55852" data-name="Path 55852" d="M388.08,463.29a145.543,145.543,0,0,1-26.992-2.742c-44.07-8.289-80.754-46.48-92.734-95.871-25.145,8.961-64.121,7.336-98.785-5.543-41.047-15.289-66.137-41.945-70.727-75.1-8.008-58.691,43.4-128.91,122.25-167.11,68.543-33.152,199.19-26.488,255.53,28.223,50.793,9.352,86.688,28.617,106.57,57.289,26.77,38.527,18.426,84.168,14,108.7l-.113.672c-12.824,70.449-65.465,99.566-106.62,103.1-15.68,1.344-25.426,9.969-36.734,20.047-15.176,13.438-31.977,28.336-65.633,28.336ZM278.71,359.91c10.414,46.258,44.016,82.039,84.449,89.656,47.207,8.9,65.465-7.336,83.16-23.016,11.7-10.414,23.855-21.168,43.23-22.793,37.238-3.191,84.9-29.68,96.543-93.91l.113-.672c4.144-22.9,11.93-65.574-12.152-100.3-16.406-23.633-45.3-40.375-86.016-49.84,14.449,22.121,21.168,54.039,18.2,88.816-4.031,47.1-24.3,87.809-54.152,108.92-31.641,22.344-74.312,31.863-111.44,24.863-22.457-4.258-40.992-14.391-52.977-28.785-.84.895-1.68,1.734-2.574,2.52a53.627,53.627,0,0,1-6.383,4.535Zm15.57-16.742c10.191,13.719,27.273,23.352,48.441,27.383,34.215,6.5,73.641-2.3,102.87-22.961,26.824-18.984,45.754-57.566,49.449-100.74,3.359-38.863-6.047-73.414-25.09-92.512C417.309,101.529,291.76,95.2,225.96,127.065c-74.648,36.066-123.43,101.47-116.03,155.46,5.32,38.977,42.055,58.184,63.5,66.137,38.977,14.5,86.688,13.719,104.16-1.68a28.713,28.713,0,0,0,9.07-16.352c2.91-19.6,3.023-37.352,3.078-51.633.055-12.543.168-22.512,1.961-29.9,4.031-16.688,14.672-23.07,23.238-23.406,9.352-.336,17.246,5.6,20.5,15.176,5.824,17.414-7.895,36.68-21.336,47.824-3.922,3.246-8.734,6.609-13.383,8.176a301.709,301.709,0,0,1-2.969,35.391,36.99,36.99,0,0,1-3.469,10.918Zm21.559-106.34H315.5c-4.48.168-10.246,4.2-12.824,14.84-1.512,6.16-1.566,15.961-1.625,27.328,0,1.734,0,3.527-.055,5.375a61.552,61.552,0,0,0,17.527-16.742c3.586-5.039,9.129-14.785,6.328-23.238-1.566-4.707-4.984-7.562-9.016-7.562Zm70.055,82.6a27.16,27.16,0,1,1,27.16-27.16A27.22,27.22,0,0,1,385.894,319.43Zm0-43.121a15.961,15.961,0,1,0,15.961,15.961A15.989,15.989,0,0,0,385.894,276.309Zm147.34,34.773a18.535,18.535,0,1,1,18.535-18.535A18.523,18.523,0,0,1,533.234,311.082Zm0-25.871a7.336,7.336,0,1,0,7.336,7.336A7.362,7.362,0,0,0,533.234,285.211Zm-296.35-71.176a19.6,19.6,0,1,1,19.6-19.6,19.624,19.624,0,0,1-19.6,19.6Zm0-28.055a8.4,8.4,0,1,0,8.4,8.4A8.388,8.388,0,0,0,236.884,185.98Z" stroke="#000" stroke-width="10"/>
      <g id="Group_1302" data-name="Group 1302" transform="translate(70 644)">
        <path id="Path_55853" data-name="Path 55853" d="M18.766-1.125A13.3,13.3,0,0,1,15.735,0a13.627,13.627,0,0,1-3.281.391A11.208,11.208,0,0,1,4.375-2.453a10.2,10.2,0,0,1-2.984-7.734,10.175,10.175,0,0,1,2.984-7.734,11.183,11.183,0,0,1,8.078-2.859,13.627,13.627,0,0,1,3.281.391,13.3,13.3,0,0,1,3.031,1.125v4.219A12.009,12.009,0,0,0,15.875-16.5a9.532,9.532,0,0,0-3-.469,5.61,5.61,0,0,0-4.422,1.813,7.181,7.181,0,0,0-1.609,4.969A7.208,7.208,0,0,0,8.454-5.219a5.626,5.626,0,0,0,4.422,1.8,9.754,9.754,0,0,0,3-.453,11.674,11.674,0,0,0,2.891-1.469Z"/>
      </g>
      <g id="Group_1303" data-name="Group 1303" transform="translate(90.551 644)">
        <path id="Path_55854" data-name="Path 55854" d="M13.734-11.141a6.765,6.765,0,0,0-1.3-.437,5.346,5.346,0,0,0-1.266-.156,3.566,3.566,0,0,0-2.906,1.219A5.2,5.2,0,0,0,7.25-7.063V0H2.359V-15.312H7.25V-12.8a6.217,6.217,0,0,1,2.156-2.187,5.829,5.829,0,0,1,2.938-.7,5.207,5.207,0,0,1,.531.031c.2.012.477.039.844.078Z"/>
      </g>
      <g id="Group_1304" data-name="Group 1304" transform="translate(104.359 644)">
        <path id="Path_55855" data-name="Path 55855" d="M17.641-7.7V-6.3H6.188a3.641,3.641,0,0,0,1.25,2.578,4.619,4.619,0,0,0,2.984.859,11.52,11.52,0,0,0,3.156-.453A16.707,16.707,0,0,0,16.907-4.7V-.938a20.629,20.629,0,0,1-3.469.984A18.006,18.006,0,0,1,9.969.391,9.241,9.241,0,0,1,3.5-1.719,7.635,7.635,0,0,1,1.2-7.641a7.713,7.713,0,0,1,2.266-5.891,8.645,8.645,0,0,1,6.219-2.156A7.79,7.79,0,0,1,15.469-13.5a7.851,7.851,0,0,1,2.172,5.8ZM12.61-9.328a3.1,3.1,0,0,0-.812-2.234,2.8,2.8,0,0,0-2.125-.859,3.335,3.335,0,0,0-2.312.8,3.665,3.665,0,0,0-1.109,2.3Z"/>
      </g>
      <g id="Group_1305" data-name="Group 1305" transform="translate(123.348 644)">
        <path id="Path_55856" data-name="Path 55856" d="M9.219-6.891a4.216,4.216,0,0,0-2.312.516,1.724,1.724,0,0,0-.766,1.531,1.817,1.817,0,0,0,.625,1.469,2.616,2.616,0,0,0,1.719.516,3.087,3.087,0,0,0,2.328-.984,3.463,3.463,0,0,0,.953-2.484v-.562Zm7.469-1.844V0H11.766V-2.266A6.323,6.323,0,0,1,9.547-.234a6.625,6.625,0,0,1-3,.625A5.441,5.441,0,0,1,2.687-.984,4.707,4.707,0,0,1,1.2-4.594,4.421,4.421,0,0,1,3.047-8.531Q4.9-9.8,8.875-9.8h2.891v-.391a1.81,1.81,0,0,0-.922-1.687,5.808,5.808,0,0,0-2.859-.547,13.157,13.157,0,0,0-2.937.313,10.134,10.134,0,0,0-2.5.938v-3.734a29.776,29.776,0,0,1,3.141-.578,25.681,25.681,0,0,1,3.188-.2q4.137,0,5.969,1.641t1.844,5.313Z"/>
      </g>
      <g id="Group_1306" data-name="Group 1306" transform="translate(142.242 644)">
        <path id="Path_55857" data-name="Path 55857" d="M7.7-19.656v4.344H12.75v3.5H7.7v6.5a1.89,1.89,0,0,0,.422,1.438A2.632,2.632,0,0,0,9.8-3.5h2.516V0H8.125Q5.219,0,4-1.2,2.793-2.422,2.8-5.312v-6.5H.375v-3.5H2.8v-4.344Z"/>
      </g>
      <g id="Group_1307" data-name="Group 1307" transform="translate(155.629 644)">
        <path id="Path_55858" data-name="Path 55858" d="M17.641-7.7V-6.3H6.188a3.641,3.641,0,0,0,1.25,2.578,4.619,4.619,0,0,0,2.984.859,11.52,11.52,0,0,0,3.156-.453A16.707,16.707,0,0,0,16.907-4.7V-.938a20.629,20.629,0,0,1-3.469.984A18.006,18.006,0,0,1,9.969.391,9.241,9.241,0,0,1,3.5-1.719,7.635,7.635,0,0,1,1.2-7.641a7.713,7.713,0,0,1,2.266-5.891,8.645,8.645,0,0,1,6.219-2.156A7.79,7.79,0,0,1,15.469-13.5a7.851,7.851,0,0,1,2.172,5.8ZM12.61-9.328a3.1,3.1,0,0,0-.812-2.234,2.8,2.8,0,0,0-2.125-.859,3.335,3.335,0,0,0-2.312.8,3.665,3.665,0,0,0-1.109,2.3Z"/>
      </g>
      <g id="Group_1308" data-name="Group 1308" transform="translate(174.617 644)">
        <path id="Path_55859" data-name="Path 55859" d="M12.766-13.078v-8.2h4.922V0H12.766V-2.219A6.444,6.444,0,0,1,10.547-.235,6.155,6.155,0,0,1,7.719.39,5.694,5.694,0,0,1,3.079-1.86,8.908,8.908,0,0,1,1.266-7.641a8.938,8.938,0,0,1,1.813-5.8,5.694,5.694,0,0,1,4.641-2.25,5.972,5.972,0,0,1,2.813.641,6.776,6.776,0,0,1,2.234,1.969ZM9.547-3.156A2.776,2.776,0,0,0,11.938-4.3a5.7,5.7,0,0,0,.828-3.344,5.639,5.639,0,0,0-.828-3.328,2.769,2.769,0,0,0-2.391-1.156,2.76,2.76,0,0,0-2.391,1.156,5.611,5.611,0,0,0-.828,3.328A5.673,5.673,0,0,0,7.157-4.3,2.766,2.766,0,0,0,9.547-3.156Z"/>
      </g>
      <g id="Group_1309" data-name="Group 1309" transform="translate(204.41 644)">
        <path id="Path_55860" data-name="Path 55860" d="M10.5-3.156A2.79,2.79,0,0,0,12.906-4.3a5.7,5.7,0,0,0,.828-3.344,5.639,5.639,0,0,0-.828-3.328A2.783,2.783,0,0,0,10.5-12.125a2.816,2.816,0,0,0-2.422,1.156A5.66,5.66,0,0,0,7.25-7.641a5.643,5.643,0,0,0,.828,3.328A2.807,2.807,0,0,0,10.5-3.156ZM7.25-13.078a6.934,6.934,0,0,1,2.234-1.969,6.059,6.059,0,0,1,2.828-.641,5.718,5.718,0,0,1,4.656,2.25,8.961,8.961,0,0,1,1.813,5.8,8.93,8.93,0,0,1-1.812,5.781A5.718,5.718,0,0,1,12.313.391,6.2,6.2,0,0,1,9.484-.234,6.766,6.766,0,0,1,7.25-2.219V0H2.359V-21.281H7.25Z"/>
      </g>
      <g id="Group_1310" data-name="Group 1310" transform="translate(224.453 644)">
        <path id="Path_55861" data-name="Path 55861" d="M.344-15.312H5.234L9.359-4.921l3.5-10.391H17.75L11.312,1.454A8.179,8.179,0,0,1,9.047,5.017,5.316,5.316,0,0,1,5.641,6.048H2.8V2.829H4.328a3.163,3.163,0,0,0,1.813-.406,2.555,2.555,0,0,0,.891-1.406L7.172.595Z"/>
      </g>
      <g id="Group_1311" data-name="Group 1311" transform="translate(252.453 644)">
        <path id="Path_55862" data-name="Path 55862" d="M2.578-20.406h5.25V-1.984q0,3.809-2.078,5.7Q3.688,5.606-.5,5.61H-1.578V1.625H-.75A3.2,3.2,0,0,0,1.734.7a3.816,3.816,0,0,0,.844-2.687Z"/>
      </g>
      <g id="Group_1312" data-name="Group 1312" transform="translate(262.867 644)">
        <path id="Path_55863" data-name="Path 55863" d="M2.188-5.969v-9.344H7.109v1.531c0,.836-.008,1.875-.016,3.125s-.016,2.086-.016,2.5a26.311,26.311,0,0,0,.094,2.672A3.08,3.08,0,0,0,7.5-4.313a2.154,2.154,0,0,0,.8.75,2.357,2.357,0,0,0,1.109.25,2.843,2.843,0,0,0,2.406-1.172,5.364,5.364,0,0,0,.875-3.266v-7.563h4.891V0H12.688V-2.219A7.694,7.694,0,0,1,10.344-.235,6,6,0,0,1,7.609.39,5,5,0,0,1,3.578-1.235,7.075,7.075,0,0,1,2.188-5.969Z"/>
      </g>
      <g id="Group_1313" data-name="Group 1313" transform="translate(282.805 644)">
        <path id="Path_55864" data-name="Path 55864" d="M2.359-21.281H7.25V0H2.359Z"/>
      </g>
      <g id="Group_1314" data-name="Group 1314" transform="translate(292.398 644)">
        <path id="Path_55865" data-name="Path 55865" d="M2.359-15.312H7.25V0H2.359Zm0-5.969H7.25v4H2.359Z"/>
      </g>
      <g id="Group_1315" data-name="Group 1315" transform="translate(302 644)">
        <path id="Path_55866" data-name="Path 55866" d="M17.641-7.7V-6.3H6.188a3.641,3.641,0,0,0,1.25,2.578,4.619,4.619,0,0,0,2.984.859,11.52,11.52,0,0,0,3.156-.453A16.707,16.707,0,0,0,16.907-4.7V-.938a20.629,20.629,0,0,1-3.469.984A18.006,18.006,0,0,1,9.969.391,9.241,9.241,0,0,1,3.5-1.719,7.635,7.635,0,0,1,1.2-7.641a7.713,7.713,0,0,1,2.266-5.891,8.645,8.645,0,0,1,6.219-2.156A7.79,7.79,0,0,1,15.469-13.5a7.851,7.851,0,0,1,2.172,5.8ZM12.61-9.328a3.1,3.1,0,0,0-.812-2.234,2.8,2.8,0,0,0-2.125-.859,3.335,3.335,0,0,0-2.312.8,3.665,3.665,0,0,0-1.109,2.3Z"/>
      </g>
      <g id="Group_1316" data-name="Group 1316" transform="translate(330.734 644)">
        <path id="Path_55867" data-name="Path 55867" d="M2.578-20.406h5.25v7.438l7.594-7.438h6.109L11.7-10.75,22.547,0H15.953L7.828-8.047V0H2.578Z"/>
      </g>
      <g id="Group_1317" data-name="Group 1317" transform="translate(352.434 644)">
        <path id="Path_55868" data-name="Path 55868" d="M9.641-12.188a2.885,2.885,0,0,0-2.484,1.172A5.637,5.637,0,0,0,6.3-7.641a5.636,5.636,0,0,0,.859,3.375A2.893,2.893,0,0,0,9.641-3.11a2.826,2.826,0,0,0,2.437-1.156,5.664,5.664,0,0,0,.859-3.375,5.664,5.664,0,0,0-.859-3.375A2.819,2.819,0,0,0,9.641-12.188Zm0-3.5a8.533,8.533,0,0,1,6.172,2.141,7.8,7.8,0,0,1,2.219,5.906,7.828,7.828,0,0,1-2.219,5.906A8.559,8.559,0,0,1,9.641.39a8.626,8.626,0,0,1-6.2-2.125A7.779,7.779,0,0,1,1.2-7.641a7.755,7.755,0,0,1,2.234-5.906A8.6,8.6,0,0,1,9.641-15.688Z"/>
      </g>
      <g id="Group_1318" data-name="Group 1318" transform="translate(70 672)">
        <path id="Path_55869" data-name="Path 55869" d="M12.422-21.281v3.219h-2.7a2.193,2.193,0,0,0-1.453.375,1.725,1.725,0,0,0-.406,1.313v1.062h4.187v3.5H7.86V0H2.969V-11.812H.531v-3.5H2.969v-1.062a4.635,4.635,0,0,1,1.391-3.7,6.508,6.508,0,0,1,4.328-1.2Z"/>
      </g>
      <g id="Group_1319" data-name="Group 1319" transform="translate(82.184 672)">
        <path id="Path_55870" data-name="Path 55870" d="M13.734-11.141a6.765,6.765,0,0,0-1.3-.437,5.346,5.346,0,0,0-1.266-.156,3.566,3.566,0,0,0-2.906,1.219A5.2,5.2,0,0,0,7.25-7.063V0H2.359V-15.312H7.25V-12.8a6.217,6.217,0,0,1,2.156-2.187,5.829,5.829,0,0,1,2.938-.7,5.207,5.207,0,0,1,.531.031c.2.012.477.039.844.078Z"/>
      </g>
      <g id="Group_1320" data-name="Group 1320" transform="translate(95.992 672)">
        <path id="Path_55871" data-name="Path 55871" d="M9.641-12.188a2.885,2.885,0,0,0-2.484,1.172A5.637,5.637,0,0,0,6.3-7.641a5.636,5.636,0,0,0,.859,3.375A2.893,2.893,0,0,0,9.641-3.11a2.826,2.826,0,0,0,2.437-1.156,5.664,5.664,0,0,0,.859-3.375,5.664,5.664,0,0,0-.859-3.375A2.819,2.819,0,0,0,9.641-12.188Zm0-3.5a8.533,8.533,0,0,1,6.172,2.141,7.8,7.8,0,0,1,2.219,5.906,7.828,7.828,0,0,1-2.219,5.906A8.559,8.559,0,0,1,9.641.39a8.626,8.626,0,0,1-6.2-2.125A7.779,7.779,0,0,1,1.2-7.641a7.755,7.755,0,0,1,2.234-5.906A8.6,8.6,0,0,1,9.641-15.688Z"/>
      </g>
      <g id="Group_1321" data-name="Group 1321" transform="translate(115.227 672)">
        <path id="Path_55872" data-name="Path 55872" d="M16.547-12.766a6.633,6.633,0,0,1,2.2-2.172,5.453,5.453,0,0,1,2.813-.75,4.948,4.948,0,0,1,4.016,1.641,7.079,7.079,0,0,1,1.391,4.719V0H22.047V-8.344c.008-.133.016-.32.016-.562a4.353,4.353,0,0,0-.484-2.344,1.683,1.683,0,0,0-1.531-.734,2.438,2.438,0,0,0-2.156,1.156,6,6,0,0,0-.781,3.312V0H12.188V-7.985a7.608,7.608,0,0,0-.437-3.266,1.67,1.67,0,0,0-1.562-.734,2.455,2.455,0,0,0-2.172,1.156,5.9,5.9,0,0,0-.766,3.3V0H2.328V-15.313H7.25v2.234a6.362,6.362,0,0,1,2.063-1.953,5.186,5.186,0,0,1,2.578-.656,5.2,5.2,0,0,1,2.813.766,4.822,4.822,0,0,1,1.844,2.156Z"/>
      </g>
      <g id="Group_1322" data-name="Group 1322" transform="translate(154.152 672)">
        <path id="Path_55873" data-name="Path 55873" d="M7.7-19.656v4.344H12.75v3.5H7.7v6.5a1.89,1.89,0,0,0,.422,1.438A2.632,2.632,0,0,0,9.8-3.5h2.516V0H8.125Q5.219,0,4-1.2,2.793-2.422,2.8-5.312v-6.5H.375v-3.5H2.8v-4.344Z"/>
      </g>
      <g id="Group_1323" data-name="Group 1323" transform="translate(167.535 672)">
        <path id="Path_55874" data-name="Path 55874" d="M17.75-9.328V0H12.828V-7.109a26.6,26.6,0,0,0-.094-2.766,2.94,2.94,0,0,0-.312-1.109,1.994,1.994,0,0,0-.781-.734,2.3,2.3,0,0,0-1.109-.266A2.827,2.827,0,0,0,8.125-10.8,5.345,5.345,0,0,0,7.25-7.531V0H2.359V-21.281H7.25v8.2a7.816,7.816,0,0,1,2.344-1.969,5.953,5.953,0,0,1,2.75-.641,4.965,4.965,0,0,1,4.031,1.641A7.142,7.142,0,0,1,17.75-9.328Z"/>
      </g>
      <g id="Group_1324" data-name="Group 1324" transform="translate(187.469 672)">
        <path id="Path_55875" data-name="Path 55875" d="M17.641-7.7V-6.3H6.188a3.641,3.641,0,0,0,1.25,2.578,4.619,4.619,0,0,0,2.984.859,11.52,11.52,0,0,0,3.156-.453A16.707,16.707,0,0,0,16.907-4.7V-.938a20.629,20.629,0,0,1-3.469.984A18.006,18.006,0,0,1,9.969.391,9.241,9.241,0,0,1,3.5-1.719,7.635,7.635,0,0,1,1.2-7.641a7.713,7.713,0,0,1,2.266-5.891,8.645,8.645,0,0,1,6.219-2.156A7.79,7.79,0,0,1,15.469-13.5a7.851,7.851,0,0,1,2.172,5.8ZM12.61-9.328a3.1,3.1,0,0,0-.812-2.234,2.8,2.8,0,0,0-2.125-.859,3.335,3.335,0,0,0-2.312.8,3.665,3.665,0,0,0-1.109,2.3Z"/>
      </g>
      <g id="Group_1325" data-name="Group 1325" transform="translate(216.207 672)">
        <path id="Path_55876" data-name="Path 55876" d="M2.578-20.406H8.453l7.422,14v-14h4.984V0H14.984L7.563-14V0H2.578Z"/>
      </g>
      <g id="Group_1326" data-name="Group 1326" transform="translate(239.641 672)">
        <path id="Path_55877" data-name="Path 55877" d="M9.641-12.188a2.885,2.885,0,0,0-2.484,1.172A5.637,5.637,0,0,0,6.3-7.641a5.636,5.636,0,0,0,.859,3.375A2.893,2.893,0,0,0,9.641-3.11a2.826,2.826,0,0,0,2.437-1.156,5.664,5.664,0,0,0,.859-3.375,5.664,5.664,0,0,0-.859-3.375A2.819,2.819,0,0,0,9.641-12.188Zm0-3.5a8.533,8.533,0,0,1,6.172,2.141,7.8,7.8,0,0,1,2.219,5.906,7.828,7.828,0,0,1-2.219,5.906A8.559,8.559,0,0,1,9.641.39a8.626,8.626,0,0,1-6.2-2.125A7.779,7.779,0,0,1,1.2-7.641a7.755,7.755,0,0,1,2.234-5.906A8.6,8.6,0,0,1,9.641-15.688Z"/>
      </g>
      <g id="Group_1327" data-name="Group 1327" transform="translate(258.879 672)">
        <path id="Path_55878" data-name="Path 55878" d="M2.188-5.969v-9.344H7.109v1.531c0,.836-.008,1.875-.016,3.125s-.016,2.086-.016,2.5a26.311,26.311,0,0,0,.094,2.672A3.08,3.08,0,0,0,7.5-4.313a2.154,2.154,0,0,0,.8.75,2.357,2.357,0,0,0,1.109.25,2.843,2.843,0,0,0,2.406-1.172,5.364,5.364,0,0,0,.875-3.266v-7.563h4.891V0H12.688V-2.219A7.694,7.694,0,0,1,10.344-.235,6,6,0,0,1,7.609.39,5,5,0,0,1,3.578-1.235,7.075,7.075,0,0,1,2.188-5.969Z"/>
      </g>
      <g id="Group_1328" data-name="Group 1328" transform="translate(278.813 672)">
        <path id="Path_55879" data-name="Path 55879" d="M17.75-9.328V0H12.828V-7.141a26.185,26.185,0,0,0-.094-2.734,2.94,2.94,0,0,0-.312-1.109,1.994,1.994,0,0,0-.781-.734,2.3,2.3,0,0,0-1.109-.266A2.827,2.827,0,0,0,8.125-10.8,5.345,5.345,0,0,0,7.25-7.531V0H2.359V-15.312H7.25v2.234a7.816,7.816,0,0,1,2.344-1.969,5.953,5.953,0,0,1,2.75-.641,4.965,4.965,0,0,1,4.031,1.641A7.142,7.142,0,0,1,17.75-9.328Z"/>
      </g>
      <g id="Group_1329" data-name="Group 1329" transform="translate(308.492 672)">
        <path id="Path_55880" data-name="Path 55880" d="M2.578-20.406h8.734a9.085,9.085,0,0,1,5.969,1.734,6.015,6.015,0,0,1,2.094,4.922,6.052,6.052,0,0,1-2.094,4.938,9.085,9.085,0,0,1-5.969,1.734H7.828V0H2.578Zm5.25,3.813v5.7H10.75a3.4,3.4,0,0,0,2.359-.75,2.675,2.675,0,0,0,.844-2.109,2.653,2.653,0,0,0-.844-2.109,3.455,3.455,0,0,0-2.359-.734Z"/>
      </g>
      <g id="Group_1330" data-name="Group 1330" transform="translate(329.016 672)">
        <path id="Path_55881" data-name="Path 55881" d="M13.734-11.141a6.765,6.765,0,0,0-1.3-.437,5.346,5.346,0,0,0-1.266-.156,3.566,3.566,0,0,0-2.906,1.219A5.2,5.2,0,0,0,7.25-7.063V0H2.359V-15.312H7.25V-12.8a6.217,6.217,0,0,1,2.156-2.187,5.829,5.829,0,0,1,2.938-.7,5.207,5.207,0,0,1,.531.031c.2.012.477.039.844.078Z"/>
      </g>
      <g id="Group_1331" data-name="Group 1331" transform="translate(342.82 672)">
        <path id="Path_55882" data-name="Path 55882" d="M9.641-12.188a2.885,2.885,0,0,0-2.484,1.172A5.637,5.637,0,0,0,6.3-7.641a5.636,5.636,0,0,0,.859,3.375A2.893,2.893,0,0,0,9.641-3.11a2.826,2.826,0,0,0,2.437-1.156,5.664,5.664,0,0,0,.859-3.375,5.664,5.664,0,0,0-.859-3.375A2.819,2.819,0,0,0,9.641-12.188Zm0-3.5a8.533,8.533,0,0,1,6.172,2.141,7.8,7.8,0,0,1,2.219,5.906,7.828,7.828,0,0,1-2.219,5.906A8.559,8.559,0,0,1,9.641.39a8.626,8.626,0,0,1-6.2-2.125A7.779,7.779,0,0,1,1.2-7.641a7.755,7.755,0,0,1,2.234-5.906A8.6,8.6,0,0,1,9.641-15.688Z"/>
      </g>
      <g id="Group_1332" data-name="Group 1332" transform="translate(362.059 672)">
        <path id="Path_55883" data-name="Path 55883" d="M2.359-15.312H7.25V-.281a6.752,6.752,0,0,1-1.484,4.7A5.482,5.482,0,0,1,1.484,6.047H-.937V2.828h.859A2.388,2.388,0,0,0,1.828,2.2,4.088,4.088,0,0,0,2.359-.281Zm0-5.969H7.25v4H2.359Z"/>
      </g>
      <g id="Group_1333" data-name="Group 1333" transform="translate(371.656 672)">
        <path id="Path_55884" data-name="Path 55884" d="M17.641-7.7V-6.3H6.188a3.641,3.641,0,0,0,1.25,2.578,4.619,4.619,0,0,0,2.984.859,11.52,11.52,0,0,0,3.156-.453A16.707,16.707,0,0,0,16.907-4.7V-.938a20.629,20.629,0,0,1-3.469.984A18.006,18.006,0,0,1,9.969.391,9.241,9.241,0,0,1,3.5-1.719,7.635,7.635,0,0,1,1.2-7.641a7.713,7.713,0,0,1,2.266-5.891,8.645,8.645,0,0,1,6.219-2.156A7.79,7.79,0,0,1,15.469-13.5a7.851,7.851,0,0,1,2.172,5.8ZM12.61-9.328a3.1,3.1,0,0,0-.812-2.234,2.8,2.8,0,0,0-2.125-.859,3.335,3.335,0,0,0-2.312.8,3.665,3.665,0,0,0-1.109,2.3Z"/>
      </g>
      <g id="Group_1334" data-name="Group 1334" transform="translate(390.648 672)">
        <path id="Path_55885" data-name="Path 55885" d="M14.719-14.828v3.984a7.612,7.612,0,0,0-2-1.016,6.629,6.629,0,0,0-2.078-.328,4.232,4.232,0,0,0-3.2,1.2A4.628,4.628,0,0,0,6.3-7.64,4.653,4.653,0,0,0,7.438-4.3a4.253,4.253,0,0,0,3.2,1.188,7.133,7.133,0,0,0,2.172-.328,6.412,6.412,0,0,0,1.906-1.016v4a13.234,13.234,0,0,1-2.328.625,13.04,13.04,0,0,1-2.375.219A9.292,9.292,0,0,1,3.531-1.734,7.577,7.577,0,0,1,1.2-7.64a7.607,7.607,0,0,1,2.328-5.922,9.311,9.311,0,0,1,6.484-2.125,13.04,13.04,0,0,1,2.375.219,13.073,13.073,0,0,1,2.328.641Z"/>
      </g>
      <g id="Group_1335" data-name="Group 1335" transform="translate(407.242 672)">
        <path id="Path_55886" data-name="Path 55886" d="M7.7-19.656v4.344H12.75v3.5H7.7v6.5a1.89,1.89,0,0,0,.422,1.438A2.632,2.632,0,0,0,9.8-3.5h2.516V0H8.125Q5.219,0,4-1.2,2.793-2.422,2.8-5.312v-6.5H.375v-3.5H2.8v-4.344Z"/>
      </g>
    </g>
  </g>
</svg>
