<svg xmlns="http://www.w3.org/2000/svg" width="286.651" height="286.651" viewBox="0 0 286.651 286.651">
  <path id="Path_55843" data-name="Path 55843" d="M224.066,161.69l-13.645,13.645-7.493-37.468-5.39-30.549a61.77,61.77,0,0,0-19.072-34.8l16.716-20.059A13.962,13.962,0,0,0,190.7,31.031l-1.547-.771a16.209,16.209,0,0,0-21,5.9l-12.2,19.526,9.421-28.258a17.78,17.78,0,0,0-7-20.385l-5.9-3.935a12.579,12.579,0,0,0-19.384,8.4l-5.243,31.468-2.3-29.948A13.089,13.089,0,0,0,112.556,1a12.9,12.9,0,0,0-4.118.67l-4.66,1.552a16,16,0,0,0-10.954,15.2,16.369,16.369,0,0,0,.216,2.635l7.736,46.421a61.448,61.448,0,0,0-9.421,8.209l-8.847-8.847a13.789,13.789,0,0,1-3.994-8.682L75.065,13.323A13.4,13.4,0,0,0,61.764,1a13.159,13.159,0,0,0-3.237.4L48.9,3.805A14.748,14.748,0,0,0,38.171,21.692l7.474,29.888a2.639,2.639,0,0,1-4.141,2.75L29.53,45.35A15.168,15.168,0,0,0,7.814,49.074L3.443,55.63a14.567,14.567,0,0,0,5.606,21.1l18.9,9.449a17.637,17.637,0,0,1,8.764,9.995A55.08,55.08,0,0,0,1,147.9,109.4,109.4,0,0,0,30.6,222.913a210.659,210.659,0,0,0,75.46,51.839l23.006,9.224a23.486,23.486,0,0,0,8.737,1.676,20.147,20.147,0,0,0,12.708-4.536l2.277-1.855a177.117,177.117,0,0,0,58.927-92.227l16.156-16.161h57.784V161.69ZM175.946,41.035a7.173,7.173,0,0,1,9.1-2.562l1.552.776a4.775,4.775,0,0,1,1.533,7.327L171.286,66.791a62.066,62.066,0,0,0-8.42-4.83Zm-33.8-28.015a3.5,3.5,0,0,1,5.229-2.268l5.9,3.935a8.566,8.566,0,0,1,3.379,9.843L145.883,56.856a62.291,62.291,0,0,0-9.4-.762c-.514,0-1.015.083-1.529.092ZM102.1,19.548a7.206,7.206,0,0,1-.092-1.129,6.831,6.831,0,0,1,4.678-6.487l4.665-1.556a3.95,3.95,0,0,1,5.046,3.356l3.439,44.731a62.025,62.025,0,0,0-10.578,4.017Zm34.388,45.728a52.715,52.715,0,0,1,37.4,15.5l-4.816.8a54.231,54.231,0,0,0-24.916,11.124,42.592,42.592,0,0,1-26.509,9.3h-.758a42.2,42.2,0,0,1-26.711-9.49c.955-1.6,1.96-3.172,3.035-4.706A52.849,52.849,0,0,1,136.485,65.276ZM32.055,77.966l-18.9-9.449a5.38,5.38,0,0,1-2.066-7.8l4.371-6.552A6.169,6.169,0,0,1,24.025,52.7l11.969,8.98A11.819,11.819,0,0,0,54.556,49.363L47.082,19.47a5.421,5.421,0,0,1-.17-1.354,5.551,5.551,0,0,1,4.215-5.4l9.637-2.406A4.25,4.25,0,0,1,65.91,14.03l3.448,44.832a22.944,22.944,0,0,0,6.657,14.471l9.494,9.494a87.93,87.93,0,0,0-7.594,13.356l-11.473-2.3a54.523,54.523,0,0,0-10.72-1.065h-.6a53,53,0,0,0-9.563.914,26.775,26.775,0,0,0-13.5-15.771Zm23.066,24.039h.6a45.809,45.809,0,0,1,8.921.881l9.816,1.965a87.317,87.317,0,0,0-4.591,27.9v2.488c0,14.834-11.418,26.45-26,26.45a43.217,43.217,0,0,1-30.747-12.731L10.275,146.1C11.216,121.632,30.944,102.005,55.121,102.005Zm91.85,170.143-2.277,1.859c-3.37,2.75-8.223,3.035-12.222,1.437l-23-9.214a201.454,201.454,0,0,1-72.15-49.566,100.578,100.578,0,0,1-26.468-57.44,52.274,52.274,0,0,0,33.01,11.648c19.4,0,35.182-15.982,35.182-35.632v-2.488A77.977,77.977,0,0,1,85.9,100.8a51.325,51.325,0,0,0,30.99,10.385h.758A51.8,51.8,0,0,0,149.9,99.875a45.053,45.053,0,0,1,20.688-9.237l9.94-1.657a52.712,52.712,0,0,1,7.97,19.93l5.22,29.581-13.227,46.3-18.925-80.423-12.736,57.32H138.271a22.956,22.956,0,1,0,0,9.182H156.19l5.629-25.325,17.8,75.676L197.63,158.2l5.257,26.284a167.857,167.857,0,0,1-55.916,87.663ZM129.553,166.281a13.773,13.773,0,1,1-13.773-13.773A13.79,13.79,0,0,1,129.553,166.281Z" stroke="#000" stroke-width="2"/>
</svg>
