<svg xmlns="http://www.w3.org/2000/svg" width="518.994" height="518.994" viewBox="0 0 518.994 518.994">
  <path id="Path_56098" data-name="Path 56098" d="M439.17,367.189a28.833,28.833,0,0,0,2.921-12.484V284.114h66.58v-99.87H458.736V159.277A74.994,74.994,0,0,0,402,86.672a49.956,49.956,0,1,0-68.119,1.365A149.682,149.682,0,0,0,300.4,100L224.825,137.78a28.353,28.353,0,0,0-7.1,5.085A29.949,29.949,0,0,0,202.1,144.7l-86.238,35.928a49.921,49.921,0,1,0-70.134,9.87A74.985,74.985,0,0,0,1,259V487.865a29.092,29.092,0,0,0,24.826,28.7v.433H516.994v-149.8Zm-13.724-12.484a12.484,12.484,0,1,1-24.967,0V284.114h24.967Zm-41.612-70.591v70.591a28.833,28.833,0,0,0,2.921,12.484H347.623a28.834,28.834,0,0,0,2.921-12.484V282l24.967-6.808v8.922Zm108.192-83.225v66.58h-99.87v-66.58H408.8v8.322a24.967,24.967,0,0,0,49.935,0v-8.322ZM333.9,50.935A33.29,33.29,0,1,1,368.446,84.1l-1.107-.017v.133a.856.856,0,0,0-.15.008A33.323,33.323,0,0,1,333.9,50.935ZM232.273,152.669l75.576-37.784a133.219,133.219,0,0,1,59.339-14.015c.716,0,1.406-.075,2.114-.108l14.531.258a58.321,58.321,0,0,1,58.257,58.257v49.935a8.322,8.322,0,0,1-16.645,0V166.276a65.317,65.317,0,0,0-19.058-46.29L394.57,131.7A48.8,48.8,0,0,1,408.8,166.276v17.968h-33.29v73.7l-29.345,8.006A16.666,16.666,0,0,0,333.9,282v72.705a12.484,12.484,0,1,1-24.967,0V254.6a24.816,24.816,0,0,1,13.8-22.329l36.136-18.068V125.837H340.258L242.9,174.515a11.952,11.952,0,0,1-5.318,1.257c-6.55,0-11.876-5.326-11.876-12.484A11.8,11.8,0,0,1,232.273,152.669ZM109.192,300.609H100.87v-44.65l125-58.823a28.183,28.183,0,0,0,7.315-5.16,26.612,26.612,0,0,0,17.153-2.572l91.88-45.94v60.454L315.29,217.384a41.379,41.379,0,0,0-23,37.218v100.1a28.833,28.833,0,0,0,2.921,12.484H172.518L150.8,387.2V342.222a41.66,41.66,0,0,0-41.612-41.612ZM42.612,150.8a33.29,33.29,0,1,1,33.29,33.29A33.323,33.323,0,0,1,42.612,150.8ZM17.645,259A58.321,58.321,0,0,1,75.9,200.739h34.954L208.5,160.051c.25-.1.549-.166.824-.258a33.2,33.2,0,0,0-.266,4.1,28.319,28.319,0,0,0,7.565,19.192l-132.4,62.3v71.865h24.967a25,25,0,0,1,24.967,24.967v79.055a12.488,12.488,0,1,1-24.976,0l.008-54.088a16.662,16.662,0,0,0-16.645-16.645H42.612a25,25,0,0,1-24.967-24.967ZM59.257,367.189h33.29l-.008,54.079A28.855,28.855,0,0,0,97.05,436.74L59.257,471.561ZM17.645,487.865V358.65a41.182,41.182,0,0,0,24.967,8.539V487.865a12.484,12.484,0,0,1-24.967,0Zm482.7,12.484H56.336a29.131,29.131,0,0,0,1.889-5.2l51.433-47.4A29.005,29.005,0,0,0,150.8,421.277V409.833l28.222-26H500.349Z" transform="translate(0.5 0.5)" stroke="#000" stroke-width="3"/>
</svg>
