<svg xmlns="http://www.w3.org/2000/svg" width="45.137" height="40.205" viewBox="0 0 45.137 40.205">
  <g id="chatting" transform="translate(1.3 1.301)">
    <g id="Group_409" data-name="Group 409" transform="translate(0 0)">
      <path id="Path_54316" data-name="Path 54316" d="M3912.976,518.674h38.589a1.945,1.945,0,0,1,1.979,1.908v24.728a1.945,1.945,0,0,1-1.979,1.906h-24.729l-9.4,9.061v-9.061h-4.452a1.944,1.944,0,0,1-1.979-1.907V520.583A1.945,1.945,0,0,1,3912.976,518.674Z" transform="translate(-3911.006 -518.674)" fill="none" stroke="#3d3d3d" stroke-linecap="round" stroke-linejoin="round" stroke-width="2.6"/>
    </g>
    <g id="Group_410" data-name="Group 410" transform="translate(9.427 12.085)">
      <g id="Ellipse_69" data-name="Ellipse 69" transform="translate(0 0)" fill="none" stroke="#3d3d3d" stroke-linecap="round" stroke-linejoin="round" stroke-miterlimit="10" stroke-width="2.6">
        <ellipse cx="2.261" cy="2.261" rx="2.261" ry="2.261" stroke="none"/>
        <ellipse cx="2.261" cy="2.261" rx="0.961" ry="0.961" fill="none"/>
      </g>
      <g id="Ellipse_70" data-name="Ellipse 70" transform="translate(9.044 0)" fill="none" stroke="#3d3d3d" stroke-linecap="round" stroke-linejoin="round" stroke-miterlimit="10" stroke-width="2.6">
        <ellipse cx="2.261" cy="2.261" rx="2.261" ry="2.261" stroke="none"/>
        <ellipse cx="2.261" cy="2.261" rx="0.961" ry="0.961" fill="none"/>
      </g>
      <g id="Ellipse_71" data-name="Ellipse 71" transform="translate(18.089 0)" fill="none" stroke="#3d3d3d" stroke-linecap="round" stroke-linejoin="round" stroke-miterlimit="10" stroke-width="2.6">
        <ellipse cx="2.261" cy="2.261" rx="2.261" ry="2.261" stroke="none"/>
        <ellipse cx="2.261" cy="2.261" rx="0.961" ry="0.961" fill="none"/>
      </g>
    </g>
  </g>
</svg>
