<svg xmlns="http://www.w3.org/2000/svg" xmlns:xlink="http://www.w3.org/1999/xlink" width="424" height="581" viewBox="0 0 424 581">
  <defs>
    <clipPath id="clip-path">
      <rect id="Rectangle_8026" data-name="Rectangle 8026" width="424" height="581" transform="translate(5567 630)" fill="#fff" stroke="#707070" stroke-width="1"/>
    </clipPath>
  </defs>
  <g id="Mask_Group_23" data-name="Mask Group 23" transform="translate(-5567 -630)" clip-path="url(#clip-path)">
    <g id="noun-respiratory-system-5089865" transform="translate(5508.688 630)">
      <path id="Path_56059" data-name="Path 56059" d="M513.318,466.339h-3.056c19.06-31.5,70.969-137.351-.518-259.626H520.67a5.936,5.936,0,0,0,5.939-5.939v-32a5.939,5.939,0,0,0-5.939-5.939H466.611v-24.4H531.3v3.077a5.939,5.939,0,0,0,11.878,0V91.9a5.939,5.939,0,0,0-11.878,0v2.178l-182.527,0V91.906c0-10.283-9.3-18.653-20.72-18.653s-20.72,8.366-20.72,18.653v2.178H286.122a108.508,108.508,0,0,0-64.168-77.333,2.974,2.974,0,0,0-.381-.137,107.41,107.41,0,0,0-40.582-8.171h-.046c-.195,0-.385-.029-.58-.029a4.856,4.856,0,0,0-.845.174,5.316,5.316,0,0,0-.886.091c-.1.029-.174.112-.273.149a5.655,5.655,0,0,0-1.081.58,5.84,5.84,0,0,0-.895.6,5.87,5.87,0,0,0-.7.866,5.533,5.533,0,0,0-.634.944,5.642,5.642,0,0,0-.311,1.015,5.778,5.778,0,0,0-.248,1.218c0,.108-.058.195-.058.3a6.222,6.222,0,0,0,.174.861,5.622,5.622,0,0,0,.083.874c30.208,99.189.3,199.936,0,200.943a5.055,5.055,0,0,0-.083.861,6.158,6.158,0,0,0-.174.866c0,.112.054.2.058.311a5.944,5.944,0,0,0,.244,1.2,5.819,5.819,0,0,0,.319,1.04,5.878,5.878,0,0,0,.625.928,5.71,5.71,0,0,0,.716.878,5.528,5.528,0,0,0,.878.592,5.72,5.72,0,0,0,1.1.592c.1.037.166.112.269.141a5.931,5.931,0,0,0,1.723.257h0a107.464,107.464,0,0,0,41.1-8.163,5.325,5.325,0,0,0,.547-.2,108.537,108.537,0,0,0,64.247-77.872h21.063v4.547c0,10.283,9.3,18.649,20.72,18.649s20.72-8.366,20.72-18.649v-4.547h64.33v24.4H363.151a5.941,5.941,0,0,0-5.939,5.939v32a5.941,5.941,0,0,0,5.939,5.939h10.341c-71.843,122.275-19.677,228.117-.522,259.626l-3.011-.008a5.933,5.933,0,0,0-5.939,5.939v36.134a5.934,5.934,0,0,0,5.939,5.939h33.807v30.97a5.933,5.933,0,0,0,5.939,5.939h6.2l0,27.1a5.934,5.934,0,0,0,5.939,5.939h14.031a5.934,5.934,0,0,0,5.939-5.939V551.256H454.74l0,27.123a5.939,5.939,0,1,0,11.878,0V551.256h11.228a5.933,5.933,0,0,0,5.939-5.939v-30.97h29.549a5.933,5.933,0,0,0,5.939-5.939l0-36.126a5.936,5.936,0,0,0-5.939-5.939ZM213.562,206.766a95.056,95.056,0,0,1-25.33,5.628c6.473-25.519,23.321-107.125.112-191.719A95.505,95.505,0,0,1,213.566,26.3v180.46Zm11.873-5.235V31.546a96.163,96.163,0,0,1,0,169.987Zm81.881-74.969H287.98c.3-3.309.505-6.643.505-10.026,0-3.574-.195-7.094-.534-10.582h19.366Zm29.566,16.421c0,3.669-4.054,6.775-8.846,6.775s-8.846-3.1-8.846-6.775V91.9c0-3.673,4.054-6.78,8.846-6.78s8.846,3.106,8.846,6.78Zm11.878-16.421V105.95H531.288v20.612Zm105.964,11.873v24.4H424.959v-24.4Zm-85.637,56.4v-20.12H514.729v20.12Zm18.239,11.873h108.6c80.448,130.513,11.9,242.4.273,259.626H387.048c-11.684-17.154-80.755-128.87.277-259.626Zm42.6,365.723h-2.154V551.247h2.154Zm41.966-33.058H415.629V514.341h56.262Zm35.489-36.905H375.891V478.206H507.38l0,24.261Z" transform="translate(-64.274 -8.414)" stroke="#000" stroke-width="6"/>
      <g id="Group_1487" data-name="Group 1487" transform="translate(0.911 651.827)">
        <path id="Path_56060" data-name="Path 56060" d="M19.812.059A14.105,14.105,0,0,1,16.6,1.251a14.448,14.448,0,0,1-3.479.414A11.883,11.883,0,0,1,4.555-1.349a10.813,10.813,0,0,1-3.164-8.2,10.788,10.788,0,0,1,3.164-8.2,11.857,11.857,0,0,1,8.565-3.032,14.447,14.447,0,0,1,3.479.414,14.1,14.1,0,0,1,3.214,1.193V-14.7a12.732,12.732,0,0,0-3.065-1.541,10.106,10.106,0,0,0-3.181-.5,5.948,5.948,0,0,0-4.688,1.922A7.613,7.613,0,0,0,7.172-9.55,7.642,7.642,0,0,0,8.879-4.282a5.964,5.964,0,0,0,4.688,1.905,10.342,10.342,0,0,0,3.181-.48,12.377,12.377,0,0,0,3.065-1.557Z" transform="translate(-1.391 20.781)"/>
      </g>
      <g id="Group_1488" data-name="Group 1488" transform="translate(23.726 657.228)">
        <path id="Path_56061" data-name="Path 56061" d="M14.419-10.867a7.172,7.172,0,0,0-1.375-.464A5.668,5.668,0,0,0,11.7-11.5,3.781,3.781,0,0,0,8.621-10.2,5.516,5.516,0,0,0,7.544-6.543V.944H2.359V-15.29H7.544v2.667A6.591,6.591,0,0,1,9.83-14.942a6.18,6.18,0,0,1,3.114-.745,5.52,5.52,0,0,1,.563.033c.207.012.505.041.895.083Z" transform="translate(-2.359 15.687)"/>
      </g>
      <g id="Group_1489" data-name="Group 1489" transform="translate(37.14 657.228)">
        <path id="Path_56062" data-name="Path 56062" d="M18.631-7.222v1.491H6.488A3.861,3.861,0,0,0,7.813-3a4.9,4.9,0,0,0,3.164.911,12.214,12.214,0,0,0,3.346-.48,17.713,17.713,0,0,0,3.529-1.474V-.049A21.871,21.871,0,0,1,14.175.994a19.09,19.09,0,0,1-3.678.364A9.8,9.8,0,0,1,3.639-.878,8.1,8.1,0,0,1,1.2-7.156a8.177,8.177,0,0,1,2.4-6.245A9.166,9.166,0,0,1,10.2-15.688a8.259,8.259,0,0,1,6.129,2.319,8.324,8.324,0,0,1,2.3,6.146ZM13.3-8.945a3.285,3.285,0,0,0-.861-2.369,2.97,2.97,0,0,0-2.253-.911,3.536,3.536,0,0,0-2.452.845A3.885,3.885,0,0,0,6.554-8.945Z" transform="translate(-1.203 15.688)"/>
      </g>
      <g id="Group_1490" data-name="Group 1490" transform="translate(57.273 657.228)">
        <path id="Path_56063" data-name="Path 56063" d="M9.7-6.361a4.47,4.47,0,0,0-2.452.547,1.828,1.828,0,0,0-.812,1.623A1.926,1.926,0,0,0,7.1-2.634a2.773,2.773,0,0,0,1.822.547,3.272,3.272,0,0,0,2.468-1.044A3.672,3.672,0,0,0,12.4-5.765v-.6ZM17.62-8.316V.945H12.4v-2.4A6.7,6.7,0,0,1,10.049.7a7.024,7.024,0,0,1-3.181.663A5.769,5.769,0,0,1,2.777-.1,4.991,4.991,0,0,1,1.2-3.926,4.688,4.688,0,0,1,3.158-8.1Q5.127-9.442,9.337-9.442H12.4v-.414a1.919,1.919,0,0,0-.977-1.789,6.157,6.157,0,0,0-3.032-.58,13.949,13.949,0,0,0-3.114.331,10.745,10.745,0,0,0-2.651.994v-3.959a31.569,31.569,0,0,1,3.33-.613,27.227,27.227,0,0,1,3.379-.215q4.386,0,6.328,1.739T17.62-8.316Z" transform="translate(-1.203 15.688)"/>
      </g>
      <g id="Group_1491" data-name="Group 1491" transform="translate(76.426 653.02)">
        <path id="Path_56064" data-name="Path 56064" d="M8.144-19.656v4.605H13.5v3.711H8.144v6.891a2,2,0,0,0,.447,1.524,2.791,2.791,0,0,0,1.773.4h2.667V1.184H8.592q-3.081,0-4.373-1.276Q2.939-1.384,2.943-4.448V-11.34H.375v-3.711H2.943v-4.605Z" transform="translate(-0.375 19.656)"/>
      </g>
      <g id="Group_1492" data-name="Group 1492" transform="translate(91.498 657.228)">
        <path id="Path_56065" data-name="Path 56065" d="M18.631-7.222v1.491H6.488A3.861,3.861,0,0,0,7.813-3a4.9,4.9,0,0,0,3.164.911,12.214,12.214,0,0,0,3.346-.48,17.713,17.713,0,0,0,3.529-1.474V-.049A21.871,21.871,0,0,1,14.175.994a19.09,19.09,0,0,1-3.678.364A9.8,9.8,0,0,1,3.639-.878,8.1,8.1,0,0,1,1.2-7.156a8.177,8.177,0,0,1,2.4-6.245A9.166,9.166,0,0,1,10.2-15.688a8.259,8.259,0,0,1,6.129,2.319,8.324,8.324,0,0,1,2.3,6.146ZM13.3-8.945a3.285,3.285,0,0,0-.861-2.369,2.97,2.97,0,0,0-2.253-.911,3.536,3.536,0,0,0-2.452.845A3.885,3.885,0,0,0,6.554-8.945Z" transform="translate(-1.203 15.688)"/>
      </g>
      <g id="Group_1493" data-name="Group 1493" transform="translate(111.696 651.297)">
        <path id="Path_56066" data-name="Path 56066" d="M13.459-12.584v-8.7h5.218V1.281H13.459V-1.071a6.832,6.832,0,0,1-2.352,2.1,6.526,6.526,0,0,1-3,.663A6.037,6.037,0,0,1,3.188-.69,9.445,9.445,0,0,1,1.266-6.819a9.476,9.476,0,0,1,1.922-6.146,6.037,6.037,0,0,1,4.92-2.385,6.332,6.332,0,0,1,2.982.679,7.184,7.184,0,0,1,2.369,2.087ZM10.046-2.065A2.943,2.943,0,0,0,12.58-3.274a6.045,6.045,0,0,0,.878-3.545,5.979,5.979,0,0,0-.878-3.529,2.936,2.936,0,0,0-2.535-1.226,2.926,2.926,0,0,0-2.535,1.226,5.948,5.948,0,0,0-.878,3.529,6.014,6.014,0,0,0,.878,3.545A2.933,2.933,0,0,0,10.046-2.065Z" transform="translate(-1.266 21.281)"/>
      </g>
      <g id="Group_1494" data-name="Group 1494" transform="translate(144.442 651.297)">
        <path id="Path_56067" data-name="Path 56067" d="M10.99-2.065a2.958,2.958,0,0,0,2.551-1.209,6.045,6.045,0,0,0,.878-3.545,5.979,5.979,0,0,0-.878-3.529,2.951,2.951,0,0,0-2.551-1.226,2.986,2.986,0,0,0-2.568,1.226,6,6,0,0,0-.878,3.529,5.983,5.983,0,0,0,.878,3.529A2.976,2.976,0,0,0,10.99-2.065ZM7.545-12.584a7.351,7.351,0,0,1,2.369-2.087,6.424,6.424,0,0,1,3-.679,6.062,6.062,0,0,1,4.937,2.385A9.5,9.5,0,0,1,19.77-6.819,9.468,9.468,0,0,1,17.848-.69,6.062,6.062,0,0,1,12.912,1.7a6.575,6.575,0,0,1-3-.663,7.173,7.173,0,0,1-2.369-2.1V1.281H2.359V-21.281H7.545Z" transform="translate(-2.359 21.281)"/>
      </g>
      <g id="Group_1495" data-name="Group 1495" transform="translate(163.555 657.626)">
        <path id="Path_56068" data-name="Path 56068" d="M.344-15.312H5.529L9.9-4.3l3.711-11.017H18.8L11.973,2.464a8.672,8.672,0,0,1-2.4,3.777A5.636,5.636,0,0,1,5.96,7.334H2.945V3.921H4.568A3.353,3.353,0,0,0,6.49,3.491,2.709,2.709,0,0,0,7.434,2l.149-.447Z" transform="translate(-0.344 15.312)"/>
      </g>
      <g id="Group_1496" data-name="Group 1496" transform="translate(195.61 652.225)">
        <path id="Path_56069" data-name="Path 56069" d="M2.578-20.406H8.144v8.233h8.233v-8.233H21.96V1.229H16.377V-7.949H8.144V1.229H2.578Z" transform="translate(-2.578 20.406)"/>
      </g>
      <g id="Group_1497" data-name="Group 1497" transform="translate(218.993 657.227)">
        <path id="Path_56070" data-name="Path 56070" d="M10.149-11.977a3.059,3.059,0,0,0-2.634,1.242A5.976,5.976,0,0,0,6.6-7.157a5.976,5.976,0,0,0,.911,3.578,3.067,3.067,0,0,0,2.634,1.226,3,3,0,0,0,2.584-1.226,6.005,6.005,0,0,0,.911-3.578,6.005,6.005,0,0,0-.911-3.578A2.988,2.988,0,0,0,10.149-11.977Zm0-3.711a9.046,9.046,0,0,1,6.544,2.27,8.274,8.274,0,0,1,2.352,6.262A8.3,8.3,0,0,1,16.692-.895a9.074,9.074,0,0,1-6.544,2.253A9.145,9.145,0,0,1,3.572-.895,8.247,8.247,0,0,1,1.2-7.157a8.222,8.222,0,0,1,2.369-6.262A9.116,9.116,0,0,1,10.149-15.688Z" transform="translate(-1.203 15.688)"/>
      </g>
      <g id="Group_1498" data-name="Group 1498" transform="translate(240.433 657.625)">
        <path id="Path_56071" data-name="Path 56071" d="M2.187-5.406v-9.906H7.406v1.623c0,.886-.008,1.988-.017,3.313s-.017,2.212-.017,2.651a27.9,27.9,0,0,0,.1,2.833A3.265,3.265,0,0,0,7.82-3.65a2.283,2.283,0,0,0,.845.8,2.5,2.5,0,0,0,1.176.265,3.014,3.014,0,0,0,2.551-1.242,5.687,5.687,0,0,0,.928-3.462v-8.018H18.5V.921H13.32V-1.431a8.158,8.158,0,0,1-2.485,2.1,6.364,6.364,0,0,1-2.9.663A5.3,5.3,0,0,1,3.662-.387a7.5,7.5,0,0,1-1.474-5.02Z" transform="translate(-2.187 15.313)"/>
      </g>
      <g id="Group_1499" data-name="Group 1499" transform="translate(260.591 651.297)">
        <path id="Path_56072" data-name="Path 56072" d="M13.459-12.584v-8.7h5.218V1.281H13.459V-1.071a6.832,6.832,0,0,1-2.352,2.1,6.526,6.526,0,0,1-3,.663A6.037,6.037,0,0,1,3.188-.69,9.445,9.445,0,0,1,1.266-6.819a9.476,9.476,0,0,1,1.922-6.146,6.037,6.037,0,0,1,4.92-2.385,6.332,6.332,0,0,1,2.982.679,7.184,7.184,0,0,1,2.369,2.087ZM10.046-2.065A2.943,2.943,0,0,0,12.58-3.274a6.045,6.045,0,0,0,.878-3.545,5.979,5.979,0,0,0-.878-3.529,2.936,2.936,0,0,0-2.535-1.226,2.926,2.926,0,0,0-2.535,1.226,5.948,5.948,0,0,0-.878,3.529,6.014,6.014,0,0,0,.878,3.545A2.933,2.933,0,0,0,10.046-2.065Z" transform="translate(-1.266 21.281)"/>
      </g>
      <g id="Group_1500" data-name="Group 1500" transform="translate(281.774 657.228)">
        <path id="Path_56073" data-name="Path 56073" d="M9.7-6.361a4.47,4.47,0,0,0-2.452.547,1.828,1.828,0,0,0-.812,1.623A1.926,1.926,0,0,0,7.1-2.634a2.773,2.773,0,0,0,1.822.547,3.272,3.272,0,0,0,2.468-1.044A3.672,3.672,0,0,0,12.4-5.765v-.6ZM17.62-8.316V.945H12.4v-2.4A6.7,6.7,0,0,1,10.049.7a7.024,7.024,0,0,1-3.181.663A5.769,5.769,0,0,1,2.777-.1,4.991,4.991,0,0,1,1.2-3.926,4.688,4.688,0,0,1,3.158-8.1Q5.127-9.442,9.337-9.442H12.4v-.414a1.919,1.919,0,0,0-.977-1.789,6.157,6.157,0,0,0-3.032-.58,13.949,13.949,0,0,0-3.114.331,10.745,10.745,0,0,0-2.651.994v-3.959a31.569,31.569,0,0,1,3.33-.613,27.227,27.227,0,0,1,3.379-.215q4.386,0,6.328,1.739T17.62-8.316Z" transform="translate(-1.203 15.688)"/>
      </g>
      <g id="Group_1501" data-name="Group 1501" transform="translate(313.601 652.225)">
        <path id="Path_56074" data-name="Path 56074" d="M2.578-20.406h7.09L14.6-8.826l4.953-11.58h7.09V1.229H21.364V-14.609L16.377-2.929H12.849L7.863-14.609V1.229H2.578Z" transform="translate(-2.578 20.406)"/>
      </g>
      <g id="Group_1502" data-name="Group 1502" transform="translate(342.907 651.297)">
        <path id="Path_56075" data-name="Path 56075" d="M10.99-2.065a2.958,2.958,0,0,0,2.551-1.209,6.045,6.045,0,0,0,.878-3.545,5.979,5.979,0,0,0-.878-3.529,2.951,2.951,0,0,0-2.551-1.226,2.986,2.986,0,0,0-2.568,1.226,6,6,0,0,0-.878,3.529,5.983,5.983,0,0,0,.878,3.529A2.976,2.976,0,0,0,10.99-2.065ZM7.545-12.584a7.351,7.351,0,0,1,2.369-2.087,6.424,6.424,0,0,1,3-.679,6.062,6.062,0,0,1,4.937,2.385A9.5,9.5,0,0,1,19.77-6.819,9.468,9.468,0,0,1,17.848-.69,6.062,6.062,0,0,1,12.912,1.7a6.575,6.575,0,0,1-3-.663,7.173,7.173,0,0,1-2.369-2.1V1.281H2.359V-21.281H7.545Z" transform="translate(-2.359 21.281)"/>
      </g>
      <g id="Group_1503" data-name="Group 1503" transform="translate(362.934 657.228)">
        <path id="Path_56076" data-name="Path 56076" d="M9.7-6.361a4.47,4.47,0,0,0-2.452.547,1.828,1.828,0,0,0-.812,1.623A1.926,1.926,0,0,0,7.1-2.634a2.773,2.773,0,0,0,1.822.547,3.272,3.272,0,0,0,2.468-1.044A3.672,3.672,0,0,0,12.4-5.765v-.6ZM17.62-8.316V.945H12.4v-2.4A6.7,6.7,0,0,1,10.049.7a7.024,7.024,0,0,1-3.181.663A5.769,5.769,0,0,1,2.777-.1,4.991,4.991,0,0,1,1.2-3.926,4.688,4.688,0,0,1,3.158-8.1Q5.127-9.442,9.337-9.442H12.4v-.414a1.919,1.919,0,0,0-.977-1.789,6.157,6.157,0,0,0-3.032-.58,13.949,13.949,0,0,0-3.114.331,10.745,10.745,0,0,0-2.651.994v-3.959a31.569,31.569,0,0,1,3.33-.613,27.227,27.227,0,0,1,3.379-.215q4.386,0,6.328,1.739T17.62-8.316Z" transform="translate(-1.203 15.688)"/>
      </g>
      <g id="Group_1504" data-name="Group 1504" transform="translate(384.188 657.228)">
        <path id="Path_56077" data-name="Path 56077" d="M14.419-10.867a7.172,7.172,0,0,0-1.375-.464A5.668,5.668,0,0,0,11.7-11.5,3.781,3.781,0,0,0,8.621-10.2,5.516,5.516,0,0,0,7.544-6.543V.944H2.359V-15.29H7.544v2.667A6.591,6.591,0,0,1,9.83-14.942a6.18,6.18,0,0,1,3.114-.745,5.52,5.52,0,0,1,.563.033c.207.012.505.041.895.083Z" transform="translate(-2.359 15.687)"/>
      </g>
      <g id="Group_1505" data-name="Group 1505" transform="translate(398.833 651.297)">
        <path id="Path_56078" data-name="Path 56078" d="M2.359-21.281H7.545V-8.989l5.964-5.964h6.03L11.62-7.5l8.548,8.78h-6.3L7.544-5.493V1.282H2.359Z" transform="translate(-2.359 21.281)"/>
      </g>
      <g id="Group_1506" data-name="Group 1506" transform="translate(418.571 651.298)">
        <path id="Path_56079" data-name="Path 56079" d="M2.359-14.953H7.545V1.282H2.359Zm0-6.328H7.545v4.241H2.359Z" transform="translate(-2.359 21.281)"/>
      </g>
      <g id="Group_1507" data-name="Group 1507" transform="translate(0 680.983)">
        <path id="Path_56080" data-name="Path 56080" d="M13.138-21.281v3.413H10.272a2.325,2.325,0,0,0-1.541.4A1.829,1.829,0,0,0,8.3-16.079v1.126h4.44v3.711H8.3V1.281H3.116V-11.242H.531v-3.711H3.116v-1.126A4.914,4.914,0,0,1,4.59-20.005a6.9,6.9,0,0,1,4.589-1.276Z" transform="translate(-0.531 21.281)"/>
      </g>
      <g id="Group_1508" data-name="Group 1508" transform="translate(14.855 686.914)">
        <path id="Path_56081" data-name="Path 56081" d="M14.419-10.867a7.172,7.172,0,0,0-1.375-.464A5.668,5.668,0,0,0,11.7-11.5,3.781,3.781,0,0,0,8.621-10.2,5.516,5.516,0,0,0,7.544-6.543V.944H2.359V-15.29H7.544v2.667A6.591,6.591,0,0,1,9.83-14.942a6.18,6.18,0,0,1,3.114-.745,5.52,5.52,0,0,1,.563.033c.207.012.505.041.895.083Z" transform="translate(-2.359 15.687)"/>
      </g>
      <g id="Group_1509" data-name="Group 1509" transform="translate(28.27 686.913)">
        <path id="Path_56082" data-name="Path 56082" d="M10.149-11.977a3.059,3.059,0,0,0-2.634,1.242A5.976,5.976,0,0,0,6.6-7.157a5.976,5.976,0,0,0,.911,3.578,3.067,3.067,0,0,0,2.634,1.226,3,3,0,0,0,2.584-1.226,6.005,6.005,0,0,0,.911-3.578,6.005,6.005,0,0,0-.911-3.578A2.988,2.988,0,0,0,10.149-11.977Zm0-3.711a9.046,9.046,0,0,1,6.544,2.27,8.274,8.274,0,0,1,2.352,6.262A8.3,8.3,0,0,1,16.692-.895a9.074,9.074,0,0,1-6.544,2.253A9.145,9.145,0,0,1,3.572-.895,8.247,8.247,0,0,1,1.2-7.157a8.222,8.222,0,0,1,2.369-6.262A9.116,9.116,0,0,1,10.149-15.688Z" transform="translate(-1.203 15.688)"/>
      </g>
      <g id="Group_1510" data-name="Group 1510" transform="translate(49.855 686.913)">
        <path id="Path_56083" data-name="Path 56083" d="M17.4-12.59a7.033,7.033,0,0,1,2.336-2.3,5.782,5.782,0,0,1,2.982-.8,5.246,5.246,0,0,1,4.257,1.739,7.505,7.505,0,0,1,1.474,5V.944H23.234V-7.9c.008-.141.017-.34.017-.6a4.615,4.615,0,0,0-.514-2.485,1.784,1.784,0,0,0-1.623-.779,2.585,2.585,0,0,0-2.286,1.226A6.363,6.363,0,0,0,18-7.024V.944H12.781V-7.521a8.066,8.066,0,0,0-.464-3.462,1.771,1.771,0,0,0-1.657-.779,2.6,2.6,0,0,0-2.3,1.226,6.259,6.259,0,0,0-.812,3.5V.944H2.328V-15.29H7.546v2.369a6.745,6.745,0,0,1,2.187-2.071,5.5,5.5,0,0,1,2.733-.7,5.51,5.51,0,0,1,2.982.812A5.112,5.112,0,0,1,17.4-12.59Z" transform="translate(-2.328 15.688)"/>
      </g>
      <g id="Group_1511" data-name="Group 1511" transform="translate(89.054 682.706)">
        <path id="Path_56084" data-name="Path 56084" d="M8.144-19.656v4.605H13.5v3.711H8.144v6.891a2,2,0,0,0,.447,1.524,2.791,2.791,0,0,0,1.773.4h2.667V1.184H8.592q-3.081,0-4.373-1.276Q2.939-1.384,2.943-4.448V-11.34H.375v-3.711H2.943v-4.605Z" transform="translate(-0.375 19.656)"/>
      </g>
      <g id="Group_1512" data-name="Group 1512" transform="translate(105.346 680.983)">
        <path id="Path_56085" data-name="Path 56085" d="M18.677-8.608v9.89H13.459V-6.256a28.2,28.2,0,0,0-.1-2.932,3.117,3.117,0,0,0-.331-1.176,2.114,2.114,0,0,0-.828-.779,2.433,2.433,0,0,0-1.176-.282,3,3,0,0,0-2.551,1.259A5.667,5.667,0,0,0,7.545-6.7V1.281H2.359V-21.281H7.545v8.7a8.287,8.287,0,0,1,2.485-2.087,6.311,6.311,0,0,1,2.916-.679,5.264,5.264,0,0,1,4.274,1.739,7.572,7.572,0,0,1,1.458,5Z" transform="translate(-2.359 21.281)"/>
      </g>
      <g id="Group_1513" data-name="Group 1513" transform="translate(125.255 686.914)">
        <path id="Path_56086" data-name="Path 56086" d="M18.631-7.222v1.491H6.488A3.861,3.861,0,0,0,7.813-3a4.9,4.9,0,0,0,3.164.911,12.214,12.214,0,0,0,3.346-.48,17.713,17.713,0,0,0,3.529-1.474V-.049A21.871,21.871,0,0,1,14.175.994a19.09,19.09,0,0,1-3.678.364A9.8,9.8,0,0,1,3.639-.878,8.1,8.1,0,0,1,1.2-7.156a8.177,8.177,0,0,1,2.4-6.245A9.166,9.166,0,0,1,10.2-15.688a8.259,8.259,0,0,1,6.129,2.319,8.324,8.324,0,0,1,2.3,6.146ZM13.3-8.945a3.285,3.285,0,0,0-.861-2.369,2.97,2.97,0,0,0-2.253-.911,3.536,3.536,0,0,0-2.452.845A3.885,3.885,0,0,0,6.554-8.945Z" transform="translate(-1.203 15.688)"/>
      </g>
      <g id="Group_1514" data-name="Group 1514" transform="translate(157.181 681.911)">
        <path id="Path_56087" data-name="Path 56087" d="M2.578-20.406H8.807L16.676-5.563V-20.406H21.96V1.229H15.731L7.863-13.614V1.229H2.578Z" transform="translate(-2.578 20.406)"/>
      </g>
      <g id="Group_1515" data-name="Group 1515" transform="translate(180.569 686.913)">
        <path id="Path_56088" data-name="Path 56088" d="M10.149-11.977a3.059,3.059,0,0,0-2.634,1.242A5.976,5.976,0,0,0,6.6-7.157a5.976,5.976,0,0,0,.911,3.578,3.067,3.067,0,0,0,2.634,1.226,3,3,0,0,0,2.584-1.226,6.005,6.005,0,0,0,.911-3.578,6.005,6.005,0,0,0-.911-3.578A2.988,2.988,0,0,0,10.149-11.977Zm0-3.711a9.046,9.046,0,0,1,6.544,2.27,8.274,8.274,0,0,1,2.352,6.262A8.3,8.3,0,0,1,16.692-.895a9.074,9.074,0,0,1-6.544,2.253A9.145,9.145,0,0,1,3.572-.895,8.247,8.247,0,0,1,1.2-7.157a8.222,8.222,0,0,1,2.369-6.262A9.116,9.116,0,0,1,10.149-15.688Z" transform="translate(-1.203 15.688)"/>
      </g>
      <g id="Group_1516" data-name="Group 1516" transform="translate(202.009 687.311)">
        <path id="Path_56089" data-name="Path 56089" d="M2.187-5.406v-9.906H7.406v1.623c0,.886-.008,1.988-.017,3.313s-.017,2.212-.017,2.651a27.9,27.9,0,0,0,.1,2.833A3.265,3.265,0,0,0,7.82-3.65a2.283,2.283,0,0,0,.845.8,2.5,2.5,0,0,0,1.176.265,3.014,3.014,0,0,0,2.551-1.242,5.687,5.687,0,0,0,.928-3.462v-8.018H18.5V.921H13.32V-1.431a8.158,8.158,0,0,1-2.485,2.1,6.364,6.364,0,0,1-2.9.663A5.3,5.3,0,0,1,3.662-.387a7.5,7.5,0,0,1-1.474-5.02Z" transform="translate(-2.187 15.313)"/>
      </g>
      <g id="Group_1517" data-name="Group 1517" transform="translate(223.326 686.914)">
        <path id="Path_56090" data-name="Path 56090" d="M18.677-8.945V.945H13.459V-6.626a27.761,27.761,0,0,0-.1-2.9,3.117,3.117,0,0,0-.331-1.176,2.114,2.114,0,0,0-.828-.779,2.433,2.433,0,0,0-1.176-.282A3,3,0,0,0,8.472-10.5,5.667,5.667,0,0,0,7.545-7.04V.945H2.359V-15.29H7.545v2.369a8.287,8.287,0,0,1,2.485-2.087,6.311,6.311,0,0,1,2.916-.679,5.264,5.264,0,0,1,4.274,1.739,7.572,7.572,0,0,1,1.458,5Z" transform="translate(-2.359 15.687)"/>
      </g>
      <g id="Group_1518" data-name="Group 1518" transform="translate(255.024 681.911)">
        <path id="Path_56091" data-name="Path 56091" d="M2.578-20.406h9.26a9.632,9.632,0,0,1,6.328,1.839,6.377,6.377,0,0,1,2.22,5.218,6.417,6.417,0,0,1-2.22,5.235,9.633,9.633,0,0,1-6.328,1.839H8.144v7.5H2.578Zm5.566,4.042v6.047h3.1a3.606,3.606,0,0,0,2.5-.8,2.836,2.836,0,0,0,.895-2.236,2.813,2.813,0,0,0-.895-2.236,3.663,3.663,0,0,0-2.5-.779Z" transform="translate(-2.578 20.406)"/>
      </g>
      <g id="Group_1519" data-name="Group 1519" transform="translate(276.551 686.914)">
        <path id="Path_56092" data-name="Path 56092" d="M14.419-10.867a7.172,7.172,0,0,0-1.375-.464A5.668,5.668,0,0,0,11.7-11.5,3.781,3.781,0,0,0,8.621-10.2,5.516,5.516,0,0,0,7.544-6.543V.944H2.359V-15.29H7.544v2.667A6.591,6.591,0,0,1,9.83-14.942a6.18,6.18,0,0,1,3.114-.745,5.52,5.52,0,0,1,.563.033c.207.012.505.041.895.083Z" transform="translate(-2.359 15.687)"/>
      </g>
      <g id="Group_1520" data-name="Group 1520" transform="translate(289.961 686.913)">
        <path id="Path_56093" data-name="Path 56093" d="M10.149-11.977a3.059,3.059,0,0,0-2.634,1.242A5.976,5.976,0,0,0,6.6-7.157a5.976,5.976,0,0,0,.911,3.578,3.067,3.067,0,0,0,2.634,1.226,3,3,0,0,0,2.584-1.226,6.005,6.005,0,0,0,.911-3.578,6.005,6.005,0,0,0-.911-3.578A2.988,2.988,0,0,0,10.149-11.977Zm0-3.711a9.046,9.046,0,0,1,6.544,2.27,8.274,8.274,0,0,1,2.352,6.262A8.3,8.3,0,0,1,16.692-.895a9.074,9.074,0,0,1-6.544,2.253A9.145,9.145,0,0,1,3.572-.895,8.247,8.247,0,0,1,1.2-7.157a8.222,8.222,0,0,1,2.369-6.262A9.116,9.116,0,0,1,10.149-15.688Z" transform="translate(-1.203 15.688)"/>
      </g>
      <g id="Group_1521" data-name="Group 1521" transform="translate(308.089 680.984)">
        <path id="Path_56094" data-name="Path 56094" d="M2.558-14.953H7.743V.984A7.159,7.159,0,0,1,6.169,5.97,5.812,5.812,0,0,1,1.63,7.693H-.937V4.28h.911a2.532,2.532,0,0,0,2.021-.663A4.334,4.334,0,0,0,2.558.983Zm0-6.328H7.743v4.241H2.558Z" transform="translate(0.937 21.281)"/>
      </g>
      <g id="Group_1522" data-name="Group 1522" transform="translate(320.534 686.914)">
        <path id="Path_56095" data-name="Path 56095" d="M18.631-7.222v1.491H6.488A3.861,3.861,0,0,0,7.813-3a4.9,4.9,0,0,0,3.164.911,12.214,12.214,0,0,0,3.346-.48,17.713,17.713,0,0,0,3.529-1.474V-.049A21.871,21.871,0,0,1,14.175.994a19.09,19.09,0,0,1-3.678.364A9.8,9.8,0,0,1,3.639-.878,8.1,8.1,0,0,1,1.2-7.156a8.177,8.177,0,0,1,2.4-6.245A9.166,9.166,0,0,1,10.2-15.688a8.259,8.259,0,0,1,6.129,2.319,8.324,8.324,0,0,1,2.3,6.146ZM13.3-8.945a3.285,3.285,0,0,0-.861-2.369,2.97,2.97,0,0,0-2.253-.911,3.536,3.536,0,0,0-2.452.845A3.885,3.885,0,0,0,6.554-8.945Z" transform="translate(-1.203 15.688)"/>
      </g>
      <g id="Group_1523" data-name="Group 1523" transform="translate(340.67 686.914)">
        <path id="Path_56096" data-name="Path 56096" d="M15.533-14.776v4.224a8.07,8.07,0,0,0-2.12-1.077,7.028,7.028,0,0,0-2.2-.348,4.487,4.487,0,0,0-3.4,1.276A4.907,4.907,0,0,0,6.6-7.156,4.934,4.934,0,0,0,7.813-3.611a4.509,4.509,0,0,0,3.4,1.259,7.562,7.562,0,0,0,2.3-.348,6.8,6.8,0,0,0,2.021-1.077V.465a14.031,14.031,0,0,1-2.468.663,13.825,13.825,0,0,1-2.518.232A9.852,9.852,0,0,1,3.672-.894,8.034,8.034,0,0,1,1.2-7.156a8.065,8.065,0,0,1,2.468-6.279,9.871,9.871,0,0,1,6.875-2.253,13.825,13.825,0,0,1,2.518.232,13.86,13.86,0,0,1,2.468.679Z" transform="translate(-1.203 15.687)"/>
      </g>
      <g id="Group_1524" data-name="Group 1524" transform="translate(357.384 682.706)">
        <path id="Path_56097" data-name="Path 56097" d="M8.144-19.656v4.605H13.5v3.711H8.144v6.891a2,2,0,0,0,.447,1.524,2.791,2.791,0,0,0,1.773.4h2.667V1.184H8.592q-3.081,0-4.373-1.276Q2.939-1.384,2.943-4.448V-11.34H.375v-3.711H2.943v-4.605Z" transform="translate(-0.375 19.656)"/>
      </g>
    </g>
  </g>
</svg>
