<svg xmlns="http://www.w3.org/2000/svg" width="379.486" height="282.471" viewBox="0 0 379.486 282.471">
  <g id="svgexport-6_97_" data-name="svgexport-6 (97)" transform="translate(1 0.997)">
    <g id="Group_497" data-name="Group 497" transform="translate(0 0)">
      <path id="Path_54518" data-name="Path 54518" d="M362.387,291.517a18.164,18.164,0,0,0,18.144-18.144,5.53,5.53,0,0,0-11.059,0,7.085,7.085,0,0,1-14.169,0,5.53,5.53,0,0,0-11.059,0A18.164,18.164,0,0,0,362.387,291.517Z" transform="translate(-90.44 -118.875)" stroke="#000" stroke-width="2"/>
      <path id="Path_54519" data-name="Path 54519" d="M406.2,249.928a5.529,5.529,0,0,0,5.53-5.529V238.62a5.53,5.53,0,0,0-.686-11.017H406.2a5.529,5.529,0,0,0-5.53,5.53V244.4A5.529,5.529,0,0,0,406.2,249.928Z" transform="translate(-105.266 -108.302)" stroke="#000" stroke-width="2"/>
      <path id="Path_54520" data-name="Path 54520" d="M320.3,238.621V244.4a5.53,5.53,0,1,0,11.059,0V233.134a5.529,5.529,0,0,0-5.53-5.53h-4.844a5.53,5.53,0,0,0-.686,11.017Z" transform="translate(-82.878 -108.303)" stroke="#000" stroke-width="2"/>
      <path id="Path_54521" data-name="Path 54521" d="M354.59,202.881a25.626,25.626,0,0,0-3.987-27.927,5.5,5.5,0,0,0,1.012-3.182c0-16.332.815-26.018-4.1-40.066a5.53,5.53,0,1,0-10.44,3.651c4.016,11.48,3.478,19.443,3.478,30.885H306.491a29.049,29.049,0,0,1-29.016-29.015,5.53,5.53,0,0,0-11.059,0A29.048,29.048,0,0,1,237.4,166.242H203.335v-10.3a62.393,62.393,0,0,1,62.322-62.322.759.759,0,0,1,.758.758,5.53,5.53,0,0,0,11.059,0,.759.759,0,0,1,.758-.758A62.342,62.342,0,0,1,325.225,115a5.529,5.529,0,1,0,8.336-7.267A73.4,73.4,0,0,0,278.233,82.56a11.747,11.747,0,0,0-6.288,1.815,11.747,11.747,0,0,0-6.288-1.815,73.464,73.464,0,0,0-73.381,73.381v15.831a5.5,5.5,0,0,0,1.012,3.182,25.726,25.726,0,0,0-4.471,7.132,27.958,27.958,0,0,0-10.921-20V141.021A75.3,75.3,0,0,0,102.678,65.8c-10.3,0-6.172-.178-20.416.936A62.812,62.812,0,0,0,34.386,95.142L17.734,89.82a5.532,5.532,0,0,0-7.207,5c-.079,1.666-1.747,38.7,5,64.489a28.067,28.067,0,0,0,8.885,52.941,71.811,71.811,0,0,0,33.118,45.355H45.9A34.712,34.712,0,0,0,11.227,292.28v48.456a5.529,5.529,0,0,0,5.53,5.53h9.186a5.53,5.53,0,1,0,0-11.059H22.286V292.28A23.639,23.639,0,0,1,45.9,268.667H61.984a33.04,33.04,0,0,0,65.152,0h16.088a23.64,23.64,0,0,1,23.614,23.613v42.927H51.747a5.53,5.53,0,1,0,0,11.059H172.368a5.529,5.529,0,0,0,5.53-5.53V292.28a34.477,34.477,0,0,0-2.547-13.022h8.884a41.106,41.106,0,0,0,15.717-3.112,33.571,33.571,0,0,0-5.4,18.288v46.3a5.529,5.529,0,0,0,5.53,5.53h144.1a5.529,5.529,0,0,0,5.53-5.53v-46.3a33.571,33.571,0,0,0-5.274-18.092,41.1,41.1,0,0,0,15.221,2.916h12.3a5.529,5.529,0,0,0,5.53-5.53V239.863A41.611,41.611,0,0,0,354.59,202.881ZM237.4,177.3a40.093,40.093,0,0,0,34.546-19.779A40.094,40.094,0,0,0,306.492,177.3h24.851a14.637,14.637,0,1,1-.587,29.263,5.513,5.513,0,0,0-5.687,4.612,53.913,53.913,0,0,1-99.88,17.9,5.536,5.536,0,0,0-.313-.666,53.526,53.526,0,0,1-5.1-12.732c-.023-.089-.041-.178-.063-.267-.314-1.247-.613-2.571-.891-4.233a5.527,5.527,0,0,0-5.687-4.612,14.638,14.638,0,1,1-.587-29.263c.2,0,.4.009.6.016a5.485,5.485,0,0,0,.7-.016H237.4Zm34.637,113.107a19.1,19.1,0,0,1-19.081-19.081v-7.006a65.153,65.153,0,0,0,38.161-.055v7.062a19.105,19.105,0,0,1-18.1,19.056q-.487.024-.98.024ZM228.329,260.65h-.007a33.637,33.637,0,0,0-10.837,1.8,41.162,41.162,0,0,0,7.149-15.779,64.19,64.19,0,0,0,17.263,13.1v.878Zm73.848-.969a64.4,64.4,0,0,0,17.081-13.012,41.149,41.149,0,0,0,7.031,15.612c-6.313-2.039-9.607-1.632-24.11-1.632v-.969ZM21.393,102.6l13.794,4.408a5.532,5.532,0,0,0,6.523-2.592A51.8,51.8,0,0,1,83.123,77.762c13.9-1.085,9.686-.9,19.555-.9a64.233,64.233,0,0,1,64.16,64.16v15.973c-4.832-1.04-3.3-.626-79.14-.626a37.014,37.014,0,0,1-36.286-29.838,5.536,5.536,0,0,0-9.464-2.716,71.99,71.99,0,0,0-16.581,29.112c-3.8-17.2-4.11-39.147-3.973-50.327ZM34.443,206.025a5.53,5.53,0,0,0-5.451-4.618c-.074,0-.15,0-.225,0-.231.01-.462.018-.695.018a17.011,17.011,0,0,1-.618-34.011h.067c.411-.012.823-.012,1.232,0h.077a5.521,5.521,0,0,0,5.612-4.612,60.3,60.3,0,0,1,7.713-21q.824-1.379,1.722-2.717A48.152,48.152,0,0,0,87.7,167.427h73.949a17.194,17.194,0,0,1,7.89,2.37c.043.026.088.043.132.067a17.017,17.017,0,0,1-8.822,31.566c-.233,0-.464-.01-.7-.018a5.543,5.543,0,0,0-5.676,4.613,60.864,60.864,0,0,1-120.032,0Zm59.009,79.083A22.014,22.014,0,0,1,72.7,265.417c-.008-.08-.013-.162-.02-.243q-.033-.358-.055-.72a72.374,72.374,0,0,0,43.876-.069A22.01,22.01,0,0,1,93.452,285.108Zm49.773-27.5H131.387A71.809,71.809,0,0,0,164.5,212.253a28.149,28.149,0,0,0,22.491-17.622,25.484,25.484,0,0,0,2.307,8.25,41.61,41.61,0,0,0-22.9,36.982v26.659A34.529,34.529,0,0,0,143.225,257.608Zm34.24,10.591V239.862a30.475,30.475,0,0,1,18.818-28.028,25.92,25.92,0,0,0,12.518,5.533,65.427,65.427,0,0,0,5.715,15.137v5.41A30.317,30.317,0,0,1,184.234,268.2h-6.769Zm161.187,67.008H205.611V294.434a22.751,22.751,0,0,1,22.726-22.725H241.9a30.14,30.14,0,0,0,60.275,0h13.752a22.751,22.751,0,0,1,22.725,22.725v40.772ZM366.427,268.2h-6.77a30.317,30.317,0,0,1-30.282-30.283v-5.41a65.4,65.4,0,0,0,5.715-15.137,25.675,25.675,0,0,0,11.987-5.128c.176-.136.358-.263.531-.4a30.471,30.471,0,0,1,18.818,28.026Z" transform="translate(0 -65.791)" stroke="#000" stroke-width="2"/>
      <path id="Path_54522" data-name="Path 54522" d="M121.125,287.451a19.651,19.651,0,0,0,19.628-19.629,5.53,5.53,0,0,0-11.059,0,8.57,8.57,0,0,1-17.139,0,5.53,5.53,0,0,0-11.059,0A19.653,19.653,0,0,0,121.125,287.451Z" transform="translate(-26.665 -117.416)" stroke="#000" stroke-width="2"/>
      <path id="Path_54523" data-name="Path 54523" d="M82.2,217.564a5.529,5.529,0,0,0-5.53,5.53v12.225a5.53,5.53,0,1,0,11.059,0V223.094A5.53,5.53,0,0,0,82.2,217.564Z" transform="translate(-20.142 -105.665)" stroke="#000" stroke-width="2"/>
      <path id="Path_54524" data-name="Path 54524" d="M170.1,240.849a5.529,5.529,0,0,0,5.53-5.53V223.094a5.53,5.53,0,0,0-11.059,0v12.225A5.529,5.529,0,0,0,170.1,240.849Z" transform="translate(-43.237 -105.665)" stroke="#000" stroke-width="2"/>
    </g>
  </g>
</svg>
