<svg xmlns="http://www.w3.org/2000/svg" width="670.402" height="716.218" viewBox="0 0 670.402 716.218">
  <g id="svgexport-6_92_" data-name="svgexport-6 (92)" transform="translate(2.011 2)">
    <path id="Path_54497" data-name="Path 54497" d="M93.139,298.321A11.128,11.128,0,1,1,72.643,307,139.846,139.846,0,0,1,284.764,140.193,11.127,11.127,0,1,1,271.5,158.064,117.59,117.59,0,0,0,93.139,298.321Zm464.125,40.171a11.124,11.124,0,0,0-15.286,3.738,452.59,452.59,0,0,0-55.642,139.615c-2.749,12.714-5.685,28.9-8.794,46.032-6.578,36.259-14.037,77.357-23.755,110.337-14.51,49.239-26.16,51.406-27.44,51.491-2.221.184-22.425-1.75-57.845-111.347-8.021-39.878-16.8-70.7-26.1-91.622-10.943-24.613-23.179-36.579-37.4-36.579s-26.459,11.966-37.4,36.579c-9.3,20.921-18.084,51.743-26.1,91.621C206,688.172,185.825,690.044,183.615,689.951c-1.271-.085-12.837-2.235-27.3-51.271-9.708-32.925-17.231-74.243-23.866-110.7-3.919-21.525-7.3-40.113-10.633-54.26a451.683,451.683,0,0,0-68.74-154.49A162.671,162.671,0,0,1,298.364,121.863a11.124,11.124,0,0,0,13.264,0,162.2,162.2,0,0,1,47.423-24.332,11.128,11.128,0,1,0-6.769-21.2,184.162,184.162,0,0,0-47.288,22.962A184.927,184.927,0,0,0,33.243,329.376a11.02,11.02,0,0,0,.99,1.735,429.6,429.6,0,0,1,65.924,147.712c3.2,13.592,6.537,31.922,10.4,53.146,18.931,103.989,35.147,177.783,71.591,180.19.609.04,1.213.061,1.819.06,26.421,0,50.139-38.461,78.9-127.631a10.706,10.706,0,0,0,.32-1.23C285.17,473.681,304.8,472.413,305,472.413s19.827,1.269,41.811,110.945a11.29,11.29,0,0,0,.32,1.23c29.365,91.052,53.54,129.142,80.694,127.325,36.594-2.427,52.768-76.161,71.621-180.061,3.076-16.948,5.98-32.954,8.649-45.306A430.465,430.465,0,0,1,561,353.781a11.13,11.13,0,0,0-3.739-15.289ZM361.274,220.151,384.635,144.1a11.128,11.128,0,0,1,21.275,0l23.363,76.051,76.05,23.361a11.128,11.128,0,0,1,0,21.275l-76.05,23.361L405.91,364.2a11.128,11.128,0,0,1-21.275,0l-23.361-76.051-76.048-23.361a11.128,11.128,0,0,1,0-21.275Zm12.174,19.543L326.391,254.15l47.058,14.456a11.135,11.135,0,0,1,7.37,7.37l14.456,47.06,14.457-47.06a11.134,11.134,0,0,1,7.371-7.37l47.056-14.456L417.1,239.694a11.134,11.134,0,0,1-7.371-7.37l-14.457-47.06-14.456,47.06a11.135,11.135,0,0,1-7.37,7.37ZM393.506,81.238A11.127,11.127,0,0,1,401.367,70.6l48-14.744,14.744-48a11.128,11.128,0,0,1,21.275,0l14.744,48,48,14.744a11.128,11.128,0,0,1,0,21.275l-48,14.745-14.744,48a11.128,11.128,0,0,1-21.275,0l-14.744-48-48-14.745a11.126,11.126,0,0,1-7.859-10.637Zm49.024,0,19.006,5.838a11.134,11.134,0,0,1,7.37,7.371l5.837,19,5.837-19a11.134,11.134,0,0,1,7.37-7.371l19.006-5.838-19-5.837a11.133,11.133,0,0,1-7.371-7.371l-5.837-19-5.837,19a11.133,11.133,0,0,1-7.371,7.371Zm240.316,126.02a11.127,11.127,0,0,1-7.861,10.637l-62.427,19.176L593.382,299.5a11.128,11.128,0,0,1-21.275,0l-19.177-62.429L490.5,217.9a11.128,11.128,0,0,1,0-21.275l62.428-19.177,19.177-62.429a11.128,11.128,0,0,1,21.275,0l19.177,62.429,62.429,19.177a11.124,11.124,0,0,1,7.859,10.636Zm-49.026,0-33.436-10.271a11.135,11.135,0,0,1-7.37-7.37l-10.271-33.438-10.271,33.438a11.135,11.135,0,0,1-7.37,7.37l-33.436,10.271,33.435,10.27a11.134,11.134,0,0,1,7.371,7.37l10.271,33.438L593.015,224.9a11.134,11.134,0,0,1,7.371-7.37Z" transform="translate(-16.456 -0.001)" stroke="#000" stroke-width="4"/>
  </g>
</svg>
