<svg xmlns="http://www.w3.org/2000/svg" xmlns:xlink="http://www.w3.org/1999/xlink" width="307" height="319" viewBox="0 0 307 319">
  <defs>
    <clipPath id="clip-path">
      <rect id="Rectangle_8018" data-name="Rectangle 8018" width="307" height="319" transform="translate(6239.543 -2785.05)" fill="#fff" stroke="#000" stroke-width="3"/>
    </clipPath>
  </defs>
  <g id="Mask_Group_14" data-name="Mask Group 14" transform="translate(-6239.543 2785.05)" clip-path="url(#clip-path)">
    <g id="noun-dermatology-4241882" transform="translate(6239.106 -2785.001)">
      <path id="Path_55704" data-name="Path 55704" d="M117.713,226.765a41.476,41.476,0,0,1,8.77,25.386v40.516a15.4,15.4,0,0,0,15.4,15.4H244.574a15.4,15.4,0,0,0,15.4-15.4v-11.5a107.03,107.03,0,0,0,46.607-18.531l41.333,41.385a14.071,14.071,0,0,0,19.76-.032l6.32-6.315v0a14.083,14.083,0,0,0,0-19.789l-41.354-41.3A107.5,107.5,0,0,0,280.518,73.036V47.077a26.355,26.355,0,0,0-23.179-26.417,25.673,25.673,0,0,0-19.691,6.479,25.453,25.453,0,0,0-41.077-10.27,25.522,25.522,0,0,0-46.3-3.707c-.451-.473-.92-.935-1.412-1.375a25.721,25.721,0,0,0-19.738-6.531,26.354,26.354,0,0,0-23.183,26.417V51.66A41.139,41.139,0,0,0,70,92.419v55.915a51.8,51.8,0,0,0,10.958,31.716Zm249.028,63.667-6.316,6.309h0a3.763,3.763,0,0,1-5.267,0l-26.443-26.473,11.553-11.553,26.443,26.413v0a3.78,3.78,0,0,1,.026,5.284ZM333,251.443l-11.544,11.544-6.7-6.715v0a108.988,108.988,0,0,0,11.531-11.531Zm9.139-76.875a97.658,97.658,0,1,1-28.6-68.951,97.549,97.549,0,0,1,28.6,68.951ZM80.273,92.417a30.836,30.836,0,0,1,25.671-30.346v71.424a5.135,5.135,0,0,0,10.27,0V31.671a16.008,16.008,0,0,1,13.9-16.194,15.278,15.278,0,0,1,11.856,3.907,15.463,15.463,0,0,1,5.052,11.42,5.135,5.135,0,0,0,10.27,0V25.669A15.4,15.4,0,0,1,174.2,10.347a16.009,16.009,0,0,1,13.9,16.188v9.4a5.134,5.134,0,1,0,10.268,0,15.465,15.465,0,0,1,5.052-11.413,15.268,15.268,0,0,1,11.862-3.907A16.006,16.006,0,0,1,229.173,36.8v9.4a5.135,5.135,0,0,0,10.27,0A15.457,15.457,0,0,1,244.5,34.793a15.3,15.3,0,0,1,11.86-3.909,16.009,16.009,0,0,1,13.9,16.19V69.963A107.776,107.776,0,1,0,244.576,282.4c1.736,0,3.419-.181,5.134-.262l0,10.532a5.132,5.132,0,0,1-5.136,5.134H141.889a5.134,5.134,0,0,1-5.136-5.134V252.153A51.79,51.79,0,0,0,125.8,220.437L89.042,173.712h0a41.468,41.468,0,0,1-8.77-25.375Z" transform="translate(-70 0.011)" stroke="#000" stroke-width="3"/>
      <path id="Path_55705" data-name="Path 55705" d="M228.67,245.952a87.288,87.288,0,1,0,109.108-84.524,5.135,5.135,0,0,0-2.568,9.941q3.272.848,6.419,1.966v58.754a35.782,35.782,0,0,1-3.082,14.609L325.11,276.961h0a46.032,46.032,0,0,0-4.021,18.8V322.71c-1.7.114-3.4.262-5.134.262l0,0a77.018,77.018,0,0,1,0-154.037,5.134,5.134,0,1,0,0-10.268,87.383,87.383,0,0,0-87.285,87.285Zm102.693,49.806h0a35.781,35.781,0,0,1,3.082-14.609l13.438-30.264a46.1,46.1,0,0,0,4.021-18.8v-54.22a77.017,77.017,0,0,1-20.54,143.56Z" transform="translate(-141.381 -71.373)" stroke="#000" stroke-width="3"/>
      <path id="Path_55706" data-name="Path 55706" d="M364.47,392a5.135,5.135,0,0,0-5.136,5.134v5.136a5.135,5.135,0,0,0,10.27,0v-5.136A5.136,5.136,0,0,0,364.47,392Z" transform="translate(-200.163 -176.343)" stroke="#000" stroke-width="3"/>
      <path id="Path_55707" data-name="Path 55707" d="M369.6,350.47a5.135,5.135,0,1,0-10.27,0V355.6a5.135,5.135,0,0,0,10.27,0Z" transform="translate(-200.162 -155.349)" stroke="#000" stroke-width="3"/>
      <path id="Path_55708" data-name="Path 55708" d="M369.6,303.8a5.135,5.135,0,0,0-10.27,0v5.134a5.135,5.135,0,1,0,10.27,0Z" transform="translate(-200.162 -134.355)" stroke="#000" stroke-width="3"/>
      <path id="Path_55709" data-name="Path 55709" d="M369.6,257.132a5.135,5.135,0,0,0-10.27,0v5.136a5.135,5.135,0,0,0,10.27,0Z" transform="translate(-200.162 -113.36)" stroke="#000" stroke-width="3"/>
      <path id="Path_55710" data-name="Path 55710" d="M369.6,210.47a5.135,5.135,0,1,0-10.27,0V215.6a5.135,5.135,0,0,0,10.27,0Z" transform="translate(-200.162 -92.367)" stroke="#000" stroke-width="3"/>
      <path id="Path_55711" data-name="Path 55711" d="M401.8,289.33a5.134,5.134,0,0,0-5.134,5.136V299.6a5.134,5.134,0,1,0,10.268,0v-5.134a5.132,5.132,0,0,0-5.134-5.136Z" transform="translate(-216.958 -130.154)" stroke="#000" stroke-width="3"/>
      <path id="Path_55712" data-name="Path 55712" d="M406.934,247.8a5.134,5.134,0,1,0-10.268,0v5.134a5.134,5.134,0,1,0,10.268,0Z" transform="translate(-216.957 -109.163)" stroke="#000" stroke-width="3"/>
      <path id="Path_55713" data-name="Path 55713" d="M396.67,206.272a5.134,5.134,0,1,0,10.268,0v-5.136a5.134,5.134,0,1,0-10.268,0Z" transform="translate(-216.959 -88.169)" stroke="#000" stroke-width="3"/>
      <path id="Path_55714" data-name="Path 55714" d="M332.272,322.47a5.135,5.135,0,1,0-10.27,0V327.6a5.135,5.135,0,0,0,10.27,0Z" transform="translate(-183.368 -142.753)" stroke="#000" stroke-width="3"/>
      <path id="Path_55715" data-name="Path 55715" d="M327.132,364A5.135,5.135,0,0,0,322,369.134v5.136a5.135,5.135,0,0,0,10.27,0v-5.136A5.136,5.136,0,0,0,327.132,364Z" transform="translate(-183.366 -163.746)" stroke="#000" stroke-width="3"/>
      <path id="Path_55716" data-name="Path 55716" d="M332.272,275.8a5.135,5.135,0,0,0-10.27,0v5.134a5.135,5.135,0,1,0,10.27,0Z" transform="translate(-183.368 -121.759)" stroke="#000" stroke-width="3"/>
      <path id="Path_55717" data-name="Path 55717" d="M294.934,313.132a5.134,5.134,0,0,0-10.268,0v5.136a5.134,5.134,0,0,0,10.268,0Z" transform="translate(-166.572 -138.553)" stroke="#000" stroke-width="3"/>
      <path id="Path_55718" data-name="Path 55718" d="M289.8,354.67a5.132,5.132,0,0,0-5.134,5.134v5.134a5.134,5.134,0,1,0,10.268,0V359.8a5.129,5.129,0,0,0-5.134-5.134Z" transform="translate(-166.573 -159.549)" stroke="#000" stroke-width="3"/>
      <path id="Path_55719" data-name="Path 55719" d="M294.934,266.47a5.134,5.134,0,1,0-10.268,0V271.6a5.134,5.134,0,0,0,10.268,0Z" transform="translate(-166.572 -117.56)" stroke="#000" stroke-width="3"/>
      <path id="Path_55720" data-name="Path 55720" d="M332.272,229.132a5.135,5.135,0,0,0-10.27,0v5.136a5.135,5.135,0,0,0,10.27,0Z" transform="translate(-183.368 -100.764)" stroke="#000" stroke-width="3"/>
      <g id="Group_1182" data-name="Group 1182" transform="translate(1.281 366.041)">
        <path id="Path_55721" data-name="Path 55721" d="M18.248-16.615a11.908,11.908,0,0,1-2.776,1.04,12.589,12.589,0,0,1-3,.352,10.274,10.274,0,0,1-7.41-2.613,9.343,9.343,0,0,1-2.733-7.092,9.359,9.359,0,0,1,2.733-7.1,10.282,10.282,0,0,1,7.41-2.613,12.589,12.589,0,0,1,3,.352,12.626,12.626,0,0,1,2.776,1.04v3.877A10.351,10.351,0,0,0,15.6-30.713a8.69,8.69,0,0,0-2.742-.43,5.169,5.169,0,0,0-4.066,1.659,6.582,6.582,0,0,0-1.478,4.556,6.6,6.6,0,0,0,1.478,4.556,5.177,5.177,0,0,0,4.066,1.65,8.811,8.811,0,0,0,2.742-.421,10.636,10.636,0,0,0,2.648-1.341Z" transform="translate(-2.328 34.641)" stroke="#000" stroke-width="3"/>
      </g>
      <g id="Group_1183" data-name="Group 1183" transform="translate(20.999 370.718)">
        <path id="Path_55722" data-name="Path 55722" d="M14.349-21.98a5.638,5.638,0,0,0-1.169-.4,5.427,5.427,0,0,0-1.169-.129A3.3,3.3,0,0,0,9.337-21.4a4.813,4.813,0,0,0-.928,3.172v6.473H3.922V-25.8H8.409v2.312A5.7,5.7,0,0,1,10.395-25.5a5.387,5.387,0,0,1,2.69-.636c.148,0,.312.006.49.017s.432.041.765.086Z" transform="translate(-3.922 26.14)" stroke="#000" stroke-width="3"/>
      </g>
      <g id="Group_1184" data-name="Group 1184" transform="translate(32.602 370.717)">
        <path id="Path_55723" data-name="Path 55723" d="M17.069-18.817v1.281H6.582a3.329,3.329,0,0,0,1.135,2.364,4.234,4.234,0,0,0,2.733.791,10.615,10.615,0,0,0,2.905-.421,14.889,14.889,0,0,0,3.052-1.272v3.464a18.761,18.761,0,0,1-3.189.9,16.632,16.632,0,0,1-3.18.309,8.453,8.453,0,0,1-5.923-1.934A6.988,6.988,0,0,1,2-18.765a7.1,7.1,0,0,1,2.072-5.407A7.986,7.986,0,0,1,9.788-26.14a7.147,7.147,0,0,1,5.3,1.994,7.223,7.223,0,0,1,1.986,5.329Zm-4.607-1.5a2.853,2.853,0,0,0-.748-2.054,2.566,2.566,0,0,0-1.951-.791,3.042,3.042,0,0,0-2.123.739,3.374,3.374,0,0,0-1.006,2.106Z" transform="translate(-2.001 26.14)" stroke="#000" stroke-width="3"/>
      </g>
      <g id="Group_1185" data-name="Group 1185" transform="translate(50.014 370.717)">
        <path id="Path_55724" data-name="Path 55724" d="M9.349-18.078a3.8,3.8,0,0,0-2.115.481,1.577,1.577,0,0,0-.7,1.4A1.653,1.653,0,0,0,7.1-14.863a2.4,2.4,0,0,0,1.59.481,2.816,2.816,0,0,0,2.123-.9,3.173,3.173,0,0,0,.868-2.278v-.516Zm6.86-1.693v8.011h-4.53v-2.08A5.772,5.772,0,0,1,9.65-11.975a5.992,5.992,0,0,1-2.742.576,5,5,0,0,1-3.55-1.272A4.307,4.307,0,0,1,2-15.972a4.062,4.062,0,0,1,1.7-3.619,9.642,9.642,0,0,1,5.338-1.16h2.639V-21.1a1.67,1.67,0,0,0-.842-1.556,5.28,5.28,0,0,0-2.613-.5,11.841,11.841,0,0,0-2.69.292,9.128,9.128,0,0,0-2.3.86v-3.421a25.572,25.572,0,0,1,2.9-.533,23.573,23.573,0,0,1,2.914-.181q3.791,0,5.476,1.5t1.693,4.865Z" transform="translate(-2 26.141)" stroke="#000" stroke-width="3"/>
      </g>
      <g id="Group_1186" data-name="Group 1186" transform="translate(66.572 367.072)">
        <path id="Path_55725" data-name="Path 55725" d="M7.331-32.766v3.98h4.625v3.215H7.331v5.957a1.76,1.76,0,0,0,.387,1.324,2.461,2.461,0,0,0,1.547.344h2.3v3.206H7.718A5.214,5.214,0,0,1,3.953-15.85a5.214,5.214,0,0,1-1.109-3.765v-5.957H.609v-3.215H2.844v-3.98Z" transform="translate(-0.609 32.766)" stroke="#000" stroke-width="3"/>
      </g>
      <g id="Group_1187" data-name="Group 1187" transform="translate(79.61 370.717)">
        <path id="Path_55726" data-name="Path 55726" d="M17.069-18.817v1.281H6.582a3.329,3.329,0,0,0,1.135,2.364,4.234,4.234,0,0,0,2.733.791,10.615,10.615,0,0,0,2.905-.421,14.889,14.889,0,0,0,3.052-1.272v3.464a18.761,18.761,0,0,1-3.189.9,16.632,16.632,0,0,1-3.18.309,8.453,8.453,0,0,1-5.923-1.934A6.988,6.988,0,0,1,2-18.765a7.1,7.1,0,0,1,2.072-5.407A7.986,7.986,0,0,1,9.788-26.14a7.147,7.147,0,0,1,5.3,1.994,7.223,7.223,0,0,1,1.986,5.329Zm-4.607-1.5a2.853,2.853,0,0,0-.748-2.054,2.566,2.566,0,0,0-1.951-.791,3.042,3.042,0,0,0-2.123.739,3.374,3.374,0,0,0-1.006,2.106Z" transform="translate(-2.001 26.14)" stroke="#000" stroke-width="3"/>
      </g>
      <g id="Group_1188" data-name="Group 1188" transform="translate(97.074 365.594)">
        <path id="Path_55727" data-name="Path 55727" d="M12.649-27.932v-7.521h4.513v19.5H12.649v-2.029A6.079,6.079,0,0,1,10.6-16.164a5.536,5.536,0,0,1-2.579.576,5.24,5.24,0,0,1-4.264-2.063,8.159,8.159,0,0,1-1.668-5.3,8.175,8.175,0,0,1,1.668-5.312A5.24,5.24,0,0,1,8.025-30.33a5.479,5.479,0,0,1,2.57.585,6.206,6.206,0,0,1,2.054,1.814ZM9.692-18.846a2.541,2.541,0,0,0,2.2-1.049,5.229,5.229,0,0,0,.756-3.06,5.211,5.211,0,0,0-.756-3.06,2.538,2.538,0,0,0-2.2-1.057A2.54,2.54,0,0,0,7.5-26.015a5.2,5.2,0,0,0-.756,3.06,5.213,5.213,0,0,0,.756,3.06,2.544,2.544,0,0,0,2.192,1.049Z" transform="translate(-2.094 35.453)" stroke="#000" stroke-width="3"/>
      </g>
      <g id="Group_1189" data-name="Group 1189" transform="translate(125.396 365.594)">
        <path id="Path_55728" data-name="Path 55728" d="M11.392-18.846a2.541,2.541,0,0,0,2.2-1.049,5.229,5.229,0,0,0,.756-3.06,5.211,5.211,0,0,0-.756-3.06,2.538,2.538,0,0,0-2.2-1.057,2.578,2.578,0,0,0-2.218,1.066,5.152,5.152,0,0,0-.765,3.052A5.147,5.147,0,0,0,9.174-19.9a2.582,2.582,0,0,0,2.218,1.057ZM8.409-27.932a6.186,6.186,0,0,1,2.054-1.814,5.562,5.562,0,0,1,2.6-.585,5.246,5.246,0,0,1,4.264,2.063,8.187,8.187,0,0,1,1.668,5.312,8.171,8.171,0,0,1-1.668,5.3,5.246,5.246,0,0,1-4.264,2.063,5.639,5.639,0,0,1-2.6-.576,6.138,6.138,0,0,1-2.054-1.814v2.029H3.922v-19.5H8.409Z" transform="translate(-3.922 35.453)" stroke="#000" stroke-width="3"/>
      </g>
      <g id="Group_1190" data-name="Group 1190" transform="translate(141.923 371.053)">
        <path id="Path_55729" data-name="Path 55729" d="M.563-25.531h4.5L8.832-16l3.206-9.533h4.487L10.62-10.153A7.5,7.5,0,0,1,8.548-6.878a4.914,4.914,0,0,1-3.129.937h-2.6V-8.89h1.4a2.914,2.914,0,0,0,1.659-.37,2.386,2.386,0,0,0,.817-1.3l.12-.387Z" transform="translate(-0.563 25.531)" stroke="#000" stroke-width="3"/>
      </g>
      <g id="Group_1191" data-name="Group 1191" transform="translate(165.843 366.376)">
        <path id="Path_55730" data-name="Path 55730" d="M1.174-34.031H6.005v16.908a6.711,6.711,0,0,1-1.9,5.218q-1.9,1.734-5.751,1.736h-.98v-3.645h.756A2.918,2.918,0,0,0,.4-14.656a3.53,3.53,0,0,0,.774-2.467Z" transform="translate(2.625 34.031)" stroke="#000" stroke-width="3"/>
      </g>
      <g id="Group_1192" data-name="Group 1192" transform="translate(178.842 371.052)">
        <path id="Path_55731" data-name="Path 55731" d="M3.641-16.953v-8.579H8.153v1.41q0,1.144-.009,2.871t-.009,2.3a23.885,23.885,0,0,0,.086,2.441,2.662,2.662,0,0,0,.3,1.083,1.912,1.912,0,0,0,.713.679,2.182,2.182,0,0,0,1.023.232,2.6,2.6,0,0,0,2.209-1.074,4.961,4.961,0,0,0,.8-3v-6.937h4.5v14.045h-4.5v-2.029A6.961,6.961,0,0,1,11.119-11.7a5.464,5.464,0,0,1-2.5.576,4.6,4.6,0,0,1-3.7-1.487,6.523,6.523,0,0,1-1.272-4.341Z" transform="translate(-3.641 25.531)" stroke="#000" stroke-width="3"/>
      </g>
      <g id="Group_1193" data-name="Group 1193" transform="translate(197.273 365.594)">
        <path id="Path_55732" data-name="Path 55732" d="M3.922-29.995H8.409v14.045H3.922Zm0-5.458H8.409V-31.8H3.922Z" transform="translate(-3.922 35.453)" stroke="#000" stroke-width="3"/>
      </g>
      <g id="Group_1194" data-name="Group 1194" transform="translate(205.016 370.717)">
        <path id="Path_55733" data-name="Path 55733" d="M14.4-25.359v3.653a7.441,7.441,0,0,0-1.84-.928,6.133,6.133,0,0,0-1.908-.3,3.858,3.858,0,0,0-2.931,1.1,4.267,4.267,0,0,0-1.049,3.069A4.26,4.26,0,0,0,7.725-15.7a3.869,3.869,0,0,0,2.931,1.092,6.381,6.381,0,0,0,1.994-.309,6.089,6.089,0,0,0,1.754-.928v3.67a12.52,12.52,0,0,1-2.14.576,12.164,12.164,0,0,1-2.175.2,8.54,8.54,0,0,1-5.948-1.943A6.966,6.966,0,0,1,2-18.766a6.973,6.973,0,0,1,2.14-5.424,8.523,8.523,0,0,1,5.948-1.951,12.074,12.074,0,0,1,2.175.2,12.479,12.479,0,0,1,2.14.585Z" transform="translate(-2.001 26.141)" stroke="#000" stroke-width="3"/>
      </g>
      <g id="Group_1195" data-name="Group 1195" transform="translate(219.442 371.053)">
        <path id="Path_55734" data-name="Path 55734" d="M.563-25.531h4.5L8.832-16l3.206-9.533h4.487L10.62-10.153A7.5,7.5,0,0,1,8.548-6.878a4.914,4.914,0,0,1-3.129.937h-2.6V-8.89h1.4a2.914,2.914,0,0,0,1.659-.37,2.386,2.386,0,0,0,.817-1.3l.12-.387Z" transform="translate(-0.563 25.531)" stroke="#000" stroke-width="3"/>
      </g>
      <g id="Group_1196" data-name="Group 1196" transform="translate(247.161 366.376)">
        <path id="Path_55735" data-name="Path 55735" d="M4.281-34.031H17.313v3.653h-8.2V-26.9h7.711v3.653H9.112v7.934H4.282Z" transform="translate(-4.281 34.031)" stroke="#000" stroke-width="3"/>
      </g>
      <g id="Group_1197" data-name="Group 1197" transform="translate(264.501 365.594)">
        <path id="Path_55736" data-name="Path 55736" d="M3.922-29.995H8.409v14.045H3.922Zm0-5.458H8.409V-31.8H3.922Z" transform="translate(-3.922 35.453)" stroke="#000" stroke-width="3"/>
      </g>
      <g id="Group_1198" data-name="Group 1198" transform="translate(272.476 370.717)">
        <path id="Path_55737" data-name="Path 55737" d="M14.215-25.359v3.4a17.135,17.135,0,0,0-2.785-.9,11.611,11.611,0,0,0-2.527-.3,4.3,4.3,0,0,0-1.908.327,1.04,1.04,0,0,0-.619.98.924.924,0,0,0,.473.834,4.522,4.522,0,0,0,1.685.421l.791.112q3.446.438,4.633,1.444a3.879,3.879,0,0,1,1.195,3.146,3.8,3.8,0,0,1-1.659,3.37A8.79,8.79,0,0,1,8.559-11.4a19.464,19.464,0,0,1-2.88-.223,24.23,24.23,0,0,1-3.052-.653v-3.413a12.823,12.823,0,0,0,2.751.98,12.666,12.666,0,0,0,2.871.327,4.251,4.251,0,0,0,1.977-.361,1.162,1.162,0,0,0,.671-1.083.986.986,0,0,0-.464-.894,4.934,4.934,0,0,0-1.822-.456l-.791-.1a8.215,8.215,0,0,1-4.195-1.384,3.82,3.82,0,0,1-1.2-3.086,3.778,3.778,0,0,1,1.521-3.309,8.173,8.173,0,0,1,4.693-1.083,19.258,19.258,0,0,1,2.6.189,28.463,28.463,0,0,1,2.974.593Z" transform="translate(-2.422 26.141)" stroke="#000" stroke-width="3"/>
      </g>
      <g id="Group_1199" data-name="Group 1199" transform="translate(288.582 365.594)">
        <path id="Path_55738" data-name="Path 55738" d="M18.036-24.5v8.553H13.523v-6.516A24.84,24.84,0,0,0,13.437-25a2.614,2.614,0,0,0-.275-1.014,1.845,1.845,0,0,0-.722-.679,2.078,2.078,0,0,0-1.023-.249,2.6,2.6,0,0,0-2.209,1.083,4.965,4.965,0,0,0-.8,3v6.911H3.922v-19.5H8.409v7.521a6.948,6.948,0,0,1,2.158-1.814,5.454,5.454,0,0,1,2.519-.585,4.545,4.545,0,0,1,3.688,1.5A6.529,6.529,0,0,1,18.036-24.5Z" transform="translate(-3.922 35.454)" stroke="#000" stroke-width="3"/>
      </g>
    </g>
  </g>
</svg>
