<svg xmlns="http://www.w3.org/2000/svg" xmlns:xlink="http://www.w3.org/1999/xlink" width="1034" height="213.071" viewBox="0 0 1034 213.071">
  <defs>
    <linearGradient id="linear-gradient" x1="-53.971" y1="0.5" x2="-52.972" y2="0.5" gradientUnits="objectBoundingBox">
      <stop offset="0" stop-color="#fdcd3f"/>
      <stop offset="0.86" stop-color="#fdcd3f"/>
      <stop offset="1" stop-color="#fdcd3f"/>
    </linearGradient>
  </defs>
  <g id="DESIGN" transform="translate(0 -47.588)">
    <path id="Path_4030" data-name="Path 4030" d="M485.556,224.427,94.68,173.6l31.289-49.432L287.239,77.65a449.206,449.206,0,0,1,248.529.213L636.6,107.13Z" transform="translate(66.148 6.538)" fill="#00a9a5"/>
    <path id="Path_4031" data-name="Path 4031" d="M758.106,114.276,754,130.661v6.873a591.243,591.243,0,0,0-78.274,19.345C606.519,129.506,552.485,67.18,445.2,71.715c-107.439,4.537-125.02,62.571-232.6,92.976C187.938,174.8,81.484,212.425,0,214.079V124.67c43.757,9.48,82.775,11.393,134.312,3.764,77.085-16.31,183.437-71.7,307.863-79.883C585.71,39.113,596.259,101.849,758.106,114.276Z" transform="translate(0 0)" fill="#bce1e6"/>
    <path id="Path_4032" data-name="Path 4032" d="M758.106,114.276,754,130.661v6.873a591.243,591.243,0,0,0-78.274,19.345C606.519,129.506,552.485,67.18,445.2,71.715c-107.439,4.537-125.02,62.571-232.6,92.976C187.938,174.8,81.484,212.425,0,214.079V124.67c43.757,9.48,82.775,11.393,134.312,3.764,77.085-16.31,183.437-71.7,307.863-79.883C585.71,39.113,596.259,101.849,758.106,114.276Z" transform="translate(0 0)" fill="#bce1e6"/>
    <path id="Path_4033" data-name="Path 4033" d="M542.13,135.78c.085.046.187.089.272.137-4.824-2.747-38.644,14.884-43.621,17.387-49.04,24.534-78.8,49.249-149.345,52.618-62.765,2.989-224.578-49.629-208.951-55.379,51.214-18.829,91.931-53.95,141.259-75.877,60.115-26.707,123.441-19.512,178.935,12.058,27.62,15.72,53.066,34.456,81.45,49.052Z" transform="translate(97.411 5.517)" fill="#fff" opacity="0.42"/>
    <path id="Path_4400" data-name="Path 4400" d="M471.085,143.279l1.885.137-3.465-.774h0c-2.633-.106-5.266-.167-7.916-.213Z" transform="translate(322.488 49.058)" fill="none"/>
    <path id="Path_4401" data-name="Path 4401" d="M205.842,124.66c-26.77,10.651-121.589,43.621-199.132,48.1V114.692a316.883,316.883,0,0,1,38.1-2.852,806.834,806.834,0,0,1,161.032,12.82Z" transform="translate(4.688 33.145)" fill="#1dafaf"/>
    <g id="Group_778" data-name="Group 778" transform="translate(80.328 54.628)">
      <path id="Path_4402" data-name="Path 4402" d="M76.254,80.707a48.557,48.557,0,0,0-4.994-7.495,18.071,18.071,0,0,1-1.24,1.7A59.439,59.439,0,0,1,75.71,85.5s6.981-13.564,17.36-18.192c0,0-10.192,1.786-16.8,13.4Z" transform="translate(-31.408 -44.426)" fill="#00766d"/>
      <path id="Path_4403" data-name="Path 4403" d="M92.022,90.435s-4.875-9.619-10.752-10.1c0,0,5.5,1.563,10.362,13.336,0,0,4.926-9.255,13-12.862a20.765,20.765,0,0,0-12.621,9.634Z" transform="translate(-23.549 -37.692)" fill="#00766d"/>
      <path id="Path_4404" data-name="Path 4404" d="M61.983,83.1s-2.31-5.28-7.933-4.445c0,0,5.521-.486,7.865,6.372,0,0,2.293-6.13,5.775-5.978,0,0-3.975-.637-5.707,4.051Z" transform="translate(-42.566 -38.606)" fill="#00766d"/>
      <path id="Path_4405" data-name="Path 4405" d="M74.673,72.438c4.875.625,9.173,4.537,12.247,8.315,5.872-8.927,2.715-20.407-7.12-25.888S57.034,51.9,50.638,60.533,46.711,80.782,56.2,86.723s22.557,4.046,29.459-4.272c-5.775-8.376-11.007-10.014-11.007-10.014Z" transform="translate(-47.086 -51.967)" fill="url(#linear-gradient)"/>
      <path id="Path_4406" data-name="Path 4406" d="M63.53,65.72s5.232,1.639,11.007,10.014a18.071,18.071,0,0,0,1.24-1.7c-3.092-3.778-7.372-7.692-12.247-8.315Z" transform="translate(-35.943 -45.249)" fill="#00766d"/>
    </g>
    <path id="Path_4407" data-name="Path 4407" d="M175.65,171.023S598.613,26.463,901.736,66.668c0,0-560.519,134-568.826,134.579S175.65,171.023,175.65,171.023Z" transform="translate(122.717 6.217)" fill="#bce1e6" opacity="0.32"/>
    <g id="Group_779" data-name="Group 779" transform="translate(0 67.023)">
      <path id="Path_4408" data-name="Path 4408" d="M779.581,150.056V254.032H657.652C502.922,202.142,390,135.1,364.16,118.558a.092.092,0,0,0,.068-.03c.153-.046.289-.106.442-.152,0,0,54.459-20.365,106.131-33.728,63.9-16.553,187.955-33.485,308.117-18.389v83.8h.663Z" transform="translate(254.419 -60.396)" fill="#00766d"/>
      <path id="Path_4409" data-name="Path 4409" d="M467.688,156.673C406.027,182.056,328.229,209.048,240.46,227.5H0V114.722c12.621-1.82,36.946-2.58,49.5-2.852a807.289,807.289,0,0,1,165.43,13.609c48.77,9.149,96.47,22.789,145.642,30,35.349,5.189,72.091,6.843,107.117,1.2Z" transform="translate(0 -33.863)" fill="#ba2025"/>
      <path id="Path_4410" data-name="Path 4410" d="M813.171,234.2H141.56c87.769-18.45,165.567-45.441,227.228-70.825,1.461-.243,2.939-.471,4.4-.728,67.946-23.623,118.192-53.513,146.491-63.921,25.836,16.538,138.762,83.584,293.492,135.474Z" transform="translate(98.9 -40.569)" fill="#1dafaf"/>
    </g>
    <path id="Path_4411" data-name="Path 4411" d="M298.367,155.183c-91.71,22.713-186,35.67-281.262,32.245-5.741-.213-11.432-.471-17.1-.819V90.23a887.588,887.588,0,0,1,260.114,50.995c12.825,4.6,25.565,9.289,38.254,13.959Z" transform="translate(0 22.058)" fill="#f97318"/>
    <g id="Group_783" data-name="Group 783" transform="translate(855.882 141.876)">
      <g id="Group_781" data-name="Group 781" transform="translate(0.001 0)">
        <path id="Path_4412" data-name="Path 4412" d="M510.125,93.887h-1.44V82.517h1.44Zm11.739-3.08v.027c0,1.942-1.814,3.214-4.348,3.214a7.955,7.955,0,0,1-5.2-1.821l.883-.937A6.424,6.424,0,0,0,517.56,92.9c1.765,0,2.833-.817,2.833-1.928v-.027c0-1.058-.629-1.66-3.314-2.156-2.923-.562-4.273-1.407-4.273-3.281v-.027c0-1.781,1.765-3.107,4.183-3.107a7.129,7.129,0,0,1,4.468,1.393l-.839.991a6.031,6.031,0,0,0-3.674-1.232c-1.65,0-2.714.817-2.714,1.835v.025c0,1.071.659,1.674,3.449,2.208,2.834.552,4.138,1.474,4.138,3.214Zm12.79-8.477a6.863,6.863,0,0,0-4.645,1.711,5.452,5.452,0,0,0-1.862,4.168v.027c.012,3.2,2.929,5.79,6.515,5.779s6.483-2.617,6.47-5.82v-.027a5.389,5.389,0,0,0-1.844-4.152,6.791,6.791,0,0,0-4.63-1.687Zm4.977,5.906a4.2,4.2,0,0,1-1.376,3.278,5.3,5.3,0,0,1-3.6,1.382,5.37,5.37,0,0,1-3.62-1.4,4.266,4.266,0,0,1-1.4-3.291v-.027a4.2,4.2,0,0,1,1.376-3.278,5.3,5.3,0,0,1,3.6-1.382,5.37,5.37,0,0,1,3.62,1.4,4.266,4.266,0,0,1,1.4,3.291Zm-15.4-5.718h1.44V93.887h-1.44Zm-24.241,11.45-5.473-11.45h1.6L496.9,84.2l3.749,8.1.36.777-.135-1.246,4.318-9.321h1.545l-5.473,11.45h-1.275Zm52.854-11.45h1.395V93.887H553.1l-9.014-10.218.794,1.66V93.9H543.49V82.531h1.35l8.606,9.776-.584-1.393V82.531Z" transform="translate(-494.461 -78.832)" fill="#fff"/>
        <path id="Path_4413" data-name="Path 4413" d="M570.991,97.169V95.963h1.35v1.205Zm2.7,0V95.963h1.35v1.205ZM545.951,82.21H544.6v-1.2h1.35Zm32.941,8.411a5.961,5.961,0,0,0,1.765.723,9.178,9.178,0,0,0,2.144.228h.36l.45-.844V91.92a1.5,1.5,0,0,1-.6,1.353,3.067,3.067,0,0,1-1.694.4,5.654,5.654,0,0,1-1.124-.107,6.74,6.74,0,0,1-1.14-.362l-.42,1.152a13.947,13.947,0,0,0,1.38.389,6.094,6.094,0,0,0,1.2.134,4.151,4.151,0,0,0,2.863-.83,2.934,2.934,0,0,0,.9-2.25V83.4H582.82a7.679,7.679,0,0,0-2.279.322,5.426,5.426,0,0,0-1.754.867,3.828,3.828,0,0,0-1.139,1.313,3.733,3.733,0,0,0,.045,3.469,3.639,3.639,0,0,0,1.215,1.246Zm0-4.257a3.006,3.006,0,0,1,.824-.924,3.886,3.886,0,0,1,1.17-.589,4.836,4.836,0,0,1,1.32-.214h2.174l-.764.348v5.4h-1.365a5.423,5.423,0,0,1-1.425-.192,3.5,3.5,0,0,1-1.17-.552,2.77,2.77,0,0,1-.794-.884,2.421,2.421,0,0,1-.285-1.205,2.274,2.274,0,0,1,.315-1.192ZM548.65,82.211H547.3V81.005h1.35Zm39.732,12.682a4.459,4.459,0,0,1-1.095-.134l.36-1.152a3.536,3.536,0,0,0,.375.079c.088,0,.2.013.315.013a1.7,1.7,0,0,0,.629-.094.868.868,0,0,0,.39-.322,1.421,1.421,0,0,0,.2-.576,4.819,4.819,0,0,0,.06-.867V83.415h1.345v8.424a6.52,6.52,0,0,1-.12,1.272,2.456,2.456,0,0,1-.435.964,1.8,1.8,0,0,1-.794.6,3.224,3.224,0,0,1-1.214.214Zm-3.419-12.682H582.01v-.978a1.408,1.408,0,0,1,.42-1.152,1.745,1.745,0,0,1,1.185-.362h.944v.844h-.928a.608.608,0,0,0-.42.107.5.5,0,0,0-.105.348V81.3h1.844v.926ZM544.979,94.719h2.8v-.9l.088.121a1.8,1.8,0,0,0,.794.6,3.223,3.223,0,0,0,1.214.214h25.156V83.406h-1.35V93.553H549.925a1.7,1.7,0,0,1-.629-.094.868.868,0,0,1-.39-.322,1.423,1.423,0,0,1-.2-.576,4.83,4.83,0,0,1-.06-.867V83.389h-3.644a6.607,6.607,0,0,0-4.47,1.643,5.25,5.25,0,0,0-1.8,4.008v.027a5.193,5.193,0,0,0,1.773,3.993,6.542,6.542,0,0,0,4.449,1.631Zm-4.8-5.691a4.054,4.054,0,0,1,1.33-3.155,5.109,5.109,0,0,1,3.468-1.331h3.148l-.824.362v6.79a6.53,6.53,0,0,0,.12,1.272,2.658,2.658,0,0,0,.21.6h-2.627a5.16,5.16,0,0,1-3.482-1.344,4.1,4.1,0,0,1-1.345-3.169v-.027Z" transform="translate(-472.38 -79.717)" fill="#fff"/>
        <g id="Group_780" data-name="Group 780" transform="translate(0 56.263)">
          <path id="Path_4414" data-name="Path 4414" d="M499.423,134.667h-1l-1.919-2.25-.944.857v1.393h-.824v-4.809h.824v2.584l2.743-2.584h.989l-2.219,2.05Z" transform="translate(-494.356 -118.972)" fill="#fff"/>
          <rect id="Rectangle_289" data-name="Rectangle 289" width="0.824" height="4.821" transform="translate(6.161 10.888)" fill="#fff"/>
          <path id="Path_4415" data-name="Path 4415" d="M504.933,129.86v4.809h-.706l-3.164-3.642v3.642h-.824V129.86h.794l3.089,3.548V129.86Z" transform="translate(-491.605 -118.972)" fill="#fff"/>
          <path id="Path_4416" data-name="Path 4416" d="M509.307,132.063v1.982a3.713,3.713,0,0,1-2.234.736,2.853,2.853,0,0,1-2.014-.686,2.254,2.254,0,0,1-.789-1.792h0a2.343,2.343,0,0,1,.805-1.775,2.946,2.946,0,0,1,1.983-.729,3.12,3.12,0,0,1,2.024.616l-.524.562a2.367,2.367,0,0,0-1.545-.508,1.846,1.846,0,0,0-1.874,1.821,1.61,1.61,0,0,0,.522,1.3,2.038,2.038,0,0,0,1.427.534,2.488,2.488,0,0,0,1.38-.389l.03-.027v-1.018h-1.425v-.631h2.219Z" transform="translate(-489.592 -118.992)" fill="#fff"/>
          <path id="Path_4417" data-name="Path 4417" d="M510.614,129.859H508.62v4.821h1.994a2.8,2.8,0,0,0,2.476-1.162,2.2,2.2,0,0,0,0-2.5A2.8,2.8,0,0,0,510.614,129.859Zm0,4.152h-1.17v-3.495h1.17a1.759,1.759,0,1,1,0,3.5Z" transform="translate(-487.42 -118.971)" fill="#fff"/>
          <path id="Path_4418" data-name="Path 4418" d="M515.4,129.79a2.934,2.934,0,0,0-2.013.7,2.328,2.328,0,0,0-.82,1.787h0a2.529,2.529,0,0,0,1.716,2.353,3.078,3.078,0,0,0,3.089-.522,2.332,2.332,0,0,0,.634-2.751A2.843,2.843,0,0,0,515.4,129.79Zm1.949,2.5a1.635,1.635,0,0,1-.541,1.276,2.062,2.062,0,0,1-1.408.531,2.1,2.1,0,0,1-1.416-.547,1.669,1.669,0,0,1-.548-1.288,1.648,1.648,0,0,1,.541-1.281,2.076,2.076,0,0,1,1.408-.54,2.1,2.1,0,0,1,1.411.541,1.668,1.668,0,0,1,.553,1.28h0Z" transform="translate(-485.449 -118.996)" fill="#fff"/>
          <path id="Path_4419" data-name="Path 4419" d="M522.532,129.86v4.809h-.826v-3.7l-1.829,2.451-1.829-2.438v3.683h-.809v-4.809h.929l1.724,2.4,1.724-2.4Z" transform="translate(-483.116 -118.972)" fill="#fff"/>
          <path id="Path_4420" data-name="Path 4420" d="M526.323,129.79a2.934,2.934,0,0,0-2.013.7,2.328,2.328,0,0,0-.82,1.787h0a2.529,2.529,0,0,0,1.716,2.353,3.078,3.078,0,0,0,3.089-.523,2.332,2.332,0,0,0,.634-2.751A2.843,2.843,0,0,0,526.323,129.79Zm1.949,2.5a1.635,1.635,0,0,1-.541,1.276,2.062,2.062,0,0,1-1.408.531,2.088,2.088,0,0,1-1.962-1.065,1.684,1.684,0,0,1,.376-2.023,2.225,2.225,0,0,1,2.242-.441,1.846,1.846,0,0,1,1.293,1.694h0Z" transform="translate(-479.995 -118.996)" fill="#fff"/>
          <path id="Path_4421" data-name="Path 4421" d="M528.99,130.515V132h2.788v.656H528.99v2.009h-.824v-4.809h3.972v.656Z" transform="translate(-477.658 -118.972)" fill="#fff"/>
          <path id="Path_4422" data-name="Path 4422" d="M537.448,133.345c0,.857-.749,1.407-1.9,1.407a3.565,3.565,0,0,1-2.207-.736l.494-.522a2.749,2.749,0,0,0,1.739.616c.63,0,1.049-.268,1.049-.71s-.3-.616-1.3-.817c-1.155-.255-1.784-.552-1.784-1.419a1.4,1.4,0,0,1,.573-1.036,1.755,1.755,0,0,1,1.241-.33,3.192,3.192,0,0,1,1.9.576l-.434.552a2.742,2.742,0,0,0-1.485-.483c-.57,0-.971.268-.971.669,0,.429.3.616,1.365.844,1.245.268,1.724.656,1.724,1.406Z" transform="translate(-475.077 -118.99)" fill="#fff"/>
          <path id="Path_4423" data-name="Path 4423" d="M539.748,129.83h-.809l-2.369,4.848h.839l.57-1.192h2.714l.57,1.192h.869l-2.369-4.848Zm-1.485,3.013,1.064-2.208,1.065,2.208h-2.128Z" transform="translate(-473.464 -118.982)" fill="#fff"/>
          <path id="Path_4424" data-name="Path 4424" d="M545.366,129.86v2.745a1.8,1.8,0,0,1-.58,1.569,2.3,2.3,0,0,1-1.729.587,2.256,2.256,0,0,1-1.707-.571,1.763,1.763,0,0,1-.572-1.545V129.86h.824v2.745a1.35,1.35,0,0,0,1.47,1.486,1.327,1.327,0,0,0,1.47-1.447V129.86Z" transform="translate(-471.36 -118.972)" fill="#fff"/>
          <path id="Path_4425" data-name="Path 4425" d="M546.884,129.859H544.89v4.821h1.994a2.8,2.8,0,0,0,2.476-1.162,2.2,2.2,0,0,0,0-2.5,2.8,2.8,0,0,0-2.476-1.162Zm0,4.152h-1.17v-3.495h1.17a1.759,1.759,0,1,1,0,3.5Z" transform="translate(-469.31 -118.971)" fill="#fff"/>
          <rect id="Rectangle_290" data-name="Rectangle 290" width="0.824" height="4.821" transform="translate(81.817 10.888)" fill="#fff"/>
          <path id="Path_4426" data-name="Path 4426" d="M555.518,129.83h-.809l-2.369,4.848h.839l.57-1.192h2.714l.554,1.192h.869Zm-1.485,3.013,1.064-2.208,1.065,2.208h-2.128Z" transform="translate(-465.589 -118.982)" fill="#fff"/>
          <path id="Path_4427" data-name="Path 4427" d="M559.778,132.829l.105-.027a1.611,1.611,0,0,0,1.205-1.019,1.383,1.383,0,0,0-.366-1.446,2.331,2.331,0,0,0-1.545-.469h-2.4v4.821h.824v-1.727h1.32l.03.027,1.335,1.7h.971l-1.47-1.848Zm-2.189-.522v-1.794h1.485c.779,0,1.23.322,1.23.884s-.48.911-1.215.911Z" transform="translate(-463.372 -118.968)" fill="#fff"/>
          <path id="Path_4428" data-name="Path 4428" d="M563.6,129.83h-.813l-2.369,4.848h.839l.57-1.192h2.713l.555,1.192h.869Zm-1.485,3.013,1.064-2.208,1.064,2.208h-2.128Z" transform="translate(-461.554 -118.982)" fill="#fff"/>
          <path id="Path_4429" data-name="Path 4429" d="M568.269,132.23l-.165-.054.15-.067a1.188,1.188,0,0,0,.725-.825,1.074,1.074,0,0,0-.32-1.009,2.107,2.107,0,0,0-1.395-.415H564.85v4.821h2.489c1.245,0,1.979-.482,1.979-1.286,0-.576-.33-.924-1.049-1.152Zm-2.609-1.727h1.47c.659,0,1.05.255,1.05.7,0,.482-.405.75-1.11.75h-1.412Zm1.694,3.535h-1.694v-1.487h1.618c1.049,0,1.214.456,1.214.723,0,.48-.42.764-1.138.764Z" transform="translate(-459.343 -118.971)" fill="#fff"/>
          <rect id="Rectangle_291" data-name="Rectangle 291" width="0.824" height="4.821" transform="translate(111.339 10.888)" fill="#fff"/>
          <path id="Path_4430" data-name="Path 4430" d="M573.208,129.83H572.4l-2.369,4.848h.839l.57-1.192h2.713l.57,1.192h.869l-2.369-4.848Zm-1.485,3.013,1.065-2.208,1.064,2.208h-2.128Z" transform="translate(-456.756 -118.982)" fill="#fff"/>
          <path id="Path_4431" data-name="Path 4431" d="M580.212,121.785h-.794v.71h.794Zm-9.7,6.214h.779v-6.214h-.779Zm-67.755-4.7h-.779V127.3h-3.089v-4h-1.213a4.516,4.516,0,0,0-1.32.174,3.071,3.071,0,0,0-1,.5,2.3,2.3,0,0,0-.644.75,2.025,2.025,0,0,0-.225.937,2.12,2.12,0,0,0,.255,1.058,2.015,2.015,0,0,0,.706.723,3.384,3.384,0,0,0,1.02.429,5.178,5.178,0,0,0,1.215.134h5.082v-4.7Zm-4.633,4h-.764a3.293,3.293,0,0,1-.824-.107,2.522,2.522,0,0,1-.674-.322,1.436,1.436,0,0,1-.45-.522,1.511,1.511,0,0,1-.165-.7,1.34,1.34,0,0,1,.177-.683,1.851,1.851,0,0,1,.48-.522,2.2,2.2,0,0,1,.674-.335,2.554,2.554,0,0,1,.779-.121h.764v3.322Zm2.471,2.223h.794v-.71H500.6Zm-1.71-7.754h-.794v.71h.794Zm47.364,0h-.794v.71h.794Zm-44.305,7.754h.794v-.71h-.794Zm45.655-7.754H546.8v.71h.794Zm31.231,0h-.794v.71h.794Zm-81.324,0h-.794v.71h.794Zm52.656,7.754h.794v-.71h-.794Zm4.978-6.241h-.779v4h-2.923v-4.007h-.779v4h-3.089v-4h-1.215a4.517,4.517,0,0,0-1.32.174,3.07,3.07,0,0,0-1,.5,2.3,2.3,0,0,0-.644.75,2.025,2.025,0,0,0-.225.937,2.122,2.122,0,0,0,.255,1.058,2.016,2.016,0,0,0,.706.723,3.228,3.228,0,0,0,1.02.429,5.176,5.176,0,0,0,1.214.134h8.786v-4.7Zm-8.337,4h-.758a3.293,3.293,0,0,1-.824-.107,2.526,2.526,0,0,1-.675-.322,1.436,1.436,0,0,1-.45-.522,1.512,1.512,0,0,1-.165-.7,1.34,1.34,0,0,1,.177-.683,1.851,1.851,0,0,1,.48-.522,2.2,2.2,0,0,1,.675-.335,2.554,2.554,0,0,1,.779-.121h.764V127.3Zm4.708,2.223h.794v-.71h-.794Zm-43.8-5.624a2.228,2.228,0,0,0-.689-.456,2.429,2.429,0,0,0-.929-.147h-.567v.7h.674a1.548,1.548,0,0,1,.54.107,1.234,1.234,0,0,1,.42.281,1.093,1.093,0,0,1,.225.4,1.817,1.817,0,0,1,.06.522v2.01h-3.629v.7h4.408v-2.732a2.556,2.556,0,0,0-.12-.763,1.434,1.434,0,0,0-.375-.6Zm59.718,3.4H564.14l1.365-2.906a7.64,7.64,0,0,0-.659-.456,5.162,5.162,0,0,0-.719-.375,4.879,4.879,0,0,0-.749-.255,2.877,2.877,0,0,0-.749-.094,2.8,2.8,0,0,0-.749.094q-.382.1-.749.241a4.446,4.446,0,0,0-.719.375,7.367,7.367,0,0,0-.644.456l1.365,2.906h-2.894v-4h-.779v4.848a2.4,2.4,0,0,1-.03.5,1.012,1.012,0,0,1-.12.335.58.58,0,0,1-.225.188.907.907,0,0,1-.36.054h-.177c-.045,0-.12-.027-.21-.04l-.21.669a2.539,2.539,0,0,0,.629.079,1.813,1.813,0,0,0,.706-.121,1.158,1.158,0,0,0,.464-.348,1.49,1.49,0,0,0,.255-.552,3.54,3.54,0,0,0,.075-.736V128h9.974v-6.21h-.779V127.3Zm-5.5,0-1.215-2.665a3.207,3.207,0,0,1,.914-.5,3.053,3.053,0,0,1,.989-.158,3.127,3.127,0,0,1,1.034.188,3.008,3.008,0,0,1,.87.469l-1.215,2.665Zm-7.591,2.223h.794v-.71h-.794Zm57.829-7.754v6.214h.779V121.76Zm-3.028,5.519h-2.669a2.179,2.179,0,0,0,.24-1.018,2.263,2.263,0,0,0-.225-1,2.628,2.628,0,0,0-1.5-1.34,3.08,3.08,0,0,0-1.125-.2,2.788,2.788,0,0,0-1.08.2,3.016,3.016,0,0,0-.883.535,2.311,2.311,0,0,0-.585.8,2.413,2.413,0,0,0-.21.991,2.1,2.1,0,0,0,.06.535,4.881,4.881,0,0,0,.165.5h-2.4a2.179,2.179,0,0,0,.24-1.018,2.263,2.263,0,0,0-.225-1,2.629,2.629,0,0,0-1.5-1.34,3.08,3.08,0,0,0-1.124-.2,2.788,2.788,0,0,0-1.08.2,3.015,3.015,0,0,0-.883.535,2.308,2.308,0,0,0-.584.8,2.416,2.416,0,0,0-.21.991,2.111,2.111,0,0,0,.06.535,4.865,4.865,0,0,0,.165.5h-2.459v-5.519h-.779v5.519H588.08v-1.058a2.558,2.558,0,0,0-.12-.763,1.416,1.416,0,0,0-.375-.616,2.006,2.006,0,0,0-.675-.456,2.775,2.775,0,0,0-.959-.147h-3.434l1.455-2.491h-.839l-1.485,2.491a1.362,1.362,0,0,0,.12.389,1.517,1.517,0,0,0,.225.308h3.958a1.808,1.808,0,0,1,.629.094,1.338,1.338,0,0,1,.434.268,1.092,1.092,0,0,1,.225.4,1.781,1.781,0,0,1,.06.509v1.058h-7.166v-4h-1.215a4.517,4.517,0,0,0-1.32.174,3.072,3.072,0,0,0-1,.5,2.3,2.3,0,0,0-.644.75,2.026,2.026,0,0,0-.225.937,2.121,2.121,0,0,0,.255,1.058,2.016,2.016,0,0,0,.706.723,3.226,3.226,0,0,0,1.019.429,5.176,5.176,0,0,0,1.214.134H594.3a3.006,3.006,0,0,0,.9.576,2.83,2.83,0,0,0,1.125.214,3.032,3.032,0,0,0,1.154-.214,2.9,2.9,0,0,0,.929-.576h3.419a3.005,3.005,0,0,0,.9.576,2.829,2.829,0,0,0,1.124.214,3.03,3.03,0,0,0,1.155-.214,2.906,2.906,0,0,0,.929-.576h3.943v-6.214H609.1v5.519Zm-29.746,0h-.764a3.291,3.291,0,0,1-.824-.107,2.522,2.522,0,0,1-.674-.322,1.437,1.437,0,0,1-.45-.522,1.511,1.511,0,0,1-.165-.7,1.34,1.34,0,0,1,.177-.683,1.85,1.85,0,0,1,.48-.522,2.2,2.2,0,0,1,.674-.335,2.554,2.554,0,0,1,.779-.121h.764v3.322Zm18.862-.308a1.753,1.753,0,0,1-.434.576,2.293,2.293,0,0,1-2.249.361,2.076,2.076,0,0,1-.629-.389,1.855,1.855,0,0,1-.42-.576,1.585,1.585,0,0,1-.15-.7,1.685,1.685,0,0,1,.15-.71,1.71,1.71,0,0,1,.42-.576,2.078,2.078,0,0,1,.629-.389,2.187,2.187,0,0,1,.794-.147,2.408,2.408,0,0,1,.824.134,1.957,1.957,0,0,1,.644.375,1.752,1.752,0,0,1,.435.576,1.721,1.721,0,0,1,.15.736,1.669,1.669,0,0,1-.16.72Zm7.526,0a1.751,1.751,0,0,1-.435.576,2.293,2.293,0,0,1-2.249.361,2.08,2.08,0,0,1-.63-.389,1.855,1.855,0,0,1-.42-.576,1.582,1.582,0,0,1-.15-.7,1.683,1.683,0,0,1,.15-.71,1.709,1.709,0,0,1,.42-.576,2.081,2.081,0,0,1,.63-.389,2.187,2.187,0,0,1,.794-.147,2.408,2.408,0,0,1,.824.134,1.957,1.957,0,0,1,.644.375,1.749,1.749,0,0,1,.434.576,1.716,1.716,0,0,1,.15.736,1.667,1.667,0,0,1-.157.72Zm-71.114.308H533.4a2.574,2.574,0,0,1-1.065-.174,1.479,1.479,0,0,1-.618-.522,2.7,2.7,0,0,0,.075-.656v-2.241h-.779v2.344a1.252,1.252,0,0,1-.36.951,1.465,1.465,0,0,1-1.08.362,1.777,1.777,0,0,1-.618-.094,1.556,1.556,0,0,1-.48-.255,1.175,1.175,0,0,1-.315-.389,1.041,1.041,0,0,1-.12-.469v-2.45h-.779v2.4a1.16,1.16,0,0,1-.105.535,1.045,1.045,0,0,1-.285.362,1.326,1.326,0,0,1-.42.214,1.9,1.9,0,0,1-.5.067h-1.5v-3.576h-.779v3.575h-4.078l1.365-2.906a7.631,7.631,0,0,0-.659-.456,5.166,5.166,0,0,0-.719-.375,4.878,4.878,0,0,0-.749-.255,2.876,2.876,0,0,0-.749-.094,2.8,2.8,0,0,0-.749.094q-.382.1-.749.241a4.436,4.436,0,0,0-.719.375,7.354,7.354,0,0,0-.644.456l1.365,2.906H513.9v-4h-1.245a4.4,4.4,0,0,0-1.3.188,3.311,3.311,0,0,0-1.02.5,2.346,2.346,0,0,0-.659.75,2.052,2.052,0,0,0-.24.951,2.122,2.122,0,0,0,.255,1.058,2.015,2.015,0,0,0,.706.723,3.369,3.369,0,0,0,1.02.415,5.215,5.215,0,0,0,1.23.134h.465v.2a.869.869,0,0,1-.345.777,1.713,1.713,0,0,1-.971.228,3.142,3.142,0,0,1-.644-.067,3.524,3.524,0,0,1-.659-.214l-.24.669a6.231,6.231,0,0,0,.794.214,3.035,3.035,0,0,0,.689.079,2.381,2.381,0,0,0,1.65-.483,1.676,1.676,0,0,0,.509-1.3v-.134h12.055a2.229,2.229,0,0,0,1-.214,2.066,2.066,0,0,0,.719-.576,1.919,1.919,0,0,0,.764.656,2.579,2.579,0,0,0,1.154.228,2.923,2.923,0,0,0,1.185-.214,1.573,1.573,0,0,0,.749-.669,2.072,2.072,0,0,0,.24.295,1.429,1.429,0,0,0,.36.255,2.419,2.419,0,0,0,.539.188,3.255,3.255,0,0,0,.555.067h2.237V121.73h-.779v5.519Zm-21.561,0h-.779a3.29,3.29,0,0,1-.824-.107,1.91,1.91,0,0,1-.674-.322,1.4,1.4,0,0,1-.45-.509,1.471,1.471,0,0,1-.165-.7,1.272,1.272,0,0,1,.177-.683,1.733,1.733,0,0,1,.48-.535,2.4,2.4,0,0,1,1.454-.469h.779v3.311Zm4.273,0-1.215-2.665a3.2,3.2,0,0,1,.914-.5,3.05,3.05,0,0,1,.989-.158,3.129,3.129,0,0,1,1.034.188,3.006,3.006,0,0,1,.869.469l-1.206,2.657h-1.38Zm20.316.7h.779v-6.214H537.7Z" transform="translate(-494.481 -121.73)" fill="#fff"/>
        </g>
      </g>
      <g id="Group_782" data-name="Group 782" transform="translate(0 16.227)">
        <path id="Path_4432" data-name="Path 4432" d="M598.024,95.52c-9.506,0-16.418,6.4-16.418,14.223v.079c0,7.821,6.822,14.156,16.329,14.156s16.417-6.4,16.417-14.223v-.079C614.352,101.855,607.53,95.52,598.024,95.52Zm9.236,14.3c0,4.714-3.779,8.571-9.236,8.571s-9.326-3.937-9.326-8.651v-.079c0-4.714,3.779-8.571,9.236-8.571s9.326,3.937,9.326,8.651Zm-101.73,8.45H517.27v5.219H494.48V118.7l10.256-7.513c3.823-2.826,5.322-4.326,5.322-6.6s-1.71-3.575-4.138-3.575-4,1.179-6.3,3.7l-4.753-3.415c3.043-3.7,5.983-5.7,11.485-5.7,6.387,0,10.6,3.335,10.6,8.49v.079c0,4.593-2.639,6.883-8.1,10.643l-6.732,4.647-1.3.9,4.693-2.089Zm74.32-3.375v.079c0,5.183-4.228,9-11.1,9a15.786,15.786,0,0,1-12.009-4.754l4.663-3.964a9.835,9.835,0,0,0,7.436,3.311c2.549,0,4.363-1.3,4.363-3.335v-.079c0-2.237-2.249-3.495-6.028-3.495h-2.818l-1.049-3.857,9.88-8.879-3.958,2.277H558.561V96.015h20.811v4.553l-7.782,6.642c4.183.631,8.277,2.6,8.277,7.7Z" transform="translate(-494.48 -90.585)" fill="#fff"/>
        <path id="Path_4433" data-name="Path 4433" d="M535.117,109.413a5.88,5.88,0,0,0-1.064-.415,7.357,7.357,0,0,0-4.213.107,1.1,1.1,0,0,0-.12.04,7.062,7.062,0,0,0-.674.268c-.2.079-.39.188-.57.281a10.338,10.338,0,0,0-1.275.788,22,22,0,0,1-.135-6.12h.015c1.02.576.734,2.17.524,2.625,0,0,0,.013.015,0a2.6,2.6,0,0,0,.39-3.187s0-.013.015,0a3.249,3.249,0,0,1,.465.415,2.251,2.251,0,0,1,.57,1.353c.015.228,0,.429,0,.616v.134h0a2.363,2.363,0,0,0,0-2.384,3.379,3.379,0,0,0-.57-.71l-.225-.2v-.013c.075.013.15.04.225.054a2.39,2.39,0,0,1,.57.268,2.1,2.1,0,0,1,.794.964,1.9,1.9,0,0,1,.177.884h.015a1.984,1.984,0,0,0-1-2.5,2.453,2.453,0,0,0-.57-.228c-.105-.027-.2-.04-.27-.054v-.013a1.821,1.821,0,0,0,.27-.013,3.634,3.634,0,0,1,.57.04,2.1,2.1,0,0,1,.794.281,1.979,1.979,0,0,1,.539.509h.015a1.368,1.368,0,0,0-.554-.964,2.251,2.251,0,0,0-1.365-.442,2.062,2.062,0,0,0-.719.121h0a1.262,1.262,0,0,1,.734-.456,2.141,2.141,0,0,1,.57-.067,1.17,1.17,0,0,1,.465.094s.015,0,0-.013a1.869,1.869,0,0,0-.48-.348,1.742,1.742,0,0,0-.57-.174,1.5,1.5,0,0,0-1.38.616h-.015c-.06-.107-.135-.228-.2-.348a3.908,3.908,0,0,1-.315-.937h-.012a3.9,3.9,0,0,1-.315.937,2.71,2.71,0,0,1-.2.348h-.019a1.528,1.528,0,0,0-1.195-.62,1.56,1.56,0,0,0-1.25.526v.013a1.607,1.607,0,0,1,1.765.429h0a2.266,2.266,0,0,0-2.279.509,1.478,1.478,0,0,0-.375.8s0,.013.015,0a1.543,1.543,0,0,1,.36-.389,2.534,2.534,0,0,1,1.829-.442v.013a2.39,2.39,0,0,0-1.829,1.313,2.126,2.126,0,0,0-.015,1.473h.015v-.04a2.225,2.225,0,0,1,1.784-2.143s.015,0,0,.013a2.472,2.472,0,0,0-.809,3.281h.015a2.547,2.547,0,0,1,1.02-2.517h.015a2.583,2.583,0,0,0,.39,3.188h.015c-.21-.456-.5-2.05.524-2.625h.015a21.994,21.994,0,0,1-.135,6.12,10.191,10.191,0,0,0-2.534-1.34,2.8,2.8,0,0,0-.315-.094,7.54,7.54,0,0,0-2.383-.308,6.726,6.726,0,0,0-2.471.562,1.768,1.768,0,0,0-.24.121c-.03,0,0,.04.015.04a1.366,1.366,0,0,1,.225-.054,7.587,7.587,0,0,1,2.471-.214,8.083,8.083,0,0,1,2.383.576,12.344,12.344,0,0,1,2.848,1.66,26.625,26.625,0,0,1-2.848,2.17l-.088.04a.7.7,0,0,0-.689-.228.634.634,0,0,0-.5.442.5.5,0,0,0,.135.509,1.033,1.033,0,0,0,1.14.147,15.236,15.236,0,0,0,3.148-2.344c.105-.094.21-.174.33-.268a2.937,2.937,0,0,0,.33.255c.585.469,1.11.937,1.589,1.326.2.158.39.308.57.442a5.221,5.221,0,0,0,.794.5,1.15,1.15,0,0,0,1.275-.027c.015-.013.045-.027.06-.054a.608.608,0,0,0,.135-.509.552.552,0,0,0-.2-.295.83.83,0,0,0-.315-.147.727.727,0,0,0-.689.228,2.687,2.687,0,0,1-.27-.147q-.413-.27-.794-.576c-.176-.147-.375-.295-.57-.456-.39-.322-.824-.669-1.29-1.031a13.818,13.818,0,0,1,1.29-.867c.2-.107.375-.228.57-.322.255-.134.524-.268.794-.389a10.05,10.05,0,0,1,1.275-.442,7.629,7.629,0,0,1,2.938-.158,10.518,10.518,0,0,1,1.049.214c.03,0,.045-.027.015-.04Z" transform="translate(-482.759 -88.97)" fill="#fff"/>
        <path id="Rectangle_292" data-name="Rectangle 292" d="M.129.129,2.712-.017,2.566,2.566l-2.583.146Z" transform="translate(43.789 37.925) rotate(-135)" fill="#fff"/>
        <path id="Rectangle_293" data-name="Rectangle 293" d="M0,0,2.045.071l.071,2.241L.071,2.241Z" transform="translate(27.572 26.355) rotate(-72)" fill="#fff"/>
        <path id="Rectangle_294" data-name="Rectangle 294" d="M.028.027,1.9,0,1.866,1.675,0,1.706Z" transform="translate(34.501 7.536) rotate(9)" fill="#fff"/>
        <path id="Rectangle_295" data-name="Rectangle 295" d="M0,0,1.774.1l.1,1.774L.1,1.774Z" transform="translate(56.908 18.976) rotate(-45)" fill="#fff"/>
        <path id="Rectangle_296" data-name="Rectangle 296" d="M0,0,1.715.081,1.8,1.914.081,1.833Z" transform="translate(56.258 15.347) rotate(-63)" fill="#fff"/>
        <path id="Rectangle_297" data-name="Rectangle 297" d="M.027.028,1.706,0,1.675,1.866,0,1.9Z" transform="translate(34.507 30.392) rotate(-99)" fill="#fff"/>
        <path id="Rectangle_298" data-name="Rectangle 298" d="M.027.028,1.706,0,1.675,1.866,0,1.9Z" transform="translate(51.481 9.525) rotate(-99)" fill="#fff"/>
        <path id="Rectangle_299" data-name="Rectangle 299" d="M.071.072,1.786-.009,1.705,1.824-.01,1.9Z" transform="translate(38.892 32.451) rotate(-117)" fill="#fff"/>
        <path id="Rectangle_300" data-name="Rectangle 300" d="M.088.088l1.774-.1-.1,1.774-1.774.1Z" transform="translate(43.792 7.391) rotate(-135)" fill="#fff"/>
        <path id="Rectangle_301" data-name="Rectangle 301" d="M.069.069,1.557-.009,1.479,1.427l-1.488.078Z" transform="translate(41.645 6.832) rotate(36)" fill="#fff"/>
        <path id="Rectangle_302" data-name="Rectangle 302" d="M.069.069,1.557-.009,1.479,1.427l-1.488.078Z" transform="translate(45.57 28.984) rotate(36)" fill="#fff"/>
        <path id="Rectangle_303" data-name="Rectangle 303" d="M0,0,1.529.048l.048,1.4L.048,1.4Z" transform="translate(31.625 13.424) rotate(-18)" fill="#fff"/>
        <path id="Rectangle_304" data-name="Rectangle 304" d="M0,0,1.529.048l.048,1.4L.048,1.4Z" transform="translate(54.007 23.612) rotate(-18)" fill="#fff"/>
        <path id="Rectangle_305" data-name="Rectangle 305" d="M0,0,1.437.078l.078,1.488L.078,1.488Z" transform="translate(30.314 20.865) rotate(-54)" fill="#fff"/>
        <path id="Rectangle_306" data-name="Rectangle 306" d="M0,0,2.669.118l.118,2.5L.118,2.5Z" transform="translate(60.124 23.713) rotate(-27)" fill="#fff"/>
        <path id="Rectangle_307" data-name="Rectangle 307" d="M.04.04,2.485,0,2.44,2.717l-2.445.045Z" transform="translate(31.396 34.206) rotate(-99)" fill="#fff"/>
        <path id="Rectangle_308" data-name="Rectangle 308" d="M.04.04,2.485,0,2.44,2.717l-2.445.045Z" transform="translate(53.859 6.613) rotate(-99)" fill="#fff"/>
        <path id="Rectangle_309" data-name="Rectangle 309" d="M0,0,2.106.115,2.221,2.3.115,2.18Z" transform="translate(25.806 21.517) rotate(-54)" fill="#fff"/>
        <path id="Rectangle_310" data-name="Rectangle 310" d="M.072.071,1.9-.01,1.824,1.705l-1.833.081Z" transform="translate(38.895 5.493) rotate(27)" fill="#fff"/>
        <path id="Rectangle_311" data-name="Rectangle 311" d="M0,0,1.833.081,1.914,1.8.081,1.715Z" transform="translate(28.8 14.623) rotate(-27)" fill="#fff"/>
        <path id="Rectangle_312" data-name="Rectangle 312" d="M.088.088l1.774-.1-.1,1.774-1.774.1Z" transform="translate(43.801 33.176) rotate(-135)" fill="#fff"/>
        <path id="Rectangle_313" data-name="Rectangle 313" d="M0,0,1.4.048l.048,1.529-1.4-.048Z" transform="translate(54.005 14.323) rotate(-72)" fill="#fff"/>
        <rect id="Rectangle_314" data-name="Rectangle 314" width="1.38" height="1.545" transform="translate(34.125 27.594) rotate(-90)" fill="#fff"/>
        <path id="Rectangle_315" data-name="Rectangle 315" d="M0,0,2.669.118l.118,2.5L.118,2.5Z" transform="translate(23.786 13.159) rotate(-27)" fill="#fff"/>
        <path id="Rectangle_316" data-name="Rectangle 316" d="M0,0,2.5.118l.118,2.669-2.5-.118Z" transform="translate(23.797 24.776) rotate(-63)" fill="#fff"/>
        <path id="Rectangle_317" data-name="Rectangle 317" d="M.063.063,2.3-.008,2.233,2.037l-2.241.071Z" transform="translate(35.493 4.409) rotate(18)" fill="#fff"/>
        <path id="Rectangle_318" data-name="Rectangle 318" d="M.063.063,2.3-.008,2.233,2.037l-2.241.071Z" transform="translate(50.562 30.832) rotate(18)" fill="#fff"/>
        <path id="Rectangle_319" data-name="Rectangle 319" d="M0,0,2.241.071l.071,2.045L.071,2.045Z" transform="translate(57.155 25.046) rotate(-18)" fill="#fff"/>
        <path id="Rectangle_320" data-name="Rectangle 320" d="M0,0,2.18.115,2.3,2.221.115,2.106Z" transform="translate(58.614 21.067) rotate(-36)" fill="#fff"/>
        <path id="Rectangle_321" data-name="Rectangle 321" d="M0,0,2.045.071l.071,2.241L.071,2.241Z" transform="translate(57.171 12.883) rotate(-72)" fill="#fff"/>
        <rect id="Rectangle_322" data-name="Rectangle 322" width="2.022" height="2.264" transform="translate(54.396 9.502) rotate(-90)" fill="#fff"/>
        <path id="Rectangle_323" data-name="Rectangle 323" d="M.063.063,2.108-.008,2.037,2.233-.008,2.3Z" transform="translate(35.481 33.533) rotate(-108)" fill="#fff"/>
        <path id="Rectangle_324" data-name="Rectangle 324" d="M.1.1l2.18-.115L2.167,2.092l-2.18.115Z" transform="translate(46.663 35.161) rotate(-144)" fill="#fff"/>
        <path id="Rectangle_325" data-name="Rectangle 325" d="M0,0,1.715.081,1.8,1.914.081,1.833Z" transform="translate(28.797 23.322) rotate(-63)" fill="#fff"/>
        <rect id="Rectangle_326" data-name="Rectangle 326" width="1.545" height="1.38" transform="translate(34.14 10.345)" fill="#fff"/>
        <path id="Rectangle_327" data-name="Rectangle 327" d="M0,0,1.488.078l.078,1.437L.078,1.437Z" transform="translate(30.308 17.058) rotate(-36)" fill="#fff"/>
        <path id="Rectangle_328" data-name="Rectangle 328" d="M.043.043l1.4-.048L1.39,1.524l-1.4.048Z" transform="translate(48.969 9.903) rotate(-108)" fill="#fff"/>
        <path id="Rectangle_329" data-name="Rectangle 329" d="M.069.069,1.506-.009,1.427,1.479l-1.437.078Z" transform="translate(45.565 8.95) rotate(-126)" fill="#fff"/>
        <path id="Rectangle_330" data-name="Rectangle 330" d="M0,0,1.286.021l.021,1.155L.021,1.155Z" transform="translate(51.892 24.223) rotate(-9)" fill="#fff"/>
        <path id="Rectangle_331" data-name="Rectangle 331" d="M0,0,1.221.069,1.29,1.29.069,1.221Z" transform="translate(53.796 18.969) rotate(-45)" fill="#fff"/>
        <path id="Rectangle_332" data-name="Rectangle 332" d="M0,0,2.5.118l.118,2.669-2.5-.118Z" transform="translate(60.109 14.227) rotate(-63)" fill="#fff"/>
        <rect id="Rectangle_333" data-name="Rectangle 333" width="2.264" height="2.022" transform="translate(54.396 28.451)" fill="#fff"/>
        <path id="Rectangle_334" data-name="Rectangle 334" d="M0,0,2.241.071l.071,2.045L.071,2.045Z" transform="translate(27.574 11.59) rotate(-18)" fill="#fff"/>
        <path id="Rectangle_335" data-name="Rectangle 335" d="M.063.063,2.108-.008,2.037,2.233-.008,2.3Z" transform="translate(50.565 7.108) rotate(-108)" fill="#fff"/>
        <path id="Rectangle_336" data-name="Rectangle 336" d="M.1.1l2.18-.115L2.167,2.092l-2.18.115Z" transform="translate(41.469 5.861) rotate(-144)" fill="#fff"/>
        <path id="Rectangle_337" data-name="Rectangle 337" d="M0,0,1.833.081,1.914,1.8.081,1.715Z" transform="translate(56.26 22.597) rotate(-27)" fill="#fff"/>
        <path id="Rectangle_338" data-name="Rectangle 338" d="M0,0,1.774.1l.1,1.774L.1,1.774Z" transform="translate(28.032 18.975) rotate(-45)" fill="#fff"/>
        <path id="Rectangle_339" data-name="Rectangle 339" d="M0,0,1.488.078l.078,1.437L.078,1.437Z" transform="translate(55.109 20.564) rotate(-36)" fill="#fff"/>
        <path id="Rectangle_340" data-name="Rectangle 340" d="M.043.043l1.4-.048L1.39,1.524l-1.4.048Z" transform="translate(37.556 29.881) rotate(-108)" fill="#fff"/>
        <path id="Rectangle_341" data-name="Rectangle 341" d="M.061.061,1.282-.008,1.213,1.213l-1.221.069Z" transform="translate(43.803 27.829) rotate(45)" fill="#fff"/>
        <path id="Rectangle_342" data-name="Rectangle 342" d="M.019.019,1.305,0,1.284,1.153,0,1.174Z" transform="translate(36.835 10.4) rotate(9)" fill="#fff"/>
        <path id="Rectangle_343" data-name="Rectangle 343" d="M0,0,1.18.056l.056,1.261L.056,1.261Z" transform="translate(32.531 22.229) rotate(-63)" fill="#fff"/>
        <rect id="Rectangle_344" data-name="Rectangle 344" width="2.264" height="2.022" transform="translate(30.916 7.466)" fill="#fff"/>
        <path id="Rectangle_345" data-name="Rectangle 345" d="M.1.1,2.207-.013l-.115,2.18-2.106.115Z" transform="translate(46.116 5.863) rotate(-126)" fill="#fff"/>
        <path id="Rectangle_346" data-name="Rectangle 346" d="M.072.071,1.9-.01,1.824,1.705l-1.833.081Z" transform="translate(47.808 30.02) rotate(27)" fill="#fff"/>
        <path id="Rectangle_347" data-name="Rectangle 347" d="M0,0,1.679.031,1.71,1.9.031,1.869Z" transform="translate(31.047 27.25) rotate(-81)" fill="#fff"/>
        <path id="Rectangle_348" data-name="Rectangle 348" d="M0,0,1.679.031,1.71,1.9.031,1.869Z" transform="translate(54.386 12.09) rotate(-81)" fill="#fff"/>
        <rect id="Rectangle_349" data-name="Rectangle 349" width="1.545" height="1.38" transform="translate(51.892 26.201)" fill="#fff"/>
        <path id="Rectangle_350" data-name="Rectangle 350" d="M0,0,1.437.078l.078,1.488L.078,1.488Z" transform="translate(55.117 17.369) rotate(-54)" fill="#fff"/>
        <path id="Rectangle_351" data-name="Rectangle 351" d="M.069.069,1.506-.009,1.427,1.479l-1.437.078Z" transform="translate(41.639 31.111) rotate(-126)" fill="#fff"/>
        <path id="Rectangle_352" data-name="Rectangle 352" d="M.049.049,1.311-.007l-.056,1.18-1.261.056Z" transform="translate(40.114 8.861) rotate(27)" fill="#fff"/>
        <path id="Rectangle_353" data-name="Rectangle 353" d="M.049.049,1.311-.007l-.056,1.18-1.261.056Z" transform="translate(46.864 27.414) rotate(27)" fill="#fff"/>
        <path id="Rectangle_354" data-name="Rectangle 354" d="M.019.019,1.305,0,1.284,1.153,0,1.174Z" transform="translate(49.658 26.181) rotate(9)" fill="#fff"/>
        <path id="Rectangle_355" data-name="Rectangle 355" d="M0,0,1.261.056l.056,1.18L.056,1.18Z" transform="translate(32.538 15.703) rotate(-27)" fill="#fff"/>
        <path id="Rectangle_356" data-name="Rectangle 356" d="M0,0,1.261.056l.056,1.18L.056,1.18Z" transform="translate(53.322 21.726) rotate(-27)" fill="#fff"/>
        <path id="Rectangle_357" data-name="Rectangle 357" d="M0,0,1.155.021l.021,1.286L.021,1.286Z" transform="translate(34.215 25.174) rotate(-81)" fill="#fff"/>
        <path id="Rectangle_358" data-name="Rectangle 358" d="M.019.019,1.174,0,1.153,1.284,0,1.305Z" transform="translate(49.657 11.761) rotate(-99)" fill="#fff"/>
        <path id="Rectangle_359" data-name="Rectangle 359" d="M.049.049l1.18-.056L1.174,1.255l-1.18.056Z" transform="translate(40.123 29.081) rotate(-117)" fill="#fff"/>
        <path id="Rectangle_360" data-name="Rectangle 360" d="M.04.04,2.762-.005,2.717,2.44,0,2.485Z" transform="translate(31.406 3.738) rotate(9)" fill="#fff"/>
        <path id="Rectangle_361" data-name="Rectangle 361" d="M.04.04,2.762-.005,2.717,2.44,0,2.485Z" transform="translate(53.841 31.323) rotate(9)" fill="#fff"/>
        <path id="Rectangle_362" data-name="Rectangle 362" d="M.129.129,2.712-.017,2.566,2.566l-2.583.146Z" transform="translate(43.778 3.812) rotate(-135)" fill="#fff"/>
        <path id="Rectangle_363" data-name="Rectangle 363" d="M0,0,2.18.115,2.3,2.221.115,2.106Z" transform="translate(25.807 16.424) rotate(-36)" fill="#fff"/>
        <path id="Rectangle_364" data-name="Rectangle 364" d="M0,0,2.106.115,2.221,2.3.115,2.18Z" transform="translate(58.617 16.868) rotate(-54)" fill="#fff"/>
        <rect id="Rectangle_365" data-name="Rectangle 365" width="2.022" height="2.264" transform="translate(30.916 30.474) rotate(-90)" fill="#fff"/>
        <path id="Rectangle_366" data-name="Rectangle 366" d="M.1.1,2.207-.013l-.115,2.18-2.106.115Z" transform="translate(40.93 35.16) rotate(-126)" fill="#fff"/>
        <path id="Rectangle_367" data-name="Rectangle 367" d="M.028.027,1.9,0,1.866,1.675,0,1.706Z" transform="translate(51.477 28.413) rotate(9)" fill="#fff"/>
        <path id="Rectangle_368" data-name="Rectangle 368" d="M0,0,1.869.031,1.9,1.71.031,1.679Z" transform="translate(31.043 10.692) rotate(-9)" fill="#fff"/>
        <path id="Rectangle_369" data-name="Rectangle 369" d="M0,0,1.869.031,1.9,1.71.031,1.679Z" transform="translate(54.404 25.869) rotate(-9)" fill="#fff"/>
        <path id="Rectangle_370" data-name="Rectangle 370" d="M.071.072,1.786-.009,1.705,1.824-.01,1.9Z" transform="translate(47.821 7.924) rotate(-117)" fill="#fff"/>
        <path id="Rectangle_371" data-name="Rectangle 371" d="M.043.043,1.572-.006l-.048,1.4-1.529.048Z" transform="translate(37.563 8.053) rotate(18)" fill="#fff"/>
        <path id="Rectangle_372" data-name="Rectangle 372" d="M.043.043,1.572-.006l-.048,1.4-1.529.048Z" transform="translate(48.97 28.032) rotate(18)" fill="#fff"/>
        <path id="Rectangle_373" data-name="Rectangle 373" d="M0,0,1.4.048l.048,1.529-1.4-.048Z" transform="translate(31.631 24.498) rotate(-72)" fill="#fff"/>
        <rect id="Rectangle_374" data-name="Rectangle 374" width="1.38" height="1.545" transform="translate(51.892 11.738) rotate(-90)" fill="#fff"/>
        <path id="Rectangle_375" data-name="Rectangle 375" d="M.061.061,1.282-.008,1.213,1.213l-1.221.069Z" transform="translate(43.797 8.323) rotate(45)" fill="#fff"/>
        <path id="Rectangle_376" data-name="Rectangle 376" d="M0,0,1.286.021l.021,1.155L.021,1.155Z" transform="translate(34.223 12.757) rotate(-9)" fill="#fff"/>
        <path id="Rectangle_377" data-name="Rectangle 377" d="M0,0,1.221.069,1.29,1.29.069,1.221Z" transform="translate(31.972 18.963) rotate(-45)" fill="#fff"/>
        <path id="Rectangle_378" data-name="Rectangle 378" d="M0,0,1.18.056l.056,1.261L.056,1.261Z" transform="translate(53.316 16.2) rotate(-63)" fill="#fff"/>
        <path id="Rectangle_379" data-name="Rectangle 379" d="M0,0,1.155.021l.021,1.286L.021,1.286Z" transform="translate(51.889 13.718) rotate(-81)" fill="#fff"/>
        <path id="Rectangle_380" data-name="Rectangle 380" d="M.019.019,1.174,0,1.153,1.284,0,1.305Z" transform="translate(36.828 27.539) rotate(-99)" fill="#fff"/>
        <path id="Rectangle_381" data-name="Rectangle 381" d="M.049.049l1.18-.056L1.174,1.255l-1.18.056Z" transform="translate(46.865 10.531) rotate(-117)" fill="#fff"/>
      </g>
    </g>
  </g>
</svg>
