<svg xmlns="http://www.w3.org/2000/svg" width="56.993" height="63.2" viewBox="0 0 56.993 63.2">
  <g id="svgexport-6_91_" data-name="svgexport-6 (91)" transform="translate(0.6 0.6)">
    <g id="Group_492" data-name="Group 492" transform="translate(0)">
      <g id="Group_491" data-name="Group 491">
        <path id="Path_54493" data-name="Path 54493" d="M395.658,143.46a3.3,3.3,0,1,0,3.3,3.3A3.307,3.307,0,0,0,395.658,143.46Zm0,4.79a1.487,1.487,0,1,1,1.485-1.488A1.49,1.49,0,0,1,395.658,148.25Z" transform="translate(-347.945 -126.088)" stroke="#000" stroke-width="1.2"/>
        <path id="Path_54494" data-name="Path 54494" d="M319.867,143.46a3.3,3.3,0,1,0,3.3,3.3A3.307,3.307,0,0,0,319.867,143.46Zm0,4.79a1.487,1.487,0,1,1,1.485-1.488A1.49,1.49,0,0,1,319.867,148.25Z" transform="translate(-281.332 -126.088)" stroke="#000" stroke-width="1.2"/>
        <path id="Path_54495" data-name="Path 54495" d="M330.823,39.439H318.086a1.527,1.527,0,0,0-1.525,1.525v6.092a1.527,1.527,0,0,0,1.525,1.525h4.4a.908.908,0,1,0,0-1.816h-4.1v-5.51h12.151v5.51H326.9a.908.908,0,0,0,0,1.816h3.926a1.525,1.525,0,0,0,1.522-1.525V40.964A1.525,1.525,0,0,0,330.823,39.439Z" transform="translate(-281.331 -34.663)" stroke="#000" stroke-width="1.2"/>
        <path id="Path_54496" data-name="Path 54496" d="M75.946,0H61.554a5.481,5.481,0,0,0-5.475,5.475V22.819a9.3,9.3,0,0,0,9.25,9.286v4.8H52.72a8.948,8.948,0,0,0,.147-5.126,8.474,8.474,0,0,0-3.019-4.648,3.016,3.016,0,0,0-3-.378,3.05,3.05,0,0,0-1.705,2.613c-.293,3.006-1.193,4.994-2.752,6.079A11.252,11.252,0,0,1,37.633,36.9H35.162v-.391a1.3,1.3,0,0,0-1.3-1.3H26.927a1.3,1.3,0,0,0-1.3,1.3v8.8a.908.908,0,1,0,1.816,0V37.03h5.9V58.28h-5.9V49.5a.908.908,0,1,0-1.816,0V58.8a1.3,1.3,0,0,0,1.3,1.3h6.939a1.3,1.3,0,0,0,1.3-1.3v-.391h1.927A4.927,4.927,0,0,1,40.437,59.8a9.162,9.162,0,0,0,5.064,2.2.905.905,0,0,0,.1.005H61.766a3.925,3.925,0,0,0,2.97-1.2,3.8,3.8,0,0,0,1.016-2.622,3.878,3.878,0,0,0-.785-2.351,3.741,3.741,0,0,0,2.215-3.47,3.878,3.878,0,0,0-.786-2.352,3.676,3.676,0,0,0,1.2-.844,3.8,3.8,0,0,0,1.016-2.622,3.912,3.912,0,0,0-.548-2h3.741a3.816,3.816,0,0,0,.366-7.624V32.106a9.3,9.3,0,0,0,9.246-9.286V5.475A5.481,5.481,0,0,0,75.946,0ZM70.358,37.12a1.606,1.606,0,0,1-3.213,0V27.626h3.213ZM63.413,59.56a2.189,2.189,0,0,1-1.647.623H54.08A2.026,2.026,0,0,1,52.433,56.8a2.189,2.189,0,0,1,1.647-.623h7.686a2.026,2.026,0,0,1,1.647,3.379ZM63.2,54.365H54.08a2.028,2.028,0,0,1-1.648-3.382,2.19,2.19,0,0,1,1.648-.623H63.2a2.009,2.009,0,1,1,0,4.005Zm3.6-7.822a1.976,1.976,0,0,1-2.17,2H54.08a2.026,2.026,0,0,1-1.648-3.379,2.191,2.191,0,0,1,1.648-.623H64.629A1.976,1.976,0,0,1,66.8,46.543Zm7.179-5.82a1.976,1.976,0,0,1-2.17,2H54.08a3.836,3.836,0,0,0-2.67,6.726,3.874,3.874,0,0,0,0,5.823,3.623,3.623,0,0,0-.3.285,3.8,3.8,0,0,0-1.016,2.622,3.912,3.912,0,0,0,.548,2H45.648a7.317,7.317,0,0,1-4.1-1.825,6.619,6.619,0,0,0-4.455-1.768H35.162V38.72h2.554a13.388,13.388,0,0,0,5.716-1.785c2.022-1.408,3.174-3.827,3.522-7.393a1.31,1.31,0,0,1,.638-1.132,1.216,1.216,0,0,1,1.181.185,7.161,7.161,0,0,1,1.773,8.8.908.908,0,0,0,.808,1.323H65.727a3.421,3.421,0,0,0,6.048,0l.032,0a1.977,1.977,0,0,1,2.17,2Zm5.627-17.9a7.479,7.479,0,0,1-7.43,7.47v-3A1.479,1.479,0,0,0,70.7,25.809H66.8a1.477,1.477,0,0,0-1.474,1.477v3a7.479,7.479,0,0,1-7.433-7.47V5.475a3.663,3.663,0,0,1,3.658-3.658H75.946A3.663,3.663,0,0,1,79.6,5.475V22.819Z" transform="translate(-25.628)" stroke="#000" stroke-width="1.2"/>
      </g>
    </g>
  </g>
</svg>
