<svg xmlns="http://www.w3.org/2000/svg" xmlns:xlink="http://www.w3.org/1999/xlink" width="52" height="59" viewBox="0 0 52 59">
  <defs>
    <clipPath id="clip-path">
      <rect id="Rectangle_8016" data-name="Rectangle 8016" width="52" height="59" transform="translate(5267 -2519.208)" fill="#fff" stroke="#707070" stroke-width="1"/>
    </clipPath>
  </defs>
  <g id="Mask_Group_12" data-name="Mask Group 12" transform="translate(-5267 2519.208)" clip-path="url(#clip-path)">
    <g id="noun-ear-nose-throat-3756636" transform="translate(5259.351 -2518.529)">
      <path id="Path_55627" data-name="Path 55627" d="M183.4,51.068c.026-.405.058-.811.1-1.216l.019-.135c.019-.18-.032.225-.026.2l.039-.27c.032-.206.064-.405.1-.611a16.431,16.431,0,0,1,.541-2.079c.058-.167.116-.328.174-.5.026-.077.058-.148.084-.225s.154-.373.039-.1,0,0,.026-.058l.116-.251c.071-.154.142-.3.219-.45a12.952,12.952,0,0,1,1.017-1.667c.045-.058.084-.122.129-.18s.212-.277.032-.045-.006.013.032-.039c.058-.077.122-.148.187-.225.193-.232.4-.457.611-.676a14.3,14.3,0,0,1,1.39-1.261l.084-.064c.129-.1-.206.167-.18.142a2.352,2.352,0,0,1,.2-.154c.129-.09.251-.187.38-.277.257-.18.521-.354.792-.515a18.231,18.231,0,0,1,1.673-.907c.135-.064.27-.129.405-.187.064-.032.135-.058.206-.09s.36-.154.084-.039.026-.006.084-.032.142-.058.206-.084c.148-.058.3-.116.457-.174.611-.225,1.236-.425,1.866-.6a31.46,31.46,0,0,1,3.848-.811c.077-.013.154-.019.225-.032s.4-.058.09-.013-.019,0,.051-.006c.09-.013.18-.019.264-.032.328-.039.656-.077.991-.109.656-.064,1.313-.109,1.969-.142a26.84,26.84,0,0,1,4.659.135l.135.019c.026,0-.38-.051-.206-.026l.27.039c.206.032.412.064.618.1.373.071.747.148,1.12.238a20.061,20.061,0,0,1,2.1.618c.341.122.676.264,1.017.393.026.013-.354-.154-.193-.084.039.019.077.032.116.051l.264.116c.161.071.322.148.483.225a18.414,18.414,0,0,1,1.841,1.03c.29.187.579.38.862.579.129.09.257.187.386.283a.923.923,0,0,0,.1.071c.135.1-.193-.148-.167-.129.071.058.148.116.219.174a18.028,18.028,0,0,1,1.525,1.364,18.941,18.941,0,0,1,1.358,1.512c.051.058.1.122.148.18.064.077-.245-.322-.058-.077.109.148.219.29.322.438.187.264.373.534.547.811a19.223,19.223,0,0,1,1,1.77c.154.3.3.611.438.927.032.071.064.142.1.219.013.032-.148-.36-.084-.2.013.039.032.071.045.109.071.174.135.341.2.515a20.713,20.713,0,0,1,1.055,3.977c.026.174.064.348.077.521,0,.032-.051-.405-.032-.225a.788.788,0,0,1,.013.122c.013.1.026.187.032.283.039.354.071.708.09,1.062a19.92,19.92,0,0,1,.013,2.4q-.039.666-.116,1.332c-.013.1-.064.3.013-.109-.013.051-.013.1-.026.161-.013.1-.032.212-.051.315-.039.225-.077.45-.122.676a19.511,19.511,0,0,1-.727,2.619c-.071.193-.142.393-.219.586-.026.058-.18.438-.077.193s-.058.129-.084.187c-.18.412-.38.811-.586,1.21a19.936,19.936,0,0,1-1.384,2.24c-.129.18-.277.354-.4.541,0,.006.206-.257.09-.122-.032.039-.064.084-.1.122-.077.1-.154.187-.225.283-.348.425-.7.85-1.023,1.294a12.527,12.527,0,0,0-1.242,2.021,10.661,10.661,0,0,0-1.107,4.621,16.177,16.177,0,0,0,.843,4.788c.277.875.592,1.738.927,2.587a1.721,1.721,0,0,0,.74.959,1.614,1.614,0,0,0,2.368-1.821,26.3,26.3,0,0,1-1.545-5.065l-.039-.251c-.006-.045-.013-.084-.019-.129-.026-.18.039.251.032.219a2.883,2.883,0,0,1-.058-.573,9.4,9.4,0,0,1-.019-1.043c.006-.167.019-.341.032-.508.006-.077.019-.154.026-.232.013-.174-.026.27-.032.232a.674.674,0,0,1,.032-.193,8.523,8.523,0,0,1,.232-.991c.051-.167.1-.328.161-.5.026-.077.058-.154.084-.225.013-.039.032-.077.045-.116.071-.18-.154.335-.064.154.174-.348.335-.7.528-1.036s.425-.689.656-1.017l.2-.277c.039-.045.238-.315.09-.116s.058-.071.1-.122l.27-.328a21.752,21.752,0,0,0,3.089-4.814,21.331,21.331,0,0,0,1.86-10.9,22.683,22.683,0,0,0-2.574-8.675,20.707,20.707,0,0,0-14-10.406,29.724,29.724,0,0,0-9.37-.328,31.69,31.69,0,0,0-8.167,1.828,18.452,18.452,0,0,0-6.983,4.5,15.667,15.667,0,0,0-3.894,7.89,22.549,22.549,0,0,0-.322,2.709,1.614,1.614,0,0,0,1.609,1.609,1.644,1.644,0,0,0,1.609-1.609Z" transform="translate(-167.216 -33.918)"/>
      <path id="Path_55628" data-name="Path 55628" d="M141.365,228.6c.167-.933.463-1.969-.348-2.722a3.452,3.452,0,0,0-1.454-.727l-1.68-.444c-.084-.026-.174-.045-.257-.071a.2.2,0,0,0-.051-.013c-.315-.071.341.116-.051-.019-.142-.045.1.071.116.1a1.5,1.5,0,0,1-.148-.142c.058-.058.174.309.064.077s.032.1.026.1-.064-.206-.058-.193c-.058-.18.077-.084.013.135a1.134,1.134,0,0,0,0-.148c-.019-.187-.1.36-.013.09a1.07,1.07,0,0,0,.058-.187c.026.064-.142.322-.032.116.077-.142.129-.058-.071.084l.251-.328c.006-.013.019-.026.026-.039.058-.084.116-.167.18-.251q2.018-2.819,4.029-5.631c.264-.367.528-.734.792-1.107a3.533,3.533,0,0,0,.431-2.137,1.609,1.609,0,1,0-3.218,0c0,.3-.013.586-.026.882-.006.071-.026.225.013-.084a.8.8,0,0,1,.167-.489c-.006.006-.006.006-.006.013a1.966,1.966,0,0,0-.135.187c-.225.309-.444.624-.669.933l-2.188,3.057-1.886,2.639c-.077.1-.148.206-.225.315a.493.493,0,0,0-.051.071c-.006.006-.006.013-.013.019v.006c.064-.084.122-.167.187-.245-.1.122-.193.245-.283.367a3.285,3.285,0,0,0-.47,2.4,3.209,3.209,0,0,0,1.4,2.079,6.755,6.755,0,0,0,2.156.747c.283.071.56.148.843.219.019.006.039.006.051.013.032.006.071.019.1.026.129.045.129.045,0-.013s-.129-.058-.006,0l.045.026c.257.154.174-.071-.251-.656-.38-.869-.264-.875-.335-.483-.039.187-.071.373-.1.553a1.734,1.734,0,0,0,.161,1.242,1.647,1.647,0,0,0,.959.74,1.61,1.61,0,0,0,1.963-1.113Z" transform="translate(-126.767 -192.402)"/>
      <path id="Path_55629" data-name="Path 55629" d="M164.658,378.737a.982.982,0,0,0,.1.167c-.135-.032-.1-.341-.064-.129.051.264-.013-.154-.006-.167a1.746,1.746,0,0,0,.006.18,1.581,1.581,0,0,0-.013.18c-.051-.232.058-.328.013-.148-.039.161-.077.322-.122.483a10.93,10.93,0,0,0-.393,1.5,5.717,5.717,0,0,0,.071,2.471,4.386,4.386,0,0,0,1.77,2.433,6.187,6.187,0,0,0,3.192.946c1.4.09,2.806-.167,4.2-.206.354-.006.714-.006,1.068.019.167.013.341.032.508.051-.656-.064.013.013.193.051q.241.058.483.135c.077.026.154.058.238.084.341.122-.328-.161-.064-.026.161.084.322.161.47.257.071.045.142.1.212.142.3.212-.27-.232-.039-.026a6.21,6.21,0,0,1,.463.457c.051.058.3.36.1.116s.051.084.1.148a7.038,7.038,0,0,1,.386.676l.077.154c.109.232,0,.006-.039-.1.051.148.116.29.167.438.438,1.242.785,2.523,1.184,3.778a1.612,1.612,0,1,0,3.108-.856c-.354-1.133-.7-2.265-1.055-3.4a8.981,8.981,0,0,0-1.622-3.1,6.684,6.684,0,0,0-4.794-2.194,38.772,38.772,0,0,0-4.318.193c-.328.013-.663.013-.991-.006l-.245-.019c-.418-.039.322.058-.071-.013a5.548,5.548,0,0,1-.734-.18,1.447,1.447,0,0,0-.154-.051c-.245-.084.174.071.167.071a.736.736,0,0,1-.264-.135c-.09-.051-.18-.109-.264-.167-.251-.161.3.283.045.026-.058-.058-.122-.116-.174-.174a1.115,1.115,0,0,0-.077-.09c-.154-.167.167.193.142.187a1.293,1.293,0,0,1-.257-.444c.013-.026.161.438.1.232a1.5,1.5,0,0,0-.058-.154c-.026-.077-.045-.161-.064-.238s-.026-.161-.045-.238c.129.586.032.277.026.109a2.94,2.94,0,0,1,0-.476l.019-.251c.013-.206-.051.309-.039.283a1.07,1.07,0,0,0,.019-.142c.1-.6.335-1.158.47-1.744a3.423,3.423,0,0,0-.335-2.7,1.637,1.637,0,0,0-2.2-.579,1.59,1.59,0,0,0-.6,2.182Z" transform="translate(-153.016 -336.038)"/>
      <path id="Path_55630" data-name="Path 55630" d="M365.146,193.462c-.058-.174-.1-.341-.148-.515-.084-.315.019.116.006.1-.032-.019-.019-.232-.019-.277q-.01-.193,0-.386c.006-.084.058-.56.013-.219s.019-.058.032-.135c.026-.116.058-.232.09-.341.026-.09.064-.174.1-.264-.161.534-.039.09.045-.064.051-.09.1-.18.161-.27.013-.019.084-.142.1-.142s-.283.341-.122.161a3.121,3.121,0,0,1,.245-.264c.116-.116.444-.315.006-.032a6.625,6.625,0,0,1,.579-.354c.373-.187-.348.122.058-.019a4.061,4.061,0,0,1,.4-.116c.142-.032.29-.045.431-.084-.476.129-.084.013.084.006.148-.006.3-.006.451-.006.084,0,.167.006.251.013.064.006.393.045.084,0s.122.026.2.039a4.042,4.042,0,0,1,.4.109c.1.032.2.077.3.109-.45-.135-.219-.09-.09-.032.071.039.142.071.212.116.1.058.2.129.3.193.122.077.187.212-.1-.084.039.039.084.071.122.1a3.828,3.828,0,0,1,.283.277c.039.039.071.077.1.116.109.122.135.277-.051-.077.116.212.27.405.38.624.026.045.142.309.019.032s-.006-.006.013.045c.045.135.09.27.122.412s.045.3.084.431c-.109-.38-.032-.29-.026-.154.006.077.013.154.013.232.013.322,0,.65-.019.972-.006.142-.019.277-.032.418-.006.077-.019.154-.026.225-.019.225.071-.438.013-.116-.045.29-.1.579-.167.862a11.183,11.183,0,0,1-.476,1.493c-.09.238.071-.161.071-.167a1.261,1.261,0,0,1-.1.212c-.045.1-.09.187-.135.277-.109.225-.232.444-.36.663-.116.2-.245.393-.373.579-.058.09-.122.174-.187.257-.039.051-.187.245,0,.006s.019-.026-.026.026a10.09,10.09,0,0,1-.869.946c-.135.129-.27.251-.412.373-.077.064-.148.129-.225.187l-.09.071c-.2.161.354-.257.148-.116-.27.193-.541.386-.824.553a4.868,4.868,0,0,1-.444.238c-.071.032-.135.064-.206.1-.232.109.483-.187.154-.064-.109.039-.219.084-.335.116l-.154.039c-.019.006-.039.006-.051.013-.2.051.348-.039.328-.045a.862.862,0,0,0-.129.006c-.058,0-.116-.006-.174-.006-.309-.013.373.09.1.013a1.008,1.008,0,0,0-.187-.051c-.142-.019.373.219.116.045-.045-.032-.1-.071-.148-.1.277.135.27.2.116.071-.187-.154.154.154.116.167-.013.006-.1-.154-.109-.174-.154-.232.122.4.045.122l-.058-.212c-.039-.135.045-.2.019.2.006-.077-.013-.161-.013-.245s.013-.142.006-.212c.013-.129,0-.058-.032.212a1.77,1.77,0,0,1,.032-.18,1.612,1.612,0,1,0-3.108-.856,4.13,4.13,0,0,0,.283,2.735,3.19,3.19,0,0,0,1.976,1.564,3.982,3.982,0,0,0,2.787-.354,10.924,10.924,0,0,0,4.267-3.72,11.4,11.4,0,0,0,1.583-3.269,12.873,12.873,0,0,0,.431-2.207,8.981,8.981,0,0,0,.045-2.079,5.839,5.839,0,0,0-2.034-3.951,6.189,6.189,0,0,0-4.46-1.332,5.6,5.6,0,0,0-4.338,2.458,5.709,5.709,0,0,0-.579,4.82,1.614,1.614,0,1,0,3.108-.869Z" transform="translate(-327.42 -169.008)"/>
      <path id="Path_55631" data-name="Path 55631" d="M208.67,268.755c.09-.045.174-.084.264-.122.051-.026.1-.045.154-.071.27-.116-.457.187-.174.071s.592-.232.888-.335a15.449,15.449,0,0,1,2.413-.624c.109-.019.219-.039.328-.051a1.265,1.265,0,0,0,.154-.019,2.4,2.4,0,0,0-.3.039.872.872,0,0,1,.129-.013c.232-.026.47-.045.7-.064a10.771,10.771,0,0,1,1.442.013l.348.039c.238.026-.451-.071-.212-.026.071.013.142.019.212.032.238.045.476.1.714.161a6.821,6.821,0,0,1,.7.238c.212.077-.431-.193-.154-.064.051.026.1.045.148.071.116.058.232.116.348.18a6.07,6.07,0,0,1,.644.412.705.705,0,0,0,.09.071c.006,0-.3-.238-.212-.161.045.039.09.071.135.109.1.09.206.18.309.277.2.193.38.405.56.618.148.174-.251-.348-.077-.1.045.064.09.122.135.187.09.129.174.264.251.4a8.374,8.374,0,0,1,.444.862c.122.27-.077-.206-.045-.1l.1.251c.064.174.129.354.187.534.27.856.412,1.744.6,2.619a35.079,35.079,0,0,0,3.437,9.344c1.133,2.072,2.5,4.022,3.52,6.159.129.277.257.553.373.83a1.628,1.628,0,0,0,.959.74,1.67,1.67,0,0,0,1.242-.161,1.648,1.648,0,0,0,.74-.959A1.894,1.894,0,0,0,230,288.9a60.753,60.753,0,0,0-3.507-6.294c-.328-.579-.65-1.165-.946-1.757-.154-.309-.3-.618-.444-.933-.077-.167-.154-.341-.225-.508-.032-.077-.064-.148-.1-.225.006.006.161.393.064.154-.019-.051-.045-.1-.064-.154a34.811,34.811,0,0,1-1.622-5.123c-.225-.946-.373-1.918-.631-2.857a12.678,12.678,0,0,0-.895-2.336,8.428,8.428,0,0,0-2.742-3.121,9.463,9.463,0,0,0-6.448-1.319,17.554,17.554,0,0,0-5.123,1.429c-.09.039-.187.084-.277.129a1.62,1.62,0,0,0-.579,2.2,1.666,1.666,0,0,0,2.207.573Z" transform="translate(-190.219 -237.222)"/>
      <path id="Path_55632" data-name="Path 55632" d="M208.84,345.559c.077-.045.148-.09.225-.129s.418-.193.122-.064.051-.019.116-.039c.109-.039.219-.077.328-.109.219-.064.444-.122.669-.167.109-.026.219-.045.335-.064.058-.006.116-.019.167-.026.2-.032-.405.045-.122.019a11.332,11.332,0,0,1,1.551-.071c.264.006.534.019.8.045.058.006.508.058.206.019-.264-.039-.045-.006.019.006l.232.039a8.672,8.672,0,0,1,1.506.405,1.291,1.291,0,0,0,.167.064c-.36-.09-.257-.109-.142-.058s.238.109.354.174c.142.077.277.154.412.245.251.167-.309-.257-.142-.109.058.045.109.09.167.142.109.1.212.2.315.309s.212.232.309.354l.071.09c.116.135-.251-.328-.142-.187.051.071.109.142.161.219a15.685,15.685,0,0,1,1.178,1.976q.29.57.56,1.158c.09.2.18.405.27.611a1.472,1.472,0,0,0,.064.148c.077.18-.142-.348-.071-.167.045.109.09.219.135.335.689,1.686,1.274,3.4,1.815,5.142.463,1.487.882,2.993,1.268,4.5a1.628,1.628,0,0,0,1.982,1.126,1.647,1.647,0,0,0,1.126-1.982,73.166,73.166,0,0,0-2.993-9.422,24.409,24.409,0,0,0-2.465-4.917,8.23,8.23,0,0,0-1.506-1.731,7.577,7.577,0,0,0-2.993-1.4,12.1,12.1,0,0,0-4.022-.29,8.769,8.769,0,0,0-3.636,1.036,1.636,1.636,0,0,0-.579,2.2,1.612,1.612,0,0,0,2.182.573Z" transform="translate(-190.389 -305.474)"/>
      <g id="Group_1121" data-name="Group 1121" transform="translate(0.011 62.635)">
        <path id="Path_55633" data-name="Path 55633" d="M.339-1.805A.111.111,0,0,1,.3-1.792a.181.181,0,0,1-.037,0A.133.133,0,0,1,.174-1.82a.122.122,0,0,1-.033-.09A.119.119,0,0,1,.174-2a.13.13,0,0,1,.094-.033A.116.116,0,0,1,.3-2.026a.139.139,0,0,1,.035.013v.048a.139.139,0,0,0-.033-.017.111.111,0,0,0-.035-.006.06.06,0,0,0-.05.022A.079.079,0,0,0,.2-1.91a.088.088,0,0,0,.018.059.062.062,0,0,0,.05.02.111.111,0,0,0,.035-.006.139.139,0,0,0,.033-.017Z" transform="translate(-0.141 2.031)"/>
      </g>
      <g id="Group_1122" data-name="Group 1122" transform="translate(0.258 62.694)">
        <path id="Path_55634" data-name="Path 55634" d="M.365-1.48a.036.036,0,0,0-.015,0l-.015,0A.044.044,0,0,0,.3-1.471a.059.059,0,0,0-.011.039v.081H.234v-.177H.29V-1.5a.074.074,0,0,1,.024-.024.065.065,0,0,1,.035-.009H.354l.011,0Z" transform="translate(-0.234 1.531)"/>
      </g>
      <g id="Group_1123" data-name="Group 1123" transform="translate(0.404 62.694)">
        <path id="Path_55635" data-name="Path 55635" d="M.313-1.439v.017H.182a.045.045,0,0,0,.013.029.056.056,0,0,0,.035.009A.13.13,0,0,0,.267-1.39.3.3,0,0,0,.305-1.4v.042a.231.231,0,0,1-.04.011.245.245,0,0,1-.04,0,.1.1,0,0,1-.074-.024.087.087,0,0,1-.026-.068.085.085,0,0,1,.026-.066.1.1,0,0,1,.072-.026.085.085,0,0,1,.064.026.087.087,0,0,1,.026.066ZM.256-1.458a.036.036,0,0,0-.009-.026.032.032,0,0,0-.026-.011.039.039,0,0,0-.026.009.039.039,0,0,0-.013.028Z" transform="translate(-0.125 1.531)"/>
      </g>
      <g id="Group_1124" data-name="Group 1124" transform="translate(0.622 62.694)">
        <path id="Path_55636" data-name="Path 55636" d="M.217-1.43a.054.054,0,0,0-.028.006.019.019,0,0,0-.009.018.019.019,0,0,0,.007.017.032.032,0,0,0,.02.006A.032.032,0,0,0,.233-1.4a.04.04,0,0,0,.011-.029V-1.43ZM.3-1.452v.1H.245v-.026a.066.066,0,0,1-.026.024.086.086,0,0,1-.033.006.063.063,0,0,1-.044-.015A.057.057,0,0,1,.125-1.4a.048.048,0,0,1,.02-.044.122.122,0,0,1,.066-.015H.245v-.006a.019.019,0,0,0-.011-.018A.054.054,0,0,0,.2-1.494a.17.17,0,0,0-.035,0A.123.123,0,0,0,.14-1.48v-.042a.2.2,0,0,1,.037-.007l.035,0a.1.1,0,0,1,.068.018A.075.075,0,0,1,.3-1.452Z" transform="translate(-0.125 1.531)"/>
      </g>
      <g id="Group_1125" data-name="Group 1125" transform="translate(0.828 62.648)">
        <path id="Path_55637" data-name="Path 55637" d="M.116-1.922v.05H.175v.04H.116v.075a.028.028,0,0,0,0,.017.036.036,0,0,0,.02,0H.169v.04H.121a.071.071,0,0,1-.048-.013.071.071,0,0,1-.013-.048v-.075H.031v-.04H.061v-.05Z" transform="translate(-0.031 1.922)"/>
      </g>
      <g id="Group_1126" data-name="Group 1126" transform="translate(0.993 62.694)">
        <path id="Path_55638" data-name="Path 55638" d="M.313-1.439v.017H.182a.045.045,0,0,0,.013.029.056.056,0,0,0,.035.009A.13.13,0,0,0,.267-1.39.3.3,0,0,0,.305-1.4v.042a.231.231,0,0,1-.04.011.245.245,0,0,1-.04,0,.1.1,0,0,1-.074-.024.087.087,0,0,1-.026-.068.085.085,0,0,1,.026-.066.1.1,0,0,1,.072-.026.085.085,0,0,1,.064.026.087.087,0,0,1,.026.066ZM.256-1.458a.036.036,0,0,0-.009-.026.032.032,0,0,0-.026-.011.039.039,0,0,0-.026.009.039.039,0,0,0-.013.028Z" transform="translate(-0.125 1.531)"/>
      </g>
      <g id="Group_1127" data-name="Group 1127" transform="translate(1.211 62.63)">
        <path id="Path_55639" data-name="Path 55639" d="M.257-1.984v-.094H.314v.245H.257v-.026a.082.082,0,0,1-.028.024A.081.081,0,0,1,.2-1.83a.067.067,0,0,1-.053-.026.1.1,0,0,1-.02-.066.1.1,0,0,1,.02-.066A.068.068,0,0,1,.2-2.014a.067.067,0,0,1,.031.007.1.1,0,0,1,.028.022ZM.221-1.87a.03.03,0,0,0,.026-.013.057.057,0,0,0,.011-.039.056.056,0,0,0-.011-.037.029.029,0,0,0-.026-.015.03.03,0,0,0-.028.015.061.061,0,0,0-.009.037.063.063,0,0,0,.009.039A.031.031,0,0,0,.221-1.87Z" transform="translate(-0.125 2.078)"/>
      </g>
      <g id="Group_1128" data-name="Group 1128" transform="translate(1.567 62.63)">
        <path id="Path_55640" data-name="Path 55640" d="M.328-1.87a.03.03,0,0,0,.026-.013.057.057,0,0,0,.011-.039.056.056,0,0,0-.011-.037.029.029,0,0,0-.026-.015A.035.035,0,0,0,.3-1.959a.061.061,0,0,0-.009.037A.063.063,0,0,0,.3-1.883.036.036,0,0,0,.328-1.87ZM.289-1.984a.1.1,0,0,1,.026-.022.076.076,0,0,1,.033-.007A.065.065,0,0,1,.4-1.988a.106.106,0,0,1,.02.066.1.1,0,0,1-.02.066.064.064,0,0,1-.053.026.093.093,0,0,1-.033-.006.082.082,0,0,1-.026-.024v.026H.234v-.245H.289Z" transform="translate(-0.234 2.078)"/>
      </g>
      <g id="Group_1129" data-name="Group 1129" transform="translate(1.773 62.698)">
        <path id="Path_55641" data-name="Path 55641" d="M.031-1.5H.088l.046.12.04-.12H.232l-.074.193a.082.082,0,0,1-.028.04.059.059,0,0,1-.039.013H.061V-1.29H.077A.029.029,0,0,0,.1-1.3a.029.029,0,0,0,.011-.017l0,0Z" transform="translate(-0.031 1.5)"/>
      </g>
      <g id="Group_1130" data-name="Group 1130" transform="translate(2.108 62.694)">
        <path id="Path_55642" data-name="Path 55642" d="M.288-1.522v.044a.139.139,0,0,0-.035-.013.156.156,0,0,0-.031,0A.045.045,0,0,0,.2-1.489a.012.012,0,0,0-.007.011A.012.012,0,0,0,.2-1.467a.047.047,0,0,0,.022.006l.009,0a.122.122,0,0,1,.059.018A.046.046,0,0,1,.3-1.4a.048.048,0,0,1-.022.042.115.115,0,0,1-.061.013.2.2,0,0,1-.037,0,.168.168,0,0,1-.037-.007V-1.4a.11.11,0,0,0,.033.013.164.164,0,0,0,.037,0,.053.053,0,0,0,.024,0A.017.017,0,0,0,.247-1.4a.013.013,0,0,0-.006-.011.069.069,0,0,0-.024-.006l-.009,0a.094.094,0,0,1-.053-.017.047.047,0,0,1-.015-.039.046.046,0,0,1,.018-.04.1.1,0,0,1,.059-.015.162.162,0,0,1,.033,0l.037.006Z" transform="translate(-0.141 1.531)"/>
      </g>
      <g id="Group_1131" data-name="Group 1131" transform="translate(2.31 62.63)">
        <path id="Path_55643" data-name="Path 55643" d="M.411-1.94v.107H.354v-.081a.2.2,0,0,0,0-.031.061.061,0,0,0,0-.015.02.02,0,0,0-.009-.007.025.025,0,0,0-.013,0A.035.035,0,0,0,.3-1.957.061.061,0,0,0,.29-1.92v.086H.234v-.245H.29v.094a.089.089,0,0,1,.028-.022.073.073,0,0,1,.031-.007A.057.057,0,0,1,.394-2a.081.081,0,0,1,.017.055Z" transform="translate(-0.234 2.078)"/>
      </g>
      <g id="Group_1132" data-name="Group 1132" transform="translate(2.526 62.694)">
        <path id="Path_55644" data-name="Path 55644" d="M.217-1.43a.054.054,0,0,0-.028.006.019.019,0,0,0-.009.018.019.019,0,0,0,.007.017.032.032,0,0,0,.02.006A.032.032,0,0,0,.233-1.4a.04.04,0,0,0,.011-.029V-1.43ZM.3-1.452v.1H.245v-.026a.066.066,0,0,1-.026.024.086.086,0,0,1-.033.006.063.063,0,0,1-.044-.015A.057.057,0,0,1,.125-1.4a.048.048,0,0,1,.02-.044.122.122,0,0,1,.066-.015H.245v-.006a.019.019,0,0,0-.011-.018A.054.054,0,0,0,.2-1.494a.17.17,0,0,0-.035,0A.123.123,0,0,0,.14-1.48v-.042a.2.2,0,0,1,.037-.007l.035,0a.1.1,0,0,1,.068.018A.075.075,0,0,1,.3-1.452Z" transform="translate(-0.125 1.531)"/>
      </g>
      <g id="Group_1133" data-name="Group 1133" transform="translate(2.746 62.694)">
        <path id="Path_55645" data-name="Path 55645" d="M.288-1.522v.044a.139.139,0,0,0-.035-.013.156.156,0,0,0-.031,0A.045.045,0,0,0,.2-1.489a.012.012,0,0,0-.007.011A.012.012,0,0,0,.2-1.467a.047.047,0,0,0,.022.006l.009,0a.122.122,0,0,1,.059.018A.046.046,0,0,1,.3-1.4a.048.048,0,0,1-.022.042.115.115,0,0,1-.061.013.2.2,0,0,1-.037,0,.168.168,0,0,1-.037-.007V-1.4a.11.11,0,0,0,.033.013.164.164,0,0,0,.037,0,.053.053,0,0,0,.024,0A.017.017,0,0,0,.247-1.4a.013.013,0,0,0-.006-.011.069.069,0,0,0-.024-.006l-.009,0a.094.094,0,0,1-.053-.017.047.047,0,0,1-.015-.039.046.046,0,0,1,.018-.04.1.1,0,0,1,.059-.015.162.162,0,0,1,.033,0l.037.006Z" transform="translate(-0.141 1.531)"/>
      </g>
      <g id="Group_1134" data-name="Group 1134" transform="translate(2.948 62.63)">
        <path id="Path_55646" data-name="Path 55646" d="M.411-1.94v.107H.354v-.081a.2.2,0,0,0,0-.031.061.061,0,0,0,0-.015.02.02,0,0,0-.009-.007.025.025,0,0,0-.013,0A.035.035,0,0,0,.3-1.957.061.061,0,0,0,.29-1.92v.086H.234v-.245H.29v.094a.089.089,0,0,1,.028-.022.073.073,0,0,1,.031-.007A.057.057,0,0,1,.394-2a.081.081,0,0,1,.017.055Z" transform="translate(-0.234 2.078)"/>
      </g>
      <g id="Group_1135" data-name="Group 1135" transform="translate(3.164 62.694)">
        <path id="Path_55647" data-name="Path 55647" d="M.217-1.43a.054.054,0,0,0-.028.006.019.019,0,0,0-.009.018.019.019,0,0,0,.007.017.032.032,0,0,0,.02.006A.032.032,0,0,0,.233-1.4a.04.04,0,0,0,.011-.029V-1.43ZM.3-1.452v.1H.245v-.026a.066.066,0,0,1-.026.024.086.086,0,0,1-.033.006.063.063,0,0,1-.044-.015A.057.057,0,0,1,.125-1.4a.048.048,0,0,1,.02-.044.122.122,0,0,1,.066-.015H.245v-.006a.019.019,0,0,0-.011-.018A.054.054,0,0,0,.2-1.494a.17.17,0,0,0-.035,0A.123.123,0,0,0,.14-1.48v-.042a.2.2,0,0,1,.037-.007l.035,0a.1.1,0,0,1,.068.018A.075.075,0,0,1,.3-1.452Z" transform="translate(-0.125 1.531)"/>
      </g>
      <g id="Group_1136" data-name="Group 1136" transform="translate(3.394 62.694)">
        <path id="Path_55648" data-name="Path 55648" d="M.411-1.458v.107H.354v-.083a.18.18,0,0,0,0-.029.061.061,0,0,0,0-.015.02.02,0,0,0-.009-.007.025.025,0,0,0-.013,0A.035.035,0,0,0,.3-1.474a.061.061,0,0,0-.009.037v.086H.234v-.177H.29V-1.5a.089.089,0,0,1,.028-.022.073.073,0,0,1,.031-.007.057.057,0,0,1,.046.018.081.081,0,0,1,.017.055Z" transform="translate(-0.234 1.531)"/>
      </g>
      <g id="Group_1137" data-name="Group 1137" transform="translate(3.623 62.63)">
        <path id="Path_55649" data-name="Path 55649" d="M.234-2.078H.29v.132L.354-2.01H.42l-.086.081.094.1H.359L.29-1.907v.074H.234Z" transform="translate(-0.234 2.078)"/>
      </g>
      <g id="Group_1138" data-name="Group 1138" transform="translate(3.939 62.694)">
        <path id="Path_55650" data-name="Path 55650" d="M.288-1.522v.044a.139.139,0,0,0-.035-.013.156.156,0,0,0-.031,0A.045.045,0,0,0,.2-1.489a.012.012,0,0,0-.007.011A.012.012,0,0,0,.2-1.467a.047.047,0,0,0,.022.006l.009,0a.122.122,0,0,1,.059.018A.046.046,0,0,1,.3-1.4a.048.048,0,0,1-.022.042.115.115,0,0,1-.061.013.2.2,0,0,1-.037,0,.168.168,0,0,1-.037-.007V-1.4a.11.11,0,0,0,.033.013.164.164,0,0,0,.037,0,.053.053,0,0,0,.024,0A.017.017,0,0,0,.247-1.4a.013.013,0,0,0-.006-.011.069.069,0,0,0-.024-.006l-.009,0a.094.094,0,0,1-.053-.017.047.047,0,0,1-.015-.039.046.046,0,0,1,.018-.04.1.1,0,0,1,.059-.015.162.162,0,0,1,.033,0l.037.006Z" transform="translate(-0.141 1.531)"/>
      </g>
      <g id="Group_1139" data-name="Group 1139" transform="translate(4.141 62.63)">
        <path id="Path_55651" data-name="Path 55651" d="M.234-2.01H.29v.177H.234Zm0-.068H.29v.046H.234Z" transform="translate(-0.234 2.078)"/>
      </g>
      <g id="Group_1140" data-name="Group 1140" transform="translate(4.251 62.694)">
        <path id="Path_55652" data-name="Path 55652" d="M.411-1.458v.107H.354v-.083a.18.18,0,0,0,0-.029.061.061,0,0,0,0-.015.02.02,0,0,0-.009-.007.025.025,0,0,0-.013,0A.035.035,0,0,0,.3-1.474a.061.061,0,0,0-.009.037v.086H.234v-.177H.29V-1.5a.089.089,0,0,1,.028-.022.073.073,0,0,1,.031-.007.057.057,0,0,1,.046.018.081.081,0,0,1,.017.055Z" transform="translate(-0.234 1.531)"/>
      </g>
      <g id="Group_1141" data-name="Group 1141" transform="translate(4.467 62.694)">
        <path id="Path_55653" data-name="Path 55653" d="M.257-1.38a.086.086,0,0,1-.028.022A.062.062,0,0,1,.2-1.351a.067.067,0,0,1-.053-.026.1.1,0,0,1-.02-.064.1.1,0,0,1,.02-.064A.068.068,0,0,1,.2-1.531a.067.067,0,0,1,.031.007A.1.1,0,0,1,.257-1.5v-.026H.314v.158a.078.078,0,0,1-.028.064.116.116,0,0,1-.077.024.162.162,0,0,1-.033,0,.131.131,0,0,1-.029-.007v-.044a.122.122,0,0,0,.028.013A.081.081,0,0,0,.2-1.318a.057.057,0,0,0,.04-.013.054.054,0,0,0,.013-.039Zm-.037-.11a.032.032,0,0,0-.028.013.061.061,0,0,0-.009.037A.06.06,0,0,0,.193-1.4a.031.031,0,0,0,.028.013A.03.03,0,0,0,.246-1.4a.054.054,0,0,0,.011-.037.056.056,0,0,0-.011-.037A.031.031,0,0,0,.221-1.491Z" transform="translate(-0.125 1.531)"/>
      </g>
      <g id="Group_1142" data-name="Group 1142" transform="translate(4.711 62.63)">
        <path id="Path_55654" data-name="Path 55654" d="M.411-1.94v.107H.354v-.081a.2.2,0,0,0,0-.031.061.061,0,0,0,0-.015.02.02,0,0,0-.009-.007.025.025,0,0,0-.013,0A.035.035,0,0,0,.3-1.957.061.061,0,0,0,.29-1.92v.086H.234v-.245H.29v.094a.089.089,0,0,1,.028-.022.073.073,0,0,1,.031-.007A.057.057,0,0,1,.394-2a.081.081,0,0,1,.017.055Z" transform="translate(-0.234 2.078)"/>
      </g>
      <g id="Group_1143" data-name="Group 1143" transform="translate(0 62.952)">
        <path id="Path_55655" data-name="Path 55655" d="M.185-2.078v.037H.154a.025.025,0,0,0-.018.006.02.02,0,0,0,0,.015v.011H.179v.04H.132v.136H.076V-1.97H.047v-.04H.076v-.011a.053.053,0,0,1,.015-.042.074.074,0,0,1,.05-.015Z" transform="translate(-0.047 2.078)"/>
      </g>
      <g id="Group_1144" data-name="Group 1144" transform="translate(0.162 63.016)">
        <path id="Path_55656" data-name="Path 55656" d="M.365-1.48a.036.036,0,0,0-.015,0l-.015,0A.044.044,0,0,0,.3-1.471a.059.059,0,0,0-.011.039v.081H.234v-.177H.29V-1.5a.074.074,0,0,1,.024-.024.065.065,0,0,1,.035-.009H.354l.011,0Z" transform="translate(-0.234 1.531)"/>
      </g>
      <g id="Group_1145" data-name="Group 1145" transform="translate(0.308 63.016)">
        <path id="Path_55657" data-name="Path 55657" d="M.221-1.491a.038.038,0,0,0-.029.013.065.065,0,0,0-.009.039.072.072,0,0,0,.009.04.036.036,0,0,0,.029.013A.032.032,0,0,0,.248-1.4a.065.065,0,0,0,.011-.04.059.059,0,0,0-.011-.039A.033.033,0,0,0,.221-1.491Zm0-.04a.1.1,0,0,1,.072.026.087.087,0,0,1,.026.066.088.088,0,0,1-.026.068.1.1,0,0,1-.072.024.1.1,0,0,1-.072-.024.091.091,0,0,1-.024-.068.089.089,0,0,1,.024-.066A.1.1,0,0,1,.221-1.531Z" transform="translate(-0.125 1.531)"/>
      </g>
      <g id="Group_1146" data-name="Group 1146" transform="translate(0.542 63.016)">
        <path id="Path_55658" data-name="Path 55658" d="M.4-1.5a.067.067,0,0,1,.026-.024.062.062,0,0,1,.033-.009A.06.06,0,0,1,.5-1.513a.081.081,0,0,1,.017.055v.107H.461v-.1A.046.046,0,0,0,.455-1.48a.02.02,0,0,0-.018-.009.028.028,0,0,0-.024.013A.065.065,0,0,0,.4-1.437v.086H.347v-.092A.075.075,0,0,0,.341-1.48a.017.017,0,0,0-.017-.009A.029.029,0,0,0,.3-1.474a.061.061,0,0,0-.009.037v.086H.234v-.177H.29V-1.5a.082.082,0,0,1,.024-.022.068.068,0,0,1,.029-.007.054.054,0,0,1,.031.009A.064.064,0,0,1,.4-1.5Z" transform="translate(-0.234 1.531)"/>
      </g>
      <g id="Group_1147" data-name="Group 1147" transform="translate(0.965 62.97)">
        <path id="Path_55659" data-name="Path 55659" d="M.116-1.922v.05H.175v.04H.116v.075a.028.028,0,0,0,0,.017.036.036,0,0,0,.02,0H.169v.04H.121a.071.071,0,0,1-.048-.013.071.071,0,0,1-.013-.048v-.075H.031v-.04H.061v-.05Z" transform="translate(-0.031 1.922)"/>
      </g>
      <g id="Group_1148" data-name="Group 1148" transform="translate(1.143 62.952)">
        <path id="Path_55660" data-name="Path 55660" d="M.411-1.94v.107H.354v-.081a.2.2,0,0,0,0-.031.061.061,0,0,0,0-.015.02.02,0,0,0-.009-.007.025.025,0,0,0-.013,0A.035.035,0,0,0,.3-1.957.061.061,0,0,0,.29-1.92v.086H.234v-.245H.29v.094a.089.089,0,0,1,.028-.022.073.073,0,0,1,.031-.007A.057.057,0,0,1,.394-2a.081.081,0,0,1,.017.055Z" transform="translate(-0.234 2.078)"/>
      </g>
      <g id="Group_1149" data-name="Group 1149" transform="translate(1.359 63.016)">
        <path id="Path_55661" data-name="Path 55661" d="M.313-1.439v.017H.182a.045.045,0,0,0,.013.029.056.056,0,0,0,.035.009A.13.13,0,0,0,.267-1.39.3.3,0,0,0,.305-1.4v.042a.231.231,0,0,1-.04.011.245.245,0,0,1-.04,0,.1.1,0,0,1-.074-.024.087.087,0,0,1-.026-.068.085.085,0,0,1,.026-.066.1.1,0,0,1,.072-.026.085.085,0,0,1,.064.026.087.087,0,0,1,.026.066ZM.256-1.458a.036.036,0,0,0-.009-.026.032.032,0,0,0-.026-.011.039.039,0,0,0-.026.009.039.039,0,0,0-.013.028Z" transform="translate(-0.125 1.531)"/>
      </g>
      <g id="Group_1150" data-name="Group 1150" transform="translate(1.704 62.961)">
        <path id="Path_55662" data-name="Path 55662" d="M.25-2H.318L.4-1.838V-2H.46v.235H.393L.307-1.926v.162H.25Z" transform="translate(-0.25 2)"/>
      </g>
      <g id="Group_1151" data-name="Group 1151" transform="translate(1.959 63.016)">
        <path id="Path_55663" data-name="Path 55663" d="M.221-1.491a.038.038,0,0,0-.029.013.065.065,0,0,0-.009.039.072.072,0,0,0,.009.04.036.036,0,0,0,.029.013A.032.032,0,0,0,.248-1.4a.065.065,0,0,0,.011-.04.059.059,0,0,0-.011-.039A.033.033,0,0,0,.221-1.491Zm0-.04a.1.1,0,0,1,.072.026.087.087,0,0,1,.026.066.088.088,0,0,1-.026.068.1.1,0,0,1-.072.024.1.1,0,0,1-.072-.024.091.091,0,0,1-.024-.068.089.089,0,0,1,.024-.066A.1.1,0,0,1,.221-1.531Z" transform="translate(-0.125 1.531)"/>
      </g>
      <g id="Group_1152" data-name="Group 1152" transform="translate(2.191 63.02)">
        <path id="Path_55664" data-name="Path 55664" d="M.219-1.392V-1.5H.274v.114a.02.02,0,0,0,.006.013.029.029,0,0,0,.009.009l.013,0a.03.03,0,0,0,.026-.013.054.054,0,0,0,.011-.037V-1.5H.4v.177H.338v-.026a.082.082,0,0,1-.028.024.075.075,0,0,1-.029.006.06.06,0,0,1-.048-.018.081.081,0,0,1-.015-.053Z" transform="translate(-0.219 1.5)"/>
      </g>
      <g id="Group_1153" data-name="Group 1153" transform="translate(2.422 63.016)">
        <path id="Path_55665" data-name="Path 55665" d="M.411-1.458v.107H.354v-.083a.18.18,0,0,0,0-.029.061.061,0,0,0,0-.015.02.02,0,0,0-.009-.007.025.025,0,0,0-.013,0A.035.035,0,0,0,.3-1.474a.061.061,0,0,0-.009.037v.086H.234v-.177H.29V-1.5a.089.089,0,0,1,.028-.022.073.073,0,0,1,.031-.007.057.057,0,0,1,.046.018.081.081,0,0,1,.017.055Z" transform="translate(-0.234 1.531)"/>
      </g>
      <g id="Group_1154" data-name="Group 1154" transform="translate(2.765 62.961)">
        <path id="Path_55666" data-name="Path 55666" d="M.25-2h.1a.1.1,0,0,1,.068.02.072.072,0,0,1,.024.057.071.071,0,0,1-.024.057.1.1,0,0,1-.068.02H.311v.081H.25Zm.061.044v.066H.344A.044.044,0,0,0,.371-1.9a.035.035,0,0,0,.009-.026.029.029,0,0,0-.009-.024.039.039,0,0,0-.028-.009Z" transform="translate(-0.25 2)"/>
      </g>
      <g id="Group_1155" data-name="Group 1155" transform="translate(2.999 63.016)">
        <path id="Path_55667" data-name="Path 55667" d="M.365-1.48a.036.036,0,0,0-.015,0l-.015,0A.044.044,0,0,0,.3-1.471a.059.059,0,0,0-.011.039v.081H.234v-.177H.29V-1.5a.074.074,0,0,1,.024-.024.065.065,0,0,1,.035-.009H.354l.011,0Z" transform="translate(-0.234 1.531)"/>
      </g>
      <g id="Group_1156" data-name="Group 1156" transform="translate(3.145 63.016)">
        <path id="Path_55668" data-name="Path 55668" d="M.221-1.491a.038.038,0,0,0-.029.013.065.065,0,0,0-.009.039.072.072,0,0,0,.009.04.036.036,0,0,0,.029.013A.032.032,0,0,0,.248-1.4a.065.065,0,0,0,.011-.04.059.059,0,0,0-.011-.039A.033.033,0,0,0,.221-1.491Zm0-.04a.1.1,0,0,1,.072.026.087.087,0,0,1,.026.066.088.088,0,0,1-.026.068.1.1,0,0,1-.072.024.1.1,0,0,1-.072-.024.091.091,0,0,1-.024-.068.089.089,0,0,1,.024-.066A.1.1,0,0,1,.221-1.531Z" transform="translate(-0.125 1.531)"/>
      </g>
      <g id="Group_1157" data-name="Group 1157" transform="translate(3.34 62.952)">
        <path id="Path_55669" data-name="Path 55669" d="M-.055-2.01H0v.173a.081.081,0,0,1-.017.055.065.065,0,0,1-.05.018H-.094V-1.8h.009a.027.027,0,0,0,.022-.007.045.045,0,0,0,.007-.029Zm0-.068H0v.046H-.055Z" transform="translate(0.094 2.078)"/>
      </g>
      <g id="Group_1158" data-name="Group 1158" transform="translate(3.476 63.016)">
        <path id="Path_55670" data-name="Path 55670" d="M.313-1.439v.017H.182a.045.045,0,0,0,.013.029.056.056,0,0,0,.035.009A.13.13,0,0,0,.267-1.39.3.3,0,0,0,.305-1.4v.042a.231.231,0,0,1-.04.011.245.245,0,0,1-.04,0,.1.1,0,0,1-.074-.024.087.087,0,0,1-.026-.068.085.085,0,0,1,.026-.066.1.1,0,0,1,.072-.026.085.085,0,0,1,.064.026.087.087,0,0,1,.026.066ZM.256-1.458a.036.036,0,0,0-.009-.026.032.032,0,0,0-.026-.011.039.039,0,0,0-.026.009.039.039,0,0,0-.013.028Z" transform="translate(-0.125 1.531)"/>
      </g>
      <g id="Group_1159" data-name="Group 1159" transform="translate(3.694 63.016)">
        <path id="Path_55671" data-name="Path 55671" d="M.279-1.522v.046a.113.113,0,0,0-.024-.011.081.081,0,0,0-.024,0,.05.05,0,0,0-.037.015.05.05,0,0,0-.013.037.058.058,0,0,0,.013.04.053.053,0,0,0,.037.013.074.074,0,0,0,.026,0A.1.1,0,0,0,.279-1.4v.046a.111.111,0,0,1-.028.007l-.026,0a.11.11,0,0,1-.075-.024.087.087,0,0,1-.026-.068.085.085,0,0,1,.026-.066.106.106,0,0,1,.075-.026.1.1,0,0,1,.026,0l.028.006Z" transform="translate(-0.125 1.531)"/>
      </g>
      <g id="Group_1160" data-name="Group 1160" transform="translate(3.874 62.97)">
        <path id="Path_55672" data-name="Path 55672" d="M.116-1.922v.05H.175v.04H.116v.075a.028.028,0,0,0,0,.017.036.036,0,0,0,.02,0H.169v.04H.121a.071.071,0,0,1-.048-.013.071.071,0,0,1-.013-.048v-.075H.031v-.04H.061v-.05Z" transform="translate(-0.031 1.922)"/>
      </g>
    </g>
  </g>
</svg>
