<svg xmlns="http://www.w3.org/2000/svg" width="38.374" height="47" viewBox="0 0 38.374 47"><defs><style>.a,.b{fill:none;stroke:#454545;stroke-miterlimit:10;stroke-width:2px;}.b{stroke-linecap:round;}</style></defs><g transform="translate(-192.813 -520.916)"><path class="a" d="M228.187,544.916h-12a2,2,0,0,1-2-2h0a2,2,0,0,1,2-2h12a2,2,0,0,1,2,2h0A2,2,0,0,1,228.187,544.916Z"/><path class="a" d="M222.187,554.916h0a6,6,0,0,1-6-6v-4h12v4A6,6,0,0,1,222.187,554.916Z"/><line class="b" y1="7" transform="translate(218.187 534.916)"/><line class="b" y1="7" transform="translate(226.187 534.916)"/><path class="b" d="M222.187,554.916v6a6,6,0,0,1-6,6h-8.374"/><circle class="b" cx="4" cy="4" r="4" transform="translate(197.813 525.916)"/><line class="a" x2="1" transform="translate(199.813 529.916)"/><line class="a" x2="1" transform="translate(202.813 529.916)"/><circle class="b" cx="4" cy="4" r="4" transform="translate(197.813 536.916)"/><line class="a" x2="1" transform="translate(199.813 540.916)"/><line class="a" x2="1" transform="translate(202.813 540.916)"/><circle class="b" cx="4" cy="4" r="4" transform="translate(197.813 547.916)"/><line class="a" x2="1" transform="translate(199.813 551.916)"/><line class="a" x2="1" transform="translate(202.813 551.916)"/><rect class="a" width="16" height="38" rx="2" transform="translate(193.813 521.916)"/><path class="a" d="M201.813,559.916h0a7,7,0,0,0,7,7"/></g></svg>