<svg xmlns="http://www.w3.org/2000/svg" width="33" height="48" viewBox="0 0 33 48"><defs><style>.a{fill:none;stroke:#454545;stroke-miterlimit:10;stroke-width:2px;}</style></defs><g transform="translate(-302.58 -364.416)"><path class="a" d="M303.58,379.416h31v4l-5,3.5v7a10.5,10.5,0,0,1-10.5,10.5h0a10.5,10.5,0,0,1-10.5-10.5v-7.5l-5-3Z"/><path class="a" d="M312.58,365.416h0a2,2,0,0,0-2,2v12h4v-12A2,2,0,0,0,312.58,365.416Z"/><path class="a" d="M327.58,379.416v-12a2,2,0,0,0-2-2h0a2,2,0,0,0-2,2v12"/><line class="a" x2="11" transform="translate(313.58 393.415)"/><line class="a" x2="11" transform="translate(313.58 397.415)"/><line class="a" x2="11" transform="translate(313.58 389.415)"/><line class="a" y2="9" transform="translate(315.58 403.415)"/><line class="a" y2="9" transform="translate(322.58 403.415)"/></g></svg>