<svg xmlns="http://www.w3.org/2000/svg" width="42" height="48.482" viewBox="0 0 42 48.482"><defs><style>.a,.b{fill:none;stroke:#454545;stroke-linecap:round;stroke-width:2px;}.a{stroke-miterlimit:10;}.b{stroke-linejoin:round;}</style></defs><g transform="translate(-58 -287.933)"><path class="a" d="M81.186,304.933a21.755,21.755,0,0,0-4,20"/><path class="b" d="M80.186,317.933s14.5-4.375,2-21a23.091,23.091,0,0,1-7.723,7.263,9.657,9.657,0,0,0-3.59,3.8c-1.458,2.855-1.9,7.219,5.313,10.938"/><path class="b" d="M79,288.933l-20,8v14.56a15,15,0,0,0,4.669,10.875l12.576,11.947a4,4,0,0,0,5.51,0l12.576-11.947A15,15,0,0,0,99,311.493v-14.56Z"/></g></svg>