<svg xmlns="http://www.w3.org/2000/svg" width="42.783" height="47" viewBox="0 0 42.783 47"><defs><style>.a,.b{fill:none;stroke:#454545;stroke-miterlimit:10;stroke-width:2px;}.b{stroke-linecap:round;}</style></defs><g transform="translate(-304.5 -442.415)"><path class="a" d="M334.5,481.415l11-18h-6v-14l-11,19h6Z"/><path class="a" d="M305.5,453.416v4a2,2,0,0,0,2,2h0a2,2,0,0,1,2,2v6a2,2,0,0,0,2,2h8a2,2,0,0,0,2-2v-6a2,2,0,0,1,2-2h0a2,2,0,0,0,2-2v-4Z"/><line class="b" y1="10" transform="translate(309.5 443.415)"/><line class="b" y1="10" transform="translate(320.5 443.415)"/><line class="a" y2="20" transform="translate(315.5 469.415)"/><line class="a" x2="6" transform="translate(312.5 465.415)"/><line class="a" x2="6" transform="translate(312.5 461.415)"/></g></svg>