<svg xmlns="http://www.w3.org/2000/svg" width="28" height="48" viewBox="0 0 28 48"><defs><style>.a,.b{fill:none;stroke:#454545;stroke-miterlimit:10;stroke-width:2px;}.b{stroke-linecap:round;}</style></defs><g transform="translate(-196.58 -364.915)"><path class="a" d="M216.58,385.916h-12a2,2,0,0,1-2-2h0a2,2,0,0,1,2-2h12a2,2,0,0,1,2,2h0A2,2,0,0,1,216.58,385.916Z"/><path class="a" d="M210.58,395.916h0a6,6,0,0,1-6-6v-4h12v4A6,6,0,0,1,210.58,395.916Z"/><line class="b" y1="7" transform="translate(206.58 375.915)"/><line class="b" y1="7" transform="translate(214.58 375.915)"/><path class="b" d="M210.58,395.916v6a6,6,0,0,1-6,6h-7"/><rect class="a" width="26" height="46" rx="4" transform="translate(197.58 365.915)"/><path class="a" d="M216.58,368.916h-12a1,1,0,0,1-1-1v-2h14v2A1,1,0,0,1,216.58,368.916Z"/></g></svg>