<svg xmlns="http://www.w3.org/2000/svg" width="35" height="47" viewBox="0 0 35 47"><defs><style>.a,.b{fill:none;stroke:#454545;stroke-miterlimit:10;stroke-width:2px;}.b{stroke-linecap:round;}</style></defs><g transform="translate(-53.5 -442.915)"><path class="a" d="M84.75,457.916H68.25a2.884,2.884,0,0,1-2.75-3h0a2.883,2.883,0,0,1,2.75-3h16.5a2.883,2.883,0,0,1,2.75,3h0A2.884,2.884,0,0,1,84.75,457.916Z"/><line class="b" y1="10" transform="translate(70.5 443.915)"/><line class="b" y1="10" transform="translate(82.5 443.915)"/><path class="a" d="M76.5,471.916h0a8,8,0,0,1-8-8v-6h16v6A8,8,0,0,1,76.5,471.916Z"/><path class="a" d="M76.5,471.916v6a11,11,0,0,1-11,11h0a11,11,0,0,1-11-11"/></g></svg>