<svg xmlns="http://www.w3.org/2000/svg" width="34" height="44" viewBox="0 0 34 44"><defs><style>.a{fill:none;stroke:#454545;stroke-linejoin:round;stroke-width:2px;}</style></defs><g transform="translate(-128 -290.174)"><ellipse class="a" cx="7" cy="6" rx="7" ry="6" transform="translate(129 291.174)"/><path class="a" d="M143,327.174c0,3.866-3.134,6-7,6s-7-2.134-7-6"/><line class="a" y1="30" transform="translate(129 297.174)"/><line class="a" y1="30" transform="translate(143 297.174)"/><path class="a" d="M134,298.174v-2a1,1,0,0,1,1-1h2a1,1,0,0,1,1,1v2"/><ellipse class="a" cx="7" cy="6" rx="7" ry="6" transform="translate(147 291.174)"/><path class="a" d="M161,327.174c0,3.866-3.134,6-7,6s-7-2.134-7-6"/><line class="a" y1="30" transform="translate(147 297.174)"/><line class="a" y1="30" transform="translate(161 297.174)"/><path class="a" d="M152,298.174v-2a1,1,0,0,1,1-1h2a1,1,0,0,1,1,1v2"/><line class="a" y2="6" transform="translate(136 306.174)"/><line class="a" x1="6" transform="translate(133 309.174)"/><line class="a" x1="6" transform="translate(133 327.174)"/><line class="a" y2="6" transform="translate(154 306.174)"/><line class="a" x1="6" transform="translate(151 309.174)"/><line class="a" x1="6" transform="translate(151 327.174)"/></g></svg>