<svg xmlns="http://www.w3.org/2000/svg" width="48" height="48" viewBox="0 0 48 48"><defs><style>.a{fill:none;stroke:#454545;stroke-miterlimit:10;stroke-width:2px;}</style></defs><g transform="translate(-64.42 -364.915)"><rect class="a" width="46" height="46" transform="translate(65.42 365.915)"/><circle class="a" cx="3" cy="3" r="3" transform="translate(77.42 385.915)"/><circle class="a" cx="3" cy="3" r="3" transform="translate(93.42 385.915)"/><path class="a" d="M90.42,371.033v4.883a2,2,0,0,1-2,2h0a2,2,0,0,1-2-2v-4.883a17.993,17.993,0,0,0,0,35.765v-4.882a2,2,0,0,1,2-2h0a2,2,0,0,1,2,2V406.8a17.993,17.993,0,0,0,0-35.765Z"/></g></svg>