<svg xmlns="http://www.w3.org/2000/svg" width="36" height="40" viewBox="0 0 36 40"><defs><style>.a{fill:none;stroke:#454545;stroke-miterlimit:10;stroke-width:2px;}</style></defs><g transform="translate(-191 -292.674)"><path class="a" d="M213,322.674v-4a10.836,10.836,0,0,0,5-8.5,9.015,9.015,0,0,0-18,0,10.833,10.833,0,0,0,5,8.5v4"/><line class="a" y1="8" transform="translate(209 314.674)"/><line class="a" x2="4" transform="translate(207 313.674)"/><line class="a" x2="10" transform="translate(204 325.674)"/><line class="a" x2="10" transform="translate(204 328.674)"/><line class="a" x2="8" transform="translate(205 331.674)"/><line class="a" y1="4.243" x2="4.243" transform="translate(196.787 318.645)"/><line class="a" y1="4.243" x2="4.243" transform="translate(218 297.431)"/><line class="a" y1="6" transform="translate(209 292.674)"/><line class="a" x2="6" transform="translate(191 309.674)"/><line class="a" x2="6" transform="translate(221 309.674)"/><line class="a" x1="4.243" y1="4.243" transform="translate(216.971 318.645)"/><line class="a" x1="4.243" y1="4.243" transform="translate(195.757 297.431)"/></g></svg>