<svg xmlns="http://www.w3.org/2000/svg" width="587.938" height="406.071" viewBox="0 0 587.938 406.071">
  <g id="Ophtamology" transform="translate(1.743 -7.5)">
    <path id="Path_54430" data-name="Path 54430" d="M110.691,206.382a90.8,90.8,0,0,0,90.691-90.691,94.454,94.454,0,0,0-3.043-23.479,10.087,10.087,0,0,0-16.627-4.867A30.2,30.2,0,0,1,139.027,44.66a10.087,10.087,0,0,0-4.867-16.627A94.771,94.771,0,0,0,110.691,25a90.691,90.691,0,1,0,0,181.382Zm0-161.228c1.381,0,2.771.04,4.172.131A50.341,50.341,0,0,0,181.1,111.519c.091,1.4.131,2.791.131,4.172a70.537,70.537,0,1,1-70.537-70.537Z" transform="translate(181.536 145.228)" stroke="#000" stroke-width="3"/>
    <path id="Path_54431" data-name="Path 54431" d="M582.579,164.3C578.336,158.362,476.672,19,292.226,19S6.117,158.362,1.874,164.3a10.081,10.081,0,0,0,0,11.709c.877,1.239,22.058,30.6,62.355,62.869a10.08,10.08,0,1,0,12.6-15.74,362.058,362.058,0,0,1-53.991-52.984C39.229,150,99.347,83.179,196.134,53.543a150.945,150.945,0,0,0-55.059,116.608c0,83.345,67.807,151.152,151.152,151.152S443.378,253.5,443.378,170.152A150.892,150.892,0,0,0,388.389,53.624c96.586,29.676,156.795,96.415,173.22,116.548a362.67,362.67,0,0,1-53.991,52.974,10.08,10.08,0,0,0,12.6,15.74c40.307-32.266,61.478-61.64,62.355-62.869A10.08,10.08,0,0,0,582.579,164.3Zm-159.354,5.855c0,72.23-58.768,131-131,131s-131-58.768-131-131,58.768-131,131-131A131.143,131.143,0,0,1,423.225,170.152Z" transform="translate(0 90.768)" stroke="#000" stroke-width="3"/>
    <path id="Path_54432" data-name="Path 54432" d="M23.2,159.356c42.726-31.812,112.92-69.741,204.7-69.741s161.974,37.929,204.7,69.741a10.075,10.075,0,1,0,12.032-16.163c-8.192-6.107-17.372-12.415-27.449-18.662l16.345-28.366A10.078,10.078,0,1,0,416.063,86.1l-16.3,28.3a368.854,368.854,0,0,0-68.441-29.182l10-37.214a10.078,10.078,0,1,0-19.468-5.22L311.92,79.739a348.562,348.562,0,0,0-73.953-10.016V19.077a10.077,10.077,0,1,0-20.154,0V69.723a347.825,347.825,0,0,0-73.953,10.016l-9.926-36.962A10.078,10.078,0,0,0,114.465,48l10,37.214A367.8,367.8,0,0,0,56.02,114.393l-16.3-28.3A10.078,10.078,0,1,0,22.253,96.164L38.6,124.53C28.52,130.778,19.34,137.1,11.148,143.192A10.081,10.081,0,1,0,23.2,159.356Z" transform="translate(64.327 0)" stroke="#000" stroke-width="3"/>
  </g>
</svg>
