<?xml version="1.0" encoding="UTF-8"?>
<svg xmlns="http://www.w3.org/2000/svg" xmlns:xlink="http://www.w3.org/1999/xlink" width="24px" height="25px" viewBox="0 0 24 22" version="1.1">
<g id="surface1">
<path style=" stroke:none;fill-rule:nonzero;fill:rgb(0%,0%,0%);fill-opacity:1;" d="M 3.289062 21.542969 L 2.839844 20.929688 C 2.777344 20.839844 2.675781 20.792969 2.566406 20.800781 C 2.457031 20.808594 2.359375 20.875 2.316406 20.96875 C 2.273438 21.066406 2.285156 21.179688 2.351562 21.261719 L 2.800781 21.878906 C 2.863281 21.964844 2.96875 22.015625 3.078125 22.003906 C 3.183594 21.996094 3.28125 21.933594 3.324219 21.835938 C 3.371094 21.738281 3.355469 21.625 3.289062 21.542969 Z M 3.289062 21.542969 "/>
<path style=" stroke:none;fill-rule:nonzero;fill:rgb(0%,0%,0%);fill-opacity:1;" d="M 6.746094 21.652344 L 6.257812 19.390625 C 6.023438 18.296875 5.351562 17.332031 4.390625 16.710938 L 3.34375 16.03125 C 2.921875 15.757812 2.363281 15.8125 2.007812 16.160156 L 2.007812 12.675781 C 2.007812 12.300781 1.785156 11.960938 1.4375 11.800781 C 1.089844 11.636719 0.675781 11.683594 0.375 11.917969 C 0.136719 12.101562 0 12.378906 0 12.675781 L 0 17.164062 C 0 17.75 0.1875 18.320312 0.539062 18.796875 L 1.074219 19.523438 C 1.132812 19.613281 1.238281 19.660156 1.347656 19.652344 C 1.457031 19.644531 1.550781 19.578125 1.597656 19.480469 C 1.640625 19.386719 1.628906 19.273438 1.5625 19.1875 L 1.027344 18.460938 C 0.746094 18.082031 0.597656 17.628906 0.597656 17.164062 L 0.597656 12.675781 C 0.597656 12.457031 0.78125 12.285156 1.003906 12.285156 C 1.226562 12.285156 1.40625 12.457031 1.40625 12.675781 L 1.40625 16.238281 C 1.40625 16.738281 1.597656 17.222656 1.945312 17.59375 C 1.960938 17.613281 1.976562 17.628906 1.992188 17.644531 C 2.191406 17.851562 2.425781 18.089844 2.644531 18.316406 L 2.953125 18.632812 L 2.957031 18.636719 L 3.421875 19.113281 C 3.492188 19.1875 3.601562 19.222656 3.707031 19.199219 C 3.816406 19.175781 3.898438 19.101562 3.929688 19 C 3.960938 18.898438 3.933594 18.789062 3.855469 18.714844 C 3.851562 18.710938 3.5 18.347656 3.101562 17.9375 L 2.414062 17.230469 L 2.40625 17.226562 C 2.246094 17.039062 2.25 16.765625 2.417969 16.585938 C 2.570312 16.421875 2.820312 16.390625 3.007812 16.511719 L 4.054688 17.195312 C 4.886719 17.730469 5.464844 18.5625 5.667969 19.507812 L 6.160156 21.769531 C 6.195312 21.925781 6.355469 22.027344 6.515625 21.996094 C 6.675781 21.960938 6.78125 21.808594 6.746094 21.652344 Z M 6.746094 21.652344 "/>
<path style=" stroke:none;fill-rule:nonzero;fill:rgb(0%,0%,0%);fill-opacity:1;" d="M 2.21875 20.085938 L 2.21875 20.082031 C 2.121094 19.953125 1.933594 19.921875 1.800781 20.015625 C 1.664062 20.109375 1.632812 20.289062 1.730469 20.417969 L 1.730469 20.421875 C 1.828125 20.550781 2.015625 20.582031 2.148438 20.488281 C 2.285156 20.394531 2.316406 20.214844 2.21875 20.085938 Z M 2.21875 20.085938 "/>
<path style=" stroke:none;fill-rule:nonzero;fill:rgb(0%,0%,0%);fill-opacity:1;" d="M 23.625 11.917969 C 23.324219 11.683594 22.910156 11.636719 22.5625 11.800781 C 22.214844 11.960938 21.992188 12.300781 21.992188 12.675781 L 21.992188 16.164062 C 21.640625 15.816406 21.078125 15.761719 20.65625 16.03125 L 19.609375 16.710938 C 18.648438 17.335938 17.976562 18.296875 17.742188 19.390625 L 17.253906 21.652344 C 17.21875 21.808594 17.320312 21.960938 17.484375 21.996094 C 17.644531 22.027344 17.804688 21.929688 17.839844 21.769531 L 18.328125 19.511719 C 18.535156 18.5625 19.113281 17.730469 19.945312 17.195312 L 20.992188 16.511719 C 21.179688 16.390625 21.429688 16.421875 21.582031 16.585938 C 21.75 16.765625 21.753906 17.039062 21.59375 17.226562 L 21.585938 17.230469 L 20.144531 18.714844 C 20.066406 18.792969 20.039062 18.898438 20.070312 19 C 20.101562 19.101562 20.183594 19.175781 20.289062 19.199219 C 20.394531 19.222656 20.507812 19.191406 20.578125 19.113281 C 20.582031 19.109375 21.808594 17.851562 22.007812 17.644531 C 22.023438 17.628906 22.039062 17.613281 22.054688 17.59375 C 22.402344 17.222656 22.59375 16.738281 22.59375 16.238281 L 22.59375 12.675781 C 22.59375 12.457031 22.773438 12.285156 22.996094 12.285156 C 23.21875 12.285156 23.402344 12.457031 23.402344 12.675781 L 23.402344 17.164062 C 23.402344 17.628906 23.253906 18.082031 22.972656 18.460938 L 20.710938 21.542969 C 20.644531 21.628906 20.628906 21.738281 20.675781 21.835938 C 20.71875 21.933594 20.816406 21.996094 20.921875 22.007812 C 21.03125 22.015625 21.136719 21.964844 21.199219 21.878906 L 23.460938 18.796875 C 23.8125 18.320312 24 17.75 24 17.164062 L 24 12.671875 C 24 12.378906 23.863281 12.101562 23.625 11.917969 Z M 23.625 11.917969 "/>
<path style=" stroke:none;fill-rule:nonzero;fill:rgb(0%,0%,0%);fill-opacity:1;" d="M 15.796875 5.550781 L 15.265625 5.425781 L 15.265625 5.335938 C 15.625 5.09375 15.839844 4.695312 15.839844 4.273438 L 15.839844 3.601562 C 15.839844 3.097656 15.535156 2.636719 15.058594 2.425781 C 14.582031 2.214844 14.023438 2.289062 13.628906 2.617188 C 13.359375 1.980469 12.71875 1.5625 12.003906 1.566406 C 11.292969 1.566406 10.652344 1.984375 10.386719 2.621094 C 9.988281 2.289062 9.429688 2.214844 8.953125 2.425781 C 8.476562 2.636719 8.171875 3.097656 8.171875 3.601562 L 8.171875 4.273438 C 8.171875 4.695312 8.386719 5.09375 8.746094 5.335938 L 8.746094 5.425781 L 8.210938 5.550781 C 7.578125 5.695312 7.128906 6.242188 7.128906 6.871094 L 7.128906 7.414062 C 7.128906 7.488281 7.160156 7.5625 7.21875 7.617188 C 7.273438 7.671875 7.351562 7.703125 7.429688 7.703125 L 8.808594 7.703125 C 8.804688 7.738281 8.804688 7.773438 8.804688 7.808594 L 8.804688 8.851562 C 8.804688 9.011719 8.9375 9.140625 9.101562 9.140625 L 10.902344 9.140625 C 11.070312 9.140625 11.203125 9.011719 11.203125 8.851562 C 11.203125 8.691406 11.070312 8.5625 10.902344 8.5625 L 10.59375 8.5625 L 10.59375 7.964844 C 10.59375 7.804688 10.460938 7.675781 10.296875 7.675781 C 10.128906 7.675781 9.996094 7.804688 9.996094 7.964844 L 9.996094 8.5625 L 9.402344 8.5625 L 9.402344 7.808594 C 9.402344 7.253906 9.796875 6.769531 10.355469 6.640625 L 11.179688 6.449219 L 11.730469 7.660156 C 11.777344 7.765625 11.886719 7.832031 12.003906 7.832031 C 12.121094 7.832031 12.230469 7.765625 12.277344 7.660156 L 12.828125 6.449219 L 13.648438 6.640625 C 14.207031 6.769531 14.605469 7.253906 14.601562 7.808594 L 14.601562 8.5625 L 14.011719 8.5625 L 14.011719 7.964844 C 14.011719 7.804688 13.875 7.671875 13.710938 7.671875 C 13.546875 7.671875 13.410156 7.804688 13.410156 7.964844 L 13.410156 8.5625 L 13.070312 8.5625 C 12.90625 8.5625 12.773438 8.691406 12.773438 8.851562 C 12.773438 9.011719 12.90625 9.140625 13.070312 9.140625 L 14.902344 9.140625 C 15.066406 9.140625 15.203125 9.011719 15.203125 8.851562 L 15.203125 7.8125 C 15.203125 7.773438 15.199219 7.738281 15.199219 7.703125 L 16.578125 7.703125 C 16.746094 7.703125 16.878906 7.574219 16.878906 7.414062 L 16.878906 6.875 C 16.878906 6.242188 16.433594 5.695312 15.796875 5.550781 Z M 14.496094 2.886719 C 14.886719 2.886719 15.210938 3.179688 15.238281 3.554688 L 14.820312 3.554688 C 14.472656 3.554688 14.125 3.472656 13.816406 3.320312 C 13.933594 3.054688 14.199219 2.886719 14.496094 2.886719 Z M 13.753906 4.230469 C 13.753906 4.214844 13.753906 4.203125 13.753906 4.1875 L 13.753906 3.929688 C 14.09375 4.066406 14.453125 4.136719 14.820312 4.136719 L 15.238281 4.136719 L 15.238281 4.273438 C 15.238281 4.671875 14.90625 4.992188 14.496094 4.992188 C 14.085938 4.992188 13.753906 4.671875 13.753906 4.273438 Z M 10.855469 3.253906 C 10.855469 2.675781 11.316406 2.191406 11.914062 2.144531 C 12.511719 2.097656 13.046875 2.503906 13.140625 3.078125 L 12.636719 2.792969 C 12.511719 2.71875 12.351562 2.746094 12.257812 2.855469 C 12.011719 3.140625 11.648438 3.304688 11.265625 3.300781 L 10.855469 3.300781 Z M 9.511719 2.886719 C 9.808594 2.886719 10.074219 3.054688 10.191406 3.320312 C 9.882812 3.472656 9.539062 3.554688 9.1875 3.554688 L 8.769531 3.554688 C 8.796875 3.179688 9.121094 2.886719 9.511719 2.886719 Z M 8.769531 4.136719 L 9.1875 4.136719 C 9.554688 4.132812 9.914062 4.066406 10.253906 3.929688 L 10.253906 4.273438 C 10.253906 4.667969 9.921875 4.988281 9.511719 4.988281 C 9.101562 4.988281 8.769531 4.667969 8.769531 4.273438 Z M 10.214844 6.078125 C 9.640625 6.210938 9.167969 6.597656 8.941406 7.125 L 7.730469 7.125 L 7.730469 6.871094 C 7.730469 6.511719 7.988281 6.195312 8.351562 6.113281 L 9.113281 5.9375 C 9.25 5.90625 9.34375 5.789062 9.34375 5.652344 L 9.34375 5.558594 C 9.457031 5.570312 9.566406 5.570312 9.679688 5.558594 L 9.679688 5.640625 C 9.679688 5.644531 9.679688 5.648438 9.679688 5.652344 C 9.679688 5.792969 9.78125 5.910156 9.921875 5.9375 L 10.371094 6.039062 Z M 11.050781 5.628906 C 10.976562 5.59375 10.894531 5.570312 10.8125 5.550781 L 10.277344 5.425781 L 10.277344 5.335938 C 10.375 5.269531 10.460938 5.195312 10.535156 5.105469 C 10.671875 5.304688 10.847656 5.476562 11.050781 5.605469 Z M 12.351562 6.054688 L 12.003906 6.824219 L 11.652344 6.050781 L 11.652344 5.84375 C 11.882812 5.890625 12.121094 5.890625 12.355469 5.84375 Z M 12.007812 5.300781 C 11.371094 5.300781 10.855469 4.800781 10.855469 4.1875 L 10.855469 3.882812 L 11.265625 3.882812 C 11.734375 3.882812 12.191406 3.714844 12.539062 3.40625 L 13.15625 3.757812 L 13.15625 4.230469 C 13.132812 4.828125 12.625 5.300781 12.007812 5.300781 Z M 12.953125 5.628906 L 12.953125 5.609375 C 13.160156 5.480469 13.339844 5.308594 13.472656 5.109375 C 13.546875 5.195312 13.636719 5.269531 13.730469 5.335938 L 13.730469 5.425781 L 13.195312 5.550781 C 13.113281 5.570312 13.03125 5.59375 12.953125 5.628906 Z M 16.277344 7.125 L 15.0625 7.125 C 14.835938 6.597656 14.359375 6.210938 13.785156 6.078125 L 13.636719 6.042969 L 14.085938 5.941406 C 14.226562 5.914062 14.332031 5.792969 14.332031 5.65625 C 14.332031 5.652344 14.332031 5.648438 14.332031 5.648438 L 14.332031 5.558594 C 14.441406 5.570312 14.554688 5.570312 14.664062 5.558594 L 14.664062 5.65625 C 14.664062 5.789062 14.761719 5.90625 14.894531 5.9375 L 15.660156 6.113281 C 16.023438 6.195312 16.28125 6.511719 16.28125 6.871094 L 16.28125 7.125 Z M 16.277344 7.125 "/>
<path style=" stroke:none;fill-rule:nonzero;fill:rgb(0%,0%,0%);fill-opacity:1;" d="M 12.210938 12.957031 C 12.109375 12.859375 11.953125 12.84375 11.832031 12.921875 C 11.714844 13 11.667969 13.144531 11.722656 13.273438 C 11.777344 13.402344 11.917969 13.472656 12.058594 13.445312 C 12.199219 13.417969 12.300781 13.300781 12.300781 13.164062 C 12.300781 13.085938 12.269531 13.011719 12.210938 12.957031 Z M 12.210938 12.957031 "/>
<path style=" stroke:none;fill-rule:nonzero;fill:rgb(0%,0%,0%);fill-opacity:1;" d="M 12 0 C 11.832031 0 11.699219 0.128906 11.699219 0.289062 L 11.699219 0.722656 C 11.699219 0.882812 11.832031 1.011719 12 1.011719 C 12.164062 1.011719 12.296875 0.882812 12.296875 0.722656 L 12.296875 0.289062 C 12.296875 0.128906 12.164062 0 12 0 Z M 12 0 "/>
<path style=" stroke:none;fill-rule:nonzero;fill:rgb(0%,0%,0%);fill-opacity:1;" d="M 10.011719 0.945312 L 9.699219 0.640625 C 9.621094 0.566406 9.511719 0.535156 9.40625 0.5625 C 9.300781 0.589844 9.222656 0.667969 9.195312 0.769531 C 9.167969 0.871094 9.195312 0.976562 9.273438 1.050781 L 9.589844 1.355469 C 9.664062 1.429688 9.773438 1.457031 9.878906 1.433594 C 9.984375 1.40625 10.066406 1.328125 10.09375 1.226562 C 10.121094 1.125 10.089844 1.015625 10.011719 0.945312 Z M 10.011719 0.945312 "/>
<path style=" stroke:none;fill-rule:nonzero;fill:rgb(0%,0%,0%);fill-opacity:1;" d="M 14.714844 0.648438 C 14.597656 0.535156 14.40625 0.535156 14.289062 0.648438 L 13.980469 0.949219 C 13.902344 1.023438 13.871094 1.128906 13.898438 1.230469 C 13.925781 1.332031 14.007812 1.410156 14.113281 1.4375 C 14.214844 1.464844 14.328125 1.433594 14.402344 1.359375 L 14.714844 1.058594 C 14.832031 0.945312 14.832031 0.761719 14.714844 0.648438 Z M 14.714844 0.648438 "/>
</g>
</svg>
