<svg xmlns="http://www.w3.org/2000/svg" width="359.096" height="333.289" viewBox="0 0 359.096 333.289">
  <g id="medication-to-reduce-waist-svgrepo-com" transform="translate(1.5 -4.45)">
    <path id="Path_56058" data-name="Path 56058" d="M155.518,228.461a13.9,13.9,0,1,1,13.887,13.878A13.886,13.886,0,0,1,155.518,228.461ZM26.967,169.43,65.126,131.3,26.967,93.144V110.16H0v42.288H26.967ZM356.1,81.41V224.091c0,18.251-29.663,28.724-62.334,30.876,14.555,27.126,20.63,51.742,18.409,75.157a6.736,6.736,0,0,1-6.708,6.114,5.41,5.41,0,0,1-.661-.026,6.756,6.756,0,0,1-6.1-7.368c1.954-20.194-3.381-41.787-15.978-65.835-33.916,13.87-72.242,21.328-111.166,21.328H171.5c-40.286,0-79.8-7.908-114.664-22.766-9.9,18.487-19.123,42.13-16.746,67.275A6.772,6.772,0,0,1,34,336.213a5.16,5.16,0,0,1-.64.026,6.731,6.731,0,0,1-6.728-6.114c-3.995-42.034,19.782-79,32.561-98.849C121.5,134.553,48.213,52.007,45.062,48.548a6.756,6.756,0,0,1,9.979-9.111c.839.917,83.524,93.568,15.5,199.16-2.015,3.169-4.4,6.973-6.895,10.985,32.832,13.787,69.888,21.209,107.852,21.209h.052a284.566,284.566,0,0,0,94.195-16.058c-31.563-2.548-59.521-12.967-59.521-30.691V81.382c0-6.478,3.991-15.392,21.315-22.437V29.575a6.678,6.678,0,0,1,.607-2.733C231.193,12.571,256.881,5.95,281.154,5.95c24.248,0,49.931,6.624,53.008,20.892a6.983,6.983,0,0,1,.581,2.733V58.958C352.108,66.057,356.1,74.971,356.1,81.41ZM321.232,45.785c-10.434,4.98-25.488,7.443-40.069,7.443s-29.609-2.464-40.1-7.443V62.676a6.9,6.9,0,0,1,0,1.961v1.937c.82,2.687,14.369,10.089,40.1,10.089,25.7,0,39.275-7.4,40.093-10.209ZM241.068,29.694v.039c.846,2.581,14.4,9.972,40.1,9.972s39.275-7.415,40.093-10.228c-.818-2.581-14.368-9.979-40.093-9.979C255.488,19.5,241.94,26.866,241.068,29.694ZM219.755,81.41c0,6.029,21.684,17.769,61.408,17.769s61.408-11.742,61.408-17.769c0-2.073-3.091-5.316-9.56-8.465-6.285,11.762-29.741,17.227-51.848,17.227-22.135,0-45.589-5.481-51.874-17.253C221.971,76.47,219.755,79.851,219.755,81.41Zm0,104.542c0,5.678,19.227,16.427,54.646,17.643v-51.26c-21.209-.74-41.731-4.973-54.646-12.508Zm122.819,38.139V100.11c-14.29,8.307-37.929,12.605-61.408,12.605s-47.122-4.286-61.408-12.605v21.044c0,6.029,21.684,17.769,61.408,17.769a6.766,6.766,0,0,1,6.76,6.76V210.46a6.773,6.773,0,0,1-6.76,6.762c-23.482,0-47.122-4.281-61.408-12.625v19.467c0,6.021,21.684,17.776,61.408,17.776S342.574,230.127,342.574,224.091Z" transform="translate(0 0)" stroke="#000" stroke-width="3"/>
  </g>
</svg>
