<?xml version="1.0" encoding="UTF-8"?>
<svg xmlns="http://www.w3.org/2000/svg" xmlns:xlink="http://www.w3.org/1999/xlink" width="25px" height="25px" viewBox="0 0 25 25" version="1.1">
<g id="surface1">
<path style=" stroke:none;fill-rule:nonzero;fill:rgb(0%,0%,0%);fill-opacity:1;" d="M 12.625 15.890625 C 10.601562 15.890625 8.851562 15.101562 8 13.839844 C 7.550781 13.152344 7 12.601562 6.347656 12.234375 L 6.625 11.707031 C 7.347656 12.128906 7.949219 12.734375 8.449219 13.496094 C 9.171875 14.601562 10.773438 15.285156 12.601562 15.285156 C 14.398438 15.285156 15.976562 14.601562 16.699219 13.496094 C 17.300781 12.601562 18.050781 11.917969 18.925781 11.496094 L 19.148438 12.050781 C 18.347656 12.417969 17.699219 13.023438 17.148438 13.839844 C 16.347656 15.128906 14.648438 15.890625 12.621094 15.890625 Z M 12.625 15.890625 "/>
<path style=" stroke:none;fill-rule:nonzero;fill:rgb(0%,0%,0%);fill-opacity:1;" d="M 20.074219 24.996094 C 19.523438 24.996094 17.648438 24.863281 16.300781 23.128906 C 15.648438 22.285156 14.25 21.785156 12.648438 21.785156 C 11.023438 21.785156 9.574219 22.3125 8.949219 23.128906 C 7.375 25.128906 5.101562 24.996094 5 24.996094 L 5.050781 24.390625 C 5.074219 24.390625 7.125 24.496094 8.5 22.734375 C 9.25 21.757812 10.851562 21.152344 12.652344 21.152344 C 14.453125 21.152344 16 21.734375 16.75 22.734375 C 18.125 24.523438 20.175781 24.390625 20.199219 24.390625 L 20.25 24.996094 Z M 20.074219 24.996094 "/>
<path style=" stroke:none;fill-rule:nonzero;fill:rgb(0%,0%,0%);fill-opacity:1;" d="M 0 24.390625 L 25 24.390625 L 25 24.996094 L 0 24.996094 Z M 0 24.390625 "/>
<path style=" stroke:none;fill-rule:nonzero;fill:rgb(0%,0%,0%);fill-opacity:1;" d="M 18.824219 19.785156 C 18.523438 19.785156 18.199219 19.652344 17.925781 19.445312 C 17.324219 18.996094 17.078125 18.257812 17.324219 17.785156 C 17.433594 17.59375 17.617188 17.460938 17.824219 17.417969 C 18.148438 17.339844 18.574219 17.46875 18.925781 17.734375 C 19.523438 18.179688 19.773438 18.917969 19.523438 19.390625 C 19.414062 19.582031 19.234375 19.71875 19.023438 19.757812 C 18.960938 19.78125 18.890625 19.789062 18.824219 19.785156 Z M 18.25 18.96875 C 18.472656 19.128906 18.726562 19.234375 18.898438 19.179688 C 19 19.152344 19.023438 19.101562 19.023438 19.101562 C 19.101562 18.945312 18.976562 18.546875 18.601562 18.234375 C 18.375 18.074219 18.125 17.96875 17.949219 18.023438 C 17.851562 18.046875 17.824219 18.101562 17.824219 18.101562 C 17.722656 18.257812 17.875 18.679688 18.25 18.96875 Z M 18.25 18.96875 "/>
<path style=" stroke:none;fill-rule:nonzero;fill:rgb(0%,0%,0%);fill-opacity:1;" d="M 21.199219 23.128906 L 21.074219 23.128906 C 20.863281 23.109375 20.671875 22.992188 20.550781 22.8125 C 20.25 22.363281 20.449219 21.601562 21.023438 21.101562 C 21.375 20.785156 21.773438 20.628906 22.097656 20.679688 C 22.308594 20.695312 22.503906 20.8125 22.625 20.992188 C 22.925781 21.441406 22.722656 22.203125 22.148438 22.703125 C 21.875 22.96875 21.5 23.128906 21.199219 23.128906 Z M 22 21.257812 C 21.851562 21.257812 21.625 21.339844 21.398438 21.550781 C 21.023438 21.890625 20.925781 22.3125 21.023438 22.441406 C 21.023438 22.46875 21.074219 22.496094 21.148438 22.519531 C 21.273438 22.546875 21.523438 22.46875 21.800781 22.230469 C 22.175781 21.890625 22.273438 21.46875 22.175781 21.339844 C 22.175781 21.3125 22.125 21.285156 22.050781 21.257812 Z M 22 21.257812 "/>
<path style=" stroke:none;fill-rule:nonzero;fill:rgb(0%,0%,0%);fill-opacity:1;" d="M 2.773438 23.257812 C 2.464844 23.257812 2.164062 23.167969 1.898438 22.996094 C 1.5 22.761719 1.226562 22.417969 1.148438 22.074219 C 1.105469 21.859375 1.140625 21.632812 1.25 21.441406 C 1.550781 20.996094 2.300781 20.941406 2.925781 21.339844 C 3.328125 21.574219 3.601562 21.917969 3.675781 22.257812 C 3.71875 22.476562 3.683594 22.703125 3.574219 22.890625 C 3.425781 23.125 3.125 23.257812 2.773438 23.257812 Z M 2.074219 21.652344 C 1.898438 21.652344 1.800781 21.707031 1.75 21.757812 C 1.734375 21.808594 1.726562 21.863281 1.726562 21.917969 C 1.75 22.046875 1.898438 22.285156 2.199219 22.441406 C 2.625 22.707031 3.046875 22.652344 3.125 22.496094 C 3.140625 22.445312 3.148438 22.390625 3.148438 22.339844 C 3.125 22.207031 2.976562 21.96875 2.675781 21.8125 C 2.488281 21.71875 2.28125 21.664062 2.074219 21.652344 Z M 2.074219 21.652344 "/>
<path style=" stroke:none;fill-rule:nonzero;fill:rgb(0%,0%,0%);fill-opacity:1;" d="M 7.574219 20.523438 C 7.273438 20.523438 6.949219 20.390625 6.648438 20.179688 C 6.050781 19.707031 5.800781 18.96875 6.074219 18.523438 C 6.175781 18.339844 6.375 18.207031 6.574219 18.152344 C 6.898438 18.074219 7.324219 18.207031 7.675781 18.496094 C 8.273438 18.96875 8.523438 19.707031 8.25 20.152344 C 8.148438 20.339844 7.949219 20.46875 7.75 20.523438 Z M 6.800781 18.734375 L 6.726562 18.734375 C 6.625 18.757812 6.601562 18.8125 6.601562 18.8125 C 6.523438 18.96875 6.625 19.363281 7.023438 19.679688 C 7.25 19.863281 7.5 19.941406 7.675781 19.914062 C 7.773438 19.890625 7.800781 19.863281 7.800781 19.835938 C 7.875 19.679688 7.773438 19.285156 7.375 18.96875 C 7.175781 18.808594 6.949219 18.734375 6.800781 18.734375 Z M 6.800781 18.734375 "/>
<path style=" stroke:none;fill-rule:nonzero;fill:rgb(0%,0%,0%);fill-opacity:1;" d="M 21.125 16.679688 L 21.074219 16.679688 C 20.835938 16.6875 20.613281 16.570312 20.476562 16.363281 C 20.101562 15.890625 20.273438 14.996094 20.875 14.339844 C 21.25 13.945312 21.703125 13.707031 22.101562 13.734375 C 22.339844 13.726562 22.5625 13.84375 22.703125 14.046875 C 23.078125 14.523438 22.902344 15.417969 22.300781 16.074219 C 21.949219 16.441406 21.5 16.679688 21.125 16.679688 Z M 22.050781 14.363281 C 21.828125 14.363281 21.523438 14.523438 21.273438 14.789062 C 20.875 15.234375 20.726562 15.789062 20.898438 16 C 20.953125 16.054688 21.027344 16.082031 21.101562 16.078125 C 21.324219 16.105469 21.648438 15.917969 21.898438 15.65625 C 22.300781 15.207031 22.449219 14.65625 22.273438 14.445312 C 22.25 14.417969 22.199219 14.363281 22.050781 14.363281 Z M 22.050781 14.363281 "/>
<path style=" stroke:none;fill-rule:nonzero;fill:rgb(0%,0%,0%);fill-opacity:1;" d="M 12.5 19.601562 C 11.652344 19.601562 11 19.074219 11 18.417969 C 11 17.757812 11.675781 17.234375 12.5 17.234375 C 13.347656 17.234375 14 17.757812 14 18.417969 C 14 19.101562 13.347656 19.601562 12.5 19.601562 Z M 12.5 17.863281 C 11.949219 17.863281 11.574219 18.152344 11.574219 18.441406 C 11.574219 18.703125 11.949219 19.019531 12.5 19.019531 C 13.050781 19.019531 13.425781 18.730469 13.425781 18.441406 C 13.425781 18.152344 13.050781 17.863281 12.5 17.863281 Z M 12.5 17.863281 "/>
<path style=" stroke:none;fill-rule:nonzero;fill:rgb(0%,0%,0%);fill-opacity:1;" d="M 3.699219 16.785156 C 3.609375 16.789062 3.515625 16.78125 3.425781 16.757812 C 3.1875 16.707031 2.976562 16.554688 2.851562 16.335938 C 2.550781 15.785156 2.875 14.941406 3.574219 14.441406 C 4 14.125 4.476562 14.019531 4.851562 14.101562 C 5.089844 14.152344 5.296875 14.304688 5.425781 14.523438 C 5.726562 15.074219 5.398438 15.917969 4.699219 16.417969 C 4.410156 16.648438 4.0625 16.777344 3.699219 16.785156 Z M 4.625 14.679688 C 4.425781 14.679688 4.175781 14.785156 3.925781 14.941406 C 3.449219 15.285156 3.25 15.8125 3.375 16.046875 C 3.398438 16.128906 3.476562 16.152344 3.574219 16.179688 C 3.796875 16.234375 4.125 16.15625 4.398438 15.945312 C 4.875 15.601562 5.074219 15.078125 4.949219 14.839844 C 4.925781 14.761719 4.851562 14.734375 4.75 14.707031 C 4.726562 14.683594 4.675781 14.683594 4.625 14.683594 Z M 4.625 14.679688 "/>
<path style=" stroke:none;fill-rule:nonzero;fill:rgb(0%,0%,0%);fill-opacity:1;" d="M 11.5 11.207031 C 11.464844 11.210938 11.429688 11.203125 11.398438 11.179688 C 11.277344 11.132812 11.203125 11 11.226562 10.863281 L 11.625 6.707031 L 9.351562 6.707031 C 9.246094 6.710938 9.148438 6.648438 9.101562 6.550781 C 9.046875 6.449219 9.054688 6.324219 9.125 6.234375 L 13.25 0.128906 C 13.324219 0.0234375 13.472656 -0.03125 13.574219 0.0234375 C 13.699219 0.0703125 13.769531 0.203125 13.75 0.339844 L 13.347656 4.496094 L 15.625 4.523438 C 15.730469 4.519531 15.828125 4.582031 15.875 4.679688 C 15.929688 4.78125 15.917969 4.90625 15.851562 4.996094 L 11.75 11.074219 C 11.675781 11.15625 11.601562 11.207031 11.5 11.207031 Z M 9.925781 6.101562 L 11.949219 6.128906 C 12.03125 6.125 12.105469 6.164062 12.148438 6.234375 C 12.199219 6.300781 12.226562 6.382812 12.226562 6.46875 L 11.898438 9.808594 L 15.074219 5.097656 L 13.050781 5.078125 C 12.96875 5.082031 12.894531 5.042969 12.851562 4.972656 C 12.800781 4.90625 12.773438 4.824219 12.773438 4.738281 L 13.101562 1.394531 Z M 9.925781 6.101562 "/>
<path style=" stroke:none;fill-rule:nonzero;fill:rgb(0%,0%,0%);fill-opacity:1;" d="M 12.5 13.023438 C 11.699219 13.023438 10.574219 12.945312 9.152344 12.8125 C 7.601562 12.660156 6.089844 12.230469 4.675781 11.546875 C 3.71875 11.070312 2.699219 10.734375 1.652344 10.546875 L 0 10.234375 L 0.101562 9.628906 L 1.75 9.96875 C 2.847656 10.171875 3.917969 10.527344 4.925781 11.023438 C 6.273438 11.6875 7.71875 12.097656 9.203125 12.234375 C 10.601562 12.363281 11.726562 12.445312 12.5 12.445312 C 13.277344 12.445312 14.375 12.363281 15.800781 12.234375 C 17.285156 12.097656 18.730469 11.6875 20.078125 11.023438 C 21.085938 10.527344 22.152344 10.171875 23.25 9.96875 L 24.902344 9.652344 L 25 10.257812 L 23.347656 10.574219 C 22.296875 10.785156 21.273438 11.101562 20.324219 11.574219 C 18.910156 12.261719 17.398438 12.6875 15.847656 12.839844 C 14.421875 12.96875 13.296875 13.023438 12.496094 13.023438 Z M 12.5 13.023438 "/>
</g>
</svg>
