<svg xmlns="http://www.w3.org/2000/svg" width="560.679" height="392.777" viewBox="0 0 560.679 392.777">
  <g id="noun-kidney-1295553" transform="translate(-69.654 -83.613)">
    <path id="Path_55844" data-name="Path 55844" d="M211.03,221.39a9.345,9.345,0,0,0,9.309,8.867h.488a9.318,9.318,0,0,0,8.844-9.777c-.887-17.5-9.238-40.062-9.566-41a9.327,9.327,0,1,0-17.5,6.461c.07.211,7.7,20.84,8.426,35.445Z" stroke="#000" stroke-width="4"/>
    <path id="Path_55845" data-name="Path 55845" d="M215.65,298.41a9.328,9.328,0,0,0-12.949,2.543c-.117.188-12.414,18.387-23.918,27.625a9.329,9.329,0,1,0,11.668,14.558c13.719-10.988,27.184-30.918,27.742-31.758a9.324,9.324,0,0,0-2.543-12.969Z" stroke="#000" stroke-width="4"/>
    <path id="Path_55846" data-name="Path 55846" d="M204.61,277.55a9.334,9.334,0,0,0,4.527-17.5c-15.375-8.516-39.059-13.441-40.039-13.625a9.326,9.326,0,1,0-3.754,18.27c.211.047,21.863,4.551,34.766,11.691a9.226,9.226,0,0,0,4.5,1.164Z" stroke="#000" stroke-width="4"/>
    <path id="Path_55847" data-name="Path 55847" d="M479.15,230.23h.488a9.311,9.311,0,0,0,9.309-8.867c.723-14.582,8.352-35.211,8.445-35.422a9.34,9.34,0,0,0-17.5-6.531c-.352.957-8.7,23.52-9.59,41.02a9.365,9.365,0,0,0,8.848,9.8Z" stroke="#000" stroke-width="4"/>
    <path id="Path_55848" data-name="Path 55848" d="M497.28,300.95a9.331,9.331,0,0,0-15.492,10.406c.559.84,14.047,20.789,27.742,31.758A9.329,9.329,0,1,0,521.2,328.556c-11.461-9.172-23.8-27.418-23.918-27.605Z" stroke="#000" stroke-width="4"/>
    <path id="Path_55849" data-name="Path 55849" d="M487.2,272.74a9.334,9.334,0,0,0,12.7,3.66c12.9-7.117,34.578-11.668,34.812-11.691a9.326,9.326,0,1,0-3.754-18.27c-1,.211-24.688,5.133-40.086,13.625A9.343,9.343,0,0,0,487.2,272.74Z" stroke="#000" stroke-width="4"/>
    <path id="Path_55850" data-name="Path 55850" d="M207.71,429.03a117.308,117.308,0,0,0,50.984-17.594c19.062-12.2,30.285-30.684,30.73-50.75.441-18.785-8.516-36.773-24.781-50.145a62.6,62.6,0,0,0,12.438-23.566c29.891,3.1,46.668,20.648,47.109,50.215,0,.211-.023.441-.023.652.281,23.941.234,47.879.188,71.844l-.07,55.371a9.332,9.332,0,0,0,18.664.023l.047-55.348c.047-23.895.094-47.762-.164-71.539,0-.211.023-.441.023-.652-.4-39.5-24.035-64.68-63.352-69a70.586,70.586,0,0,0-.582-9.8L327.9,234.667a9.335,9.335,0,1,0-8.238-16.754l-28.723,14.137c10.988-8.328,19.855-18.621,25.5-30.566,10.664-22.492,9.941-47.9-2.031-71.562-14-27.742-41.137-44.309-72.824-44.309l-3.941.113c-40.039,1.914-73.734,17.242-100.17,45.617C82.641,190.1,61.965,255.383,75.942,325.4c12.062,60.316,63.117,104.11,121.47,104.11,3.457-.023,6.867-.164,10.3-.488ZM94.26,321.72c-12.762-63.793,6.348-123.57,56.863-177.66,22.984-24.688,52.406-38.035,87.219-39.691l3.5-.117c24.242,0,45.125,12.738,55.883,34.066,9.309,18.41,9.988,37.988,1.844,55.16-7.371,15.59-21.629,28-40.109,34.957a9.337,9.337,0,0,0-5.2,12.621c12.3,27,9.191,46.668-10.125,63.746a9.349,9.349,0,0,0,1.262,14.914l3.406,2.238c14.258,10.012,22.262,23.988,21.957,38.336-.328,13.719-8.4,26.648-22.168,35.441a97.8,97.8,0,0,1-42.582,14.723c-51.871,4.855-100.85-34.062-111.75-88.734Z" stroke="#000" stroke-width="4"/>
    <path id="Path_55851" data-name="Path 55851" d="M410.55,360.69c.441,20.02,11.645,38.5,30.754,50.75a117,117,0,0,0,50.984,17.594q5.18.457,10.289.465c58.309,0,109.39-43.773,121.47-104.09,13.977-70-6.719-135.29-61.531-194.06-26.461-28.352-60.152-43.7-100.36-45.617l-4.059-.117c-31.383,0-58.5,16.566-72.543,44.309-11.945,23.637-12.648,49.07-2.008,71.562,5.625,11.9,14.422,22.168,25.387,30.473l-28.582-14.07a9.335,9.335,0,1,0-8.238,16.754l48.93,24.078a70.882,70.882,0,0,0-.582,9.824c-39.27,4.316-62.883,29.492-63.3,68.973-.3,26.531-.234,53.035-.164,79.543l.047,48.02a9.332,9.332,0,0,0,18.664-.023l-.047-48.02c-.07-26.438-.141-52.875.164-79.309.281-29.891,17.059-47.6,47.062-50.727A62.52,62.52,0,0,0,435.3,310.568c-16.215,13.375-25.176,31.363-24.754,50.125Zm-8.309-222.34c10.8-21.352,31.688-34.066,55.625-34.066l3.617.094c34.977,1.68,64.4,15.027,87.406,39.715,50.469,54.109,69.578,113.89,56.863,177.66-10.922,54.625-58.988,93.4-111.79,88.691A98.228,98.228,0,0,1,451.4,395.721c-13.789-8.82-21.887-21.746-22.168-35.441-.3-14.328,7.7-28.3,21.934-38.336,1.1-.77,2.215-1.492,3.383-2.191a9.336,9.336,0,0,0,1.309-14.934c-19.3-17.1-22.422-36.773-10.125-63.746a9.337,9.337,0,0,0-5.2-12.621c-18.48-6.953-32.715-19.367-40.086-34.93-8.121-17.188-7.492-36.762,1.793-55.172Z" stroke="#000" stroke-width="4"/>
  </g>
</svg>
