<svg xmlns="http://www.w3.org/2000/svg" width="472.315" height="472.998" viewBox="0 0 472.315 472.998">
  <g id="Group_1525" data-name="Group 1525" transform="translate(1.515 1.5)">
    <g id="Group_452" data-name="Group 452">
      <path id="Path_54379" data-name="Path 54379" d="M465.126,273.029A159.295,159.295,0,0,0,303.918,151.578,158.6,158.6,0,0,0,223,72.928,6.965,6.965,0,1,0,217.448,85.7a144.717,144.717,0,0,1,75.687,75.852,146.789,146.789,0,0,1,7.707,23.083c.509,2.087.978,4.235,1.434,6.565a.039.039,0,0,0,0,0A145.338,145.338,0,0,1,206.2,356.7q-.876-1.991-1.675-4.019c-.006-.016-.012-.03-.017-.046q-1.538-3.9-2.786-7.919c-.067-.215-.134-.43-.2-.645q-.58-1.9-1.1-3.814l-.025-.1c60.845-20.421,97.641-83.774,84.349-147.254v0c-.328-1.566-.622-2.877-.926-4.124a128.509,128.509,0,0,0-10.044-27.328c-.009-.018-.019-.035-.028-.053-.029-.058-.06-.114-.091-.171A127.719,127.719,0,0,0,174.883,92.16l49.472-45.985a6.965,6.965,0,0,0,1.041-8.983l-.033-.049,0,0L202.49,3.082A6.965,6.965,0,0,0,196.709,0H122.583A6.967,6.967,0,0,0,116.8,3.082L93.9,37.194a6.964,6.964,0,0,0,1.041,8.983L144.4,92.158A127.8,127.8,0,0,0,81.821,320.417a128.453,128.453,0,0,0,73.458,26.375q.19.819.386,1.627.465,1.911.979,3.8c.079.292.163.584.243.876q.416,1.51.858,3.006c.082.274.165.549.249.823q.485,1.6,1,3.185.088.273.177.545.618,1.875,1.276,3.727a145.356,145.356,0,0,1-58.633-278.7A6.964,6.964,0,1,0,96.287,72.9,159.286,159.286,0,0,0,159.61,378.311c2.165,0,4.332-.058,6.5-.147a159.161,159.161,0,0,0,181.979,87.29C433.408,444.669,485.91,358.349,465.126,273.029ZM295.7,301.788a158.733,158.733,0,0,0,21.666-104.73,114.579,114.579,0,0,1,62.84,23.7,112.661,112.661,0,0,1,40.826,63.017,113.915,113.915,0,0,1-208.406,85.44A158.727,158.727,0,0,0,295.7,301.788Zm-98.1,24.605a113.9,113.9,0,0,1,74.831-123.032A114.119,114.119,0,0,1,197.6,326.393Zm-71.3-312.465H193l13.519,20.133H112.777Zm-8.952,34.061h84.605l-42.3,39.321ZM152.66,332.71A114.452,114.452,0,0,1,90.3,309.363a112.608,112.608,0,0,1-41.289-63.374A114.005,114.005,0,0,1,132.694,108.4a112.613,112.613,0,0,1,75.264,7.515,114.521,114.521,0,0,1,49.409,44.642A159.278,159.278,0,0,0,152.66,332.71ZM344.793,451.921a145.235,145.235,0,0,1-168.242-84.568c-.249-.59-.5-1.18-.739-1.773-.1-.24-.191-.481-.287-.721-.3-.74-.59-1.482-.874-2.227-.042-.111-.083-.223-.125-.335q-.487-1.287-.953-2.584c-.01-.028-.019-.056-.029-.084q-.5-1.4-.971-2.812l-.006-.016q-.478-1.431-.925-2.87c-.021-.068-.04-.137-.062-.2q-.414-1.341-.805-2.687c-.084-.294-.163-.59-.247-.886-.192-.679-.384-1.359-.565-2.041q-.4-1.49-.764-2.994c-.248-1.016-.48-2.034-.705-3.053-.087-.4-.173-.8-.258-1.207q-.147-.7-.286-1.391c-.062-.3-.123-.6-.185-.916-.008-.042-.021-.082-.029-.123a145.327,145.327,0,0,1,96.1-165.375,114.755,114.755,0,0,1,5.8,16.533A127.8,127.8,0,0,0,185.3,336.842s0,0,0,.006.006.028.009.044c.116.552.233,1.1.356,1.653.189.858.374,1.659.561,2.428q.413,1.7.872,3.371c.074.274.155.546.231.82q.364,1.3.75,2.594c.078.26.16.518.24.777q.42,1.362.867,2.712l.182.541q.525,1.557,1.089,3.1l.04.11a127.978,127.978,0,0,0,119.666,83.583,127.993,127.993,0,0,0,124.405-158.1,126.452,126.452,0,0,0-45.828-70.73,128.525,128.525,0,0,0-73.979-26.772q-.19-.822-.387-1.631a160.229,160.229,0,0,0-4.785-15.968,145.382,145.382,0,0,1,142,110.953C470.559,354.183,422.65,432.954,344.793,451.921Z" transform="translate(-0.394)" stroke="#000" stroke-width="3"/>
    </g>
  </g>
</svg>
