<svg xmlns="http://www.w3.org/2000/svg" width="272.191" height="302.065" viewBox="0 0 272.191 302.065">
  <g id="Neurology" transform="translate(1.437 1.412)">
    <g id="Page-1" transform="translate(0.054 -0.014)">
      <g id="_021---Brain-Profile" data-name="021---Brain-Profile">
        <path id="Shape" d="M26.7,132.659a30.309,30.309,0,0,1-7.019,16.206C4.021,165.759-.45,171.576.1,177.6a14.456,14.456,0,0,0,7.268,9.82,36.264,36.264,0,0,0,5.189,2.991c2.144,1.1,5.733,2.936,5.982,4.252a8.519,8.519,0,0,1-.548,5.01c-.743,1.56-1.5,2.906-2.163,4.083-1.939,3.44-4.875,8.644-.274,12.522,1.072.952,2.916,2.4,4.6,3.689a12.572,12.572,0,0,0-1.605,7.223,7.138,7.138,0,0,0,2.926,4.845,37.1,37.1,0,0,0,3.489,2.153c2.921,1.675,4.063,2.453,4.457,3.988A10.6,10.6,0,0,1,29,243.823a28.23,28.23,0,0,0,.8,17.776,18.444,18.444,0,0,0,21.69,13.185,404.282,404.282,0,0,0,41.933-12.577c6.879,4.1,13.415,14.073,18.135,27.786a15.02,15.02,0,0,0,14.172,10.159H226.251a14.955,14.955,0,0,0,13.38-21.615,136.7,136.7,0,0,1-11.465-43.758A84.47,84.47,0,0,1,234.645,191a108.883,108.883,0,0,1,13.175-20.892c9.86-13.33,21.042-28.414,21.4-54.117a149.649,149.649,0,0,0-5.2-42.342,82.641,82.641,0,0,0-29.73-42.871C195.015-.125,161.172-5.793,100.2,8.274,83.646,12.093,64.9,17.92,51.4,32.2a94.659,94.659,0,0,0-19.94,32.612,131.549,131.549,0,0,0-4.486,16.306l-.4,1.725a67.9,67.9,0,0,1-4.4,11.685,29.959,29.959,0,0,0-4.1,14.955,19.063,19.063,0,0,0,7.253,11.106c2.443,2.238,4.043,3.813,4.058,5.244a9.237,9.237,0,0,1-.957,2.313,15.568,15.568,0,0,0-1.72,4.511ZM180.738,145.51a4.985,4.985,0,0,0-6.231-3.305,38.1,38.1,0,0,1-8.6,1.585,36.734,36.734,0,0,1-16.52-2.492,5.249,5.249,0,0,0-5.593,1.391,21.341,21.341,0,0,1-34.4-24.965,4.985,4.985,0,0,0-8.549-5.13,30.977,30.977,0,0,0-2.851,6.411,7.517,7.517,0,0,1-7.1-7.338v-.125a4.93,4.93,0,0,0-4.985-4.92,5.035,5.035,0,0,0-4.985,5.045,17.333,17.333,0,0,0,15.453,17.2,31.3,31.3,0,0,0,.454,4.985A30.473,30.473,0,0,1,62.36,92.131a20.294,20.294,0,0,0,3.714,2.956,4.985,4.985,0,1,0,5.139-8.544A10.528,10.528,0,0,1,66.7,80.95a10.344,10.344,0,0,1-.583-3.425A10.523,10.523,0,0,1,76.582,67a10.364,10.364,0,0,1,8.38,4.227,4.986,4.986,0,0,0,8-5.952A20.134,20.134,0,0,0,78.821,57.3a15.154,15.154,0,0,1,14.78-12,14.75,14.75,0,0,1,1.815.2c-.374,1.027-.768,2.049-1.042,3.111a4.985,4.985,0,0,0,9.646,2.492,24.342,24.342,0,0,1,2.557-6.181A24.616,24.616,0,0,1,127.608,32.91a24.2,24.2,0,0,1,13.2,3.988,20.264,20.264,0,0,0-1.166,6.53,4.985,4.985,0,1,0,9.97,0,10.486,10.486,0,0,1,20.972,0,4.985,4.985,0,0,0,9.97,0c0-.389-.095-.748-.115-1.132A32.362,32.362,0,0,1,209.96,67.251a20.284,20.284,0,0,0-6.451,3.215,4.985,4.985,0,1,0,5.982,7.976,10.513,10.513,0,0,1,15.423,13.594,10.7,10.7,0,0,1-4.731,4.362,4.986,4.986,0,0,0,4.237,9.028,20.513,20.513,0,0,0,3.729-2.328,21.286,21.286,0,0,1-4.247,21.291l-.09.095a21.545,21.545,0,0,1-25.453,4.666,20.17,20.17,0,0,1-2.418-1.5,16.984,16.984,0,0,0,1.331-17.537,4.986,4.986,0,0,0-8.923,4.452,7.408,7.408,0,0,1-2.4,9.4,7.512,7.512,0,0,1-10.822-2.757,4.985,4.985,0,1,0-8.9,4.467,17.163,17.163,0,0,0,21.784,8.385,29.91,29.91,0,0,0,5.842,3.988,30.747,30.747,0,0,0,23.03,2.124,31.779,31.779,0,0,1-20.528,12.592,4.985,4.985,0,0,0,.783,9.91,4.828,4.828,0,0,0,.8-.065,41.007,41.007,0,0,0,8.838-2.582,44.532,44.532,0,0,1,3.714,8.564,4.985,4.985,0,0,1,.259,1.605,5.379,5.379,0,0,1-3.265,4.945,5.618,5.618,0,0,1-6.436-1.735,31.9,31.9,0,0,0-14.6-9.7c-10.772-3.6-14.93-6.829-16.695-10.339a47.309,47.309,0,0,0,7.642-1.6,4.985,4.985,0,0,0,3.305-6.251Zm5.379,60.318c.369-2.109.818-4.247,1.271-6.4a75.223,75.223,0,0,0,2.263-23.1,20.768,20.768,0,0,1,3.823,3.489,15.982,15.982,0,0,0,8.878,5.314,112.571,112.571,0,0,1-2.089,12.233c-.5,2.273-.942,4.526-1.336,6.74-5.483,30.573,2.812,60.153,12.064,86.075H198.958c-9.277-25.5-18.14-54.81-12.881-84.326Zm-154.08-92.61c-1.994-1.844-3.908-3.589-4.123-5.125a32.262,32.262,0,0,1,3.33-9.506,75.936,75.936,0,0,0,5.01-13.5l.4-1.74a124.827,124.827,0,0,1,4.152-15.1,84.853,84.853,0,0,1,17.846-29.2C70.3,26.709,86.567,21.629,102.434,17.97c65.034-14.985,93.353-4.8,125.716,20.653a71.913,71.913,0,0,1,26.286,37.746,139.576,139.576,0,0,1,4.825,39.481c-.314,22.477-9.606,35.034-19.441,48.354a118.024,118.024,0,0,0-14.3,22.846A94.405,94.405,0,0,0,218.27,236a145.884,145.884,0,0,0,12.462,47.058,4.985,4.985,0,0,1-4.481,7.124h-4.636c-9.277-25.493-18.14-54.8-12.881-84.33.369-2.119.823-4.262,1.276-6.431a105.227,105.227,0,0,0,2.408-15.653,15.309,15.309,0,0,0,8.32-13.594,14.836,14.836,0,0,0-.758-4.716,53.873,53.873,0,0,0-4.4-10.144,42.038,42.038,0,0,0,16.56-25.329A30.842,30.842,0,0,0,234.9,94.16a20.383,20.383,0,0,0-14.78-27.3,42.412,42.412,0,0,0-41.435-34.625c-.5,0-.942.065-1.421.08a20.279,20.279,0,0,0-31.046-3.838,34.241,34.241,0,0,0-18.609-5.533A34.6,34.6,0,0,0,100.4,36.34,24.835,24.835,0,0,0,68.661,58.652a20.149,20.149,0,0,0-12.049,23.16,40.459,40.459,0,0,0,43.369,61.6,31.231,31.231,0,0,0,48.947,8.26,47.89,47.89,0,0,0,10.409,2.029c2.149,7.976,7.856,13.2,19.1,17.657a49.585,49.585,0,0,1-.852,26.051c-.474,2.263-.942,4.486-1.331,6.71-5.439,30.558,2.856,60.143,12.1,86.065H125.724a5.055,5.055,0,0,1-4.746-3.45,73.473,73.473,0,0,0-16.366-28.414l3.724-1.306c3.684-1.3,6.48-2.273,7.856-2.712,21.321-6.71,31.988-16.42,31.694-28.873a4.855,4.855,0,0,0-5.095-4.865,4.985,4.985,0,0,0-4.87,5.1c.12,5.139-4.073,12.632-24.73,19.132-1.461.459-4.342,1.471-8.16,2.812-3.574,1.256-7.976,2.811-12.836,4.486h-.03a412.935,412.935,0,0,1-42.711,12.936,8.833,8.833,0,0,1-10.239-6.69,18.33,18.33,0,0,1-.5-12.213,20.015,20.015,0,0,0,.379-10.339,16.45,16.45,0,0,0-9.172-10.2l-1.062-.613a18.259,18.259,0,0,1,1.909-3.1,4.985,4.985,0,0,0-.957-7.074c-1.2-.887-4.038-3.026-6.082-4.661.254-.469.543-1,.8-1.451.763-1.351,1.64-2.911,2.492-4.7a18.444,18.444,0,0,0,1.341-11.141c-1.157-6.117-6.979-9.1-11.246-11.276a29.1,29.1,0,0,1-3.764-2.124,27.657,27.657,0,0,1-3.3-2.7c.085-2.881,11.052-14.711,16.949-21.066a39.88,39.88,0,0,0,9.541-21.341,12.592,12.592,0,0,1,.758-1.67,14.666,14.666,0,0,0,2.039-6.939,17.417,17.417,0,0,0-7.313-12.517Z" transform="translate(-0.054 -0.986)" stroke="#000" stroke-width="3"/>
        <path id="Shape-2" data-name="Shape" d="M78.382,23.384a4.985,4.985,0,1,0-9.79-1.874,19.89,19.89,0,0,1-8.255,12.657A20.359,20.359,0,0,1,34.1,31.2a4.985,4.985,0,0,0-7.4,6.685A30.019,30.019,0,0,0,42.65,47.092a14.825,14.825,0,0,1-12.133,6.261,4.985,4.985,0,0,0,0,9.97,24.725,24.725,0,0,0,23.25-15.987A30.079,30.079,0,0,0,78.382,23.408Z" transform="translate(100.995 64.312)" stroke="#000" stroke-width="3"/>
        <path id="Shape-3" data-name="Shape" d="M49.171,18.375a4.985,4.985,0,0,0-4.985-4.985A22.961,22.961,0,0,0,21.255,36.321a4.985,4.985,0,0,0,9.97,0A12.961,12.961,0,0,1,44.186,23.36a4.985,4.985,0,0,0,4.985-4.985Z" transform="translate(84.43 48.444)" stroke="#000" stroke-width="3"/>
      </g>
    </g>
  </g>
</svg>
