<?xml version="1.0" encoding="UTF-8"?>
<svg xmlns="http://www.w3.org/2000/svg" xmlns:xlink="http://www.w3.org/1999/xlink" width="24px" height="25px" viewBox="0 0 24 22" version="1.1">
<g id="surface1">
<path style=" stroke:none;fill-rule:nonzero;fill:rgb(0%,0%,0%);fill-opacity:1;" d="M 17.390625 22 C 16.082031 21.984375 14.789062 21.683594 13.617188 21.113281 C 13.414062 20.976562 13.328125 20.726562 13.398438 20.496094 C 13.460938 20.242188 13.664062 20.105469 13.84375 20.195312 C 15.183594 20.851562 16.683594 21.121094 18.175781 20.980469 C 19.554688 20.835938 20.835938 20.238281 21.808594 19.289062 C 22.765625 18.347656 23.039062 16.515625 22.433594 15.117188 L 20.707031 11.144531 C 20.605469 10.921875 20.65625 10.660156 20.828125 10.480469 C 20.996094 10.339844 21.210938 10.417969 21.3125 10.648438 L 21.886719 11.96875 L 22.21875 12.195312 C 22.363281 12.304688 22.5625 12.320312 22.726562 12.238281 C 22.886719 12.15625 23.011719 12.019531 23.066406 11.855469 C 23.246094 11.226562 23.320312 10.570312 23.296875 9.917969 C 23.296875 8.617188 22.839844 8.148438 22.410156 8.140625 L 22.402344 8.140625 C 22.050781 8.167969 21.761719 8.421875 21.703125 8.757812 L 22.09375 9.019531 C 22.28125 9.183594 22.34375 9.441406 22.257812 9.671875 C 22.171875 9.910156 21.960938 10.011719 21.785156 9.894531 L 20.199219 8.824219 C 19.683594 8.480469 19.21875 8.746094 18.953125 9.109375 C 18.605469 9.617188 18.523438 10.25 18.730469 10.824219 L 20.289062 15.378906 C 20.375 15.605469 20.308594 15.863281 20.121094 16.023438 C 19.945312 16.140625 19.734375 16.035156 19.652344 15.792969 L 18.757812 13.167969 C 18.019531 12.660156 17.136719 12.394531 16.230469 12.402344 L 12.851562 15.1875 C 12.6875 15.324219 12.46875 15.246094 12.371094 15.015625 C 12.269531 14.792969 12.320312 14.53125 12.492188 14.351562 L 15.957031 11.5 C 16.4375 11.101562 16.621094 10.277344 16.378906 9.578125 C 16.183594 9.011719 15.75 8.671875 15.296875 8.734375 L 14.742188 8.808594 C 14.582031 8.832031 14.433594 8.703125 14.378906 8.496094 C 14.296875 8.175781 14.09375 7.890625 13.808594 7.703125 C 13.601562 7.578125 13.347656 7.558594 13.121094 7.644531 C 13.257812 8.570312 13.1875 9.519531 12.910156 10.417969 L 14.195312 9.597656 C 14.371094 9.484375 14.578125 9.589844 14.660156 9.835938 C 14.746094 10.0625 14.679688 10.320312 14.488281 10.480469 L 11.625 12.3125 C 11.277344 12.546875 11.003906 12.871094 10.835938 13.246094 C 10.660156 13.660156 10.515625 14.085938 10.402344 14.519531 C 10.332031 14.769531 10.128906 14.898438 9.949219 14.804688 C 9.75 14.660156 9.664062 14.410156 9.742188 14.179688 C 9.875 13.679688 10.046875 13.1875 10.25 12.707031 C 10.484375 12.191406 10.855469 11.75 11.332031 11.429688 L 11.851562 11.097656 C 12.527344 9.707031 12.601562 8.488281 12.371094 7.546875 C 12.003906 7.902344 11.519531 8.121094 11 8.15625 C 10.808594 8.160156 10.648438 7.949219 10.644531 7.679688 C 10.640625 7.414062 10.792969 7.191406 10.988281 7.1875 C 11.390625 7.152344 11.769531 6.96875 12.039062 6.679688 C 11.921875 6.457031 11.773438 6.25 11.597656 6.066406 C 11.492188 5.941406 11.445312 5.777344 11.464844 5.617188 C 11.519531 5.320312 11.464844 5.011719 11.308594 4.75 C 11.136719 4.574219 10.863281 4.53125 10.644531 4.644531 C 10.492188 4.699219 10.332031 4.609375 10.253906 4.425781 C 10.101562 4.074219 9.921875 3.734375 9.71875 3.410156 C 9.59375 3.195312 9.605469 2.929688 9.753906 2.726562 C 9.8125 2.644531 9.914062 2.597656 10.015625 2.609375 C 10.117188 2.621094 10.207031 2.683594 10.246094 2.773438 C 10.421875 3.050781 10.582031 3.339844 10.722656 3.632812 C 11.117188 3.554688 11.527344 3.703125 11.769531 4.019531 C 12.070312 4.441406 12.214844 4.949219 12.175781 5.460938 C 12.484375 5.839844 12.722656 6.269531 12.882812 6.722656 C 13.273438 6.558594 13.71875 6.589844 14.078125 6.808594 C 14.457031 7.050781 14.75 7.398438 14.914062 7.808594 L 15.226562 7.765625 C 15.972656 7.664062 16.691406 8.226562 17.011719 9.160156 C 17.269531 9.921875 17.242188 10.742188 16.933594 11.484375 C 17.410156 11.542969 17.871094 11.671875 18.308594 11.859375 L 18.097656 11.238281 C 17.765625 10.292969 17.898438 9.253906 18.457031 8.414062 C 19.007812 7.664062 19.8125 7.484375 20.507812 7.949219 L 21.070312 8.328125 C 21.144531 8.078125 21.269531 7.84375 21.441406 7.640625 C 21.675781 7.347656 22.035156 7.171875 22.417969 7.167969 C 23.207031 7.179688 24 8.035156 24 9.917969 C 24.027344 10.710938 23.929688 11.503906 23.703125 12.269531 C 23.585938 12.644531 23.320312 12.964844 22.960938 13.152344 C 22.800781 13.234375 22.625 13.269531 22.445312 13.257812 L 23.035156 14.613281 C 23.832031 16.449219 23.472656 18.847656 22.21875 20.078125 C 20.945312 21.328125 19.203125 22.019531 17.390625 22 Z M 12.445312 20.410156 C 12.390625 20.410156 12.335938 20.394531 12.292969 20.363281 C 10.679688 19.261719 9.347656 17.820312 8.394531 16.152344 L 5.84375 16.152344 C 2.621094 16.152344 0 12.527344 0 8.074219 C 0 3.621094 2.621094 0 5.84375 0 C 7.058594 0 8.222656 0.511719 9.214844 1.480469 C 9.378906 1.667969 9.410156 1.933594 9.296875 2.15625 C 9.1875 2.375 8.964844 2.425781 8.808594 2.273438 C 8.042969 1.46875 6.972656 0.996094 5.84375 0.972656 C 3.007812 0.972656 0.703125 4.160156 0.703125 8.074219 C 0.703125 11.992188 3.007812 15.179688 5.84375 15.179688 L 8.5625 15.179688 C 8.683594 15.1875 8.789062 15.261719 8.839844 15.367188 C 9.742188 17.003906 11.03125 18.414062 12.597656 19.488281 C 12.785156 19.652344 12.847656 19.910156 12.761719 20.136719 C 12.726562 20.285156 12.597656 20.394531 12.445312 20.410156 Z M 6.726562 13.429688 C 5.75 13.429688 4.957031 12.332031 4.957031 10.984375 C 4.957031 9.871094 5.613281 8.964844 6.417969 8.964844 C 6.613281 8.964844 6.769531 9.183594 6.769531 9.453125 C 6.769531 9.71875 6.613281 9.9375 6.417969 9.9375 C 6 9.9375 5.660156 10.40625 5.660156 10.984375 C 5.660156 11.796875 6.136719 12.457031 6.722656 12.457031 C 7.140625 12.457031 7.480469 11.988281 7.480469 11.410156 C 7.480469 11.140625 7.636719 10.921875 7.832031 10.921875 C 8.027344 10.921875 8.183594 11.140625 8.183594 11.410156 C 8.1875 12.523438 7.53125 13.429688 6.726562 13.429688 Z M 8.707031 7.339844 C 8.636719 7.339844 8.566406 7.332031 8.496094 7.3125 C 8.277344 7.210938 8.160156 6.972656 8.214844 6.746094 C 8.253906 6.480469 8.4375 6.308594 8.628906 6.359375 C 8.742188 6.386719 8.859375 6.351562 8.941406 6.269531 C 9.039062 6.167969 9.101562 6.039062 9.113281 5.898438 C 9.152344 5.636719 9.335938 5.460938 9.527344 5.511719 C 9.746094 5.617188 9.859375 5.851562 9.804688 6.082031 C 9.765625 6.453125 9.601562 6.800781 9.335938 7.070312 C 9.171875 7.238281 8.945312 7.335938 8.707031 7.339844 Z M 8.707031 7.339844 "/>
</g>
</svg>
