<?xml version="1.0" encoding="UTF-8"?>
<svg xmlns="http://www.w3.org/2000/svg" xmlns:xlink="http://www.w3.org/1999/xlink" width="24px" height="24px" viewBox="0 0 24 24" version="1.1">
<g id="surface1">
<path style=" stroke:none;fill-rule:nonzero;fill:rgb(0%,0%,0%);fill-opacity:1;" d="M 21.523438 8.835938 C 21.1875 5.324219 17.679688 2.535156 13.292969 2.265625 C 10.835938 2.113281 8.398438 2.804688 6.601562 4.15625 C 4.800781 5.503906 3.769531 7.394531 3.769531 9.359375 C 3.769531 9.839844 3.582031 10.304688 3.226562 10.695312 L 1.257812 12.929688 C 0.976562 13.246094 1.070312 13.695312 1.460938 13.921875 C 1.59375 13.996094 1.726562 14.039062 1.894531 14.054688 L 3.65625 14.203125 C 3.730469 14.203125 3.804688 14.265625 3.804688 14.324219 L 3.804688 16.003906 C 3.804688 17.308594 5.136719 18.375 6.769531 18.375 L 9.132812 18.375 C 9.335938 18.375 9.507812 18.511719 9.507812 18.675781 L 9.507812 21 C 9.507812 21.554688 10.070312 22.003906 10.761719 22.003906 L 17.570312 22.003906 C 18.261719 22.003906 18.824219 21.554688 18.824219 21 L 18.824219 17.113281 C 18.84375 15.675781 19.351562 14.265625 20.304688 13.035156 C 21.226562 11.773438 21.675781 10.304688 21.523438 8.835938 Z M 19.726562 12.78125 C 18.710938 14.085938 18.167969 15.585938 18.148438 17.113281 L 18.148438 21 C 18.148438 21.269531 17.867188 21.496094 17.53125 21.496094 L 10.742188 21.496094 C 10.40625 21.496094 10.125 21.269531 10.125 21 L 10.125 18.691406 C 10.125 18.238281 9.675781 17.878906 9.113281 17.878906 L 6.75 17.878906 C 5.457031 17.878906 4.425781 17.039062 4.425781 16.019531 L 4.425781 14.324219 C 4.425781 13.996094 4.125 13.726562 3.710938 13.695312 L 1.949219 13.546875 C 1.820312 13.53125 1.707031 13.441406 1.726562 13.320312 C 1.726562 13.289062 1.742188 13.261719 1.761719 13.230469 L 3.769531 10.996094 C 4.199219 10.515625 4.425781 9.945312 4.425781 9.359375 C 4.425781 7.53125 5.382812 5.789062 7.050781 4.53125 C 8.570312 3.390625 10.574219 2.746094 12.675781 2.761719 C 12.863281 2.761719 13.070312 2.761719 13.273438 2.773438 C 17.8125 3.03125 21.242188 6.195312 20.925781 9.824219 C 20.8125 10.875 20.398438 11.878906 19.726562 12.78125 Z M 19.726562 12.78125 "/>
<path style=" stroke:none;fill-rule:nonzero;fill:rgb(0%,0%,0%);fill-opacity:1;" d="M 18.28125 8.851562 C 19.125 7.980469 18.84375 7.441406 18.636719 7.230469 C 18.207031 6.78125 17.230469 6.734375 16.480469 7.125 C 16.144531 7.304688 15.824219 7.515625 15.523438 7.738281 C 15.09375 7.636719 14.585938 7.53125 14.042969 7.441406 C 14.0625 7.425781 14.0625 7.410156 14.082031 7.394531 C 14.738281 6.511719 14.886719 5.851562 14.492188 5.445312 C 14.175781 5.113281 13.574219 5.023438 12.769531 5.191406 C 11.34375 5.503906 9.1875 6.75 8.90625 8.550781 C 8.792969 9.046875 8.925781 9.554688 9.242188 9.988281 C 8.867188 10.066406 8.457031 10.066406 8.082031 9.976562 C 7.164062 9.734375 7.050781 8.96875 7.125 8.355469 C 7.425781 5.414062 11.15625 4.484375 11.304688 4.441406 C 11.476562 4.394531 11.570312 4.261719 11.511719 4.125 C 11.457031 3.988281 11.289062 3.914062 11.117188 3.960938 C 11.082031 3.976562 6.824219 5.023438 6.488281 8.308594 C 6.375 9.421875 6.882812 10.199219 7.894531 10.453125 C 8.511719 10.589844 9.148438 10.574219 9.75 10.410156 C 9.863281 10.484375 9.992188 10.546875 10.125 10.605469 C 11.4375 11.175781 13.554688 11.023438 15.300781 10.53125 C 15.804688 10.933594 16.5 11.175781 17.210938 11.175781 L 17.230469 11.175781 C 18.148438 11.175781 18.957031 10.648438 18.992188 10.003906 C 19.011719 9.734375 18.917969 9.316406 18.28125 8.851562 Z M 16.835938 7.558594 C 17.363281 7.289062 17.945312 7.335938 18.132812 7.546875 C 18.300781 7.710938 18.261719 8.054688 17.773438 8.550781 C 17.289062 8.296875 16.761719 8.101562 16.199219 7.949219 C 16.40625 7.800781 16.613281 7.664062 16.835938 7.558594 Z M 9.898438 9.824219 C 9.582031 9.523438 9.46875 9.121094 9.542969 8.609375 C 9.789062 7.066406 11.71875 5.941406 12.9375 5.683594 C 13.125 5.640625 13.292969 5.625 13.480469 5.625 C 13.667969 5.609375 13.835938 5.65625 13.988281 5.761719 C 14.0625 5.835938 14.25 6.179688 13.539062 7.140625 C 13.480469 7.214844 13.425781 7.273438 13.386719 7.351562 C 12.882812 7.273438 12.335938 7.214844 11.757812 7.15625 C 11.585938 7.140625 11.417969 7.230469 11.398438 7.363281 C 11.382812 7.5 11.492188 7.636719 11.664062 7.648438 C 12.132812 7.695312 12.582031 7.753906 12.992188 7.800781 C 12.039062 8.804688 10.914062 9.496094 9.898438 9.824219 Z M 14.71875 9.78125 C 14.757812 9.898438 14.8125 10.003906 14.886719 10.109375 C 13.367188 10.515625 11.550781 10.636719 10.480469 10.199219 C 11.773438 9.675781 12.882812 8.894531 13.667969 7.921875 C 14.195312 8.011719 14.664062 8.101562 15.09375 8.191406 C 14.664062 8.640625 14.53125 9.226562 14.71875 9.78125 Z M 15.320312 9.628906 C 15.148438 9.210938 15.300781 8.773438 15.710938 8.339844 C 16.273438 8.488281 16.835938 8.683594 17.34375 8.925781 C 17.210938 9.03125 17.0625 9.136719 16.894531 9.253906 C 16.460938 9.539062 15.992188 9.765625 15.46875 9.929688 C 15.429688 9.824219 15.375 9.734375 15.320312 9.628906 Z M 17.210938 10.664062 C 16.761719 10.664062 16.3125 10.546875 15.957031 10.320312 C 16.445312 10.140625 16.914062 9.914062 17.324219 9.644531 C 17.53125 9.511719 17.71875 9.359375 17.867188 9.238281 C 18.226562 9.496094 18.375 9.75 18.355469 9.988281 C 18.320312 10.351562 17.8125 10.664062 17.210938 10.664062 Z M 17.210938 10.664062 "/>
</g>
</svg>
