<svg xmlns="http://www.w3.org/2000/svg" xmlns:xlink="http://www.w3.org/1999/xlink" width="495" height="531" viewBox="0 0 495 531">
  <defs>
    <clipPath id="clip-path">
      <rect id="Rectangle_8028" data-name="Rectangle 8028" width="495" height="531" transform="translate(10692 -2273)" fill="#fff" stroke="#707070" stroke-width="1"/>
    </clipPath>
  </defs>
  <g id="Mask_Group_25" data-name="Mask Group 25" transform="translate(-10692 2273)" clip-path="url(#clip-path)">
    <g id="noun-mental-health-2683210" transform="translate(10621.578 -2303.55)">
      <path id="Path_56140" data-name="Path 56140" d="M483.7,552.34h-154A14.916,14.916,0,0,1,315,540c-5.437-31.1-12.18-53.547-17.594-58.578-9.129-8.5-30.586-6.234-47.812-4.414-5.8.613-11.3,1.191-16.188,1.387-42.141,2.254-44.77-25.078-47.188-51.449v0a160.3,160.3,0,0,0-4.781-30.367,36.635,36.635,0,0,0-18.055-22.6c-7.059-4.652-15.059-9.926-14.359-23.266.336-6.461,5.422-12.094,11.863-19.219,9.926-10.988,23.52-26.035,23.578-49.836.027-6.168-.613-14.41-1.234-22.379-.5-6.43-.973-12.5-1.133-17.727-1.41-45.121,18.875-86.1,57.145-115.36a5.468,5.468,0,1,1,6.633,8.687C210.484,161.94,191.707,199.7,193,241.191c.156,4.965.621,10.914,1.109,17.215.633,8.191,1.289,16.656,1.266,23.266-.062,28-15.918,45.523-26.4,57.129-4.375,4.855-8.922,9.875-9.055,12.457-.355,6.816,2.469,8.957,9.457,13.562a47.475,47.475,0,0,1,22.52,28.656,169.967,169.967,0,0,1,5.18,32.434c2.473,26.922,3.98,43.2,35.8,41.527,4.617-.187,9.938-.75,15.562-1.344,20.457-2.152,43.637-4.59,56.41,7.285,9.477,8.813,16.625,40.047,20.918,64.7a3.98,3.98,0,0,0,3.938,3.289h154a3.968,3.968,0,0,0,3.219-1.606,3.891,3.891,0,0,0,.637-3.5c-5.184-17.844-14.148-51.98-15.93-80.09-1.1-17.355,3.938-42.938,15.75-58.23,44.043-57.141,58.723-102.16,50.668-155.39-7.551-49.926-29.9-87.887-66.434-112.82l0,0a5.47,5.47,0,0,1,6.148-9c38.586,26.348,63.172,67.918,71.086,120.22,8.453,55.762-7.344,104.72-52.8,163.72C486,417.7,481.593,440.6,482.535,455.542c1.719,27.059,10.465,60.312,15.523,77.73A14.93,14.93,0,0,1,483.7,552.358Z" stroke="#000" stroke-width="7"/>
      <path id="Path_56141" data-name="Path 56141" d="M220.14,405.45H187.956a5.469,5.469,0,0,1,0-10.938H220.14a5.469,5.469,0,0,1,0,10.938Z"/>
      <path id="Path_56142" data-name="Path 56142" d="M225.52,290.05a9.406,9.406,0,1,1-9.406-9.406,9.408,9.408,0,0,1,9.406,9.406"/>
      <path id="Path_56143" data-name="Path 56143" d="M337.81,91.195v15.9a10.936,10.936,0,0,0,10.938,10.938H369.2a10.936,10.936,0,0,0,10.938-10.867l.105-15.969a13.464,13.464,0,0,0,8.067-21.438L371.065,47.445a15.166,15.166,0,0,0-24,0L329.815,69.757a13.463,13.463,0,0,0,8.012,21.437Zm.648-14.738L355.7,54.145h0a4.23,4.23,0,0,1,6.7,0l17.246,22.312a2.52,2.52,0,0,1-2,4.055l-5.77-.012a2.514,2.514,0,0,0-2.52,2.523l-.156,24.062H348.728l.023-24.062a2.514,2.514,0,0,0-2.516-2.519h-5.781a2.517,2.517,0,0,1-2-4.047Z"/>
      <path id="Path_56144" data-name="Path 56144" d="M409.33,91.195v15.9a10.943,10.943,0,0,0,10.938,10.938H440.72a10.931,10.931,0,0,0,10.938-10.867l.105-15.969a13.464,13.464,0,0,0,8.071-21.438L442.589,47.445a15.166,15.166,0,0,0-24,0L401.343,69.757a13.463,13.463,0,0,0,8.008,21.437Zm.648-14.738L427.22,54.145a4.23,4.23,0,0,1,6.7,0l17.246,22.312a2.52,2.52,0,0,1-2,4.055h-5.777a2.527,2.527,0,0,0-2.523,2.527l-.156,24.062H420.252V83.039a2.514,2.514,0,0,0-2.516-2.523h-5.781a2.517,2.517,0,0,1-1.977-4.059Z"/>
      <path id="Path_56145" data-name="Path 56145" d="M266.29,182.77v15.9a10.936,10.936,0,0,0,10.938,10.938h20.453a10.941,10.941,0,0,0,10.938-10.867l.105-15.969a13.46,13.46,0,0,0,8.067-21.438L299.545,139.02a15.162,15.162,0,0,0-24,0L258.3,161.332a13.466,13.466,0,0,0,8,21.437Zm.648-14.738,17.246-22.312a4.22,4.22,0,0,1,6.691,0l17.242,22.312a2.514,2.514,0,0,1-1.988,4.055h-5.781a2.526,2.526,0,0,0-2.52,2.523l-.156,24.062H277.212V174.61a2.514,2.514,0,0,0-2.516-2.519h-5.777a2.517,2.517,0,0,1-1.98-4.059Z"/>
      <path id="Path_56146" data-name="Path 56146" d="M371.09,139.07a15.176,15.176,0,0,0-24.008,0l-17.25,22.312a13.463,13.463,0,0,0,8.012,21.437v15.914a10.936,10.936,0,0,0,10.938,10.938h20.465A10.941,10.941,0,0,0,380.184,198.8l.105-15.98v0a13.462,13.462,0,0,0,8.071-21.438Zm6.605,33.07H371.91v0a2.514,2.514,0,0,0-2.523,2.52l-.141,24.078h-20.48v-24.09a2.521,2.521,0,0,0-2.519-2.519h-5.781a2.518,2.518,0,0,1-1.992-4.059l17.25-22.312a4.24,4.24,0,0,1,6.7,0l17.25,22.312a2.523,2.523,0,0,1-1.977,4.07Z"/>
      <path id="Path_56147" data-name="Path 56147" d="M412.59,206.47a10.933,10.933,0,0,0,7.738,3.207h20.461a10.938,10.938,0,0,0,10.938-10.867l.105-15.98a13.459,13.459,0,0,0,8.071-21.438L442.649,139.08a15.166,15.166,0,0,0-24,0L401.4,161.392A13.459,13.459,0,0,0,409.4,182.83v15.91a10.926,10.926,0,0,0,3.188,7.73Zm-2.543-38.391,17.25-22.312a4.24,4.24,0,0,1,6.7,0l17.25,22.312a2.521,2.521,0,0,1-1.992,4.063h-5.781a2.516,2.516,0,0,0-2.52,2.52l-.156,24.09-20.469,0V174.661a2.514,2.514,0,0,0-2.519-2.52h-5.785a2.523,2.523,0,0,1-1.977-4.062Z"/>
      <path id="Path_56148" data-name="Path 56148" d="M299.54,230.68a15.17,15.17,0,0,0-24.008,0l-17.254,22.312a13.462,13.462,0,0,0,8.016,21.437v15.906a10.936,10.936,0,0,0,10.938,10.938h20.445a10.938,10.938,0,0,0,10.938-10.867l.105-15.98a13.464,13.464,0,0,0,8.071-21.438Zm6.6,33.07h-5.785a2.526,2.526,0,0,0-2.52,2.523l-.156,24.09H277.216l.023-24.094h0a2.514,2.514,0,0,0-2.516-2.519h-5.781a2.517,2.517,0,0,1-2-4.059L284.2,237.379a4.23,4.23,0,0,1,6.7,0l17.254,22.312a2.518,2.518,0,0,1-2,4.059Z"/>
      <path id="Path_56149" data-name="Path 56149" d="M371.09,230.68a15.17,15.17,0,0,0-24.008,0l-17.25,22.312a13.463,13.463,0,0,0,8.012,21.437v15.906a10.936,10.936,0,0,0,10.938,10.938h20.465a10.938,10.938,0,0,0,10.938-10.867l.105-15.98a13.464,13.464,0,0,0,8.071-21.438Zm6.605,33.07H371.91a2.525,2.525,0,0,0-2.523,2.523l-.141,24.082h-20.48V266.261a2.521,2.521,0,0,0-2.519-2.519h-5.781a2.518,2.518,0,0,1-1.992-4.059l17.25-22.312a4.228,4.228,0,0,1,6.7,0l17.25,22.312a2.519,2.519,0,0,1-1.977,4.066Z"/>
      <path id="Path_56150" data-name="Path 56150" d="M442.64,230.68a15.166,15.166,0,0,0-24,0l-17.25,22.312a13.459,13.459,0,0,0,8.008,21.437v15.906a10.936,10.936,0,0,0,10.938,10.938h20.461a10.933,10.933,0,0,0,10.938-10.867l.105-15.98a13.463,13.463,0,0,0,8.075-21.438Zm6.605,33.07h-5.781a2.524,2.524,0,0,0-2.52,2.523l-.156,24.09H420.319V266.269a2.521,2.521,0,0,0-2.519-2.519h-5.785a2.519,2.519,0,0,1-2-4.059l17.25-22.312h0a4.23,4.23,0,0,1,6.7,0l17.25,22.312a2.518,2.518,0,0,1-1.973,4.059Z"/>
      <path id="Path_56151" data-name="Path 56151" d="M266.29,91.195v15.9a10.936,10.936,0,0,0,10.938,10.938h20.453a10.936,10.936,0,0,0,10.938-10.867l.105-15.969a13.46,13.46,0,0,0,8.067-21.438L299.545,47.445a15.162,15.162,0,0,0-24,0L258.3,69.757a13.464,13.464,0,0,0,8,21.437Zm.648-14.738,17.246-22.312a4.226,4.226,0,0,1,6.691,0l17.242,22.312a2.514,2.514,0,0,1-1.988,4.055h-5.781a2.521,2.521,0,0,0-2.52,2.527l-.156,24.062H277.212V83.039a2.514,2.514,0,0,0-2.516-2.523h-5.777a2.517,2.517,0,0,1-1.98-4.059Z"/>
      <g id="Group_1565" data-name="Group 1565" transform="translate(70 625.625)">
        <path id="Path_56152" data-name="Path 56152" d="M14.656-.875a10.215,10.215,0,0,1-2.375.891,10.878,10.878,0,0,1-2.547.3A8.764,8.764,0,0,1,3.422-1.906,7.974,7.974,0,0,1,1.094-7.953,7.951,7.951,0,0,1,3.422-14a8.739,8.739,0,0,1,6.313-2.234,10.878,10.878,0,0,1,2.547.3,10.579,10.579,0,0,1,2.375.891v3.3a8.985,8.985,0,0,0-2.25-1.141,7.621,7.621,0,0,0-2.344-.359,4.431,4.431,0,0,0-3.469,1.406,5.639,5.639,0,0,0-1.25,3.891,5.61,5.61,0,0,0,1.25,3.875,4.43,4.43,0,0,0,3.469,1.406,7.506,7.506,0,0,0,2.344-.359,8.732,8.732,0,0,0,2.25-1.141Z"/>
      </g>
      <g id="Group_1566" data-name="Group 1566" transform="translate(86.055 625.625)">
        <path id="Path_56153" data-name="Path 56153" d="M10.719-8.7a4.9,4.9,0,0,0-1-.344,4.054,4.054,0,0,0-1-.125,2.794,2.794,0,0,0-2.266.953,4.066,4.066,0,0,0-.8,2.7V0H1.844V-11.969H5.657V-10a4.788,4.788,0,0,1,1.688-1.7,4.6,4.6,0,0,1,2.3-.547c.133,0,.273.008.422.016s.363.031.656.063Z"/>
      </g>
      <g id="Group_1567" data-name="Group 1567" transform="translate(96.84 625.625)">
        <path id="Path_56154" data-name="Path 56154" d="M13.781-6.016v1.094H4.844a2.828,2.828,0,0,0,.969,2.016,3.593,3.593,0,0,0,2.328.672,8.926,8.926,0,0,0,2.469-.359,13.115,13.115,0,0,0,2.609-1.078V-.719A17.275,17.275,0,0,1,10.5.047,14.251,14.251,0,0,1,7.781.313,7.248,7.248,0,0,1,2.734-1.328a5.984,5.984,0,0,1-1.8-4.641A6.021,6.021,0,0,1,2.7-10.562,6.762,6.762,0,0,1,7.578-12.25a6.061,6.061,0,0,1,4.5,1.7,6.1,6.1,0,0,1,1.7,4.531ZM9.844-7.281A2.407,2.407,0,0,0,9.2-9.031,2.166,2.166,0,0,0,7.547-9.7a2.634,2.634,0,0,0-1.812.625,2.888,2.888,0,0,0-.859,1.8Z"/>
      </g>
      <g id="Group_1568" data-name="Group 1568" transform="translate(111.68 625.625)">
        <path id="Path_56155" data-name="Path 56155" d="M7.2-5.391a3.294,3.294,0,0,0-1.812.406,1.36,1.36,0,0,0-.594,1.2,1.429,1.429,0,0,0,.484,1.141,2.032,2.032,0,0,0,1.359.406A2.411,2.411,0,0,0,8.453-3a2.744,2.744,0,0,0,.734-1.953v-.437Zm5.844-1.437V0H9.188V-1.766A4.939,4.939,0,0,1,7.453-.187a5.023,5.023,0,0,1-2.344.5A4.238,4.238,0,0,1,2.094-.766,3.7,3.7,0,0,1,.938-3.594,3.464,3.464,0,0,1,2.375-6.672a8.284,8.284,0,0,1,4.563-.984h2.25v-.3a1.436,1.436,0,0,0-.719-1.328A4.57,4.57,0,0,0,6.234-9.7a10.08,10.08,0,0,0-2.281.25,7.29,7.29,0,0,0-1.969.734v-2.922a23.588,23.588,0,0,1,2.469-.453,20.2,20.2,0,0,1,2.484-.156q3.234,0,4.672,1.281a5.271,5.271,0,0,1,1.438,4.141Z"/>
      </g>
      <g id="Group_1569" data-name="Group 1569" transform="translate(126.438 625.625)">
        <path id="Path_56156" data-name="Path 56156" d="M6.016-15.359v3.391H9.953v2.734H6.016v5.078a1.487,1.487,0,0,0,.328,1.125,2.041,2.041,0,0,0,1.313.3H9.625V0H6.344A4.5,4.5,0,0,1,3.125-.937a4.5,4.5,0,0,1-.937-3.219V-9.234H.281v-2.734H2.188v-3.391Z"/>
      </g>
      <g id="Group_1570" data-name="Group 1570" transform="translate(136.895 625.625)">
        <path id="Path_56157" data-name="Path 56157" d="M13.781-6.016v1.094H4.844a2.828,2.828,0,0,0,.969,2.016,3.593,3.593,0,0,0,2.328.672,8.926,8.926,0,0,0,2.469-.359,13.115,13.115,0,0,0,2.609-1.078V-.719A17.275,17.275,0,0,1,10.5.047,14.251,14.251,0,0,1,7.781.313,7.248,7.248,0,0,1,2.734-1.328a5.984,5.984,0,0,1-1.8-4.641A6.021,6.021,0,0,1,2.7-10.562,6.762,6.762,0,0,1,7.578-12.25a6.061,6.061,0,0,1,4.5,1.7,6.1,6.1,0,0,1,1.7,4.531ZM9.844-7.281A2.407,2.407,0,0,0,9.2-9.031,2.166,2.166,0,0,0,7.547-9.7a2.634,2.634,0,0,0-1.812.625,2.888,2.888,0,0,0-.859,1.8Z"/>
      </g>
      <g id="Group_1571" data-name="Group 1571" transform="translate(151.73 625.625)">
        <path id="Path_56158" data-name="Path 56158" d="M9.969-10.219v-6.406h3.859V0H9.969V-1.735A5.172,5.172,0,0,1,8.234-.172a4.84,4.84,0,0,1-2.2.484,4.461,4.461,0,0,1-3.625-1.75A6.987,6.987,0,0,1,.984-5.969a6.928,6.928,0,0,1,1.422-4.516A4.454,4.454,0,0,1,6.031-12.25a4.7,4.7,0,0,1,2.2.5,5.142,5.142,0,0,1,1.734,1.531ZM7.453-2.469A2.17,2.17,0,0,0,9.328-3.36a4.491,4.491,0,0,0,.641-2.609,4.458,4.458,0,0,0-.641-2.609,2.17,2.17,0,0,0-1.875-.891,2.147,2.147,0,0,0-1.859.891,4.428,4.428,0,0,0-.641,2.609A4.462,4.462,0,0,0,5.594-3.36,2.146,2.146,0,0,0,7.453-2.469Z"/>
      </g>
      <g id="Group_1572" data-name="Group 1572" transform="translate(175.008 625.625)">
        <path id="Path_56159" data-name="Path 56159" d="M8.2-2.469a2.17,2.17,0,0,0,1.875-.891,4.491,4.491,0,0,0,.641-2.609,4.458,4.458,0,0,0-.641-2.609A2.17,2.17,0,0,0,8.2-9.469a2.2,2.2,0,0,0-1.891.906,4.338,4.338,0,0,0-.656,2.594,4.4,4.4,0,0,0,.656,2.609A2.2,2.2,0,0,0,8.2-2.469Zm-2.547-7.75a5.219,5.219,0,0,1,1.75-1.531,4.774,4.774,0,0,1,2.219-.5,4.459,4.459,0,0,1,3.625,1.766,6.95,6.95,0,0,1,1.422,4.516A7.009,7.009,0,0,1,13.25-1.438,4.466,4.466,0,0,1,9.625.312a4.774,4.774,0,0,1-2.219-.5,5.321,5.321,0,0,1-1.75-1.547V0H1.844V-16.625H5.656Z"/>
      </g>
      <g id="Group_1573" data-name="Group 1573" transform="translate(190.664 625.625)">
        <path id="Path_56160" data-name="Path 56160" d="M.266-11.969H4.094L7.313-3.844l2.734-8.125h3.813L8.828,1.125a6.331,6.331,0,0,1-1.766,2.8,4.147,4.147,0,0,1-2.656.8H2.188v-2.5h1.2A2.479,2.479,0,0,0,4.8,1.906,1.979,1.979,0,0,0,5.484.8L5.594.453Z"/>
      </g>
      <g id="Group_1574" data-name="Group 1574" transform="translate(212.539 625.625)">
        <path id="Path_56161" data-name="Path 56161" d="M.109-15.953H4.234L8.469-4.172l4.219-11.781h4.141L10.922,0H6.016Z"/>
      </g>
      <g id="Group_1575" data-name="Group 1575" transform="translate(229.469 625.625)">
        <path id="Path_56162" data-name="Path 56162" d="M1.844-11.969H5.656V0H1.844Zm0-4.656H5.656V-13.5H1.844Z"/>
      </g>
      <g id="Group_1576" data-name="Group 1576" transform="translate(236.969 625.625)">
        <path id="Path_56163" data-name="Path 56163" d="M11.5-11.594v3.125A6.284,6.284,0,0,0,9.938-9.25a5.06,5.06,0,0,0-1.625-.266,3.281,3.281,0,0,0-2.5.938,3.638,3.638,0,0,0-.891,2.609A3.632,3.632,0,0,0,5.813-3.36a3.281,3.281,0,0,0,2.5.938A5.23,5.23,0,0,0,10-2.688a4.959,4.959,0,0,0,1.5-.8V-.36a9.4,9.4,0,0,1-1.812.5A10.26,10.26,0,0,1,7.828.312,7.259,7.259,0,0,1,2.766-1.344,5.951,5.951,0,0,1,.938-5.969a5.906,5.906,0,0,1,1.828-4.609A7.228,7.228,0,0,1,7.828-12.25a9.995,9.995,0,0,1,1.844.172,10.71,10.71,0,0,1,1.828.484Z"/>
      </g>
      <g id="Group_1577" data-name="Group 1577" transform="translate(249.934 625.625)">
        <path id="Path_56164" data-name="Path 56164" d="M6.016-15.359v3.391H9.953v2.734H6.016v5.078a1.487,1.487,0,0,0,.328,1.125,2.041,2.041,0,0,0,1.313.3H9.625V0H6.344A4.5,4.5,0,0,1,3.125-.937a4.5,4.5,0,0,1-.937-3.219V-9.234H.281v-2.734H2.188v-3.391Z"/>
      </g>
      <g id="Group_1578" data-name="Group 1578" transform="translate(260.391 625.625)">
        <path id="Path_56165" data-name="Path 56165" d="M7.531-9.516a2.251,2.251,0,0,0-1.937.922,4.356,4.356,0,0,0-.672,2.625,4.416,4.416,0,0,0,.672,2.641,2.258,2.258,0,0,0,1.938.906,2.205,2.205,0,0,0,1.906-.906,4.444,4.444,0,0,0,.672-2.641,4.384,4.384,0,0,0-.672-2.625A2.2,2.2,0,0,0,7.531-9.516Zm0-2.734a6.654,6.654,0,0,1,4.813,1.672,6.052,6.052,0,0,1,1.75,4.609,6.1,6.1,0,0,1-1.75,4.625A6.681,6.681,0,0,1,7.531.312,6.754,6.754,0,0,1,2.687-1.344,6.086,6.086,0,0,1,.937-5.969a6.038,6.038,0,0,1,1.75-4.609A6.727,6.727,0,0,1,7.531-12.25Z"/>
      </g>
      <g id="Group_1579" data-name="Group 1579" transform="translate(275.422 625.625)">
        <path id="Path_56166" data-name="Path 56166" d="M10.719-8.7a4.9,4.9,0,0,0-1-.344,4.054,4.054,0,0,0-1-.125,2.794,2.794,0,0,0-2.266.953,4.066,4.066,0,0,0-.8,2.7V0H1.844V-11.969H5.657V-10a4.788,4.788,0,0,1,1.688-1.7,4.6,4.6,0,0,1,2.3-.547c.133,0,.273.008.422.016s.363.031.656.063Z"/>
      </g>
      <g id="Group_1580" data-name="Group 1580" transform="translate(286.207 625.625)">
        <path id="Path_56167" data-name="Path 56167" d="M1.7-4.656v-7.313H5.547v1.2c0,.648-.008,1.461-.016,2.437v1.969a18.587,18.587,0,0,0,.078,2.078,2.45,2.45,0,0,0,.25.922,1.6,1.6,0,0,0,.609.578,1.841,1.841,0,0,0,.875.2A2.185,2.185,0,0,0,9.219-3.5a4.215,4.215,0,0,0,.688-2.562v-5.906h3.828V0H9.906V-1.734A5.912,5.912,0,0,1,8.078-.187a4.592,4.592,0,0,1-2.125.5A3.959,3.959,0,0,1,2.781-.953,5.6,5.6,0,0,1,1.7-4.656Z"/>
      </g>
      <g id="Group_1581" data-name="Group 1581" transform="translate(301.781 625.625)">
        <path id="Path_56168" data-name="Path 56168" d="M1.844-16.625H5.656V0H1.844Z"/>
      </g>
      <g id="Group_1582" data-name="Group 1582" transform="translate(309.277 625.625)">
        <path id="Path_56169" data-name="Path 56169" d="M13.781-6.016v1.094H4.844a2.828,2.828,0,0,0,.969,2.016,3.593,3.593,0,0,0,2.328.672,8.926,8.926,0,0,0,2.469-.359,13.115,13.115,0,0,0,2.609-1.078V-.719A17.275,17.275,0,0,1,10.5.047,14.251,14.251,0,0,1,7.781.313,7.248,7.248,0,0,1,2.734-1.328a5.984,5.984,0,0,1-1.8-4.641A6.021,6.021,0,0,1,2.7-10.562,6.762,6.762,0,0,1,7.578-12.25a6.061,6.061,0,0,1,4.5,1.7,6.1,6.1,0,0,1,1.7,4.531ZM9.844-7.281A2.407,2.407,0,0,0,9.2-9.031,2.166,2.166,0,0,0,7.547-9.7a2.634,2.634,0,0,0-1.812.625,2.888,2.888,0,0,0-.859,1.8Z"/>
      </g>
      <g id="Group_1583" data-name="Group 1583" transform="translate(324.117 625.625)">
        <path id="Path_56170" data-name="Path 56170" d="M10.719-8.7a4.9,4.9,0,0,0-1-.344,4.054,4.054,0,0,0-1-.125,2.794,2.794,0,0,0-2.266.953,4.066,4.066,0,0,0-.8,2.7V0H1.844V-11.969H5.657V-10a4.788,4.788,0,0,1,1.688-1.7,4.6,4.6,0,0,1,2.3-.547c.133,0,.273.008.422.016s.363.031.656.063Z"/>
      </g>
      <g id="Group_1584" data-name="Group 1584" transform="translate(70 647.5)">
        <path id="Path_56171" data-name="Path 56171" d="M9.7-16.625v2.516H7.594a1.716,1.716,0,0,0-1.141.3A1.357,1.357,0,0,0,6.141-12.8v.828H9.406v2.734H6.141V0H2.313V-9.234H.422v-2.734H2.313V-12.8a3.6,3.6,0,0,1,1.094-2.891,5.09,5.09,0,0,1,3.375-.937Z"/>
      </g>
      <g id="Group_1585" data-name="Group 1585" transform="translate(79.516 647.5)">
        <path id="Path_56172" data-name="Path 56172" d="M10.719-8.7a4.9,4.9,0,0,0-1-.344,4.054,4.054,0,0,0-1-.125,2.794,2.794,0,0,0-2.266.953,4.066,4.066,0,0,0-.8,2.7V0H1.844V-11.969H5.657V-10a4.788,4.788,0,0,1,1.688-1.7,4.6,4.6,0,0,1,2.3-.547c.133,0,.273.008.422.016s.363.031.656.063Z"/>
      </g>
      <g id="Group_1586" data-name="Group 1586" transform="translate(90.305 647.5)">
        <path id="Path_56173" data-name="Path 56173" d="M7.531-9.516a2.251,2.251,0,0,0-1.937.922,4.356,4.356,0,0,0-.672,2.625,4.416,4.416,0,0,0,.672,2.641,2.258,2.258,0,0,0,1.938.906,2.205,2.205,0,0,0,1.906-.906,4.444,4.444,0,0,0,.672-2.641,4.384,4.384,0,0,0-.672-2.625A2.2,2.2,0,0,0,7.531-9.516Zm0-2.734a6.654,6.654,0,0,1,4.813,1.672,6.052,6.052,0,0,1,1.75,4.609,6.1,6.1,0,0,1-1.75,4.625A6.681,6.681,0,0,1,7.531.312,6.754,6.754,0,0,1,2.687-1.344,6.086,6.086,0,0,1,.937-5.969a6.038,6.038,0,0,1,1.75-4.609A6.727,6.727,0,0,1,7.531-12.25Z"/>
      </g>
      <g id="Group_1587" data-name="Group 1587" transform="translate(105.332 647.5)">
        <path id="Path_56174" data-name="Path 56174" d="M12.922-9.969a5.247,5.247,0,0,1,1.719-1.7,4.335,4.335,0,0,1,2.2-.578,3.882,3.882,0,0,1,3.141,1.281,5.545,5.545,0,0,1,1.078,3.688V0H17.219V-6.235c.008-.094.016-.187.016-.281v-.437A3.489,3.489,0,0,0,16.859-8.8a1.335,1.335,0,0,0-1.2-.578,1.9,1.9,0,0,0-1.687.906,4.939,4.939,0,0,0-.609,2.594V0H9.516V-6.235A6.034,6.034,0,0,0,9.172-8.8a1.307,1.307,0,0,0-1.219-.578,1.944,1.944,0,0,0-1.7.906,4.68,4.68,0,0,0-.594,2.578V0H1.812V-11.969H5.656v1.75a5.035,5.035,0,0,1,1.609-1.516A4.08,4.08,0,0,1,9.3-12.25a4.072,4.072,0,0,1,2.188.594,3.742,3.742,0,0,1,1.438,1.687Z"/>
      </g>
      <g id="Group_1588" data-name="Group 1588" transform="translate(135.742 647.5)">
        <path id="Path_56175" data-name="Path 56175" d="M6.016-15.359v3.391H9.953v2.734H6.016v5.078a1.487,1.487,0,0,0,.328,1.125,2.041,2.041,0,0,0,1.313.3H9.625V0H6.344A4.5,4.5,0,0,1,3.125-.937a4.5,4.5,0,0,1-.937-3.219V-9.234H.281v-2.734H2.188v-3.391Z"/>
      </g>
      <g id="Group_1589" data-name="Group 1589" transform="translate(146.199 647.5)">
        <path id="Path_56176" data-name="Path 56176" d="M13.859-7.281V0H10.015V-5.547A19.665,19.665,0,0,0,9.937-7.7,2.224,2.224,0,0,0,9.7-8.578a1.523,1.523,0,0,0-.609-.578,1.721,1.721,0,0,0-.875-.219,2.2,2.2,0,0,0-1.875.938,4.17,4.17,0,0,0-.687,2.547V0H1.843V-16.625H5.656v6.406A5.88,5.88,0,0,1,7.5-11.75a4.61,4.61,0,0,1,2.141-.5,3.86,3.86,0,0,1,3.141,1.281,5.545,5.545,0,0,1,1.078,3.688Z"/>
      </g>
      <g id="Group_1590" data-name="Group 1590" transform="translate(161.773 647.5)">
        <path id="Path_56177" data-name="Path 56177" d="M13.781-6.016v1.094H4.844a2.828,2.828,0,0,0,.969,2.016,3.593,3.593,0,0,0,2.328.672,8.926,8.926,0,0,0,2.469-.359,13.115,13.115,0,0,0,2.609-1.078V-.719A17.275,17.275,0,0,1,10.5.047,14.251,14.251,0,0,1,7.781.313,7.248,7.248,0,0,1,2.734-1.328a5.984,5.984,0,0,1-1.8-4.641A6.021,6.021,0,0,1,2.7-10.562,6.762,6.762,0,0,1,7.578-12.25a6.061,6.061,0,0,1,4.5,1.7,6.1,6.1,0,0,1,1.7,4.531ZM9.844-7.281A2.407,2.407,0,0,0,9.2-9.031,2.166,2.166,0,0,0,7.547-9.7a2.634,2.634,0,0,0-1.812.625,2.888,2.888,0,0,0-.859,1.8Z"/>
      </g>
      <g id="Group_1591" data-name="Group 1591" transform="translate(184.223 647.5)">
        <path id="Path_56178" data-name="Path 56178" d="M2.016-15.953H6.594L12.406-5.015V-15.953H16.3V0H11.7l-5.8-10.938V0H2.016Z"/>
      </g>
      <g id="Group_1592" data-name="Group 1592" transform="translate(202.531 647.5)">
        <path id="Path_56179" data-name="Path 56179" d="M7.531-9.516a2.251,2.251,0,0,0-1.937.922,4.356,4.356,0,0,0-.672,2.625,4.416,4.416,0,0,0,.672,2.641,2.258,2.258,0,0,0,1.938.906,2.205,2.205,0,0,0,1.906-.906,4.444,4.444,0,0,0,.672-2.641,4.384,4.384,0,0,0-.672-2.625A2.2,2.2,0,0,0,7.531-9.516Zm0-2.734a6.654,6.654,0,0,1,4.813,1.672,6.052,6.052,0,0,1,1.75,4.609,6.1,6.1,0,0,1-1.75,4.625A6.681,6.681,0,0,1,7.531.312,6.754,6.754,0,0,1,2.687-1.344,6.086,6.086,0,0,1,.937-5.969a6.038,6.038,0,0,1,1.75-4.609A6.727,6.727,0,0,1,7.531-12.25Z"/>
      </g>
      <g id="Group_1593" data-name="Group 1593" transform="translate(217.559 647.5)">
        <path id="Path_56180" data-name="Path 56180" d="M1.7-4.656v-7.313H5.547v1.2c0,.648-.008,1.461-.016,2.437v1.969a18.587,18.587,0,0,0,.078,2.078,2.45,2.45,0,0,0,.25.922,1.6,1.6,0,0,0,.609.578,1.841,1.841,0,0,0,.875.2A2.185,2.185,0,0,0,9.219-3.5a4.215,4.215,0,0,0,.688-2.562v-5.906h3.828V0H9.906V-1.734A5.912,5.912,0,0,1,8.078-.187a4.592,4.592,0,0,1-2.125.5A3.959,3.959,0,0,1,2.781-.953,5.6,5.6,0,0,1,1.7-4.656Z"/>
      </g>
      <g id="Group_1594" data-name="Group 1594" transform="translate(233.133 647.5)">
        <path id="Path_56181" data-name="Path 56181" d="M13.859-7.281V0H10.015V-5.578A19.228,19.228,0,0,0,9.937-7.7,2.224,2.224,0,0,0,9.7-8.578a1.523,1.523,0,0,0-.609-.578,1.721,1.721,0,0,0-.875-.219,2.2,2.2,0,0,0-1.875.938,4.17,4.17,0,0,0-.687,2.547V0H1.843V-11.969H5.656v1.75A5.88,5.88,0,0,1,7.5-11.75a4.61,4.61,0,0,1,2.141-.5,3.86,3.86,0,0,1,3.141,1.281,5.545,5.545,0,0,1,1.078,3.688Z"/>
      </g>
      <g id="Group_1595" data-name="Group 1595" transform="translate(256.32 647.5)">
        <path id="Path_56182" data-name="Path 56182" d="M2.016-15.953H8.828A7.1,7.1,0,0,1,13.5-14.594a4.691,4.691,0,0,1,1.641,3.844A4.745,4.745,0,0,1,13.5-6.875,7.146,7.146,0,0,1,8.828-5.531h-2.7V0H2.016Zm4.109,2.984v4.453H8.391a2.662,2.662,0,0,0,1.844-.578,2.086,2.086,0,0,0,.656-1.656,2.074,2.074,0,0,0-.656-1.641,2.681,2.681,0,0,0-1.844-.578Z"/>
      </g>
      <g id="Group_1596" data-name="Group 1596" transform="translate(272.355 647.5)">
        <path id="Path_56183" data-name="Path 56183" d="M10.719-8.7a4.9,4.9,0,0,0-1-.344,4.054,4.054,0,0,0-1-.125,2.794,2.794,0,0,0-2.266.953,4.066,4.066,0,0,0-.8,2.7V0H1.844V-11.969H5.657V-10a4.788,4.788,0,0,1,1.688-1.7,4.6,4.6,0,0,1,2.3-.547c.133,0,.273.008.422.016s.363.031.656.063Z"/>
      </g>
      <g id="Group_1597" data-name="Group 1597" transform="translate(283.141 647.5)">
        <path id="Path_56184" data-name="Path 56184" d="M7.531-9.516a2.251,2.251,0,0,0-1.937.922,4.356,4.356,0,0,0-.672,2.625,4.416,4.416,0,0,0,.672,2.641,2.258,2.258,0,0,0,1.938.906,2.205,2.205,0,0,0,1.906-.906,4.444,4.444,0,0,0,.672-2.641,4.384,4.384,0,0,0-.672-2.625A2.2,2.2,0,0,0,7.531-9.516Zm0-2.734a6.654,6.654,0,0,1,4.813,1.672,6.052,6.052,0,0,1,1.75,4.609,6.1,6.1,0,0,1-1.75,4.625A6.681,6.681,0,0,1,7.531.312,6.754,6.754,0,0,1,2.687-1.344,6.086,6.086,0,0,1,.937-5.969a6.038,6.038,0,0,1,1.75-4.609A6.727,6.727,0,0,1,7.531-12.25Z"/>
      </g>
      <g id="Group_1598" data-name="Group 1598" transform="translate(298.172 647.5)">
        <path id="Path_56185" data-name="Path 56185" d="M1.844-11.969H5.656V-.219A5.274,5.274,0,0,1,4.5,3.453,4.254,4.254,0,0,1,1.172,4.719H-.719v-2.5h.656a1.865,1.865,0,0,0,1.5-.5A3.223,3.223,0,0,0,1.844-.219Zm0-4.656H5.656V-13.5H1.844Z"/>
      </g>
      <g id="Group_1599" data-name="Group 1599" transform="translate(305.668 647.5)">
        <path id="Path_56186" data-name="Path 56186" d="M13.781-6.016v1.094H4.844a2.828,2.828,0,0,0,.969,2.016,3.593,3.593,0,0,0,2.328.672,8.926,8.926,0,0,0,2.469-.359,13.115,13.115,0,0,0,2.609-1.078V-.719A17.275,17.275,0,0,1,10.5.047,14.251,14.251,0,0,1,7.781.313,7.248,7.248,0,0,1,2.734-1.328a5.984,5.984,0,0,1-1.8-4.641A6.021,6.021,0,0,1,2.7-10.562,6.762,6.762,0,0,1,7.578-12.25a6.061,6.061,0,0,1,4.5,1.7,6.1,6.1,0,0,1,1.7,4.531ZM9.844-7.281A2.407,2.407,0,0,0,9.2-9.031,2.166,2.166,0,0,0,7.547-9.7a2.634,2.634,0,0,0-1.812.625,2.888,2.888,0,0,0-.859,1.8Z"/>
      </g>
      <g id="Group_1600" data-name="Group 1600" transform="translate(320.504 647.5)">
        <path id="Path_56187" data-name="Path 56187" d="M11.5-11.594v3.125A6.284,6.284,0,0,0,9.938-9.25a5.06,5.06,0,0,0-1.625-.266,3.281,3.281,0,0,0-2.5.938,3.638,3.638,0,0,0-.891,2.609A3.632,3.632,0,0,0,5.813-3.36a3.281,3.281,0,0,0,2.5.938A5.23,5.23,0,0,0,10-2.688a4.959,4.959,0,0,0,1.5-.8V-.36a9.4,9.4,0,0,1-1.812.5A10.26,10.26,0,0,1,7.828.312,7.259,7.259,0,0,1,2.766-1.344,5.951,5.951,0,0,1,.938-5.969a5.906,5.906,0,0,1,1.828-4.609A7.228,7.228,0,0,1,7.828-12.25a9.995,9.995,0,0,1,1.844.172,10.71,10.71,0,0,1,1.828.484Z"/>
      </g>
      <g id="Group_1601" data-name="Group 1601" transform="translate(333.473 647.5)">
        <path id="Path_56188" data-name="Path 56188" d="M6.016-15.359v3.391H9.953v2.734H6.016v5.078a1.487,1.487,0,0,0,.328,1.125,2.041,2.041,0,0,0,1.313.3H9.625V0H6.344A4.5,4.5,0,0,1,3.125-.937a4.5,4.5,0,0,1-.937-3.219V-9.234H.281v-2.734H2.188v-3.391Z"/>
      </g>
    </g>
  </g>
</svg>
