<svg xmlns="http://www.w3.org/2000/svg" width="45.773" height="46.714" viewBox="0 0 45.773 46.714">
  <g id="Group_639" data-name="Group 639" transform="translate(0 0.75)">
    <g id="Group_600" data-name="Group 600" transform="translate(0 0)">
      <g id="Group_598" data-name="Group 598" transform="translate(0)">
        <g id="Group_597" data-name="Group 597">
          <g id="Group_596" data-name="Group 596">
            <g id="Group_594" data-name="Group 594">
              <g id="noun-video-call-4960857" transform="translate(0 0.187)">
                <path id="Path_54727" data-name="Path 54727" d="M105.691,76.487A2.176,2.176,0,0,0,108.4,79.2l7.692-2.311a1.116,1.116,0,0,1,.857.109,22.679,22.679,0,0,0,10.967,2.828,23.25,23.25,0,0,0,2.812-.172,22.886,22.886,0,1,0-22.834-11.711A1.108,1.108,0,0,1,108,68.8Zm4.105-9.6a20.715,20.715,0,1,1,8.2,8.2,3.351,3.351,0,0,0-1.611-.421,3.179,3.179,0,0,0-.919.135l-7.692,2.307,2.307-7.69a3.263,3.263,0,0,0-.286-2.531Z" transform="translate(-105.072 -34.045)" fill="#3d3d3d"/>
                <path id="Path_54728" data-name="Path 54728" d="M202.684,194.584h11.966A4.351,4.351,0,0,0,219,190.233v-.653l6.24,1.7a1.121,1.121,0,0,0,.287.038,1.088,1.088,0,0,0,1.088-1.088V179.356a1.088,1.088,0,0,0-1.375-1.05l-6.24,1.7v-.653A4.351,4.351,0,0,0,214.649,175H202.684a4.351,4.351,0,0,0-4.351,4.351v10.877a4.351,4.351,0,0,0,4.351,4.351Zm21.756-13.8v8.028L219,187.325v-5.06Zm-23.931-1.425a2.176,2.176,0,0,1,2.175-2.176h11.966a2.176,2.176,0,0,1,2.176,2.176v10.877a2.176,2.176,0,0,1-2.176,2.176H202.684a2.176,2.176,0,0,1-2.175-2.176Z" transform="translate(-189.637 -161.861)" fill="#3d3d3d"/>
              </g>
              <circle id="Ellipse_105" data-name="Ellipse 105" cx="5.494" cy="5.494" r="5.494" transform="translate(30.267)" fill="#3d3d3d" stroke="#fff" stroke-width="1.5"/>
            </g>
          </g>
        </g>
      </g>
    </g>
  </g>
</svg>
