<svg xmlns="http://www.w3.org/2000/svg" width="119.125" height="158.553" viewBox="0 0 119.125 158.553">
  <g id="Orthopedics" transform="translate(1.203 1.007)">
    <g id="Group_487" data-name="Group 487" transform="translate(0 0)">
      <g id="Group_485" data-name="Group 485" transform="translate(15.266 17.466)">
        <g id="Group_483" data-name="Group 483" transform="translate(0 0)">
          <path id="Path_54445" data-name="Path 54445" d="M425.135,253a10.994,10.994,0,0,1-10.834-9.193,14.361,14.361,0,0,0-6.411-9.825l-40.36-25.5a2.446,2.446,0,0,1,2.609-4.138l40.36,25.5A19.255,19.255,0,0,1,419.122,243a6.116,6.116,0,0,0,11.1,2.426,5.873,5.873,0,0,0,.877-1.987,13.247,13.247,0,0,1,4.586-7.257,6.119,6.119,0,0,0-6.319-10.355,13.09,13.09,0,0,1-12.3-.846L374.206,197.9a2.446,2.446,0,1,1,2.609-4.138l42.857,27.08a8.2,8.2,0,0,0,7.715.5,11.011,11.011,0,0,1,11.384,18.621,8.439,8.439,0,0,0-2.915,4.617A10.985,10.985,0,0,1,427.7,252.7,11.053,11.053,0,0,1,425.135,253Z" transform="translate(-366.387 -193.387)" stroke="#000" stroke-width="2"/>
        </g>
        <g id="Group_484" data-name="Group 484" transform="translate(48.287 63.74)">
          <path id="Path_54446" data-name="Path 54446" d="M854.17,884.718a2.731,2.731,0,0,1-.408-.031,2.434,2.434,0,0,1-2-2.823l4.974-29.312a28.457,28.457,0,0,1,9.621-17.133,5.575,5.575,0,0,0-4.79-9.7,10.087,10.087,0,0,1-7.461-1.243,5.477,5.477,0,0,0-2.15-.754,5.573,5.573,0,0,0-4.984,9.132,17.2,17.2,0,0,1,3.792,14.014l-5.738,33.9a2.45,2.45,0,1,1-4.831-.815l5.728-33.888a12.329,12.329,0,0,0-2.691-10.039,10.383,10.383,0,0,1-2.242-9.04,10.507,10.507,0,0,1,11.609-8.1,10.294,10.294,0,0,1,4.036,1.427,5.214,5.214,0,0,0,3.853.642,10.325,10.325,0,0,1,4.291-.041,10.46,10.46,0,0,1,4.709,18.264,23.569,23.569,0,0,0-7.95,14.2l-4.974,29.322A2.427,2.427,0,0,1,854.17,884.718Z" transform="translate(-840.163 -818.784)" stroke="#000" stroke-width="2"/>
        </g>
        <path id="Path_54447" data-name="Path 54447" d="M1074.423,673.626a5.409,5.409,0,0,1-.7-.041l-7.1-.846a5.841,5.841,0,0,1-3.588-9.784c1.427-1.529,2.956-3.18,4.26-4.576a5.846,5.846,0,0,1,9.458,1.264l2.843,5.422a5.848,5.848,0,0,1-5.167,8.561Zm-2.854-12.23a.908.908,0,0,0-.693.306c-1.3,1.406-2.833,3.047-4.26,4.576a.9.9,0,0,0-.194.979.915.915,0,0,0,.785.622l7.1.846a.9.9,0,0,0,.9-.408.919.919,0,0,0,.061-.989l-2.844-5.422a.938.938,0,0,0-.723-.5A.543.543,0,0,0,1071.57,661.4Z" transform="translate(-990.614 -609.313)" stroke="#000" stroke-width="2"/>
      </g>
      <g id="Group_486" data-name="Group 486">
        <path id="Path_54448" data-name="Path 54448" d="M560.38,178.567a2.547,2.547,0,0,1-.479-.051,2.44,2.44,0,0,1-1.916-2.874l14.208-70.915a36.243,36.243,0,0,0-16.542-37.873l-65.86-40.3a2.445,2.445,0,1,1,2.558-4.168l65.85,40.3a41,41,0,0,1,18.784,43.01L562.775,176.61A2.442,2.442,0,0,1,560.38,178.567Z" transform="translate(-460.897 -22.021)" stroke="#000" stroke-width="2"/>
        <path id="Path_54449" data-name="Path 54449" d="M261.954,523.906a2.392,2.392,0,0,1-.785-.133,2.447,2.447,0,0,1-1.539-3.1c.082-.245,8.368-25.082,5.86-37.945-1.2-6.125-.275-13.209,2.752-21.067a64.088,64.088,0,0,1,3.414-7.41,213.39,213.39,0,0,1-23.523-11.7A163.452,163.452,0,0,1,230.471,430.8c-9.1-6.981-13.158-11.9-13.321-12.108a2.444,2.444,0,1,1,3.781-3.1c.041.051,3.975,4.8,12.7,11.476,8.062,6.166,21.964,15.3,42.46,23.737a2.447,2.447,0,0,1,1.131,3.588c-.092.143-9.387,14.88-6.931,27.4,2.762,14.136-5.656,39.382-6.023,40.452a2.445,2.445,0,0,1-2.314,1.661Z" transform="translate(-216.599 -374.678)" stroke="#000" stroke-width="2"/>
      </g>
    </g>
  </g>
</svg>
