<svg xmlns="http://www.w3.org/2000/svg" width="496.993" height="455.659" viewBox="0 0 496.993 455.659">
  <g id="Parental" transform="translate(1.5 1.5)">
    <g id="Group_430" data-name="Group 430" transform="translate(107.48 157.086)">
      <g id="Group_429" data-name="Group 429">
        <path id="Path_54352" data-name="Path 54352" d="M156.262,185.847a7.235,7.235,0,0,0-10.178,1.062,13.453,13.453,0,0,1-21.83,0,7.236,7.236,0,1,0-11.24,9.116,27.9,27.9,0,0,0,44.311,0A7.236,7.236,0,0,0,156.262,185.847Z" transform="translate(-111.397 -184.231)" stroke="#000" stroke-width="3"/>
      </g>
    </g>
    <g id="Group_432" data-name="Group 432" transform="translate(90.944 115.747)">
      <g id="Group_431" data-name="Group 431">
        <path id="Path_54353" data-name="Path 54353" d="M101.5,141.386a7.236,7.236,0,0,0-7.236,7.236v8.268a7.236,7.236,0,1,0,14.473,0v-8.268A7.236,7.236,0,0,0,101.5,141.386Z" transform="translate(-94.259 -141.386)" stroke="#000" stroke-width="3"/>
      </g>
    </g>
    <g id="Group_434" data-name="Group 434" transform="translate(157.086 115.747)">
      <g id="Group_433" data-name="Group 433">
        <path id="Path_54354" data-name="Path 54354" d="M170.047,141.386a7.236,7.236,0,0,0-7.236,7.236v8.268a7.236,7.236,0,1,0,14.473,0v-8.268A7.237,7.237,0,0,0,170.047,141.386Z" transform="translate(-162.811 -141.386)" stroke="#000" stroke-width="3"/>
      </g>
    </g>
    <g id="Group_436" data-name="Group 436" transform="translate(347.242 198.423)">
      <g id="Group_435" data-name="Group 435">
        <path id="Path_54355" data-name="Path 54355" d="M404.762,228.691a7.236,7.236,0,0,0-10.178,1.062,13.453,13.453,0,0,1-21.83,0,7.236,7.236,0,1,0-11.239,9.116,27.893,27.893,0,0,0,44.309,0A7.236,7.236,0,0,0,404.762,228.691Z" transform="translate(-359.898 -227.075)" stroke="#000" stroke-width="3"/>
      </g>
    </g>
    <g id="Group_438" data-name="Group 438" transform="translate(330.706 157.086)">
      <g id="Group_437" data-name="Group 437">
        <path id="Path_54356" data-name="Path 54356" d="M350,184.231a7.236,7.236,0,0,0-7.236,7.236v8.268a7.236,7.236,0,0,0,14.473,0v-8.268A7.237,7.237,0,0,0,350,184.231Z" transform="translate(-342.759 -184.231)" stroke="#000" stroke-width="3"/>
      </g>
    </g>
    <g id="Group_440" data-name="Group 440" transform="translate(396.848 157.086)">
      <g id="Group_439" data-name="Group 439">
        <path id="Path_54357" data-name="Path 54357" d="M418.547,184.231a7.236,7.236,0,0,0-7.236,7.236v8.268a7.236,7.236,0,0,0,14.473,0v-8.268A7.237,7.237,0,0,0,418.547,184.231Z" transform="translate(-411.311 -184.231)" stroke="#000" stroke-width="3"/>
      </g>
    </g>
    <g id="Group_442" data-name="Group 442" transform="translate(0 0)">
      <g id="Group_441" data-name="Group 441">
        <path id="Path_54358" data-name="Path 54358" d="M473.856,321.6l-56.691-22.677a9.46,9.46,0,0,1-.878-.429c39.156-8.909,57.7-23.808,58.523-24.483a7.237,7.237,0,0,0,2.577-6.621c-.082-.573-8.2-58.02-8.2-114.723a98.18,98.18,0,1,0-196.361,0c0,14.833-.673,32.976-1.77,50.151l-15.8,7.9-46.37-23.184c-.133-.067-.273-.115-.409-.173a81.059,81.059,0,0,0,4.178-20.242,23.755,23.755,0,0,0,8.5-40.716V78.262a40.271,40.271,0,0,0-17.74-33.222,31.811,31.811,0,0,0-30.834-23.62H106.447a65.184,65.184,0,0,0-65.11,65.11v39.877a23.755,23.755,0,0,0,8.5,40.716A81.613,81.613,0,0,0,82.675,226.5v20L22.832,264.452A31.842,31.842,0,0,0,0,295.14V375.9a7.236,7.236,0,0,0,7.236,7.236H8.268v83.708a7.236,7.236,0,0,0,14.473,0V383.134H49.606v83.708a7.236,7.236,0,0,0,14.473,0V342.07A31.94,31.94,0,0,0,58.7,324.3L46.329,305.743a7.236,7.236,0,1,0-12.041,8.027l12.369,18.555a17.511,17.511,0,0,1,2.95,9.744v26.592H14.473V295.14a17.458,17.458,0,0,1,12.52-16.826l24.842-7.452a81.657,81.657,0,0,0,118.111,52.916,23.749,23.749,0,0,0,19.179,9.75h1.031v1.031a65.141,65.141,0,0,0,33.071,56.647v11.8a1.031,1.031,0,0,1-.705.978l-26.993,9a32,32,0,0,0-21.908,30.4v23.461a7.236,7.236,0,1,0,14.473,0V443.381A17.543,17.543,0,0,1,200.1,426.717l7.938-2.647a56.841,56.841,0,0,0,94.448,0l7.936,2.646a17.544,17.544,0,0,1,12.011,16.665v23.461a7.236,7.236,0,0,0,14.473,0V443.381A32,32,0,0,0,315,412.987l-26.993-9a1.03,1.03,0,0,1-.705-.978v-11.8A65.373,65.373,0,0,0,317.94,352.15a73.37,73.37,0,0,0,122.916-28.156l27.622,11.048a17.482,17.482,0,0,1,11.043,16.31V385.2H452.655v-9.3a7.236,7.236,0,1,0-14.473,0v90.944a7.236,7.236,0,0,0,14.473,0V399.67h18.6v67.173a7.236,7.236,0,0,0,14.473,0V399.67h1.031a7.236,7.236,0,0,0,7.236-7.236V351.352A31.878,31.878,0,0,0,473.856,321.6ZM287.3,152.671a83.708,83.708,0,1,1,167.415,0c0,48.592,5.852,97.713,7.753,112.383-6.485,4.242-23.088,13.586-51.154,19.726V273.265A81.017,81.017,0,0,0,422.3,265.8a81.46,81.46,0,0,0,30.355-63.526c0-40.9-29.579-46.772-58.184-52.451-18.2-3.613-37.023-7.35-52.01-19.34a7.236,7.236,0,0,0-11.757,5.651c0,.192-.315,19.232-27.589,26.051a7.237,7.237,0,0,0,3.51,14.041c22.828-5.707,32.141-18.513,35.938-28.135,15.692,9.3,33.27,12.788,49.09,15.928,30.575,6.07,46.53,10.528,46.53,38.256a66.986,66.986,0,0,1-24.981,52.271,67.16,67.16,0,0,1-81.286,2.344,81.766,81.766,0,0,0-19.811-30.536V194.012a7.236,7.236,0,0,0-10.472-6.472l-15.624,7.811C286.869,180.281,287.3,165.953,287.3,152.671Zm10.331,53.047v26.189l-26.19-13.094Zm-84.74,0,26.189,13.095L212.9,231.907ZM173.62,284.953v6.873a23.773,23.773,0,0,0-8.268,17.93,67.175,67.175,0,0,1-99.624-43.062l17.877-5.364A48.558,48.558,0,0,0,174.323,274.3,81.368,81.368,0,0,0,173.62,284.953ZM97.149,251.871V235.109a81.536,81.536,0,0,0,68.2,0v16.772a34.1,34.1,0,0,1-68.2.093C97.151,251.939,97.149,251.9,97.149,251.871Zm34.1-23.76a67.248,67.248,0,0,1-67.173-67.172,7.236,7.236,0,0,0-7.236-7.236,9.3,9.3,0,1,1,0-18.6H73.378a7.236,7.236,0,0,0,6.865-4.948l6.642-19.926c16.629-.375,68.179-2.713,97.208-17.228a7.236,7.236,0,1,0-6.472-12.944C146.475,95.631,82.288,95.83,81.643,95.83a7.236,7.236,0,0,0-6.864,4.949l-6.618,19.854H56.842c-.345,0-.689.012-1.031.026V86.53a50.7,50.7,0,0,1,50.637-50.637H172.59A17.436,17.436,0,0,1,189.854,50.7a7.236,7.236,0,0,0,3.592,5.168,25.832,25.832,0,0,1,13.246,22.394v42.4c-.343-.015-.685-.026-1.031-.026h-8.268a7.236,7.236,0,1,0,0,14.473h8.268a9.3,9.3,0,1,1,0,18.6,7.236,7.236,0,0,0-7.236,7.236A67.248,67.248,0,0,1,131.251,228.111Zm48.574,23.773V226.5a82.3,82.3,0,0,0,18.6-19.227v19.085A81.759,81.759,0,0,0,179.774,253.9C179.8,253.228,179.825,252.558,179.825,251.884ZM288.05,419.256a42.335,42.335,0,0,1-65.564,0l4.612-1.537a15.484,15.484,0,0,0,10.6-14.708v-5.768a64.776,64.776,0,0,0,35.134,0v5.768a15.48,15.48,0,0,0,10.6,14.707Zm25.091-100.2a7.236,7.236,0,0,0-7.236,7.236v7.195c0,.063,0,.125,0,.188v.885a50.637,50.637,0,0,1-101.275,0v-8.268a7.236,7.236,0,0,0-7.236-7.236h-8.268a9.31,9.31,0,0,1-9.3-9.3,9.192,9.192,0,0,1,4.671-7.988,7.192,7.192,0,0,0,1.714-1.406c17.888-.518,75.874-3.884,113.984-25.662a7.236,7.236,0,0,0-7.18-12.566c-33.385,19.077-85.845,22.9-104.92,23.66v-.841a67.239,67.239,0,0,1,11.46-37.481,7.215,7.215,0,0,0,9.343,2.615l46.37-23.185,46.37,23.185a7.194,7.194,0,0,0,9.342-2.615,67.239,67.239,0,0,1,11.46,37.481v10.561a7.234,7.234,0,0,0,3.6,6.254,9.192,9.192,0,0,1,4.672,7.988,9.31,9.31,0,0,1-9.3,9.3Zm57.873,41.338a58.983,58.983,0,0,1-49.44-26.87,23.707,23.707,0,0,0,15.338-41.7v-6.872a81.37,81.37,0,0,0-.465-8.679,81.592,81.592,0,0,0,60.4,3.421v10.6a23.658,23.658,0,0,0,14.942,22.072l15.6,6.242A58.872,58.872,0,0,1,371.013,360.394Z" transform="translate(0 -21.42)" stroke="#000" stroke-width="3"/>
      </g>
    </g>
    <g id="Group_444" data-name="Group 444" transform="translate(231.495 322.438)">
      <g id="Group_443" data-name="Group 443">
        <path id="Path_54359" data-name="Path 54359" d="M284.8,357.226a7.236,7.236,0,0,0-10.178,1.062,13.452,13.452,0,0,1-21.83,0,7.236,7.236,0,1,0-11.24,9.116,27.9,27.9,0,0,0,44.311,0A7.239,7.239,0,0,0,284.8,357.226Z" transform="translate(-239.932 -355.609)" stroke="#000" stroke-width="3"/>
      </g>
    </g>
    <g id="Group_446" data-name="Group 446" transform="translate(223.36 289.401)">
      <g id="Group_445" data-name="Group 445">
        <ellipse id="Ellipse_80" data-name="Ellipse 80" cx="7.236" cy="7.236" rx="7.236" ry="7.236" stroke="#000" stroke-width="3"/>
      </g>
    </g>
    <g id="Group_448" data-name="Group 448" transform="translate(272.566 289.401)">
      <g id="Group_447" data-name="Group 447">
        <ellipse id="Ellipse_81" data-name="Ellipse 81" cx="7.236" cy="7.236" rx="7.236" ry="7.236" stroke="#000" stroke-width="3"/>
      </g>
    </g>
  </g>
</svg>
