<svg xmlns="http://www.w3.org/2000/svg" width="253.801" height="245.56" viewBox="0 0 253.801 245.56">
  <g id="physic" transform="translate(1.5 1.5)">
    <g id="Group_489" data-name="Group 489" transform="translate(0)">
      <path id="Path_54484" data-name="Path 54484" d="M244.766,189.122H229.889c3.632-3.062,6.381-7.38,7.83-13.473.955-4.021.521-7.775.061-11.75-.528-4.561-1.074-9.277.3-15.387h0c1.053-4.7.287-8.225-2.278-10.482-3.1-2.731-8.176-2.846-15.073-.342a17.278,17.278,0,0,0-5.806,3.524,28.32,28.32,0,0,0-13-1.656c-8.045.858-15.489,5.685-20.232,12.7a57.006,57.006,0,0,0-17.357-7.564,3.674,3.674,0,1,0-1.857,7.109,48.739,48.739,0,0,1,15.831,7.046c-.114.308-.224.617-.328.929A26.563,26.563,0,0,0,176.7,170.8a30.39,30.39,0,0,0,8.466,18.321h-35.95V177.7h9.767a3.674,3.674,0,0,0,0-7.348H116.7V156.619a13.629,13.629,0,0,0,1.388-.711c7.122-4.163,17.341-6.448,28.037-6.275h.061a3.674,3.674,0,0,0,.059-7.347,75.814,75.814,0,0,0-12.3.791V123.55a30.99,30.99,0,0,0,8.715-9.6c3.512-6.1,3.652-9.433,3.907-15.493.041-.97.085-2.032.147-3.213,0-.033,0-.065,0-.1s0-.063,0-.1V86.042a19.4,19.4,0,0,0-19.378-19.379h-1.284c5.442-5.564,9.082-12.779,9.082-19.265V39.858c0-9.471-3.033-17.518-8.77-23.271a27.948,27.948,0,0,0-19.478-8.175h-.116a27.969,27.969,0,0,0-19.484,8.174c-5.743,5.754-8.778,13.8-8.778,23.272V47.4c0,6.484,3.641,13.7,9.088,19.265H86.306c-9.525,0-14.216,5.823-16.917,10.2L48,111.606c-2.419-4.344-8.417-13.688-15.509-14.231-1.974-.149-4.449-.089-6.1,1.739-1.737,1.925-1.3,4.334-.983,6.093l5.169,29.473c.458,2.613.82,4.678,2.546,6.079,1.808,1.469,3.887,1.247,6.3.989.494-.052,1.051-.112,1.682-.17A41.6,41.6,0,0,1,61.88,144.92a61.951,61.951,0,0,1,8.239,4.584v19.691H40.22c-4.321,0-4.438-.246-4.995-1.421-.719-1.523-7.284-14.906-16.232-15.591-1.979-.153-4.462-.092-6.112,1.743-1.737,1.931-1.309,4.256-.965,6.125L17,189.123H6.021A6.027,6.027,0,0,0,0,195.143v28.8a6.034,6.034,0,0,0,6.021,6.034h9.156V236.8a14.188,14.188,0,0,0,14.171,14.172H221.439A14.188,14.188,0,0,0,235.61,236.8v-6.824h9.156a6.041,6.041,0,0,0,6.034-6.034v-28.8a6.034,6.034,0,0,0-6.034-6.021Zm-25.78-21.842c-2.955-6.423-3.546-12.445-1.663-16.956a10.008,10.008,0,0,1,5.911-5.729,18.742,18.742,0,0,1,6.119-1.358,2.794,2.794,0,0,1,1.591.311c.126.111.489,1.006-.039,3.358h0c-1.643,7.326-.968,13.155-.426,17.839.4,3.458.746,6.444.09,9.206-2.085,8.767-7.163,12.991-19.134,14.5l.095-.081C221.691,179.6,221.192,172.056,218.986,167.28ZM184,170.021a19.163,19.163,0,0,1,.943-7.933c2.29-6.88,8.665-14.256,17.746-15.225a20.989,20.989,0,0,1,7.841.65c-2.675,6.426-2.045,14.536,1.778,22.843,3.6,7.786-10.09,16.068-14.43,18.452-7.672-2.911-12.94-9.979-13.878-18.787ZM141.868,177.7v11.426H109.891a5.726,5.726,0,0,1,.547-11.426Zm-15.274-33.108a49.96,49.96,0,0,0-12.219,4.975l-.2.114c-.409-.483-.939-1.162-1.428-1.789-.6-.766-1.341-1.72-2.234-2.815a78.2,78.2,0,0,0-7.437-7.665l20.235-8.164c1.056-.427,2.158-.9,3.28-1.423v16.767ZM94.687,132.871a4.558,4.558,0,0,1-3.38-8.467l.1-.041,18.56-8.042,4.364,8.625ZM106.828,15.76c9.141.17,18.892,6.412,20.672,19.663-8.027-1.53-24.4-4.808-26.3-5.3h0a11.833,11.833,0,0,0-2.968-.4c-3.474,0-5.946,1.719-8.017,3.16a20.4,20.4,0,0,1-4.043,2.366C88.009,22.119,97.721,15.93,106.828,15.76ZM85.856,47.4V43.019a23.278,23.278,0,0,0,8.549-4.1c2.41-1.676,3.184-2.14,4.95-1.683h0c1.319.341,20.372,4.239,28.432,5.722V47.4c0,6.315-6.028,15.569-14.334,19.523a3.723,3.723,0,0,0-.339.154c-.456.207-.916.4-1.383.577a13.967,13.967,0,0,1-4.9,1.011,14.146,14.146,0,0,1-4.9-1.005c-.447-.166-.891-.355-1.332-.556a3.735,3.735,0,0,0-.364-.169c-7.718-3.7-14.378-12.567-14.378-19.534ZM115.3,74.137v1.1c0,5.348-3.8,9.7-8.476,9.7s-8.49-4.351-8.49-9.7v-1.1q.521.219,1.047.415a19.673,19.673,0,0,0,14.888-.006q.517-.192,1.031-.408Zm-39.66,6.585c2.938-4.766,6.027-6.71,10.661-6.71h4.685v1.228c0,9.4,7.1,17.046,15.838,17.046s15.823-7.646,15.823-17.046V74.011h4.685a12.045,12.045,0,0,1,12.031,12.032v8.919c-.061,1.169-.105,2.226-.146,3.192-.245,5.837-.319,7.6-2.931,12.132-2.972,5.153-7.523,8.733-15.128,11.9l-4.478-8.852a16.435,16.435,0,0,0,4.648-3.644,3.64,3.64,0,0,0,.481-.627l4.429-7.29a3.674,3.674,0,1,0-6.279-3.815l-4.218,6.943a10.139,10.139,0,0,1-4.156,2.717L88.528,117.6a11.779,11.779,0,0,0-5.1,3.979,47.211,47.211,0,0,0-10.47-4.124l7.48-12.161a3.674,3.674,0,1,0-6.258-3.85l-8.856,14.4c-3.549-.569-7.112-.93-10.564-1.2ZM51.525,134.48a49.929,49.929,0,0,0-11.1-.219c-.671.061-2.21.226-2.416.247-.075-.394-5.19-29.569-5.19-29.569,2.9,1.234,7.274,6.949,9.673,11.986,1.364,2.887,2.814,4.11,4.755,4.574,2.287.294,3.952.245,4.705.3.972.07,1.958.146,2.95.229Zm25.942,20.867c5.765,5.521,8.249,10.655,8.561,12.589-1.109.567-3.979.943-8.561,1.128Zm-30.824,21.2H69.782c14.261,0,19.169-.842,21.881-3.753a6.6,6.6,0,0,0,1.723-5.114c-.464-6.78-9.818-20.821-28.423-29.426a43.5,43.5,0,0,0-6.229-2.278L62.3,122.826c6.729.941,13.384,2.583,18.794,5.9a11.9,11.9,0,0,0,14.146,11.607,77.265,77.265,0,0,1,9.589,9.394c.835,1.024,1.521,1.9,2.126,2.68a30.627,30.627,0,0,0,2.392,2.832V170.4a13.067,13.067,0,0,0-10.673,18.724H46.644Zm-18.06-5.627c2.475,5.218,6.752,5.6,10.712,5.624v12.581H24.464l-5.143-29.395c2.923,1.147,7.036,6.473,9.262,11.19Zm214.87,51.712H134.169a3.674,3.674,0,0,0,0,7.348h94.093V236.8a6.831,6.831,0,0,1-6.824,6.824H29.348a6.831,6.831,0,0,1-6.824-6.824v-6.824h95.482a3.674,3.674,0,1,0,0-7.348H7.348V196.47H243.453Z" transform="translate(0 -8.413)" stroke="#000" stroke-width="3"/>
    </g>
  </g>
</svg>
