<svg xmlns="http://www.w3.org/2000/svg" width="439.992" height="464.73" viewBox="0 0 439.992 464.73">
  <g id="svgexport-6_85_" data-name="svgexport-6 (85)" transform="translate(0 1.5)">
    <g id="Group_451" data-name="Group 451" transform="translate(1.5 0)">
      <g id="Group_450" data-name="Group 450">
        <path id="Path_54376" data-name="Path 54376" d="M96.2,28a90.7,90.7,0,1,0,90.7,90.7A90.8,90.8,0,0,0,96.2,28Zm73.25,79.4-19.129,16.02L143.037,94.3a8.357,8.357,0,0,0-8.567-6.233l-29.988,2.061L115.7,62.259a8.232,8.232,0,0,0-2.465-9.482l-9.787-7.915A74.266,74.266,0,0,1,169.446,107.4ZM96.2,192.9A74.169,74.169,0,0,1,79.286,46.51L98.134,61.764,84.29,96.187a8.264,8.264,0,0,0,.981,7.924,8.436,8.436,0,0,0,7.231,3.381l36.221-2.5,8.806,35.215a8.246,8.246,0,0,0,13.291,4.329l18.824-15.773A74.269,74.269,0,0,1,96.2,192.9Z" transform="translate(27.481 202.866)" stroke="#000" stroke-width="3"/>
        <path id="Path_54377" data-name="Path 54377" d="M209.893,102.7a90.7,90.7,0,1,0-90.7,90.7A90.8,90.8,0,0,0,209.893,102.7Zm-164.9,0a74.32,74.32,0,0,1,1.327-13.769l1.294,5.186a8.416,8.416,0,0,0,8.567,6.233l29.988-2.061L74.953,126.154a8.251,8.251,0,0,0,3.265,10.067l25.453,15.946L81.145,166.283A74.154,74.154,0,0,1,44.99,102.7ZM119.2,176.9a73.9,73.9,0,0,1-19.6-2.713l23.985-15.031a8.259,8.259,0,0,0-.008-13.984L92.829,125.9l13.547-33.673a8.264,8.264,0,0,0-.981-7.924,8.356,8.356,0,0,0-7.231-3.381l-36.221,2.5-5.17-20.687A74.17,74.17,0,1,1,119.2,176.9Z" transform="translate(194.119 86.944)" stroke="#000" stroke-width="3"/>
        <path id="Path_54378" data-name="Path 54378" d="M438.492,189.64A123.685,123.685,0,0,0,308.9,66.095c-49.6,2.317-92.914,35.685-109.982,80.745l-19.12-16.02a8.239,8.239,0,0,0-13.291,4.32L157.7,170.355l-7.783-.528V94.112l22.031,22.031a25.734,25.734,0,0,0,43.93-18.2,25.905,25.905,0,0,0-7.536-18.2L131.006,2.418a8.236,8.236,0,0,0-11.659,0L42.017,79.749a25.734,25.734,0,0,0,18.2,43.93,25.536,25.536,0,0,0,18.2-7.536l22.031-22.031v106.4C43.558,212.108,1.5,262.931,1.5,321.562A123.817,123.817,0,0,0,125.177,445.239c65.854,0,119.7-51.779,123.322-116.751l12.269,8.179a8.244,8.244,0,0,0,12.821-6.86V306a121.721,121.721,0,0,0,16.49,4.708v60.33h-16.49a24.735,24.735,0,0,0,0,49.471h16.49v16.49a24.735,24.735,0,1,0,49.471,0V420.5h16.49a24.735,24.735,0,1,0,0-49.471h-16.49V310.695C396.434,299.094,438.492,248.271,438.492,189.64Zm-275.041-2.35c.19.008.379.016.569.016a8.247,8.247,0,0,0,8-6.25l7.28-29.122,14.619,12.244a118.123,118.123,0,0,0-2.4,15.616,123.06,123.06,0,0,0,3.595,40.137,122.269,122.269,0,0,0-45.2-19.417V186.367ZM125.177,428.749A107.311,107.311,0,0,1,17.99,321.562c0-52.893,39.494-98.447,91.867-105.958a8.254,8.254,0,0,0,7.074-8.163V74.208a8.25,8.25,0,0,0-5.087-7.618,8.141,8.141,0,0,0-3.158-.627,8.248,8.248,0,0,0-5.829,2.416L66.752,104.484a9.247,9.247,0,0,1-15.781-6.538,9.34,9.34,0,0,1,2.7-6.538l71.5-71.5,71.5,71.5a9.247,9.247,0,0,1-6.538,15.781,9.172,9.172,0,0,1-6.538-2.7L147.5,68.379a8.243,8.243,0,0,0-14.074,5.829V207.441A8.254,8.254,0,0,0,140.5,215.6c52.373,7.511,91.867,53.066,91.867,105.958A107.311,107.311,0,0,1,125.177,428.749ZM257.1,314.405l-9.037-6.027A122,122,0,0,0,245,291.41a122.726,122.726,0,0,0,12.1,7.429Zm74.206,73.118h24.735a8.245,8.245,0,1,1,0,16.49H331.305a8.243,8.243,0,0,0-8.245,8.245v24.735a8.245,8.245,0,1,1-16.49,0V412.259a8.243,8.243,0,0,0-8.245-8.245H273.589a8.245,8.245,0,0,1,0-16.49h24.735a8.243,8.243,0,0,0,8.245-8.245V303.761A8.254,8.254,0,0,0,299.5,295.6c-55.7-7.981-95.9-58.285-91.538-114.533,4.1-52.752,48.77-96.023,101.7-98.488A107.21,107.21,0,0,1,422,189.64c0,52.893-39.494,98.447-91.867,105.958a8.254,8.254,0,0,0-7.074,8.163v75.517A8.243,8.243,0,0,0,331.305,387.523Z" transform="translate(-1.5 0)" stroke="#000" stroke-width="3"/>
      </g>
    </g>
  </g>
</svg>
