<?xml version="1.0" encoding="UTF-8"?>
<svg xmlns="http://www.w3.org/2000/svg" xmlns:xlink="http://www.w3.org/1999/xlink" width="24px" height="25px" viewBox="0 0 24 22" version="1.1">
<g id="surface1">
<path style=" stroke:none;fill-rule:nonzero;fill:rgb(0%,0%,0%);fill-opacity:1;" d="M 17.492188 13.152344 C 17.898438 13.152344 18.230469 12.832031 18.230469 12.4375 C 18.234375 12.359375 18.191406 12.285156 18.121094 12.242188 C 18.050781 12.203125 17.960938 12.203125 17.890625 12.242188 C 17.820312 12.285156 17.777344 12.359375 17.78125 12.4375 C 17.78125 12.59375 17.652344 12.71875 17.492188 12.71875 C 17.332031 12.71875 17.203125 12.59375 17.203125 12.4375 C 17.199219 12.320312 17.097656 12.226562 16.976562 12.226562 C 16.855469 12.226562 16.753906 12.320312 16.75 12.4375 C 16.753906 12.832031 17.082031 13.152344 17.492188 13.152344 Z M 17.492188 13.152344 "/>
<path style=" stroke:none;fill-rule:nonzero;fill:rgb(0%,0%,0%);fill-opacity:1;" d="M 19.304688 10.640625 C 19.429688 10.640625 19.527344 10.542969 19.527344 10.421875 L 19.527344 10.195312 C 19.648438 10.179688 19.730469 10.078125 19.722656 9.964844 C 19.71875 9.851562 19.621094 9.761719 19.5 9.761719 L 19.304688 9.761719 C 19.179688 9.761719 19.078125 9.859375 19.078125 9.976562 L 19.078125 10.421875 C 19.078125 10.480469 19.101562 10.535156 19.144531 10.578125 C 19.1875 10.617188 19.242188 10.640625 19.304688 10.640625 Z M 19.304688 10.640625 "/>
<path style=" stroke:none;fill-rule:nonzero;fill:rgb(0%,0%,0%);fill-opacity:1;" d="M 15.21875 10.195312 L 15.21875 10.421875 C 15.214844 10.503906 15.257812 10.578125 15.328125 10.617188 C 15.398438 10.65625 15.488281 10.65625 15.558594 10.617188 C 15.628906 10.578125 15.671875 10.503906 15.667969 10.421875 L 15.667969 9.976562 C 15.667969 9.859375 15.566406 9.761719 15.441406 9.761719 L 15.246094 9.761719 C 15.125 9.761719 15.027344 9.851562 15.023438 9.964844 C 15.015625 10.078125 15.101562 10.179688 15.21875 10.195312 Z M 15.21875 10.195312 "/>
<path style=" stroke:none;fill-rule:nonzero;fill:rgb(0%,0%,0%);fill-opacity:1;" d="M 22.542969 10.753906 C 22.648438 10.476562 22.703125 10.1875 22.699219 9.894531 C 22.707031 9.421875 22.5625 8.957031 22.289062 8.5625 C 22.332031 8.484375 22.355469 8.398438 22.355469 8.3125 C 22.355469 7.03125 22.40625 6.273438 22.09375 5.171875 C 22.03125 4.945312 21.828125 4.824219 21.648438 4.902344 C 21.449219 5.015625 21.359375 5.246094 21.429688 5.457031 C 21.6875 6.355469 21.652344 6.980469 21.652344 7.878906 L 19.484375 7.878906 C 18.46875 7.878906 17.640625 6.859375 17.640625 5.605469 C 17.675781 5.460938 17.617188 5.316406 17.496094 5.230469 C 17.371094 5.148438 17.207031 5.148438 17.085938 5.230469 C 16.960938 5.316406 16.902344 5.460938 16.9375 5.605469 C 16.9375 6.859375 16.109375 7.878906 15.09375 7.878906 L 12.929688 7.878906 L 12.929688 7.070312 C 12.929688 4.375 14.707031 2.183594 16.890625 2.183594 C 16.921875 2.1875 16.941406 2.214844 16.9375 2.242188 C 16.902344 2.382812 16.960938 2.53125 17.085938 2.613281 C 17.207031 2.695312 17.371094 2.695312 17.496094 2.613281 C 17.617188 2.53125 17.675781 2.382812 17.640625 2.242188 C 17.636719 2.214844 17.660156 2.1875 17.691406 2.183594 C 18.835938 2.183594 19.925781 2.792969 20.675781 3.859375 C 20.726562 3.941406 20.816406 4 20.914062 4.007812 C 21.011719 4.015625 21.109375 3.976562 21.171875 3.902344 C 21.320312 3.726562 21.332031 3.480469 21.207031 3.289062 C 20.320312 2.035156 19.039062 1.316406 17.691406 1.316406 C 17.542969 1.316406 17.402344 1.367188 17.289062 1.457031 C 17.179688 1.367188 17.039062 1.316406 16.890625 1.316406 C 14.316406 1.316406 12.226562 3.898438 12.226562 7.070312 L 12.226562 8.3125 C 12.226562 8.398438 12.246094 8.484375 12.289062 8.5625 C 12.167969 8.734375 12.070312 8.921875 12.003906 9.121094 C 11.980469 8.535156 11.734375 7.976562 11.3125 7.554688 L 11.3125 5.902344 C 11.3125 2.648438 9.167969 0 6.527344 0 C 6.09375 -0.0117188 5.660156 0.0117188 5.230469 0.0742188 C 3.980469 0.195312 2.863281 1.019531 2.1875 2.300781 L 1.128906 1.886719 C 0.90625 1.796875 0.679688 1.992188 0.667969 2.277344 C 0.664062 2.40625 0.558594 5.3125 0.988281 7.335938 C 0.339844 7.792969 -0.03125 8.53125 0 9.304688 C 0 10.421875 0.675781 11.347656 1.550781 11.488281 C 1.746094 12.605469 2.261719 13.644531 3.035156 14.496094 C 3.226562 14.695312 3.433594 14.878906 3.65625 15.046875 L 2.917969 15.046875 C 1.703125 15.046875 0.714844 16.265625 0.714844 17.765625 L 0.714844 21.566406 C 0.691406 21.777344 0.847656 21.96875 1.066406 22 L 1.648438 22 C 1.855469 21.949219 2 21.769531 2 21.566406 C 2 21.359375 1.855469 21.179688 1.648438 21.132812 L 1.417969 21.132812 L 1.417969 17.765625 C 1.417969 16.746094 2.089844 15.914062 2.917969 15.914062 L 3.941406 15.914062 C 4.117188 17.191406 5.054688 18.152344 6.148438 18.066406 C 7.140625 17.988281 7.925781 17.066406 8.082031 15.914062 L 9.105469 15.914062 C 9.933594 15.914062 10.605469 16.746094 10.605469 17.765625 L 10.605469 21.132812 L 3.289062 21.132812 C 3.085938 21.183594 2.9375 21.359375 2.9375 21.566406 C 2.9375 21.773438 3.085938 21.949219 3.289062 22 L 10.960938 22 C 11.179688 21.972656 11.335938 21.777344 11.3125 21.566406 L 11.3125 17.765625 C 11.3125 17.417969 11.257812 17.074219 11.152344 16.746094 L 11.714844 16.746094 C 12.0625 16.742188 12.40625 16.660156 12.714844 16.5 C 12.484375 16.945312 12.367188 17.4375 12.371094 17.933594 L 12.371094 21.566406 C 12.347656 21.78125 12.503906 21.972656 12.722656 22 L 21.882812 22 C 22.101562 21.972656 22.257812 21.78125 22.234375 21.566406 L 22.234375 17.933594 C 22.238281 17.441406 22.121094 16.957031 21.898438 16.515625 C 22.199219 16.664062 22.53125 16.742188 22.867188 16.742188 L 23.648438 16.742188 C 23.867188 16.714844 24.023438 16.523438 24 16.3125 L 24 13.652344 C 24 12.417969 23.417969 11.292969 22.542969 10.753906 Z M 15.09375 8.746094 C 16.027344 8.746094 16.847656 8.121094 17.289062 7.195312 C 17.734375 8.121094 18.550781 8.746094 19.484375 8.746094 L 21.066406 8.746094 C 21.578125 8.746094 21.996094 9.261719 21.996094 9.894531 C 22 10.179688 21.910156 10.460938 21.734375 10.691406 C 21.574219 10.914062 21.308594 11.046875 21.027344 11.042969 C 20.828125 11.050781 20.671875 11.210938 20.667969 11.402344 C 20.398438 13.375 19.015625 14.925781 17.289062 14.925781 C 16.070312 14.925781 14.929688 14.128906 14.316406 12.808594 C 14.3125 12.789062 14.304688 12.773438 14.296875 12.753906 C 14.152344 12.433594 14.042969 12.097656 13.972656 11.757812 C 13.972656 11.75 13.96875 11.742188 13.96875 11.734375 C 13.949219 11.636719 13.929688 11.535156 13.910156 11.402344 C 13.90625 11.210938 13.75 11.054688 13.550781 11.042969 C 13.023438 11.066406 12.582031 10.542969 12.582031 9.894531 C 12.582031 9.261719 13 8.746094 13.511719 8.746094 C 13.527344 8.746094 13.539062 8.746094 13.550781 8.746094 C 13.566406 8.746094 13.582031 8.746094 13.59375 8.746094 Z M 17.292969 17.617188 C 16.625 17.617188 16.082031 16.945312 16.082031 16.121094 L 16.082031 15.570312 C 16.863281 15.867188 17.730469 15.867188 18.507812 15.566406 L 18.507812 16.121094 C 18.507812 16.921875 17.996094 17.574219 17.359375 17.617188 C 17.335938 17.617188 17.316406 17.617188 17.296875 17.617188 Z M 14.515625 15.285156 C 14.277344 15.285156 14.042969 15.332031 13.828125 15.425781 C 14.054688 15.042969 14.207031 14.625 14.28125 14.1875 C 14.382812 14.320312 14.492188 14.449219 14.609375 14.574219 C 14.839844 14.816406 15.097656 15.03125 15.378906 15.214844 L 15.378906 15.285156 Z M 19.210938 15.207031 C 19.632812 14.929688 20 14.585938 20.296875 14.1875 C 20.371094 14.617188 20.523438 15.03125 20.746094 15.414062 C 20.34375 15.253906 20.132812 15.285156 19.210938 15.285156 Z M 1.359375 2.886719 L 2.238281 3.234375 C 2.320312 3.261719 2.410156 3.253906 2.488281 3.214844 C 2.566406 3.175781 2.625 3.109375 2.652344 3.03125 C 3.191406 1.828125 4.175781 1.042969 5.285156 0.9375 C 5.695312 0.878906 6.113281 0.855469 6.527344 0.867188 C 8.777344 0.867188 10.609375 3.125 10.609375 5.898438 L 10.609375 7.152344 C 10.300781 7.070312 10.398438 7.105469 5.574219 7.105469 C 5.226562 7.101562 4.886719 7.007812 4.585938 6.835938 C 3.851562 6.367188 3.371094 5.609375 3.269531 4.761719 C 3.210938 4.40625 2.855469 4.300781 2.667969 4.550781 C 2.15625 5.234375 1.800781 6.011719 1.613281 6.832031 C 1.417969 5.527344 1.332031 4.207031 1.359375 2.886719 Z M 2.191406 11 C 2.183594 10.8125 2.035156 10.65625 1.84375 10.636719 L 1.828125 10.636719 C 1.8125 10.636719 1.800781 10.640625 1.785156 10.640625 C 1.1875 10.640625 0.703125 10.042969 0.703125 9.304688 C 0.703125 8.582031 1.171875 7.996094 1.746094 7.972656 L 1.75 7.972656 C 1.777344 7.972656 1.800781 7.972656 1.828125 7.972656 L 1.832031 7.972656 C 2.03125 7.957031 2.183594 7.800781 2.191406 7.609375 C 2.265625 7.039062 2.429688 6.484375 2.679688 5.960938 C 2.714844 5.890625 2.75 5.820312 2.789062 5.75 C 3.273438 7.074219 4.355469 7.972656 5.574219 7.972656 L 10.277344 7.972656 C 10.460938 7.984375 10.632812 8.050781 10.777344 8.15625 C 10.78125 8.160156 10.785156 8.160156 10.789062 8.164062 C 11.132812 8.445312 11.320312 8.867188 11.308594 9.304688 C 11.308594 10.039062 10.820312 10.640625 10.226562 10.640625 C 10.210938 10.640625 10.195312 10.640625 10.179688 10.636719 C 9.980469 10.648438 9.824219 10.804688 9.820312 11 C 9.5 13.347656 7.863281 14.980469 6.003906 14.980469 C 4.132812 14.980469 2.503906 13.332031 2.1875 11 Z M 5.941406 17.203125 C 5.253906 17.160156 4.691406 16.5 4.621094 15.660156 C 4.621094 15.652344 4.621094 15.644531 4.621094 15.640625 C 4.621094 15.621094 4.617188 15.601562 4.617188 15.582031 C 5.511719 15.9375 6.515625 15.933594 7.40625 15.578125 C 7.363281 16.523438 6.707031 17.25 5.941406 17.203125 Z M 9.105469 15.046875 L 8.351562 15.046875 C 8.578125 14.878906 8.785156 14.695312 8.976562 14.496094 C 9.75 13.648438 10.265625 12.605469 10.460938 11.488281 C 11.113281 11.382812 11.65625 10.839844 11.890625 10.105469 C 11.90625 10.328125 11.957031 10.542969 12.035156 10.753906 C 11.160156 11.292969 10.582031 12.417969 10.582031 13.652344 L 10.582031 15.746094 C 10.21875 15.3125 9.679688 15.058594 9.105469 15.046875 Z M 11.285156 15.875 L 11.285156 13.652344 C 11.285156 12.6875 11.765625 11.816406 12.480469 11.457031 C 12.691406 11.675781 12.96875 11.828125 13.277344 11.890625 C 13.355469 12.296875 13.476562 12.695312 13.640625 13.078125 L 13.640625 13.5 C 13.640625 14.8125 12.777344 15.875 11.714844 15.875 L 11.28125 15.875 Z M 21.53125 21.132812 L 13.074219 21.132812 L 13.074219 17.933594 C 13.074219 16.953125 13.71875 16.152344 14.515625 16.152344 L 15.378906 16.152344 C 15.390625 17.433594 16.242188 18.484375 17.296875 18.484375 C 18.339844 18.484375 19.199219 17.449219 19.210938 16.152344 L 20.085938 16.152344 C 20.882812 16.152344 21.53125 16.953125 21.53125 17.933594 Z M 23.296875 15.875 L 22.867188 15.875 C 21.804688 15.875 20.941406 14.8125 20.941406 13.5 L 20.941406 13.078125 C 21.105469 12.695312 21.226562 12.296875 21.304688 11.890625 C 21.59375 11.832031 21.859375 11.691406 22.066406 11.488281 C 22.078125 11.476562 22.089844 11.464844 22.101562 11.457031 C 22.8125 11.816406 23.296875 12.6875 23.296875 13.652344 Z M 23.296875 15.875 "/>
<path style=" stroke:none;fill-rule:nonzero;fill:rgb(0%,0%,0%);fill-opacity:1;" d="M 5.757812 12.914062 C 6.199219 12.914062 6.554688 12.566406 6.558594 12.140625 C 6.554688 12.019531 6.453125 11.929688 6.332031 11.929688 C 6.210938 11.929688 6.109375 12.019531 6.105469 12.140625 C 6.105469 12.324219 5.949219 12.476562 5.757812 12.476562 C 5.5625 12.476562 5.40625 12.324219 5.40625 12.140625 C 5.402344 12.019531 5.304688 11.929688 5.179688 11.929688 C 5.058594 11.929688 4.960938 12.019531 4.957031 12.140625 C 4.957031 12.566406 5.3125 12.914062 5.757812 12.914062 Z M 5.757812 12.914062 "/>
<path style=" stroke:none;fill-rule:nonzero;fill:rgb(0%,0%,0%);fill-opacity:1;" d="M 2.53125 9.171875 C 2.40625 9.171875 2.304688 9.269531 2.304688 9.390625 L 2.304688 9.871094 C 2.304688 9.953125 2.34375 10.027344 2.417969 10.066406 C 2.488281 10.109375 2.574219 10.109375 2.644531 10.066406 C 2.71875 10.027344 2.757812 9.953125 2.757812 9.871094 L 2.757812 9.390625 C 2.757812 9.269531 2.65625 9.171875 2.53125 9.171875 Z M 2.53125 9.171875 "/>
<path style=" stroke:none;fill-rule:nonzero;fill:rgb(0%,0%,0%);fill-opacity:1;" d="M 8.023438 10.089844 C 8.148438 10.089844 8.25 9.992188 8.25 9.871094 L 8.25 9.390625 C 8.246094 9.273438 8.144531 9.179688 8.023438 9.179688 C 7.902344 9.179688 7.800781 9.273438 7.796875 9.390625 L 7.796875 9.871094 C 7.796875 9.992188 7.898438 10.089844 8.023438 10.089844 Z M 8.023438 10.089844 "/>
</g>
</svg>
