<?xml version="1.0" encoding="UTF-8"?>
<svg xmlns="http://www.w3.org/2000/svg" xmlns:xlink="http://www.w3.org/1999/xlink" width="24px" height="px" viewBox="0 0 24 24" version="1.1">
<g id="surface1">
<path style=" stroke:none;fill-rule:nonzero;fill:rgb(0%,0%,0%);fill-opacity:1;" d="M 4.800781 0.832031 C 2.808594 1.660156 2.113281 2.839844 1.921875 5.816406 C 1.800781 7.707031 1.679688 8.167969 1.128906 8.929688 C 0.265625 10.152344 0.265625 11.167969 1.175781 11.976562 L 1.847656 12.601562 L 1.199219 13.339844 C -0.40625 15.207031 -0.382812 17.882812 1.246094 19.914062 L 1.96875 20.816406 L 1.246094 22.175781 L 0.503906 23.539062 L 12.648438 23.539062 L 11.902344 22.175781 L 11.160156 20.792969 L 11.664062 20.261719 C 12.671875 19.222656 13.054688 18.183594 13.054688 16.617188 C 13.054688 15.070312 12.503906 13.617188 11.640625 12.921875 C 11.304688 12.644531 11.328125 12.554688 12 11.976562 C 12.9375 11.144531 12.9375 10.269531 12 8.839844 C 11.328125 7.847656 11.28125 7.59375 11.257812 5.5625 C 11.257812 4.085938 11.113281 2.953125 10.824219 2.191406 C 10.441406 1.128906 10.34375 1.039062 9.574219 1.015625 C 9.121094 0.992188 8.449219 0.855469 8.089844 0.714844 C 7.152344 0.371094 5.808594 0.414062 4.800781 0.832031 Z M 7.753906 1.40625 C 8.617188 1.636719 8.664062 1.683594 8.496094 2.261719 C 8.230469 3.070312 8.257812 4.382812 8.519531 4.9375 C 8.710938 5.332031 8.640625 5.375 7.921875 5.238281 C 7.488281 5.144531 6.769531 4.824219 6.359375 4.5 C 5.542969 3.921875 5.28125 3.945312 5.28125 4.660156 C 5.28125 4.960938 5.039062 5.101562 4.34375 5.214844 C 3.695312 5.308594 3.359375 5.492188 3.289062 5.792969 C 3.097656 6.507812 2.640625 6.300781 2.640625 5.46875 C 2.640625 3.183594 4.34375 1.292969 6.480469 1.175781 C 6.671875 1.152344 7.246094 1.269531 7.753906 1.40625 Z M 10.320312 3.601562 C 10.320312 4.429688 9.742188 4.800781 9.191406 4.339844 C 8.808594 4.039062 8.878906 3.390625 9.359375 2.191406 L 9.648438 1.5 L 9.984375 2.191406 C 10.152344 2.5625 10.296875 3.207031 10.320312 3.601562 Z M 8.160156 6 L 8.878906 6 L 8.878906 7.5 C 8.878906 8.953125 8.855469 8.976562 8.351562 8.792969 C 8.039062 8.675781 7.535156 8.699219 7.175781 8.816406 C 6.816406 8.929688 6.335938 8.929688 5.976562 8.816406 C 5.664062 8.699219 5.160156 8.675781 4.871094 8.792969 C 4.34375 8.976562 4.320312 8.953125 4.320312 7.523438 C 4.320312 6.070312 4.34375 6.023438 5.039062 5.882812 C 5.425781 5.792969 5.808594 5.628906 5.878906 5.515625 C 5.976562 5.398438 6.335938 5.46875 6.71875 5.652344 C 7.105469 5.839844 7.753906 6 8.160156 6 Z M 10.320312 5.769531 C 10.320312 6.070312 10.199219 6.183594 9.960938 6.09375 C 9.769531 6 9.601562 5.816406 9.601562 5.628906 C 9.601562 5.445312 9.769531 5.308594 9.960938 5.308594 C 10.152344 5.308594 10.320312 5.515625 10.320312 5.769531 Z M 3.359375 7.660156 C 3.359375 8.332031 3.3125 8.375 3 8.054688 C 2.785156 7.847656 2.6875 7.523438 2.785156 7.316406 C 3.023438 6.667969 3.359375 6.875 3.359375 7.660156 Z M 10.273438 7.5 C 10.222656 7.824219 10.105469 8.101562 9.960938 8.101562 C 9.839844 8.101562 9.695312 7.824219 9.648438 7.5 C 9.601562 7.085938 9.671875 6.921875 9.960938 6.921875 C 10.246094 6.921875 10.320312 7.085938 10.273438 7.5 Z M 3.046875 8.90625 C 3.695312 9.070312 3.9375 9.96875 3.601562 10.960938 C 3.265625 11.929688 2.710938 12.136719 1.921875 11.585938 C 1.128906 11.007812 1.054688 10.339844 1.703125 9.460938 C 2.304688 8.699219 2.28125 8.722656 3.046875 8.90625 Z M 11.472656 9.53125 C 12.167969 10.546875 12.144531 10.9375 11.28125 11.539062 C 10.367188 12.160156 9.71875 11.863281 9.503906 10.730469 C 9.238281 9.414062 9.527344 8.90625 10.679688 8.792969 C 10.824219 8.792969 11.160156 9.117188 11.472656 9.53125 Z M 6.097656 9.832031 C 6.167969 10.039062 6.238281 12.117188 6.238281 14.445312 C 6.238281 19.109375 6.097656 19.753906 4.921875 20.261719 C 3.574219 20.863281 2.328125 20.375 1.488281 18.96875 C 0.671875 17.5625 0.769531 17.308594 2.039062 17.308594 C 3.191406 17.308594 3.238281 17.375 3.144531 18.761719 C 3.097656 19.199219 3.191406 19.382812 3.457031 19.382812 C 3.886719 19.382812 3.910156 19.316406 4.558594 15.484375 C 5.039062 12.832031 5.039062 12.601562 4.65625 12.207031 C 4.367188 11.882812 4.296875 11.585938 4.441406 10.914062 C 4.535156 10.429688 4.703125 9.898438 4.847656 9.738281 C 5.207031 9.347656 5.929688 9.390625 6.097656 9.832031 Z M 8.304688 9.855469 C 8.375 10.085938 8.542969 10.453125 8.664062 10.660156 C 8.976562 11.261719 8.929688 11.792969 8.496094 12.253906 C 8.136719 12.625 8.160156 12.945312 8.6875 15.96875 C 9.167969 18.738281 9.3125 19.269531 9.695312 19.339844 C 10.078125 19.40625 10.128906 19.339844 9.984375 18.808594 C 9.695312 17.675781 9.984375 17.308594 11.183594 17.308594 C 11.761719 17.308594 12.238281 17.421875 12.238281 17.539062 C 12.238281 18.136719 11.519531 19.339844 10.824219 19.914062 C 9.984375 20.585938 9.265625 20.699219 8.28125 20.261719 C 7.105469 19.753906 6.960938 19.109375 6.960938 14.238281 C 6.960938 11.792969 7.03125 9.691406 7.128906 9.625 C 7.441406 9.324219 8.183594 9.460938 8.304688 9.855469 Z M 3.910156 14.054688 C 3.839844 15.761719 3.503906 16.546875 3.265625 15.601562 C 3.191406 15.277344 2.953125 15 2.734375 15 C 2.449219 15 2.398438 15.160156 2.519531 15.691406 C 2.664062 16.382812 2.664062 16.382812 1.703125 16.382812 C 0.742188 16.382812 0.71875 16.363281 0.863281 15.738281 C 1.175781 14.539062 1.894531 13.5 2.878906 12.855469 C 3.769531 12.253906 3.960938 12.484375 3.910156 14.054688 Z M 10.703125 13.199219 C 11.617188 13.960938 12.238281 15.09375 12.238281 15.921875 C 12.238281 16.292969 12.097656 16.382812 11.375 16.382812 C 10.535156 16.382812 10.511719 16.363281 10.65625 15.691406 C 10.753906 15.160156 10.703125 15 10.414062 15 C 10.199219 15 9.984375 15.207031 9.910156 15.460938 C 9.671875 16.292969 9.433594 15.945312 9.214844 14.421875 C 8.976562 12.992188 9.097656 12.460938 9.648438 12.460938 C 9.742188 12.460938 10.222656 12.808594 10.703125 13.199219 Z M 9.359375 21.230469 C 10.441406 21.230469 10.585938 21.300781 10.921875 21.921875 C 11.113281 22.292969 11.28125 22.636719 11.28125 22.730469 C 11.28125 22.800781 9.167969 22.847656 6.601562 22.847656 C 4.03125 22.847656 1.921875 22.800781 1.921875 22.730469 C 1.921875 22.636719 2.089844 22.292969 2.28125 21.921875 C 2.617188 21.300781 2.761719 21.230469 3.839844 21.230469 C 4.824219 21.230469 5.183594 21.117188 5.808594 20.5625 L 6.601562 19.890625 L 7.390625 20.5625 C 8.039062 21.117188 8.398438 21.230469 9.359375 21.230469 Z M 9.359375 21.230469 "/>
<path style=" stroke:none;fill-rule:nonzero;fill:rgb(0%,0%,0%);fill-opacity:1;" d="M 5.039062 6.808594 C 5.039062 6.992188 5.207031 7.152344 5.398438 7.152344 C 5.59375 7.152344 5.761719 6.992188 5.761719 6.808594 C 5.761719 6.625 5.59375 6.460938 5.398438 6.460938 C 5.207031 6.460938 5.039062 6.625 5.039062 6.808594 Z M 5.039062 6.808594 "/>
<path style=" stroke:none;fill-rule:nonzero;fill:rgb(0%,0%,0%);fill-opacity:1;" d="M 7.441406 6.832031 C 7.441406 7.039062 7.558594 7.152344 7.726562 7.109375 C 8.160156 6.96875 8.230469 6.460938 7.824219 6.460938 C 7.609375 6.460938 7.441406 6.625 7.441406 6.832031 Z M 7.441406 6.832031 "/>
<path style=" stroke:none;fill-rule:nonzero;fill:rgb(0%,0%,0%);fill-opacity:1;" d="M 13.105469 1.636719 C 12.382812 2.191406 12.3125 2.863281 12.742188 5.285156 C 13.105469 7.246094 13.632812 7.847656 15.046875 7.847656 C 15.910156 7.847656 16.128906 7.9375 16.296875 8.375 C 16.800781 9.644531 17.566406 9.691406 19.078125 8.539062 C 19.800781 7.984375 20.230469 7.847656 21.121094 7.847656 C 22.871094 7.847656 23.230469 7.429688 23.6875 4.914062 C 24.144531 2.515625 23.976562 1.777344 22.894531 1.382812 C 22.558594 1.246094 20.375 1.152344 18.023438 1.152344 C 14.0625 1.152344 13.703125 1.199219 13.105469 1.636719 Z M 23.015625 2.398438 C 23.230469 2.628906 23.230469 3.136719 23.015625 4.40625 C 22.632812 6.832031 22.367188 7.152344 20.855469 7.152344 C 19.847656 7.152344 19.464844 7.292969 18.71875 7.847656 C 18.214844 8.214844 17.640625 8.539062 17.425781 8.539062 C 17.160156 8.539062 17.039062 8.332031 17.039062 7.847656 C 17.039062 7.152344 17.015625 7.152344 15.742188 7.152344 C 14.929688 7.152344 14.304688 7.039062 14.089844 6.832031 C 13.679688 6.4375 13.105469 3.207031 13.320312 2.539062 C 13.464844 2.101562 13.679688 2.078125 18.097656 2.078125 C 21.769531 2.078125 22.800781 2.144531 23.015625 2.398438 Z M 23.015625 2.398438 "/>
<path style=" stroke:none;fill-rule:nonzero;fill:rgb(0%,0%,0%);fill-opacity:1;" d="M 14.640625 3.808594 C 14.640625 4.683594 14.710938 4.847656 15.121094 4.847656 C 15.527344 4.847656 15.601562 4.683594 15.601562 3.808594 C 15.601562 2.929688 15.527344 2.769531 15.121094 2.769531 C 14.710938 2.769531 14.640625 2.929688 14.640625 3.808594 Z M 14.640625 3.808594 "/>
<path style=" stroke:none;fill-rule:nonzero;fill:rgb(0%,0%,0%);fill-opacity:1;" d="M 16.320312 3.808594 C 16.320312 4.570312 16.414062 4.847656 16.679688 4.847656 C 16.945312 4.847656 17.039062 4.570312 17.039062 3.808594 C 17.039062 3.046875 16.945312 2.769531 16.679688 2.769531 C 16.414062 2.769531 16.320312 3.046875 16.320312 3.808594 Z M 16.320312 3.808594 "/>
<path style=" stroke:none;fill-rule:nonzero;fill:rgb(0%,0%,0%);fill-opacity:1;" d="M 17.761719 3.808594 C 17.761719 4.570312 17.855469 4.847656 18.121094 4.847656 C 18.382812 4.847656 18.480469 4.570312 18.480469 3.808594 C 18.480469 3.046875 18.382812 2.769531 18.121094 2.769531 C 17.855469 2.769531 17.761719 3.046875 17.761719 3.808594 Z M 17.761719 3.808594 "/>
<path style=" stroke:none;fill-rule:nonzero;fill:rgb(0%,0%,0%);fill-opacity:1;" d="M 19.441406 3.808594 C 19.441406 4.570312 19.535156 4.847656 19.800781 4.847656 C 20.0625 4.847656 20.160156 4.570312 20.160156 3.808594 C 20.160156 3.046875 20.0625 2.769531 19.800781 2.769531 C 19.535156 2.769531 19.441406 3.046875 19.441406 3.808594 Z M 19.441406 3.808594 "/>
<path style=" stroke:none;fill-rule:nonzero;fill:rgb(0%,0%,0%);fill-opacity:1;" d="M 20.878906 3.808594 C 20.878906 4.570312 20.976562 4.847656 21.238281 4.847656 C 21.503906 4.847656 21.601562 4.570312 21.601562 3.808594 C 21.601562 3.046875 21.503906 2.769531 21.238281 2.769531 C 20.976562 2.769531 20.878906 3.046875 20.878906 3.808594 Z M 20.878906 3.808594 "/>
<path style=" stroke:none;fill-rule:nonzero;fill:rgb(0%,0%,0%);fill-opacity:1;" d="M 14.6875 6.046875 C 14.832031 6.460938 15.359375 6.53125 15.359375 6.136719 C 15.359375 5.929688 15.191406 5.769531 14.976562 5.769531 C 14.761719 5.769531 14.640625 5.882812 14.6875 6.046875 Z M 14.6875 6.046875 "/>
<path style=" stroke:none;fill-rule:nonzero;fill:rgb(0%,0%,0%);fill-opacity:1;" d="M 16.320312 6.136719 C 16.320312 6.347656 16.441406 6.460938 16.609375 6.414062 C 17.039062 6.277344 17.113281 5.769531 16.703125 5.769531 C 16.488281 5.769531 16.320312 5.929688 16.320312 6.136719 Z M 16.320312 6.136719 "/>
<path style=" stroke:none;fill-rule:nonzero;fill:rgb(0%,0%,0%);fill-opacity:1;" d="M 17.808594 6.046875 C 17.953125 6.460938 18.480469 6.53125 18.480469 6.136719 C 18.480469 5.929688 18.3125 5.769531 18.097656 5.769531 C 17.878906 5.769531 17.761719 5.882812 17.808594 6.046875 Z M 17.808594 6.046875 "/>
<path style=" stroke:none;fill-rule:nonzero;fill:rgb(0%,0%,0%);fill-opacity:1;" d="M 19.441406 6.136719 C 19.441406 6.347656 19.558594 6.460938 19.726562 6.414062 C 20.160156 6.277344 20.230469 5.769531 19.824219 5.769531 C 19.609375 5.769531 19.441406 5.929688 19.441406 6.136719 Z M 19.441406 6.136719 "/>
<path style=" stroke:none;fill-rule:nonzero;fill:rgb(0%,0%,0%);fill-opacity:1;" d="M 20.929688 6.046875 C 21.070312 6.460938 21.601562 6.53125 21.601562 6.136719 C 21.601562 5.929688 21.433594 5.769531 21.214844 5.769531 C 21 5.769531 20.878906 5.882812 20.929688 6.046875 Z M 20.929688 6.046875 "/>
<path style=" stroke:none;fill-rule:nonzero;fill:rgb(0%,0%,0%);fill-opacity:1;" d="M 14.519531 10.730469 C 14.183594 11.03125 13.921875 11.46875 13.921875 11.722656 C 13.921875 12.136719 14.28125 14.308594 14.542969 15.414062 C 14.734375 16.316406 15.503906 16.847656 16.632812 16.847656 C 17.542969 16.847656 17.6875 16.914062 17.929688 17.539062 C 18.144531 18.09375 18.335938 18.230469 18.910156 18.230469 C 19.464844 18.230469 19.777344 18.046875 20.160156 17.539062 C 20.542969 17.007812 20.855469 16.847656 21.480469 16.847656 C 22.800781 16.847656 23.230469 16.292969 23.640625 14.078125 C 24.121094 11.515625 24.097656 11.375 23.398438 10.730469 C 22.824219 10.175781 22.753906 10.152344 18.960938 10.152344 C 15.167969 10.152344 15.097656 10.175781 14.519531 10.730469 Z M 22.871094 11.261719 C 23.230469 11.652344 23.230469 11.863281 22.921875 13.636719 C 22.535156 15.738281 22.222656 16.152344 21.023438 16.152344 C 20.519531 16.152344 20.136719 16.363281 19.679688 16.890625 C 18.984375 17.699219 18.480469 17.628906 18.480469 16.707031 C 18.480469 16.199219 18.382812 16.152344 17.328125 16.152344 C 15.671875 16.152344 15.40625 15.875 15 13.636719 C 14.496094 10.824219 14.472656 10.847656 18.960938 10.847656 C 22.054688 10.847656 22.535156 10.890625 22.871094 11.261719 Z M 22.871094 11.261719 "/>
<path style=" stroke:none;fill-rule:nonzero;fill:rgb(0%,0%,0%);fill-opacity:1;" d="M 16.320312 12 C 16.320312 12.4375 16.488281 12.460938 18.960938 12.460938 C 21.433594 12.460938 21.601562 12.4375 21.601562 12 C 21.601562 11.5625 21.433594 11.539062 18.960938 11.539062 C 16.488281 11.539062 16.320312 11.5625 16.320312 12 Z M 16.320312 12 "/>
<path style=" stroke:none;fill-rule:nonzero;fill:rgb(0%,0%,0%);fill-opacity:1;" d="M 16.320312 13.5 C 16.320312 13.777344 16.777344 13.847656 18.960938 13.847656 C 21.144531 13.847656 21.601562 13.777344 21.601562 13.5 C 21.601562 13.222656 21.144531 13.152344 18.960938 13.152344 C 16.777344 13.152344 16.320312 13.222656 16.320312 13.5 Z M 16.320312 13.5 "/>
<path style=" stroke:none;fill-rule:nonzero;fill:rgb(0%,0%,0%);fill-opacity:1;" d="M 16.320312 15 C 16.320312 15.253906 16.488281 15.460938 16.679688 15.460938 C 16.871094 15.460938 17.039062 15.253906 17.039062 15 C 17.039062 14.746094 16.871094 14.539062 16.679688 14.539062 C 16.488281 14.539062 16.320312 14.746094 16.320312 15 Z M 16.320312 15 "/>
<path style=" stroke:none;fill-rule:nonzero;fill:rgb(0%,0%,0%);fill-opacity:1;" d="M 17.808594 14.929688 C 17.929688 15.507812 18.480469 15.578125 18.480469 15.023438 C 18.480469 14.746094 18.335938 14.539062 18.097656 14.539062 C 17.878906 14.539062 17.761719 14.699219 17.808594 14.929688 Z M 17.808594 14.929688 "/>
<path style=" stroke:none;fill-rule:nonzero;fill:rgb(0%,0%,0%);fill-opacity:1;" d="M 19.441406 15.023438 C 19.441406 15.578125 19.992188 15.507812 20.113281 14.929688 C 20.160156 14.699219 20.039062 14.539062 19.824219 14.539062 C 19.585938 14.539062 19.441406 14.746094 19.441406 15.023438 Z M 19.441406 15.023438 "/>
<path style=" stroke:none;fill-rule:nonzero;fill:rgb(0%,0%,0%);fill-opacity:1;" d="M 20.878906 15 C 20.878906 15.253906 21.046875 15.460938 21.238281 15.460938 C 21.433594 15.460938 21.601562 15.253906 21.601562 15 C 21.601562 14.746094 21.433594 14.539062 21.238281 14.539062 C 21.046875 14.539062 20.878906 14.746094 20.878906 15 Z M 20.878906 15 "/>
</g>
</svg>
