<?xml version="1.0" encoding="UTF-8"?>
<svg xmlns="http://www.w3.org/2000/svg" xmlns:xlink="http://www.w3.org/1999/xlink" width="24px" height="25px" viewBox="0 0 24 22" version="1.1">
<g id="surface1">
<path style=" stroke:none;fill-rule:nonzero;fill:rgb(0%,0%,0%);fill-opacity:1;" d="M 9.886719 4.238281 C 9.761719 4.238281 9.660156 4.335938 9.660156 4.457031 L 9.660156 4.632812 C 9.65625 4.761719 9.757812 4.875 9.894531 4.882812 C 10.03125 4.890625 10.148438 4.792969 10.160156 4.660156 L 10.160156 4.492188 C 10.136719 4.359375 10.023438 4.253906 9.886719 4.238281 Z M 9.886719 4.238281 "/>
<path style=" stroke:none;fill-rule:nonzero;fill:rgb(0%,0%,0%);fill-opacity:1;" d="M 21.753906 16.582031 C 21.753906 16.578125 21.753906 16.574219 21.753906 16.570312 L 21.925781 15.917969 C 22.234375 14.804688 22.839844 13.792969 23.683594 12.980469 C 23.890625 12.796875 24.003906 12.535156 24 12.265625 C 23.996094 11.996094 23.871094 11.742188 23.65625 11.566406 L 21.789062 9.820312 C 21.222656 9.292969 20.195312 9.113281 19.339844 9.402344 C 18.519531 9.671875 17.652344 9.789062 16.785156 9.75 C 16.53125 9.738281 16.308594 9.875 16.292969 10.054688 C 16.277344 10.230469 16.472656 10.386719 16.730469 10.394531 C 17.75 10.441406 18.773438 10.300781 19.742188 9.984375 C 20.1875 9.832031 20.683594 9.914062 21.046875 10.207031 L 22.914062 11.953125 C 23.011719 12.035156 23.070312 12.152344 23.070312 12.277344 C 23.074219 12.402344 23.019531 12.523438 22.925781 12.605469 C 22.007812 13.492188 21.347656 14.59375 21.011719 15.800781 L 20.855469 16.398438 C 20.707031 16.378906 20.566406 16.3125 20.453125 16.210938 C 20.339844 16.121094 20.289062 15.976562 20.316406 15.839844 L 20.546875 14.730469 C 20.589844 14.453125 20.449219 14.175781 20.191406 14.042969 C 19.882812 13.867188 19.519531 13.804688 19.167969 13.875 L 19.160156 13.875 C 19.023438 13.898438 18.894531 13.941406 18.773438 14.003906 L 14.632812 16.15625 C 14.570312 16.1875 14.5 16.199219 14.429688 16.191406 C 14.363281 16.1875 14.300781 16.160156 14.25 16.117188 C 14.207031 16.082031 14.1875 16.027344 14.199219 15.976562 C 14.214844 15.917969 14.253906 15.871094 14.304688 15.847656 L 17.328125 14.273438 C 17.457031 14.230469 17.554688 14.125 17.582031 13.992188 C 17.605469 13.863281 17.5625 13.730469 17.460938 13.640625 C 17.25 13.46875 16.960938 13.414062 16.695312 13.492188 L 12.703125 14.617188 C 12.574219 14.65625 12.433594 14.617188 12.347656 14.511719 C 12.320312 14.46875 12.320312 14.410156 12.347656 14.363281 C 12.382812 14.3125 12.4375 14.273438 12.5 14.261719 L 16.308594 13.1875 C 16.625 13.101562 16.796875 12.863281 16.710938 12.632812 C 16.570312 12.378906 16.28125 12.238281 15.988281 12.285156 L 12.597656 12.527344 C 12.46875 12.550781 12.34375 12.480469 12.296875 12.359375 C 12.289062 12.304688 12.3125 12.25 12.355469 12.21875 C 12.40625 12.175781 12.472656 12.148438 12.542969 12.144531 L 16.109375 11.890625 C 16.355469 11.882812 16.585938 11.765625 16.734375 11.578125 C 16.832031 11.4375 16.832031 11.253906 16.730469 11.113281 C 16.605469 10.957031 16.417969 10.851562 16.214844 10.824219 L 13.957031 10.4375 C 13.839844 10.417969 13.761719 10.339844 13.777344 10.257812 C 13.789062 10.207031 13.824219 10.167969 13.871094 10.144531 C 13.925781 10.117188 13.988281 10.105469 14.050781 10.113281 L 14.519531 10.167969 C 14.742188 10.214844 14.964844 10.101562 15.050781 9.898438 C 15.09375 9.722656 14.921875 9.558594 14.667969 9.53125 L 14.199219 9.476562 C 14.167969 9.472656 14.136719 9.472656 14.105469 9.46875 L 14.105469 8.707031 C 14.621094 8.53125 15.109375 8.285156 15.554688 7.976562 C 16.289062 7.5 16.820312 6.777344 17.039062 5.945312 L 17.097656 5.945312 C 18.0625 5.945312 18.84375 5.398438 18.84375 4.726562 C 18.84375 4.054688 18.0625 3.507812 17.097656 3.507812 L 17.089844 3.507812 C 17.039062 2.644531 16.617188 1.835938 15.925781 1.28125 C 15.09375 0.601562 14.082031 0.160156 13.003906 0.0078125 C 12.78125 -0.046875 12.550781 0.0546875 12.445312 0.25 C 12.390625 0.425781 12.546875 0.597656 12.796875 0.640625 C 14.78125 0.953125 16.164062 2.164062 16.164062 3.585938 L 16.164062 5.457031 C 16.164062 7.042969 14.140625 8.433594 11.828125 8.433594 C 9.519531 8.433594 7.496094 7.042969 7.496094 5.453125 L 7.496094 3.585938 C 7.496094 2.183594 8.863281 0.972656 10.816406 0.648438 C 11.066406 0.605469 11.21875 0.433594 11.160156 0.257812 C 11.054688 0.0625 10.824219 -0.0351562 10.601562 0.0195312 C 8.261719 0.410156 6.617188 1.839844 6.570312 3.511719 L 6.558594 3.511719 C 5.597656 3.511719 4.8125 4.058594 4.8125 4.730469 C 4.8125 5.398438 5.597656 5.945312 6.558594 5.945312 L 6.621094 5.945312 C 6.839844 6.777344 7.367188 7.5 8.105469 7.976562 C 8.550781 8.285156 9.039062 8.535156 9.554688 8.710938 L 9.554688 9.691406 L 6.292969 10.421875 C 4.566406 10.808594 3.316406 11.871094 3.109375 13.128906 L 2.96875 13.988281 C 2.636719 14.046875 2.304688 14.09375 1.972656 14.132812 C 1.296875 14.203125 0.75 14.546875 0.570312 15.007812 C 0.503906 15.179688 0.648438 15.359375 0.898438 15.40625 C 1.117188 15.460938 1.351562 15.367188 1.464844 15.175781 C 1.589844 14.9375 1.839844 14.78125 2.113281 14.769531 C 3.71875 14.605469 5.28125 14.179688 6.742188 13.515625 L 7.464844 13.175781 C 7.546875 13.265625 7.582031 13.390625 7.554688 13.511719 C 7.511719 13.65625 7.402344 13.773438 7.261719 13.835938 L 5.957031 14.492188 C 5.679688 14.601562 5.5 14.859375 5.496094 15.144531 C 5.535156 15.4375 5.742188 15.683594 6.027344 15.777344 L 6.035156 15.78125 C 6.164062 15.835938 6.300781 15.871094 6.4375 15.886719 L 11.53125 16.46875 C 11.679688 16.488281 11.78125 16.585938 11.757812 16.691406 C 11.742188 16.746094 11.699219 16.792969 11.644531 16.816406 C 11.582031 16.84375 11.511719 16.855469 11.441406 16.847656 L 7.722656 16.421875 C 7.554688 16.402344 7.386719 16.429688 7.238281 16.5 C 7.109375 16.554688 7.011719 16.664062 6.972656 16.796875 C 6.925781 17 7.082031 17.199219 7.351562 17.28125 L 11.285156 18.507812 C 11.417969 18.550781 11.480469 18.660156 11.425781 18.757812 C 11.390625 18.808594 11.335938 18.847656 11.273438 18.859375 C 11.203125 18.878906 11.128906 18.878906 11.058594 18.855469 L 7.308594 17.6875 C 7.011719 17.589844 6.683594 17.660156 6.457031 17.871094 C 6.375 17.964844 6.34375 18.089844 6.371094 18.207031 C 6.398438 18.328125 6.480469 18.425781 6.597656 18.476562 L 9.199219 20.011719 C 9.253906 20.03125 9.289062 20.078125 9.296875 20.132812 C 9.304688 20.1875 9.28125 20.242188 9.234375 20.277344 C 9.183594 20.320312 9.117188 20.34375 9.046875 20.347656 C 8.976562 20.351562 8.90625 20.335938 8.847656 20.304688 L 6.105469 18.691406 C 5.875 18.5625 5.605469 18.53125 5.347656 18.59375 C 5.148438 18.628906 4.976562 18.75 4.875 18.917969 C 4.792969 19.066406 4.816406 19.25 4.933594 19.375 L 6.101562 20.777344 C 6.128906 20.8125 6.140625 20.859375 6.128906 20.902344 C 6.117188 20.945312 6.082031 20.976562 6.039062 20.992188 C 5.984375 21.019531 5.921875 21.03125 5.859375 21.023438 C 5.800781 21.019531 5.746094 20.996094 5.703125 20.953125 L 4.503906 19.75 C 3.707031 18.988281 2.707031 18.449219 1.617188 18.1875 C 1.144531 18.066406 0.859375 17.726562 0.941406 17.378906 L 1.117188 16.636719 C 1.15625 16.460938 0.988281 16.296875 0.734375 16.265625 C 0.511719 16.21875 0.289062 16.332031 0.199219 16.53125 L 0.0273438 17.273438 C -0.128906 17.925781 0.40625 18.566406 1.292969 18.796875 C 1.578125 18.867188 1.859375 18.960938 2.128906 19.074219 L 1.707031 21.640625 C 1.679688 21.816406 1.859375 21.976562 2.113281 22 C 2.132812 22 2.152344 22 2.167969 22 C 2.371094 22.023438 2.5625 21.902344 2.628906 21.714844 L 2.988281 19.519531 C 3.261719 19.691406 3.515625 19.894531 3.742188 20.121094 L 4.941406 21.324219 C 5.152344 21.519531 5.421875 21.636719 5.710938 21.664062 C 5.773438 21.667969 5.839844 21.671875 5.902344 21.671875 C 6.144531 21.675781 6.382812 21.621094 6.597656 21.511719 C 7.070312 21.265625 7.203125 20.808594 6.90625 20.453125 L 6.175781 19.578125 L 8.25 20.796875 C 8.515625 20.945312 8.824219 21.015625 9.132812 20.992188 C 9.433594 20.976562 9.722656 20.871094 9.953125 20.6875 C 10.367188 20.335938 10.300781 19.808594 9.800781 19.515625 L 8.5625 18.785156 L 10.679688 19.445312 C 10.980469 19.539062 11.304688 19.542969 11.609375 19.460938 C 11.882812 19.398438 12.121094 19.238281 12.277344 19.011719 C 12.535156 18.59375 12.257812 18.101562 11.660156 17.917969 L 9.695312 17.304688 L 11.292969 17.488281 C 11.597656 17.523438 11.910156 17.472656 12.1875 17.339844 C 12.425781 17.238281 12.601562 17.039062 12.671875 16.796875 C 12.78125 16.339844 12.335938 15.90625 11.683594 15.832031 L 6.589844 15.246094 C 6.566406 15.246094 6.542969 15.238281 6.523438 15.230469 L 6.511719 15.226562 C 6.460938 15.210938 6.429688 15.171875 6.421875 15.121094 C 6.421875 15.074219 6.453125 15.03125 6.496094 15.015625 L 7.800781 14.363281 C 8.128906 14.222656 8.371094 13.949219 8.46875 13.613281 C 8.535156 13.300781 8.425781 12.972656 8.179688 12.757812 C 7.863281 12.492188 7.414062 12.433594 7.03125 12.601562 L 7.019531 12.605469 L 6.226562 12.972656 C 5.492188 13.3125 4.722656 13.582031 3.933594 13.78125 L 4.03125 13.203125 C 4.195312 12.199219 5.195312 11.347656 6.578125 11.035156 L 9.558594 10.367188 L 9.558594 10.453125 C 9.558594 10.632812 9.765625 10.777344 10.019531 10.777344 C 10.277344 10.777344 10.484375 10.632812 10.484375 10.453125 L 10.484375 8.953125 C 11.375 9.125 12.289062 9.125 13.175781 8.953125 L 13.175781 9.714844 C 13.011719 9.824219 12.894531 9.988281 12.855469 10.175781 C 12.78125 10.585938 13.160156 10.96875 13.734375 11.066406 L 15.144531 11.308594 L 12.445312 11.503906 C 12.148438 11.519531 11.859375 11.625 11.632812 11.8125 C 11.441406 11.964844 11.34375 12.199219 11.375 12.433594 C 11.453125 12.886719 12.042969 13.214844 12.691406 13.171875 L 14.300781 13.054688 L 12.148438 13.660156 C 11.875 13.722656 11.640625 13.886719 11.488281 14.117188 C 11.363281 14.316406 11.363281 14.566406 11.492188 14.765625 C 11.746094 15.183594 12.445312 15.386719 13.046875 15.214844 L 15.046875 14.652344 L 13.75 15.328125 C 13.515625 15.433594 13.34375 15.636719 13.28125 15.878906 C 13.238281 16.109375 13.324219 16.347656 13.507812 16.5 C 13.726562 16.691406 14.003906 16.808594 14.300781 16.828125 C 14.605469 16.863281 14.917969 16.808594 15.191406 16.671875 L 19.328125 14.519531 C 19.347656 14.507812 19.371094 14.503906 19.390625 14.5 L 19.398438 14.5 L 19.40625 14.496094 C 19.464844 14.484375 19.523438 14.496094 19.574219 14.523438 C 19.617188 14.546875 19.640625 14.589844 19.632812 14.636719 L 19.402344 15.742188 C 19.339844 16.0625 19.460938 16.386719 19.710938 16.597656 C 19.863281 16.738281 20.046875 16.847656 20.246094 16.921875 L 21.035156 21.710938 C 21.097656 21.902344 21.289062 22.019531 21.496094 22 C 21.511719 22 21.53125 22 21.546875 21.996094 C 21.800781 21.976562 21.984375 21.816406 21.957031 21.640625 L 21.195312 17.023438 C 21.449219 16.980469 21.660156 16.8125 21.753906 16.578125 Z M 17.917969 4.726562 C 17.917969 5.042969 17.550781 5.296875 17.101562 5.296875 L 17.09375 5.296875 L 17.09375 4.15625 L 17.101562 4.15625 C 17.550781 4.15625 17.917969 4.414062 17.917969 4.726562 Z M 5.742188 4.726562 C 5.742188 4.414062 6.109375 4.15625 6.5625 4.15625 L 6.566406 4.15625 L 6.566406 5.296875 L 6.5625 5.296875 C 6.109375 5.296875 5.742188 5.042969 5.742188 4.726562 Z M 5.742188 4.726562 "/>
<path style=" stroke:none;fill-rule:nonzero;fill:rgb(0%,0%,0%);fill-opacity:1;" d="M 13.859375 4.832031 C 13.941406 4.796875 13.992188 4.71875 13.992188 4.632812 L 13.992188 4.457031 C 13.964844 4.335938 13.851562 4.253906 13.726562 4.265625 C 13.601562 4.273438 13.5 4.371094 13.492188 4.492188 L 13.492188 4.660156 C 13.492188 4.742188 13.542969 4.820312 13.621094 4.855469 C 13.699219 4.894531 13.789062 4.882812 13.859375 4.832031 Z M 13.859375 4.832031 "/>
</g>
</svg>
