<?xml version="1.0" encoding="UTF-8"?>
<svg xmlns="http://www.w3.org/2000/svg" xmlns:xlink="http://www.w3.org/1999/xlink" width="24px" height="25px" viewBox="0 0 24 22" version="1.1">
<g id="surface1">
<path style=" stroke:none;fill-rule:nonzero;fill:rgb(0%,0%,0%);fill-opacity:1;" d="M 23.765625 12.78125 C 23.292969 11.039062 22.179688 9.523438 20.636719 8.511719 C 19.132812 7.519531 17.339844 7.023438 15.523438 7.09375 C 14.65625 5.421875 13.183594 4.109375 11.382812 3.414062 C 11.207031 3.339844 11 3.414062 10.914062 3.582031 C 10.878906 3.660156 10.878906 3.753906 10.914062 3.835938 C 10.949219 3.914062 11.015625 3.980469 11.101562 4.011719 C 12.8125 4.671875 14.199219 5.945312 14.96875 7.5625 C 15.132812 7.910156 15.265625 8.273438 15.367188 8.644531 C 15.390625 8.742188 15.414062 8.839844 15.441406 8.949219 C 15.796875 10.621094 15.457031 12.359375 14.496094 13.789062 C 13.5625 15.175781 12.160156 16.203125 10.523438 16.695312 C 10.496094 16.632812 10.464844 16.570312 10.441406 16.507812 C 10.386719 16.386719 10.339844 16.261719 10.296875 16.136719 L 10.285156 16.105469 C 10.265625 16.046875 10.25 15.988281 10.230469 15.925781 L 10.230469 15.921875 C 13.339844 14.964844 15.222656 12 14.542969 9.03125 C 14.527344 8.957031 14.511719 8.894531 14.496094 8.835938 C 14.378906 8.390625 14.203125 7.960938 13.980469 7.554688 L 13.976562 7.546875 C 13.292969 6.339844 12.21875 5.386719 10.917969 4.835938 C 10.285156 4.566406 9.613281 4.386719 8.921875 4.3125 L 11.453125 2.160156 C 11.582031 2.054688 11.605469 1.875 11.507812 1.742188 L 11.503906 1.738281 L 10.335938 0.144531 C 10.265625 0.0507812 10.15625 0 10.039062 0 L 6.25 0 C 6.132812 0 6.019531 0.0507812 5.953125 0.144531 L 4.78125 1.742188 C 4.683594 1.875 4.707031 2.054688 4.835938 2.160156 L 7.363281 4.3125 C 7.105469 4.34375 6.851562 4.382812 6.597656 4.441406 C 3.097656 5.222656 0.941406 8.464844 1.792969 11.667969 C 2.160156 13.011719 3 14.1875 4.164062 15 C 5.261719 15.761719 6.570312 16.191406 7.921875 16.234375 C 7.925781 16.257812 7.933594 16.285156 7.941406 16.308594 C 7.957031 16.371094 7.972656 16.429688 7.992188 16.488281 C 7.996094 16.5 8 16.515625 8.003906 16.527344 C 8.015625 16.578125 8.03125 16.625 8.046875 16.667969 L 8.058594 16.707031 C 8.074219 16.757812 8.09375 16.808594 8.109375 16.855469 L 8.121094 16.882812 C 8.140625 16.941406 8.164062 17 8.183594 17.058594 C 6.621094 17.066406 5.089844 16.617188 3.792969 15.769531 C 2.378906 14.847656 1.355469 13.457031 0.921875 11.863281 C 0.503906 10.292969 0.710938 8.625 1.503906 7.195312 C 2.3125 5.75 3.613281 4.625 5.1875 4.011719 C 5.273438 3.980469 5.339844 3.917969 5.375 3.835938 C 5.410156 3.753906 5.410156 3.664062 5.371094 3.582031 C 5.289062 3.414062 5.082031 3.339844 4.902344 3.414062 C 3.179688 4.085938 1.753906 5.320312 0.867188 6.902344 C 0 8.46875 -0.226562 10.296875 0.230469 12.015625 C 0.707031 13.765625 1.824219 15.285156 3.375 16.296875 C 4.78125 17.21875 6.441406 17.710938 8.140625 17.707031 C 8.253906 17.707031 8.363281 17.707031 8.472656 17.703125 C 9.8125 20.320312 12.710938 22 15.855469 22 C 16.503906 22 17.148438 21.929688 17.78125 21.789062 C 22.144531 20.8125 24.832031 16.773438 23.765625 12.78125 Z M 15.101562 14.125 C 16.078125 12.675781 16.46875 10.933594 16.210938 9.222656 C 17.371094 9.289062 18.484375 9.671875 19.425781 10.332031 C 20.457031 11.050781 21.195312 12.09375 21.511719 13.28125 C 22.273438 16.140625 20.351562 19.027344 17.230469 19.722656 C 15.734375 20.0625 14.160156 19.839844 12.828125 19.097656 C 12.027344 18.65625 11.347656 18.035156 10.855469 17.28125 C 12.601562 16.730469 14.101562 15.617188 15.101562 14.125 Z M 10.085938 15.277344 C 9.902344 14.085938 10.167969 12.867188 10.832031 11.84375 C 11.546875 10.746094 12.636719 9.921875 13.914062 9.519531 C 14.292969 12.015625 12.683594 14.4375 10.085938 15.277344 Z M 6.4375 0.652344 L 9.847656 0.652344 L 10.542969 1.59375 L 5.746094 1.59375 Z M 5.980469 2.246094 L 10.308594 2.246094 L 8.144531 4.085938 Z M 7.789062 15.574219 C 6.636719 15.507812 5.53125 15.128906 4.597656 14.480469 C 3.554688 13.761719 2.808594 12.710938 2.488281 11.515625 C 1.726562 8.660156 3.644531 5.769531 6.765625 5.074219 C 8.054688 4.78125 9.40625 4.90625 10.617188 5.425781 C 11.652344 5.867188 12.53125 6.59375 13.140625 7.515625 C 11.339844 8.082031 9.804688 9.25 8.804688 10.808594 C 7.894531 12.230469 7.535156 13.917969 7.789062 15.574219 Z M 17.613281 21.152344 C 17.035156 21.28125 16.445312 21.347656 15.855469 21.347656 C 12.898438 21.347656 10.171875 19.71875 9.007812 17.195312 C 8.996094 17.167969 8.984375 17.140625 8.972656 17.113281 L 8.957031 17.078125 C 8.941406 17.042969 8.925781 17.007812 8.910156 16.972656 L 8.90625 16.957031 C 8.890625 16.917969 8.871094 16.878906 8.855469 16.835938 L 8.855469 16.832031 C 8.835938 16.789062 8.820312 16.746094 8.804688 16.703125 C 8.789062 16.65625 8.773438 16.613281 8.757812 16.566406 L 8.753906 16.558594 C 8.738281 16.515625 8.726562 16.472656 8.714844 16.433594 C 8.710938 16.417969 8.703125 16.40625 8.699219 16.390625 C 8.691406 16.359375 8.679688 16.328125 8.671875 16.296875 C 8.65625 16.25 8.644531 16.203125 8.632812 16.15625 C 8.621094 16.109375 8.609375 16.058594 8.597656 16.011719 C 8.59375 15.992188 8.585938 15.972656 8.582031 15.957031 C 8.578125 15.9375 8.574219 15.914062 8.570312 15.890625 C 8.566406 15.875 8.5625 15.863281 8.558594 15.847656 C 8.558594 15.847656 8.558594 15.84375 8.558594 15.84375 C 8.214844 14.222656 8.523438 12.539062 9.421875 11.136719 C 10.351562 9.683594 11.789062 8.609375 13.472656 8.101562 C 13.59375 8.351562 13.691406 8.609375 13.769531 8.875 C 12.296875 9.316406 11.035156 10.253906 10.21875 11.515625 C 9.394531 12.78125 9.121094 14.308594 9.457031 15.765625 L 9.457031 15.769531 C 9.460938 15.796875 9.46875 15.820312 9.476562 15.847656 C 9.484375 15.886719 9.492188 15.925781 9.503906 15.960938 C 9.515625 16.011719 9.53125 16.066406 9.546875 16.117188 C 9.550781 16.132812 9.554688 16.144531 9.558594 16.15625 C 9.574219 16.195312 9.585938 16.238281 9.597656 16.277344 C 9.601562 16.289062 9.605469 16.300781 9.609375 16.3125 C 9.625 16.355469 9.640625 16.398438 9.65625 16.441406 L 9.664062 16.464844 C 9.683594 16.515625 9.699219 16.5625 9.71875 16.613281 L 9.722656 16.617188 C 10.246094 17.902344 11.210938 18.976562 12.457031 19.65625 C 13.488281 20.230469 14.65625 20.53125 15.84375 20.53125 C 16.367188 20.53125 16.890625 20.472656 17.402344 20.359375 C 20.902344 19.578125 23.058594 16.332031 22.203125 13.128906 C 21.847656 11.792969 21.019531 10.621094 19.859375 9.816406 C 18.757812 9.042969 17.441406 8.605469 16.078125 8.566406 C 16.070312 8.539062 16.066406 8.511719 16.058594 8.488281 C 15.992188 8.234375 15.910156 7.984375 15.8125 7.742188 C 17.382812 7.730469 18.921875 8.183594 20.21875 9.039062 C 21.628906 9.960938 22.640625 11.34375 23.074219 12.933594 C 24.046875 16.578125 21.59375 20.265625 17.613281 21.152344 Z M 17.613281 21.152344 "/>
</g>
</svg>
