<?xml version="1.0" encoding="UTF-8"?>
<svg xmlns="http://www.w3.org/2000/svg" xmlns:xlink="http://www.w3.org/1999/xlink" width="24px" height="25px" viewBox="0 0 24 22" version="1.1">
<g id="surface1">
<path style=" stroke:none;fill-rule:nonzero;fill:rgb(0%,0%,0%);fill-opacity:1;" d="M 20.484375 3.222656 C 18.191406 1.132812 15.152344 -0.0195312 12 0 C 8.847656 -0.0195312 5.808594 1.132812 3.515625 3.222656 C 1.273438 5.230469 0 8.046875 0 11 C 0 13.953125 1.273438 16.769531 3.515625 18.777344 C 5.808594 20.867188 8.847656 22.019531 12 22 C 15.152344 22.019531 18.191406 20.867188 20.484375 18.777344 C 22.726562 16.769531 24 13.953125 24 11 C 24 8.046875 22.726562 5.230469 20.484375 3.222656 Z M 19.988281 18.324219 C 17.828125 20.289062 14.96875 21.375 12 21.355469 C 9.03125 21.375 6.171875 20.289062 4.011719 18.324219 C 1.902344 16.433594 0.703125 13.78125 0.703125 11 C 0.703125 8.21875 1.902344 5.566406 4.011719 3.675781 C 6.171875 1.710938 9.03125 0.625 12 0.644531 C 14.96875 0.625 17.828125 1.710938 19.988281 3.675781 C 22.097656 5.566406 23.296875 8.21875 23.296875 11 C 23.296875 13.78125 22.097656 16.433594 19.988281 18.324219 Z M 19.988281 18.324219 "/>
<path style=" stroke:none;fill-rule:nonzero;fill:rgb(0%,0%,0%);fill-opacity:1;" d="M 8.996094 9.289062 L 10.113281 11.695312 C 10.15625 11.789062 10.273438 11.832031 10.371094 11.789062 C 10.472656 11.746094 10.515625 11.636719 10.46875 11.539062 L 10.246094 11.058594 L 11.160156 10.179688 L 11.65625 10.394531 C 11.753906 10.4375 11.871094 10.394531 11.914062 10.300781 C 11.957031 10.203125 11.914062 10.09375 11.816406 10.050781 L 9.332031 8.964844 L 9.328125 8.960938 C 9.234375 8.921875 9.121094 8.945312 9.050781 9.015625 C 8.976562 9.085938 8.957031 9.191406 8.996094 9.285156 Z M 10.777344 10.011719 L 10.078125 10.691406 L 9.503906 9.453125 Z M 10.777344 10.011719 "/>
<path style=" stroke:none;fill-rule:nonzero;fill:rgb(0%,0%,0%);fill-opacity:1;" d="M 13.34375 8.480469 C 13.410156 8.542969 13.515625 8.554688 13.59375 8.5 C 13.613281 8.488281 13.632812 8.472656 14.261719 7.859375 C 14.335938 7.785156 14.335938 7.664062 14.257812 7.59375 C 14.183594 7.519531 14.058594 7.519531 13.980469 7.59375 C 13.832031 7.738281 13.617188 7.949219 13.480469 8.078125 L 11.792969 6.445312 C 11.714844 6.371094 11.589844 6.371094 11.515625 6.445312 C 11.4375 6.519531 11.4375 6.640625 11.515625 6.714844 Z M 13.34375 8.480469 "/>
<path style=" stroke:none;fill-rule:nonzero;fill:rgb(0%,0%,0%);fill-opacity:1;" d="M 15.730469 6.363281 C 15.796875 6.429688 15.902344 6.4375 15.980469 6.386719 C 16 6.375 16.019531 6.359375 16.648438 5.746094 C 16.714844 5.667969 16.710938 5.554688 16.636719 5.488281 C 16.5625 5.417969 16.449219 5.414062 16.371094 5.480469 C 16.222656 5.625 16.007812 5.832031 15.871094 5.964844 L 14.179688 4.332031 C 14.105469 4.257812 13.980469 4.257812 13.902344 4.332031 C 13.828125 4.40625 13.828125 4.527344 13.902344 4.597656 Z M 15.730469 6.363281 "/>
<path style=" stroke:none;fill-rule:nonzero;fill:rgb(0%,0%,0%);fill-opacity:1;" d="M 16.058594 10.804688 C 15.902344 10.652344 15.644531 10.652344 15.488281 10.804688 L 12.199219 13.984375 C 12.121094 14.058594 12.121094 14.179688 12.199219 14.253906 C 12.273438 14.328125 12.398438 14.328125 12.472656 14.253906 L 15.761719 11.074219 C 15.769531 11.070312 15.777344 11.070312 15.78125 11.074219 L 16.375 11.644531 C 16.378906 11.648438 16.378906 11.652344 16.378906 11.65625 C 16.378906 11.660156 16.378906 11.664062 16.375 11.664062 L 11.308594 16.558594 C 11.304688 16.5625 11.304688 16.5625 11.300781 16.5625 C 11.296875 16.5625 11.292969 16.5625 11.289062 16.558594 L 8.628906 13.992188 C 8.628906 13.988281 8.625 13.984375 8.625 13.980469 C 8.625 13.976562 8.628906 13.972656 8.628906 13.972656 L 9.222656 13.398438 C 9.226562 13.394531 9.238281 13.394531 9.242188 13.398438 L 11.160156 15.253906 C 11.238281 15.328125 11.363281 15.328125 11.4375 15.253906 L 11.867188 14.839844 C 11.941406 14.765625 11.941406 14.648438 11.867188 14.574219 C 11.789062 14.5 11.664062 14.5 11.589844 14.574219 L 11.300781 14.855469 L 9.519531 13.132812 C 9.359375 12.980469 9.101562 12.980469 8.945312 13.132812 L 8.355469 13.703125 C 8.195312 13.859375 8.195312 14.105469 8.355469 14.257812 L 11.011719 16.828125 C 11.171875 16.980469 11.425781 16.980469 11.585938 16.828125 L 16.652344 11.933594 C 16.808594 11.78125 16.808594 11.53125 16.652344 11.378906 Z M 16.058594 10.804688 "/>
</g>
</svg>
