<?xml version="1.0" encoding="UTF-8"?>
<svg xmlns="http://www.w3.org/2000/svg" xmlns:xlink="http://www.w3.org/1999/xlink" width="24px" height="25px" viewBox="0 0 24 22" version="1.1">
<g id="surface1">
<path style=" stroke:none;fill-rule:nonzero;fill:rgb(0%,0%,0%);fill-opacity:1;" d="M 6.375 16.640625 L 5.207031 15.8125 C 5.082031 15.675781 5.019531 15.496094 5.03125 15.3125 L 6.734375 15.3125 C 6.859375 15.3125 6.960938 15.097656 6.960938 14.832031 L 6.960938 7.117188 C 6.960938 3.449219 5.5625 0.464844 3.84375 0.464844 C 2.125 0.464844 0.726562 3.449219 0.726562 7.117188 L 0.726562 14.832031 C 0.726562 15.097656 0.828125 15.3125 0.953125 15.3125 L 2.652344 15.3125 C 2.667969 15.496094 2.605469 15.675781 2.480469 15.8125 L 1.3125 16.640625 C 0.527344 17.199219 0 18.753906 0 20.511719 L 0 21.519531 C 0 21.785156 0.101562 22 0.226562 22 C 0.351562 22 0.453125 21.785156 0.453125 21.519531 L 0.453125 20.511719 C 0.453125 19.167969 0.851562 17.980469 1.449219 17.554688 L 1.890625 17.242188 C 2.285156 18.550781 2.90625 19.789062 3.726562 20.902344 C 3.75 20.945312 3.792969 20.972656 3.84375 20.972656 C 3.890625 20.972656 3.9375 20.945312 3.957031 20.902344 C 4.777344 19.789062 5.398438 18.554688 5.792969 17.242188 L 6.234375 17.554688 C 6.832031 17.980469 7.234375 19.167969 7.234375 20.511719 L 7.234375 21.519531 C 7.234375 21.785156 7.335938 22 7.460938 22 C 7.582031 22 7.683594 21.785156 7.683594 21.519531 L 7.683594 20.511719 C 7.683594 18.753906 7.160156 17.199219 6.375 16.640625 Z M 1.175781 7.117188 C 1.175781 3.980469 2.371094 1.425781 3.84375 1.425781 C 5.3125 1.425781 6.507812 3.980469 6.507812 7.117188 L 6.507812 14.351562 L 5.03125 14.351562 L 5.03125 14.03125 C 5.613281 13.207031 5.996094 11.800781 5.996094 10.203125 L 5.996094 8.660156 C 5.996094 8.113281 5.832031 7.226562 4.417969 5.84375 C 3.960938 5.398438 3.46875 4.984375 2.949219 4.605469 C 2.832031 4.519531 2.703125 4.65625 2.664062 4.910156 C 2.613281 5.121094 2.667969 5.347656 2.808594 5.519531 C 3.308594 5.886719 3.785156 6.289062 4.230469 6.71875 C 5.53125 7.992188 5.546875 8.636719 5.546875 8.660156 L 5.546875 10.203125 C 5.546875 12.207031 4.78125 13.835938 3.84375 13.835938 C 2.902344 13.835938 2.140625 12.207031 2.140625 10.203125 L 2.140625 8.769531 C 2.136719 8.472656 2.179688 8.179688 2.261719 7.894531 L 2.582031 6.871094 C 2.652344 6.648438 2.628906 6.410156 2.519531 6.203125 C 2.417969 6.054688 2.277344 6.117188 2.207031 6.335938 L 1.886719 7.363281 C 1.75 7.820312 1.683594 8.292969 1.6875 8.769531 L 1.6875 10.203125 C 1.6875 11.800781 2.070312 13.207031 2.652344 14.03125 L 2.652344 14.351562 L 1.175781 14.351562 Z M 3.84375 19.917969 C 3.191406 18.996094 2.683594 17.988281 2.332031 16.925781 L 2.617188 16.722656 C 2.910156 16.519531 3.101562 15.941406 3.101562 15.292969 L 3.101562 14.519531 C 3.308594 14.695312 3.570312 14.792969 3.839844 14.800781 C 4.113281 14.792969 4.375 14.695312 4.582031 14.523438 L 4.582031 15.292969 C 4.582031 15.941406 4.773438 16.519531 5.066406 16.722656 L 5.351562 16.929688 C 4.996094 17.988281 4.488281 18.996094 3.839844 19.917969 Z M 3.84375 19.917969 "/>
<path style=" stroke:none;fill-rule:nonzero;fill:rgb(0%,0%,0%);fill-opacity:1;" d="M 4.59375 9.515625 C 4.71875 9.515625 4.820312 9.417969 4.820312 9.296875 L 4.820312 9.0625 C 4.816406 8.945312 4.714844 8.851562 4.59375 8.851562 C 4.472656 8.851562 4.371094 8.945312 4.367188 9.0625 L 4.367188 9.296875 C 4.367188 9.417969 4.46875 9.515625 4.59375 9.515625 Z M 4.59375 9.515625 "/>
<path style=" stroke:none;fill-rule:nonzero;fill:rgb(0%,0%,0%);fill-opacity:1;" d="M 7.253906 9.515625 C 7.375 9.515625 7.476562 9.417969 7.476562 9.296875 L 7.476562 9.0625 C 7.472656 8.945312 7.375 8.851562 7.253906 8.851562 C 7.128906 8.851562 7.03125 8.945312 7.027344 9.0625 L 7.027344 9.296875 C 7.027344 9.417969 7.128906 9.515625 7.253906 9.515625 Z M 7.253906 9.515625 "/>
<path style=" stroke:none;fill-rule:nonzero;fill:rgb(0%,0%,0%);fill-opacity:1;" d="M 5.082031 11.789062 C 5.03125 11.902344 5.082031 12.03125 5.195312 12.078125 C 5.5625 12.230469 5.976562 12.230469 6.34375 12.078125 C 6.417969 12.046875 6.472656 11.980469 6.480469 11.902344 C 6.488281 11.824219 6.453125 11.746094 6.386719 11.699219 C 6.320312 11.652344 6.234375 11.648438 6.160156 11.679688 C 5.910156 11.78125 5.628906 11.78125 5.378906 11.679688 C 5.265625 11.632812 5.132812 11.679688 5.082031 11.789062 Z M 5.082031 11.789062 "/>
<path style=" stroke:none;fill-rule:nonzero;fill:rgb(0%,0%,0%);fill-opacity:1;" d="M 16.488281 11.5625 C 16.855469 11.714844 17.269531 11.714844 17.636719 11.5625 C 17.710938 11.53125 17.765625 11.464844 17.773438 11.386719 C 17.78125 11.304688 17.746094 11.230469 17.679688 11.183594 C 17.613281 11.136719 17.523438 11.128906 17.453125 11.164062 C 17.203125 11.265625 16.921875 11.265625 16.671875 11.164062 C 16.597656 11.128906 16.511719 11.136719 16.441406 11.183594 C 16.375 11.226562 16.339844 11.304688 16.347656 11.386719 C 16.359375 11.464844 16.410156 11.53125 16.488281 11.5625 Z M 16.488281 11.5625 "/>
<path style=" stroke:none;fill-rule:nonzero;fill:rgb(0%,0%,0%);fill-opacity:1;" d="M 22.691406 16.777344 L 21.28125 15.796875 C 21.152344 15.660156 21.089844 15.476562 21.105469 15.292969 L 21.105469 13.558594 C 21.609375 12.4375 21.855469 11.222656 21.828125 9.996094 L 21.828125 9.132812 C 22.28125 7.617188 22.523438 6.050781 22.550781 4.476562 C 22.546875 3.207031 22.3125 2.128906 21.882812 1.351562 C 21.382812 0.457031 20.640625 0 19.675781 0 C 18.699219 0 18.003906 0.488281 17.601562 1.457031 C 17.558594 1.566406 17.519531 1.675781 17.484375 1.789062 C 17.476562 1.789062 17.46875 1.792969 17.460938 1.796875 C 17.15625 1.933594 16.875 2.304688 16.667969 2.84375 C 16.421875 3.53125 16.300781 4.253906 16.316406 4.984375 C 16.316406 6.246094 16.5625 7.5 17.039062 8.675781 L 17.039062 9.996094 C 17.011719 11.222656 17.261719 12.4375 17.761719 13.558594 L 17.761719 15.292969 C 17.78125 15.476562 17.714844 15.660156 17.585938 15.796875 L 16.335938 16.664062 C 16.195312 16.832031 16.144531 17.050781 16.195312 17.257812 C 16.226562 17.453125 16.3125 17.578125 16.410156 17.578125 C 16.433594 17.578125 16.460938 17.570312 16.480469 17.554688 L 17.210938 17.050781 C 17.792969 18.289062 18.597656 18.992188 19.433594 18.992188 C 20.273438 18.992188 21.074219 18.285156 21.660156 17.050781 L 22.550781 17.667969 C 23.148438 18.082031 23.550781 19.238281 23.550781 20.550781 L 23.550781 21.53125 C 23.550781 21.789062 23.648438 22 23.773438 22 C 23.898438 22 24 21.789062 24 21.53125 L 24 20.550781 C 24 18.835938 23.472656 17.316406 22.691406 16.777344 Z M 17.492188 9.996094 L 17.492188 8.492188 C 17.492188 8.378906 17.46875 8.265625 17.425781 8.160156 C 16.996094 7.152344 16.773438 6.074219 16.765625 4.984375 C 16.765625 4.035156 16.996094 3.324219 17.273438 2.957031 C 17.257812 3.191406 17.253906 3.421875 17.265625 3.65625 C 17.285156 3.914062 17.402344 4.089844 17.523438 4.050781 C 17.648438 4.011719 17.730469 3.773438 17.714844 3.515625 C 17.695312 3.023438 17.773438 2.53125 17.945312 2.070312 C 18.199219 1.363281 18.902344 0.902344 19.675781 0.9375 C 20.488281 0.914062 21.238281 1.355469 21.589844 2.0625 C 22.007812 2.816406 22.097656 3.796875 22.101562 4.484375 C 22.09375 5.347656 22.003906 6.207031 21.832031 7.054688 L 21.832031 6.988281 C 21.824219 6.550781 21.746094 6.117188 21.605469 5.703125 C 21.25 4.71875 20.621094 4.511719 20.15625 4.511719 L 18.335938 4.511719 C 18.03125 4.511719 17.761719 4.917969 17.664062 5.519531 L 17.53125 6.339844 C 17.480469 6.546875 17.535156 6.765625 17.675781 6.933594 C 17.792969 7.015625 17.921875 6.882812 17.960938 6.636719 L 18.09375 5.816406 C 18.125 5.597656 18.226562 5.453125 18.335938 5.453125 L 20.15625 5.453125 C 21.328125 5.453125 21.375 6.835938 21.378906 6.988281 L 21.378906 9.996094 C 21.378906 12.226562 20.507812 14.042969 19.433594 14.042969 C 18.363281 14.042969 17.492188 12.226562 17.492188 9.996094 Z M 19.433594 18.054688 C 18.792969 18.054688 18.175781 17.570312 17.695312 16.710938 L 17.730469 16.6875 C 18.019531 16.488281 18.214844 15.925781 18.214844 15.292969 L 18.214844 14.28125 C 18.570312 14.722656 18.988281 14.980469 19.433594 14.980469 C 19.882812 14.980469 20.296875 14.722656 20.65625 14.28125 L 20.65625 15.292969 C 20.65625 15.925781 20.851562 16.488281 21.140625 16.6875 L 21.171875 16.710938 C 20.691406 17.570312 20.074219 18.054688 19.433594 18.054688 Z M 19.433594 18.054688 "/>
<path style=" stroke:none;fill-rule:nonzero;fill:rgb(0%,0%,0%);fill-opacity:1;" d="M 15.417969 8.992188 C 15.542969 8.992188 15.644531 8.894531 15.644531 8.773438 L 15.644531 8.542969 C 15.648438 8.460938 15.605469 8.386719 15.535156 8.347656 C 15.460938 8.308594 15.375 8.308594 15.304688 8.347656 C 15.234375 8.386719 15.191406 8.460938 15.191406 8.542969 L 15.191406 8.773438 C 15.191406 8.894531 15.292969 8.992188 15.417969 8.992188 Z M 15.417969 8.992188 "/>
<path style=" stroke:none;fill-rule:nonzero;fill:rgb(0%,0%,0%);fill-opacity:1;" d="M 18.457031 8.992188 C 18.582031 8.992188 18.683594 8.894531 18.683594 8.773438 L 18.683594 8.542969 C 18.683594 8.460938 18.644531 8.386719 18.570312 8.347656 C 18.5 8.308594 18.414062 8.308594 18.34375 8.347656 C 18.269531 8.386719 18.230469 8.460938 18.230469 8.542969 L 18.230469 8.773438 C 18.230469 8.894531 18.332031 8.992188 18.457031 8.992188 Z M 18.457031 8.992188 "/>
</g>
</svg>
