<svg xmlns="http://www.w3.org/2000/svg" width="45.856" height="45.822" viewBox="0 0 45.856 45.822">
  <path id="Path_54747" data-name="Path 54747" d="M116.926,37.135c-.312-2.464-5.555-8.851-7.9-9.047h0a6.826,6.826,0,0,0-3.769.865c-2.214,1.167-4.907,3.12-5.932,4.856-3.745,6.339.662,17.789,10.716,27.844,7.658,7.658,16.124,12.04,22.526,12.04a10.334,10.334,0,0,0,5.318-1.322c1.736-1.026,3.69-3.718,4.857-5.932a6.834,6.834,0,0,0,.865-3.769c-.2-2.348-6.583-7.591-9.048-7.9-.59-.075-2.389-.3-7.759,4.428h0a.384.384,0,0,1-.491.01,85.334,85.334,0,0,1-7.27-6.549,85.265,85.265,0,0,1-6.549-7.27.383.383,0,0,1,.01-.49c4.731-5.372,4.5-7.169,4.428-7.759Zm-6.424,9.82a87.661,87.661,0,0,0,6.745,7.49,87.7,87.7,0,0,0,7.491,6.745,2.915,2.915,0,0,0,3.734-.1c3.68-3.241,5.433-3.849,5.767-3.817,1.4.177,6.407,4.314,6.845,5.644h0a4.4,4.4,0,0,1-.585,2.334,14.725,14.725,0,0,1-3.9,4.932c-4.4,2.6-14.575-.137-24.766-10.327S98.9,39.5,101.5,35.1a14.722,14.722,0,0,1,4.932-3.9h0a4.584,4.584,0,0,1,2.115-.593q.11,0,.219.007c1.33.438,5.467,5.446,5.644,6.844.037.356-.575,2.088-3.816,5.768a2.913,2.913,0,0,0-.1,3.735Z" transform="translate(-97.862 -27.974)" fill="#3d3d3d" stroke="#3d3d3d" stroke-width="0.2"/>
</svg>
