<svg xmlns="http://www.w3.org/2000/svg" width="252.042" height="258.074" viewBox="0 0 252.042 258.074">
  <g id="Group_1301" data-name="Group 1301" transform="translate(0.5 0.504)">
    <g id="Group_481" data-name="Group 481">
      <path id="Path_54433" data-name="Path 54433" d="M248.93,544.888a4.007,4.007,0,0,1-4.017-4.017V519.983a2.44,2.44,0,0,0-1.322-2.176c-13.021-6.343-20.8-17.272-20.8-29.206,0-10.076,5.64-19.6,15.465-26.143a2.462,2.462,0,0,0,.988-2.828,75.9,75.9,0,0,1-3.214-12.5c-2.126-12.9-1.222-25.708-.218-35.4.5-4.77,1.121-9.59,1.724-14.243l.452-3.515c.619-4.837.787-13.791-5.155-19.365-7.816-7.347-18.277-7.448-29.34-7.548-.7,0-1.389-.017-2.092-.017-5.674-.067-12.318-.435-18.595-2.628-7.2-2.527-13.54-7.967-19.381-16.636-.067-.084-.117-.184-.184-.284l-.034-.033a4.011,4.011,0,1,1,6.695-4.419l.033.05c.05.067.084.134.134.2,4.837,7.2,9.875,11.615,15.364,13.54,5.188,1.808,11.013,2.126,16.051,2.176.686,0,1.372.017,2.075.017,5.841.05,11.883.117,17.724,1.272a33.745,33.745,0,0,1,17.055,8.452c6.326,5.942,9.021,15.264,7.615,26.243-.151,1.172-.3,2.343-.452,3.531-.6,4.6-1.222,9.373-1.707,14.042-.971,9.205-1.824,21.289.151,33.256a68.408,68.408,0,0,0,2.862,11.163,10.493,10.493,0,0,1-4.117,12.151c-7.548,5.038-11.883,12.117-11.883,19.465,0,8.787,6.092,17,16.285,21.975a10.5,10.5,0,0,1,5.841,9.389v20.9A3.983,3.983,0,0,1,248.93,544.888Z" transform="translate(-142.037 -287.817)" stroke="#000" stroke-width="1"/>
      <path id="Path_54434" data-name="Path 54434" d="M88.011,165.536a29.79,29.79,0,0,1-8.636-1.372C59.776,158.205,46.4,129.535,42.2,111.71A81.839,81.839,0,0,1,40.06,90.84a77.1,77.1,0,0,1,3.347-20.754c1.289-4.218,6.226-18.913,15.214-31.1A48.169,48.169,0,0,1,71.893,26.2a25.821,25.821,0,0,1,17.657-3.883c8.486,1.272,14.21,4.937,17.456,11.214,2.711,5.222,3.2,11.281,3.682,17.138.134,1.724.268,3.347.469,4.937a4.018,4.018,0,1,1-7.983.921c-.2-1.741-.351-3.515-.485-5.222-1-12.235-2.159-19.247-14.327-21.072-7.95-1.188-15.783,3.347-23.281,13.507-8.234,11.163-12.8,24.77-14.009,28.687a72.609,72.609,0,0,0-1.054,37.423A100.109,100.109,0,0,0,61.55,137.669c4.352,7.1,11.364,16.118,20.151,18.779a21.568,21.568,0,0,0,6.26,1.021,11.9,11.9,0,0,0,8.536-3.247c6.36-6.092,7.314-19.1,4.988-28.235a70.791,70.791,0,0,1-1.54-7.9,4.019,4.019,0,0,1,7.967-1.071A63.37,63.37,0,0,0,109.267,124a47.734,47.734,0,0,1,.837,19c-1.155,7.214-3.933,13.088-8.05,17.021a19.619,19.619,0,0,1-14.042,5.523Z" transform="translate(-40.032 -22.042)" stroke="#000" stroke-width="1"/>
      <path id="Path_54435" data-name="Path 54435" d="M329.453,283.466a3.944,3.944,0,0,1-2.31-.736,4.019,4.019,0,0,1-.971-5.59c1.238-1.757,4.117-6.41,4.268-11.749a4.01,4.01,0,1,1,8.017.218c-.2,7.247-3.665,13.239-5.724,16.151A3.989,3.989,0,0,1,329.453,283.466Z" transform="translate(-277.675 -221.413)" stroke="#000" stroke-width="1"/>
      <path id="Path_54436" data-name="Path 54436" d="M155.847,452.587a4.007,4.007,0,0,1-3.13-6.511A50.41,50.41,0,0,1,172.634,431.2a4.02,4.02,0,1,1,3.147,7.4,42.119,42.119,0,0,0-16.77,12.5A4.155,4.155,0,0,1,155.847,452.587Z" transform="translate(-133.124 -362.449)" stroke="#000" stroke-width="1"/>
      <path id="Path_54437" data-name="Path 54437" d="M276.129,471.689a4,4,0,0,1-3.582-5.808,42.939,42.939,0,0,1,16.318-17.908,4.022,4.022,0,1,1,4.251,6.829,35.131,35.131,0,0,0-13.389,14.678A4.042,4.042,0,0,1,276.129,471.689Z" transform="translate(-233.271 -376.179)" stroke="#000" stroke-width="1"/>
    </g>
    <path id="Path_54438" data-name="Path 54438" d="M873.717,545.033a4.007,4.007,0,0,1-4.017-4.017V520.765a10.511,10.511,0,0,1,6.126-9.557c10.812-4.921,17.272-13.306,17.272-22.444,0-7.163-4.385-14.26-12.017-19.465a10.473,10.473,0,0,1-4.017-12.067,66.2,66.2,0,0,0,2.9-11.247c1.975-11.967,1.122-24.068.151-33.256-.486-4.67-1.1-9.423-1.707-14.025-.151-1.172-.3-2.36-.452-3.532-1.406-10.979,1.289-20.3,7.615-26.243a33.876,33.876,0,0,1,17.055-8.452c5.824-1.172,11.883-1.222,17.724-1.272.686,0,1.389-.017,2.076-.017,5.021-.067,10.862-.368,16.05-2.176,5.506-1.925,10.527-6.36,15.364-13.54.05-.067.084-.134.117-.184l.05-.067a4.011,4.011,0,1,1,6.695,4.419l-.034.067c-.05.084-.117.167-.167.268-5.841,8.67-12.185,14.126-19.381,16.636-6.277,2.193-12.921,2.561-18.595,2.628-.7,0-1.389.017-2.092.017-11.063.1-21.524.2-29.339,7.548-5.942,5.54-5.774,14.494-5.155,19.331.151,1.172.3,2.343.452,3.531.6,4.653,1.222,9.456,1.724,14.226,1.021,9.707,1.908,22.494-.218,35.4a75.29,75.29,0,0,1-3.247,12.586,2.407,2.407,0,0,0,.954,2.778c9.858,6.728,15.515,16.251,15.515,26.093a28.933,28.933,0,0,1-6.226,17.641,41.306,41.306,0,0,1-15.749,12.117,2.473,2.473,0,0,0-1.423,2.26v20.252A3.982,3.982,0,0,1,873.717,545.033Z" transform="translate(-730.84 -287.963)" stroke="#000" stroke-width="1"/>
    <path id="Path_54439" data-name="Path 54439" d="M1138.016,165.7a19.753,19.753,0,0,1-14.042-5.49c-4.117-3.933-6.9-9.825-8.05-17.021a47.714,47.714,0,0,1,.837-19,62.507,62.507,0,0,0,1.356-6.979,4.019,4.019,0,0,1,7.967,1.071,67.977,67.977,0,0,1-1.54,7.9c-2.326,9.155-1.372,22.16,4.988,28.235,3.532,3.381,8.519,4.134,14.8,2.226,8.787-2.661,15.816-11.682,20.151-18.779a100.84,100.84,0,0,0,11.531-27.817,72.618,72.618,0,0,0-1.054-37.423c-1.2-3.9-5.757-17.523-14.009-28.687-7.5-10.142-15.331-14.695-23.281-13.507-12.151,1.824-13.323,8.837-14.327,21.072-.134,1.707-.285,3.481-.486,5.222a4.018,4.018,0,1,1-7.983-.921c.184-1.607.318-3.23.468-4.937.486-5.858.971-11.933,3.682-17.138,3.264-6.276,8.971-9.958,17.456-11.214a25.783,25.783,0,0,1,17.657,3.883,48.661,48.661,0,0,1,13.272,12.787c8.988,12.184,13.925,26.879,15.214,31.1a77.232,77.232,0,0,1,3.347,20.754,80.99,80.99,0,0,1-2.159,20.854c-4.2,17.825-17.557,46.495-37.172,52.436a30.179,30.179,0,0,1-8.619,1.372Z" transform="translate(-934.954 -22.208)" stroke="#000" stroke-width="1"/>
    <path id="Path_54440" data-name="Path 54440" d="M327.69,411.3c-8.871,0-14.9-6.812-16.553-18.678-1.607-11.532.469-22.846,2.494-33.792l.1-.536c2.377-12.9,3.866-29.172-5.808-40.486a45.333,45.333,0,0,0-36.051-15.532c-1.573.084-3.163.251-4.82.418-2.326.234-4.72.485-7.18.519h-.251c-8.586,0-16.385-3.967-23.816-12.117a4.016,4.016,0,1,1,5.942-5.406c5.875,6.444,11.783,9.557,18.059,9.507,2.075-.017,4.184-.234,6.41-.469,1.707-.184,3.465-.368,5.239-.452a52.373,52.373,0,0,1,23.381,4.3,53.06,53.06,0,0,1,19.18,14.026c5.255,6.142,8.368,13.925,9.239,23.164.653,6.862.134,14.494-1.623,24l-.1.536c-1.908,10.31-3.866,20.971-2.444,31.214.753,5.356,2.845,11.749,8.6,11.749s7.85-6.393,8.6-11.749c1.423-10.26-.536-20.9-2.444-31.214l-.1-.552c-1.757-9.523-2.276-17.155-1.624-24,.87-9.239,3.983-17.021,9.239-23.164a53.329,53.329,0,0,1,42.562-18.327c1.791.1,3.548.285,5.239.452,2.226.234,4.335.452,6.41.469h.167c6.209,0,12.067-3.113,17.892-9.506a4.016,4.016,0,1,1,5.942,5.406c-7.431,8.151-15.23,12.117-23.816,12.117h-.251a70.664,70.664,0,0,1-7.18-.519c-1.674-.167-3.247-.335-4.82-.418a45.333,45.333,0,0,0-36.051,15.532c-9.674,11.3-8.2,27.566-5.808,40.486l.1.535c2.008,10.946,4.1,22.243,2.494,33.792C342.586,404.5,336.561,411.3,327.69,411.3Z" transform="translate(-202.17 -240.457)" stroke="#000" stroke-width="1"/>
    <path id="Path_54441" data-name="Path 54441" d="M1185.8,283.466a3.968,3.968,0,0,1-3.28-1.707c-2.058-2.929-5.54-8.9-5.724-16.151a4.01,4.01,0,0,1,8.017-.217c.151,5.339,3.029,9.992,4.268,11.749a4.019,4.019,0,0,1-.971,5.59A4.144,4.144,0,0,1,1185.8,283.466Z" transform="translate(-986.532 -221.413)" stroke="#000" stroke-width="1"/>
    <path id="Path_54442" data-name="Path 54442" d="M1292.94,452.5a4.037,4.037,0,0,1-3.147-1.506,42.389,42.389,0,0,0-16.77-12.5,4.019,4.019,0,0,1,3.146-7.4,50.256,50.256,0,0,1,19.917,14.879,4.028,4.028,0,0,1-3.147,6.527Z" transform="translate(-1064.622 -362.366)" stroke="#000" stroke-width="1"/>
    <path id="Path_54443" data-name="Path 54443" d="M1189.97,471.626a4.027,4.027,0,0,1-3.6-2.226,35.13,35.13,0,0,0-13.389-14.678,4.022,4.022,0,0,1,4.251-6.829,42.726,42.726,0,0,1,16.318,17.908,4.024,4.024,0,0,1-1.791,5.389A3.819,3.819,0,0,1,1189.97,471.626Z" transform="translate(-981.786 -376.116)" stroke="#000" stroke-width="1"/>
    <path id="Path_54444" data-name="Path 54444" d="M706.587,1130.1a4.047,4.047,0,0,1-2.41-.8c-7.347-5.54-19.749-5.54-27.1,0a4.015,4.015,0,0,1-4.837-6.41,32.107,32.107,0,0,1,36.788,0,4.009,4.009,0,0,1,.786,5.624A4.1,4.1,0,0,1,706.587,1130.1Z" transform="translate(-565.099 -933.823)" stroke="#000" stroke-width="1"/>
  </g>
</svg>
