<svg xmlns="http://www.w3.org/2000/svg" width="42" height="26" viewBox="0 0 42 26"><defs><style>.a,.b{fill:none;stroke:#363636;stroke-width:2px;}.a{stroke-linejoin:round;}.b{stroke-linecap:round;stroke-miterlimit:10;}</style></defs><g transform="translate(-4175 -529.82)"><path class="a" d="M4216,532.82l-11,7.857V534.82a4,4,0,0,0-4-4h-21a4,4,0,0,0-4,4v16a4,4,0,0,0,4,4h21a4,4,0,0,0,4-4v-5.858l11,7.858Z"/><line class="b" y2="6" transform="translate(4180 539.82)"/><line class="b" x2="3" transform="translate(4180 545.82)"/><line class="b" y2="6" transform="translate(4186 539.82)"/><line class="b" x2="3" y2="6" transform="translate(4189 539.82)"/><line class="b" y1="6" x2="3" transform="translate(4192 539.82)"/><line class="b" y2="6" transform="translate(4198 539.82)"/><line class="b" x2="3" transform="translate(4198 545.82)"/><line class="b" x2="3" transform="translate(4198 539.82)"/><line class="b" x2="2" transform="translate(4198 542.82)"/></g></svg>