<svg xmlns="http://www.w3.org/2000/svg" xmlns:xlink="http://www.w3.org/1999/xlink" width="97" height="90" viewBox="0 0 97 90">
  <defs>
    <clipPath id="clip-path">
      <rect id="Rectangle_8014" data-name="Rectangle 8014" width="97" height="90" transform="translate(0.275)" fill="#fff" stroke="#707070" stroke-width="1"/>
    </clipPath>
  </defs>
  <g id="Mask_Group_10" data-name="Mask Group 10" transform="translate(-0.275)" clip-path="url(#clip-path)">
    <g id="noun-video-call-4960851" transform="translate(-5.134 0.312)">
      <path id="Path_55582" data-name="Path 55582" d="M431.168,236.95,420,239.8v9.71l11.17,2.847Z" transform="translate(-353.531 -200.729)" fill="#033333"/>
      <path id="Path_55583" data-name="Path 55583" d="M226.136,198.33h24.575a4.645,4.645,0,0,1,4.468,4.174v20.873a4.328,4.328,0,0,1-4.468,4.174H226.136a4.645,4.645,0,0,1-4.468-4.174V202.5A4.328,4.328,0,0,1,226.136,198.33Z" transform="translate(-193.181 -169.019)" fill="#033333"/>
      <path id="Path_55584" data-name="Path 55584" d="M106.3,115.856a3.923,3.923,0,0,0,.212,2.926,4.336,4.336,0,0,0,2.219,2.074,4.761,4.761,0,0,0,3.131.2l15.8-4.436a2.431,2.431,0,0,1,1.758.209,49.422,49.422,0,0,0,54.055-5.946,42.831,42.831,0,0,0,15.148-28.243,41.485,41.485,0,0,0-6.1-26.291A45.967,45.967,0,0,0,171.14,38.336a49.958,49.958,0,0,0-28.621-2.946,47.838,47.838,0,0,0-25.073,13.227,42.632,42.632,0,0,0-12.08,24.419,41.405,41.405,0,0,0,5.461,26.412,2.009,2.009,0,0,1,.224,1.644Zm16.588-47.871a8.082,8.082,0,0,1,2.617-5.9,9.269,9.269,0,0,1,6.319-2.445H156.4a9.268,9.268,0,0,1,6.319,2.445,8.082,8.082,0,0,1,2.617,5.9v1.252l12.815-3.267a2.359,2.359,0,0,1,1.945.354,2.044,2.044,0,0,1,.879,1.66V88.856a2.021,2.021,0,0,1-.654,1.476,2.317,2.317,0,0,1-1.58.612,2.459,2.459,0,0,1-.589-.073L165.34,87.6v1.252a8.082,8.082,0,0,1-2.617,5.9,9.268,9.268,0,0,1-6.319,2.445H131.829a9.269,9.269,0,0,1-6.319-2.445,8.082,8.082,0,0,1-2.617-5.9Z" transform="translate(-98.873 -34.498)" fill="#033333"/>
      <g id="Group_1063" data-name="Group 1063" transform="translate(0 117.58)">
        <path id="Path_55585" data-name="Path 55585" d="M9.833-35.967a5.6,5.6,0,0,1-1.206.422,5.893,5.893,0,0,1-1.308.143,4.666,4.666,0,0,1-3.226-1.062,3.67,3.67,0,0,1-1.188-2.882,3.676,3.676,0,0,1,1.188-2.885A4.66,4.66,0,0,1,7.319-43.3a5.893,5.893,0,0,1,1.308.143,5.53,5.53,0,0,1,1.206.425v1.574A4.752,4.752,0,0,0,8.681-41.7a4.06,4.06,0,0,0-1.194-.173,2.337,2.337,0,0,0-1.768.674,2.565,2.565,0,0,0-.643,1.853A2.566,2.566,0,0,0,5.719-37.5a2.34,2.34,0,0,0,1.768.671A4.037,4.037,0,0,0,8.681-37a4.7,4.7,0,0,0,1.152-.545Z" transform="translate(-2.906 43.296)"/>
      </g>
      <g id="Group_1064" data-name="Group 1064" transform="translate(28.411 117.999)">
        <path id="Path_55586" data-name="Path 55586" d="M3.689-40.953v1.621H5.7v1.3H3.689v2.421a.677.677,0,0,0,.168.537,1.127,1.127,0,0,0,.673.14h1v1.305H3.859a2.378,2.378,0,0,1-1.64-.45,2.033,2.033,0,0,1-.482-1.532v-2.421H.765v-1.3h.972v-1.621Z" transform="translate(-0.765 40.953)"/>
      </g>
      <g id="Group_1065" data-name="Group 1065" transform="translate(41.683 117.399)">
        <path id="Path_55587" data-name="Path 55587" d="M7.215-41.257v-3.055H9.181v7.928H7.215v-.825a2.584,2.584,0,0,1-.889.738,2.544,2.544,0,0,1-1.122.235,2.345,2.345,0,0,1-1.855-.839,3.181,3.181,0,0,1-.724-2.158,3.182,3.182,0,0,1,.724-2.158A2.345,2.345,0,0,1,5.2-42.229a2.533,2.533,0,0,1,1.119.238,2.634,2.634,0,0,1,.892.735Zm-1.287,3.7a1.135,1.135,0,0,0,.957-.428,2.012,2.012,0,0,0,.329-1.244,2.013,2.013,0,0,0-.329-1.244,1.135,1.135,0,0,0-.957-.428,1.128,1.128,0,0,0-.952.428,2.009,2.009,0,0,0-.329,1.244,2.007,2.007,0,0,0,.329,1.244A1.128,1.128,0,0,0,5.929-37.561Z" transform="translate(-2.625 44.312)"/>
      </g>
      <g id="Group_1066" data-name="Group 1066" transform="translate(54.005 117.398)">
        <path id="Path_55588" data-name="Path 55588" d="M8.155-37.562a1.132,1.132,0,0,0,.954-.428,2,2,0,0,0,.332-1.244,2,2,0,0,0-.332-1.244,1.132,1.132,0,0,0-.954-.428,1.149,1.149,0,0,0-.963.43,1.986,1.986,0,0,0-.335,1.241,1.983,1.983,0,0,0,.335,1.241A1.147,1.147,0,0,0,8.155-37.562Zm-1.3-3.7a2.65,2.65,0,0,1,.895-.735,2.563,2.563,0,0,1,1.128-.238,2.341,2.341,0,0,1,1.855.839,3.186,3.186,0,0,1,.724,2.158,3.185,3.185,0,0,1-.724,2.158,2.341,2.341,0,0,1-1.855.839,2.564,2.564,0,0,1-1.128-.238,2.634,2.634,0,0,1-.895-.735v.825H4.906v-7.928H6.857Z" transform="translate(-4.906 44.313)"/>
      </g>
      <g id="Group_1067" data-name="Group 1067" transform="translate(72.286 117.72)">
        <path id="Path_55589" data-name="Path 55589" d="M6.193-36.3H2.911l-.518,1.387H.281L3.3-42.516H5.8l3.016,7.606H6.705ZM3.435-37.708H5.664L4.551-40.732Z" transform="translate(-0.281 42.516)"/>
      </g>
    </g>
  </g>
</svg>
