<svg xmlns="http://www.w3.org/2000/svg" xmlns:xlink="http://www.w3.org/1999/xlink" width="548" height="552" viewBox="0 0 548 552">
  <defs>
    <clipPath id="clip-path">
      <rect id="Rectangle_8023" data-name="Rectangle 8023" width="548" height="552" transform="translate(5056 -330)" fill="#fff" stroke="#707070" stroke-width="1"/>
    </clipPath>
  </defs>
  <g id="Mask_Group_20" data-name="Mask Group 20" transform="translate(-5056 330)" clip-path="url(#clip-path)">
    <g id="noun-radiology-2846112" transform="translate(4985.891 -336.566)">
      <path id="Path_55930" data-name="Path 55930" d="M579.34,6.566H120.68a30.721,30.721,0,0,0-30.7,30.676v485.47a30.743,30.743,0,0,0,30.7,30.719H579.34a30.734,30.734,0,0,0,30.68-30.719V37.242A30.713,30.713,0,0,0,579.34,6.566Zm8.8,516.15a8.832,8.832,0,0,1-8.8,8.844H120.68a8.844,8.844,0,0,1-8.824-8.844V37.246a8.822,8.822,0,0,1,8.824-8.8H579.34a8.813,8.813,0,0,1,8.8,8.8Z" stroke="#000" stroke-width="5"/>
      <path id="Path_55931" data-name="Path 55931" d="M459.93,205.53h-99V171.143h79a10.938,10.938,0,0,0,0-21.876h-79v-34.4h62.758a10.938,10.938,0,0,0,0-21.876H360.934V60.184a10.938,10.938,0,1,0-21.876,0V93H276.3a10.938,10.938,0,0,0,0,21.876h62.758v34.4h-79a10.938,10.938,0,1,0,0,21.876h79v34.391H240.066a10.938,10.938,0,0,0,0,21.876h98.992V261.8h-79a10.938,10.938,0,1,0,0,21.876h79v34.395H276.3a39.413,39.413,0,1,0,35.227,21.875h27.527V439.67a10.923,10.923,0,0,0,4.121,8.547H257.82a10.938,10.938,0,1,0,0,21.876H442.17a10.938,10.938,0,0,0,0-21.876H356.811a10.911,10.911,0,0,0,4.121-8.547V339.951h27.531a39.342,39.342,0,1,0,35.227-21.875H360.932V283.681h79a10.938,10.938,0,0,0,0-21.876h-79v-34.4h99a10.939,10.939,0,0,0,0-21.879ZM293.77,357.46A17.479,17.479,0,1,1,276.3,339.944,17.492,17.492,0,0,1,293.77,357.46Zm147.41,0a17.481,17.481,0,1,1-17.492-17.516A17.5,17.5,0,0,1,441.18,357.46Z"/>
      <path id="Path_55932" data-name="Path 55932" d="M442.18,488.84H257.83a10.938,10.938,0,1,0,0,21.876H442.18a10.938,10.938,0,0,0,0-21.876Z"/>
      <g id="Group_1369" data-name="Group 1369" transform="translate(70 576.406)">
        <path id="Path_55933" data-name="Path 55933" d="M3.656-.219A2.844,2.844,0,0,1,3.062,0a2.513,2.513,0,0,1-.625.078A2.245,2.245,0,0,1,.844-.469,2.01,2.01,0,0,1,.266-1.984,1.987,1.987,0,0,1,.844-3.5a2.218,2.218,0,0,1,1.594-.563,2.513,2.513,0,0,1,.625.078,3.083,3.083,0,0,1,.594.219v.828a2.366,2.366,0,0,0-.562-.281,1.742,1.742,0,0,0-.578-.094,1.128,1.128,0,0,0-.875.359,1.383,1.383,0,0,0-.312.969,1.41,1.41,0,0,0,.313.969,1.145,1.145,0,0,0,.875.344A1.97,1.97,0,0,0,3.094-.75a2.063,2.063,0,0,0,.563-.3Z"/>
      </g>
      <g id="Group_1370" data-name="Group 1370" transform="translate(74.012 576.406)">
        <path id="Path_55934" data-name="Path 55934" d="M2.688-2.172a1.794,1.794,0,0,0-.25-.094,1.123,1.123,0,0,0-.25-.031.706.706,0,0,0-.578.25,1.058,1.058,0,0,0-.187.672V0H.453V-2.984h.969V-2.5a1.086,1.086,0,0,1,.406-.422,1.152,1.152,0,0,1,.578-.141h.109a1.491,1.491,0,0,1,.156.016Z"/>
      </g>
      <g id="Group_1371" data-name="Group 1371" transform="translate(76.711 576.406)">
        <path id="Path_55935" data-name="Path 55935" d="M3.438-1.5v.266H1.2a.773.773,0,0,0,.25.516.918.918,0,0,0,.578.156,2.469,2.469,0,0,0,.625-.078A3.112,3.112,0,0,0,3.3-.922v.734a3.017,3.017,0,0,1-.672.2,4.02,4.02,0,0,1-.672.063A1.813,1.813,0,0,1,.687-.328,1.513,1.513,0,0,1,.234-1.5,1.51,1.51,0,0,1,.672-2.641a1.713,1.713,0,0,1,1.219-.422,1.52,1.52,0,0,1,1.125.422A1.545,1.545,0,0,1,3.438-1.5Zm-.969-.328A.55.55,0,0,0,2.3-2.25a.534.534,0,0,0-.406-.172.658.658,0,0,0-.453.156.722.722,0,0,0-.219.438Z"/>
      </g>
      <g id="Group_1372" data-name="Group 1372" transform="translate(80.418 576.406)">
        <path id="Path_55936" data-name="Path 55936" d="M1.8-1.344a.8.8,0,0,0-.453.109.334.334,0,0,0-.141.3.368.368,0,0,0,.109.281.554.554,0,0,0,.344.094A.619.619,0,0,0,2.109-.75.653.653,0,0,0,2.3-1.234v-.109ZM3.266-1.7V0H2.3V-.438a1.176,1.176,0,0,1-.437.391,1.24,1.24,0,0,1-.578.125A1.088,1.088,0,0,1,.516-.188a.954.954,0,0,1-.281-.7.884.884,0,0,1,.359-.781,2.047,2.047,0,0,1,1.141-.25H2.3v-.062a.336.336,0,0,0-.187-.328,1.083,1.083,0,0,0-.547-.109,2.649,2.649,0,0,0-.578.063A2.35,2.35,0,0,0,.5-2.188v-.719a4.311,4.311,0,0,1,.609-.109,4.169,4.169,0,0,1,.625-.047,1.722,1.722,0,0,1,1.172.328A1.315,1.315,0,0,1,3.266-1.7Z"/>
      </g>
      <g id="Group_1373" data-name="Group 1373" transform="translate(84.109 576.406)">
        <path id="Path_55937" data-name="Path 55937" d="M1.5-3.844v.859h.984v.672H1.5v1.281a.379.379,0,0,0,.078.281.65.65,0,0,0,.344.063h.484V0H1.594A1.128,1.128,0,0,1,.781-.234a1.1,1.1,0,0,1-.234-.8V-2.313H.078v-.672H.547v-.859Z"/>
      </g>
      <g id="Group_1374" data-name="Group 1374" transform="translate(86.723 576.406)">
        <path id="Path_55938" data-name="Path 55938" d="M3.438-1.5v.266H1.2a.773.773,0,0,0,.25.516.918.918,0,0,0,.578.156,2.469,2.469,0,0,0,.625-.078A3.112,3.112,0,0,0,3.3-.922v.734a3.017,3.017,0,0,1-.672.2,4.02,4.02,0,0,1-.672.063A1.813,1.813,0,0,1,.687-.328,1.513,1.513,0,0,1,.234-1.5,1.51,1.51,0,0,1,.672-2.641a1.713,1.713,0,0,1,1.219-.422,1.52,1.52,0,0,1,1.125.422A1.545,1.545,0,0,1,3.438-1.5Zm-.969-.328A.55.55,0,0,0,2.3-2.25a.534.534,0,0,0-.406-.172.658.658,0,0,0-.453.156.722.722,0,0,0-.219.438Z"/>
      </g>
      <g id="Group_1375" data-name="Group 1375" transform="translate(90.434 576.406)">
        <path id="Path_55939" data-name="Path 55939" d="M2.5-2.547V-4.156h.953V0H2.5V-.438a1.346,1.346,0,0,1-.437.391,1.164,1.164,0,0,1-.547.125A1.134,1.134,0,0,1,.594-.359,1.78,1.78,0,0,1,.25-1.5,1.764,1.764,0,0,1,.594-2.625a1.145,1.145,0,0,1,.922-.437,1.134,1.134,0,0,1,.531.125,1.4,1.4,0,0,1,.453.391ZM1.859-.609a.535.535,0,0,0,.469-.219A1.13,1.13,0,0,0,2.5-1.5a1.034,1.034,0,0,0-.172-.641.529.529,0,0,0-.469-.234.547.547,0,0,0-.469.234,1.093,1.093,0,0,0-.156.641,1.2,1.2,0,0,0,.156.672A.554.554,0,0,0,1.859-.609Z"/>
      </g>
      <g id="Group_1376" data-name="Group 1376" transform="translate(96.25 576.406)">
        <path id="Path_55940" data-name="Path 55940" d="M2.047-.609a.535.535,0,0,0,.469-.219A1.13,1.13,0,0,0,2.688-1.5a1.034,1.034,0,0,0-.172-.641.529.529,0,0,0-.469-.234.547.547,0,0,0-.469.234,1.093,1.093,0,0,0-.156.641,1.2,1.2,0,0,0,.156.672A.554.554,0,0,0,2.047-.609ZM1.422-2.547a1.277,1.277,0,0,1,.422-.391,1.242,1.242,0,0,1,.562-.125,1.137,1.137,0,0,1,.906.438A1.726,1.726,0,0,1,3.672-1.5,1.741,1.741,0,0,1,3.313-.359a1.126,1.126,0,0,1-.906.438,1.242,1.242,0,0,1-.562-.125,1.2,1.2,0,0,1-.422-.391V0H.453V-4.156h.969Z"/>
      </g>
      <g id="Group_1377" data-name="Group 1377" transform="translate(100.168 576.406)">
        <path id="Path_55941" data-name="Path 55941" d="M.063-2.984h.953L1.828-.969l.687-2.016h.953L2.2.281a1.674,1.674,0,0,1-.437.7,1.052,1.052,0,0,1-.672.2H.547V.547h.3A.654.654,0,0,0,1.2.469.551.551,0,0,0,1.375.2L1.406.109Z"/>
      </g>
      <g id="Group_1378" data-name="Group 1378" transform="translate(105.637 576.406)">
        <path id="Path_55942" data-name="Path 55942" d="M.453-2.984h.969V0H.453Zm0-1.172h.969v.781H.453Z"/>
      </g>
      <g id="Group_1379" data-name="Group 1379" transform="translate(107.508 576.406)">
        <path id="Path_55943" data-name="Path 55943" d="M2.047-.609a.535.535,0,0,0,.469-.219A1.13,1.13,0,0,0,2.688-1.5a1.034,1.034,0,0,0-.172-.641.529.529,0,0,0-.469-.234.547.547,0,0,0-.469.234,1.093,1.093,0,0,0-.156.641,1.2,1.2,0,0,0,.156.672A.554.554,0,0,0,2.047-.609ZM1.422-2.547a1.277,1.277,0,0,1,.422-.391,1.242,1.242,0,0,1,.562-.125,1.137,1.137,0,0,1,.906.438A1.726,1.726,0,0,1,3.672-1.5,1.741,1.741,0,0,1,3.313-.359a1.126,1.126,0,0,1-.906.438,1.242,1.242,0,0,1-.562-.125,1.2,1.2,0,0,1-.422-.391V0H.453V-4.156h.969Z"/>
      </g>
      <g id="Group_1380" data-name="Group 1380" transform="translate(111.426 576.406)">
        <path id="Path_55944" data-name="Path 55944" d="M2.688-2.172a1.794,1.794,0,0,0-.25-.094,1.123,1.123,0,0,0-.25-.031.706.706,0,0,0-.578.25,1.058,1.058,0,0,0-.187.672V0H.453V-2.984h.969V-2.5a1.086,1.086,0,0,1,.406-.422,1.152,1.152,0,0,1,.578-.141h.109a1.491,1.491,0,0,1,.156.016Z"/>
      </g>
      <g id="Group_1381" data-name="Group 1381" transform="translate(114.121 576.406)">
        <path id="Path_55945" data-name="Path 55945" d="M1.8-1.344a.8.8,0,0,0-.453.109.334.334,0,0,0-.141.3.368.368,0,0,0,.109.281.554.554,0,0,0,.344.094A.619.619,0,0,0,2.109-.75.653.653,0,0,0,2.3-1.234v-.109ZM3.266-1.7V0H2.3V-.438a1.176,1.176,0,0,1-.437.391,1.24,1.24,0,0,1-.578.125A1.088,1.088,0,0,1,.516-.188a.954.954,0,0,1-.281-.7.884.884,0,0,1,.359-.781,2.047,2.047,0,0,1,1.141-.25H2.3v-.062a.336.336,0,0,0-.187-.328,1.083,1.083,0,0,0-.547-.109,2.649,2.649,0,0,0-.578.063A2.35,2.35,0,0,0,.5-2.188v-.719a4.311,4.311,0,0,1,.609-.109,4.169,4.169,0,0,1,.625-.047,1.722,1.722,0,0,1,1.172.328A1.315,1.315,0,0,1,3.266-1.7Z"/>
      </g>
      <g id="Group_1382" data-name="Group 1382" transform="translate(117.813 576.406)">
        <path id="Path_55946" data-name="Path 55946" d="M3.469-1.828V0H2.5V-1.391c0-.258-.008-.437-.016-.531a.488.488,0,0,0-.062-.219.307.307,0,0,0-.156-.141.387.387,0,0,0-.2-.062.561.561,0,0,0-.484.234,1.135,1.135,0,0,0-.156.641V0H.453V-2.984h.969v.438a1.326,1.326,0,0,1,.453-.391,1.181,1.181,0,0,1,.531-.125.949.949,0,0,1,.781.328,1.318,1.318,0,0,1,.281.906Z"/>
      </g>
      <g id="Group_1383" data-name="Group 1383" transform="translate(121.703 576.406)">
        <path id="Path_55947" data-name="Path 55947" d="M2.5-2.547V-4.156h.953V0H2.5V-.438a1.346,1.346,0,0,1-.437.391,1.164,1.164,0,0,1-.547.125A1.134,1.134,0,0,1,.594-.359,1.78,1.78,0,0,1,.25-1.5,1.764,1.764,0,0,1,.594-2.625a1.145,1.145,0,0,1,.922-.437,1.134,1.134,0,0,1,.531.125,1.4,1.4,0,0,1,.453.391ZM1.859-.609a.535.535,0,0,0,.469-.219A1.13,1.13,0,0,0,2.5-1.5a1.034,1.034,0,0,0-.172-.641.529.529,0,0,0-.469-.234.547.547,0,0,0-.469.234,1.093,1.093,0,0,0-.156.641,1.2,1.2,0,0,0,.156.672A.554.554,0,0,0,1.859-.609Z"/>
      </g>
      <g id="Group_1384" data-name="Group 1384" transform="translate(125.621 576.406)">
        <path id="Path_55948" data-name="Path 55948" d="M.453-2.984h.969V0H.453Zm0-1.172h.969v.781H.453Z"/>
      </g>
      <g id="Group_1385" data-name="Group 1385" transform="translate(127.492 576.406)">
        <path id="Path_55949" data-name="Path 55949" d="M2.422-4.156v.625H1.906a.466.466,0,0,0-.3.078.337.337,0,0,0-.078.25v.219h.828v.672H1.531V0H.578V-2.312H.109v-.672H.578V-3.2a.9.9,0,0,1,.266-.719A1.32,1.32,0,0,1,1.7-4.156Z"/>
      </g>
      <g id="Group_1386" data-name="Group 1386" transform="translate(129.875 576.406)">
        <path id="Path_55950" data-name="Path 55950" d="M.063-2.984h.953L1.828-.969l.687-2.016h.953L2.2.281a1.674,1.674,0,0,1-.437.7,1.052,1.052,0,0,1-.672.2H.547V.547h.3A.654.654,0,0,0,1.2.469.551.551,0,0,0,1.375.2L1.406.109Z"/>
      </g>
      <g id="Group_1387" data-name="Group 1387" transform="translate(70 581.875)">
        <path id="Path_55951" data-name="Path 55951" d="M2.422-4.156v.625H1.906a.466.466,0,0,0-.3.078.337.337,0,0,0-.078.25v.219h.828v.672H1.531V0H.578V-2.312H.109v-.672H.578V-3.2a.9.9,0,0,1,.266-.719A1.32,1.32,0,0,1,1.7-4.156Z"/>
      </g>
      <g id="Group_1388" data-name="Group 1388" transform="translate(72.379 581.875)">
        <path id="Path_55952" data-name="Path 55952" d="M2.688-2.172a1.794,1.794,0,0,0-.25-.094,1.123,1.123,0,0,0-.25-.031.706.706,0,0,0-.578.25,1.058,1.058,0,0,0-.187.672V0H.453V-2.984h.969V-2.5a1.086,1.086,0,0,1,.406-.422,1.152,1.152,0,0,1,.578-.141h.109a1.491,1.491,0,0,1,.156.016Z"/>
      </g>
      <g id="Group_1389" data-name="Group 1389" transform="translate(75.078 581.875)">
        <path id="Path_55953" data-name="Path 55953" d="M1.875-2.375a.561.561,0,0,0-.484.234,1.093,1.093,0,0,0-.156.641,1.2,1.2,0,0,0,.156.672.569.569,0,0,0,.484.219.578.578,0,0,0,.484-.219A1.13,1.13,0,0,0,2.531-1.5a1.034,1.034,0,0,0-.172-.641A.57.57,0,0,0,1.875-2.375Zm0-.687a1.63,1.63,0,0,1,1.2.422A1.5,1.5,0,0,1,3.516-1.5,1.562,1.562,0,0,1,3.078-.328a1.656,1.656,0,0,1-1.2.406,1.681,1.681,0,0,1-1.2-.406A1.547,1.547,0,0,1,.234-1.5,1.481,1.481,0,0,1,.672-2.641,1.654,1.654,0,0,1,1.875-3.062Z"/>
      </g>
      <g id="Group_1390" data-name="Group 1390" transform="translate(78.832 581.875)">
        <path id="Path_55954" data-name="Path 55954" d="M3.234-2.5a1.2,1.2,0,0,1,.422-.406,1.049,1.049,0,0,1,.563-.156.933.933,0,0,1,.766.328,1.318,1.318,0,0,1,.281.906V0H4.3V-1.563a.164.164,0,0,0,.016-.062v-.109A.878.878,0,0,0,4.219-2.2a.334.334,0,0,0-.3-.141.494.494,0,0,0-.437.234,1.2,1.2,0,0,0-.141.641V0H2.375V-1.562A1.371,1.371,0,0,0,2.281-2.2a.313.313,0,0,0-.3-.141.478.478,0,0,0-.422.234,1.2,1.2,0,0,0-.141.641V0H.453V-2.984h.969v.438a1.164,1.164,0,0,1,.391-.391,1.094,1.094,0,0,1,.516-.125.986.986,0,0,1,.547.156.936.936,0,0,1,.359.406Z"/>
      </g>
      <g id="Group_1391" data-name="Group 1391" transform="translate(86.438 581.875)">
        <path id="Path_55955" data-name="Path 55955" d="M1.5-3.844v.859h.984v.672H1.5v1.281a.379.379,0,0,0,.078.281.65.65,0,0,0,.344.063h.484V0H1.594A1.128,1.128,0,0,1,.781-.234a1.1,1.1,0,0,1-.234-.8V-2.313H.078v-.672H.547v-.859Z"/>
      </g>
      <g id="Group_1392" data-name="Group 1392" transform="translate(89.051 581.875)">
        <path id="Path_55956" data-name="Path 55956" d="M3.469-1.828V0H2.5V-1.391c0-.258-.008-.437-.016-.531a.488.488,0,0,0-.062-.219.307.307,0,0,0-.156-.141.387.387,0,0,0-.2-.062.561.561,0,0,0-.484.234,1.135,1.135,0,0,0-.156.641V0H.453V-4.156h.969v1.609a1.326,1.326,0,0,1,.453-.391,1.181,1.181,0,0,1,.531-.125.949.949,0,0,1,.781.328,1.318,1.318,0,0,1,.281.906Z"/>
      </g>
      <g id="Group_1393" data-name="Group 1393" transform="translate(92.941 581.875)">
        <path id="Path_55957" data-name="Path 55957" d="M3.438-1.5v.266H1.2a.773.773,0,0,0,.25.516.918.918,0,0,0,.578.156,2.469,2.469,0,0,0,.625-.078A3.112,3.112,0,0,0,3.3-.922v.734a3.017,3.017,0,0,1-.672.2,4.02,4.02,0,0,1-.672.063A1.813,1.813,0,0,1,.687-.328,1.513,1.513,0,0,1,.234-1.5,1.51,1.51,0,0,1,.672-2.641a1.713,1.713,0,0,1,1.219-.422,1.52,1.52,0,0,1,1.125.422A1.545,1.545,0,0,1,3.438-1.5Zm-.969-.328A.55.55,0,0,0,2.3-2.25a.534.534,0,0,0-.406-.172.658.658,0,0,0-.453.156.722.722,0,0,0-.219.438Z"/>
      </g>
      <g id="Group_1394" data-name="Group 1394" transform="translate(98.555 581.875)">
        <path id="Path_55958" data-name="Path 55958" d="M.5-3.984H1.656L3.094-1.25V-3.984h.984V0H2.922L1.484-2.734V0H.5Z"/>
      </g>
      <g id="Group_1395" data-name="Group 1395" transform="translate(103.133 581.875)">
        <path id="Path_55959" data-name="Path 55959" d="M1.875-2.375a.561.561,0,0,0-.484.234,1.093,1.093,0,0,0-.156.641,1.2,1.2,0,0,0,.156.672.569.569,0,0,0,.484.219.578.578,0,0,0,.484-.219A1.13,1.13,0,0,0,2.531-1.5a1.034,1.034,0,0,0-.172-.641A.57.57,0,0,0,1.875-2.375Zm0-.687a1.63,1.63,0,0,1,1.2.422A1.5,1.5,0,0,1,3.516-1.5,1.562,1.562,0,0,1,3.078-.328a1.656,1.656,0,0,1-1.2.406,1.681,1.681,0,0,1-1.2-.406A1.547,1.547,0,0,1,.234-1.5,1.481,1.481,0,0,1,.672-2.641,1.654,1.654,0,0,1,1.875-3.062Z"/>
      </g>
      <g id="Group_1396" data-name="Group 1396" transform="translate(106.891 581.875)">
        <path id="Path_55960" data-name="Path 55960" d="M.422-1.172V-2.984h.969v1.391c0,.242,0,.418.016.531a.416.416,0,0,0,.063.219.5.5,0,0,0,.156.156.476.476,0,0,0,.219.047.557.557,0,0,0,.469-.234,1.066,1.066,0,0,0,.172-.641V-2.984h.953V0H2.484V-.438a1.47,1.47,0,0,1-.469.391,1.134,1.134,0,0,1-.531.125,1.008,1.008,0,0,1-.8-.312,1.441,1.441,0,0,1-.266-.937Z"/>
      </g>
      <g id="Group_1397" data-name="Group 1397" transform="translate(110.785 581.875)">
        <path id="Path_55961" data-name="Path 55961" d="M3.469-1.828V0H2.5V-1.391c0-.258-.008-.437-.016-.531a.488.488,0,0,0-.062-.219.307.307,0,0,0-.156-.141.387.387,0,0,0-.2-.062.561.561,0,0,0-.484.234,1.135,1.135,0,0,0-.156.641V0H.453V-2.984h.969v.438a1.326,1.326,0,0,1,.453-.391,1.181,1.181,0,0,1,.531-.125.949.949,0,0,1,.781.328,1.318,1.318,0,0,1,.281.906Z"/>
      </g>
      <g id="Group_1398" data-name="Group 1398" transform="translate(116.582 581.875)">
        <path id="Path_55962" data-name="Path 55962" d="M.5-3.984H2.2a1.792,1.792,0,0,1,1.172.344,1.161,1.161,0,0,1,.406.953,1.2,1.2,0,0,1-.406.969A1.836,1.836,0,0,1,2.2-1.391H1.531V0H.5Zm1.031.75v1.109h.562a.663.663,0,0,0,.453-.141.539.539,0,0,0,.172-.422.5.5,0,0,0-.172-.406.663.663,0,0,0-.453-.141Z"/>
      </g>
      <g id="Group_1399" data-name="Group 1399" transform="translate(120.59 581.875)">
        <path id="Path_55963" data-name="Path 55963" d="M2.688-2.172a1.794,1.794,0,0,0-.25-.094,1.123,1.123,0,0,0-.25-.031.706.706,0,0,0-.578.25,1.058,1.058,0,0,0-.187.672V0H.453V-2.984h.969V-2.5a1.086,1.086,0,0,1,.406-.422,1.152,1.152,0,0,1,.578-.141h.109a1.491,1.491,0,0,1,.156.016Z"/>
      </g>
      <g id="Group_1400" data-name="Group 1400" transform="translate(123.285 581.875)">
        <path id="Path_55964" data-name="Path 55964" d="M1.875-2.375a.561.561,0,0,0-.484.234,1.093,1.093,0,0,0-.156.641,1.2,1.2,0,0,0,.156.672.569.569,0,0,0,.484.219.578.578,0,0,0,.484-.219A1.13,1.13,0,0,0,2.531-1.5a1.034,1.034,0,0,0-.172-.641A.57.57,0,0,0,1.875-2.375Zm0-.687a1.63,1.63,0,0,1,1.2.422A1.5,1.5,0,0,1,3.516-1.5,1.562,1.562,0,0,1,3.078-.328a1.656,1.656,0,0,1-1.2.406,1.681,1.681,0,0,1-1.2-.406A1.547,1.547,0,0,1,.234-1.5,1.481,1.481,0,0,1,.672-2.641,1.654,1.654,0,0,1,1.875-3.062Z"/>
      </g>
      <g id="Group_1401" data-name="Group 1401" transform="translate(127.043 581.875)">
        <path id="Path_55965" data-name="Path 55965" d="M.453-2.984h.969V-.047a1.285,1.285,0,0,1-.3.906A1.032,1.032,0,0,1,.3,1.187H-.188V.547h.172A.433.433,0,0,0,.344.422.715.715,0,0,0,.453-.047Zm0-1.172h.969v.781H.453Z"/>
      </g>
      <g id="Group_1402" data-name="Group 1402" transform="translate(128.918 581.875)">
        <path id="Path_55966" data-name="Path 55966" d="M3.438-1.5v.266H1.2a.773.773,0,0,0,.25.516.918.918,0,0,0,.578.156,2.469,2.469,0,0,0,.625-.078A3.112,3.112,0,0,0,3.3-.922v.734a3.017,3.017,0,0,1-.672.2,4.02,4.02,0,0,1-.672.063A1.813,1.813,0,0,1,.687-.328,1.513,1.513,0,0,1,.234-1.5,1.51,1.51,0,0,1,.672-2.641a1.713,1.713,0,0,1,1.219-.422,1.52,1.52,0,0,1,1.125.422A1.545,1.545,0,0,1,3.438-1.5Zm-.969-.328A.55.55,0,0,0,2.3-2.25a.534.534,0,0,0-.406-.172.658.658,0,0,0-.453.156.722.722,0,0,0-.219.438Z"/>
      </g>
      <g id="Group_1403" data-name="Group 1403" transform="translate(132.625 581.875)">
        <path id="Path_55967" data-name="Path 55967" d="M2.875-2.891v.766a1.628,1.628,0,0,0-.391-.187,1.488,1.488,0,0,0-.406-.062.807.807,0,0,0-.625.234.892.892,0,0,0-.219.641.913.913,0,0,0,.219.656.807.807,0,0,0,.625.234A1.4,1.4,0,0,0,2.5-.672a1.1,1.1,0,0,0,.375-.2v.781a1.861,1.861,0,0,1-.453.125,2.385,2.385,0,0,1-.469.047A1.813,1.813,0,0,1,.688-.328,1.513,1.513,0,0,1,.234-1.5,1.45,1.45,0,0,1,.688-2.641a1.782,1.782,0,0,1,1.266-.422,2.385,2.385,0,0,1,.469.047,1.861,1.861,0,0,1,.453.125Z"/>
      </g>
      <g id="Group_1404" data-name="Group 1404" transform="translate(135.867 581.875)">
        <path id="Path_55968" data-name="Path 55968" d="M1.5-3.844v.859h.984v.672H1.5v1.281a.379.379,0,0,0,.078.281.65.65,0,0,0,.344.063h.484V0H1.594A1.128,1.128,0,0,1,.781-.234a1.1,1.1,0,0,1-.234-.8V-2.313H.078v-.672H.547v-.859Z"/>
      </g>
    </g>
  </g>
</svg>
