<svg id="woman-head-side-silhouette-svgrepo-com" xmlns="http://www.w3.org/2000/svg" width="358.217" height="381.925" viewBox="0 0 358.217 381.925">
  <path id="Path_3" data-name="Path 3" d="M34.752,286.09s-16.231-4.507-15.146-11.853c7.1,4.344,23.716-9.82,23.716-9.82s-8.174-14.188-7.625-31.633,2.312-34.214,2.312-34.214-9.961,11.583-22.6.338c24.907-12.2,23.413-28.72,20.669-39.363C33.36,148.907,22.56,99.781,63.769,61.965,90.859,38.43,105.9,59.5,105.9,59.5s3.981-6.854,8.991-6.557c5.009.315,8.583,5.733,8.583,5.733s2.86-8.693,7.367-7.461a8.52,8.52,0,0,1,5.723,5.412s4.916-26.174,59.711-49.2C251.1-15.594,323.082,21.054,338.21,34.127c15.139,13.1,20.867,17.2,15.963,32.737-1.734,5.442-4.554,7.427-7.578,7.777,11.379,25.275,5.33,56.272.916,67.616-.222.858-.344,1.792-.537,2.715,3.229.49,7.836.093,11.566-5.179,1.611,7.794-6.843,9.254-12.15,9.458a24.68,24.68,0,0,0,3.836,16.19c7.8,11.707,16.529,17.078,19.337,24.931,4,10.965-17.049,12.88-17.049,12.88l-.053,4.169s6.744,6.539,5.313,11.654c-1.915,6.819-15.473,4.391-15.473,4.391s13.021,4.8,12.419,11.151a12.048,12.048,0,0,1-6.061,9.1s12.605,24.779-5.943,30.244c-18.543,5.441-56.173-17.189-61.077,9.26-4.735,18.239-25.854,63.045-18.532,71.451,7.316,8.385,18.532,21.253,18.532,21.253l-192.5,6s59.448-76.9,65.438-85.616c3.2-4.647-3.83-8.524-14.375-14.748-3.725,18.847-14.433,58.712-40.426,75.293-34.623,22.082-52.617,2.441-51.531-5.312,18.543,11.584,22.49-10.649,22.49-10.649s-30.933,9.692-31.9-9.4c25.224,8.184,31.087-38.852,31.087-38.852s-48.938,50.854-58.07-2.452C27.792,308.055,34.752,286.09,34.752,286.09Z" transform="translate(-11.853 0.001)"/>
</svg>
