<svg xmlns="http://www.w3.org/2000/svg" xmlns:xlink="http://www.w3.org/1999/xlink" width="57" height="42" viewBox="0 0 57 42">
  <defs>
    <clipPath id="clip-path">
      <rect id="Rectangle_5" data-name="Rectangle 5" width="57" height="42" transform="translate(1912 -1122)" fill="#fff" stroke="#707070" stroke-width="1"/>
    </clipPath>
  </defs>
  <g id="Mask_Group_3" data-name="Mask Group 3" transform="translate(-1912 1122)" clip-path="url(#clip-path)">
    <g id="noun-schedule-6390862" transform="translate(1912 -1122)">
      <g id="Group_92" data-name="Group 92" transform="translate(1.473 0)">
        <path id="Path_69" data-name="Path 69" d="M52.053,131.43H57.4a.893.893,0,0,1,.893.893v2.518H60.5a6.336,6.336,0,0,1,6.321,6.32V146.6a.893.893,0,0,1-1.786,0v-2.842H22.947v20.021a4.543,4.543,0,0,0,4.535,4.534H53.618a.893.893,0,1,1,0,1.786H27.482a6.337,6.337,0,0,1-6.322-6.32V141.16a6.336,6.336,0,0,1,6.322-6.32h2.206v-2.518a.893.893,0,0,1,.893-.893h5.349a.894.894,0,0,1,.894.893v2.518H51.16v-2.518A.893.893,0,0,1,52.053,131.43Zm4.456,1.786H52.946v5.036h3.563v-5.036Zm-21.472,0H31.474v5.036h3.563v-5.036Zm1.672,24.272h5.154a.893.893,0,0,1,.893.893v5.154a.893.893,0,0,1-.893.893H36.709a.893.893,0,0,1-.893-.893v-5.154A.893.893,0,0,1,36.709,157.488Zm-9.412,0h5.154a.893.893,0,0,1,.893.893v5.154a.893.893,0,0,1-.893.893H27.3a.893.893,0,0,1-.893-.893v-5.154A.893.893,0,0,1,27.3,157.488Zm18.823-9.842h5.154a.893.893,0,0,1,.893.893v5.154a.893.893,0,0,1-.893.893H46.121a.893.893,0,0,1-.894-.893v-5.154a.894.894,0,0,1,.894-.893Zm-9.412,0h5.154a.893.893,0,0,1,.893.893v5.154a.893.893,0,0,1-.893.893H36.709a.893.893,0,0,1-.893-.893v-5.154a.893.893,0,0,1,.893-.893Zm-9.412,0h5.154a.893.893,0,0,1,.893.893v5.154a.893.893,0,0,1-.893.893H27.3a.893.893,0,0,1-.893-.893v-5.154a.893.893,0,0,1,.893-.893Zm37.74,8.1a.893.893,0,0,1,1.786,0v4.736l1.956,1.955a.893.893,0,0,1-1.263,1.263L65.3,161.484a.889.889,0,0,1-.262-.631Zm9.5,6a.893.893,0,0,1,0-1.786h.774a9.423,9.423,0,0,0-8.491-8.49v.773a.893.893,0,0,1-1.786,0v-.773a9.427,9.427,0,0,0-8.489,8.49h.773a.893.893,0,0,1,0,1.786h-.773a9.42,9.42,0,0,0,8.49,8.49v-.773a.893.893,0,1,1,1.786,0v.773a9.425,9.425,0,0,0,8.49-8.489Zm-8.61-12.1A11.209,11.209,0,1,1,58,152.925,11.189,11.189,0,0,1,65.93,149.642Z" transform="translate(-21.16 -131.43)"/>
      </g>
      <text id="Created_by_EX_Liberus" data-name="Created by EX Liberus" transform="translate(0 51.475)" font-size="1" font-family="Arial-BoldMT, Arial" font-weight="700"><tspan x="0" y="0">Created by EX Liberus</tspan></text>
      <text id="from_the_Noun_Project" data-name="from the Noun Project" transform="translate(0 51.823)" font-size="1" font-family="Arial-BoldMT, Arial" font-weight="700"><tspan x="0" y="0">from the Noun Project</tspan></text>
    </g>
  </g>
</svg>
