<svg id="male-hair-on-man-head-side-silhouette-svgrepo-com" xmlns="http://www.w3.org/2000/svg" width="290.793" height="377.162" viewBox="0 0 290.793 377.162">
  <path id="Path_1" data-name="Path 1" d="M304.365,142.691c1.273-7.234,7.064-10.679,8.7-12.483s5.465-21.427-15.74-52.652A151.07,151.07,0,0,0,277.59,53.63l8.571-15.986S227.646-19.428,134.189,6.974c-39.241,21.4-96.313,57.06-90.608,143.395S109.93,270.947,109.93,270.947l8.922-8.21c4.565,6.213,7.053,10.907,4.928,14C117.643,285.66,100.1,376.975,100.1,376.975l140.418.187s-11.479-6.481-18.964-15.075c-5.15-5.885,1.553-17.516,8.991-37.67,1-2.732,7.088,1.156,10.988-8.069,3.912-9.19-3.854-13.813-2.932-16.581.818-2.441,1.425-2.137,1.927-4.076,1.04-5.616,3.573-8.968,7.03-10.965,52.336,1.576,65.976-1.016,53.037-37.273,1.67-1.541,11.035-7.6,13.02-11.957,2-4.32-2.721-5.418-2.721-5.418s3.434.176,5.979-3.795c2.522-3.982-4.344-19.547-4.344-19.547s17.376-3.784,21.159-10.312S303.093,149.914,304.365,142.691Z" transform="translate(-43.184 0)"/>
</svg>
