<svg xmlns="http://www.w3.org/2000/svg" xmlns:xlink="http://www.w3.org/1999/xlink" width="102" height="117" viewBox="0 0 102 117">
  <defs>
    <clipPath id="clip-path">
      <rect id="Rectangle_8005" data-name="Rectangle 8005" width="102" height="117" transform="translate(-0.104)" fill="#848484" stroke="#707070" stroke-width="1"/>
    </clipPath>
  </defs>
  <g id="Mask_Group_9" data-name="Mask Group 9" transform="translate(0.104)" clip-path="url(#clip-path)">
    <g id="Group_1053" data-name="Group 1053" transform="translate(0.463 5.705)">
      <g id="noun-medical-5140088">
        <path id="Path_55454" data-name="Path 55454" d="M65.082,63.343v24.5c0,11.745,8.466,20.6,19.693,20.6,10.469,0,18.168-8.05,18.711-19.321h0a1.7,1.7,0,0,0,.034-.333V53.78c0-5.544,4.61-10.593,9.672-10.593s9.672,5.049,9.672,10.593v3.65h0a9.324,9.324,0,1,0,10.966-.754v-3.84a20.634,20.634,0,0,0-36.211-13.5,30.579,30.579,0,0,0,.217-3.617V34.8a5.5,5.5,0,0,0-2.858-5.139v-17.8c0-4.912-2.879-7.845-7.7-7.845A1.7,1.7,0,0,0,87,4.045C86.343,1.655,84.723,0,82.775,0c-2.543,0-4.536,2.821-4.536,6.421s1.993,6.421,4.536,6.421c2.306,0,4.154-2.322,4.48-5.437h.019c1.853,0,4.315.46,4.315,4.454v17.49a5.465,5.465,0,0,0-3.772,5.558v.812c0,10.351-7.416,18.155-17.25,18.155s-17.25-7.8-17.25-18.154V34.8a5.419,5.419,0,0,0-3.362-5.359v-18c0-2.942,1.12-4.036,4.131-4.036h.02c.326,3.116,2.173,5.437,4.48,5.437,2.543,0,4.536-2.821,4.536-6.42S61.126,0,58.583,0c-1.947,0-3.568,1.655-4.223,4.045a1.7,1.7,0,0,0-.277-.028c-4.849,0-7.52,2.637-7.52,7.425V29.527A5.538,5.538,0,0,0,43.3,34.91v.812c0,13.71,9.075,25.092,21.786,27.621ZM82.775,9.45c-.285,0-1.147-1.075-1.147-3.031s.861-3.032,1.146-3.032,1.148,1.075,1.148,3.032S83.061,9.45,82.775,9.45ZM58.582,3.387c.285,0,1.147,1.075,1.147,3.032s-.862,3.032-1.147,3.032-1.148-1.076-1.148-3.032S58.3,3.387,58.582,3.387ZM128.865,70.4a5.916,5.916,0,1,1,4.182-1.717,5.916,5.916,0,0,1-4.182,1.717ZM113.189,35.623a17.249,17.249,0,0,1,17.25,17.211v2.544a9.034,9.034,0,0,0-4.189.235V53.778c0-7.448-6.1-13.982-13.061-13.982s-13.061,6.534-13.061,13.982V87.845c0,10.133-6.314,17.21-15.356,17.21-9.294,0-16.3-7.4-16.3-17.21V70.5h4.189V87.845a1.673,1.673,0,0,0,.064.436c.56,6.412,4.975,12.6,12.05,12.6,7.672,0,11.167-7.248,11.167-13.982V52.833a17.25,17.25,0,0,1,17.25-17.21Zm-20.64,17.21V86.9c0,5.1-2.434,10.594-7.778,10.594-5.462,0-8.725-5.386-8.725-10.594V63.34a26.547,26.547,0,0,0,16.51-10.756c0,.082-.007.165-.007.248ZM46.682,34.907c0-1.371.632-2.107,1.319-2.3a1.425,1.425,0,0,0,.654-.027c.774.157,1.253.985,1.269,2.235v.907c0,12.081,9.065,21.544,20.64,21.544S91.2,47.8,91.2,35.719v-.812c0-1.617.876-2.358,1.691-2.363H92.9c.933,0,1.523.872,1.542,2.279v.9c0,12.727-8.36,22.807-20.332,24.515h0a1.694,1.694,0,0,0-1.455,1.677v5.2H68.467v-5.2a1.7,1.7,0,0,0-1.455-1.678c-11.971-1.707-20.33-11.788-20.33-24.515Z" transform="translate(-36.599)"/>
        <path id="Path_55455" data-name="Path 55455" d="M225.128,133.724a3.268,3.268,0,1,1-3.268-3.25,3.268,3.268,0,0,1,3.268,3.25" transform="translate(-129.593 -69.212)"/>
        <path id="Path_55456" data-name="Path 55456" d="M86.69,61.506a1.7,1.7,0,0,0,1.694-1.694v-9.32H97.7a1.694,1.694,0,1,0,0-3.389H88.38v-9.32a1.694,1.694,0,1,0-3.389,0V47.1h-9.32a1.694,1.694,0,0,0,0,3.389H85v9.32a1.7,1.7,0,0,0,1.69,1.7Z" transform="translate(-52.882 -19.144)"/>
        <g id="Group_930" data-name="Group 930" transform="translate(0.13 118.012)">
          <path id="Path_55457" data-name="Path 55457" d="M3.077-3.721a1.978,1.978,0,0,1-.46.172,2.107,2.107,0,0,1-.493.057A1.7,1.7,0,0,1,.9-3.921,1.544,1.544,0,0,1,.451-5.092,1.54,1.54,0,0,1,.9-6.263,1.692,1.692,0,0,1,2.124-6.7a2.107,2.107,0,0,1,.493.057,2.049,2.049,0,0,1,.46.172v.638a1.74,1.74,0,0,0-.436-.221,1.476,1.476,0,0,0-.454-.07.858.858,0,0,0-.672.272,1.092,1.092,0,0,0-.242.753,1.086,1.086,0,0,0,.242.75.858.858,0,0,0,.672.272,1.454,1.454,0,0,0,.454-.07,1.691,1.691,0,0,0,.436-.221Z" transform="translate(-0.451 6.696)"/>
        </g>
        <g id="Group_931" data-name="Group 931" transform="translate(3.384 118.783)">
          <path id="Path_55458" data-name="Path 55458" d="M2.479-4.366a.948.948,0,0,0-.194-.067.785.785,0,0,0-.194-.024.541.541,0,0,0-.439.185.787.787,0,0,0-.154.523V-2.68H.761V-5H1.5v.381a.927.927,0,0,1,.327-.33.892.892,0,0,1,.445-.106h.082l.127.012Z" transform="translate(-0.761 5.052)"/>
        </g>
        <g id="Group_932" data-name="Group 932" transform="translate(5.297 118.783)">
          <path id="Path_55459" data-name="Path 55459" d="M2.874-3.845v.212H1.143a.548.548,0,0,0,.188.39.7.7,0,0,0,.451.13,1.728,1.728,0,0,0,.478-.07,2.54,2.54,0,0,0,.5-.209v.572a3.345,3.345,0,0,1-.527.148,2.76,2.76,0,0,1-.527.051,1.4,1.4,0,0,1-.977-.318,1.159,1.159,0,0,1-.348-.9,1.166,1.166,0,0,1,.342-.89,1.31,1.31,0,0,1,.944-.327,1.174,1.174,0,0,1,.871.33,1.182,1.182,0,0,1,.33.877ZM2.111-4.09a.466.466,0,0,0-.124-.339.419.419,0,0,0-.321-.13.51.51,0,0,0-.351.121.559.559,0,0,0-.166.348Z" transform="translate(-0.387 5.052)"/>
        </g>
        <g id="Group_933" data-name="Group 933" transform="translate(8.171 118.783)">
          <path id="Path_55460" data-name="Path 55460" d="M1.6-3.724a.638.638,0,0,0-.351.079.263.263,0,0,0-.115.233.277.277,0,0,0,.094.221.394.394,0,0,0,.263.079.467.467,0,0,0,.351-.148.531.531,0,0,0,.142-.378v-.085ZM2.732-4v1.32H1.984v-.342a.956.956,0,0,1-.336.306.973.973,0,0,1-.454.1A.821.821,0,0,1,.61-2.825a.717.717,0,0,1-.224-.548.671.671,0,0,1,.278-.6,1.6,1.6,0,0,1,.884-.191h.436V-4.22a.278.278,0,0,0-.139-.257.885.885,0,0,0-.433-.082,1.952,1.952,0,0,0-.442.048,1.412,1.412,0,0,0-.381.142v-.566a4.568,4.568,0,0,1,.478-.088,3.912,3.912,0,0,1,.481-.03,1.348,1.348,0,0,1,.9.248,1.021,1.021,0,0,1,.278.8Z" transform="translate(-0.387 5.052)"/>
        </g>
        <g id="Group_934" data-name="Group 934" transform="translate(10.902 118.181)">
          <path id="Path_55461" data-name="Path 55461" d="M1.226-6.335v.657h.763v.53H1.226v.983a.288.288,0,0,0,.064.218.4.4,0,0,0,.254.057h.381v.53H1.29a.871.871,0,0,1-.623-.182.871.871,0,0,1-.182-.623v-.983H.116v-.53H.485v-.657Z" transform="translate(-0.116 6.335)"/>
        </g>
        <g id="Group_935" data-name="Group 935" transform="translate(13.054 118.783)">
          <path id="Path_55462" data-name="Path 55462" d="M2.874-3.845v.212H1.143a.548.548,0,0,0,.188.39.7.7,0,0,0,.451.13,1.728,1.728,0,0,0,.478-.07,2.54,2.54,0,0,0,.5-.209v.572a3.345,3.345,0,0,1-.527.148,2.76,2.76,0,0,1-.527.051,1.4,1.4,0,0,1-.977-.318,1.159,1.159,0,0,1-.348-.9,1.166,1.166,0,0,1,.342-.89,1.31,1.31,0,0,1,.944-.327,1.174,1.174,0,0,1,.871.33,1.182,1.182,0,0,1,.33.877ZM2.111-4.09a.466.466,0,0,0-.124-.339.419.419,0,0,0-.321-.13.51.51,0,0,0-.351.121.559.559,0,0,0-.166.348Z" transform="translate(-0.387 5.052)"/>
        </g>
        <g id="Group_936" data-name="Group 936" transform="translate(15.936 117.936)">
          <path id="Path_55463" data-name="Path 55463" d="M2.146-5.616V-6.857h.747v3.22H2.146v-.336a1,1,0,0,1-.336.3.937.937,0,0,1-.427.094.864.864,0,0,1-.7-.339,1.353,1.353,0,0,1-.275-.877,1.342,1.342,0,0,1,.275-.874.863.863,0,0,1,.7-.342.91.91,0,0,1,.427.1,1,1,0,0,1,.336.3Zm-.487,1.5a.42.42,0,0,0,.363-.172.87.87,0,0,0,.124-.5A.863.863,0,0,0,2.022-5.3a.42.42,0,0,0-.363-.172A.416.416,0,0,0,1.3-5.3a.858.858,0,0,0-.124.5A.864.864,0,0,0,1.3-4.29a.416.416,0,0,0,.359.175Z" transform="translate(-0.406 6.857)"/>
        </g>
        <g id="Group_937" data-name="Group 937" transform="translate(20.611 117.936)">
          <path id="Path_55464" data-name="Path 55464" d="M1.992-4.115a.42.42,0,0,0,.363-.172.87.87,0,0,0,.124-.505A.863.863,0,0,0,2.355-5.3a.42.42,0,0,0-.363-.172.425.425,0,0,0-.366.176.84.84,0,0,0-.127.5.852.852,0,0,0,.127.505.427.427,0,0,0,.366.172ZM1.5-5.616a1.011,1.011,0,0,1,.339-.3.924.924,0,0,1,.43-.1.864.864,0,0,1,.7.342,1.346,1.346,0,0,1,.275.874,1.357,1.357,0,0,1-.275.877.865.865,0,0,1-.7.339.924.924,0,0,1-.43-.1,1.03,1.03,0,0,1-.339-.3v.336H.76v-3.22H1.5Z" transform="translate(-0.76 6.857)"/>
        </g>
        <g id="Group_938" data-name="Group 938" transform="translate(23.337 118.838)">
          <path id="Path_55465" data-name="Path 55465" d="M.11-4.936H.851l.623,1.573L2-4.936h.738L1.768-2.4a1.226,1.226,0,0,1-.342.542A.8.8,0,0,1,.911-1.7H.482v-.484H.715a.48.48,0,0,0,.272-.061A.383.383,0,0,0,1.12-2.46l.021-.067Z" transform="translate(-0.11 4.936)"/>
        </g>
        <g id="Group_939" data-name="Group 939" transform="translate(27.733 118.012)">
          <path id="Path_55466" data-name="Path 55466" d="M3.077-3.721a1.978,1.978,0,0,1-.46.172,2.107,2.107,0,0,1-.493.057A1.7,1.7,0,0,1,.9-3.921,1.544,1.544,0,0,1,.451-5.092,1.54,1.54,0,0,1,.9-6.263,1.692,1.692,0,0,1,2.124-6.7a2.107,2.107,0,0,1,.493.057,2.049,2.049,0,0,1,.46.172v.638a1.74,1.74,0,0,0-.436-.221,1.476,1.476,0,0,0-.454-.07.858.858,0,0,0-.672.272,1.092,1.092,0,0,0-.242.753,1.086,1.086,0,0,0,.242.75.858.858,0,0,0,.672.272,1.454,1.454,0,0,0,.454-.07,1.691,1.691,0,0,0,.436-.221Z" transform="translate(-0.451 6.696)"/>
        </g>
        <g id="Group_940" data-name="Group 940" transform="translate(30.988 118.783)">
          <path id="Path_55467" data-name="Path 55467" d="M2.479-4.366a.948.948,0,0,0-.194-.067.785.785,0,0,0-.194-.024.541.541,0,0,0-.439.185.787.787,0,0,0-.154.523V-2.68H.761V-5H1.5v.381a.927.927,0,0,1,.327-.33.892.892,0,0,1,.445-.106h.082l.127.012Z" transform="translate(-0.761 5.052)"/>
        </g>
        <g id="Group_941" data-name="Group 941" transform="translate(32.902 118.783)">
          <path id="Path_55468" data-name="Path 55468" d="M2.874-3.845v.212H1.143a.548.548,0,0,0,.188.39.7.7,0,0,0,.451.13,1.728,1.728,0,0,0,.478-.07,2.54,2.54,0,0,0,.5-.209v.572a3.345,3.345,0,0,1-.527.148,2.76,2.76,0,0,1-.527.051,1.4,1.4,0,0,1-.977-.318,1.159,1.159,0,0,1-.348-.9,1.166,1.166,0,0,1,.342-.89,1.31,1.31,0,0,1,.944-.327,1.174,1.174,0,0,1,.871.33,1.182,1.182,0,0,1,.33.877ZM2.111-4.09a.466.466,0,0,0-.124-.339.419.419,0,0,0-.321-.13.51.51,0,0,0-.351.121.559.559,0,0,0-.166.348Z" transform="translate(-0.387 5.052)"/>
        </g>
        <g id="Group_942" data-name="Group 942" transform="translate(35.775 118.783)">
          <path id="Path_55469" data-name="Path 55469" d="M1.6-3.724a.638.638,0,0,0-.351.079.263.263,0,0,0-.115.233.277.277,0,0,0,.094.221.394.394,0,0,0,.263.079.467.467,0,0,0,.351-.148.531.531,0,0,0,.142-.378v-.085ZM2.732-4v1.32H1.984v-.342a.956.956,0,0,1-.336.306.973.973,0,0,1-.454.1A.821.821,0,0,1,.61-2.825a.717.717,0,0,1-.224-.548.671.671,0,0,1,.278-.6,1.6,1.6,0,0,1,.884-.191h.436V-4.22a.278.278,0,0,0-.139-.257.885.885,0,0,0-.433-.082,1.952,1.952,0,0,0-.442.048,1.412,1.412,0,0,0-.381.142v-.566a4.568,4.568,0,0,1,.478-.088,3.912,3.912,0,0,1,.481-.03,1.348,1.348,0,0,1,.9.248,1.021,1.021,0,0,1,.278.8Z" transform="translate(-0.387 5.052)"/>
        </g>
        <g id="Group_943" data-name="Group 943" transform="translate(38.506 118.181)">
          <path id="Path_55470" data-name="Path 55470" d="M1.226-6.335v.657h.763v.53H1.226v.983a.288.288,0,0,0,.064.218.4.4,0,0,0,.254.057h.381v.53H1.29a.871.871,0,0,1-.623-.182.871.871,0,0,1-.182-.623v-.983H.116v-.53H.485v-.657Z" transform="translate(-0.116 6.335)"/>
        </g>
        <g id="Group_944" data-name="Group 944" transform="translate(40.834 117.936)">
          <path id="Path_55471" data-name="Path 55471" d="M.76-5.955H1.5v2.318H.76Zm0-.9H1.5v.605H.76Z" transform="translate(-0.76 6.857)"/>
        </g>
        <g id="Group_945" data-name="Group 945" transform="translate(41.992 118.838)">
          <path id="Path_55472" data-name="Path 55472" d="M.135-4.936H.877l.578,1.6.575-1.6h.741L1.86-2.619H1.046Z" transform="translate(-0.135 4.936)"/>
        </g>
        <g id="Group_946" data-name="Group 946" transform="translate(44.872 118.783)">
          <path id="Path_55473" data-name="Path 55473" d="M2.874-3.845v.212H1.143a.548.548,0,0,0,.188.39.7.7,0,0,0,.451.13,1.728,1.728,0,0,0,.478-.07,2.54,2.54,0,0,0,.5-.209v.572a3.345,3.345,0,0,1-.527.148,2.76,2.76,0,0,1-.527.051,1.4,1.4,0,0,1-.977-.318,1.159,1.159,0,0,1-.348-.9,1.166,1.166,0,0,1,.342-.89,1.31,1.31,0,0,1,.944-.327,1.174,1.174,0,0,1,.871.33,1.182,1.182,0,0,1,.33.877ZM2.111-4.09a.466.466,0,0,0-.124-.339.419.419,0,0,0-.321-.13.51.51,0,0,0-.351.121.559.559,0,0,0-.166.348Z" transform="translate(-0.387 5.052)"/>
        </g>
        <g id="Group_947" data-name="Group 947" transform="translate(49.428 118.066)">
          <path id="Path_55474" data-name="Path 55474" d="M.831-6.58H1.842l.7,1.655L3.255-6.58H4.266v3.09H3.512V-5.747L2.8-4.083H2.3L1.585-5.747V-3.49H.831Z" transform="translate(-0.831 6.58)"/>
        </g>
        <g id="Group_948" data-name="Group 948" transform="translate(53.435 118.783)">
          <path id="Path_55475" data-name="Path 55475" d="M1.6-3.724a.638.638,0,0,0-.351.079.263.263,0,0,0-.115.233.277.277,0,0,0,.094.221.394.394,0,0,0,.263.079.467.467,0,0,0,.351-.148.531.531,0,0,0,.142-.378v-.085ZM2.732-4v1.32H1.984v-.342a.956.956,0,0,1-.336.306.973.973,0,0,1-.454.1A.821.821,0,0,1,.61-2.825a.717.717,0,0,1-.224-.548.671.671,0,0,1,.278-.6,1.6,1.6,0,0,1,.884-.191h.436V-4.22a.278.278,0,0,0-.139-.257.885.885,0,0,0-.433-.082,1.952,1.952,0,0,0-.442.048,1.412,1.412,0,0,0-.381.142v-.566a4.568,4.568,0,0,1,.478-.088,3.912,3.912,0,0,1,.481-.03,1.348,1.348,0,0,1,.9.248,1.021,1.021,0,0,1,.278.8Z" transform="translate(-0.387 5.052)"/>
        </g>
        <g id="Group_949" data-name="Group 949" transform="translate(56.469 117.936)">
          <path id="Path_55476" data-name="Path 55476" d="M3.087-5.047v1.41H2.343V-4.711a3.808,3.808,0,0,0-.015-.418A.431.431,0,0,0,2.282-5.3a.3.3,0,0,0-.118-.112.333.333,0,0,0-.169-.042.426.426,0,0,0-.363.182.807.807,0,0,0-.133.493v1.141H.76v-3.22H1.5v1.241a1.139,1.139,0,0,1,.357-.3.893.893,0,0,1,.415-.1.748.748,0,0,1,.608.248,1.074,1.074,0,0,1,.209.714Z" transform="translate(-0.76 6.857)"/>
        </g>
        <g id="Group_950" data-name="Group 950" transform="translate(59.485 117.936)">
          <path id="Path_55477" data-name="Path 55477" d="M.76-5.955H1.5v2.318H.76Zm0-.9H1.5v.605H.76Z" transform="translate(-0.76 6.857)"/>
        </g>
        <g id="Group_951" data-name="Group 951" transform="translate(60.937 118.783)">
          <path id="Path_55478" data-name="Path 55478" d="M2.479-4.366a.948.948,0,0,0-.194-.067.785.785,0,0,0-.194-.024.541.541,0,0,0-.439.185.787.787,0,0,0-.154.523V-2.68H.761V-5H1.5v.381a.927.927,0,0,1,.327-.33.892.892,0,0,1,.445-.106h.082l.127.012Z" transform="translate(-0.761 5.052)"/>
        </g>
        <g id="Group_952" data-name="Group 952" transform="translate(62.851 118.783)">
          <path id="Path_55479" data-name="Path 55479" d="M1.6-3.724a.638.638,0,0,0-.351.079.263.263,0,0,0-.115.233.277.277,0,0,0,.094.221.394.394,0,0,0,.263.079.467.467,0,0,0,.351-.148.531.531,0,0,0,.142-.378v-.085ZM2.732-4v1.32H1.984v-.342a.956.956,0,0,1-.336.306.973.973,0,0,1-.454.1A.821.821,0,0,1,.61-2.825a.717.717,0,0,1-.224-.548.671.671,0,0,1,.278-.6,1.6,1.6,0,0,1,.884-.191h.436V-4.22a.278.278,0,0,0-.139-.257.885.885,0,0,0-.433-.082,1.952,1.952,0,0,0-.442.048,1.412,1.412,0,0,0-.381.142v-.566a4.568,4.568,0,0,1,.478-.088,3.912,3.912,0,0,1,.481-.03,1.348,1.348,0,0,1,.9.248,1.021,1.021,0,0,1,.278.8Z" transform="translate(-0.387 5.052)"/>
        </g>
        <g id="Group_953" data-name="Group 953" transform="translate(0 122.172)">
          <path id="Path_55480" data-name="Path 55480" d="M1.971-6.857v.487H1.563a.332.332,0,0,0-.221.057.263.263,0,0,0-.061.2v.16h.632v.53H1.281v1.788H.54V-5.426H.174v-.53H.54v-.16a.7.7,0,0,1,.212-.56.986.986,0,0,1,.654-.182Z" transform="translate(-0.174 6.857)"/>
        </g>
        <g id="Group_954" data-name="Group 954" transform="translate(2.118 123.019)">
          <path id="Path_55481" data-name="Path 55481" d="M2.479-4.366a.948.948,0,0,0-.194-.067.785.785,0,0,0-.194-.024.541.541,0,0,0-.439.185.787.787,0,0,0-.154.523V-2.68H.761V-5H1.5v.381a.927.927,0,0,1,.327-.33.892.892,0,0,1,.445-.106h.082l.127.012Z" transform="translate(-0.761 5.052)"/>
        </g>
        <g id="Group_955" data-name="Group 955" transform="translate(4.032 123.019)">
          <path id="Path_55482" data-name="Path 55482" d="M1.664-4.523a.436.436,0,0,0-.375.179.844.844,0,0,0-.13.508.855.855,0,0,0,.13.511.437.437,0,0,0,.375.175.427.427,0,0,0,.369-.175.861.861,0,0,0,.13-.511.849.849,0,0,0-.13-.508A.426.426,0,0,0,1.664-4.523Zm0-.53a1.289,1.289,0,0,1,.932.324,1.172,1.172,0,0,1,.339.893,1.181,1.181,0,0,1-.339.9,1.294,1.294,0,0,1-.932.321A1.308,1.308,0,0,1,.726-2.94a1.178,1.178,0,0,1-.339-.9,1.169,1.169,0,0,1,.339-.893,1.3,1.3,0,0,1,.938-.319Z" transform="translate(-0.387 5.052)"/>
        </g>
        <g id="Group_956" data-name="Group 956" transform="translate(7.111 123.019)">
          <path id="Path_55483" data-name="Path 55483" d="M2.9-4.611a1.016,1.016,0,0,1,.333-.33.84.84,0,0,1,.427-.112.752.752,0,0,1,.608.248,1.074,1.074,0,0,1,.209.714v1.41H3.731V-4.027a.676.676,0,0,0-.073-.357.258.258,0,0,0-.23-.116.369.369,0,0,0-.328.18.957.957,0,0,0-.118.5v1.14H2.239V-3.888a1.169,1.169,0,0,0-.067-.5A.253.253,0,0,0,1.937-4.5a.376.376,0,0,0-.33.175.906.906,0,0,0-.115.5V-2.68H.748V-5h.744v.339A.975.975,0,0,1,1.8-4.953a.79.79,0,0,1,.393-.1.788.788,0,0,1,.424.115.725.725,0,0,1,.278.327Z" transform="translate(-0.748 5.053)"/>
        </g>
        <g id="Group_957" data-name="Group 957" transform="translate(12.704 122.417)">
          <path id="Path_55484" data-name="Path 55484" d="M1.226-6.335v.657h.763v.53H1.226v.983a.288.288,0,0,0,.064.218.4.4,0,0,0,.254.057h.381v.53H1.29a.871.871,0,0,1-.623-.182.871.871,0,0,1-.182-.623v-.983H.116v-.53H.485v-.657Z" transform="translate(-0.116 6.335)"/>
        </g>
        <g id="Group_958" data-name="Group 958" transform="translate(15.032 122.172)">
          <path id="Path_55485" data-name="Path 55485" d="M3.087-5.047v1.41H2.343V-4.711a3.808,3.808,0,0,0-.015-.418A.431.431,0,0,0,2.282-5.3a.3.3,0,0,0-.118-.112.333.333,0,0,0-.169-.042.426.426,0,0,0-.363.182.807.807,0,0,0-.133.493v1.141H.76v-3.22H1.5v1.241a1.139,1.139,0,0,1,.357-.3.893.893,0,0,1,.415-.1.748.748,0,0,1,.608.248,1.074,1.074,0,0,1,.209.714Z" transform="translate(-0.76 6.857)"/>
        </g>
        <g id="Group_959" data-name="Group 959" transform="translate(17.872 123.019)">
          <path id="Path_55486" data-name="Path 55486" d="M2.874-3.845v.212H1.143a.548.548,0,0,0,.188.39.7.7,0,0,0,.451.13,1.728,1.728,0,0,0,.478-.07,2.54,2.54,0,0,0,.5-.209v.572a3.345,3.345,0,0,1-.527.148,2.76,2.76,0,0,1-.527.051,1.4,1.4,0,0,1-.977-.318,1.159,1.159,0,0,1-.348-.9,1.166,1.166,0,0,1,.342-.89,1.31,1.31,0,0,1,.944-.327,1.174,1.174,0,0,1,.871.33,1.182,1.182,0,0,1,.33.877ZM2.111-4.09a.466.466,0,0,0-.124-.339.419.419,0,0,0-.321-.13.51.51,0,0,0-.351.121.559.559,0,0,0-.166.348Z" transform="translate(-0.387 5.052)"/>
        </g>
        <g id="Group_960" data-name="Group 960" transform="translate(22.428 122.302)">
          <path id="Path_55487" data-name="Path 55487" d="M.831-6.58h.887L2.843-4.461V-6.58H3.6v3.09H2.71L1.585-5.608V-3.49H.831Z" transform="translate(-0.831 6.58)"/>
        </g>
        <g id="Group_961" data-name="Group 961" transform="translate(25.765 123.019)">
          <path id="Path_55488" data-name="Path 55488" d="M1.664-4.523a.436.436,0,0,0-.375.179.844.844,0,0,0-.13.508.855.855,0,0,0,.13.511.437.437,0,0,0,.375.175.427.427,0,0,0,.369-.175.861.861,0,0,0,.13-.511.849.849,0,0,0-.13-.508A.426.426,0,0,0,1.664-4.523Zm0-.53a1.289,1.289,0,0,1,.932.324,1.172,1.172,0,0,1,.339.893,1.181,1.181,0,0,1-.339.9,1.294,1.294,0,0,1-.932.321A1.308,1.308,0,0,1,.726-2.94a1.178,1.178,0,0,1-.339-.9,1.169,1.169,0,0,1,.339-.893,1.3,1.3,0,0,1,.938-.319Z" transform="translate(-0.387 5.052)"/>
        </g>
        <g id="Group_962" data-name="Group 962" transform="translate(28.824 123.074)">
          <path id="Path_55489" data-name="Path 55489" d="M.7-3.52V-4.936h.744v1.089a3.6,3.6,0,0,0,.015.4.474.474,0,0,0,.048.179.31.31,0,0,0,.118.112.357.357,0,0,0,.169.039A.423.423,0,0,0,2.158-3.3a.816.816,0,0,0,.133-.5V-4.936h.741v2.318H2.291v-.336a1.145,1.145,0,0,1-.354.3.889.889,0,0,1-.412.1A.767.767,0,0,1,.911-2.8,1.084,1.084,0,0,1,.7-3.52Z" transform="translate(-0.702 4.936)"/>
        </g>
        <g id="Group_963" data-name="Group 963" transform="translate(31.867 123.019)">
          <path id="Path_55490" data-name="Path 55490" d="M3.087-4.09v1.41H2.343V-3.76a3.724,3.724,0,0,0-.015-.412.431.431,0,0,0-.045-.169.3.3,0,0,0-.118-.112.333.333,0,0,0-.17-.047.426.426,0,0,0-.363.182.807.807,0,0,0-.133.493V-2.68H.76V-5H1.5v.339a1.139,1.139,0,0,1,.357-.3.893.893,0,0,1,.415-.1.748.748,0,0,1,.608.248,1.074,1.074,0,0,1,.209.714Z" transform="translate(-0.76 5.052)"/>
        </g>
        <g id="Group_964" data-name="Group 964" transform="translate(36.39 122.302)">
          <path id="Path_55491" data-name="Path 55491" d="M.831-6.58h1.32a1.376,1.376,0,0,1,.9.263.908.908,0,0,1,.318.744.919.919,0,0,1-.318.75,1.384,1.384,0,0,1-.9.26H1.627V-3.49h-.8Zm.8.578v.862H2.07a.516.516,0,0,0,.357-.112.4.4,0,0,0,.127-.321.4.4,0,0,0-.127-.318A.519.519,0,0,0,2.066-6Z" transform="translate(-0.831 6.58)"/>
        </g>
        <g id="Group_965" data-name="Group 965" transform="translate(39.462 123.019)">
          <path id="Path_55492" data-name="Path 55492" d="M2.479-4.366a.948.948,0,0,0-.194-.067.785.785,0,0,0-.194-.024.541.541,0,0,0-.439.185.787.787,0,0,0-.154.523V-2.68H.761V-5H1.5v.381a.927.927,0,0,1,.327-.33.892.892,0,0,1,.445-.106h.082l.127.012Z" transform="translate(-0.761 5.052)"/>
        </g>
        <g id="Group_966" data-name="Group 966" transform="translate(41.376 123.019)">
          <path id="Path_55493" data-name="Path 55493" d="M1.664-4.523a.436.436,0,0,0-.375.179.844.844,0,0,0-.13.508.855.855,0,0,0,.13.511.437.437,0,0,0,.375.175.427.427,0,0,0,.369-.175.861.861,0,0,0,.13-.511.849.849,0,0,0-.13-.508A.426.426,0,0,0,1.664-4.523Zm0-.53a1.289,1.289,0,0,1,.932.324,1.172,1.172,0,0,1,.339.893,1.181,1.181,0,0,1-.339.9,1.294,1.294,0,0,1-.932.321A1.308,1.308,0,0,1,.726-2.94a1.178,1.178,0,0,1-.339-.9,1.169,1.169,0,0,1,.339-.893,1.3,1.3,0,0,1,.938-.319Z" transform="translate(-0.387 5.052)"/>
        </g>
        <g id="Group_967" data-name="Group 967" transform="translate(43.966 122.172)">
          <path id="Path_55494" data-name="Path 55494" d="M.2-5.955H.938V-3.68a1.021,1.021,0,0,1-.224.711.824.824,0,0,1-.645.245H-.3v-.484h.127a.361.361,0,0,0,.29-.1A.624.624,0,0,0,.2-3.68Zm0-.9H.938v.605H.2Z" transform="translate(0.296 6.857)"/>
        </g>
        <g id="Group_968" data-name="Group 968" transform="translate(45.738 123.019)">
          <path id="Path_55495" data-name="Path 55495" d="M2.874-3.845v.212H1.143a.548.548,0,0,0,.188.39.7.7,0,0,0,.451.13,1.728,1.728,0,0,0,.478-.07,2.54,2.54,0,0,0,.5-.209v.572a3.345,3.345,0,0,1-.527.148,2.76,2.76,0,0,1-.527.051,1.4,1.4,0,0,1-.977-.318,1.159,1.159,0,0,1-.348-.9,1.166,1.166,0,0,1,.342-.89,1.31,1.31,0,0,1,.944-.327,1.174,1.174,0,0,1,.871.33,1.182,1.182,0,0,1,.33.877ZM2.111-4.09a.466.466,0,0,0-.124-.339.419.419,0,0,0-.321-.13.51.51,0,0,0-.351.121.559.559,0,0,0-.166.348Z" transform="translate(-0.387 5.052)"/>
        </g>
        <g id="Group_969" data-name="Group 969" transform="translate(48.611 123.019)">
          <path id="Path_55496" data-name="Path 55496" d="M2.432-4.925v.605a1.217,1.217,0,0,0-.3-.151.98.98,0,0,0-.315-.051.635.635,0,0,0-.484.182.7.7,0,0,0-.172.505.7.7,0,0,0,.172.5.635.635,0,0,0,.484.182A1.013,1.013,0,0,0,2.142-3.2a.96.96,0,0,0,.29-.154v.605a1.82,1.82,0,0,1-.351.1,1.987,1.987,0,0,1-.36.033,1.406,1.406,0,0,1-.98-.321,1.152,1.152,0,0,1-.354-.9A1.144,1.144,0,0,1,.741-4.73a1.4,1.4,0,0,1,.98-.324,1.936,1.936,0,0,1,.357.033,2.074,2.074,0,0,1,.354.094Z" transform="translate(-0.387 5.052)"/>
        </g>
        <g id="Group_970" data-name="Group 970" transform="translate(50.996 122.417)">
          <path id="Path_55497" data-name="Path 55497" d="M1.226-6.335v.657h.763v.53H1.226v.983a.288.288,0,0,0,.064.218.4.4,0,0,0,.254.057h.381v.53H1.29a.871.871,0,0,1-.623-.182.871.871,0,0,1-.182-.623v-.983H.116v-.53H.485v-.657Z" transform="translate(-0.116 6.335)"/>
        </g>
      </g>
    </g>
  </g>
</svg>
