<svg xmlns="http://www.w3.org/2000/svg" xmlns:xlink="http://www.w3.org/1999/xlink" width="33" height="31" viewBox="0 0 33 31">
  <defs>
    <clipPath id="clip-path">
      <rect id="Rectangle_6" data-name="Rectangle 6" width="33" height="31" transform="translate(1981 -1144)" fill="#fff" stroke="#707070" stroke-width="1"/>
    </clipPath>
  </defs>
  <g id="Mask_Group_4" data-name="Mask Group 4" transform="translate(-1981 1144)" clip-path="url(#clip-path)">
    <g id="noun-price-range-4960922" transform="translate(1981 -1146.01)">
      <g id="Group_94" data-name="Group 94">
        <path id="Path_70" data-name="Path 70" d="M16.9,24.25a1.51,1.51,0,0,0,1.5-1.51V21.32a5.17,5.17,0,0,0,3.94-4.89c0-3.16-2.39-4.67-4.14-5.77C16.7,9.71,16,9.19,16,8.45a.52.52,0,0,1,.18-.4A1.15,1.15,0,0,1,17,7.78c.54,0,.86.25,1.5,1a1.49,1.49,0,0,0,2.12.15A1.52,1.52,0,0,0,20.8,6.8,5.6,5.6,0,0,0,18.4,5V3.51a1.5,1.5,0,0,0-3,0V5.06a4,4,0,0,0-1.27.78A3.56,3.56,0,0,0,13,8.45c0,2.49,2,3.75,3.6,4.76s2.74,1.8,2.74,3.22a2.18,2.18,0,0,1-2.21,2,3.33,3.33,0,0,1-2.92-2,1.48,1.48,0,0,0-2-.71,1.51,1.51,0,0,0-.71,2,6.49,6.49,0,0,0,3.9,3.43v1.52a1.5,1.5,0,0,0,1.5,1.58Z"/>
        <path id="Path_71" data-name="Path 71" d="M5,21.93a3,3,0,0,0-3,3v4a3,3,0,0,0,6,0V25a3,3,0,0,0-3-3.07ZM6,29a1,1,0,0,1-2,0V25a1,1,0,0,1,2,0Z"/>
        <path id="Path_72" data-name="Path 72" d="M29,21.93a3,3,0,0,0-3,3v.5H11.47a1.52,1.52,0,0,0,0,3H26V29a3,3,0,0,0,6,0V25a3,3,0,0,0-3-3.07ZM30,29a1,1,0,0,1-2,0V25a1,1,0,0,1,2,0Z"/>
      </g>
      <text id="Created_by_Martins_Ratkus" data-name="Created by Martins Ratkus" transform="translate(0 49)" font-size="5" font-family="Arial-BoldMT, Arial" font-weight="700"><tspan x="0" y="0">Created by Martins Ratkus</tspan></text>
      <text id="from_the_Noun_Project" data-name="from the Noun Project" transform="translate(0 54)" font-size="5" font-family="Arial-BoldMT, Arial" font-weight="700"><tspan x="0" y="0">from the Noun Project</tspan></text>
    </g>
  </g>
</svg>
