<?xml version="1.0" encoding="utf-8"?>
<!-- Svg Vector Icons : http://www.onlinewebfonts.com/icon -->
<!DOCTYPE svg PUBLIC "-//W3C//DTD SVG 1.1//EN" "http://www.w3.org/Graphics/SVG/1.1/DTD/svg11.dtd">
<svg version="1.1" xmlns="http://www.w3.org/2000/svg" xmlns:xlink="http://www.w3.org/1999/xlink" x="0px" y="0px" viewBox="0 0 256 256" enable-background="new 0 0 256 256" xml:space="preserve">
<metadata> Svg Vector Icons : http://www.onlinewebfonts.com/icon </metadata>
<g><g><g><path fill="#000000" d="M201.6,10.4c-6.8,1.3-12.1,4.2-17.6,9.7c-6.8,6.7-11.8,15.8-14.2,26l-0.8,3.3l-25.2,0.1l-25.3,0.1l-3.7,1.2c-7.8,2.7-6,1-54.8,49.8l-45.1,45l-1.9,3.9c-4.5,9.2-4,19.8,1.4,28.2c1.3,2.1,10.4,11.5,31.5,32.6c24.9,24.9,30.2,29.9,32.9,31.5c8.7,5,18.4,5.4,27.5,1l3.9-1.9l45-45.1c33.8-33.8,45.4-45.7,46.6-47.7c0.8-1.5,2.2-4.5,3-6.7c1.4-3.9,1.5-4.4,1.7-13.8l0.2-9.7l3.1-0.3c9.7-0.9,19.3-7.4,26-17.4c12.2-18.6,13.7-46.2,3.4-66.8c-4-8-10.6-15.6-17-19.3C216,10.7,208.1,9.2,201.6,10.4z M213.8,20.8c10.4,4,18.5,15.7,21.6,31.4c1.1,5.6,1.1,18.3,0,23.6c-3.2,15.1-10,25.6-19.3,30.3c-3.1,1.5-8.3,2.8-9.2,2.3c-0.2-0.1-0.4-8.8-0.4-19.3c0-16.2-0.1-19.4-0.7-21.6c-1.3-4.4-3.4-7.9-6.6-11c-4.7-4.6-10.2-6.9-16.5-6.9c-1.8,0-3.4-0.2-3.6-0.4c-0.3-0.6,2.3-8,4.2-11.7c4.6-9.1,10.9-15.1,18.5-17.3C204.8,19.2,210.6,19.6,213.8,20.8z M167.7,64.2v5.5l-2,1c-2.5,1.2-5.6,4.5-6.9,7.3c-1.3,3-1.3,8.3,0,11.3c2.4,5.3,7.5,8.8,13,8.8c5.4,0,9.1-1.7,12.4-6c2.7-3.5,3.4-8.7,1.8-13.3c-1-3-4.2-6.7-7-8l-2.1-1v-3c0-1.7,0.1-4.2,0.3-5.6l0.3-2.5l4,0.2c6.9,0.4,11.3,3.1,13.9,8.6l1.5,3.1v31.9c0,35.1,0.1,33.7-2.9,39.7c-1.5,3-4.8,6.4-45.5,47.2c-48,48-45.4,45.7-52,46.8c-3.8,0.6-8.1,0-11.7-1.8c-2.4-1.2-6.6-5.2-32.6-31.3c-27.8-27.8-29.9-30.1-31.1-32.8c-2.5-5.8-1.9-12.9,1.5-18.1c0.8-1.2,20.9-21.5,44.7-45.3l43.3-43.3l3.9-1.9c2.2-1.1,5.1-2.1,6.5-2.3s12.5-0.4,24.6-0.5l22,0L167.7,64.2L167.7,64.2z M174.6,79.3c1.5,0.8,2.8,2.8,2.8,4.4s-1.3,3.6-2.8,4.4c-0.7,0.4-1.8,0.7-2.3,0.7c-2.9,0-5.4-3-4.9-5.9C168,79.3,171.4,77.6,174.6,79.3z"/><path fill="#000000" d="M111.9,113.7c-7.6,1.5-12.9,7.4-13.4,14.8c-0.3,5.8,1.8,11.5,7.6,20.3c4,6,5.4,9.2,5.6,12.7c0.1,2.3,0,3-0.9,4.4c-1.7,2.4-3.7,3.3-7.2,3.1c-8-0.6-16-8.5-16.6-16.7c-0.2-2.5,0-3.1,1.2-5.4c1.8-3.4,1.8-5.1,0.1-6.9c-1.1-1.1-1.8-1.3-3.4-1.3c-2.5,0-4.1,1.3-6,5.4c-2.9,6.2-1.9,14.2,2.9,21.8c0.6,0.9,0.5,1.2-1.1,2.9c-2.3,2.5-2.4,5-0.4,7c2,2,4.5,1.9,7-0.4l1.8-1.7l3.1,1.7c4.8,2.5,7.6,3.3,12.1,3.3c5.1,0,8.4-1.2,11.8-4.3c7.7-7.1,7.1-16.4-2-30.3c-4.5-6.9-6.1-10.5-6.1-13.8c0-2.8,0.7-4.2,3-5.9c2-1.5,7.1-1.3,10.6,0.3c3.6,1.7,8.3,6.4,9.9,9.9c1.8,3.9,1.8,8.5,0,11c-1.8,2.5-1.8,4.9,0,6.7c1.1,1.1,1.8,1.3,3.4,1.3c1.7,0,2.3-0.2,3.5-1.5c5-5.3,5.5-13.9,1.2-22.6l-2.1-4.1l1.7-1.8c3.2-3.6,1.3-8.3-3.4-8.3c-1,0-2,0.5-3.3,1.7l-1.8,1.7l-3.8-1.9C121.4,113.7,116.5,112.8,111.9,113.7z"/></g></g></g>
</svg>