<svg width="187" height="47" viewBox="0 0 187 47" fill="none" xmlns="http://www.w3.org/2000/svg">
<path d="M16.9778 24.8606H10.6264L14.0464 13.6053L16.9778 24.8606ZM7.32854 37.229L9.52711 29.8079H18.0771L20.1535 37.229H28.0927L20.1535 9.02898C19.6649 7.42109 18.6878 6.5553 16.9778 6.5553H5.74069V9.15267H6.71783C7.93926 9.15267 8.54997 9.6474 8.54997 10.5132C8.54997 11.1316 8.42782 11.6264 7.93926 12.9869L0 37.229H7.32854Z" fill="black"/>
<path d="M37.2535 37.229V9.02896C37.2535 7.54474 36.3985 6.67896 34.9327 6.67896H28.0928V9.27632H28.5813C29.8028 9.27632 30.2913 9.77106 30.2913 11.0079V37.229H37.2535Z" fill="black"/>
<path d="M49.3456 37.229V9.02896C49.3456 7.54474 48.4906 6.67896 47.0249 6.67896H40.0627V9.27632H40.5513C41.7727 9.27632 42.2613 9.77106 42.2613 11.0079V37.229H49.3456Z" fill="black"/>
<path d="M61.8041 9.39999C61.8041 7.42105 60.3384 6.1842 57.7734 6.1842C55.2084 6.1842 53.7427 7.42105 53.7427 9.52368C53.7427 11.6263 55.3305 12.8632 57.7734 12.8632C60.3384 12.7395 61.8041 11.5026 61.8041 9.39999ZM61.6819 37.2289V16.6974C61.6819 15.2132 60.8269 14.3474 59.3612 14.3474H52.5212V16.9447H52.8877C54.1091 16.9447 54.5977 17.4395 54.5977 18.6763V37.2289H61.6819Z" fill="black"/>
<path d="M77.194 26.2211V30.6737C75.9726 31.9105 74.629 32.6526 73.4076 32.6526C72.1861 32.6526 71.6976 32.0342 71.6976 30.3026C71.6976 28.5711 72.064 27.829 73.2854 27.3342C74.2626 26.9632 75.484 26.5921 77.194 26.2211ZM67.6669 20.9026C69.9876 19.7895 72.5526 19.1711 74.629 19.1711C76.5833 19.1711 77.194 19.9132 77.194 21.8921V22.2632C74.2626 22.7579 73.4076 22.8816 71.8197 23.2526C70.8426 23.5 69.9876 23.7474 69.1326 24.1184C66.3233 25.2316 64.9797 27.4579 64.9797 30.9211C64.9797 35.25 66.8119 37.3526 70.7204 37.3526C72.064 37.3526 73.4076 37.1053 74.5068 36.6105C75.484 36.1158 76.0947 35.7447 77.5604 34.6316V35.0026C77.5604 36.3632 78.2933 37.1053 79.6368 37.1053H86.1104V34.6316H85.7439C84.5225 34.6316 84.0339 34.1368 84.0339 32.6526V21.7684C84.0339 15.9553 82.0797 13.9763 76.339 13.9763C74.5068 13.9763 72.6747 14.2237 70.9647 14.5947C69.1326 14.9658 68.2776 15.3368 66.2012 16.45L67.6669 20.9026Z" fill="black"/>
<path d="M96.3704 37.2289V21.7684C97.5918 20.4079 98.8132 19.7895 100.157 19.7895C101.623 19.7895 101.989 20.4079 101.989 22.6342V37.1053H109.073V21.6447C109.073 18.0579 108.829 16.8211 107.73 15.5842C106.752 14.4711 105.287 13.9763 103.455 13.9763C100.645 13.9763 98.6911 14.8421 96.1261 17.3158V16.45C96.1261 14.9658 95.3933 14.3474 93.9275 14.3474H87.2097V16.9447H87.5761C88.7976 16.9447 89.2861 17.4395 89.2861 18.6763V37.2289H96.3704Z" fill="black"/>
<path d="M130.082 32.4053H120.188L129.593 19.0474V14.3474H114.814C113.104 14.3474 112.371 15.0895 112.371 16.8211V21.0264H114.936V20.6553C114.936 19.5421 115.424 19.0474 116.646 19.0474H121.776L112.249 32.529V37.229H130.082V32.4053Z" fill="black"/>
<path d="M167.091 36.6105V10.6368C167.091 8.53421 166.358 7.91579 164.404 7.91579H158.419V10.7605H158.785C160.129 10.7605 160.373 11.1316 160.373 12.7395V36.4868H167.091V36.6105ZM170.022 36.6105H176.618V16.45C176.618 14.4711 175.885 13.7289 173.931 13.7289H170.022V36.6105V36.6105ZM157.442 36.6105V13.7289H153.533C151.579 13.7289 150.846 14.4711 150.846 16.45V36.6105H157.442ZM182.969 23.5C182.969 34.8789 174.908 43.1658 163.671 43.1658C152.556 43.1658 144.372 34.8789 144.372 23.5C144.494 12.1211 152.678 3.71053 163.793 3.71053C174.908 3.71053 182.969 12.1211 182.969 23.5ZM187 23.5C187 10.0184 177.107 0 163.793 0C150.479 0 140.586 10.0184 140.586 23.5C140.586 36.9816 150.479 47 163.793 47C177.107 47 187 36.9816 187 23.5Z" fill="black"/>
</svg>
