<svg xmlns="http://www.w3.org/2000/svg" width="61.928" height="61.883" viewBox="0 0 61.928 61.883">
  <path id="Path_54751" data-name="Path 54751" d="M123.257,40.166c-.417-3.288-7.413-11.812-10.546-12.073h0a9.109,9.109,0,0,0-5.03,1.154c-2.955,1.557-6.548,4.164-7.916,6.481-5,8.46.883,23.74,14.3,37.158,10.22,10.22,21.518,16.067,30.062,16.067a13.791,13.791,0,0,0,7.1-1.765c2.317-1.369,4.924-4.962,6.481-7.916a9.12,9.12,0,0,0,1.154-5.03c-.261-3.134-8.785-10.13-12.074-10.547-.787-.1-3.188-.4-10.354,5.909h0a.513.513,0,0,1-.655.013,113.881,113.881,0,0,1-9.7-8.74,113.789,113.789,0,0,1-8.74-9.7.51.51,0,0,1,.013-.654c6.313-7.169,6.009-9.567,5.91-10.355Zm-8.574,13.105a116.98,116.98,0,0,0,9,10,117.031,117.031,0,0,0,10,9,3.89,3.89,0,0,0,4.983-.127c4.912-4.325,7.251-5.137,7.7-5.093,1.866.236,8.55,5.757,9.135,7.532h0a5.867,5.867,0,0,1-.781,3.115c-1.5,2.853-3.791,5.744-5.209,6.582-5.871,3.47-19.45-.182-33.05-13.782s-17.25-27.178-13.78-33.049c.838-1.418,3.728-3.706,6.581-5.209h0a6.117,6.117,0,0,1,2.823-.791q.147,0,.293.01c1.775.585,7.3,7.268,7.532,9.134.05.476-.768,2.786-5.093,7.7a3.888,3.888,0,0,0-.127,4.984Z" transform="translate(-97.449 -27.574)" fill="#090808" stroke="#111010" stroke-width="1"/>
</svg>
