<svg width="279" height="64" viewBox="0 0 279 64" fill="none" xmlns="http://www.w3.org/2000/svg">
<path d="M36.3398 38.1125H22.745L30.0653 15.4247L36.3398 38.1125ZM15.6862 63.0441L20.3921 48.0851H38.6927L43.1371 63.0441H60.1306L43.1371 6.20006C42.0914 2.95896 39.9999 1.21375 36.3398 1.21375H12.2876V6.44938H14.379C16.9934 6.44938 18.3006 7.44664 18.3006 9.19185C18.3006 10.4384 18.0392 11.4357 16.9934 14.1782L0 63.0441H15.6862Z" fill="black"/>
<path d="M79.7384 63.0441V6.20007C79.7384 3.20828 77.9083 1.46307 74.7711 1.46307H60.1306V6.69871H61.1764C63.7907 6.69871 64.8365 7.69597 64.8365 10.1891V63.0441H79.7384Z" fill="black"/>
<path d="M105.621 63.0441V6.20007C105.621 3.20828 103.791 1.46307 100.653 1.46307H85.7515V6.69871H86.7972C89.4116 6.69871 90.4573 7.69597 90.4573 10.1891V63.0441H105.621Z" fill="black"/>
<path d="M132.287 6.94803C132.287 2.95898 129.15 0.46582 123.66 0.46582C118.17 0.46582 115.032 2.95898 115.032 7.19735C115.032 11.4357 118.431 13.9289 123.66 13.9289C129.15 13.6796 132.287 11.1864 132.287 6.94803ZM132.026 63.0441V21.6577C132.026 18.6659 130.196 16.9207 127.058 16.9207H112.418V22.1563H113.202C115.817 22.1563 116.862 23.1536 116.862 25.6467V63.0441H132.026Z" fill="black"/>
<path d="M165.228 40.855V49.8304C162.614 52.3235 159.738 53.8194 157.124 53.8194C154.509 53.8194 153.464 52.5728 153.464 49.0824C153.464 45.592 154.248 44.0961 156.862 43.0988C158.954 42.3509 161.568 41.6029 165.228 40.855ZM144.836 30.1344C149.804 27.8906 155.294 26.644 159.738 26.644C163.921 26.644 165.228 28.1399 165.228 32.1289V32.8769C158.954 33.8742 157.124 34.1235 153.725 34.8714C151.634 35.37 149.804 35.8687 147.973 36.6166C141.96 38.8605 139.085 43.3482 139.085 50.329C139.085 59.055 143.006 63.2934 151.372 63.2934C154.248 63.2934 157.124 62.7948 159.477 61.7975C161.568 60.8003 162.875 60.0523 166.013 57.8085V58.5564C166.013 61.2989 167.581 62.7948 170.457 62.7948H184.313V57.8085H183.529C180.915 57.8085 179.869 56.8112 179.869 53.8194V31.8796C179.869 20.1618 175.686 16.1727 163.398 16.1727C159.477 16.1727 155.555 16.6714 151.895 17.4193C147.973 18.1673 146.143 18.9152 141.699 21.159L144.836 30.1344Z" fill="black"/>
<path d="M206.274 63.0441V31.8796C208.888 29.1372 211.503 27.8906 214.379 27.8906C217.516 27.8906 218.3 29.1371 218.3 33.6248V62.7948H233.464V31.6303C233.464 24.4002 232.941 21.907 230.588 19.4138C228.496 17.17 225.359 16.1727 221.437 16.1727C215.424 16.1727 211.241 17.9179 205.751 22.9043V21.159C205.751 18.1673 204.183 16.9207 201.045 16.9207H186.666V22.1563H187.451C190.065 22.1563 191.111 23.1536 191.111 25.6467V63.0441H206.274Z" fill="black"/>
<path d="M278.431 53.3208H257.254L277.385 26.3947V16.9207H245.751C242.091 16.9207 240.522 18.4165 240.522 21.907V30.3837H246.012V29.6358C246.012 27.3919 247.058 26.3947 249.673 26.3947H260.653L240.261 53.5701V63.0441H278.431V53.3208Z" fill="black"/>
</svg>
