<svg width="401" height="95" viewBox="0 0 401 95" fill="none" xmlns="http://www.w3.org/2000/svg">
<g clip-path="url(#clip0_1_27)">
<path d="M36.945 50.3725H23.3503L30.6705 27.6847L36.945 50.3725ZM16.2915 75.304L20.9973 60.3451H39.2979L43.7424 75.304H60.7358L43.7424 18.46C42.6966 15.2189 40.6051 13.4737 36.945 13.4737H12.8928V18.7094H14.9843C17.5986 18.7094 18.9058 19.7066 18.9058 21.4518C18.9058 22.6984 18.6444 23.6957 17.5986 26.4381L0.605225 75.304H16.2915Z" fill="black"/>
<path d="M80.3436 75.3041V18.4601C80.3436 15.4683 78.5136 13.7231 75.3763 13.7231H60.7358V18.9587H61.7816C64.396 18.9587 65.4417 19.9559 65.4417 22.4491V75.3041H80.3436Z" fill="black"/>
<path d="M106.226 75.3041V18.4601C106.226 15.4683 104.396 13.7231 101.259 13.7231H86.3567V18.9587H87.4024C90.0168 18.9587 91.0626 19.9559 91.0626 22.4491V75.3041H106.226Z" fill="black"/>
<path d="M132.892 19.208C132.892 15.2189 129.755 12.7258 124.265 12.7258C118.775 12.7258 115.638 15.2189 115.638 19.4573C115.638 23.6957 119.036 26.1888 124.265 26.1888C129.755 25.9395 132.892 23.4464 132.892 19.208ZM132.631 75.304V33.9176C132.631 30.9258 130.801 29.1806 127.664 29.1806H113.023V34.4163H113.808C116.422 34.4163 117.468 35.4135 117.468 37.9067V75.304H132.631Z" fill="black"/>
<path d="M165.834 53.1149V62.0903C163.219 64.5835 160.343 66.0794 157.729 66.0794C155.115 66.0794 154.069 64.8328 154.069 61.3424C154.069 57.8519 154.853 56.356 157.468 55.3588C159.559 54.6108 162.174 53.8629 165.834 53.1149ZM145.442 42.3944C150.409 40.1505 155.899 38.9039 160.343 38.9039C164.526 38.9039 165.834 40.3998 165.834 44.3889V45.1368C159.559 46.1341 157.729 46.3834 154.33 47.1314C152.239 47.63 150.409 48.1286 148.579 48.8766C142.566 51.1204 139.69 55.6081 139.69 62.5889C139.69 71.315 143.612 75.5534 151.977 75.5534C154.853 75.5534 157.729 75.0547 160.082 74.0575C162.174 73.0602 163.481 72.3123 166.618 70.0684V70.8164C166.618 73.5588 168.187 75.0547 171.062 75.0547H184.919V70.0684H184.134C181.52 70.0684 180.474 69.0712 180.474 66.0794V44.1396C180.474 32.4217 176.291 28.4327 164.004 28.4327C160.082 28.4327 156.16 28.9313 152.5 29.6793C148.579 30.4272 146.749 31.1752 142.304 33.419L145.442 42.3944Z" fill="black"/>
<path d="M206.879 75.304V44.1396C209.494 41.3971 212.108 40.1505 214.984 40.1505C218.121 40.1505 218.905 41.3971 218.905 45.8848V75.0547H234.069V43.8903C234.069 36.6601 233.546 34.1669 231.193 31.6738C229.101 29.4299 225.964 28.4327 222.043 28.4327C216.03 28.4327 211.847 30.1779 206.356 35.1642V33.419C206.356 30.4272 204.788 29.1806 201.651 29.1806H187.271V34.4163H188.056C190.67 34.4163 191.716 35.4135 191.716 37.9067V75.304H206.879Z" fill="black"/>
<path d="M279.036 65.5807H257.859L277.99 38.6546V29.1806H246.356C242.696 29.1806 241.127 30.6765 241.127 34.1669V42.6437H246.618V41.8957C246.618 39.6519 247.663 38.6546 250.278 38.6546H261.258L240.866 65.8301V75.3041H279.036V65.5807Z" fill="black"/>
<path d="M358.251 74.0575V21.7012C358.251 17.4628 356.683 16.2162 352.5 16.2162H339.689V21.9505H340.474C343.349 21.9505 343.872 22.6984 343.872 25.9395V73.8082H358.251V74.0575ZM364.526 74.0575H378.644V33.419C378.644 29.4299 377.075 27.9341 372.892 27.9341H364.526V74.0575V74.0575ZM337.598 74.0575V27.9341H329.232C325.049 27.9341 323.48 29.4299 323.48 33.419V74.0575H337.598ZM392.238 47.63C392.238 70.5671 374.983 87.2712 350.931 87.2712C327.14 87.2712 309.624 70.5671 309.624 47.63C309.886 24.6929 327.402 7.73947 351.193 7.73947C374.983 7.73947 392.238 24.6929 392.238 47.63ZM400.866 47.63C400.866 20.4546 379.689 0.259995 351.193 0.259995C322.696 0.259995 301.52 20.4546 301.52 47.63C301.52 74.8054 322.696 95 351.193 95C379.689 95 400.866 74.8054 400.866 47.63Z" fill="black"/>
</g>
<defs>
<clipPath id="clip0_1_27">
<rect x="0.605225" y="0.259995" width="400.26" height="94.74" rx="5" fill="white"/>
</clipPath>
</defs>
</svg>
