<svg width="956" height="656" viewBox="0 0 956 656" fill="none" xmlns="http://www.w3.org/2000/svg">
<path d="M609.501 182.615C609.041 171.075 602.831 165.255 596.201 162.345C590.861 160.556 585.273 159.615 579.641 159.555H579.501C581.601 109.355 557.111 50.335 557.111 50.335C557.111 50.335 525.781 117.335 461.251 106.175C461.251 106.175 470.941 101.065 472.921 96.685C472.921 96.685 462.761 100.475 450.451 103.885C437.451 107.465 422.071 110.625 413.661 108.445C413.661 108.445 413.481 110.205 413.151 113.255V113.605H413.821C421.371 113.515 434.271 116.175 448.481 117.775C461.841 119.275 462.921 135.365 462.961 139.645V140.695L460.601 161.695C458.241 182.695 445.311 184.125 445.311 184.125L406.381 179.745H406.211C404.901 192.265 403.941 201.685 403.891 202.615C402.975 213.884 404.134 225.225 407.311 236.075C407.361 236.245 407.411 236.425 407.471 236.595C412.901 253.595 425.581 271.345 454.601 275.095C454.596 275.132 454.596 275.169 454.601 275.205L454.251 279.875C454.246 279.922 454.246 279.969 454.251 280.015L453.771 286.405L561.831 309.345L562.941 309.575C562.811 308.385 562.791 307.575 562.791 307.575C570.471 275.895 576.701 202.695 577.111 197.795V197.535C579.387 198.227 581.697 198.804 584.031 199.265V199.265C594.391 200.795 610.201 200.335 609.501 182.615ZM481.911 206.685C472.911 213.685 459.911 209.685 459.911 209.685C467.921 195.685 481.911 206.685 481.911 206.685ZM486.911 252.685C475.061 259.595 470.051 238.245 469.911 237.685C470.081 237.835 470.261 237.965 470.431 238.105C469.77 237.067 469.169 235.992 468.631 234.885C465.469 228.659 463.004 222.102 461.281 215.335L459.911 210.675L462.491 210.755C468.456 211.649 474.55 211.012 480.201 208.905C481.043 208.451 482.024 208.329 482.951 208.565C483.364 208.815 483.721 209.146 484.003 209.538C484.285 209.93 484.485 210.374 484.591 210.845C487.141 218.093 488.291 225.758 487.981 233.435V233.275C491.141 251.885 486.891 252.685 486.891 252.685H486.911ZM557.911 189.995C548.071 201.605 529.631 197.875 513.481 196.065C492.481 193.695 490.601 172.205 490.601 172.205L492.501 155.325C492.861 152.145 493.271 148.445 493.751 144.155C493.979 141.923 494.521 139.735 495.361 137.655C501.081 123.655 518.551 125.655 518.551 125.655L536.771 127.655C553.621 129.545 562.261 136.835 564.771 150.175C566.031 156.835 565.771 164.995 564.181 174.725C563.051 181.575 560.861 186.485 557.901 189.995H557.911Z" fill="white" stroke="black" stroke-width="5" stroke-linecap="round" stroke-linejoin="round"/>
<path d="M564.151 174.755C563.051 181.575 560.861 186.485 557.901 189.995C548.061 201.605 529.621 197.875 513.471 196.065C492.471 193.695 490.591 172.205 490.591 172.205L492.491 155.325C492.851 152.145 493.261 148.445 493.741 144.155C493.969 141.923 494.511 139.735 495.351 137.655C501.071 123.655 518.541 125.655 518.541 125.655L536.761 127.655C553.611 129.545 562.251 136.835 564.761 150.175C566.001 156.865 565.701 165.075 564.151 174.755Z" fill="white" stroke="black" stroke-width="5" stroke-linecap="round" stroke-linejoin="round"/>
<path d="M594.261 287.945L595.261 287.625C595.261 287.625 582.841 291.425 594.261 287.945Z" fill="#F3E1E7" stroke="black" stroke-width="5" stroke-miterlimit="10"/>
<path d="M833.501 653.075C826.215 636.153 817.215 620.022 806.641 604.935C772.051 555.285 729.641 527.705 729.251 527.435L726.031 525.365L705.761 652.735H653.761L218.761 652.665L249.761 439.465L245.161 442.405C244.611 442.755 189.161 477.595 128.781 477.595C83.211 477.595 46.601 458.145 19.971 419.805C3.741 396.445 -1.219 370.875 5.221 343.805C14.791 303.565 48.601 260.235 105.701 215.015C134.734 192.18 165.515 171.661 197.761 153.645L245.331 221.375C227.921 233.725 192.421 258.855 147.521 290.245C126.661 304.835 117.521 322.095 122.371 337.575C126.821 351.705 142.511 360.825 162.371 360.825C182.371 360.825 204.461 351.745 224.561 335.265C282.401 287.855 365.561 279.635 389.641 278.265C395.551 277.935 398.981 277.915 399.021 277.915H401.721L451.041 289.235H483.321L574.451 292.235H576.221C580.411 292.055 584.631 291.955 588.761 291.955C646.091 291.955 697.031 309.215 744.511 344.715C784.571 374.715 822.971 418.615 861.901 479.055C875.419 500.132 887.703 521.975 898.691 544.475C904.151 555.595 910.031 566.475 916.261 578.035C928.881 601.425 941.911 625.585 951.801 652.695L833.501 653.075Z" fill="#3FBCA1"/>
<path d="M197.041 156.905L241.891 220.765C223.891 233.565 189.341 257.975 146.131 288.185C124.311 303.445 114.801 321.725 120.031 338.315C124.811 353.505 141.431 363.315 162.371 363.315C182.941 363.315 205.591 354.035 226.151 337.185C250.411 317.295 281.611 302.185 318.881 292.185C342.078 286.033 365.827 282.194 389.781 280.725C395.611 280.395 398.991 280.375 399.001 280.375H401.441L450.201 291.565L450.761 291.695H483.241L574.401 294.695H576.331C580.491 294.515 584.671 294.415 588.761 294.415C645.531 294.415 695.981 311.515 743.011 346.675C782.831 376.455 821.011 420.185 859.801 480.375C873.276 501.365 885.529 523.115 896.501 545.515C901.971 556.675 907.871 567.595 914.111 579.165C926.161 601.505 938.601 624.545 948.261 650.165L835.191 650.575C827.957 634.05 819.097 618.285 808.741 603.515C773.871 553.515 732.401 526.515 730.661 525.335L724.221 521.195L723.011 528.755L703.631 650.235H653.781L221.651 650.165L251.501 445.225L253.071 434.435L243.861 440.295C243.321 440.645 188.481 475.095 128.861 475.095C84.161 475.095 48.241 456.005 22.101 418.375C6.291 395.625 1.461 370.725 7.731 344.375C12.861 322.795 25.441 299.855 45.131 276.195C61.261 256.805 82.191 236.875 107.331 216.965C135.674 194.689 165.678 174.61 197.081 156.905M198.601 150.365C181.001 159.875 -67.879 297.675 17.951 421.235C49.211 466.235 90.201 480.075 128.821 480.075C190.721 480.075 246.501 444.505 246.501 444.505L215.871 655.155V655.315L216.061 655.165L653.791 655.235H707.791L707.871 655.525L727.871 529.525C727.871 529.525 769.871 556.525 804.561 606.355C815.356 621.752 824.493 638.247 831.821 655.565L955.321 655.115C940.541 613.115 918.021 578.175 900.911 543.305C889.882 520.717 877.548 498.79 863.971 477.635C793.781 368.635 711.261 289.385 588.731 289.385C584.551 289.385 580.351 289.485 576.081 289.665H574.501L483.291 286.665H451.291L401.981 275.345H398.981C398.981 275.345 395.531 275.345 389.471 275.695C361.991 277.285 280.701 285.935 222.951 333.275C201.141 351.155 179.691 358.275 162.341 358.275C123.611 358.275 105.291 322.795 148.961 292.275C194.961 260.085 230.961 234.605 247.171 223.115L248.821 221.955L198.531 150.355L198.601 150.365Z" fill="black"/>
<path d="M307.921 236.285C304.905 236.283 301.894 236.026 298.921 235.515C281.481 232.515 268.921 225.295 262.611 214.605L261.741 213.145L255.561 214.145L249.501 218.475L202.211 151.145C213.271 144.195 285.871 98.325 309.031 77.655L313.231 73.895C329.071 59.715 337.021 52.605 341.891 52.605C342.881 52.6194 343.851 52.8843 344.711 53.375C345.158 53.5697 345.552 53.8666 345.863 54.2418C346.174 54.6169 346.393 55.0599 346.501 55.535C346.981 57.825 344.971 61.155 343.841 62.595L347.501 65.985C349.679 63.7767 352.621 62.4881 355.721 62.385C357.886 62.4311 360.001 63.0487 361.851 64.175C362.177 64.3403 362.462 64.5744 362.689 64.861C362.915 65.1476 363.076 65.48 363.161 65.835C363.771 68.175 362.081 71.835 360.981 73.645L354.271 84.645L364.601 76.935C366.092 75.6681 367.949 74.9112 369.901 74.775C370.776 74.8082 371.633 75.0385 372.407 75.4489C373.181 75.8593 373.852 76.4391 374.371 77.145C380.631 88.845 347.761 122.965 325.501 141.775L322.501 144.285L326.031 145.945C326.291 146.065 352.031 158.275 357.201 170.645C362.371 183.015 362.091 210.975 347.961 218.025C345.838 219.225 343.474 219.935 341.041 220.105V220.105C340.416 220.167 339.786 220.065 339.212 219.809C338.639 219.553 338.142 219.152 337.771 218.645L337.211 217.895L336.931 216.835C336.302 213.648 336.672 210.344 337.991 207.375C338.281 206.685 338.571 206.005 338.871 205.325C342.111 197.785 345.471 189.985 340.411 182.135C336.861 176.665 328.021 171.135 317.971 171.135C312.561 171.134 307.272 172.734 302.771 175.735C287.321 185.845 289.591 202.055 294.651 209.885C299.121 216.815 306.431 217.615 311.551 217.615C315.26 217.54 318.959 217.206 322.621 216.615C323.657 216.461 324.703 216.381 325.751 216.375C327.991 216.375 330.971 216.815 332.491 218.915L333.081 219.725L333.321 220.725C333.706 222.611 333.543 224.569 332.851 226.365C331.301 231.155 321.301 236.285 307.921 236.285Z" fill="white"/>
<path d="M341.841 55.075C342.42 55.0873 342.986 55.2529 343.481 55.555C343.751 55.695 344.051 55.905 344.071 56.015C344.271 56.935 343.231 59.325 341.901 61.015L349.201 67.795C350.61 66.2146 352.542 65.1956 354.642 64.9256C356.741 64.6555 358.868 65.1524 360.631 66.325L360.751 66.395C361.041 67.075 360.461 69.695 358.841 72.395L345.691 94.245L366.121 78.965C367.191 78.0406 368.516 77.4619 369.921 77.305C370.374 77.3328 370.816 77.4548 371.219 77.6631C371.622 77.8715 371.977 78.1617 372.261 78.515C373.061 80.355 374.351 88.635 351.931 112.985C343.088 122.452 333.741 131.435 323.931 139.895L317.931 144.895L324.981 148.205C331.981 151.485 350.931 162.085 354.911 171.605C357.511 177.825 358.471 187.795 357.291 196.405C356.521 202.085 354.141 212.155 346.851 215.785C343.701 217.365 341.851 217.605 341.051 217.605C340.251 217.605 339.911 217.335 339.801 217.175L339.521 216.795L339.351 216.185C338.869 213.539 339.2 210.809 340.301 208.355L341.171 206.305C344.521 198.545 348.311 189.745 342.511 180.765C338.731 174.925 329.441 168.635 317.981 168.635C312.084 168.624 306.318 170.365 301.411 173.635C286.291 183.535 285.561 200.395 292.561 211.235C297.691 219.235 305.861 220.105 311.561 220.105C315.387 220.045 319.203 219.711 322.981 219.105C323.902 218.971 324.831 218.901 325.761 218.895C327.111 218.895 329.531 219.095 330.481 220.395L330.791 220.825L330.911 221.325C331.164 222.75 331.018 224.217 330.491 225.565C329.371 228.905 320.681 233.735 307.891 233.735C305.015 233.733 302.145 233.486 299.311 232.995C282.621 230.135 270.661 223.315 264.731 213.285L263.001 210.355L259.641 210.895L255.721 211.515L254.561 211.695L253.611 212.375L250.021 214.925L205.691 151.815C222.011 141.515 288.521 99.185 310.611 79.475L314.821 75.705C329.241 62.875 337.931 55.075 341.841 55.075ZM341.841 50.075C335.561 50.075 327.551 57.675 307.311 75.765C282.631 97.815 199.501 149.845 199.501 149.845L198.501 150.365L248.791 221.965L256.481 216.505L260.391 215.875C267.301 227.565 280.711 234.935 298.441 237.975C301.552 238.511 304.704 238.782 307.861 238.785C321.661 238.785 333.071 233.575 335.201 227.205C336.036 224.969 336.219 222.542 335.731 220.205C336.34 221.022 337.142 221.676 338.065 222.108C338.988 222.541 340.003 222.739 341.021 222.685C343.832 222.521 346.568 221.717 349.021 220.335C364.611 212.565 365.071 183.165 359.461 169.755C353.851 156.345 327.041 143.755 327.041 143.755C327.041 143.755 386.441 93.605 376.501 75.855C375.755 74.7908 374.771 73.9155 373.627 73.2992C372.482 72.6828 371.21 72.3424 369.911 72.305C367.415 72.4258 365.027 73.36 363.111 74.965C363.331 74.605 369.051 65.405 363.111 61.965C360.427 60.2734 357.24 59.5614 354.091 59.9495C350.942 60.3377 348.024 61.8022 345.831 64.095C346.111 63.745 353.031 54.955 345.831 51.095C344.607 50.4125 343.232 50.048 341.831 50.035L341.841 50.075ZM311.591 215.075C304.971 215.075 299.991 213.455 296.791 208.495C292.041 201.135 290.331 186.855 304.181 177.795C308.275 175.06 313.087 173.599 318.011 173.595C327.131 173.595 335.161 178.525 338.351 183.445C343.091 190.805 339.191 198.155 335.721 206.365C334.281 209.795 333.661 214.125 334.561 217.445C332.981 215.265 330.131 213.875 325.791 213.875C324.626 213.879 323.463 213.966 322.311 214.135C318.763 214.694 315.182 215.008 311.591 215.075V215.075Z" fill="black"/>
<path d="M707.771 655.235C690.491 655.455 672.421 655.425 653.771 655.235H707.771Z" fill="#F3E1E7"/>
<path d="M653.771 655.235C663.411 655.335 672.888 655.385 682.201 655.385C690.868 655.385 699.391 655.335 707.771 655.235H653.771Z" fill="black"/>
<path d="M598.591 315.795C597.781 316.105 597.001 316.385 596.261 316.625L595.261 316.945C583.841 320.425 579.891 316.745 578.551 313.345C578.491 313.175 578.421 313.005 578.371 312.835C577.974 311.631 577.814 310.36 577.901 309.095C577.141 310.275 576.421 311.325 575.741 312.275C575.641 312.415 575.551 312.545 575.441 312.685C565.901 325.635 563.531 315.155 562.961 309.985C562.952 309.839 562.952 309.692 562.961 309.545C562.831 308.355 562.811 307.545 562.811 307.545C570.491 275.865 576.721 202.665 577.131 197.765V197.505C579.407 198.197 581.717 198.774 584.051 199.235V199.235C608.761 204.055 611.621 188.825 611.621 188.825C614.871 172.925 605.621 165.655 596.191 162.345C590.851 160.556 585.263 159.615 579.631 159.555H579.501C581.601 109.355 557.111 50.335 557.111 50.335C557.111 50.335 525.781 117.335 461.251 106.175C461.251 106.175 470.941 101.065 472.921 96.685C472.921 96.685 462.761 100.475 450.451 103.885C437.451 107.465 422.071 110.625 413.661 108.445C413.661 108.445 413.481 110.205 413.151 113.255V113.605C412.551 119.465 411.451 129.745 410.241 141.255L410.171 141.905L410.021 143.345C408.741 155.505 407.341 168.815 406.201 179.755C404.891 192.275 403.931 201.695 403.881 202.625C402.97 213.891 404.132 225.228 407.311 236.075C407.361 236.245 407.411 236.425 407.471 236.595C412.901 253.595 425.581 271.345 454.601 275.095C454.596 275.131 454.596 275.169 454.601 275.205L454.251 279.875C454.246 279.922 454.246 279.969 454.251 280.015L453.771 286.405V286.545L453.021 296.545L452.301 296.645C449.151 297.035 436.611 298.045 434.791 289.845C434.791 289.845 421.141 303.735 412.111 287.525C412.111 287.525 394.991 305.635 390.951 285.365C390.551 283.415 390.061 280.145 389.531 275.765C384.531 234.765 375.771 96.935 416.221 38.965C460.961 -25.205 600.621 -1.71498 628.981 79.075C657.341 159.865 620.841 307.395 598.591 315.795Z" fill="black" stroke="black" stroke-width="4" stroke-miterlimit="10"/>
<path d="M406.671 104.715C406.671 104.715 438.501 77.435 456.251 112.855" stroke="black" stroke-width="5" stroke-linecap="round" stroke-linejoin="round"/>
<path d="M467.551 174.965C465.142 175.791 463.026 177.302 461.463 179.313C459.9 181.324 458.958 183.747 458.751 186.285C457.511 198.385 478.401 188.285 478.401 188.285" stroke="black" stroke-width="5" stroke-linecap="round" stroke-linejoin="round"/>
<path d="M507.631 175.075C507.631 175.075 500.801 182.075 501.501 189.755" stroke="black" stroke-width="5" stroke-linecap="round" stroke-linejoin="round"/>
<path d="M517.901 179.205C517.901 179.205 512.591 186.305 513.631 190.995" stroke="black" stroke-width="5" stroke-linecap="round" stroke-linejoin="round"/>
<path d="M528.501 180.295C528.501 180.295 524.701 187.545 525.751 192.235" stroke="black" stroke-width="5" stroke-linecap="round" stroke-linejoin="round"/>
<path d="M512.161 56.415C512.161 56.415 506.231 69.555 498.211 73.315" stroke="white" stroke-width="5" stroke-linecap="round" stroke-linejoin="round"/>
<path d="M496.501 45.645C496.501 45.645 483.741 65.725 462.851 75.795" stroke="white" stroke-width="5" stroke-linecap="round" stroke-linejoin="round"/>
<path d="M465.611 48.585C461.594 52.6992 457.122 56.3427 452.281 59.445" stroke="white" stroke-width="5" stroke-linecap="round" stroke-linejoin="round"/>
<path d="M590.691 95.075C590.691 95.075 599.101 117.325 598.011 127.905" stroke="white" stroke-width="5" stroke-linecap="round" stroke-linejoin="round"/>
<path d="M503.401 112.075C503.401 112.075 535.221 84.795 552.971 120.215" stroke="black" stroke-width="5" stroke-linecap="round" stroke-linejoin="round"/>
<path d="M575.351 197.255C575.351 197.255 575.991 197.465 577.091 197.765C579.379 198.38 581.699 198.871 584.041 199.235" stroke="black" stroke-width="5" stroke-linecap="round" stroke-linejoin="round"/>
<path d="M579.631 159.555C585.289 159.26 590.942 160.213 596.191 162.345" stroke="black" stroke-width="5" stroke-linecap="round" stroke-linejoin="round"/>
<path d="M502.571 161.635C506.351 156.245 512.911 153.345 519.431 152.415C523.665 151.69 528.013 152.034 532.081 153.415C534.104 154.125 535.961 155.239 537.539 156.69C539.118 158.141 540.384 159.899 541.261 161.855C541.701 162.925 542.171 164.235 543.261 164.485C543.964 164.58 544.677 164.408 545.261 164.005C547.081 162.989 548.672 161.608 549.932 159.947C551.192 158.286 552.094 156.382 552.581 154.355" stroke="black" stroke-width="5" stroke-linecap="round" stroke-linejoin="round"/>
<path d="M538.001 156.415C539.903 155.877 541.641 154.874 543.059 153.497C544.476 152.119 545.529 150.411 546.121 148.525" stroke="black" stroke-width="5" stroke-linecap="round" stroke-linejoin="round"/>
<path d="M532.001 152.925C533.925 149.942 535.597 146.805 537.001 143.545" stroke="black" stroke-width="5" stroke-linecap="round" stroke-linejoin="round"/>
<path d="M341.051 69.765C341.051 69.765 314.211 98.285 289.961 121.185" stroke="black" stroke-width="5" stroke-linecap="round" stroke-linejoin="round"/>
<path d="M355.751 81.895C355.751 81.895 325.871 117.325 308.981 131.155" stroke="black" stroke-width="5" stroke-linecap="round" stroke-linejoin="round"/>
<path d="M481.911 206.685C472.911 213.685 459.911 209.685 459.911 209.685C467.921 195.685 481.911 206.685 481.911 206.685Z" fill="#CA576C" stroke="#CA576C" stroke-width="4" stroke-linecap="round" stroke-linejoin="round"/>
<path d="M486.891 252.685C475.041 259.595 470.031 238.245 469.891 237.685C470.061 237.835 470.241 237.965 470.411 238.105C482.241 247.625 487.411 235.035 487.961 233.435V233.275C491.141 251.885 486.891 252.685 486.891 252.685Z" fill="#CA576C" stroke="#CA576C" stroke-width="4" stroke-linecap="round" stroke-linejoin="round"/>
<path d="M485.121 243.075C482.511 245.525 478.171 245.205 475.171 243.245C473.234 241.903 471.616 240.152 470.431 238.115C469.77 237.077 469.169 236.002 468.631 234.895C465.469 228.669 463.004 222.112 461.281 215.345L459.911 210.685L462.491 210.765C468.456 211.658 474.55 211.022 480.201 208.915C481.043 208.461 482.024 208.339 482.951 208.575C483.364 208.825 483.721 209.156 484.003 209.548C484.285 209.94 484.485 210.384 484.591 210.855C487.141 218.102 488.291 225.768 487.981 233.445C487.981 234.115 487.911 234.775 487.861 235.445C487.651 238.205 487.131 241.175 485.121 243.075Z" fill="white" stroke="black" stroke-width="4" stroke-linecap="round" stroke-linejoin="round"/>
<path d="M463.251 132.505C468.677 131.212 474.306 131.001 479.814 131.884C485.322 132.768 490.601 134.729 495.351 137.655" stroke="black" stroke-width="5" stroke-linecap="round" stroke-linejoin="round"/>
<path d="M445.241 184.155L406.311 179.775H405.971C390.551 178.055 392.281 162.625 392.281 162.625C392.761 158.425 394.281 144.405 395.581 133.185C396.881 121.965 404.791 114.335 411.961 113.715H413.761C421.311 113.625 434.211 116.285 448.421 117.885C461.781 119.385 462.861 135.475 462.901 139.755V140.805L460.541 161.805C458.171 182.765 445.241 184.155 445.241 184.155Z" fill="white" stroke="black" stroke-width="5" stroke-linecap="round" stroke-linejoin="round"/>
<path d="M421.501 166.265C421.501 166.265 416.191 173.355 417.241 178.045" stroke="black" stroke-width="5" stroke-linecap="round" stroke-linejoin="round"/>
<path d="M430.501 167.195C430.501 167.195 426.701 174.435 426.241 178.975" stroke="black" stroke-width="5" stroke-linecap="round" stroke-linejoin="round"/>
<path d="M439.291 171.145C439.291 171.145 435.801 175.365 435.291 179.905" stroke="black" stroke-width="5" stroke-linecap="round" stroke-linejoin="round"/>
<path d="M413.641 127.615C413.53 130.281 414.211 132.92 415.6 135.198C416.988 137.476 419.021 139.292 421.441 140.415C421.787 140.605 422.192 140.654 422.574 140.554C422.955 140.453 423.283 140.21 423.491 139.875C423.688 139.531 423.742 139.123 423.641 138.739C423.54 138.356 423.292 138.027 422.951 137.825C420.985 136.967 419.328 135.53 418.201 133.706C417.073 131.882 416.529 129.757 416.641 127.615C416.638 127.218 416.479 126.838 416.199 126.557C415.918 126.276 415.538 126.118 415.141 126.115C414.746 126.123 414.368 126.283 414.089 126.563C413.809 126.842 413.649 127.22 413.641 127.615V127.615Z" fill="black"/>
<path d="M422.201 124.075C421.816 126.454 422.255 128.893 423.444 130.99C424.633 133.086 426.502 134.714 428.741 135.605C429.118 135.714 429.522 135.67 429.866 135.483C430.211 135.296 430.467 134.98 430.581 134.605C430.677 134.221 430.622 133.814 430.427 133.47C430.231 133.125 429.91 132.869 429.531 132.755C429.121 132.595 429.791 132.885 429.391 132.695L429.151 132.575C428.931 132.465 428.721 132.345 428.511 132.215L427.951 131.835C427.821 131.735 428.091 131.955 427.891 131.775L427.581 131.505C427.251 131.194 426.943 130.86 426.661 130.505C426.481 130.295 426.661 130.575 426.601 130.435C426.547 130.336 426.483 130.242 426.411 130.155C426.269 129.952 426.139 129.742 426.021 129.525C425.911 129.325 425.801 129.125 425.701 128.925C425.601 128.725 425.611 128.725 425.561 128.615C425.681 128.875 425.561 128.615 425.561 128.535C425.392 128.094 425.261 127.639 425.171 127.175C425.18 127.062 425.16 126.948 425.111 126.845C425.051 126.735 425.111 127.065 425.111 126.775C425.122 126.55 425.105 126.325 425.061 126.105C425.036 125.859 425.036 125.611 425.061 125.365V124.895C425.12 124.703 425.14 124.502 425.12 124.302C425.1 124.102 425.04 123.908 424.944 123.732C424.847 123.556 424.717 123.401 424.559 123.277C424.402 123.152 424.221 123.06 424.028 123.007C423.835 122.953 423.632 122.939 423.433 122.965C423.234 122.991 423.042 123.057 422.869 123.158C422.696 123.26 422.545 123.395 422.425 123.556C422.305 123.717 422.219 123.9 422.171 124.095L422.201 124.075Z" fill="black"/>
<path d="M431.831 123.275C431.383 125.25 431.383 127.3 431.831 129.275C432.068 130.166 432.507 130.99 433.114 131.684C433.721 132.377 434.48 132.922 435.331 133.275C435.709 133.382 436.113 133.337 436.459 133.15C436.804 132.963 437.063 132.649 437.181 132.275C437.275 131.892 437.218 131.488 437.023 131.146C436.827 130.804 436.508 130.549 436.131 130.435C436.491 130.585 436.031 130.365 435.971 130.325C435.911 130.285 435.531 129.975 435.801 130.225L435.461 129.905C435.411 129.845 435.121 129.445 435.331 129.755C435.154 129.492 434.994 129.218 434.851 128.935C434.781 128.775 434.791 128.785 434.851 128.935C434.838 128.857 434.811 128.783 434.771 128.715L434.651 128.315L434.561 127.905C434.551 127.805 434.551 127.705 434.561 127.605C434.531 127.196 434.531 126.784 434.561 126.375C434.594 125.64 434.678 124.908 434.811 124.185C434.87 123.993 434.89 123.792 434.87 123.592C434.85 123.392 434.79 123.198 434.694 123.022C434.597 122.846 434.467 122.691 434.31 122.567C434.152 122.442 433.971 122.35 433.778 122.297C433.585 122.243 433.382 122.229 433.183 122.255C432.984 122.281 432.792 122.347 432.619 122.448C432.446 122.55 432.295 122.685 432.175 122.846C432.055 123.007 431.969 123.19 431.921 123.385L431.831 123.275Z" fill="black"/>
<path d="M449.501 146.885C449.121 154.075 442.001 160.065 434.841 159.325C427.681 158.585 421.841 151.825 421.511 144.635C421.294 142.307 421.915 139.977 423.261 138.065C424.209 136.955 425.381 136.059 426.701 135.435C426.701 135.435 450.601 126.275 449.501 146.885Z" stroke="black" stroke-width="4" stroke-linecap="round" stroke-linejoin="round"/>
<path d="M436.161 153.435C436.161 153.435 425.631 142.895 436.161 141.145C446.691 139.395 450.591 147.485 446.881 152.225C443.171 156.965 436.161 153.435 436.161 153.435Z" fill="black"/>
</svg>
