<svg xmlns="http://www.w3.org/2000/svg" width="39.401" height="37.994" viewBox="0 0 39.401 37.994">
  <g id="layer1" transform="translate(-398 -294.014)">
    <path id="path453477" d="M420.407,309.014a1.407,1.407,0,1,0,1.407,1.407A1.407,1.407,0,0,0,420.407,309.014Z" transform="translate(8.551 6.108)" fill-rule="evenodd"/>
    <path id="path453475" d="M417.407,309.014a1.407,1.407,0,1,0,1.407,1.407A1.407,1.407,0,0,0,417.407,309.014Z" transform="translate(7.329 6.108)" fill-rule="evenodd"/>
    <path id="path453473" d="M414.407,309.014a1.407,1.407,0,1,0,1.407,1.407A1.407,1.407,0,0,0,414.407,309.014Z" transform="translate(6.108 6.108)" fill-rule="evenodd"/>
    <path id="path453457" d="M410.407,300.014a1.407,1.407,0,1,0,1.407,1.407A1.407,1.407,0,0,0,410.407,300.014Z" transform="translate(4.479 2.443)" fill-rule="evenodd"/>
    <path id="path453455" d="M407.407,300.014a1.407,1.407,0,1,0,1.407,1.407A1.407,1.407,0,0,0,407.407,300.014Z" transform="translate(3.257 2.443)" fill-rule="evenodd"/>
    <path id="path453453" d="M404.407,300.014a1.407,1.407,0,1,0,1.407,1.407A1.407,1.407,0,0,0,404.407,300.014Z" transform="translate(2.036 2.443)" fill-rule="evenodd"/>
    <path id="path453429" d="M400.9,294.014a2.88,2.88,0,0,0-2.9,2.814V310.9a2.879,2.879,0,0,0,2.9,2.814h2.731v4.222a1.407,1.407,0,0,0,2.4.995l5.217-5.216h.824v9.85a2.88,2.88,0,0,0,2.9,2.814h6.868l5.216,5.217a1.407,1.407,0,0,0,2.4-.995V326.38H434.5a2.88,2.88,0,0,0,2.9-2.814V309.493a2.88,2.88,0,0,0-2.9-2.814H423.329v-9.85a2.88,2.88,0,0,0-2.9-2.814Zm0,2.814h19.536a.236.236,0,0,1,.082.008v14.055a.239.239,0,0,1-.082.008h-9.768a1.407,1.407,0,0,0-.995.412l-3.227,3.226v-2.232a1.407,1.407,0,0,0-1.407-1.407H400.9a.235.235,0,0,1-.082-.008V296.837a.238.238,0,0,1,.082-.008Zm22.433,12.665h11.175a.237.237,0,0,1,.082.008v14.055a.239.239,0,0,1-.082.008h-6.456a1.407,1.407,0,0,0-1.407,1.407V327.2l-3.227-3.227a1.407,1.407,0,0,0-.995-.412h-7.451a.236.236,0,0,1-.082-.008v-9.842h5.546a2.879,2.879,0,0,0,2.9-2.814Z" transform="translate(0 0)" fill-rule="evenodd"/>
  </g>
</svg>
