<svg width="26" height="25" viewBox="0 0 26 25" fill="none" xmlns="http://www.w3.org/2000/svg">
<path d="M14.8474 19.4737V5.6579C14.8474 4.53947 14.4368 4.21053 13.3421 4.21053H9.98947V5.72368H10.1947C10.9474 5.72368 11.0842 5.92105 11.0842 6.77632V19.4079H14.8474V19.4737ZM16.4895 19.4737H20.1842V8.75C20.1842 7.69737 19.7737 7.30263 18.6789 7.30263H16.4895V19.4737ZM9.4421 19.4737V7.30263H7.25263C6.15789 7.30263 5.74737 7.69737 5.74737 8.75V19.4737H9.4421ZM23.7421 12.5C23.7421 18.5526 19.2263 22.9605 12.9316 22.9605C6.70526 22.9605 2.12105 18.5526 2.12105 12.5C2.18947 6.44737 6.77369 1.97368 13 1.97368C19.2263 1.97368 23.7421 6.44737 23.7421 12.5ZM26 12.5C26 5.32895 20.4579 0 13 0C5.54211 0 0 5.32895 0 12.5C0 19.6711 5.54211 25 13 25C20.4579 25 26 19.6711 26 12.5Z" fill="black"/>
</svg>
