<svg xmlns="http://www.w3.org/2000/svg" width="33.531" height="25.444" viewBox="0 0 33.531 25.444">
  <g id="Group_791" data-name="Group 791" transform="translate(-51.824 -207.276)">
    <path id="Path_55082" data-name="Path 55082" d="M203.491,200.448h14.186a4.942,4.942,0,0,0,3.648-1.656,5.943,5.943,0,0,0,1.511-4v-.848l7.4,2.212a1.219,1.219,0,0,0,.34.05,1.236,1.236,0,0,0,.912-.414,1.486,1.486,0,0,0,.378-1V180.659a1.466,1.466,0,0,0-.507-1.125,1.2,1.2,0,0,0-1.123-.239l-7.4,2.212v-.848a5.943,5.943,0,0,0-1.511-4A4.941,4.941,0,0,0,217.677,175H203.491a4.942,4.942,0,0,0-3.648,1.656,5.943,5.943,0,0,0-1.511,4v14.135a5.942,5.942,0,0,0,1.511,4,4.942,4.942,0,0,0,3.648,1.656Zm25.793-17.938v10.432l-6.448-1.928v-6.576Zm-28.372-1.852a2.97,2.97,0,0,1,.755-2,2.471,2.471,0,0,1,1.824-.828h14.186a2.47,2.47,0,0,1,1.824.828,2.971,2.971,0,0,1,.756,2v14.135a2.971,2.971,0,0,1-.756,2,2.471,2.471,0,0,1-1.824.828H203.491a2.471,2.471,0,0,1-1.824-.828,2.97,2.97,0,0,1-.755-2Z" transform="translate(-146.508 32.272)"/>
  </g>
</svg>
