<svg xmlns="http://www.w3.org/2000/svg" width="34.904" height="32.738" viewBox="0 0 34.904 32.738">
  <g id="Group_116" data-name="Group 116" transform="translate(-6317.634 -1179.501)">
    <path id="Subtraction_4" data-name="Subtraction 4" d="M21.8,32.739a1.494,1.494,0,0,1-1.491-1.492V25.819H19.58v5.428a1.492,1.492,0,0,1-2.984,0V25.819H14.418a.468.468,0,0,1-.386-.2.476.476,0,0,1-.062-.436l1.9-5.4h-.037a1.1,1.1,0,0,1-.882-.435L12.137,15.67a1.109,1.109,0,0,1-.2-.915,1.128,1.128,0,0,1,.562-.746l5.633-2.949a3.9,3.9,0,0,1,1.81-.524,3.345,3.345,0,0,1,2.885,1.651l3.112,3.933h1.9v2.222H25.4a1.1,1.1,0,0,1-.87-.423l-1.245-1.571v1.375l2.628,7.46a.476.476,0,0,1-.447.635H23.289v5.429A1.494,1.494,0,0,1,21.8,32.739ZM16.913,14.324l-1.9,1,1.867,2.441.029-.086ZM34.528,32.571H27.4a.382.382,0,0,1-.381-.381V31.8a.382.382,0,0,1,.381-.381h2.035V29.115H32.49v2.307h2.035a.382.382,0,0,1,.381.381v.387a.38.38,0,0,1-.378.381Zm0-4.089H27.4a.382.382,0,0,1-.381-.381v-.387a.382.382,0,0,1,.381-.381h1.082V11.521a.382.382,0,0,1,.381-.381h.463l.619-4.225a.382.382,0,0,1,.378-.327h.32v-4.1a.086.086,0,0,1,.022-.064l.445-.518a.092.092,0,0,1,.071-.033.1.1,0,0,1,.1.1V5.763h0v.825H31.6a.381.381,0,0,1,.378.327L32.6,11.14h.464a.382.382,0,0,1,.381.381v7.51H31.255a.317.317,0,1,0,0,.635h2.187v1.248H31.255a.317.317,0,1,0,0,.635h2.187V22.8H31.255a.317.317,0,1,0,0,.635h2.187v3.9h1.083a.382.382,0,0,1,.381.381V28.1a.382.382,0,0,1-.381.382ZM6.481,12.959A6.479,6.479,0,1,1,12.96,6.48a.792.792,0,0,1-1.583,0,4.9,4.9,0,1,0-4.9,4.9.792.792,0,0,1,0,1.584ZM22.8,10.277A4.248,4.248,0,0,1,21.2,9.85,1.651,1.651,0,0,0,21.9,8.7a2.239,2.239,0,0,1-3.9,0,1.652,1.652,0,0,0,.7,1.155l0,0a4.191,4.191,0,0,1-1.6.423A1.08,1.08,0,0,1,15.9,9.343a1.671,1.671,0,0,0,1.016-1.524c0-.076,0-.163,0-.256-.014-.944-.04-2.7,1.022-3.671l-.68-.856a.319.319,0,0,1-.063-.256.315.315,0,0,1,.149-.215,5.111,5.111,0,0,1,5.212,0,.317.317,0,0,1,.15.217.313.313,0,0,1-.065.252l-.679.857c1.062.966,1.036,2.726,1.022,3.671,0,.093,0,.18,0,.256a1.665,1.665,0,0,0,1.016,1.524,1.08,1.08,0,0,1-1.187.935ZM9.143,7.068H6.849a.941.941,0,0,1-.94-.94V2.971a.572.572,0,0,1,1.144,0V5.924h2.09a.572.572,0,0,1,0,1.144Z" transform="translate(6317.632 1179.5)"/>
    <text id="_8" data-name="8" transform="translate(6325.458 1190.176)" font-size="5" font-family="GraphikArabic-Medium, Graphik Arabic" font-weight="500"><tspan x="0" y="0">8</tspan></text>
  </g>
</svg>
