<svg xmlns="http://www.w3.org/2000/svg" xmlns:xlink="http://www.w3.org/1999/xlink" width="73" height="84" viewBox="0 0 73 84">
  <defs>
    <clipPath id="clip-path">
      <rect id="Rectangle_40" data-name="Rectangle 40" width="57" height="57" transform="translate(-0.005 0)" fill="#fff" stroke="#707070" stroke-width="1"/>
    </clipPath>
  </defs>
  <g id="Group_649" data-name="Group 649" transform="translate(-10968 -3846.887)">
    <rect id="Rectangle_41" data-name="Rectangle 41" width="73" height="78" rx="21" transform="translate(10968 3852.887)"/>
    <g id="Mask_Group_19" data-name="Mask Group 19" transform="translate(10976.005 3863.887)" clip-path="url(#clip-path)">
      <g id="noun-veins-3042576" transform="translate(0.105 -0.028)">
        <path id="Path_654" data-name="Path 654" d="M94.275.684A1.774,1.774,0,0,0,92.5,2.458V9.15a10.574,10.574,0,0,0-8.183,6.934,1.824,1.824,0,0,1-1.8-1.822V6.14A5.463,5.463,0,0,0,77.06.684H72.87a1.774,1.774,0,0,0,0,3.548h4.19A1.911,1.911,0,0,1,78.968,6.14v8.122A5.378,5.378,0,0,0,83.736,19.6v2.264a2.553,2.553,0,0,1-2.55,2.55H78.857a1.221,1.221,0,0,1-1.22-1.22,4.773,4.773,0,0,0-4.768-4.768,1.774,1.774,0,1,0,0,3.548,1.221,1.221,0,0,1,1.22,1.22,4.773,4.773,0,0,0,4.768,4.768h2.329a6.058,6.058,0,0,0,2.55-.561v4.331a2.331,2.331,0,0,1-2.329,2.329,5.44,5.44,0,0,0-5.433,5.433,1.774,1.774,0,1,0,3.548,0,1.887,1.887,0,0,1,1.885-1.885,5.883,5.883,0,0,0,5.877-5.877V19.539A7,7,0,0,1,92.5,12.777v35.78H90.166a7.151,7.151,0,0,0-6.915-5.363H81.075a1.774,1.774,0,0,0,0,3.548h2.176a3.593,3.593,0,0,1,3.272,2.117,4.386,4.386,0,0,0-2.787,4.079.833.833,0,0,1-.832.832H72.87a1.774,1.774,0,1,0,0,3.548H82.9a4.385,4.385,0,0,0,4.38-4.38.833.833,0,0,1,.832-.832H92.5v3.437a1.774,1.774,0,1,0,3.548,0V2.458A1.774,1.774,0,0,0,94.275.684Z" transform="translate(-70.996 -0.684)" fill="#fff"/>
        <path id="Path_655" data-name="Path 655" d="M405.944,24.455a1.774,1.774,0,1,0,0-3.548,4,4,0,0,1-3.992-3.992V13.983a5.6,5.6,0,0,0-5.6-5.6h-1.61v-.3A3.855,3.855,0,0,1,398.6,4.233h7.348a1.774,1.774,0,0,0,0-3.548H398.6a7.408,7.408,0,0,0-7.4,7.4V11.3a3.844,3.844,0,0,1-3.839,3.839h-1.045V2.458a1.774,1.774,0,0,0-3.548,0V55.543a1.774,1.774,0,0,0,3.548,0V48.4H391.4a2.685,2.685,0,0,1,2.682,2.682,6.237,6.237,0,0,0,6.23,6.23h5.634a1.774,1.774,0,0,0,0-3.548H400.31a2.685,2.685,0,0,1-2.682-2.682,6.237,6.237,0,0,0-6.23-6.23h-5.085V34.212h1.235a8.222,8.222,0,0,0,8.2,7.762h3.1a4.44,4.44,0,0,0,4.435-4.435,1.776,1.776,0,0,1,1.774-1.774h.887a1.774,1.774,0,1,0,0-3.548h-.887a5.328,5.328,0,0,0-5.322,5.322.888.888,0,0,1-.887.887h-3.1a4.668,4.668,0,0,1-4.661-4.579,7,7,0,0,0,4.768-6.628V25.133a1.774,1.774,0,0,0-3.548,0v2.085a3.449,3.449,0,0,1-3.445,3.445h-2.548V18.689h1.045a7.4,7.4,0,0,0,7.359-6.756h1.639a2.052,2.052,0,0,1,2.049,2.049v2.932a7.548,7.548,0,0,0,7.54,7.54Z" transform="translate(-351.069 -0.684)" fill="#fff"/>
        <g id="Group_613" data-name="Group 613" transform="translate(0.016 57.954)">
          <path id="Path_656" data-name="Path 656" d="M.609-3.673a.288.288,0,0,1-.06.022.255.255,0,0,1-.063.008A.228.228,0,0,1,.324-3.7a.2.2,0,0,1-.059-.154.2.2,0,0,1,.059-.154.225.225,0,0,1,.162-.057.255.255,0,0,1,.063.008.313.313,0,0,1,.06.022v.084a.24.24,0,0,0-.057-.029.177.177,0,0,0-.059-.01A.114.114,0,0,0,.4-3.95a.14.14,0,0,0-.032.1.143.143,0,0,0,.032.1.116.116,0,0,0,.089.035.2.2,0,0,0,.059-.008.209.209,0,0,0,.057-.03Z" transform="translate(-0.266 4.062)"/>
        </g>
        <g id="Group_614" data-name="Group 614" transform="translate(0.442 58.055)">
          <path id="Path_657" data-name="Path 657" d="M.68-2.972l-.025-.01a.114.114,0,0,0-.025,0A.072.072,0,0,0,.57-2.96a.107.107,0,0,0-.019.068v.139h-.1v-.3h.1v.049a.11.11,0,0,1,.041-.043.117.117,0,0,1,.059-.014H.662l.016,0Z" transform="translate(-0.453 3.063)"/>
        </g>
        <g id="Group_615" data-name="Group 615" transform="translate(0.693 58.055)">
          <path id="Path_658" data-name="Path 658" d="M.559-2.9v.027H.333a.078.078,0,0,0,.025.052.093.093,0,0,0,.059.016A.25.25,0,0,0,.48-2.817a.315.315,0,0,0,.065-.029v.074a.306.306,0,0,1-.068.021.408.408,0,0,1-.068.006A.184.184,0,0,1,.28-2.785.153.153,0,0,1,.234-2.9.153.153,0,0,1,.279-3.02.174.174,0,0,1,.4-3.063a.154.154,0,0,1,.114.043A.157.157,0,0,1,.559-2.9Zm-.1-.033A.056.056,0,0,0,.443-2.98.054.054,0,0,0,.4-3a.067.067,0,0,0-.046.016.073.073,0,0,0-.022.044Z" transform="translate(-0.234 3.063)"/>
        </g>
        <g id="Group_616" data-name="Group 616" transform="translate(1.069 58.055)">
          <path id="Path_659" data-name="Path 659" d="M.393-2.888a.081.081,0,0,0-.046.011.034.034,0,0,0-.014.03.037.037,0,0,0,.011.029.056.056,0,0,0,.035.01.063.063,0,0,0,.046-.019.066.066,0,0,0,.019-.049v-.011Zm.149-.036v.173h-.1V-2.8a.119.119,0,0,1-.044.04.126.126,0,0,1-.059.013.11.11,0,0,1-.078-.027.1.1,0,0,1-.029-.071.09.09,0,0,1,.036-.079.208.208,0,0,1,.116-.025H.444v-.006a.034.034,0,0,0-.019-.033A.11.11,0,0,0,.369-3a.269.269,0,0,0-.059.006.238.238,0,0,0-.049.017v-.073a.437.437,0,0,1,.062-.011.423.423,0,0,1,.063,0,.175.175,0,0,1,.119.033.133.133,0,0,1,.036.1Z" transform="translate(-0.234 3.063)"/>
        </g>
        <g id="Group_617" data-name="Group 617" transform="translate(1.427 57.976)">
          <path id="Path_660" data-name="Path 660" d="M.222-3.844v.087h.1v.068h-.1v.13A.038.038,0,0,0,.23-3.53a.066.066,0,0,0,.035.006H.314v.07H.232a.114.114,0,0,1-.082-.024.112.112,0,0,1-.024-.081v-.13H.078v-.068H.126v-.087Z" transform="translate(-0.078 3.844)"/>
        </g>
        <g id="Group_618" data-name="Group 618" transform="translate(1.708 58.055)">
          <path id="Path_661" data-name="Path 661" d="M.559-2.9v.027H.333a.078.078,0,0,0,.025.052.093.093,0,0,0,.059.016A.25.25,0,0,0,.48-2.817a.315.315,0,0,0,.065-.029v.074a.306.306,0,0,1-.068.021.408.408,0,0,1-.068.006A.184.184,0,0,1,.28-2.785.153.153,0,0,1,.234-2.9.153.153,0,0,1,.279-3.02.174.174,0,0,1,.4-3.063a.154.154,0,0,1,.114.043A.157.157,0,0,1,.559-2.9Zm-.1-.033A.056.056,0,0,0,.443-2.98.054.054,0,0,0,.4-3a.067.067,0,0,0-.046.016.073.073,0,0,0-.022.044Z" transform="translate(-0.234 3.063)"/>
        </g>
        <g id="Group_619" data-name="Group 619" transform="translate(2.086 57.944)">
          <path id="Path_662" data-name="Path 662" d="M.478-3.993v-.163h.1v.421h-.1v-.044a.136.136,0,0,1-.044.04.118.118,0,0,1-.055.013.115.115,0,0,1-.093-.044A.18.18,0,0,1,.25-3.887.179.179,0,0,1,.285-4a.116.116,0,0,1,.093-.044.115.115,0,0,1,.054.013.142.142,0,0,1,.046.04Zm-.065.2a.054.054,0,0,0,.048-.022.115.115,0,0,0,.017-.068.1.1,0,0,0-.017-.065.054.054,0,0,0-.048-.024.055.055,0,0,0-.048.024.111.111,0,0,0-.016.065.121.121,0,0,0,.016.068A.056.056,0,0,0,.413-3.8Z" transform="translate(-0.25 4.156)"/>
        </g>
        <g id="Group_620" data-name="Group 620" transform="translate(2.696 57.944)">
          <path id="Path_663" data-name="Path 663" d="M.615-3.8a.054.054,0,0,0,.048-.022A.115.115,0,0,0,.68-3.887a.1.1,0,0,0-.017-.065.054.054,0,0,0-.048-.024.055.055,0,0,0-.048.024.111.111,0,0,0-.016.065.121.121,0,0,0,.016.068A.056.056,0,0,0,.615-3.8Zm-.063-.2a.129.129,0,0,1,.043-.04.126.126,0,0,1,.057-.013A.115.115,0,0,1,.743-4a.175.175,0,0,1,.036.114.177.177,0,0,1-.036.116.114.114,0,0,1-.092.044A.126.126,0,0,1,.594-3.74a.122.122,0,0,1-.043-.04v.044h-.1v-.421h.1Z" transform="translate(-0.453 4.156)"/>
        </g>
        <g id="Group_621" data-name="Group 621" transform="translate(3.054 58.063)">
          <path id="Path_664" data-name="Path 664" d="M.063-2.984h.1l.082.2.07-.2h.1L.28-2.653a.17.17,0,0,1-.044.071.107.107,0,0,1-.068.021H.112v-.065h.03a.066.066,0,0,0,.036-.008A.056.056,0,0,0,.2-2.661l0-.01Z" transform="translate(-0.063 2.984)"/>
        </g>
        <g id="Group_622" data-name="Group 622" transform="translate(3.648 57.944)">
          <path id="Path_665" data-name="Path 665" d="M.453-4.037h.1v.3h-.1Zm0-.119h.1v.079h-.1Z" transform="translate(-0.453 4.156)"/>
        </g>
        <g id="Group_623" data-name="Group 623" transform="translate(3.815 58.055)">
          <path id="Path_666" data-name="Path 666" d="M.5-3.045v.078a.165.165,0,0,0-.04-.019.151.151,0,0,0-.041-.006.082.082,0,0,0-.063.024A.09.09,0,0,0,.336-2.9a.093.093,0,0,0,.022.067.082.082,0,0,0,.063.024A.142.142,0,0,0,.464-2.82.112.112,0,0,0,.5-2.841v.079a.189.189,0,0,1-.046.013.242.242,0,0,1-.048,0A.184.184,0,0,1,.28-2.785.153.153,0,0,1,.234-2.9.147.147,0,0,1,.28-3.02a.181.181,0,0,1,.128-.043.242.242,0,0,1,.048,0A.189.189,0,0,1,.5-3.045Z" transform="translate(-0.234 3.062)"/>
        </g>
        <g id="Group_624" data-name="Group 624" transform="translate(4.144 58.055)">
          <path id="Path_667" data-name="Path 667" d="M.4-2.993a.057.057,0,0,0-.049.024A.111.111,0,0,0,.336-2.9a.121.121,0,0,0,.016.068A.058.058,0,0,0,.4-2.814.059.059,0,0,0,.45-2.836.115.115,0,0,0,.467-2.9.1.1,0,0,0,.45-2.969.058.058,0,0,0,.4-2.993Zm0-.07a.165.165,0,0,1,.122.043A.152.152,0,0,1,.567-2.9a.158.158,0,0,1-.044.119A.168.168,0,0,1,.4-2.744a.17.17,0,0,1-.122-.041A.157.157,0,0,1,.234-2.9.15.15,0,0,1,.279-3.02.168.168,0,0,1,.4-3.063Z" transform="translate(-0.234 3.063)"/>
        </g>
        <g id="Group_625" data-name="Group 625" transform="translate(4.547 58.055)">
          <path id="Path_668" data-name="Path 668" d="M.759-2.937v.185h-.1v-.141c0-.026,0-.044,0-.054a.049.049,0,0,0-.006-.022.031.031,0,0,0-.016-.014A.039.039,0,0,0,.616-2.99a.057.057,0,0,0-.049.024A.115.115,0,0,0,.551-2.9v.149h-.1v-.3h.1v.044A.134.134,0,0,1,.6-3.05a.12.12,0,0,1,.054-.013.1.1,0,0,1,.079.033.134.134,0,0,1,.029.092Z" transform="translate(-0.453 3.062)"/>
        </g>
        <g id="Group_626" data-name="Group 626" transform="translate(4.907 57.944)">
          <path id="Path_669" data-name="Path 669" d="M.344-4.156v.063H.292a.047.047,0,0,0-.03.008.034.034,0,0,0-.008.025v.022H.338v.068H.254v.234h-.1v-.234H.109v-.068H.157V-4.06a.092.092,0,0,1,.027-.073.134.134,0,0,1,.087-.024Z" transform="translate(-0.109 4.156)"/>
        </g>
        <g id="Group_627" data-name="Group 627" transform="translate(5.183 57.944)">
          <path id="Path_670" data-name="Path 670" d="M.453-4.037h.1v.3h-.1Zm0-.119h.1v.079h-.1Z" transform="translate(-0.453 4.156)"/>
        </g>
        <g id="Group_628" data-name="Group 628" transform="translate(5.351 58.055)">
          <path id="Path_671" data-name="Path 671" d="M.559-2.9v.027H.333a.078.078,0,0,0,.025.052.093.093,0,0,0,.059.016A.25.25,0,0,0,.48-2.817a.315.315,0,0,0,.065-.029v.074a.306.306,0,0,1-.068.021.408.408,0,0,1-.068.006A.184.184,0,0,1,.28-2.785.153.153,0,0,1,.234-2.9.153.153,0,0,1,.279-3.02.174.174,0,0,1,.4-3.063a.154.154,0,0,1,.114.043A.157.157,0,0,1,.559-2.9Zm-.1-.033A.056.056,0,0,0,.443-2.98.054.054,0,0,0,.4-3a.067.067,0,0,0-.046.016.073.073,0,0,0-.022.044Z" transform="translate(-0.234 3.063)"/>
        </g>
        <g id="Group_629" data-name="Group 629" transform="translate(5.749 57.944)">
          <path id="Path_672" data-name="Path 672" d="M.453-4.156h.1v.421h-.1Z" transform="translate(-0.453 4.156)"/>
        </g>
        <g id="Group_630" data-name="Group 630" transform="translate(5.918 57.944)">
          <path id="Path_673" data-name="Path 673" d="M.478-3.993v-.163h.1v.421h-.1v-.044a.136.136,0,0,1-.044.04.118.118,0,0,1-.055.013.115.115,0,0,1-.093-.044A.18.18,0,0,1,.25-3.887.179.179,0,0,1,.285-4a.116.116,0,0,1,.093-.044.115.115,0,0,1,.054.013.142.142,0,0,1,.046.04Zm-.065.2a.054.054,0,0,0,.048-.022.115.115,0,0,0,.017-.068.1.1,0,0,0-.017-.065.054.054,0,0,0-.048-.024.055.055,0,0,0-.048.024.111.111,0,0,0-.016.065.121.121,0,0,0,.016.068A.056.056,0,0,0,.413-3.8Z" transform="translate(-0.25 4.156)"/>
        </g>
        <g id="Group_631" data-name="Group 631" transform="translate(0 58.498)">
          <path id="Path_674" data-name="Path 674" d="M.344-4.156v.063H.292a.047.047,0,0,0-.03.008.034.034,0,0,0-.008.025v.022H.338v.068H.254v.234h-.1v-.234H.109v-.068H.157V-4.06a.092.092,0,0,1,.027-.073.134.134,0,0,1,.087-.024Z" transform="translate(-0.109 4.156)"/>
        </g>
        <g id="Group_632" data-name="Group 632" transform="translate(0.276 58.609)">
          <path id="Path_675" data-name="Path 675" d="M.68-2.972l-.025-.01a.114.114,0,0,0-.025,0A.072.072,0,0,0,.57-2.96a.107.107,0,0,0-.019.068v.139h-.1v-.3h.1v.049a.11.11,0,0,1,.041-.043.117.117,0,0,1,.059-.014H.662l.016,0Z" transform="translate(-0.453 3.063)"/>
        </g>
        <g id="Group_633" data-name="Group 633" transform="translate(0.527 58.609)">
          <path id="Path_676" data-name="Path 676" d="M.4-2.993a.057.057,0,0,0-.049.024A.111.111,0,0,0,.336-2.9a.121.121,0,0,0,.016.068A.058.058,0,0,0,.4-2.814.059.059,0,0,0,.45-2.836.115.115,0,0,0,.467-2.9.1.1,0,0,0,.45-2.969.058.058,0,0,0,.4-2.993Zm0-.07a.165.165,0,0,1,.122.043A.152.152,0,0,1,.567-2.9a.158.158,0,0,1-.044.119A.168.168,0,0,1,.4-2.744a.17.17,0,0,1-.122-.041A.157.157,0,0,1,.234-2.9.15.15,0,0,1,.279-3.02.168.168,0,0,1,.4-3.063Z" transform="translate(-0.234 3.063)"/>
        </g>
        <g id="Group_634" data-name="Group 634" transform="translate(0.93 58.609)">
          <path id="Path_677" data-name="Path 677" d="M.735-3.005a.121.121,0,0,1,.043-.041.106.106,0,0,1,.057-.016.1.1,0,0,1,.078.033.134.134,0,0,1,.029.092v.185h-.1V-2.91a.017.017,0,0,0,0-.006v-.011a.089.089,0,0,0-.01-.048A.034.034,0,0,0,.8-2.99a.05.05,0,0,0-.044.024A.122.122,0,0,0,.746-2.9v.149h-.1V-2.91a.139.139,0,0,0-.01-.065.032.032,0,0,0-.03-.014.048.048,0,0,0-.043.024A.122.122,0,0,0,.551-2.9v.149h-.1v-.3h.1v.044a.118.118,0,0,1,.04-.04.111.111,0,0,1,.052-.013A.1.1,0,0,1,.7-3.047a.1.1,0,0,1,.036.041Z" transform="translate(-0.453 3.063)"/>
        </g>
        <g id="Group_635" data-name="Group 635" transform="translate(1.663 58.53)">
          <path id="Path_678" data-name="Path 678" d="M.222-3.844v.087h.1v.068h-.1v.13A.038.038,0,0,0,.23-3.53a.066.066,0,0,0,.035.006H.314v.07H.232a.114.114,0,0,1-.082-.024.112.112,0,0,1-.024-.081v-.13H.078v-.068H.126v-.087Z" transform="translate(-0.078 3.844)"/>
        </g>
        <g id="Group_636" data-name="Group 636" transform="translate(1.966 58.499)">
          <path id="Path_679" data-name="Path 679" d="M.759-3.92v.185h-.1v-.141c0-.026,0-.044,0-.054a.049.049,0,0,0-.006-.022.031.031,0,0,0-.016-.014.039.039,0,0,0-.021-.006.057.057,0,0,0-.049.024.115.115,0,0,0-.016.065v.149h-.1v-.421h.1v.163A.134.134,0,0,1,.6-4.033a.12.12,0,0,1,.054-.013.1.1,0,0,1,.079.033.134.134,0,0,1,.029.092Z" transform="translate(-0.453 4.156)"/>
        </g>
        <g id="Group_637" data-name="Group 637" transform="translate(2.338 58.609)">
          <path id="Path_680" data-name="Path 680" d="M.559-2.9v.027H.333a.078.078,0,0,0,.025.052.093.093,0,0,0,.059.016A.25.25,0,0,0,.48-2.817a.315.315,0,0,0,.065-.029v.074a.306.306,0,0,1-.068.021.408.408,0,0,1-.068.006A.184.184,0,0,1,.28-2.785.153.153,0,0,1,.234-2.9.153.153,0,0,1,.279-3.02.174.174,0,0,1,.4-3.063a.154.154,0,0,1,.114.043A.157.157,0,0,1,.559-2.9Zm-.1-.033A.056.056,0,0,0,.443-2.98.054.054,0,0,0,.4-3a.067.067,0,0,0-.046.016.073.073,0,0,0-.022.044Z" transform="translate(-0.234 3.063)"/>
        </g>
        <g id="Group_638" data-name="Group 638" transform="translate(2.934 58.516)">
          <path id="Path_681" data-name="Path 681" d="M.5-3.984H.617l.146.277v-.277h.1v.4H.746L.6-3.858v.277H.5Z" transform="translate(-0.5 3.984)"/>
        </g>
        <g id="Group_639" data-name="Group 639" transform="translate(3.372 58.609)">
          <path id="Path_682" data-name="Path 682" d="M.4-2.993a.057.057,0,0,0-.049.024A.111.111,0,0,0,.336-2.9a.121.121,0,0,0,.016.068A.058.058,0,0,0,.4-2.814.059.059,0,0,0,.45-2.836.115.115,0,0,0,.467-2.9.1.1,0,0,0,.45-2.969.058.058,0,0,0,.4-2.993Zm0-.07a.165.165,0,0,1,.122.043A.152.152,0,0,1,.567-2.9a.158.158,0,0,1-.044.119A.168.168,0,0,1,.4-2.744a.17.17,0,0,1-.122-.041A.157.157,0,0,1,.234-2.9.15.15,0,0,1,.279-3.02.168.168,0,0,1,.4-3.063Z" transform="translate(-0.234 3.063)"/>
        </g>
        <g id="Group_640" data-name="Group 640" transform="translate(3.772 58.617)">
          <path id="Path_683" data-name="Path 683" d="M.422-2.8v-.184h.1v.141c0,.025,0,.042,0,.054a.042.042,0,0,0,.006.022.05.05,0,0,0,.016.016.048.048,0,0,0,.022,0,.056.056,0,0,0,.048-.024.108.108,0,0,0,.017-.065v-.149h.1v.3h-.1v-.044a.149.149,0,0,1-.048.04.115.115,0,0,1-.054.013.1.1,0,0,1-.081-.032.146.146,0,0,1-.027-.1Z" transform="translate(-0.422 2.984)"/>
        </g>
        <g id="Group_641" data-name="Group 641" transform="translate(4.17 58.609)">
          <path id="Path_684" data-name="Path 684" d="M.759-2.937v.185h-.1v-.141c0-.026,0-.044,0-.054a.049.049,0,0,0-.006-.022.031.031,0,0,0-.016-.014A.039.039,0,0,0,.616-2.99a.057.057,0,0,0-.049.024A.115.115,0,0,0,.551-2.9v.149h-.1v-.3h.1v.044A.134.134,0,0,1,.6-3.05a.12.12,0,0,1,.054-.013.1.1,0,0,1,.079.033.134.134,0,0,1,.029.092Z" transform="translate(-0.453 3.062)"/>
        </g>
        <g id="Group_642" data-name="Group 642" transform="translate(4.762 58.516)">
          <path id="Path_685" data-name="Path 685" d="M.5-3.984H.673a.182.182,0,0,1,.119.035.118.118,0,0,1,.041.1.121.121,0,0,1-.041.1.186.186,0,0,1-.119.033H.6v.141H.5Zm.1.076V-3.8H.662A.067.067,0,0,0,.708-3.81a.055.055,0,0,0,.017-.043.051.051,0,0,0-.017-.041.067.067,0,0,0-.046-.014Z" transform="translate(-0.5 3.984)"/>
        </g>
        <g id="Group_643" data-name="Group 643" transform="translate(5.164 58.609)">
          <path id="Path_686" data-name="Path 686" d="M.68-2.972l-.025-.01a.114.114,0,0,0-.025,0A.072.072,0,0,0,.57-2.96a.107.107,0,0,0-.019.068v.139h-.1v-.3h.1v.049a.11.11,0,0,1,.041-.043.117.117,0,0,1,.059-.014H.662l.016,0Z" transform="translate(-0.453 3.063)"/>
        </g>
        <g id="Group_644" data-name="Group 644" transform="translate(5.415 58.609)">
          <path id="Path_687" data-name="Path 687" d="M.4-2.993a.057.057,0,0,0-.049.024A.111.111,0,0,0,.336-2.9a.121.121,0,0,0,.016.068A.058.058,0,0,0,.4-2.814.059.059,0,0,0,.45-2.836.115.115,0,0,0,.467-2.9.1.1,0,0,0,.45-2.969.058.058,0,0,0,.4-2.993Zm0-.07a.165.165,0,0,1,.122.043A.152.152,0,0,1,.567-2.9a.158.158,0,0,1-.044.119A.168.168,0,0,1,.4-2.744a.17.17,0,0,1-.122-.041A.157.157,0,0,1,.234-2.9.15.15,0,0,1,.279-3.02.168.168,0,0,1,.4-3.063Z" transform="translate(-0.234 3.063)"/>
        </g>
        <g id="Group_645" data-name="Group 645" transform="translate(5.753 58.498)">
          <path id="Path_688" data-name="Path 688" d="M-.123-4.037h.1v.3a.13.13,0,0,1-.03.092.1.1,0,0,1-.084.033H-.188V-3.68H-.17a.044.044,0,0,0,.036-.013A.073.073,0,0,0-.123-3.74Zm0-.119h.1v.079h-.1Z" transform="translate(0.188 4.156)"/>
        </g>
        <g id="Group_646" data-name="Group 646" transform="translate(5.986 58.609)">
          <path id="Path_689" data-name="Path 689" d="M.559-2.9v.027H.333a.078.078,0,0,0,.025.052.093.093,0,0,0,.059.016A.25.25,0,0,0,.48-2.817a.315.315,0,0,0,.065-.029v.074a.306.306,0,0,1-.068.021.408.408,0,0,1-.068.006A.184.184,0,0,1,.28-2.785.153.153,0,0,1,.234-2.9.153.153,0,0,1,.279-3.02.174.174,0,0,1,.4-3.063a.154.154,0,0,1,.114.043A.157.157,0,0,1,.559-2.9Zm-.1-.033A.056.056,0,0,0,.443-2.98.054.054,0,0,0,.4-3a.067.067,0,0,0-.046.016.073.073,0,0,0-.022.044Z" transform="translate(-0.234 3.063)"/>
        </g>
        <g id="Group_647" data-name="Group 647" transform="translate(6.361 58.609)">
          <path id="Path_690" data-name="Path 690" d="M.5-3.045v.078a.165.165,0,0,0-.04-.019.151.151,0,0,0-.041-.006.082.082,0,0,0-.063.024A.09.09,0,0,0,.336-2.9a.093.093,0,0,0,.022.067.082.082,0,0,0,.063.024A.142.142,0,0,0,.464-2.82.112.112,0,0,0,.5-2.841v.079a.189.189,0,0,1-.046.013.242.242,0,0,1-.048,0A.184.184,0,0,1,.28-2.785.153.153,0,0,1,.234-2.9.147.147,0,0,1,.28-3.02a.181.181,0,0,1,.128-.043.242.242,0,0,1,.048,0A.189.189,0,0,1,.5-3.045Z" transform="translate(-0.234 3.062)"/>
        </g>
        <g id="Group_648" data-name="Group 648" transform="translate(6.674 58.53)">
          <path id="Path_691" data-name="Path 691" d="M.222-3.844v.087h.1v.068h-.1v.13A.038.038,0,0,0,.23-3.53a.066.066,0,0,0,.035.006H.314v.07H.232a.114.114,0,0,1-.082-.024.112.112,0,0,1-.024-.081v-.13H.078v-.068H.126v-.087Z" transform="translate(-0.078 3.844)"/>
        </g>
      </g>
    </g>
    <rect id="Rectangle_42" data-name="Rectangle 42" width="7" height="9" transform="translate(11001 3846.887)"/>
  </g>
</svg>
