<svg xmlns="http://www.w3.org/2000/svg" xmlns:xlink="http://www.w3.org/1999/xlink" width="23" height="25" viewBox="0 0 23 25">
  <defs>
    <clipPath id="clip-path">
      <rect id="Rectangle_40" data-name="Rectangle 40" width="17" height="18" transform="translate(0.246 -0.344)" fill="#fff" stroke="#707070" stroke-width="1"/>
    </clipPath>
  </defs>
  <g id="Group_649" data-name="Group 649" transform="translate(-10968 -3848.066)">
    <rect id="Rectangle_41" data-name="Rectangle 41" width="23" height="24" rx="2" transform="translate(10968 3849.066)"/>
    <g id="Mask_Group_19" data-name="Mask Group 19" transform="translate(10970.754 3852.411)" clip-path="url(#clip-path)">
      <g id="noun-veins-3042576" transform="translate(-0.266 -0.047)">
        <path id="Path_654" data-name="Path 654" d="M78.207.684a.544.544,0,0,0-.545.544V3.282a3.244,3.244,0,0,0-2.511,2.127A.56.56,0,0,1,74.6,4.85V2.358A1.676,1.676,0,0,0,72.925.684H71.64a.544.544,0,1,0,0,1.089h1.286a.586.586,0,0,1,.585.585V4.85a1.65,1.65,0,0,0,1.463,1.638v.695a.783.783,0,0,1-.782.782h-.715A.375.375,0,0,1,73.1,7.59a1.464,1.464,0,0,0-1.463-1.463.544.544,0,1,0,0,1.089.375.375,0,0,1,.374.374,1.464,1.464,0,0,0,1.463,1.463h.715a1.859,1.859,0,0,0,.782-.172V10.21a.715.715,0,0,1-.715.715,1.669,1.669,0,0,0-1.667,1.667.544.544,0,0,0,1.089,0,.579.579,0,0,1,.578-.578,1.805,1.805,0,0,0,1.8-1.8V6.469a2.148,2.148,0,0,1,1.6-2.075V15.372h-.716a2.194,2.194,0,0,0-2.122-1.645h-.668a.544.544,0,1,0,0,1.089h.668a1.1,1.1,0,0,1,1,.65,1.346,1.346,0,0,0-.855,1.252.256.256,0,0,1-.255.255H71.64a.544.544,0,1,0,0,1.089h3.077a1.345,1.345,0,0,0,1.344-1.344.256.256,0,0,1,.255-.255h1.346v1.055a.544.544,0,1,0,1.089,0V1.228a.544.544,0,0,0-.544-.544Z" transform="translate(-71.065 -0.684)" fill="#fff"/>
        <path id="Path_655" data-name="Path 655" d="M389.879,7.977a.544.544,0,1,0,0-1.089,1.227,1.227,0,0,1-1.225-1.225v-.9a1.718,1.718,0,0,0-1.718-1.718h-.494V2.954a1.183,1.183,0,0,1,1.184-1.181h2.254a.544.544,0,1,0,0-1.089h-2.254a2.273,2.273,0,0,0-2.27,2.27v.986a1.179,1.179,0,0,1-1.178,1.178h-.321V1.228a.544.544,0,0,0-1.089,0V17.516a.544.544,0,0,0,1.089,0V15.324h1.56a.824.824,0,0,1,.823.823,1.914,1.914,0,0,0,1.911,1.911h1.729a.544.544,0,1,0,0-1.089H388.15a.824.824,0,0,1-.823-.823,1.914,1.914,0,0,0-1.911-1.911h-1.56V10.971h.379a2.523,2.523,0,0,0,2.516,2.382h.951a1.362,1.362,0,0,0,1.361-1.361.545.545,0,0,1,.544-.544h.272a.544.544,0,1,0,0-1.089h-.272a1.635,1.635,0,0,0-1.633,1.633.272.272,0,0,1-.272.272h-.951a1.432,1.432,0,0,1-1.43-1.4,2.148,2.148,0,0,0,1.463-2.034v-.64a.544.544,0,0,0-1.089,0v.64a1.058,1.058,0,0,1-1.057,1.057h-.782V6.208h.321a2.271,2.271,0,0,0,2.258-2.073h.5a.63.63,0,0,1,.629.629v.9a2.316,2.316,0,0,0,2.313,2.313Z" transform="translate(-373.042 -0.684)" fill="#fff"/>
        <g id="Group_613" data-name="Group 613" transform="translate(0.004 17.78)">
          <path id="Path_656" data-name="Path 656" d="M.37-3.945l-.018.007-.019,0a.07.07,0,0,1-.05-.017A.061.061,0,0,1,.265-4a.061.061,0,0,1,.018-.047.069.069,0,0,1,.05-.017l.019,0,.018.007v.026L.353-4.039a.054.054,0,0,0-.018,0,.035.035,0,0,0-.029.012A.043.043,0,0,0,.3-4a.044.044,0,0,0,.01.031.036.036,0,0,0,.027.011l.018,0a.064.064,0,0,0,.017-.009Z" transform="translate(-0.265 4.065)"/>
        </g>
        <g id="Group_614" data-name="Group 614" transform="translate(0.135 17.814)">
          <path id="Path_657" data-name="Path 657" d="M.521-3.031l-.008,0H.506a.022.022,0,0,0-.018.007.033.033,0,0,0-.006.021v.043H.451v-.092H.482v.016a.034.034,0,0,1,.013-.013.036.036,0,0,1,.018,0H.521Z" transform="translate(-0.451 3.057)"/>
        </g>
        <g id="Group_615" data-name="Group 615" transform="translate(0.212 17.812)">
          <path id="Path_658" data-name="Path 658" d="M.333-3.013V-3H.264a.024.024,0,0,0,.008.016.029.029,0,0,0,.018,0l.019,0L.329-3v.023l-.021.006-.021,0a.056.056,0,0,1-.04-.012.047.047,0,0,1-.014-.035A.047.047,0,0,1,.248-3.05a.053.053,0,0,1,.037-.013A.047.047,0,0,1,.32-3.05.048.048,0,0,1,.333-3.013ZM.3-3.023a.017.017,0,0,0,0-.014.017.017,0,0,0-.013-.006.021.021,0,0,0-.014,0,.022.022,0,0,0-.007.013Z" transform="translate(-0.234 3.063)"/>
        </g>
        <g id="Group_616" data-name="Group 616" transform="translate(0.328 17.813)">
          <path id="Path_659" data-name="Path 659" d="M.283-3.009a.025.025,0,0,0-.014,0A.01.01,0,0,0,.264-3a.011.011,0,0,0,0,.009.017.017,0,0,0,.011,0A.019.019,0,0,0,.292-2.99.02.02,0,0,0,.3-3.005v0ZM.328-3.02v.053H.3v-.015a.037.037,0,0,1-.013.012.039.039,0,0,1-.018,0,.034.034,0,0,1-.024-.008A.031.031,0,0,1,.234-3,.028.028,0,0,1,.245-3.02.064.064,0,0,1,.28-3.027H.3v0a.01.01,0,0,0-.006-.01.034.034,0,0,0-.018,0l-.018,0-.015.005v-.022l.019,0H.28a.054.054,0,0,1,.037.01.041.041,0,0,1,.011.031Z" transform="translate(-0.234 3.062)"/>
        </g>
        <g id="Group_617" data-name="Group 617" transform="translate(0.438 17.788)">
          <path id="Path_660" data-name="Path 660" d="M.122-3.844v.027H.153V-3.8H.122v.04a.012.012,0,0,0,0,.009.02.02,0,0,0,.011,0H.15v.021H.125A.035.035,0,0,1,.1-3.732a.034.034,0,0,1-.007-.025V-3.8H.078v-.021H.093v-.027Z" transform="translate(-0.078 3.844)"/>
        </g>
        <g id="Group_618" data-name="Group 618" transform="translate(0.524 17.812)">
          <path id="Path_661" data-name="Path 661" d="M.333-3.013V-3H.264a.024.024,0,0,0,.008.016.029.029,0,0,0,.018,0l.019,0L.329-3v.023l-.021.006-.021,0a.056.056,0,0,1-.04-.012.047.047,0,0,1-.014-.035A.047.047,0,0,1,.248-3.05a.053.053,0,0,1,.037-.013A.047.047,0,0,1,.32-3.05.048.048,0,0,1,.333-3.013ZM.3-3.023a.017.017,0,0,0,0-.014.017.017,0,0,0-.013-.006.021.021,0,0,0-.014,0,.022.022,0,0,0-.007.013Z" transform="translate(-0.234 3.063)"/>
        </g>
        <g id="Group_619" data-name="Group 619" transform="translate(0.64 17.778)">
          <path id="Path_662" data-name="Path 662" d="M.32-4.106v-.05H.35v.129H.32V-4.04a.042.042,0,0,1-.013.012.036.036,0,0,1-.017,0,.035.035,0,0,1-.029-.013A.055.055,0,0,1,.25-4.073a.055.055,0,0,1,.011-.035.036.036,0,0,1,.029-.013.035.035,0,0,1,.017,0,.044.044,0,0,1,.014.012ZM.3-4.045a.017.017,0,0,0,.015-.007A.035.035,0,0,0,.32-4.072a.031.031,0,0,0-.005-.02A.017.017,0,0,0,.3-4.1a.017.017,0,0,0-.015.007.034.034,0,0,0,0,.02.037.037,0,0,0,0,.021.017.017,0,0,0,.015,0Z" transform="translate(-0.25 4.156)"/>
        </g>
        <g id="Group_620" data-name="Group 620" transform="translate(0.827 17.778)">
          <path id="Path_663" data-name="Path 663" d="M.5-4.047a.017.017,0,0,0,.015-.007.035.035,0,0,0,.005-.02.031.031,0,0,0-.005-.02A.017.017,0,0,0,.5-4.1a.017.017,0,0,0-.015.007.034.034,0,0,0,0,.02.037.037,0,0,0,0,.021A.017.017,0,0,0,.5-4.047ZM.482-4.109A.04.04,0,0,1,.5-4.121a.039.039,0,0,1,.017,0,.035.035,0,0,1,.028.016.054.054,0,0,1,.011.035.054.054,0,0,1-.011.036.035.035,0,0,1-.028.013.039.039,0,0,1-.017,0,.037.037,0,0,1-.013-.012v.013H.451v-.129H.482Z" transform="translate(-0.451 4.157)"/>
        </g>
        <g id="Group_621" data-name="Group 621" transform="translate(0.937 17.815)">
          <path id="Path_664" data-name="Path 664" d="M.063-2.984H.094l.025.061L.14-2.984H.171l-.041.1a.052.052,0,0,1-.013.022A.033.033,0,0,1,.1-2.854H.078v-.02H.087a.02.02,0,0,0,.011,0,.017.017,0,0,0,.007-.008v0Z" transform="translate(-0.063 2.984)"/>
        </g>
        <g id="Group_622" data-name="Group 622" transform="translate(1.119 17.778)">
          <path id="Path_665" data-name="Path 665" d="M.453-4.119H.484v.092H.453Zm0-.037H.484v.024H.453Z" transform="translate(-0.453 4.156)"/>
        </g>
        <g id="Group_623" data-name="Group 623" transform="translate(1.17 17.812)">
          <path id="Path_666" data-name="Path 666" d="M.315-3.058v.024L.3-3.04l-.013,0a.025.025,0,0,0-.019.007.028.028,0,0,0-.006.021.029.029,0,0,0,.007.021.025.025,0,0,0,.019.007l.013,0L.315-3v.024l-.014,0H.286a.056.056,0,0,1-.039-.011.047.047,0,0,1-.014-.035.045.045,0,0,1,.014-.037.056.056,0,0,1,.039-.013H.3l.013.006Z" transform="translate(-0.233 3.064)"/>
        </g>
        <g id="Group_624" data-name="Group 624" transform="translate(1.271 17.812)">
          <path id="Path_667" data-name="Path 667" d="M.285-3.042a.017.017,0,0,0-.015.007.034.034,0,0,0,0,.021.037.037,0,0,0,0,.021.018.018,0,0,0,.015.006A.018.018,0,0,0,.3-2.994a.035.035,0,0,0,.005-.02A.031.031,0,0,0,.3-3.034a.018.018,0,0,0-.015-.007Zm0-.021a.051.051,0,0,1,.037.013.047.047,0,0,1,.014.037.048.048,0,0,1-.013.037.052.052,0,0,1-.038.011.052.052,0,0,1-.037-.013.048.048,0,0,1-.013-.035A.046.046,0,0,1,.247-3.05a.052.052,0,0,1,.037-.013Z" transform="translate(-0.233 3.063)"/>
        </g>
        <g id="Group_625" data-name="Group 625" transform="translate(1.394 17.812)">
          <path id="Path_668" data-name="Path 668" d="M.545-3.024v.057H.515v-.06a.015.015,0,0,0,0-.007.01.01,0,0,0,0,0l-.006,0a.017.017,0,0,0-.015.007.035.035,0,0,0,0,.02v.046H.451v-.092H.482v.014A.041.041,0,0,1,.5-3.059a.037.037,0,0,1,.017,0,.031.031,0,0,1,.024.01.041.041,0,0,1,.009.028Z" transform="translate(-0.451 3.063)"/>
        </g>
        <g id="Group_626" data-name="Group 626" transform="translate(1.506 17.778)">
          <path id="Path_669" data-name="Path 669" d="M.181-4.157v.019H.165a.014.014,0,0,0-.009,0,.01.01,0,0,0,0,.008v.007H.179V-4.1H.153v.072H.123V-4.1H.109v-.021H.124v-.007A.028.028,0,0,1,.132-4.15a.041.041,0,0,1,.027-.007Z" transform="translate(-0.109 4.157)"/>
        </g>
        <g id="Group_627" data-name="Group 627" transform="translate(1.59 17.778)">
          <path id="Path_670" data-name="Path 670" d="M.453-4.119H.484v.092H.453Zm0-.037H.484v.024H.453Z" transform="translate(-0.453 4.156)"/>
        </g>
        <g id="Group_628" data-name="Group 628" transform="translate(1.642 17.812)">
          <path id="Path_671" data-name="Path 671" d="M.333-3.013V-3H.264a.024.024,0,0,0,.008.016.029.029,0,0,0,.018,0l.019,0L.329-3v.023l-.021.006-.021,0a.056.056,0,0,1-.04-.012.047.047,0,0,1-.014-.035A.047.047,0,0,1,.248-3.05a.053.053,0,0,1,.037-.013A.047.047,0,0,1,.32-3.05.048.048,0,0,1,.333-3.013ZM.3-3.023a.017.017,0,0,0,0-.014.017.017,0,0,0-.013-.006.021.021,0,0,0-.014,0,.022.022,0,0,0-.007.013Z" transform="translate(-0.234 3.063)"/>
        </g>
        <g id="Group_629" data-name="Group 629" transform="translate(1.764 17.778)">
          <path id="Path_672" data-name="Path 672" d="M.453-4.156H.484v.129H.453Z" transform="translate(-0.453 4.156)"/>
        </g>
        <g id="Group_630" data-name="Group 630" transform="translate(1.816 17.778)">
          <path id="Path_673" data-name="Path 673" d="M.32-4.106v-.05H.35v.129H.32V-4.04a.042.042,0,0,1-.013.012.036.036,0,0,1-.017,0,.035.035,0,0,1-.029-.013A.055.055,0,0,1,.25-4.073a.055.055,0,0,1,.011-.035.036.036,0,0,1,.029-.013.035.035,0,0,1,.017,0,.044.044,0,0,1,.014.012ZM.3-4.045a.017.017,0,0,0,.015-.007A.035.035,0,0,0,.32-4.072a.031.031,0,0,0-.005-.02A.017.017,0,0,0,.3-4.1a.017.017,0,0,0-.015.007.034.034,0,0,0,0,.02.037.037,0,0,0,0,.021.017.017,0,0,0,.015,0Z" transform="translate(-0.25 4.156)"/>
        </g>
        <g id="Group_631" data-name="Group 631" transform="translate(0 17.948)">
          <path id="Path_674" data-name="Path 674" d="M.181-4.157v.019H.165a.014.014,0,0,0-.009,0,.01.01,0,0,0,0,.008v.007H.179V-4.1H.153v.072H.123V-4.1H.109v-.021H.124v-.007A.028.028,0,0,1,.132-4.15a.041.041,0,0,1,.027-.007Z" transform="translate(-0.109 4.157)"/>
        </g>
        <g id="Group_632" data-name="Group 632" transform="translate(0.084 17.984)">
          <path id="Path_675" data-name="Path 675" d="M.521-3.031l-.008,0H.506a.022.022,0,0,0-.018.007.033.033,0,0,0-.006.021v.043H.451v-.092H.482v.016a.034.034,0,0,1,.013-.013.036.036,0,0,1,.018,0H.521Z" transform="translate(-0.451 3.057)"/>
        </g>
        <g id="Group_633" data-name="Group 633" transform="translate(0.162 17.982)">
          <path id="Path_676" data-name="Path 676" d="M.285-3.042a.017.017,0,0,0-.015.007.034.034,0,0,0,0,.021.037.037,0,0,0,0,.021.018.018,0,0,0,.015.006A.018.018,0,0,0,.3-2.994a.035.035,0,0,0,.005-.02A.031.031,0,0,0,.3-3.034a.018.018,0,0,0-.015-.007Zm0-.021a.051.051,0,0,1,.037.013.047.047,0,0,1,.014.037.048.048,0,0,1-.013.037.052.052,0,0,1-.038.011.052.052,0,0,1-.037-.013.048.048,0,0,1-.013-.035A.046.046,0,0,1,.247-3.05a.052.052,0,0,1,.037-.013Z" transform="translate(-0.233 3.063)"/>
        </g>
        <g id="Group_634" data-name="Group 634" transform="translate(0.285 17.983)">
          <path id="Path_677" data-name="Path 677" d="M.538-3.045a.037.037,0,0,1,.013-.013.033.033,0,0,1,.017,0,.031.031,0,0,1,.024.01A.041.041,0,0,1,.6-3.024v.057H.571v-.048a.005.005,0,0,0,0,0v0a.027.027,0,0,0,0-.015.01.01,0,0,0-.01,0,.015.015,0,0,0-.013.007.037.037,0,0,0,0,.02v.046H.511v-.049a.043.043,0,0,0,0-.02.01.01,0,0,0-.009,0,.015.015,0,0,0-.013.007.037.037,0,0,0,0,.02v.046H.451v-.092H.482v.013a.036.036,0,0,1,.012-.012.034.034,0,0,1,.016,0,.031.031,0,0,1,.017,0,.031.031,0,0,1,.011.013Z" transform="translate(-0.451 3.062)"/>
        </g>
        <g id="Group_635" data-name="Group 635" transform="translate(0.51 17.958)">
          <path id="Path_678" data-name="Path 678" d="M.122-3.844v.027H.153V-3.8H.122v.04a.012.012,0,0,0,0,.009.02.02,0,0,0,.011,0H.15v.021H.125A.035.035,0,0,1,.1-3.732a.034.034,0,0,1-.007-.025V-3.8H.078v-.021H.093v-.027Z" transform="translate(-0.078 3.844)"/>
        </g>
        <g id="Group_636" data-name="Group 636" transform="translate(0.603 17.949)">
          <path id="Path_679" data-name="Path 679" d="M.545-4.083v.057H.515v-.06a.015.015,0,0,0,0-.007.01.01,0,0,0,0,0L.5-4.1a.017.017,0,0,0-.015.007.035.035,0,0,0,0,.02v.046H.451v-.129H.482v.05A.041.041,0,0,1,.5-4.118a.037.037,0,0,1,.017,0,.031.031,0,0,1,.024.01.041.041,0,0,1,.009.028Z" transform="translate(-0.451 4.155)"/>
        </g>
        <g id="Group_637" data-name="Group 637" transform="translate(0.717 17.982)">
          <path id="Path_680" data-name="Path 680" d="M.333-3.013V-3H.264a.024.024,0,0,0,.008.016.029.029,0,0,0,.018,0l.019,0L.329-3v.023l-.021.006-.021,0a.056.056,0,0,1-.04-.012.047.047,0,0,1-.014-.035A.047.047,0,0,1,.248-3.05a.053.053,0,0,1,.037-.013A.047.047,0,0,1,.32-3.05.048.048,0,0,1,.333-3.013ZM.3-3.023a.017.017,0,0,0,0-.014.017.017,0,0,0-.013-.006.021.021,0,0,0-.014,0,.022.022,0,0,0-.007.013Z" transform="translate(-0.234 3.063)"/>
        </g>
        <g id="Group_638" data-name="Group 638" transform="translate(0.9 17.954)">
          <path id="Path_681" data-name="Path 681" d="M.5-3.984H.536L.581-3.9v-.085H.611v.123H.575L.531-3.945v.085H.5Z" transform="translate(-0.5 3.984)"/>
        </g>
        <g id="Group_639" data-name="Group 639" transform="translate(1.034 17.982)">
          <path id="Path_682" data-name="Path 682" d="M.285-3.042a.017.017,0,0,0-.015.007.034.034,0,0,0,0,.021.037.037,0,0,0,0,.021.018.018,0,0,0,.015.006A.018.018,0,0,0,.3-2.994a.035.035,0,0,0,.005-.02A.031.031,0,0,0,.3-3.034a.018.018,0,0,0-.015-.007Zm0-.021a.051.051,0,0,1,.037.013.047.047,0,0,1,.014.037.048.048,0,0,1-.013.037.052.052,0,0,1-.038.011.052.052,0,0,1-.037-.013.048.048,0,0,1-.013-.035A.046.046,0,0,1,.247-3.05a.052.052,0,0,1,.037-.013Z" transform="translate(-0.233 3.063)"/>
        </g>
        <g id="Group_640" data-name="Group 640" transform="translate(1.157 17.983)">
          <path id="Path_683" data-name="Path 683" d="M.421-2.931v-.056H.451v.06a.013.013,0,0,0,0,.007l0,0H.465A.017.017,0,0,0,.48-2.923a.033.033,0,0,0,.005-.02v-.046H.516V-2.9H.485V-2.91A.046.046,0,0,1,.47-2.9a.035.035,0,0,1-.017,0A.031.031,0,0,1,.429-2.9a.045.045,0,0,1-.008-.031Z" transform="translate(-0.42 2.989)"/>
        </g>
        <g id="Group_641" data-name="Group 641" transform="translate(1.279 17.982)">
          <path id="Path_684" data-name="Path 684" d="M.545-3.024v.057H.515v-.06a.015.015,0,0,0,0-.007.01.01,0,0,0,0,0l-.006,0a.017.017,0,0,0-.015.007.035.035,0,0,0,0,.02v.046H.451v-.092H.482v.014A.041.041,0,0,1,.5-3.059a.037.037,0,0,1,.017,0,.031.031,0,0,1,.024.01.041.041,0,0,1,.009.028Z" transform="translate(-0.451 3.063)"/>
        </g>
        <g id="Group_642" data-name="Group 642" transform="translate(1.461 17.954)">
          <path id="Path_685" data-name="Path 685" d="M.5-3.984H.553a.056.056,0,0,1,.037.011A.036.036,0,0,1,.6-3.943a.037.037,0,0,1-.013.031.057.057,0,0,1-.037.01H.531v.043H.5Zm.031.023v.033H.55a.021.021,0,0,0,.014,0,.017.017,0,0,0,.005-.013.016.016,0,0,0-.005-.013.021.021,0,0,0-.014,0Z" transform="translate(-0.5 3.984)"/>
        </g>
        <g id="Group_643" data-name="Group 643" transform="translate(1.584 17.984)">
          <path id="Path_686" data-name="Path 686" d="M.521-3.031l-.008,0H.506a.022.022,0,0,0-.018.007.033.033,0,0,0-.006.021v.043H.451v-.092H.482v.016a.034.034,0,0,1,.013-.013.036.036,0,0,1,.018,0H.521Z" transform="translate(-0.451 3.057)"/>
        </g>
        <g id="Group_644" data-name="Group 644" transform="translate(1.661 17.982)">
          <path id="Path_687" data-name="Path 687" d="M.285-3.042a.017.017,0,0,0-.015.007.034.034,0,0,0,0,.021.037.037,0,0,0,0,.021.018.018,0,0,0,.015.006A.018.018,0,0,0,.3-2.994a.035.035,0,0,0,.005-.02A.031.031,0,0,0,.3-3.034a.018.018,0,0,0-.015-.007Zm0-.021a.051.051,0,0,1,.037.013.047.047,0,0,1,.014.037.048.048,0,0,1-.013.037.052.052,0,0,1-.038.011.052.052,0,0,1-.037-.013.048.048,0,0,1-.013-.035A.046.046,0,0,1,.247-3.05a.052.052,0,0,1,.037-.013Z" transform="translate(-0.233 3.063)"/>
        </g>
        <g id="Group_645" data-name="Group 645" transform="translate(1.765 17.948)">
          <path id="Path_688" data-name="Path 688" d="M-.168-4.119h.031v.092A.04.04,0,0,1-.147-4a.031.031,0,0,1-.026.01H-.188V-4.01h.006a.013.013,0,0,0,.011,0,.022.022,0,0,0,0-.014Zm0-.037h.031v.024H-.168Z" transform="translate(0.188 4.156)"/>
        </g>
        <g id="Group_646" data-name="Group 646" transform="translate(1.836 17.982)">
          <path id="Path_689" data-name="Path 689" d="M.333-3.013V-3H.264a.024.024,0,0,0,.008.016.029.029,0,0,0,.018,0l.019,0L.329-3v.023l-.021.006-.021,0a.056.056,0,0,1-.04-.012.047.047,0,0,1-.014-.035A.047.047,0,0,1,.248-3.05a.053.053,0,0,1,.037-.013A.047.047,0,0,1,.32-3.05.048.048,0,0,1,.333-3.013ZM.3-3.023a.017.017,0,0,0,0-.014.017.017,0,0,0-.013-.006.021.021,0,0,0-.014,0,.022.022,0,0,0-.007.013Z" transform="translate(-0.234 3.063)"/>
        </g>
        <g id="Group_647" data-name="Group 647" transform="translate(1.951 17.982)">
          <path id="Path_690" data-name="Path 690" d="M.315-3.058v.024L.3-3.04l-.013,0a.025.025,0,0,0-.019.007.028.028,0,0,0-.006.021.029.029,0,0,0,.007.021.025.025,0,0,0,.019.007l.013,0L.315-3v.024l-.014,0H.286a.056.056,0,0,1-.039-.011.047.047,0,0,1-.014-.035.045.045,0,0,1,.014-.037.056.056,0,0,1,.039-.013H.3l.013.006Z" transform="translate(-0.233 3.064)"/>
        </g>
        <g id="Group_648" data-name="Group 648" transform="translate(2.048 17.958)">
          <path id="Path_691" data-name="Path 691" d="M.122-3.844v.027H.153V-3.8H.122v.04a.012.012,0,0,0,0,.009.02.02,0,0,0,.011,0H.15v.021H.125A.035.035,0,0,1,.1-3.732a.034.034,0,0,1-.007-.025V-3.8H.078v-.021H.093v-.027Z" transform="translate(-0.078 3.844)"/>
        </g>
      </g>
    </g>
    <rect id="Rectangle_42" data-name="Rectangle 42" width="2" height="2" transform="translate(10978 3848.066)"/>
  </g>
</svg>
