<svg xmlns="http://www.w3.org/2000/svg" xmlns:xlink="http://www.w3.org/1999/xlink" width="30.766" height="27.161" viewBox="0 0 30.766 27.161">
  <defs>
    <clipPath id="clip-path">
      <rect id="Rectangle_31" data-name="Rectangle 31" width="11.716" height="6.639" transform="translate(0 0)" fill="#fff" stroke="#707070" stroke-width="1"/>
    </clipPath>
  </defs>
  <g id="Group_395" data-name="Group 395" transform="translate(-7418.998 -1742)">
    <g id="i-physical-therapy-svgrepo-com" transform="translate(7418.998 1748.17)">
      <path id="Path_357" data-name="Path 357" d="M24,57.18H1.193c-.644,0-.578.5-.578.5v.84a1.015,1.015,0,0,0,1.063,1.094H30.234A1,1,0,0,0,31.3,58.551V56.223a.9.9,0,0,0-.961-.736H27.558c-.954,0-1.743,1.693-3.56,1.693Z" transform="translate(-0.594 -38.631)"/>
      <path id="Path_358" data-name="Path 358" d="M53.348,45.633a2.572,2.572,0,1,0,.755-1.82A2.572,2.572,0,0,0,53.348,45.633Z" transform="translate(-27.727 -32.24)"/>
      <path id="Path_359" data-name="Path 359" d="M32.4,34.976a1.83,1.83,0,0,1-1.1,1.146l-2.3.853.847.84h3.874l0-5.93-1.3,3.057a.321.321,0,0,1-.026.036Z" transform="translate(-15.2 -26.49)"/>
      <path id="Path_360" data-name="Path 360" d="M23.337,42.366H15.326L13.395,40.48l-1.344.5A2.091,2.091,0,0,1,9.465,39.8a1.944,1.944,0,0,1,.178-1.8c-.164-.007-4.858,0-4.858,0A1.411,1.411,0,0,0,3.369,39.4a1.4,1.4,0,0,0,1.415,1.39H9.563l1.895,2.869-9.783.786a1.412,1.412,0,0,0,.316,2.789H12.968a2.007,2.007,0,0,1-.305-1.057,2.027,2.027,0,0,1,2.026-2.026H19.08l3.559-.742.2.945-3.657.764H14.687a1.059,1.059,0,1,0-.021,2.117h8.689a2.436,2.436,0,1,0-.019-4.872Z" transform="translate(-0.575 -29.632)"/>
      <path id="Path_361" data-name="Path 361" d="M16.416,31.229a1.12,1.12,0,1,1-.9-2.051L19.6,27.647l1.26-3.007-.82-.3-1.075,2.575-3.1,1.143V24.908l-3.033,3.314-3.434,0s6.01-6.588,6.2-6.785a2.581,2.581,0,0,1,1.893-.657h3.859A2.37,2.37,0,0,1,23.5,24.093l-2.018,4.9a1.138,1.138,0,0,1-.65.612l-4.421,1.628Z" transform="translate(-5.11 -20.771)"/>
    </g>
    <g id="Mask_Group_10" data-name="Mask Group 10" transform="translate(7426.419 1742)" clip-path="url(#clip-path)">
      <g id="noun-female-doctor-3233035" transform="translate(0 -0.086)">
        <path id="Path_362" data-name="Path 362" d="M152.266,50.611a2.539,2.539,0,0,0-1.12-.694.265.265,0,0,1,.006.115c-.009.05-.019.1-.029.152,0,.013-.005.028-.008.042-.013.073-.027.146-.039.219l-.189,1.025.041.02a.765.765,0,0,1,.4.76.068.068,0,0,1,0,.016.1.1,0,0,1,0,.02.753.753,0,0,1-.687.633.744.744,0,0,1-.726-.472.77.77,0,0,1,.18-.835.738.738,0,0,1,.416-.2c.008-.039.014-.078.022-.117.058-.312.117-.629.174-.944h0c.016-.086.032-.171.048-.257l.031-.17a.156.156,0,0,1,.044-.083,2.572,2.572,0,0,0-.285-.029c-.108-.005-.216,0-.325,0h-.057a.217.217,0,0,1-.044,0l-.025,0h0l-.043-.009-.072-.021c-.013,0-.045-.018-.045-.017a.971.971,0,0,1-.129-.075l-.014-.011-.021-.016c.007,0,.012.009.018.013l-.013-.012c-.017-.017-.035-.032-.052-.049s-.032-.036-.048-.053l-.01-.013c0,.007.009.012.013.018l-.016-.021h0l-.009-.013a1.193,1.193,0,0,1-.071-.125l0-.008c.01.036-.018-.033,0,0a.054.054,0,0,1,0-.007c0-.009-.006-.017-.009-.027.094-.005.188-.012.282-.021a4.434,4.434,0,0,0,.754-.125A1.552,1.552,0,0,0,151.6,48.5a1.689,1.689,0,0,0,.174-.781v0a3.832,3.832,0,0,0-.064-.607c-.043-.252-.1-.5-.161-.747a9.2,9.2,0,0,0-.547-1.582,2.635,2.635,0,0,0-.478-.735,2.531,2.531,0,0,0-.884-.562,3.869,3.869,0,0,0-2.038-.271,4.1,4.1,0,0,0-1,.286,2.677,2.677,0,0,0-.8.48,3.481,3.481,0,0,0-.826,1.458,9.23,9.23,0,0,0-.4,1.566,2.762,2.762,0,0,0,.017,1.33,1.276,1.276,0,0,0,.323.517,1.554,1.554,0,0,0,.533.317,3.041,3.041,0,0,0,.674.15q.184.024.367.036l.143.009-.009.028h0l-.026.055a.811.811,0,0,1-.043.073l-.022.03c-.013.016-.027.032-.041.048s-.039.039-.061.059l-.016.013-.007.005-.008.007s0,0,.007-.005l-.008.005a1.135,1.135,0,0,1-.108.066l-.039.017a.286.286,0,0,1-.039.013c-.034.011-.068.018-.1.027l-.044.007-.068,0h-.234a2.592,2.592,0,0,0-.416.033c.014.086.03.173.044.26s.03.173.044.259.032.186.048.278a1.233,1.233,0,0,1,.763.281,1.265,1.265,0,0,1,.452.793c.02.133.036.266.055.4l.066.482a.391.391,0,0,1-.186.418.771.771,0,0,1-.268.059.2.2,0,0,1-.237-.139.2.2,0,0,1,.136-.244l.117-.017c.017,0,.035,0,.052-.008l.012,0c0-.012,0-.024-.005-.036-.026-.191-.053-.381-.078-.573a2.8,2.8,0,0,0-.067-.4c-.005-.017-.01-.034-.017-.052s-.013-.033-.013-.034c-.01-.022-.021-.045-.032-.066l-.044-.078c-.009-.014-.02-.029-.03-.043l0-.005s0,0,0,0a1.087,1.087,0,0,0-.137-.143l-.027-.021-.016-.012c-.026-.018-.052-.036-.078-.052a.833.833,0,0,0-.09-.046s-.052-.02-.059-.022a1.021,1.021,0,0,0-.156-.039l-.05-.005H145.5a.8.8,0,0,0-.1,0,.1.1,0,0,0-.029,0,.1.1,0,0,1-.027,0c-.025.005-.048.009-.072.016a1.08,1.08,0,0,0-.111.034.158.158,0,0,0-.025.009l-.034.016a1.321,1.321,0,0,0-.148.091l-.008.005h0l-.02.017-.026.024c-.025.024-.049.049-.072.074a.326.326,0,0,0-.022.027l-.021.028q-.021.03-.039.059a1.015,1.015,0,0,0-.05.091l-.016.033h0c0,.007-.01.029-.012.032a1.1,1.1,0,0,0-.045.17l0,.024h0a.047.047,0,0,1,0,.012.33.33,0,0,0,0,.036.867.867,0,0,0,0,.1.355.355,0,0,0,.007.1c0-.013-.005-.042,0-.024.02.136.039.273.055.408l.062.454a.291.291,0,0,0,.005.032c.052-.007.1-.016.153-.022a.2.2,0,0,1,.237.139.2.2,0,0,1-.136.244,1.362,1.362,0,0,1-.3.034.368.368,0,0,1-.332-.315c-.029-.191-.053-.383-.078-.573a3.837,3.837,0,0,1-.058-.5,1.3,1.3,0,0,1,.329-.864,1.213,1.213,0,0,1,.55-.353c-.014-.078-.027-.158-.039-.239s-.03-.175-.045-.262-.03-.175-.045-.262l-.034.012a2.6,2.6,0,0,0-1.359,1.12,2.708,2.708,0,0,0-.365,1.395V54.4a.265.265,0,0,0,.258.264h8.86c.12,0,.24,0,.36,0h.016a.265.265,0,0,0,.258-.264v-2a2.67,2.67,0,0,0-.712-1.8Zm-3.012-.633-.066.059c-.005.005-.021.017-.031.027a0,0,0,0,0,0,0s0,0-.005,0a1.485,1.485,0,0,1-.132.092c-.044.028-.089.055-.134.078l-.07.036-.044.021c-.016.007-.021.012-.021.013-.018.008-.044.013-.054.017l-.084.029c-.057.018-.115.033-.173.046l-.078.016a.165.165,0,0,0-.027.005.042.042,0,0,1-.014,0c-.061.007-.123.012-.183.013a1.618,1.618,0,0,1-.165,0,.813.813,0,0,1-.081-.007.122.122,0,0,1-.031,0l.019,0-.029-.007h.007l-.017,0a1.961,1.961,0,0,1-.335-.088l-.071-.028-.039-.018a1.753,1.753,0,0,1-.156-.083c-.053-.032-.1-.066-.156-.1l-.031-.024c-.017-.013-.022-.013-.021-.011-.02-.016-.044-.043-.055-.054-.03-.027-.058-.054-.086-.082a1.089,1.089,0,0,0,.244-.439l.016-.066v0a1.935,1.935,0,0,0,.746.306,1.679,1.679,0,0,0,.4.017h0a1.8,1.8,0,0,0,.755-.255v.005s0,.013.005.02a1.1,1.1,0,0,0,.239.418l-.05.048Zm.223-1.55.013-.017,0,.005-.031.039a2.709,2.709,0,0,1-.376.384l-.01.009-.019.016-.006.005s0,0,0,0l0,0-.007,0-.012.009c-.01.008-.021.016-.031.022s-.012.009-.018.013c-.039.028-.078.055-.12.08h0l-.034.021-.067.039-.02.011-.017.009s0,0-.005,0-.006,0-.01.005,0,0-.005,0,0,0-.005,0l-.026.013-.009,0-.013.008a0,0,0,0,0,0,0l-.012,0a.041.041,0,0,0-.014.005l-.021.008a1.468,1.468,0,0,1-.237.065h-.024c.034,0-.032.008,0,0H148.3l-.039,0H148.1a.556.556,0,0,1-.067-.005H148c.032.007-.044,0-.005,0h-.008a1.247,1.247,0,0,1-.136-.03.013.013,0,0,1-.01,0s-.016,0-.023-.007l-.041-.013-.018-.007-.018-.007-.018-.007-.021-.008-.006,0h0l-.012-.005h0l-.008,0-.041-.021-.021-.011-.025-.013a.219.219,0,0,1-.03-.017c-.057-.033-.112-.069-.166-.105l-.032-.022-.01-.008-.014-.011-.031-.022-.013-.011-.01-.007h0c.022.018-.023-.016-.009-.007a0,0,0,0,1,0,0l0,0,0,0-.02-.016-.013-.011-.031-.027-.031-.027-.005,0-.026-.024-.018-.017c-.068-.065-.133-.132-.2-.2-.029-.033-.057-.067-.084-.1,0,0-.018-.025-.025-.033-.018-.025-.035-.05-.052-.075a2.818,2.818,0,0,1-.156-.264c-.022-.043-.044-.087-.063-.132l-.02-.045a.571.571,0,0,0-.023-.058,2.536,2.536,0,0,1-.09-.292c-.012-.048-.023-.1-.032-.145,0-.022-.009-.045-.013-.067s-.005-.03-.008-.045a.046.046,0,0,1,0-.012,2.869,2.869,0,0,1-.019-.3c0-.062,0-.124,0-.186v-.449a3.014,3.014,0,0,0,2.323-.862c.071-.078.222-.281.2-.245.1.008.2.017.289.03a.661.661,0,0,1,.106.027c.039.013.078.029.12.042s.089.025.132.039l-.006,0,.016.007-.008,0,.031.016c.023.012.046.027.07.039a.327.327,0,0,1,.053.037l.016.012a0,0,0,0,1,0,0s0,0,0,0,0,0,0,0h0l.01.008a1.408,1.408,0,0,1,.11.107l.05.059.01.013a0,0,0,0,0,0,0s0,0,0,0h0l.016.022a1.229,1.229,0,0,1,.078.132l.012.024v1.094c0,.049,0,.1,0,.144s-.005.09-.01.135a.376.376,0,0,1,0,.039h0a.015.015,0,0,1,0,.007c0,.024,0,.016,0,.007,0,.013,0,.027-.007.039a2.694,2.694,0,0,1-.139.53c-.008.022-.017.043-.026.066,0,0,0,0,0,.005s0,0,0,0a.023.023,0,0,0,0,.007,0,0,0,0,1,0,0s0,0,0,.005c-.019.043-.039.086-.059.128a2.332,2.332,0,0,1-.133.234c-.023.037-.048.073-.072.108a.273.273,0,0,1-.041.058Z" transform="translate(-141.502 -43.176)"/>
        <g id="Group_355" data-name="Group 355" transform="translate(0.002 12.617)">
          <path id="Path_363" data-name="Path 363" d="M.18-1.985l-.007,0H.166a.026.026,0,0,1-.018-.005.025.025,0,0,1-.007-.018.025.025,0,0,1,.007-.018A.026.026,0,0,1,.166-2.03H.174l.007,0v.009l-.007,0H.167a.012.012,0,0,0-.01,0,.016.016,0,0,0,0,.011A.018.018,0,0,0,.157-2a.012.012,0,0,0,.01,0H.174l.007,0Z" transform="translate(-0.141 2.031)"/>
        </g>
        <g id="Group_356" data-name="Group 356" transform="translate(0.052 12.629)">
          <path id="Path_364" data-name="Path 364" d="M.26-1.519H.254a.009.009,0,0,0-.007,0,.012.012,0,0,0,0,.008v.016H.234v-.036H.245v.006l0-.005H.26Z" transform="translate(-0.234 1.531)"/>
        </g>
        <g id="Group_357" data-name="Group 357" transform="translate(0.082 12.627)">
          <path id="Path_365" data-name="Path 365" d="M.164-1.515v0H.138a.009.009,0,0,0,0,.006H.155l.008,0V-1.5l-.007,0H.148A.02.02,0,0,1,.133-1.5a.018.018,0,0,1-.005-.014A.018.018,0,0,1,.133-1.53a.019.019,0,0,1,.014-.005A.017.017,0,0,1,.16-1.53a.018.018,0,0,1,.005.014Zm-.011,0a.007.007,0,0,0,0-.005l-.005,0H.143a.008.008,0,0,0,0,.005Z" transform="translate(-0.128 1.535)"/>
        </g>
        <g id="Group_358" data-name="Group 358" transform="translate(0.125 12.632)">
          <path id="Path_366" data-name="Path 366" d="M.143-1.5H.138a0,0,0,0,0,0,0,0,0,0,0,0,0,0H.147a.008.008,0,0,0,0-.006h0Zm.017,0v.021H.149v-.005l-.005.005H.137a.012.012,0,0,1-.009,0,.012.012,0,0,1,0-.009.01.01,0,0,1,0-.009.024.024,0,0,1,.013,0H.149a0,0,0,0,0,0,0H.133l-.005,0v-.009H.142a.02.02,0,0,1,.014,0,.016.016,0,0,1,0,.012Z" transform="translate(-0.125 1.522)"/>
        </g>
        <g id="Group_359" data-name="Group 359" transform="translate(0.166 12.618)">
          <path id="Path_367" data-name="Path 367" d="M.048-1.924v.009h.01v.008H.048v.016a.006.006,0,0,0,0,0h.01v.012H.049a.014.014,0,0,1-.009,0,.015.015,0,0,1,0-.01v-.016H.031v-.01H.037v-.01Z" transform="translate(-0.031 1.926)"/>
        </g>
        <g id="Group_360" data-name="Group 360" transform="translate(0.2 12.627)">
          <path id="Path_368" data-name="Path 368" d="M.164-1.515v0H.138a.009.009,0,0,0,0,.006H.155l.008,0V-1.5l-.007,0H.148A.02.02,0,0,1,.133-1.5a.018.018,0,0,1-.005-.014A.018.018,0,0,1,.133-1.53a.019.019,0,0,1,.014-.005A.017.017,0,0,1,.16-1.53a.018.018,0,0,1,.005.014Zm-.011,0a.007.007,0,0,0,0-.005l-.005,0H.143a.008.008,0,0,0,0,.005Z" transform="translate(-0.128 1.535)"/>
        </g>
        <g id="Group_361" data-name="Group 361" transform="translate(0.242 12.615)">
          <path id="Path_369" data-name="Path 369" d="M.151-2.059v-.019H.163v.05H.151v-.005l-.005.005H.14a.013.013,0,0,1-.011-.005.021.021,0,0,1,0-.014.021.021,0,0,1,0-.014.014.014,0,0,1,.011-.005H.146l.005,0Zm-.007.023a.006.006,0,0,0,.005,0,.012.012,0,0,0,0-.009.012.012,0,0,0,0-.007.006.006,0,0,0-.005,0,.006.006,0,0,0-.005,0,.013.013,0,0,0,0,.007.013.013,0,0,0,0,.008A.006.006,0,0,0,.144-2.035Z" transform="translate(-0.125 2.078)"/>
        </g>
        <g id="Group_362" data-name="Group 362" transform="translate(0.314 12.615)">
          <path id="Path_370" data-name="Path 370" d="M.253-2.035a.006.006,0,0,0,.007,0,.012.012,0,0,0,0-.009.012.012,0,0,0,0-.006.006.006,0,0,0-.005,0,.007.007,0,0,0-.006,0,.013.013,0,0,0,0,.006.013.013,0,0,0,0,.008A.007.007,0,0,0,.253-2.035ZM.245-2.059l.005,0H.257a.013.013,0,0,1,.011.005.022.022,0,0,1,0,.01.022.022,0,0,1,0,.014.013.013,0,0,1-.011.005H.251L.246-2.033v.005H.234v-.05H.245Z" transform="translate(-0.234 2.078)"/>
        </g>
        <g id="Group_363" data-name="Group 363" transform="translate(0.355 12.629)">
          <path id="Path_371" data-name="Path 371" d="M.031-1.5H.042l.009.025L.058-1.5H.071l-.013.039a.017.017,0,0,1-.005.008.012.012,0,0,1-.008,0H.037v-.007H.044a.006.006,0,0,0,0,0h0Z" transform="translate(-0.031 1.5)"/>
        </g>
        <g id="Group_364" data-name="Group 364" transform="translate(0.422 12.629)">
          <path id="Path_372" data-name="Path 372" d="M.17-1.529v.01l-.006,0H.153a0,0,0,0,0,0,0,0,0,0,0,0,0,0h0a.024.024,0,0,1,.012,0,.009.009,0,0,1,0,.008.01.01,0,0,1,0,.009.023.023,0,0,1-.012,0H.141V-1.5l.007,0H.16a0,0,0,0,0,0,0,0,0,0,0,0,0,0h0a.019.019,0,0,1-.011,0,.01.01,0,0,1,0-.009.009.009,0,0,1,0-.009.02.02,0,0,1,.012,0H.17Z" transform="translate(-0.141 1.531)"/>
        </g>
        <g id="Group_365" data-name="Group 365" transform="translate(0.463 12.613)">
          <path id="Path_373" data-name="Path 373" d="M.27-2.053v.022H.26v-.016a.042.042,0,0,0,0-.006.013.013,0,0,0,0,0h0a.007.007,0,0,0-.006,0l-.006,0v.018H.234v-.05H.245v.019l.005,0H.257a.011.011,0,0,1,.009,0,.017.017,0,0,1,0,.011Z" transform="translate(-0.234 2.083)"/>
        </g>
        <g id="Group_366" data-name="Group 366" transform="translate(0.506 12.632)">
          <path id="Path_374" data-name="Path 374" d="M.143-1.5H.138a0,0,0,0,0,0,0,0,0,0,0,0,0,0H.147a.008.008,0,0,0,0-.006h0Zm.017,0v.021H.149v-.005l-.005.005H.137a.012.012,0,0,1-.009,0,.012.012,0,0,1,0-.009.01.01,0,0,1,0-.009.024.024,0,0,1,.013,0H.149a0,0,0,0,0,0,0H.133l-.005,0v-.009H.142a.02.02,0,0,1,.014,0,.016.016,0,0,1,0,.012Z" transform="translate(-0.125 1.522)"/>
        </g>
        <g id="Group_367" data-name="Group 367" transform="translate(0.55 12.629)">
          <path id="Path_375" data-name="Path 375" d="M.17-1.529v.01l-.006,0H.153a0,0,0,0,0,0,0,0,0,0,0,0,0,0h0a.024.024,0,0,1,.012,0,.009.009,0,0,1,0,.008.01.01,0,0,1,0,.009.023.023,0,0,1-.012,0H.141V-1.5l.007,0H.16a0,0,0,0,0,0,0,0,0,0,0,0,0,0h0a.019.019,0,0,1-.011,0,.01.01,0,0,1,0-.009.009.009,0,0,1,0-.009.02.02,0,0,1,.012,0H.17Z" transform="translate(-0.141 1.531)"/>
        </g>
        <g id="Group_368" data-name="Group 368" transform="translate(0.59 12.613)">
          <path id="Path_376" data-name="Path 376" d="M.27-2.053v.022H.26v-.016a.042.042,0,0,0,0-.006.013.013,0,0,0,0,0h0a.007.007,0,0,0-.006,0l-.006,0v.018H.234v-.05H.245v.019l.005,0H.257a.011.011,0,0,1,.009,0,.017.017,0,0,1,0,.011Z" transform="translate(-0.234 2.083)"/>
        </g>
        <g id="Group_369" data-name="Group 369" transform="translate(0.634 12.632)">
          <path id="Path_377" data-name="Path 377" d="M.143-1.5H.138a0,0,0,0,0,0,0,0,0,0,0,0,0,0H.147a.008.008,0,0,0,0-.006h0Zm.017,0v.021H.149v-.005l-.005.005H.137a.012.012,0,0,1-.009,0,.012.012,0,0,1,0-.009.01.01,0,0,1,0-.009.024.024,0,0,1,.013,0H.149a0,0,0,0,0,0,0H.133l-.005,0v-.009H.142a.02.02,0,0,1,.014,0,.016.016,0,0,1,0,.012Z" transform="translate(-0.125 1.522)"/>
        </g>
        <g id="Group_370" data-name="Group 370" transform="translate(0.68 12.629)">
          <path id="Path_378" data-name="Path 378" d="M.27-1.515v.022H.26V-1.51a.039.039,0,0,0,0-.006.013.013,0,0,0,0,0h0l-.005,0,0,0a.013.013,0,0,0,0,.007v.018H.234v-.036H.245v.005l.005,0H.257a.011.011,0,0,1,.009,0,.017.017,0,0,1,0,.011Z" transform="translate(-0.234 1.529)"/>
        </g>
        <g id="Group_371" data-name="Group 371" transform="translate(0.726 12.615)">
          <path id="Path_379" data-name="Path 379" d="M.234-2.078H.245v.027L.26-2.064H.271l-.018.016.019.02H.26L.245-2.043v.015H.234Z" transform="translate(-0.234 2.078)"/>
        </g>
        <g id="Group_372" data-name="Group 372" transform="translate(0.789 12.629)">
          <path id="Path_380" data-name="Path 380" d="M.17-1.529v.01l-.006,0H.153a0,0,0,0,0,0,0,0,0,0,0,0,0,0h0a.024.024,0,0,1,.012,0,.009.009,0,0,1,0,.008.01.01,0,0,1,0,.009.023.023,0,0,1-.012,0H.141V-1.5l.007,0H.16a0,0,0,0,0,0,0,0,0,0,0,0,0,0h0a.019.019,0,0,1-.011,0,.01.01,0,0,1,0-.009.009.009,0,0,1,0-.009.02.02,0,0,1,.012,0H.17Z" transform="translate(-0.141 1.531)"/>
        </g>
        <g id="Group_373" data-name="Group 373" transform="translate(0.83 12.615)">
          <path id="Path_381" data-name="Path 381" d="M.234-2.064H.245v.036H.234Zm0-.014H.245v.009H.234Z" transform="translate(-0.234 2.078)"/>
        </g>
        <g id="Group_374" data-name="Group 374" transform="translate(0.851 12.629)">
          <path id="Path_382" data-name="Path 382" d="M.27-1.515v.022H.26V-1.51a.039.039,0,0,0,0-.006.013.013,0,0,0,0,0h0l-.005,0,0,0a.013.013,0,0,0,0,.007v.018H.234v-.036H.245v.005l.005,0H.257a.011.011,0,0,1,.009,0,.017.017,0,0,1,0,.011Z" transform="translate(-0.234 1.529)"/>
        </g>
        <g id="Group_375" data-name="Group 375" transform="translate(0.895 12.628)">
          <path id="Path_383" data-name="Path 383" d="M.152-1.5l-.005,0H.14a.013.013,0,0,1-.011,0,.021.021,0,0,1,0-.013.021.021,0,0,1,0-.013.014.014,0,0,1,.011-.005H.146l.005,0v-.005H.163V-1.5a.016.016,0,0,1-.005.013.023.023,0,0,1-.016.005H.129v-.009l.005,0H.141a.011.011,0,0,0,.008,0,.011.011,0,0,0,0-.008ZM.144-1.525a.006.006,0,0,0-.005,0,.013.013,0,0,0,0,.007.012.012,0,0,0,0,.007.006.006,0,0,0,.005,0,.006.006,0,0,0,.005,0,.011.011,0,0,0,0-.007.012.012,0,0,0,0-.007A.006.006,0,0,0,.144-1.525Z" transform="translate(-0.125 1.534)"/>
        </g>
        <g id="Group_376" data-name="Group 376" transform="translate(0.944 12.613)">
          <path id="Path_384" data-name="Path 384" d="M.27-2.053v.022H.26v-.016a.042.042,0,0,0,0-.006.013.013,0,0,0,0,0h0a.007.007,0,0,0-.006,0l-.006,0v.018H.234v-.05H.245v.019l.005,0H.257a.011.011,0,0,1,.009,0,.017.017,0,0,1,0,.011Z" transform="translate(-0.234 2.083)"/>
        </g>
        <g id="Group_377" data-name="Group 377" transform="translate(0 12.681)">
          <path id="Path_385" data-name="Path 385" d="M.075-2.078v.007H.064a0,0,0,0,0,0,0v0H.074v.008H.064v.028H.053v-.028H.047v-.008H.053v0a.011.011,0,0,1,0-.007.014.014,0,0,1,.012,0Z" transform="translate(-0.047 2.079)"/>
        </g>
        <g id="Group_378" data-name="Group 378" transform="translate(0.032 12.695)">
          <path id="Path_386" data-name="Path 386" d="M.26-1.519H.254a.009.009,0,0,0-.007,0,.012.012,0,0,0,0,.008v.016H.234v-.036H.245v.006l0-.005H.26Z" transform="translate(-0.234 1.531)"/>
        </g>
        <g id="Group_379" data-name="Group 379" transform="translate(0.062 12.695)">
          <path id="Path_387" data-name="Path 387" d="M.144-1.523a.007.007,0,0,0-.006,0,.014.014,0,0,0,0,.008.015.015,0,0,0,0,.008.007.007,0,0,0,.006,0,.006.006,0,0,0,.005,0,.014.014,0,0,0,0-.008.012.012,0,0,0,0-.008.007.007,0,0,0-.005,0Zm0-.008a.02.02,0,0,1,.014.005.018.018,0,0,1,.005.014A.018.018,0,0,1,.158-1.5a.02.02,0,0,1-.014.005A.02.02,0,0,1,.13-1.5a.019.019,0,0,1,0-.014.019.019,0,0,1,0-.014.019.019,0,0,1,.014-.005Z" transform="translate(-0.125 1.531)"/>
        </g>
        <g id="Group_380" data-name="Group 380" transform="translate(0.109 12.695)">
          <path id="Path_388" data-name="Path 388" d="M.266-1.523l.005-.005H.278a.012.012,0,0,1,.009,0,.017.017,0,0,1,0,.011v.022H.279v-.021a.009.009,0,0,0,0-.005h0a.005.005,0,0,0-.006,0,.014.014,0,0,0,0,.008v.018H.257v-.019a.016.016,0,0,0,0-.007h0a.006.006,0,0,0-.007,0,.013.013,0,0,0,0,.007v.018H.234v-.036H.245v.005l0,0H.262l0,.005Z" transform="translate(-0.234 1.529)"/>
        </g>
        <g id="Group_381" data-name="Group 381" transform="translate(0.193 12.684)">
          <path id="Path_389" data-name="Path 389" d="M.048-1.924v.009h.01v.008H.048v.016a.006.006,0,0,0,0,0h.01v.012H.049a.014.014,0,0,1-.009,0,.015.015,0,0,1,0-.01v-.016H.031v-.01H.037v-.01Z" transform="translate(-0.031 1.926)"/>
        </g>
        <g id="Group_382" data-name="Group 382" transform="translate(0.229 12.679)">
          <path id="Path_390" data-name="Path 390" d="M.27-2.053v.022H.26v-.016a.042.042,0,0,0,0-.006.013.013,0,0,0,0,0h0a.007.007,0,0,0-.006,0l-.006,0v.018H.234v-.05H.245v.019l.005,0H.257a.011.011,0,0,1,.009,0,.017.017,0,0,1,0,.011Z" transform="translate(-0.234 2.083)"/>
        </g>
        <g id="Group_383" data-name="Group 383" transform="translate(0.273 12.693)">
          <path id="Path_391" data-name="Path 391" d="M.164-1.515v0H.138a.009.009,0,0,0,0,.006H.155l.008,0V-1.5l-.007,0H.148A.02.02,0,0,1,.133-1.5a.018.018,0,0,1-.005-.014A.018.018,0,0,1,.133-1.53a.019.019,0,0,1,.014-.005A.017.017,0,0,1,.16-1.53a.018.018,0,0,1,.005.014Zm-.011,0a.007.007,0,0,0,0-.005l-.005,0H.143a.008.008,0,0,0,0,.005Z" transform="translate(-0.128 1.535)"/>
        </g>
        <g id="Group_384" data-name="Group 384" transform="translate(0.341 12.683)">
          <path id="Path_392" data-name="Path 392" d="M.25-2H.264l.017.033V-2H.292v.048H.279L.261-1.985v.033H.25Z" transform="translate(-0.25 2)"/>
        </g>
        <g id="Group_385" data-name="Group 385" transform="translate(0.392 12.695)">
          <path id="Path_393" data-name="Path 393" d="M.144-1.523a.007.007,0,0,0-.006,0,.014.014,0,0,0,0,.008.015.015,0,0,0,0,.008.007.007,0,0,0,.006,0,.006.006,0,0,0,.005,0,.014.014,0,0,0,0-.008.012.012,0,0,0,0-.008.007.007,0,0,0-.005,0Zm0-.008a.02.02,0,0,1,.014.005.018.018,0,0,1,.005.014A.018.018,0,0,1,.158-1.5a.02.02,0,0,1-.014.005A.02.02,0,0,1,.13-1.5a.019.019,0,0,1,0-.014.019.019,0,0,1,0-.014.019.019,0,0,1,.014-.005Z" transform="translate(-0.125 1.531)"/>
        </g>
        <g id="Group_386" data-name="Group 386" transform="translate(0.439 12.695)">
          <path id="Path_394" data-name="Path 394" d="M.218-1.478V-1.5H.229v.023a0,0,0,0,0,0,0H.235a.006.006,0,0,0,.005,0,.011.011,0,0,0,0-.005V-1.5H.253v.036H.242v-.005l-.005.005H.231a.012.012,0,0,1-.01,0,.017.017,0,0,1,0-.011Z" transform="translate(-0.218 1.5)"/>
        </g>
        <g id="Group_387" data-name="Group 387" transform="translate(0.485 12.695)">
          <path id="Path_395" data-name="Path 395" d="M.27-1.515v.022H.26V-1.51a.039.039,0,0,0,0-.006.013.013,0,0,0,0,0h0l-.005,0,0,0a.013.013,0,0,0,0,.007v.018H.234v-.036H.245v.005l.005,0H.257a.011.011,0,0,1,.009,0,.017.017,0,0,1,0,.011Z" transform="translate(-0.234 1.529)"/>
        </g>
        <g id="Group_388" data-name="Group 388" transform="translate(0.554 12.683)">
          <path id="Path_396" data-name="Path 396" d="M.25-2H.27A.02.02,0,0,1,.283-2a.015.015,0,0,1,0,.012.015.015,0,0,1,0,.012.02.02,0,0,1-.014,0H.262v.016H.25Zm.012.009v.014H.275a.007.007,0,0,0,0-.005.006.006,0,0,0,0-.005H.27Z" transform="translate(-0.25 2)"/>
        </g>
        <g id="Group_389" data-name="Group 389" transform="translate(0.601 12.695)">
          <path id="Path_397" data-name="Path 397" d="M.26-1.519H.254a.009.009,0,0,0-.007,0,.012.012,0,0,0,0,.008v.016H.234v-.036H.245v.006l0-.005H.26Z" transform="translate(-0.234 1.531)"/>
        </g>
        <g id="Group_390" data-name="Group 390" transform="translate(0.63 12.695)">
          <path id="Path_398" data-name="Path 398" d="M.144-1.523a.007.007,0,0,0-.006,0,.014.014,0,0,0,0,.008.015.015,0,0,0,0,.008.007.007,0,0,0,.006,0,.006.006,0,0,0,.005,0,.014.014,0,0,0,0-.008.012.012,0,0,0,0-.008.007.007,0,0,0-.005,0Zm0-.008a.02.02,0,0,1,.014.005.018.018,0,0,1,.005.014A.018.018,0,0,1,.158-1.5a.02.02,0,0,1-.014.005A.02.02,0,0,1,.13-1.5a.019.019,0,0,1,0-.014.019.019,0,0,1,0-.014.019.019,0,0,1,.014-.005Z" transform="translate(-0.125 1.531)"/>
        </g>
        <g id="Group_391" data-name="Group 391" transform="translate(0.669 12.681)">
          <path id="Path_399" data-name="Path 399" d="M-.086-2.064h.011v.036a.017.017,0,0,1,0,.011.013.013,0,0,1-.01,0H-.094v-.007h0a.009.009,0,0,0,0-.006Zm0-.014h.011v.009H-.086Z" transform="translate(0.094 2.078)"/>
        </g>
        <g id="Group_392" data-name="Group 392" transform="translate(0.697 12.693)">
          <path id="Path_400" data-name="Path 400" d="M.164-1.515v0H.138a.009.009,0,0,0,0,.006H.155l.008,0V-1.5l-.007,0H.148A.02.02,0,0,1,.133-1.5a.018.018,0,0,1-.005-.014A.018.018,0,0,1,.133-1.53a.019.019,0,0,1,.014-.005A.017.017,0,0,1,.16-1.53a.018.018,0,0,1,.005.014Zm-.011,0a.007.007,0,0,0,0-.005l-.005,0H.143a.008.008,0,0,0,0,.005Z" transform="translate(-0.128 1.535)"/>
        </g>
        <g id="Group_393" data-name="Group 393" transform="translate(0.74 12.692)">
          <path id="Path_401" data-name="Path 401" d="M.154-1.533v.01l0,0h0a.01.01,0,0,0-.007,0,.011.011,0,0,0,0,.007.012.012,0,0,0,0,.008.011.011,0,0,0,.007,0H.151l0,0V-1.5H.145A.022.022,0,0,1,.13-1.5a.018.018,0,0,1-.005-.014A.018.018,0,0,1,.13-1.533a.021.021,0,0,1,.015-.005H.156Z" transform="translate(-0.125 1.538)"/>
        </g>
        <g id="Group_394" data-name="Group 394" transform="translate(0.776 12.684)">
          <path id="Path_402" data-name="Path 402" d="M.048-1.924v.009h.01v.008H.048v.016a.006.006,0,0,0,0,0h.01v.012H.049a.014.014,0,0,1-.009,0,.015.015,0,0,1,0-.01v-.016H.031v-.01H.037v-.01Z" transform="translate(-0.031 1.926)"/>
        </g>
      </g>
    </g>
  </g>
</svg>
