<svg xmlns="http://www.w3.org/2000/svg" xmlns:xlink="http://www.w3.org/1999/xlink" width="36" height="31" viewBox="0 0 36 31">
  <defs>
    <clipPath id="clip-path">
      <rect id="Rectangle_32" data-name="Rectangle 32" width="27" height="23" transform="translate(0 0.196)" fill="#fff" stroke="#707070" stroke-width="1"/>
    </clipPath>
    <clipPath id="clip-path-2">
      <rect id="Rectangle_33" data-name="Rectangle 33" width="9" height="26" transform="translate(0.485 -0.177)" fill="#fff" stroke="#707070" stroke-width="1"/>
    </clipPath>
    <clipPath id="clip-path-3">
      <rect id="Rectangle_35" data-name="Rectangle 35" width="9" height="8" transform="translate(0.491 0.148)" fill="#fff" stroke="#707070" stroke-width="1"/>
    </clipPath>
  </defs>
  <g id="Group_557" data-name="Group 557" transform="translate(-7567 -2230.148)">
    <g id="Group_509" data-name="Group 509" transform="translate(7567 2231.325)">
      <g id="Mask_Group_11" data-name="Mask Group 11" transform="translate(0 6.627)" clip-path="url(#clip-path)">
        <g id="noun-paralysis-4372403" transform="translate(0 0.093)">
          <path id="Path_403" data-name="Path 403" d="M335.086,86.432a2.3,2.3,0,1,0-.526-.422A2.3,2.3,0,0,0,335.086,86.432Z" transform="translate(-320.033 -82.153)"/>
          <path id="Path_404" data-name="Path 404" d="M160.465,180.688h-2.991l.028-.086a.836.836,0,1,0-1.595-.506l-1.517,4.777q-.205-.015-.414-.017a18.849,18.849,0,0,0,.148-2.353c.012-1.557-.654-3.1-2.767-3.173-2.471-.091-3.07,3.2-3.266,4.908h0a.839.839,0,0,1-.159.4.676.676,0,0,1-.616.323,11.663,11.663,0,0,0-3.609.539,1.054,1.054,0,0,0-.339,1.007h-.7a.942.942,0,1,0,0,1.885h.253a34.319,34.319,0,0,0-2.293,3.668h0a.143.143,0,0,1-.092.079,2.72,2.72,0,0,0-.715.381.115.115,0,0,0-.026.03l-.759-.223h0a.583.583,0,1,0-.329,1.118l3.548,1.043c-.006.066-.01.133-.01.2a2.157,2.157,0,1,0,4.314.006l2.045-.548a6.174,6.174,0,1,0,7.433-8.918l1.034-3.255h3.4a.64.64,0,0,0,0-1.28ZM144.4,195.311a.63.63,0,1,1,.444-.184A.63.63,0,0,1,144.4,195.311Zm1.844-1.744a2.159,2.159,0,0,0-2.547-.92c.464-.478.958-1.055,1.394-1.6h0a.941.941,0,0,0,.879.605h1.815a6.123,6.123,0,0,0,.317,1.416Zm13.174-2.542a5.488,5.488,0,1,1-1.61-3.873A5.488,5.488,0,0,1,159.416,191.025Z" transform="translate(-134.688 -174.202)"/>
          <path id="Path_405" data-name="Path 405" d="M356.738,327.125a4.121,4.121,0,1,0,1.209-2.913A4.121,4.121,0,0,0,356.738,327.125Zm4.124-.628a.63.63,0,1,1-.444.184.63.63,0,0,1,.444-.184Z" transform="translate(-341.62 -310.303)"/>
          <g id="Group_396" data-name="Group 396" transform="translate(0.008 25.855)">
            <path id="Path_406" data-name="Path 406" d="M.444-3.86a.15.15,0,0,1-.031.012.133.133,0,0,1-.033,0A.118.118,0,0,1,.3-3.873a.106.106,0,0,1-.03-.08.1.1,0,0,1,.03-.08.117.117,0,0,1,.084-.03.133.133,0,0,1,.033,0,.163.163,0,0,1,.031.012V-4a.125.125,0,0,0-.03-.015.092.092,0,0,0-.03,0A.06.06,0,0,0,.339-4a.073.073,0,0,0-.017.051A.074.074,0,0,0,.339-3.9a.06.06,0,0,0,.046.018.1.1,0,0,0,.03,0A.109.109,0,0,0,.445-3.9Z" transform="translate(-0.266 4.062)"/>
          </g>
          <g id="Group_397" data-name="Group 397" transform="translate(0.23 25.908)">
            <path id="Path_407" data-name="Path 407" d="M.571-3.015l-.013,0H.544a.037.037,0,0,0-.03.013.056.056,0,0,0-.01.035V-2.9H.453v-.159H.5v.026a.057.057,0,0,1,.022-.022.061.061,0,0,1,.03-.007H.57Z" transform="translate(-0.453 3.062)"/>
          </g>
          <g id="Group_398" data-name="Group 398" transform="translate(0.36 25.908)">
            <path id="Path_408" data-name="Path 408" d="M.4-2.981v.014H.285A.041.041,0,0,0,.3-2.94a.048.048,0,0,0,.03.008.13.13,0,0,0,.033,0A.166.166,0,0,0,.4-2.951v.04A.159.159,0,0,1,.36-2.9a.212.212,0,0,1-.035,0,.1.1,0,0,1-.066-.022A.08.08,0,0,1,.234-2.98a.08.08,0,0,1,.022-.063.09.09,0,0,1,.066-.021.08.08,0,0,1,.059.021.082.082,0,0,1,.022.06ZM.352-3a.029.029,0,0,0-.009-.022A.028.028,0,0,0,.322-3.03.033.033,0,0,0,.3-3.022.038.038,0,0,0,.287-3Z" transform="translate(-0.234 3.064)"/>
          </g>
          <g id="Group_399" data-name="Group 399" transform="translate(0.556 25.91)">
            <path id="Path_409" data-name="Path 409" d="M.316-2.969a.042.042,0,0,0-.024.006.018.018,0,0,0-.007.016.02.02,0,0,0,.006.015.029.029,0,0,0,.018,0,.033.033,0,0,0,.024-.01.033.033,0,0,0,.01-.026v-.006Zm.078-.019v.09H.343v-.023A.062.062,0,0,1,.32-2.9a.066.066,0,0,1-.03.007.057.057,0,0,1-.04-.012.05.05,0,0,1-.015-.037.047.047,0,0,1,.019-.041A.108.108,0,0,1,.313-3h.03v0a.018.018,0,0,0-.01-.017A.057.057,0,0,0,.3-3.024a.14.14,0,0,0-.03,0,.124.124,0,0,0-.026.009v-.038l.033-.006.033,0a.091.091,0,0,1,.061.015.069.069,0,0,1,.019.054Z" transform="translate(-0.234 3.058)"/>
          </g>
          <g id="Group_400" data-name="Group 400" transform="translate(0.743 25.867)">
            <path id="Path_410" data-name="Path 410" d="M.152-3.844V-3.8H.2v.035H.152V-3.7a.02.02,0,0,0,0,.015.033.033,0,0,0,.018,0H.2v.036H.158a.06.06,0,0,1-.043-.011A.058.058,0,0,1,.1-3.7v-.066H.078V-3.8H.1v-.045Z" transform="translate(-0.078 3.844)"/>
          </g>
          <g id="Group_401" data-name="Group 401" transform="translate(0.889 25.908)">
            <path id="Path_411" data-name="Path 411" d="M.4-2.981v.014H.285A.041.041,0,0,0,.3-2.94a.048.048,0,0,0,.03.008.13.13,0,0,0,.033,0A.166.166,0,0,0,.4-2.951v.04A.159.159,0,0,1,.36-2.9a.212.212,0,0,1-.035,0,.1.1,0,0,1-.066-.022A.08.08,0,0,1,.234-2.98a.08.08,0,0,1,.022-.063.09.09,0,0,1,.066-.021.08.08,0,0,1,.059.021.082.082,0,0,1,.022.06ZM.352-3a.029.029,0,0,0-.009-.022A.028.028,0,0,0,.322-3.03.033.033,0,0,0,.3-3.022.038.038,0,0,0,.287-3Z" transform="translate(-0.234 3.064)"/>
          </g>
          <g id="Group_402" data-name="Group 402" transform="translate(1.085 25.85)">
            <path id="Path_412" data-name="Path 412" d="M.368-4.071v-.085h.05v.219H.368V-3.96a.071.071,0,0,1-.023.021.061.061,0,0,1-.029.007.06.06,0,0,1-.05-.023.094.094,0,0,1-.017-.06.093.093,0,0,1,.017-.06A.06.06,0,0,1,.315-4.1a.06.06,0,0,1,.028.007.074.074,0,0,1,.025.021Zm-.033.1A.028.028,0,0,0,.36-3.981a.06.06,0,0,0,.009-.035A.055.055,0,0,0,.36-4.049a.028.028,0,0,0-.025-.012.029.029,0,0,0-.025.012A.058.058,0,0,0,.3-4.016a.063.063,0,0,0,.008.035.029.029,0,0,0,.024.012Z" transform="translate(-0.249 4.156)"/>
          </g>
          <g id="Group_403" data-name="Group 403" transform="translate(1.403 25.851)">
            <path id="Path_413" data-name="Path 413" d="M.537-3.968A.028.028,0,0,0,.562-3.98a.06.06,0,0,0,.009-.035.055.055,0,0,0-.009-.033.028.028,0,0,0-.025-.012.029.029,0,0,0-.025.012A.058.058,0,0,0,.5-4.015a.063.063,0,0,0,.008.035A.029.029,0,0,0,.537-3.968ZM.5-4.071a.066.066,0,0,1,.022-.021A.066.066,0,0,1,.556-4.1.06.06,0,0,1,.6-4.074a.091.091,0,0,1,.019.059.092.092,0,0,1-.019.06.059.059,0,0,1-.048.023.066.066,0,0,1-.03-.007A.063.063,0,0,1,.5-3.959v.023H.453v-.219H.5Z" transform="translate(-0.453 4.155)"/>
          </g>
          <g id="Group_404" data-name="Group 404" transform="translate(1.589 25.912)">
            <path id="Path_414" data-name="Path 414" d="M.063-2.984h.05l.043.106.036-.106H.241l-.066.172a.088.088,0,0,1-.023.037.055.055,0,0,1-.035.011H.089V-2.8H.1a.033.033,0,0,0,.019,0,.029.029,0,0,0,.009-.014v0Z" transform="translate(-0.063 2.984)"/>
          </g>
          <g id="Group_405" data-name="Group 405" transform="translate(1.876 25.859)">
            <path id="Path_415" data-name="Path 415" d="M.031-3.984H.087l.056.155L.2-3.984H.253l-.079.21H.108Z" transform="translate(-0.031 3.984)"/>
          </g>
          <g id="Group_406" data-name="Group 406" transform="translate(2.121 25.85)">
            <path id="Path_416" data-name="Path 416" d="M.453-4.1H.5v.157H.453Zm0-.062H.5v.041H.453Z" transform="translate(-0.453 4.157)"/>
          </g>
          <g id="Group_407" data-name="Group 407" transform="translate(2.21 25.906)">
            <path id="Path_417" data-name="Path 417" d="M.377-3.057v.04a.086.086,0,0,0-.021-.01.079.079,0,0,0-.022,0A.043.043,0,0,0,.3-3.017a.047.047,0,0,0-.012.033A.048.048,0,0,0,.3-2.951a.043.043,0,0,0,.033.012.074.074,0,0,0,.024,0,.058.058,0,0,0,.02-.011v.041A.1.1,0,0,1,.355-2.9L.33-2.9a.1.1,0,0,1-.066-.022A.08.08,0,0,1,.24-2.984a.077.077,0,0,1,.022-.061.094.094,0,0,1,.066-.022l.025,0a.1.1,0,0,1,.024.007Z" transform="translate(-0.24 3.067)"/>
          </g>
          <g id="Group_408" data-name="Group 408" transform="translate(2.371 25.867)">
            <path id="Path_418" data-name="Path 418" d="M.152-3.844V-3.8H.2v.035H.152V-3.7a.02.02,0,0,0,0,.015.033.033,0,0,0,.018,0H.2v.036H.158a.06.06,0,0,1-.043-.011A.058.058,0,0,1,.1-3.7v-.066H.078V-3.8H.1v-.045Z" transform="translate(-0.078 3.844)"/>
          </g>
          <g id="Group_409" data-name="Group 409" transform="translate(2.515 25.908)">
            <path id="Path_419" data-name="Path 419" d="M.319-3.027a.029.029,0,0,0-.026.012.058.058,0,0,0-.008.033.063.063,0,0,0,.008.035.03.03,0,0,0,.026.012.03.03,0,0,0,.026-.012.06.06,0,0,0,.008-.035.055.055,0,0,0-.009-.033.03.03,0,0,0-.024-.013Zm0-.036a.086.086,0,0,1,.062.021.079.079,0,0,1,.023.06.083.083,0,0,1-.023.062A.087.087,0,0,1,.319-2.9a.089.089,0,0,1-.066-.021A.082.082,0,0,1,.23-2.981a.078.078,0,0,1,.023-.062.087.087,0,0,1,.066-.021Z" transform="translate(-0.229 3.064)"/>
          </g>
          <g id="Group_410" data-name="Group 410" transform="translate(2.727 25.908)">
            <path id="Path_420" data-name="Path 420" d="M.571-3.015l-.013,0H.544a.037.037,0,0,0-.03.013.056.056,0,0,0-.01.035V-2.9H.453v-.159H.5v.026a.057.057,0,0,1,.022-.022.061.061,0,0,1,.03-.007H.57Z" transform="translate(-0.453 3.062)"/>
          </g>
          <g id="Group_411" data-name="Group 411" transform="translate(2.867 25.911)">
            <path id="Path_421" data-name="Path 421" d="M.422-2.893v-.1H.473v.1a.022.022,0,0,0,0,.012.026.026,0,0,0,.008.008l.012,0a.029.029,0,0,0,.025-.012A.056.056,0,0,0,.53-2.911v-.078H.58v.157H.53v-.023a.078.078,0,0,1-.025.021.06.06,0,0,1-.028.007.053.053,0,0,1-.042-.017.076.076,0,0,1-.014-.05Z" transform="translate(-0.421 2.989)"/>
          </g>
          <g id="Group_412" data-name="Group 412" transform="translate(3.074 25.85)">
            <path id="Path_422" data-name="Path 422" d="M.453-4.156H.5v.219H.453Z" transform="translate(-0.453 4.156)"/>
          </g>
          <g id="Group_413" data-name="Group 413" transform="translate(3.162 25.908)">
            <path id="Path_423" data-name="Path 423" d="M.4-2.981v.014H.285A.041.041,0,0,0,.3-2.94a.048.048,0,0,0,.03.008.13.13,0,0,0,.033,0A.166.166,0,0,0,.4-2.951v.04A.159.159,0,0,1,.36-2.9a.212.212,0,0,1-.035,0,.1.1,0,0,1-.066-.022A.08.08,0,0,1,.234-2.98a.08.08,0,0,1,.022-.063.09.09,0,0,1,.066-.021.08.08,0,0,1,.059.021.082.082,0,0,1,.022.06ZM.352-3a.029.029,0,0,0-.009-.022A.028.028,0,0,0,.322-3.03.033.033,0,0,0,.3-3.022.038.038,0,0,0,.287-3Z" transform="translate(-0.234 3.064)"/>
          </g>
          <g id="Group_414" data-name="Group 414" transform="translate(3.369 25.908)">
            <path id="Path_424" data-name="Path 424" d="M.571-3.015l-.013,0H.544a.037.037,0,0,0-.03.013.056.056,0,0,0-.01.035V-2.9H.453v-.159H.5v.026a.057.057,0,0,1,.022-.022.061.061,0,0,1,.03-.007H.57Z" transform="translate(-0.453 3.062)"/>
          </g>
          <g id="Group_415" data-name="Group 415" transform="translate(0 26.139)">
            <path id="Path_425" data-name="Path 425" d="M.231-4.156v.033H.205a.025.025,0,0,0-.016,0A.018.018,0,0,0,.184-4.1v.012H.228v.035H.184v.122H.134v-.122H.109v-.037H.134V-4.1a.048.048,0,0,1,.014-.038.07.07,0,0,1,.045-.012Z" transform="translate(-0.109 4.156)"/>
          </g>
          <g id="Group_416" data-name="Group 416" transform="translate(0.143 26.197)">
            <path id="Path_426" data-name="Path 426" d="M.571-3.015l-.013,0H.544a.037.037,0,0,0-.03.013.056.056,0,0,0-.01.035V-2.9H.453v-.159H.5v.026a.057.057,0,0,1,.022-.022.061.061,0,0,1,.03-.007H.57Z" transform="translate(-0.453 3.062)"/>
          </g>
          <g id="Group_417" data-name="Group 417" transform="translate(0.273 26.197)">
            <path id="Path_427" data-name="Path 427" d="M.319-3.027a.029.029,0,0,0-.026.012.058.058,0,0,0-.008.033.063.063,0,0,0,.008.035.03.03,0,0,0,.026.012.03.03,0,0,0,.026-.012.06.06,0,0,0,.008-.035.055.055,0,0,0-.009-.033.03.03,0,0,0-.024-.013Zm0-.036a.086.086,0,0,1,.062.021.079.079,0,0,1,.023.06.083.083,0,0,1-.023.062A.087.087,0,0,1,.319-2.9a.089.089,0,0,1-.066-.021A.082.082,0,0,1,.23-2.981a.078.078,0,0,1,.023-.062.087.087,0,0,1,.066-.021Z" transform="translate(-0.229 3.064)"/>
          </g>
          <g id="Group_418" data-name="Group 418" transform="translate(0.484 26.197)">
            <path id="Path_428" data-name="Path 428" d="M.6-3.033a.063.063,0,0,1,.022-.022.055.055,0,0,1,.03-.008.049.049,0,0,1,.04.017A.07.07,0,0,1,.708-3v.1H.656v-.083a.009.009,0,0,0,0,0v-.006a.046.046,0,0,0,0-.025.018.018,0,0,0-.016-.007.026.026,0,0,0-.023.012A.063.063,0,0,0,.6-2.98V-2.9H.554v-.083a.072.072,0,0,0,0-.033.017.017,0,0,0-.015-.007.025.025,0,0,0-.022.012.063.063,0,0,0-.007.033V-2.9H.453v-.157H.5v.023a.061.061,0,0,1,.021-.021.058.058,0,0,1,.027-.007.052.052,0,0,1,.029.008A.049.049,0,0,1,.6-3.033Z" transform="translate(-0.453 3.063)"/>
          </g>
          <g id="Group_419" data-name="Group 419" transform="translate(0.865 26.155)">
            <path id="Path_429" data-name="Path 429" d="M.152-3.844V-3.8H.2v.035H.152V-3.7a.02.02,0,0,0,0,.015.033.033,0,0,0,.018,0H.2v.036H.158a.06.06,0,0,1-.043-.011A.058.058,0,0,1,.1-3.7v-.066H.078V-3.8H.1v-.045Z" transform="translate(-0.078 3.844)"/>
          </g>
          <g id="Group_420" data-name="Group 420" transform="translate(1.023 26.138)">
            <path id="Path_430" data-name="Path 430" d="M.612-4.035v.1H.561v-.1a.026.026,0,0,0,0-.012.016.016,0,0,0-.008-.007.021.021,0,0,0-.011,0,.029.029,0,0,0-.026.012.06.06,0,0,0-.008.033v.078H.453v-.219H.5v.086a.07.07,0,0,1,.024-.021A.062.062,0,0,1,.556-4.1.05.05,0,0,1,.6-4.083a.07.07,0,0,1,.015.048Z" transform="translate(-0.453 4.159)"/>
          </g>
          <g id="Group_421" data-name="Group 421" transform="translate(1.217 26.196)">
            <path id="Path_431" data-name="Path 431" d="M.4-2.981v.014H.285A.041.041,0,0,0,.3-2.94a.048.048,0,0,0,.03.008.13.13,0,0,0,.033,0A.166.166,0,0,0,.4-2.951v.04A.159.159,0,0,1,.36-2.9a.212.212,0,0,1-.035,0,.1.1,0,0,1-.066-.022A.08.08,0,0,1,.234-2.98a.08.08,0,0,1,.022-.063.09.09,0,0,1,.066-.021.08.08,0,0,1,.059.021.082.082,0,0,1,.022.06ZM.352-3a.029.029,0,0,0-.009-.022A.028.028,0,0,0,.322-3.03.033.033,0,0,0,.3-3.022.038.038,0,0,0,.287-3Z" transform="translate(-0.234 3.064)"/>
          </g>
          <g id="Group_422" data-name="Group 422" transform="translate(1.527 26.148)">
            <path id="Path_432" data-name="Path 432" d="M.5-3.984H.561l.076.144v-.144H.689v.21H.628L.552-3.918v.144H.5Z" transform="translate(-0.5 3.984)"/>
          </g>
          <g id="Group_423" data-name="Group 423" transform="translate(1.753 26.197)">
            <path id="Path_433" data-name="Path 433" d="M.319-3.027a.029.029,0,0,0-.026.012.058.058,0,0,0-.008.033.063.063,0,0,0,.008.035.03.03,0,0,0,.026.012.03.03,0,0,0,.026-.012.06.06,0,0,0,.008-.035.055.055,0,0,0-.009-.033.03.03,0,0,0-.024-.013Zm0-.036a.086.086,0,0,1,.062.021.079.079,0,0,1,.023.06.083.083,0,0,1-.023.062A.087.087,0,0,1,.319-2.9a.089.089,0,0,1-.066-.021A.082.082,0,0,1,.23-2.981a.078.078,0,0,1,.023-.062.087.087,0,0,1,.066-.021Z" transform="translate(-0.229 3.064)"/>
          </g>
          <g id="Group_424" data-name="Group 424" transform="translate(1.962 26.199)">
            <path id="Path_434" data-name="Path 434" d="M.422-2.893v-.1H.473v.1a.022.022,0,0,0,0,.012.026.026,0,0,0,.008.008l.012,0a.029.029,0,0,0,.025-.012A.056.056,0,0,0,.53-2.911v-.078H.58v.157H.53v-.023a.078.078,0,0,1-.025.021.06.06,0,0,1-.028.007.053.053,0,0,1-.042-.017.076.076,0,0,1-.014-.05Z" transform="translate(-0.421 2.989)"/>
          </g>
          <g id="Group_425" data-name="Group 425" transform="translate(2.169 26.196)">
            <path id="Path_435" data-name="Path 435" d="M.612-3v.1H.561V-3a.026.026,0,0,0,0-.012.016.016,0,0,0-.008-.007.021.021,0,0,0-.011,0,.029.029,0,0,0-.026.012.06.06,0,0,0-.008.033V-2.9H.453v-.155H.5v.023a.07.07,0,0,1,.024-.021.062.062,0,0,1,.028-.007A.05.05,0,0,1,.6-3.046.07.07,0,0,1,.612-3Z" transform="translate(-0.453 3.063)"/>
          </g>
          <g id="Group_426" data-name="Group 426" transform="translate(2.478 26.148)">
            <path id="Path_436" data-name="Path 436" d="M.5-3.984H.59a.094.094,0,0,1,.062.018.061.061,0,0,1,.022.05.063.063,0,0,1-.022.051.1.1,0,0,1-.062.017H.554v.073H.5Zm.054.039v.059h.03a.035.035,0,0,0,.024-.007.028.028,0,0,0,.009-.022.027.027,0,0,0-.009-.022.035.035,0,0,0-.024-.007Z" transform="translate(-0.5 3.985)"/>
          </g>
          <g id="Group_427" data-name="Group 427" transform="translate(2.686 26.197)">
            <path id="Path_437" data-name="Path 437" d="M.571-3.015l-.013,0H.544a.037.037,0,0,0-.03.013.056.056,0,0,0-.01.035V-2.9H.453v-.159H.5v.026a.057.057,0,0,1,.022-.022.061.061,0,0,1,.03-.007H.57Z" transform="translate(-0.453 3.062)"/>
          </g>
          <g id="Group_428" data-name="Group 428" transform="translate(2.816 26.197)">
            <path id="Path_438" data-name="Path 438" d="M.319-3.027a.029.029,0,0,0-.026.012.058.058,0,0,0-.008.033.063.063,0,0,0,.008.035.03.03,0,0,0,.026.012.03.03,0,0,0,.026-.012.06.06,0,0,0,.008-.035.055.055,0,0,0-.009-.033.03.03,0,0,0-.024-.013Zm0-.036a.086.086,0,0,1,.062.021.079.079,0,0,1,.023.06.083.083,0,0,1-.023.062A.087.087,0,0,1,.319-2.9a.089.089,0,0,1-.066-.021A.082.082,0,0,1,.23-2.981a.078.078,0,0,1,.023-.062.087.087,0,0,1,.066-.021Z" transform="translate(-0.229 3.064)"/>
          </g>
          <g id="Group_429" data-name="Group 429" transform="translate(2.993 26.139)">
            <path id="Path_439" data-name="Path 439" d="M-.154-4.1H-.1v.156a.066.066,0,0,1-.016.048.054.054,0,0,1-.044.017H-.188v-.033h.009a.023.023,0,0,0,.02-.008.038.038,0,0,0,0-.024Zm0-.062H-.1v.041H-.154Z" transform="translate(0.188 4.157)"/>
          </g>
          <g id="Group_430" data-name="Group 430" transform="translate(3.114 26.196)">
            <path id="Path_440" data-name="Path 440" d="M.4-2.981v.014H.285A.041.041,0,0,0,.3-2.94a.048.048,0,0,0,.03.008.13.13,0,0,0,.033,0A.166.166,0,0,0,.4-2.951v.04A.159.159,0,0,1,.36-2.9a.212.212,0,0,1-.035,0,.1.1,0,0,1-.066-.022A.08.08,0,0,1,.234-2.98a.08.08,0,0,1,.022-.063.09.09,0,0,1,.066-.021.08.08,0,0,1,.059.021.082.082,0,0,1,.022.06ZM.352-3a.029.029,0,0,0-.009-.022A.028.028,0,0,0,.322-3.03.033.033,0,0,0,.3-3.022.038.038,0,0,0,.287-3Z" transform="translate(-0.234 3.064)"/>
          </g>
          <g id="Group_431" data-name="Group 431" transform="translate(3.312 26.195)">
            <path id="Path_441" data-name="Path 441" d="M.377-3.057v.04a.086.086,0,0,0-.021-.01.079.079,0,0,0-.022,0A.043.043,0,0,0,.3-3.017a.047.047,0,0,0-.012.033A.048.048,0,0,0,.3-2.951a.043.043,0,0,0,.033.012.074.074,0,0,0,.024,0,.058.058,0,0,0,.02-.011v.041A.1.1,0,0,1,.355-2.9L.33-2.9a.1.1,0,0,1-.066-.022A.08.08,0,0,1,.24-2.984a.077.077,0,0,1,.022-.061.094.094,0,0,1,.066-.022l.025,0a.1.1,0,0,1,.024.007Z" transform="translate(-0.24 3.067)"/>
          </g>
          <g id="Group_432" data-name="Group 432" transform="translate(3.472 26.155)">
            <path id="Path_442" data-name="Path 442" d="M.152-3.844V-3.8H.2v.035H.152V-3.7a.02.02,0,0,0,0,.015.033.033,0,0,0,.018,0H.2v.036H.158a.06.06,0,0,1-.043-.011A.058.058,0,0,1,.1-3.7v-.066H.078V-3.8H.1v-.045Z" transform="translate(-0.078 3.844)"/>
          </g>
        </g>
      </g>
      <g id="Mask_Group_12" data-name="Mask Group 12" transform="translate(25.515 0)" clip-path="url(#clip-path-2)">
        <g id="noun-side-view-1926401" transform="translate(0.004 5.374)">
          <path id="Path_443" data-name="Path 443" d="M313.173,412.376a15.8,15.8,0,0,0,.528,4.123,1.137,1.137,0,0,1-2.194.6,18.078,18.078,0,0,1-.607-4.721c0-.419.014-.82.036-1.2a10.329,10.329,0,0,0,2.258.319c-.014.284-.022.579-.022.883Z" transform="translate(-307.084 -397.87)"/>
          <path id="Path_444" data-name="Path 444" d="M245.554,119.5a2.341,2.341,0,0,1,1.969-1.166,2.373,2.373,0,0,1,.3-.019,2.513,2.513,0,0,1,2.121,1.4,10.806,10.806,0,0,1,1.215,3.413,36.813,36.813,0,0,1,.616,6.928c0,.3,0,.522-.006.632-.033.025-.084.058-.149.1a4.63,4.63,0,0,1-.655.328,6.881,6.881,0,0,1-2.626.482,12.338,12.338,0,0,1-5.813-1.675,12.683,12.683,0,0,0,1.4-2.677,6.454,6.454,0,0,0,2.145-1.442,8.4,8.4,0,0,0,1.653-2.439,11.068,11.068,0,0,0,.9-3.084v0l0-.014a1.045,1.045,0,0,0-.928-1.151,1.061,1.061,0,0,0-.113-.006,1.043,1.043,0,0,0-1.038.933l0,.015c0,.016-.005.041-.011.075-.01.066-.027.175-.055.316a9.451,9.451,0,0,1-.289,1.11A7.18,7.18,0,0,1,244.7,124.2c.02-.13.039-.258.057-.385.252-1.849.269-3.382.8-4.326Z" transform="translate(-242.009 -118.31)"/>
          <path id="Path_446" data-name="Path 446" d="M317.949,147.672a4.611,4.611,0,0,0,2.154-1.241,7.3,7.3,0,0,0,1.659-2.871,9.643,9.643,0,0,0,.3-1.14c.028-.141.046-.253.057-.327.006-.037.009-.064.011-.082l0-.019a.8.8,0,0,1,1.582.17h0a10.736,10.736,0,0,1-.877,3.024,8.17,8.17,0,0,1-1.6,2.367,6.209,6.209,0,0,1-2.886,1.659.8.8,0,1,1-.4-1.541Z" transform="translate(-317.352 -140.239)"/>
          <g id="Group_433" data-name="Group 433" transform="translate(9.38 21.347)">
            <path id="Path_447" data-name="Path 447" d="M.623-8.881a.29.29,0,0,0,.062.023.284.284,0,0,0,.066.008.227.227,0,0,0,.164-.057.207.207,0,0,0,.06-.157.206.206,0,0,0-.06-.157A.226.226,0,0,0,.751-9.28a.284.284,0,0,0-.066.008.256.256,0,0,0-.062.023v.086a.227.227,0,0,1,.058-.031A.205.205,0,0,1,.742-9.2a.113.113,0,0,1,.089.037.145.145,0,0,1,.033.1.146.146,0,0,1-.033.1.114.114,0,0,1-.089.036.2.2,0,0,1-.061-.006.217.217,0,0,1-.059-.03Z" transform="translate(-0.622 9.28)"/>
          </g>
          <g id="Group_434" data-name="Group 434" transform="translate(9.066 21.449)">
            <path id="Path_448" data-name="Path 448" d="M1.046-6.924l.026-.009a.1.1,0,0,1,.025,0,.075.075,0,0,1,.06.025.107.107,0,0,1,.021.07V-6.7h.1v-.311h-.1v.051A.13.13,0,0,0,1.133-7a.119.119,0,0,0-.06-.014H1.063l-.017,0Z" transform="translate(-1.046 7.016)"/>
          </g>
          <g id="Group_435" data-name="Group 435" transform="translate(8.707 21.449)">
            <path id="Path_449" data-name="Path 449" d="M.531-6.854v.028H.763a.074.074,0,0,1-.025.052.1.1,0,0,1-.061.017.232.232,0,0,1-.064-.009.313.313,0,0,1-.068-.028v.077a.4.4,0,0,0,.071.02.36.36,0,0,0,.071.008.188.188,0,0,0,.133-.043.156.156,0,0,0,.047-.121A.155.155,0,0,0,.82-6.972a.176.176,0,0,0-.126-.044.158.158,0,0,0-.118.045.16.16,0,0,0-.044.118Zm.1-.033A.062.062,0,0,1,.65-6.932.056.056,0,0,1,.693-6.95a.069.069,0,0,1,.048.016.076.076,0,0,1,.022.047Z" transform="translate(-0.531 7.017)"/>
          </g>
          <g id="Group_436" data-name="Group 436" transform="translate(8.34 21.45)">
            <path id="Path_450" data-name="Path 450" d="M.682-6.836a.083.083,0,0,1,.047.011.035.035,0,0,1,.016.031.036.036,0,0,1-.012.029A.054.054,0,0,1,.7-6.755a.062.062,0,0,1-.047-.02.069.069,0,0,1-.019-.05v-.011ZM.53-6.874V-6.7h.1v-.046A.126.126,0,0,0,.674-6.7a.133.133,0,0,0,.061.013.112.112,0,0,0,.079-.028.1.1,0,0,0,.03-.073.09.09,0,0,0-.038-.08A.215.215,0,0,0,.687-6.9H.631V-6.9a.037.037,0,0,1,.019-.033.116.116,0,0,1,.058-.011.265.265,0,0,1,.06.006.2.2,0,0,1,.05.019V-7A.622.622,0,0,0,.754-7.01a.487.487,0,0,0-.065,0,.181.181,0,0,0-.121.033.138.138,0,0,0-.038.108Z" transform="translate(-0.529 7.015)"/>
          </g>
          <g id="Group_437" data-name="Group 437" transform="translate(8.037 21.369)">
            <path id="Path_451" data-name="Path 451" d="M.275-8.781v.088h-.1v.071h.1v.133a.039.039,0,0,1-.009.029.052.052,0,0,1-.033.008H.181v.071H.266A.118.118,0,0,0,.35-8.406a.118.118,0,0,0,.024-.083v-.133H.423v-.071H.374v-.088Z" transform="translate(-0.172 8.781)"/>
          </g>
          <g id="Group_438" data-name="Group 438" transform="translate(7.666 21.449)">
            <path id="Path_452" data-name="Path 452" d="M.531-6.854v.028H.763a.074.074,0,0,1-.025.052.1.1,0,0,1-.061.017.232.232,0,0,1-.064-.009.313.313,0,0,1-.068-.028v.077a.4.4,0,0,0,.071.02.36.36,0,0,0,.071.008.188.188,0,0,0,.133-.043.156.156,0,0,0,.047-.121A.155.155,0,0,0,.82-6.972a.176.176,0,0,0-.126-.044.158.158,0,0,0-.118.045.16.16,0,0,0-.044.118Zm.1-.033A.062.062,0,0,1,.65-6.932.056.056,0,0,1,.693-6.95a.069.069,0,0,1,.048.016.076.076,0,0,1,.022.047Z" transform="translate(-0.531 7.017)"/>
          </g>
          <g id="Group_439" data-name="Group 439" transform="translate(7.281 21.338)">
            <path id="Path_453" data-name="Path 453" d="M.664-9.346v-.166h-.1v.431h.1v-.045a.137.137,0,0,0,.045.04.12.12,0,0,0,.057.013A.116.116,0,0,0,.86-9.118.18.18,0,0,0,.9-9.236.18.18,0,0,0,.86-9.353.116.116,0,0,0,.766-9.4a.119.119,0,0,0-.057.013.139.139,0,0,0-.045.04Zm.066.2a.055.055,0,0,1-.048-.024.115.115,0,0,1-.018-.068A.114.114,0,0,1,.681-9.3.055.055,0,0,1,.73-9.326.057.057,0,0,1,.779-9.3a.117.117,0,0,1,.016.066.118.118,0,0,1-.016.068.057.057,0,0,1-.049.025Z" transform="translate(-0.565 9.512)"/>
          </g>
          <g id="Group_440" data-name="Group 440" transform="translate(6.654 21.339)">
            <path id="Path_454" data-name="Path 454" d="M1.216-9.141a.057.057,0,0,1-.049-.024.115.115,0,0,1-.017-.068A.114.114,0,0,1,1.167-9.3a.057.057,0,0,1,.049-.024.057.057,0,0,1,.049.024.114.114,0,0,1,.017.066.115.115,0,0,1-.017.068.057.057,0,0,1-.049.024Zm.066-.2a.136.136,0,0,0-.045-.04A.123.123,0,0,0,1.18-9.4a.116.116,0,0,0-.094.046.181.181,0,0,0-.037.117.181.181,0,0,0,.037.118.116.116,0,0,0,.094.045.127.127,0,0,0,.057-.013.133.133,0,0,0,.045-.04v.045h.1v-.431h-.1Z" transform="translate(-1.048 9.508)"/>
          </g>
          <g id="Group_441" data-name="Group 441" transform="translate(6.267 21.457)">
            <path id="Path_455" data-name="Path 455" d="M.51-6.844H.41l-.084.211L.255-6.844h-.1l.133.34a.166.166,0,0,0,.044.072.11.11,0,0,0,.07.021H.46v-.066H.429a.063.063,0,0,1-.037-.009.053.053,0,0,1-.018-.028l0-.006Z" transform="translate(-0.156 6.844)"/>
          </g>
          <g id="Group_442" data-name="Group 442" transform="translate(5.635 21.347)">
            <path id="Path_456" data-name="Path 456" d="M.625-8.889a.394.394,0,0,0,.083.029A.426.426,0,0,0,.8-8.851a.227.227,0,0,0,.164-.057.207.207,0,0,0,.06-.157A.2.2,0,0,0,.96-9.222.238.238,0,0,0,.791-9.28a.393.393,0,0,0-.079.008.3.3,0,0,0-.072.023v.086a.3.3,0,0,1,.07-.029A.245.245,0,0,1,.778-9.2a.133.133,0,0,1,.1.035.142.142,0,0,1,.033.1.146.146,0,0,1-.033.1.124.124,0,0,1-.1.035l-.03,0L.726-8.936v-.08H.792v-.072H.626Z" transform="translate(-0.625 9.28)"/>
          </g>
          <g id="Group_443" data-name="Group 443" transform="translate(5.253 21.45)">
            <path id="Path_457" data-name="Path 457" d="M.682-6.836a.083.083,0,0,1,.047.011.035.035,0,0,1,.016.031.036.036,0,0,1-.012.029A.054.054,0,0,1,.7-6.755a.062.062,0,0,1-.047-.02.069.069,0,0,1-.019-.05v-.011ZM.53-6.874V-6.7h.1v-.046A.126.126,0,0,0,.674-6.7a.133.133,0,0,0,.061.013.112.112,0,0,0,.079-.028.1.1,0,0,0,.03-.073.09.09,0,0,0-.038-.08A.215.215,0,0,0,.687-6.9H.631V-6.9a.037.037,0,0,1,.019-.033.116.116,0,0,1,.058-.011.265.265,0,0,1,.06.006.2.2,0,0,1,.05.019V-7A.622.622,0,0,0,.754-7.01a.487.487,0,0,0-.065,0,.181.181,0,0,0-.121.033.138.138,0,0,0-.038.108Z" transform="translate(-0.529 7.015)"/>
          </g>
          <g id="Group_444" data-name="Group 444" transform="translate(4.848 21.45)">
            <path id="Path_458" data-name="Path 458" d="M1.045-6.887v.19h.1v-.145a.468.468,0,0,1,0-.055.059.059,0,0,1,.006-.023.042.042,0,0,1,.016-.015.046.046,0,0,1,.023-.006.057.057,0,0,1,.049.024.109.109,0,0,1,.018.066V-6.7h.1v-.311h-.1v.045A.156.156,0,0,0,1.21-7a.12.12,0,0,0-.056-.014.1.1,0,0,0-.082.033.143.143,0,0,0-.028.1Z" transform="translate(-1.044 7.016)"/>
          </g>
          <g id="Group_445" data-name="Group 445" transform="translate(4.149 21.354)">
            <path id="Path_459" data-name="Path 459" d="M1.56-9.125H1.454v.151L1.3-9.125H1.175l.2.2-.22.218h.133l.166-.163v.163h.106Z" transform="translate(-1.154 9.125)"/>
          </g>
          <g id="Group_446" data-name="Group 446" transform="translate(3.805 21.338)">
            <path id="Path_460" data-name="Path 460" d="M1.045-9.269v.19h.1v-.144a.479.479,0,0,1,0-.056A.059.059,0,0,1,1.152-9.3a.042.042,0,0,1,.016-.015.046.046,0,0,1,.023-.006A.057.057,0,0,1,1.24-9.3a.109.109,0,0,1,.018.066v.153h.1V-9.51h-.1v.166a.156.156,0,0,0-.048-.04A.12.12,0,0,0,1.154-9.4a.1.1,0,0,0-.082.033.143.143,0,0,0-.028.1Z" transform="translate(-1.044 9.51)"/>
          </g>
          <g id="Group_447" data-name="Group 447" transform="translate(3.396 21.449)">
            <path id="Path_461" data-name="Path 461" d="M.7-6.945a.06.06,0,0,1,.051.024.115.115,0,0,1,.017.068.118.118,0,0,1-.017.069A.06.06,0,0,1,.7-6.761a.057.057,0,0,1-.048-.024.115.115,0,0,1-.018-.069.112.112,0,0,1,.018-.068A.057.057,0,0,1,.7-6.945Zm0-.072a.173.173,0,0,0-.125.043.158.158,0,0,0-.045.12.158.158,0,0,0,.045.12A.172.172,0,0,0,.7-6.69a.175.175,0,0,0,.126-.043.157.157,0,0,0,.045-.12.158.158,0,0,0-.045-.12A.176.176,0,0,0,.7-7.017Z" transform="translate(-0.53 7.017)"/>
          </g>
          <g id="Group_448" data-name="Group 448" transform="translate(3.005 21.449)">
            <path id="Path_462" data-name="Path 462" d="M.7-6.945a.06.06,0,0,1,.051.024.115.115,0,0,1,.017.068.118.118,0,0,1-.017.069A.06.06,0,0,1,.7-6.761a.057.057,0,0,1-.048-.024.115.115,0,0,1-.018-.069.112.112,0,0,1,.018-.068A.057.057,0,0,1,.7-6.945Zm0-.072a.173.173,0,0,0-.125.043.158.158,0,0,0-.045.12.158.158,0,0,0,.045.12A.172.172,0,0,0,.7-6.69a.175.175,0,0,0,.126-.043.157.157,0,0,0,.045-.12.158.158,0,0,0-.045-.12A.176.176,0,0,0,.7-7.017Z" transform="translate(-0.53 7.017)"/>
          </g>
          <g id="Group_449" data-name="Group 449" transform="translate(2.62 21.45)">
            <path id="Path_463" data-name="Path 463" d="M1.045-6.887v.19h.1v-.145a.468.468,0,0,1,0-.055.059.059,0,0,1,.006-.023.042.042,0,0,1,.016-.015.046.046,0,0,1,.023-.006.057.057,0,0,1,.049.024.109.109,0,0,1,.018.066V-6.7h.1v-.311h-.1v.045A.156.156,0,0,0,1.21-7a.12.12,0,0,0-.056-.014.1.1,0,0,0-.082.033.143.143,0,0,0-.028.1Z" transform="translate(-1.044 7.016)"/>
          </g>
          <g id="Group_450" data-name="Group 450" transform="translate(2.032 21.354)">
            <path id="Path_464" data-name="Path 464" d="M1.451-9.125H1.344v.334H1.156v.081h.295Z" transform="translate(-1.156 9.125)"/>
          </g>
          <g id="Group_451" data-name="Group 451" transform="translate(1.677 21.45)">
            <path id="Path_465" data-name="Path 465" d="M.682-6.836a.083.083,0,0,1,.047.011.035.035,0,0,1,.016.031.036.036,0,0,1-.012.029A.054.054,0,0,1,.7-6.755a.062.062,0,0,1-.047-.02.069.069,0,0,1-.019-.05v-.011ZM.53-6.874V-6.7h.1v-.046A.126.126,0,0,0,.674-6.7a.133.133,0,0,0,.061.013.112.112,0,0,0,.079-.028.1.1,0,0,0,.03-.073.09.09,0,0,0-.038-.08A.215.215,0,0,0,.687-6.9H.631V-6.9a.037.037,0,0,1,.019-.033.116.116,0,0,1,.058-.011.265.265,0,0,1,.06.006.2.2,0,0,1,.05.019V-7A.622.622,0,0,0,.754-7.01a.487.487,0,0,0-.065,0,.181.181,0,0,0-.121.033.138.138,0,0,0-.038.108Z" transform="translate(-0.529 7.015)"/>
          </g>
          <g id="Group_452" data-name="Group 452" transform="translate(1.273 21.457)">
            <path id="Path_466" data-name="Path 466" d="M.51-6.844H.41l-.084.211L.255-6.844h-.1l.133.34a.166.166,0,0,0,.044.072.11.11,0,0,0,.07.021H.46v-.066H.429a.063.063,0,0,1-.037-.009.053.053,0,0,1-.018-.028l0-.006Z" transform="translate(-0.156 6.844)"/>
          </g>
          <g id="Group_453" data-name="Group 453" transform="translate(9.51 21.904)">
            <path id="Path_467" data-name="Path 467" d="M.234-9.516v.066H.289a.044.044,0,0,1,.03.008.036.036,0,0,1,.008.026v.022H.242v.071H.327v.24h.1v-.24h.05v-.071H.427v-.022A.092.092,0,0,0,.4-9.49a.13.13,0,0,0-.087-.025Z" transform="translate(-0.234 9.516)"/>
          </g>
          <g id="Group_454" data-name="Group 454" transform="translate(9.236 22.018)">
            <path id="Path_468" data-name="Path 468" d="M1.046-6.924l.026-.009a.1.1,0,0,1,.025,0,.075.075,0,0,1,.06.025.107.107,0,0,1,.021.07V-6.7h.1v-.311h-.1v.051A.13.13,0,0,0,1.133-7a.119.119,0,0,0-.06-.014H1.063l-.017,0Z" transform="translate(-1.046 7.016)"/>
          </g>
          <g id="Group_455" data-name="Group 455" transform="translate(8.868 22.018)">
            <path id="Path_469" data-name="Path 469" d="M.7-6.945a.06.06,0,0,1,.051.024.115.115,0,0,1,.017.068.118.118,0,0,1-.017.069A.06.06,0,0,1,.7-6.761a.057.057,0,0,1-.048-.024.115.115,0,0,1-.018-.069.112.112,0,0,1,.018-.068A.057.057,0,0,1,.7-6.945Zm0-.072a.173.173,0,0,0-.125.043.158.158,0,0,0-.045.12.158.158,0,0,0,.045.12A.172.172,0,0,0,.7-6.69a.175.175,0,0,0,.126-.043.157.157,0,0,0,.045-.12.158.158,0,0,0-.045-.12A.176.176,0,0,0,.7-7.017Z" transform="translate(-0.53 7.017)"/>
          </g>
          <g id="Group_456" data-name="Group 456" transform="translate(8.297 22.017)">
            <path id="Path_470" data-name="Path 470" d="M1.243-6.958A.137.137,0,0,0,1.2-7a.111.111,0,0,0-.057-.016.1.1,0,0,0-.081.033.143.143,0,0,0-.028.1v.19h.1v-.162a.046.046,0,0,1,0-.007V-6.88a.089.089,0,0,1,.01-.048.033.033,0,0,1,.031-.015.05.05,0,0,1,.044.024.129.129,0,0,1,.016.066V-6.7h.1v-.162a.153.153,0,0,1,.009-.066.033.033,0,0,1,.031-.015.05.05,0,0,1,.044.024.12.12,0,0,1,.016.066V-6.7h.1V-7.01h-.1v.045A.133.133,0,0,0,1.389-7a.107.107,0,0,0-.052-.014A.1.1,0,0,0,1.28-7a.1.1,0,0,0-.038.044Z" transform="translate(-1.031 7.018)"/>
          </g>
          <g id="Group_457" data-name="Group 457" transform="translate(7.795 21.938)">
            <path id="Path_471" data-name="Path 471" d="M.275-8.781v.088h-.1v.071h.1v.133a.039.039,0,0,1-.009.029.052.052,0,0,1-.033.008H.181v.071H.266A.118.118,0,0,0,.35-8.406a.118.118,0,0,0,.024-.083v-.133H.423v-.071H.374v-.088Z" transform="translate(-0.172 8.781)"/>
          </g>
          <g id="Group_458" data-name="Group 458" transform="translate(7.421 21.906)">
            <path id="Path_472" data-name="Path 472" d="M1.045-9.269v.19h.1v-.144a.479.479,0,0,1,0-.056A.059.059,0,0,1,1.152-9.3a.042.042,0,0,1,.016-.015.046.046,0,0,1,.023-.006A.057.057,0,0,1,1.24-9.3a.109.109,0,0,1,.018.066v.153h.1V-9.51h-.1v.166a.156.156,0,0,0-.048-.04A.12.12,0,0,0,1.154-9.4a.1.1,0,0,0-.082.033.143.143,0,0,0-.028.1Z" transform="translate(-1.044 9.51)"/>
          </g>
          <g id="Group_459" data-name="Group 459" transform="translate(7.02 22.018)">
            <path id="Path_473" data-name="Path 473" d="M.531-6.854v.028H.763a.074.074,0,0,1-.025.052.1.1,0,0,1-.061.017.232.232,0,0,1-.064-.009.313.313,0,0,1-.068-.028v.077a.4.4,0,0,0,.071.02.36.36,0,0,0,.071.008.188.188,0,0,0,.133-.043.156.156,0,0,0,.047-.121A.155.155,0,0,0,.82-6.972a.176.176,0,0,0-.126-.044.158.158,0,0,0-.118.045.16.16,0,0,0-.044.118Zm.1-.033A.062.062,0,0,1,.65-6.932.056.056,0,0,1,.693-6.95a.069.069,0,0,1,.048.016.076.076,0,0,1,.022.047Z" transform="translate(-0.531 7.017)"/>
          </g>
          <g id="Group_460" data-name="Group 460" transform="translate(6.372 21.922)">
            <path id="Path_474" data-name="Path 474" d="M1.527-9.125H1.408l-.15.285v-.285h-.1v.415h.119L1.426-9v.285h.1Z" transform="translate(-1.156 9.125)"/>
          </g>
          <g id="Group_461" data-name="Group 461" transform="translate(5.953 22.018)">
            <path id="Path_475" data-name="Path 475" d="M.7-6.945a.06.06,0,0,1,.051.024.115.115,0,0,1,.017.068.118.118,0,0,1-.017.069A.06.06,0,0,1,.7-6.761a.057.057,0,0,1-.048-.024.115.115,0,0,1-.018-.069.112.112,0,0,1,.018-.068A.057.057,0,0,1,.7-6.945Zm0-.072a.173.173,0,0,0-.125.043.158.158,0,0,0-.045.12.158.158,0,0,0,.045.12A.172.172,0,0,0,.7-6.69a.175.175,0,0,0,.126-.043.157.157,0,0,0,.045-.12.158.158,0,0,0-.045-.12A.176.176,0,0,0,.7-7.017Z" transform="translate(-0.53 7.017)"/>
          </g>
          <g id="Group_462" data-name="Group 462" transform="translate(5.574 22.026)">
            <path id="Path_476" data-name="Path 476" d="M1.3-6.654v-.19H1.2v.2a.059.059,0,0,1-.007.024.041.041,0,0,1-.016.015.049.049,0,0,1-.023,0,.058.058,0,0,1-.049-.024.111.111,0,0,1-.018-.066v-.153h-.1v.311h.1v-.045a.154.154,0,0,0,.048.04.118.118,0,0,0,.055.013.1.1,0,0,0,.082-.033.147.147,0,0,0,.028-.1Z" transform="translate(-0.988 6.844)"/>
          </g>
          <g id="Group_463" data-name="Group 463" transform="translate(5.163 22.018)">
            <path id="Path_477" data-name="Path 477" d="M1.045-6.887v.19h.1v-.145a.468.468,0,0,1,0-.055.059.059,0,0,1,.006-.023.042.042,0,0,1,.016-.015.046.046,0,0,1,.023-.006.057.057,0,0,1,.049.024.109.109,0,0,1,.018.066V-6.7h.1v-.311h-.1v.045A.156.156,0,0,0,1.21-7a.12.12,0,0,0-.056-.014.1.1,0,0,0-.082.033.143.143,0,0,0-.028.1Z" transform="translate(-1.044 7.016)"/>
          </g>
          <g id="Group_464" data-name="Group 464" transform="translate(4.529 21.922)">
            <path id="Path_478" data-name="Path 478" d="M1.5-9.126H1.32A.184.184,0,0,0,1.2-9.09a.122.122,0,0,0-.043.1.123.123,0,0,0,.043.1.186.186,0,0,0,.121.033h.07v.144H1.5Zm-.106.077v.116H1.331a.071.071,0,0,1-.048-.015.054.054,0,0,1-.017-.043.055.055,0,0,1,.017-.043.071.071,0,0,1,.048-.015Z" transform="translate(-1.155 9.126)"/>
          </g>
          <g id="Group_465" data-name="Group 465" transform="translate(4.227 22.018)">
            <path id="Path_479" data-name="Path 479" d="M1.046-6.924l.026-.009a.1.1,0,0,1,.025,0,.075.075,0,0,1,.06.025.107.107,0,0,1,.021.07V-6.7h.1v-.311h-.1v.051A.13.13,0,0,0,1.133-7a.119.119,0,0,0-.06-.014H1.063l-.017,0Z" transform="translate(-1.046 7.016)"/>
          </g>
          <g id="Group_466" data-name="Group 466" transform="translate(3.859 22.018)">
            <path id="Path_480" data-name="Path 480" d="M.7-6.945a.06.06,0,0,1,.051.024.115.115,0,0,1,.017.068.118.118,0,0,1-.017.069A.06.06,0,0,1,.7-6.761a.057.057,0,0,1-.048-.024.115.115,0,0,1-.018-.069.112.112,0,0,1,.018-.068A.057.057,0,0,1,.7-6.945Zm0-.072a.173.173,0,0,0-.125.043.158.158,0,0,0-.045.12.158.158,0,0,0,.045.12A.172.172,0,0,0,.7-6.69a.175.175,0,0,0,.126-.043.157.157,0,0,0,.045-.12.158.158,0,0,0-.045-.12A.176.176,0,0,0,.7-7.017Z" transform="translate(-0.53 7.017)"/>
          </g>
          <g id="Group_467" data-name="Group 467" transform="translate(3.688 21.905)">
            <path id="Path_481" data-name="Path 481" d="M-.323-9.394h-.1v.305a.137.137,0,0,0,.03.1.11.11,0,0,0,.086.033h.05v-.066H-.274a.047.047,0,0,1-.038-.012.084.084,0,0,1-.011-.05Zm0-.121h-.1v.082h.1Z" transform="translate(0.423 9.515)"/>
          </g>
          <g id="Group_468" data-name="Group 468" transform="translate(3.282 22.018)">
            <path id="Path_482" data-name="Path 482" d="M.531-6.854v.028H.763a.074.074,0,0,1-.025.052.1.1,0,0,1-.061.017.232.232,0,0,1-.064-.009.313.313,0,0,1-.068-.028v.077a.4.4,0,0,0,.071.02.36.36,0,0,0,.071.008.188.188,0,0,0,.133-.043.156.156,0,0,0,.047-.121A.155.155,0,0,0,.82-6.972a.176.176,0,0,0-.126-.044.158.158,0,0,0-.118.045.16.16,0,0,0-.044.118Zm.1-.033A.062.062,0,0,1,.65-6.932.056.056,0,0,1,.693-6.95a.069.069,0,0,1,.048.016.076.076,0,0,1,.022.047Z" transform="translate(-0.531 7.017)"/>
          </g>
          <g id="Group_469" data-name="Group 469" transform="translate(2.956 22.017)">
            <path id="Path_483" data-name="Path 483" d="M.531-7v.081a.145.145,0,0,1,.04-.021.144.144,0,0,1,.043-.007.086.086,0,0,1,.065.024A.093.093,0,0,1,.7-6.857a.093.093,0,0,1-.024.068.085.085,0,0,1-.065.024A.148.148,0,0,1,.57-6.771a.122.122,0,0,1-.039-.021v.082A.286.286,0,0,0,.579-6.7a.265.265,0,0,0,.048,0,.191.191,0,0,0,.133-.043.154.154,0,0,0,.048-.121.154.154,0,0,0-.048-.12A.189.189,0,0,0,.626-7.02a.238.238,0,0,0-.048.006A.286.286,0,0,0,.531-7Z" transform="translate(-0.531 7.02)"/>
          </g>
          <g id="Group_470" data-name="Group 470" transform="translate(2.659 21.938)">
            <path id="Path_484" data-name="Path 484" d="M.275-8.781v.088h-.1v.071h.1v.133a.039.039,0,0,1-.009.029.052.052,0,0,1-.033.008H.181v.071H.266A.118.118,0,0,0,.35-8.406a.118.118,0,0,0,.024-.083v-.133H.423v-.071H.374v-.088Z" transform="translate(-0.172 8.781)"/>
          </g>
        </g>
      </g>
    </g>
    <g id="Mask_Group_14" data-name="Mask Group 14" transform="translate(7593.509 2230)" clip-path="url(#clip-path-3)">
      <g id="noun-woman-97295" transform="translate(0 0.03)">
        <path id="Path_524" data-name="Path 524" d="M87.432,36.207a2.269,2.269,0,0,0-.119,1.022,6.814,6.814,0,0,0-.446.95c-.037.335.437.284.417.425-.031.216-.121.1-.091.423l.162.1c-.082.166-.046.313.154.35.044.324-.063.589.315.754.337.147.806-.088,1.116-.216.2-.084.351.142.4.2a.992.992,0,0,1,.173,1.216c-.145.3,3.364.406,3.091-.084a16.3,16.3,0,0,1-.721-1.511c-.446-.733-.143-.649.251-1.166a4.374,4.374,0,0,0,.414-.762.419.419,0,0,0,.317.133c.7.729-.687,1.087-.023,2.24.273.474,2.27,1.633,2.6.876-.937-.445-.62-.973-.673-1.743-.054-.792-1.012-1.5-1.683-1.759l-.009-.14a1.6,1.6,0,0,0-.271-.1,10.071,10.071,0,0,1-.189-1.323,2.168,2.168,0,0,0-2.145-1.932,3.265,3.265,0,0,0-2.783.743c-.346.454-.561,1.1-.353,1.239.029.018.107.049.1.066Z" transform="translate(-86.608 -34.118)"/>
        <g id="Group_510" data-name="Group 510" transform="translate(0.015 9.239)">
          <path id="Path_525" data-name="Path 525" d="M1.851-22.753a.232.232,0,0,1-.053.02.249.249,0,0,1-.057.007.2.2,0,0,1-.142-.049.174.174,0,0,1-.052-.133.174.174,0,0,1,.052-.133.2.2,0,0,1,.142-.049.243.243,0,0,1,.057.007.242.242,0,0,1,.053.019v.073a.2.2,0,0,0-.051-.025.171.171,0,0,0-.053-.008.1.1,0,0,0-.078.031.122.122,0,0,0-.028.086.122.122,0,0,0,.028.085.1.1,0,0,0,.078.031A.171.171,0,0,0,1.8-22.8a.2.2,0,0,0,.051-.025Z" transform="translate(-1.546 23.09)"/>
        </g>
        <g id="Group_511" data-name="Group 511" transform="translate(0.392 9.325)">
          <path id="Path_526" data-name="Path 526" d="M2.809-17.346l-.023-.008-.023,0a.064.064,0,0,0-.051.021.089.089,0,0,0-.018.06v.122H2.609v-.265h.086v.043a.108.108,0,0,1,.038-.038.105.105,0,0,1,.052-.012h.024Z" transform="translate(-2.609 17.425)"/>
        </g>
        <g id="Group_512" data-name="Group 512" transform="translate(0.614 9.327)">
          <path id="Path_527" data-name="Path 527" d="M1.632-17.282v.024h-.2a.063.063,0,0,0,.022.044A.082.082,0,0,0,1.5-17.2a.209.209,0,0,0,.056-.008.3.3,0,0,0,.058-.024v.066a.357.357,0,0,1-.061.017.322.322,0,0,1-.061.006.164.164,0,0,1-.113-.036.13.13,0,0,1-.04-.1.133.133,0,0,1,.039-.1.154.154,0,0,1,.109-.037.138.138,0,0,1,.1.037.133.133,0,0,1,.038.1Zm-.088-.028a.054.054,0,0,0-.014-.039.049.049,0,0,0-.037-.015.059.059,0,0,0-.04.014.064.064,0,0,0-.02.04Z" transform="translate(-1.343 17.419)"/>
        </g>
        <g id="Group_513" data-name="Group 513" transform="translate(0.949 9.325)">
          <path id="Path_528" data-name="Path 528" d="M1.485-17.271a.074.074,0,0,0-.04.009.03.03,0,0,0-.013.027.031.031,0,0,0,.011.025.046.046,0,0,0,.03.009.055.055,0,0,0,.041-.017.06.06,0,0,0,.017-.043v-.01Zm.133-.033v.15H1.529v-.039a.109.109,0,0,1-.039.035.115.115,0,0,1-.052.011.1.1,0,0,1-.066-.024.081.081,0,0,1-.026-.062.076.076,0,0,1,.033-.066.187.187,0,0,1,.1-.022h.048v-.007a.033.033,0,0,0-.016-.029.1.1,0,0,0-.05-.009.228.228,0,0,0-.052.006.172.172,0,0,0-.044.016v-.064a.515.515,0,0,1,.055-.01.464.464,0,0,1,.056,0,.158.158,0,0,1,.1.028.116.116,0,0,1,.033.091Z" transform="translate(-1.346 17.423)"/>
        </g>
        <g id="Group_514" data-name="Group 514" transform="translate(1.264 9.256)">
          <path id="Path_529" data-name="Path 529" d="M.535-21.845v.075H.623v.06H.535v.112a.033.033,0,0,0,.007.025.049.049,0,0,0,.03.008H.616v.06H.542a.1.1,0,0,1-.072-.022A.1.1,0,0,1,.449-21.6v-.112H.406v-.06H.449v-.075Z" transform="translate(-0.406 21.846)"/>
        </g>
        <g id="Group_515" data-name="Group 515" transform="translate(1.513 9.327)">
          <path id="Path_530" data-name="Path 530" d="M1.632-17.282v.024h-.2a.063.063,0,0,0,.022.044A.082.082,0,0,0,1.5-17.2a.209.209,0,0,0,.056-.008.3.3,0,0,0,.058-.024v.066a.357.357,0,0,1-.061.017.322.322,0,0,1-.061.006.164.164,0,0,1-.113-.036.13.13,0,0,1-.04-.1.133.133,0,0,1,.039-.1.154.154,0,0,1,.109-.037.138.138,0,0,1,.1.037.133.133,0,0,1,.038.1Zm-.088-.028a.054.054,0,0,0-.014-.039.049.049,0,0,0-.037-.015.059.059,0,0,0-.04.014.064.064,0,0,0-.02.04Z" transform="translate(-1.343 17.419)"/>
        </g>
        <g id="Group_516" data-name="Group 516" transform="translate(1.846 9.229)">
          <path id="Path_531" data-name="Path 531" d="M1.59-23.5v-.141h.086v.366H1.59v-.038a.116.116,0,0,1-.039.033.109.109,0,0,1-.049.011.1.1,0,0,1-.082-.039.151.151,0,0,1-.033-.1.152.152,0,0,1,.033-.1.1.1,0,0,1,.082-.039.108.108,0,0,1,.049.011.116.116,0,0,1,.039.033Zm-.056.17a.049.049,0,0,0,.042-.02.1.1,0,0,0,.014-.057.1.1,0,0,0-.015-.057.049.049,0,0,0-.042-.02.049.049,0,0,0-.042.02.1.1,0,0,0-.015.057.1.1,0,0,0,.015.057A.049.049,0,0,0,1.534-23.329Z" transform="translate(-1.387 23.641)"/>
        </g>
        <g id="Group_517" data-name="Group 517" transform="translate(2.389 9.231)">
          <path id="Path_532" data-name="Path 532" d="M2.752-23.327a.049.049,0,0,0,.042-.02.1.1,0,0,0,.015-.057.1.1,0,0,0-.015-.057.049.049,0,0,0-.042-.02.05.05,0,0,0-.042.02.1.1,0,0,0-.015.057.094.094,0,0,0,.015.057A.05.05,0,0,0,2.752-23.327Zm-.057-.17a.116.116,0,0,1,.039-.033.109.109,0,0,1,.05-.011.1.1,0,0,1,.082.039.151.151,0,0,1,.033.1.151.151,0,0,1-.033.1.1.1,0,0,1-.082.039.109.109,0,0,1-.05-.011.117.117,0,0,1-.039-.033v.038H2.609v-.366h.086Z" transform="translate(-2.609 23.637)"/>
        </g>
        <g id="Group_518" data-name="Group 518" transform="translate(2.706 9.332)">
          <path id="Path_533" data-name="Path 533" d="M.375-17.016H.461l.072.179.061-.179H.682l-.113.289a.14.14,0,0,1-.04.062.1.1,0,0,1-.06.018H.418V-16.7H.445a.058.058,0,0,0,.033-.007.046.046,0,0,0,.016-.025l0-.007Z" transform="translate(-0.375 17.016)"/>
        </g>
        <g id="Group_519" data-name="Group 519" transform="translate(3.163 9.244)">
          <path id="Path_534" data-name="Path 534" d="M-1.677-22.672h.092v.317a.125.125,0,0,1-.036.1.16.16,0,0,1-.11.033H-1.75v-.069h.015a.056.056,0,0,0,.043-.016.066.066,0,0,0,.015-.046Z" transform="translate(1.75 22.672)"/>
        </g>
        <g id="Group_520" data-name="Group 520" transform="translate(3.412 9.332)">
          <path id="Path_535" data-name="Path 535" d="M2.437-16.855v-.161h.087v.169a.047.047,0,0,0,.006.02.036.036,0,0,0,.014.013.043.043,0,0,0,.02,0,.05.05,0,0,0,.042-.02.092.092,0,0,0,.015-.056v-.13h.086v.265H2.621v-.038a.133.133,0,0,1-.041.033.105.105,0,0,1-.048.011.089.089,0,0,1-.071-.028.121.121,0,0,1-.024-.082Z" transform="translate(-2.437 17.016)"/>
        </g>
        <g id="Group_521" data-name="Group 521" transform="translate(3.765 9.229)">
          <path id="Path_536" data-name="Path 536" d="M2.609-23.641h.086v.366H2.609Z" transform="translate(-2.609 23.641)"/>
        </g>
        <g id="Group_522" data-name="Group 522" transform="translate(3.913 9.327)">
          <path id="Path_537" data-name="Path 537" d="M1.632-17.282v.024h-.2a.063.063,0,0,0,.022.044A.082.082,0,0,0,1.5-17.2a.209.209,0,0,0,.056-.008.3.3,0,0,0,.058-.024v.066a.357.357,0,0,1-.061.017.322.322,0,0,1-.061.006.164.164,0,0,1-.113-.036.13.13,0,0,1-.04-.1.133.133,0,0,1,.039-.1.154.154,0,0,1,.109-.037.138.138,0,0,1,.1.037.133.133,0,0,1,.038.1Zm-.088-.028a.054.054,0,0,0-.014-.039.049.049,0,0,0-.037-.015.059.059,0,0,0-.04.014.064.064,0,0,0-.02.04Z" transform="translate(-1.343 17.419)"/>
        </g>
        <g id="Group_523" data-name="Group 523" transform="translate(4.425 9.237)">
          <path id="Path_538" data-name="Path 538" d="M2.037-22.971l.1.106a.118.118,0,0,0,.019-.037.18.18,0,0,0,.008-.046h.075a.268.268,0,0,1-.017.076.184.184,0,0,1-.037.059l.07.076h-.1l-.024-.026a.193.193,0,0,1-.053.025.212.212,0,0,1-.059.008.154.154,0,0,1-.1-.033.1.1,0,0,1-.039-.084.11.11,0,0,1,.017-.061.184.184,0,0,1,.056-.052.093.093,0,0,1-.015-.025.075.075,0,0,1,0-.027.073.073,0,0,1,.03-.061A.131.131,0,0,1,2.04-23.1a.321.321,0,0,1,.045,0,.418.418,0,0,1,.049.01v.066a.222.222,0,0,0-.043-.017.154.154,0,0,0-.039-.005.051.051,0,0,0-.029.007.022.022,0,0,0-.01.019.038.038,0,0,0,.006.019.133.133,0,0,0,.018.023Zm-.048.058a.077.077,0,0,0-.024.025.061.061,0,0,0-.008.031.061.061,0,0,0,.02.046.07.07,0,0,0,.049.019.093.093,0,0,0,.03,0,.083.083,0,0,0,.026-.015Z" transform="translate(-1.875 23.097)"/>
        </g>
        <g id="Group_524" data-name="Group 524" transform="translate(5.04 9.244)">
          <path id="Path_539" data-name="Path 539" d="M2.859-22.672h.117l.082.188.082-.188h.117v.351H3.171v-.257l-.083.19H3.029l-.083-.19v.257H2.859Z" transform="translate(-2.859 22.672)"/>
        </g>
        <g id="Group_525" data-name="Group 525" transform="translate(5.506 9.325)">
          <path id="Path_540" data-name="Path 540" d="M1.485-17.271a.074.074,0,0,0-.04.009.03.03,0,0,0-.013.027.031.031,0,0,0,.011.025.046.046,0,0,0,.03.009.055.055,0,0,0,.041-.017.06.06,0,0,0,.017-.043v-.01Zm.133-.033v.15H1.529v-.039a.109.109,0,0,1-.039.035.115.115,0,0,1-.052.011.1.1,0,0,1-.066-.024.081.081,0,0,1-.026-.062.076.076,0,0,1,.033-.066.187.187,0,0,1,.1-.022h.048v-.007a.033.033,0,0,0-.016-.029.1.1,0,0,0-.05-.009.228.228,0,0,0-.052.006.172.172,0,0,0-.044.016v-.064a.515.515,0,0,1,.055-.01.464.464,0,0,1,.056,0,.158.158,0,0,1,.1.028.116.116,0,0,1,.033.091Z" transform="translate(-1.346 17.423)"/>
        </g>
        <g id="Group_526" data-name="Group 526" transform="translate(5.821 9.256)">
          <path id="Path_541" data-name="Path 541" d="M.535-21.845v.075H.623v.06H.535v.112a.033.033,0,0,0,.007.025.049.049,0,0,0,.03.008H.616v.06H.542a.1.1,0,0,1-.072-.022A.1.1,0,0,1,.449-21.6v-.112H.406v-.06H.449v-.075Z" transform="translate(-0.406 21.846)"/>
        </g>
        <g id="Group_527" data-name="Group 527" transform="translate(6.056 9.256)">
          <path id="Path_542" data-name="Path 542" d="M.535-21.845v.075H.623v.06H.535v.112a.033.033,0,0,0,.007.025.049.049,0,0,0,.03.008H.616v.06H.542a.1.1,0,0,1-.072-.022A.1.1,0,0,1,.449-21.6v-.112H.406v-.06H.449v-.075Z" transform="translate(-0.406 21.846)"/>
        </g>
        <g id="Group_528" data-name="Group 528" transform="translate(6.326 9.229)">
          <path id="Path_543" data-name="Path 543" d="M2.88-23.435v.16H2.794V-23.4a.433.433,0,0,0,0-.047.051.051,0,0,0-.005-.019.037.037,0,0,0-.014-.013.041.041,0,0,0-.02,0,.05.05,0,0,0-.042.021A.091.091,0,0,0,2.7-23.4v.13H2.61v-.366H2.7v.141a.133.133,0,0,1,.041-.033.107.107,0,0,1,.048-.011.088.088,0,0,1,.071.028.121.121,0,0,1,.024.082Z" transform="translate(-2.61 23.641)"/>
        </g>
        <g id="Group_529" data-name="Group 529" transform="translate(6.676 9.229)">
          <path id="Path_544" data-name="Path 544" d="M2.609-23.538h.086v.265H2.609Zm0-.1h.086v.069H2.609Z" transform="translate(-2.609 23.641)"/>
        </g>
        <g id="Group_530" data-name="Group 530" transform="translate(6.825 9.325)">
          <path id="Path_545" data-name="Path 545" d="M1.485-17.271a.074.074,0,0,0-.04.009.03.03,0,0,0-.013.027.031.031,0,0,0,.011.025.046.046,0,0,0,.03.009.055.055,0,0,0,.041-.017.06.06,0,0,0,.017-.043v-.01Zm.133-.033v.15H1.529v-.039a.109.109,0,0,1-.039.035.115.115,0,0,1-.052.011.1.1,0,0,1-.066-.024.081.081,0,0,1-.026-.062.076.076,0,0,1,.033-.066.187.187,0,0,1,.1-.022h.048v-.007a.033.033,0,0,0-.016-.029.1.1,0,0,0-.05-.009.228.228,0,0,0-.052.006.172.172,0,0,0-.044.016v-.064a.515.515,0,0,1,.055-.01.464.464,0,0,1,.056,0,.158.158,0,0,1,.1.028.116.116,0,0,1,.033.091Z" transform="translate(-1.346 17.423)"/>
        </g>
        <g id="Group_531" data-name="Group 531" transform="translate(7.159 9.326)">
          <path id="Path_546" data-name="Path 546" d="M1.834-17.408v.064a.324.324,0,0,0-.053-.017.22.22,0,0,0-.048-.006.084.084,0,0,0-.036.006.02.02,0,0,0-.012.019.018.018,0,0,0,.009.016.089.089,0,0,0,.033.008l.015,0a.183.183,0,0,1,.088.027.072.072,0,0,1,.023.059.071.071,0,0,1-.033.063.172.172,0,0,1-.094.021.389.389,0,0,1-.053,0,.466.466,0,0,1-.058-.012v-.064a.259.259,0,0,0,.053.019.247.247,0,0,0,.055.006.082.082,0,0,0,.038-.007.022.022,0,0,0,.013-.02.018.018,0,0,0-.009-.017.094.094,0,0,0-.033-.009l-.015,0a.162.162,0,0,1-.083-.027.071.071,0,0,1-.023-.058.07.07,0,0,1,.03-.061.159.159,0,0,1,.09-.02.364.364,0,0,1,.05,0,.557.557,0,0,1,.057.011Z" transform="translate(-1.608 17.422)"/>
        </g>
        <g id="Group_532" data-name="Group 532" transform="translate(7.633 9.239)">
          <path id="Path_547" data-name="Path 547" d="M2.494-23.075V-23a.339.339,0,0,0-.058-.019.232.232,0,0,0-.053-.007.1.1,0,0,0-.049.009.029.029,0,0,0-.016.028.026.026,0,0,0,.011.022.106.106,0,0,0,.039.013l.039.008a.172.172,0,0,1,.085.036.09.09,0,0,1,.025.068.1.1,0,0,1-.035.086.168.168,0,0,1-.107.028.379.379,0,0,1-.068-.006.412.412,0,0,1-.069-.019v-.076A.353.353,0,0,0,2.3-22.8a.229.229,0,0,0,.062.009.088.088,0,0,0,.046-.01.033.033,0,0,0,.016-.028.03.03,0,0,0-.011-.025.114.114,0,0,0-.043-.016l-.036-.008a.154.154,0,0,1-.079-.036.091.091,0,0,1-.025-.066.1.1,0,0,1,.033-.081.153.153,0,0,1,.1-.028.437.437,0,0,1,.061,0,.564.564,0,0,1,.066.013Z" transform="translate(-2.235 23.091)"/>
        </g>
        <g id="Group_533" data-name="Group 533" transform="translate(7.958 9.256)">
          <path id="Path_548" data-name="Path 548" d="M.535-21.845v.075H.623v.06H.535v.112a.033.033,0,0,0,.007.025.049.049,0,0,0,.03.008H.616v.06H.542a.1.1,0,0,1-.072-.022A.1.1,0,0,1,.449-21.6v-.112H.406v-.06H.449v-.075Z" transform="translate(-0.406 21.846)"/>
        </g>
        <g id="Group_534" data-name="Group 534" transform="translate(8.207 9.327)">
          <path id="Path_549" data-name="Path 549" d="M1.632-17.282v.024h-.2a.063.063,0,0,0,.022.044A.082.082,0,0,0,1.5-17.2a.209.209,0,0,0,.056-.008.3.3,0,0,0,.058-.024v.066a.357.357,0,0,1-.061.017.322.322,0,0,1-.061.006.164.164,0,0,1-.113-.036.13.13,0,0,1-.04-.1.133.133,0,0,1,.039-.1.154.154,0,0,1,.109-.037.138.138,0,0,1,.1.037.133.133,0,0,1,.038.1Zm-.088-.028a.054.054,0,0,0-.014-.039.049.049,0,0,0-.037-.015.059.059,0,0,0-.04.014.064.064,0,0,0-.02.04Z" transform="translate(-1.343 17.419)"/>
        </g>
        <g id="Group_535" data-name="Group 535" transform="translate(8.528 9.229)">
          <path id="Path_550" data-name="Path 550" d="M.8-23.642v.055H.754a.038.038,0,0,0-.026.007.029.029,0,0,0-.007.022v.019H.794v.06H.722v.2H.636v-.2H.593v-.06H.636v-.019a.079.079,0,0,1,.026-.064.116.116,0,0,1,.076-.021Z" transform="translate(-0.593 23.642)"/>
        </g>
        <g id="Group_536" data-name="Group 536" transform="translate(8.742 9.229)">
          <path id="Path_551" data-name="Path 551" d="M.8-23.642v.055H.754a.038.038,0,0,0-.026.007.029.029,0,0,0-.007.022v.019H.794v.06H.722v.2H.636v-.2H.593v-.06H.636v-.019a.079.079,0,0,1,.026-.064.116.116,0,0,1,.076-.021Z" transform="translate(-0.593 23.642)"/>
        </g>
        <g id="Group_537" data-name="Group 537" transform="translate(8.967 9.327)">
          <path id="Path_552" data-name="Path 552" d="M1.632-17.282v.024h-.2a.063.063,0,0,0,.022.044A.082.082,0,0,0,1.5-17.2a.209.209,0,0,0,.056-.008.3.3,0,0,0,.058-.024v.066a.357.357,0,0,1-.061.017.322.322,0,0,1-.061.006.164.164,0,0,1-.113-.036.13.13,0,0,1-.04-.1.133.133,0,0,1,.039-.1.154.154,0,0,1,.109-.037.138.138,0,0,1,.1.037.133.133,0,0,1,.038.1Zm-.088-.028a.054.054,0,0,0-.014-.039.049.049,0,0,0-.037-.015.059.059,0,0,0-.04.014.064.064,0,0,0-.02.04Z" transform="translate(-1.343 17.419)"/>
        </g>
        <g id="Group_538" data-name="Group 538" transform="translate(9.321 9.325)">
          <path id="Path_553" data-name="Path 553" d="M2.88-17.314v.16H2.794v-.123a.431.431,0,0,0,0-.047.051.051,0,0,0-.005-.019.037.037,0,0,0-.014-.013.041.041,0,0,0-.02,0,.05.05,0,0,0-.042.021.091.091,0,0,0-.015.056v.13H2.61v-.265H2.7v.039a.133.133,0,0,1,.041-.033.107.107,0,0,1,.048-.011.088.088,0,0,1,.071.028.121.121,0,0,1,.024.082Z" transform="translate(-2.61 17.424)"/>
        </g>
        <g id="Group_539" data-name="Group 539" transform="translate(0 9.711)">
          <path id="Path_554" data-name="Path 554" d="M.8-23.642v.055H.754a.038.038,0,0,0-.026.007.029.029,0,0,0-.007.022v.019H.794v.06H.722v.2H.636v-.2H.593v-.06H.636v-.019a.079.079,0,0,1,.026-.064.116.116,0,0,1,.076-.021Z" transform="translate(-0.593 23.642)"/>
        </g>
        <g id="Group_540" data-name="Group 540" transform="translate(0.246 9.807)">
          <path id="Path_555" data-name="Path 555" d="M2.809-17.346l-.023-.008-.023,0a.064.064,0,0,0-.051.021.089.089,0,0,0-.018.06v.122H2.609v-.265h.086v.043a.108.108,0,0,1,.038-.038.105.105,0,0,1,.052-.012h.024Z" transform="translate(-2.609 17.425)"/>
        </g>
        <g id="Group_541" data-name="Group 541" transform="translate(0.468 9.808)">
          <path id="Path_556" data-name="Path 556" d="M1.491-17.362a.051.051,0,0,0-.043.02.1.1,0,0,0-.015.059.1.1,0,0,0,.015.058.051.051,0,0,0,.043.02.05.05,0,0,0,.043-.02.1.1,0,0,0,.015-.058.1.1,0,0,0-.015-.058.05.05,0,0,0-.043-.022Zm0-.06a.152.152,0,0,1,.108.037.133.133,0,0,1,.039.1.133.133,0,0,1-.039.1.152.152,0,0,1-.108.036.153.153,0,0,1-.109-.036.133.133,0,0,1-.039-.1.133.133,0,0,1,.039-.1.153.153,0,0,1,.108-.038Z" transform="translate(-1.343 17.423)"/>
        </g>
        <g id="Group_542" data-name="Group 542" transform="translate(0.824 9.807)">
          <path id="Path_557" data-name="Path 557" d="M2.827-17.374a.116.116,0,0,1,.039-.037.1.1,0,0,1,.049-.013.088.088,0,0,1,.071.028.121.121,0,0,1,.024.082v.16H2.924v-.153a.076.076,0,0,0-.008-.041.03.03,0,0,0-.027-.013.043.043,0,0,0-.038.02.105.105,0,0,0-.014.057v.13H2.751v-.138a.131.131,0,0,0-.008-.056.029.029,0,0,0-.028-.013.043.043,0,0,0-.038.02.1.1,0,0,0-.013.057v.13H2.578v-.265h.086v.039a.107.107,0,0,1,.036-.033.093.093,0,0,1,.045-.011.091.091,0,0,1,.049.013.082.082,0,0,1,.033.037Z" transform="translate(-2.578 17.425)"/>
        </g>
        <g id="Group_543" data-name="Group 543" transform="translate(1.473 9.739)">
          <path id="Path_558" data-name="Path 558" d="M.535-21.845v.075H.623v.06H.535v.112a.033.033,0,0,0,.007.025.049.049,0,0,0,.03.008H.616v.06H.542a.1.1,0,0,1-.072-.022A.1.1,0,0,1,.449-21.6v-.112H.406v-.06H.449v-.075Z" transform="translate(-0.406 21.846)"/>
        </g>
        <g id="Group_544" data-name="Group 544" transform="translate(1.743 9.711)">
          <path id="Path_559" data-name="Path 559" d="M2.88-23.435v.16H2.794V-23.4a.433.433,0,0,0,0-.047.051.051,0,0,0-.005-.019.037.037,0,0,0-.014-.013.041.041,0,0,0-.02,0,.05.05,0,0,0-.042.021A.091.091,0,0,0,2.7-23.4v.13H2.61v-.366H2.7v.141a.133.133,0,0,1,.041-.033.107.107,0,0,1,.048-.011.088.088,0,0,1,.071.028.121.121,0,0,1,.024.082Z" transform="translate(-2.61 23.641)"/>
        </g>
        <g id="Group_545" data-name="Group 545" transform="translate(2.072 9.809)">
          <path id="Path_560" data-name="Path 560" d="M1.632-17.282v.024h-.2a.063.063,0,0,0,.022.044A.082.082,0,0,0,1.5-17.2a.209.209,0,0,0,.056-.008.3.3,0,0,0,.058-.024v.066a.357.357,0,0,1-.061.017.322.322,0,0,1-.061.006.164.164,0,0,1-.113-.036.13.13,0,0,1-.04-.1.133.133,0,0,1,.039-.1.154.154,0,0,1,.109-.037.138.138,0,0,1,.1.037.133.133,0,0,1,.038.1Zm-.088-.028a.054.054,0,0,0-.014-.039.049.049,0,0,0-.037-.015.059.059,0,0,0-.04.014.064.064,0,0,0-.02.04Z" transform="translate(-1.343 17.419)"/>
        </g>
        <g id="Group_546" data-name="Group 546" transform="translate(2.6 9.726)">
          <path id="Path_561" data-name="Path 561" d="M2.859-22.672h.1l.13.241v-.241H3.18v.351h-.1l-.13-.241v.241H2.859Z" transform="translate(-2.859 22.672)"/>
        </g>
        <g id="Group_547" data-name="Group 547" transform="translate(2.987 9.808)">
          <path id="Path_562" data-name="Path 562" d="M1.491-17.362a.051.051,0,0,0-.043.02.1.1,0,0,0-.015.059.1.1,0,0,0,.015.058.051.051,0,0,0,.043.02.05.05,0,0,0,.043-.02.1.1,0,0,0,.015-.058.1.1,0,0,0-.015-.058.05.05,0,0,0-.043-.022Zm0-.06a.152.152,0,0,1,.108.037.133.133,0,0,1,.039.1.133.133,0,0,1-.039.1.152.152,0,0,1-.108.036.153.153,0,0,1-.109-.036.133.133,0,0,1-.039-.1.133.133,0,0,1,.039-.1.153.153,0,0,1,.108-.038Z" transform="translate(-1.343 17.423)"/>
        </g>
        <g id="Group_548" data-name="Group 548" transform="translate(3.342 9.814)">
          <path id="Path_563" data-name="Path 563" d="M2.437-16.855v-.161h.087v.169a.047.047,0,0,0,.006.02.036.036,0,0,0,.014.013.043.043,0,0,0,.02,0,.05.05,0,0,0,.042-.02.092.092,0,0,0,.015-.056v-.13h.086v.265H2.621v-.038a.133.133,0,0,1-.041.033.105.105,0,0,1-.048.011.089.089,0,0,1-.071-.028.121.121,0,0,1-.024-.082Z" transform="translate(-2.437 17.016)"/>
        </g>
        <g id="Group_549" data-name="Group 549" transform="translate(3.694 9.807)">
          <path id="Path_564" data-name="Path 564" d="M2.88-17.314v.16H2.794v-.123a.431.431,0,0,0,0-.047.051.051,0,0,0-.005-.019.037.037,0,0,0-.014-.013.041.041,0,0,0-.02,0,.05.05,0,0,0-.042.021.091.091,0,0,0-.015.056v.13H2.61v-.265H2.7v.039a.133.133,0,0,1,.041-.033.107.107,0,0,1,.048-.011.088.088,0,0,1,.071.028.121.121,0,0,1,.024.082Z" transform="translate(-2.61 17.424)"/>
        </g>
        <g id="Group_550" data-name="Group 550" transform="translate(4.219 9.726)">
          <path id="Path_565" data-name="Path 565" d="M2.859-22.673h.153a.162.162,0,0,1,.1.03.1.1,0,0,1,.037.085.1.1,0,0,1-.037.085.162.162,0,0,1-.1.03H2.951v.122H2.859Zm.092.066v.1H3a.061.061,0,0,0,.041-.013.045.045,0,0,0,.015-.036.045.045,0,0,0-.015-.036A.061.061,0,0,0,3-22.605Z" transform="translate(-2.859 22.673)"/>
        </g>
        <g id="Group_551" data-name="Group 551" transform="translate(4.575 9.807)">
          <path id="Path_566" data-name="Path 566" d="M2.809-17.346l-.023-.008-.023,0a.064.064,0,0,0-.051.021.089.089,0,0,0-.018.06v.122H2.609v-.265h.086v.043a.108.108,0,0,1,.038-.038.105.105,0,0,1,.052-.012h.024Z" transform="translate(-2.609 17.425)"/>
        </g>
        <g id="Group_552" data-name="Group 552" transform="translate(4.797 9.808)">
          <path id="Path_567" data-name="Path 567" d="M1.491-17.362a.051.051,0,0,0-.043.02.1.1,0,0,0-.015.059.1.1,0,0,0,.015.058.051.051,0,0,0,.043.02.05.05,0,0,0,.043-.02.1.1,0,0,0,.015-.058.1.1,0,0,0-.015-.058.05.05,0,0,0-.043-.022Zm0-.06a.152.152,0,0,1,.108.037.133.133,0,0,1,.039.1.133.133,0,0,1-.039.1.152.152,0,0,1-.108.036.153.153,0,0,1-.109-.036.133.133,0,0,1-.039-.1.133.133,0,0,1,.039-.1.153.153,0,0,1,.108-.038Z" transform="translate(-1.343 17.423)"/>
        </g>
        <g id="Group_553" data-name="Group 553" transform="translate(5.097 9.711)">
          <path id="Path_568" data-name="Path 568" d="M-.974-23.538h.085v.259a.114.114,0,0,1-.026.081.1.1,0,0,1-.075.028h-.042v-.055h.015a.042.042,0,0,0,.033-.011.069.069,0,0,0,.009-.042Zm0-.1h.085v.069H-.974Z" transform="translate(1.032 23.641)"/>
        </g>
        <g id="Group_554" data-name="Group 554" transform="translate(5.303 9.809)">
          <path id="Path_569" data-name="Path 569" d="M1.632-17.282v.024h-.2a.063.063,0,0,0,.022.044A.082.082,0,0,0,1.5-17.2a.209.209,0,0,0,.056-.008.3.3,0,0,0,.058-.024v.066a.357.357,0,0,1-.061.017.322.322,0,0,1-.061.006.164.164,0,0,1-.113-.036.13.13,0,0,1-.04-.1.133.133,0,0,1,.039-.1.154.154,0,0,1,.109-.037.138.138,0,0,1,.1.037.133.133,0,0,1,.038.1Zm-.088-.028a.054.054,0,0,0-.014-.039.049.049,0,0,0-.037-.015.059.059,0,0,0-.04.014.064.064,0,0,0-.02.04Z" transform="translate(-1.343 17.419)"/>
        </g>
        <g id="Group_555" data-name="Group 555" transform="translate(5.636 9.809)">
          <path id="Path_570" data-name="Path 570" d="M1.58-17.405v.069a.139.139,0,0,0-.035-.018.121.121,0,0,0-.036-.006.075.075,0,0,0-.056.021.079.079,0,0,0-.02.058.079.079,0,0,0,.02.057.075.075,0,0,0,.056.021.124.124,0,0,0,.038-.006.111.111,0,0,0,.033-.018v.069a.248.248,0,0,1-.041.011.24.24,0,0,1-.041,0,.166.166,0,0,1-.114-.036.129.129,0,0,1-.041-.1.13.13,0,0,1,.041-.1.166.166,0,0,1,.114-.036.237.237,0,0,1,.041,0,.258.258,0,0,1,.041.011Z" transform="translate(-1.342 17.419)"/>
        </g>
        <g id="Group_556" data-name="Group 556" transform="translate(5.913 9.739)">
          <path id="Path_571" data-name="Path 571" d="M.535-21.845v.075H.623v.06H.535v.112a.033.033,0,0,0,.007.025.049.049,0,0,0,.03.008H.616v.06H.542a.1.1,0,0,1-.072-.022A.1.1,0,0,1,.449-21.6v-.112H.406v-.06H.449v-.075Z" transform="translate(-0.406 21.846)"/>
        </g>
      </g>
    </g>
  </g>
</svg>
