<svg xmlns="http://www.w3.org/2000/svg" xmlns:xlink="http://www.w3.org/1999/xlink" width="36" height="30" viewBox="0 0 36 30">
  <defs>
    <clipPath id="clip-path">
      <rect id="Rectangle_32" data-name="Rectangle 32" width="27" height="24" transform="translate(0 -0.422)" fill="#fff" stroke="#707070" stroke-width="1"/>
    </clipPath>
    <clipPath id="clip-path-2">
      <rect id="Rectangle_33" data-name="Rectangle 33" width="10" height="26" transform="translate(0.176 0.315)" fill="#fff" stroke="#707070" stroke-width="1"/>
    </clipPath>
  </defs>
  <g id="Group_509" data-name="Group 509" transform="translate(-7567 -2234.797)">
    <g id="Mask_Group_11" data-name="Mask Group 11" transform="translate(7567 2241.219)" clip-path="url(#clip-path)">
      <g id="noun-paralysis-4372403" transform="translate(0 -0.195)">
        <path id="Path_403" data-name="Path 403" d="M335.119,86.556a2.363,2.363,0,1,0-.541-.434A2.363,2.363,0,0,0,335.119,86.556Z" transform="translate(-319.629 -82.153)"/>
        <path id="Path_404" data-name="Path 404" d="M161.108,180.727H158.03l.028-.089a.861.861,0,1,0-1.641-.521l-1.561,4.916q-.211-.016-.426-.017a19.4,19.4,0,0,0,.153-2.421c.012-1.6-.673-3.186-2.847-3.266-2.543-.093-3.16,3.3-3.361,5.051h0a.863.863,0,0,1-.163.409.7.7,0,0,1-.634.332,12,12,0,0,0-3.713.555,1.085,1.085,0,0,0-.349,1.036h-.725a.97.97,0,1,0,0,1.939h.261a35.315,35.315,0,0,0-2.36,3.775h0a.147.147,0,0,1-.095.082,2.8,2.8,0,0,0-.736.392.117.117,0,0,0-.027.03l-.781-.23h0a.6.6,0,0,0-.338,1.15l3.651,1.073c-.006.068-.01.136-.01.2a2.219,2.219,0,1,0,4.439.006l2.1-.564a6.353,6.353,0,1,0,7.649-9.177l1.064-3.35h3.5a.658.658,0,1,0,0-1.317Zm-16.533,15.048a.648.648,0,1,1,.457-.189A.648.648,0,0,1,144.575,195.775Zm1.9-1.795a2.222,2.222,0,0,0-2.62-.947c.477-.492.986-1.086,1.434-1.645h0a.969.969,0,0,0,.9.623h1.868a6.3,6.3,0,0,0,.327,1.457Zm13.556-2.616a5.648,5.648,0,1,1-1.657-3.986A5.648,5.648,0,0,1,160.03,191.365Z" transform="translate(-134.584 -174.054)"/>
        <path id="Path_405" data-name="Path 405" d="M356.738,327.244a4.24,4.24,0,1,0,1.244-3A4.24,4.24,0,0,0,356.738,327.244Zm4.244-.646a.648.648,0,1,1-.457.189.648.648,0,0,1,.457-.189Z" transform="translate(-341.181 -309.934)"/>
        <g id="Group_396" data-name="Group 396" transform="translate(0.008 26.606)">
          <path id="Path_406" data-name="Path 406" d="M.449-3.854a.154.154,0,0,1-.032.012.136.136,0,0,1-.034,0A.122.122,0,0,1,.3-3.867a.109.109,0,0,1-.031-.082A.108.108,0,0,1,.3-4.032a.12.12,0,0,1,.087-.031.136.136,0,0,1,.034,0,.167.167,0,0,1,.032.012V-4a.129.129,0,0,0-.031-.015.094.094,0,0,0-.031-.005A.061.061,0,0,0,.341-4a.075.075,0,0,0-.017.053A.076.076,0,0,0,.341-3.9a.062.062,0,0,0,.047.019.107.107,0,0,0,.031,0A.112.112,0,0,0,.45-3.9Z" transform="translate(-0.266 4.062)"/>
        </g>
        <g id="Group_397" data-name="Group 397" transform="translate(0.236 26.66)">
          <path id="Path_407" data-name="Path 407" d="M.574-3.014.561-3.019H.547a.038.038,0,0,0-.031.014.057.057,0,0,0-.01.036v.075H.453v-.164H.506v.026a.059.059,0,0,1,.022-.023.062.062,0,0,1,.031-.008H.573Z" transform="translate(-0.453 3.062)"/>
        </g>
        <g id="Group_398" data-name="Group 398" transform="translate(0.371 26.66)">
          <path id="Path_408" data-name="Path 408" d="M.408-2.979v.014H.287A.042.042,0,0,0,.3-2.937a.05.05,0,0,0,.031.009.134.134,0,0,0,.034,0A.17.17,0,0,0,.4-2.947v.042a.164.164,0,0,1-.036.011.218.218,0,0,1-.036,0,.1.1,0,0,1-.068-.022.082.082,0,0,1-.025-.064.082.082,0,0,1,.022-.065.093.093,0,0,1,.068-.021.083.083,0,0,1,.06.021.084.084,0,0,1,.023.062ZM.355-3a.03.03,0,0,0-.009-.023.029.029,0,0,0-.021-.01A.034.034,0,0,0,.3-3.02.039.039,0,0,0,.288-3Z" transform="translate(-0.234 3.064)"/>
        </g>
        <g id="Group_399" data-name="Group 399" transform="translate(0.572 26.662)">
          <path id="Path_409" data-name="Path 409" d="M.319-2.966a.043.043,0,0,0-.025.006.018.018,0,0,0-.008.016.02.02,0,0,0,.006.015.03.03,0,0,0,.019.005.034.034,0,0,0,.025-.01.034.034,0,0,0,.01-.026v-.006ZM.4-2.985v.092H.346v-.024A.064.064,0,0,1,.322-2.9a.068.068,0,0,1-.031.007A.059.059,0,0,1,.249-2.9.052.052,0,0,1,.234-2.94a.048.048,0,0,1,.019-.042A.111.111,0,0,1,.315-3H.346v0a.018.018,0,0,0-.01-.018.059.059,0,0,0-.03-.006.144.144,0,0,0-.031,0,.128.128,0,0,0-.026.009v-.039l.034-.006.034,0a.093.093,0,0,1,.062.016A.071.071,0,0,1,.4-2.985Z" transform="translate(-0.234 3.058)"/>
        </g>
        <g id="Group_400" data-name="Group 400" transform="translate(0.764 26.618)">
          <path id="Path_410" data-name="Path 410" d="M.154-3.844V-3.8H.209v.036H.154v.068a.02.02,0,0,0,0,.015.034.034,0,0,0,.019,0H.2v.037H.16a.061.061,0,0,1-.044-.011A.06.06,0,0,1,.1-3.693v-.068H.078V-3.8H.1v-.047Z" transform="translate(-0.078 3.844)"/>
        </g>
        <g id="Group_401" data-name="Group 401" transform="translate(0.914 26.66)">
          <path id="Path_411" data-name="Path 411" d="M.408-2.979v.014H.287A.042.042,0,0,0,.3-2.937a.05.05,0,0,0,.031.009.134.134,0,0,0,.034,0A.17.17,0,0,0,.4-2.947v.042a.164.164,0,0,1-.036.011.218.218,0,0,1-.036,0,.1.1,0,0,1-.068-.022.082.082,0,0,1-.025-.064.082.082,0,0,1,.022-.065.093.093,0,0,1,.068-.021.083.083,0,0,1,.06.021.084.084,0,0,1,.023.062ZM.355-3a.03.03,0,0,0-.009-.023.029.029,0,0,0-.021-.01A.034.034,0,0,0,.3-3.02.039.039,0,0,0,.288-3Z" transform="translate(-0.234 3.064)"/>
        </g>
        <g id="Group_402" data-name="Group 402" transform="translate(1.116 26.601)">
          <path id="Path_412" data-name="Path 412" d="M.372-4.069v-.087H.423v.226H.372v-.024a.073.073,0,0,1-.024.021.063.063,0,0,1-.03.007A.062.062,0,0,1,.267-3.95.1.1,0,0,1,.25-4.012a.1.1,0,0,1,.017-.061A.062.062,0,0,1,.317-4.1a.062.062,0,0,1,.029.007A.076.076,0,0,1,.372-4.069Zm-.034.105a.029.029,0,0,0,.026-.012.061.061,0,0,0,.009-.036.056.056,0,0,0-.009-.034.029.029,0,0,0-.026-.013.03.03,0,0,0-.026.013A.059.059,0,0,0,.3-4.012a.065.065,0,0,0,.009.036.03.03,0,0,0,.025.012Z" transform="translate(-0.249 4.156)"/>
        </g>
        <g id="Group_403" data-name="Group 403" transform="translate(1.443 26.601)">
          <path id="Path_413" data-name="Path 413" d="M.54-3.963a.029.029,0,0,0,.026-.012.061.061,0,0,0,.009-.036.056.056,0,0,0-.009-.034A.029.029,0,0,0,.54-4.058a.03.03,0,0,0-.026.013.059.059,0,0,0-.009.034.065.065,0,0,0,.009.036.03.03,0,0,0,.026.012ZM.506-4.068a.068.068,0,0,1,.023-.021A.068.068,0,0,1,.559-4.1a.062.062,0,0,1,.049.024.094.094,0,0,1,.019.061.094.094,0,0,1-.019.062.061.061,0,0,1-.049.024.068.068,0,0,1-.031-.007.065.065,0,0,1-.023-.021v.024H.453v-.226H.506Z" transform="translate(-0.453 4.155)"/>
        </g>
        <g id="Group_404" data-name="Group 404" transform="translate(1.635 26.664)">
          <path id="Path_414" data-name="Path 414" d="M.063-2.984H.114l.044.109L.2-2.984h.05l-.068.177a.091.091,0,0,1-.024.038.057.057,0,0,1-.036.011H.089v-.034H.105a.034.034,0,0,0,.019,0A.03.03,0,0,0,.134-2.81v-.005Z" transform="translate(-0.063 2.984)"/>
        </g>
        <g id="Group_405" data-name="Group 405" transform="translate(1.93 26.61)">
          <path id="Path_415" data-name="Path 415" d="M.031-3.984H.089l.058.16L.2-3.984H.259l-.081.216H.11Z" transform="translate(-0.031 3.984)"/>
        </g>
        <g id="Group_406" data-name="Group 406" transform="translate(2.183 26.6)">
          <path id="Path_416" data-name="Path 416" d="M.453-4.093H.506v.162H.453Zm0-.064H.506v.042H.453Z" transform="translate(-0.453 4.157)"/>
        </g>
        <g id="Group_407" data-name="Group 407" transform="translate(2.274 26.658)">
          <path id="Path_417" data-name="Path 417" d="M.381-3.056v.042a.088.088,0,0,0-.021-.01.081.081,0,0,0-.022,0A.044.044,0,0,0,.3-3.016a.048.048,0,0,0-.012.034A.049.049,0,0,0,.3-2.948a.044.044,0,0,0,.034.013.076.076,0,0,0,.025,0,.06.06,0,0,0,.02-.011V-2.9A.1.1,0,0,1,.359-2.9l-.026,0a.1.1,0,0,1-.068-.022A.082.082,0,0,1,.24-2.981a.079.079,0,0,1,.023-.063.1.1,0,0,1,.068-.023l.026,0a.1.1,0,0,1,.025.007Z" transform="translate(-0.24 3.067)"/>
        </g>
        <g id="Group_408" data-name="Group 408" transform="translate(2.44 26.618)">
          <path id="Path_418" data-name="Path 418" d="M.154-3.844V-3.8H.209v.036H.154v.068a.02.02,0,0,0,0,.015.034.034,0,0,0,.019,0H.2v.037H.16a.061.061,0,0,1-.044-.011A.06.06,0,0,1,.1-3.693v-.068H.078V-3.8H.1v-.047Z" transform="translate(-0.078 3.844)"/>
        </g>
        <g id="Group_409" data-name="Group 409" transform="translate(2.588 26.66)">
          <path id="Path_419" data-name="Path 419" d="M.322-3.026A.03.03,0,0,0,.3-3.013a.059.059,0,0,0-.009.034A.065.065,0,0,0,.3-2.943a.031.031,0,0,0,.026.013.031.031,0,0,0,.026-.012.061.061,0,0,0,.008-.036.056.056,0,0,0-.009-.034.031.031,0,0,0-.025-.013Zm0-.037a.088.088,0,0,1,.064.021.081.081,0,0,1,.024.062.085.085,0,0,1-.024.064.09.09,0,0,1-.064.023.091.091,0,0,1-.068-.022A.084.084,0,0,1,.23-2.978a.08.08,0,0,1,.024-.063.09.09,0,0,1,.068-.021Z" transform="translate(-0.229 3.064)"/>
        </g>
        <g id="Group_410" data-name="Group 410" transform="translate(2.806 26.66)">
          <path id="Path_420" data-name="Path 420" d="M.574-3.014.561-3.019H.547a.038.038,0,0,0-.031.014.057.057,0,0,0-.01.036v.075H.453v-.164H.506v.026a.059.059,0,0,1,.022-.023.062.062,0,0,1,.031-.008H.573Z" transform="translate(-0.453 3.062)"/>
        </g>
        <g id="Group_411" data-name="Group 411" transform="translate(2.95 26.663)">
          <path id="Path_421" data-name="Path 421" d="M.422-2.89v-.1H.474v.1a.023.023,0,0,0,0,.012.027.027,0,0,0,.009.009l.012,0a.03.03,0,0,0,.026-.013.058.058,0,0,0,.009-.034v-.08H.585v.162H.533V-2.85a.08.08,0,0,1-.026.021.062.062,0,0,1-.029.007.055.055,0,0,1-.043-.017A.078.078,0,0,1,.422-2.89Z" transform="translate(-0.421 2.989)"/>
        </g>
        <g id="Group_412" data-name="Group 412" transform="translate(3.164 26.601)">
          <path id="Path_422" data-name="Path 422" d="M.453-4.156H.506v.226H.453Z" transform="translate(-0.453 4.156)"/>
        </g>
        <g id="Group_413" data-name="Group 413" transform="translate(3.254 26.66)">
          <path id="Path_423" data-name="Path 423" d="M.408-2.979v.014H.287A.042.042,0,0,0,.3-2.937a.05.05,0,0,0,.031.009.134.134,0,0,0,.034,0A.17.17,0,0,0,.4-2.947v.042a.164.164,0,0,1-.036.011.218.218,0,0,1-.036,0,.1.1,0,0,1-.068-.022.082.082,0,0,1-.025-.064.082.082,0,0,1,.022-.065.093.093,0,0,1,.068-.021.083.083,0,0,1,.06.021.084.084,0,0,1,.023.062ZM.355-3a.03.03,0,0,0-.009-.023.029.029,0,0,0-.021-.01A.034.034,0,0,0,.3-3.02.039.039,0,0,0,.288-3Z" transform="translate(-0.234 3.064)"/>
        </g>
        <g id="Group_414" data-name="Group 414" transform="translate(3.467 26.66)">
          <path id="Path_424" data-name="Path 424" d="M.574-3.014.561-3.019H.547a.038.038,0,0,0-.031.014.057.057,0,0,0-.01.036v.075H.453v-.164H.506v.026a.059.059,0,0,1,.022-.023.062.062,0,0,1,.031-.008H.573Z" transform="translate(-0.453 3.062)"/>
        </g>
        <g id="Group_415" data-name="Group 415" transform="translate(0 26.898)">
          <path id="Path_425" data-name="Path 425" d="M.234-4.156v.034H.208a.025.025,0,0,0-.016,0A.018.018,0,0,0,.186-4.1v.012H.231v.036H.186v.125H.135v-.125H.109v-.038H.135V-4.1a.049.049,0,0,1,.014-.039A.072.072,0,0,1,.2-4.154Z" transform="translate(-0.109 4.156)"/>
        </g>
        <g id="Group_416" data-name="Group 416" transform="translate(0.148 26.957)">
          <path id="Path_426" data-name="Path 426" d="M.574-3.014.561-3.019H.547a.038.038,0,0,0-.031.014.057.057,0,0,0-.01.036v.075H.453v-.164H.506v.026a.059.059,0,0,1,.022-.023.062.062,0,0,1,.031-.008H.573Z" transform="translate(-0.453 3.062)"/>
        </g>
        <g id="Group_417" data-name="Group 417" transform="translate(0.281 26.957)">
          <path id="Path_427" data-name="Path 427" d="M.322-3.026A.03.03,0,0,0,.3-3.013a.059.059,0,0,0-.009.034A.065.065,0,0,0,.3-2.943a.031.031,0,0,0,.026.013.031.031,0,0,0,.026-.012.061.061,0,0,0,.008-.036.056.056,0,0,0-.009-.034.031.031,0,0,0-.025-.013Zm0-.037a.088.088,0,0,1,.064.021.081.081,0,0,1,.024.062.085.085,0,0,1-.024.064.09.09,0,0,1-.064.023.091.091,0,0,1-.068-.022A.084.084,0,0,1,.23-2.978a.08.08,0,0,1,.024-.063.09.09,0,0,1,.068-.021Z" transform="translate(-0.229 3.064)"/>
        </g>
        <g id="Group_418" data-name="Group 418" transform="translate(0.498 26.957)">
          <path id="Path_428" data-name="Path 428" d="M.605-3.032a.065.065,0,0,1,.023-.022.057.057,0,0,1,.031-.009A.051.051,0,0,1,.7-3.045.072.072,0,0,1,.716-3v.1H.662v-.085a.009.009,0,0,0,0,0v-.006a.048.048,0,0,0-.005-.026.018.018,0,0,0-.016-.008.027.027,0,0,0-.024.013.065.065,0,0,0-.008.034v.08H.557v-.085a.074.074,0,0,0-.005-.034.017.017,0,0,0-.015-.007.026.026,0,0,0-.023.013.065.065,0,0,0-.008.034v.08H.453v-.161H.506v.024a.063.063,0,0,1,.021-.021.059.059,0,0,1,.028-.007.054.054,0,0,1,.03.009A.051.051,0,0,1,.605-3.032Z" transform="translate(-0.453 3.063)"/>
        </g>
        <g id="Group_419" data-name="Group 419" transform="translate(0.89 26.914)">
          <path id="Path_429" data-name="Path 429" d="M.154-3.844V-3.8H.209v.036H.154v.068a.02.02,0,0,0,0,.015.034.034,0,0,0,.019,0H.2v.037H.16a.061.061,0,0,1-.044-.011A.06.06,0,0,1,.1-3.693v-.068H.078V-3.8H.1v-.047Z" transform="translate(-0.078 3.844)"/>
        </g>
        <g id="Group_420" data-name="Group 420" transform="translate(1.053 26.897)">
          <path id="Path_430" data-name="Path 430" d="M.617-4.032v.1H.564v-.1a.027.027,0,0,0,0-.012.017.017,0,0,0-.009-.008.021.021,0,0,0-.011,0,.03.03,0,0,0-.026.013.062.062,0,0,0-.009.034v.08H.453v-.226H.506v.088A.072.072,0,0,1,.53-4.092.064.064,0,0,1,.559-4.1.051.051,0,0,1,.6-4.081a.072.072,0,0,1,.015.049Z" transform="translate(-0.453 4.159)"/>
        </g>
        <g id="Group_421" data-name="Group 421" transform="translate(1.252 26.956)">
          <path id="Path_431" data-name="Path 431" d="M.408-2.979v.014H.287A.042.042,0,0,0,.3-2.937a.05.05,0,0,0,.031.009.134.134,0,0,0,.034,0A.17.17,0,0,0,.4-2.947v.042a.164.164,0,0,1-.036.011.218.218,0,0,1-.036,0,.1.1,0,0,1-.068-.022.082.082,0,0,1-.025-.064.082.082,0,0,1,.022-.065.093.093,0,0,1,.068-.021.083.083,0,0,1,.06.021.084.084,0,0,1,.023.062ZM.355-3a.03.03,0,0,0-.009-.023.029.029,0,0,0-.021-.01A.034.034,0,0,0,.3-3.02.039.039,0,0,0,.288-3Z" transform="translate(-0.234 3.064)"/>
        </g>
        <g id="Group_422" data-name="Group 422" transform="translate(1.571 26.907)">
          <path id="Path_432" data-name="Path 432" d="M.5-3.984H.563l.078.148v-.148H.694v.216H.632L.554-3.916v.148H.5Z" transform="translate(-0.5 3.984)"/>
        </g>
        <g id="Group_423" data-name="Group 423" transform="translate(1.804 26.957)">
          <path id="Path_433" data-name="Path 433" d="M.322-3.026A.03.03,0,0,0,.3-3.013a.059.059,0,0,0-.009.034A.065.065,0,0,0,.3-2.943a.031.031,0,0,0,.026.013.031.031,0,0,0,.026-.012.061.061,0,0,0,.008-.036.056.056,0,0,0-.009-.034.031.031,0,0,0-.025-.013Zm0-.037a.088.088,0,0,1,.064.021.081.081,0,0,1,.024.062.085.085,0,0,1-.024.064.09.09,0,0,1-.064.023.091.091,0,0,1-.068-.022A.084.084,0,0,1,.23-2.978a.08.08,0,0,1,.024-.063.09.09,0,0,1,.068-.021Z" transform="translate(-0.229 3.064)"/>
        </g>
        <g id="Group_424" data-name="Group 424" transform="translate(2.019 26.959)">
          <path id="Path_434" data-name="Path 434" d="M.422-2.89v-.1H.474v.1a.023.023,0,0,0,0,.012.027.027,0,0,0,.009.009l.012,0a.03.03,0,0,0,.026-.013.058.058,0,0,0,.009-.034v-.08H.585v.162H.533V-2.85a.08.08,0,0,1-.026.021.062.062,0,0,1-.029.007.055.055,0,0,1-.043-.017A.078.078,0,0,1,.422-2.89Z" transform="translate(-0.421 2.989)"/>
        </g>
        <g id="Group_425" data-name="Group 425" transform="translate(2.232 26.956)">
          <path id="Path_435" data-name="Path 435" d="M.617-3v.1H.564V-3a.027.027,0,0,0,0-.012.017.017,0,0,0-.009-.008.021.021,0,0,0-.011,0,.03.03,0,0,0-.026.013.062.062,0,0,0-.009.034v.08H.453v-.16H.506v.024A.072.072,0,0,1,.53-3.056a.064.064,0,0,1,.029-.007A.051.051,0,0,1,.6-3.045.072.072,0,0,1,.617-3Z" transform="translate(-0.453 3.063)"/>
        </g>
        <g id="Group_426" data-name="Group 426" transform="translate(2.549 26.907)">
          <path id="Path_436" data-name="Path 436" d="M.5-3.984H.592a.1.1,0,0,1,.064.019.063.063,0,0,1,.022.052.065.065,0,0,1-.022.053.1.1,0,0,1-.064.018H.556v.075H.5Zm.056.041v.06H.587a.036.036,0,0,0,.025-.008A.029.029,0,0,0,.62-3.914a.027.027,0,0,0-.009-.022.036.036,0,0,0-.025-.008Z" transform="translate(-0.5 3.985)"/>
        </g>
        <g id="Group_427" data-name="Group 427" transform="translate(2.764 26.957)">
          <path id="Path_437" data-name="Path 437" d="M.574-3.014.561-3.019H.547a.038.038,0,0,0-.031.014.057.057,0,0,0-.01.036v.075H.453v-.164H.506v.026a.059.059,0,0,1,.022-.023.062.062,0,0,1,.031-.008H.573Z" transform="translate(-0.453 3.062)"/>
        </g>
        <g id="Group_428" data-name="Group 428" transform="translate(2.897 26.957)">
          <path id="Path_438" data-name="Path 438" d="M.322-3.026A.03.03,0,0,0,.3-3.013a.059.059,0,0,0-.009.034A.065.065,0,0,0,.3-2.943a.031.031,0,0,0,.026.013.031.031,0,0,0,.026-.012.061.061,0,0,0,.008-.036.056.056,0,0,0-.009-.034.031.031,0,0,0-.025-.013Zm0-.037a.088.088,0,0,1,.064.021.081.081,0,0,1,.024.062.085.085,0,0,1-.024.064.09.09,0,0,1-.064.023.091.091,0,0,1-.068-.022A.084.084,0,0,1,.23-2.978a.08.08,0,0,1,.024-.063.09.09,0,0,1,.068-.021Z" transform="translate(-0.229 3.064)"/>
        </g>
        <g id="Group_429" data-name="Group 429" transform="translate(3.08 26.897)">
          <path id="Path_439" data-name="Path 439" d="M-.153-4.093H-.1v.16a.068.068,0,0,1-.016.049.056.056,0,0,1-.045.018H-.188V-3.9h.01a.024.024,0,0,0,.02-.008.039.039,0,0,0,0-.025Zm0-.064H-.1v.042H-.153Z" transform="translate(0.188 4.157)"/>
        </g>
        <g id="Group_430" data-name="Group 430" transform="translate(3.204 26.956)">
          <path id="Path_440" data-name="Path 440" d="M.408-2.979v.014H.287A.042.042,0,0,0,.3-2.937a.05.05,0,0,0,.031.009.134.134,0,0,0,.034,0A.17.17,0,0,0,.4-2.947v.042a.164.164,0,0,1-.036.011.218.218,0,0,1-.036,0,.1.1,0,0,1-.068-.022.082.082,0,0,1-.025-.064.082.082,0,0,1,.022-.065.093.093,0,0,1,.068-.021.083.083,0,0,1,.06.021.084.084,0,0,1,.023.062ZM.355-3a.03.03,0,0,0-.009-.023.029.029,0,0,0-.021-.01A.034.034,0,0,0,.3-3.02.039.039,0,0,0,.288-3Z" transform="translate(-0.234 3.064)"/>
        </g>
        <g id="Group_431" data-name="Group 431" transform="translate(3.408 26.955)">
          <path id="Path_441" data-name="Path 441" d="M.381-3.056v.042a.088.088,0,0,0-.021-.01.081.081,0,0,0-.022,0A.044.044,0,0,0,.3-3.016a.048.048,0,0,0-.012.034A.049.049,0,0,0,.3-2.948a.044.044,0,0,0,.034.013.076.076,0,0,0,.025,0,.06.06,0,0,0,.02-.011V-2.9A.1.1,0,0,1,.359-2.9l-.026,0a.1.1,0,0,1-.068-.022A.082.082,0,0,1,.24-2.981a.079.079,0,0,1,.023-.063.1.1,0,0,1,.068-.023l.026,0a.1.1,0,0,1,.025.007Z" transform="translate(-0.24 3.067)"/>
        </g>
        <g id="Group_432" data-name="Group 432" transform="translate(3.573 26.914)">
          <path id="Path_442" data-name="Path 442" d="M.154-3.844V-3.8H.209v.036H.154v.068a.02.02,0,0,0,0,.015.034.034,0,0,0,.019,0H.2v.037H.16a.061.061,0,0,1-.044-.011A.06.06,0,0,1,.1-3.693v-.068H.078V-3.8H.1v-.047Z" transform="translate(-0.078 3.844)"/>
        </g>
      </g>
    </g>
    <g id="Mask_Group_12" data-name="Mask Group 12" transform="translate(7592.824 2234.482)" clip-path="url(#clip-path-2)">
      <g id="noun-side-view-1926401" transform="translate(0.435 -0.373)">
        <path id="Path_443" data-name="Path 443" d="M313.239,412.411a16.257,16.257,0,0,0,.543,4.242,1.17,1.17,0,1,1-2.258.614,18.6,18.6,0,0,1-.625-4.858c0-.431.014-.844.037-1.237a10.63,10.63,0,0,0,2.324.328c-.014.292-.023.6-.023.909Z" transform="translate(-306.973 -391.955)"/>
        <path id="Path_444" data-name="Path 444" d="M245.642,119.53a2.409,2.409,0,0,1,2.026-1.2,2.439,2.439,0,0,1,.3-.02,2.585,2.585,0,0,1,2.182,1.446,11.12,11.12,0,0,1,1.25,3.512,37.883,37.883,0,0,1,.634,7.129c0,.313,0,.537-.006.651-.034.025-.087.059-.153.1a4.767,4.767,0,0,1-.674.338,7.08,7.08,0,0,1-2.7.5,12.7,12.7,0,0,1-5.982-1.723,13.048,13.048,0,0,0,1.438-2.755,6.642,6.642,0,0,0,2.208-1.484,8.641,8.641,0,0,0,1.7-2.51,11.389,11.389,0,0,0,.923-3.173v0l0-.015a1.076,1.076,0,0,0-.955-1.185,1.087,1.087,0,0,0-.117-.006,1.074,1.074,0,0,0-1.069.961l0,.015c0,.017-.005.043-.011.077-.01.068-.028.18-.056.326a9.724,9.724,0,0,1-.3,1.142,7.389,7.389,0,0,1-1.527,2.728c.021-.133.04-.266.058-.4.259-1.9.277-3.48.822-4.451Z" transform="translate(-241.994 -112.781)"/>
        <path id="Path_445" data-name="Path 445" d="M314.4,2.165A2.631,2.631,0,1,0,317.459.051,2.631,2.631,0,0,0,314.4,2.165" transform="translate(-312.929 -0.008)"/>
        <path id="Path_446" data-name="Path 446" d="M317.966,147.857a4.744,4.744,0,0,0,2.216-1.277,7.514,7.514,0,0,0,1.707-2.954,9.941,9.941,0,0,0,.307-1.173c.029-.146.047-.261.058-.337.006-.038.01-.066.012-.084l0-.02a.819.819,0,1,1,1.628.175h0a11.045,11.045,0,0,1-.9,3.112,8.408,8.408,0,0,1-1.65,2.436,6.39,6.39,0,0,1-2.97,1.708.819.819,0,0,1-.408-1.586Z" transform="translate(-317.352 -134.679)"/>
        <g id="Group_433" data-name="Group 433" transform="translate(9.652 27.496)">
          <path id="Path_447" data-name="Path 447" d="M.623-8.87a.3.3,0,0,0,.063.024.292.292,0,0,0,.068.008A.234.234,0,0,0,.923-8.9a.213.213,0,0,0,.062-.161A.212.212,0,0,0,.923-9.22a.233.233,0,0,0-.169-.06.292.292,0,0,0-.068.008.264.264,0,0,0-.063.024v.088a.234.234,0,0,1,.06-.032A.211.211,0,0,1,.745-9.2a.117.117,0,0,1,.092.038.149.149,0,0,1,.034.1.15.15,0,0,1-.034.1.117.117,0,0,1-.092.037.2.2,0,0,1-.063-.006.223.223,0,0,1-.061-.031Z" transform="translate(-0.622 9.28)"/>
        </g>
        <g id="Group_434" data-name="Group 434" transform="translate(9.329 27.601)">
          <path id="Path_448" data-name="Path 448" d="M1.046-6.921l.027-.009a.1.1,0,0,1,.025,0,.077.077,0,0,1,.061.026.11.11,0,0,1,.021.072v.148h.1v-.32h-.1v.053A.133.133,0,0,0,1.136-7a.122.122,0,0,0-.061-.015H1.063l-.017,0Z" transform="translate(-1.046 7.016)"/>
        </g>
        <g id="Group_435" data-name="Group 435" transform="translate(8.959 27.601)">
          <path id="Path_449" data-name="Path 449" d="M.531-6.849v.029H.77a.076.076,0,0,1-.026.054.1.1,0,0,1-.063.017.239.239,0,0,1-.066-.01.322.322,0,0,1-.07-.029v.079a.409.409,0,0,0,.073.02.371.371,0,0,0,.073.008.193.193,0,0,0,.136-.044.16.16,0,0,0,.048-.124.16.16,0,0,0-.047-.123A.181.181,0,0,0,.7-7.017a.163.163,0,0,0-.121.046.164.164,0,0,0-.045.121Zm.105-.034A.063.063,0,0,1,.653-6.93.058.058,0,0,1,.7-6.948a.071.071,0,0,1,.049.017.078.078,0,0,1,.023.048Z" transform="translate(-0.531 7.017)"/>
        </g>
        <g id="Group_436" data-name="Group 436" transform="translate(8.582 27.602)">
          <path id="Path_450" data-name="Path 450" d="M.686-6.831a.086.086,0,0,1,.048.011.036.036,0,0,1,.016.032.037.037,0,0,1-.012.03A.055.055,0,0,1,.7-6.747a.064.064,0,0,1-.048-.02.071.071,0,0,1-.02-.052v-.012ZM.53-6.87v.182h.1v-.047a.13.13,0,0,0,.046.042.136.136,0,0,0,.063.013.116.116,0,0,0,.081-.029.1.1,0,0,0,.031-.075.092.092,0,0,0-.039-.083.221.221,0,0,0-.122-.026H.634V-6.9a.038.038,0,0,1,.019-.034.12.12,0,0,1,.06-.012.273.273,0,0,1,.061.006.2.2,0,0,1,.052.02V-7A.64.64,0,0,0,.76-7.01a.5.5,0,0,0-.066,0,.187.187,0,0,0-.125.034.142.142,0,0,0-.039.111Z" transform="translate(-0.529 7.015)"/>
        </g>
        <g id="Group_437" data-name="Group 437" transform="translate(8.27 27.519)">
          <path id="Path_451" data-name="Path 451" d="M.278-8.781v.091H.172v.073H.278v.136a.04.04,0,0,1-.009.03.054.054,0,0,1-.034.008H.182v.073H.269A.121.121,0,0,0,.355-8.4.121.121,0,0,0,.38-8.481v-.136H.43V-8.69H.38v-.091Z" transform="translate(-0.172 8.781)"/>
        </g>
        <g id="Group_438" data-name="Group 438" transform="translate(7.889 27.601)">
          <path id="Path_452" data-name="Path 452" d="M.531-6.849v.029H.77a.076.076,0,0,1-.026.054.1.1,0,0,1-.063.017.239.239,0,0,1-.066-.01.322.322,0,0,1-.07-.029v.079a.409.409,0,0,0,.073.02.371.371,0,0,0,.073.008.193.193,0,0,0,.136-.044.16.16,0,0,0,.048-.124.16.16,0,0,0-.047-.123A.181.181,0,0,0,.7-7.017a.163.163,0,0,0-.121.046.164.164,0,0,0-.045.121Zm.105-.034A.063.063,0,0,1,.653-6.93.058.058,0,0,1,.7-6.948a.071.071,0,0,1,.049.017.078.078,0,0,1,.023.048Z" transform="translate(-0.531 7.017)"/>
        </g>
        <g id="Group_439" data-name="Group 439" transform="translate(7.492 27.486)">
          <path id="Path_453" data-name="Path 453" d="M.667-9.342v-.17h-.1v.443h.1v-.046a.141.141,0,0,0,.046.041.124.124,0,0,0,.058.013.119.119,0,0,0,.1-.047.185.185,0,0,0,.038-.121.185.185,0,0,0-.038-.12.119.119,0,0,0-.1-.047.122.122,0,0,0-.058.014.143.143,0,0,0-.047.041Zm.068.207a.057.057,0,0,1-.05-.024.118.118,0,0,1-.018-.07A.117.117,0,0,1,.685-9.3a.057.057,0,0,1,.05-.024.059.059,0,0,1,.05.024A.12.12,0,0,1,.8-9.228a.121.121,0,0,1-.017.07.059.059,0,0,1-.05.025Z" transform="translate(-0.565 9.512)"/>
        </g>
        <g id="Group_440" data-name="Group 440" transform="translate(6.847 27.487)">
          <path id="Path_454" data-name="Path 454" d="M1.221-9.13a.059.059,0,0,1-.05-.024.118.118,0,0,1-.017-.07.117.117,0,0,1,.017-.068.059.059,0,0,1,.05-.024.059.059,0,0,1,.05.024.117.117,0,0,1,.017.068.118.118,0,0,1-.017.07.059.059,0,0,1-.05.024Zm.068-.207a.139.139,0,0,0-.047-.041.126.126,0,0,0-.059-.014.119.119,0,0,0-.1.047.186.186,0,0,0-.038.12.187.187,0,0,0,.038.121.12.12,0,0,0,.1.047.131.131,0,0,0,.059-.013.136.136,0,0,0,.047-.041v.046h.1v-.443h-.1Z" transform="translate(-1.048 9.508)"/>
        </g>
        <g id="Group_441" data-name="Group 441" transform="translate(6.449 27.609)">
          <path id="Path_455" data-name="Path 455" d="M.52-6.844h-.1l-.086.217L.258-6.844h-.1l.136.35a.17.17,0,0,0,.046.074A.114.114,0,0,0,.41-6.4H.469v-.068H.437A.064.064,0,0,1,.4-6.476.055.055,0,0,1,.38-6.505l0-.006Z" transform="translate(-0.156 6.844)"/>
        </g>
        <g id="Group_442" data-name="Group 442" transform="translate(5.799 27.496)">
          <path id="Path_456" data-name="Path 456" d="M.625-8.878a.406.406,0,0,0,.086.03.439.439,0,0,0,.091.01A.234.234,0,0,0,.971-8.9a.213.213,0,0,0,.062-.161.21.21,0,0,0-.063-.162A.245.245,0,0,0,.8-9.28a.4.4,0,0,0-.081.008.314.314,0,0,0-.074.024v.088a.31.31,0,0,1,.072-.03.252.252,0,0,1,.07-.01.136.136,0,0,1,.1.036.146.146,0,0,1,.034.105.15.15,0,0,1-.034.1.127.127,0,0,1-.1.036l-.031,0a.13.13,0,0,1-.027-.006v-.083H.8v-.074H.626Z" transform="translate(-0.625 9.28)"/>
        </g>
        <g id="Group_443" data-name="Group 443" transform="translate(5.406 27.602)">
          <path id="Path_457" data-name="Path 457" d="M.686-6.831a.086.086,0,0,1,.048.011.036.036,0,0,1,.016.032.037.037,0,0,1-.012.03A.055.055,0,0,1,.7-6.747a.064.064,0,0,1-.048-.02.071.071,0,0,1-.02-.052v-.012ZM.53-6.87v.182h.1v-.047a.13.13,0,0,0,.046.042.136.136,0,0,0,.063.013.116.116,0,0,0,.081-.029.1.1,0,0,0,.031-.075.092.092,0,0,0-.039-.083.221.221,0,0,0-.122-.026H.634V-6.9a.038.038,0,0,1,.019-.034.12.12,0,0,1,.06-.012.273.273,0,0,1,.061.006.2.2,0,0,1,.052.02V-7A.64.64,0,0,0,.76-7.01a.5.5,0,0,0-.066,0,.187.187,0,0,0-.125.034.142.142,0,0,0-.039.111Z" transform="translate(-0.529 7.015)"/>
        </g>
        <g id="Group_444" data-name="Group 444" transform="translate(4.989 27.601)">
          <path id="Path_458" data-name="Path 458" d="M1.045-6.883v.2h.1v-.149a.481.481,0,0,1,0-.057.061.061,0,0,1,.006-.024.044.044,0,0,1,.017-.015A.047.047,0,0,1,1.2-6.938a.059.059,0,0,1,.05.025.112.112,0,0,1,.018.068v.158h.1v-.32h-.1v.047A.161.161,0,0,0,1.215-7a.123.123,0,0,0-.058-.014.1.1,0,0,0-.084.034.147.147,0,0,0-.029.1Z" transform="translate(-1.044 7.016)"/>
        </g>
        <g id="Group_445" data-name="Group 445" transform="translate(4.269 27.503)">
          <path id="Path_459" data-name="Path 459" d="M1.572-9.125H1.462v.155L1.3-9.125H1.176l.2.2L1.154-8.7H1.29l.17-.168V-8.7H1.57Z" transform="translate(-1.154 9.125)"/>
        </g>
        <g id="Group_446" data-name="Group 446" transform="translate(3.916 27.487)">
          <path id="Path_460" data-name="Path 460" d="M1.045-9.262v.2h.1v-.148a.492.492,0,0,1,0-.058A.061.061,0,0,1,1.155-9.3a.044.044,0,0,1,.017-.015A.047.047,0,0,1,1.2-9.318a.059.059,0,0,1,.05.025.112.112,0,0,1,.018.068v.158h.1V-9.51h-.1v.17a.161.161,0,0,0-.049-.041.123.123,0,0,0-.058-.014.1.1,0,0,0-.084.034.147.147,0,0,0-.029.1Z" transform="translate(-1.044 9.51)"/>
        </g>
        <g id="Group_447" data-name="Group 447" transform="translate(3.494 27.601)">
          <path id="Path_461" data-name="Path 461" d="M.706-6.943a.062.062,0,0,1,.053.024.118.118,0,0,1,.017.07.121.121,0,0,1-.017.071.062.062,0,0,1-.053.024.059.059,0,0,1-.049-.024.119.119,0,0,1-.018-.071.116.116,0,0,1,.018-.07.059.059,0,0,1,.049-.024Zm0-.074a.178.178,0,0,0-.129.045.163.163,0,0,0-.047.123.163.163,0,0,0,.047.123.177.177,0,0,0,.129.045.18.18,0,0,0,.13-.045.162.162,0,0,0,.047-.123.162.162,0,0,0-.047-.123A.181.181,0,0,0,.706-7.017Z" transform="translate(-0.53 7.017)"/>
        </g>
        <g id="Group_448" data-name="Group 448" transform="translate(3.092 27.601)">
          <path id="Path_462" data-name="Path 462" d="M.706-6.943a.062.062,0,0,1,.053.024.118.118,0,0,1,.017.07.121.121,0,0,1-.017.071.062.062,0,0,1-.053.024.059.059,0,0,1-.049-.024.119.119,0,0,1-.018-.071.116.116,0,0,1,.018-.07.059.059,0,0,1,.049-.024Zm0-.074a.178.178,0,0,0-.129.045.163.163,0,0,0-.047.123.163.163,0,0,0,.047.123.177.177,0,0,0,.129.045.18.18,0,0,0,.13-.045.162.162,0,0,0,.047-.123.162.162,0,0,0-.047-.123A.181.181,0,0,0,.706-7.017Z" transform="translate(-0.53 7.017)"/>
        </g>
        <g id="Group_449" data-name="Group 449" transform="translate(2.696 27.601)">
          <path id="Path_463" data-name="Path 463" d="M1.045-6.883v.2h.1v-.149a.481.481,0,0,1,0-.057.061.061,0,0,1,.006-.024.044.044,0,0,1,.017-.015A.047.047,0,0,1,1.2-6.938a.059.059,0,0,1,.05.025.112.112,0,0,1,.018.068v.158h.1v-.32h-.1v.047A.161.161,0,0,0,1.215-7a.123.123,0,0,0-.058-.014.1.1,0,0,0-.084.034.147.147,0,0,0-.029.1Z" transform="translate(-1.044 7.016)"/>
        </g>
        <g id="Group_450" data-name="Group 450" transform="translate(2.091 27.503)">
          <path id="Path_464" data-name="Path 464" d="M1.459-9.125H1.35v.343H1.156V-8.7h.3Z" transform="translate(-1.156 9.125)"/>
        </g>
        <g id="Group_451" data-name="Group 451" transform="translate(1.726 27.602)">
          <path id="Path_465" data-name="Path 465" d="M.686-6.831a.086.086,0,0,1,.048.011.036.036,0,0,1,.016.032.037.037,0,0,1-.012.03A.055.055,0,0,1,.7-6.747a.064.064,0,0,1-.048-.02.071.071,0,0,1-.02-.052v-.012ZM.53-6.87v.182h.1v-.047a.13.13,0,0,0,.046.042.136.136,0,0,0,.063.013.116.116,0,0,0,.081-.029.1.1,0,0,0,.031-.075.092.092,0,0,0-.039-.083.221.221,0,0,0-.122-.026H.634V-6.9a.038.038,0,0,1,.019-.034.12.12,0,0,1,.06-.012.273.273,0,0,1,.061.006.2.2,0,0,1,.052.02V-7A.64.64,0,0,0,.76-7.01a.5.5,0,0,0-.066,0,.187.187,0,0,0-.125.034.142.142,0,0,0-.039.111Z" transform="translate(-0.529 7.015)"/>
        </g>
        <g id="Group_452" data-name="Group 452" transform="translate(1.31 27.609)">
          <path id="Path_466" data-name="Path 466" d="M.52-6.844h-.1l-.086.217L.258-6.844h-.1l.136.35a.17.17,0,0,0,.046.074A.114.114,0,0,0,.41-6.4H.469v-.068H.437A.064.064,0,0,1,.4-6.476.055.055,0,0,1,.38-6.505l0-.006Z" transform="translate(-0.156 6.844)"/>
        </g>
        <g id="Group_453" data-name="Group 453" transform="translate(9.786 28.069)">
          <path id="Path_467" data-name="Path 467" d="M.234-9.516v.068H.291a.046.046,0,0,1,.031.008.037.037,0,0,1,.008.027v.023H.242v.073H.33v.247h.1v-.247H.483V-9.39H.432v-.023A.1.1,0,0,0,.4-9.489a.134.134,0,0,0-.09-.026Z" transform="translate(-0.234 9.516)"/>
        </g>
        <g id="Group_454" data-name="Group 454" transform="translate(9.504 28.186)">
          <path id="Path_468" data-name="Path 468" d="M1.046-6.921l.027-.009a.1.1,0,0,1,.025,0,.077.077,0,0,1,.061.026.11.11,0,0,1,.021.072v.148h.1v-.32h-.1v.053A.133.133,0,0,0,1.136-7a.122.122,0,0,0-.061-.015H1.063l-.017,0Z" transform="translate(-1.046 7.016)"/>
        </g>
        <g id="Group_455" data-name="Group 455" transform="translate(9.126 28.186)">
          <path id="Path_469" data-name="Path 469" d="M.706-6.943a.062.062,0,0,1,.053.024.118.118,0,0,1,.017.07.121.121,0,0,1-.017.071.062.062,0,0,1-.053.024.059.059,0,0,1-.049-.024.119.119,0,0,1-.018-.071.116.116,0,0,1,.018-.07.059.059,0,0,1,.049-.024Zm0-.074a.178.178,0,0,0-.129.045.163.163,0,0,0-.047.123.163.163,0,0,0,.047.123.177.177,0,0,0,.129.045.18.18,0,0,0,.13-.045.162.162,0,0,0,.047-.123.162.162,0,0,0-.047-.123A.181.181,0,0,0,.706-7.017Z" transform="translate(-0.53 7.017)"/>
        </g>
        <g id="Group_456" data-name="Group 456" transform="translate(8.538 28.186)">
          <path id="Path_470" data-name="Path 470" d="M1.249-6.956A.141.141,0,0,0,1.2-7a.114.114,0,0,0-.059-.016.1.1,0,0,0-.083.034.147.147,0,0,0-.029.1v.2h.1v-.166a.047.047,0,0,1,0-.007v-.012a.091.091,0,0,1,.01-.049.034.034,0,0,1,.032-.015.051.051,0,0,1,.045.024.133.133,0,0,1,.016.068v.157h.1v-.166a.158.158,0,0,1,.01-.068.034.034,0,0,1,.032-.015.051.051,0,0,1,.045.024.123.123,0,0,1,.016.068v.158h.1v-.32h-.1v.047A.136.136,0,0,0,1.4-7a.11.11,0,0,0-.054-.014A.107.107,0,0,0,1.287-7a.1.1,0,0,0-.039.045Z" transform="translate(-1.031 7.018)"/>
        </g>
        <g id="Group_457" data-name="Group 457" transform="translate(8.022 28.104)">
          <path id="Path_471" data-name="Path 471" d="M.278-8.781v.091H.172v.073H.278v.136a.04.04,0,0,1-.009.03.054.054,0,0,1-.034.008H.182v.073H.269A.121.121,0,0,0,.355-8.4.121.121,0,0,0,.38-8.481v-.136H.43V-8.69H.38v-.091Z" transform="translate(-0.172 8.781)"/>
        </g>
        <g id="Group_458" data-name="Group 458" transform="translate(7.637 28.071)">
          <path id="Path_472" data-name="Path 472" d="M1.045-9.262v.2h.1v-.148a.492.492,0,0,1,0-.058A.061.061,0,0,1,1.155-9.3a.044.044,0,0,1,.017-.015A.047.047,0,0,1,1.2-9.318a.059.059,0,0,1,.05.025.112.112,0,0,1,.018.068v.158h.1V-9.51h-.1v.17a.161.161,0,0,0-.049-.041.123.123,0,0,0-.058-.014.1.1,0,0,0-.084.034.147.147,0,0,0-.029.1Z" transform="translate(-1.044 9.51)"/>
        </g>
        <g id="Group_459" data-name="Group 459" transform="translate(7.224 28.186)">
          <path id="Path_473" data-name="Path 473" d="M.531-6.849v.029H.77a.076.076,0,0,1-.026.054.1.1,0,0,1-.063.017.239.239,0,0,1-.066-.01.322.322,0,0,1-.07-.029v.079a.409.409,0,0,0,.073.02.371.371,0,0,0,.073.008.193.193,0,0,0,.136-.044.16.16,0,0,0,.048-.124.16.16,0,0,0-.047-.123A.181.181,0,0,0,.7-7.017a.163.163,0,0,0-.121.046.164.164,0,0,0-.045.121Zm.105-.034A.063.063,0,0,1,.653-6.93.058.058,0,0,1,.7-6.948a.071.071,0,0,1,.049.017.078.078,0,0,1,.023.048Z" transform="translate(-0.531 7.017)"/>
        </g>
        <g id="Group_460" data-name="Group 460" transform="translate(6.556 28.088)">
          <path id="Path_474" data-name="Path 474" d="M1.538-9.125H1.415l-.155.293v-.293h-.1V-8.7h.123l.155-.293V-8.7h.1Z" transform="translate(-1.156 9.125)"/>
        </g>
        <g id="Group_461" data-name="Group 461" transform="translate(6.126 28.186)">
          <path id="Path_475" data-name="Path 475" d="M.706-6.943a.062.062,0,0,1,.053.024.118.118,0,0,1,.017.07.121.121,0,0,1-.017.071.062.062,0,0,1-.053.024.059.059,0,0,1-.049-.024.119.119,0,0,1-.018-.071.116.116,0,0,1,.018-.07.059.059,0,0,1,.049-.024Zm0-.074a.178.178,0,0,0-.129.045.163.163,0,0,0-.047.123.163.163,0,0,0,.047.123.177.177,0,0,0,.129.045.18.18,0,0,0,.13-.045.162.162,0,0,0,.047-.123.162.162,0,0,0-.047-.123A.181.181,0,0,0,.706-7.017Z" transform="translate(-0.53 7.017)"/>
        </g>
        <g id="Group_462" data-name="Group 462" transform="translate(5.735 28.194)">
          <path id="Path_476" data-name="Path 476" d="M1.308-6.649v-.2h-.1v.207a.061.061,0,0,1-.007.025.042.042,0,0,1-.016.015.05.05,0,0,1-.024.005.06.06,0,0,1-.05-.024.115.115,0,0,1-.018-.068v-.158h-.1v.32h.1v-.046a.159.159,0,0,0,.05.041.121.121,0,0,0,.056.013.106.106,0,0,0,.085-.034.152.152,0,0,0,.029-.1Z" transform="translate(-0.988 6.844)"/>
        </g>
        <g id="Group_463" data-name="Group 463" transform="translate(5.313 28.186)">
          <path id="Path_477" data-name="Path 477" d="M1.045-6.883v.2h.1v-.149a.481.481,0,0,1,0-.057.061.061,0,0,1,.006-.024.044.044,0,0,1,.017-.015A.047.047,0,0,1,1.2-6.938a.059.059,0,0,1,.05.025.112.112,0,0,1,.018.068v.158h.1v-.32h-.1v.047A.161.161,0,0,0,1.215-7a.123.123,0,0,0-.058-.014.1.1,0,0,0-.084.034.147.147,0,0,0-.029.1Z" transform="translate(-1.044 7.016)"/>
        </g>
        <g id="Group_464" data-name="Group 464" transform="translate(4.66 28.087)">
          <path id="Path_478" data-name="Path 478" d="M1.506-9.126H1.324a.189.189,0,0,0-.125.036.125.125,0,0,0-.044.1.127.127,0,0,0,.044.1.191.191,0,0,0,.125.034H1.4V-8.7h.109ZM1.4-9.046v.119H1.336a.073.073,0,0,1-.05-.015.055.055,0,0,1-.017-.044.056.056,0,0,1,.017-.045.073.073,0,0,1,.05-.015Z" transform="translate(-1.155 9.126)"/>
        </g>
        <g id="Group_465" data-name="Group 465" transform="translate(4.349 28.186)">
          <path id="Path_479" data-name="Path 479" d="M1.046-6.921l.027-.009a.1.1,0,0,1,.025,0,.077.077,0,0,1,.061.026.11.11,0,0,1,.021.072v.148h.1v-.32h-.1v.053A.133.133,0,0,0,1.136-7a.122.122,0,0,0-.061-.015H1.063l-.017,0Z" transform="translate(-1.046 7.016)"/>
        </g>
        <g id="Group_466" data-name="Group 466" transform="translate(3.971 28.186)">
          <path id="Path_480" data-name="Path 480" d="M.706-6.943a.062.062,0,0,1,.053.024.118.118,0,0,1,.017.07.121.121,0,0,1-.017.071.062.062,0,0,1-.053.024.059.059,0,0,1-.049-.024.119.119,0,0,1-.018-.071.116.116,0,0,1,.018-.07.059.059,0,0,1,.049-.024Zm0-.074a.178.178,0,0,0-.129.045.163.163,0,0,0-.047.123.163.163,0,0,0,.047.123.177.177,0,0,0,.129.045.18.18,0,0,0,.13-.045.162.162,0,0,0,.047-.123.162.162,0,0,0-.047-.123A.181.181,0,0,0,.706-7.017Z" transform="translate(-0.53 7.017)"/>
        </g>
        <g id="Group_467" data-name="Group 467" transform="translate(3.795 28.07)">
          <path id="Path_481" data-name="Path 481" d="M-.32-9.39h-.1v.314a.141.141,0,0,0,.031.1A.114.114,0,0,0-.3-8.944h.051v-.068H-.27a.048.048,0,0,1-.04-.012A.086.086,0,0,1-.32-9.076Zm0-.125h-.1v.084h.1Z" transform="translate(0.423 9.515)"/>
        </g>
        <g id="Group_468" data-name="Group 468" transform="translate(3.377 28.186)">
          <path id="Path_482" data-name="Path 482" d="M.531-6.849v.029H.77a.076.076,0,0,1-.026.054.1.1,0,0,1-.063.017.239.239,0,0,1-.066-.01.322.322,0,0,1-.07-.029v.079a.409.409,0,0,0,.073.02.371.371,0,0,0,.073.008.193.193,0,0,0,.136-.044.16.16,0,0,0,.048-.124.16.16,0,0,0-.047-.123A.181.181,0,0,0,.7-7.017a.163.163,0,0,0-.121.046.164.164,0,0,0-.045.121Zm.105-.034A.063.063,0,0,1,.653-6.93.058.058,0,0,1,.7-6.948a.071.071,0,0,1,.049.017.078.078,0,0,1,.023.048Z" transform="translate(-0.531 7.017)"/>
        </g>
        <g id="Group_469" data-name="Group 469" transform="translate(3.042 28.185)">
          <path id="Path_483" data-name="Path 483" d="M.531-7v.083a.15.15,0,0,1,.042-.021.148.148,0,0,1,.044-.007.089.089,0,0,1,.066.025.1.1,0,0,1,.024.068.1.1,0,0,1-.024.07.088.088,0,0,1-.066.025.152.152,0,0,1-.045-.006.125.125,0,0,1-.04-.022V-6.7a.294.294,0,0,0,.049.013.273.273,0,0,0,.049,0,.2.2,0,0,0,.136-.044.159.159,0,0,0,.049-.124.158.158,0,0,0-.049-.123A.2.2,0,0,0,.629-7.02a.244.244,0,0,0-.049.006A.294.294,0,0,0,.531-7Z" transform="translate(-0.531 7.02)"/>
        </g>
        <g id="Group_470" data-name="Group 470" transform="translate(2.736 28.104)">
          <path id="Path_484" data-name="Path 484" d="M.278-8.781v.091H.172v.073H.278v.136a.04.04,0,0,1-.009.03.054.054,0,0,1-.034.008H.182v.073H.269A.121.121,0,0,0,.355-8.4.121.121,0,0,0,.38-8.481v-.136H.43V-8.69H.38v-.091Z" transform="translate(-0.172 8.781)"/>
        </g>
      </g>
    </g>
  </g>
</svg>
