<svg xmlns="http://www.w3.org/2000/svg" width="30.438" height="27.161" viewBox="0 0 30.438 27.161">
  <g id="i-physical-therapy-svgrepo-com" transform="translate(-0.575 -7.463)">
    <path id="Path_356" data-name="Path 356" d="M27.765,13.112a2.824,2.824,0,1,0-2.831-2.825A2.824,2.824,0,0,0,27.765,13.112Z" transform="translate(-12.659 0)"/>
    <path id="Path_357" data-name="Path 357" d="M23.749,57.162H1.187c-.637,0-.572.5-.572.5v.831a1,1,0,0,0,1.052,1.082H29.919a.987.987,0,0,0,1.058-1.057v-2.3a.889.889,0,0,0-.951-.728H27.271c-.944,0-1.724,1.675-3.522,1.675Z" transform="translate(-0.019 -24.954)"/>
    <path id="Path_358" data-name="Path 358" d="M53.348,45.605a2.545,2.545,0,1,0,.747-1.8,2.545,2.545,0,0,0-.747,1.8Z" transform="translate(-27.424 -18.499)"/>
    <path id="Path_359" data-name="Path 359" d="M32.362,34.943a1.811,1.811,0,0,1-1.09,1.134L29,36.92l.838.831h3.833l0-5.867-1.283,3.025a.317.317,0,0,1-.026.036Z" transform="translate(-14.772 -12.691)"/>
    <path id="Path_360" data-name="Path 360" d="M23.094,42.319H15.169l-1.911-1.865-1.33.49A2.069,2.069,0,0,1,9.37,39.778a1.923,1.923,0,0,1,.176-1.783c-.163-.007-4.807,0-4.807,0a1.4,1.4,0,0,0-1.4,1.391,1.381,1.381,0,0,0,1.4,1.375H9.467L11.342,43.6l-9.679.778a1.4,1.4,0,0,0,.313,2.76h10.86a1.985,1.985,0,0,1-.3-1.046,2.006,2.006,0,0,1,2-2h4.344l3.521-.734.2.935-3.618.756H14.537a1.047,1.047,0,1,0-.021,2.095h8.6a2.41,2.41,0,1,0-.019-4.82Z" transform="translate(0 -15.865)"/>
    <path id="Path_361" data-name="Path 361" d="M16.341,31.118a1.108,1.108,0,1,1-.889-2.029l4.035-1.515L20.734,24.6l-.811-.3L18.86,26.846l-3.072,1.131V24.864l-3,3.279-3.4,0s5.946-6.518,6.132-6.713a2.553,2.553,0,0,1,1.872-.65h3.818a2.345,2.345,0,0,1,2.143,3.282l-2,4.843a1.126,1.126,0,0,1-.643.606l-4.374,1.61Z" transform="translate(-4.581 -6.915)"/>
  </g>
</svg>
