<svg xmlns="http://www.w3.org/2000/svg" xmlns:xlink="http://www.w3.org/1999/xlink" width="31" height="32" viewBox="0 0 31 32">
  <defs>
    <clipPath id="clip-path">
      <rect id="Rectangle_20" data-name="Rectangle 20" width="31" height="32" transform="translate(5635 -1470.63)" fill="#fff" stroke="#707070" stroke-width="1"/>
    </clipPath>
  </defs>
  <g id="Mask_Group_9" data-name="Mask Group 9" transform="translate(-5635 1470.63)" clip-path="url(#clip-path)">
    <g id="noun-nurse-2195048" transform="translate(5635.006 -1470.581)">
      <path id="Path_306" data-name="Path 306" d="M332.179,155.347c.293,0,2.868-.032,4.269-1.532a5.262,5.262,0,0,0,.619-.945,31.04,31.04,0,0,1-.587,3.748c-.033.163-.1.326-.13.489l6.779.978a16,16,0,0,1-.847-5.084.551.551,0,0,1,.065.163c.261.619.945,2.379,1.3,3.389a1.376,1.376,0,0,0,1.237,1.01.72.72,0,0,0,.261-.032,1.276,1.276,0,0,0,1.01-1.467c-.065-.293-1.01-2.771-1.629-4.269-.587-1.467-1.237-3.389-3.325-3.389h-3.031c-1.76,0-2.607,1.76-3.161,2.933-.13.261-.326.684-.391.782a4.038,4.038,0,0,1-2.412.749,1.273,1.273,0,0,0-1.271,1.271,1.191,1.191,0,0,0,1.237,1.206Z" transform="translate(-315.784 -140.599)"/>
      <path id="Path_307" data-name="Path 307" d="M437.795,71.271a2.657,2.657,0,0,0,2.64-2.673,2.317,2.317,0,0,0-.228-1.044h-.13l-.456-.13A6.832,6.832,0,0,0,437.8,67.2a8.468,8.468,0,0,0-1.825.228l-.489.1-.1.032h-.033a2.856,2.856,0,0,0-.228,1.044,2.684,2.684,0,0,0,2.672,2.672Z" transform="translate(-413.904 -64.117)"/>
      <path id="Path_308" data-name="Path 308" d="M436.826,17.192l.489-.13a7.942,7.942,0,0,1,3.911,0l.489.13c.065.032.13-.032.13-.1V14.845a.246.246,0,0,0-.163-.228l-.456-.1a7.942,7.942,0,0,0-3.911,0l-.456.1a.245.245,0,0,0-.163.228v2.249c-.033.065.065.13.13.1Zm1.793-1.856a.07.07,0,0,1,.065-.065h.326v-.329a.07.07,0,0,1,.065-.065h.358a.07.07,0,0,1,.065.065V15.3h.326a.07.07,0,0,1,.065.065v.358a.07.07,0,0,1-.065.065H439.5v.358a.07.07,0,0,1-.065.065h-.358a.07.07,0,0,1-.065-.065v-.358h-.326a.07.07,0,0,1-.065-.065Z" transform="translate(-415.379 -14.275)"/>
      <path id="Path_309" data-name="Path 309" d="M250.156,283.585l2.51,1.5a3.3,3.3,0,0,0,1.727.489h13.263a1.048,1.048,0,0,0,.13-2.086l-10.558-1.466a5.075,5.075,0,0,1-1.206-.326l-4.2-1.629a1.942,1.942,0,0,0-1.923.293,1.972,1.972,0,0,0,.26,3.227Z" transform="translate(-238.78 -264.47)"/>
      <path id="Path_310" data-name="Path 310" d="M169.661,223.149a2.51,2.51,0,1,1-2.51-2.51,2.51,2.51,0,0,1,2.51,2.51" transform="translate(-159.165 -208.629)"/>
      <path id="Path_311" data-name="Path 311" d="M127.932,259.45H113.4a4.727,4.727,0,0,1-2.314-.619l-8.735-5.052v-1.564a1.336,1.336,0,0,0-2.673,0v14.5a1.336,1.336,0,1,0,2.673,0v-3.226H126.14v3.226a1.336,1.336,0,0,0,2.673,0v-6.357A.9.9,0,0,0,127.932,259.45Z" transform="translate(-97.979 -237.109)"/>
      <g id="Group_276" data-name="Group 276" transform="translate(0.049 35.439)">
        <path id="Path_312" data-name="Path 312" d="M2.4-19.639a.773.773,0,0,1-.176.065.793.793,0,0,1-.191.023.652.652,0,0,1-.47-.165.594.594,0,0,1-.174-.45.592.592,0,0,1,.174-.45.651.651,0,0,1,.47-.166.793.793,0,0,1,.191.023.773.773,0,0,1,.176.065v.246a.7.7,0,0,0-.168-.085.555.555,0,0,0-.175-.027.326.326,0,0,0-.258.106.418.418,0,0,0-.094.289.42.42,0,0,0,.094.289.328.328,0,0,0,.258.1.568.568,0,0,0,.175-.026.679.679,0,0,0,.168-.085Z" transform="translate(-1.389 20.783)"/>
      </g>
      <g id="Group_277" data-name="Group 277" transform="translate(1.302 35.739)">
        <path id="Path_313" data-name="Path 313" d="M3.021-15.418a.394.394,0,0,0-.077-.026.309.309,0,0,0-.073-.009.208.208,0,0,0-.169.071.3.3,0,0,0-.059.2v.411H2.359v-.889h.287v.147a.362.362,0,0,1,.126-.127.339.339,0,0,1,.171-.041h.031l.049,0Z" transform="translate(-2.359 15.681)"/>
      </g>
      <g id="Group_278" data-name="Group 278" transform="translate(2.038 35.736)">
        <path id="Path_314" data-name="Path 314" d="M2.158-15.224v.082H1.492a.212.212,0,0,0,.073.15.271.271,0,0,0,.174.05.67.67,0,0,0,.184-.026.972.972,0,0,0,.193-.081v.219a1.2,1.2,0,0,1-.2.057,1.048,1.048,0,0,1-.2.02.538.538,0,0,1-.377-.123A.444.444,0,0,1,1.2-15.22a.449.449,0,0,1,.132-.343.5.5,0,0,1,.362-.126.453.453,0,0,1,.336.127.457.457,0,0,1,.126.337Zm-.293-.094a.18.18,0,0,0-.047-.13.163.163,0,0,0-.124-.05.193.193,0,0,0-.135.046.213.213,0,0,0-.065.134Z" transform="translate(-1.2 15.689)"/>
      </g>
      <g id="Group_279" data-name="Group 279" transform="translate(3.143 35.734)">
        <path id="Path_315" data-name="Path 315" d="M1.669-15.179a.246.246,0,0,0-.135.03.1.1,0,0,0-.044.089.106.106,0,0,0,.036.085.152.152,0,0,0,.1.03A.18.18,0,0,0,1.761-15a.2.2,0,0,0,.055-.145v-.033Zm.435-.107v.508H1.817v-.132a.368.368,0,0,1-.129.118.387.387,0,0,1-.175.036.317.317,0,0,1-.225-.08.274.274,0,0,1-.086-.21.257.257,0,0,1,.107-.229.613.613,0,0,1,.339-.073h.168v-.023a.105.105,0,0,0-.054-.1A.338.338,0,0,0,1.6-15.5a.766.766,0,0,0-.171.018.59.59,0,0,0-.145.055v-.217a1.733,1.733,0,0,1,.183-.034,1.5,1.5,0,0,1,.186-.012A.514.514,0,0,1,2-15.6a.394.394,0,0,1,.107.309Z" transform="translate(-1.201 15.693)"/>
      </g>
      <g id="Group_280" data-name="Group 280" transform="translate(4.195 35.506)">
        <path id="Path_316" data-name="Path 316" d="M.8-19.656v.254H1.1v.2H.8v.378a.11.11,0,0,0,.024.084.155.155,0,0,0,.1.022H1.07v.2H.826a.334.334,0,0,1-.24-.07.333.333,0,0,1-.07-.241V-19.2H.375v-.2H.516v-.253Z" transform="translate(-0.375 19.656)"/>
      </g>
      <g id="Group_281" data-name="Group 281" transform="translate(5.021 35.736)">
        <path id="Path_317" data-name="Path 317" d="M2.158-15.224v.082H1.492a.212.212,0,0,0,.073.15.271.271,0,0,0,.174.05.67.67,0,0,0,.184-.026.972.972,0,0,0,.193-.081v.219a1.2,1.2,0,0,1-.2.057,1.048,1.048,0,0,1-.2.02.538.538,0,0,1-.377-.123A.444.444,0,0,1,1.2-15.22a.449.449,0,0,1,.132-.343.5.5,0,0,1,.362-.126.453.453,0,0,1,.336.127.457.457,0,0,1,.126.337Zm-.293-.094a.18.18,0,0,0-.047-.13.163.163,0,0,0-.124-.05.193.193,0,0,0-.135.046.213.213,0,0,0-.065.134Z" transform="translate(-1.2 15.689)"/>
      </g>
      <g id="Group_282" data-name="Group 282" transform="translate(6.131 35.411)">
        <path id="Path_318" data-name="Path 318" d="M1.936-20.8v-.478h.287v1.237H1.936v-.129a.375.375,0,0,1-.129.116.358.358,0,0,1-.165.036.331.331,0,0,1-.271-.131.519.519,0,0,1-.106-.336.52.52,0,0,1,.106-.337.331.331,0,0,1,.271-.131.348.348,0,0,1,.164.039.394.394,0,0,1,.13.116Zm-.187.577a.162.162,0,0,0,.139-.067.332.332,0,0,0,.048-.193.328.328,0,0,0-.048-.193.161.161,0,0,0-.139-.067.16.16,0,0,0-.139.067.326.326,0,0,0-.048.193.33.33,0,0,0,.048.193.161.161,0,0,0,.138.067Z" transform="translate(-1.266 21.281)"/>
      </g>
      <g id="Group_283" data-name="Group 283" transform="translate(7.929 35.409)">
        <path id="Path_319" data-name="Path 319" d="M2.833-20.229a.162.162,0,0,0,.14-.067.332.332,0,0,0,.048-.193.328.328,0,0,0-.048-.193.162.162,0,0,0-.14-.067.164.164,0,0,0-.141.067.329.329,0,0,0-.048.193.328.328,0,0,0,.048.193.163.163,0,0,0,.141.067Zm-.188-.577a.4.4,0,0,1,.13-.116.353.353,0,0,1,.165-.039.333.333,0,0,1,.271.131.522.522,0,0,1,.106.337.52.52,0,0,1-.106.336.333.333,0,0,1-.271.131.361.361,0,0,1-.165-.036.394.394,0,0,1-.13-.116v.129H2.359v-1.237h.287Z" transform="translate(-2.359 21.286)"/>
      </g>
      <g id="Group_284" data-name="Group 284" transform="translate(8.978 35.758)">
        <path id="Path_320" data-name="Path 320" d="M.344-15.312H.629l.24.6.2-.6h.285l-.375.976a.476.476,0,0,1-.132.207.309.309,0,0,1-.2.06H.487v-.187H.576a.184.184,0,0,0,.106-.024.149.149,0,0,0,.052-.082l.008-.024Z" transform="translate(-0.344 15.312)"/>
      </g>
      <g id="Group_285" data-name="Group 285" transform="translate(10.596 35.462)">
        <path id="Path_321" data-name="Path 321" d="M1-19.434H.525l-.077.217H.141L.581-20.4H.946l.44,1.187H1.078Zm-.4-.22H.926l-.162-.473Z" transform="translate(-0.141 20.405)"/>
      </g>
      <g id="Group_286" data-name="Group 286" transform="translate(11.922 35.411)">
        <path id="Path_322" data-name="Path 322" d="M1.936-20.8v-.478h.287v1.237H1.936v-.129a.375.375,0,0,1-.129.116.358.358,0,0,1-.165.036.331.331,0,0,1-.271-.131.519.519,0,0,1-.106-.336.52.52,0,0,1,.106-.337.331.331,0,0,1,.271-.131.348.348,0,0,1,.164.039.394.394,0,0,1,.13.116Zm-.187.577a.162.162,0,0,0,.139-.067.332.332,0,0,0,.048-.193.328.328,0,0,0-.048-.193.161.161,0,0,0-.139-.067.16.16,0,0,0-.139.067.326.326,0,0,0-.048.193.33.33,0,0,0,.048.193.161.161,0,0,0,.138.067Z" transform="translate(-1.266 21.281)"/>
      </g>
      <g id="Group_287" data-name="Group 287" transform="translate(13.152 35.739)">
        <path id="Path_323" data-name="Path 323" d="M3.021-15.418a.394.394,0,0,0-.077-.026.309.309,0,0,0-.073-.009.208.208,0,0,0-.169.071.3.3,0,0,0-.059.2v.411H2.359v-.889h.287v.147a.362.362,0,0,1,.126-.127.339.339,0,0,1,.171-.041h.031l.049,0Z" transform="translate(-2.359 15.681)"/>
      </g>
      <g id="Group_288" data-name="Group 288" transform="translate(13.956 35.41)">
        <path id="Path_324" data-name="Path 324" d="M2.359-20.934h.287v.889H2.359Zm0-.348h.287v.232H2.359Z" transform="translate(-2.359 21.282)"/>
      </g>
      <g id="Group_289" data-name="Group 289" transform="translate(14.446 35.736)">
        <path id="Path_325" data-name="Path 325" d="M2.158-15.224v.082H1.492a.212.212,0,0,0,.073.15.271.271,0,0,0,.174.05.67.67,0,0,0,.184-.026.972.972,0,0,0,.193-.081v.219a1.2,1.2,0,0,1-.2.057,1.048,1.048,0,0,1-.2.02.538.538,0,0,1-.377-.123A.444.444,0,0,1,1.2-15.22a.449.449,0,0,1,.132-.343.5.5,0,0,1,.362-.126.453.453,0,0,1,.336.127.457.457,0,0,1,.126.337Zm-.293-.094a.18.18,0,0,0-.047-.13.163.163,0,0,0-.124-.05.193.193,0,0,0-.135.046.213.213,0,0,0-.065.134Z" transform="translate(-1.2 15.689)"/>
      </g>
      <g id="Group_290" data-name="Group 290" transform="translate(15.62 35.735)">
        <path id="Path_326" data-name="Path 326" d="M3.255-15.319v.541H2.968v-.414a1.524,1.524,0,0,0-.005-.159.171.171,0,0,0-.018-.065.116.116,0,0,0-.046-.043.133.133,0,0,0-.065-.015.164.164,0,0,0-.14.069.309.309,0,0,0-.051.19v.438H2.359v-.889h.287v.13a.455.455,0,0,1,.136-.116.348.348,0,0,1,.16-.039.289.289,0,0,1,.235.1.416.416,0,0,1,.08.275Z" transform="translate(-2.359 15.691)"/>
      </g>
      <g id="Group_291" data-name="Group 291" transform="translate(17.29 35.439)">
        <path id="Path_327" data-name="Path 327" d="M2.4-19.639a.773.773,0,0,1-.176.065.793.793,0,0,1-.191.023.652.652,0,0,1-.47-.165.594.594,0,0,1-.174-.45.592.592,0,0,1,.174-.45.651.651,0,0,1,.47-.166.793.793,0,0,1,.191.023.773.773,0,0,1,.176.065v.246a.7.7,0,0,0-.168-.085.555.555,0,0,0-.175-.027.326.326,0,0,0-.258.106.418.418,0,0,0-.094.289.42.42,0,0,0,.094.289.328.328,0,0,0,.258.1.568.568,0,0,0,.175-.026.679.679,0,0,0,.168-.085Z" transform="translate(-1.389 20.783)"/>
      </g>
      <g id="Group_292" data-name="Group 292" transform="translate(18.475 35.736)">
        <path id="Path_328" data-name="Path 328" d="M1.693-15.486a.168.168,0,0,0-.145.068.328.328,0,0,0-.05.2.328.328,0,0,0,.05.2.168.168,0,0,0,.145.067.164.164,0,0,0,.142-.067.33.33,0,0,0,.05-.2.33.33,0,0,0-.05-.2A.164.164,0,0,0,1.693-15.486Zm0-.2a.5.5,0,0,1,.359.125.454.454,0,0,1,.129.344.456.456,0,0,1-.129.344.5.5,0,0,1-.359.124.5.5,0,0,1-.361-.124.453.453,0,0,1-.13-.344.451.451,0,0,1,.13-.344.5.5,0,0,1,.361-.125Z" transform="translate(-1.201 15.69)"/>
      </g>
      <g id="Group_293" data-name="Group 293" transform="translate(19.599 35.739)">
        <path id="Path_329" data-name="Path 329" d="M1.748-15.45a.16.16,0,0,0-.139.067.326.326,0,0,0-.048.193A.33.33,0,0,0,1.608-15a.161.161,0,0,0,.139.067A.162.162,0,0,0,1.887-15a.332.332,0,0,0,.049-.193.328.328,0,0,0-.048-.193A.161.161,0,0,0,1.748-15.45Zm.189.577a.375.375,0,0,1-.129.116.358.358,0,0,1-.165.036.331.331,0,0,1-.271-.131.519.519,0,0,1-.106-.336.517.517,0,0,1,.106-.336.333.333,0,0,1,.271-.13.35.35,0,0,1,.165.039.381.381,0,0,1,.129.116v-.133h.287v1.23H1.936Z" transform="translate(-1.266 15.655)"/>
      </g>
      <g id="Group_294" data-name="Group 294" transform="translate(20.816 35.757)">
        <path id="Path_330" data-name="Path 330" d="M2.184-14.77v-.544H2.47v.416a1.531,1.531,0,0,0,.005.155.179.179,0,0,0,.019.068.125.125,0,0,0,.046.044.137.137,0,0,0,.065.015.166.166,0,0,0,.14-.068.312.312,0,0,0,.051-.19v-.44h.281v.889H2.795v-.129a.448.448,0,0,1-.136.116.348.348,0,0,1-.16.039.291.291,0,0,1-.235-.095.412.412,0,0,1-.081-.276Z" transform="translate(-2.181 15.315)"/>
      </g>
      <g id="Group_295" data-name="Group 295" transform="translate(21.921 35.736)">
        <path id="Path_331" data-name="Path 331" d="M2.158-15.224v.082H1.492a.212.212,0,0,0,.073.15.271.271,0,0,0,.174.05.67.67,0,0,0,.184-.026.972.972,0,0,0,.193-.081v.219a1.2,1.2,0,0,1-.2.057,1.048,1.048,0,0,1-.2.02.538.538,0,0,1-.377-.123A.444.444,0,0,1,1.2-15.22a.449.449,0,0,1,.132-.343.5.5,0,0,1,.362-.126.453.453,0,0,1,.336.127.457.457,0,0,1,.126.337Zm-.293-.094a.18.18,0,0,0-.047-.13.163.163,0,0,0-.124-.05.193.193,0,0,0-.135.046.213.213,0,0,0-.065.134Z" transform="translate(-1.2 15.689)"/>
      </g>
      <g id="Group_296" data-name="Group 296" transform="translate(22.979 35.506)">
        <path id="Path_332" data-name="Path 332" d="M.8-19.656v.254H1.1v.2H.8v.378a.11.11,0,0,0,.024.084.155.155,0,0,0,.1.022H1.07v.2H.826a.334.334,0,0,1-.24-.07.333.333,0,0,1-.07-.241V-19.2H.375v-.2H.516v-.253Z" transform="translate(-0.375 19.656)"/>
      </g>
      <g id="Group_297" data-name="Group 297" transform="translate(0 37.04)">
        <path id="Path_333" data-name="Path 333" d="M1.223-21.282v.187H1.066a.128.128,0,0,0-.085.022A.1.1,0,0,0,.958-21v.062H1.2v.2H.958v.688H.674v-.688H.531v-.2H.674V-21a.271.271,0,0,1,.081-.215.379.379,0,0,1,.252-.07Z" transform="translate(-0.531 21.282)"/>
      </g>
      <g id="Group_298" data-name="Group 298" transform="translate(0.816 37.368)">
        <path id="Path_334" data-name="Path 334" d="M3.021-15.418a.394.394,0,0,0-.077-.026.309.309,0,0,0-.073-.009.208.208,0,0,0-.169.071.3.3,0,0,0-.059.2v.411H2.359v-.889h.287v.147a.362.362,0,0,1,.126-.127.339.339,0,0,1,.171-.041h.031l.049,0Z" transform="translate(-2.359 15.681)"/>
      </g>
      <g id="Group_299" data-name="Group 299" transform="translate(1.551 37.365)">
        <path id="Path_335" data-name="Path 335" d="M1.693-15.486a.168.168,0,0,0-.145.068.328.328,0,0,0-.05.2.328.328,0,0,0,.05.2.168.168,0,0,0,.145.067.164.164,0,0,0,.142-.067.33.33,0,0,0,.05-.2.33.33,0,0,0-.05-.2A.164.164,0,0,0,1.693-15.486Zm0-.2a.5.5,0,0,1,.359.125.454.454,0,0,1,.129.344.456.456,0,0,1-.129.344.5.5,0,0,1-.359.124.5.5,0,0,1-.361-.124.453.453,0,0,1-.13-.344.451.451,0,0,1,.13-.344.5.5,0,0,1,.361-.125Z" transform="translate(-1.201 15.69)"/>
      </g>
      <g id="Group_300" data-name="Group 300" transform="translate(2.737 37.365)">
        <path id="Path_336" data-name="Path 336" d="M3.155-15.519a.387.387,0,0,1,.128-.126.317.317,0,0,1,.164-.044.288.288,0,0,1,.232.1.412.412,0,0,1,.081.275v.541H3.477V-15.3a.253.253,0,0,0-.028-.136.1.1,0,0,0-.088-.041.142.142,0,0,0-.126.067.348.348,0,0,0-.046.193v.437H2.9v-.464a.443.443,0,0,0-.026-.19.1.1,0,0,0-.091-.043.143.143,0,0,0-.126.067.344.344,0,0,0-.044.193v.438H2.328v-.889h.287v.13a.37.37,0,0,1,.12-.114.3.3,0,0,1,.15-.039.3.3,0,0,1,.164.044.281.281,0,0,1,.107.126Z" transform="translate(-2.328 15.689)"/>
      </g>
      <g id="Group_301" data-name="Group 301" transform="translate(4.888 37.135)">
        <path id="Path_337" data-name="Path 337" d="M.8-19.656v.254H1.1v.2H.8v.378a.11.11,0,0,0,.024.084.155.155,0,0,0,.1.022H1.07v.2H.826a.334.334,0,0,1-.24-.07.333.333,0,0,1-.07-.241V-19.2H.375v-.2H.516v-.253Z" transform="translate(-0.375 19.656)"/>
      </g>
      <g id="Group_302" data-name="Group 302" transform="translate(5.783 37.04)">
        <path id="Path_338" data-name="Path 338" d="M3.255-20.585v.541H2.968v-.414a1.547,1.547,0,0,0-.005-.161.171.171,0,0,0-.018-.065.116.116,0,0,0-.046-.043.133.133,0,0,0-.065-.015.164.164,0,0,0-.14.069.309.309,0,0,0-.051.19v.438H2.359v-1.237h.287v.478a.455.455,0,0,1,.136-.116.348.348,0,0,1,.16-.039.289.289,0,0,1,.235.1.416.416,0,0,1,.08.275Z" transform="translate(-2.359 21.281)"/>
      </g>
      <g id="Group_303" data-name="Group 303" transform="translate(6.874 37.365)">
        <path id="Path_339" data-name="Path 339" d="M2.158-15.224v.082H1.492a.212.212,0,0,0,.073.15.271.271,0,0,0,.174.05.67.67,0,0,0,.184-.026.972.972,0,0,0,.193-.081v.219a1.2,1.2,0,0,1-.2.057,1.048,1.048,0,0,1-.2.02.538.538,0,0,1-.377-.123A.444.444,0,0,1,1.2-15.22a.449.449,0,0,1,.132-.343.5.5,0,0,1,.362-.126.453.453,0,0,1,.336.127.457.457,0,0,1,.126.337Zm-.293-.094a.18.18,0,0,0-.047-.13.163.163,0,0,0-.124-.05.193.193,0,0,0-.135.046.213.213,0,0,0-.065.134Z" transform="translate(-1.2 15.689)"/>
      </g>
      <g id="Group_304" data-name="Group 304" transform="translate(8.628 37.091)">
        <path id="Path_340" data-name="Path 340" d="M2.578-20.407H2.92l.432.814v-.815h.29v1.187H3.3l-.432-.814v.815h-.29Z" transform="translate(-2.578 20.407)"/>
      </g>
      <g id="Group_305" data-name="Group 305" transform="translate(9.911 37.365)">
        <path id="Path_341" data-name="Path 341" d="M1.693-15.486a.168.168,0,0,0-.145.068.328.328,0,0,0-.05.2.328.328,0,0,0,.05.2.168.168,0,0,0,.145.067.164.164,0,0,0,.142-.067.33.33,0,0,0,.05-.2.33.33,0,0,0-.05-.2A.164.164,0,0,0,1.693-15.486Zm0-.2a.5.5,0,0,1,.359.125.454.454,0,0,1,.129.344.456.456,0,0,1-.129.344.5.5,0,0,1-.359.124.5.5,0,0,1-.361-.124.453.453,0,0,1-.13-.344.451.451,0,0,1,.13-.344.5.5,0,0,1,.361-.125Z" transform="translate(-1.201 15.69)"/>
      </g>
      <g id="Group_306" data-name="Group 306" transform="translate(11.086 37.387)">
        <path id="Path_342" data-name="Path 342" d="M2.184-14.77v-.544H2.47v.416a1.531,1.531,0,0,0,.005.155.179.179,0,0,0,.019.068.125.125,0,0,0,.046.044.137.137,0,0,0,.065.015.166.166,0,0,0,.14-.068.312.312,0,0,0,.051-.19v-.44h.281v.889H2.795v-.129a.448.448,0,0,1-.136.116.348.348,0,0,1-.16.039.291.291,0,0,1-.235-.095.412.412,0,0,1-.081-.276Z" transform="translate(-2.181 15.315)"/>
      </g>
      <g id="Group_307" data-name="Group 307" transform="translate(12.259 37.364)">
        <path id="Path_343" data-name="Path 343" d="M3.255-15.319v.541H2.968v-.414a1.524,1.524,0,0,0-.005-.159.171.171,0,0,0-.018-.065.116.116,0,0,0-.046-.043.133.133,0,0,0-.065-.015.164.164,0,0,0-.14.069.309.309,0,0,0-.051.19v.438H2.359v-.889h.287v.13a.455.455,0,0,1,.136-.116.348.348,0,0,1,.16-.039.289.289,0,0,1,.235.1.416.416,0,0,1,.08.275Z" transform="translate(-2.359 15.691)"/>
      </g>
      <g id="Group_308" data-name="Group 308" transform="translate(13.999 37.09)">
        <path id="Path_344" data-name="Path 344" d="M2.578-20.408h.508a.529.529,0,0,1,.348.1.35.35,0,0,1,.122.287.352.352,0,0,1-.122.287.529.529,0,0,1-.348.1h-.2v.412H2.578Zm.305.222v.332h.17a.2.2,0,0,0,.137-.044.155.155,0,0,0,.049-.121.155.155,0,0,0-.049-.123.2.2,0,0,0-.137-.043Z" transform="translate(-2.578 20.409)"/>
      </g>
      <g id="Group_309" data-name="Group 309" transform="translate(15.181 37.368)">
        <path id="Path_345" data-name="Path 345" d="M3.021-15.418a.394.394,0,0,0-.077-.026.309.309,0,0,0-.073-.009.208.208,0,0,0-.169.071.3.3,0,0,0-.059.2v.411H2.359v-.889h.287v.147a.362.362,0,0,1,.126-.127.339.339,0,0,1,.171-.041h.031l.049,0Z" transform="translate(-2.359 15.681)"/>
      </g>
      <g id="Group_310" data-name="Group 310" transform="translate(15.916 37.365)">
        <path id="Path_346" data-name="Path 346" d="M1.693-15.486a.168.168,0,0,0-.145.068.328.328,0,0,0-.05.2.328.328,0,0,0,.05.2.168.168,0,0,0,.145.067.164.164,0,0,0,.142-.067.33.33,0,0,0,.05-.2.33.33,0,0,0-.05-.2A.164.164,0,0,0,1.693-15.486Zm0-.2a.5.5,0,0,1,.359.125.454.454,0,0,1,.129.344.456.456,0,0,1-.129.344.5.5,0,0,1-.359.124.5.5,0,0,1-.361-.124.453.453,0,0,1-.13-.344.451.451,0,0,1,.13-.344.5.5,0,0,1,.361-.125Z" transform="translate(-1.201 15.69)"/>
      </g>
      <g id="Group_311" data-name="Group 311" transform="translate(16.912 37.04)">
        <path id="Path_347" data-name="Path 347" d="M-.745-20.934h.285v.875a.393.393,0,0,1-.086.274.319.319,0,0,1-.249.095H-.937v-.187h.05a.139.139,0,0,0,.111-.036.238.238,0,0,0,.031-.145Zm0-.348h.285v.232H-.745Z" transform="translate(0.937 21.282)"/>
      </g>
      <g id="Group_312" data-name="Group 312" transform="translate(17.594 37.365)">
        <path id="Path_348" data-name="Path 348" d="M2.158-15.224v.082H1.492a.212.212,0,0,0,.073.15.271.271,0,0,0,.174.05.67.67,0,0,0,.184-.026.972.972,0,0,0,.193-.081v.219a1.2,1.2,0,0,1-.2.057,1.048,1.048,0,0,1-.2.02.538.538,0,0,1-.377-.123A.444.444,0,0,1,1.2-15.22a.449.449,0,0,1,.132-.343.5.5,0,0,1,.362-.126.453.453,0,0,1,.336.127.457.457,0,0,1,.126.337Zm-.293-.094a.18.18,0,0,0-.047-.13.163.163,0,0,0-.124-.05.193.193,0,0,0-.135.046.213.213,0,0,0-.065.134Z" transform="translate(-1.2 15.689)"/>
      </g>
      <g id="Group_313" data-name="Group 313" transform="translate(18.701 37.363)">
        <path id="Path_349" data-name="Path 349" d="M1.99-15.642v.232a.443.443,0,0,0-.116-.059.387.387,0,0,0-.121-.019.246.246,0,0,0-.186.07.271.271,0,0,0-.067.193.271.271,0,0,0,.067.193.247.247,0,0,0,.186.069.415.415,0,0,0,.126-.019.373.373,0,0,0,.111-.058v.232a.77.77,0,0,1-.135.036.759.759,0,0,1-.138.013.541.541,0,0,1-.377-.124.441.441,0,0,1-.135-.344.443.443,0,0,1,.135-.345.541.541,0,0,1,.377-.124.759.759,0,0,1,.138.013.761.761,0,0,1,.135.039Z" transform="translate(-1.203 15.695)"/>
      </g>
      <g id="Group_314" data-name="Group 314" transform="translate(19.618 37.135)">
        <path id="Path_350" data-name="Path 350" d="M.8-19.656v.254H1.1v.2H.8v.378a.11.11,0,0,0,.024.084.155.155,0,0,0,.1.022H1.07v.2H.826a.334.334,0,0,1-.24-.07.333.333,0,0,1-.07-.241V-19.2H.375v-.2H.516v-.253Z" transform="translate(-0.375 19.656)"/>
      </g>
    </g>
  </g>
</svg>
