<svg xmlns="http://www.w3.org/2000/svg" xmlns:xlink="http://www.w3.org/1999/xlink" width="77" height="68" viewBox="0 0 77 68">
  <defs>
    <clipPath id="clip-path">
      <rect id="Rectangle_15" data-name="Rectangle 15" width="77" height="68" transform="translate(6783 858.301)" fill="#fff" stroke="#707070" stroke-width="1"/>
    </clipPath>
  </defs>
  <g id="Mask_Group_4" data-name="Mask Group 4" transform="translate(-6783 -858.301)" clip-path="url(#clip-path)">
    <g id="noun-injection-27243" transform="translate(6783 862.667)">
      <path id="Path_124" data-name="Path 124" d="M124.093,310.257a3.573,3.573,0,0,0-3.9-3.694H75.579V284.2H70v37.9h.012v.005h5.6v-6.761h42.9V322.1h5.591Z" transform="translate(-70.003 -261.113)"/>
      <path id="Path_125" data-name="Path 125" d="M133.756,355.964v5.008h-6.064c-2.936.021-2.939,3.789,0,3.784h7.954a1.894,1.894,0,0,0,1.894-1.989v-6.8A1.906,1.906,0,1,0,133.756,355.964Z" transform="translate(-117.863 -321.173)"/>
      <path id="Path_126" data-name="Path 126" d="M127.591,353.725a3.664,3.664,0,1,0-3.66-3.666A3.684,3.684,0,0,0,127.591,353.725Z" transform="translate(-116.519 -314.765)"/>
      <path id="Path_127" data-name="Path 127" d="M489.488,116.25a9.573,9.573,0,0,1,6.491,2.593l-2.244,4.314a5.366,5.366,0,0,0-8.455-.042l-2.29-4.177a9.568,9.568,0,0,1,6.5-2.688m-.649,4.347h1.284v-1.283H491.4v-1.279h-1.282v-1.282h-1.284v1.282H487.56v1.279h1.279Z" transform="translate(-426.23 -116.25)"/>
      <path id="Path_128" data-name="Path 128" d="M508.466,166.5a4.121,4.121,0,1,1-4.123-4.122,4.121,4.121,0,0,1,4.123,4.122" transform="translate(-441.096 -156.038)"/>
      <path id="Path_129" data-name="Path 129" d="M250.355,357.786h-7.3v-.653a4.573,4.573,0,0,0-1.275-3.282,4.877,4.877,0,0,0-3.557-1.337H222.955V363.69l27.4-.005a2.95,2.95,0,1,0,0-5.9Zm-12.121-3.812a3.441,3.441,0,0,1,2.51.908,3.093,3.093,0,0,1,.85,2.251v1.5l-3.262-.025-4.909-4.631Z" transform="translate(-201.933 -320.043)"/>
      <path id="Path_130" data-name="Path 130" d="M425.19,246.146l-3.983-13.095a6.024,6.024,0,0,0-5.5-4.145h-7.842a5.665,5.665,0,0,0-5.338,4.145l-1.458,3.781-4.958-3.734c-2.439-1.818-4.8,1.3-2.364,3.129l7.022,5.311,0,0a1.905,1.905,0,0,0,3.034-1.093l1.965-5.081h1.3L400.9,256.748h5.741l0,15.386a2.147,2.147,0,1,0,4.294,0l0-15.5h1.743v15.518a2.138,2.138,0,0,0,4.276,0V256.75h5.724l-6.212-21.388h1.495l3.585,12.024c.853,2.744,4.436,1.579,3.64-1.239Z" transform="translate(-348.368 -213.424)"/>
      <path id="Path_131" data-name="Path 131" d="M389.4,165.331v-6.3h-.923v-5.445h-.748v5.445h-.944v6.3h-1.246v1.424h5.108v-1.424Z" transform="translate(-342.172 -148.454)"/>
      <g id="Group_121" data-name="Group 121" transform="translate(0.191 69.677)">
        <path id="Path_132" data-name="Path 132" d="M3.779-18.08a1.828,1.828,0,0,1-.417.155,1.873,1.873,0,0,1-.451.054,1.54,1.54,0,0,1-1.11-.391,1.4,1.4,0,0,1-.41-1.063,1.4,1.4,0,0,1,.41-1.063,1.537,1.537,0,0,1,1.11-.393,1.873,1.873,0,0,1,.451.054,1.828,1.828,0,0,1,.417.155v.58a1.65,1.65,0,0,0-.4-.2,1.31,1.31,0,0,0-.412-.064.771.771,0,0,0-.608.249.987.987,0,0,0-.221.683.991.991,0,0,0,.221.683.773.773,0,0,0,.608.247,1.341,1.341,0,0,0,.412-.062,1.6,1.6,0,0,0,.4-.2Z" transform="translate(-1.391 20.781)"/>
      </g>
      <g id="Group_122" data-name="Group 122" transform="translate(3.148 70.377)">
        <path id="Path_133" data-name="Path 133" d="M3.922-15.063a.93.93,0,0,0-.178-.06.735.735,0,0,0-.174-.021.49.49,0,0,0-.4.168.715.715,0,0,0-.14.475v.971H2.359v-2.1h.672v.346a.854.854,0,0,1,.3-.3.8.8,0,0,1,.4-.1.716.716,0,0,1,.073,0l.116.011Z" transform="translate(-2.359 15.687)"/>
      </g>
      <g id="Group_123" data-name="Group 123" transform="translate(4.887 70.377)">
        <path id="Path_134" data-name="Path 134" d="M3.463-14.59v.193H1.888a.5.5,0,0,0,.172.354.635.635,0,0,0,.41.118,1.583,1.583,0,0,0,.434-.062,2.3,2.3,0,0,0,.457-.191v.518a2.835,2.835,0,0,1-.477.135,2.475,2.475,0,0,1-.477.047,1.27,1.27,0,0,1-.889-.29,1.049,1.049,0,0,1-.316-.814,1.06,1.06,0,0,1,.311-.81,1.188,1.188,0,0,1,.855-.3,1.071,1.071,0,0,1,.795.3,1.079,1.079,0,0,1,.3.8Zm-.691-.223a.426.426,0,0,0-.112-.307.385.385,0,0,0-.292-.118.458.458,0,0,0-.318.11.5.5,0,0,0-.152.316Z" transform="translate(-1.203 15.688)"/>
      </g>
      <g id="Group_124" data-name="Group 124" transform="translate(7.497 70.377)">
        <path id="Path_135" data-name="Path 135" d="M2.3-14.479a.58.58,0,0,0-.318.071.237.237,0,0,0-.105.21.25.25,0,0,0,.086.2.36.36,0,0,0,.236.071.424.424,0,0,0,.32-.135.476.476,0,0,0,.131-.341v-.077Zm1.026-.253v1.2H2.655v-.311a.869.869,0,0,1-.3.279.911.911,0,0,1-.412.086.748.748,0,0,1-.53-.189.647.647,0,0,1-.2-.5.608.608,0,0,1,.253-.541,1.447,1.447,0,0,1,.8-.174h.4v-.054a.249.249,0,0,0-.127-.232.8.8,0,0,0-.393-.075,1.808,1.808,0,0,0-.4.043,1.393,1.393,0,0,0-.344.129v-.513a4.092,4.092,0,0,1,.432-.079,3.529,3.529,0,0,1,.438-.028,1.214,1.214,0,0,1,.82.225.931.931,0,0,1,.253.73Z" transform="translate(-1.203 15.688)"/>
      </g>
      <g id="Group_125" data-name="Group 125" transform="translate(9.98 69.831)">
        <path id="Path_136" data-name="Path 136" d="M1.382-19.656v.6h.694v.481H1.382v.893a.26.26,0,0,0,.058.2.362.362,0,0,0,.23.052h.346v.481H1.44a.79.79,0,0,1-.567-.165.786.786,0,0,1-.165-.565v-.893H.375v-.481H.708v-.6Z" transform="translate(-0.375 19.656)"/>
      </g>
      <g id="Group_126" data-name="Group 126" transform="translate(11.933 70.377)">
        <path id="Path_137" data-name="Path 137" d="M3.463-14.59v.193H1.888a.5.5,0,0,0,.172.354.635.635,0,0,0,.41.118,1.583,1.583,0,0,0,.434-.062,2.3,2.3,0,0,0,.457-.191v.518a2.835,2.835,0,0,1-.477.135,2.475,2.475,0,0,1-.477.047,1.27,1.27,0,0,1-.889-.29,1.049,1.049,0,0,1-.316-.814,1.06,1.06,0,0,1,.311-.81,1.188,1.188,0,0,1,.855-.3,1.071,1.071,0,0,1,.795.3,1.079,1.079,0,0,1,.3.8Zm-.691-.223a.426.426,0,0,0-.112-.307.385.385,0,0,0-.292-.118.458.458,0,0,0-.318.11.5.5,0,0,0-.152.316Z" transform="translate(-1.203 15.688)"/>
      </g>
      <g id="Group_127" data-name="Group 127" transform="translate(14.552 69.608)">
        <path id="Path_138" data-name="Path 138" d="M2.847-20.154v-1.127h.676v2.925H2.847v-.3a.886.886,0,0,1-.3.273.846.846,0,0,1-.389.086.783.783,0,0,1-.638-.309,1.224,1.224,0,0,1-.249-.795,1.228,1.228,0,0,1,.249-.8.783.783,0,0,1,.638-.309.821.821,0,0,1,.387.088.931.931,0,0,1,.307.271ZM2.4-18.79a.382.382,0,0,0,.329-.157.784.784,0,0,0,.114-.46.775.775,0,0,0-.114-.457.381.381,0,0,0-.329-.159.379.379,0,0,0-.329.159.771.771,0,0,0-.114.457.78.78,0,0,0,.114.46A.38.38,0,0,0,2.4-18.79Z" transform="translate(-1.266 21.281)"/>
      </g>
      <g id="Group_128" data-name="Group 128" transform="translate(18.796 69.608)">
        <path id="Path_139" data-name="Path 139" d="M3.478-18.79a.383.383,0,0,0,.331-.157.784.784,0,0,0,.114-.46.775.775,0,0,0-.114-.457.382.382,0,0,0-.331-.159.387.387,0,0,0-.333.159.778.778,0,0,0-.114.457.776.776,0,0,0,.114.457.386.386,0,0,0,.333.159Zm-.447-1.364a.953.953,0,0,1,.307-.271.833.833,0,0,1,.389-.088.786.786,0,0,1,.64.309,1.232,1.232,0,0,1,.249.8,1.227,1.227,0,0,1-.249.795.786.786,0,0,1-.64.309.852.852,0,0,1-.389-.086.93.93,0,0,1-.307-.273v.3H2.359v-2.925h.672Z" transform="translate(-2.359 21.281)"/>
      </g>
      <g id="Group_129" data-name="Group 129" transform="translate(21.275 70.428)">
        <path id="Path_140" data-name="Path 140" d="M.344-15.312h.672l.567,1.428.481-1.428h.672l-.885,2.3a1.124,1.124,0,0,1-.311.49.731.731,0,0,1-.468.142H.681v-.442h.21a.435.435,0,0,0,.249-.056.351.351,0,0,0,.122-.193l.019-.058Z" transform="translate(-0.344 15.312)"/>
      </g>
      <g id="Group_130" data-name="Group 130" transform="translate(25.43 69.728)">
        <path id="Path_141" data-name="Path 141" d="M2.578-20.406H3.3v2.257H4.571v.548H2.578Z" transform="translate(-2.578 20.406)"/>
      </g>
      <g id="Group_131" data-name="Group 131" transform="translate(27.828 70.428)">
        <path id="Path_142" data-name="Path 142" d="M2.188-14.028v-1.284h.676v.21c0,.115,0,.258,0,.429s0,.287,0,.344a3.616,3.616,0,0,0,.013.367.423.423,0,0,0,.045.161.3.3,0,0,0,.11.1.324.324,0,0,0,.152.034.391.391,0,0,0,.331-.161.737.737,0,0,0,.12-.449v-1.039H4.3v2.1H3.631v-.3a1.058,1.058,0,0,1-.322.273.825.825,0,0,1-.376.086.687.687,0,0,1-.554-.223.972.972,0,0,1-.191-.651Z" transform="translate(-2.188 15.313)"/>
      </g>
      <g id="Group_132" data-name="Group 132" transform="translate(30.591 69.608)">
        <path id="Path_143" data-name="Path 143" d="M2.359-20.46h.672v2.1H2.359Zm0-.82h.672v.55H2.359Z" transform="translate(-2.359 21.281)"/>
      </g>
      <g id="Group_133" data-name="Group 133" transform="translate(31.786 70.377)">
        <path id="Path_144" data-name="Path 144" d="M3.22-15.569v.511a2.484,2.484,0,0,0-.417-.135,1.749,1.749,0,0,0-.38-.045.668.668,0,0,0-.286.047.156.156,0,0,0-.092.148.135.135,0,0,0,.071.122.671.671,0,0,0,.253.064l.118.017a1.439,1.439,0,0,1,.7.217.583.583,0,0,1,.178.47.572.572,0,0,1-.249.507,1.325,1.325,0,0,1-.739.168,3.032,3.032,0,0,1-.434-.032,3.472,3.472,0,0,1-.455-.1v-.511a1.878,1.878,0,0,0,.41.148,1.973,1.973,0,0,0,.432.047.638.638,0,0,0,.3-.054.178.178,0,0,0,.1-.163.147.147,0,0,0-.069-.133.714.714,0,0,0-.273-.069l-.118-.015a1.228,1.228,0,0,1-.629-.208.571.571,0,0,1-.18-.462.566.566,0,0,1,.228-.5,1.226,1.226,0,0,1,.7-.163,2.7,2.7,0,0,1,.389.03,4.292,4.292,0,0,1,.447.088Z" transform="translate(-1.453 15.687)"/>
      </g>
      <g id="Group_134" data-name="Group 134" transform="translate(35.571 69.728)">
        <path id="Path_145" data-name="Path 145" d="M2.578-20.406h1.2a1.249,1.249,0,0,1,.82.238.827.827,0,0,1,.288.676.832.832,0,0,1-.288.679,1.249,1.249,0,0,1-.82.238H3.3v.973H2.578Zm.722.524v.784h.4a.467.467,0,0,0,.324-.1.368.368,0,0,0,.116-.29.365.365,0,0,0-.116-.29.475.475,0,0,0-.324-.1Z" transform="translate(-2.578 20.406)"/>
      </g>
      <g id="Group_135" data-name="Group 135" transform="translate(38.361 70.377)">
        <path id="Path_146" data-name="Path 146" d="M3.922-15.063a.93.93,0,0,0-.178-.06.735.735,0,0,0-.174-.021.49.49,0,0,0-.4.168.715.715,0,0,0-.14.475v.971H2.359v-2.1h.672v.346a.854.854,0,0,1,.3-.3.8.8,0,0,1,.4-.1.716.716,0,0,1,.073,0l.116.011Z" transform="translate(-2.359 15.687)"/>
      </g>
      <g id="Group_136" data-name="Group 136" transform="translate(40.1 70.377)">
        <path id="Path_147" data-name="Path 147" d="M2.3-14.479a.58.58,0,0,0-.318.071.237.237,0,0,0-.105.21.25.25,0,0,0,.086.2.36.36,0,0,0,.236.071.424.424,0,0,0,.32-.135.476.476,0,0,0,.131-.341v-.077Zm1.026-.253v1.2H2.655v-.311a.869.869,0,0,1-.3.279.911.911,0,0,1-.412.086.748.748,0,0,1-.53-.189.647.647,0,0,1-.2-.5.608.608,0,0,1,.253-.541,1.447,1.447,0,0,1,.8-.174h.4v-.054a.249.249,0,0,0-.127-.232.8.8,0,0,0-.393-.075,1.808,1.808,0,0,0-.4.043,1.393,1.393,0,0,0-.344.129v-.513a4.092,4.092,0,0,1,.432-.079,3.529,3.529,0,0,1,.438-.028,1.214,1.214,0,0,1,.82.225.931.931,0,0,1,.253.73Z" transform="translate(-1.203 15.688)"/>
      </g>
      <g id="Group_137" data-name="Group 137" transform="translate(42.705 69.608)">
        <path id="Path_148" data-name="Path 148" d="M2.847-20.154v-1.127h.676v2.925H2.847v-.3a.886.886,0,0,1-.3.273.846.846,0,0,1-.389.086.783.783,0,0,1-.638-.309,1.224,1.224,0,0,1-.249-.795,1.228,1.228,0,0,1,.249-.8.783.783,0,0,1,.638-.309.821.821,0,0,1,.387.088.931.931,0,0,1,.307.271ZM2.4-18.79a.382.382,0,0,0,.329-.157.784.784,0,0,0,.114-.46.775.775,0,0,0-.114-.457.381.381,0,0,0-.329-.159.379.379,0,0,0-.329.159.771.771,0,0,0-.114.457.78.78,0,0,0,.114.46A.38.38,0,0,0,2.4-18.79Z" transform="translate(-1.266 21.281)"/>
      </g>
      <g id="Group_138" data-name="Group 138" transform="translate(45.452 70.377)">
        <path id="Path_149" data-name="Path 149" d="M2.363-15.207a.4.4,0,0,0-.341.161.775.775,0,0,0-.118.464.775.775,0,0,0,.118.464.4.4,0,0,0,.341.159.388.388,0,0,0,.335-.159.778.778,0,0,0,.118-.464.778.778,0,0,0-.118-.464A.387.387,0,0,0,2.363-15.207Zm0-.481a1.173,1.173,0,0,1,.848.294,1.073,1.073,0,0,1,.3.812,1.076,1.076,0,0,1-.3.812,1.176,1.176,0,0,1-.848.292,1.185,1.185,0,0,1-.853-.292,1.069,1.069,0,0,1-.307-.812,1.066,1.066,0,0,1,.307-.812A1.182,1.182,0,0,1,2.363-15.688Z" transform="translate(-1.203 15.688)"/>
      </g>
      <g id="Group_139" data-name="Group 139" transform="translate(0.073 73.456)">
        <path id="Path_150" data-name="Path 150" d="M2.166-21.281v.442H1.794a.3.3,0,0,0-.2.052.237.237,0,0,0-.056.18v.146h.576v.481H1.539v1.623H.866V-19.98H.531v-.481H.866v-.146a.637.637,0,0,1,.191-.509.894.894,0,0,1,.595-.165Z" transform="translate(-0.531 21.281)"/>
      </g>
      <g id="Group_140" data-name="Group 140" transform="translate(1.998 74.225)">
        <path id="Path_151" data-name="Path 151" d="M3.922-15.063a.93.93,0,0,0-.178-.06.735.735,0,0,0-.174-.021.49.49,0,0,0-.4.168.715.715,0,0,0-.14.475v.971H2.359v-2.1h.672v.346a.854.854,0,0,1,.3-.3.8.8,0,0,1,.4-.1.716.716,0,0,1,.073,0l.116.011Z" transform="translate(-2.359 15.687)"/>
      </g>
      <g id="Group_141" data-name="Group 141" transform="translate(3.737 74.225)">
        <path id="Path_152" data-name="Path 152" d="M2.363-15.207a.4.4,0,0,0-.341.161.775.775,0,0,0-.118.464.775.775,0,0,0,.118.464.4.4,0,0,0,.341.159.388.388,0,0,0,.335-.159.778.778,0,0,0,.118-.464.778.778,0,0,0-.118-.464A.387.387,0,0,0,2.363-15.207Zm0-.481a1.173,1.173,0,0,1,.848.294,1.073,1.073,0,0,1,.3.812,1.076,1.076,0,0,1-.3.812,1.176,1.176,0,0,1-.848.292,1.185,1.185,0,0,1-.853-.292,1.069,1.069,0,0,1-.307-.812,1.066,1.066,0,0,1,.307-.812A1.182,1.182,0,0,1,2.363-15.688Z" transform="translate(-1.203 15.688)"/>
      </g>
      <g id="Group_142" data-name="Group 142" transform="translate(6.535 74.225)">
        <path id="Path_153" data-name="Path 153" d="M4.282-15.286a.912.912,0,0,1,.3-.3.75.75,0,0,1,.387-.1.68.68,0,0,1,.552.225.973.973,0,0,1,.191.649v1.282H5.038v-1.147c0-.018,0-.044,0-.077a.6.6,0,0,0-.067-.322.231.231,0,0,0-.21-.1.335.335,0,0,0-.3.159.825.825,0,0,0-.107.455v1.033H3.683v-1.1a1.046,1.046,0,0,0-.06-.449.23.23,0,0,0-.215-.1.337.337,0,0,0-.3.159A.811.811,0,0,0,3-14.567v1.035H2.328v-2.1H3v.307a.874.874,0,0,1,.283-.268.713.713,0,0,1,.354-.09.714.714,0,0,1,.387.105.663.663,0,0,1,.253.3Z" transform="translate(-2.328 15.688)"/>
      </g>
      <g id="Group_143" data-name="Group 143" transform="translate(11.616 73.68)">
        <path id="Path_154" data-name="Path 154" d="M1.382-19.656v.6h.694v.481H1.382v.893a.26.26,0,0,0,.058.2.362.362,0,0,0,.23.052h.346v.481H1.44a.79.79,0,0,1-.567-.165.786.786,0,0,1-.165-.565v-.893H.375v-.481H.708v-.6Z" transform="translate(-0.375 19.656)"/>
      </g>
      <g id="Group_144" data-name="Group 144" transform="translate(13.729 73.456)">
        <path id="Path_155" data-name="Path 155" d="M4.475-19.638v1.282H3.8v-.977a3.655,3.655,0,0,0-.013-.38.4.4,0,0,0-.043-.152.274.274,0,0,0-.107-.1A.315.315,0,0,0,3.483-20a.389.389,0,0,0-.331.163.735.735,0,0,0-.12.449v1.035H2.359v-2.925h.672v1.127a1.074,1.074,0,0,1,.322-.271.818.818,0,0,1,.378-.088.682.682,0,0,1,.554.225.982.982,0,0,1,.189.649Z" transform="translate(-2.359 21.281)"/>
      </g>
      <g id="Group_145" data-name="Group 145" transform="translate(16.31 74.225)">
        <path id="Path_156" data-name="Path 156" d="M3.463-14.59v.193H1.888a.5.5,0,0,0,.172.354.635.635,0,0,0,.41.118,1.583,1.583,0,0,0,.434-.062,2.3,2.3,0,0,0,.457-.191v.518a2.835,2.835,0,0,1-.477.135,2.475,2.475,0,0,1-.477.047,1.27,1.27,0,0,1-.889-.29,1.049,1.049,0,0,1-.316-.814,1.06,1.06,0,0,1,.311-.81,1.188,1.188,0,0,1,.855-.3,1.071,1.071,0,0,1,.795.3,1.079,1.079,0,0,1,.3.8Zm-.691-.223a.426.426,0,0,0-.112-.307.385.385,0,0,0-.292-.118.458.458,0,0,0-.318.11.5.5,0,0,0-.152.316Z" transform="translate(-1.203 15.688)"/>
      </g>
      <g id="Group_146" data-name="Group 146" transform="translate(20.448 73.577)">
        <path id="Path_157" data-name="Path 157" d="M2.578-20.406h.807l1.02,1.924v-1.924h.685v2.8H4.283l-1.02-1.924V-17.6H2.578Z" transform="translate(-2.578 20.406)"/>
      </g>
      <g id="Group_147" data-name="Group 147" transform="translate(23.48 74.225)">
        <path id="Path_158" data-name="Path 158" d="M2.363-15.207a.4.4,0,0,0-.341.161.775.775,0,0,0-.118.464.775.775,0,0,0,.118.464.4.4,0,0,0,.341.159.388.388,0,0,0,.335-.159.778.778,0,0,0,.118-.464.778.778,0,0,0-.118-.464A.387.387,0,0,0,2.363-15.207Zm0-.481a1.173,1.173,0,0,1,.848.294,1.073,1.073,0,0,1,.3.812,1.076,1.076,0,0,1-.3.812,1.176,1.176,0,0,1-.848.292,1.185,1.185,0,0,1-.853-.292,1.069,1.069,0,0,1-.307-.812,1.066,1.066,0,0,1,.307-.812A1.182,1.182,0,0,1,2.363-15.688Z" transform="translate(-1.203 15.688)"/>
      </g>
      <g id="Group_148" data-name="Group 148" transform="translate(26.259 74.277)">
        <path id="Path_159" data-name="Path 159" d="M2.188-14.028v-1.284h.676v.21c0,.115,0,.258,0,.429s0,.287,0,.344a3.616,3.616,0,0,0,.013.367.423.423,0,0,0,.045.161.3.3,0,0,0,.11.1.324.324,0,0,0,.152.034.391.391,0,0,0,.331-.161.737.737,0,0,0,.12-.449v-1.039H4.3v2.1H3.631v-.3a1.058,1.058,0,0,1-.322.273.825.825,0,0,1-.376.086.687.687,0,0,1-.554-.223.972.972,0,0,1-.191-.651Z" transform="translate(-2.188 15.313)"/>
      </g>
      <g id="Group_149" data-name="Group 149" transform="translate(29.023 74.225)">
        <path id="Path_160" data-name="Path 160" d="M4.475-14.813v1.282H3.8v-.981a3.6,3.6,0,0,0-.013-.376.4.4,0,0,0-.043-.152.274.274,0,0,0-.107-.1.315.315,0,0,0-.152-.037.389.389,0,0,0-.331.163.735.735,0,0,0-.12.449v1.035H2.359v-2.1h.672v.307a1.074,1.074,0,0,1,.322-.271.818.818,0,0,1,.378-.088.682.682,0,0,1,.554.225.982.982,0,0,1,.189.649Z" transform="translate(-2.359 15.687)"/>
      </g>
      <g id="Group_150" data-name="Group 150" transform="translate(33.132 73.577)">
        <path id="Path_161" data-name="Path 161" d="M2.578-20.406h1.2a1.249,1.249,0,0,1,.82.238.827.827,0,0,1,.288.676.832.832,0,0,1-.288.679,1.249,1.249,0,0,1-.82.238H3.3v.973H2.578Zm.722.524v.784h.4a.467.467,0,0,0,.324-.1.368.368,0,0,0,.116-.29.365.365,0,0,0-.116-.29.475.475,0,0,0-.324-.1Z" transform="translate(-2.578 20.406)"/>
      </g>
      <g id="Group_151" data-name="Group 151" transform="translate(35.922 74.225)">
        <path id="Path_162" data-name="Path 162" d="M3.922-15.063a.93.93,0,0,0-.178-.06.735.735,0,0,0-.174-.021.49.49,0,0,0-.4.168.715.715,0,0,0-.14.475v.971H2.359v-2.1h.672v.346a.854.854,0,0,1,.3-.3.8.8,0,0,1,.4-.1.716.716,0,0,1,.073,0l.116.011Z" transform="translate(-2.359 15.687)"/>
      </g>
      <g id="Group_152" data-name="Group 152" transform="translate(37.661 74.225)">
        <path id="Path_163" data-name="Path 163" d="M2.363-15.207a.4.4,0,0,0-.341.161.775.775,0,0,0-.118.464.775.775,0,0,0,.118.464.4.4,0,0,0,.341.159.388.388,0,0,0,.335-.159.778.778,0,0,0,.118-.464.778.778,0,0,0-.118-.464A.387.387,0,0,0,2.363-15.207Zm0-.481a1.173,1.173,0,0,1,.848.294,1.073,1.073,0,0,1,.3.812,1.076,1.076,0,0,1-.3.812,1.176,1.176,0,0,1-.848.292,1.185,1.185,0,0,1-.853-.292,1.069,1.069,0,0,1-.307-.812,1.066,1.066,0,0,1,.307-.812A1.182,1.182,0,0,1,2.363-15.688Z" transform="translate(-1.203 15.688)"/>
      </g>
      <g id="Group_153" data-name="Group 153" transform="translate(40.011 73.456)">
        <path id="Path_164" data-name="Path 164" d="M-.484-20.46H.188v2.066a.928.928,0,0,1-.2.646.753.753,0,0,1-.588.223H-.937v-.442h.118a.328.328,0,0,0,.262-.086.562.562,0,0,0,.073-.341Zm0-.82H.188v.55H-.484Z" transform="translate(0.937 21.281)"/>
      </g>
      <g id="Group_154" data-name="Group 154" transform="translate(41.624 74.225)">
        <path id="Path_165" data-name="Path 165" d="M3.463-14.59v.193H1.888a.5.5,0,0,0,.172.354.635.635,0,0,0,.41.118,1.583,1.583,0,0,0,.434-.062,2.3,2.3,0,0,0,.457-.191v.518a2.835,2.835,0,0,1-.477.135,2.475,2.475,0,0,1-.477.047,1.27,1.27,0,0,1-.889-.29,1.049,1.049,0,0,1-.316-.814,1.06,1.06,0,0,1,.311-.81,1.188,1.188,0,0,1,.855-.3,1.071,1.071,0,0,1,.795.3,1.079,1.079,0,0,1,.3.8Zm-.691-.223a.426.426,0,0,0-.112-.307.385.385,0,0,0-.292-.118.458.458,0,0,0-.318.11.5.5,0,0,0-.152.316Z" transform="translate(-1.203 15.688)"/>
      </g>
      <g id="Group_155" data-name="Group 155" transform="translate(44.234 74.225)">
        <path id="Path_166" data-name="Path 166" d="M3.061-15.569v.548a1.046,1.046,0,0,0-.275-.14.911.911,0,0,0-.286-.045.582.582,0,0,0-.44.165.636.636,0,0,0-.157.46.64.64,0,0,0,.157.46.585.585,0,0,0,.44.163A.98.98,0,0,0,2.8-14a.881.881,0,0,0,.262-.14v.55a1.819,1.819,0,0,1-.32.086,1.792,1.792,0,0,1-.326.03,1.277,1.277,0,0,1-.891-.292,1.041,1.041,0,0,1-.32-.812,1.045,1.045,0,0,1,.32-.814,1.28,1.28,0,0,1,.891-.292,1.792,1.792,0,0,1,.326.03,1.8,1.8,0,0,1,.32.088Z" transform="translate(-1.203 15.687)"/>
      </g>
      <g id="Group_156" data-name="Group 156" transform="translate(46.401 73.68)">
        <path id="Path_167" data-name="Path 167" d="M1.382-19.656v.6h.694v.481H1.382v.893a.26.26,0,0,0,.058.2.362.362,0,0,0,.23.052h.346v.481H1.44a.79.79,0,0,1-.567-.165.786.786,0,0,1-.165-.565v-.893H.375v-.481H.708v-.6Z" transform="translate(-0.375 19.656)"/>
      </g>
    </g>
  </g>
</svg>
