<svg xmlns="http://www.w3.org/2000/svg" width="45.618" height="97.883" viewBox="0 0 45.618 97.883">
  <g id="medical-doctor-reading-a-paper-svgrepo-com" transform="translate(-26.133)">
    <g id="Group_22" data-name="Group 22">
      <path id="Path_12" data-name="Path 12" d="M52.069,21.863l-.028,0-2.578,2.706-2.658-2.676c-3.793,1.324-18.541,10.224-20.633,33.9a4.144,4.144,0,0,0,8.21,1.134A67.111,67.111,0,0,1,38.54,41.511v5.36L32.064,75.607s.715,2.346,7.334,3.576V93.275a4.609,4.609,0,0,0,9.217,0V79.914l.277,0c.129,0,.25,0,.377,0V93.275a4.608,4.608,0,0,0,4.607,4.608h0a4.608,4.608,0,0,0,4.608-4.608v-14.1c6.6-1.231,7.409-3.562,7.409-3.562L61.18,50.253s.66-.024.746-.024c3.625,0,8.049-.863,9.531-5.046C73.891,38.314,60.648,23.936,52.069,21.863Zm5.467,19.77c-.684-.136-1.468-.317-2.4-.565A4.144,4.144,0,0,0,53,49.076a39.106,39.106,0,0,0,4.539.963v6.982a1.21,1.21,0,0,1-1.208,1.209H42.6a1.209,1.209,0,0,1-1.206-1.209V36.651A1.207,1.207,0,0,1,42.6,35.443h3.057v-.528a1.207,1.207,0,0,1,1.207-1.208h5.207a1.208,1.208,0,0,1,1.208,1.208v.528H56.33a1.208,1.208,0,0,1,1.208,1.208v4.981h0Zm2.851.224V37.972a19.291,19.291,0,0,1,2.859,3.888A15.335,15.335,0,0,1,60.387,41.857Z"/>
      <path id="Path_13" data-name="Path 13" d="M49.261,21.113a9.682,9.682,0,0,0,9.682-9.681,9.584,9.584,0,0,0-2.051-5.916H53.759V4.048h1.72a9.7,9.7,0,0,0-1.97-1.3,4.653,4.653,0,0,0-8.487,0,9.693,9.693,0,0,0-1.976,1.3h1.965V5.517H41.635a9.576,9.576,0,0,0-2.051,5.916A9.678,9.678,0,0,0,49.261,21.113Zm0-19.069a2.63,2.63,0,1,1-2.63,2.629A2.634,2.634,0,0,1,49.263,2.044Z"/>
    </g>
  </g>
</svg>
