<svg xmlns="http://www.w3.org/2000/svg" width="22.798" height="31.425" viewBox="0 0 22.798 31.425">
  <g id="ophthalmology-svgrepo-com" transform="translate(-40.769)">
    <path id="Path_106" data-name="Path 106" d="M62.521,0H41.815a1.046,1.046,0,0,0-1.046,1.046V30.379a1.046,1.046,0,0,0,1.046,1.046H62.521a1.046,1.046,0,0,0,1.046-1.046V1.046A1.046,1.046,0,0,0,62.521,0ZM61.475,29.334H42.861V2.092H61.475Z"/>
    <path id="Path_107" data-name="Path 107" d="M123.354,39.517a1.046,1.046,0,0,0,0,2.092H126.8a1.046,1.046,0,0,0,1.046-1.046v-6.9a1.046,1.046,0,0,0-1.046-1.046h-3.451a1.046,1.046,0,1,0,0,2.092h2.405v1.359h-2.405a1.046,1.046,0,1,0,0,2.092h2.405v1.36h-2.405Z" transform="translate(-72.911 -29.164)"/>
    <path id="Path_108" data-name="Path 108" d="M87.42,153.057a.942.942,0,0,0,.942-.942V150.3h.878v1.82a.942.942,0,1,0,1.882,0V150.3H92v1.82a.942.942,0,1,0,1.882,0v-2.761a.942.942,0,0,0-.942-.942H87.42a.942.942,0,0,0-.942.942v2.761A.942.942,0,0,0,87.42,153.057Z" transform="translate(-40.873 -132.71)"/>
    <path id="Path_109" data-name="Path 109" d="M182.24,147.529h2.139a.837.837,0,0,0,0-1.673h-1.3v-.466h1.3a.837.837,0,0,0,0-1.673h-1.3v-.467h1.3a.837.837,0,0,0,0-1.673H182.24a.837.837,0,0,0-.837.837v4.279A.837.837,0,0,0,182.24,147.529Z" transform="translate(-125.754 -126.596)"/>
    <path id="Path_110" data-name="Path 110" d="M126.648,219.06v1.3h-.467v-1.3a.837.837,0,0,0-1.673,0v1.3h-.467v-1.3a.837.837,0,0,0-1.673,0V221.2a.837.837,0,0,0,.837.837h4.279a.837.837,0,0,0,.837-.837V219.06a.837.837,0,1,0-1.673,0Z" transform="translate(-72.965 -195.133)"/>
  </g>
</svg>
