<svg width="14" height="15" viewBox="0 0 14 15" fill="none" xmlns="http://www.w3.org/2000/svg">
<path d="M7 8.9C7.13845 8.9 7.27379 8.85895 7.3889 8.78203C7.50401 8.70511 7.59373 8.59579 7.64672 8.46788C7.6997 8.33997 7.71356 8.19922 7.68655 8.06344C7.65954 7.92765 7.59287 7.80292 7.49497 7.70503C7.39708 7.60713 7.27235 7.54046 7.13656 7.51345C7.00078 7.48644 6.86003 7.5003 6.73212 7.55328C6.60421 7.60627 6.49489 7.69599 6.41797 7.8111C6.34105 7.92621 6.3 8.06155 6.3 8.2C6.3 8.38565 6.37375 8.5637 6.50503 8.69497C6.6363 8.82625 6.81435 8.9 7 8.9ZM10.5 8.9C10.6384 8.9 10.7738 8.85895 10.8889 8.78203C11.004 8.70511 11.0937 8.59579 11.1467 8.46788C11.1997 8.33997 11.2136 8.19922 11.1866 8.06344C11.1595 7.92765 11.0929 7.80292 10.995 7.70503C10.8971 7.60713 10.7724 7.54046 10.6366 7.51345C10.5008 7.48644 10.36 7.5003 10.2321 7.55328C10.1042 7.60627 9.99489 7.69599 9.91797 7.8111C9.84105 7.92621 9.8 8.06155 9.8 8.2C9.8 8.38565 9.87375 8.5637 10.005 8.69497C10.1363 8.82625 10.3143 8.9 10.5 8.9ZM7 11.7C7.13845 11.7 7.27379 11.6589 7.3889 11.582C7.50401 11.5051 7.59373 11.3958 7.64672 11.2679C7.6997 11.14 7.71356 10.9992 7.68655 10.8634C7.65954 10.7276 7.59287 10.6029 7.49497 10.505C7.39708 10.4071 7.27235 10.3405 7.13656 10.3134C7.00078 10.2864 6.86003 10.3003 6.73212 10.3533C6.60421 10.4063 6.49489 10.496 6.41797 10.6111C6.34105 10.7262 6.3 10.8616 6.3 11C6.3 11.1857 6.37375 11.3637 6.50503 11.495C6.6363 11.6263 6.81435 11.7 7 11.7ZM10.5 11.7C10.6384 11.7 10.7738 11.6589 10.8889 11.582C11.004 11.5051 11.0937 11.3958 11.1467 11.2679C11.1997 11.14 11.2136 10.9992 11.1866 10.8634C11.1595 10.7276 11.0929 10.6029 10.995 10.505C10.8971 10.4071 10.7724 10.3405 10.6366 10.3134C10.5008 10.2864 10.36 10.3003 10.2321 10.3533C10.1042 10.4063 9.99489 10.496 9.91797 10.6111C9.84105 10.7262 9.8 10.8616 9.8 11C9.8 11.1857 9.87375 11.3637 10.005 11.495C10.1363 11.6263 10.3143 11.7 10.5 11.7ZM3.5 8.9C3.63845 8.9 3.77378 8.85895 3.8889 8.78203C4.00401 8.70511 4.09373 8.59579 4.14672 8.46788C4.1997 8.33997 4.21356 8.19922 4.18655 8.06344C4.15954 7.92765 4.09287 7.80292 3.99497 7.70503C3.89708 7.60713 3.77235 7.54046 3.63656 7.51345C3.50078 7.48644 3.36003 7.5003 3.23212 7.55328C3.10421 7.60627 2.99489 7.69599 2.91797 7.8111C2.84105 7.92621 2.8 8.06155 2.8 8.2C2.8 8.38565 2.87375 8.5637 3.00503 8.69497C3.1363 8.82625 3.31435 8.9 3.5 8.9ZM11.9 1.9H11.2V1.2C11.2 1.01435 11.1263 0.836301 10.995 0.705025C10.8637 0.57375 10.6857 0.5 10.5 0.5C10.3143 0.5 10.1363 0.57375 10.005 0.705025C9.87375 0.836301 9.8 1.01435 9.8 1.2V1.9H4.2V1.2C4.2 1.01435 4.12625 0.836301 3.99497 0.705025C3.8637 0.57375 3.68565 0.5 3.5 0.5C3.31435 0.5 3.1363 0.57375 3.00503 0.705025C2.87375 0.836301 2.8 1.01435 2.8 1.2V1.9H2.1C1.54305 1.9 1.0089 2.12125 0.615076 2.51508C0.221249 2.9089 0 3.44305 0 4V12.4C0 12.957 0.221249 13.4911 0.615076 13.8849C1.0089 14.2788 1.54305 14.5 2.1 14.5H11.9C12.457 14.5 12.9911 14.2788 13.3849 13.8849C13.7788 13.4911 14 12.957 14 12.4V4C14 3.44305 13.7788 2.9089 13.3849 2.51508C12.9911 2.12125 12.457 1.9 11.9 1.9ZM12.6 12.4C12.6 12.5857 12.5263 12.7637 12.395 12.895C12.2637 13.0263 12.0857 13.1 11.9 13.1H2.1C1.91435 13.1 1.7363 13.0263 1.60503 12.895C1.47375 12.7637 1.4 12.5857 1.4 12.4V6.1H12.6V12.4ZM12.6 4.7H1.4V4C1.4 3.81435 1.47375 3.6363 1.60503 3.50503C1.7363 3.37375 1.91435 3.3 2.1 3.3H11.9C12.0857 3.3 12.2637 3.37375 12.395 3.50503C12.5263 3.6363 12.6 3.81435 12.6 4V4.7ZM3.5 11.7C3.63845 11.7 3.77378 11.6589 3.8889 11.582C4.00401 11.5051 4.09373 11.3958 4.14672 11.2679C4.1997 11.14 4.21356 10.9992 4.18655 10.8634C4.15954 10.7276 4.09287 10.6029 3.99497 10.505C3.89708 10.4071 3.77235 10.3405 3.63656 10.3134C3.50078 10.2864 3.36003 10.3003 3.23212 10.3533C3.10421 10.4063 2.99489 10.496 2.91797 10.6111C2.84105 10.7262 2.8 10.8616 2.8 11C2.8 11.1857 2.87375 11.3637 3.00503 11.495C3.1363 11.6263 3.31435 11.7 3.5 11.7Z" fill="#013334"/>
</svg>
