<svg width="14" height="15" viewBox="0 0 14 15" fill="none" xmlns="http://www.w3.org/2000/svg">
<path d="M9.31 10.79L10.29 9.81L7.7 7.22V4H6.3V7.78L9.31 10.79ZM7 14.5C6.03166 14.5 5.12167 14.3161 4.27 13.9484C3.41833 13.5807 2.6775 13.082 2.0475 12.4525C1.4175 11.823 0.918867 11.0821 0.551601 10.23C0.184334 9.37786 0.000467553 8.46786 8.86075e-07 7.5C-0.00046578 6.53213 0.183401 5.62213 0.551601 4.77C0.919801 3.91787 1.41843 3.17703 2.0475 2.5475C2.67657 1.91797 3.4174 1.41933 4.27 1.0516C5.1226 0.683867 6.0326 0.5 7 0.5C7.9674 0.5 8.8774 0.683867 9.73 1.0516C10.5826 1.41933 11.3234 1.91797 11.9525 2.5475C12.5816 3.17703 13.0804 3.91787 13.4491 4.77C13.8178 5.62213 14.0014 6.53213 14 7.5C13.9986 8.46786 13.8147 9.37786 13.4484 10.23C13.0821 11.0821 12.5834 11.823 11.9525 12.4525C11.3216 13.082 10.5807 13.5809 9.73 13.9491C8.87926 14.3173 7.96926 14.5009 7 14.5ZM7 13.1C8.55166 13.1 9.87303 12.5547 10.9641 11.4641C12.0552 10.3735 12.6005 9.05213 12.6 7.5C12.5995 5.94787 12.0542 4.6265 10.9641 3.5359C9.87396 2.4453 8.5526 1.9 7 1.9C5.4474 1.9 4.12603 2.44553 3.0359 3.5366C1.94577 4.62767 1.40047 5.9488 1.4 7.5C1.39953 9.0512 1.94507 10.3726 3.0366 11.4641C4.12813 12.5556 5.44927 13.1009 7 13.1Z" fill="#013334"/>
</svg>
