<svg xmlns="http://www.w3.org/2000/svg" width="16" height="16" viewBox="0 0 16 16">
  <path id="fluent_chat-help-20-filled" d="M2,10a8,8,0,1,1,4.262,7.075l-3.64.91a.5.5,0,0,1-.607-.606l.91-3.641A8,8,0,0,1,2,10ZM9.25,7.307a1.07,1.07,0,0,1,1.5,0A1.063,1.063,0,0,1,11,8a1.286,1.286,0,0,1-.166.685,2.8,2.8,0,0,1-.423.51l-.022.024a3.4,3.4,0,0,0-.6.781A2.729,2.729,0,0,0,9.5,11.293a.5.5,0,0,0,1,0,1.723,1.723,0,0,1,.177-.829,2.477,2.477,0,0,1,.434-.554l.042-.043a3.6,3.6,0,0,0,.545-.678A2.291,2.291,0,0,0,12,8a2.056,2.056,0,0,0-.5-1.354A1.946,1.946,0,0,0,10,6a1.946,1.946,0,0,0-1.5.646A2.05,2.05,0,0,0,8,8,.5.5,0,0,0,9,8,1.061,1.061,0,0,1,9.25,7.307Zm1.45,6.206a.7.7,0,1,0-.2.495A.7.7,0,0,0,10.7,13.513Z" transform="translate(-2 -2.002)" fill="#033"/>
</svg>
