<svg width="350" height="138" viewBox="0 0 350 138" fill="none" xmlns="http://www.w3.org/2000/svg">
<g opacity="0.39">
<g opacity="0.4">
<path d="M89.7233 38.4005C79.2295 69.9695 47.3492 85.9735 18.6499 74.0786C-10.0495 62.1837 -24.8628 26.8268 -14.369 -4.74219L5.30967 3.41711C-1.15795 22.8684 8.10331 44.7117 25.9509 52.1042C43.7985 59.5033 63.577 49.6925 70.0387 30.2412L89.7174 38.4005H89.7233Z" fill="url(#paint0_linear_697_2917)"/>
</g>
<path opacity="0.2" d="M338.382 32.1154C304.377 41.225 269.345 49.404 235.687 56.8751L235 56.4098L239.126 42.1622C278.272 33.5179 318.803 23.943 349.029 16L349.715 16.7012L338.382 32.1154ZM328.763 48.7027C337.349 60.8467 340.783 72.9971 340.783 78.8365C340.783 83.0373 341.123 87.4807 339.069 91.6816C334.949 101.027 328.423 104.061 319.836 104.061C312.277 104.061 305.07 103.36 298.884 99.854H297.857C287.897 108.262 277.591 112.935 267.972 112.935C259.386 112.935 253.546 109.901 250.113 105.929C246.679 101.958 245.3 95.8825 245.3 89.5779C245.3 84.4398 245.987 79.5311 248.047 74.629C252.167 72.5253 256.287 70.6575 260.066 69.0256L261.099 69.4909C259.38 74.1637 258.693 78.1352 258.693 82.3361C258.693 89.5779 262.126 94.0147 269.339 94.0147C280.672 94.0147 284.452 87.9395 284.452 83.2733L283.425 67.3872C287.205 65.2835 289.605 63.4157 294.071 61.5479L295.098 62.0132C295.785 73.9278 300.592 81.1696 307.464 83.9745C311.244 85.377 315.364 86.3076 318.457 86.3076C321.204 86.3076 324.983 85.377 326.697 83.9745C326.357 80.9402 321.89 71.5947 314.677 60.6173C318.797 56.1805 322.917 52.4449 327.39 48.7027H328.763Z" fill="url(#paint1_linear_697_2917)"/>
<path opacity="0.4" d="M218.417 130.369C171.201 143.162 123.216 154.388 76.7688 164.566L76 164.041L81.7575 146.025C135.5 133.757 191.549 120.964 233.007 110L233.776 110.786L218.423 130.369H218.417Z" fill="url(#paint2_linear_697_2917)"/>
<g opacity="0.4">
<path d="M81.3747 97.9342C77.7594 92.0294 79.121 83.9684 84.409 79.9379L120.45 52.4453L156.116 79.9248C161.387 83.9881 162.713 92.0491 159.074 97.9342C155.435 103.819 148.217 105.301 142.94 101.237L120.386 83.857L97.4909 101.322C92.203 105.36 84.9841 103.839 81.3747 97.9342Z" fill="url(#paint3_linear_697_2917)"/>
</g>
<path opacity="0.4" d="M-16 137.698C-16 115.219 0.321644 97 20.4464 97C40.5711 97 56.8928 115.226 56.8928 137.698H-16Z" fill="url(#paint4_linear_697_2917)"/>
</g>
<defs>
<linearGradient id="paint0_linear_697_2917" x1="101.045" y1="-68.1423" x2="-35.8028" y2="83.3535" gradientUnits="userSpaceOnUse">
<stop stop-color="#005552"/>
<stop offset="0.4" stop-color="#09CE87"/>
<stop offset="1" stop-color="#004F4F"/>
</linearGradient>
<linearGradient id="paint1_linear_697_2917" x1="314.46" y1="32.4431" x2="177.613" y2="183.939" gradientUnits="userSpaceOnUse">
<stop stop-color="#005552"/>
<stop offset="0.4" stop-color="#09CE87"/>
<stop offset="1" stop-color="#004F4F"/>
</linearGradient>
<linearGradient id="paint2_linear_697_2917" x1="251.371" y1="-0.809231" x2="114.524" y2="150.687" gradientUnits="userSpaceOnUse">
<stop stop-color="#005552"/>
<stop offset="0.4" stop-color="#09CE87"/>
<stop offset="1" stop-color="#004F4F"/>
</linearGradient>
<linearGradient id="paint3_linear_697_2917" x1="182.157" y1="5.12791" x2="45.3095" y2="156.624" gradientUnits="userSpaceOnUse">
<stop stop-color="#005552"/>
<stop offset="0.4" stop-color="#09CE87"/>
<stop offset="1" stop-color="#004F4F"/>
</linearGradient>
<linearGradient id="paint4_linear_697_2917" x1="137.01" y1="-30.4031" x2="0.162863" y2="121.093" gradientUnits="userSpaceOnUse">
<stop stop-color="#005552"/>
<stop offset="0.4" stop-color="#09CE87"/>
<stop offset="1" stop-color="#004F4F"/>
</linearGradient>
</defs>
</svg>
