<svg id="pattern" xmlns="http://www.w3.org/2000/svg" width="193.5" height="241.398" viewBox="0 0 193.5 241.398">
  <g id="Group_5711" data-name="Group 5711" transform="translate(0 0)" opacity="0.39">
    <g id="Group_5709" data-name="Group 5709" transform="translate(78.112 81.168)" opacity="0.4">
      <path id="Path_55100" data-name="Path 55100" d="M87.166,93.729c10.757,28.663,43.438,43.194,72.857,32.394s44.6-42.9,33.847-71.564L173.7,61.967c6.63,17.66-2.864,37.493-21.159,44.205s-38.57-2.19-45.194-19.851L87.172,93.729Z" transform="translate(-87.166 -54.559)" fill="#fff"/>
    </g>
    <path id="Path_55101" data-name="Path 55101" d="M61.883-11.978c34.858,8.271,70.769,15.7,105.272,22.48l.7-.422L163.63-2.856C123.5-10.7,81.953-19.4,50.97-26.609l-.7.637Zm9.861,15.06c-8.8,11.026-12.321,22.058-12.321,27.359,0,3.814-.349,7.848,1.757,11.663,4.223,8.485,10.913,11.24,19.715,11.24,7.749,0,15.137-.637,21.478-3.82h1.052C113.635,57.159,124.2,61.4,134.06,61.4c8.8,0,14.788-2.755,18.308-6.361s4.933-9.122,4.933-14.846a30.725,30.725,0,0,0-2.816-13.573c-4.223-1.91-8.447-3.606-12.321-5.088l-1.059.423a29.188,29.188,0,0,1,2.467,11.663c0,6.575-3.52,10.6-10.914,10.6-11.617,0-15.491-5.516-15.491-9.753l1.052-14.424c-3.874-1.91-6.335-3.606-10.913-5.3l-1.053.422c-.7,10.818-5.631,17.393-12.676,19.94a39.144,39.144,0,0,1-11.268,2.118c-2.816,0-6.69-.845-8.447-2.118.349-2.755,4.927-11.24,12.321-21.207A133.683,133.683,0,0,0,73.152,3.083Z" transform="translate(-9.054 26.609)" fill="#fff" opacity="0.2"/>
    <path id="Path_55102" data-name="Path 55102" d="M24.8,183.74c48.4,11.615,97.589,21.808,145.2,31.049l.788-.476-5.9-16.358C109.8,186.816,52.341,175.2,9.843,165.246l-.788.714,15.738,17.78Z" transform="translate(-9.054 26.609)" fill="#fff" opacity="0.4"/>
    <g id="Group_5710" data-name="Group 5710" transform="translate(4.915 133.089)" opacity="0.4">
      <path id="Path_55103" data-name="Path 55103" d="M95.723,147.782a11.674,11.674,0,0,0-3.11-16.34L55.667,106.48,19.106,131.43a11.674,11.674,0,0,0-3.032,16.352,11.973,11.973,0,0,0,16.539,3L55.733,135,79.2,150.858A11.967,11.967,0,0,0,95.723,147.782Z" transform="translate(-13.969 -106.48)" fill="#fff"/>
    </g>
    <path id="Path_55104" data-name="Path 55104" d="M202.555,173.514a37.363,37.363,0,0,0-74.722,0Z" transform="translate(-9.054 26.609)" fill="#fff" opacity="0.4"/>
  </g>
</svg>
