<svg id="program_slogan" data-name="program slogan" xmlns="http://www.w3.org/2000/svg" width="110.957" height="116" viewBox="0 0 110.957 116">
  <path id="Path_54552" data-name="Path 54552" d="M7.48,14a14,14,0,0,1,14-14H96.956a14,14,0,0,1,14,14v88a14,14,0,0,1-14,14H0l1.236-1.374A24.339,24.339,0,0,0,7.48,98.348Z" fill="#3fbca1"/>
  <path id="Path_54553" data-name="Path 54553" d="M23.846,24.987q-3,2.641-3.086,2.767a5.1,5.1,0,0,0-1.027,2.908q0,1.325,2.02,2.149a7.175,7.175,0,0,0,2.68.624q.624,0,1.165-1.283c.516,2.008,1.7,3.009,3.535,3.009H65.023q5.652,0,8.624-2.734c.838,1.823,2.07,2.734,3.713,2.734h3.108A6.266,6.266,0,0,0,84.5,33.385a5.268,5.268,0,0,0,1.326,1.1,4.1,4.1,0,0,0,2.092.681h1.265q3.1,0,4.262-1.693.991-1.451.988-4.984a9.463,9.463,0,0,0-1.953-6.052c-.133-.169-.239-.253-.311-.253s-.15.1-.277.281L89.563,25.9q-.192.278,0,.456a15.471,15.471,0,0,1,2,2.126.845.845,0,0,1,.211.5c0,.281-.244.422-.738.422H87.293a5.114,5.114,0,0,0,.827-3.156,4.816,4.816,0,0,0-.616-2.43,2.464,2.464,0,0,0-2.242-1.4,3.793,3.793,0,0,0-3.119,1.957,5.878,5.878,0,0,0-1.165,3.308,2.626,2.626,0,0,0,.4,1.716H77.2c-.6,0-.954-.112-1.065-.332a5.315,5.315,0,0,0,.577-2.7,3.443,3.443,0,0,0-.8-2.357,2.8,2.8,0,0,0-2.231-.967q-3.18,0-7.719,5.119a29.486,29.486,0,0,0,1.077-7.881c0-.467-.028-1.243-.078-1.693a3.368,3.368,0,0,0,.9.191c.178,0,.261-.051.261-.152a2.144,2.144,0,0,0-.211-.647l-1.9-4.292c-.178-.388-.311-.585-.416-.585-.083,0-.272.129-.566.382l-3.247,2.863c1.3,2.812,1.953,8.972,1.953,13.05h-1.8v-.011H29.678V29.4h-.1c-.7,0-1.16-.6-1.376-1.783l-1.193-6.553c-.044-.219-.111-.332-.2-.332s-.172.062-.289.18L23.6,23.9l.239,1.091ZM83.564,26.7a2.225,2.225,0,0,1,1.015-.253,1.9,1.9,0,0,1,.954.292c.383.219.577.472.577.748a1.022,1.022,0,0,1-.588.838,1.489,1.489,0,0,1-1.981-.067c-.394-.276-.588-.534-.588-.782q0-.472.616-.776Zm-12.309.169q1.715,0,1.715,1.468c0,.27-.405.534-1.215.776a13.129,13.129,0,0,1-3.7.433c-.366,0-.744-.011-1.127-.028q2.647-2.658,4.323-2.655ZM25.078,29.51c-1.632-.1-2.442-.337-2.442-.737q0-.532,1.743-1.856l.7,2.593Z" fill="#f8f7ee"/>
  <path id="Path_54554" data-name="Path 54554" d="M82.637,20.606a.2.2,0,0,0,.327,0l1.382-1.389,1.4,1.378a.193.193,0,0,0,.316.006l1.487-1.491a.263.263,0,0,0,.094-.169.169.169,0,0,0-.089-.141l-1.515-1.485a.243.243,0,0,0-.389,0l-1.315,1.372-1.415-1.372a.243.243,0,0,0-.388,0l-1.365,1.412q-.208.211-.033.388l1.5,1.491Z" fill="#f8f7ee"/>
  <path id="Path_54555" data-name="Path 54555" d="M89.274,18.029c-.166.169-.183.321-.039.461l1.7,1.665a.239.239,0,0,0,.372,0L93,18.468a.231.231,0,0,0,0-.371l-1.731-1.676a.263.263,0,0,0-.427,0L89.28,18.035Z" fill="#f8f7ee"/>
  <path id="Path_54556" data-name="Path 54556" d="M64.768,38.24,63.2,39.865c-.161.163-.178.3-.05.433l1.7,1.688a.232.232,0,0,0,.377,0l1.665-1.71c.128-.129.133-.247.028-.354l-1.743-1.687a.264.264,0,0,0-.416,0Z" fill="#f8f7ee"/>
  <path id="Path_54557" data-name="Path 54557" d="M92.277,58.124c-.794,0-1.193-.2-1.193-.607,0-.321.211-.574.627-.748a2.574,2.574,0,0,1,1.027-.191,2.214,2.214,0,0,1,.494.084,2.26,2.26,0,0,0,.494.084c.178,0,.261-.079.261-.242a.946.946,0,0,0-.078-.332,1.858,1.858,0,0,0-.8-.889,2.279,2.279,0,0,0-1.176-.354,2,2,0,0,0-1.665,1.119,3.648,3.648,0,0,0-.627,1.958,1.361,1.361,0,0,0,.3.838.967.967,0,0,0,.727.422,7.655,7.655,0,0,0-1.326.939l-.089,1.412a17.86,17.86,0,0,1,5.078-2.391L94.6,57.4l-1.365.484a3.688,3.688,0,0,1-.966.253Z" fill="#f8f7ee"/>
  <path id="Path_54558" data-name="Path 54558" d="M91.311,77.535q.824,0,2.031-3.352a12.235,12.235,0,0,0,.677-2.554c.055-.534.128-2.3.2-5.3q.1-4.092.1-5.512,0-.557-.2-.557a1.224,1.224,0,0,0-.466.163l-3.9,2.059q.225,11.778.738,13.719Q90.845,77.535,91.311,77.535Z" fill="#f8f7ee"/>
  <path id="Path_54559" data-name="Path 54559" d="M85.428,95.231a6.9,6.9,0,0,0,1.2-4.809l-.3-7.835a3.823,3.823,0,0,0,1.016.214c.244,0,.366-.1.366-.281a1.479,1.479,0,0,0-.15-.546l-1.9-4.292c-.178-.388-.311-.585-.416-.585s-.277.129-.566.382L81.533,80.3q.666,2.413,1.226,5.467a26.481,26.481,0,0,1,.527,3.9.838.838,0,0,1-.616.878,4.7,4.7,0,0,1-1.326.129h-.727v.011h-.161a1.127,1.127,0,0,1-1.116-.737c-.194-.743-.311-1.209-.35-1.384-.144-.489-.4-.737-.777-.737a.826.826,0,0,0-.855.726c-.117.484-.216.951-.3,1.4a1,1,0,0,1-1,.737.973.973,0,0,1-.988-.748c-.144-.669-.244-1.136-.3-1.4-.117-.5-.383-.748-.788-.748s-.694.253-.827.759c-.178.675-.294,1.142-.35,1.406a1.008,1.008,0,0,1-1,.759,1.139,1.139,0,0,1-1.154-.771c-.183-.759-.3-1.238-.35-1.429-.133-.512-.411-.771-.827-.771q-.541,0-.866.861c-.117.444-.239.894-.366,1.339a1.342,1.342,0,0,1-1.315.771h-.2v-.039h-.927c-.6,0-.955-.113-1.066-.332a5.316,5.316,0,0,0,.577-2.7,3.443,3.443,0,0,0-.8-2.357,2.8,2.8,0,0,0-2.231-.967q-3.18,0-7.719,5.119c.716-1.794,1.077-6.339,1.077-8.2a12.391,12.391,0,0,0-.078-1.373,3.367,3.367,0,0,0,.9.191c.178,0,.261-.051.261-.152a2.141,2.141,0,0,0-.211-.647l-1.9-4.292c-.178-.388-.311-.585-.416-.585-.083,0-.272.129-.566.382l-3.247,2.863c1.3,2.812,1.954,8.972,1.954,13.05h-1.8v-.011H30.344a3.378,3.378,0,0,1-2.081-.838,20.4,20.4,0,0,1-1.654-1.626c-.183-.2-.338-.163-.466.09l-2,4.19q2.822,2.666,2.819,3.431,0,.928-3.158,3.111a32.3,32.3,0,0,1-4.084,2.491.718.718,0,0,0-.438.687c0,.573.344.866,1.038.866h5.877a.978.978,0,0,0,.766-.3,8.685,8.685,0,0,0,1.454-2.374,7.822,7.822,0,0,0,.766-3.127V96.154a1.546,1.546,0,0,0,.877.3H53.608q5.652,0,8.624-2.734c.838,1.823,2.07,2.734,3.713,2.734h1a3.076,3.076,0,0,0,2.442-1.727,2.467,2.467,0,0,0,2.231,1.7q.949,0,2.092-1.7a3.231,3.231,0,0,0,.877,1.159,1.98,1.98,0,0,0,1.293.546q.991,0,2.192-1.654a3.064,3.064,0,0,0,2.37,1.654h.177v.028H82.8a3.272,3.272,0,0,0,2.631-1.221ZM60.334,90.4a13.129,13.129,0,0,1-3.7.433c-.366,0-.744-.011-1.126-.028q2.647-2.658,4.323-2.655c1.121,0,1.715.489,1.715,1.468,0,.27-.405.534-1.215.776Z" fill="#f8f7ee"/>
  <path id="Path_54560" data-name="Path 54560" d="M93.664,77.7c-.05-.236-.111-.354-.178-.354-.083,0-.244.129-.477.394l-3.785,4.179q1.665,11.306,2.181,13.224c.244.906.533,1.361.866,1.361.311,0,.638-.371.988-1.119a12.713,12.713,0,0,0,.777-2.734,15.015,15.015,0,0,0,.338-2.835c0-3.347-.011-5.372-.039-6.086a34.589,34.589,0,0,0-.677-6.035Z" fill="#f8f7ee"/>
  <path id="Path_54561" data-name="Path 54561" d="M20.932,21.719a.2.2,0,0,0,.327,0l1.382-1.389,1.4,1.378a.193.193,0,0,0,.316.006l1.487-1.491a.263.263,0,0,0,.094-.169.169.169,0,0,0-.089-.141L24.34,18.429a.243.243,0,0,0-.389,0L22.636,19.8l-1.415-1.373a.243.243,0,0,0-.389,0l-1.365,1.412q-.208.211-.033.388l1.5,1.491Z" fill="#f8f7ee"/>
  <path id="Path_54562" data-name="Path 54562" d="M32.342,72.653v.073H70.029a3.272,3.272,0,0,0,2.631-1.221,6.9,6.9,0,0,0,1.2-4.809l-.3-7.835a3.823,3.823,0,0,0,1.016.214c.244,0,.366-.1.366-.281a1.48,1.48,0,0,0-.15-.546l-1.9-4.292c-.178-.388-.311-.585-.416-.585s-.277.129-.566.382l-3.147,2.824q.666,2.413,1.227,5.467a26.481,26.481,0,0,1,.527,3.9.838.838,0,0,1-.616.878,4.438,4.438,0,0,1-1.243.124v-.011H32.536V66.9a7.982,7.982,0,0,1,0-15.952v-.045H67.809a3.2,3.2,0,0,0,2.969-1.7,3.086,3.086,0,0,0,2.8,1.7h1q1.44,0,2.309-1.929a3.856,3.856,0,0,0,3.346,2.008,3.45,3.45,0,0,0,2.708-1.232A4.12,4.12,0,0,0,84,46.908a9.554,9.554,0,0,0-.866-4.106,3.821,3.821,0,0,0-3.574-2.542,3.344,3.344,0,0,0-2.986,1.53,4.624,4.624,0,0,0-.738,2.346c-.044.669-.588,1.007-1.643,1.007h-.616a1.879,1.879,0,0,1-1.781-.816,8.036,8.036,0,0,1-.416-1.491c-.117-.546-.377-.816-.777-.816s-.7.27-.866.816a9.183,9.183,0,0,1-.5,1.491,2.038,2.038,0,0,1-1.854.816V45.13H32.336v.084a13.726,13.726,0,0,0,0,27.427ZM79.724,43.3a.792.792,0,0,1,.627-.3c.466,0,.877.377,1.226,1.131a4.131,4.131,0,0,1,.438,1.755c0,.771-.233,1.159-.7,1.159-.6,0-1.077-.388-1.426-1.17a4.488,4.488,0,0,1-.416-1.879,1.038,1.038,0,0,1,.25-.692Z" fill="#f8f7ee"/>
  <path id="Path_54563" data-name="Path 54563" d="M59.124,79.515A1.511,1.511,0,0,0,60.567,81.2a1.645,1.645,0,0,0,1.565-1.654c0-1.536-.966-2.008-1.543-2.008-.527,0-1.465.546-1.465,1.969Zm2.6.034A1.237,1.237,0,0,1,60.6,80.2a.921.921,0,0,1-1.038-.866.863.863,0,0,1,.855-.8,1.47,1.47,0,0,1,1.315,1.018Z" fill="#f8f7ee"/>
  <path id="Path_54564" data-name="Path 54564" d="M76.477,77.451c-2.6.619-6.093,1.373-9.467,2.048l-.355,1.114.061.034c2.9-.585,5.916-1.226,8.846-1.935l.977-1.2Z" fill="#f8f7ee"/>
  <path id="Path_54565" data-name="Path 54565" d="M68.813,81.6c-.327.129-.683.276-1.038.439a2.7,2.7,0,0,0-.239,1.17,1.816,1.816,0,0,0,.416,1.277,2.059,2.059,0,0,0,1.537.546A4.361,4.361,0,0,0,72.065,84h.089a3.888,3.888,0,0,0,1.8.326,1.646,1.646,0,0,0,1.659-.967,1.99,1.99,0,0,0,.15-1.007A4.473,4.473,0,0,0,74.729,80h-.117a11.329,11.329,0,0,0-1.093.934,6.648,6.648,0,0,1,1.038,1.828,1.446,1.446,0,0,1-.71.18,3.329,3.329,0,0,1-.949-.18,1.781,1.781,0,0,1-1.065-1.716l-.089-.034a8.247,8.247,0,0,0-.916.456l.089,1.243c0,.366-.327.838-1.3.838a.821.821,0,0,1-.916-.911A2.656,2.656,0,0,1,68.9,81.63Z" fill="#f8f7ee"/>
  <path id="Path_54566" data-name="Path 54566" d="M48.18,59.226c-.35.135-.727.292-1.1.467a2.911,2.911,0,0,0-.255,1.249,1.967,1.967,0,0,0,.444,1.367,2.2,2.2,0,0,0,1.643.585A4.639,4.639,0,0,0,51.654,61.8h.094a4.179,4.179,0,0,0,1.926.349,1.754,1.754,0,0,0,1.77-1.035,2.129,2.129,0,0,0,.155-1.074,4.791,4.791,0,0,0-1.1-2.514h-.128a12.956,12.956,0,0,0-1.171,1,6.732,6.732,0,0,1,1.1,1.952,1.5,1.5,0,0,1-.76.2,3.391,3.391,0,0,1-1.01-.2,1.9,1.9,0,0,1-1.138-1.834L51.3,58.6a9.481,9.481,0,0,0-.982.489l.094,1.327c0,.388-.35.9-1.393.9a.879.879,0,0,1-.982-.973,2.723,2.723,0,0,1,.222-1.074l-.094-.039Z" fill="#f8f7ee"/>
  <path id="Path_54567" data-name="Path 54567" d="M56.366,54.8c-2.78.664-6.51,1.463-10.111,2.182l-.377,1.193.061.039c3.1-.624,6.321-1.305,9.451-2.07l1.043-1.288-.061-.056Z" fill="#f8f7ee"/>
  <path id="Path_54568" data-name="Path 54568" d="M83.07,52.752l-.039-.039c-2.225.534-5.228,1.159-8.108,1.755l-.311.877.039.028c2.492-.495,5.061-1.041,7.6-1.665l.821-.951Z" fill="#f8f7ee"/>
  <path id="Path_54569" data-name="Path 54569" d="M81.794,39.292l.028.028c1.515-.495,3.086-1.041,4.623-1.665l.5-.951-.028-.039c-1.354.534-3.185,1.159-4.939,1.755l-.189.877Z" fill="#f8f7ee"/>
  <path id="Path_54570" data-name="Path 54570" d="M47.847,21.4l.821-.951-.039-.039c-2.225.534-5.228,1.159-8.108,1.755l-.311.878.039.028c2.492-.495,5.061-1.041,7.6-1.665Z" fill="#f8f7ee"/>
  <path id="Path_54571" data-name="Path 54571" d="M86.144,15.335c.089.152,1.038.231,1.243.231a6.031,6.031,0,0,0,2.619-1.654,1.227,1.227,0,0,1,.3.141l.588-.827a.983.983,0,0,0-.45-.163,1.824,1.824,0,0,0,.078-.534c0-1.344-.6-1.806-1.077-1.806a1.818,1.818,0,0,0-1.7,1.738c0,.737.516,1.119,1.515,1.294a14.789,14.789,0,0,1-3.135,1.513l.028.062Zm2.181-3.3c0-.242.35-.523.727-.523.477,0,.866.675.877,1.243a.673.673,0,0,1-.039.231C88.952,12.793,88.325,12.461,88.325,12.033Z" fill="#f8f7ee"/>
  <path id="Path_54572" data-name="Path 54572" d="M64.224,104.557a.33.33,0,0,0-.25.107.34.34,0,0,0-.105.253.346.346,0,0,0,.105.253.345.345,0,0,0,.5,0,.369.369,0,0,0,.105-.253.34.34,0,0,0-.105-.253A.363.363,0,0,0,64.224,104.557Z" fill="#f8f7ee"/>
  <path id="Path_54573" data-name="Path 54573" d="M63.391,104.557a.33.33,0,0,0-.25.107.34.34,0,0,0-.105.253.346.346,0,0,0,.105.253.345.345,0,0,0,.5,0,.37.37,0,0,0,.105-.253.34.34,0,0,0-.105-.253A.363.363,0,0,0,63.391,104.557Z" fill="#f8f7ee"/>
  <path id="Path_54574" data-name="Path 54574" d="M66.355,99.951a.322.322,0,0,0-.25.106.373.373,0,0,0-.105.253.35.35,0,0,0,.105.254.329.329,0,0,0,.25.106.337.337,0,0,0,.25-.106.352.352,0,0,0,.105-.254.34.34,0,0,0-.105-.253A.352.352,0,0,0,66.355,99.951Z" fill="#f8f7ee"/>
  <path id="Path_54575" data-name="Path 54575" d="M66.055,102.448h-.522a4.054,4.054,0,0,1-.61-.045c-.189-.028-.494-.09-.921-.186l-.122.58c.239.056.394.09.461.107l.205.045a.516.516,0,0,1,.25.123.278.278,0,0,1,.067.192.415.415,0,0,1-.078.264.456.456,0,0,1-.266.129,2.781,2.781,0,0,1-.555.04h-.244a1.113,1.113,0,0,1-.771-.225.852.852,0,0,1-.25-.664,2.543,2.543,0,0,1,.094-.613H62.2a2.533,2.533,0,0,0-.122.748,1.33,1.33,0,0,0,.216.776,1.235,1.235,0,0,0,.588.456,2.312,2.312,0,0,0,.838.146h.244a2.084,2.084,0,0,0,1.154-.253.887.887,0,0,0,.372-.793.677.677,0,0,0-.017-.191h1.21v-2.025h-.627v1.4Z" fill="#f8f7ee"/>
  <path id="Path_54576" data-name="Path 54576" d="M71.455,100.558a.352.352,0,0,0,.106-.253.338.338,0,0,0-.106-.253.35.35,0,0,0-.25-.107.329.329,0,0,0-.25.107.369.369,0,0,0-.105.253.347.347,0,0,0,.105.253.33.33,0,0,0,.25.107A.338.338,0,0,0,71.455,100.558Z" fill="#f8f7ee"/>
  <path id="Path_54577" data-name="Path 54577" d="M72.032,99.951a.322.322,0,0,0-.25.106.373.373,0,0,0-.105.253.35.35,0,0,0,.105.254.329.329,0,0,0,.25.106.337.337,0,0,0,.25-.106.352.352,0,0,0,.105-.254.34.34,0,0,0-.105-.253A.352.352,0,0,0,72.032,99.951Z" fill="#f8f7ee"/>
  <path id="Path_54578" data-name="Path 54578" d="M71.311,102.448h-3.53V99.973h-.627v3.1h4.789v-2.025h-.633Z" fill="#f8f7ee"/>
  <path id="Path_54579" data-name="Path 54579" d="M75.223,101.368a.358.358,0,0,0,.105-.253.346.346,0,0,0-.105-.253.33.33,0,0,0-.25-.107.322.322,0,0,0-.25.107.36.36,0,0,0-.106.253.329.329,0,0,0,.106.253.359.359,0,0,0,.25.107A.338.338,0,0,0,75.223,101.368Z" fill="#f8f7ee"/>
  <path id="Path_54580" data-name="Path 54580" d="M81.438,100.912a1.068,1.068,0,0,0-.577-.157.938.938,0,0,0-.672.264,1.583,1.583,0,0,0-.405.748,2.209,2.209,0,0,0-.055.237,2.2,2.2,0,0,1-.072.264.31.31,0,0,1-.1.135.357.357,0,0,1-.205.051h-2.93v-1.187h-.627v1.294a1.055,1.055,0,0,1-.2.708.78.78,0,0,1-.622.225.735.735,0,0,1-.838-.827,2.661,2.661,0,0,1,.105-.686h-.588a2.759,2.759,0,0,0-.128.788,1.355,1.355,0,0,0,.2.759,1.194,1.194,0,0,0,.527.444,1.771,1.771,0,0,0,.721.141,1.479,1.479,0,0,0,.916-.27,1.285,1.285,0,0,0,.477-.771h2.986a1.006,1.006,0,0,0,.416-.084.841.841,0,0,0,.316-.236,1.377,1.377,0,0,0,.405.242,1.217,1.217,0,0,0,.444.078,1.114,1.114,0,0,0,.527-.129,1.024,1.024,0,0,0,.388-.382,1.145,1.145,0,0,0,.144-.6,1.215,1.215,0,0,0-.15-.607,1.136,1.136,0,0,0-.405-.439Zm-.222,1.44a.546.546,0,0,1-.377.135.873.873,0,0,1-.533-.2.679.679,0,0,0,.022-.089.2.2,0,0,1,.017-.068,1.368,1.368,0,0,1,.061-.259,1.04,1.04,0,0,1,.189-.371.353.353,0,0,1,.277-.118.449.449,0,0,1,.361.163.616.616,0,0,1,.139.405.5.5,0,0,1-.15.388Z" fill="#f8f7ee"/>
  <path id="Path_54581" data-name="Path 54581" d="M83.52,99.568a.194.194,0,0,1-.067-.152.161.161,0,0,1,.055-.135.25.25,0,0,1,.15-.045.458.458,0,0,1,.161.034l.128-.253a.707.707,0,0,0-.311-.079.512.512,0,0,0-.344.118.391.391,0,0,0-.144.309.324.324,0,0,0,.094.247h-.094v.264h.866v-.264H83.68a.24.24,0,0,1-.166-.056Z" fill="#f8f7ee"/>
  <path id="Path_54582" data-name="Path 54582" d="M83.9,100.226h-.627v2.841H83.9Z" fill="#f8f7ee"/>
  <path id="Path_54583" data-name="Path 54583" d="M86.461,102.448v-.242a1.373,1.373,0,0,0-.416-1.08,1.662,1.662,0,0,0-1.143-.371h-.311v.636H84.9a1.59,1.59,0,0,1,.544.078.543.543,0,0,1,.3.253,1.055,1.055,0,0,1,.094.484v.242H84.358v.624h7v-2.025h-.627v1.4Z" fill="#f8f7ee"/>
  <path id="Path_54584" data-name="Path 54584" d="M90.851,103.444a.318.318,0,0,0-.25.107.348.348,0,0,0-.105.253.338.338,0,0,0,.105.253.353.353,0,0,0,.25.107.338.338,0,0,0,.25-.107.371.371,0,0,0,.105-.253.346.346,0,0,0-.105-.253A.326.326,0,0,0,90.851,103.444Z" fill="#f8f7ee"/>
  <path id="Path_54585" data-name="Path 54585" d="M92.426,99.973H91.8v3.094h.627Z" fill="#f8f7ee"/>
  <path id="Path_54586" data-name="Path 54586" d="M32.192,101.9a1.666,1.666,0,0,0-.477-.163l-.455-.084a.64.64,0,0,1-.277-.1.208.208,0,0,1-.078-.175.277.277,0,0,1,.116-.23.517.517,0,0,1,.327-.1.617.617,0,0,1,.278.056.427.427,0,0,1,.183.158.4.4,0,0,1,.061.208h.655a.969.969,0,0,0-.139-.523.938.938,0,0,0-.405-.355,1.493,1.493,0,0,0-.638-.129,1.379,1.379,0,0,0-.594.118.906.906,0,0,0-.377.326.831.831,0,0,0-.133.462.84.84,0,0,0,.083.393.692.692,0,0,0,.255.27,1.344,1.344,0,0,0,.433.152l.461.085a.7.7,0,0,1,.322.123.241.241,0,0,1,.094.2.284.284,0,0,1-.128.236.635.635,0,0,1-.377.09.688.688,0,0,1-.3-.056.47.47,0,0,1-.189-.152.361.361,0,0,1-.067-.213h-.655a.959.959,0,0,0,.144.511.992.992,0,0,0,.416.366,1.457,1.457,0,0,0,.649.135,1.512,1.512,0,0,0,.633-.118.889.889,0,0,0,.394-.326.831.831,0,0,0,.133-.462.875.875,0,0,0-.089-.421.661.661,0,0,0-.266-.276Z" fill="#f8f7ee"/>
  <path id="Path_54587" data-name="Path 54587" d="M33.025,101.16h.816v2.306H34.5V101.16h.816v-.647H33.025Z" fill="#f8f7ee"/>
  <path id="Path_54588" data-name="Path 54588" d="M36.443,100.513l-1,2.953h.721l.189-.6h1.132l.189.6h.721l-1-2.953Zm.089,1.777.339-1.068h.083l.339,1.068Z" fill="#f8f7ee"/>
  <path id="Path_54589" data-name="Path 54589" d="M40.883,102.375a.917.917,0,0,0,.305-.343,1.12,1.12,0,0,0,.111-.495,1.093,1.093,0,0,0-.122-.529.912.912,0,0,0-.338-.36.965.965,0,0,0-.488-.129H38.974v2.953h.655v-.951h.105l.821.951h.821l-.871-.973a.7.7,0,0,0,.372-.124Zm-1.254-.461v-.771h.683a.317.317,0,0,1,.167.051.394.394,0,0,1,.122.135.378.378,0,0,1,.044.2.49.49,0,0,1-.044.2.319.319,0,0,1-.122.135.29.29,0,0,1-.167.051Z" fill="#f8f7ee"/>
  <path id="Path_54590" data-name="Path 54590" d="M41.82,101.16h.816v2.306h.655V101.16h.816v-.647H41.82Z" fill="#f8f7ee"/>
  <path id="Path_54591" data-name="Path 54591" d="M46.666,100.513l-1,2.953h.722l.189-.6H47.7l.189.6h.722l-1-2.953Zm.094,1.777.339-1.068h.083l.339,1.068Z" fill="#f8f7ee"/>
  <path id="Path_54592" data-name="Path 54592" d="M50.478,102.369H51.1a.482.482,0,0,1-.106.231.678.678,0,0,1-.233.191.76.76,0,0,1-.35.079.71.71,0,0,1-.388-.107.751.751,0,0,1-.272-.3,1.115,1.115,0,0,1,0-.922.793.793,0,0,1,.272-.3.747.747,0,0,1,.788.011.683.683,0,0,1,.25.287h.672a1.38,1.38,0,0,0-.233-.495,1.394,1.394,0,0,0-.444-.4,1.309,1.309,0,0,0-.644-.158,1.375,1.375,0,0,0-.716.2,1.407,1.407,0,0,0-.516.54,1.715,1.715,0,0,0,0,1.564,1.381,1.381,0,0,0,.516.54,1.4,1.4,0,0,0,.722.2,1.218,1.218,0,0,0,.327-.045.889.889,0,0,0,.266-.124.936.936,0,0,0,.189-.169h.022l.044.3h.494v-1.558H50.478v.45Z" fill="#f8f7ee"/>
  <path id="Path_54593" data-name="Path 54593" d="M53.28,100.513l-1,2.953H53l.189-.6h1.132l.189.6h.721l-1-2.953Zm.089,1.777.339-1.068h.083l.339,1.068Z" fill="#f8f7ee"/>
  <path id="Path_54594" data-name="Path 54594" d="M56.466,100.513h-.655v2.953h.655Z" fill="#f8f7ee"/>
  <path id="Path_54595" data-name="Path 54595" d="M59.179,102.307H59.1l-.921-1.794h-.81v2.953h.66v-1.789h.083l.927,1.789h.8v-2.953h-.66Z" fill="#f8f7ee"/>
  <path id="Path_54596" data-name="Path 54596" d="M98.2,43.645a.748.748,0,0,0-.982-.293c-.416.152.028-.006-1.038.377a5.18,5.18,0,0,0-.466-1.046c-.9-1.468-1.765-2.9-3.907-3.516a7.17,7.17,0,0,0-3.818.152,4.8,4.8,0,0,0-2.386,1.924c-.6,1.119-.954,4.146,1.421,5.226,1.57.714,3.635.157,5.733-.259a8.884,8.884,0,0,1,.011,1.012,4.286,4.286,0,0,1-1.082,2.531,3.786,3.786,0,0,1-2.658,1.209c-1.354.141-3.529-1.479-3.629-1.558a.848.848,0,0,0-1.082-.146.8.8,0,0,0-.144,1.1,6.659,6.659,0,0,0,4.895,2.869,10.337,10.337,0,0,0,1.72,0,7.2,7.2,0,0,0,3.685-1.755,9.046,9.046,0,0,0,2.12-6.2c1.182-.6.655-.332,1.2-.63.194-.107.638-.619.411-.984Zm-8.635.7a2.032,2.032,0,0,1-1.049-2.115,1.458,1.458,0,0,1,2.1-.686,3.477,3.477,0,0,1,1.9,3.1C90.634,44.8,90.173,44.624,89.568,44.348Z" fill="#f8f7ee"/>
  <path id="Path_54597" data-name="Path 54597" d="M88.925,63.287a.748.748,0,0,0-.982-.292c-.416.152.028-.006-1.038.377a5.182,5.182,0,0,0-.466-1.046c-.9-1.468-1.765-2.9-3.907-3.516a7.17,7.17,0,0,0-3.818.152,4.8,4.8,0,0,0-2.386,1.924c-.6,1.119-.955,4.146,1.421,5.226,1.571.714,3.635.158,5.733-.259a8.883,8.883,0,0,1,.011,1.012A4.285,4.285,0,0,1,82.41,69.4a3.787,3.787,0,0,1-2.658,1.209c-1.354.141-3.53-1.479-3.629-1.558A.848.848,0,0,0,75.04,68.9.8.8,0,0,0,74.9,70a6.659,6.659,0,0,0,4.895,2.869,10.338,10.338,0,0,0,1.72,0A7.2,7.2,0,0,0,85.2,71.117a9.047,9.047,0,0,0,2.12-6.2c1.182-.6.655-.332,1.2-.63.194-.107.638-.619.411-.984Zm-8.641.7a2.032,2.032,0,0,1-1.049-2.115,1.458,1.458,0,0,1,2.1-.686,3.476,3.476,0,0,1,1.9,3.1C81.35,64.44,80.889,64.266,80.284,63.991Z" fill="#f8f7ee"/>
</svg>
