<svg width="14" height="13" viewBox="0 0 14 13" fill="none" xmlns="http://www.w3.org/2000/svg">
<path d="M6.80979 1.08541C6.86966 0.901148 7.13034 0.901148 7.19021 1.08541L8.5267 5.19868C8.55347 5.28109 8.63026 5.33688 8.71691 5.33688H13.0419C13.2356 5.33688 13.3162 5.5848 13.1594 5.69868L9.66046 8.24083C9.59036 8.29176 9.56103 8.38203 9.5878 8.46443L10.9243 12.5777C10.9842 12.762 10.7733 12.9152 10.6165 12.8013L7.11756 10.2592C7.04746 10.2082 6.95254 10.2082 6.88244 10.2592L3.38348 12.8013C3.22674 12.9152 3.01584 12.762 3.07571 12.5777L4.4122 8.46443C4.43897 8.38203 4.40964 8.29176 4.33954 8.24083L0.840584 5.69868C0.683841 5.5848 0.764396 5.33688 0.958141 5.33688H5.28309C5.36974 5.33688 5.44653 5.28109 5.4733 5.19868L6.80979 1.08541Z" fill="#FFCC00"/>
</svg>
