<svg xmlns="http://www.w3.org/2000/svg" width="40" height="29.169" viewBox="0 0 40 29.169">
  <g id="Vector" transform="translate(0 -0.415)">
    <path id="Path_5" data-name="Path 5" d="M27.414,11.2C26.2,1.334,16.407.51,16.007.483,15.521.427,4.092-.759,2.192,9.626a3.8,3.8,0,0,0,.688,3.236,12.966,12.966,0,0,1-2.5,3.486,1.418,1.418,0,0,0-.293,1.443A2.855,2.855,0,0,0,1.692,19.3c.483.222.421,1.381.317,1.9a.928.928,0,0,0,.326.922,1.715,1.715,0,0,1,.637,1.47c-.172.762-.528,2.35.456,3.471.756.859,2.042,1.194,3.927,1.019a24.194,24.194,0,0,0,6.8-1.642.928.928,0,0,0-.708-1.716,23.072,23.072,0,0,1-6.242,1.509,3.135,3.135,0,0,1-2.38-.394c-.317-.359-.207-1.1-.039-1.838a3.356,3.356,0,0,0-.88-2.931c.1-.934.074-2.762-1.434-3.459A2.235,2.235,0,0,1,2,17.332c1.9-2.146,2.83-3.734,2.762-4.721a1.384,1.384,0,0,0-.489-.993c-.4-.335-.344-1.224-.252-1.618a8.591,8.591,0,0,1,6.4-7.169,14.849,14.849,0,0,1,5.385-.5c.024,0,.047.006.065.006.353.021,8.657.584,9.709,9.093a13.876,13.876,0,0,1-1.609,9.232,16.691,16.691,0,0,0-2.119,7.973.914.914,0,0,0,.261.661.924.924,0,0,0,.637.285h.033a.931.931,0,0,0,.928-.91,15.147,15.147,0,0,1,1.929-7.19A15.615,15.615,0,0,0,27.423,11.2Z" fill="#3fbca1"/>
    <path id="Path_6" data-name="Path 6" d="M39.619,16.351a13.012,13.012,0,0,1-2.5-3.485,3.756,3.756,0,0,0,.694-3.207C35.912-.726,24.48.427,24.012.48c-.065,0-.246.018-.516.053a.93.93,0,0,0-.448,1.66.918.918,0,0,0,.685.184c.252-.033.4-.033.4-.041a.74.74,0,0,0,.074-.006,14.794,14.794,0,0,1,5.353.489,8.628,8.628,0,0,1,6.437,7.226c.083.353.13,1.242-.261,1.574a1.384,1.384,0,0,0-.489.993c-.068.987.862,2.573,2.762,4.721a2.316,2.316,0,0,1-.474.281c-1.509.7-1.532,2.525-1.434,3.459A3.356,3.356,0,0,0,35.218,24c.166.741.276,1.476-.038,1.838s-1.188.5-2.4.394a22.677,22.677,0,0,1-6.221-1.506.929.929,0,1,0-.711,1.716,24.323,24.323,0,0,0,6.781,1.642c.326.03.637.044.925.044a3.788,3.788,0,0,0,3.02-1.064c.984-1.12.628-2.706.456-3.471a1.742,1.742,0,0,1,.634-1.467.924.924,0,0,0,.329-.922c-.116-.539-.145-1.689.317-1.9A2.836,2.836,0,0,0,39.916,17.8a1.425,1.425,0,0,0-.293-1.443Z" fill="#3fbca1"/>
    <path id="Path_7" data-name="Path 7" d="M17.829,4.866a.93.93,0,0,0-.507-1.642.908.908,0,0,0-.679.21,11.524,11.524,0,0,0-4.06,7.765,15.615,15.615,0,0,0,1.787,10.282,15.171,15.171,0,0,1,1.929,7.19.934.934,0,0,0,.928.913h.018a.931.931,0,0,0,.913-.945,16.691,16.691,0,0,0-2.119-7.973,13.862,13.862,0,0,1-1.609-9.232,9.748,9.748,0,0,1,3.4-6.562Z" fill="#3fbca1"/>
  </g>
</svg>
