<svg width="12" height="13" viewBox="0 0 12 13" fill="none" xmlns="http://www.w3.org/2000/svg">
<path d="M0.72 4.82H11.52V12.02H0.72V4.82Z" fill="#003333"/>
<path d="M6 7.7C6.11867 7.7 6.23467 7.66481 6.33334 7.59888C6.43201 7.53295 6.50891 7.43925 6.55433 7.32961C6.59974 7.21997 6.61162 7.09933 6.58847 6.98295C6.56532 6.86656 6.50818 6.75965 6.42426 6.67574C6.34035 6.59182 6.23344 6.53468 6.11705 6.51153C6.00067 6.48838 5.88003 6.50026 5.77039 6.54567C5.66075 6.59108 5.56705 6.66799 5.50112 6.76666C5.43519 6.86533 5.4 6.98133 5.4 7.1C5.4 7.25913 5.46321 7.41174 5.57574 7.52426C5.68826 7.63679 5.84087 7.7 6 7.7ZM9 7.7C9.11867 7.7 9.23467 7.66481 9.33334 7.59888C9.43201 7.53295 9.50891 7.43925 9.55433 7.32961C9.59974 7.21997 9.61162 7.09933 9.58847 6.98295C9.56532 6.86656 9.50818 6.75965 9.42426 6.67574C9.34035 6.59182 9.23344 6.53468 9.11705 6.51153C9.00067 6.48838 8.88003 6.50026 8.77039 6.54567C8.66076 6.59108 8.56705 6.66799 8.50112 6.76666C8.43519 6.86533 8.4 6.98133 8.4 7.1C8.4 7.25913 8.46321 7.41174 8.57574 7.52426C8.68826 7.63679 8.84087 7.7 9 7.7ZM6 10.1C6.11867 10.1 6.23467 10.0648 6.33334 9.99888C6.43201 9.93295 6.50891 9.83924 6.55433 9.72961C6.59974 9.61997 6.61162 9.49933 6.58847 9.38295C6.56532 9.26656 6.50818 9.15965 6.42426 9.07574C6.34035 8.99182 6.23344 8.93468 6.11705 8.91153C6.00067 8.88838 5.88003 8.90026 5.77039 8.94567C5.66075 8.99109 5.56705 9.06799 5.50112 9.16666C5.43519 9.26533 5.4 9.38133 5.4 9.5C5.4 9.65913 5.46321 9.81174 5.57574 9.92426C5.68826 10.0368 5.84087 10.1 6 10.1ZM9 10.1C9.11867 10.1 9.23467 10.0648 9.33334 9.99888C9.43201 9.93295 9.50891 9.83924 9.55433 9.72961C9.59974 9.61997 9.61162 9.49933 9.58847 9.38295C9.56532 9.26656 9.50818 9.15965 9.42426 9.07574C9.34035 8.99182 9.23344 8.93468 9.11705 8.91153C9.00067 8.88838 8.88003 8.90026 8.77039 8.94567C8.66076 8.99109 8.56705 9.06799 8.50112 9.16666C8.43519 9.26533 8.4 9.38133 8.4 9.5C8.4 9.65913 8.46321 9.81174 8.57574 9.92426C8.68826 10.0368 8.84087 10.1 9 10.1ZM3 7.7C3.11867 7.7 3.23467 7.66481 3.33334 7.59888C3.43201 7.53295 3.50892 7.43925 3.55433 7.32961C3.59974 7.21997 3.61162 7.09933 3.58847 6.98295C3.56532 6.86656 3.50818 6.75965 3.42426 6.67574C3.34035 6.59182 3.23344 6.53468 3.11705 6.51153C3.00067 6.48838 2.88003 6.50026 2.77039 6.54567C2.66075 6.59108 2.56705 6.66799 2.50112 6.76666C2.43519 6.86533 2.4 6.98133 2.4 7.1C2.4 7.25913 2.46321 7.41174 2.57574 7.52426C2.68826 7.63679 2.84087 7.7 3 7.7ZM10.2 1.7H9.6V1.1C9.6 0.94087 9.53679 0.788258 9.42426 0.675736C9.31174 0.563214 9.15913 0.5 9 0.5C8.84087 0.5 8.68826 0.563214 8.57574 0.675736C8.46321 0.788258 8.4 0.94087 8.4 1.1V1.7H3.6V1.1C3.6 0.94087 3.53679 0.788258 3.42426 0.675736C3.31174 0.563214 3.15913 0.5 3 0.5C2.84087 0.5 2.68826 0.563214 2.57574 0.675736C2.46321 0.788258 2.4 0.94087 2.4 1.1V1.7H1.8C1.32261 1.7 0.864773 1.88964 0.527208 2.22721C0.189642 2.56477 0 3.02261 0 3.5V10.7C0 11.1774 0.189642 11.6352 0.527208 11.9728C0.864773 12.3104 1.32261 12.5 1.8 12.5H10.2C10.6774 12.5 11.1352 12.3104 11.4728 11.9728C11.8104 11.6352 12 11.1774 12 10.7V3.5C12 3.02261 11.8104 2.56477 11.4728 2.22721C11.1352 1.88964 10.6774 1.7 10.2 1.7ZM10.8 10.7C10.8 10.8591 10.7368 11.0117 10.6243 11.1243C10.5117 11.2368 10.3591 11.3 10.2 11.3H1.8C1.64087 11.3 1.48826 11.2368 1.37574 11.1243C1.26321 11.0117 1.2 10.8591 1.2 10.7V5.3H10.8V10.7ZM10.8 4.1H1.2V3.5C1.2 3.34087 1.26321 3.18826 1.37574 3.07574C1.48826 2.96321 1.64087 2.9 1.8 2.9H10.2C10.3591 2.9 10.5117 2.96321 10.6243 3.07574C10.7368 3.18826 10.8 3.34087 10.8 3.5V4.1ZM3 10.1C3.11867 10.1 3.23467 10.0648 3.33334 9.99888C3.43201 9.93295 3.50892 9.83924 3.55433 9.72961C3.59974 9.61997 3.61162 9.49933 3.58847 9.38295C3.56532 9.26656 3.50818 9.15965 3.42426 9.07574C3.34035 8.99182 3.23344 8.93468 3.11705 8.91153C3.00067 8.88838 2.88003 8.90026 2.77039 8.94567C2.66075 8.99109 2.56705 9.06799 2.50112 9.16666C2.43519 9.26533 2.4 9.38133 2.4 9.5C2.4 9.65913 2.46321 9.81174 2.57574 9.92426C2.68826 10.0368 2.84087 10.1 3 10.1Z" fill="#FFFDEE"/>
</svg>
