<svg width="12" height="13" viewBox="0 0 12 13" fill="none" xmlns="http://www.w3.org/2000/svg">
<path d="M11.52 6.6207C11.52 9.60304 9.10233 12.0207 6.12 12.0207C3.13766 12.0207 0.72 9.60304 0.72 6.6207C0.72 3.63836 3.13766 1.2207 6.12 1.2207C9.10233 1.2207 11.52 3.63836 11.52 6.6207Z" fill="#003333"/>
<path d="M7.98 9.32L8.81999 8.48L6.6 6.26V3.5H5.4V6.74L7.98 9.32ZM6 12.5C5.17 12.5 4.39 12.3424 3.66 12.0272C2.93 11.712 2.295 11.2846 1.755 10.745C1.215 10.2054 0.7876 9.5704 0.4728 8.84C0.158001 8.1096 0.000400759 7.3296 7.59493e-07 6.5C-0.00039924 5.6704 0.157201 4.8904 0.4728 4.16C0.7884 3.4296 1.2158 2.7946 1.755 2.255C2.2942 1.7154 2.9292 1.288 3.66 0.9728C4.3908 0.6576 5.1708 0.5 6 0.5C6.8292 0.5 7.60919 0.6576 8.33999 0.9728C9.07079 1.288 9.7058 1.7154 10.245 2.255C10.7842 2.7946 11.2118 3.4296 11.5278 4.16C11.8438 4.8904 12.0012 5.6704 12 6.5C11.9988 7.3296 11.8412 8.1096 11.5272 8.84C11.2132 9.5704 10.7858 10.2054 10.245 10.745C9.7042 11.2846 9.06919 11.7122 8.33999 12.0278C7.6108 12.3434 6.8308 12.5008 6 12.5ZM6 11.3C7.33 11.3 8.46259 10.8326 9.39779 9.8978C10.333 8.963 10.8004 7.8304 10.8 6.5C10.7996 5.1696 10.3322 4.037 9.39779 3.1022C8.4634 2.1674 7.3308 1.7 6 1.7C4.6692 1.7 3.5366 2.1676 2.6022 3.1028C1.6678 4.038 1.2004 5.1704 1.2 6.5C1.1996 7.8296 1.6672 8.9622 2.6028 9.8978C3.5384 10.8334 4.6708 11.3008 6 11.3Z" fill="#FFFDEE"/>
</svg>
