<svg xmlns="http://www.w3.org/2000/svg" width="34.376" height="32.087" viewBox="0 0 34.376 32.087">
  <g id="Group_353" data-name="Group 353" transform="translate(-6314.632 -1177.131)">
    <g id="Group_352" data-name="Group 352" transform="translate(6314.632 1177.131)">
      <path id="Subtraction_4" data-name="Subtraction 4" d="M20.813,31.259a1.426,1.426,0,0,1-1.424-1.425V24.652h-.694v5.183a1.425,1.425,0,0,1-2.849,0V24.652H13.766a.447.447,0,0,1-.368-.19.455.455,0,0,1-.059-.416l1.816-5.153H15.12a1.054,1.054,0,0,1-.843-.415l-2.689-3.516a1.059,1.059,0,0,1-.194-.874,1.077,1.077,0,0,1,.537-.713l5.378-2.816a3.719,3.719,0,0,1,1.728-.5,3.194,3.194,0,0,1,2.755,1.576l2.972,3.756H26.58v2.121H24.253a1.049,1.049,0,0,1-.83-.4l-1.189-1.5v1.313l2.51,7.123a.454.454,0,0,1-.427.606h-2.08v5.184a1.426,1.426,0,0,1-1.424,1.425ZM16.149,13.676l-1.81.952,1.783,2.331.028-.082ZM32.968,31.1H26.16a.364.364,0,0,1-.364-.364v-.37A.364.364,0,0,1,26.16,30H28.1V27.8h2.919V30h1.943a.364.364,0,0,1,.364.364v.37a.363.363,0,0,1-.361.364Zm0-3.9h-6.8a.364.364,0,0,1-.364-.364v-.37a.364.364,0,0,1,.364-.364h1.033V11a.364.364,0,0,1,.364-.364H28L28.591,6.6a.364.364,0,0,1,.361-.312h.306V2.378a.082.082,0,0,1,.021-.061l.424-.5a.087.087,0,0,1,.067-.031.092.092,0,0,1,.093.092V5.5h0V6.29h.307a.364.364,0,0,1,.36.312l.591,4.034h.443a.364.364,0,0,1,.364.364v7.171H29.843a.3.3,0,1,0,0,.606h2.088v1.191H29.843a.3.3,0,1,0,0,.606h2.088v1.191H29.843a.3.3,0,1,0,0,.606h2.088V26.1h1.034a.364.364,0,0,1,.364.364v.37a.364.364,0,0,1-.364.364ZM6.188,12.373a6.186,6.186,0,1,1,6.186-6.186.756.756,0,0,1-1.512,0,4.674,4.674,0,1,0-4.674,4.674.756.756,0,0,1,0,1.512ZM21.774,9.812a4.056,4.056,0,0,1-1.534-.407,1.576,1.576,0,0,0,.668-1.1,2.138,2.138,0,0,1-3.728,0,1.577,1.577,0,0,0,.666,1.1l0,0a4,4,0,0,1-1.53.4,1.031,1.031,0,0,1-1.133-.892,1.6,1.6,0,0,0,.97-1.455c0-.072,0-.156,0-.245-.013-.9-.038-2.58.975-3.505L16.473,2.9a.3.3,0,0,1-.06-.245.3.3,0,0,1,.142-.205,4.88,4.88,0,0,1,4.977,0,.3.3,0,0,1,.143.207.3.3,0,0,1-.062.241l-.649.818c1.014.922.989,2.6.975,3.505,0,.088,0,.172,0,.245a1.59,1.59,0,0,0,.97,1.455,1.031,1.031,0,0,1-1.133.893ZM8.729,6.748H6.539a.9.9,0,0,1-.9-.9V2.836a.546.546,0,1,1,1.093,0v2.82h2a.546.546,0,0,1,0,1.092Z" transform="translate(1.048 0.828)"/>
      <g id="Ellipse_9" data-name="Ellipse 9" transform="translate(0 0)" fill="#fff" stroke="#000" stroke-width="1">
        <ellipse cx="7.662" cy="7.499" rx="7.662" ry="7.499" stroke="none"/>
        <ellipse cx="7.662" cy="7.499" rx="7.162" ry="6.999" fill="none"/>
      </g>
      <path id="Subtraction_12" data-name="Subtraction 12" d="M0,13.575H0L0,6.023V0A6.743,6.743,0,0,1,4.8,1.988a6.788,6.788,0,0,1,0,9.6A6.743,6.743,0,0,1,0,13.575Z" transform="translate(7.805 0.744)"/>
      <text id="_12" data-name="12" transform="translate(2 9.331)" font-size="4" font-family="GraphikArabic-Medium, Graphik Arabic" font-weight="500"><tspan x="0" y="0">12</tspan></text>
      <text id="_12-2" data-name="12" transform="translate(9 9.331)" fill="#fff" font-size="4" font-family="GraphikArabic-Medium, Graphik Arabic" font-weight="500"><tspan x="0" y="0">12</tspan></text>
    </g>
  </g>
</svg>
