<svg xmlns="http://www.w3.org/2000/svg" width="31.377" height="29.43" viewBox="0 0 31.377 29.43">
  <g id="Group_354" data-name="Group 354" transform="translate(-1572.002 -1774.501)">
    <g id="Group_119" data-name="Group 119" transform="translate(1572.002 1774.501)">
      <path id="Subtraction_5" data-name="Subtraction 5" d="M19.6,29.431a1.343,1.343,0,0,1-1.341-1.341V23.21H17.6v4.88a1.341,1.341,0,1,1-2.683,0V23.21H12.961a.421.421,0,0,1-.347-.179.428.428,0,0,1-.056-.392l1.709-4.851h-.033a.992.992,0,0,1-.793-.391l-2.531-3.311a1,1,0,0,1-.183-.823,1.014,1.014,0,0,1,.505-.671L16.3,9.942a3.5,3.5,0,0,1,1.627-.471,3.007,3.007,0,0,1,2.594,1.484l2.8,3.536h1.71v2h-2.19a.987.987,0,0,1-.782-.38L20.934,14.7v1.236L23.3,22.639a.428.428,0,0,1-.4.57H20.936V28.09a1.343,1.343,0,0,1-1.34,1.341ZM15.2,12.876l-1.7.9,1.679,2.194.026-.077ZM31.04,29.28H24.63a.343.343,0,0,1-.342-.343v-.348a.343.343,0,0,1,.342-.342h1.829V26.173h2.748v2.074h1.83a.343.343,0,0,1,.342.342v.348a.342.342,0,0,1-.34.343Zm0-3.675H24.63a.343.343,0,0,1-.342-.342v-.348a.343.343,0,0,1,.342-.343H25.6V10.357a.343.343,0,0,1,.343-.343h.416l.556-3.8a.343.343,0,0,1,.34-.294h.288V2.239a.078.078,0,0,1,.02-.057l.4-.466a.082.082,0,0,1,.064-.03.086.086,0,0,1,.088.087V5.18h0v.742h.289a.343.343,0,0,1,.339.294l.556,3.8h.417a.343.343,0,0,1,.342.343v6.752H28.1a.285.285,0,1,0,0,.57h1.966V18.8H28.1a.285.285,0,1,0,0,.57h1.966v1.121H28.1a.285.285,0,1,0,0,.57h1.966v3.508h.973a.343.343,0,0,1,.342.343v.348a.343.343,0,0,1-.342.343ZM5.826,11.65a5.824,5.824,0,1,1,5.825-5.825.712.712,0,0,1-1.423,0,4.4,4.4,0,1,0-4.4,4.4.712.712,0,0,1,0,1.424ZM20.5,9.238a3.818,3.818,0,0,1-1.444-.383,1.484,1.484,0,0,0,.629-1.039,2.013,2.013,0,0,1-3.51,0A1.485,1.485,0,0,0,16.8,8.855l0,0a3.767,3.767,0,0,1-1.44.381A.971.971,0,0,1,14.291,8.4a1.5,1.5,0,0,0,.913-1.37c0-.068,0-.147,0-.23-.013-.849-.036-2.429.918-3.3l-.611-.77a.287.287,0,0,1-.057-.23.283.283,0,0,1,.134-.193,4.6,4.6,0,0,1,4.686,0,.285.285,0,0,1,.135.2.281.281,0,0,1-.058.227l-.611.771c.955.868.931,2.45.918,3.3,0,.083,0,.162,0,.23a1.5,1.5,0,0,0,.913,1.37.971.971,0,0,1-1.067.841ZM8.219,6.354H6.157a.846.846,0,0,1-.845-.845V2.671a.514.514,0,1,1,1.029,0V5.325H8.219a.514.514,0,1,1,0,1.028Z" transform="translate(-0.002 -0.001)"/>
      <text id="_24" data-name="24" transform="translate(6.583 10.102)" font-size="5" font-family="GraphikArabic-Medium, Graphik Arabic" font-weight="500"><tspan x="0" y="0">24</tspan></text>
    </g>
  </g>
</svg>
