<svg xmlns="http://www.w3.org/2000/svg" xmlns:xlink="http://www.w3.org/1999/xlink" width="80" height="82" viewBox="0 0 80 82">
  <defs>
    <clipPath id="clip-path">
      <rect id="Rectangle_47" data-name="Rectangle 47" width="80" height="82" transform="translate(10885 4163.11)" fill="#fff" stroke="#707070" stroke-width="1"/>
    </clipPath>
    <clipPath id="clip-path-2">
      <rect id="Rectangle_45" data-name="Rectangle 45" width="9" height="11" transform="translate(0.419 0.38)" fill="#fff" stroke="#707070" stroke-width="1"/>
    </clipPath>
  </defs>
  <g id="Mask_Group_22" data-name="Mask Group 22" transform="translate(-10885 -4163.11)" clip-path="url(#clip-path)">
    <g id="Group_711" data-name="Group 711" transform="translate(10860.867 4124.587)">
      <g id="Group_710" data-name="Group 710" transform="translate(0 0)">
        <rect id="Rectangle_46" data-name="Rectangle 46" width="10" height="12" rx="5" transform="translate(0.133 -0.477)"/>
        <g id="Mask_Group_21" data-name="Mask Group 21" transform="translate(0.714 0.143)" clip-path="url(#clip-path-2)">
          <g id="noun-x-ray-3401538" transform="translate(-4.291 0.033)">
            <path id="Path_700" data-name="Path 700" d="M96.245,20.329H93.683a1.063,1.063,0,0,0-.251-.482.543.543,0,0,0-.391-.181H92.61a1.759,1.759,0,0,0,.226-.934,1.682,1.682,0,0,0-.271-.907.7.7,0,0,0-1.234,0,1.682,1.682,0,0,0-.271.907,1.759,1.759,0,0,0,.226.934h-.431a.543.543,0,0,0-.391.181,1.063,1.063,0,0,0-.251.482H87.652c-.082,0-.148.1-.148.221v7.518a.285.285,0,0,0,.043.156.13.13,0,0,0,.1.065h2.963V29.7a1.319,1.319,0,0,0,.2.723.6.6,0,0,0,.485.3h1.3a.6.6,0,0,0,.485-.3,1.319,1.319,0,0,0,.2-.723v-1.41h2.963a.13.13,0,0,0,.1-.065.285.285,0,0,0,.043-.156V20.55a.285.285,0,0,0-.043-.156.13.13,0,0,0-.1-.065Zm-4.889-1.548a1.141,1.141,0,0,1,.174-.625.469.469,0,0,1,.838,0,1.214,1.214,0,0,1,0,1.251.469.469,0,0,1-.838,0A1.141,1.141,0,0,1,91.356,18.781Zm-.5,1.327h2.185a.363.363,0,0,1,.306.221h-2.8a.363.363,0,0,1,.306-.221Zm.352,1.548H91.8V22.1h-.593Zm0-.442v-.442H91.8v.442ZM91.8,22.54v.442h-.253a.287.287,0,0,1-.224-.127.613.613,0,0,1-.112-.316Zm.3,0h.589a.613.613,0,0,1-.112.316.287.287,0,0,1-.224.127H92.1Zm.593-.442H92.1v-.442h.593Zm0-.884H92.1v-.442h.593ZM87.8,20.771h2.634l-.243,1.812a.47.47,0,0,0-.166.345.568.568,0,0,0,.105.395l-.23,2.062a.418.418,0,0,0-.284.3l-.023.069.265.2.023-.069c.014-.044.046-.069.078-.064a.1.1,0,0,1,.067.088l.287-.107h0a.632.632,0,0,0-.127-.3l.236-2.108a.375.375,0,0,0,.157-.207.64.64,0,0,0,.026-.31.489.489,0,0,0-.118-.259l.248-1.85h.175v1.7a1.225,1.225,0,0,0,.186.671.557.557,0,0,0,.449.278H91.8v.442h-.3a.543.543,0,0,0-.452.313,1.213,1.213,0,0,0-.132.717.968.968,0,0,0,.282.614l-.13,2.335H87.8Zm3.568,7.075.124-2.211H92.4l.124,2.211Zm1.024-2.653h-.3v-.884h.3a.3.3,0,0,1,.257.221.636.636,0,0,1,0,.442A.3.3,0,0,1,92.393,25.193Zm-.593,0h-.3a.3.3,0,0,1-.257-.221.636.636,0,0,1,0-.442.3.3,0,0,1,.257-.221h.3Zm-.889,4.5v-1.41H91.8v1.99h-.5a.34.34,0,0,1-.275-.17.749.749,0,0,1-.114-.41Zm2.074,0a.749.749,0,0,1-.114.41.34.34,0,0,1-.275.17h-.5v-1.99h.889ZM96.1,27.846H92.826l-.13-2.335a.968.968,0,0,0,.282-.614,1.214,1.214,0,0,0-.132-.718.542.542,0,0,0-.453-.313h-.3v-.442h.253a.557.557,0,0,0,.449-.278,1.225,1.225,0,0,0,.186-.671v-1.7h.175l.248,1.849h0a.488.488,0,0,0-.118.259.639.639,0,0,0,.026.311.375.375,0,0,0,.158.207l.236,2.108a.632.632,0,0,0-.127.3l.287.107a.1.1,0,0,1,.067-.088c.032-.005.064.02.078.064l.023.069.265-.2-.023-.069a.418.418,0,0,0-.284-.3l-.23-2.062a.568.568,0,0,0,.105-.395.471.471,0,0,0-.166-.345l-.243-1.813H96.1Z" transform="translate(-83.118 -17.453)" fill="#fff"/>
            <path id="Path_701" data-name="Path 701" d="M122.5,166.471v.663h.5v-.442h.5v-.442h-.751A.237.237,0,0,0,122.5,166.471Z" transform="translate(-117.569 -162.49)" fill="#fff"/>
            <path id="Path_702" data-name="Path 702" d="M123,376.25h-.5v.663a.209.209,0,0,0,.073.156.268.268,0,0,0,.177.065h.751v-.442H123Z" transform="translate(-117.569 -367.184)" fill="#fff"/>
            <path id="Path_703" data-name="Path 703" d="M541.911,167.134h.5v-.663a.209.209,0,0,0-.073-.156.268.268,0,0,0-.177-.065h-.751v.442h.5Z" transform="translate(-529.702 -162.49)" fill="#fff"/>
            <path id="Path_704" data-name="Path 704" d="M542.411,376.913v-.663h-.5v.442h-.5v.442h.751a.268.268,0,0,0,.177-.065A.209.209,0,0,0,542.411,376.913Z" transform="translate(-529.702 -367.184)" fill="#fff"/>
            <g id="Group_657" data-name="Group 657" transform="translate(0.004 14.022)">
              <path id="Path_705" data-name="Path 705" d="M.363-3.965.346-3.96l-.018,0a.07.07,0,0,1-.046-.014A.048.048,0,0,1,.266-4.01a.047.047,0,0,1,.017-.038.069.069,0,0,1,.046-.014l.018,0,.017.006v.021L.346-4.041l-.017,0A.034.034,0,0,0,.3-4.034.032.032,0,0,0,.3-4.01.033.033,0,0,0,.3-3.985a.035.035,0,0,0,.025.009l.017,0,.016-.008Z" transform="translate(-0.266 4.062)"/>
            </g>
            <g id="Group_658" data-name="Group 658" transform="translate(0.125 14.047)">
              <path id="Path_706" data-name="Path 706" d="M.517-3.04l-.007,0H.5a.021.021,0,0,0-.017.006.025.025,0,0,0-.005.017v.035H.453v-.075H.481v.012a.029.029,0,0,1,.012-.011.036.036,0,0,1,.017,0H.517Z" transform="translate(-0.453 3.063)"/>
            </g>
            <g id="Group_659" data-name="Group 659" transform="translate(0.196 14.047)">
              <path id="Path_707" data-name="Path 707" d="M.326-3.023v.007H.262A.019.019,0,0,0,.269-3,.029.029,0,0,0,.286-3L.3-3l.018-.007v.019L.3-2.985l-.019,0a.056.056,0,0,1-.036-.01.036.036,0,0,1-.013-.03.036.036,0,0,1,.013-.029.053.053,0,0,1,.035-.011.047.047,0,0,1,.032.011.037.037,0,0,1,.012.029ZM.3-3.031a.013.013,0,0,0,0-.011.016.016,0,0,0-.012,0,.02.02,0,0,0-.013,0,.018.018,0,0,0-.006.011Z" transform="translate(-0.234 3.063)"/>
            </g>
            <g id="Group_660" data-name="Group 660" transform="translate(0.302 14.047)">
              <path id="Path_708" data-name="Path 708" d="M.279-3.019a.025.025,0,0,0-.013,0,.008.008,0,0,0,0,.008A.009.009,0,0,0,.265-3a.017.017,0,0,0,.01,0A.019.019,0,0,0,.288-3a.016.016,0,0,0,.005-.012v0Zm.042-.009v.043H.293V-3a.033.033,0,0,1-.013.01.039.039,0,0,1-.017,0A.034.034,0,0,1,.243-2.99a.023.023,0,0,1-.008-.018.021.021,0,0,1,.01-.02.065.065,0,0,1,.033-.006H.293v0a.008.008,0,0,0-.005-.008.034.034,0,0,0-.016,0l-.017,0-.014,0v-.018l.017,0H.277a.054.054,0,0,1,.034.008.031.031,0,0,1,.01.026Z" transform="translate(-0.234 3.063)"/>
            </g>
            <g id="Group_661" data-name="Group 661" transform="translate(0.403 14.027)">
              <path id="Path_709" data-name="Path 709" d="M.119-3.844v.022H.147v.017H.119v.032a.009.009,0,0,0,0,.007l.01,0H.145v.017H.121A.035.035,0,0,1,.1-3.753a.026.026,0,0,1-.007-.02v-.032H.078v-.017H.092v-.022Z" transform="translate(-0.078 3.844)"/>
            </g>
            <g id="Group_662" data-name="Group 662" transform="translate(0.482 14.047)">
              <path id="Path_710" data-name="Path 710" d="M.326-3.023v.007H.262A.019.019,0,0,0,.269-3,.029.029,0,0,0,.286-3L.3-3l.018-.007v.019L.3-2.985l-.019,0a.056.056,0,0,1-.036-.01.036.036,0,0,1-.013-.03.036.036,0,0,1,.013-.029.053.053,0,0,1,.035-.011.047.047,0,0,1,.032.011.037.037,0,0,1,.012.029ZM.3-3.031a.013.013,0,0,0,0-.011.016.016,0,0,0-.012,0,.02.02,0,0,0-.013,0,.018.018,0,0,0-.006.011Z" transform="translate(-0.234 3.063)"/>
            </g>
            <g id="Group_663" data-name="Group 663" transform="translate(0.589 14.019)">
              <path id="Path_711" data-name="Path 711" d="M.314-4.116v-.041H.342v.105H.314v-.011a.037.037,0,0,1-.013.01.037.037,0,0,1-.016,0A.034.034,0,0,1,.26-4.06a.041.041,0,0,1-.01-.029.041.041,0,0,1,.01-.028.035.035,0,0,1,.026-.011.036.036,0,0,1,.015,0,.039.039,0,0,1,.013.01ZM.3-4.067a.016.016,0,0,0,.013-.006.026.026,0,0,0,0-.017.024.024,0,0,0,0-.016A.016.016,0,0,0,.3-4.111a.016.016,0,0,0-.013.006.025.025,0,0,0,0,.016.027.027,0,0,0,0,.017A.017.017,0,0,0,.3-4.067Z" transform="translate(-0.25 4.156)"/>
            </g>
            <g id="Group_664" data-name="Group 664" transform="translate(0.761 14.019)">
              <path id="Path_712" data-name="Path 712" d="M.5-4.067a.016.016,0,0,0,.013-.006.026.026,0,0,0,0-.017.024.024,0,0,0,0-.016A.016.016,0,0,0,.5-4.111a.016.016,0,0,0-.013.006.025.025,0,0,0,0,.016.027.027,0,0,0,0,.017A.017.017,0,0,0,.5-4.067ZM.481-4.116a.035.035,0,0,1,.012-.01.039.039,0,0,1,.016,0,.034.034,0,0,1,.026.011.04.04,0,0,1,.01.028.041.041,0,0,1-.01.029.034.034,0,0,1-.026.011.039.039,0,0,1-.016,0,.033.033,0,0,1-.012-.01v.011H.453v-.105H.481Z" transform="translate(-0.453 4.156)"/>
            </g>
            <g id="Group_665" data-name="Group 665" transform="translate(0.862 14.049)">
              <path id="Path_713" data-name="Path 713" d="M.063-2.984H.09l.023.051.02-.051H.16L.124-2.9a.042.042,0,0,1-.013.018.033.033,0,0,1-.019.005H.076V-2.9H.085l.01,0A.014.014,0,0,0,.1-2.9v0Z" transform="translate(-0.063 2.984)"/>
            </g>
            <g id="Group_666" data-name="Group 666" transform="translate(1.031 14.023)">
              <path id="Path_714" data-name="Path 714" d="M.5-3.984H.538l.026.054.026-.054H.627v.1H.6v-.074L.573-3.9H.554L.528-3.958v.074H.5Z" transform="translate(-0.5 3.984)"/>
            </g>
            <g id="Group_667" data-name="Group 667" transform="translate(1.179 14.047)">
              <path id="Path_715" data-name="Path 715" d="M.279-3.019a.025.025,0,0,0-.013,0,.008.008,0,0,0,0,.008A.009.009,0,0,0,.265-3a.017.017,0,0,0,.01,0A.019.019,0,0,0,.288-3a.016.016,0,0,0,.005-.012v0Zm.042-.009v.043H.293V-3a.033.033,0,0,1-.013.01.039.039,0,0,1-.017,0A.034.034,0,0,1,.243-2.99a.023.023,0,0,1-.008-.018.021.021,0,0,1,.01-.02.065.065,0,0,1,.033-.006H.293v0a.008.008,0,0,0-.005-.008.034.034,0,0,0-.016,0l-.017,0-.014,0v-.018l.017,0H.277a.054.054,0,0,1,.034.008.031.031,0,0,1,.01.026Z" transform="translate(-0.234 3.063)"/>
            </g>
            <g id="Group_668" data-name="Group 668" transform="translate(1.29 14.047)">
              <path id="Path_716" data-name="Path 716" d="M.539-3.031v.046H.512V-3.02c0-.007,0-.011,0-.013a.011.011,0,0,0,0-.006l0,0-.006,0a.017.017,0,0,0-.014.006.026.026,0,0,0,0,.016v.037H.453V-3.06H.481v.011a.037.037,0,0,1,.013-.01.037.037,0,0,1,.015,0,.029.029,0,0,1,.022.008.031.031,0,0,1,.008.023Z" transform="translate(-0.453 3.062)"/>
            </g>
            <g id="Group_669" data-name="Group 669" transform="translate(1.391 14.027)">
              <path id="Path_717" data-name="Path 717" d="M.119-3.844v.022H.147v.017H.119v.032a.009.009,0,0,0,0,.007l.01,0H.145v.017H.121A.035.035,0,0,1,.1-3.753a.026.026,0,0,1-.007-.02v-.032H.078v-.017H.092v-.022Z" transform="translate(-0.078 3.844)"/>
            </g>
            <g id="Group_670" data-name="Group 670" transform="translate(1.477 14.019)">
              <path id="Path_718" data-name="Path 718" d="M.539-4.1v.046H.512v-.035c0-.007,0-.011,0-.013a.011.011,0,0,0,0-.006l0,0L.5-4.11A.017.017,0,0,0,.485-4.1a.026.026,0,0,0,0,.016v.037H.453v-.105H.481v.041a.037.037,0,0,1,.013-.01.037.037,0,0,1,.015,0,.029.029,0,0,1,.022.008A.031.031,0,0,1,.539-4.1Z" transform="translate(-0.453 4.156)"/>
            </g>
            <g id="Group_671" data-name="Group 671" transform="translate(1.582 14.047)">
              <path id="Path_719" data-name="Path 719" d="M.279-3.019a.025.025,0,0,0-.013,0,.008.008,0,0,0,0,.008A.009.009,0,0,0,.265-3a.017.017,0,0,0,.01,0A.019.019,0,0,0,.288-3a.016.016,0,0,0,.005-.012v0Zm.042-.009v.043H.293V-3a.033.033,0,0,1-.013.01.039.039,0,0,1-.017,0A.034.034,0,0,1,.243-2.99a.023.023,0,0,1-.008-.018.021.021,0,0,1,.01-.02.065.065,0,0,1,.033-.006H.293v0a.008.008,0,0,0-.005-.008.034.034,0,0,0-.016,0l-.017,0-.014,0v-.018l.017,0H.277a.054.054,0,0,1,.034.008.031.031,0,0,1,.01.026Z" transform="translate(-0.234 3.063)"/>
            </g>
            <g id="Group_672" data-name="Group 672" transform="translate(1.694 14.047)">
              <path id="Path_720" data-name="Path 720" d="M.539-3.031v.046H.512V-3.02c0-.007,0-.011,0-.013a.011.011,0,0,0,0-.006l0,0-.006,0a.017.017,0,0,0-.014.006.026.026,0,0,0,0,.016v.037H.453V-3.06H.481v.011a.037.037,0,0,1,.013-.01.037.037,0,0,1,.015,0,.029.029,0,0,1,.022.008.031.031,0,0,1,.008.023Z" transform="translate(-0.453 3.062)"/>
            </g>
            <g id="Group_673" data-name="Group 673" transform="translate(1.799 14.047)">
              <path id="Path_721" data-name="Path 721" d="M.279-3.019a.025.025,0,0,0-.013,0,.008.008,0,0,0,0,.008A.009.009,0,0,0,.265-3a.017.017,0,0,0,.01,0A.019.019,0,0,0,.288-3a.016.016,0,0,0,.005-.012v0Zm.042-.009v.043H.293V-3a.033.033,0,0,1-.013.01.039.039,0,0,1-.017,0A.034.034,0,0,1,.243-2.99a.023.023,0,0,1-.008-.018.021.021,0,0,1,.01-.02.065.065,0,0,1,.033-.006H.293v0a.008.008,0,0,0-.005-.008.034.034,0,0,0-.016,0l-.017,0-.014,0v-.018l.017,0H.277a.054.054,0,0,1,.034.008.031.031,0,0,1,.01.026Z" transform="translate(-0.234 3.063)"/>
            </g>
            <g id="Group_674" data-name="Group 674" transform="translate(1.953 14.023)">
              <path id="Path_722" data-name="Path 722" d="M.031-3.984H.136v.02H.1v.081H.069v-.081H.031Z" transform="translate(-0.031 3.984)"/>
            </g>
            <g id="Group_675" data-name="Group 675" transform="translate(2.072 14.019)">
              <path id="Path_723" data-name="Path 723" d="M.539-4.1v.046H.512v-.035c0-.007,0-.011,0-.013a.011.011,0,0,0,0-.006l0,0L.5-4.11A.017.017,0,0,0,.485-4.1a.026.026,0,0,0,0,.016v.037H.453v-.105H.481v.041a.037.037,0,0,1,.013-.01.037.037,0,0,1,.015,0,.029.029,0,0,1,.022.008A.031.031,0,0,1,.539-4.1Z" transform="translate(-0.453 4.156)"/>
            </g>
            <g id="Group_676" data-name="Group 676" transform="translate(2.177 14.047)">
              <path id="Path_724" data-name="Path 724" d="M.279-3.019a.025.025,0,0,0-.013,0,.008.008,0,0,0,0,.008A.009.009,0,0,0,.265-3a.017.017,0,0,0,.01,0A.019.019,0,0,0,.288-3a.016.016,0,0,0,.005-.012v0Zm.042-.009v.043H.293V-3a.033.033,0,0,1-.013.01.039.039,0,0,1-.017,0A.034.034,0,0,1,.243-2.99a.023.023,0,0,1-.008-.018.021.021,0,0,1,.01-.02.065.065,0,0,1,.033-.006H.293v0a.008.008,0,0,0-.005-.008.034.034,0,0,0-.016,0l-.017,0-.014,0v-.018l.017,0H.277a.054.054,0,0,1,.034.008.031.031,0,0,1,.01.026Z" transform="translate(-0.234 3.063)"/>
            </g>
            <g id="Group_677" data-name="Group 677" transform="translate(2.289 14.047)">
              <path id="Path_725" data-name="Path 725" d="M.517-3.04l-.007,0H.5a.021.021,0,0,0-.017.006.025.025,0,0,0-.005.017v.035H.453v-.075H.481v.012a.029.029,0,0,1,.012-.011.036.036,0,0,1,.017,0H.517Z" transform="translate(-0.453 3.063)"/>
            </g>
            <g id="Group_678" data-name="Group 678" transform="translate(2.359 14.047)">
              <path id="Path_726" data-name="Path 726" d="M.279-3.019a.025.025,0,0,0-.013,0,.008.008,0,0,0,0,.008A.009.009,0,0,0,.265-3a.017.017,0,0,0,.01,0A.019.019,0,0,0,.288-3a.016.016,0,0,0,.005-.012v0Zm.042-.009v.043H.293V-3a.033.033,0,0,1-.013.01.039.039,0,0,1-.017,0A.034.034,0,0,1,.243-2.99a.023.023,0,0,1-.008-.018.021.021,0,0,1,.01-.02.065.065,0,0,1,.033-.006H.293v0a.008.008,0,0,0-.005-.008.034.034,0,0,0-.016,0l-.017,0-.014,0v-.018l.017,0H.277a.054.054,0,0,1,.034.008.031.031,0,0,1,.01.026Z" transform="translate(-0.234 3.063)"/>
            </g>
            <g id="Group_679" data-name="Group 679" transform="translate(2.471 14.047)">
              <path id="Path_727" data-name="Path 727" d="M.481-3v.04H.453v-.1H.481v.011a.035.035,0,0,1,.012-.01.039.039,0,0,1,.016,0,.034.034,0,0,1,.026.011.04.04,0,0,1,.01.028.041.041,0,0,1-.01.029.034.034,0,0,1-.026.011.039.039,0,0,1-.016,0A.033.033,0,0,1,.481-3ZM.5-3.045a.016.016,0,0,0-.013.006.025.025,0,0,0,0,.016.027.027,0,0,0,0,.017A.017.017,0,0,0,.5-3a.016.016,0,0,0,.013-.006.026.026,0,0,0,0-.017.024.024,0,0,0,0-.016A.016.016,0,0,0,.5-3.045Z" transform="translate(-0.453 3.063)"/>
            </g>
            <g id="Group_680" data-name="Group 680" transform="translate(2.577 14.047)">
              <path id="Path_728" data-name="Path 728" d="M.281-3.045a.017.017,0,0,0-.014.006.025.025,0,0,0,0,.016.027.027,0,0,0,0,.017A.017.017,0,0,0,.281-3,.018.018,0,0,0,.3-3.006a.026.026,0,0,0,0-.017.024.024,0,0,0,0-.016A.017.017,0,0,0,.281-3.045Zm0-.017a.05.05,0,0,1,.034.011.036.036,0,0,1,.013.029.037.037,0,0,1-.013.03.051.051,0,0,1-.034.01.052.052,0,0,1-.034-.01.037.037,0,0,1-.013-.03.035.035,0,0,1,.013-.029A.051.051,0,0,1,.281-3.062Z" transform="translate(-0.234 3.063)"/>
            </g>
            <g id="Group_681" data-name="Group 681" transform="translate(2.691 14.047)">
              <path id="Path_729" data-name="Path 729" d="M.517-3.04l-.007,0H.5a.021.021,0,0,0-.017.006.025.025,0,0,0-.005.017v.035H.453v-.075H.481v.012a.029.029,0,0,1,.012-.011.036.036,0,0,1,.017,0H.517Z" transform="translate(-0.453 3.063)"/>
            </g>
            <g id="Group_682" data-name="Group 682" transform="translate(2.768 14.047)">
              <path id="Path_730" data-name="Path 730" d="M.539-3.031v.046H.512V-3.02c0-.007,0-.011,0-.013a.011.011,0,0,0,0-.006l0,0-.006,0a.017.017,0,0,0-.014.006.026.026,0,0,0,0,.016v.037H.453V-3.06H.481v.011a.037.037,0,0,1,.013-.01.037.037,0,0,1,.015,0,.029.029,0,0,1,.022.008.031.031,0,0,1,.008.023Z" transform="translate(-0.453 3.062)"/>
            </g>
            <g id="Group_683" data-name="Group 683" transform="translate(2.874 14.047)">
              <path id="Path_731" data-name="Path 731" d="M.353-3.058v.018l-.017,0-.016,0-.012,0a.005.005,0,0,0,0,.005.005.005,0,0,0,0,0l.011,0h0a.062.062,0,0,1,.028.008.019.019,0,0,1,.008.017.02.02,0,0,1-.01.018.06.06,0,0,1-.03.006H.3l-.018,0v-.018L.3-3,.317-3,.329-3a.006.006,0,0,0,0-.006.005.005,0,0,0,0-.005l-.011,0h0a.054.054,0,0,1-.026-.008.019.019,0,0,1-.007-.017.019.019,0,0,1,.009-.018.055.055,0,0,1,.029-.006H.335l.018,0Z" transform="translate(-0.281 3.062)"/>
            </g>
            <g id="Group_684" data-name="Group 684" transform="translate(2.966 14.047)">
              <path id="Path_732" data-name="Path 732" d="M.279-3.019a.025.025,0,0,0-.013,0,.008.008,0,0,0,0,.008A.009.009,0,0,0,.265-3a.017.017,0,0,0,.01,0A.019.019,0,0,0,.288-3a.016.016,0,0,0,.005-.012v0Zm.042-.009v.043H.293V-3a.033.033,0,0,1-.013.01.039.039,0,0,1-.017,0A.034.034,0,0,1,.243-2.99a.023.023,0,0,1-.008-.018.021.021,0,0,1,.01-.02.065.065,0,0,1,.033-.006H.293v0a.008.008,0,0,0-.005-.008.034.034,0,0,0-.016,0l-.017,0-.014,0v-.018l.017,0H.277a.054.054,0,0,1,.034.008.031.031,0,0,1,.01.026Z" transform="translate(-0.234 3.063)"/>
            </g>
            <g id="Group_685" data-name="Group 685" transform="translate(3.078 14.019)">
              <path id="Path_733" data-name="Path 733" d="M.453-4.156H.481V-4.1l.031-.028H.544L.5-4.092l.045.041H.514L.481-4.083v.032H.453Z" transform="translate(-0.453 4.156)"/>
            </g>
            <g id="Group_686" data-name="Group 686" transform="translate(3.181 14.049)">
              <path id="Path_734" data-name="Path 734" d="M.422-2.939v-.046H.45v.035a.131.131,0,0,0,0,.013.01.01,0,0,0,0,.006l0,0H.463a.017.017,0,0,0,.013-.006.025.025,0,0,0,0-.016v-.037H.508v.075H.481V-2.92a.041.041,0,0,1-.013.01.036.036,0,0,1-.015,0,.031.031,0,0,1-.023-.008.033.033,0,0,1-.008-.024Z" transform="translate(-0.422 2.984)"/>
            </g>
            <g id="Group_687" data-name="Group 687" transform="translate(3.293 14.019)">
              <path id="Path_735" data-name="Path 735" d="M.453-4.156H.481v.105H.453Z" transform="translate(-0.453 4.156)"/>
            </g>
            <g id="Group_688" data-name="Group 688" transform="translate(3.339 14.049)">
              <path id="Path_736" data-name="Path 736" d="M.187-2.984H.214l.014.052.014-.052H.266l.014.051.015-.051H.321L.3-2.909H.269L.255-2.961.24-2.909H.21Z" transform="translate(-0.187 2.984)"/>
            </g>
            <g id="Group_689" data-name="Group 689" transform="translate(3.485 14.047)">
              <path id="Path_737" data-name="Path 737" d="M.281-3.045a.017.017,0,0,0-.014.006.025.025,0,0,0,0,.016.027.027,0,0,0,0,.017A.017.017,0,0,0,.281-3,.018.018,0,0,0,.3-3.006a.026.026,0,0,0,0-.017.024.024,0,0,0,0-.016A.017.017,0,0,0,.281-3.045Zm0-.017a.05.05,0,0,1,.034.011.036.036,0,0,1,.013.029.037.037,0,0,1-.013.03.051.051,0,0,1-.034.01.052.052,0,0,1-.034-.01.037.037,0,0,1-.013-.03.035.035,0,0,1,.013-.029A.051.051,0,0,1,.281-3.062Z" transform="translate(-0.234 3.063)"/>
            </g>
            <g id="Group_690" data-name="Group 690" transform="translate(3.599 14.047)">
              <path id="Path_738" data-name="Path 738" d="M.539-3.031v.046H.512V-3.02c0-.007,0-.011,0-.013a.011.011,0,0,0,0-.006l0,0-.006,0a.017.017,0,0,0-.014.006.026.026,0,0,0,0,.016v.037H.453V-3.06H.481v.011a.037.037,0,0,1,.013-.01.037.037,0,0,1,.015,0,.029.029,0,0,1,.022.008.031.031,0,0,1,.008.023Z" transform="translate(-0.453 3.062)"/>
            </g>
            <g id="Group_691" data-name="Group 691" transform="translate(3.704 14.047)">
              <path id="Path_739" data-name="Path 739" d="M.314-3A.04.04,0,0,1,.3-2.988a.036.036,0,0,1-.016,0A.034.034,0,0,1,.26-3a.039.039,0,0,1-.01-.028.038.038,0,0,1,.01-.028.034.034,0,0,1,.026-.011.037.037,0,0,1,.016,0,.04.04,0,0,1,.013.01v-.011H.342v.068a.032.032,0,0,1-.013.028.063.063,0,0,1-.038.01H.275l-.015,0v-.019l.014.005.014,0a.031.031,0,0,0,.02-.005.02.02,0,0,0,.006-.016ZM.3-3.045a.017.017,0,0,0-.013.006.025.025,0,0,0,0,.016.024.024,0,0,0,0,.016A.017.017,0,0,0,.3-3a.017.017,0,0,0,.013-.006.023.023,0,0,0,0-.016.023.023,0,0,0,0-.016A.017.017,0,0,0,.3-3.045Z" transform="translate(-0.25 3.063)"/>
            </g>
            <g id="Group_692" data-name="Group 692" transform="translate(0 14.157)">
              <path id="Path_740" data-name="Path 740" d="M.176-4.156v.016H.161l-.008,0a.008.008,0,0,0,0,.006v.006H.174v.017H.15v.058H.123V-4.11H.109v-.017H.123v-.006A.021.021,0,0,1,.13-4.15a.041.041,0,0,1,.025-.006Z" transform="translate(-0.109 4.156)"/>
            </g>
            <g id="Group_693" data-name="Group 693" transform="translate(0.078 14.185)">
              <path id="Path_741" data-name="Path 741" d="M.517-3.04l-.007,0H.5a.021.021,0,0,0-.017.006.025.025,0,0,0-.005.017v.035H.453v-.075H.481v.012a.029.029,0,0,1,.012-.011.036.036,0,0,1,.017,0H.517Z" transform="translate(-0.453 3.063)"/>
            </g>
            <g id="Group_694" data-name="Group 694" transform="translate(0.149 14.185)">
              <path id="Path_742" data-name="Path 742" d="M.281-3.045a.017.017,0,0,0-.014.006.025.025,0,0,0,0,.016.027.027,0,0,0,0,.017A.017.017,0,0,0,.281-3,.018.018,0,0,0,.3-3.006a.026.026,0,0,0,0-.017.024.024,0,0,0,0-.016A.017.017,0,0,0,.281-3.045Zm0-.017a.05.05,0,0,1,.034.011.036.036,0,0,1,.013.029.037.037,0,0,1-.013.03.051.051,0,0,1-.034.01.052.052,0,0,1-.034-.01.037.037,0,0,1-.013-.03.035.035,0,0,1,.013-.029A.051.051,0,0,1,.281-3.062Z" transform="translate(-0.234 3.063)"/>
            </g>
            <g id="Group_695" data-name="Group 695" transform="translate(0.262 14.185)">
              <path id="Path_743" data-name="Path 743" d="M.533-3.048a.033.033,0,0,1,.012-.01.033.033,0,0,1,.016,0,.028.028,0,0,1,.022.008.031.031,0,0,1,.008.023v.046H.563v-.044a.02.02,0,0,0,0-.012.01.01,0,0,0-.008,0,.015.015,0,0,0-.013.006.027.027,0,0,0,0,.016v.037H.508v-.039a.031.031,0,0,0,0-.016.009.009,0,0,0-.008,0,.014.014,0,0,0-.012.006.027.027,0,0,0,0,.016v.037H.453v-.075H.481v.011a.032.032,0,0,1,.011-.01.035.035,0,0,1,.015,0,.031.031,0,0,1,.016,0,.025.025,0,0,1,.01.01Z" transform="translate(-0.453 3.063)"/>
            </g>
            <g id="Group_696" data-name="Group 696" transform="translate(0.469 14.165)">
              <path id="Path_744" data-name="Path 744" d="M.119-3.844v.022H.147v.017H.119v.032a.009.009,0,0,0,0,.007l.01,0H.145v.017H.121A.035.035,0,0,1,.1-3.753a.026.026,0,0,1-.007-.02v-.032H.078v-.017H.092v-.022Z" transform="translate(-0.078 3.844)"/>
            </g>
            <g id="Group_697" data-name="Group 697" transform="translate(0.555 14.157)">
              <path id="Path_745" data-name="Path 745" d="M.539-4.1v.046H.512v-.035c0-.007,0-.011,0-.013a.011.011,0,0,0,0-.006l0,0L.5-4.11A.017.017,0,0,0,.485-4.1a.026.026,0,0,0,0,.016v.037H.453v-.105H.481v.041a.037.037,0,0,1,.013-.01.037.037,0,0,1,.015,0,.029.029,0,0,1,.022.008A.031.031,0,0,1,.539-4.1Z" transform="translate(-0.453 4.156)"/>
            </g>
            <g id="Group_698" data-name="Group 698" transform="translate(0.66 14.185)">
              <path id="Path_746" data-name="Path 746" d="M.326-3.023v.007H.262A.019.019,0,0,0,.269-3,.029.029,0,0,0,.286-3L.3-3l.018-.007v.019L.3-2.985l-.019,0a.056.056,0,0,1-.036-.01.036.036,0,0,1-.013-.03.036.036,0,0,1,.013-.029.053.053,0,0,1,.035-.011.047.047,0,0,1,.032.011.037.037,0,0,1,.012.029ZM.3-3.031a.013.013,0,0,0,0-.011.016.016,0,0,0-.012,0,.02.02,0,0,0-.013,0,.018.018,0,0,0-.006.011Z" transform="translate(-0.234 3.063)"/>
            </g>
            <g id="Group_699" data-name="Group 699" transform="translate(0.828 14.162)">
              <path id="Path_747" data-name="Path 747" d="M.5-3.984H.533l.041.069v-.069H.6v.1H.569L.528-3.953v.069H.5Z" transform="translate(-0.5 3.984)"/>
            </g>
            <g id="Group_700" data-name="Group 700" transform="translate(0.951 14.185)">
              <path id="Path_748" data-name="Path 748" d="M.281-3.045a.017.017,0,0,0-.014.006.025.025,0,0,0,0,.016.027.027,0,0,0,0,.017A.017.017,0,0,0,.281-3,.018.018,0,0,0,.3-3.006a.026.026,0,0,0,0-.017.024.024,0,0,0,0-.016A.017.017,0,0,0,.281-3.045Zm0-.017a.05.05,0,0,1,.034.011.036.036,0,0,1,.013.029.037.037,0,0,1-.013.03.051.051,0,0,1-.034.01.052.052,0,0,1-.034-.01.037.037,0,0,1-.013-.03.035.035,0,0,1,.013-.029A.051.051,0,0,1,.281-3.062Z" transform="translate(-0.234 3.063)"/>
            </g>
            <g id="Group_701" data-name="Group 701" transform="translate(1.064 14.187)">
              <path id="Path_749" data-name="Path 749" d="M.422-2.939v-.046H.45v.035a.131.131,0,0,0,0,.013.01.01,0,0,0,0,.006l0,0H.463a.017.017,0,0,0,.013-.006.025.025,0,0,0,0-.016v-.037H.508v.075H.481V-2.92a.041.041,0,0,1-.013.01.036.036,0,0,1-.015,0,.031.031,0,0,1-.023-.008.033.033,0,0,1-.008-.024Z" transform="translate(-0.422 2.984)"/>
            </g>
            <g id="Group_702" data-name="Group 702" transform="translate(1.177 14.185)">
              <path id="Path_750" data-name="Path 750" d="M.539-3.031v.046H.512V-3.02c0-.007,0-.011,0-.013a.011.011,0,0,0,0-.006l0,0-.006,0a.017.017,0,0,0-.014.006.026.026,0,0,0,0,.016v.037H.453V-3.06H.481v.011a.037.037,0,0,1,.013-.01.037.037,0,0,1,.015,0,.029.029,0,0,1,.022.008.031.031,0,0,1,.008.023Z" transform="translate(-0.453 3.062)"/>
            </g>
            <g id="Group_703" data-name="Group 703" transform="translate(1.344 14.162)">
              <path id="Path_751" data-name="Path 751" d="M.5-3.984H.549a.056.056,0,0,1,.034.009.028.028,0,0,1,.012.024.029.029,0,0,1-.012.024.058.058,0,0,1-.034.008H.529v.035H.5Zm.029.019v.028H.546a.021.021,0,0,0,.013,0,.013.013,0,0,0,0-.011.012.012,0,0,0,0-.01.021.021,0,0,0-.013,0Z" transform="translate(-0.5 3.984)"/>
            </g>
            <g id="Group_704" data-name="Group 704" transform="translate(1.457 14.185)">
              <path id="Path_752" data-name="Path 752" d="M.517-3.04l-.007,0H.5a.021.021,0,0,0-.017.006.025.025,0,0,0-.005.017v.035H.453v-.075H.481v.012a.029.029,0,0,1,.012-.011.036.036,0,0,1,.017,0H.517Z" transform="translate(-0.453 3.063)"/>
            </g>
            <g id="Group_705" data-name="Group 705" transform="translate(1.528 14.185)">
              <path id="Path_753" data-name="Path 753" d="M.281-3.045a.017.017,0,0,0-.014.006.025.025,0,0,0,0,.016.027.027,0,0,0,0,.017A.017.017,0,0,0,.281-3,.018.018,0,0,0,.3-3.006a.026.026,0,0,0,0-.017.024.024,0,0,0,0-.016A.017.017,0,0,0,.281-3.045Zm0-.017a.05.05,0,0,1,.034.011.036.036,0,0,1,.013.029.037.037,0,0,1-.013.03.051.051,0,0,1-.034.01.052.052,0,0,1-.034-.01.037.037,0,0,1-.013-.03.035.035,0,0,1,.013-.029A.051.051,0,0,1,.281-3.062Z" transform="translate(-0.234 3.063)"/>
            </g>
            <g id="Group_706" data-name="Group 706" transform="translate(1.623 14.157)">
              <path id="Path_754" data-name="Path 754" d="M-.169-4.127h.028v.074A.03.03,0,0,1-.15-4.03a.032.032,0,0,1-.024.008H-.188v-.016h0a.013.013,0,0,0,.01,0,.017.017,0,0,0,0-.012Zm0-.03h.028v.02H-.169Z" transform="translate(0.188 4.156)"/>
            </g>
            <g id="Group_707" data-name="Group 707" transform="translate(1.689 14.185)">
              <path id="Path_755" data-name="Path 755" d="M.326-3.023v.007H.262A.019.019,0,0,0,.269-3,.029.029,0,0,0,.286-3L.3-3l.018-.007v.019L.3-2.985l-.019,0a.056.056,0,0,1-.036-.01.036.036,0,0,1-.013-.03.036.036,0,0,1,.013-.029.053.053,0,0,1,.035-.011.047.047,0,0,1,.032.011.037.037,0,0,1,.012.029ZM.3-3.031a.013.013,0,0,0,0-.011.016.016,0,0,0-.012,0,.02.02,0,0,0-.013,0,.018.018,0,0,0-.006.011Z" transform="translate(-0.234 3.063)"/>
            </g>
            <g id="Group_708" data-name="Group 708" transform="translate(1.795 14.185)">
              <path id="Path_756" data-name="Path 756" d="M.31-3.058v.019l-.011,0-.012,0a.025.025,0,0,0-.018.006.021.021,0,0,0-.006.016.021.021,0,0,0,.006.017A.025.025,0,0,0,.287-3L.3-3,.31-3.007v.02l-.013,0H.284a.056.056,0,0,1-.036-.01.036.036,0,0,1-.013-.03.035.035,0,0,1,.013-.029.055.055,0,0,1,.036-.011H.3l.013,0Z" transform="translate(-0.234 3.062)"/>
            </g>
            <g id="Group_709" data-name="Group 709" transform="translate(1.883 14.165)">
              <path id="Path_757" data-name="Path 757" d="M.119-3.844v.022H.147v.017H.119v.032a.009.009,0,0,0,0,.007l.01,0H.145v.017H.121A.035.035,0,0,1,.1-3.753a.026.026,0,0,1-.007-.02v-.032H.078v-.017H.092v-.022Z" transform="translate(-0.078 3.844)"/>
            </g>
          </g>
        </g>
        <g id="noun-x-ray-4314248" transform="translate(24.419 40.127)">
          <path id="Path_758" data-name="Path 758" d="M278.74,367.5a7.735,7.735,0,0,0-4.338,1.518,12.5,12.5,0,0,1-6.908,2.23,12.277,12.277,0,0,1-5.99-1.98,10.6,10.6,0,0,0-5.256-1.768c-1.021,0-2.5,1.335-2.5,3.749,0,1.9,1.675,4.033,4.6,5.841a15.859,15.859,0,0,0,18.3,0c2.921-1.808,4.6-3.938,4.6-5.841C281.239,368.835,279.761,367.5,278.74,367.5Z" transform="translate(-227.511 -315.021)"/>
          <path id="Path_759" data-name="Path 759" d="M142.471,0H77.5A7.506,7.506,0,0,0,70,7.5V72.471a7.506,7.506,0,0,0,7.5,7.5h64.974a7.506,7.506,0,0,0,7.5-7.5V7.5a7.506,7.506,0,0,0-7.5-7.5ZM121.763,66.318a24.019,24.019,0,0,1-11.78,3.655A24.019,24.019,0,0,1,98.2,66.318c-4.49-2.778-6.963-6.361-6.963-10.09,0-4.823,3.363-8.746,7.5-8.746a15.2,15.2,0,0,1,7.663,2.383c.381.211.74.408,1.084.582V42.483h-7.5a2.5,2.5,0,0,1-1.387-.42l-3.748-2.5a2.5,2.5,0,1,1,2.773-4.158l3.124,2.079h6.735V31.238H98.738a2.5,2.5,0,0,1-1.387-.42l-3.748-2.5a2.5,2.5,0,1,1,2.773-4.158L99.5,26.24h7.985v-5h-5a2.5,2.5,0,0,1-1.387-.42l-3.748-2.5a2.5,2.5,0,1,1,2.773-4.158l3.124,2.079h4.236v-2.5a2.5,2.5,0,1,1,5,0v2.5h4.242l3.124-2.079a2.5,2.5,0,0,1,2.774,4.158l-3.748,2.5a2.5,2.5,0,0,1-1.393.42h-5v5h7.991l3.124-2.079a2.5,2.5,0,0,1,2.774,4.158l-3.748,2.5a2.5,2.5,0,0,1-1.393.42h-8.746v6.247h6.741l3.124-2.079a2.5,2.5,0,0,1,2.774,4.158l-3.748,2.5a2.5,2.5,0,0,1-1.393.42h-7.5v8.228a16.042,16.042,0,0,0,1.839-1,12.5,12.5,0,0,1,6.908-2.23c4.134,0,7.5,3.924,7.5,8.746,0,3.728-2.472,7.311-6.963,10.09Z" transform="translate(-70 0)"/>
          <g id="Group_712" data-name="Group 712" transform="translate(0.038 81.731)">
            <path id="Path_760" data-name="Path 760" d="M.75-3.514a.406.406,0,0,1-.085.031.359.359,0,0,1-.089.011.321.321,0,0,1-.228-.078.287.287,0,0,1-.083-.216.284.284,0,0,1,.083-.216.317.317,0,0,1,.228-.08.359.359,0,0,1,.089.011A.44.44,0,0,1,.75-4.02V-3.9a.338.338,0,0,0-.08-.04.249.249,0,0,0-.083-.013A.161.161,0,0,0,.462-3.9a.2.2,0,0,0-.045.138.2.2,0,0,0,.045.138.163.163,0,0,0,.125.049.281.281,0,0,0,.083-.011.3.3,0,0,0,.08-.042Z" transform="translate(-0.266 4.062)"/>
          </g>
          <g id="Group_713" data-name="Group 713" transform="translate(0.638 81.873)">
            <path id="Path_761" data-name="Path 761" d="M.772-2.935a.256.256,0,0,0-.036-.013.16.16,0,0,0-.036,0,.1.1,0,0,0-.083.036.151.151,0,0,0-.027.1v.2H.453v-.426H.591v.069a.155.155,0,0,1,.058-.06.165.165,0,0,1,.083-.02H.748l.022,0Z" transform="translate(-0.453 3.063)"/>
          </g>
          <g id="Group_714" data-name="Group 714" transform="translate(0.992 81.873)">
            <path id="Path_762" data-name="Path 762" d="M.692-2.839V-2.8H.373a.11.11,0,0,0,.036.074.131.131,0,0,0,.083.022A.353.353,0,0,0,.58-2.717a.444.444,0,0,0,.091-.04v.1a.431.431,0,0,1-.1.029.574.574,0,0,1-.1.009A.259.259,0,0,1,.3-2.672a.216.216,0,0,1-.065-.167A.216.216,0,0,1,.3-3a.245.245,0,0,1,.174-.06A.217.217,0,0,1,.632-3a.221.221,0,0,1,.06.163ZM.553-2.886a.079.079,0,0,0-.025-.06.076.076,0,0,0-.058-.025.094.094,0,0,0-.065.022.1.1,0,0,0-.031.062Z" transform="translate(-0.234 3.063)"/>
          </g>
          <g id="Group_715" data-name="Group 715" transform="translate(1.521 81.873)">
            <path id="Path_763" data-name="Path 763" d="M.458-2.817A.114.114,0,0,0,.393-2.8a.048.048,0,0,0-.02.042.053.053,0,0,0,.016.04.079.079,0,0,0,.049.013A.088.088,0,0,0,.5-2.732.093.093,0,0,0,.529-2.8v-.016Zm.21-.051v.243H.529v-.062a.168.168,0,0,1-.062.056.177.177,0,0,1-.083.018.155.155,0,0,1-.109-.038.136.136,0,0,1-.04-.1.126.126,0,0,1,.051-.112A.292.292,0,0,1,.449-2.9h.08v-.009A.048.048,0,0,0,.5-2.955a.155.155,0,0,0-.078-.016.378.378,0,0,0-.083.009.336.336,0,0,0-.069.025v-.1a.616.616,0,0,1,.087-.016.6.6,0,0,1,.089-.007.246.246,0,0,1,.167.047.188.188,0,0,1,.051.147Z" transform="translate(-0.234 3.063)"/>
          </g>
          <g id="Group_716" data-name="Group 716" transform="translate(2.026 81.762)">
            <path id="Path_764" data-name="Path 764" d="M.281-3.844v.123H.422v.1H.281v.183a.054.054,0,0,0,.011.04.093.093,0,0,0,.049.009H.411v.1H.295a.161.161,0,0,1-.116-.033.158.158,0,0,1-.033-.114v-.183H.078v-.1H.145v-.123Z" transform="translate(-0.078 3.844)"/>
          </g>
          <g id="Group_717" data-name="Group 717" transform="translate(2.421 81.873)">
            <path id="Path_765" data-name="Path 765" d="M.692-2.839V-2.8H.373a.11.11,0,0,0,.036.074.131.131,0,0,0,.083.022A.353.353,0,0,0,.58-2.717a.444.444,0,0,0,.091-.04v.1a.431.431,0,0,1-.1.029.574.574,0,0,1-.1.009A.259.259,0,0,1,.3-2.672a.216.216,0,0,1-.065-.167A.216.216,0,0,1,.3-3a.245.245,0,0,1,.174-.06A.217.217,0,0,1,.632-3a.221.221,0,0,1,.06.163ZM.553-2.886a.079.079,0,0,0-.025-.06.076.076,0,0,0-.058-.025.094.094,0,0,0-.065.022.1.1,0,0,0-.031.062Z" transform="translate(-0.234 3.063)"/>
          </g>
          <g id="Group_718" data-name="Group 718" transform="translate(2.954 81.717)">
            <path id="Path_766" data-name="Path 766" d="M.571-3.926v-.23H.707v.594H.571v-.062a.192.192,0,0,1-.062.056.166.166,0,0,1-.078.018A.162.162,0,0,1,.3-3.614.254.254,0,0,1,.25-3.777.252.252,0,0,1,.3-3.938.164.164,0,0,1,.431-4a.162.162,0,0,1,.076.018.2.2,0,0,1,.065.056ZM.48-3.65a.076.076,0,0,0,.067-.031.161.161,0,0,0,.025-.1.148.148,0,0,0-.025-.091A.076.076,0,0,0,.48-3.9a.078.078,0,0,0-.067.033.156.156,0,0,0-.022.091.171.171,0,0,0,.022.1A.079.079,0,0,0,.48-3.65Z" transform="translate(-0.25 4.156)"/>
          </g>
          <g id="Group_719" data-name="Group 719" transform="translate(3.813 81.717)">
            <path id="Path_767" data-name="Path 767" d="M.681-3.65a.076.076,0,0,0,.067-.031.161.161,0,0,0,.025-.1.148.148,0,0,0-.025-.091A.076.076,0,0,0,.681-3.9a.078.078,0,0,0-.067.033.156.156,0,0,0-.022.091.171.171,0,0,0,.022.1A.079.079,0,0,0,.681-3.65ZM.591-3.926a.182.182,0,0,1,.06-.056A.177.177,0,0,1,.732-4a.162.162,0,0,1,.129.062.247.247,0,0,1,.051.161.249.249,0,0,1-.051.163.161.161,0,0,1-.129.062.177.177,0,0,1-.08-.018.171.171,0,0,1-.06-.056v.062H.453v-.594H.591Z" transform="translate(-0.453 4.156)"/>
          </g>
          <g id="Group_720" data-name="Group 720" transform="translate(4.317 81.884)">
            <path id="Path_768" data-name="Path 768" d="M.063-2.984H.2L.315-2.7l.1-.288H.549l-.181.466a.239.239,0,0,1-.062.1.15.15,0,0,1-.1.029H.132V-2.48H.174a.093.093,0,0,0,.051-.011A.079.079,0,0,0,.25-2.529l0-.013Z" transform="translate(-0.063 2.984)"/>
          </g>
          <g id="Group_721" data-name="Group 721" transform="translate(5.16 81.742)">
            <path id="Path_769" data-name="Path 769" d="M.5-3.984H.647v.569H.5Z" transform="translate(-0.5 3.984)"/>
          </g>
          <g id="Group_722" data-name="Group 722" transform="translate(5.415 81.884)">
            <path id="Path_770" data-name="Path 770" d="M.259-2.984H.632v.094l-.225.234H.632v.1H.25v-.1l.225-.234H.259Z" transform="translate(-0.25 2.984)"/>
          </g>
          <g id="Group_723" data-name="Group 723" transform="translate(5.86 81.884)">
            <path id="Path_771" data-name="Path 771" d="M.188-2.984H.321l.071.295.071-.295H.578l.071.29.074-.29H.855l-.112.426H.594L.522-2.853l-.071.295H.3Z" transform="translate(-0.188 2.984)"/>
          </g>
          <g id="Group_724" data-name="Group 724" transform="translate(6.589 81.873)">
            <path id="Path_772" data-name="Path 772" d="M.458-2.817A.114.114,0,0,0,.393-2.8a.048.048,0,0,0-.02.042.053.053,0,0,0,.016.04.079.079,0,0,0,.049.013A.088.088,0,0,0,.5-2.732.093.093,0,0,0,.529-2.8v-.016Zm.21-.051v.243H.529v-.062a.168.168,0,0,1-.062.056.177.177,0,0,1-.083.018.155.155,0,0,1-.109-.038.136.136,0,0,1-.04-.1.126.126,0,0,1,.051-.112A.292.292,0,0,1,.449-2.9h.08v-.009A.048.048,0,0,0,.5-2.955a.155.155,0,0,0-.078-.016.378.378,0,0,0-.083.009.336.336,0,0,0-.069.025v-.1a.616.616,0,0,1,.087-.016.6.6,0,0,1,.089-.007.246.246,0,0,1,.167.047.188.188,0,0,1,.051.147Z" transform="translate(-0.234 3.063)"/>
          </g>
          <g id="Group_725" data-name="Group 725" transform="translate(7.147 81.873)">
            <path id="Path_773" data-name="Path 773" d="M.772-2.935a.256.256,0,0,0-.036-.013.16.16,0,0,0-.036,0,.1.1,0,0,0-.083.036.151.151,0,0,0-.027.1v.2H.453v-.426H.591v.069a.155.155,0,0,1,.058-.06.165.165,0,0,1,.083-.02H.748l.022,0Z" transform="translate(-0.453 3.063)"/>
          </g>
          <g id="Group_726" data-name="Group 726" transform="translate(7.81 81.742)">
            <path id="Path_774" data-name="Path 774" d="M.5-3.984H.687l.129.3.129-.3h.187v.569H1v-.417l-.132.308H.77L.641-3.833v.417H.5Z" transform="translate(-0.5 3.984)"/>
          </g>
          <g id="Group_727" data-name="Group 727" transform="translate(8.576 81.884)">
            <path id="Path_775" data-name="Path 775" d="M.422-2.726v-.259H.56v.2c0,.035,0,.06,0,.076a.059.059,0,0,0,.009.031.071.071,0,0,0,.022.022.068.068,0,0,0,.031.007.08.08,0,0,0,.067-.033.152.152,0,0,0,.025-.091v-.21H.853v.426H.716v-.062a.21.21,0,0,1-.067.056.162.162,0,0,1-.076.018A.144.144,0,0,1,.46-2.592a.206.206,0,0,1-.038-.134Z" transform="translate(-0.422 2.984)"/>
          </g>
          <g id="Group_728" data-name="Group 728" transform="translate(9.137 81.717)">
            <path id="Path_776" data-name="Path 776" d="M.453-3.989H.591v.426H.453Zm0-.167H.591v.112H.453Z" transform="translate(-0.453 4.156)"/>
          </g>
          <g id="Group_729" data-name="Group 729" transform="translate(9.38 81.873)">
            <path id="Path_777" data-name="Path 777" d="M.64-3.038v.1a.611.611,0,0,0-.085-.027.386.386,0,0,0-.078-.009.154.154,0,0,0-.058.009A.03.03,0,0,0,.4-2.933a.029.029,0,0,0,.013.027.14.14,0,0,0,.054.013l.022,0a.283.283,0,0,1,.141.045.114.114,0,0,1,.038.1.117.117,0,0,1-.051.1.268.268,0,0,1-.149.033.63.63,0,0,1-.089-.007.71.71,0,0,1-.091-.02v-.1a.483.483,0,0,0,.083.029.436.436,0,0,0,.089.009.123.123,0,0,0,.06-.011.034.034,0,0,0,.02-.031.032.032,0,0,0-.016-.029A.15.15,0,0,0,.471-2.79l-.025,0a.25.25,0,0,1-.129-.042.117.117,0,0,1-.036-.094.113.113,0,0,1,.047-.1.246.246,0,0,1,.143-.033.476.476,0,0,1,.078.007.641.641,0,0,1,.091.018Z" transform="translate(-0.281 3.062)"/>
          </g>
          <g id="Group_730" data-name="Group 730" transform="translate(0.016 82.498)">
            <path id="Path_778" data-name="Path 778" d="M.44-4.156v.089H.366a.067.067,0,0,0-.042.011.048.048,0,0,0-.011.036v.031H.431v.1H.312v.33H.176v-.33H.109v-.1H.176V-4.02a.129.129,0,0,1,.038-.1.189.189,0,0,1,.123-.033Z" transform="translate(-0.109 4.156)"/>
          </g>
          <g id="Group_731" data-name="Group 731" transform="translate(0.404 82.654)">
            <path id="Path_779" data-name="Path 779" d="M.772-2.935a.256.256,0,0,0-.036-.013.16.16,0,0,0-.036,0,.1.1,0,0,0-.083.036.151.151,0,0,0-.027.1v.2H.453v-.426H.591v.069a.155.155,0,0,1,.058-.06.165.165,0,0,1,.083-.02H.748l.022,0Z" transform="translate(-0.453 3.063)"/>
          </g>
          <g id="Group_732" data-name="Group 732" transform="translate(0.759 82.654)">
            <path id="Path_780" data-name="Path 780" d="M.469-2.964A.08.08,0,0,0,.4-2.931a.156.156,0,0,0-.022.091.171.171,0,0,0,.022.1.081.081,0,0,0,.069.031.083.083,0,0,0,.069-.031.161.161,0,0,0,.025-.1.148.148,0,0,0-.025-.091A.081.081,0,0,0,.469-2.964Zm0-.1A.233.233,0,0,1,.64-3,.213.213,0,0,1,.7-2.839a.223.223,0,0,1-.062.167.236.236,0,0,1-.172.058A.24.24,0,0,1,.3-2.672a.221.221,0,0,1-.062-.167A.211.211,0,0,1,.3-3,.236.236,0,0,1,.469-3.062Z" transform="translate(-0.234 3.063)"/>
          </g>
          <g id="Group_733" data-name="Group 733" transform="translate(1.326 82.654)">
            <path id="Path_781" data-name="Path 781" d="M.85-2.982a.171.171,0,0,1,.06-.058.15.15,0,0,1,.08-.022.133.133,0,0,1,.109.047.188.188,0,0,1,.04.129v.261H1v-.223a.023.023,0,0,0,0-.009v-.016A.125.125,0,0,0,.991-2.94a.048.048,0,0,0-.042-.02.071.071,0,0,0-.062.033.171.171,0,0,0-.02.091v.21H.728v-.223A.2.2,0,0,0,.714-2.94a.045.045,0,0,0-.042-.02.068.068,0,0,0-.06.033.171.171,0,0,0-.02.091v.21H.453v-.426H.591v.062a.166.166,0,0,1,.056-.056.156.156,0,0,1,.074-.018A.141.141,0,0,1,.8-3.04a.134.134,0,0,1,.051.058Z" transform="translate(-0.453 3.063)"/>
          </g>
          <g id="Group_734" data-name="Group 734" transform="translate(2.358 82.543)">
            <path id="Path_782" data-name="Path 782" d="M.281-3.844v.123H.422v.1H.281v.183a.054.054,0,0,0,.011.04.093.093,0,0,0,.049.009H.411v.1H.295a.161.161,0,0,1-.116-.033.158.158,0,0,1-.033-.114v-.183H.078v-.1H.145v-.123Z" transform="translate(-0.078 3.844)"/>
          </g>
          <g id="Group_735" data-name="Group 735" transform="translate(2.785 82.498)">
            <path id="Path_783" data-name="Path 783" d="M.884-3.824v.261H.745v-.2c0-.037,0-.062,0-.076a.07.07,0,0,0-.009-.031.044.044,0,0,0-.022-.02A.055.055,0,0,0,.683-3.9a.08.08,0,0,0-.069.033.162.162,0,0,0-.022.091v.21H.453v-.594H.592v.23a.189.189,0,0,1,.065-.056A.169.169,0,0,1,.732-4a.136.136,0,0,1,.112.047.188.188,0,0,1,.04.129Z" transform="translate(-0.453 4.156)"/>
          </g>
          <g id="Group_736" data-name="Group 736" transform="translate(3.309 82.654)">
            <path id="Path_784" data-name="Path 784" d="M.692-2.839V-2.8H.373a.11.11,0,0,0,.036.074.131.131,0,0,0,.083.022A.353.353,0,0,0,.58-2.717a.444.444,0,0,0,.091-.04v.1a.431.431,0,0,1-.1.029.574.574,0,0,1-.1.009A.259.259,0,0,1,.3-2.672a.216.216,0,0,1-.065-.167A.216.216,0,0,1,.3-3a.245.245,0,0,1,.174-.06A.217.217,0,0,1,.632-3a.221.221,0,0,1,.06.163ZM.553-2.886a.079.079,0,0,0-.025-.06.076.076,0,0,0-.058-.025.094.094,0,0,0-.065.022.1.1,0,0,0-.031.062Z" transform="translate(-0.234 3.063)"/>
          </g>
          <g id="Group_737" data-name="Group 737" transform="translate(4.149 82.523)">
            <path id="Path_785" data-name="Path 785" d="M.5-3.984H.665l.205.39v-.39h.141v.569H.846l-.205-.39v.39H.5Z" transform="translate(-0.5 3.984)"/>
          </g>
          <g id="Group_738" data-name="Group 738" transform="translate(4.765 82.654)">
            <path id="Path_786" data-name="Path 786" d="M.469-2.964A.08.08,0,0,0,.4-2.931a.156.156,0,0,0-.022.091.171.171,0,0,0,.022.1.081.081,0,0,0,.069.031.083.083,0,0,0,.069-.031.161.161,0,0,0,.025-.1.148.148,0,0,0-.025-.091A.081.081,0,0,0,.469-2.964Zm0-.1A.233.233,0,0,1,.64-3,.213.213,0,0,1,.7-2.839a.223.223,0,0,1-.062.167.236.236,0,0,1-.172.058A.24.24,0,0,1,.3-2.672a.221.221,0,0,1-.062-.167A.211.211,0,0,1,.3-3,.236.236,0,0,1,.469-3.062Z" transform="translate(-0.234 3.063)"/>
          </g>
          <g id="Group_739" data-name="Group 739" transform="translate(5.328 82.665)">
            <path id="Path_787" data-name="Path 787" d="M.422-2.726v-.259H.56v.2c0,.035,0,.06,0,.076a.059.059,0,0,0,.009.031.071.071,0,0,0,.022.022.068.068,0,0,0,.031.007.08.08,0,0,0,.067-.033.152.152,0,0,0,.025-.091v-.21H.853v.426H.716v-.062a.21.21,0,0,1-.067.056.162.162,0,0,1-.076.018A.144.144,0,0,1,.46-2.592a.206.206,0,0,1-.038-.134Z" transform="translate(-0.422 2.984)"/>
          </g>
          <g id="Group_740" data-name="Group 740" transform="translate(5.889 82.654)">
            <path id="Path_788" data-name="Path 788" d="M.884-2.886v.261H.745v-.2c0-.037,0-.062,0-.076a.07.07,0,0,0-.009-.031.044.044,0,0,0-.022-.02A.055.055,0,0,0,.683-2.96a.08.08,0,0,0-.069.033.162.162,0,0,0-.022.091v.21H.453v-.426H.592v.062a.189.189,0,0,1,.065-.056.169.169,0,0,1,.076-.018.136.136,0,0,1,.112.047.188.188,0,0,1,.04.129Z" transform="translate(-0.453 3.062)"/>
          </g>
          <g id="Group_741" data-name="Group 741" transform="translate(6.723 82.523)">
            <path id="Path_789" data-name="Path 789" d="M.5-3.984H.743a.256.256,0,0,1,.167.049A.166.166,0,0,1,.969-3.8a.171.171,0,0,1-.058.138.262.262,0,0,1-.167.047h-.1v.2H.5Zm.147.107v.158h.08a.1.1,0,0,0,.065-.02A.077.077,0,0,0,.817-3.8a.071.071,0,0,0-.025-.058.1.1,0,0,0-.065-.02Z" transform="translate(-0.5 3.984)"/>
          </g>
          <g id="Group_742" data-name="Group 742" transform="translate(7.289 82.654)">
            <path id="Path_790" data-name="Path 790" d="M.772-2.935a.256.256,0,0,0-.036-.013.16.16,0,0,0-.036,0,.1.1,0,0,0-.083.036.151.151,0,0,0-.027.1v.2H.453v-.426H.591v.069a.155.155,0,0,1,.058-.06.165.165,0,0,1,.083-.02H.748l.022,0Z" transform="translate(-0.453 3.063)"/>
          </g>
          <g id="Group_743" data-name="Group 743" transform="translate(7.643 82.654)">
            <path id="Path_791" data-name="Path 791" d="M.469-2.964A.08.08,0,0,0,.4-2.931a.156.156,0,0,0-.022.091.171.171,0,0,0,.022.1.081.081,0,0,0,.069.031.083.083,0,0,0,.069-.031.161.161,0,0,0,.025-.1.148.148,0,0,0-.025-.091A.081.081,0,0,0,.469-2.964Zm0-.1A.233.233,0,0,1,.64-3,.213.213,0,0,1,.7-2.839a.223.223,0,0,1-.062.167.236.236,0,0,1-.172.058A.24.24,0,0,1,.3-2.672a.221.221,0,0,1-.062-.167A.211.211,0,0,1,.3-3,.236.236,0,0,1,.469-3.062Z" transform="translate(-0.234 3.063)"/>
          </g>
          <g id="Group_744" data-name="Group 744" transform="translate(8.119 82.498)">
            <path id="Path_792" data-name="Path 792" d="M-.1-3.989H.042v.419A.183.183,0,0,1,0-3.44a.147.147,0,0,1-.118.047H-.188v-.091h.025A.062.062,0,0,0-.112-3.5.1.1,0,0,0-.1-3.569Zm0-.167H.042v.112H-.1Z" transform="translate(0.188 4.156)"/>
          </g>
          <g id="Group_745" data-name="Group 745" transform="translate(8.447 82.654)">
            <path id="Path_793" data-name="Path 793" d="M.692-2.839V-2.8H.373a.11.11,0,0,0,.036.074.131.131,0,0,0,.083.022A.353.353,0,0,0,.58-2.717a.444.444,0,0,0,.091-.04v.1a.431.431,0,0,1-.1.029.574.574,0,0,1-.1.009A.259.259,0,0,1,.3-2.672a.216.216,0,0,1-.065-.167A.216.216,0,0,1,.3-3a.245.245,0,0,1,.174-.06A.217.217,0,0,1,.632-3a.221.221,0,0,1,.06.163ZM.553-2.886a.079.079,0,0,0-.025-.06.076.076,0,0,0-.058-.025.094.094,0,0,0-.065.022.1.1,0,0,0-.031.062Z" transform="translate(-0.234 3.063)"/>
          </g>
          <g id="Group_746" data-name="Group 746" transform="translate(8.976 82.654)">
            <path id="Path_794" data-name="Path 794" d="M.611-3.038v.109a.233.233,0,0,0-.056-.027A.213.213,0,0,0,.5-2.964a.115.115,0,0,0-.089.033.127.127,0,0,0-.031.091.13.13,0,0,0,.031.094A.115.115,0,0,0,.5-2.712a.2.2,0,0,0,.06-.009A.157.157,0,0,0,.611-2.75v.112a.266.266,0,0,1-.065.018.341.341,0,0,1-.067.007A.259.259,0,0,1,.3-2.672a.216.216,0,0,1-.065-.167A.207.207,0,0,1,.3-3a.254.254,0,0,1,.181-.06.341.341,0,0,1,.067.007.266.266,0,0,1,.065.018Z" transform="translate(-0.234 3.062)"/>
          </g>
          <g id="Group_747" data-name="Group 747" transform="translate(9.417 82.543)">
            <path id="Path_795" data-name="Path 795" d="M.281-3.844v.123H.422v.1H.281v.183a.054.054,0,0,0,.011.04.093.093,0,0,0,.049.009H.411v.1H.295a.161.161,0,0,1-.116-.033.158.158,0,0,1-.033-.114v-.183H.078v-.1H.145v-.123Z" transform="translate(-0.078 3.844)"/>
          </g>
        </g>
      </g>
    </g>
  </g>
</svg>
