<svg xmlns="http://www.w3.org/2000/svg" width="95.347" height="107" viewBox="0 0 95.347 107">
  <g id="doctor-male" transform="translate(0 -0.009)">
    <path id="Path_2" data-name="Path 2" d="M69.788,38.178c.348-1.428,1-2.168,1.742-2.3,2.569-.462,2.16,9.623-1.742,10.171ZM22.5,91.081a3.048,3.048,0,1,1-3.048,3.048A3.051,3.051,0,0,1,22.5,91.081ZM34.685,34.294a.621.621,0,0,1-.8-.427A.7.7,0,0,1,34.276,33a10.533,10.533,0,0,1,3.823-.688,11.84,11.84,0,0,1,3.8.679.693.693,0,0,1,.409.853.617.617,0,0,1-.784.444,9.675,9.675,0,0,0-1.254-.357,1.579,1.579,0,0,1,.061.453,1.761,1.761,0,0,1-3.518,0,1.773,1.773,0,0,1,.131-.644,9.6,9.6,0,0,0-2.255.557Zm20.464-.505c-.078.183-.131.026-.131.6a2.02,2.02,0,0,0,1.759,1.689,1.724,1.724,0,0,0,1.759-1.689,1.562,1.562,0,0,0-.183-.749,11.775,11.775,0,0,1,2.325.488.621.621,0,0,0,.775-.47.689.689,0,0,0-.435-.845,12.605,12.605,0,0,0-3.806-.592,12.22,12.22,0,0,0-3.762.6.7.7,0,0,0-.427.845.609.609,0,0,0,.775.462c.462-.139.914-.253,1.35-.34Zm-7.48,68.856L33.483,60.933l4.293,4.023h0a.925.925,0,0,0,.1.078,9.281,9.281,0,0,0,1.968,1.193,11.607,11.607,0,0,0,2.1.688,39.11,39.11,0,0,0,6.671.462,24.257,24.257,0,0,0,5.765-.488,9.677,9.677,0,0,0,2.168-.984A10.746,10.746,0,0,0,58.5,64.338l3.239-3.013L47.669,102.646ZM33.126,60.593c-3.37,3.8-7.663,4.72-12.348,4.433a31.41,31.41,0,0,0-3.823.322,26.653,26.653,0,0,0-1.184,11.808,22.08,22.08,0,0,0,3.858,9.614,7.92,7.92,0,1,1-2.412,1.5,24.952,24.952,0,0,1-4.25-10.711,28.545,28.545,0,0,1,.845-11.538C7.01,67.926,2.238,72.663,0,80.971v26.038H95.347V80.971C93.083,72.55,88.2,67.8,81.257,65.94a15.063,15.063,0,0,1,.313,2.83,16.258,16.258,0,0,1-.4,3.84c.444.157.88.331,1.3.514A11.052,11.052,0,0,1,84.81,74.5a8.9,8.9,0,0,1,3.5,6.279,22.77,22.77,0,0,1-.566,6.714l-.009.044c-.035.209-.122.679-.2,1.158-.549,3.187-1.167,6.749-3.57,9.17a6.856,6.856,0,0,1-2.952,1.794c-.139.044-.279.078-.427.113a3.155,3.155,0,1,1,.1-3,4.325,4.325,0,0,0,1.28-.9c1.776-1.776,2.308-4.877,2.787-7.646.052-.3.1-.6.209-1.184l.009-.052A20.665,20.665,0,0,0,85.5,81.1a6.187,6.187,0,0,0-2.43-4.363,8.1,8.1,0,0,0-1.742-1.019,18.55,18.55,0,0,0-2.273-.8V74.91a.6.6,0,0,1-.07-.026,1.458,1.458,0,0,1-.383-.2,1.474,1.474,0,0,1-.435-.017,13.145,13.145,0,0,0-3-.235,8.273,8.273,0,0,0-2.456.427c-3.666,1.324-4.459,5.007-5.242,8.6l-.017.052c-.061.27-.122.566-.235,1.08-.157.679-.313,1.28-.462,1.846-.549,2.081-1.028,3.9-.357,6.087a8.993,8.993,0,0,0,.575,1.463,3.164,3.164,0,1,1-.4,3.736,4.677,4.677,0,0,1-.958-.775,8.8,8.8,0,0,1-1.916-3.6c-.906-2.952-.331-5.138.322-7.637.148-.583.313-1.176.435-1.75.044-.183.131-.61.226-1.062,0-.017.009-.035.009-.052.94-4.354,1.9-8.8,7.054-10.668a11.382,11.382,0,0,1,3.309-.592,15.563,15.563,0,0,1,3.4.235,13.4,13.4,0,0,0,.3-3.013,10.447,10.447,0,0,0-.61-3.5,33.13,33.13,0,0,0-3.562-.287c-4.615.287-8.856-.618-12.209-4.276l.322-.3c.435-.409.906-.827,1.35-1.228,3.57-3.222,5.869-5.295,5.617-11.364v-.435a1.555,1.555,0,0,0,.348-.009c2.7-.383,4.154-3.544,4.5-6.583a12.476,12.476,0,0,0,.052-2.4,6.878,6.878,0,0,0-.47-2.125,2.478,2.478,0,0,0-2.5-1.811l1.463-.871c.174-2.264.731-5.347,1.167-8.247a21.926,21.926,0,0,0,.244-3.849c.792-6.435-.514-10.955-3.57-13.872C65.077,1.943,57.057-.156,47.66.019c-8.438-.061-14.569,2.36-18.914,6.714-4.563-.662-7.341,1.637-8.064,7.359v4.781c.174,2.961,1.132,4.023,2.316,3.8.035.505.078,1.019.157,1.541.488,3.257,1.263,6.792,1.559,9.657l1.1.592v1.054a2.984,2.984,0,0,0-1.724-.967,2.462,2.462,0,0,0-2.813,1.776,7.418,7.418,0,0,0-.47,2.125,12.476,12.476,0,0,0,.052,2.4c.348,3.03,1.8,6.2,4.5,6.583a1.894,1.894,0,0,0,.444,0v2.6h0a1.509,1.509,0,0,0,.026.279c1,4.615,2.2,5.678,4.72,7.933.453.4.94.845,1.446,1.306l1.132,1.045ZM68.151,28.1C54.366,18.646,45.884,10.817,34.389,17.783c-4.093,2.482-5.356,7.559-7.219,10.4V50c1.089,4.99,2.43,5.417,5.765,8.543l5.791,5.434a8.408,8.408,0,0,0,3.483,1.594c2.2.5,9.6.653,11.669.017a8.627,8.627,0,0,0,3.544-2.2l4.206-3.91c4.067-3.779,6.819-5.408,6.531-11.66-.009-6.592-.009-13.141-.009-19.716ZM40.2,26.866a.991.991,0,0,1,1.045.914.975.975,0,0,1-.958,1,10.54,10.54,0,0,0-3.945.871,7.1,7.1,0,0,0-2.639,2.09,1.033,1.033,0,0,1-1.4.2A.931.931,0,0,1,32.09,30.6a8.961,8.961,0,0,1,3.37-2.682A12.524,12.524,0,0,1,40.2,26.866Zm15.8,1.724A.963.963,0,1,1,56,26.666a11.17,11.17,0,0,1,4.537.914,9.684,9.684,0,0,1,3.6,2.813.932.932,0,0,1-.183,1.35,1.03,1.03,0,0,1-1.4-.174A7.706,7.706,0,0,0,59.7,29.322a9.172,9.172,0,0,0-3.7-.731ZM45.483,45.511a.765.765,0,0,1-.1-1.106.84.84,0,0,1,1.149-.1,1.918,1.918,0,0,0,1.176.505,1.968,1.968,0,0,0,1.228-.505.84.84,0,0,1,1.149.1.755.755,0,0,1-.113,1.1,3.346,3.346,0,0,1-4.485,0Zm-19.925.54V38.178c-.348-1.428-1-2.168-1.742-2.3-2.569-.462-2.16,9.623,1.742,10.171ZM46.276,91.9,40.711,69.31a29.656,29.656,0,0,0,14.151,0L49.576,91.9Z" transform="translate(0 0)" fill="#008278" fill-rule="evenodd"/>
    <path id="Path_3" data-name="Path 3" d="M652.038,335.449s-1.456-1.388.231.218a7.875,7.875,0,0,0,6.186,2.625c2.539,0,6.289-2.681,5.921-2.5-.074.064-2.417,1.469-2.417,1.469" transform="translate(-610.13 -283.599)" fill="none" stroke="#008278" stroke-width="2"/>
  </g>
</svg>
