<svg xmlns="http://www.w3.org/2000/svg" xmlns:xlink="http://www.w3.org/1999/xlink" width="655" height="571" viewBox="0 0 655 571">
  <defs>
    <clipPath id="clip-path">
      <rect id="Rectangle_22" data-name="Rectangle 22" width="655" height="571" transform="translate(1198 -1128)" fill="#fff" stroke="#707070" stroke-width="1"/>
    </clipPath>
    <clipPath id="clip-path-2">
      <rect id="Rectangle_21" data-name="Rectangle 21" width="691" height="674" transform="translate(1093 117)" fill="#fff" stroke="#707070" stroke-width="1"/>
    </clipPath>
  </defs>
  <g id="Mask_Group_3" data-name="Mask Group 3" transform="translate(-1198 1128)" clip-path="url(#clip-path)">
    <g id="Mask_Group_2" data-name="Mask Group 2" transform="translate(69 -1245)" clip-path="url(#clip-path-2)">
      <g id="Drawkit-Vector-Illustration-Medical-01" transform="translate(966 -717)">
        <g id="DOCTOR" transform="translate(-57 541)">
          <g id="SHOES">
            <rect id="Rectangle_10" data-name="Rectangle 10" width="165.26" height="9.4" rx="2.61" transform="translate(838.59 1816.41) rotate(180)" fill="#88bed7"/>
            <path id="Path_170" data-name="Path 170" d="M817.64,1755.15H760s-6.9,14.81-44.58,18.67c-42.07,4.32-39.08,33.2-39.08,33.2H834S841.6,1785.16,817.64,1755.15Z" fill="#40465c"/>
            <path id="Path_171" data-name="Path 171" d="M562.51,1755.15H504.89s-6.9,15.75-44.58,19.64c-41.86,4.31-39.08,32.23-39.08,32.23H578.89S586.47,1785.16,562.51,1755.15Z" fill="#40465c"/>
            <rect id="Rectangle_11" data-name="Rectangle 11" width="167.18" height="9.4" rx="2.61" transform="translate(584.45 1816.41) rotate(180)" fill="#88bed7"/>
          </g>
          <path id="LEGS" d="M767.67,939.48c1.42,46.39,7.3,405.37,48.69,506.19,41.95,102.18,17.92,310,17.92,310-57.48,9.08-80.83-1-80.83-1s-82.84-344.81-141.13-586.19c-5.88,93.72-12,233.11-2.13,301.14,15.73,108.2-18.49,286.43-18.49,286.43-49.62,7.7-106.52,0-106.52,0s-11.21-171.6-17.66-367.35c-3-90.94-20.62-425.15-19.87-447.31Z" fill="#88bed7"/>
          <path id="TORSO" d="M662.79,490.68c12.93,0,135.55,24.43,135.44,77.83C798.11,627,736,819.58,741.1,854.89s38.39,82,23.07,88.71c-41.28,18.1-179.09,32.47-316.83-2.66,0,0,14.37-32.44-10.39-173.35-13.52-76.89-16.67-224-5.15-239.32s80.89-31.16,106.31-35.87S662.79,490.68,662.79,490.68Z" fill="#fccb28"/>
          <g id="LAB_COAT" data-name="LAB COAT">
            <path id="Path_172" data-name="Path 172" d="M658.73,490.25c-3.07,17.7-37,419.13,6.78,618.87,0,0,71,9.69,143.57-17.59,0,0-41.21-251.06-43.78-292.88s29.5-257.14,10.09-269C710.91,490.25,658.73,490.25,658.73,490.25Z" fill="#fff" stroke="#707070" stroke-width="1"/>
            <path id="Path_173" data-name="Path 173" d="M533.45,493s9.73,381.3,11.89,614.17c0,0-70,17.52-130.4-9.76,0,0,23.73-281.87,24.07-317.77s-18.27-248.32,2.12-259.13C485,497.24,533.45,493,533.45,493Z" fill="#fff" stroke="#707070" stroke-width="1"/>
          </g>
          <g id="HANDS">
            <g id="RIGHT_HAND" data-name="RIGHT HAND">
              <path id="HAND" d="M855.76,847.68c51.48-65.83-8.31-312.26-95.26-323.08-9.19-1.14-28.53,5.82-29.83,63.58-1.08,48.1,19.08,139.83,29,181.87-73.13,8.29-183.73,36.62-200.24,38.13-18.6,1.7-7.27,62.37,11.65,64.68C601.48,876.57,794.61,892.67,855.76,847.68Z" fill="#fff" stroke="#707070" stroke-width="1"/>
              <path id="SHADOW" d="M551.89,816.76c-1.76-12.58,131.84-33.92,205-45.13-10.39-44.79-20.41-120-20.41-120" fill="none" stroke="#e4effd" stroke-miterlimit="10" stroke-width="5"/>
              <line id="PEN" y1="107.76" x2="78.06" transform="translate(451.1 750.3)" fill="none" stroke="#000" stroke-miterlimit="10" stroke-width="5"/>
              <path id="ARM" d="M562.66,821.23c-9.07-8-63.42-20.7-69.25-16.91s-52.17,14.12-52.17,14.12,1.26,11.14,19.71,8.67c21.44-2.88,26.12,1.5,26.12,1.5s-2.63,11.85,4.18,16.13-1.83,10.88,7.72,19.31c5.6,4.93,6,11.25,13.16,12.38s46.15-18.37,52.94-32C570.81,832.85,568,826,562.66,821.23Z" fill="#f8d2b5"/>
            </g>
            <g id="LEFT_HAND" data-name="LEFT HAND">
              <path id="HAND-2" data-name="HAND" d="M264.06,808.61C249,795.3,221,721.92,268.21,722c10.49,0,36.35,3.69,65.74,10.45,10.28-61.81,31.26-158.64,65.11-187.13,18.48-15.56,45.45-26.61,54.63-29.69,58.13-19.48,42.43,381.91-47.9,366.17C375.53,876.48,291.92,833.21,264.06,808.61Z" fill="#fff" stroke="#707070" stroke-width="1"/>
              <path id="SHADOW-2" data-name="SHADOW" d="M431.81,790.45c4.24-26.48-4.14-69.81-5.87-132.72" fill="none" stroke="#e4effd" stroke-miterlimit="10" stroke-width="5"/>
              <g id="TABLET">
                <path id="Path_174" data-name="Path 174" d="M369.77,939.22H538.85a8,8,0,0,0,6.89-12.06L412.12,700.05a14.52,14.52,0,0,0-12.51-7.15H230.53a8,8,0,0,0-6.9,12.06l133.63,227.1a14.5,14.5,0,0,0,12.51,7.16Z" fill="#6562ce"/>
                <path id="Path_175" data-name="Path 175" d="M345.47,806.38l11.14,19.3a5.14,5.14,0,0,0,3.91,2.48H376a5.14,5.14,0,0,1,3.91,2.48l8.9,15.42a5.15,5.15,0,0,0,3.91,2.48H412c1.37,0,1.84-1.11,1-2.48l-8.91-15.42c-.79-1.37-.32-2.48,1.05-2.48h15.43c1.37,0,1.84-1.11,1-2.48l-11.14-19.3a5.14,5.14,0,0,0-3.91-2.48H391.15a5.17,5.17,0,0,1-3.91-2.48L378.34,786a5.15,5.15,0,0,0-3.91-2.47h-19.3c-1.37,0-1.84,1.11-1.05,2.47L363,801.42c.79,1.37.32,2.48-1.05,2.48H346.51C345.14,803.9,344.68,805,345.47,806.38Z" fill="#8281d8"/>
              </g>
              <g id="FINGERS">
                <path id="Path_176" data-name="Path 176" d="M278.35,779.17c-1.5,6.46-2.07,9.44-7.38,11.3h0c-5.7,4.16-16,5.19-29,5.54-10.07.28-8-17.79-8-17.79-3.44-2.46-4.54-10-2.51-16.65,0,0-6.71-6.06-3.26-16.77,0,0-5.4-6.68-3.31-14.64,1.18-4.46,14.75-5,24.47-5.17,6.74-.43,12.17-.58,15-.72,3-.15,6.66,6.06,6.23,14.83a13.54,13.54,0,0,1,3.3,7.72c.62,7.54,4.13,19,2.79,26.6C276.11,776,278.63,778,278.35,779.17Z" fill="#f8d2b5"/>
                <path id="Path_177" data-name="Path 177" d="M230.75,728.09c6.59-.78,28.3-3.48,33.51-3.82,7.36-.48,10.66,14.56,1.28,15.68a175.559,175.559,0,0,1-36.14,4.89" fill="none" stroke="#dbb394" stroke-linecap="round" stroke-miterlimit="10" stroke-width="2"/>
                <path id="Path_178" data-name="Path 178" d="M233.17,761.32c31.45-2.49,37.66-5.09,37.66-5.09,4.59-.39,5.8-17.31-5.29-16.28" fill="none" stroke="#dbb394" stroke-linecap="round" stroke-miterlimit="10" stroke-width="2"/>
                <path id="Path_179" data-name="Path 179" d="M235.37,778c29.74-1.83,39.24-5.31,39.24-5.31,4.28-.68,5-17.89-3.78-16.48" fill="none" stroke="#dbb394" stroke-linecap="round" stroke-miterlimit="10" stroke-width="2"/>
                <path id="Path_180" data-name="Path 180" d="M266.71,774.75s9.75-3.78,11.37,2.49c2.88,11.15-10,14.94-36.65,17.52" fill="none" stroke="#dbb394" stroke-linecap="round" stroke-miterlimit="10" stroke-width="2"/>
              </g>
            </g>
          </g>
          <g id="NAME_TAG" data-name="NAME TAG">
            <rect id="Rectangle_12" data-name="Rectangle 12" width="81.74" height="48.58" rx="4.02" transform="translate(441.65 664.54)" fill="#e4effd"/>
            <rect id="Rectangle_13" data-name="Rectangle 13" width="9.78" height="22.54" transform="translate(477.63 647.03)" fill="#85c3d3"/>
            <rect id="Rectangle_14" data-name="Rectangle 14" width="17.72" height="21.26" transform="translate(451.57 674.04)" fill="#fff"/>
            <rect id="Rectangle_15" data-name="Rectangle 15" width="37.99" height="4.92" transform="translate(474.91 674.04)" fill="#fff"/>
            <rect id="Rectangle_16" data-name="Rectangle 16" width="37.99" height="4.92" transform="translate(474.91 682.21)" fill="#fff"/>
            <rect id="Rectangle_17" data-name="Rectangle 17" width="37.99" height="4.92" transform="translate(474.91 690.38)" fill="#fff"/>
            <rect id="Rectangle_18" data-name="Rectangle 18" width="61.33" height="4.92" transform="translate(451.57 698.7)" fill="#fff"/>
          </g>
          <g id="STETHOSCOPE">
            <path id="Path_181" data-name="Path 181" d="M617.57,670.91a17.88,17.88,0,0,1-11.77-20.55L617.92,595c6.2-27.39,35.46-43,62.67-33.42h0c27.22,9.57,40.26,40.06,27.94,65.3l-25.22,50.76a17.88,17.88,0,0,1-22,8.64" fill="none" stroke="#6562ce" stroke-miterlimit="10" stroke-width="5"/>
            <rect id="Rectangle_19" data-name="Rectangle 19" width="12.682" height="8.896" rx="4.443" transform="matrix(0.944, 0.331, -0.331, 0.944, 616.823, 662.817)" fill="none" stroke="#6562ce" stroke-miterlimit="10" stroke-width="4.981"/>
            <rect id="Rectangle_20" data-name="Rectangle 20" width="12.73" height="8.93" rx="4.46" transform="translate(652.211 678.46) rotate(19.39)" fill="none" stroke="#6562ce" stroke-miterlimit="10" stroke-width="5"/>
            <path id="Path_182" data-name="Path 182" d="M616.45,601.74s22.25-30.81,56.6-18.72c33.81,11.89,32.4,50,32.4,50" fill="none" stroke="#6562ce" stroke-miterlimit="10" stroke-width="5"/>
            <path id="Path_183" data-name="Path 183" d="M504.74,585.73S482.52,483.1,551.19,471.52" fill="none" stroke="#6562ce" stroke-linecap="round" stroke-miterlimit="10" stroke-width="5"/>
            <circle id="Ellipse_20" data-name="Ellipse 20" cx="21.63" cy="21.63" r="21.63" transform="translate(490.69 584.97)" fill="#fff"/>
            <circle id="Ellipse_21" data-name="Ellipse 21" cx="21.63" cy="21.63" r="21.63" transform="translate(490.47 585.06)" fill="none" stroke="#efaf00" stroke-miterlimit="10" stroke-width="4"/>
            <circle id="Ellipse_22" data-name="Ellipse 22" cx="14.37" cy="14.37" r="14.37" transform="translate(497.67 592.2)" fill="#efaf00"/>
            <path id="Path_184" data-name="Path 184" d="M681.51,561.18s36-88.43-33.63-95.43" fill="none" stroke="#6562ce" stroke-linecap="round" stroke-miterlimit="10" stroke-width="5"/>
          </g>
          <g id="HEAD">
            <g id="NECK">
              <path id="Path_185" data-name="Path 185" d="M636.9,406.46s-8.89,41.67,21.83,83.79c0,0-53.08,27.16-125.28,2.75,0,0,42.54-14.65,24.36-84.81Z" fill="#f8d2b5"/>
              <path id="Path_186" data-name="Path 186" d="M635.18,406.49c.05,2.77.05,5.08,0,6.75,0,0-3.13,31.61-19.41,47.18-12.65,12.09-51.85,24.44-64.58,18.29a103.44,103.44,0,0,0,6.62-70.52Z" fill="#e6bc9c"/>
            </g>
            <g id="HAIR">
              <path id="Path_187" data-name="Path 187" d="M636.23,412.74l-.12-3.55-.52-15.83s-16.66.64-10.73-24.42c6.48-27.36-4.38-40.16-32.62-29.3-20.43,7.85-39.86,14.11-53.44,3.09a31.359,31.359,0,0,1-6.41-7.21c-7.6-11.53-4.25-12.56,8-20.13,15.35-9.46,32.28-28.85,70.31-20.82,30.38,6.42,31.94,31.95,31.94,31.95s18.22-4.08,22.31,15C670.14,365.47,636.23,412.74,636.23,412.74Z" fill="#341406"/>
              <path id="Path_188" data-name="Path 188" d="M641.76,327.44s9.62-9.37,19.6-3.19" fill="none" stroke="#40465c" stroke-miterlimit="10" stroke-width="4"/>
            </g>
            <path id="HEAD-2" data-name="HEAD" d="M634.68,414.69h0c-4.23,6.9-16.72,26.6-22.94,28.94C593,450.71,563,456.89,553,451.73c-6.84-3.52-7.22-3.74-15.25-38.57-4.48-19.46-2-54.82,1.1-70.43,13.58,11,33,4.76,53.44-3.09,28.24-10.86,39.1,1.94,32.62,29.3-5.12,21.63,6.59,24.11,9.89,24.39h0c.62-.7,8.23-9,15.31-2.83C655.06,394.83,638,411.5,634.68,414.69Z" fill="#f8d2b5"/>
          </g>
          <circle id="Ellipse_23" data-name="Ellipse 23" cx="5.2" cy="5.2" r="5.2" transform="translate(541.98 378.77)" fill="#40465c"/>
          <circle id="Ellipse_24" data-name="Ellipse 24" cx="5.2" cy="5.2" r="5.2" transform="translate(585.01 378.77)" fill="#40465c"/>
          <path id="Path_189" data-name="Path 189" d="M567.04,379.31l-7.23,29.94h12.04" fill="none" stroke="#40465c" stroke-linecap="round" stroke-linejoin="round" stroke-width="4.81"/>
          <path id="Path_190" data-name="Path 190" d="M567.18,428.9s14.4,3.47,20.8-10.53" fill="none" stroke="#40465c" stroke-linecap="round" stroke-linejoin="round" stroke-width="4.81"/>
        </g>
      </g>
    </g>
  </g>
</svg>
