<svg xmlns="http://www.w3.org/2000/svg" xmlns:xlink="http://www.w3.org/1999/xlink" width="344" height="355" viewBox="0 0 344 355">
  <defs>
    <clipPath id="clip-path">
      <path id="Path_1052" data-name="Path 1052" d="M0,0H344V355H0Z" transform="translate(760 346)" fill="#fff" stroke="#e8e8e8" stroke-width="1"/>
    </clipPath>
    <clipPath id="clip-path-2">
      <rect id="Rectangle_38" data-name="Rectangle 38" width="344" height="514" transform="translate(886 44.383)" fill="#fff" stroke="#707070" stroke-width="1"/>
    </clipPath>
  </defs>
  <g id="Mask_Group_6" data-name="Mask Group 6" transform="translate(-760 -346)" clip-path="url(#clip-path)">
    <g id="Mask_Group_5" data-name="Mask Group 5" transform="translate(-126 142.617)" clip-path="url(#clip-path-2)">
      <g id="undraw_injured_9757" transform="translate(743 45.124)">
        <path id="Path_1031" data-name="Path 1031" d="M526.612,499.494a10.231,10.231,0,0,0,4.3-9.122c-.358-3.39-2.61-6.481-6.151-8.442l-7.394-38.267-30.373,7.5,16.639,34.14c-3.888,5-2.4,11.488,3.464,15.107s14.249,3.224,19.519-.92Z" transform="translate(-268.823 -232.532)" fill="#ffb8b8"/>
        <path id="Path_1032" data-name="Path 1032" d="M499.383,502.784,480.647,434.1c-3.712-13.38,1.708-27.313,14.309-36.783,23.982-18.142,54.805-41.009,65.452-46.924a66.076,66.076,0,0,1,34.343-7.958l.257.022,16.117,11.957-35.109,45.37-53.3,26.215,5.931,67.324Z" transform="translate(-272.881 -249.644)" fill="#fccb28"/>
        <rect id="Rectangle_30" data-name="Rectangle 30" width="90.959" height="9.682" rx="4" transform="translate(207.324 158.708)" fill="#ccc"/>
        <rect id="Rectangle_31" data-name="Rectangle 31" width="90.959" height="9.682" rx="4" transform="translate(207.324 259.849)" fill="#ccc"/>
        <path id="Path_1033" data-name="Path 1033" d="M524.851,766.5a2.892,2.892,0,0,1-3.071-2.207L482.473,402.426c-.151-1.332,1.1-2.507,2.8-2.625s3.193.866,3.344,2.2l36.191,334.331L559.969,402c.146-1.332,1.64-2.318,3.337-2.2s2.953,1.288,2.807,2.62l-38.19,361.863a2.889,2.889,0,0,1-3.068,2.212Z" transform="translate(-271.276 -252.876)" fill="#ccc"/>
        <ellipse id="Ellipse_49" data-name="Ellipse 49" cx="40.452" cy="33.263" rx="40.452" ry="33.263" transform="translate(301.361 20.214)" fill="#ffb8b8"/>
        <path id="Path_1034" data-name="Path 1034" d="M150.275,505.945l-19.237-4.813,14.495-60.542,28.395,7.1Z" transform="translate(70.98 -6.839)" fill="#ffb8b8"/>
        <path id="Path_1035" data-name="Path 1035" d="M510.058,707.094l-61.931-15.5.511-1.263c4.1-10.059,17.8-15.614,30.624-12.419l38.71,9.686Z" transform="translate(-289.874 -194.592)" fill="#2f2e41"/>
        <path id="Path_1036" data-name="Path 1036" d="M244.776,504.953H224.584l-9.609-61.139h29.8Z" transform="translate(116.447 -6.161)" fill="#ffb8b8"/>
        <path id="Path_1037" data-name="Path 1037" d="M541.926,705.336h61.918V687.3H564.757c-12.6.011-22.816,8.029-22.831,17.923Z" transform="translate(-239.065 -192.43)" fill="#2f2e41"/>
        <path id="Path_1038" data-name="Path 1038" d="M636.211,721.372l-6.815-.8c-20.669-2.417-21.907-2.562-25.188-3.693-1.676-.578-1.793-9.311-.787-58.4.738-36.034,1.657-80.88-.127-104.956-.151-1.955-1.991-3.574-4.449-3.914a5.819,5.819,0,0,0-5.885,2.485c-15.379,27.88-41.182,90.272-58.255,131.558-5.939,14.362-10.63,25.7-13.6,32.5-1.188,2.665-4.762,4.184-8.253,3.507-14.051-2.757-13.111-3.93-33.124-7.993-3.6-.72-5.83-3.541-5.059-6.392,3.62-13.4,69.86-230.672,74.93-251.326a5.564,5.564,0,0,1,2.942-3.5,8.522,8.522,0,0,1,5.237-.823c14.914,2.359,23.987,4.862,38.725,7.282,15.9,2.611,32.348,5.312,48.388,7.832h0a7.363,7.363,0,0,1,4.038,1.943c3.969,3.935,9.854,6.144,16.085,8.482,4.2,1.577-5.318,1.435-1.66,3.708,14.815,9.207-6.49,196.166-19.363,238.391-.856,2.739-4.227,4.517-7.781,4.1Z" transform="translate(-275.579 -242.42)" fill="#2f2e41"/>
        <path id="Path_1039" data-name="Path 1039" d="M600.411,341.03c-2.362-7.867,9.577-24.794,7.215-32.66-1.6-5.327-17.557-1.706-21.282-6.333a22.571,22.571,0,0,0-16.934-8.437c-8.014-.071-15.9,4.6-23.49,2.579a10.86,10.86,0,0,1-6.735-16.067c3.393-5.777,10.7-9.457,17.926-12.342,12.3-4.912,26.619-8.5,39.782-5.249,7.957,1.964,14.61,6.221,21.049,10.384,5.869,3.795,11.837,7.676,15.94,12.7,8.037,9.845,7.552,23.11.684,33.486s-19.384,17.991-33.175,22.41" transform="translate(-241.358 -261.275)" fill="#2f2e41"/>
        <path id="Path_1040" data-name="Path 1040" d="M514.235,508.121c4.366-5.726,10.995-32.552,19.169-77.581,5.565-30.739,10.414-61.972,12.82-77.926.38-2.625,2.453-4.912,5.488-6.053q2.342-.887,4.656-1.679a135.237,135.237,0,0,1,60.008-6.7c19.865,2.4,38.5,9.06,53.834,19.256l.181.134.047.191c.087.355,8.442,35.7-8.672,59.58-16.879,23.562-17.076,85.959-17.076,86.587v.8l-.983-.22c-26.258-5.89-127.689,4.414-128.711,4.52l-1.579.162Z" transform="translate(-254.508 -250.538)" fill="#fccb28"/>
        <rect id="Rectangle_32" data-name="Rectangle 32" width="90.959" height="9.682" rx="4" transform="translate(327.575 173.821)" fill="#ccc"/>
        <rect id="Rectangle_33" data-name="Rectangle 33" width="90.959" height="9.682" rx="4" transform="translate(327.575 274.962)" fill="#ccc"/>
        <path id="Path_1041" data-name="Path 1041" d="M602.851,764.973a2.892,2.892,0,0,1-3.071-2.206l-39.307-347.34c-.151-1.332,1.1-2.507,2.8-2.625s3.193.866,3.344,2.2l36.191,319.808L637.969,415c.146-1.332,1.64-2.318,3.337-2.2s2.953,1.288,2.807,2.62l-38.19,347.34a2.889,2.889,0,0,1-3.068,2.213Z" transform="translate(-229.025 -250.143)" fill="#ccc"/>
        <path id="Path_1042" data-name="Path 1042" d="M571.61,506.515a9.657,9.657,0,0,1,2.708-9.491,16.207,16.207,0,0,1,11.007-4.463l32.7-28.971,20.3,19.256-37.6,21.563c-.2,5.854-5.937,10.667-13.365,11.2S573.165,512.242,571.61,506.515Z" transform="translate(-223.171 -229.234)" fill="#ffb8b8"/>
        <path id="Path_1043" data-name="Path 1043" d="M583.838,509.316l51.58-53.988-26.6-44.742,1.931-53.064,21.806-3.163.231.091c10.593,4.864,18.8,12.374,23.322,21.33,4.844,9.507,14.891,41.852,22.466,67.312,4.023,13.325-1.07,27.333-13.448,36.982l-63.274,49.672Z" transform="translate(-216.363 -248.186)" fill="#fccb28"/>
        <path id="Path_1044" data-name="Path 1044" d="M443.648,715.264,514.216,728.6c2.825.587,5.781-.5,7.022-2.573l60.618-126.521a3.137,3.137,0,0,0,.005-3.081,5.292,5.292,0,0,0-3.229-2.373l-53.055-15.906a7.978,7.978,0,0,0-5.2.226,4.655,4.655,0,0,0-2.837,2.725l0,.006-37.447,111.51-.556.027c-.215.011-21.683,1.157-31.336,10.254a13.8,13.8,0,0,0-4.547,12.368Z" transform="translate(-292.395 -215.448)" fill="#ccc"/>
        <path id="Path_1045" data-name="Path 1045" d="M1110.148,703a1.091,1.091,0,0,1-.45.857,1.773,1.773,0,0,1-1.092.353H347.019a1.246,1.246,0,1,1,0-2.42h761.588a1.773,1.773,0,0,1,1.092.353A1.092,1.092,0,0,1,1110.148,703Z" transform="translate(-345.477 -189.383)" fill="#3f3d56"/>
        <path id="Path_1048" data-name="Path 1048" d="M0,0,2.428.069,3.885,64.612l-2.428-.069Z" transform="translate(202.036 431.296) rotate(-83.955)" fill="#b3b3b3"/>
        <path id="Path_1049" data-name="Path 1049" d="M0,0,2.533.248,7.1,54.966l-2.533-.248Z" transform="translate(195.49 451.037) rotate(-65.776)" fill="#b3b3b3"/>
        <path id="Path_1046" data-name="Path 1046" d="M198.825,430.125,137.8,414.259l1.266-2.207,61.024,15.866Z" transform="translate(74.643 -8.932)" fill="#b3b3b3"/>
        <path id="Path_1047" data-name="Path 1047" d="M202.825,422.386,141.8,399.259l1.266-2.207,61.024,23.128Z" transform="translate(76.81 -11.588)" fill="#b3b3b3"/>
        <path id="Path_1050" data-name="Path 1050" d="M0,0,2.7.327,8.843,52.945l-2.7-.327Z" transform="translate(189.372 469.625) rotate(-49.495)" fill="#b3b3b3"/>
        <path id="Path_1051" data-name="Path 1051" d="M0,0,2.97.249,6.429,35.4l-2.97-.249Z" transform="translate(176.07 478.563) rotate(-24.393)" fill="#b3b3b3"/>
      </g>
    </g>
  </g>
</svg>
