<svg xmlns="http://www.w3.org/2000/svg" width="30.753" height="34.116" viewBox="0 0 30.753 34.116">
  <g id="Group_107" data-name="Group 107" transform="translate(-5986.7 -366.856)">
    <g id="Group_108" data-name="Group 108" transform="translate(5986.7 366.856)">
      <g id="Ellipse_4" data-name="Ellipse 4" transform="translate(0 0)" fill="#fff" stroke="#000" stroke-width="1">
        <circle cx="8.157" cy="8.157" r="8.157" stroke="none"/>
        <circle cx="8.157" cy="8.157" r="7.657" fill="none"/>
      </g>
      <path id="Subtraction_1" data-name="Subtraction 1" d="M27.71,28.948H25.189v-4.26H2.543v4.26H0V12.888a1.235,1.235,0,0,1,1.237-1.26,1.31,1.31,0,0,1,.5.1A1.334,1.334,0,0,1,2.152,12a1.225,1.225,0,0,1,.391.892v8.75H25.189v-6.2a1.26,1.26,0,1,1,2.52,0V28.948Zm-3.449-8.284H8.717V15.075l14-.011a1.547,1.547,0,0,1,1.087.44,1.517,1.517,0,0,1,.459,1.074Zm-17.332,0H4.181a.951.951,0,1,1,0-1.9h2.75a.951.951,0,0,1,0,1.9ZM5.945,18.19a1.941,1.941,0,1,1,1.367-.568,1.941,1.941,0,0,1-1.367.568Zm16.736-4.513H21.135L19.966,9.771h-.813l1.133,3.9H14.113l1.136-3.9h-.815l-1.146,3.907H11.718l1.547-5.086a2.419,2.419,0,0,1,.676-1.028,2.317,2.317,0,0,1,.648-.422,2.2,2.2,0,0,1,.852-.177l3.55.011a2.212,2.212,0,0,1,1.473.6,2.345,2.345,0,0,1,.657,1.014l1.558,5.086Zm-5.5-7.239a1.819,1.819,0,1,1,1.289-.533,1.819,1.819,0,0,1-1.289.533Zm1.89-3.391h0a2.369,2.369,0,0,0-3.734-.011L14.33,1.191a3.787,3.787,0,0,1,.687-.549,4.217,4.217,0,0,1,.749-.369A4.165,4.165,0,0,1,17.194,0a4.584,4.584,0,0,1,1.459.27,3.6,3.6,0,0,1,1.416.873l-1,1.9ZM16.346.79v.573h.561v.55h.561V1.352h.561V.79h-.561V.229h-.561V.79Z" transform="translate(3.043 5.168)"/>
      <path id="Subtraction_3" data-name="Subtraction 3" d="M5.051,14.078A7.019,7.019,0,0,1,0,11.941L5.051,6.89V0a7.039,7.039,0,1,1,0,14.078Z" transform="translate(3.043 1.29)"/>
      <text id="_8" data-name="8" transform="translate(8.75 9.272)" fill="#fff" font-size="5" font-family="GraphikArabic-Medium, Graphik Arabic" font-weight="500"><tspan x="0" y="0">8</tspan></text>
    </g>
  </g>
</svg>
