<svg xmlns="http://www.w3.org/2000/svg" width="30.544" height="33.369" viewBox="0 0 30.544 33.369">
  <g id="Group_112" data-name="Group 112" transform="translate(-6300 -873.054)">
    <g id="Group_111" data-name="Group 111" transform="translate(6300 873.054)">
      <g id="Group_110" data-name="Group 110" transform="translate(0 0)">
        <g id="Ellipse_4" data-name="Ellipse 4" transform="translate(0 0)" fill="#fff" stroke="#000" stroke-width="1">
          <ellipse cx="8" cy="7.5" rx="8" ry="7.5" stroke="none"/>
          <ellipse cx="8" cy="7.5" rx="7.5" ry="7" fill="none"/>
        </g>
        <path id="Subtraction_1" data-name="Subtraction 1" d="M27.521,28.751h-2.5V24.52H2.525v4.231H0V12.8a1.227,1.227,0,0,1,1.229-1.252,1.3,1.3,0,0,1,.5.1,1.325,1.325,0,0,1,.414.269,1.217,1.217,0,0,1,.388.886v8.691H25.017V15.337a1.252,1.252,0,0,1,2.5,0V28.751ZM24.1,20.524H8.658V14.973l13.9-.011a1.537,1.537,0,0,1,1.08.437,1.507,1.507,0,0,1,.456,1.067Zm-17.214,0H4.152a.944.944,0,1,1,0-1.889H6.884a.944.944,0,0,1,0,1.889ZM5.9,18.067A1.928,1.928,0,1,1,7.262,17.5a1.928,1.928,0,0,1-1.358.564Zm16.623-4.483H20.991L19.83,9.7h-.808l1.125,3.869H14.017L15.145,9.7h-.809L13.2,13.585H11.639l1.536-5.052a2.4,2.4,0,0,1,.672-1.021,2.3,2.3,0,0,1,.644-.419,2.184,2.184,0,0,1,.847-.176l3.526.011a2.2,2.2,0,0,1,1.463.6,2.329,2.329,0,0,1,.653,1.007l1.547,5.052Zm-5.461-7.19a1.806,1.806,0,1,1,1.28-.529,1.806,1.806,0,0,1-1.28.529Zm1.877-3.368h0a2.353,2.353,0,0,0-3.709-.011l-1-1.832a3.761,3.761,0,0,1,.683-.545,4.189,4.189,0,0,1,.744-.366A4.137,4.137,0,0,1,17.077,0a4.553,4.553,0,0,1,1.449.269,3.573,3.573,0,0,1,1.407.867l-.99,1.89ZM16.235.785v.569h.557V1.9h.557V1.343h.557V.785H17.35V.228h-.557V.785Z" transform="translate(3.023 4.618)"/>
        <path id="Subtraction_3" data-name="Subtraction 3" d="M14.945,13.982h0l0-7.778V0a6.991,6.991,0,0,1,0,13.982Z" transform="translate(-6.901 0.767)"/>
        <text id="_12" data-name="12" transform="translate(8.395 9.471)" fill="#fff" font-size="5" font-family="GraphikArabic-Medium, Graphik Arabic" font-weight="500"><tspan x="0" y="0">12</tspan></text>
        <text id="_12-2" data-name="12" transform="translate(8.395 9.471)" fill="#fff" font-size="5" font-family="GraphikArabic-Medium, Graphik Arabic" font-weight="500"><tspan x="0" y="0">12</tspan></text>
        <text id="_12-3" data-name="12" transform="translate(1.679 9.471)" font-size="5" font-family="GraphikArabic-Medium, Graphik Arabic" font-weight="500"><tspan x="0" y="0">12</tspan></text>
      </g>
    </g>
  </g>
</svg>
