<svg xmlns="http://www.w3.org/2000/svg" width="26.192" height="32.784" viewBox="0 0 26.192 32.784">
  <g id="health-care-doctor-svgrepo-com" transform="translate(-51.47 -0.001)">
    <g id="Group_19" data-name="Group 19" transform="translate(51.47 0.001)">
      <g id="Group_18" data-name="Group 18" transform="translate(0 0)">
        <path id="Path_11" data-name="Path 11" d="M77.606,30.82l-1.99-7.258.8-5.114a5.053,5.053,0,0,0-.052-1.85l-2-9.276a1.949,1.949,0,0,0-2.315-1.5l-3.4.731a1.949,1.949,0,0,0-1.5,2.315l.219,1.017,1.693-1.824L67.5,11.119l-4.259,1.592a8.057,8.057,0,0,1,.347-1.314,5.7,5.7,0,0,1,2.161-2.876,7.306,7.306,0,0,0,2.7-3.282,2.662,2.662,0,1,0-3.314-2.23.221.221,0,0,0,.005.033,18.134,18.134,0,0,0-1.353,5.914,7.555,7.555,0,0,0-1.4,2.892,9.495,9.495,0,0,0-.243,1.387,1.3,1.3,0,0,0-.288.41.825.825,0,0,0-.8-.369c-.3.09-.427.451-.466.764a1.705,1.705,0,0,0-.637-.241l-3.011-.49a1.708,1.708,0,0,0-1.963,1.414c-.877,5.544-1.07,6.792-1.244,8.347a1.366,1.366,0,0,0,.4,1.129H52.559a1.089,1.089,0,0,0-1.089,1.089v6.405a1.089,1.089,0,1,0,2.177,0V29.9h4.315v1.791a1.089,1.089,0,0,0,2.177,0l.007-6.71,1.258.1-.978,6.108a1.377,1.377,0,0,0,2.719.436l1.216-7.585a1.376,1.376,0,0,0-1.118-1.574,1.147,1.147,0,0,0-.333-1.939l-3.7-1.436-.8-3.634,1.345,2.616,1.16.45.326-2c.069-.03.136-.061.2-.093.284.235.615.3.851.028a1.407,1.407,0,0,0,.245-.924q.051-.066.1-.132a1.283,1.283,0,0,0,.853-.018l5.391-2.015a1.294,1.294,0,0,0,.7-.622l1.794-3.5-.806,4.006c-.165.825-.858.99-1.3,1.155l-.852.319.891,3.911-1.584,4.316a1.554,1.554,0,0,0-.061.858l1.64,7.744a1.553,1.553,0,1,0,3.038-.643L70.795,23.6c2.221-6.056,2.084-5.678,2.1-5.738l.467-.1L72.5,23.418a1.553,1.553,0,0,0,.037.646l2.078,7.577a1.553,1.553,0,1,0,3-.821ZM65.716,4.352a2.669,2.669,0,0,0,1.581.932,6.519,6.519,0,0,1-2.363,2.573,18.285,18.285,0,0,1,.782-3.505Zm-7.753,24.1H53.648V26.379h4.314v2.072ZM61.13,22.3,57.3,21.936a1.452,1.452,0,0,1-1.317-1.46v-.047l.191-4.481.93,4.235a1.147,1.147,0,0,0,.706.825Z" transform="translate(-51.47 -0.001)"/>
      </g>
    </g>
    <g id="Group_21" data-name="Group 21" transform="translate(56.826 7.33)">
      <g id="Group_20" data-name="Group 20" transform="translate(0 0)">
        <circle id="Ellipse_2" data-name="Ellipse 2" cx="2.533" cy="2.533" r="2.533"/>
      </g>
    </g>
  </g>
</svg>
