<svg xmlns="http://www.w3.org/2000/svg" xmlns:xlink="http://www.w3.org/1999/xlink" width="80" height="91" viewBox="0 0 80 91">
  <defs>
    <clipPath id="clip-path">
      <rect id="Rectangle_50" data-name="Rectangle 50" width="80" height="91" transform="translate(10143 3002.511)" fill="#fff" stroke="#707070" stroke-width="1"/>
    </clipPath>
  </defs>
  <g id="Mask_Group_23" data-name="Mask Group 23" transform="translate(-10143 -3002.511)" clip-path="url(#clip-path)">
    <g id="noun-cardiology-4316999" transform="translate(10143 3003)">
      <path id="Path_803" data-name="Path 803" d="M148.861,31.9H86.746c-4.558,0-8.256,4.614-8.256,10.286v60.487c0,5.672,3.7,10.3,8.256,10.3h1.941V116.9c0,2.575,1.683,4.66,3.747,4.66H103.16c2.064,0,3.735-2.1,3.735-4.66v-3.925H128.7V116.9c0,2.575,1.683,4.66,3.735,4.66h10.725c2.076,0,3.747-2.1,3.747-4.66v-3.925h1.954c4.546,0,8.256-4.614,8.256-10.3V42.188c0-5.672-3.7-10.286-8.256-10.286Zm5.8,70.774c0,3.986-2.6,7.235-5.8,7.235H86.745c-3.194,0-5.8-3.25-5.8-7.235V42.189c0-3.986,2.6-7.235,5.8-7.235h62.128c3.194,0,5.8,3.25,5.8,7.235v60.487Z" transform="translate(-77.378 -31.902)"/>
      <path id="Path_804" data-name="Path 804" d="M154.358,395.48c-1.658,0-2.985,1.671-2.985,3.74s1.339,3.74,2.985,3.74,3-1.671,3-3.74S156.017,395.48,154.358,395.48Z" transform="translate(-139.708 -329.795)"/>
      <path id="Path_805" data-name="Path 805" d="M225.888,395.48c-1.658,0-2.985,1.671-2.985,3.74s1.339,3.74,2.985,3.74,3-1.671,3-3.74S227.547,395.48,225.888,395.48Z" transform="translate(-200.881 -329.795)"/>
      <path id="Path_806" data-name="Path 806" d="M515.286,407.7h-2.678a1.571,1.571,0,0,0,0,3.066h2.678a1.571,1.571,0,0,0,0-3.066Z" transform="translate(-447.588 -339.808)"/>
      <path id="Path_807" data-name="Path 807" d="M465.056,407.7h-2.678a1.57,1.57,0,0,0,0,3.066h2.678a1.57,1.57,0,0,0,0-3.066Z" transform="translate(-404.631 -339.808)"/>
      <path id="Path_808" data-name="Path 808" d="M414.916,407.7h-2.678a1.57,1.57,0,0,0,0,3.066h2.678a1.57,1.57,0,0,0,0-3.066Z" transform="translate(-361.751 -339.808)"/>
      <path id="Path_809" data-name="Path 809" d="M364.686,407.7h-2.678a1.57,1.57,0,0,0,0,3.066h2.678a1.57,1.57,0,0,0,0-3.066Z" transform="translate(-318.794 -339.808)"/>
      <path id="Path_810" data-name="Path 810" d="M181.263,73.223H125.142c-2.9,0-5.258,2.943-5.258,6.561v40.208c0,3.6,2.359,6.561,5.258,6.561h56.132c2.9,0,5.258-2.958,5.258-6.561V79.784c0-3.617-2.359-6.561-5.271-6.561Zm-27.286,44.638a1.264,1.264,0,0,1-1.548,0c-3.145-2.315-14.768-11.665-14.976-23.529-.11-6.147,3.477-11.6,8.354-12.509a8.264,8.264,0,0,1,6.6,1.61,1.294,1.294,0,0,0,1.6,0,8.326,8.326,0,0,1,6.6-1.61c4.877.92,8.465,6.361,8.354,12.509-.208,11.864-11.83,21.215-14.976,23.529Z" transform="translate(-112.779 -65.758)"/>
      <path id="Path_811" data-name="Path 811" d="M289.375,169.12h-3.329l-1.228-4.967a1.173,1.173,0,0,0-2.334-.03l-2.15,8.048L278.11,165a1.284,1.284,0,0,0-1.007-.965,1.127,1.127,0,0,0-1.155.659l-1.879,3.418h-4.2a1.57,1.57,0,0,0,0,3.066h4.84a1.163,1.163,0,0,0,1.007-.659l.934-1.686,2.617,8.446a1.262,1.262,0,0,0,1.142.981h.024a1.305,1.305,0,0,0,1.142-1.042l2.027-7.572.369,1.487a1.29,1.29,0,0,0,1.179,1.073h4.226a1.41,1.41,0,0,0,1.229-1.533,1.427,1.427,0,0,0-1.229-1.548Z" transform="translate(-239.994 -139.382)"/>
      <g id="Group_748" data-name="Group 748" transform="translate(0.188 112.712)">
        <path id="Path_812" data-name="Path 812" d="M5.919-26.1a2.591,2.591,0,0,1-.665.311,2.472,2.472,0,0,1-.717.1,2.194,2.194,0,0,1-1.774-.779,3.189,3.189,0,0,1-.654-2.117A3.189,3.189,0,0,1,2.763-30.7a2.192,2.192,0,0,1,1.774-.782,2.472,2.472,0,0,1,.717.1,2.638,2.638,0,0,1,.665.311v1.157a2.38,2.38,0,0,0-.633-.4,1.725,1.725,0,0,0-.656-.127,1.135,1.135,0,0,0-.973.494A2.306,2.306,0,0,0,3.3-28.586a2.3,2.3,0,0,0,.353,1.361,1.133,1.133,0,0,0,.973.494,1.725,1.725,0,0,0,.656-.127,2.453,2.453,0,0,0,.633-.4Z" transform="translate(-2.11 31.485)"/>
      </g>
      <g id="Group_749" data-name="Group 749" transform="translate(4.906 114.107)">
        <path id="Path_813" data-name="Path 813" d="M6.058-22.52a1.081,1.081,0,0,0-.281-.121,1.043,1.043,0,0,0-.281-.04.725.725,0,0,0-.638.33,1.7,1.7,0,0,0-.222.948v1.931H3.563v-4.192H4.637v.689a1.583,1.583,0,0,1,.473-.6,1.1,1.1,0,0,1,.645-.189c.036,0,.075,0,.118.006s.1.013.183.025Z" transform="translate(-3.563 23.765)"/>
      </g>
      <g id="Group_750" data-name="Group 750" transform="translate(7.685 114.107)">
        <path id="Path_814" data-name="Path 814" d="M5.433-21.578v.381H2.924a1.1,1.1,0,0,0,.271.709.883.883,0,0,0,.654.234,2.086,2.086,0,0,0,.695-.124,3.309,3.309,0,0,0,.731-.381v1.033a3.924,3.924,0,0,1-.762.268,3.2,3.2,0,0,1-.762.093,1.782,1.782,0,0,1-1.416-.576,2.389,2.389,0,0,1-.5-1.623,2.422,2.422,0,0,1,.5-1.612,1.689,1.689,0,0,1,1.366-.59,1.54,1.54,0,0,1,1.267.6,2.481,2.481,0,0,1,.475,1.592Zm-1.1-.446a.991.991,0,0,0-.179-.615.556.556,0,0,0-.466-.234.644.644,0,0,0-.507.22,1.114,1.114,0,0,0-.242.629Z" transform="translate(-1.829 23.765)"/>
      </g>
      <g id="Group_751" data-name="Group 751" transform="translate(11.851 114.107)">
        <path id="Path_815" data-name="Path 815" d="M3.586-21.359a.766.766,0,0,0-.507.144.513.513,0,0,0-.17.418.557.557,0,0,0,.136.4.5.5,0,0,0,.38.144.619.619,0,0,0,.509-.271,1.085,1.085,0,0,0,.208-.68v-.152Zm1.64-.505v2.391H4.143v-.621a1.546,1.546,0,0,1-.486.556A1.2,1.2,0,0,1,3-19.366a1.065,1.065,0,0,1-.848-.378,1.467,1.467,0,0,1-.324-.985,1.347,1.347,0,0,1,.4-1.084,1.954,1.954,0,0,1,1.276-.344h.633v-.1a.536.536,0,0,0-.2-.463,1.058,1.058,0,0,0-.627-.15,2.29,2.29,0,0,0-.643.088,1.9,1.9,0,0,0-.55.257v-1.022a5.086,5.086,0,0,1,.692-.158,4.36,4.36,0,0,1,.695-.056,1.686,1.686,0,0,1,1.312.449,2.134,2.134,0,0,1,.4,1.454Z" transform="translate(-1.828 23.766)"/>
      </g>
      <g id="Group_752" data-name="Group 752" transform="translate(15.813 113.02)">
        <path id="Path_816" data-name="Path 816" d="M2.169-29.781v1.188H3.277v.96H2.169v1.776a.616.616,0,0,0,.093.4.508.508,0,0,0,.371.1h.55v.957H2.261a1.091,1.091,0,0,1-.9-.33A1.838,1.838,0,0,1,1.1-25.857v-1.776H.562v-.96H1.1v-1.188Z" transform="translate(-0.562 29.781)"/>
      </g>
      <g id="Group_753" data-name="Group 753" transform="translate(18.932 114.107)">
        <path id="Path_817" data-name="Path 817" d="M5.433-21.578v.381H2.924a1.1,1.1,0,0,0,.271.709.883.883,0,0,0,.654.234,2.086,2.086,0,0,0,.695-.124,3.309,3.309,0,0,0,.731-.381v1.033a3.924,3.924,0,0,1-.762.268,3.2,3.2,0,0,1-.762.093,1.782,1.782,0,0,1-1.416-.576,2.389,2.389,0,0,1-.5-1.623,2.422,2.422,0,0,1,.5-1.612,1.689,1.689,0,0,1,1.366-.59,1.54,1.54,0,0,1,1.267.6,2.481,2.481,0,0,1,.475,1.592Zm-1.1-.446a.991.991,0,0,0-.179-.615.556.556,0,0,0-.466-.234.644.644,0,0,0-.507.22,1.114,1.114,0,0,0-.242.629Z" transform="translate(-1.829 23.765)"/>
      </g>
      <g id="Group_754" data-name="Group 754" transform="translate(23.11 112.577)">
        <path id="Path_818" data-name="Path 818" d="M4.431-29.988v-2.247H5.511v5.823H4.431v-.607a1.614,1.614,0,0,1-.489.542,1.119,1.119,0,0,1-.618.172A1.185,1.185,0,0,1,2.3-26.92a2.863,2.863,0,0,1-.4-1.584,2.866,2.866,0,0,1,.4-1.584,1.185,1.185,0,0,1,1.02-.618,1.1,1.1,0,0,1,.615.175,1.657,1.657,0,0,1,.491.542Zm-.708,2.713a.576.576,0,0,0,.527-.313,1.869,1.869,0,0,0,.181-.915,1.855,1.855,0,0,0-.181-.912.576.576,0,0,0-.527-.316.572.572,0,0,0-.523.316,1.848,1.848,0,0,0-.181.912,1.862,1.862,0,0,0,.181.915A.572.572,0,0,0,3.723-27.275Z" transform="translate(-1.906 32.235)"/>
      </g>
      <g id="Group_755" data-name="Group 755" transform="translate(29.885 112.577)">
        <path id="Path_819" data-name="Path 819" d="M5.35-27.275a.576.576,0,0,0,.527-.313,1.869,1.869,0,0,0,.181-.915,1.855,1.855,0,0,0-.181-.912.576.576,0,0,0-.527-.316.583.583,0,0,0-.529.316,1.844,1.844,0,0,0-.183.912,1.841,1.841,0,0,0,.183.912A.582.582,0,0,0,5.35-27.275Zm-.713-2.713a1.644,1.644,0,0,1,.491-.542,1.112,1.112,0,0,1,.62-.175,1.182,1.182,0,0,1,1.02.618,2.871,2.871,0,0,1,.4,1.584,2.868,2.868,0,0,1-.4,1.584,1.182,1.182,0,0,1-1.02.615,1.128,1.128,0,0,1-.62-.172,1.63,1.63,0,0,1-.491-.542v.607H3.562v-5.823H4.637Z" transform="translate(-3.562 32.234)"/>
      </g>
      <g id="Group_756" data-name="Group 756" transform="translate(33.841 114.209)">
        <path id="Path_820" data-name="Path 820" d="M.516-23.2H1.59l.9,2.845L3.26-23.2H4.335l-1.414,4.59a2.367,2.367,0,0,1-.5.977,1.02,1.02,0,0,1-.749.279h-.62v-.881h.335a.606.606,0,0,0,.4-.107.742.742,0,0,0,.192-.39l.032-.116Z" transform="translate(-0.516 23.203)"/>
      </g>
      <g id="Group_757" data-name="Group 757" transform="translate(40.473 112.814)">
        <path id="Path_821" data-name="Path 821" d="M5.046-29.833v3.407H5.46a1.339,1.339,0,0,0,1.079-.438,1.9,1.9,0,0,0,.376-1.273A1.879,1.879,0,0,0,6.542-29.4a1.345,1.345,0,0,0-1.081-.435ZM3.89-30.922H5.107a4.788,4.788,0,0,1,1.52.181,1.952,1.952,0,0,1,.855.615,2.486,2.486,0,0,1,.468.872A3.764,3.764,0,0,1,8.1-28.136a3.818,3.818,0,0,1-.154,1.129,2.468,2.468,0,0,1-.468.875,2,2,0,0,1-.864.615,4.74,4.74,0,0,1-1.511.181H3.89Z" transform="translate(-3.89 30.922)"/>
      </g>
      <g id="Group_758" data-name="Group 758" transform="translate(45.273 114.107)">
        <path id="Path_822" data-name="Path 822" d="M5.433-21.578v.381H2.924a1.1,1.1,0,0,0,.271.709.883.883,0,0,0,.654.234,2.086,2.086,0,0,0,.695-.124,3.309,3.309,0,0,0,.731-.381v1.033a3.924,3.924,0,0,1-.762.268,3.2,3.2,0,0,1-.762.093,1.782,1.782,0,0,1-1.416-.576,2.389,2.389,0,0,1-.5-1.623,2.422,2.422,0,0,1,.5-1.612,1.689,1.689,0,0,1,1.366-.59,1.54,1.54,0,0,1,1.267.6,2.481,2.481,0,0,1,.475,1.592Zm-1.1-.446a.991.991,0,0,0-.179-.615.556.556,0,0,0-.466-.234.644.644,0,0,0-.507.22,1.114,1.114,0,0,0-.242.629Z" transform="translate(-1.829 23.765)"/>
      </g>
      <g id="Group_759" data-name="Group 759" transform="translate(49.494 114.107)">
        <path id="Path_823" data-name="Path 823" d="M5.025-23.532v1.016a3.6,3.6,0,0,0-.665-.268,2.254,2.254,0,0,0-.606-.09.86.86,0,0,0-.455.1.326.326,0,0,0-.149.294.294.294,0,0,0,.113.248.908.908,0,0,0,.4.124l.19.034a2,2,0,0,1,1.109.432,1.326,1.326,0,0,1,.285.94,1.245,1.245,0,0,1-.4,1,1.785,1.785,0,0,1-1.181.336,3.842,3.842,0,0,1-.688-.065,4.9,4.9,0,0,1-.731-.195v-1.019a2.749,2.749,0,0,0,.658.294,2.481,2.481,0,0,0,.686.1.845.845,0,0,0,.473-.107.368.368,0,0,0,.161-.325.319.319,0,0,0-.111-.265,1.01,1.01,0,0,0-.437-.138L3.5-21.118a1.739,1.739,0,0,1-1-.415,1.3,1.3,0,0,1-.287-.923,1.25,1.25,0,0,1,.364-.988,1.664,1.664,0,0,1,1.122-.322,3.673,3.673,0,0,1,.622.056,5.654,5.654,0,0,1,.713.178Z" transform="translate(-2.204 23.766)"/>
      </g>
      <g id="Group_760" data-name="Group 760" transform="translate(53.347 112.577)">
        <path id="Path_824" data-name="Path 824" d="M3.562-30.6H4.637v4.192H3.562Zm0-1.632H4.637v1.092H3.562Z" transform="translate(-3.562 32.234)"/>
      </g>
      <g id="Group_761" data-name="Group 761" transform="translate(55.212 114.115)">
        <path id="Path_825" data-name="Path 825" d="M4.431-20.145a1.623,1.623,0,0,1-.489.539,1.113,1.113,0,0,1-.618.172,1.19,1.19,0,0,1-1.018-.6,2.734,2.734,0,0,1-.4-1.541,2.723,2.723,0,0,1,.4-1.538,1.192,1.192,0,0,1,1.018-.6,1.119,1.119,0,0,1,.618.172A1.628,1.628,0,0,1,4.431-23v-.621H5.511v3.768A2.148,2.148,0,0,1,5-18.313a1.958,1.958,0,0,1-1.482.534,3.069,3.069,0,0,1-.609-.059,3.133,3.133,0,0,1-.59-.183v-1.044a2.293,2.293,0,0,0,.55.3,1.584,1.584,0,0,0,.543.1.961.961,0,0,0,.774-.288,1.371,1.371,0,0,0,.247-.9Zm-.708-2.608a.577.577,0,0,0-.518.308,1.684,1.684,0,0,0-.186.867A1.718,1.718,0,0,0,3.2-20.7a.579.579,0,0,0,.525.3.582.582,0,0,0,.523-.3,1.688,1.688,0,0,0,.186-.867,1.69,1.69,0,0,0-.186-.867.581.581,0,0,0-.523-.308Z" transform="translate(-1.907 23.719)"/>
      </g>
      <g id="Group_762" data-name="Group 762" transform="translate(59.849 114.107)">
        <path id="Path_826" data-name="Path 826" d="M6.941-22.024v2.552H5.859v-1.953q0-.542-.02-.748a.947.947,0,0,0-.066-.3.516.516,0,0,0-.172-.2.423.423,0,0,0-.244-.073.591.591,0,0,0-.529.325,1.783,1.783,0,0,0-.19.9v2.061H3.563v-4.192H4.638v.615a1.834,1.834,0,0,1,.514-.542,1.1,1.1,0,0,1,.6-.175,1,1,0,0,1,.882.446,2.306,2.306,0,0,1,.3,1.3Z" transform="translate(-3.563 23.765)"/>
      </g>
      <g id="Group_763" data-name="Group 763" transform="translate(66.151 112.712)">
        <path id="Path_827" data-name="Path 827" d="M5.919-26.1a2.591,2.591,0,0,1-.665.311,2.472,2.472,0,0,1-.717.1,2.194,2.194,0,0,1-1.774-.779,3.189,3.189,0,0,1-.654-2.117A3.189,3.189,0,0,1,2.763-30.7a2.192,2.192,0,0,1,1.774-.782,2.472,2.472,0,0,1,.717.1,2.638,2.638,0,0,1,.665.311v1.157a2.38,2.38,0,0,0-.633-.4,1.725,1.725,0,0,0-.656-.127,1.135,1.135,0,0,0-.973.494A2.306,2.306,0,0,0,3.3-28.586a2.3,2.3,0,0,0,.353,1.361,1.133,1.133,0,0,0,.973.494,1.725,1.725,0,0,0,.656-.127,2.453,2.453,0,0,0,.633-.4Z" transform="translate(-2.11 31.485)"/>
      </g>
      <g id="Group_764" data-name="Group 764" transform="translate(70.869 112.577)">
        <path id="Path_828" data-name="Path 828" d="M3.562-30.6H4.637v4.192H3.562Zm0-1.632H4.637v1.092H3.562Z" transform="translate(-3.562 32.234)"/>
      </g>
      <g id="Group_765" data-name="Group 765" transform="translate(72.975 114.107)">
        <path id="Path_829" data-name="Path 829" d="M6.058-22.52a1.081,1.081,0,0,0-.281-.121,1.043,1.043,0,0,0-.281-.04.725.725,0,0,0-.638.33,1.7,1.7,0,0,0-.222.948v1.931H3.563v-4.192H4.637v.689a1.583,1.583,0,0,1,.473-.6,1.1,1.1,0,0,1,.645-.189c.036,0,.075,0,.118.006s.1.013.183.025Z" transform="translate(-3.563 23.765)"/>
      </g>
      <g id="Group_766" data-name="Group 766" transform="translate(75.753 114.107)">
        <path id="Path_830" data-name="Path 830" d="M4.794-23.532v1.092a1.581,1.581,0,0,0-.441-.277,1.194,1.194,0,0,0-.457-.09.832.832,0,0,0-.7.327,1.474,1.474,0,0,0-.251.915,1.472,1.472,0,0,0,.251.915.83.83,0,0,0,.7.327,1.249,1.249,0,0,0,.48-.093,1.347,1.347,0,0,0,.419-.277v1.1a2.532,2.532,0,0,1-.514.172,2.308,2.308,0,0,1-.518.059,1.8,1.8,0,0,1-1.423-.582,2.366,2.366,0,0,1-.511-1.617,2.368,2.368,0,0,1,.511-1.617,1.8,1.8,0,0,1,1.423-.584,2.29,2.29,0,0,1,.518.059,2.75,2.75,0,0,1,.514.175Z" transform="translate(-1.828 23.766)"/>
      </g>
      <g id="Group_767" data-name="Group 767" transform="translate(79.645 112.577)">
        <path id="Path_831" data-name="Path 831" d="M3.562-32.234H4.637v5.823H3.562Z" transform="translate(-3.562 32.234)"/>
      </g>
      <g id="Group_768" data-name="Group 768" transform="translate(81.5 114.107)">
        <path id="Path_832" data-name="Path 832" d="M5.433-21.578v.381H2.924a1.1,1.1,0,0,0,.271.709.883.883,0,0,0,.654.234,2.086,2.086,0,0,0,.695-.124,3.309,3.309,0,0,0,.731-.381v1.033a3.924,3.924,0,0,1-.762.268,3.2,3.2,0,0,1-.762.093,1.782,1.782,0,0,1-1.416-.576,2.389,2.389,0,0,1-.5-1.623,2.422,2.422,0,0,1,.5-1.612,1.689,1.689,0,0,1,1.366-.59,1.54,1.54,0,0,1,1.267.6,2.481,2.481,0,0,1,.475,1.592Zm-1.1-.446a.991.991,0,0,0-.179-.615.556.556,0,0,0-.466-.234.644.644,0,0,0-.507.22,1.114,1.114,0,0,0-.242.629Z" transform="translate(-1.829 23.765)"/>
      </g>
      <g id="Group_769" data-name="Group 769" transform="translate(0 120.241)">
        <path id="Path_833" data-name="Path 833" d="M3.421-32.234v.881H2.828a.407.407,0,0,0-.319.1.537.537,0,0,0-.09.356v.291h.919v.96H2.419v3.232H1.346v-3.232H.812v-.96h.534v-.291a1.446,1.446,0,0,1,.305-1.013,1.239,1.239,0,0,1,.948-.327Z" transform="translate(-0.812 32.234)"/>
      </g>
      <g id="Group_770" data-name="Group 770" transform="translate(18.425 120.684)">
        <path id="Path_834" data-name="Path 834" d="M2.169-29.781v1.188H3.277v.96H2.169v1.776a.616.616,0,0,0,.093.4.508.508,0,0,0,.371.1h.55v.957H2.261a1.091,1.091,0,0,1-.9-.33A1.838,1.838,0,0,1,1.1-25.857v-1.776H.562v-.96H1.1v-1.188Z" transform="translate(-0.562 29.781)"/>
      </g>
      <g id="Group_771" data-name="Group 771" transform="translate(21.796 120.241)">
        <path id="Path_835" data-name="Path 835" d="M6.941-28.963v2.552H5.859v-1.945q0-.55-.02-.757a.947.947,0,0,0-.066-.3.516.516,0,0,0-.172-.2.423.423,0,0,0-.244-.073.591.591,0,0,0-.529.325,1.783,1.783,0,0,0-.19.9v2.061H3.563v-5.823H4.638v2.247a1.834,1.834,0,0,1,.514-.542,1.1,1.1,0,0,1,.6-.175,1,1,0,0,1,.882.446,2.306,2.306,0,0,1,.3,1.3Z" transform="translate(-3.563 32.235)"/>
      </g>
      <g id="Group_772" data-name="Group 772" transform="translate(32.522 120.478)">
        <path id="Path_836" data-name="Path 836" d="M3.891-30.922H5.18l1.629,3.831v-3.831H7.9v5.586H6.615L4.986-29.169v3.833h-1.1Z" transform="translate(-3.891 30.922)"/>
      </g>
      <g id="Group_773" data-name="Group 773" transform="translate(52.767 120.478)">
        <path id="Path_837" data-name="Path 837" d="M3.89-30.922H5.806a1.738,1.738,0,0,1,1.312.474A1.859,1.859,0,0,1,7.576-29.1a1.876,1.876,0,0,1-.457,1.355,1.742,1.742,0,0,1-1.312.471h-.76v1.939H3.89Zm1.156,1.044v1.558h.638a.662.662,0,0,0,.518-.2.835.835,0,0,0,.183-.579.82.82,0,0,0-.183-.573.662.662,0,0,0-.518-.2Z" transform="translate(-3.89 30.922)"/>
      </g>
      <g id="Group_774" data-name="Group 774" transform="translate(63.752 120.241)">
        <path id="Path_838" data-name="Path 838" d="M-.687-30.6H.388v4.116A2.154,2.154,0,0,1,.062-25.2a1.092,1.092,0,0,1-.939.443h-.529v-.881h.186A.465.465,0,0,0-.8-25.809a1.346,1.346,0,0,0,.115-.677Zm0-1.632H.388v1.092H-.687Z" transform="translate(1.406 32.234)"/>
      </g>
      <g id="Group_775" data-name="Group 775" transform="translate(73.95 120.684)">
        <path id="Path_839" data-name="Path 839" d="M2.169-29.781v1.188H3.277v.96H2.169v1.776a.616.616,0,0,0,.093.4.508.508,0,0,0,.371.1h.55v.957H2.261a1.091,1.091,0,0,1-.9-.33A1.838,1.838,0,0,1,1.1-25.857v-1.776H.562v-.96H1.1v-1.188Z" transform="translate(-0.562 29.781)"/>
      </g>
    </g>
  </g>
</svg>
