<svg xmlns="http://www.w3.org/2000/svg" xmlns:xlink="http://www.w3.org/1999/xlink" width="392" height="329" viewBox="0 0 392 329">
  <defs>
    <clipPath id="clip-path">
      <rect id="Rectangle_7878" data-name="Rectangle 7878" width="392" height="329" transform="translate(9505 3194)" fill="#fff" stroke="#707070" stroke-width="1"/>
    </clipPath>
    <clipPath id="clip-path-2">
      <rect id="Rectangle_7877" data-name="Rectangle 7877" width="393" height="329" transform="translate(9504 3194)" fill="#fff" stroke="#707070" stroke-width="1"/>
    </clipPath>
    <clipPath id="clip-path-3">
      <rect id="Rectangle_7876" data-name="Rectangle 7876" width="423" height="329" transform="translate(9482 3179.036)" fill="#fff" stroke="#707070" stroke-width="1"/>
    </clipPath>
    <clipPath id="clip-path-4">
      <rect id="Rectangle_7875" data-name="Rectangle 7875" width="472" height="329" transform="translate(-0.219 0.036)" fill="#a4a4a4" stroke="#707070" stroke-width="1"/>
    </clipPath>
    <clipPath id="clip-path-5">
      <rect id="Rectangle_7874" data-name="Rectangle 7874" width="577" height="329" transform="translate(0.477 0.036)" fill="#fff" stroke="#707070" stroke-width="1"/>
    </clipPath>
  </defs>
  <g id="Mask_Group_8" data-name="Mask Group 8" transform="translate(-9505 -3194)" clip-path="url(#clip-path)">
    <g id="Mask_Group_7" data-name="Mask Group 7" clip-path="url(#clip-path-2)">
      <g id="Group_698" data-name="Group 698">
        <g id="Mask_Group_6" data-name="Mask Group 6" transform="translate(0 14.964)" clip-path="url(#clip-path-3)">
          <g id="Mask_Group_5" data-name="Mask Group 5" transform="translate(9433.219 3179)" clip-path="url(#clip-path-4)">
            <g id="Mask_Group_4" data-name="Mask Group 4" transform="translate(-6.696)" clip-path="url(#clip-path-5)">
              <g id="layer1" transform="translate(-47.007 0.057)">
                <g id="Group_642" data-name="Group 642" transform="translate(312.235 79.979)">
                  <path id="Path_54751" data-name="Path 54751" d="M493.253,813.622a187.9,187.9,0,0,1,37.228,9.852,18.672,18.672,0,0,1,5.807,3.5q1.087.8,2.331,4.359a6.216,6.216,0,0,0,1.335,1.462q1.115,1.086,6.611,3.772,11.462,29.072,15.441,44.722a144.459,144.459,0,0,1,5.065,33.59q.269,8.475-.243,18.054-.1,3.992-2.265,29.415-.364,5.35-.462,9.767-.41,8.961,1.1,30.375a37.951,37.951,0,0,1-.316,6.708l-32.653,21.235q-22.305,6.185-31.62,5.029-21.358-1.283-21.6-33.695a250.68,250.68,0,0,1,.927-27.345q-.15-2.186,6.637-64.089,1.242-13.263,1.559-24.641.4-14.222-.375-27.009-.421-9.519-3.3-32.4a42.261,42.261,0,0,1-.173-6.114q.258-3.666,1.623-4.44a3.6,3.6,0,0,1,2.088-.446q.629-1.345,1.5-1.5a9.984,9.984,0,0,1,3.736-.15Z" transform="translate(-478.925 -813.535)" fill="#fff" stroke="#000" stroke-width="1"/>
                </g>
                <g id="Group_643" data-name="Group 643" transform="translate(274.396 508.577)">
                  <path id="Path_54752" data-name="Path 54752" d="M440.1,1394.02h0l37.019,38.507c7.756,9.946,12.627,16.8,14.708,20.5,2.552,4.536,3.188,7.312,2.062,8.618-1.347,1.559-5.3,1.8-12.018.075-14.475-3.723-23.282-6.969-26.619-9.162a8.429,8.429,0,0,1-3.07-3.111,8.274,8.274,0,0,1-.673-2.007l-.973-5.626a22.424,22.424,0,0,0-1.192-3.447c-1.987-4.484-3.723-7.3-5.31-8.207-.526-.3-.87.313-1.02,1.544-.087.709.622,13.356.9,17.153l-3.658-.754-.339-22.4a11.035,11.035,0,0,0-1.159-2.38,95.411,95.411,0,0,1-5.3-8.61,14.922,14.922,0,0,1-1.5-5.76c-.072-3.671,2.561-8.633,8.109-14.893Z" transform="translate(-431.951 -1394.02)"/>
                </g>
                <g id="Group_644" data-name="Group 644" transform="translate(360.367 506.13)">
                  <path id="Path_54753" data-name="Path 54753" d="M555.688,1390.74h0l32.065,39.38c6.117,9.379,10.011,15.8,11.748,19.25,2.123,4.216,2.712,6.715,2.05,7.775-.7,1.127-2.951,1.269-7.137.231l-16.6-4.059a19.13,19.13,0,0,1-6.475-3.238,13.635,13.635,0,0,1-3.737-5.753c-.465-1.187-1.278-5.133-2.464-11.908a13.576,13.576,0,0,0-1.364-3.828,14.845,14.845,0,0,0-2.01-2.962q-1.41-1.657-6.735-7.3l-1.774,26.465-3.831-.09c1.247-5.991.7-20.078.469-23.533-.1-1.477-.229-3.678-.523-6.6a7.767,7.767,0,0,1-2.088-6.6c.492-2.962,3.181-8.722,8.406-17.228Z" transform="translate(-547.175 -1390.74)"/>
                </g>
                <g id="Group_645" data-name="Group 645" transform="translate(280.207 493.856)">
                  <path id="Path_54754" data-name="Path 54754" d="M550.415,1378.177l-19.43-1.283q-.073.761-.145,1.477h0a43.532,43.532,0,0,0,5.165.948,65.251,65.251,0,0,0,14.21.037h0q.1-.582.2-1.179Zm-106.982-.88q.081,1.873.122,3.477h0a33.739,33.739,0,0,0,5.144,1.045,36.525,36.525,0,0,0,11.352-.433l0,.007-.369-1.216-16.23-2.873-.022-.007Zm108.713,58.235q-.177-.015-.357-.037l-.332-.045h0l.334.045q.18.022.358.037Zm-.475-59.212a.968.968,0,0,1,.836.977q-3.831,22.988-2.63,25.473a7.659,7.659,0,0,0,.436,1.358,34.631,34.631,0,0,1,1.932,4.186q3.075,10.759,4.32,13.027a24.474,24.474,0,0,0,2.117,3.731l4.724,6.3a5.07,5.07,0,0,1,.9,2.552q.063,2.052-3.337,3.074a24.969,24.969,0,0,1-8.89.5l-.424-.045q-4.809-.6-7.25-2.955-2.636-2.313-5.253-8.879-4.423-10.953-11.305-33.546a8.285,8.285,0,0,1-.32-2.738q.681-3.842,1.516-12.5l-1.782-.261a.967.967,0,0,1,.416-1.835l23.942,1.574Zm-80.338,64.04h.055ZM443.3,1374.29l.119,1.037,17.214,3.052a.957.957,0,0,1,.714.589q8.733,28.763,11.5,35.09a74.08,74.08,0,0,0,3.384,7.23l8.774,15.631a.969.969,0,0,1-.31.88,26.119,26.119,0,0,1-4.393,3.022,13.786,13.786,0,0,1-5.809,1.552,31.392,31.392,0,0,1-3.884-.231,43.714,43.714,0,0,1-13.213-4.074q-4.715-2.328-7.593-8.879a110.7,110.7,0,0,1-5.326-15.892,194.221,194.221,0,0,1-4.649-20.466,6.087,6.087,0,0,1,.029-2.313,1.662,1.662,0,0,1,1.36-1.179,5.961,5.961,0,0,0,.335-1.8,118.988,118.988,0,0,0-.187-13.094l1.849-.149Z" transform="translate(-439.739 -1374.29)" fill="#ffc4a2"/>
                </g>
                <g id="Group_646" data-name="Group 646" transform="translate(269.062 247.674)">
                  <path id="Path_54755" data-name="Path 54755" d="M513.547,1074.17a.188.188,0,0,0,.052.007.191.191,0,0,1,.053.007Zm-66.466-27.808a2.714,2.714,0,0,0-1.444.179l-.15.075q-1.418.634-2.485,3.835l-3.566,13.251h0l-3.705,13.766,3.705-13.766h0a218.977,218.977,0,0,0,21.9,10.334,53.95,53.95,0,0,0,13.2,3.32q2.624.321,5.354.425.509.008.868-.656,1.487-4.417,2.82-8.431h0q-.975-.209-1.971-.433a34.572,34.572,0,0,1-10.394-4.35q-2.8-1.1-20.118-15.691A9.861,9.861,0,0,0,447.081,1046.362Zm48.12,86.147h0Zm37.072,169.332a.092.092,0,0,1,.036.007h.037Zm-89.606,2.686h.043Zm4.708-260.142a9.878,9.878,0,0,1,4.165,1.731q19.435,16.31,23.025,17.377,4.369,2.6,14.27,4.245,14.921,3.194,24.8,4.417a81.107,81.107,0,0,0,11.176.746,51.04,51.04,0,0,0,10.5-1.127q5.556-1.089,14.906-5.342a1.778,1.778,0,0,1,.46,0,.88.88,0,0,1,.821.731q-.193,14.191.187,15.974,6.323,35.456,9.512,69.121,1.888,20.817,1.808,42.544a302.742,302.742,0,0,1-1.575,32.755q-10.976,72.508-10.345,75.276a1,1,0,0,1-.454.687,71.848,71.848,0,0,1-18.116.358,40.355,40.355,0,0,1-10.274-2.574q-.41-28.218-1.115-37.3.028-3.813-3.152-25.241-.4-3.178,3.325-15.691a16.336,16.336,0,0,0-.119-5.282q-13.679-60.2-25.7-81.282l-18.955,74.813a78.7,78.7,0,0,1-2.858,8.23l-6.894,15.348a86,86,0,0,0-3.259,10.9q-3.273,12.408-7.016,59.637a38.809,38.809,0,0,1-14.37,1.022,37.68,37.68,0,0,1-17.329-6.954q1.213-23.286,1.194-32.4.236-5.364-1.1-27.211a58.588,58.588,0,0,1,.178-7.051,44.52,44.52,0,0,1,1.66-8.439q5.97-16.4,6.735-20.5a53.918,53.918,0,0,0,1.631-12.49q-.384-33.329-1.206-39.343a78.872,78.872,0,0,0-1.354-9.468l-4.437-17.922a59.591,59.591,0,0,1-.233-13.423,236.488,236.488,0,0,1,6.344-36.045l6.913-25.473a8.476,8.476,0,0,1,3.224-4.82l.23-.127A5.026,5.026,0,0,1,447.375,1044.385Z" transform="translate(-424.802 -1044.34)"/>
                </g>
                <g id="Group_647" data-name="Group 647" transform="translate(277.06 85.16)">
                  <path id="Path_54756" data-name="Path 54756" d="M501.831,920.675h.008ZM477,1019.991h.032a.078.078,0,0,1,.033.007Zm-1.824-193.456a1,1,0,0,1,.79.55Q486,845.58,490.675,855.367a165.682,165.682,0,0,1,9.393,23.075q5.413,16.7,2.971,40.114l43.922-3.263a1.03,1.03,0,0,1,.211,0q.666.082.815,1.1l-2.67,24.5q.085.3-.472.839l-39.976,4.677q-5.368,24.7-9.391,38.082-3.423,11.878-11.989,37.328-.36.664-.868.657-2.73-.1-5.354-.425a53.95,53.95,0,0,1-13.2-3.32,225.657,225.657,0,0,1-28.542-14.049q1.854-6.544,5.765-16.571,1.031-3.067,6.645-13.5a43.756,43.756,0,0,0,2.154-5.738q2.473-8.2,4.864-27.93a39.6,39.6,0,0,0-1.894-8.836q-8.25-23.307-9.239-27.492-2.077-7.184-3.6-14.854-5.808-33.51-4.145-44.554,1.262-6.74,9.959-10.644a102.14,102.14,0,0,1,28.885-8.027l.205-.008Z" transform="translate(-435.522 -826.529)" fill="#fff" stroke="#000" stroke-width="3"/>
                </g>
                <g id="Group_648" data-name="Group 648" transform="translate(367.03 93.068)">
                  <path id="Path_54757" data-name="Path 54757" d="M619.739,906.207h0Zm-28.2,6.179a.861.861,0,0,0-.44.062h0a.856.856,0,0,1,.44-.063,1.108,1.108,0,0,1,.454.172A1.108,1.108,0,0,0,591.543,912.387Zm27.495,21.638.011,0h.011ZM558.073,837.13q16.849,4.979,20.977,10.121a20.941,20.941,0,0,1,2.924,4.2q6.142,14.514,11.1,21.415-.092.387,9.708,11.673l9.741,14.111a18.133,18.133,0,0,0,6.088,4.854l1.116.549q5.814-2.174,8.65-3.53,3.376-1.283,8.213-5.923a29.891,29.891,0,0,0,7.842-3.254Q647.1,890.067,663,876.21l.051.006q.9.11,1.016.641l10.684,19.433q-.13.8-.38.857l-39.839,31.448q-8.809,6.675-12.193,7.228a9.393,9.393,0,0,1-3.506.2,16.559,16.559,0,0,1-7.153-3.016q-5.8-3.734-19.361-17.331h0q-.955,11.117-.462,15.5-.082,2.341,2.672,6.793a6.549,6.549,0,0,1,.248,2.258,18.521,18.521,0,0,1-.874,4.35l-4.429,13.827-1.034,5.026a17.991,17.991,0,0,0,.013,4.007q2.015,9.714,1.854,12.677a79.079,79.079,0,0,1-1.188,14.333q-2.785,19.116-13.8,21.093-.883-.336-.817-1.022a101.8,101.8,0,0,0,2.238-19.586q-1.678-29.218-1.067-37.122,0-7.437,3.719-49.426a74.019,74.019,0,0,0,0-11.551,38.364,38.364,0,0,0-4.634-14.875L556.1,851.805l.454-6.419q.157-.824.4-.868.1-.17.734-.2l6.35,1.754h0l-6.86-7.3q-.554-1.6.867-1.644Z" transform="translate(-556.105 -837.127)" fill="#fff" stroke="#000" stroke-width="3"/>
                </g>
                <g id="Group_649" data-name="Group 649" transform="translate(329.375 12.922)">
                  <path id="Path_54758" data-name="Path 54758" d="M541.5,729.869q10.035,1.663,15.161,8.4c2.582,3.422,8.026,5.441,7.616,13.81-1.67,12.957-8.137,25.52-10.684,29.935q-3.411,7.019-14.829,13.268l-2.433,9.27,1.378,11.4a21.174,21.174,0,0,1,.067,4.559,5.6,5.6,0,0,1-1.542,3.322l-2.025,6.767-28.572-30.271,4.658-19.153q-1.856-9.92-1.438-14.727c.179-3.618-8.7-4.949-6.882-8.472,1.437-2.869,12.631-13.222,15.786-17.259,3.389-4.532,7.689-3.622,10.942-6.592q5.734-5.22,12.731-4.256Z" transform="translate(-505.637 -729.711)" fill="#fff" stroke="#000" stroke-width="3"/>
                </g>
                <g id="Group_651" data-name="Group 651" transform="translate(340.745 312.713)">
                  <path id="Path_54760" data-name="Path 54760" d="M524.969,1131.51q24.132,41.044,28.759,74.015,5.7,31.516.994,111.933l-5.208-.918h0q.016-.164.032-.328h0q-1.482-.455-2.864-1.015-.4-27.256-1.077-36.03.027-3.679-3.044-24.376-.389-3.066,3.211-15.154a15.805,15.805,0,0,0-.115-5.111q-13.188-58.033-24.779-78.425h0l4.06-24.391Z" transform="translate(-520.876 -1131.51)" fill="rgba(0,0,0,0.24)"/>
                </g>
                <g id="Group_652" data-name="Group 652" transform="translate(384.067 215.232)">
                  <path id="Path_54761" data-name="Path 54761" d="M581.681,1019.289l-2.742,41.835,11.368-1.694q2.765-10.856,3.856-16.915,1.028-6.066,1.1-7.282.28-2.433.416-4.872t.121-4.895q.065-1.216-.29-7.357-.418-6.148-1.974-17.25l-11.854,18.429" transform="translate(-578.939 -1000.86)" fill="#fff"/>
                </g>
                <g id="Group_653" data-name="Group 653" transform="translate(258.253 175.631)">
                  <path id="Path_54762" data-name="Path 54762" d="M501.216,977.944l-1.173,33.622-1.173,33.62q-10.017,75.179-20.034,150.358l-68.521-16.131,34.845-231.63,56.056,30.16" transform="translate(-410.315 -947.784)" fill="#fff" stroke="#000" stroke-width="3"/>
                </g>
                <g id="Group_654" data-name="Group 654" transform="translate(371.741 155.274)">
                  <path id="Path_54763" data-name="Path 54763" d="M584.762,920.5l-5.005,38.187-5.006,38.186L562.419,1194.58l43.313-3.268q-3.908-117.969-7.818-235.937L584.762,920.5" transform="translate(-562.419 -920.5)" fill="#fff" stroke="#000" stroke-width="3"/>
                </g>
                <g id="Group_655" data-name="Group 655" transform="translate(386.151 168.527)">
                  <path id="Path_54764" data-name="Path 54764" d="M581.732,945.494a22.981,22.981,0,0,0,4.917-1.513q.4-.049,6.485-3.47a27.851,27.851,0,0,1,2.643-1.2,14.293,14.293,0,0,1,4.794-1.047,19.8,19.8,0,0,1,5.7.759q1.243.325,2.8.838,7.825,2.721,9.379,3.164a32.373,32.373,0,0,0,4.674,1.156,7.975,7.975,0,0,0,3.345-.127q3.6-1.242,6.69-2.664A6.019,6.019,0,0,1,635,941q3.086.182,3.605,2.75a3.647,3.647,0,0,1-1.347,2.681,49.706,49.706,0,0,1-4.88,4.127,29,29,0,0,0-2.232,2.294,5.345,5.345,0,0,1-.848.68,7.3,7.3,0,0,1-1.292.631q-4.725,1.618-5.7,2.123-.635.227-5.724,2.969l-1.661.773a8.668,8.668,0,0,1-3.175.736,11.776,11.776,0,0,1-1.516-.059q-4.539-.662-10.227-1.065-5.936-.439-17.542-1.044l-.728-13.085Z" transform="translate(-581.732 -938.262)" fill="#fff" stroke="#000" stroke-width="3"/>
                </g>
                <g id="Group_656" data-name="Group 656" transform="translate(374.339 114.324)">
                  <path id="Path_54765" data-name="Path 54765" d="M565.9,865.616l10.3,41.207,2.076,19.679,9.549-8.2,3.475-27.5-25.4-25.194" transform="translate(-565.901 -865.616)" fill="#fff"/>
                </g>
                <g id="Group_657" data-name="Group 657" transform="translate(363.254 166.746)">
                  <path id="Path_54766" data-name="Path 54766" d="M552.13,941.135l.328.234a2.967,2.967,0,0,0,4.178-3.908l-.2-.33a2.966,2.966,0,1,0-4.3,4" transform="translate(-551.044 -935.875)" fill="rgba(60,70,79,1)"/>
                </g>
                <g id="Group_659" data-name="Group 659" transform="translate(204.247 455.894)">
                  <path id="Path_54768" data-name="Path 54768" d="M337.932,1323.41v.007h0Z" transform="translate(-337.932 -1323.41)" fill="rgba(0,0,0,1)"/>
                </g>
                <g id="Group_660" data-name="Group 660" transform="translate(393.432 367.045)">
                  <path id="Path_54769" data-name="Path 54769" d="M690.741,1204.33h0q-49.624,8.513-99.25,17.019Z" transform="translate(-591.491 -1204.33)" fill="rgba(255,81,0,1)"/>
                </g>
                <g id="Group_661" data-name="Group 661" transform="translate(348.781 527.513)">
                  <path id="Path_54770" data-name="Path 54770" d="M531.646,1419.4Z" transform="translate(-531.646 -1419.4)" fill="rgba(0,0,0,1)"/>
                </g>
                <g id="Group_662" data-name="Group 662" transform="translate(347.609 582.883)">
                  <path id="Path_54771" data-name="Path 54771" d="M530.076,1493.61Z" transform="translate(-530.076 -1493.61)" fill="rgba(0,0,0,1)"/>
                </g>
                <g id="Group_663" data-name="Group 663" transform="translate(282.724 401.404)">
                  <path id="Path_54772" data-name="Path 54772" d="M443.114,1250.38h0Z" transform="translate(-443.113 -1250.38)" fill="rgba(0,0,0,1)"/>
                </g>
                <g id="Group_664" data-name="Group 664" transform="translate(80.862 332.023)">
                  <path id="Path_54773" data-name="Path 54773" d="M172.564,1157.39a20.459,20.459,0,0,1,2.306.537q.9.224,3.9,1.283Z" transform="translate(-172.564 -1157.39)" fill="rgba(164,174,181,1)"/>
                </g>
                <g id="Group_665" data-name="Group 665" transform="translate(179.233 419.498)">
                  <path id="Path_54774" data-name="Path 54774" d="M315.3,1274.63H676.164a10.894,10.894,0,0,1,10.891,10.893h0v137.988a10.889,10.889,0,0,1-10.891,10.893H315.3a10.884,10.884,0,0,1-10.89-10.886h0V1285.523A10.9,10.9,0,0,1,315.3,1274.63h0m0,21.787,10.89-10.893v137.995L315.3,1412.625H676.164l-10.89,10.886V1285.523l10.89,10.893Z" transform="translate(-304.407 -1274.63)" fill="#7c8a96"/>
                </g>
                <g id="Group_666" data-name="Group 666" transform="translate(0 298.544)">
                  <path id="Path_54775" data-name="Path 54775" d="M64.187,1112.52l56.063,24.95,47.306-.4v184.314a15.413,15.413,0,0,0,15.415,15.415H693.727a15.415,15.415,0,0,0,15.416-15.415V1132.6l93.064-.768,6.581-19.31H64.187Z" transform="translate(-64.187 -1112.52)" fill="#626a6f"/>
                </g>
                <g id="Group_667" data-name="Group 667" transform="translate(272.933 541.6)">
                  <path id="Path_54776" data-name="Path 54776" d="M429.99,1438.28l336.526,41.589h0Z" transform="translate(-429.99 -1438.28)" fill="rgba(115,110,110,1)"/>
                </g>
                <g id="Group_668" data-name="Group 668" transform="translate(401.909 171.729)">
                  <path id="Path_54777" data-name="Path 54777" d="M603.962,942.555l-.054.014q-.277.069-.51.1-.162.025-.235.031-.255.026-.312.025l1.1-.175.009,0" transform="translate(-602.852 -942.554)" fill="#ffc4a2"/>
                </g>
                <g id="Group_670" data-name="Group 670" transform="translate(83.021 301.544)">
                  <path id="Path_54779" data-name="Path 54779" d="M175.458,1116.54Z" transform="translate(-175.458 -1116.54)" fill="rgba(0,0,0,1)"/>
                </g>
                <g id="Group_671" data-name="Group 671" transform="translate(314.246 124.347)">
                  <path id="Path_54780" data-name="Path 54780" d="M485.36,879.049l5.222,38.171,16.045-.986-14.105-4.939-7.161-32.246" transform="translate(-485.36 -879.049)"/>
                </g>
                <g id="Group_672" data-name="Group 672" transform="translate(0.374 297.955)">
                  <path id="Path_54781" data-name="Path 54781" d="M64.688,1111.73H815.212v29.158H64.688V1111.73" transform="translate(-64.688 -1111.73)" fill="#d8d8d8"/>
                </g>
                <g id="Group_673" data-name="Group 673" transform="translate(134.565 264.096)">
                  <path id="Path_54782" data-name="Path 54782" d="M252.911,1066.35l-3.03.866q-7.15,7.081-4.728,18.8a51.443,51.443,0,0,0,10.686,25.025,22.307,22.307,0,0,0,12.225,7.319c3.9,1.179,25.929-1.96,28.117-2.811,9.876-4.048,11.95-2.728,21.621-15.059H326.3l14.744-5.6L317.8,1066.432l-64.891-.082" transform="translate(-244.54 -1066.35)"/>
                </g>
                <g id="Group_674" data-name="Group 674" transform="translate(70.068 188.598)">
                  <path id="Path_54783" data-name="Path 54783" d="M165.808,965.163h0L158.1,975.722l26.157,13.137a60.1,60.1,0,0,1,10.1,7.7l19.533,10.52a49.471,49.471,0,0,0,7.241,2.776l17.185,4.111a42.159,42.159,0,0,1,8,3.954l52.446,35.463c6.727,8.043,10.884,12.647,12.377,13.93a11.1,11.1,0,0,0,4.451,2.626,48.341,48.341,0,0,0,6.108,5.6,29.82,29.82,0,0,0,5.311,3c2.939,1.328,8.256,1.925,15.979,1.738l32.44-3.507a87.43,87.43,0,0,1,16.9.351c23.966,2.567,39.532,6.491,46.8,10.871l6.382-53.31c-39.8-4-82.836-17.728-94.444-22.272-14.937-5.857-29.913-.791-34.269,2.686s-12.756,6.961-16.25,8.506a68.2,68.2,0,0,0-14.676-12.124q.917-.425-27.36-13.311l-16.821-5.715c-14.135-6.793-24.17-11.364-30.231-13.338-20.1-6.55-35.358-11.073-45.642-13.945h0Z" transform="translate(-158.097 -965.163)" fill="#fdcc00"/>
                </g>
                <g id="Group_675" data-name="Group 675" transform="translate(618.963 266.282)">
                  <path id="Path_54784" data-name="Path 54784" d="M895.28,1091.626l21.894,1.53a23.262,23.262,0,0,0,4.323-4.1,9,9,0,0,0,1.868-4.805,24.184,24.184,0,0,0-1.376-9q-1.509-4.738-3.337-5.969l-24.89,2.887,1.518,19.459" transform="translate(-893.762 -1069.28)" fill="#ffb298"/>
                </g>
                <g id="Group_676" data-name="Group 676" transform="translate(446.485 148.759)">
                  <path id="Path_54785" data-name="Path 54785" d="M667.7,933.83l22.147-.661q-.744-5.575-1.159-7.466a20.6,20.6,0,0,0-1.318-4.389q-1.237-2.937-6.7-9.545L662.6,915.55l5.1,18.28" transform="translate(-662.596 -911.768)" fill="#f5f5f5" stroke="#707070" stroke-width="1"/>
                </g>
                <g id="Group_677" data-name="Group 677" transform="translate(336.768 139.406)">
                  <path id="Path_54786" data-name="Path 54786" d="M632.743,931.374l-.77-21.012a207.4,207.4,0,0,1-26.07-1.085l-27.926-5.584-16.5-1.387-11.519-2.68-4.026-.358c-2.817-.288-7.669,1.172-14.483,4.526-8.645,4.254-13.169,7.734-14.205,10.07a21.906,21.906,0,0,0-1.674,10.008c.549,12.774,1.75,23.386,2.432,31.97.34,4.282,4.484,24.3,13.781,60.015l-11.165-.515c1.189,2.47,1.682,7.5,1.778,9.916.459,11.565,1.212,19.347,2.447,23.547a271.888,271.888,0,0,0,9.8,26.763A23.932,23.932,0,0,1,546.383,1074a16.538,16.538,0,0,1,4.64.948c6.421,2.82,10.67,4.454,12.827,4.753a28.736,28.736,0,0,0,10.881-.425,52.23,52.23,0,0,0,11.551-4.76c1.254-.664,8.467-5.559,21.417-15.146a46.064,46.064,0,0,1,9.832-5.074q6.457-2.6,19.2-2.067c23.226-7.118,36.507-10.341,39.8-10.647,9.847-.918,16.421-.978,20.077-.463,3.467.492,14.126,3.238,31.97,9.222a34.76,34.76,0,0,0,13.434,1.35c18.431-1.336,38.533-2.529,60.435-2.052q5.2-6.614,4.451-11.916l-1.494-10.61a133.536,133.536,0,0,1-22.37-1.6c-6.725-1.082-18.831-3.6-36.295-7.722l-24.17-4.2a27.393,27.393,0,0,1-7.4-2.776l-10.265-7.349c-.976-.679-3.052-1.328-6.227-1.933l-13.879-1.253-20.16-3.358a165.139,165.139,0,0,0-17.056-.336c-15.05.254-35.975,3-62.77,8.536a412.037,412.037,0,0,0-26.3-62.8,17.335,17.335,0,0,1-1.679-10.2l11.863,3.489,7.869.41q6.471.162,32.182-3.359Z" transform="translate(-515.546 -899.232)"/>
                </g>
                <g id="Group_678" data-name="Group 678" transform="translate(636.906 221.338)">
                  <path id="Path_54787" data-name="Path 54787" d="M917.811,1055.644l.581.522q5.971,4.85,6.831,9.774.981,4.618-3.466,11.318a29.906,29.906,0,0,1,3.115,1.836q5.462,4.6,6.532,4.887a45.745,45.745,0,0,0,9.03,3.126q3.594,1.164,9.217-4.477a21.613,21.613,0,0,0,4.962-7.625,37.1,37.1,0,0,0,1.144-3.619,96.4,96.4,0,0,1,2.884-11.057,30.214,30.214,0,0,1,1.413-3.253,95.28,95.28,0,0,0,5.626-10.923,51.929,51.929,0,0,0,3.014-10.8,30.259,30.259,0,0,0-.288-13.341,16.246,16.246,0,0,0-2-4.447,24.183,24.183,0,0,0-2.935-3.552,5.936,5.936,0,0,0-1.554-2.306,15.517,15.517,0,0,0-7.989-2.626q-3.782-.261-5.473,1.44a6.353,6.353,0,0,0-1.618,2.761,62.974,62.974,0,0,0-1.38,7.1,23.6,23.6,0,0,1-1.121,3.723,34.257,34.257,0,0,1-3.666,6.685q-.93,1.44-3.572,4.708-1.748,2.171-8.927,10a46.836,46.836,0,0,0-3.162,4.111l-7.2,6.043" transform="translate(-917.811 -1009.043)" fill="#ffb298"/>
                </g>
                <g id="Group_679" data-name="Group 679" transform="translate(662.339 268.752)">
                  <path id="Path_54788" data-name="Path 54788" d="M951.9,1072.59h0" transform="translate(-951.898 -1072.59)"/>
                </g>
                <g id="Group_680" data-name="Group 680" transform="translate(463.241 100.996)">
                  <path id="Path_54789" data-name="Path 54789" d="M685.054,894.956l1.841,2.118q4.771,5.429,4.681,5.449a13.022,13.022,0,0,1,1.6,2.769q1.4,3.311,2.368,12.659,17.136,2.453,22.345,4.27a5.09,5.09,0,0,0,4.807-2.536,7,7,0,0,0,.686-3.293q.229-11.246-.056-14.226-.167-2.248-.442-4.144-1.97-12.51-2.179-14.764l-1.331-13.372q-1.709-11.245-6.481-16.836a15.282,15.282,0,0,0-8.563-4.929q-7.033-1.2-9.274,1.526a1.967,1.967,0,0,0-.367,1.853,3.564,3.564,0,0,0,.409.844l1.641,2.443a18.584,18.584,0,0,1,.986,1.941,31.156,31.156,0,0,1,1.753,5.252q1.589,8.025,1,9.542a14.255,14.255,0,0,1-1.617,3.85q-7.275,12.151-8.765,15.125-.872,1.563-5.048,4.46" transform="translate(-685.054 -847.753)" fill="#fff" stroke="#000" stroke-width="2"/>
                </g>
                <g id="Group_681" data-name="Group 681" transform="translate(138.807 236.359)">
                  <path id="Path_54790" data-name="Path 54790" d="M331.276,1058.352l.278-.463a13.508,13.508,0,0,0,2.231-5.492q.366-2.231-.827-7.752l-4.93-1.746a66.638,66.638,0,0,0-9.734-1.1q-4.754-.2-12.43,2.2l-2.47-5.447a7.729,7.729,0,0,0-1.2-5.335q-2.815-3.619-6.007-4.029-2.1-.283-4.851,3.708a14.37,14.37,0,0,0-3.722-.127,2.125,2.125,0,0,0-1.691,1.649l-3.519,1.141q-1.1-.82-1.69-.492a6.5,6.5,0,0,0-1.944,2.641,10.126,10.126,0,0,1-2.311-1.112l-2.771-2.358a6.95,6.95,0,0,0-1.112-.769q-1.232-.575-1.885-.06a5.934,5.934,0,0,0-1.834,2.91,52.369,52.369,0,0,0-1.856,7.118,6.557,6.557,0,0,1-2.844,3.708,43.657,43.657,0,0,0-7.339,4.723,59.717,59.717,0,0,0-6.588,7.014,14.142,14.142,0,0,0,3.272,4.35,30.65,30.65,0,0,0,3.743,2.619l7.31,5.626,3.54-6.32,10.546-3.014,8.874,5.641q-2.879,8.827.284,11.811,2.283,2.611,7.716-2.216-.043,3.276,1.133,3.141.34.164,2.1-.963a56.615,56.615,0,0,0,5.04-4.119l9.157-6.021,2.1-7.581,16.238-3.492" transform="translate(-250.226 -1029.175)" fill="#fff"/>
                </g>
                <g id="Group_682" data-name="Group 682" transform="translate(196.053 230.461)">
                  <path id="Path_54791" data-name="Path 54791" d="M334.405,1111.827l8.521-3.305a125.671,125.671,0,0,0,10.674-11.6,31.571,31.571,0,0,0,3.14-4.783,17.376,17.376,0,0,0,1.278-3.074,14.787,14.787,0,0,0,.455-5.842,91.266,91.266,0,0,0-1.85-9.192,12.863,12.863,0,0,1,0-3.559q.205-3.514,4.9-10.8l7.074-38.4q-6.219,14.967-9.873,18.19a14.249,14.249,0,0,1-2.45,2.1l-1.318.754a16.536,16.536,0,0,1-2.785,1.045l-7.343,1.783q-3.607,1.41-4.233,2.134a18.679,18.679,0,0,0-4.909,6.066,66,66,0,0,0-4.134,9.394q-1.466,3.88-4.6,14.176l7.454,34.918" transform="translate(-563.951 -836.27)"/>
                </g>
                <g id="Group_683" data-name="Group 683" transform="translate(142.921 277.944)">
                  <path id="Path_54792" data-name="Path 54792" d="M255.74,1084.917v0h0" transform="translate(-255.74 -1084.91)" fill="red"/>
                </g>
                <g id="Group_684" data-name="Group 684" transform="translate(208.938 294.918)">
                  <path id="Path_54793" data-name="Path 54793" d="M344.22,1107.66h0" transform="translate(-344.22 -1107.66)"/>
                </g>
                <g id="Group_686" data-name="Group 686" transform="translate(18.451 173.069)">
                  <path id="Path_54795" data-name="Path 54795" d="M148.95,961.683l-8.34-5.582q-3.137-3.248-5.577-3.843a21.587,21.587,0,0,0-5.2-.63l-11.408-1.763-6.253-1.519-3.489-4-2.3,1.691,1.885,2.348,2.029,1.3a8.4,8.4,0,0,0-3.6-.707,5.891,5.891,0,0,0-2.88,1.478l-12.409-4.169-1.5,3.352,13.3,3.658L89.08,949.121l-.164,3.862,17.359,6.44,7.357,3.163,16,3.506,13.558,4.6,5.759-9.01" transform="translate(-88.916 -944.35)" fill="#ffb298"/>
                </g>
                <g id="Group_688" data-name="Group 688" transform="translate(414.944 277.684) rotate(82)">
                  <path id="Path_54797" data-name="Path 54797" d="M567.846,1081.883l.894-.1q5-.484,6.989-1.8,1.319-1.02,1.406-1.374a6.869,6.869,0,0,0,.937-2.624,16.04,16.04,0,0,0,.208-2.381q.026-1.681-.052-3.454.572-17.619.516-19.065l2.006-6.7,1.058-5.215-1.908-.713a30.979,30.979,0,0,0-2.4,3.7,15.393,15.393,0,0,0-1.175,3.265l-1.619,2.983,5.995-16.3-2.6-.811-5.119,12.424,6.968-15.021-2.805-.242-5.4,12.692,3.441-8.185-5.555,8.034q-2.091,10.128-2.814,12.163-.355,3.448-.347,9.284a40.181,40.181,0,0,0,.475,5.8l-2.264,2.944,3.166,10.7" transform="translate(-564.68 -1028.45)" fill="#fff"/>
                </g>
                <g id="Group_689" data-name="Group 689" transform="translate(237.703 264.536)">
                  <path id="Path_54798" data-name="Path 54798" d="M527.649,1098.777l-9.15-13.393q-14.728-.589-24.058-1.932l-23.006-6.267-8.838-1.7q-12.254-1-18.323-.276-13.131-2.462-18.475-2.932-22.195.127-26.252-.358a64.7,64.7,0,0,1-16.776-4.977q6.817,16.072,13.98,33.7l45.453-3.4,8.2,1.545,7.387-.06,27.4,3.41q8,.843,8.442.656,24.341-1,34.021-4.014" transform="translate(-382.773 -1066.94)" fill="#fdcc00"/>
                </g>
                <g id="Group_690" data-name="Group 690" transform="translate(385.351 281.257)">
                  <path id="Path_54799" data-name="Path 54799" d="M580.66,1089.35h0" transform="translate(-580.66 -1089.35)" fill="#ffb493"/>
                </g>
                <g id="Group_692" data-name="Group 692" transform="translate(542.814 223.857)">
                  <path id="Path_54801" data-name="Path 54801" d="M791.7,1012.42h0" transform="translate(-791.702 -1012.42)" fill="#ffb298"/>
                </g>
                <path id="Path_66525" data-name="Path 66525" d="M262.7,144.294,252.67,131.34s-18.8,3.761-32.176,3.343c0,0-3.761,10.029-5.014,12.954,0,0-7.1-3.343-8.357,2.925s5.85,7.521,5.85,7.521a68.71,68.71,0,0,0,4.6,29.669H205.037s-7.1-7.1-7.1-32.594c0-11.406,7.082-40.8,37.608-36.355,63.1,9.193,23.819,75.635,23.819,75.635l-17.551-3.761-2.925-.836,1.336-2.616s6.724-.189,13.768-12.785,8.715-30.147,8.715-30.147" transform="translate(121.867 -110.278)"/>
              </g>
            </g>
          </g>
        </g>
        <path id="Path_66500" data-name="Path 66500" d="M369.748,250.137a3.165,3.165,0,0,0-2.207-4.589l-.073-.012c-2.476-.393-7.363-1.592-7.756.884s1.69,5.346,5.817,6a3.845,3.845,0,0,0,4.219-2.283Z" transform="translate(9364.525 2986.039)" fill="none" stroke="#000" stroke-linecap="round" stroke-linejoin="round" stroke-width="1.5"/>
        <path id="Path_66501" data-name="Path 66501" d="M257.725,273.077a6.8,6.8,0,0,1,1.833.024c1.6.207,5.637.873,5.368,2.568-.328,2.063-3.263,4.559-6.086,3.688a4.236,4.236,0,0,1-3.124-4.3,2.368,2.368,0,0,1,2.009-1.98Z" transform="translate(9493.427 2964.333)" fill="none" stroke="#000" stroke-linecap="round" stroke-linejoin="round" stroke-width="1.5"/>
        <path id="Path_66502" data-name="Path 66502" d="M274.656,281.875a1.254,1.254,0,1,0,1.435-1.042,1.254,1.254,0,0,0-1.435,1.042" transform="translate(9476.897 2958.317)" stroke="#707070" stroke-width="1.5"/>
        <path id="Path_66503" data-name="Path 66503" d="M274.656,281.875a1.254,1.254,0,1,0,1.435-1.042,1.254,1.254,0,0,0-1.435,1.042Z" transform="translate(9476.897 2958.317)" fill="none" stroke="#000" stroke-linecap="round" stroke-linejoin="round" stroke-width="1.5"/>
        <path id="Path_66504" data-name="Path 66504" d="M379.81,254.97a1.463,1.463,0,1,0,1.674-1.215,1.463,1.463,0,0,0-1.674,1.215" transform="translate(9347.329 2979.217)" stroke="#707070" stroke-width="1.5"/>
        <path id="Path_66505" data-name="Path 66505" d="M379.81,254.97a1.463,1.463,0,1,0,1.674-1.215,1.463,1.463,0,0,0-1.674,1.215Z" transform="translate(9347.329 2979.217)" fill="none" stroke="#000" stroke-linecap="round" stroke-linejoin="round" stroke-width="1.5"/>
        <path id="Path_66506" data-name="Path 66506" d="M401.594,237s.594,1.773,1.784,2.18" transform="translate(9321.689 2992.136)" fill="none" stroke="#000" stroke-linecap="round" stroke-linejoin="round" stroke-width="1.5"/>
        <path id="Path_66507" data-name="Path 66507" d="M392.685,232.721s.619,2.161,1.97,2.613" transform="translate(9332.446 2995.436)" fill="none" stroke="#000" stroke-linecap="round" stroke-linejoin="round" stroke-width="1.5"/>
        <path id="Path_66508" data-name="Path 66508" d="M383.846,232.923a3.6,3.6,0,0,0,1.035,2.8" transform="translate(9344.239 2995.28)" fill="none" stroke="#000" stroke-linecap="round" stroke-linejoin="round" stroke-width="1.5"/>
        <path id="Path_66509" data-name="Path 66509" d="M255.247,268.346a8.6,8.6,0,0,1-2.063,2.068" transform="translate(9503.694 2967.943)" fill="none" stroke="#000" stroke-linecap="round" stroke-linejoin="round" stroke-width="1.5"/>
        <path id="Path_66510" data-name="Path 66510" d="M261.929,263.581a11.231,11.231,0,0,1-2.087,2.6" transform="translate(9495.493 2971.62)" fill="none" stroke="#000" stroke-linecap="round" stroke-linejoin="round" stroke-width="1.5"/>
        <path id="Path_66511" data-name="Path 66511" d="M272.39,261.859a7.274,7.274,0,0,1-1.7,2.692" transform="translate(9482.556 2972.949)" fill="none" stroke="#000" stroke-linecap="round" stroke-linejoin="round" stroke-width="1.5"/>
        <path id="Path_66512" data-name="Path 66512" d="M363.674,264.313a9.068,9.068,0,0,1-3.714,4.7" transform="translate(9370.896 2971.055)" fill="none" stroke="#000" stroke-linecap="round" stroke-linejoin="round" stroke-width="1.5"/>
        <path id="Path_66513" data-name="Path 66513" d="M290.525,281.919s-.112,3.367,1.277,5.28" transform="translate(9458.619 2957.468)" fill="none" stroke="#000" stroke-linecap="round" stroke-linejoin="round" stroke-width="1.5"/>
        <path id="Path_66514" data-name="Path 66514" d="M321.623,267.625s.54,12.779-2.379,12.315a3.924,3.924,0,0,1-3.321-3.066" transform="translate(9422.96 2968.499)" fill="none" stroke="#000" stroke-linecap="round" stroke-linejoin="round" stroke-width="1.5"/>
        <path id="Path_66515" data-name="Path 66515" d="M257.857,240.125s-1.539-3.629-6.97-4.069" transform="translate(9501.421 2992.147)" fill="none" stroke="#000" stroke-linecap="round" stroke-linejoin="round" stroke-width="1.5"/>
        <path id="Path_66516" data-name="Path 66516" d="M365.877,206.607a6.993,6.993,0,0,0-10.167.078" transform="translate(9369.664 3017.28)" fill="none" stroke="#000" stroke-linecap="round" stroke-linejoin="round" stroke-width="1.5"/>
        <path id="Path_66517" data-name="Path 66517" d="M368.168,300.174s-1.67-2.8-3.256-3.479" transform="translate(9365.272 2946.064)" fill="none" stroke="#000" stroke-linecap="round" stroke-linejoin="round" stroke-width="1.5"/>
        <path id="Path_66518" data-name="Path 66518" d="M386.693,298.62a6.24,6.24,0,0,0-2.083-2.869" transform="translate(9342.25 2946.793)" fill="none" stroke="#000" stroke-linecap="round" stroke-linejoin="round" stroke-width="1.5"/>
        <path id="Path_66519" data-name="Path 66519" d="M405.432,293.617a11.25,11.25,0,0,0-2.017-3.282" transform="translate(9319.22 2950.974)" fill="none" stroke="#000" stroke-linecap="round" stroke-linejoin="round" stroke-width="1.5"/>
        <path id="Path_66520" data-name="Path 66520" d="M298.854,319.66a8.633,8.633,0,0,0-2.277-2.678" transform="translate(9450.184 2930.408)" fill="none" stroke="#000" stroke-linecap="round" stroke-linejoin="round" stroke-width="1.5"/>
        <path id="Path_66521" data-name="Path 66521" d="M284.411,322.77a14.42,14.42,0,0,0-2.158-3.431" transform="translate(9467.896 2928.589)" fill="none" stroke="#000" stroke-linecap="round" stroke-linejoin="round" stroke-width="1.5"/>
        <path id="Path_66522" data-name="Path 66522" d="M271.917,322.479s-1.088-2.875-2.474-3.867" transform="translate(9483.313 2929.15)" fill="none" stroke="#000" stroke-linecap="round" stroke-linejoin="round" stroke-width="1.5"/>
        <path id="Path_66578" data-name="Path 66578" d="M7.058,2.823S5.646,0,2.823,0A2.765,2.765,0,0,0,0,2.823" transform="matrix(-0.951, -0.309, 0.309, -0.951, 9739.551, 3259.57)" fill="none" stroke="#000" stroke-linecap="round" stroke-linejoin="round" stroke-width="1.5"/>
      </g>
    </g>
  </g>
</svg>
