<svg xmlns="http://www.w3.org/2000/svg" xmlns:xlink="http://www.w3.org/1999/xlink" width="26" height="26" viewBox="0 0 26 26">
  <defs>
    <clipPath id="clip-path">
      <rect id="Rectangle_13" data-name="Rectangle 13" width="26" height="26" transform="translate(6026 -1887.689)" fill="#fff" stroke="#707070" stroke-width="1"/>
    </clipPath>
  </defs>
  <g id="Mask_Group_3" data-name="Mask Group 3" transform="translate(-6026 1887.689)" clip-path="url(#clip-path)">
    <g id="noun-obstetrics-and-gynecology-3982009" transform="translate(6026.001 -1887.913)">
      <path id="Path_64" data-name="Path 64" d="M82.674,14.45c.085-1.336-.36-1.9-1.424-1.719-.027.39.17,1.086-.648.7a3.26,3.26,0,0,1-.71-.661,6.265,6.265,0,0,1,.747-.458c.29-.128.616-.168.911-.288a1.443,1.443,0,0,0,1.061-1.9,1.117,1.117,0,0,1,.048-.685c1.245-2.087.133-4.166-1.736-5.109a4.746,4.746,0,0,0-5.1.173,4.371,4.371,0,0,0-2,4.45,3.361,3.361,0,0,0,.916,1.764A2.093,2.093,0,0,1,75.3,13.3a7.867,7.867,0,0,0-.625,4.316A5.352,5.352,0,0,0,81.8,21.748,2.775,2.775,0,0,0,83.6,19.818c.368-1.811,1.531-1.631,2.652-.565a1.664,1.664,0,0,0,2.512.1c.2-.187.245-.536.363-.811-.275-.113-.613-.39-.813-.313-.763.3-1.051-.157-1.369-.683-.29-.48-.616-.938-.936-1.4a1.491,1.491,0,0,0-1.726-.388,4.114,4.114,0,0,1-2.68.253c.388-.138.6-.22.813-.285a4.916,4.916,0,0,0,3.718-4.2c.1-.618.355-.851.946-.861.811-.015,1.618-.1,2.429-.1a1.986,1.986,0,0,0,2.077-1.431c.24-.716.4-1.456.622-2.269.145.263.3.513.428.781A13.2,13.2,0,1,1,67.5,15.115,12.862,12.862,0,0,1,74.7,1.434a13.119,13.119,0,0,1,13.266.851,1.944,1.944,0,0,1,.773.993,35.794,35.794,0,0,1,.916,3.778c.178.991-.124,1.323-1.1,1.566a9.1,9.1,0,0,0-2.044.568,4.247,4.247,0,0,0-1.389,1.316,4.962,4.962,0,0,0-.618,1.566c-.285,1.048-.618,2.031-1.839,2.377Z" transform="translate(-67.307 -0.027)"/>
      <g id="Group_63" data-name="Group 63" transform="translate(0.064 29.093)">
        <path id="Path_65" data-name="Path 65" d="M2.1-18.92a.619.619,0,0,1-.136.05.6.6,0,0,1-.147.018.5.5,0,0,1-.361-.127.457.457,0,0,1-.133-.346.457.457,0,0,1,.133-.346.5.5,0,0,1,.361-.128.6.6,0,0,1,.147.018.612.612,0,0,1,.136.051v.188a.519.519,0,0,0-.13-.065.433.433,0,0,0-.133-.021.251.251,0,0,0-.2.081.322.322,0,0,0-.072.222.321.321,0,0,0,.072.222.251.251,0,0,0,.2.081.427.427,0,0,0,.133-.021.529.529,0,0,0,.13-.066Z" transform="translate(-1.327 19.8)"/>
      </g>
      <g id="Group_64" data-name="Group 64" transform="translate(1.026 29.322)">
        <path id="Path_66" data-name="Path 66" d="M2.745-14.734a.252.252,0,0,0-.057-.02.254.254,0,0,0-.058-.007.16.16,0,0,0-.13.054.232.232,0,0,0-.045.156v.315H2.237v-.685h.218v.113a.276.276,0,0,1,.1-.1.266.266,0,0,1,.132-.031h.023a.228.228,0,0,1,.037,0Z" transform="translate(-2.237 14.936)"/>
      </g>
      <g id="Group_65" data-name="Group 65" transform="translate(1.589 29.321)">
        <path id="Path_67" data-name="Path 67" d="M1.872-14.582v.062H1.361a.161.161,0,0,0,.055.116.208.208,0,0,0,.133.038.517.517,0,0,0,.142-.021.713.713,0,0,0,.149-.062v.169a.92.92,0,0,1-.156.044.8.8,0,0,1-.156.015.414.414,0,0,1-.289-.093.342.342,0,0,1-.1-.265.346.346,0,0,1,.1-.263.388.388,0,0,1,.28-.1.348.348,0,0,1,.258.1.351.351,0,0,1,.1.26Zm-.225-.073a.139.139,0,0,0-.037-.1.124.124,0,0,0-.093-.039.15.15,0,0,0-.1.036.165.165,0,0,0-.049.1Z" transform="translate(-1.136 14.94)"/>
      </g>
      <g id="Group_66" data-name="Group 66" transform="translate(2.439 29.32)">
        <path id="Path_68" data-name="Path 68" d="M1.5-14.548a.187.187,0,0,0-.1.023.076.076,0,0,0-.035.068.08.08,0,0,0,.028.065.116.116,0,0,0,.078.023.137.137,0,0,0,.1-.044.156.156,0,0,0,.043-.111v-.025Zm.334-.083v.391h-.22v-.1a.282.282,0,0,1-.1.091.3.3,0,0,1-.134.028.245.245,0,0,1-.173-.062.212.212,0,0,1-.066-.161.2.2,0,0,1,.083-.177.471.471,0,0,1,.26-.056h.129V-14.7a.082.082,0,0,0-.041-.076.26.26,0,0,0-.128-.024.562.562,0,0,0-.131.015.456.456,0,0,0-.112.042v-.167a1.307,1.307,0,0,1,.141-.026,1.155,1.155,0,0,1,.142-.009.4.4,0,0,1,.267.074.3.3,0,0,1,.083.237Z" transform="translate(-1.139 14.943)"/>
      </g>
      <g id="Group_67" data-name="Group 67" transform="translate(3.247 29.143)">
        <path id="Path_69" data-name="Path 69" d="M.686-18.735v.194H.912v.156H.686v.29a.084.084,0,0,0,.019.064.118.118,0,0,0,.076.017H.893v.156H.706a.254.254,0,0,1-.184-.054A.255.255,0,0,1,.469-18.1v-.29H.359v-.156H.468v-.194Z" transform="translate(-0.359 18.736)"/>
      </g>
      <g id="Group_68" data-name="Group 68" transform="translate(3.88 29.321)">
        <path id="Path_70" data-name="Path 70" d="M1.872-14.582v.062H1.361a.161.161,0,0,0,.055.116.208.208,0,0,0,.133.038.517.517,0,0,0,.142-.021.713.713,0,0,0,.149-.062v.169a.92.92,0,0,1-.156.044.8.8,0,0,1-.156.015.414.414,0,0,1-.289-.093.342.342,0,0,1-.1-.265.346.346,0,0,1,.1-.263.388.388,0,0,1,.28-.1.348.348,0,0,1,.258.1.351.351,0,0,1,.1.26Zm-.225-.073a.139.139,0,0,0-.037-.1.124.124,0,0,0-.093-.039.15.15,0,0,0-.1.036.165.165,0,0,0-.049.1Z" transform="translate(-1.136 14.94)"/>
      </g>
      <g id="Group_69" data-name="Group 69" transform="translate(4.733 29.072)">
        <path id="Path_71" data-name="Path 71" d="M1.718-19.9v-.367h.221v.951H1.718v-.1a.3.3,0,0,1-.1.089.272.272,0,0,1-.124.028.256.256,0,0,1-.208-.1.4.4,0,0,1-.081-.259.4.4,0,0,1,.081-.259.256.256,0,0,1,.208-.1.266.266,0,0,1,.124.029.292.292,0,0,1,.1.088Zm-.144.443a.124.124,0,0,0,.107-.051.254.254,0,0,0,.037-.149.255.255,0,0,0-.037-.149.124.124,0,0,0-.107-.051.124.124,0,0,0-.107.051.254.254,0,0,0-.037.149.253.253,0,0,0,.037.149.124.124,0,0,0,.107.051Z" transform="translate(-1.205 20.266)"/>
      </g>
      <g id="Group_70" data-name="Group 70" transform="translate(6.114 29.072)">
        <path id="Path_72" data-name="Path 72" d="M2.6-19.456a.124.124,0,0,0,.107-.051.249.249,0,0,0,.037-.149.251.251,0,0,0-.037-.149.124.124,0,0,0-.107-.051.124.124,0,0,0-.108.052.249.249,0,0,0-.037.148.249.249,0,0,0,.037.149A.124.124,0,0,0,2.6-19.456ZM2.457-19.9a.29.29,0,0,1,.1-.088.271.271,0,0,1,.127-.029.255.255,0,0,1,.208.1.4.4,0,0,1,.081.259.4.4,0,0,1-.081.259.254.254,0,0,1-.208.1.277.277,0,0,1-.127-.028.294.294,0,0,1-.1-.089v.1H2.239v-.951h.218Z" transform="translate(-2.239 20.265)"/>
      </g>
      <g id="Group_71" data-name="Group 71" transform="translate(6.918 29.338)">
        <path id="Path_73" data-name="Path 73" d="M.328-14.594H.546l.185.465.156-.465H1.1l-.287.749a.366.366,0,0,1-.1.16.239.239,0,0,1-.152.045H.438v-.143H.506A.14.14,0,0,0,.587-13.8a.115.115,0,0,0,.04-.062l.007-.019Z" transform="translate(-0.328 14.594)"/>
      </g>
      <g id="Group_72" data-name="Group 72" transform="translate(8.269 29.111)">
        <path id="Path_74" data-name="Path 74" d="M2.453-19.438h.264l.332.625v-.625H3.27v.912H3.008l-.332-.626v.626H2.453Z" transform="translate(-2.453 19.438)"/>
      </g>
      <g id="Group_73" data-name="Group 73" transform="translate(9.254 29.32)">
        <path id="Path_75" data-name="Path 75" d="M1.5-14.548a.187.187,0,0,0-.1.023.076.076,0,0,0-.035.068.08.08,0,0,0,.028.065.116.116,0,0,0,.078.023.137.137,0,0,0,.1-.044.156.156,0,0,0,.043-.111v-.025Zm.334-.083v.391h-.22v-.1a.282.282,0,0,1-.1.091.3.3,0,0,1-.134.028.245.245,0,0,1-.173-.062.212.212,0,0,1-.066-.161.2.2,0,0,1,.083-.177.471.471,0,0,1,.26-.056h.129V-14.7a.082.082,0,0,0-.041-.076.26.26,0,0,0-.128-.024.562.562,0,0,0-.131.015.456.456,0,0,0-.112.042v-.167a1.307,1.307,0,0,1,.141-.026,1.155,1.155,0,0,1,.142-.009.4.4,0,0,1,.267.074.3.3,0,0,1,.083.237Z" transform="translate(-1.139 14.943)"/>
      </g>
      <g id="Group_74" data-name="Group 74" transform="translate(10.15 29.072)">
        <path id="Path_76" data-name="Path 76" d="M2.234-20h.218v.685H2.234Zm0-.266h.218v.178H2.234Z" transform="translate(-2.234 20.266)"/>
      </g>
      <g id="Group_75" data-name="Group 75" transform="translate(10.498 29.071)">
        <path id="Path_77" data-name="Path 77" d="M1.048-20.268v.144H.926a.1.1,0,0,0-.065.017.076.076,0,0,0-.018.058V-20h.187v.156H.843v.529H.625v-.529H.516V-20H.625v-.048a.206.206,0,0,1,.062-.165.291.291,0,0,1,.193-.054Z" transform="translate(-0.516 20.269)"/>
      </g>
      <g id="Group_76" data-name="Group 76" transform="translate(11.569 29.111)">
        <path id="Path_78" data-name="Path 78" d="M2.453-19.438h.235v.912H2.453Z" transform="translate(-2.453 19.438)"/>
      </g>
      <g id="Group_77" data-name="Group 77" transform="translate(12.024 29.072)">
        <path id="Path_79" data-name="Path 79" d="M2.234-20.266h.218v.518L2.7-20h.254l-.333.314.361.37H2.721L2.455-19.6v.285H2.237Z" transform="translate(-2.234 20.266)"/>
      </g>
      <g id="Group_78" data-name="Group 78" transform="translate(12.856 29.072)">
        <path id="Path_80" data-name="Path 80" d="M2.234-20.266h.218v.518L2.7-20h.254l-.333.314.361.37H2.721L2.455-19.6v.285H2.237Z" transform="translate(-2.234 20.266)"/>
      </g>
      <g id="Group_79" data-name="Group 79" transform="translate(13.635 29.321)">
        <path id="Path_81" data-name="Path 81" d="M1.872-14.582v.062H1.361a.161.161,0,0,0,.055.116.208.208,0,0,0,.133.038.517.517,0,0,0,.142-.021.713.713,0,0,0,.149-.062v.169a.92.92,0,0,1-.156.044.8.8,0,0,1-.156.015.414.414,0,0,1-.289-.093.342.342,0,0,1-.1-.265.346.346,0,0,1,.1-.263.388.388,0,0,1,.28-.1.348.348,0,0,1,.258.1.351.351,0,0,1,.1.26Zm-.225-.073a.139.139,0,0,0-.037-.1.124.124,0,0,0-.093-.039.15.15,0,0,0-.1.036.165.165,0,0,0-.049.1Z" transform="translate(-1.136 14.94)"/>
      </g>
      <g id="Group_80" data-name="Group 80" transform="translate(14.537 29.322)">
        <path id="Path_82" data-name="Path 82" d="M2.745-14.734a.252.252,0,0,0-.057-.02.254.254,0,0,0-.058-.007.16.16,0,0,0-.13.054.232.232,0,0,0-.045.156v.315H2.237v-.685h.218v.113a.276.276,0,0,1,.1-.1.266.266,0,0,1,.132-.031h.023a.228.228,0,0,1,.037,0Z" transform="translate(-2.237 14.936)"/>
      </g>
      <g id="Group_81" data-name="Group 81" transform="translate(15.153 29.072)">
        <path id="Path_83" data-name="Path 83" d="M2.234-20h.218v.685H2.234Zm0-.266h.218v.178H2.234Z" transform="translate(-2.234 20.266)"/>
      </g>
      <g id="Group_82" data-name="Group 82" transform="translate(0.026 30.322)">
        <path id="Path_84" data-name="Path 84" d="M1.048-20.268v.144H.926a.1.1,0,0,0-.065.017.076.076,0,0,0-.018.058V-20h.187v.156H.843v.529H.625v-.529H.516V-20H.625v-.048a.206.206,0,0,1,.062-.165.291.291,0,0,1,.193-.054Z" transform="translate(-0.516 20.269)"/>
      </g>
      <g id="Group_83" data-name="Group 83" transform="translate(0.652 30.574)">
        <path id="Path_85" data-name="Path 85" d="M2.745-14.734a.252.252,0,0,0-.057-.02.254.254,0,0,0-.058-.007.16.16,0,0,0-.13.054.232.232,0,0,0-.045.156v.315H2.237v-.685h.218v.113a.276.276,0,0,1,.1-.1.266.266,0,0,1,.132-.031h.023a.228.228,0,0,1,.037,0Z" transform="translate(-2.237 14.936)"/>
      </g>
      <g id="Group_84" data-name="Group 84" transform="translate(1.216 30.573)">
        <path id="Path_86" data-name="Path 86" d="M1.517-14.782a.129.129,0,0,0-.111.053.252.252,0,0,0-.038.15.255.255,0,0,0,.039.15.129.129,0,0,0,.111.052.124.124,0,0,0,.106-.052.256.256,0,0,0,.038-.151.253.253,0,0,0-.038-.15A.124.124,0,0,0,1.517-14.782Zm0-.156a.381.381,0,0,1,.275.1.348.348,0,0,1,.1.264.348.348,0,0,1-.1.264.38.38,0,0,1-.275.1.387.387,0,0,1-.278-.1.347.347,0,0,1-.1-.264.348.348,0,0,1,.1-.264.387.387,0,0,1,.278-.1Z" transform="translate(-1.139 14.939)"/>
      </g>
      <g id="Group_85" data-name="Group 85" transform="translate(2.127 30.573)">
        <path id="Path_87" data-name="Path 87" d="M2.854-14.808a.289.289,0,0,1,.1-.1.243.243,0,0,1,.124-.034.222.222,0,0,1,.18.073.318.318,0,0,1,.062.212v.416H3.1v-.4a.2.2,0,0,0-.021-.1.076.076,0,0,0-.069-.033.11.11,0,0,0-.1.051.274.274,0,0,0-.035.149v.336H2.66v-.357a.335.335,0,0,0-.02-.146.075.075,0,0,0-.07-.033.11.11,0,0,0-.1.052.268.268,0,0,0-.034.147v.336h-.22v-.685h.22v.1a.283.283,0,0,1,.093-.087.231.231,0,0,1,.115-.029.23.23,0,0,1,.124.035.218.218,0,0,1,.083.1Z" transform="translate(-2.219 14.939)"/>
      </g>
      <g id="Group_86" data-name="Group 86" transform="translate(3.779 30.394)">
        <path id="Path_88" data-name="Path 88" d="M.686-18.735v.194H.912v.156H.686v.29a.084.084,0,0,0,.019.064.118.118,0,0,0,.076.017H.893v.156H.706a.254.254,0,0,1-.184-.054A.255.255,0,0,1,.469-18.1v-.29H.359v-.156H.468v-.194Z" transform="translate(-0.359 18.736)"/>
      </g>
      <g id="Group_87" data-name="Group 87" transform="translate(4.466 30.323)">
        <path id="Path_89" data-name="Path 89" d="M2.926-19.733v.416h-.22v-.317a1.141,1.141,0,0,0,0-.124.127.127,0,0,0-.013-.049.093.093,0,0,0-.035-.033.1.1,0,0,0-.05-.012A.126.126,0,0,0,2.5-19.8a.242.242,0,0,0-.039.147v.336H2.239v-.951h.218v.367a.327.327,0,0,1,.1-.088.265.265,0,0,1,.124-.029.222.222,0,0,1,.18.073.32.32,0,0,1,.062.212Z" transform="translate(-2.239 20.268)"/>
      </g>
      <g id="Group_88" data-name="Group 88" transform="translate(5.303 30.572)">
        <path id="Path_90" data-name="Path 90" d="M1.872-14.582v.062H1.361a.161.161,0,0,0,.055.116.208.208,0,0,0,.133.038.517.517,0,0,0,.142-.021.713.713,0,0,0,.149-.062v.169a.92.92,0,0,1-.156.044.8.8,0,0,1-.156.015.414.414,0,0,1-.289-.093.342.342,0,0,1-.1-.265.346.346,0,0,1,.1-.263.388.388,0,0,1,.28-.1.348.348,0,0,1,.258.1.351.351,0,0,1,.1.26Zm-.225-.073a.139.139,0,0,0-.037-.1.124.124,0,0,0-.093-.039.15.15,0,0,0-.1.036.165.165,0,0,0-.049.1Z" transform="translate(-1.136 14.94)"/>
      </g>
      <g id="Group_89" data-name="Group 89" transform="translate(6.65 30.362)">
        <path id="Path_91" data-name="Path 91" d="M2.453-19.438h.264l.332.625v-.625H3.27v.912H3.008l-.332-.626v.626H2.453Z" transform="translate(-2.453 19.438)"/>
      </g>
      <g id="Group_90" data-name="Group 90" transform="translate(7.635 30.573)">
        <path id="Path_92" data-name="Path 92" d="M1.517-14.782a.129.129,0,0,0-.111.053.252.252,0,0,0-.038.15.255.255,0,0,0,.039.15.129.129,0,0,0,.111.052.124.124,0,0,0,.106-.052.256.256,0,0,0,.038-.151.253.253,0,0,0-.038-.15A.124.124,0,0,0,1.517-14.782Zm0-.156a.381.381,0,0,1,.275.1.348.348,0,0,1,.1.264.348.348,0,0,1-.1.264.38.38,0,0,1-.275.1.387.387,0,0,1-.278-.1.347.347,0,0,1-.1-.264.348.348,0,0,1,.1-.264.387.387,0,0,1,.278-.1Z" transform="translate(-1.139 14.939)"/>
      </g>
      <g id="Group_91" data-name="Group 91" transform="translate(8.539 30.589)">
        <path id="Path_93" data-name="Path 93" d="M2.078-14.176v-.419H2.3v.32a.975.975,0,0,0,0,.119.121.121,0,0,0,.015.052.089.089,0,0,0,.035.034.11.11,0,0,0,.05.011.127.127,0,0,0,.108-.052.243.243,0,0,0,.039-.147V-14.6h.218v.685H2.548v-.1a.336.336,0,0,1-.1.089.266.266,0,0,1-.122.028.224.224,0,0,1-.18-.073.315.315,0,0,1-.062-.211Z" transform="translate(-2.078 14.595)"/>
      </g>
      <g id="Group_92" data-name="Group 92" transform="translate(9.438 30.573)">
        <path id="Path_94" data-name="Path 94" d="M2.926-14.655v.416h-.22v-.319a1.122,1.122,0,0,0,0-.122.127.127,0,0,0-.013-.049.093.093,0,0,0-.035-.033.1.1,0,0,0-.05-.012.126.126,0,0,0-.108.053.242.242,0,0,0-.039.147v.336H2.239v-.685h.218v.1a.327.327,0,0,1,.1-.088.265.265,0,0,1,.124-.029.222.222,0,0,1,.18.073.32.32,0,0,1,.062.212Z" transform="translate(-2.239 14.94)"/>
      </g>
      <g id="Group_93" data-name="Group 93" transform="translate(10.773 30.361)">
        <path id="Path_95" data-name="Path 95" d="M2.453-19.44h.39a.41.41,0,0,1,.268.077.27.27,0,0,1,.093.221.272.272,0,0,1-.093.221.41.41,0,0,1-.268.077H2.687v.317H2.453Zm.235.17v.255h.13a.156.156,0,0,0,.105-.033.12.12,0,0,0,.037-.093.12.12,0,0,0-.037-.093.156.156,0,0,0-.105-.033Z" transform="translate(-2.453 19.441)"/>
      </g>
      <g id="Group_94" data-name="Group 94" transform="translate(11.68 30.574)">
        <path id="Path_96" data-name="Path 96" d="M2.745-14.734a.252.252,0,0,0-.057-.02.254.254,0,0,0-.058-.007.16.16,0,0,0-.13.054.232.232,0,0,0-.045.156v.315H2.237v-.685h.218v.113a.276.276,0,0,1,.1-.1.266.266,0,0,1,.132-.031h.023a.228.228,0,0,1,.037,0Z" transform="translate(-2.237 14.936)"/>
      </g>
      <g id="Group_95" data-name="Group 95" transform="translate(12.245 30.573)">
        <path id="Path_97" data-name="Path 97" d="M1.517-14.782a.129.129,0,0,0-.111.053.252.252,0,0,0-.038.15.255.255,0,0,0,.039.15.129.129,0,0,0,.111.052.124.124,0,0,0,.106-.052.256.256,0,0,0,.038-.151.253.253,0,0,0-.038-.15A.124.124,0,0,0,1.517-14.782Zm0-.156a.381.381,0,0,1,.275.1.348.348,0,0,1,.1.264.348.348,0,0,1-.1.264.38.38,0,0,1-.275.1.387.387,0,0,1-.278-.1.347.347,0,0,1-.1-.264.348.348,0,0,1,.1-.264.387.387,0,0,1,.278-.1Z" transform="translate(-1.139 14.939)"/>
      </g>
      <g id="Group_96" data-name="Group 96" transform="translate(13.009 30.323)">
        <path id="Path_98" data-name="Path 98" d="M-.744-20h.218v.672a.3.3,0,0,1-.066.21.246.246,0,0,1-.191.073H-.891v-.142h.038a.1.1,0,0,0,.085-.031.183.183,0,0,0,.023-.111Zm0-.266h.218v.178H-.744Z" transform="translate(0.891 20.266)"/>
      </g>
      <g id="Group_97" data-name="Group 97" transform="translate(13.532 30.572)">
        <path id="Path_99" data-name="Path 99" d="M1.872-14.582v.062H1.361a.161.161,0,0,0,.055.116.208.208,0,0,0,.133.038.517.517,0,0,0,.142-.021.713.713,0,0,0,.149-.062v.169a.92.92,0,0,1-.156.044.8.8,0,0,1-.156.015.414.414,0,0,1-.289-.093.342.342,0,0,1-.1-.265.346.346,0,0,1,.1-.263.388.388,0,0,1,.28-.1.348.348,0,0,1,.258.1.351.351,0,0,1,.1.26Zm-.225-.073a.139.139,0,0,0-.037-.1.124.124,0,0,0-.093-.039.15.15,0,0,0-.1.036.165.165,0,0,0-.049.1Z" transform="translate(-1.136 14.94)"/>
      </g>
      <g id="Group_98" data-name="Group 98" transform="translate(14.381 30.574)">
        <path id="Path_100" data-name="Path 100" d="M1.744-14.9v.178a.353.353,0,0,0-.09-.045.3.3,0,0,0-.093-.015.189.189,0,0,0-.143.054.209.209,0,0,0-.051.15.209.209,0,0,0,.051.15.187.187,0,0,0,.143.054.307.307,0,0,0,.1-.015.293.293,0,0,0,.086-.045v.179a.6.6,0,0,1-.1.029.6.6,0,0,1-.105.01.418.418,0,0,1-.29-.093.34.34,0,0,1-.1-.265.338.338,0,0,1,.1-.264.416.416,0,0,1,.29-.1.6.6,0,0,1,.105.01.646.646,0,0,1,.1.029Z" transform="translate(-1.138 14.933)"/>
      </g>
      <g id="Group_99" data-name="Group 99" transform="translate(15.087 30.394)">
        <path id="Path_101" data-name="Path 101" d="M.686-18.735v.194H.912v.156H.686v.29a.084.084,0,0,0,.019.064.118.118,0,0,0,.076.017H.893v.156H.706a.254.254,0,0,1-.184-.054A.255.255,0,0,1,.469-18.1v-.29H.359v-.156H.468v-.194Z" transform="translate(-0.359 18.736)"/>
      </g>
    </g>
  </g>
</svg>
