<svg xmlns="http://www.w3.org/2000/svg" width="26.299" height="32.129" viewBox="0 0 26.299 32.129">
  <g id="medical-doctor-standing-beside-x-ray-svgrepo-com" transform="translate(-8.841)">
    <g id="Group_23" data-name="Group 23" transform="translate(8.841 0)">
      <path id="Path_14" data-name="Path 14" d="M16.291,23.361c-.126-.872-.223-1.748-.335-2.624-.03-.229-.026-.429.218-.557a.261.261,0,0,0,.1-.233.327.327,0,0,0-.233-.147c-.071-.009-.152.066-.229.1a1.016,1.016,0,0,1-.264.122c-.254.038-.3.14-.176.373a2.165,2.165,0,0,1,.222.623c.088.542.165,1.088.2,1.635a5.823,5.823,0,0,1-.132,2.5c-.053.068.038.174.093.236a.194.194,0,0,0,.191.016c.132-.132.264-.223.455-.136.015.007.04-.005.068-.01.165-.057.116-.172.073-.294C16.464,24.723,16.329,23.611,16.291,23.361Z" transform="translate(-13.176 -13.27)"/>
      <path id="Path_15" data-name="Path 15" d="M39.272,20.024a1.016,1.016,0,0,1-.264-.122c-.077-.037-.158-.111-.229-.1a.327.327,0,0,0-.233.147.26.26,0,0,0,.1.233c.244.129.247.33.218.557-.112.875-.209,1.751-.336,2.624-.036.25-.127,1.362-.211,1.6-.043.122-.091.237.073.294.029,0,.053.017.068.01.193-.086.323.006.455.136a.193.193,0,0,0,.191-.016c.055-.062.146-.169.093-.236a5.859,5.859,0,0,1-.179-2.5c.038-.544.117-1.093.2-1.635a2.164,2.164,0,0,1,.222-.623C39.567,20.164,39.526,20.061,39.272,20.024Z" transform="translate(-28.57 -13.27)"/>
      <path id="Path_16" data-name="Path 16" d="M65.169,21.075h-.008a3.792,3.792,0,0,0-.808.3c.1,1.347.873,2.626,1.631,2.626s1.517-1.266,1.628-2.6a3.868,3.868,0,0,0-.82-.314l-.824.83Z" transform="translate(-46.046 -14.125)"/>
      <path id="Path_17" data-name="Path 17" d="M30.9,7.48c-.008-.005-.018-.008-.026-.013-.157,1.362-.9,2.708-1.895,2.869a1.224,1.224,0,0,0,.388,1.272c.52.567.817,1.1-.086,2.59a.6.6,0,1,1-.5-.268.614.614,0,0,1,.1.01c.787-1.29.5-1.613.136-2.007a1.67,1.67,0,0,1-.522-1.62c-.935-.225-1.639-1.505-1.8-2.811a1.1,1.1,0,0,0-.142.069,12.312,12.312,0,0,0-1.037.71c-1.265-.316-1.8-1.012-2.891-2.469-.212-.282-.445-.591-.7-.92V.579A.579.579,0,0,0,21.339,0H9.421a.579.579,0,0,0-.58.579V12.5a.579.579,0,0,0,.58.578H21.339a.579.579,0,0,0,.579-.578V8.885a5.823,5.823,0,0,0,3.454,1.9v1.788s0-.01,0-.014v4.586c0,1.047.252,1.235.252,1.235V30.611a1.518,1.518,0,1,0,3.037,0V20.052c.061,0,.12.008.181.008h.036V30.611a1.518,1.518,0,1,0,3.037,0V18.383a3.027,3.027,0,0,0,.232-1.243V12.475a9.437,9.437,0,0,1,.341,4.273,1.286,1.286,0,0,0,1.151,1.406c.044,0,.087.007.13.007A1.286,1.286,0,0,0,35.048,17C35.626,11.225,33.4,9.011,30.9,7.48Zm-9.56-6.9V4.257a1.223,1.223,0,0,0-1.9.749c-.01-.105-.02-.211-.033-.318-.069-.544-.1-1.095-.117-1.644a2.163,2.163,0,0,1,.1-.654c.072-.252.012-.345-.245-.332a1.012,1.012,0,0,1-.282-.069c-.079-.021-.168-.073-.235-.057a.635.635,0,0,0-.023-.6.71.71,0,0,0-.587-.243c-.049,0-.081,0-.081,0l-.018,0c-.1.024-1.006.244-1.22.709a.573.573,0,0,0-.045.24c-.05,0-.1-.007-.147-.007a.976.976,0,0,0-.434.087V1.987a.391.391,0,0,0-.147-.3.3.3,0,0,0,.033-.132V1.392a.172.172,0,0,0-.017-.074.367.367,0,0,0,.154-.3V.963c0-.05.016-.3-.186-.385Zm-3.176,4.65c-.036.1-.182.179-.39.205a2.031,2.031,0,0,1-.895-.125c-.638-.229-1.022-.652-.942-.878a.291.291,0,0,1,.183-.16,2.7,2.7,0,0,0,.613.308,2.564,2.564,0,0,0,.85.158,1.7,1.7,0,0,0,.22-.014c.024,0,.046-.008.07-.012.222.184.338.386.291.516Zm0,1.1c-.036.1-.182.179-.39.2a2.026,2.026,0,0,1-.895-.125c-.638-.229-1.022-.652-.942-.878a.319.319,0,0,1,.213-.165,2.711,2.711,0,0,0,.6.3,2.564,2.564,0,0,0,.85.158,1.7,1.7,0,0,0,.22-.014.3.3,0,0,0,.041-.007c.228.186.35.392.3.525Zm-.017-2.186c-.036.1-.182.179-.39.205a2.027,2.027,0,0,1-.895-.126c-.638-.229-1.022-.652-.942-.878a.418.418,0,0,1,.3-.2,1.946,1.946,0,0,0,.466.239,1.976,1.976,0,0,0,.478.109l.036.064a.142.142,0,0,0,.121.072h0a.144.144,0,0,0,.121-.066l.049-.077a1.1,1.1,0,0,0,.122-.026c.417.246.585.537.532.686Zm-2.06-1.669c.033-.1.2-.158.413-.158a1.41,1.41,0,0,1,.182.014,4.007,4.007,0,0,0,.32.852,1.755,1.755,0,0,1-.224-.063,1.5,1.5,0,0,1-.566-.348C16.105,2.66,16.059,2.548,16.086,2.473Zm-.181,3.8a2.458,2.458,0,0,0,.845.495,2.724,2.724,0,0,0,.613.144c.173.222.241.434.17.55-.056.093-.214.138-.424.123a2.037,2.037,0,0,1-.851-.3,2.283,2.283,0,0,1-.515-.424.94.94,0,0,0,.162-.586Zm-1.389,5.518c.111,0,.242.135.418.241-.118.09-.2.18-.224.167a2.836,2.836,0,0,1-.35-.231C14.413,11.9,14.4,11.788,14.515,11.787Zm.024-1.163c.159-.118.3-.145.429.066a2.387,2.387,0,0,0,.419.485.271.271,0,0,0,.264,0c.152-.132.268-.306.412-.449.078-.077.218-.2.276-.17.122.053.292.186.294.289a.767.767,0,0,1-.174.551A1.5,1.5,0,0,1,14.5,11.33a.47.47,0,0,1,.039-.706Zm.25,1.875a1.063,1.063,0,0,0,.275-.132.759.759,0,0,1,.9,0,1.146,1.146,0,0,0,.287.135Zm1.4-.442c.1-.093.175-.251.313-.271s.132.07.29.16a2.652,2.652,0,0,1-.423.247c-.039.014-.12-.088-.18-.136Zm.414.442a.758.758,0,0,0,.415-.54c.052-.17.07-.615.337-.72.4-.341.986-.824.855-1.305a3.034,3.034,0,0,0-.243-.591.964.964,0,0,0-1.523-.225,5.852,5.852,0,0,0-.521.514c-.292.324-.507.325-.8,0a5.936,5.936,0,0,0-.52-.514.989.989,0,0,0-1.568.267.936.936,0,0,0,.14,1.282,2.933,2.933,0,0,1,.289.462,1.227,1.227,0,0,1,.559.813.722.722,0,0,0,.411.551H9.421V.579h5.705a.17.17,0,0,0-.083.144.173.173,0,0,0,.1.157,2.907,2.907,0,0,0,.575.012.02.02,0,0,1,.02.02v.107a.02.02,0,0,1-.02.02h-.441a.174.174,0,0,0,0,.348H15.6V1.5h-.252a.173.173,0,0,0-.163.116.39.39,0,0,0-.255.366v.129a1,1,0,0,0-.414-.079,1.724,1.724,0,0,0-.347.038.6.6,0,0,0-.044-.271c-.214-.464-1.119-.685-1.22-.709l-.018,0s-.031,0-.08,0a.71.71,0,0,0-.588.243.637.637,0,0,0-.021.605.149.149,0,0,0,.015.029.324.324,0,0,0-.066-.033c-.066-.022-.162.033-.244.056a1.009,1.009,0,0,1-.282.069c-.257-.013-.317.08-.245.332a2.163,2.163,0,0,1,.1.654c-.019.549-.048,1.1-.117,1.644a2.53,2.53,0,0,1-.469,1.563c-.066.056,0,.178.046.25a.193.193,0,0,0,.184.053c.155-.1.3-.168.473-.045.014.01.04,0,.069,0,.172-.024.147-.146.129-.275a4.1,4.1,0,0,1-.088-.762c.046-.881.121-1.759.181-2.638.015-.231.057-.425.321-.5a.261.261,0,0,0,.146-.209l0-.006.383.431.282.441a.416.416,0,0,0,.022.165.38.38,0,0,0,.033.068c-.456.316-.671.715-.552,1.047a.594.594,0,0,0,.235.293.787.787,0,0,0-.253.794.6.6,0,0,0,.254.305.791.791,0,0,0-.254.795.782.782,0,0,0,.7.453h0a.746.746,0,0,0-.042.746.733.733,0,0,0,.666.308.958.958,0,0,0,.11,0,2.389,2.389,0,0,0,1.02-.356,2.748,2.748,0,0,0,.231-.158h.649c.029.022.057.044.088.064a.1.1,0,0,1,.008.039v.079a.1.1,0,0,1-.1.1h-.635a.174.174,0,0,0-.174.174.275.275,0,0,0,.211.225h.561a.072.072,0,0,1,.072.072v.07a.072.072,0,0,1-.072.072h-.561a.2.2,0,0,0,.059.394h.441a.02.02,0,0,1,.02.02v.055a.02.02,0,0,1-.02.02h-.441a.174.174,0,1,0,0,.348h.325V9.3H15.36a.174.174,0,1,0,0,.347h.3a.3.3,0,0,0,.3-.3V9.185a.172.172,0,0,0-.017-.074.366.366,0,0,0,.154-.3V8.76a.363.363,0,0,0-.04-.165.419.419,0,0,0,.151-.322V8.2a.419.419,0,0,0-.078-.242.45.45,0,0,0,.139-.246,2.239,2.239,0,0,0,.814.243c.038,0,.074,0,.11,0a.733.733,0,0,0,.666-.308.746.746,0,0,0-.042-.746h0a.781.781,0,0,0,.7-.453.791.791,0,0,0-.254-.795.6.6,0,0,0,.254-.305.786.786,0,0,0-.253-.794.594.594,0,0,0,.235-.293c.119-.332-.1-.731-.552-1.047a.461.461,0,0,0,.033-.068.474.474,0,0,0-.038-.379l.145-.227.33-.371a.284.284,0,0,0,.139.155c.264.079.306.274.322.5.06.88.135,1.759.181,2.638a4.07,4.07,0,0,1-.088.762c-.018.128-.044.25.129.275.029,0,.055.007.069,0,.172-.122.318-.057.473.045a.193.193,0,0,0,.184-.053.453.453,0,0,0,.069-.178c.268.342.51.664.745.976s.469.623.7.91V12.5H16.6ZM14.332,3.38a1.961,1.961,0,0,0,.465-.239.417.417,0,0,1,.3.2c.081.226-.3.65-.942.878a2.031,2.031,0,0,1-.895.126c-.208-.026-.354-.1-.39-.205-.051-.141.1-.408.465-.646l.04.062a.143.143,0,0,0,.121.066h0a.143.143,0,0,0,.121-.072l.033-.059.055,0A1.885,1.885,0,0,0,14.332,3.38ZM13.8,3.213a4.289,4.289,0,0,0,.327-.843,1.506,1.506,0,0,1,.389-.055c.216,0,.378.062.413.158.027.075-.02.186-.126.3a1.493,1.493,0,0,1-.566.346,1.644,1.644,0,0,1-.437.1Zm-.66,1.5c.023,0,.046.009.07.012a1.768,1.768,0,0,0,.22.014,2.564,2.564,0,0,0,.85-.158,2.686,2.686,0,0,0,.613-.308.292.292,0,0,1,.183.16c.081.226-.3.65-.942.878a2.027,2.027,0,0,1-.9.125c-.208-.026-.354-.1-.39-.205-.046-.13.07-.332.292-.517ZM13.152,5.8l.041.007a1.768,1.768,0,0,0,.22.014,2.564,2.564,0,0,0,.85-.158,2.7,2.7,0,0,0,.6-.3.32.32,0,0,1,.213.165c.081.226-.3.65-.942.878a2.027,2.027,0,0,1-.9.125c-.208-.026-.354-.1-.39-.2-.047-.133.075-.339.3-.526Zm.5,1.107a2.7,2.7,0,0,0,.613-.144,2.452,2.452,0,0,0,.845-.495.94.94,0,0,0,.161.585,2.26,2.26,0,0,1-.515.424,2.027,2.027,0,0,1-.851.3c-.209.016-.367-.03-.424-.123-.069-.116,0-.327.172-.55Z" transform="translate(-8.841 0)"/>
      <path id="Path_18" data-name="Path 18" d="M62.97,6.787a3.112,3.112,0,0,0,3.111-3.111,3.077,3.077,0,0,0-.66-1.9H64.415V1.3h.552a3.116,3.116,0,0,0-.633-.418,1.5,1.5,0,0,0-2.728,0,3.138,3.138,0,0,0-.635.419H61.6v.471H60.518A3.1,3.1,0,0,0,62.97,6.787Zm0-6.128a.845.845,0,1,1-.845.845A.845.845,0,0,1,62.97.659Z" transform="translate(-43.033 -0.002)"/>
    </g>
  </g>
</svg>
