<svg xmlns="http://www.w3.org/2000/svg" xmlns:xlink="http://www.w3.org/1999/xlink" width="64" height="79" viewBox="0 0 64 79">
  <defs>
    <clipPath id="clip-path">
      <rect id="Rectangle_43" data-name="Rectangle 43" width="51" height="62" transform="translate(10791 4066.736)" fill="#fff" stroke="#707070" stroke-width="1"/>
    </clipPath>
  </defs>
  <g id="Group_656" data-name="Group 656" transform="translate(-11107 -3945)">
    <g id="Group_649" data-name="Group 649" transform="translate(133.633 98.113)">
      <rect id="Rectangle_41" data-name="Rectangle 41" width="64" height="73" rx="10" transform="translate(10973.367 3852.887)"/>
      <rect id="Rectangle_42" data-name="Rectangle 42" width="7" height="9" transform="translate(10999.367 3846.887)"/>
    </g>
    <g id="Mask_Group_20" data-name="Mask Group 20" transform="translate(320 -107.736)" clip-path="url(#clip-path)">
      <g id="noun-arteries-3655027" transform="translate(10791 4066.814)">
        <path id="Path_692" data-name="Path 692" d="M176.042,20.781a1.273,1.273,0,0,0-2.189-.7,21.035,21.035,0,0,1-3.895,3.22,4.556,4.556,0,0,0-1.2-2.545,20.085,20.085,0,0,0,6.478-7.038c.293-.6-.242-3.627-.14-11.862h0a1.273,1.273,0,0,0-2.546,0c0,2.545,0,6.542.254,11.06h0a20.187,20.187,0,0,1-7.459,7.051c-3.6,1.731-1.005,8.566,2.711,7.191a19.762,19.762,0,0,0,5.842-3.513c1.273,8.541,2.545,8.159,2.456,16.253-.191.076-.395.178-.586.242-4.773,1.54-6.224,6.453-3.678,6.453,1.922,0,.445-2.545,4.2-3.92-.649,15.273-3.627,18.62-1.095,19.092h0a1.272,1.272,0,0,0,1.476-1.018c4.658-26.131.917-27.988-.636-39.965Zm-9.622,1.374c.216-.076.7.458.878,1.031s.127,1.693-.318,1.477a1.706,1.706,0,0,1-.726-.993c-.114,0-.191-1.374.166-1.515Z" transform="translate(-153.73 -0.519)" fill="#fff"/>
        <path id="Path_693" data-name="Path 693" d="M337.265,15.339c-3.309,1.107-5.613,5.18-7.637,8.757-1.82,3.22-2.711,5.091-6.211,6.1h0a32.106,32.106,0,0,1-4.2-5.091,97.444,97.444,0,0,1-1.769-15.757,8.911,8.911,0,0,1,1.349,1.54c2.838,4.264,5.817,4.391,6.147,4.391a1.273,1.273,0,1,0,0-2.545c-.089,0-2-.14-4.073-3.258a12.282,12.282,0,0,0-3.564-3.4v-4.8a1.273,1.273,0,1,0-2.545,0,119.36,119.36,0,0,0,2,24.564c.216.993,4.289,5.868,5.524,6.771a21.382,21.382,0,0,0,8.477,5.091,5.091,5.091,0,0,0-.547,3.907,22.275,22.275,0,0,1-9.559-5.091,1.273,1.273,0,0,0-2.1,1.006,119.123,119.123,0,0,1-2.036,22.108,1.291,1.291,0,1,0,2.545.433,131.994,131.994,0,0,0,2.062-19.97,26.042,26.042,0,0,0,3.959,2.342,11.9,11.9,0,0,1,1.133,4.659,6.758,6.758,0,0,0,3.246,6.224,1.273,1.273,0,0,0,1.158-2.265,4.3,4.3,0,0,1-1.858-3.958c0-5.74-2.94-2.545,5.091-2.545h0a4.276,4.276,0,0,0,3.818-3.818c.407-2.647-1.273-5.18-3.818-5.027a15.35,15.35,0,0,1-8.235-3.538,9.5,9.5,0,0,0,3.984-3.08c2.762-.623,3.818-1.973,6.364-1.095h0a1.276,1.276,0,1,0,.814-2.418c-3.971-1.273-5.587.916-4.977-.165,1.807-3.182,3.818-6.8,6.25-7.637a1.278,1.278,0,0,0-.789-2.431Zm-2.991,26.448c-1.005.751-1.858-.56-1.655-1.9.1-.738.573-1.578,1.273-1.68C335.42,38.185,335.509,40.884,334.275,41.787Z" transform="translate(-288.351 -0.003)" fill="#fff"/>
        <g id="Group_650" data-name="Group 650" transform="translate(0 75.461)">
          <path id="Path_694" data-name="Path 694" d="M6.852-38.827a3.052,3.052,0,0,1-.687.257,3.146,3.146,0,0,1-.745.087,2.549,2.549,0,0,1-1.838-.648,2.317,2.317,0,0,1-.677-1.757,2.321,2.321,0,0,1,.677-1.759A2.546,2.546,0,0,1,5.42-43.3a3.147,3.147,0,0,1,.745.087,3.016,3.016,0,0,1,.687.259v.96a2.632,2.632,0,0,0-.656-.332,2.172,2.172,0,0,0-.68-.106,1.285,1.285,0,0,0-1.007.411,1.632,1.632,0,0,0-.366,1.13,1.633,1.633,0,0,0,.366,1.128,1.287,1.287,0,0,0,1.007.409,2.16,2.16,0,0,0,.68-.106,2.6,2.6,0,0,0,.656-.332Z" transform="translate(-2.906 43.296)"/>
        </g>
        <g id="Group_651" data-name="Group 651" transform="translate(16.186 75.717)">
          <path id="Path_695" data-name="Path 695" d="M2.431-40.953v.989H3.578v.794H2.431v1.476a.431.431,0,0,0,.1.327.608.608,0,0,0,.384.085h.571v.8H2.528a1.293,1.293,0,0,1-.934-.274,1.3,1.3,0,0,1-.274-.934V-39.17H.765v-.794h.554v-.989Z" transform="translate(-0.765 40.953)"/>
        </g>
        <g id="Group_652" data-name="Group 652" transform="translate(23.747 75.351)">
          <path id="Path_696" data-name="Path 696" d="M5.24-42.449v-1.863H6.36v4.834H5.24v-.5a1.5,1.5,0,0,1-.506.45,1.369,1.369,0,0,1-.639.143A1.3,1.3,0,0,1,3.038-39.9a2.028,2.028,0,0,1-.413-1.316,2.029,2.029,0,0,1,.413-1.316,1.3,1.3,0,0,1,1.057-.511,1.364,1.364,0,0,1,.638.145,1.527,1.527,0,0,1,.508.448ZM4.507-40.2a.63.63,0,0,0,.545-.261,1.291,1.291,0,0,0,.188-.759,1.292,1.292,0,0,0-.188-.759.63.63,0,0,0-.545-.261.626.626,0,0,0-.542.261,1.289,1.289,0,0,0-.188.759,1.288,1.288,0,0,0,.188.759A.626.626,0,0,0,4.507-40.2Z" transform="translate(-2.625 44.312)"/>
        </g>
        <g id="Group_653" data-name="Group 653" transform="translate(30.767 75.351)">
          <path id="Path_697" data-name="Path 697" d="M6.757-40.2a.629.629,0,0,0,.544-.261,1.282,1.282,0,0,0,.189-.759,1.282,1.282,0,0,0-.189-.759.629.629,0,0,0-.544-.261.638.638,0,0,0-.549.263,1.274,1.274,0,0,0-.191.757,1.272,1.272,0,0,0,.191.757A.637.637,0,0,0,6.757-40.2Zm-.74-2.253a1.536,1.536,0,0,1,.51-.448,1.38,1.38,0,0,1,.643-.145,1.3,1.3,0,0,1,1.057.511,2.031,2.031,0,0,1,.413,1.316A2.03,2.03,0,0,1,8.226-39.9a1.3,1.3,0,0,1-1.057.511,1.38,1.38,0,0,1-.643-.145,1.527,1.527,0,0,1-.51-.448v.5H4.906v-4.834H6.017Z" transform="translate(-4.906 44.313)"/>
        </g>
        <g id="Group_654" data-name="Group 654" transform="translate(41.234 75.717)">
          <path id="Path_698" data-name="Path 698" d="M2.431-40.953v.989H3.578v.794H2.431v1.476a.431.431,0,0,0,.1.327.608.608,0,0,0,.384.085h.571v.8H2.528a1.293,1.293,0,0,1-.934-.274,1.3,1.3,0,0,1-.274-.934V-39.17H.765v-.794h.554v-.989Z" transform="translate(-0.765 40.953)"/>
        </g>
        <g id="Group_655" data-name="Group 655" transform="translate(61.945 75.717)">
          <path id="Path_699" data-name="Path 699" d="M2.431-40.953v.989H3.578v.794H2.431v1.476a.431.431,0,0,0,.1.327.608.608,0,0,0,.384.085h.571v.8H2.528a1.293,1.293,0,0,1-.934-.274,1.3,1.3,0,0,1-.274-.934V-39.17H.765v-.794h.554v-.989Z" transform="translate(-0.765 40.953)"/>
        </g>
      </g>
    </g>
  </g>
</svg>
