<svg xmlns="http://www.w3.org/2000/svg" xmlns:xlink="http://www.w3.org/1999/xlink" width="758" height="569" viewBox="0 0 758 569">
  <defs>
    <clipPath id="clip-path">
      <rect id="Rectangle_29" data-name="Rectangle 29" width="758" height="569" transform="translate(890 132)" fill="#fff" stroke="#707070" stroke-width="1"/>
    </clipPath>
  </defs>
  <g id="Mask_Group_4" data-name="Mask Group 4" transform="translate(-890 -132)" clip-path="url(#clip-path)">
    <g id="Drawkit-Vector-Illustration-Medical-02" transform="translate(894.94 132.393)">
      <g id="NURSE">
        <g id="HAIR" transform="translate(428.51)">
          <path id="Path_191" data-name="Path 191" d="M670.77,343.461s-49.75-8.987-62.52,30.751,23.17,58.565,20.61,84.916-24.07,16.647-24.07,16.647,9.35,32.3,67.8,15.223S729,626.779,876,587.5c0,0,20.62-68.416-24.2-93.49-39.18-21.912-82.63-7.278-80.92-23.169s57.74-81.91-2.24-130.2C720.88,302.191,670.77,343.461,670.77,343.461Z" transform="translate(-601.72 -324.254)" fill="#341406"/>
          <path id="Path_192" data-name="Path 192" d="M615.1,365.69c-20.05,36.722,8.16,61.737,6.17,88.137C619.59,476.3,601.72,466.2,601.72,466.2" transform="translate(-601.72 -324.994)" fill="none" stroke="#341406" stroke-miterlimit="10" stroke-width="4"/>
          <path id="Path_193" data-name="Path 193" d="M890.45,584.5s20.61-68.426-24.21-93.49c-39.18-21.921-99-1.611-97.29-17.5" transform="translate(-601.72 -326.92)" fill="none" stroke="#341406" stroke-miterlimit="10" stroke-width="4"/>
        </g>
        <g id="LEGS" transform="translate(212.15 616.525)">
          <g id="LEFT_LEG" data-name="LEFT LEG" transform="translate(0 4.498)">
            <path id="FOOT" d="M556.53,1654.958c-8,15.321-37.57,57.278-37.76,77.5-.16,16.431,13.94,29.12,6.68,40.494-9.5,14.88-127,4.754-130.11,4.066s54-27.765,69.44-55.51a245.149,245.149,0,0,0,25.54-68.877Z" transform="translate(-385.36 -969.001)" fill="#e18c32"/>
            <g id="SHOES" transform="translate(0 765.785)">
              <rect id="Rectangle_23" data-name="Rectangle 23" width="147.44" height="10.735" rx="5.367" transform="translate(147.44 54.548) rotate(180)" fill="#88bed7"/>
              <path id="Path_194" data-name="Path 194" d="M469.16,1780.237l-29.89-35.927s-48.56,17.187-48.56,35.868Z" transform="translate(-385.36 -1736.423)" fill="#cbe1fd"/>
              <path id="Path_195" data-name="Path 195" d="M474.93,1780.093s10.72-40.346,43.84-43.813c0,0,20.24,22.746,6.84,43.813Z" transform="translate(-385.36 -1736.28)" fill="#cbe1fd"/>
            </g>
            <path id="SHADOW" d="M488.38,1661.381c11.88,5.343,34.25,14.467,54.13,17.217,5.85-9.753,11.25-18.307,14-23.64l-66.21-2.328S489.75,1655.861,488.38,1661.381Z" transform="translate(-385.36 -969.001)" fill="#d97802"/>
            <path id="PANT" d="M586.56,956.57c-8.13,61.394-25.48,142.921-60.78,413.157-16.45,125.91-45.86,267.722-45.86,267.722s58.18,17.04,86.6,7.631c0,0,21.76-3.713,18.68-22.078-2.44-14.555,23-22.943,21.13-45.964-2.15-26.822,18.59-61.757,35.74-120.381,26-88.933,65.17-194.366,94.09-282.2,14.34-43.558,57.72-195.446,14.46-207.349Z" transform="translate(-385.36 -956.57)" fill="#cbe1fd"/>
          </g>
          <g id="RIGHT_LEG" data-name="RIGHT LEG" transform="translate(277.76)">
            <path id="FOOT-2" data-name="FOOT" d="M858.11,1655c-3.5,12.9-16.2,56.964-11.64,72.836s17.33,27.5,13.81,43.6c-3.75,17.187-106.38,6.315-109.53,5.628s54.49-32.126,55.19-55.51S799,1655,799,1655Z" transform="translate(-663.12 -964.546)" fill="#e18c32"/>
            <g id="SHOES-2" data-name="SHOES" transform="translate(65.78 772.306)">
              <rect id="Rectangle_24" data-name="Rectangle 24" width="137.76" height="10.735" rx="5.367" transform="translate(137.76 52.525) rotate(180)" fill="#88bed7"/>
              <path id="Path_196" data-name="Path 196" d="M825.2,1781.165s-13.34-15.96-32.11-20.625c-20.59-5.146-30.57-2.406-41.68,3.1-10.75,5.343-16.76,16.854-16.76,16.854Z" transform="translate(-728.9 -1738.688)" fill="#cbe1fd"/>
              <path id="Path_197" data-name="Path 197" d="M825.65,1780.572s-1.14-37.4,24-42.232c0,0,24.2,21.195,10.81,42.232Z" transform="translate(-728.9 -1738.34)" fill="#cbe1fd"/>
            </g>
            <path id="SHADOW-2" data-name="SHADOW" d="M858.11,1655H799s1.46,8.3,3,19.584c21.51,1.964,43.61-5.019,53-8.515C856.33,1661.443,857.4,1657.593,858.11,1655Z" transform="translate(-663.12 -964.546)" fill="#d97802"/>
            <path id="PANT-2" data-name="PANT" d="M663.12,960.368c13.65,31.095,32.27,146.339,34.23,158.586,17.21,107.456,47.48,251.5,53.07,278.928,11.49,56.434,21.23,144.375,31.79,197.99,5.5,27.922,8.31,46.544,8.31,46.544,29.15,6.953,67.59,0,67.59,0s29.34,1.522,20.39-27.569c-5.34-17.374,11.15-25.428,10.63-49.716-.33-15.115-4-19.947-3.18-55.825,1.5-66.5-16.8-158.449-19.17-183.11-2.06-21.332,20.33-123.327,27.5-256.172,3.72-68.75-31.74-107.142-31.4-118.034C862.88,952,776.13,973.057,663.12,960.368Z" transform="translate(-663.12 -951.99)" fill="#cbe1fd"/>
          </g>
        </g>
        <g id="LEFT_HAND" data-name="LEFT HAND" transform="translate(0 42.894)">
          <g id="HAND" transform="translate(148.646 245.451)">
            <path id="Path_198" data-name="Path 198" d="M582.81,735.523c-5.95,13.455-50.71,99.078-88.88,99.059-49.65,0-193.58-84.611-205.5-89.709-14.2-6.07,5.19-27.961,5.19-27.961s179.43,38.078,188.8,40.582l29.14-64.723Z" transform="translate(-283.231 -692.77)" fill="#f8d2b5"/>
            <path id="Path_199" data-name="Path 199" d="M582.81,735.523c-1.55,3.477-5.79,10.637-11.9,23.434l-64-55.874,4.64-10.312Z" transform="translate(-283.231 -692.77)" fill="#d97802"/>
          </g>
          <path id="ARM" d="M258,688.4c1.29,4.115,6.91,9.979,2.3,10.588-2.39.314-20,0-21.17,6.531a13.487,13.487,0,0,0,1.77,8.9c-2.95,6.06.59,10.165.59,10.165-1.76,3.771-1.71,8.309.16,10.047,0,0-2.66,9.576,1.45,11.138,12.75,4.832,34.75,2.4,42.14.324,6.41-1.8,11.61-7.906,11.61-21.538,0-5.588-3.8-18.16-8.91-23.512-2.09-2.19-13.7-11.943-16.23-14.3-5.87-5.441-9-16.186-9-16.186S254.41,676.885,258,688.4Z" transform="translate(-106.27 -441.053)" fill="#f8d2b5"/>
          <g id="DRIP">
            <line id="Line_1" data-name="Line 1" y2="1248.88" transform="translate(148.54)" fill="none" stroke="#6562ce" stroke-miterlimit="10" stroke-width="6"/>
            <path id="Path_200" data-name="Path 200" d="M348.73,1742.384V1730.6c0-12.188-14.27-22.069-31.86-22.069H192.75c-17.59,0-31.85,9.88-31.85,22.069v11.786" transform="translate(-106.27 -459.591)" fill="none" stroke="#6562ce" stroke-miterlimit="10" stroke-width="6"/>
            <ellipse id="Ellipse_26" data-name="Ellipse 26" cx="24.44" cy="24.004" rx="24.44" ry="24.004" transform="translate(30.82 1282.744)" fill="#fff" stroke="#efaf00" stroke-miterlimit="10" stroke-width="5"/>
            <ellipse id="Ellipse_27" data-name="Ellipse 27" cx="24.44" cy="24.004" rx="24.44" ry="24.004" transform="translate(217.6 1282.744)" fill="#fff" stroke="#efaf00" stroke-miterlimit="10" stroke-width="5"/>
            <path id="Path_201" data-name="Path 201" d="M369.81,482.874a15.859,15.859,0,0,1-16,15.714h0a15.859,15.859,0,0,1-16-15.714V471H172.58v11.923a15.859,15.859,0,0,1-16,15.714h0a15.859,15.859,0,0,1-16-15.714" transform="translate(-106.27 -437.489)" fill="none" stroke="#6562ce" stroke-miterlimit="10" stroke-width="6"/>
            <path id="Path_202" data-name="Path 202" d="M157.51,492h0a9.912,9.912,0,0,1,10,9.821v7.965H147.48v-7.965a9.734,9.734,0,0,1,2.94-6.955A10.094,10.094,0,0,1,157.51,492Z" transform="translate(-106.27 -437.864)" fill="none" stroke="#efaf00" stroke-miterlimit="10" stroke-width="5"/>
            <rect id="Rectangle_25" data-name="Rectangle 25" width="105.42" height="141.369" rx="13.69" transform="translate(0 71.932)" fill="none" stroke="#efaf00" stroke-miterlimit="10" stroke-width="5"/>
            <path id="Path_203" data-name="Path 203" d="M202.55,596.37v34.257a13.064,13.064,0,0,1-13.18,12.945H128.58a13.064,13.064,0,0,1-13.18-12.945V596.37Z" transform="translate(-106.27 -439.728)" fill="#cbe1fd"/>
            <path id="Path_204" data-name="Path 204" d="M150.37,654.06h23v8.407a3.786,3.786,0,0,1-3.82,3.752H154.18a3.786,3.786,0,0,1-3.82-3.752V654.06Z" transform="translate(-106.27 -440.759)" fill="#fff" stroke="#efaf00" stroke-miterlimit="10" stroke-width="5"/>
          </g>
          <g id="FINGERS" transform="translate(134.44 262.919)">
            <path id="Path_205" data-name="Path 205" d="M268.31,738.179c-.66,6.875-2.41,8.024-18.65,7.415,0,0-6,.138-7-15.331-1.41-22.756.85-25.683.85-25.683,9,0,17.65.982,20.81,1.218C270.91,706.2,268.74,733.759,268.31,738.179Z" transform="translate(-240.71 -704.58)" fill="#f8d2b5"/>
            <path id="Path_206" data-name="Path 206" d="M243.5,704.58c0,2.888,17.65.982,20.81,1.218,4.46.3,5.23,9.448-.5,9.36a120.382,120.382,0,0,1-23.1,0" transform="translate(-240.71 -704.58)" fill="none" stroke="#e6bc9c" stroke-miterlimit="10" stroke-width="2"/>
            <path id="Path_207" data-name="Path 207" d="M241.64,725.387c19.12,1.041,24,0,24,0,2.79.138,4.9-9.762-1.85-10.037" transform="translate(-240.71 -704.772)" fill="none" stroke="#e6bc9c" stroke-miterlimit="10" stroke-width="2"/>
            <path id="Path_208" data-name="Path 208" d="M242.57,735.6c18,1.3,24,0,24,0,2.64-.059,4.45-10.165-.93-10.028" transform="translate(-240.71 -704.955)" fill="none" stroke="#e6bc9c" stroke-miterlimit="10" stroke-width="2"/>
            <path id="Path_209" data-name="Path 209" d="M261.68,736.365s6.17-1.463,6.63,2.377c.83,6.816-2.41,8.024-18.65,7.415" transform="translate(-240.71 -705.143)" fill="none" stroke="#e6bc9c" stroke-miterlimit="10" stroke-width="2"/>
          </g>
        </g>
        <g id="SHIRT" transform="translate(319.73 192.957)">
          <path id="Path_210" data-name="Path 210" d="M773.61,520.72c7.14,5.009,65,29.229,84.16,46.495,24.78,22.324,65.8,117.965,65.8,117.965s-58.76,45.178-99.65,49.578L806,711.53s-17.56,57.1-14.36,86.586c1.73,16.048,68.66,143.068,71.22,146.2S742.75,1000.3,585.58,954.443c0,0,31-150.994,5.09-171.02-17.89-13.809-23.66-46.161-21.23-56.856,0,0-68.83-39.511-76.5-53.939,0,0,51.83-84.906,76.72-100.483,23.92-14.978,102.7-40.091,102.7-40.091Z" transform="translate(-492.94 -520.72)" fill="#f9f7ee" stroke="#707070" stroke-width="1"/>
          <path id="Path_211" data-name="Path 211" d="M809.54,538.636S686.12,669.791,678.36,669.791c-6.72,0-34.88-128.258-34.88-128.258l24.09-7.5S684,615.822,687,616.245s94.9-91.025,94.9-91.025Z" transform="translate(-492.94 -520.8)" fill="#fccb28" stroke="#707070" stroke-width="1"/>
        </g>
        <g id="PACK" transform="translate(419.916 597.587)">
          <path id="Path_212" data-name="Path 212" d="M10.106,0h0a9.844,9.844,0,0,1,9.967,9.8l-.023,7.969L0,17.823.023,9.854A9.98,9.98,0,0,1,10.046,0Z" transform="translate(66.402 0) rotate(9.17)" fill="none" stroke="#efaf00" stroke-miterlimit="10" stroke-width="5"/>
          <path id="Path_241" data-name="Path 241" d="M14.05.219l78-.219A13.477,13.477,0,0,1,105.7,13.413l-.327,114.531a13.662,13.662,0,0,1-13.722,13.49l-78,.219A13.477,13.477,0,0,1,0,128.241L.328,13.71A13.662,13.662,0,0,1,14.05.219Z" transform="translate(22.574 10.874) rotate(9.17)" fill="#fff"/>
          <path id="Path_242" data-name="Path 242" d="M14.05.219l78-.219A13.477,13.477,0,0,1,105.7,13.413l-.327,114.531a13.662,13.662,0,0,1-13.722,13.49l-78,.219A13.477,13.477,0,0,1,0,128.241L.328,13.71A13.662,13.662,0,0,1,14.05.219Z" transform="translate(22.574 10.874) rotate(9.17)" fill="none" stroke="#e4effd" stroke-width="5"/>
          <path id="Path_243" data-name="Path 243" d="M5.59.144,56.967,0a5.424,5.424,0,0,1,5.492,5.4L62.392,29a5.5,5.5,0,0,1-5.523,5.43l-51.377.144A5.424,5.424,0,0,1,0,29.176l.067-23.6A5.5,5.5,0,0,1,5.59.144Z" transform="translate(34.351 64.33) rotate(9.17)" fill="#efaf00"/>
          <path id="Path_213" data-name="Path 213" d="M.034.065,23.024,0,23,8.411a3.812,3.812,0,0,1-3.829,3.764l-15.363.043A3.76,3.76,0,0,1,0,8.476L.024.065Z" transform="translate(43.462 157.608) rotate(9.17)" fill="#fff" stroke="#efaf00" stroke-miterlimit="10" stroke-width="5"/>
        </g>
        <g id="RIGHT_HAND" data-name="RIGHT HAND" transform="translate(462.439 370.715)">
          <path id="Path_214" data-name="Path 214" d="M917,779.356c-57.79,45.231-174.554,84.558-196.4,82.242-.641,1.144-11.025,19.418-21.341,19.418-10.651,0-20.591-5.313-26.2.173s-11.41,14.378-15.68,15.159a24.835,24.835,0,0,1-15.256-1.816s3.659-8.174,7.446-16.13c-3.412,2.916-8.037,9.382-10.621,11.925-3.886,3.833-7.337.354-7.337.354s7.475-13.142,10.355-16.612,11.538-8.728,16.282-10.409c5.493-2.725,36.676-18.165,53.421-21.3,27.534-18.674,97.78-65.693,131.724-82.732L831.2,733.608s33.609-7.829,69.723-31.9C900.916,701.71,928.558,770.328,917,779.356Z" transform="translate(-631.61 -701.71)" fill="#f8d2b5"/>
          <path id="Path_215" data-name="Path 215" d="M904.69,701.71s-30.88,23.3-70.7,34.493l4.46,10.155s33.34-15.213,77.59-10.538C916,735.82,906,703.714,904.69,701.71Z" transform="translate(-634.649 -703.71)" fill="#e6bc9c"/>
          <path id="Path_216" data-name="Path 216" d="M648.49,913.378s10-22.344,13.49-24.681c6.14-4.105,14.16-9.507,14.16-9.507" transform="translate(-631.61 -720.754)" fill="none" stroke="#e6bc9c" stroke-linecap="round" stroke-miterlimit="10" stroke-width="3"/>
          <path id="Path_217" data-name="Path 217" d="M654.57,914.437s9.64-19.122,13.13-21.45c6.14-4.105,14.16-9.507,14.16-9.507" transform="translate(-631.61 -720.831)" fill="none" stroke="#e6bc9c" stroke-linecap="round" stroke-miterlimit="10" stroke-width="3"/>
        </g>
        <g id="HEAD" transform="translate(459.742 42.894)">
          <g id="NECK" transform="translate(34.648 71.639)">
            <path id="Path_218" data-name="Path 218" d="M737.67,440.87c.71,13.259-4.46,62.336,45.63,83.05L687,614.738l-19.4-82.215s12.44-19.5,6.35-86.016Z" transform="translate(-667.6 -440.87)" fill="#f8d2b5"/>
          </g>
          <path id="SHADOW-3" data-name="SHADOW" d="M737.38,445.88s-10.87,71.058-64.79,74.76h-.82c2.93-12.237,5.72-35.062,2.15-74.024Z" transform="translate(-632.952 -369.32)" fill="#e6bc9c"/>
          <path id="HEAD-2" data-name="HEAD" d="M672.59,491.748c31.73-2.809,64.79-47.29,64.79-47.29,9.12-6.2,10.12-19.928,2.79-22.452-8.51-2.946-15.34,11.687-18.54,11.923-5.56,3.83-19.58-2.858-19.43-32.411.06-13.485-4.42-22.177-11-27.323h0a36.428,36.428,0,0,0-5.63-3.359h0A29.591,29.591,0,0,0,670,368.058c-39.41,3.477-37.68,36.919-36.68,49.981C634.74,436.945,647,494.037,672.59,491.748Z" transform="translate(-632.952 -367.928)" fill="#f8d2b5"/>
        </g>
        <ellipse id="Ellipse_28" data-name="Ellipse 28" cx="3.96" cy="3.889" rx="3.96" ry="3.889" transform="translate(506.09 93.722)" fill="#40465c"/>
        <ellipse id="Ellipse_29" data-name="Ellipse 29" cx="3.96" cy="3.889" rx="3.96" ry="3.889" transform="translate(468.05 93.722)" fill="#40465c"/>
        <line id="Line_2" data-name="Line 2" x1="3.99" y2="20.026" transform="translate(479.35 100.164)" fill="none" stroke="#40465c" stroke-linecap="round" stroke-linejoin="round" stroke-width="4"/>
        <path id="Path_219" data-name="Path 219" d="M656.55,460.309a19.407,19.407,0,0,0,19.94-5.009" transform="translate(-173.21 -326.595)" fill="none" stroke="#40465c" stroke-linecap="round" stroke-linejoin="round" stroke-width="4"/>
      </g>
      <g id="PLANT" transform="translate(577.005 779.221)">
        <g id="PLANT-2" data-name="PLANT">
          <path id="Path_220" data-name="Path 220" d="M1126.92,1292.17c-42.33,62.945-122.1,97.33-157.34,77.864-34.07-18.818-37-111.542,5.29-174.487s113.1-92.321,154.23-65.666S1169.25,1229.215,1126.92,1292.17Z" transform="translate(-795.215 -1120.044)" fill="#f2bf33"/>
          <path id="Path_221" data-name="Path 221" d="M974.28,1582.3s-42.63-339.693,154.5-450.685" transform="translate(-795.215 -1120.251)" fill="none" stroke="#6562ce" stroke-linecap="round" stroke-miterlimit="10" stroke-width="5"/>
          <line id="Line_3" data-name="Line 3" x1="118.06" y2="11.835" transform="translate(243.435 87.18)" fill="none" stroke="#6562ce" stroke-linecap="round" stroke-miterlimit="10" stroke-width="5"/>
          <line id="Line_4" data-name="Line 4" x1="123.91" y2="12.424" transform="translate(235.974 99.418)" fill="none" stroke="#6562ce" stroke-linecap="round" stroke-miterlimit="10" stroke-width="5"/>
          <line id="Line_5" data-name="Line 5" x2="30.01" y2="87.077" transform="translate(181.045 76.18)" fill="none" stroke="#6562ce" stroke-linecap="round" stroke-miterlimit="10" stroke-width="5"/>
          <path id="Path_222" data-name="Path 222" d="M1283.4,1470.154c-13.09,33.157-70.44,42.232-128.1,20.3s-79.91-65.568-77.38-80.054c3.18-18.268,71.23-49.451,124.78-40.052C1263.57,1381.015,1296.49,1436.957,1283.4,1470.154Z" transform="translate(-795.215 -1124.484)" fill="#f2bf33"/>
          <path id="Path_223" data-name="Path 223" d="M939,1587.162s-5.17-149.217,155.28-179.849c87.84-16.765,155.81,26.6,187,63.358" transform="translate(-795.215 -1125.109)" fill="none" stroke="#6562ce" stroke-linecap="round" stroke-miterlimit="10" stroke-width="5"/>
          <line id="Line_6" data-name="Line 6" y1="24.652" x2="54.78" transform="translate(386.775 259.89)" fill="none" stroke="#6562ce" stroke-linecap="round" stroke-miterlimit="10" stroke-width="5"/>
          <line id="Line_7" data-name="Line 7" y1="23.444" x2="51.02" transform="translate(400.445 265.38)" fill="none" stroke="#6562ce" stroke-linecap="round" stroke-miterlimit="10" stroke-width="5"/>
          <line id="Line_8" data-name="Line 8" x2="21.35" y2="91.378" transform="translate(364.104 280.22)" fill="none" stroke="#6562ce" stroke-linecap="round" stroke-miterlimit="10" stroke-width="5"/>
          <path id="Path_224" data-name="Path 224" d="M906.87,1363.929c26,38.6,22,93.3.79,105.973-12.84,7.71-66.83-6.237-92.86-44.835s-25.95-84.906-.73-101.318S880.84,1325.331,906.87,1363.929Z" transform="translate(-795.215 -1123.574)" fill="#f2bf33"/>
          <path id="Path_225" data-name="Path 225" d="M919.84,1585.775s14.59-192.981-105-259.855" transform="translate(-795.215 -1123.721)" fill="none" stroke="#6562ce" stroke-linecap="round" stroke-miterlimit="10" stroke-width="5"/>
          <line id="Line_9" data-name="Line 9" x2="75.48" transform="translate(2.965 258.524)" fill="none" stroke="#6562ce" stroke-linecap="round" stroke-miterlimit="10" stroke-width="5"/>
          <line id="Line_10" data-name="Line 10" x2="79.14" transform="translate(6.765 271.341)" fill="none" stroke="#6562ce" stroke-linecap="round" stroke-miterlimit="10" stroke-width="5"/>
          <line id="Line_11" data-name="Line 11" x1="13.56" y2="53.153" transform="translate(99.885 245.678)" fill="none" stroke="#6562ce" stroke-linecap="round" stroke-miterlimit="10" stroke-width="5"/>
        </g>
        <g id="VASE" transform="translate(56.985 462.053)">
          <path id="Path_226" data-name="Path 226" d="M1055.94,1623.451v134.19a32.616,32.616,0,0,1-9.815,23.311,33.822,33.822,0,0,1-23.735,9.64H885.76a33.831,33.831,0,0,1-23.739-9.639,32.626,32.626,0,0,1-9.821-23.312v-134.19c.005-18.2,15.029-32.951,33.56-32.951h136.63c18.531-.006,33.556,14.75,33.55,32.951Z" transform="translate(-852.2 -1590.5)" fill="#fff" stroke="#88bed7" stroke-miterlimit="10" stroke-width="5"/>
        </g>
        <ellipse id="Ellipse_30" data-name="Ellipse 30" cx="10.27" cy="10.087" rx="10.27" ry="10.087" transform="translate(113.675 486.98)" fill="#cbe1fd"/>
        <ellipse id="Ellipse_31" data-name="Ellipse 31" cx="10.27" cy="10.087" rx="10.27" ry="10.087" transform="translate(159.385 486.931)" fill="#cbe1fd"/>
        <ellipse id="Ellipse_32" data-name="Ellipse 32" cx="10.27" cy="10.087" rx="10.27" ry="10.087" transform="translate(205.085 486.872)" fill="#cbe1fd"/>
        <path id="Path_227" data-name="Path 227" d="M1053.56,1623.852v12h-.12a10.082,10.082,0,0,1-1-20.134,30.009,30.009,0,0,1,1.12,8.132Z" transform="translate(-795.215 -1128.897)" fill="#cbe1fd"/>
        <ellipse id="Ellipse_33" data-name="Ellipse 33" cx="10.27" cy="10.087" rx="10.27" ry="10.087" transform="translate(67.965 487.039)" fill="#cbe1fd"/>
        <path id="Path_228" data-name="Path 228" d="M952.69,1595.375a10.075,10.075,0,0,1-5.892,9.128,10.42,10.42,0,0,1-10.918-1.347,9.982,9.982,0,0,1-3.41-10.276h19.91A10.216,10.216,0,0,1,952.69,1595.375Z" transform="translate(-795.215 -1128.489)" fill="#cbe1fd"/>
        <path id="Path_229" data-name="Path 229" d="M998.4,1595.316a10.075,10.075,0,0,1-5.879,9.1,10.421,10.421,0,0,1-10.894-1.311,9.983,9.983,0,0,1-3.467-10.227h19.93a9.738,9.738,0,0,1,.31,2.436Z" transform="translate(-795.215 -1128.489)" fill="#cbe1fd"/>
        <path id="Path_230" data-name="Path 230" d="M1042.74,1600.306a10.358,10.358,0,0,1-11.547,4.7,10.129,10.129,0,0,1-7.633-9.722,9.723,9.723,0,0,1,.29-2.367,31.382,31.382,0,0,1,18.89,7.386Z" transform="translate(-795.215 -1128.49)" fill="#cbe1fd"/>
        <path id="Path_231" data-name="Path 231" d="M898.75,1605.324a10.387,10.387,0,0,1-9.524-2.944,9.96,9.96,0,0,1-2.476-9.5h19.87c.05.177.1.363.14.55A10.1,10.1,0,0,1,898.75,1605.324Z" transform="translate(-795.215 -1128.489)" fill="#cbe1fd"/>
        <ellipse id="Ellipse_34" data-name="Ellipse 34" cx="10.27" cy="10.087" rx="10.27" ry="10.087" transform="translate(209.805 550.033)" fill="#cbe1fd"/>
        <path id="Path_232" data-name="Path 232" d="M1053.56,1680.68v18.887a10.034,10.034,0,0,1,0-18.886Z" transform="translate(-795.215 -1130.057)" fill="#cbe1fd"/>
        <ellipse id="Ellipse_35" data-name="Ellipse 35" cx="10.27" cy="10.087" rx="10.27" ry="10.087" transform="translate(164.095 550.083)" fill="#cbe1fd"/>
        <ellipse id="Ellipse_36" data-name="Ellipse 36" cx="10.27" cy="10.087" rx="10.27" ry="10.087" transform="translate(118.385 550.141)" fill="#cbe1fd"/>
        <ellipse id="Ellipse_37" data-name="Ellipse 37" cx="10.27" cy="10.087" rx="10.27" ry="10.087" transform="translate(76.985 551.939)" fill="#cbe1fd"/>
        <ellipse id="Ellipse_38" data-name="Ellipse 38" cx="10.27" cy="10.087" rx="10.27" ry="10.087" transform="translate(233.065 519.852)" fill="#cbe1fd"/>
        <ellipse id="Ellipse_39" data-name="Ellipse 39" cx="10.27" cy="10.087" rx="10.27" ry="10.087" transform="translate(187.355 519.911)" fill="#cbe1fd"/>
        <ellipse id="Ellipse_40" data-name="Ellipse 40" cx="10.27" cy="10.087" rx="10.27" ry="10.087" transform="translate(141.645 519.96)" fill="#cbe1fd"/>
        <path id="Path_233" data-name="Path 233" d="M857.2,1669.787a10.314,10.314,0,0,1-2.62.186V1649.83a10.222,10.222,0,0,1,10.772,8.781,10.107,10.107,0,0,1-8.152,11.177Z" transform="translate(-795.215 -1129.506)" fill="#cbe1fd"/>
        <ellipse id="Ellipse_41" data-name="Ellipse 41" cx="10.27" cy="10.087" rx="10.27" ry="10.087" transform="translate(95.375 520.255)" fill="#cbe1fd"/>
        <ellipse id="Ellipse_42" data-name="Ellipse 42" cx="10.27" cy="10.087" rx="10.27" ry="10.087" transform="translate(217.155 614.157)" fill="#cbe1fd"/>
        <ellipse id="Ellipse_43" data-name="Ellipse 43" cx="10.27" cy="10.087" rx="10.27" ry="10.087" transform="translate(171.445 614.206)" fill="#cbe1fd"/>
        <ellipse id="Ellipse_44" data-name="Ellipse 44" cx="10.27" cy="10.087" rx="10.27" ry="10.087" transform="translate(125.735 614.265)" fill="#cbe1fd"/>
        <ellipse id="Ellipse_45" data-name="Ellipse 45" cx="10.27" cy="10.087" rx="10.27" ry="10.087" transform="translate(84.335 616.063)" fill="#cbe1fd"/>
        <path id="Path_234" data-name="Path 234" d="M1053.56,1718.009v13.426a10.4,10.4,0,0,1-11.323,2.712,10.023,10.023,0,0,1,0-18.851,10.4,10.4,0,0,1,11.323,2.712Z" transform="translate(-795.215 -1130.664)" fill="#cbe1fd"/>
        <ellipse id="Ellipse_46" data-name="Ellipse 46" cx="10.27" cy="10.087" rx="10.27" ry="10.087" transform="translate(194.705 584.035)" fill="#cbe1fd"/>
        <ellipse id="Ellipse_47" data-name="Ellipse 47" cx="10.27" cy="10.087" rx="10.27" ry="10.087" transform="translate(148.995 584.084)" fill="#cbe1fd"/>
        <path id="Path_235" data-name="Path 235" d="M864.54,1735.067a10.365,10.365,0,0,1-10-3.457v-12.846a10.393,10.393,0,0,1,11.843-2.893,10.037,10.037,0,0,1-1.843,19.2Z" transform="translate(-795.215 -1130.672)" fill="#cbe1fd"/>
        <ellipse id="Ellipse_48" data-name="Ellipse 48" cx="10.27" cy="10.087" rx="10.27" ry="10.087" transform="translate(102.725 584.379)" fill="#cbe1fd"/>
        <path id="Path_236" data-name="Path 236" d="M1011.31,1789.117a9.954,9.954,0,0,1-.321,2.507l-19.9,0a10.246,10.246,0,1,1,20.22-2.495Z" transform="translate(-795.215 -1131.814)" fill="#cbe1fd"/>
        <path id="Path_237" data-name="Path 237" d="M1047.6,1779a31.048,31.048,0,0,1-11.08,9.262,10.2,10.2,0,0,1,10.22-9.3,8.357,8.357,0,0,1,.86.039Z" transform="translate(-795.215 -1131.813)" fill="#cbe1fd"/>
        <path id="Path_238" data-name="Path 238" d="M965.3,1791.622H945.37a2.53,2.53,0,0,0-.1-.442,10.088,10.088,0,0,1,8.02-11.884,10.261,10.261,0,0,1,12.1,7.877,9.8,9.8,0,0,1-.09,4.449Z" transform="translate(-795.215 -1131.815)" fill="#cbe1fd"/>
        <path id="Path_239" data-name="Path 239" d="M919.61,1791.623h-20a1.974,1.974,0,0,0-.1-.383,10.01,10.01,0,0,1,4.467-10.444,10.425,10.425,0,0,1,11.532.22,10,10,0,0,1,4.05,10.607Z" transform="translate(-795.215 -1131.816)" fill="#cbe1fd"/>
        <path id="Path_240" data-name="Path 240" d="M873.62,1789.193a31.216,31.216,0,0,1-12.56-9.5l.26-.059a10.267,10.267,0,0,1,12.1,7.857,8.556,8.556,0,0,1,.2,1.7Z" transform="translate(-795.215 -1131.821)" fill="#cbe1fd"/>
      </g>
    </g>
  </g>
</svg>
