<svg xmlns="http://www.w3.org/2000/svg" width="75.492" height="85.54" viewBox="0 0 75.492 85.54">
  <path id="noun-cardiogram-1549338" d="M83.07,0h49.353a12.3,12.3,0,0,1,9.2,4.3,15.713,15.713,0,0,1,3.869,10.506V41.94H127.459L123.735,31.1a2.635,2.635,0,0,0-1.168-1.406,2.271,2.271,0,0,0-3.285,1.158l-10.294,22.5-7.739-29.368a2.493,2.493,0,0,0-1.241-1.655,2.249,2.249,0,0,0-3.285,1.158L88.181,41.939H70V14.8A16.033,16.033,0,0,1,73.8,4.3,12.579,12.579,0,0,1,83.07,0Zm62.421,47.568V70.728a15.5,15.5,0,0,1-3.869,10.423,12.108,12.108,0,0,1-9.2,4.384H83.07a12.106,12.106,0,0,1-9.2-4.384A15.5,15.5,0,0,1,70,70.728V47.565h19.64A2.507,2.507,0,0,0,91.9,45.827l6.352-13.733,7.812,29.45a2.3,2.3,0,0,0,2.993,1.82,2.247,2.247,0,0,0,1.533-1.489l10.513-23.081,2.409,6.949a2.771,2.771,0,0,0,2.336,1.82h19.64Z" transform="translate(-70.001 0.004)" fill-rule="evenodd"/>
</svg>
