<svg xmlns="http://www.w3.org/2000/svg" width="31.303" height="37.677" viewBox="0 0 31.303 37.677">
  <g id="nurse-svgrepo-com" transform="translate(-38.843 0)">
    <g id="Group_158" data-name="Group 158" transform="translate(38.843 0)">
      <g id="Group_157" data-name="Group 157" transform="translate(0)">
        <path id="Path_168" data-name="Path 168" d="M91.952,54.03a2.85,2.85,0,1,0,5.38,0A6.6,6.6,0,0,0,91.952,54.03Z" transform="translate(-87.478 -49.098)"/>
        <path id="Path_169" data-name="Path 169" d="M82.274,4.01a7.241,7.241,0,0,1,5.119,0L88.534.991a.311.311,0,0,0-.189-.4,10.782,10.782,0,0,0-7.021,0,.311.311,0,0,0-.189.4ZM83.957,1.42h.469V.953h.814v.469h.469v.814h-.469V2.7h-.814V2.236h-.469Z" transform="translate(-77.669 0)"/>
        <path id="Path_170" data-name="Path 170" d="M69.332,135.175h-.715V133.1a.362.362,0,0,0-.362-.362H68.2a.529.529,0,0,0-.3-.963H66.516a.529.529,0,0,0-.3.963h-.057a.362.362,0,0,0-.362.362v2.07H65.03V132.29a.362.362,0,0,0-.362-.362h-.44V128.84a.362.362,0,0,0-.362-.362h-.5a.362.362,0,0,0-.362.362v3.088h-.44a.362.362,0,0,0-.362.362v2.885h-.757v-3.7a.362.362,0,0,0-.362-.362H61.03a.529.529,0,0,0-.3-.963H59.341a.529.529,0,0,0-.3.963h-.054a.362.362,0,0,0-.362.362v3.7H57.513v-3.669a.815.815,0,0,0-.815-.815h-1.43a.04.04,0,0,0,0-.011c-.027-.069-2.712-6.921-3.694-9.783-.638-1.856-1.708-2.8-3.178-2.8H43.625c-1.47,0-2.542.941-3.178,2.8-.43,1.252-1.077,3.061-1.524,4.3a1.376,1.376,0,0,0,1.258,1.84l4.727.124a1.375,1.375,0,0,0,.033-2.747l-2.79-.073q.178-.5.334-.94H42.5l1.337.035.284-1.986a.362.362,0,0,1,.41-.307l4.126.589a.362.362,0,0,1,.307.41l-.729,5.1a.362.362,0,0,1-.41.307l-1.22-.174a2.318,2.318,0,0,1-1.76.737l-3.215-.085-1.076,5.554a.765.765,0,0,0,.75.91h1.049v9.973a1.65,1.65,0,1,0,3.3,0V134.49h.712v9.973a1.65,1.65,0,1,0,3.3,0V134.49h1.049a.764.764,0,0,0,.75-.91c-2.131-11-1.879-9.638-1.959-10.285,1.185,3.247,3.105,8.147,3.2,8.389a1.372,1.372,0,0,0,2.048.638h1.131V145.3a.815.815,0,1,0,1.629,0v-2.5H68.516v2.5a.815.815,0,1,0,1.629,0v-9.307A.815.815,0,0,0,69.332,135.175Z" transform="translate(-38.843 -108.472)"/>
      </g>
    </g>
  </g>
</svg>
