<svg id="nurse-female" xmlns="http://www.w3.org/2000/svg" width="87.559" height="107" viewBox="0 0 87.559 107">
  <path id="Path_1" data-name="Path 1" d="M22.465,34.676c6.631,7.118,16.877-2.207,26.863-4.815,5.666-1.486,8.717,8.578,16.026,4.9l.687,7.961c4.545-1.026,1.312,12.993-2.633,12.263-1.295,4.285-1.79,7.318-3.911,10.159a19.862,19.862,0,0,1-15.565,7.917A21.064,21.064,0,0,1,28.914,65.38c-2.442-3.016-3.233-6.336-4.745-10.968-4.2,1.251-7.013-12.975-2.451-11.759l.747-7.978ZM51.258,12.462v1.756A1.482,1.482,0,0,1,49.78,15.7H46.8v2.981a1.482,1.482,0,0,1-1.477,1.477H43.567a1.482,1.482,0,0,1-1.477-1.477V15.7H39.108a1.482,1.482,0,0,1-1.477-1.477V12.462a1.482,1.482,0,0,1,1.477-1.477h2.981V8a1.482,1.482,0,0,1,1.477-1.477h1.756A1.482,1.482,0,0,1,46.8,8v2.981H49.78a1.5,1.5,0,0,1,1.477,1.486ZM33.859,0H55.012a8.871,8.871,0,0,1,2.251.3,9.509,9.509,0,0,1,4.319,2.468,7.043,7.043,0,0,1,2.129,4.919,6.559,6.559,0,0,1-.217,1.634l-1.973,7.544a20.538,20.538,0,0,1,1.7,2.112C74.9,35.562,78.773,65.424,59.6,69.274c2.546,1.643,5.666,1.921,8.873,1.738,9.655.243,16.382,4.38,19.085,13.888v17.26c-.009,2.512-1.512,4.232-5.1,4.841H47.9L56.42,69.865a22.177,22.177,0,0,1-3.407,2.155,19.574,19.574,0,0,1-9.108,2.225A20.64,20.64,0,0,1,35.215,71.9a23.33,23.33,0,0,1-3.833-2.468l-.348-.078,8.612,37.639H5.1c-3.589-.608-5.084-2.329-5.1-4.841V84.9c2.694-9.516,9.429-13.644,19.085-13.888,3.485.2,6.866-.165,9.542-2.207-9.864-2.442-14.044-5.936-14.044-20.041V43.949c.617-10.551,3.276-19.893,8.96-26.724A15.364,15.364,0,0,1,26.724,14.4l-1.33-5.075a6.559,6.559,0,0,1-.217-1.634,7.007,7.007,0,0,1,2.129-4.919A9.48,9.48,0,0,1,31.617.3,8.7,8.7,0,0,1,33.859,0Zm0,2.981H55.012c3.077,0,6.37,2.616,5.588,5.588l-1.573,6.005-1.06,4.041c-.773,2.972-2.52,5.588-5.588,5.588h-15.9c-3.068,0-4.815-2.616-5.588-5.588l-1.512-5.788L28.262,8.56c-.773-2.964,2.52-5.579,5.6-5.579Zm26.82,90.444H71.89v2.685H60.679V93.425ZM42.489,107l-5.71-18.946a34.04,34.04,0,0,0,14.183,0L45.513,107H42.489Zm-.956-51.119a.7.7,0,0,1-.043-.965.634.634,0,0,1,.921-.043,1.95,1.95,0,0,0,1.347.66,2.154,2.154,0,0,0,1.373-.678.635.635,0,0,1,.921.07.7.7,0,0,1-.07.965A3.355,3.355,0,0,1,43.766,56.9a3.1,3.1,0,0,1-2.234-1.017ZM58.593,42.7a.713.713,0,0,1,.087.965.637.637,0,0,1-.921.1c-1.243-1.086-3.694-.617-5.805-.217a14.811,14.811,0,0,1-2.929.374A.672.672,0,0,1,48.4,43.2a.658.658,0,0,1,.678-.66,14.046,14.046,0,0,0,2.651-.348c2.381-.461,5.162-.991,6.866.5ZM35.945,48.651a1.8,1.8,0,0,1,.1.574,1.593,1.593,0,1,1-3.181,0,1.7,1.7,0,0,1,.243-.9,8.159,8.159,0,0,0-2.642.617.569.569,0,0,1-.747-.435.749.749,0,0,1,.365-.9,9.117,9.117,0,0,1,3.572-.7,10.107,10.107,0,0,1,3.555.7.737.737,0,0,1,.382.886.571.571,0,0,1-.739.461,8.55,8.55,0,0,0-.9-.313ZM51.666,48.5a1.9,1.9,0,0,0-.087.548,1.593,1.593,0,1,0,3.181,0,1.662,1.662,0,0,0-.2-.808,10.229,10.229,0,0,1,2.625.539.579.579,0,0,0,.721-.487.738.738,0,0,0-.4-.869,10.541,10.541,0,0,0-7.083.009.729.729,0,0,0-.4.869.572.572,0,0,0,.721.478c.313-.1.617-.2.921-.278Zm-21.8-4.571a.63.63,0,0,1-.921-.1.712.712,0,0,1,.087-.965c1.7-1.486,4.484-.965,6.866-.5a13.363,13.363,0,0,0,2.651.348.688.688,0,0,1,.052,1.373,14.811,14.811,0,0,1-2.929-.374c-2.1-.4-4.563-.869-5.805.217Zm8.274,17.6a.712.712,0,0,1-.1-.965.628.628,0,0,1,.913-.1A7.93,7.93,0,0,0,43.984,62.7a6.276,6.276,0,0,0,4.432-2.2.626.626,0,0,1,.921.017.712.712,0,0,1-.017.973,7.45,7.45,0,0,1-5.336,2.59,9.2,9.2,0,0,1-5.849-2.555Z" fill="#008278" fill-rule="evenodd"/>
</svg>
