<svg xmlns="http://www.w3.org/2000/svg" xmlns:xlink="http://www.w3.org/1999/xlink" width="99" height="107" viewBox="0 0 99 107">
  <defs>
    <clipPath id="clip-path">
      <rect id="Rectangle_1" data-name="Rectangle 1" width="99" height="107" transform="translate(437.054 392.166)" fill="#fff" stroke="#707070" stroke-width="1"/>
    </clipPath>
  </defs>
  <g id="Mask_Group_1" data-name="Mask Group 1" transform="translate(-437.054 -392.166)" clip-path="url(#clip-path)">
    <g id="noun-injury-4901334" transform="translate(436.946 392.078)">
      <path id="Path_4" data-name="Path 4" d="M234.509,506.387a63.623,63.623,0,0,1-20.555-3.406l-.6,10.808h37.818l.829-9.841a63.789,63.789,0,0,1-17.475,2.439h-.012Z" transform="translate(-189.659 -407.648)" fill="#008278"/>
      <path id="Path_5" data-name="Path 5" d="M222.006,349.97l-.7,12.571a62.152,62.152,0,0,0,38.562.244l1.108-13.156a63.942,63.942,0,0,1-38.968.341Z" transform="translate(-196.106 -283.362)" fill="#008076"/>
      <path id="Path_6" data-name="Path 6" d="M217.772,427.26l-.7,12.544a61.913,61.913,0,0,0,20.455,3.473h.013a62.053,62.053,0,0,0,17.631-2.558l1.108-13.14a63.94,63.94,0,0,1-38.505-.318Z" transform="translate(-192.676 -346.279)" fill="#008278"/>
      <path id="Path_7" data-name="Path 7" d="M249.482,0,214.071,23.753A11.924,11.924,0,0,1,211.664,25a20.314,20.314,0,0,0-11.337,10.155A20.164,20.164,0,0,0,202.036,54.6a11.831,11.831,0,0,1,1.827,7.108l-.174,3.112a61.947,61.947,0,0,0,18.85,2.927,61.839,61.839,0,0,0,20.178-3.368l.519-6.155a11.9,11.9,0,0,1,6.54-9.6L276.87,35.161V0ZM203.057,39.782a.87.87,0,0,1-.76.446.86.86,0,0,1-.424-.111.87.87,0,0,1-.335-1.184l4.6-8.229a.87.87,0,1,1,1.518.849Zm2,4.1a.86.86,0,0,1-.423-.111.87.87,0,0,1-.335-1.184l4.6-8.228a.87.87,0,1,1,1.519.849l-4.6,8.228a.871.871,0,0,1-.76.446Zm9.058-5.05-4.6,9.142a.87.87,0,0,1-1.554-.783l4.6-9.142a.87.87,0,1,1,1.554.783Zm14.72,2.742-8.28,16.456A.87.87,0,0,1,219,57.25l8.28-16.456a.87.87,0,1,1,1.554.783Z" transform="translate(-177.688)" fill="#008278"/>
      <path id="Path_8" data-name="Path 8" d="M106.819,133.649a.87.87,0,0,0-.942-.109l-3.122,1.551L98.6,130.96a.87.87,0,0,0-1.227,1.234l4.6,4.571a.871.871,0,0,0,1,.162l3.174-1.577,5.084,4.211a.87.87,0,1,0,1.11-1.341Z" transform="translate(-95.454 -105.934)" fill="#008278"/>
      <path id="Path_9" data-name="Path 9" d="M153.719,58.862l-3.073-6.455a.878.878,0,0,0-.811-.5l-3.487.1-2.021-5.483a.87.87,0,0,0-1.633.6l2.237,6.07a.872.872,0,0,0,.842.569l3.546-.1,2.828,5.942a.87.87,0,0,0,1.571-.747Z" transform="translate(-132.353 -37.249)" fill="#008077"/>
      <path id="Path_10" data-name="Path 10" d="M104.864,242.008,98.3,239.1a.869.869,0,0,0-.937.15l-2.58,2.334-5.131-2.856a.87.87,0,0,0-.846,1.52l5.676,3.158a.871.871,0,0,0,1.007-.115l2.623-2.373,6.044,2.681a.87.87,0,1,0,.7-1.59Z" transform="translate(-88.361 -193.39)" fill="#008278"/>
      <g id="Group_1" data-name="Group 1" transform="translate(0.053 108.598)">
        <path id="Path_11" data-name="Path 11" d="M.957-3.489a.487.487,0,0,1-.118.044.541.541,0,0,1-.127.015A.436.436,0,0,1,.4-3.539a.4.4,0,0,1-.115-.3A.394.394,0,0,1,.4-4.14a.439.439,0,0,1,.314-.11.541.541,0,0,1,.127.015.556.556,0,0,1,.118.044v.163a.457.457,0,0,0-.113-.056A.384.384,0,0,0,.729-4.1a.216.216,0,0,0-.172.071.272.272,0,0,0-.062.19.287.287,0,0,0,.062.2.219.219,0,0,0,.172.068A.384.384,0,0,0,.844-3.6a.432.432,0,0,0,.113-.056Z" transform="translate(-0.281 4.25)"/>
      </g>
      <g id="Group_2" data-name="Group 2" transform="translate(0.89 108.793)">
        <path id="Path_12" data-name="Path 12" d="M.926-3.041a.462.462,0,0,0-.05-.018.223.223,0,0,0-.05-.006.143.143,0,0,0-.113.047.21.21,0,0,0-.038.136v.272H.484v-.6h.19v.1a.24.24,0,0,1,.083-.083.216.216,0,0,1,.115-.03l.021,0,.033,0Z" transform="translate(-0.484 3.219)"/>
      </g>
      <g id="Group_3" data-name="Group 3" transform="translate(1.382 108.793)">
        <path id="Path_13" data-name="Path 13" d="M.887-2.908v.053H.442a.162.162,0,0,0,.047.1.184.184,0,0,0,.118.033A.442.442,0,0,0,.73-2.736a.6.6,0,0,0,.13-.056v.148a.787.787,0,0,1-.136.036.65.65,0,0,1-.133.015.363.363,0,0,1-.252-.08A.3.3,0,0,1,.25-2.9a.3.3,0,0,1,.086-.228.335.335,0,0,1,.243-.086A.3.3,0,0,1,.8-3.133a.3.3,0,0,1,.086.225Zm-.2-.062a.118.118,0,0,0-.033-.086.1.1,0,0,0-.08-.036.131.131,0,0,0-.092.033.143.143,0,0,0-.041.089Z" transform="translate(-0.25 3.219)"/>
      </g>
      <g id="Group_4" data-name="Group 4" transform="translate(2.119 108.793)">
        <path id="Path_14" data-name="Path 14" d="M.561-2.875a.174.174,0,0,0-.092.021.063.063,0,0,0-.03.059.069.069,0,0,0,.024.056.105.105,0,0,0,.068.021A.115.115,0,0,0,.62-2.757a.133.133,0,0,0,.038-.1v-.021Zm.29-.074v.341H.659V-2.7a.235.235,0,0,1-.086.08.261.261,0,0,1-.115.024.216.216,0,0,1-.151-.053A.181.181,0,0,1,.25-2.786.172.172,0,0,1,.321-2.94a.419.419,0,0,1,.225-.047H.659v-.018a.07.07,0,0,0-.036-.065.231.231,0,0,0-.11-.021A.565.565,0,0,0,.4-3.079a.368.368,0,0,0-.1.038v-.145C.342-3.2.383-3.2.425-3.21a.853.853,0,0,1,.121-.009.345.345,0,0,1,.234.065.259.259,0,0,1,.071.2Z" transform="translate(-0.25 3.219)"/>
      </g>
      <g id="Group_5" data-name="Group 5" transform="translate(2.82 108.639)">
        <path id="Path_15" data-name="Path 15" d="M.362-4.031v.169h.2v.136h-.2v.252a.077.077,0,0,0,.015.056A.1.1,0,0,0,.442-3.4h.1v.136H.377a.218.218,0,0,1-.16-.047.229.229,0,0,1-.044-.16v-.252H.078v-.136H.173v-.169Z" transform="translate(-0.078 4.031)"/>
      </g>
      <g id="Group_6" data-name="Group 6" transform="translate(3.373 108.793)">
        <path id="Path_16" data-name="Path 16" d="M.887-2.908v.053H.442a.162.162,0,0,0,.047.1.184.184,0,0,0,.118.033A.442.442,0,0,0,.73-2.736a.6.6,0,0,0,.13-.056v.148a.787.787,0,0,1-.136.036.65.65,0,0,1-.133.015.363.363,0,0,1-.252-.08A.3.3,0,0,1,.25-2.9a.3.3,0,0,1,.086-.228.335.335,0,0,1,.243-.086A.3.3,0,0,1,.8-3.133a.3.3,0,0,1,.086.225Zm-.2-.062a.118.118,0,0,0-.033-.086.1.1,0,0,0-.08-.036.131.131,0,0,0-.092.033.143.143,0,0,0-.041.089Z" transform="translate(-0.25 3.219)"/>
      </g>
      <g id="Group_7" data-name="Group 7" transform="translate(4.11 108.577)">
        <path id="Path_17" data-name="Path 17" d="M.7-4.04v-.32H.89v.826H.7v-.086a.244.244,0,0,1-.086.077.246.246,0,0,1-.11.024A.223.223,0,0,1,.321-3.6.348.348,0,0,1,.25-3.829a.343.343,0,0,1,.071-.225A.221.221,0,0,1,.5-4.143a.22.22,0,0,1,.11.027A.252.252,0,0,1,.7-4.04Zm-.124.385A.1.1,0,0,0,.665-3.7.227.227,0,0,0,.7-3.829a.221.221,0,0,0-.033-.13A.1.1,0,0,0,.573-4a.106.106,0,0,0-.092.044.216.216,0,0,0-.033.13.222.222,0,0,0,.033.13A.106.106,0,0,0,.573-3.655Z" transform="translate(-0.25 4.359)"/>
      </g>
      <g id="Group_8" data-name="Group 8" transform="translate(5.312 108.577)">
        <path id="Path_18" data-name="Path 18" d="M.8-3.655A.108.108,0,0,0,.893-3.7a.227.227,0,0,0,.033-.13.221.221,0,0,0-.033-.13A.108.108,0,0,0,.8-4a.11.11,0,0,0-.095.044.216.216,0,0,0-.033.13.222.222,0,0,0,.033.13A.11.11,0,0,0,.8-3.655ZM.674-4.04A.239.239,0,0,1,.76-4.117a.218.218,0,0,1,.11-.027.217.217,0,0,1,.181.089.343.343,0,0,1,.071.225A.348.348,0,0,1,1.05-3.6a.219.219,0,0,1-.181.086.244.244,0,0,1-.11-.024.232.232,0,0,1-.086-.077v.086H.484v-.826h.19Z" transform="translate(-0.484 4.359)"/>
      </g>
      <g id="Group_9" data-name="Group 9" transform="translate(6.011 108.808)">
        <path id="Path_19" data-name="Path 19" d="M.063-3.141H.255l.16.4.133-.4H.741l-.252.652A.322.322,0,0,1,.4-2.35a.205.205,0,0,1-.13.038H.16v-.124H.219a.124.124,0,0,0,.068-.015.1.1,0,0,0,.036-.056l.006-.015Z" transform="translate(-0.063 3.141)"/>
      </g>
      <g id="Group_10" data-name="Group 10" transform="translate(7.092 108.609)">
        <path id="Path_20" data-name="Path 20" d="M.606-3.539H.286l-.05.145h-.2l.293-.794H.567l.293.794h-.2Zm-.27-.145H.555L.446-4Z" transform="translate(-0.031 4.188)"/>
      </g>
      <g id="Group_11" data-name="Group 11" transform="translate(8.017 108.793)">
        <path id="Path_21" data-name="Path 21" d="M1.023-3.1a.257.257,0,0,1,.086-.086.215.215,0,0,1,.11-.03.19.19,0,0,1,.154.065.276.276,0,0,1,.053.184v.361h-.19v-.346a.166.166,0,0,0-.018-.089.065.065,0,0,0-.059-.03.1.1,0,0,0-.086.044.265.265,0,0,0-.03.127v.293H.854V-2.92a.269.269,0,0,0-.018-.124.065.065,0,0,0-.059-.03.1.1,0,0,0-.086.044.228.228,0,0,0-.03.127v.293H.469v-.6H.661v.089a.271.271,0,0,1,.08-.077.191.191,0,0,1,.1-.027.191.191,0,0,1,.11.033.19.19,0,0,1,.071.083Z" transform="translate(-0.469 3.219)"/>
      </g>
      <g id="Group_12" data-name="Group 12" transform="translate(9.108 108.793)">
        <path id="Path_22" data-name="Path 22" d="M.887-2.908v.053H.442a.162.162,0,0,0,.047.1.184.184,0,0,0,.118.033A.442.442,0,0,0,.73-2.736a.6.6,0,0,0,.13-.056v.148a.787.787,0,0,1-.136.036.65.65,0,0,1-.133.015.363.363,0,0,1-.252-.08A.3.3,0,0,1,.25-2.9a.3.3,0,0,1,.086-.228.335.335,0,0,1,.243-.086A.3.3,0,0,1,.8-3.133a.3.3,0,0,1,.086.225Zm-.2-.062a.118.118,0,0,0-.033-.086.1.1,0,0,0-.08-.036.131.131,0,0,0-.092.033.143.143,0,0,0-.041.089Z" transform="translate(-0.25 3.219)"/>
      </g>
      <g id="Group_13" data-name="Group 13" transform="translate(9.813 108.639)">
        <path id="Path_23" data-name="Path 23" d="M.362-4.031v.169h.2v.136h-.2v.252a.077.077,0,0,0,.015.056A.1.1,0,0,0,.442-3.4h.1v.136H.377a.218.218,0,0,1-.16-.047.229.229,0,0,1-.044-.16v-.252H.078v-.136H.173v-.169Z" transform="translate(-0.078 4.031)"/>
      </g>
      <g id="Group_14" data-name="Group 14" transform="translate(10.41 108.577)">
        <path id="Path_24" data-name="Path 24" d="M1.083-3.894v.361H.89v-.275c0-.053,0-.089,0-.107A.119.119,0,0,0,.875-3.96a.077.077,0,0,0-.033-.027A.078.078,0,0,0,.8-4a.113.113,0,0,0-.095.047.2.2,0,0,0-.033.124v.293H.484v-.826h.19v.32a.266.266,0,0,1,.089-.077.228.228,0,0,1,.11-.027.193.193,0,0,1,.157.065.276.276,0,0,1,.053.184Z" transform="translate(-0.484 4.359)"/>
      </g>
      <g id="Group_15" data-name="Group 15" transform="translate(11.105 108.808)">
        <path id="Path_25" data-name="Path 25" d="M.063-3.141H.255l.16.4.133-.4H.741l-.252.652A.322.322,0,0,1,.4-2.35a.205.205,0,0,1-.13.038H.16v-.124H.219a.124.124,0,0,0,.068-.015.1.1,0,0,0,.036-.056l.006-.015Z" transform="translate(-0.063 3.141)"/>
      </g>
      <g id="Group_16" data-name="Group 16" transform="translate(11.857 108.793)">
        <path id="Path_26" data-name="Path 26" d="M.8-3.183v.142a.877.877,0,0,0-.118-.036.434.434,0,0,0-.107-.015.18.18,0,0,0-.083.015.042.042,0,0,0-.024.041A.044.044,0,0,0,.483-3a.186.186,0,0,0,.071.018l.036,0a.433.433,0,0,1,.2.062.165.165,0,0,1,.05.133.158.158,0,0,1-.071.142.365.365,0,0,1-.207.047A.911.911,0,0,1,.433-2.6a1.028,1.028,0,0,1-.127-.027v-.145a.581.581,0,0,0,.115.041.5.5,0,0,0,.121.015.173.173,0,0,0,.083-.015.054.054,0,0,0,.03-.047.042.042,0,0,0-.021-.038A.21.21,0,0,0,.56-2.837L.525-2.843A.344.344,0,0,1,.347-2.9.167.167,0,0,1,.3-3.032a.156.156,0,0,1,.065-.139.341.341,0,0,1,.2-.047.7.7,0,0,1,.11.009A1.272,1.272,0,0,1,.8-3.183Z" transform="translate(-0.297 3.219)"/>
      </g>
      <g id="Group_17" data-name="Group 17" transform="translate(12.464 108.639)">
        <path id="Path_27" data-name="Path 27" d="M.362-4.031v.169h.2v.136h-.2v.252a.077.077,0,0,0,.015.056A.1.1,0,0,0,.442-3.4h.1v.136H.377a.218.218,0,0,1-.16-.047.229.229,0,0,1-.044-.16v-.252H.078v-.136H.173v-.169Z" transform="translate(-0.078 4.031)"/>
      </g>
      <g id="Group_18" data-name="Group 18" transform="translate(13.424 108.598)">
        <path id="Path_28" data-name="Path 28" d="M.981-4.212v.169a.793.793,0,0,0-.127-.044A.529.529,0,0,0,.735-4.1a.222.222,0,0,0-.107.021.064.064,0,0,0-.036.062.055.055,0,0,0,.024.047A.243.243,0,0,0,.7-3.939l.086.018a.366.366,0,0,1,.187.08.2.2,0,0,1,.056.154.241.241,0,0,1-.077.2.374.374,0,0,1-.237.062.815.815,0,0,1-.151-.015.635.635,0,0,1-.151-.041v-.172A.74.74,0,0,0,.56-3.6.476.476,0,0,0,.7-3.578.207.207,0,0,0,.8-3.6a.073.073,0,0,0,.036-.065A.072.072,0,0,0,.812-3.72a.25.25,0,0,0-.1-.036L.637-3.773A.349.349,0,0,1,.46-3.856.205.205,0,0,1,.406-4a.218.218,0,0,1,.077-.181A.332.332,0,0,1,.7-4.25a1.042,1.042,0,0,1,.133.009,1.075,1.075,0,0,1,.145.03Z" transform="translate(-0.406 4.25)"/>
      </g>
      <g id="Group_19" data-name="Group 19" transform="translate(14.145 108.639)">
        <path id="Path_29" data-name="Path 29" d="M.362-4.031v.169h.2v.136h-.2v.252a.077.077,0,0,0,.015.056A.1.1,0,0,0,.442-3.4h.1v.136H.377a.218.218,0,0,1-.16-.047.229.229,0,0,1-.044-.16v-.252H.078v-.136H.173v-.169Z" transform="translate(-0.078 4.031)"/>
      </g>
      <g id="Group_20" data-name="Group 20" transform="translate(14.736 108.808)">
        <path id="Path_30" data-name="Path 30" d="M.453-2.776v-.364h.19v.278c0,.047,0,.082,0,.1a.106.106,0,0,0,.012.047.094.094,0,0,0,.03.03.108.108,0,0,0,.044.009.108.108,0,0,0,.092-.044.211.211,0,0,0,.036-.13v-.293h.19v.6H.859v-.086a.259.259,0,0,1-.092.077.234.234,0,0,1-.1.024.2.2,0,0,1-.157-.062.274.274,0,0,1-.053-.184Z" transform="translate(-0.453 3.141)"/>
      </g>
      <g id="Group_21" data-name="Group 21" transform="translate(15.472 108.577)">
        <path id="Path_31" data-name="Path 31" d="M.7-4.04v-.32H.89v.826H.7v-.086a.244.244,0,0,1-.086.077.246.246,0,0,1-.11.024A.223.223,0,0,1,.321-3.6.348.348,0,0,1,.25-3.829a.343.343,0,0,1,.071-.225A.221.221,0,0,1,.5-4.143a.22.22,0,0,1,.11.027A.252.252,0,0,1,.7-4.04Zm-.124.385A.1.1,0,0,0,.665-3.7.227.227,0,0,0,.7-3.829a.221.221,0,0,0-.033-.13A.1.1,0,0,0,.573-4a.106.106,0,0,0-.092.044.216.216,0,0,0-.033.13.222.222,0,0,0,.033.13A.106.106,0,0,0,.573-3.655Z" transform="translate(-0.25 4.359)"/>
      </g>
      <g id="Group_22" data-name="Group 22" transform="translate(16.295 108.577)">
        <path id="Path_32" data-name="Path 32" d="M.484-4.128h.19v.6H.484Zm0-.231h.19v.154H.484Z" transform="translate(-0.484 4.359)"/>
      </g>
      <g id="Group_23" data-name="Group 23" transform="translate(16.623 108.793)">
        <path id="Path_33" data-name="Path 33" d="M.576-3.083a.109.109,0,0,0-.095.047.216.216,0,0,0-.033.13.214.214,0,0,0,.033.13.11.11,0,0,0,.095.044.111.111,0,0,0,.095-.044A.2.2,0,0,0,.706-2.9a.205.205,0,0,0-.036-.13A.11.11,0,0,0,.576-3.083Zm0-.136a.335.335,0,0,1,.24.083A.308.308,0,0,1,.9-2.9a.3.3,0,0,1-.086.228.332.332,0,0,1-.24.083.329.329,0,0,1-.24-.083A.3.3,0,0,1,.25-2.9a.305.305,0,0,1,.086-.231.332.332,0,0,1,.24-.083Z" transform="translate(-0.25 3.219)"/>
      </g>
      <g id="Group_24" data-name="Group 24" transform="translate(0.02 109.664)">
        <path id="Path_34" data-name="Path 34" d="M.571-4.359v.124H.465a.088.088,0,0,0-.056.015.068.068,0,0,0-.015.05v.041H.557v.136H.394v.459H.2v-.459H.109v-.136H.2V-4.17a.181.181,0,0,1,.053-.142.253.253,0,0,1,.169-.047Z" transform="translate(-0.109 4.359)"/>
      </g>
      <g id="Group_25" data-name="Group 25" transform="translate(0.565 109.88)">
        <path id="Path_35" data-name="Path 35" d="M.926-3.041a.462.462,0,0,0-.05-.018.223.223,0,0,0-.05-.006.143.143,0,0,0-.113.047.21.21,0,0,0-.038.136v.272H.484v-.6h.19v.1a.24.24,0,0,1,.083-.083.216.216,0,0,1,.115-.03l.021,0,.033,0Z" transform="translate(-0.484 3.219)"/>
      </g>
      <g id="Group_26" data-name="Group 26" transform="translate(1.057 109.88)">
        <path id="Path_36" data-name="Path 36" d="M.576-3.083a.109.109,0,0,0-.095.047.216.216,0,0,0-.033.13.214.214,0,0,0,.033.13.11.11,0,0,0,.095.044.111.111,0,0,0,.095-.044A.2.2,0,0,0,.706-2.9a.205.205,0,0,0-.036-.13A.11.11,0,0,0,.576-3.083Zm0-.136a.335.335,0,0,1,.24.083A.308.308,0,0,1,.9-2.9a.3.3,0,0,1-.086.228.332.332,0,0,1-.24.083.329.329,0,0,1-.24-.083A.3.3,0,0,1,.25-2.9a.305.305,0,0,1,.086-.231.332.332,0,0,1,.24-.083Z" transform="translate(-0.25 3.219)"/>
      </g>
      <g id="Group_27" data-name="Group 27" transform="translate(1.845 109.88)">
        <path id="Path_37" data-name="Path 37" d="M1.023-3.1a.257.257,0,0,1,.086-.086.215.215,0,0,1,.11-.03.19.19,0,0,1,.154.065.276.276,0,0,1,.053.184v.361h-.19v-.346a.166.166,0,0,0-.018-.089.065.065,0,0,0-.059-.03.1.1,0,0,0-.086.044.265.265,0,0,0-.03.127v.293H.854V-2.92a.269.269,0,0,0-.018-.124.065.065,0,0,0-.059-.03.1.1,0,0,0-.086.044.228.228,0,0,0-.03.127v.293H.469v-.6H.661v.089a.271.271,0,0,1,.08-.077.191.191,0,0,1,.1-.027.191.191,0,0,1,.11.033.19.19,0,0,1,.071.083Z" transform="translate(-0.469 3.219)"/>
      </g>
      <g id="Group_28" data-name="Group 28" transform="translate(3.283 109.726)">
        <path id="Path_38" data-name="Path 38" d="M.362-4.031v.169h.2v.136h-.2v.252a.077.077,0,0,0,.015.056A.1.1,0,0,0,.442-3.4h.1v.136H.377a.218.218,0,0,1-.16-.047.229.229,0,0,1-.044-.16v-.252H.078v-.136H.173v-.169Z" transform="translate(-0.078 4.031)"/>
      </g>
      <g id="Group_29" data-name="Group 29" transform="translate(3.88 109.664)">
        <path id="Path_39" data-name="Path 39" d="M1.083-3.894v.361H.89v-.275c0-.053,0-.089,0-.107A.119.119,0,0,0,.875-3.96a.077.077,0,0,0-.033-.027A.078.078,0,0,0,.8-4a.113.113,0,0,0-.095.047.2.2,0,0,0-.033.124v.293H.484v-.826h.19v.32a.266.266,0,0,1,.089-.077.228.228,0,0,1,.11-.027.193.193,0,0,1,.157.065.276.276,0,0,1,.053.184Z" transform="translate(-0.484 4.359)"/>
      </g>
      <g id="Group_30" data-name="Group 30" transform="translate(4.609 109.88)">
        <path id="Path_40" data-name="Path 40" d="M.887-2.908v.053H.442a.162.162,0,0,0,.047.1.184.184,0,0,0,.118.033A.442.442,0,0,0,.73-2.736a.6.6,0,0,0,.13-.056v.148a.787.787,0,0,1-.136.036.65.65,0,0,1-.133.015.363.363,0,0,1-.252-.08A.3.3,0,0,1,.25-2.9a.3.3,0,0,1,.086-.228.335.335,0,0,1,.243-.086A.3.3,0,0,1,.8-3.133a.3.3,0,0,1,.086.225Zm-.2-.062a.118.118,0,0,0-.033-.086.1.1,0,0,0-.08-.036.131.131,0,0,0-.092.033.143.143,0,0,0-.041.089Z" transform="translate(-0.25 3.219)"/>
      </g>
      <g id="Group_31" data-name="Group 31" transform="translate(5.779 109.696)">
        <path id="Path_41" data-name="Path 41" d="M.531-4.187H.759l.287.545v-.545h.192v.794H1.011L.724-3.939v.545H.531Z" transform="translate(-0.531 4.188)"/>
      </g>
      <g id="Group_32" data-name="Group 32" transform="translate(6.636 109.88)">
        <path id="Path_42" data-name="Path 42" d="M.576-3.083a.109.109,0,0,0-.095.047.216.216,0,0,0-.033.13.214.214,0,0,0,.033.13.11.11,0,0,0,.095.044.111.111,0,0,0,.095-.044A.2.2,0,0,0,.706-2.9a.205.205,0,0,0-.036-.13A.11.11,0,0,0,.576-3.083Zm0-.136a.335.335,0,0,1,.24.083A.308.308,0,0,1,.9-2.9a.3.3,0,0,1-.086.228.332.332,0,0,1-.24.083.329.329,0,0,1-.24-.083A.3.3,0,0,1,.25-2.9a.305.305,0,0,1,.086-.231.332.332,0,0,1,.24-.083Z" transform="translate(-0.25 3.219)"/>
      </g>
      <g id="Group_33" data-name="Group 33" transform="translate(7.421 109.895)">
        <path id="Path_43" data-name="Path 43" d="M.453-2.776v-.364h.19v.278c0,.047,0,.082,0,.1a.106.106,0,0,0,.012.047.094.094,0,0,0,.03.03.108.108,0,0,0,.044.009.108.108,0,0,0,.092-.044.211.211,0,0,0,.036-.13v-.293h.19v.6H.859v-.086a.259.259,0,0,1-.092.077.234.234,0,0,1-.1.024.2.2,0,0,1-.157-.062.274.274,0,0,1-.053-.184Z" transform="translate(-0.453 3.141)"/>
      </g>
      <g id="Group_34" data-name="Group 34" transform="translate(8.201 109.88)">
        <path id="Path_44" data-name="Path 44" d="M1.083-2.97v.361H.89v-.278c0-.051,0-.086,0-.1a.119.119,0,0,0-.012-.044.077.077,0,0,0-.033-.027A.078.078,0,0,0,.8-3.074a.113.113,0,0,0-.095.047A.2.2,0,0,0,.674-2.9v.293H.484v-.6h.19v.089a.266.266,0,0,1,.089-.077.228.228,0,0,1,.11-.027.193.193,0,0,1,.157.065.276.276,0,0,1,.053.184Z" transform="translate(-0.484 3.219)"/>
      </g>
      <g id="Group_35" data-name="Group 35" transform="translate(9.363 109.696)">
        <path id="Path_45" data-name="Path 45" d="M.531-4.187H.869a.348.348,0,0,1,.231.068.237.237,0,0,1,.083.192.236.236,0,0,1-.083.192.356.356,0,0,1-.231.065H.736v.275h-.2Zm.2.148v.222H.848A.143.143,0,0,0,.94-3.844a.107.107,0,0,0,.033-.083A.108.108,0,0,0,.94-4.01a.135.135,0,0,0-.092-.03Z" transform="translate(-0.531 4.188)"/>
      </g>
      <g id="Group_36" data-name="Group 36" transform="translate(10.152 109.88)">
        <path id="Path_46" data-name="Path 46" d="M.926-3.041a.462.462,0,0,0-.05-.018.223.223,0,0,0-.05-.006.143.143,0,0,0-.113.047.21.21,0,0,0-.038.136v.272H.484v-.6h.19v.1a.24.24,0,0,1,.083-.083.216.216,0,0,1,.115-.03l.021,0,.033,0Z" transform="translate(-0.484 3.219)"/>
      </g>
      <g id="Group_37" data-name="Group 37" transform="translate(10.643 109.88)">
        <path id="Path_47" data-name="Path 47" d="M.576-3.083a.109.109,0,0,0-.095.047.216.216,0,0,0-.033.13.214.214,0,0,0,.033.13.11.11,0,0,0,.095.044.111.111,0,0,0,.095-.044A.2.2,0,0,0,.706-2.9a.205.205,0,0,0-.036-.13A.11.11,0,0,0,.576-3.083Zm0-.136a.335.335,0,0,1,.24.083A.308.308,0,0,1,.9-2.9a.3.3,0,0,1-.086.228.332.332,0,0,1-.24.083.329.329,0,0,1-.24-.083A.3.3,0,0,1,.25-2.9a.305.305,0,0,1,.086-.231.332.332,0,0,1,.24-.083Z" transform="translate(-0.25 3.219)"/>
      </g>
      <g id="Group_38" data-name="Group 38" transform="translate(11.307 109.664)">
        <path id="Path_48" data-name="Path 48" d="M-.06-4.128h.19v.583a.258.258,0,0,1-.059.184A.209.209,0,0,1-.093-3.3H-.187v-.124h.033a.1.1,0,0,0,.074-.024.164.164,0,0,0,.021-.1Zm0-.231h.19v.154H-.06Z" transform="translate(0.188 4.359)"/>
      </g>
      <g id="Group_39" data-name="Group 39" transform="translate(11.764 109.88)">
        <path id="Path_49" data-name="Path 49" d="M.887-2.908v.053H.442a.162.162,0,0,0,.047.1.184.184,0,0,0,.118.033A.442.442,0,0,0,.73-2.736a.6.6,0,0,0,.13-.056v.148a.787.787,0,0,1-.136.036.65.65,0,0,1-.133.015.363.363,0,0,1-.252-.08A.3.3,0,0,1,.25-2.9a.3.3,0,0,1,.086-.228.335.335,0,0,1,.243-.086A.3.3,0,0,1,.8-3.133a.3.3,0,0,1,.086.225Zm-.2-.062a.118.118,0,0,0-.033-.086.1.1,0,0,0-.08-.036.131.131,0,0,0-.092.033.143.143,0,0,0-.041.089Z" transform="translate(-0.25 3.219)"/>
      </g>
      <g id="Group_40" data-name="Group 40" transform="translate(12.501 109.88)">
        <path id="Path_50" data-name="Path 50" d="M.774-3.183v.154A.3.3,0,0,0,.7-3.068a.235.235,0,0,0-.083-.015.159.159,0,0,0-.121.047.184.184,0,0,0-.044.13.182.182,0,0,0,.044.13.163.163,0,0,0,.121.044A.3.3,0,0,0,.7-2.742.281.281,0,0,0,.774-2.78v.154A.4.4,0,0,1,.682-2.6a.471.471,0,0,1-.092.009.36.36,0,0,1-.252-.083A.3.3,0,0,1,.25-2.9a.3.3,0,0,1,.089-.231.363.363,0,0,1,.252-.083.471.471,0,0,1,.092.009.5.5,0,0,1,.092.027Z" transform="translate(-0.25 3.219)"/>
      </g>
      <g id="Group_41" data-name="Group 41" transform="translate(13.113 109.726)">
        <path id="Path_51" data-name="Path 51" d="M.362-4.031v.169h.2v.136h-.2v.252a.077.077,0,0,0,.015.056A.1.1,0,0,0,.442-3.4h.1v.136H.377a.218.218,0,0,1-.16-.047.229.229,0,0,1-.044-.16v-.252H.078v-.136H.173v-.169Z" transform="translate(-0.078 4.031)"/>
      </g>
    </g>
  </g>
</svg>
