<svg xmlns="http://www.w3.org/2000/svg" xmlns:xlink="http://www.w3.org/1999/xlink" width="102" height="107" viewBox="0 0 102 107">
  <defs>
    <clipPath id="clip-path">
      <rect id="Rectangle_2" data-name="Rectangle 2" width="102" height="107" transform="translate(880 120.319)" fill="#fff" stroke="#707070" stroke-width="1"/>
    </clipPath>
  </defs>
  <g id="Mask_Group_2" data-name="Mask Group 2" transform="translate(-880 -120.319)" clip-path="url(#clip-path)">
    <g id="noun-health-report-4300255" transform="translate(872.984 120.163)">
      <path id="Path_52" data-name="Path 52" d="M460.589,406.821l-.015,6.928H466.3l.015-6.916a1.042,1.042,0,0,1,1.042-1.041l6.928.013v-5.738h-6.911a1.043,1.043,0,0,1-1.042-1.044l.013-6.911H460.6l-.013,6.9a1.042,1.042,0,0,1-1.042,1.039h-6.915v5.714l6.916.013a1.043,1.043,0,0,1,1.041,1.044Z" transform="translate(-373.022 -315.37)" fill="#008278"/>
      <path id="Path_53" data-name="Path 53" d="M148.4,315.269h14.031V301.275H148.4Zm1.948-7.887a1.043,1.043,0,0,1,1.475,0l2.248,2.253,4.935-4.937a1.043,1.043,0,0,1,1.474,1.475l-5.67,5.67a1.039,1.039,0,0,1-1.475,0l-2.99-2.989a1.044,1.044,0,0,1,0-1.473Z" transform="translate(-132.215 -243.47)" fill="#008278"/>
      <path id="Path_54" data-name="Path 54" d="M148.4,433.656h14.031V419.661H148.4Zm1.948-7.887a1.043,1.043,0,0,1,1.475,0l2.248,2.253,4.935-4.937h0a1.043,1.043,0,0,1,1.474,1.475l-5.67,5.67a1.043,1.043,0,0,1-1.475,0l-2.99-2.992a1.042,1.042,0,0,1,0-1.469Z" transform="translate(-132.215 -337.176)" fill="#008278"/>
      <path id="Path_55" data-name="Path 55" d="M417.9,371.742a19.111,19.111,0,0,0-.314,3.393,16.6,16.6,0,0,0,.1,1.81,18.08,18.08,0,1,0,.216-5.2Zm5.951-1.563h6.916l.013-6.9h0a1.042,1.042,0,0,1,1.042-1.039h7.827a1.037,1.037,0,0,1,1.042,1.044l-.013,6.911h6.911a1.043,1.043,0,0,1,1.042,1.042v7.827a1.045,1.045,0,0,1-1.042,1.042l-6.929-.013-.015,6.913h0a1.042,1.042,0,0,1-1.042,1.041H431.79A1.046,1.046,0,0,1,430.748,387l.013-6.929-6.917-.013a1.041,1.041,0,0,1-1.041-1.042v-7.8a1.042,1.042,0,0,1,1.041-1.042Z" transform="translate(-345.283 -287.583)" fill="#008278"/>
      <path id="Path_56" data-name="Path 56" d="M216.566,80.669a1.017,1.017,0,0,1,1.041-.678,1.039,1.039,0,0,1,.95.8l4.188,17.567,5.7-12.89h0a1.042,1.042,0,0,1,1.945.1l2.335,7.158h10.767a20.405,20.405,0,0,0,.834-3.054,14.416,14.416,0,0,0-2.885-11.619,12.6,12.6,0,0,0-9.429-4.836,13.155,13.155,0,0,0-8.916,2.97,1.045,1.045,0,0,1-1.327,0,13.163,13.163,0,0,0-8.36-2.984q-.27,0-.541.01a12.6,12.6,0,0,0-9.426,4.837,14.42,14.42,0,0,0-2.885,11.619,20.423,20.423,0,0,0,.834,3.054h10.7Z" transform="translate(-173.307 -62.943)" fill="#008278"/>
      <path id="Path_57" data-name="Path 57" d="M170.876,113.582a18.618,18.618,0,0,1-.107-2.021,21.106,21.106,0,0,1,.35-3.774,20.25,20.25,0,0,1,19.861-16.438v-62.1A5.245,5.245,0,0,0,185.726,24H113.65a5.245,5.245,0,0,0-5.257,5.252v96.232a5.258,5.258,0,0,0,5.257,5.255h70.944a20.109,20.109,0,0,1-13.72-17.159Zm.242-18.217H139.081a1.042,1.042,0,1,1,0-2.085h32.036a1.042,1.042,0,1,1,0,2.085Zm-6.687,13.643H139.08a1.042,1.042,0,1,1,0-2.085h25.351a1.042,1.042,0,0,1,0,2.085Zm1.042,4.477h0a1.043,1.043,0,0,1-1.042,1.042H139.08a1.042,1.042,0,1,1,0-2.085h25.351a1.041,1.041,0,0,1,1.042,1.042Zm18.215-23.639H139.081a1.042,1.042,0,1,1,0-2.085H183.7a1.042,1.042,0,1,1,0,2.085Zm1.042-6.563a1.04,1.04,0,0,1-1.042,1.042H139.081a1.042,1.042,0,1,1,0-2.085H183.7a1.043,1.043,0,0,1,1.037,1.042Zm-51.887,38.241a1.043,1.043,0,0,1-1.042,1.042H115.685a1.042,1.042,0,0,1-1.042-1.042V105.443a1.042,1.042,0,0,1,1.042-1.042H131.8a1.043,1.043,0,0,1,1.042,1.042Zm0-24.683h0a1.043,1.043,0,0,1-1.042,1.042H115.685a1.042,1.042,0,0,1-1.042-1.042V80.763a1.042,1.042,0,0,1,1.042-1.042H131.8a1.043,1.043,0,0,1,1.042,1.042Zm-5.67-40.976h-5a1.042,1.042,0,1,1,0-2.085h4.261a22.307,22.307,0,0,1-.678-2.678,16.5,16.5,0,0,1,3.305-13.3,14.66,14.66,0,0,1,10.973-5.622,15.308,15.308,0,0,1,9.652,2.929,15.264,15.264,0,0,1,9.665-2.929A14.656,14.656,0,0,1,170.323,37.8a16.512,16.512,0,0,1,3.307,13.3,22.633,22.633,0,0,1-.679,2.678h4.261a1.042,1.042,0,1,1,0,2.085h-5c-4.254,10.3-15.085,17.873-20.03,20.906a4.759,4.759,0,0,1-4.965,0c-4.952-3.029-15.785-10.606-20.037-20.9Zm42.2,64.179H139.08a1.042,1.042,0,1,1,0-2.085h30.285a1.042,1.042,0,1,1,0,2.085Z" transform="translate(-100.548 -24)" fill="#008278"/>
      <path id="Path_58" data-name="Path 58" d="M231.143,157.318c3.629-2.227,14.372-9.455,18.82-19.132H239.28a1.04,1.04,0,0,1-.99-.719l-1.728-5.295L230.708,145.4h0a1.044,1.044,0,0,1-.952.621h-.1a1.042,1.042,0,0,1-.917-.8L224.633,128l-3.521,9.507h0a1.037,1.037,0,0,1-.976.68H209.546c4.45,9.673,15.19,16.905,18.817,19.13a2.669,2.669,0,0,0,2.78,0Z" transform="translate(-180.614 -106.321)" fill="#008278"/>
      <g id="Group_42" data-name="Group 42" transform="translate(0.257 130.57)">
        <path id="Path_59" data-name="Path 59" d="M7.17-23.834a3.933,3.933,0,0,1-.9.339,4.138,4.138,0,0,1-.977.114,3.344,3.344,0,0,1-2.407-.847A3.039,3.039,0,0,1,2-26.531a3.039,3.039,0,0,1,.886-2.306,3.338,3.338,0,0,1,2.407-.85,4.138,4.138,0,0,1,.977.114,3.971,3.971,0,0,1,.9.339v1.257a3.439,3.439,0,0,0-.86-.433,2.831,2.831,0,0,0-.889-.14,1.686,1.686,0,0,0-1.323.537,2.15,2.15,0,0,0-.479,1.482A2.139,2.139,0,0,0,4.1-25.055a1.685,1.685,0,0,0,1.323.537,2.877,2.877,0,0,0,.889-.137,3.483,3.483,0,0,0,.86-.437Z" transform="translate(-2 29.687)"/>
      </g>
      <g id="Group_43" data-name="Group 43" transform="translate(6.661 132.088)">
        <path id="Path_60" data-name="Path 60" d="M6.747-21.055a1.974,1.974,0,0,0-.381-.13,1.637,1.637,0,0,0-.381-.046,1.063,1.063,0,0,0-.863.362,1.566,1.566,0,0,0-.3,1.033v2.1H3.359V-22.3H4.818v.749a1.84,1.84,0,0,1,.645-.655,1.752,1.752,0,0,1,.873-.205c.047,0,.1,0,.156.007s.142.013.251.026Z" transform="translate(-3.359 22.406)"/>
      </g>
      <g id="Group_44" data-name="Group 44" transform="translate(10.431 132.088)">
        <path id="Path_61" data-name="Path 61" d="M6.615-20.028v.417H3.2a1.091,1.091,0,0,0,.371.769,1.378,1.378,0,0,0,.889.257,3.441,3.441,0,0,0,.941-.137,4.837,4.837,0,0,0,.99-.414v1.124a6.094,6.094,0,0,1-1.033.293,5.445,5.445,0,0,1-1.036.1A2.745,2.745,0,0,1,2.4-18.247a2.277,2.277,0,0,1-.684-1.766,2.3,2.3,0,0,1,.674-1.752,2.579,2.579,0,0,1,1.853-.642,2.32,2.32,0,0,1,1.72.648,2.341,2.341,0,0,1,.648,1.73Zm-1.5-.485a.924.924,0,0,0-.244-.668.832.832,0,0,0-.632-.254,1,1,0,0,0-.691.238,1.1,1.1,0,0,0-.329.684Z" transform="translate(-1.719 22.406)"/>
      </g>
      <g id="Group_45" data-name="Group 45" transform="translate(16.087 132.088)">
        <path id="Path_62" data-name="Path 62" d="M4.107-19.788a1.231,1.231,0,0,0-.687.156.508.508,0,0,0-.231.453.544.544,0,0,0,.186.437.774.774,0,0,0,.515.156.917.917,0,0,0,.694-.3,1.034,1.034,0,0,0,.28-.739v-.166Zm2.225-.55v2.6H4.862v-.678a1.853,1.853,0,0,1-.661.606,1.924,1.924,0,0,1-.889.189,1.619,1.619,0,0,1-1.153-.414,1.4,1.4,0,0,1-.44-1.072,1.321,1.321,0,0,1,.55-1.176A3.151,3.151,0,0,1,4-20.654h.86v-.114a.545.545,0,0,0-.274-.508,1.742,1.742,0,0,0-.85-.16,3.841,3.841,0,0,0-.873.094,2.9,2.9,0,0,0-.746.28v-1.114a8.221,8.221,0,0,1,.938-.173A7.651,7.651,0,0,1,4-22.407a2.645,2.645,0,0,1,1.782.489,2.016,2.016,0,0,1,.547,1.58Z" transform="translate(-1.719 22.407)"/>
      </g>
      <g id="Group_46" data-name="Group 46" transform="translate(21.466 130.902)">
        <path id="Path_63" data-name="Path 63" d="M2.714-28.094v1.3h1.5v1.042h-1.5v1.935a.574.574,0,0,0,.124.43.8.8,0,0,0,.5.111h.749v1.042H2.841A1.7,1.7,0,0,1,1.616-22.6a1.7,1.7,0,0,1-.362-1.225v-1.935H.531V-26.8h.723v-1.3Z" transform="translate(-0.531 28.094)"/>
      </g>
      <g id="Group_47" data-name="Group 47" transform="translate(25.7 132.088)">
        <path id="Path_64" data-name="Path 64" d="M6.615-20.028v.417H3.2a1.091,1.091,0,0,0,.371.769,1.378,1.378,0,0,0,.889.257,3.441,3.441,0,0,0,.941-.137,4.837,4.837,0,0,0,.99-.414v1.124a6.094,6.094,0,0,1-1.033.293,5.445,5.445,0,0,1-1.036.1A2.745,2.745,0,0,1,2.4-18.247a2.277,2.277,0,0,1-.684-1.766,2.3,2.3,0,0,1,.674-1.752,2.579,2.579,0,0,1,1.853-.642,2.32,2.32,0,0,1,1.72.648,2.341,2.341,0,0,1,.648,1.73Zm-1.5-.485a.924.924,0,0,0-.244-.668.832.832,0,0,0-.632-.254,1,1,0,0,0-.691.238,1.1,1.1,0,0,0-.329.684Z" transform="translate(-1.719 22.406)"/>
      </g>
      <g id="Group_48" data-name="Group 48" transform="translate(31.372 130.424)">
        <path id="Path_65" data-name="Path 65" d="M5.227-27.948v-2.443H6.693v6.336H5.227v-.661a2,2,0,0,1-.665.593,1.815,1.815,0,0,1-.84.186,1.708,1.708,0,0,1-1.384-.668A2.663,2.663,0,0,1,1.8-26.332a2.65,2.65,0,0,1,.541-1.723,1.706,1.706,0,0,1,1.384-.671,1.8,1.8,0,0,1,.837.189,2.015,2.015,0,0,1,.668.59ZM4.266-25a.827.827,0,0,0,.713-.342,1.684,1.684,0,0,0,.248-.994,1.686,1.686,0,0,0-.248-.994.827.827,0,0,0-.713-.342.825.825,0,0,0-.713.342,1.7,1.7,0,0,0-.244.994,1.7,1.7,0,0,0,.244.994A.825.825,0,0,0,4.266-25Z" transform="translate(-1.797 30.391)"/>
      </g>
      <g id="Group_49" data-name="Group 49" transform="translate(40.57 130.424)">
        <path id="Path_66" data-name="Path 66" d="M5.786-25a.822.822,0,0,0,.713-.342,1.684,1.684,0,0,0,.248-.994,1.686,1.686,0,0,0-.248-.994.821.821,0,0,0-.713-.342.837.837,0,0,0-.72.345,1.674,1.674,0,0,0-.248.99,1.687,1.687,0,0,0,.248.994A.838.838,0,0,0,5.786-25Zm-.967-2.951a1.975,1.975,0,0,1,.665-.59,1.826,1.826,0,0,1,.844-.189,1.7,1.7,0,0,1,1.384.671,2.643,2.643,0,0,1,.544,1.723,2.655,2.655,0,0,1-.544,1.726,1.7,1.7,0,0,1-1.384.668,1.826,1.826,0,0,1-.844-.189,1.966,1.966,0,0,1-.665-.59v.661H3.359v-6.336H4.819Z" transform="translate(-3.359 30.391)"/>
      </g>
      <g id="Group_50" data-name="Group 50" transform="translate(45.94 132.199)">
        <path id="Path_67" data-name="Path 67" d="M.484-21.875H1.944L3.168-18.78l1.042-3.095H5.67L3.752-16.881a2.451,2.451,0,0,1-.674,1.062,1.588,1.588,0,0,1-1.016.306H1.217v-.958h.456a.953.953,0,0,0,.541-.121.775.775,0,0,0,.264-.42l.039-.127Z" transform="translate(-0.484 21.875)"/>
      </g>
      <g id="Group_51" data-name="Group 51" transform="translate(54.778 130.57)">
        <path id="Path_68" data-name="Path 68" d="M7.273-29.388V-28.1a5.822,5.822,0,0,0-.977-.336,3.884,3.884,0,0,0-.9-.114,1.717,1.717,0,0,0-.834.156.514.514,0,0,0-.267.479.452.452,0,0,0,.179.381,1.8,1.8,0,0,0,.661.231l.668.137a2.868,2.868,0,0,1,1.44.619,1.569,1.569,0,0,1,.427,1.179,1.83,1.83,0,0,1-.6,1.5,2.837,2.837,0,0,1-1.821.489,6.261,6.261,0,0,1-1.163-.111,6.867,6.867,0,0,1-1.163-.326V-25.14a5.827,5.827,0,0,0,1.127.466,3.788,3.788,0,0,0,1.049.156,1.5,1.5,0,0,0,.785-.169.546.546,0,0,0,.274-.489.539.539,0,0,0-.186-.44,1.86,1.86,0,0,0-.739-.277l-.606-.134A2.619,2.619,0,0,1,3.3-26.648a1.579,1.579,0,0,1-.42-1.153,1.717,1.717,0,0,1,.586-1.4,2.565,2.565,0,0,1,1.684-.489,7.367,7.367,0,0,1,1.029.075,9.745,9.745,0,0,1,1.1.225Z" transform="translate(-2.875 29.688)"/>
      </g>
      <g id="Group_52" data-name="Group 52" transform="translate(60.542 132.088)">
        <path id="Path_69" data-name="Path 69" d="M4.231-21.364a.863.863,0,0,0-.739.349,1.687,1.687,0,0,0-.254,1,1.685,1.685,0,0,0,.254,1,.861.861,0,0,0,.739.349.842.842,0,0,0,.73-.349,1.685,1.685,0,0,0,.254-1,1.687,1.687,0,0,0-.254-1A.844.844,0,0,0,4.231-21.364Zm0-1.042a2.549,2.549,0,0,1,1.84.635,2.325,2.325,0,0,1,.661,1.759,2.325,2.325,0,0,1-.661,1.759,2.549,2.549,0,0,1-1.84.635,2.569,2.569,0,0,1-1.847-.635,2.318,2.318,0,0,1-.665-1.759,2.318,2.318,0,0,1,.665-1.759A2.569,2.569,0,0,1,4.231-22.406Z" transform="translate(-1.719 22.406)"/>
      </g>
      <g id="Group_53" data-name="Group 53" transform="translate(66.613 132.088)">
        <path id="Path_70" data-name="Path 70" d="M6.747-21.055a1.974,1.974,0,0,0-.381-.13,1.637,1.637,0,0,0-.381-.046,1.063,1.063,0,0,0-.863.362,1.566,1.566,0,0,0-.3,1.033v2.1H3.359V-22.3H4.818v.749a1.84,1.84,0,0,1,.645-.655,1.752,1.752,0,0,1,.873-.205c.047,0,.1,0,.156.007s.142.013.251.026Z" transform="translate(-3.359 22.406)"/>
      </g>
      <g id="Group_54" data-name="Group 54" transform="translate(70.384 132.088)">
        <path id="Path_71" data-name="Path 71" d="M6.615-20.028v.417H3.2a1.091,1.091,0,0,0,.371.769,1.378,1.378,0,0,0,.889.257,3.441,3.441,0,0,0,.941-.137,4.837,4.837,0,0,0,.99-.414v1.124a6.094,6.094,0,0,1-1.033.293,5.445,5.445,0,0,1-1.036.1A2.745,2.745,0,0,1,2.4-18.247a2.277,2.277,0,0,1-.684-1.766,2.3,2.3,0,0,1,.674-1.752,2.579,2.579,0,0,1,1.853-.642,2.32,2.32,0,0,1,1.72.648,2.341,2.341,0,0,1,.648,1.73Zm-1.5-.485a.924.924,0,0,0-.244-.668.832.832,0,0,0-.632-.254,1,1,0,0,0-.691.238,1.1,1.1,0,0,0-.329.684Z" transform="translate(-1.719 22.406)"/>
      </g>
      <g id="Group_55" data-name="Group 55" transform="translate(76.375 132.088)">
        <path id="Path_72" data-name="Path 72" d="M7.563-21.54a1.991,1.991,0,0,1,.655-.645,1.637,1.637,0,0,1,.837-.222,1.483,1.483,0,0,1,1.2.485,2.127,2.127,0,0,1,.41,1.407v2.779H9.2v-2.378c0-.034,0-.07.007-.107s0-.094,0-.166a1.306,1.306,0,0,0-.143-.7.511.511,0,0,0-.459-.218.73.73,0,0,0-.645.342,1.832,1.832,0,0,0-.231.987v2.241H6.263v-2.378a2.268,2.268,0,0,0-.13-.974.5.5,0,0,0-.466-.218.729.729,0,0,0-.645.345,1.764,1.764,0,0,0-.228.98v2.244H3.328V-22.3H4.794v.668a1.852,1.852,0,0,1,.616-.583,1.544,1.544,0,0,1,.769-.2,1.536,1.536,0,0,1,.834.228,1.456,1.456,0,0,1,.55.638Z" transform="translate(-3.328 22.406)"/>
      </g>
      <g id="Group_56" data-name="Group 56" transform="translate(85.071 130.424)">
        <path id="Path_73" data-name="Path 73" d="M5.786-25a.822.822,0,0,0,.713-.342,1.684,1.684,0,0,0,.248-.994,1.686,1.686,0,0,0-.248-.994.821.821,0,0,0-.713-.342.837.837,0,0,0-.72.345,1.674,1.674,0,0,0-.248.99,1.687,1.687,0,0,0,.248.994A.838.838,0,0,0,5.786-25Zm-.967-2.951a1.975,1.975,0,0,1,.665-.59,1.826,1.826,0,0,1,.844-.189,1.7,1.7,0,0,1,1.384.671,2.643,2.643,0,0,1,.544,1.723,2.655,2.655,0,0,1-.544,1.726,1.7,1.7,0,0,1-1.384.668,1.826,1.826,0,0,1-.844-.189,1.966,1.966,0,0,1-.665-.59v.661H3.359v-6.336H4.819Z" transform="translate(-3.359 30.391)"/>
      </g>
      <g id="Group_57" data-name="Group 57" transform="translate(90.698 132.088)">
        <path id="Path_74" data-name="Path 74" d="M4.107-19.788a1.231,1.231,0,0,0-.687.156.508.508,0,0,0-.231.453.544.544,0,0,0,.186.437.774.774,0,0,0,.515.156.917.917,0,0,0,.694-.3,1.034,1.034,0,0,0,.28-.739v-.166Zm2.225-.55v2.6H4.862v-.678a1.853,1.853,0,0,1-.661.606,1.924,1.924,0,0,1-.889.189,1.619,1.619,0,0,1-1.153-.414,1.4,1.4,0,0,1-.44-1.072,1.321,1.321,0,0,1,.55-1.176A3.151,3.151,0,0,1,4-20.654h.86v-.114a.545.545,0,0,0-.274-.508,1.742,1.742,0,0,0-.85-.16,3.841,3.841,0,0,0-.873.094,2.9,2.9,0,0,0-.746.28v-1.114a8.221,8.221,0,0,1,.938-.173A7.651,7.651,0,0,1,4-22.407a2.645,2.645,0,0,1,1.782.489,2.016,2.016,0,0,1,.547,1.58Z" transform="translate(-1.719 22.407)"/>
      </g>
      <g id="Group_58" data-name="Group 58" transform="translate(0 138.763)">
        <path id="Path_75" data-name="Path 75" d="M4.306-30.391v.958H3.5a.655.655,0,0,0-.433.111.511.511,0,0,0-.121.388v.319H4.192v1.042H2.948v3.518H1.489v-3.518H.766v-1.042h.723v-.319a1.368,1.368,0,0,1,.414-1.1,1.947,1.947,0,0,1,1.29-.358Z" transform="translate(-0.766 30.391)"/>
      </g>
      <g id="Group_59" data-name="Group 59" transform="translate(4.169 140.427)">
        <path id="Path_76" data-name="Path 76" d="M6.747-21.055a1.974,1.974,0,0,0-.381-.13,1.637,1.637,0,0,0-.381-.046,1.063,1.063,0,0,0-.863.362,1.566,1.566,0,0,0-.3,1.033v2.1H3.359V-22.3H4.818v.749a1.84,1.84,0,0,1,.645-.655,1.752,1.752,0,0,1,.873-.205c.047,0,.1,0,.156.007s.142.013.251.026Z" transform="translate(-3.359 22.406)"/>
      </g>
      <g id="Group_60" data-name="Group 60" transform="translate(7.939 140.427)">
        <path id="Path_77" data-name="Path 77" d="M4.231-21.364a.863.863,0,0,0-.739.349,1.687,1.687,0,0,0-.254,1,1.685,1.685,0,0,0,.254,1,.861.861,0,0,0,.739.349.842.842,0,0,0,.73-.349,1.685,1.685,0,0,0,.254-1,1.687,1.687,0,0,0-.254-1A.844.844,0,0,0,4.231-21.364Zm0-1.042a2.549,2.549,0,0,1,1.84.635,2.325,2.325,0,0,1,.661,1.759,2.325,2.325,0,0,1-.661,1.759,2.549,2.549,0,0,1-1.84.635,2.569,2.569,0,0,1-1.847-.635,2.318,2.318,0,0,1-.665-1.759,2.318,2.318,0,0,1,.665-1.759A2.569,2.569,0,0,1,4.231-22.406Z" transform="translate(-1.719 22.406)"/>
      </g>
      <g id="Group_61" data-name="Group 61" transform="translate(14.004 140.427)">
        <path id="Path_78" data-name="Path 78" d="M7.563-21.54a1.991,1.991,0,0,1,.655-.645,1.637,1.637,0,0,1,.837-.222,1.483,1.483,0,0,1,1.2.485,2.127,2.127,0,0,1,.41,1.407v2.779H9.2v-2.378c0-.034,0-.07.007-.107s0-.094,0-.166a1.306,1.306,0,0,0-.143-.7.511.511,0,0,0-.459-.218.73.73,0,0,0-.645.342,1.832,1.832,0,0,0-.231.987v2.241H6.263v-2.378a2.268,2.268,0,0,0-.13-.974.5.5,0,0,0-.466-.218.729.729,0,0,0-.645.345,1.764,1.764,0,0,0-.228.98v2.244H3.328V-22.3H4.794v.668a1.852,1.852,0,0,1,.616-.583,1.544,1.544,0,0,1,.769-.2,1.536,1.536,0,0,1,.834.228,1.456,1.456,0,0,1,.55.638Z" transform="translate(-3.328 22.406)"/>
      </g>
      <g id="Group_62" data-name="Group 62" transform="translate(25.013 139.241)">
        <path id="Path_79" data-name="Path 79" d="M2.714-28.094v1.3h1.5v1.042h-1.5v1.935a.574.574,0,0,0,.124.43.8.8,0,0,0,.5.111h.749v1.042H2.841A1.7,1.7,0,0,1,1.616-22.6a1.7,1.7,0,0,1-.362-1.225v-1.935H.531V-26.8h.723v-1.3Z" transform="translate(-0.531 28.094)"/>
      </g>
      <g id="Group_63" data-name="Group 63" transform="translate(29.589 138.763)">
        <path id="Path_80" data-name="Path 80" d="M7.945-26.833v2.779H6.48v-2.117a7.49,7.49,0,0,0-.029-.821.868.868,0,0,0-.091-.332.587.587,0,0,0-.231-.222.7.7,0,0,0-.332-.078.842.842,0,0,0-.717.352,1.6,1.6,0,0,0-.261.974v2.244H3.359V-30.39H4.818v2.443a2.24,2.24,0,0,1,.7-.59,1.791,1.791,0,0,1,.821-.189,1.483,1.483,0,0,1,1.2.485,2.127,2.127,0,0,1,.41,1.407Z" transform="translate(-3.359 30.39)"/>
      </g>
      <g id="Group_64" data-name="Group 64" transform="translate(35.184 140.427)">
        <path id="Path_81" data-name="Path 81" d="M6.615-20.028v.417H3.2a1.091,1.091,0,0,0,.371.769,1.378,1.378,0,0,0,.889.257,3.441,3.441,0,0,0,.941-.137,4.837,4.837,0,0,0,.99-.414v1.124a6.094,6.094,0,0,1-1.033.293,5.445,5.445,0,0,1-1.036.1A2.745,2.745,0,0,1,2.4-18.247a2.277,2.277,0,0,1-.684-1.766,2.3,2.3,0,0,1,.674-1.752,2.579,2.579,0,0,1,1.853-.642,2.32,2.32,0,0,1,1.72.648,2.341,2.341,0,0,1,.648,1.73Zm-1.5-.485a.924.924,0,0,0-.244-.668.832.832,0,0,0-.632-.254,1,1,0,0,0-.691.238,1.1,1.1,0,0,0-.329.684Z" transform="translate(-1.719 22.406)"/>
      </g>
      <g id="Group_65" data-name="Group 65" transform="translate(44.149 139.02)">
        <path id="Path_82" data-name="Path 82" d="M3.672-29.156H5.424l2.209,4.169v-4.169H9.122v6.078H7.369L5.157-27.247v4.169H3.672Z" transform="translate(-3.672 29.156)"/>
      </g>
      <g id="Group_66" data-name="Group 66" transform="translate(50.721 140.427)">
        <path id="Path_83" data-name="Path 83" d="M4.231-21.364a.863.863,0,0,0-.739.349,1.687,1.687,0,0,0-.254,1,1.685,1.685,0,0,0,.254,1,.861.861,0,0,0,.739.349.842.842,0,0,0,.73-.349,1.685,1.685,0,0,0,.254-1,1.687,1.687,0,0,0-.254-1A.844.844,0,0,0,4.231-21.364Zm0-1.042a2.549,2.549,0,0,1,1.84.635,2.325,2.325,0,0,1,.661,1.759,2.325,2.325,0,0,1-.661,1.759,2.549,2.549,0,0,1-1.84.635,2.569,2.569,0,0,1-1.847-.635,2.318,2.318,0,0,1-.665-1.759,2.318,2.318,0,0,1,.665-1.759A2.569,2.569,0,0,1,4.231-22.406Z" transform="translate(-1.719 22.406)"/>
      </g>
      <g id="Group_67" data-name="Group 67" transform="translate(56.743 140.538)">
        <path id="Path_84" data-name="Path 84" d="M3.125-19.09v-2.785H4.591v.456c0,.248,0,.559,0,.932s0,.621,0,.746c0,.367.008.631.026.792a.9.9,0,0,0,.1.352.624.624,0,0,0,.235.222.713.713,0,0,0,.332.075.845.845,0,0,0,.717-.349,1.607,1.607,0,0,0,.261-.974v-2.251H7.711v4.56H6.252v-.661a2.247,2.247,0,0,1-.7.59,1.766,1.766,0,0,1-.814.189,1.494,1.494,0,0,1-1.2-.482,2.116,2.116,0,0,1-.414-1.41Z" transform="translate(-3.125 21.875)"/>
      </g>
      <g id="Group_68" data-name="Group 68" transform="translate(62.729 140.427)">
        <path id="Path_85" data-name="Path 85" d="M7.945-20.513v2.779H6.48v-2.127a7.358,7.358,0,0,0-.029-.811.868.868,0,0,0-.091-.332.587.587,0,0,0-.231-.222A.7.7,0,0,0,5.8-21.3a.842.842,0,0,0-.717.352,1.6,1.6,0,0,0-.261.974v2.244H3.359v-4.56H4.818v.668a2.24,2.24,0,0,1,.7-.59,1.791,1.791,0,0,1,.821-.189,1.483,1.483,0,0,1,1.2.485,2.127,2.127,0,0,1,.41,1.407Z" transform="translate(-3.359 22.406)"/>
      </g>
      <g id="Group_69" data-name="Group 69" transform="translate(71.634 139.02)">
        <path id="Path_86" data-name="Path 86" d="M3.672-29.156h2.6a2.716,2.716,0,0,1,1.779.515,1.8,1.8,0,0,1,.622,1.466A1.8,1.8,0,0,1,8.053-25.7a2.711,2.711,0,0,1-1.779.515H5.238v2.111H3.672Zm1.567,1.134v1.7h.87a1.018,1.018,0,0,0,.7-.222.811.811,0,0,0,.248-.632.792.792,0,0,0-.248-.625,1.022,1.022,0,0,0-.7-.222Z" transform="translate(-3.672 29.156)"/>
      </g>
      <g id="Group_70" data-name="Group 70" transform="translate(77.681 140.427)">
        <path id="Path_87" data-name="Path 87" d="M6.747-21.055a1.974,1.974,0,0,0-.381-.13,1.637,1.637,0,0,0-.381-.046,1.063,1.063,0,0,0-.863.362,1.566,1.566,0,0,0-.3,1.033v2.1H3.359V-22.3H4.818v.749a1.84,1.84,0,0,1,.645-.655,1.752,1.752,0,0,1,.873-.205c.047,0,.1,0,.156.007s.142.013.251.026Z" transform="translate(-3.359 22.406)"/>
      </g>
      <g id="Group_71" data-name="Group 71" transform="translate(81.451 140.427)">
        <path id="Path_88" data-name="Path 88" d="M4.231-21.364a.863.863,0,0,0-.739.349,1.687,1.687,0,0,0-.254,1,1.685,1.685,0,0,0,.254,1,.861.861,0,0,0,.739.349.842.842,0,0,0,.73-.349,1.685,1.685,0,0,0,.254-1,1.687,1.687,0,0,0-.254-1A.844.844,0,0,0,4.231-21.364Zm0-1.042a2.549,2.549,0,0,1,1.84.635,2.325,2.325,0,0,1,.661,1.759,2.325,2.325,0,0,1-.661,1.759,2.549,2.549,0,0,1-1.84.635,2.569,2.569,0,0,1-1.847-.635,2.318,2.318,0,0,1-.665-1.759,2.318,2.318,0,0,1,.665-1.759A2.569,2.569,0,0,1,4.231-22.406Z" transform="translate(-1.719 22.406)"/>
      </g>
      <g id="Group_72" data-name="Group 72" transform="translate(86.545 138.763)">
        <path id="Path_89" data-name="Path 89" d="M-.351-28.615H1.108v4.479a2.006,2.006,0,0,1-.44,1.4,1.637,1.637,0,0,1-1.277.485h-.72v-.958h.251a.707.707,0,0,0,.57-.189,1.213,1.213,0,0,0,.156-.736Zm0-1.775H1.108V-29.2H-.351Z" transform="translate(1.328 30.391)"/>
      </g>
      <g id="Group_73" data-name="Group 73" transform="translate(90.038 140.427)">
        <path id="Path_90" data-name="Path 90" d="M6.615-20.028v.417H3.2a1.091,1.091,0,0,0,.371.769,1.378,1.378,0,0,0,.889.257,3.441,3.441,0,0,0,.941-.137,4.837,4.837,0,0,0,.99-.414v1.124a6.094,6.094,0,0,1-1.033.293,5.445,5.445,0,0,1-1.036.1A2.745,2.745,0,0,1,2.4-18.247a2.277,2.277,0,0,1-.684-1.766,2.3,2.3,0,0,1,.674-1.752,2.579,2.579,0,0,1,1.853-.642,2.32,2.32,0,0,1,1.72.648,2.341,2.341,0,0,1,.648,1.73Zm-1.5-.485a.924.924,0,0,0-.244-.668.832.832,0,0,0-.632-.254,1,1,0,0,0-.691.238,1.1,1.1,0,0,0-.329.684Z" transform="translate(-1.719 22.406)"/>
      </g>
      <g id="Group_74" data-name="Group 74" transform="translate(95.694 140.427)">
        <path id="Path_91" data-name="Path 91" d="M5.745-22.153v1.189a2.315,2.315,0,0,0-.6-.3,1.988,1.988,0,0,0-.619-.1,1.257,1.257,0,0,0-.954.358,1.38,1.38,0,0,0-.339.994,1.39,1.39,0,0,0,.339,1,1.261,1.261,0,0,0,.954.355,2.05,2.05,0,0,0,.648-.1,1.871,1.871,0,0,0,.567-.3v1.2a4.121,4.121,0,0,1-.694.186,3.9,3.9,0,0,1-.707.065,2.763,2.763,0,0,1-1.928-.632,2.263,2.263,0,0,1-.7-1.762,2.254,2.254,0,0,1,.7-1.759,2.756,2.756,0,0,1,1.928-.635,3.869,3.869,0,0,1,.707.065,4.1,4.1,0,0,1,.694.189Z" transform="translate(-1.718 22.407)"/>
      </g>
      <g id="Group_75" data-name="Group 75" transform="translate(100.389 139.241)">
        <path id="Path_92" data-name="Path 92" d="M2.714-28.094v1.3h1.5v1.042h-1.5v1.935a.574.574,0,0,0,.124.43.8.8,0,0,0,.5.111h.749v1.042H2.841A1.7,1.7,0,0,1,1.616-22.6a1.7,1.7,0,0,1-.362-1.225v-1.935H.531V-26.8h.723v-1.3Z" transform="translate(-0.531 28.094)"/>
      </g>
    </g>
  </g>
</svg>
