<svg xmlns="http://www.w3.org/2000/svg" width="26.275" height="24.757" viewBox="0 0 26.275 24.757">
  <g id="XMLID_46_" transform="translate(0.001 -13.846)">
    <path id="XMLID_57_" d="M275.1,135.957v.1a2.014,2.014,0,0,1-1.609,1.97,1.871,1.871,0,0,0,2.614,1.406l1.449-.643-1.622-2.4a1,1,0,0,0-.826-.432Z" transform="translate(-258.499 -115.417)"/>
    <path id="XMLID_56_" d="M151.983,141.089l-.633,2.976,2.568,1.44,4.779-1.278q.151-.036.3-.057l-.539-2.536-.307-1.443a2.508,2.508,0,0,1-2.094-.324,2.584,2.584,0,0,1-1.146-1.859,2.009,2.009,0,0,1-1.691-1.979v-.1h-.145a1.01,1.01,0,0,0-.876.513l-3.4,6.191,1.785,1Z" transform="translate(-140.644 -115.393)"/>
    <path id="XMLID_55_" d="M245.225,135.944h-2.579v.1a1.289,1.289,0,1,0,2.579,0Z" transform="translate(-229.346 -115.404)"/>
    <path id="XMLID_54_" d="M92.291,265.933l-5.436-1.844a2,2,0,0,0-1.164-.038l-5.172,1.381-6.239-3.5a2.009,2.009,0,1,0-1.966,3.5l6.952,3.9a2,2,0,0,0,1.5.189l5.373-1.435L91,269.738a2.009,2.009,0,1,0,1.29-3.805Z" transform="translate(-67.381 -234.245)"/>
    <path id="XMLID_53_" d="M16.835,185.739a2.292,2.292,0,1,0-2.293-2.292A2.292,2.292,0,0,0,16.835,185.739Z" transform="translate(-13.746 -158.137)"/>
    <path id="XMLID_52_" d="M24.515,319.095H11.729l-8.01-4.607L1.881,313.43a1.256,1.256,0,1,0-1.252,2.177l10.138,5.832a1.253,1.253,0,0,0,.626.167H24.515a1.256,1.256,0,1,0,0-2.511Z" transform="translate(0 -283.004)"/>
    <path id="XMLID_51_" d="M322.454,157.609a.7.7,0,0,1,.691-.619.708.708,0,1,1,0,1.417.688.688,0,0,1-.4-.138l-.714.318-1.581.7a2.6,2.6,0,0,1-.352.114l.659.973a1.023,1.023,0,0,0,1.346.319l2.7-1.509a1.022,1.022,0,0,0,.393-1.391,1.006,1.006,0,0,0-.681-.49,1.428,1.428,0,0,0-2.8.392,1.391,1.391,0,0,0,.023.229Z" transform="translate(-302.554 -134.615)"/>
    <path id="XMLID_50_" d="M222.487,70.931a2.374,2.374,0,0,0,3.448-2.888,8.859,8.859,0,0,1-4.457,0A2.369,2.369,0,0,0,222.487,70.931Z" transform="translate(-209.187 -51.226)"/>
    <path id="XMLID_47_" d="M222.614,16.167a8.474,8.474,0,0,0,4.392,0,.174.174,0,0,0,.123-.208c-.128-.533-.257-1.439-.385-1.979a.174.174,0,0,0-.213-.128,6.78,6.78,0,0,1-3.444,0,.173.173,0,0,0-.212.127c-.13.539-.258,1.446-.385,1.979A.173.173,0,0,0,222.614,16.167Zm1.59-1.276h.284v-.284h.646v.284h.284v.646h-.284v.283h-.646v-.283H224.2Z" transform="translate(-210.29)"/>
  </g>
</svg>
