<svg xmlns="http://www.w3.org/2000/svg" xmlns:xlink="http://www.w3.org/1999/xlink" width="24" height="26" viewBox="0 0 24 26">
  <defs>
    <clipPath id="clip-path">
      <rect id="Rectangle_39" data-name="Rectangle 39" width="24" height="26" transform="translate(9958 2695.392)" fill="#fff" stroke="#707070" stroke-width="1"/>
    </clipPath>
  </defs>
  <g id="Mask_Group_18" data-name="Mask Group 18" transform="translate(-9958 -2695.392)" clip-path="url(#clip-path)">
    <g id="noun-x-ray-1021848" transform="translate(9955.561 2695.021)">
      <path id="Path_629" data-name="Path 629" d="M459.021,48.859h0a1.124,1.124,0,0,1,1.157,1.09h0a1.058,1.058,0,0,0-.339-.77,1.194,1.194,0,0,0-.818-.319" transform="translate(-434.934 -47.22)"/>
      <path id="Path_630" data-name="Path 630" d="M324.29,14.586H326.9v3.161H324.29Z" transform="translate(-311.482 -14.586)"/>
      <path id="Path_631" data-name="Path 631" d="M222.21,207.819a2.416,2.416,0,0,0,.359,1.265,3.939,3.939,0,0,1,2.623-.984h2.825v-2.826h-3.1a2.631,2.631,0,0,0-2.7,2.545Z" transform="translate(-214.588 -196.155)"/>
      <path id="Path_632" data-name="Path 632" d="M366.572,293.591a.645.645,0,1,1,0-1.288,2.815,2.815,0,0,0,1.387-.361,2.531,2.531,0,0,0-1.665-.615h-2.824v2.808h2.478a3.624,3.624,0,0,1,2.344.846,2.192,2.192,0,0,0,.376-1.937A4.247,4.247,0,0,1,366.572,293.591Z" transform="translate(-348.672 -278.093)"/>
      <path id="Path_633" data-name="Path 633" d="M233.371,291.917a2.813,2.813,0,0,0,1.387.361.645.645,0,1,1,0,1.287,4.238,4.238,0,0,1-2.094-.547,2.2,2.2,0,0,0,.376,1.938,3.627,3.627,0,0,1,2.344-.846h2.477V291.3h-2.824a2.536,2.536,0,0,0-1.665.616Z" transform="translate(-224.431 -278.068)"/>
      <path id="Path_634" data-name="Path 634" d="M366.571,205.269h-3.1v2.826h2.825a3.939,3.939,0,0,1,2.623.984,2.415,2.415,0,0,0-.005-2.542,2.737,2.737,0,0,0-2.34-1.269Z" transform="translate(-348.671 -196.15)"/>
      <path id="Path_635" data-name="Path 635" d="M151.964,48.867h-7.7V51.3h-4.555V48.867h-7.7a1.124,1.124,0,0,0-1.156,1.089V70.98a1.685,1.685,0,0,0,1.734,1.632h18.794a1.685,1.685,0,0,0,1.734-1.632V49.956a1.057,1.057,0,0,0-.338-.77,1.193,1.193,0,0,0-.818-.319Zm-2.119,10.192a3.682,3.682,0,0,1-.875,2.207,3.43,3.43,0,0,1-.634,3.916c.02.041.039.083.059.124a3.138,3.138,0,0,1-.318,3.106,3.572,3.572,0,0,1-2.923,1.47.645.645,0,1,1,0-1.288,2.191,2.191,0,0,0,1.722-.815,1.924,1.924,0,0,0,.332-1.788,3.991,3.991,0,0,1-1.706.379.645.645,0,1,1,0-1.288,2.578,2.578,0,0,0,.888-.157c-.044-.028-.088-.055-.135-.083a2.232,2.232,0,0,0-1.1-.287h-2.477v3.116a.685.685,0,0,1-1.367,0V64.557h-2.477a2.224,2.224,0,0,0-1.238.37,2.576,2.576,0,0,0,.888.157.645.645,0,1,1,0,1.287,3.99,3.99,0,0,1-1.705-.379,1.924,1.924,0,0,0,.331,1.787,2.191,2.191,0,0,0,1.721.815.71.71,0,0,1,.342.087h0l.013.008a.489.489,0,0,1,.048.03l.02.014a.651.651,0,0,1,.053.044l.006.006a.644.644,0,0,1,.052.055l.014.018c.011.015.022.029.033.045l.013.02a.618.618,0,0,1,.033.062l0,0a.624.624,0,0,1,.026.071l.006.022a.541.541,0,0,1,.012.055.209.209,0,0,0,0,.023.576.576,0,0,1,.006.079.664.664,0,0,1-.683.643h-.107a3.556,3.556,0,0,1-2.882-1.568,3.136,3.136,0,0,1-.2-3.129,3.43,3.43,0,0,1-.634-3.916,3.649,3.649,0,0,1-.472-4.047,4.1,4.1,0,0,1,3.665-2.161h3.1v-.5a.685.685,0,0,1,1.367,0v.5h3.1A3.963,3.963,0,0,1,149.85,58.9c0,.055,0,.111-.005.167Z" transform="translate(-127.878 -47.228)"/>
      <g id="Group_595" data-name="Group 595" transform="translate(0 30.804)">
        <path id="Path_636" data-name="Path 636" d="M3.547-31a1.1,1.1,0,0,1-.241.085,1.137,1.137,0,0,1-.259.029A.927.927,0,0,1,2.4-31.1a.738.738,0,0,1-.237-.577.738.738,0,0,1,.237-.58.927.927,0,0,1,.642-.213,1.169,1.169,0,0,1,.259.028,1.1,1.1,0,0,1,.241.085v.315a.94.94,0,0,0-.229-.109.8.8,0,0,0-.237-.035.461.461,0,0,0-.352.135.516.516,0,0,0-.127.374.517.517,0,0,0,.128.371.462.462,0,0,0,.352.135.807.807,0,0,0,.237-.034.951.951,0,0,0,.229-.111Z" transform="translate(-2.167 32.475)"/>
      </g>
      <g id="Group_596" data-name="Group 596" transform="translate(1.708 31.186)">
        <path id="Path_637" data-name="Path 637" d="M4.575-24.161a.534.534,0,0,0-.1-.033.46.46,0,0,0-.1-.011.3.3,0,0,0-.231.09.378.378,0,0,0-.08.26v.527h-.39v-1.144h.39v.188a.478.478,0,0,1,.171-.164.493.493,0,0,1,.235-.052H4.51l.066.007Z" transform="translate(-3.672 24.501)"/>
      </g>
      <g id="Group_597" data-name="Group 597" transform="translate(2.711 31.186)">
        <path id="Path_638" data-name="Path 638" d="M3.174-23.906v.1h-.91a.266.266,0,0,0,.1.193.385.385,0,0,0,.237.064.99.99,0,0,0,.251-.034,1.335,1.335,0,0,0,.264-.1v.282a1.7,1.7,0,0,1-.276.074,1.531,1.531,0,0,1-.276.025.764.764,0,0,1-.514-.158.555.555,0,0,1-.183-.442.559.559,0,0,1,.179-.44.717.717,0,0,1,.5-.163A.641.641,0,0,1,3-24.34.567.567,0,0,1,3.174-23.906Zm-.4-.121a.225.225,0,0,0-.065-.168.228.228,0,0,0-.168-.064.275.275,0,0,0-.184.06.272.272,0,0,0-.088.173Z" transform="translate(-1.867 24.504)"/>
      </g>
      <g id="Group_598" data-name="Group 598" transform="translate(4.219 31.185)">
        <path id="Path_639" data-name="Path 639" d="M2.509-23.85a.346.346,0,0,0-.183.039.127.127,0,0,0-.061.114.132.132,0,0,0,.049.109.216.216,0,0,0,.137.039.251.251,0,0,0,.184-.074.249.249,0,0,0,.075-.185v-.042Zm.594-.138v.653H2.712v-.17a.5.5,0,0,1-.176.152.538.538,0,0,1-.237.048.448.448,0,0,1-.307-.1.342.342,0,0,1-.117-.269.325.325,0,0,1,.147-.3.882.882,0,0,1,.462-.094h.229V-24.1a.136.136,0,0,0-.073-.127.486.486,0,0,0-.227-.04,1.067,1.067,0,0,0-.232.024.829.829,0,0,0-.2.07v-.279a2.207,2.207,0,0,1,.251-.043,2.149,2.149,0,0,1,.252-.015.737.737,0,0,1,.474.123.488.488,0,0,1,.147.4Z" transform="translate(-1.873 24.509)"/>
      </g>
      <g id="Group_599" data-name="Group 599" transform="translate(5.654 30.888)">
        <path id="Path_640" data-name="Path 640" d="M1.16-30.723v.325h.4v.262h-.4v.485a.138.138,0,0,0,.033.108.223.223,0,0,0,.133.028h.2v.262H1.193a.471.471,0,0,1-.326-.09.407.407,0,0,1-.1-.307v-.486H.578V-30.4H.771v-.325Z" transform="translate(-0.578 30.724)"/>
      </g>
      <g id="Group_600" data-name="Group 600" transform="translate(6.78 31.186)">
        <path id="Path_641" data-name="Path 641" d="M3.174-23.906v.1h-.91a.266.266,0,0,0,.1.193.385.385,0,0,0,.237.064.99.99,0,0,0,.251-.034,1.335,1.335,0,0,0,.264-.1v.282a1.7,1.7,0,0,1-.276.074,1.531,1.531,0,0,1-.276.025.764.764,0,0,1-.514-.158.555.555,0,0,1-.183-.442.559.559,0,0,1,.179-.44.717.717,0,0,1,.5-.163A.641.641,0,0,1,3-24.34.567.567,0,0,1,3.174-23.906Zm-.4-.121a.225.225,0,0,0-.065-.168.228.228,0,0,0-.168-.064.275.275,0,0,0-.184.06.272.272,0,0,0-.088.173Z" transform="translate(-1.867 24.504)"/>
      </g>
      <g id="Group_601" data-name="Group 601" transform="translate(8.294 30.769)">
        <path id="Path_642" data-name="Path 642" d="M2.882-32.621v-.613h.39v1.589h-.39v-.166a.519.519,0,0,1-.176.148.507.507,0,0,1-.224.047.465.465,0,0,1-.369-.168.642.642,0,0,1-.144-.433.642.642,0,0,1,.144-.433.464.464,0,0,1,.369-.168.5.5,0,0,1,.223.048.52.52,0,0,1,.178.147Zm-.256.74a.224.224,0,0,0,.19-.086.4.4,0,0,0,.066-.249.4.4,0,0,0-.066-.249.225.225,0,0,0-.19-.086.225.225,0,0,0-.19.086.407.407,0,0,0-.065.249.405.405,0,0,0,.065.249.225.225,0,0,0,.19.086Z" transform="translate(-1.969 33.234)"/>
      </g>
      <g id="Group_602" data-name="Group 602" transform="translate(10.745 30.77)">
        <path id="Path_643" data-name="Path 643" d="M4.319-31.879a.226.226,0,0,0,.19-.086.4.4,0,0,0,.066-.249.4.4,0,0,0-.066-.249.226.226,0,0,0-.19-.086.227.227,0,0,0-.191.087.4.4,0,0,0-.067.249.4.4,0,0,0,.067.249.227.227,0,0,0,.191.086Zm-.257-.74a.518.518,0,0,1,.178-.147.506.506,0,0,1,.224-.048.465.465,0,0,1,.369.168.64.64,0,0,1,.144.433.64.64,0,0,1-.144.433.465.465,0,0,1-.369.168.506.506,0,0,1-.224-.048.526.526,0,0,1-.178-.148v.166h-.39v-1.589h.39Z" transform="translate(-3.672 33.232)"/>
      </g>
      <g id="Group_603" data-name="Group 603" transform="translate(12.176 31.215)">
        <path id="Path_644" data-name="Path 644" d="M.531-23.922H.92l.326.776.278-.776h.389L1.4-22.67a.6.6,0,0,1-.18.267.443.443,0,0,1-.271.076H.727v-.24h.12a.267.267,0,0,0,.144-.03.192.192,0,0,0,.071-.106l.01-.031Z" transform="translate(-0.531 23.922)"/>
      </g>
      <g id="Group_604" data-name="Group 604" transform="translate(14.383 30.833)">
        <path id="Path_645" data-name="Path 645" d="M1.4-30.644H.742l-.1.278H.219l.6-1.525h.5l.6,1.525H1.5Zm-.549-.283H1.29l-.222-.608Z" transform="translate(-0.219 31.891)"/>
      </g>
      <g id="Group_605" data-name="Group 605" transform="translate(16.278 31.186)">
        <path id="Path_646" data-name="Path 646" d="M4.575-24.161a.534.534,0,0,0-.1-.033.46.46,0,0,0-.1-.011.3.3,0,0,0-.231.09.378.378,0,0,0-.08.26v.527h-.39v-1.144h.39v.188a.478.478,0,0,1,.171-.164.493.493,0,0,1,.235-.052H4.51l.066.007Z" transform="translate(-3.672 24.501)"/>
      </g>
      <g id="Group_606" data-name="Group 606" transform="translate(17.282 31.186)">
        <path id="Path_647" data-name="Path 647" d="M2.543-24.241a.236.236,0,0,0-.2.087.4.4,0,0,0-.067.252.4.4,0,0,0,.067.252.236.236,0,0,0,.2.087.229.229,0,0,0,.194-.087A.406.406,0,0,0,2.8-23.9a.406.406,0,0,0-.067-.252.229.229,0,0,0-.194-.087Zm0-.262a.705.705,0,0,1,.49.159.564.564,0,0,1,.176.442.565.565,0,0,1-.176.442.705.705,0,0,1-.49.159.713.713,0,0,1-.493-.159.564.564,0,0,1-.176-.442.561.561,0,0,1,.176-.442A.713.713,0,0,1,2.543-24.5Z" transform="translate(-1.873 24.504)"/>
      </g>
      <g id="Group_607" data-name="Group 607" transform="translate(18.828 31.185)">
        <path id="Path_648" data-name="Path 648" d="M3.284-24.441v.276a1.566,1.566,0,0,0-.241-.073,1.057,1.057,0,0,0-.219-.025.4.4,0,0,0-.165.026.085.085,0,0,0-.053.08.075.075,0,0,0,.04.068.409.409,0,0,0,.147.034l.068.009a.858.858,0,0,1,.4.118.307.307,0,0,1,.1.256.3.3,0,0,1-.144.276A.8.8,0,0,1,2.8-23.3a1.8,1.8,0,0,1-.249-.018,2.253,2.253,0,0,1-.264-.054v-.278a1.169,1.169,0,0,0,.238.08,1.175,1.175,0,0,0,.249.026.389.389,0,0,0,.171-.029A.1.1,0,0,0,3-23.664a.08.08,0,0,0-.04-.073.449.449,0,0,0-.158-.037l-.068-.008a.748.748,0,0,1-.365-.114.3.3,0,0,1-.1-.252.3.3,0,0,1,.133-.269A.744.744,0,0,1,2.8-24.5a1.717,1.717,0,0,1,.225.016,2.52,2.52,0,0,1,.257.048Z" transform="translate(-2.263 24.507)"/>
      </g>
      <g id="Group_608" data-name="Group 608" transform="translate(20.223 30.769)">
        <path id="Path_649" data-name="Path 649" d="M4.894-32.34v.7H4.5v-.531a1.965,1.965,0,0,0-.007-.206.2.2,0,0,0-.024-.083.156.156,0,0,0-.062-.055.19.19,0,0,0-.088-.02.231.231,0,0,0-.191.088.388.388,0,0,0-.068.244v.563h-.39v-1.589h.39v.613a.583.583,0,0,1,.186-.147.5.5,0,0,1,.219-.048.407.407,0,0,1,.319.122.51.51,0,0,1,.109.354Z" transform="translate(-3.672 33.233)"/>
      </g>
      <g id="Group_609" data-name="Group 609" transform="translate(22.596 30.833)">
        <path id="Path_650" data-name="Path 650" d="M4.016-31.891h.417v.557l.6-.557h.485l-.78.722.86.8H5.079l-.646-.6v.6H4.016Z" transform="translate(-4.016 31.891)"/>
      </g>
      <g id="Group_610" data-name="Group 610" transform="translate(24.301 30.769)">
        <path id="Path_651" data-name="Path 651" d="M4.894-32.34v.7H4.5v-.531a1.965,1.965,0,0,0-.007-.206.2.2,0,0,0-.024-.083.156.156,0,0,0-.062-.055.19.19,0,0,0-.088-.02.231.231,0,0,0-.191.088.388.388,0,0,0-.068.244v.563h-.39v-1.589h.39v.613a.583.583,0,0,1,.186-.147.5.5,0,0,1,.219-.048.407.407,0,0,1,.319.122.51.51,0,0,1,.109.354Z" transform="translate(-3.672 33.233)"/>
      </g>
      <g id="Group_611" data-name="Group 611" transform="translate(25.791 31.185)">
        <path id="Path_652" data-name="Path 652" d="M2.509-23.85a.346.346,0,0,0-.183.039.127.127,0,0,0-.061.114.132.132,0,0,0,.049.109.216.216,0,0,0,.137.039.251.251,0,0,0,.184-.074.249.249,0,0,0,.075-.185v-.042Zm.594-.138v.653H2.712v-.17a.5.5,0,0,1-.176.152.538.538,0,0,1-.237.048.448.448,0,0,1-.307-.1.342.342,0,0,1-.117-.269.325.325,0,0,1,.147-.3.882.882,0,0,1,.462-.094h.229V-24.1a.136.136,0,0,0-.073-.127.486.486,0,0,0-.227-.04,1.067,1.067,0,0,0-.232.024.829.829,0,0,0-.2.07v-.279a2.207,2.207,0,0,1,.251-.043,2.149,2.149,0,0,1,.252-.015.737.737,0,0,1,.474.123.488.488,0,0,1,.147.4Z" transform="translate(-1.873 24.509)"/>
      </g>
      <g id="Group_612" data-name="Group 612" transform="translate(27.383 31.186)">
        <path id="Path_653" data-name="Path 653" d="M4.894-24.027v.7H4.5v-.534a1.912,1.912,0,0,0-.007-.2.2.2,0,0,0-.024-.083.156.156,0,0,0-.062-.055.19.19,0,0,0-.088-.02.231.231,0,0,0-.191.088.388.388,0,0,0-.068.244v.563h-.39v-1.143h.39v.167a.583.583,0,0,1,.186-.147.5.5,0,0,1,.219-.048.407.407,0,0,1,.319.122.51.51,0,0,1,.109.353Z" transform="translate(-3.672 24.503)"/>
      </g>
    </g>
  </g>
</svg>
