<svg xmlns="http://www.w3.org/2000/svg" width="171.829" height="57.424" viewBox="0 0 171.829 57.424">
  <g id="Group_36" data-name="Group 36" transform="translate(0.002 0)">
    <path id="Path_32" data-name="Path 32" d="M4206.7-64.816a28.714,28.714,0,0,1,28.719,28.723,28.713,28.713,0,0,1-28.719,28.7A28.711,28.711,0,0,1,4177.99-36.1v0A28.713,28.713,0,0,1,4206.7-64.816Z" transform="translate(-4177.992 64.816)" fill="#fff"/>
    <g id="Group_29" data-name="Group 29" transform="translate(67.413 10.31)">
      <path id="Path_33" data-name="Path 33" d="M4257.46-22.69a12.958,12.958,0,0,1-6.322-1.484,10.716,10.716,0,0,1-4.219-4.071,11.587,11.587,0,0,1-1.507-5.938,12.467,12.467,0,0,1,1.464-6.131,10.9,10.9,0,0,1,4.029-4.178,11.336,11.336,0,0,1,5.917-1.527,10.15,10.15,0,0,1,9.143,5.431,11.334,11.334,0,0,1,1.251,5.727l-.042,1.823H4251.05a6.062,6.062,0,0,0,2.313,3.819,7.542,7.542,0,0,0,4.688,1.4,7.9,7.9,0,0,0,2.779-.467,9.658,9.658,0,0,0,2.691-1.655l2.8,3.9a13.079,13.079,0,0,1-4.179,2.481A13.457,13.457,0,0,1,4257.46-22.69Zm-.6-18.324q-4.8,0-5.771,4.326H4261.7v-.17a4.15,4.15,0,0,0-1.506-2.991,5,5,0,0,0-3.328-1.165Z" transform="translate(-4245.405 54.506)" fill="#fff"/>
      <path id="Path_34" data-name="Path 34" d="M4278.77-22.7a14.1,14.1,0,0,1-5.516-1.019,9.656,9.656,0,0,1-3.9-2.884L4273-29.7a7.5,7.5,0,0,0,2.885,2.016,9.1,9.1,0,0,0,3.268.614,3.492,3.492,0,0,0,2.121-.593,1.939,1.939,0,0,0,.809-1.654,1.74,1.74,0,0,0-.766-1.484,15.158,15.158,0,0,0-3.648-1.272q-4.282-1.1-6.065-3.013a5.955,5.955,0,0,1-1.568-4.2,5.487,5.487,0,0,1,1.189-3.5,7.906,7.906,0,0,1,3.139-2.354,10.5,10.5,0,0,1,4.242-.85,13.236,13.236,0,0,1,4.962.934,11.116,11.116,0,0,1,3.9,2.546l-3.137,3.435a11.045,11.045,0,0,0-2.738-1.846,6.681,6.681,0,0,0-2.863-.741q-3.053,0-3.055,2.12a1.949,1.949,0,0,0,.936,1.612,14.69,14.69,0,0,0,3.858,1.4,12.069,12.069,0,0,1,5.685,2.8,5.424,5.424,0,0,1,1.442,3.945,6.075,6.075,0,0,1-1.167,3.648,7.813,7.813,0,0,1-3.159,2.524,10.709,10.709,0,0,1-4.5.913Z" transform="translate(-4245.405 54.506)" fill="#fff"/>
      <path id="Path_35" data-name="Path 35" d="M4299.99-22.695a8.776,8.776,0,0,1-5.047-1.527,10.832,10.832,0,0,1-3.584-4.157,14.2,14.2,0,0,1,0-12.026A10.358,10.358,0,0,1,4295-44.5a9.488,9.488,0,0,1,5.239-1.484,8.663,8.663,0,0,1,4.158.955,7.957,7.957,0,0,1,2.842,2.481v-2.97h5.771v22.4H4307.2v-3.014a9.375,9.375,0,0,1-3.077,2.46A8.859,8.859,0,0,1,4299.99-22.695Zm1.57-5.049a5.343,5.343,0,0,0,4.2-1.824,7.936,7.936,0,0,0,0-9.587,5.352,5.352,0,0,0-4.2-1.824,5.237,5.237,0,0,0-4.137,1.824,8.018,8.018,0,0,0,0,9.587,5.227,5.227,0,0,0,4.138,1.829Z" transform="translate(-4245.406 54.506)" fill="#fff"/>
      <path id="Path_36" data-name="Path 36" d="M4326.41-22.695a8.769,8.769,0,0,1-5.047-1.527,10.843,10.843,0,0,1-3.585-4.157,14.191,14.191,0,0,1,0-12.026,10.361,10.361,0,0,1,3.647-4.094,9.486,9.486,0,0,1,5.238-1.484,8.667,8.667,0,0,1,4.159.955,7.947,7.947,0,0,1,2.84,2.481v-2.97h5.77v22.4h-5.812v-3.014a9.373,9.373,0,0,1-3.077,2.46,8.859,8.859,0,0,1-4.135.976Zm1.57-5.049a5.339,5.339,0,0,0,4.2-1.824,7.934,7.934,0,0,0,0-9.587,5.348,5.348,0,0,0-4.2-1.824,5.233,5.233,0,0,0-4.137,1.824,8.018,8.018,0,0,0,0,9.587,5.225,5.225,0,0,0,4.138,1.829Z" transform="translate(-4245.405 54.506)" fill="#fff"/>
      <path id="Path_37" data-name="Path 37" d="M4344.05-23.115V-54.506h5.769v31.391Z" transform="translate(-4245.405 54.506)" fill="#fff"/>
    </g>
    <g id="Group_30" data-name="Group 30" transform="translate(39.374 16.892)">
      <path id="Path_38" data-name="Path 38" d="M4221.81-43.844a2.647,2.647,0,0,1-2.651,2.64,2.643,2.643,0,0,1-2.639-2.64,2.652,2.652,0,0,1,2.639-2.65,2.655,2.655,0,0,1,2.651,2.65Z" transform="translate(-4216.516 46.494)" fill="#004f4f"/>
    </g>
    <path id="Path_39" data-name="Path 39" d="M4224.23-33.192a1.2,1.2,0,0,1-.971.49,1.165,1.165,0,0,1-.589-.16l-3.51-1.97-3.5,1.97a1.167,1.167,0,0,1-.59.16,1.193,1.193,0,0,1-.97-.49,1.2,1.2,0,0,1-.219-.894,1.2,1.2,0,0,1,.478-.786l3.991-2.94.81-.6.82.6,3.99,2.94a1.21,1.21,0,0,1,.261,1.68Z" transform="translate(-4177.142 63.386)" fill="#004f4f"/>
    <path id="Path_40" data-name="Path 40" d="M4219.13-29.88a1.21,1.21,0,0,0-.927-.027,1.21,1.21,0,0,0-.673.637h0l-.021.047a10.981,10.981,0,0,1-1.231,2.1,9.6,9.6,0,0,1-3.674,2.9,11.1,11.1,0,0,1-2.2.7,11.234,11.234,0,0,1-2.293.185c-.381.014-.771-.055-1.151-.072l-.526-.088-.516-.123a8.779,8.779,0,0,1-3.651-2.068,14.318,14.318,0,0,1-4.057-7.141c.086,0,.171.013.255.018a25.779,25.779,0,0,0,5.957-.338,12.7,12.7,0,0,0,3.1-1.022,9.281,9.281,0,0,0,2.86-2.159,8.733,8.733,0,0,0,1.8-3.273,8.991,8.991,0,0,0,.355-1.915,7.063,7.063,0,0,0-.2-2.084,6.243,6.243,0,0,0-2.347-3.417,8.312,8.312,0,0,0-3.4-1.419,13.338,13.338,0,0,0-3.361-.211,10.585,10.585,0,0,0-1.663.225c-.271.054-.562.138-.812.21l-.737.224a12.317,12.317,0,0,0-5.659,3.748,15.086,15.086,0,0,0-3,5.907,16.837,16.837,0,0,0-.5,2.621,20.619,20.619,0,0,1-3.027-.771h-.011c-.014-.006-.029-.009-.043-.014a.952.952,0,0,0-.725.08.952.952,0,0,0-.456.569.952.952,0,0,0,.08.725.953.953,0,0,0,.57.455c1.181.344,2.356.62,3.539.863a13.563,13.563,0,0,0,.257,2.324,16.661,16.661,0,0,0,7.669,10.789,15.07,15.07,0,0,0,6.439,2.115c.286.021.571.029.854.041l.85-.019c.539-.053,1.07-.062,1.6-.161a15.812,15.812,0,0,0,3.125-.783,15.047,15.047,0,0,0,2.865-1.458,13.753,13.753,0,0,0,2.419-2.065,12.491,12.491,0,0,0,2.932-5.436,1.21,1.21,0,0,0-.669-1.419Zm-21.254-7.2a16.96,16.96,0,0,1,.966-4.314,6,6,0,0,1,2.508-3.4l.546-.272a4.787,4.787,0,0,1,.5-.2,4.331,4.331,0,0,1,1.058-.212,3.758,3.758,0,0,1,2.081.423,3.076,3.076,0,0,1,1.712,2.589c.014.2.021.417.02.654a4.374,4.374,0,0,1-.108.8,5.258,5.258,0,0,1-.645,1.624,7.283,7.283,0,0,1-3.214,2.632,15.628,15.628,0,0,1-4.914,1.318c-.176.021-.353.029-.528.045a14.731,14.731,0,0,1,.013-1.687Z" transform="translate(-4177.143 63.386)" fill="#004f4f"/>
  </g>
</svg>
