<svg xmlns="http://www.w3.org/2000/svg" xmlns:xlink="http://www.w3.org/1999/xlink" width="26" height="19" viewBox="0 0 26 19">
  <defs>
    <clipPath id="clip-path">
      <rect id="Rectangle_5" data-name="Rectangle 5" width="26" height="19" fill="#fff" stroke="#707070" stroke-width="1"/>
    </clipPath>
  </defs>
  <g id="Mask_Group_3" data-name="Mask Group 3" clip-path="url(#clip-path)">
    <g id="noun-schedule-6390862" transform="translate(0 0.902)">
      <g id="Group_92" data-name="Group 92" transform="translate(0.624 0)">
        <path id="Path_69" data-name="Path 69" d="M34.239,131.429H36.5a.371.371,0,0,1,.378.364v1.025h.934a2.633,2.633,0,0,1,2.676,2.573v2.214a.378.378,0,0,1-.756,0v-1.157H21.917v8.15a1.888,1.888,0,0,0,1.92,1.846H34.9a.364.364,0,1,1,0,.727H23.837A2.633,2.633,0,0,1,21.16,144.6V135.39a2.632,2.632,0,0,1,2.677-2.573h.934v-1.025a.371.371,0,0,1,.378-.364h2.265a.371.371,0,0,1,.378.364v1.025h6.07v-1.025a.371.371,0,0,1,.378-.363Zm1.887.727H34.617v2.05h1.508v-2.05Zm-9.091,0H25.527v2.05h1.508Zm.708,9.881h2.182a.371.371,0,0,1,.378.364v2.1a.371.371,0,0,1-.378.364H27.743a.371.371,0,0,1-.378-.364v-2.1A.371.371,0,0,1,27.743,142.037Zm-3.985,0H25.94a.371.371,0,0,1,.378.364v2.1a.371.371,0,0,1-.378.364H23.76a.371.371,0,0,1-.378-.364v-2.1a.371.371,0,0,1,.378-.364Zm7.969-4.007H33.91a.371.371,0,0,1,.378.364v2.1a.371.371,0,0,1-.378.364H31.728a.386.386,0,0,1-.268-.106.357.357,0,0,1-.111-.257v-2.1a.371.371,0,0,1,.378-.364Zm-3.985,0h2.182a.371.371,0,0,1,.378.364v2.1a.371.371,0,0,1-.378.364H27.743a.371.371,0,0,1-.378-.364v-2.1a.371.371,0,0,1,.378-.364Zm-3.985,0H25.94a.371.371,0,0,1,.378.364v2.1a.371.371,0,0,1-.378.364H23.76a.371.371,0,0,1-.378-.364v-2.1a.371.371,0,0,1,.378-.364Zm15.978,3.3a.378.378,0,0,1,.756,0v1.928l.828.8a.354.354,0,0,1,0,.514.389.389,0,0,1-.535,0l-.938-.9a.355.355,0,0,1-.111-.257Zm4.022,2.443a.364.364,0,1,1,0-.727h.328a3.915,3.915,0,0,0-3.595-3.456v.315a.378.378,0,0,1-.756,0v-.315a3.917,3.917,0,0,0-3.594,3.456h.327a.364.364,0,1,1,0,.727h-.327a3.914,3.914,0,0,0,3.594,3.456v-.315a.378.378,0,0,1,.756,0v.315a3.916,3.916,0,0,0,3.594-3.456Zm-3.645-4.926a4.7,4.7,0,0,1,4.653,3.675,4.529,4.529,0,0,1-2.841,5.1,4.853,4.853,0,0,1-5.761-1.683,4.433,4.433,0,0,1,.593-5.762,4.835,4.835,0,0,1,3.357-1.336Z" transform="translate(-21.16 -131.429)"/>
      </g>
      <text id="Created_by_EX_Liberus" data-name="Created by EX Liberus" transform="translate(0 21.548)" font-size="1" font-family="Arial-BoldMT, Arial" font-weight="700"><tspan x="0" y="0">Created by EX Liberus</tspan></text>
      <text id="from_the_Noun_Project" data-name="from the Noun Project" transform="translate(0 21.69)" font-size="1" font-family="Arial-BoldMT, Arial" font-weight="700"><tspan x="0" y="0">from the Noun Project</tspan></text>
    </g>
  </g>
</svg>
