<svg id="Group_93" data-name="Group 93" xmlns="http://www.w3.org/2000/svg" xmlns:xlink="http://www.w3.org/1999/xlink" width="26" height="19" viewBox="0 0 26 19">
  <defs>
    <clipPath id="clip-path">
      <rect id="Rectangle_5" data-name="Rectangle 5" width="26" height="19" fill="#fff" stroke="#707070" stroke-width="1"/>
    </clipPath>
  </defs>
  <g id="Mask_Group_3" data-name="Mask Group 3" clip-path="url(#clip-path)">
    <g id="noun-schedule-6390862" transform="translate(0 0.013)">
      <g id="Group_92" data-name="Group 92" transform="translate(0.627 0)">
        <path id="Path_69" data-name="Path 69" d="M34.7,131.429h2.343a.4.4,0,0,1,.391.4v1.138H38.4a2.821,2.821,0,0,1,2.77,2.857v2.459a.391.391,0,1,1-.783,0V137H21.943v9.05a2.023,2.023,0,0,0,1.987,2.05H35.381a.4.4,0,0,1,0,.807H23.93a2.822,2.822,0,0,1-2.77-2.857V135.828a2.821,2.821,0,0,1,2.77-2.857H24.9v-1.138a.4.4,0,0,1,.391-.4h2.344a.4.4,0,0,1,.392.4v1.138H34.3v-1.138A.4.4,0,0,1,34.7,131.429Zm1.952.807H35.087v2.277h1.561v-2.277Zm-9.408,0H25.679v2.277H27.24Zm.733,10.972h2.258a.4.4,0,0,1,.391.4v2.33a.4.4,0,0,1-.391.4H27.973a.4.4,0,0,1-.391-.4v-2.33A.4.4,0,0,1,27.973,143.209Zm-4.124,0h2.258a.4.4,0,0,1,.391.4v2.33a.4.4,0,0,1-.391.4H23.85a.4.4,0,0,1-.391-.4v-2.33a.4.4,0,0,1,.391-.4ZM32.1,138.76h2.258a.4.4,0,0,1,.391.4v2.33a.4.4,0,0,1-.391.4H32.1a.385.385,0,0,1-.277-.118.41.41,0,0,1-.115-.286v-2.33a.4.4,0,0,1,.392-.4Zm-4.124,0h2.258a.4.4,0,0,1,.391.4v2.33a.4.4,0,0,1-.391.4H27.973a.4.4,0,0,1-.391-.4v-2.33a.4.4,0,0,1,.391-.4Zm-4.124,0h2.258a.4.4,0,0,1,.391.4v2.33a.4.4,0,0,1-.391.4H23.85a.4.4,0,0,1-.391-.4v-2.33a.4.4,0,0,1,.391-.4Zm20.7,6.374a.4.4,0,0,1,0-.807h.339a4.2,4.2,0,0,0-3.72-3.838v.349a.391.391,0,1,1-.783,0v-.349a4.2,4.2,0,0,0-3.719,3.838H37a.4.4,0,0,1,0,.807h-.339a4.2,4.2,0,0,0,3.72,3.838v-.349a.391.391,0,1,1,.783,0v.349a4.2,4.2,0,0,0,3.72-3.837Zm-3.772-5.47a4.953,4.953,0,0,1,4.815,4.081,5.1,5.1,0,0,1-2.94,5.668,4.828,4.828,0,0,1-5.962-1.869,5.188,5.188,0,0,1,.614-6.4,4.827,4.827,0,0,1,3.475-1.484Z" transform="translate(-21.16 -131.429)"/>
      </g>
      <text id="Created_by_EX_Liberus" data-name="Created by EX Liberus" transform="translate(0 23.818)" font-size="1" font-family="Arial-BoldMT, Arial" font-weight="700"><tspan x="0" y="0">Created by EX Liberus</tspan></text>
      <text id="from_the_Noun_Project" data-name="from the Noun Project" transform="translate(0 23.975)" font-size="1" font-family="Arial-BoldMT, Arial" font-weight="700"><tspan x="0" y="0">from the Noun Project</tspan></text>
    </g>
  </g>
  <path id="presence-available-16-filled-svgrepo-com" d="M2.421,4.842A2.421,2.421,0,1,1,4.842,2.421,2.421,2.421,0,0,1,2.421,4.842ZM3.543,2.03A.3.3,0,0,0,3.115,1.6l-1,1-.39-.391a.3.3,0,0,0-.429.426L1.9,3.24a.3.3,0,0,0,.428,0Z" transform="translate(17.846 11.032)" fill="#0c6a2e"/>
</svg>
