<svg xmlns="http://www.w3.org/2000/svg" xmlns:xlink="http://www.w3.org/1999/xlink" width="21" height="19" viewBox="0 0 21 19">
  <defs>
    <clipPath id="clip-path">
      <rect id="Rectangle_6" data-name="Rectangle 6" width="21" height="19" transform="translate(1981.235 -1143.69)" fill="#fff" stroke="#707070" stroke-width="1"/>
    </clipPath>
  </defs>
  <g id="Mask_Group_4" data-name="Mask Group 4" transform="translate(-1981.235 1143.69)" clip-path="url(#clip-path)">
    <g id="noun-price-range-4960922" transform="translate(1981 -1143.976)">
      <g id="Group_94" data-name="Group 94" transform="translate(1.269 0)">
        <path id="Path_70" data-name="Path 70" d="M14.875,16.125a.958.958,0,0,0,.952-.958v-.9a3.281,3.281,0,0,0,2.5-3.1c0-2.006-1.517-2.964-2.628-3.662-.952-.6-1.4-.933-1.4-1.4a.33.33,0,0,1,.114-.254.73.73,0,0,1,.52-.171c.343,0,.546.159.952.635a.946.946,0,0,0,1.345.1A.965.965,0,0,0,17.35,5.05a3.554,3.554,0,0,0-1.523-1.142V2.962a.952.952,0,0,0-1.9,0v.984a2.539,2.539,0,0,0-.806.5A2.259,2.259,0,0,0,12.4,6.1c0,1.58,1.269,2.38,2.285,3.021s1.739,1.142,1.739,2.044a1.384,1.384,0,0,1-1.4,1.269,2.113,2.113,0,0,1-1.853-1.269.939.939,0,0,0-1.269-.451.958.958,0,0,0-.451,1.269,4.119,4.119,0,0,0,2.475,2.177v.965a.952.952,0,0,0,.952,1Z" transform="translate(-5.418 -2.01)"/>
        <path id="Path_71" data-name="Path 71" d="M3.9,21.93a1.9,1.9,0,0,0-1.9,1.9v2.539a1.9,1.9,0,1,0,3.808,0V23.878A1.9,1.9,0,0,0,3.9,21.93Zm.635,4.487a.635.635,0,1,1-1.269,0V23.878a.635.635,0,1,1,1.269,0Z" transform="translate(-2 -9.288)"/>
        <path id="Path_72" data-name="Path 72" d="M22.13,21.93a1.9,1.9,0,0,0-1.9,1.9v.317H11a.965.965,0,0,0,0,1.9h9.222v.362a1.9,1.9,0,1,0,3.808,0V23.878a1.9,1.9,0,0,0-1.9-1.948Zm.635,4.487a.635.635,0,1,1-1.269,0V23.878a.635.635,0,1,1,1.269,0Z" transform="translate(-4.994 -9.288)"/>
      </g>
      <text id="Created_by_Martins_Ratkus" data-name="Created by Martins Ratkus" transform="translate(0 28.65)" font-size="2" font-family="Arial-BoldMT, Arial" font-weight="700"><tspan x="0" y="0">Created by Martins Ratkus</tspan></text>
      <text id="from_the_Noun_Project" data-name="from the Noun Project" transform="translate(0.235 32.286)" font-size="2" font-family="Arial-BoldMT, Arial" font-weight="700"><tspan x="0" y="0">from the Noun Project</tspan></text>
    </g>
  </g>
</svg>
