<svg xmlns="http://www.w3.org/2000/svg" height="800" width="1200" viewBox="-11.78973 -20.50445 102.17766 123.0267"><path d="M50.644 55.095h12.0725V15.2475H51.6677V40.075l-3.2062-3.14V17.1438C48.404 5.5138 49.7927 0 49.7927 0c-3.7412 0-5.68 3.5425-6.1137 4.59-2.1.2313-3.8213 1.4413-4.9738 3.7938-.6512 1.33-.9762 2.62-1.0925 3.2512-4.4262 1.02-4.81 8.9025-4.5187 10.3188l-6.8738-6.7063h-12.04V55.095h11.0475V31.0138l5.3413 5.06c.4862 1.4512.9575 2.0325.9575 2.0325l-2.0975-1.7975c-.3788 3.9087.7212 5.9137 1.7412 7.395l-2.5487-2.1613c-.1988 3.8813 1.675 6.2625 2.8237 7.285l-3.3712-1.6537c-.2313 2.3237 2.1 5.7262 3.4525 6.3825l-2.8438-.4238c.6188 3.2025 2.8438 4.3538 2.8438 4.3538s-4.8575-.1013-7.0925-.1013c-6.2163 0-10.2975.5888-10.2975.5888s2.7512 2.735 6.2662 2.8612l-3.13 1.9313c2.2725.7412 4.4338.4837 4.4338.4837l-1.8088 2.1625s5.6925-2.1875 8.0938-2.0212c1.9137.1325 10.84 3.6125 16.8337 3.6125 4.0213 0 6.9363-1.5388 9.2763-2.7763 1.4287-.7537 2.6612-1.365 3.875-1.5512 2.1725-.3338 3.1512.4575 3.1512.4575.2213-.9138.8938-3.2213-2.63-3.7863-.1375-.6275-.7475-1.4475-1.66-1.585-1.8925-.2875-9.8575-.9012-10.09-.915-.6837-.0412-2.9812-.485-.8687-3.5112.16-.2288 1.2275-1.5738 1.2275-1.5738zm-.2838 2.9775c2.615.2013 4.4725.3763 6.3388.61.705.0888.985.9038 1.0787 1.2863-.8937-.2213-2.3062-.28-2.3062-.28l-.0775.8462s1.2075-.345 2.53-.36c0 0 2.7137-.0125 2.5837 1.82-.7387-.5125-2.2537-.3087-2.6812-.2375-1.3638.2238-2.6588.855-4.1588 1.6475-1.3737.725-2.855 1.505-4.5937 2.0325.7612-.74 2.7525-2.9362 2.7525-2.9362l-2.6538-.925 2.1725-1.895-3.3375-1.8063c.8325.07 1.6213.1425 2.3525.1975m-3.8575-7.1375c-1.23 1.4263-2.825 3.4538-2.48 4.9325 0 0 0 .0013.0013.0013.2562 1.225 1.9837 1.9787 1.9837 1.9787l3.715 2.0138-2.4112 2.1037 2.8925.9125s-2.6513 2.7188-2.9563 2.9913a14.503 14.503 0 01-2.4225.2037c-6.1375 0-14.6725-3.6225-16.7837-3.6487-2.5463-.0313-5.7438 1.4375-5.7438 1.4375l1.6688-1.8088s-2.185.4425-4.3038.2638l2.9875-2.03c-2.625-.085-4.9237-.8663-6.0062-1.6325 0 0 4.8312-.3825 11.3837-.3125 2.6513.0287 7.145.2937 7.145.2937-2.2212-.9437-4.2987-2.1875-5.19-4.3737l4.2375.6387c-1.7787-1.0887-4.3612-3.815-4.8375-5.9262l4.7238 1.6562c-.8375-.91-3.76-3.645-4.285-6.8162l3.7387 2.3525c-.98-.9875-3.635-6.2275-3.1837-7.76l3.485 2.3437c-1.6688-2.0637-3.6213-7.53-2.2925-9.6587 1.06 4.12 3.4187 5.62 3.4187 5.62-1.5487-2.2438-4.8887-10.1888-1.6987-13.6875.8375 7.9237 4.2062 10.5987 4.2062 10.5987-2.7887-4.4437-5.965-18.0837-.04-20.8425-1.16 8.7638 1.64 13.5275 1.64 13.5275-1.7675-8.0737-1.7087-19.515 4.29-20.56-2.9462 8.625-.8525 15.2775-.8525 15.2775-.43-20.1762 6.07-19.835 6.07-19.835S47.534 6.9188 47.534 17.1288v29.485c0 2.0362-.175 3.25-1.0313 4.3212" fill="#204d9b"/><path d="M50.3995 58.0821c2.615.2013 4.4725.3763 6.3375.6113.7063.0887.9863.905 1.0788 1.2875-.8925-.2213-2.305-.2813-2.305-.2813l-.0775.8488s1.2075-.3463 2.53-.3613c0 0 2.7137-.0125 2.5837 1.8225-.74-.5137-2.255-.3087-2.6825-.2375-1.3625.2238-2.6587.855-4.1587 1.6488-1.3725.7262-2.8538 1.5075-4.5925 2.0362.7612-.7412 2.7525-2.9412 2.7525-2.9412l-2.6538-.925 2.1725-1.8975-3.3387-1.8088c.8337.07 1.6212.1425 2.3537.1975m-3.8587-7.1462c-1.2288 1.4275-2.825 3.4575-2.4788 4.9387v.0013c.2563 1.2262 1.985 1.9812 1.985 1.9812l3.715 2.0163-2.4112 2.1062 2.8925.9138s-2.6525 2.7225-2.9563 2.995c-.7575.1275-1.56.2037-2.4225.2037-6.1387 0-14.6737-3.6262-16.785-3.6537-2.545-.03-5.7437 1.4387-5.7437 1.4387l1.67-1.81s-2.185.4438-4.305.2638l2.9875-2.0325c-2.6238-.085-4.9225-.8675-6.005-1.6338 0 0 4.8312-.3837 11.3837-.3137 2.65.0287 7.145.295 7.145.295-2.2212-.945-4.2987-2.1913-5.19-4.3788l4.2363.6388c-1.7788-1.0913-4.36-3.8213-4.8363-5.935l4.7238 1.66c-.8388-.9125-3.76-3.6513-4.285-6.825l3.7387 2.355c-.98-.9888-3.6362-6.2363-3.1837-7.77l3.485 2.3462c-1.6688-2.0662-3.6213-7.5387-2.2925-9.6712 1.0587 4.125 3.4175 5.6275 3.4175 5.6275-1.5475-2.2463-4.8875-10.2025-1.6988-13.705.8388 7.9337 4.2063 10.6125 4.2063 10.6125-2.7875-4.4488-5.9638-18.1075-.0388-20.8688-1.1612 8.775 1.64 13.545 1.64 13.545-1.7675-8.085-1.71-19.54 4.29-20.5862-2.9462 8.6362-.8537 15.2962-.8537 15.2962-.4288-20.2012 6.07-19.86 6.07-19.86s-1.0675 5.735-1.0675 15.9588v29.5225c0 2.0387-.175 3.255-1.0325 4.3275" fill="#fff"/><path d="M26.7735 71.0394c.6975 0 1.2738.5387 1.2738 1.2037s-.5763 1.2038-1.2738 1.2038c-.6962 0-1.2725-.5388-1.2737-1.2038 0-.665.5775-1.2037 1.2737-1.2037m32.56.0002c.6975 0 1.2737.5388 1.2737 1.2038s-.5762 1.2037-1.2737 1.2037c-.6938 0-1.2738-.5387-1.2738-1.2037s.58-1.2038 1.2738-1.2038M15.966 78.5875h-.1913c-.3325 0-1.1362.04-1.7425.2062-.4187.115-.7675.39-.7675.7725 0 .54.54.7763 1.0263.7763 1.0487 0 1.675-.6638 1.675-1.5263zm2.0362-1.255V81.84h-1.9737v-.7575c-.5163.555-1.15.9062-2.1388.9337-1.555.045-2.78-.9025-2.78-2.32 0-2.1812 2.3238-2.6612 4.6-2.66h.2563c0-.6037-.2675-1.1612-1.4688-1.1612-.8162 0-1.5087.2612-2.0012.7162l-1.1938-1.1924c.8225-.8088 1.9775-1.2225 3.2525-1.2225 1.2625 0 1.9563.1787 2.6625.8125.6663.5975.785 1.72.785 2.3437m4.3481-2.978v-2.36H20.224v2.36h-1.4662v1.78h1.4662v3.1775c0 1.0638.18 1.6963.6038 2.12.4.3975 1.0075.585 1.9087.585.5713 0 1.1475-.1137 1.595-.3062V80.027c-.2687.09-.6612.15-1.1512.15-.66 0-.83-.3612-.83-.9687v-3.0738h1.9812v-1.78zm53.9854 2.9036c-.0937-.815-.5425-1.4125-1.605-1.3912-.9025.02-1.5175.63-1.6137 1.3912zm2.2625.9725v.565h-5.485c.0363.765.9 1.4225 1.9175 1.46.9513.0388 1.4713-.3362 1.9613-.8687l1.3525.9887c-.8213 1.0388-1.8363 1.6413-3.275 1.6413-2.28 0-4.1425-1.4163-4.1425-3.9188 0-2.0012 1.2462-3.9212 3.8762-3.9212 2.7075 0 3.795 2.1012 3.795 4.0537M7.485 70.9773v7.375l-4.6062-7.375H0V81.841h2.3413v-7.6237L7.075 81.841h2.75V70.9773zm47.775 3.3776l-1.2062 4.65-1.2075-4.65H50.615l-1.165 4.6387-1.2075-4.6387H45.89l2.3975 7.4862h2.135l1.2838-4.7062L53.15 81.841h1.9775l2.3888-7.4862zm-27.4097.0013H25.699v7.485h2.1513zm32.5625 0H58.259v7.485h2.1538zm-15.8494.5073c-.4525-.47-1.015-.6913-1.8488-.685-.8225.005-1.7762.405-2.2275.9912v-.8125h-2.0625v7.4838h2.1525v-4.0675c0-.5288.145-.92.395-1.1963.2175-.245.535-.4.9375-.4237.4875-.0288.7463.1825.9313.4175.2312.2912.2937.8.2937 1.485v3.785h2.1513v-4.6738c0-.915-.1175-1.6737-.7225-2.3037m23.0411 3.2352c0-1.0074-.6525-2.025-1.9037-2.025-1.2463 0-1.8988 1.0175-1.8988 2.025 0 1.0026.6525 2.0226 1.8988 2.0226 1.2525 0 1.9037-1.02 1.9037-2.0226m2.0938-7.1212v10.8637h-2.0288v-.8325c-.4737.5463-1.2487 1.0088-2.3237 1.0088-1.0338 0-1.9313-.3475-2.5938-1.0112-.7112-.71-1.105-1.745-1.105-2.9076 0-2.2737 1.5238-3.9212 3.6288-3.9212.9187 0 1.6825.2825 2.2675.835v-4.035zm-36.5578 5.0963c-1.2487 0-1.8987 1.0175-1.8987 2.0225 0 1.0062.65 2.0237 1.8987 2.0237 1.245 0 1.8988-1.0175 1.8988-2.0237 0-1.005-.6538-2.0225-1.8988-2.0225m4.05 2.0225c0 2.2725-1.7 3.9212-4.05 3.9212-2.3487 0-4.05-1.6487-4.05-3.9212s1.7013-3.92 4.05-3.92c2.35 0 4.05 1.6475 4.05 3.92" fill="#1d1d1b"/></svg>