<svg xmlns="http://www.w3.org/2000/svg" xmlns:xlink="http://www.w3.org/1999/xlink" width="825" height="601" viewBox="0 0 825 601">
  <defs>
    <clipPath id="clip-path">
      <rect id="Rectangle_10" data-name="Rectangle 10" width="825" height="601" transform="translate(2364 -1225)" fill="#fff" stroke="#707070" stroke-width="1"/>
    </clipPath>
  </defs>
  <g id="Group_130" data-name="Group 130" transform="translate(-2364 1225)">
    <g id="Mask_Group_8" data-name="Mask Group 8" clip-path="url(#clip-path)">
      <g id="noun-schedule-6390862" transform="translate(2364 -1356.43)">
        <g id="Group_127" data-name="Group 127">
          <path id="Path_92" data-name="Path 92" d="M465.04,131.43H541.9a12.837,12.837,0,0,1,12.83,12.83v36.18h31.7a91.041,91.041,0,0,1,90.82,90.8v78.18a12.83,12.83,0,0,1-25.66,0V308.58H46.83V596.25a65.28,65.28,0,0,0,65.16,65.15H487.52a12.83,12.83,0,0,1,0,25.66H111.99a91.058,91.058,0,0,1-90.83-90.81V271.24a91.041,91.041,0,0,1,90.83-90.8h31.7V144.26a12.837,12.837,0,0,1,12.83-12.83h76.85a12.84,12.84,0,0,1,12.84,12.83v36.18h206V144.26a12.837,12.837,0,0,1,12.83-12.83Zm64.02,25.66H477.87v72.36h51.19V157.09Zm-308.52,0H169.35v72.36h51.19V157.09Zm24.03,348.75h74.05a12.837,12.837,0,0,1,12.83,12.83v74.05a12.831,12.831,0,0,1-12.83,12.83H244.57a12.831,12.831,0,0,1-12.83-12.83V518.67a12.837,12.837,0,0,1,12.83-12.83Zm-135.23,0H183.4a12.837,12.837,0,0,1,12.83,12.83v74.05a12.831,12.831,0,0,1-12.83,12.83H109.34a12.831,12.831,0,0,1-12.83-12.83V518.67A12.837,12.837,0,0,1,109.34,505.84ZM379.8,364.43h74.05a12.837,12.837,0,0,1,12.83,12.83v74.05a12.831,12.831,0,0,1-12.83,12.83H379.8a12.833,12.833,0,0,1-12.84-12.83V377.26a12.84,12.84,0,0,1,12.84-12.83Zm-270.46,0H183.4a12.837,12.837,0,0,1,12.83,12.83v74.05a12.831,12.831,0,0,1-12.83,12.83H109.34a12.831,12.831,0,0,1-12.83-12.83V377.26a12.837,12.837,0,0,1,12.83-12.83ZM788.13,567.01a12.83,12.83,0,0,1,0-25.66h11.12a135.393,135.393,0,0,0-122-121.99v11.11a12.83,12.83,0,0,1-25.66,0v-11.1A135.449,135.449,0,0,0,529.62,541.35h11.1a12.83,12.83,0,0,1,0,25.66H529.61A135.352,135.352,0,0,0,651.59,688.99V677.88a12.83,12.83,0,0,1,25.66,0v11.1A135.423,135.423,0,0,0,799.24,567.01H788.13ZM664.42,393.11a161.048,161.048,0,1,1-113.89,47.17,160.759,160.759,0,0,1,113.89-47.17Z"/>
          <g id="Group_128" data-name="Group 128" transform="translate(200 344.247)">
            <g id="Group_118" data-name="Group 118" transform="translate(21.831 27.053)">
              <path id="Path_88" data-name="Path 88" d="M115.085,29.362,58.022,84.554,39.313,54.62c-2.806-4.677-8.419-5.613-13.1-2.806S20.6,60.232,23.41,64.91l25.258,40.225c1.871,2.806,3.742,3.742,6.548,4.677h.935a8.492,8.492,0,0,0,6.548-2.806L128.182,44.33a9.043,9.043,0,0,0,0-13.1A8.477,8.477,0,0,0,115.085,29.362Z" transform="translate(-21.831 -27.053)" stroke="#000" stroke-width="20"/>
            </g>
          </g>
        </g>
        <text id="Created_by_EX_Liberus" data-name="Created by EX Liberus" transform="translate(0 861.66)" font-size="5" font-family="Arial-BoldMT, Arial" font-weight="700"><tspan x="0" y="0">Created by EX Liberus</tspan></text>
        <text id="from_the_Noun_Project" data-name="from the Noun Project" transform="translate(0 866.66)" font-size="5" font-family="Arial-BoldMT, Arial" font-weight="700"><tspan x="0" y="0">from the Noun Project</tspan></text>
      </g>
    </g>
    <g id="Group_129" data-name="Group 129" transform="translate(2943 -882.182)">
      <g id="Group_118-2" data-name="Group 118" transform="translate(21.831 27.053)">
        <path id="Path_88-2" data-name="Path 88" d="M143.293,30.06,68.969,101.948,44.6,62.958c-3.655-6.092-10.966-7.311-17.058-3.655s-7.311,10.966-3.655,17.058l32.9,52.392c2.437,3.655,4.874,4.874,8.529,6.092h1.218a11.061,11.061,0,0,0,8.529-3.655l85.29-81.635a11.778,11.778,0,0,0,0-17.058C156.7,26.405,148.167,25.187,143.293,30.06Z" transform="translate(-21.831 -27.053)" stroke="#000" stroke-width="20"/>
      </g>
    </g>
  </g>
</svg>
