<svg xmlns="http://www.w3.org/2000/svg" width="239.025" height="233.855" viewBox="0 0 239.025 233.855">
  <g id="Group_146" data-name="Group 146" transform="translate(-2641.486 -695.485)">
    <g id="freepik--character-1--inject-266" transform="translate(2606.73 627.071)">
      <path id="Path_99" data-name="Path 99" d="M273,265.81l-15.67-31.68a116.39,116.39,0,1,0-24,34.13v.06Z" fill="#fafafa" stroke="#fff" stroke-width="1"/>
      <path id="Path_100" data-name="Path 100" d="M273,265.81l-39.66,2.62h-.21l.11-.19v-.06l.18.14a121.445,121.445,0,0,1-9.12,8.11c-1.66,1.4-3.5,2.68-5.33,4.06a69.341,69.341,0,0,1-5.9,3.91,115,115,0,0,1-29.08,13,117.69,117.69,0,0,1-36.9,4.49,115.711,115.711,0,0,1-40.88-9.17A116.305,116.305,0,0,1,36.05,172.28c.19-2.26.63-4.5,1-6.76s.9-4.47,1.37-6.72a116.6,116.6,0,0,1,25.49-49.57l2.41-2.65,1.2-1.33,1.27-1.26,2.52-2.52L73.93,99a114.32,114.32,0,0,1,23-16.12c2-1.14,4.12-2.08,6.2-3.09s4.23-1.81,6.33-2.71c2.16-.75,4.28-1.6,6.45-2.27s4.33-1.39,6.54-1.89a119.27,119.27,0,0,1,26.41-3.73,116.43,116.43,0,0,1,110.73,72.45,121.559,121.559,0,0,1,5.8,18.57c.31,1.54.61,3.06.91,4.57s.46,3,.7,4.52l.33,2.24c.08.74.15,1.48.23,2.22.17,1.47.28,2.93.36,4.39a115.88,115.88,0,0,1-2.33,31.75,119.266,119.266,0,0,1-3.68,13.1c-1.4,4-2.93,7.75-4.47,11.14v-.09c10.08,20.55,15.23,31,15.57,31.72-.35-.69-5.55-11.14-15.77-31.63h0c1.53-3.39,3-7.09,4.43-11.13a116.16,116.16,0,0,0,5.88-44.8c-.09-1.45-.2-2.91-.37-4.38l-.24-2.21-.33-2.23c-.24-1.48-.39-3-.71-4.5s-.6-3-.91-4.56a120.429,120.429,0,0,0-5.8-18.5,116,116,0,0,0-110.36-72.1,119,119,0,0,0-26.3,3.72c-2.19.5-4.33,1.24-6.5,1.88s-4.27,1.52-6.42,2.27c-2.1.9-4.24,1.71-6.31,2.7s-4.16,1.93-6.17,3.08a113.5,113.5,0,0,0-22.85,16l-2.61,2.39-2.51,2.51-1.26,1.26-1.2,1.32-2.4,2.64a116.658,116.658,0,0,0-25.38,49.42c-.46,2.23-1,4.45-1.36,6.69s-.77,4.47-1,6.73a116.41,116.41,0,0,0,5.91,52.07,115.2,115.2,0,0,0,26.08,42,116.88,116.88,0,0,0,37.83,26,115.51,115.51,0,0,0,40.73,9.18,117.31,117.31,0,0,0,36.78-4.44,114.8,114.8,0,0,0,29-12.88c2.08-1.24,4-2.6,5.9-3.89s3.66-2.64,5.32-4a121.513,121.513,0,0,0,9.13-8.07l.6-.57-.42.71v.06l-.1-.18Z" fill="#263238"/>
      <path id="Path_101" data-name="Path 101" d="M92,285.54l119.76-.19s-28.63,19-63,16.73C118.87,300.14,92,285.54,92,285.54Z" fill="#455a64"/>
      <path id="Path_102" data-name="Path 102" d="M144.45,205.2l6.83,25,24.95-33.69-5.88,88.34H134.73l-10.38.5s1.54-13.92,2.17-21.79A87.74,87.74,0,0,1,129.68,245C135,227.7,144.45,205.2,144.45,205.2Z" fill="#fafafa"/>
      <path id="Path_103" data-name="Path 103" d="M152.49,244.3c.09.11-3.94,3.35-9,7.24s-9.21,6.94-9.3,6.83,3.93-3.36,9-7.24S152.4,244.18,152.49,244.3Z" fill="#263238"/>
      <path id="Path_104" data-name="Path 104" d="M214.5,193.02l-19.4-9.33-7.61-9.04-10.76,11.18L148.19,284.6h48.94l6.27-16.95,11.1-65.44Z" fill="#09877c"/>
      <path id="Path_105" data-name="Path 105" d="M127.2,286l-1.31-21L185,255s10.1-48.78,16.32-56.77c5.75-7.38,13.23-4.82,13.23-4.82s6.75,4.62,5.14,22.31c-.85,9.27-4.24,41.39-5.46,53a18.59,18.59,0,0,1-2.7,7.83h0a18.54,18.54,0,0,1-15.73,8.74Z" fill="#09877c"/>
      <path id="Path_106" data-name="Path 106" d="M194.66,267.23c-.09,0-.17-.93-.6-2.36a14.09,14.09,0,0,0-7.29-8.65c-1.34-.67-2.26-.9-2.23-1a6.46,6.46,0,0,1,2.38.66,12.91,12.91,0,0,1,7.49,8.88A6.56,6.56,0,0,1,194.66,267.23Z" fill="#263238"/>
      <g id="Group_134" data-name="Group 134" opacity="0.2">
        <path id="Path_107" data-name="Path 107" d="M193.58,185.11a91.75,91.75,0,0,1-3.53,18.21l-4.44-1.3a11.56,11.56,0,0,1,1.32,9.19,34.22,34.22,0,0,1-3.84,8.72q-11,19.81-22.06,39.64l22.24-50.5-.58-9.34,4.28-.91Z"/>
      </g>
      <g id="Group_135" data-name="Group 135" opacity="0.2">
        <path id="Path_108" data-name="Path 108" d="M184.81,254.47a11.81,11.81,0,0,1,12.09,8.75,3,3,0,0,1,0,1.9,1.28,1.28,0,0,1-1.55.79,2,2,0,0,1-.86-1.15,18,18,0,0,0-10.28-9.57"/>
      </g>
      <path id="Path_109" data-name="Path 109" d="M161.19,259.09a6.561,6.561,0,0,1,.3-.81l1-2.29,3.59-8.35,12.06-27.49c1.72-3.9,3.38-7.66,4.94-11.18v.11c-.19-3.32-.38-6.44-.55-9.33v-.2h.18l4.29-.89-.14.11,5.33-10.79,1.49-2.95.41-.76a1.881,1.881,0,0,1,.15-.26.83.83,0,0,1-.1.28l-.35.79c-.34.73-.8,1.74-1.39,3l-5.17,10.87v.09h-.1l-4.28.93.18-.23q.27,4.335.6,9.33v.12c-1.56,3.53-3.21,7.29-4.93,11.19l-12.19,27.43c-1.57,3.46-2.84,6.28-3.75,8.29l-1,2.24A6.218,6.218,0,0,1,161.19,259.09Z" fill="#263238"/>
      <path id="Path_110" data-name="Path 110" d="M127.15,285.34a2.488,2.488,0,0,1-.05-.35,4.845,4.845,0,0,0-.08-1c-.07-.94-.17-2.26-.29-4-.23-3.45-.56-8.4-1-14.49v-.17h.16l42.77-7.86,15.77-2.86-.2.19c3.47-13.17,6.47-24.6,8.63-32.78,1.08-4,2-7.27,2.55-9.53.31-1.09.54-1.94.71-2.55l.19-.66.08-.21a.67.67,0,0,1,0,.23l-.15.66c-.15.62-.36,1.48-.63,2.57l-2.41,9.57c-2.11,8.19-5.06,19.64-8.45,32.82v.16h-.16L168.78,258,126,265.7l.16-.2c.33,6.1.6,11.05.79,14.51.08,1.69.14,3,.18,3.95v1A1.88,1.88,0,0,1,127.15,285.34Z" fill="#263238"/>
      <path id="Path_111" data-name="Path 111" d="M211.52,191.39c0,.09-1,.24-2.5.8a15.94,15.94,0,0,0-8.93,8.36,23.541,23.541,0,0,1-1,2.44c-.13-.03,0-.25.07-.71a10.3,10.3,0,0,1,.55-1.87,14.72,14.72,0,0,1,9.15-8.57,11,11,0,0,1,1.9-.43C211.26,191.36,211.51,191.35,211.52,191.39Z" fill="#263238"/>
      <path id="Path_112" data-name="Path 112" d="M99.76,169.16c1.75-3.23,1-16.27,3.67-15.81,3.45.59.26,14.3,0,15.55s1.59,1.55,1.72.42c.2-1.63,2.2-17.58,5.59-16.68,1.88.49,1,3.92,1,3.92s-2.92,15.46-1.3,15.83,2.85-8.54,3.57-11.78,2.72-4.45,3.49-2.81c1.12,2.4-1,10.19-1.68,13.31s-2.26,12.17,2.13,8.63,9-4.64,10.51-4.07,1.13,2.8-.55,3.24a21.23,21.23,0,0,0-5,2.68,20,20,0,0,0-3.32,3.12,17.53,17.53,0,0,0-3.14,4.88,10.94,10.94,0,0,1-6.66,6h0l-2.56,12.18-16.58-3.55,3.69-12.89c1.35-8.47.61-19.85.62-25,0-8.26,1.09-8.32,2-8.1C99.17,158.66,98.05,172.31,99.76,169.16Z" fill="#ffd1bd"/>
      <path id="Path_113" data-name="Path 113" d="M99.29,180.24a19.38,19.38,0,0,1,2.21,1,9.32,9.32,0,0,1,3.74,4.42,10.631,10.631,0,0,1,.5,1.74l.05.28.24-.13a13.7,13.7,0,0,1,4.29-1.63c1.13-.22,1.83-.24,1.83-.3a5.55,5.55,0,0,0-1.87,0,12.57,12.57,0,0,0-4.45,1.53l.29.15a9,9,0,0,0-.51-1.84,9.63,9.63,0,0,0-1.82-2.84,9.07,9.07,0,0,0-2.16-1.68,7.389,7.389,0,0,0-1.68-.67A2,2,0,0,0,99.29,180.24Z" fill="#cc8f75"/>
      <path id="Path_114" data-name="Path 114" d="M97.09,191.84a14.58,14.58,0,0,0,8.11,2.53c0-.12-1.89-.34-4.13-1.05S97.14,191.73,97.09,191.84Z" fill="#cc8f75"/>
      <path id="Path_115" data-name="Path 115" d="M157.11,179.84,144.45,205.2l6.83,24.99,18.19-19.22,17.93-33.31Z" fill="#ffd1bd"/>
      <path id="Path_116" data-name="Path 116" d="M145.19,182.22s-18,6.4-18,7.59h0c-3.18,2.49-13.77,28.1-17.14,32.94L100.41,237h0l8.08-31.54-17.77-5.22S75.54,236.86,73.7,245a30,30,0,0,0,.3,14.65l.1-.08a16.85,16.85,0,0,0,6.66,8.95c7.53,4.83,14.57,5.74,21.77.42,4.08-3,8.74-6.65,13-10.05l1.12,26.48h9.81c0-1.49-.3-19.63-.3-19.63a101.469,101.469,0,0,0,3-13.09c.89-6.24,15.51-47.22,15.51-47.22L156,183.57l.27-8.09Z" fill="#09877c"/>
      <path id="Path_117" data-name="Path 117" d="M116.44,285.14a5.289,5.289,0,0,1-.08-.82q-.06-.88-.15-2.37c-.11-2.12-.26-5.1-.45-8.78-.34-7.49-.8-17.8-1.32-29.36v-.06c.21-1.09.44-2.26.67-3.44,2.37-12.14,4.53-23.14,6.1-31.15l1.91-9.42c.22-1.08.41-1.93.54-2.56l.15-.66a1.221,1.221,0,0,1,.07-.22.58.58,0,0,1,0,.23l-.11.67-.45,2.58-1.74,9.46c-1.53,8-3.63,19-6,31.18-.22,1.17-.45,2.34-.66,3.43v-.06c.46,11.56.87,21.88,1.16,29.36.12,3.69.22,6.67.29,8.79,0,1,0,1.79.06,2.38a5.131,5.131,0,0,1,.01.82Z" fill="#263238"/>
      <path id="Path_118" data-name="Path 118" d="M126.51,261.64a4.35,4.35,0,0,1,.09-.83c.09-.58.2-1.37.35-2.36.35-2.1.83-5,1.42-8.68,1.25-7.36,3-17.44,4.86-28.59,1.27-7.29,2.46-14.13,3.48-20v-.06c2.5-5.66,4.59-10.39,6.07-13.76.73-1.62,1.32-2.91,1.74-3.85l.47-1a1.57,1.57,0,0,1,.19-.34,1.65,1.65,0,0,1-.12.36c-.11.28-.24.62-.41,1-.4.94-.94,2.25-1.62,3.89-1.45,3.39-3.48,8.15-5.9,13.84h0c-1,5.83-2.16,12.68-3.41,20-2,11.14-3.72,21.21-5,28.57-.66,3.61-1.19,6.55-1.58,8.64l-.45,2.35a6.11,6.11,0,0,1-.18.82Z" fill="#263238"/>
      <path id="Path_119" data-name="Path 119" d="M92,258.7c-.07-.05.7-1.15,1.78-3A54,54,0,0,0,97.4,248a65.169,65.169,0,0,0,2.48-8c.5-2.11.73-3.43.81-3.42a3,3,0,0,1,0,.95c-.06.61-.19,1.48-.4,2.55a49.759,49.759,0,0,1-2.35,8.19,44.429,44.429,0,0,1-3.78,7.64c-.59.93-1.09,1.65-1.47,2.13A2.206,2.206,0,0,1,92,258.7Z" fill="#263238"/>
      <g id="Group_136" data-name="Group 136" opacity="0.2">
        <path id="Path_120" data-name="Path 120" d="M93.37,257.24a1.1,1.1,0,0,0-.76,1.55,1.64,1.64,0,0,0,1.72.78,3.44,3.44,0,0,0,1.75-.95,11.9,11.9,0,0,0,3-5.34c1.53-4.82,1.6-10,1.66-15A61.32,61.32,0,0,1,93.41,257"/>
      </g>
      <g id="Group_137" data-name="Group 137" opacity="0.2">
        <path id="Path_121" data-name="Path 121" d="M115.23,259.59a26.58,26.58,0,0,1-3.63-16.2c.54-7.7,4.28-14.74,7.07-21.93-1.6,7.56-2.52,15.07-4,22.34,0,0,.77,10.81.79,15.6"/>
      </g>
      <g id="Group_138" data-name="Group 138" opacity="0.2">
        <path id="Path_122" data-name="Path 122" d="M127.65,254.77c.78-11.52,1.57-23.06,3.6-34.42a110,110,0,0,1,11.6-33.23c-1.45,4.56-5.92,14.14-5.92,14.14s-6.45,34-9.25,51.16"/>
      </g>
      <path id="Path_123" data-name="Path 123" d="M126.2,268l1.61,17.86h-8.43l-7.46-.12a52.062,52.062,0,0,1-8.56.22.9.9,0,0,1-.4-.08,6.739,6.739,0,0,1-1.3-.32h0c-.76-.28-1.54-.77-1.42-1.61.37-2.56,1.89-2.77,1.89-2.77h.76l.06-.22a20.156,20.156,0,0,1-2.64-.09c-.24,0-.38-.05-.4-.09s-3-.35-2.76-1.93C97.48,276.21,99,276,99,276l2.46-.16a21.48,21.48,0,0,1-2.73-.09c-.24,0-.38-.05-.4-.09s-3-.35-2.76-1.93c.37-2.56,1.89-2.77,1.89-2.77l2-.14a15.951,15.951,0,0,1-2.22-.08c-.24,0-.38-.05-.4-.09s-3-.35-2.76-1.93C94.49,266.15,96,266,96,266s4.7-.34,7.93-.47c0,0,3.67-3.3,5.11-3.15,2.16.23,14.7,4.86,14.7,4.86Z" fill="#ffd1bd"/>
      <path id="Path_124" data-name="Path 124" d="M110.38,280.63a16.73,16.73,0,0,1-4.18.4,16.811,16.811,0,0,1-4.14-.13,16.83,16.83,0,0,1,4.18-.41A15.939,15.939,0,0,1,110.38,280.63Z" fill="#cc8f75"/>
      <path id="Path_125" data-name="Path 125" d="M110.4,275.56a32.668,32.668,0,0,1-5.94.49,33.571,33.571,0,0,1-6-.06,32.191,32.191,0,0,1,5.94-.48,33.06,33.06,0,0,1,6,.05Z" fill="#cc8f75"/>
      <g id="Group_139" data-name="Group 139" opacity="0.78">
        <path id="Path_126" data-name="Path 126" d="M110,270.42a33.577,33.577,0,0,1-6,.48,32.571,32.571,0,0,1-6-.06,33.528,33.528,0,0,1,5.94-.48,32.649,32.649,0,0,1,6.06.06Z" fill="#cc8f75"/>
      </g>
      <path id="Path_127" data-name="Path 127" d="M102.6,265.58a8.42,8.42,0,0,0,1.89.15l4.57.15,4.57.17a9.341,9.341,0,0,0,1.9,0,7.659,7.659,0,0,0-1.88-.3c-1.17-.11-2.79-.23-4.58-.29s-3.4-.06-4.58,0A8,8,0,0,0,102.6,265.58Z" fill="#cc8f75"/>
      <path id="Path_128" data-name="Path 128" d="M195.68,120.11c2.12-5.15,8.82-7.5,14.06-5.58s8.72,7.28,9.35,12.82a11.49,11.49,0,0,1-1.6,7.88,10.65,10.65,0,0,1-7.32,4.12,14.6,14.6,0,0,1-15.43-20.23" fill="#263238"/>
      <path id="Path_129" data-name="Path 129" d="M217,120.79a3.75,3.75,0,0,1-.38.69,12.308,12.308,0,0,1-1.34,1.64,14.92,14.92,0,0,1-12.84,4.41,13.1,13.1,0,0,1-2.07-.47,2.14,2.14,0,0,1-.72-.31c0-.09,1.08.25,2.83.41a16,16,0,0,0,12.54-4.3C216.27,121.65,216.9,120.74,217,120.79Z" fill="#455a64"/>
      <path id="Path_130" data-name="Path 130" d="M219.19,126.67a4.41,4.41,0,0,1-.57.54,17.71,17.71,0,0,1-1.74,1.26,20,20,0,0,1-6.52,2.74,16.18,16.18,0,0,1-3.91.3,14.06,14.06,0,0,1-3.15-.52,10.84,10.84,0,0,1-2-.75c-.45-.22-.7-.36-.68-.39s1.06.38,2.79.79a16.15,16.15,0,0,0,3.08.4,17.61,17.61,0,0,0,3.79-.34,22.48,22.48,0,0,0,6.43-2.55C218.24,127.26,219.14,126.6,219.19,126.67Z" fill="#455a64"/>
      <path id="Path_131" data-name="Path 131" d="M141.6,135.5c-12.38-27.23,17.07-40.9,33.13-36.37,15.1,4.27,21.54,11.78,24,21.88s2.37,21-1.59,30.67c-2,4.74-5.47,9.57-10.57,10.16" fill="#263238"/>
      <path id="Path_132" data-name="Path 132" d="M156.39,202.79c-.22-13-.37-30.88-.37-30.8s-11.18-1.86-13.5-16.45c-1.15-7.25-.79-19.15-.18-28.87.56-8.76,6.35-19.49,15.08-18.57l27.23,6.9a5.13,5.13,0,0,1,4.59,5.21h0l-1.78,56.32" fill="#ffd1bd"/>
      <path id="Path_133" data-name="Path 133" d="M149,137a1.87,1.87,0,0,0,1.77,1.9,1.78,1.78,0,0,0,1.94-1.65,1.86,1.86,0,0,0-1.77-1.9A1.78,1.78,0,0,0,149,137Z" fill="#263238"/>
      <path id="Path_134" data-name="Path 134" d="M169.2,137a1.86,1.86,0,0,0,1.77,1.9,1.78,1.78,0,0,0,1.94-1.65,1.87,1.87,0,0,0-1.77-1.9A1.78,1.78,0,0,0,169.2,137Z" fill="#263238"/>
      <path id="Path_135" data-name="Path 135" d="M157.13,147.36a13.89,13.89,0,0,0-3.27-.59c-.52-.05-1-.15-1.09-.5a2.62,2.62,0,0,1,.34-1.53l1.52-3.91c2.11-5.58,3.64-10.16,3.42-10.24s-2.12,4.37-4.23,9.94c-.51,1.37-1,2.68-1.46,3.94a2.93,2.93,0,0,0-.27,2,1.3,1.3,0,0,0,.85.76,3.751,3.751,0,0,0,.87.12,12.68,12.68,0,0,0,3.32.01Z" fill="#263238"/>
      <path id="Path_136" data-name="Path 136" d="M156,172.05a37.11,37.11,0,0,0,19.54-5.22S170.59,177,156,175.62Z" fill="#cc8f75"/>
      <path id="Path_137" data-name="Path 137" d="M186.45,138.59c.22-.1,7.81-3.46,7.9,5.27s-8.7,7-8.72,6.78S186.45,138.59,186.45,138.59Z" fill="#ffd1bd"/>
      <path id="Path_138" data-name="Path 138" d="M188.27,147.3a3.31,3.31,0,0,0,.41.22,1.51,1.51,0,0,0,1.14,0c.92-.35,1.68-1.82,1.71-3.39a5.09,5.09,0,0,0-.45-2.18,1.75,1.75,0,0,0-1.16-1.15.77.77,0,0,0-.89.42c-.12.25-.06.42-.11.44s-.19-.15-.12-.51a1,1,0,0,1,.34-.55,1.16,1.16,0,0,1,.84-.23,2.14,2.14,0,0,1,1.6,1.34,5,5,0,0,1,.55,2.43c0,1.76-.92,3.41-2.18,3.79a1.59,1.59,0,0,1-1.39-.22C188.29,147.51,188.24,147.32,188.27,147.3Z" fill="#cc8f75"/>
      <path id="Path_139" data-name="Path 139" d="M157.72,153a7.94,7.94,0,0,0,1.09,2.13,2.83,2.83,0,0,0,2,1.17,2.57,2.57,0,0,0,2.19-1.2,4.15,4.15,0,0,0,.6-2.44c0-.77-.39-1.69-1.15-1.78a1.89,1.89,0,0,0-.93.21l-4,1.62" fill="#cc8f75"/>
      <path id="Path_140" data-name="Path 140" d="M159.32,156.29a5.55,5.55,0,0,0,2.15-.26,3.09,3.09,0,0,0,1.62-1.47,3.24,3.24,0,0,0,0-2.63,3,3,0,0,0-.35-.6c-.16-.17-.13-.16-.3-.13a5.607,5.607,0,0,0-.65.25l-.66.27c-.86.35-1.64.65-2.29.9a6.88,6.88,0,0,1-2.19.65,7.3,7.3,0,0,1,2-1.12c.63-.31,1.39-.66,2.23-1l.65-.29a7,7,0,0,1,.74-.3.92.92,0,0,1,.59,0,1.2,1.2,0,0,1,.45.35,4.2,4.2,0,0,1,.45.77,3.74,3.74,0,0,1-.13,3.21,3.42,3.42,0,0,1-2,1.65,3.29,3.29,0,0,1-1.74.07C159.5,156.47,159.31,156.33,159.32,156.29Z" fill="#263238"/>
      <path id="Path_141" data-name="Path 141" d="M196.25,132.61c-.9-.06-8.11.87-7.54,14.28.53,12.53,9.31,9.77,12.12,5.06C203.48,147.48,205,133.23,196.25,132.61Z" fill="#455a64"/>
      <path id="Path_142" data-name="Path 142" d="M200.71,134.2a2,2,0,0,1,0-.35v-1c0-.92-.06-2.21-.11-3.82-.06-3.29-.15-7.86-.26-13.15l.16.16h-3.8l.17-.17c0,1,.06,2.05.08,3.12.13,5,.25,9.71.34,13.64v.11h-.12a6.78,6.78,0,0,0-3.83,2.46,9.15,9.15,0,0,0-1.53,3.24,14.281,14.281,0,0,0-.39,2.29v.82a.58.58,0,0,1,0-.21v-.62a13.219,13.219,0,0,1,.32-2.32,9,9,0,0,1,1.51-3.33,7,7,0,0,1,4-2.61l-.11.14c-.11-3.92-.25-8.6-.39-13.63,0-1.07-.06-2.13-.08-3.13v-.17h4.05v.16c.06,5.28.11,9.86.15,13.15v4.82a2.452,2.452,0,0,1-.16.4Z" fill="#455a64"/>
      <path id="Path_143" data-name="Path 143" d="M196.25,115.85a28.83,28.83,0,0,0-12.77-13.19,53.539,53.539,0,0,0-10.77-4s5.25-1.24,13.74,2.53c3.85,1.72,7.74,4,10.31,7.3,1.63,2.13,3.67,6.28,3.66,7.35Z" fill="#455a64"/>
      <path id="Path_144" data-name="Path 144" d="M195.29,155.69a.72.72,0,0,1-.26-.07,4.439,4.439,0,0,1-.67-.35,5.92,5.92,0,0,1-1.89-2,9.84,9.84,0,0,1-1.16-3.93,27.909,27.909,0,0,1,0-5,30.631,30.631,0,0,1,.83-4.94,13.94,13.94,0,0,1,1.44-3.84,5.93,5.93,0,0,1,1.9-2,3.489,3.489,0,0,1,.67-.34.72.72,0,0,1,.26-.07,6.116,6.116,0,0,0-.86.52,6.26,6.26,0,0,0-1.77,2,14.659,14.659,0,0,0-1.34,3.79,32.768,32.768,0,0,0-.8,4.9,30.372,30.372,0,0,0,0,4.95,9.89,9.89,0,0,0,1.06,3.85,6.07,6.07,0,0,0,1.76,2C195,155.54,195.3,155.66,195.29,155.69Z" fill="#263238"/>
      <rect id="Rectangle_12" data-name="Rectangle 12" width="10.44" height="3.93" rx="1.7" transform="translate(157.788 155.349) rotate(-11.1)" fill="#455a64"/>
      <path id="Path_145" data-name="Path 145" d="M167.5,154.68l30.65-9.62A1.46,1.46,0,0,1,200,146h0a1.45,1.45,0,0,1-1,1.84l-31.35,8.47Z" fill="#455a64"/>
      <path id="Path_146" data-name="Path 146" d="M190.15,150.45a8.689,8.689,0,0,1,1-.35l2.8-.86c1.18-.36,2.62-.74,4.15-1.24a2.86,2.86,0,0,0,1-.62,1.51,1.51,0,0,0,.43-1.07.93.93,0,0,0-.63-.88,2.44,2.44,0,0,0-1.28,0l-9.19,3-2.8.87a7.469,7.469,0,0,1-1,.27,7.259,7.259,0,0,1,1-.4l2.77-1c2.34-.79,5.56-1.9,9.18-3a2.53,2.53,0,0,1,1.47,0,1.25,1.25,0,0,1,.85,1.18,1.8,1.8,0,0,1-.53,1.3,3.07,3.07,0,0,1-1.12.69c-1.58.5-3,.84-4.19,1.18l-2.83.75a5.66,5.66,0,0,1-1.08.18Z" fill="#263238"/>
      <path id="Path_147" data-name="Path 147" d="M174.07,132.75c-.24.37-2.34-.77-4.94-.31s-4.21,2.22-4.55,1.95c-.17-.11,0-.76.7-1.55a6.28,6.28,0,0,1,3.58-1.93,6.21,6.21,0,0,1,4,.62C173.81,132,174.19,132.59,174.07,132.75Z" fill="#cc8f75"/>
      <path id="Path_148" data-name="Path 148" d="M173.77,133.08a11.8,11.8,0,0,1-1.43-.36,7.8,7.8,0,0,0-6.57,1.49c-.71.56-1.08,1-1.14.94s.22-.56.9-1.22a6.94,6.94,0,0,1,6.9-1.55C173.33,132.66,173.8,133,173.77,133.08Z" fill="#263238"/>
      <path id="Path_149" data-name="Path 149" d="M175.12,127.21c-.22.7-2.45.65-5.1.78s-4.89.28-5.14-.4c-.12-.34.34-.85,1.25-1.31a10.13,10.13,0,0,1,7.65-.28C174.72,126.39,175.21,126.87,175.12,127.21Z" fill="#263238"/>
      <path id="Path_150" data-name="Path 150" d="M153.13,134.29c-.2.11-.59-.26-1.23-.7a6.3,6.3,0,0,0-2.65-1.07c-2.26-.37-4.08.67-4.34.3-.12-.15.19-.67,1-1.17a5.43,5.43,0,0,1,3.59-.68,4.91,4.91,0,0,1,3.19,1.84C153.25,133.59,153.3,134.2,153.13,134.29Z" fill="#cc8f75"/>
      <path id="Path_151" data-name="Path 151" d="M153.38,135.37c-.07,0-.41-.45-1.12-1.08a7,7,0,0,0-6.82-1.48c-.9.28-1.42.59-1.46.52s.41-.48,1.34-.87a6.61,6.61,0,0,1,3.84-.32,6.52,6.52,0,0,1,3.36,1.89A2.93,2.93,0,0,1,153.38,135.37Z" fill="#263238"/>
      <path id="Path_152" data-name="Path 152" d="M154.28,128.09c-.13.71-2.26.92-4.78.95s-4.66-.16-4.8-.88,2-1.71,4.78-1.73S154.42,127.39,154.28,128.09Z" fill="#263238"/>
      <path id="Path_153" data-name="Path 153" d="M177.83,107.4a28.83,28.83,0,0,0-4,7.53,9.79,9.79,0,0,0,.85,8.23c1.54,2.25,4.17,3.44,6.57,4.75s4.85,3.11,5.45,5.77c.18.83-.17,3.75.45,4.33a2.111,2.111,0,0,0,3-.67c.63-.97,1.08-4.18,1.1-5.35l.15-10.9c0-3.08,0-6.27-1.33-9-1.87-3.88-5.73-5.12-11.37-4.84" fill="#263238"/>
      <path id="Path_154" data-name="Path 154" d="M142,129.28a20.55,20.55,0,0,1,4.14-10.19,15.07,15.07,0,0,1,9.32-5.58c3.68-.56,7.4.46,11.12.67s7.94-.7,9.88-3.87c.61-1,.89-2.38.12-3.24a3.34,3.34,0,0,0-1.09-.72,28,28,0,0,0-15.9-2.57,21.93,21.93,0,0,0-13.93,7.79A18.1,18.1,0,0,0,142.14,127" fill="#263238"/>
      <path id="Path_155" data-name="Path 155" d="M139.79,123.8a1.889,1.889,0,0,1-.17-.47,9.57,9.57,0,0,1-.3-1.42,12.5,12.5,0,0,1,.5-5.3,14.09,14.09,0,0,1,4.39-6.55,18.18,18.18,0,0,1,8.8-4,24.71,24.71,0,0,1,9.66.43,33.813,33.813,0,0,1,4,1.22,32.691,32.691,0,0,0,3.43,1.25,14.75,14.75,0,0,0,5.18.46,3.85,3.85,0,0,0,1.7-.83,1.61,1.61,0,0,1-.34.38,3.11,3.11,0,0,1-1.31.65,13.77,13.77,0,0,1-5.33-.31c-1.1-.27-2.24-.76-3.47-1.19a34.571,34.571,0,0,0-4-1.16,24.77,24.77,0,0,0-9.47-.39,18,18,0,0,0-8.57,3.81,14,14,0,0,0-4.35,6.29,12.64,12.64,0,0,0-.64,5.16C139.64,123.12,139.84,123.79,139.79,123.8Z" fill="#455a64"/>
      <path id="Path_156" data-name="Path 156" d="M155.93,100.86a3,3,0,0,1,.92-.18,12.53,12.53,0,0,1,2.55,0,14.85,14.85,0,0,1,7.76,3.1c1.29,1,2.37,2.15,3.52,2.92a9.19,9.19,0,0,0,3.37,1.36,7.45,7.45,0,0,0,2.46.17c.58-.07.87-.23.9-.19a1.64,1.64,0,0,1-.86.39,6.85,6.85,0,0,1-2.57,0,9.07,9.07,0,0,1-3.57-1.32c-1.21-.79-2.32-1.91-3.57-2.91a15.58,15.58,0,0,0-7.48-3.15C157.26,100.76,155.94,101,155.93,100.86Z" fill="#455a64"/>
      <path id="Path_157" data-name="Path 157" d="M200.09,127.64a10.881,10.881,0,0,0-.62-.9,6.22,6.22,0,0,0-2.32-1.79,10,10,0,0,0-4.26-.85,33.681,33.681,0,0,0-5.39.74,19.67,19.67,0,0,1-5.53.42,15.11,15.11,0,0,1-4.4-1.06,14.351,14.351,0,0,1-2.69-1.44A3.509,3.509,0,0,1,174,122a28.811,28.811,0,0,0,3.68,1.82,16.05,16.05,0,0,0,4.31.92,20.06,20.06,0,0,0,5.39-.45,30.632,30.632,0,0,1,5.48-.71,9.89,9.89,0,0,1,4.43,1,6.07,6.07,0,0,1,2.33,2,4.759,4.759,0,0,1,.38.74C200.08,127.54,200.11,127.64,200.09,127.64Z" fill="#455a64"/>
      <path id="Path_158" data-name="Path 158" d="M198.51,120.64a7.352,7.352,0,0,0-.62-.88,5.86,5.86,0,0,0-2.33-1.64,8.68,8.68,0,0,0-4.22-.45c-1.61.16-3.36.65-5.25,1a11.41,11.41,0,0,1-5.43-.08,8.75,8.75,0,0,1-3.78-2.35,8.421,8.421,0,0,1-1.67-2.48A5.769,5.769,0,0,1,175,113a.75.75,0,0,1,0-.28,11.68,11.68,0,0,0,2.24,3.27,8.83,8.83,0,0,0,3.65,2.15,11.14,11.14,0,0,0,5.21,0c1.85-.35,3.62-.83,5.3-1a8.75,8.75,0,0,1,4.4.59,5.55,5.55,0,0,1,2.35,1.86,2.18,2.18,0,0,1,.36,1.05Z" fill="#455a64"/>
      <path id="Path_159" data-name="Path 159" d="M161,220.65l.19-.16.55-.44a24.448,24.448,0,0,0,2-1.84,34.29,34.29,0,0,0,2.87-3.34c1-1.36,2.17-3,3.4-4.82,2.46-3.64,5.34-8.08,8.4-13.19,1.53-2.56,3.11-5.29,4.7-8.17.4-.72.79-1.45,1.2-2.18a13.23,13.23,0,0,1,1.37-2.18,4.75,4.75,0,0,1,2.12-1.54,2.57,2.57,0,0,1,1.35-.15,1.4,1.4,0,0,1,.64.35,1.76,1.76,0,0,1,.35.66h0v.05a2.29,2.29,0,0,1-.47.83,1.33,1.33,0,0,1-.88.42,2.81,2.81,0,0,1-1.73-.6A2.93,2.93,0,0,1,186,181a2.56,2.56,0,0,1,1.27-1.45,2.88,2.88,0,0,1,1.89-.27,2,2,0,0,1,1.54,1.2,1,1,0,0,1-.22,1.06,1.91,1.91,0,0,1-.9.49,2.65,2.65,0,0,1-2.93-1.34,2.39,2.39,0,0,1-.18-1.72,3,3,0,0,1,.9-1.45,2.33,2.33,0,0,1,1.55-.6,1.84,1.84,0,0,1,1.48.77,1.2,1.2,0,0,1,.18.89,1.14,1.14,0,0,1-.49.75,1.77,1.77,0,0,1-1.62.2,2,2,0,0,1-1.1-1.2,4.591,4.591,0,0,1-.24-1.59,5.5,5.5,0,0,1,.79-3,2.23,2.23,0,0,1,1.25-.94,2,2,0,0,1,1.51.27,1.48,1.48,0,0,1,.76,1.35,1.38,1.38,0,0,1-1,1.16,1.61,1.61,0,0,1-1.47-.23,2.1,2.1,0,0,1-.74-1.29,2.94,2.94,0,0,1,.13-1.45,6.36,6.36,0,0,1,.49-1.32,2.51,2.51,0,0,1,.95-1,3,3,0,0,1,1.29-.44,1.32,1.32,0,0,1,.7.09,1.62,1.62,0,0,1,.53.47,1.69,1.69,0,0,1,.29.64,1,1,0,0,1-.08.73,1.16,1.16,0,0,1-1.24.48,2.13,2.13,0,0,1-1.14-.59,3.42,3.42,0,0,1-1-2.25,3.68,3.68,0,0,1,.61-2.3,2.81,2.81,0,0,1,.85-.8,2.38,2.38,0,0,1,1.09-.3,1.61,1.61,0,0,1,1.07.32,1.21,1.21,0,0,1,.45,1,1.65,1.65,0,0,1-1.44,1.4,1.74,1.74,0,0,1-1.64-.93,3,3,0,0,1-.41-1.77,10.85,10.85,0,0,1,1.09-3l1.09-2.48c.65-1.48,1.17-2.63,1.52-3.42l.4-.89a3.192,3.192,0,0,1,.15-.3,2.381,2.381,0,0,1-.12.31l-.37.9-1.46,3.45L191,163a11.07,11.07,0,0,0-1,3,2.77,2.77,0,0,0,.39,1.65,1.56,1.56,0,0,0,1.45.82,1.44,1.44,0,0,0,1.23-1.19,1,1,0,0,0-.37-.82,1.48,1.48,0,0,0-.91-.26,2.26,2.26,0,0,0-1,.28,2.67,2.67,0,0,0-.77.73,3.38,3.38,0,0,0-.55,2.13,3.12,3.12,0,0,0,.91,2.07,1.82,1.82,0,0,0,1,.51.91.91,0,0,0,1-.34,1.06,1.06,0,0,0-.19-1,1.29,1.29,0,0,0-.43-.38,1.11,1.11,0,0,0-.56-.07,2.47,2.47,0,0,0-2,1.34,6.21,6.21,0,0,0-.47,1.25,2.68,2.68,0,0,0-.11,1.31,1.74,1.74,0,0,0,.63,1.09,1.29,1.29,0,0,0,1.19.19,1.06,1.06,0,0,0,.78-.89,1.18,1.18,0,0,0-.62-1.05,1.72,1.72,0,0,0-1.27-.23,2,2,0,0,0-1.06.82,5.3,5.3,0,0,0-.73,2.82,4.18,4.18,0,0,0,.23,1.46,1.7,1.7,0,0,0,.9,1,1.47,1.47,0,0,0,1.32-.17.84.84,0,0,0,.22-1.17,1.51,1.51,0,0,0-1.21-.62,2,2,0,0,0-1.33.52,2.22,2.22,0,0,0,1.92,3.91,1.51,1.51,0,0,0,.74-.39.67.67,0,0,0,.14-.7,1.68,1.68,0,0,0-1.29-1,2.43,2.43,0,0,0-2.78,1.5,2.58,2.58,0,0,0,1,3,2.48,2.48,0,0,0,1.52.54,1.28,1.28,0,0,0,1.06-1v.09a1,1,0,0,0-.74-.76,2.31,2.31,0,0,0-1.18.14,4.41,4.41,0,0,0-2,1.43,14.571,14.571,0,0,0-1.34,2.12q-.6,1.11-1.2,2.19c-1.6,2.88-3.19,5.6-4.73,8.16-3.07,5.11-6,9.53-8.46,13.17-1.25,1.81-2.38,3.44-3.45,4.8a34.569,34.569,0,0,1-2.92,3.31A18,18,0,0,1,161,220.65Z" fill="#263238"/>
    </g>
  </g>
</svg>
