<?xml version="1.0" standalone="no"?>
<!DOCTYPE svg PUBLIC "-//W3C//DTD SVG 20010904//EN"
 "http://www.w3.org/TR/2001/REC-SVG-20010904/DTD/svg10.dtd">
<svg version="1.0" xmlns="http://www.w3.org/2000/svg"
 width="512.000000pt" height="512.000000pt" viewBox="0 0 512.000000 512.000000"
 preserveAspectRatio="xMidYMid meet">
<metadata>
Created by potrace 1.16, written by Peter Selinger 2001-2019
</metadata>
<g transform="translate(0.000000,512.000000) scale(0.100000,-0.100000)"
fill="#000000" stroke="none">
<path d="M2240 5105 c-389 -48 -766 -188 -1091 -404 -504 -335 -871 -825
-1043 -1395 -41 -132 -81 -333 -96 -468 -13 -125 -13 -431 0 -556 108 -1014
825 -1880 1804 -2176 132 -41 333 -81 468 -96 125 -13 431 -13 556 0 592 63
1141 332 1563 766 289 299 494 645 613 1038 74 243 106 468 106 746 0 209 -10
324 -46 505 -181 920 -867 1676 -1768 1949 -132 41 -333 81 -468 96 -131 14
-469 11 -598 -5z m660 -220 c245 -38 483 -113 699 -221 698 -347 1165 -991
1288 -1774 13 -84 17 -173 17 -330 0 -157 -4 -246 -17 -330 -79 -505 -296
-945 -645 -1308 l-81 -84 -43 29 c-102 70 -174 104 -592 277 -254 105 -370
185 -431 298 -29 52 -29 55 -33 256 l-5 204 36 36 c71 74 152 246 182 387 17
77 19 81 55 96 74 32 129 147 137 291 5 75 3 92 -17 133 -12 25 -30 51 -40 57
-17 11 -17 15 -4 57 78 249 107 574 70 776 -35 187 -135 330 -279 399 -39 19
-92 38 -117 42 -35 6 -54 17 -85 50 -94 99 -218 137 -440 137 -253 -1 -449
-52 -606 -160 -93 -64 -190 -190 -236 -307 -87 -224 -87 -558 1 -927 12 -51
12 -57 -4 -67 -10 -6 -28 -32 -40 -57 -20 -41 -22 -58 -17 -133 8 -145 63
-259 138 -291 35 -15 38 -20 49 -76 15 -78 45 -165 83 -240 34 -69 111 -181
129 -187 8 -3 11 -62 10 -215 -1 -233 -2 -238 -69 -320 -75 -93 -194 -159
-544 -301 -208 -85 -376 -166 -447 -214 l-43 -30 -81 84 c-349 363 -566 803
-645 1308 -24 160 -24 500 0 660 94 598 395 1129 848 1494 335 270 765 455
1179 505 47 6 101 13 120 15 75 9 420 -4 520 -19z"/>
</g>
</svg>
