<svg xmlns="http://www.w3.org/2000/svg" xmlns:xlink="http://www.w3.org/1999/xlink" width="1181" height="1282" viewBox="0 0 1181 1282">
  <defs>
    <clipPath id="clip-path">
      <rect id="Rectangle_11" data-name="Rectangle 11" width="1181" height="1282" transform="translate(2273 1080)" fill="#fff" stroke="#707070" stroke-width="1"/>
    </clipPath>
  </defs>
  <g id="Mask_Group_9" data-name="Mask Group 9" transform="translate(-2273 -1080)" clip-path="url(#clip-path)">
    <g id="noun-tag-926158" transform="translate(2433.158 1163)">
      <path id="Path_98" data-name="Path 98" d="M767.69.019a229.781,229.781,0,0,0-35.562,2.5C684.493,9.4,627.941,29.78,572.948,59.964a23.473,23.473,0,0,0-11.219,13.92L502.813,36.759c-36.126-22.731-93.95-22.731-130.077,0L61.926,232.49C26.082,255.13,0,302.29,0,344.69v748.543a94.451,94.451,0,0,0,94.327,94.326H780.989a94.515,94.515,0,0,0,94.373-94.326V344.69c0-42.447-25.986-89.607-61.926-112.2L756.168,196.4c21.051-16.548,39.457-33.736,54.25-50.884,46.835-54.238,43.2-89.988,32.072-110.506C833.369,18.421,813.04.676,767.69.019Zm-4.164,47.289c21.673-.152,34.348,4.639,37.6,10.44,4.2,7.782-2.221,28.96-26.369,57.023-15.885,18.448-36.784,37.093-61.14,54.824L600.845,98.532c48.48-25.938,97.272-43.4,138.025-49.274a187.6,187.6,0,0,1,24.656-1.949ZM437.635,113.4c6.771,0,12.362,1.653,14.667,3.065L622.188,223.516C571.285,247.61,528.55,258.454,498.063,261a64.758,64.758,0,1,0-.4,47.29c50.425-3.3,113.077-24.7,171.036-55.472L762.925,312.2c8.207,5.187,17.876,22.779,17.876,32.447v748.537H94.235V344.645c0-9.715,9.667-27.307,17.873-32.447L422.923,116.467c2.4-1.459,7.989-3.057,14.712-3.065Zm.9,338.823c-12.264,0-18.348,8.207-18.348,24.526v30.893c-40.232,3.443-71.027,15.944-92.3,37.262q-31.9,32.047-31.884,82.249c0,25.658,5.47,46.6,16.318,62.965a109.537,109.537,0,0,0,42.544,37.78c17.5,8.82,39.238,16.886,65.32,24.009V887.551c-12.971-3.726-23.489-9.058-31.318-16.038a70.193,70.193,0,0,1-17.685-23.205c-3.867-8.441-8.49-20.61-13.724-36.55A32.107,32.107,0,0,0,345,794.5c-6.083-4.009-13.441-6.133-22.308-6.133q-16.271,0-27.165,11.318c-7.264,7.406-10.943,15.8-10.943,25.189a98.745,98.745,0,0,0,8.208,38.58c5.422,13.16,13.819,25.751,25.139,37.967,11.508,12.12,25.608,22.263,42.54,30.421q25.611,12.242,59.709,16.035v34.289c0,8.962,1.367,15.562,4.244,19.808,2.783,4.291,7.784,6.46,14.766,6.46,7.592,0,12.449-2.685,14.667-7.874,2.31-5.235,3.3-13.634,3.3-25.048v-28.2q41.74-3.395,72.111-21.838,30.279-18.321,45.892-47.4a129.9,129.9,0,0,0,15.563-62.21q0-26.529-9.668-48.816a110.711,110.711,0,0,0-27.92-38.344,118.531,118.531,0,0,0-38.346-23.627c-14.385-5.471-33.44-11.51-57.682-18.113V565.751q36.859,11.955,46.409,48.343c5.707,20.563,17.97,30.892,37.024,30.892a35.136,35.136,0,0,0,25.8-10.659,34.32,34.32,0,0,0,10.706-25.185c0-8.725-2.356-18.4-7.166-28.866A123.747,123.747,0,0,0,549.51,549.62a104.985,104.985,0,0,0-38.864-29.1c-14.857-6.415-32.639-10.657-53.533-12.781V476.234q0-23.985-18.581-24.009ZM420.184,564.57V676.255c-17.545-6.462-30.513-13.583-39.1-21.412-8.537-7.876-12.878-19.525-12.878-34.854,0-16.178,4.623-28.252,13.724-36.225,9.151-7.923,21.932-14.383,38.251-19.194Zm36.929,198.186q30.35,9.69,45.988,23.534c10.423,9.245,15.654,22.356,15.654,39.147a60.188,60.188,0,0,1-16.034,41.457q-16.059,17.828-45.608,23.579V762.756Z"/>
      <text id="Created_by_logan" data-name="Created by logan" transform="translate(0 1202.559)" font-size="5" font-family="Arial-BoldMT, Arial" font-weight="700"><tspan x="0" y="0">Created by logan</tspan></text>
      <text id="from_the_Noun_Project" data-name="from the Noun Project" transform="translate(0 1207.559)" font-size="5" font-family="Arial-BoldMT, Arial" font-weight="700"><tspan x="0" y="0">from the Noun Project</tspan></text>
    </g>
  </g>
</svg>
