<svg xmlns="http://www.w3.org/2000/svg" xmlns:xlink="http://www.w3.org/1999/xlink" width="105" height="108" viewBox="0 0 105 108">
  <defs>
    <clipPath id="clip-path">
      <rect id="Rectangle_8004" data-name="Rectangle 8004" width="105" height="108" transform="translate(1151.783 445)" fill="#fff" stroke="#707070" stroke-width="1"/>
    </clipPath>
  </defs>
  <g id="Mask_Group_8" data-name="Mask Group 8" transform="translate(-1151.783 -445)" clip-path="url(#clip-path)">
    <g id="noun-apple-537724" transform="translate(1147.887 445.109)">
      <path id="Path_55539" data-name="Path 55539" d="M175.96,144.184c-3.071,0-5.829-1.237-8.35-2.368-2.4-1.079-4.686-2.136-7.029-2.058a24.285,24.285,0,0,0-6.778,1.5c-4.511,1.442-9.625,3.076-15.861.435-7.958-3.372-11.655-7.353-15.694-13.517-13.177-20.115-13.614-50.67-.9-62.873a24.677,24.677,0,0,1,21.56-6.676c4.889.866,11.282,2.432,16.259,5.167-.6-3.453-2.288-6.731-3.681-8.059-5.542-5.279-8.974-6.44-11.245-7.209l-.906-.313a2.182,2.182,0,0,1-1.257-2.708,1.961,1.961,0,0,1,2.512-1.354l.84.29c2.435.824,6.508,2.2,12.684,8.085a14.506,14.506,0,0,1,2.64,3.672c1.147-3.44,3.137-6.369,6.456-10.1,5.508-6.19,14.873-7.272,15.268-7.315a1.908,1.908,0,0,1,1.658.678,2.252,2.252,0,0,1,.495,1.835,41.371,41.371,0,0,1-9.725,19.145,40.781,40.781,0,0,1,7.907-1.358,24.54,24.54,0,0,1,16.84,6.137c12.279,10.454,11.7,43.4-1.107,62.954-4.644,7.088-7.573,10.984-18.474,15.22a11.209,11.209,0,0,1-4.117.784Zm-15.244-8.709c3.1,0,5.8,1.214,8.42,2.388,3.358,1.5,6.257,2.807,9.6,1.509,9.816-3.815,12.176-6.945,16.576-13.661,12.487-19.062,11.637-48.824,1.889-57.124a20.752,20.752,0,0,0-14.188-5.22c-5.827.3-14.363,3.317-19.524,5.606q-.686.33-1.4.64a1.85,1.85,0,0,1-1.679-.1,1.914,1.914,0,0,1-.561-.3c-3.528-2.715-9.77-4.972-17.579-6.357A20.91,20.91,0,0,0,124,68.505c-11.147,10.7-10.4,39.031,1.5,57.205,3.675,5.61,6.835,9.007,13.9,12,4.963,2.1,9,.813,13.278-.556a27.418,27.418,0,0,1,7.846-1.681h.2ZM179.907,43.65c-2.827.737-7.047,2.3-9.824,5.421-4.849,5.451-6.328,8.495-6.67,15.194,10.538-5.783,14.892-15.617,16.494-20.614Zm-56.04,47.476h-.1a2.088,2.088,0,0,1-1.889-2.243c.238-5.3,2.154-9.9,5.393-12.966a12.76,12.76,0,0,1,9.953-3.593,2.1,2.1,0,0,1,1.819,2.309,2.048,2.048,0,0,1-2.142,1.96,8.971,8.971,0,0,0-7.008,2.543,14.4,14.4,0,0,0-4.047,9.955,2.058,2.058,0,0,1-1.982,2.037Z" transform="translate(-103.662 -38.777)"/>
      <g id="Group_1011" data-name="Group 1011" transform="translate(0.174 127.695)">
        <path id="Path_55540" data-name="Path 55540" d="M4.913-16.487a2.577,2.577,0,0,1-.614.246,2.573,2.573,0,0,1-.665.085A2.176,2.176,0,0,1,2-16.777a2.324,2.324,0,0,1-.6-1.69,2.319,2.319,0,0,1,.6-1.69,2.172,2.172,0,0,1,1.637-.625A2.573,2.573,0,0,1,4.3-20.7a2.576,2.576,0,0,1,.614.246v.922a2.37,2.37,0,0,0-.586-.317,1.8,1.8,0,0,0-.608-.1,1.1,1.1,0,0,0-.9.4,1.649,1.649,0,0,0-.32,1.082,1.656,1.656,0,0,0,.326,1.086,1.1,1.1,0,0,0,.9.393,1.846,1.846,0,0,0,.608-.1,2.3,2.3,0,0,0,.586-.321Z" transform="translate(-1.391 20.781)"/>
      </g>
      <g id="Group_1012" data-name="Group 1012" transform="translate(4.536 128.808)">
        <path id="Path_55541" data-name="Path 55541" d="M4.665-14.694a1.3,1.3,0,0,0-.263-.1,1.01,1.01,0,0,0-.257-.034.7.7,0,0,0-.589.266,1.2,1.2,0,0,0-.206.754v1.543H2.359v-3.346H3.35v.55a1.314,1.314,0,0,1,.437-.478,1.114,1.114,0,0,1,.6-.154.98.98,0,0,1,.108.007c.04,0,.1.009.171.017Z" transform="translate(-2.359 15.687)"/>
      </g>
      <g id="Group_1013" data-name="Group 1013" transform="translate(7.1 128.808)">
        <path id="Path_55542" data-name="Path 55542" d="M4.535-13.943v.307H2.214a.819.819,0,0,0,.253.563.889.889,0,0,0,.6.188,2.178,2.178,0,0,0,.64-.1,3.256,3.256,0,0,0,.675-.3v.823a3.95,3.95,0,0,1-.7.215,3.4,3.4,0,0,1-.7.075,1.788,1.788,0,0,1-1.311-.461,1.739,1.739,0,0,1-.471-1.3,1.758,1.758,0,0,1,.459-1.287,1.678,1.678,0,0,1,1.261-.471,1.518,1.518,0,0,1,1.172.478,1.792,1.792,0,0,1,.44,1.267ZM3.515-14.3a.708.708,0,0,0-.165-.488.548.548,0,0,0-.431-.188.647.647,0,0,0-.469.174.826.826,0,0,0-.225.5Z" transform="translate(-1.203 15.688)"/>
      </g>
      <g id="Group_1014" data-name="Group 1014" transform="translate(10.949 128.808)">
        <path id="Path_55543" data-name="Path 55543" d="M2.828-13.765a.8.8,0,0,0-.469.113.387.387,0,0,0-.155.335A.412.412,0,0,0,2.331-13a.5.5,0,0,0,.348.113.6.6,0,0,0,.472-.215.79.79,0,0,0,.193-.543v-.123Zm1.514-.4v1.908h-1v-.5a1.322,1.322,0,0,1-.45.444,1.261,1.261,0,0,1-.608.137,1.057,1.057,0,0,1-.782-.3,1.07,1.07,0,0,1-.3-.789,1,1,0,0,1,.374-.86A2.011,2.011,0,0,1,2.758-14.4h.586v-.085a.4.4,0,0,0-.187-.369,1.1,1.1,0,0,0-.58-.119,2.482,2.482,0,0,0-.6.068,1.964,1.964,0,0,0-.507.2v-.816a5.644,5.644,0,0,1,.637-.126,4.834,4.834,0,0,1,.646-.044,1.7,1.7,0,0,1,1.21.358,1.548,1.548,0,0,1,.374,1.161Z" transform="translate(-1.203 15.688)"/>
      </g>
      <g id="Group_1015" data-name="Group 1015" transform="translate(14.611 127.941)">
        <path id="Path_55544" data-name="Path 55544" d="M1.86-19.656v.949H2.883v.765H1.86v1.42a.434.434,0,0,0,.086.314.5.5,0,0,0,.339.082h.51v.765H1.946a1.109,1.109,0,0,1-.836-.263,1.315,1.315,0,0,1-.244-.9v-1.42H.375v-.765H.866v-.949Z" transform="translate(-0.375 19.656)"/>
      </g>
      <g id="Group_1016" data-name="Group 1016" transform="translate(17.493 128.808)">
        <path id="Path_55545" data-name="Path 55545" d="M4.535-13.943v.307H2.214a.819.819,0,0,0,.253.563.889.889,0,0,0,.6.188,2.178,2.178,0,0,0,.64-.1,3.256,3.256,0,0,0,.675-.3v.823a3.95,3.95,0,0,1-.7.215,3.4,3.4,0,0,1-.7.075,1.788,1.788,0,0,1-1.311-.461,1.739,1.739,0,0,1-.471-1.3,1.758,1.758,0,0,1,.459-1.287,1.678,1.678,0,0,1,1.261-.471,1.518,1.518,0,0,1,1.172.478,1.792,1.792,0,0,1,.44,1.267ZM3.515-14.3a.708.708,0,0,0-.165-.488.548.548,0,0,0-.431-.188.647.647,0,0,0-.469.174.826.826,0,0,0-.225.5Z" transform="translate(-1.203 15.688)"/>
      </g>
      <g id="Group_1017" data-name="Group 1017" transform="translate(21.354 127.586)">
        <path id="Path_55546" data-name="Path 55546" d="M3.6-19.489v-1.792h1v4.65h-1v-.485a1.344,1.344,0,0,1-.45.434,1.173,1.173,0,0,1-.573.137,1.126,1.126,0,0,1-.941-.492,2.05,2.05,0,0,1-.37-1.263,2.057,2.057,0,0,1,.367-1.267,1.126,1.126,0,0,1,.941-.492,1.139,1.139,0,0,1,.57.14,1.411,1.411,0,0,1,.453.43Zm-.652,2.168a.549.549,0,0,0,.485-.249A1.321,1.321,0,0,0,3.6-18.3a1.307,1.307,0,0,0-.168-.727.548.548,0,0,0-.485-.253.546.546,0,0,0-.485.253,1.3,1.3,0,0,0-.168.727,1.314,1.314,0,0,0,.168.731.547.547,0,0,0,.483.248Z" transform="translate(-1.266 21.281)"/>
      </g>
      <g id="Group_1018" data-name="Group 1018" transform="translate(27.614 127.586)">
        <path id="Path_55547" data-name="Path 55547" d="M4.009-17.321A.552.552,0,0,0,4.5-17.57a1.321,1.321,0,0,0,.168-.731,1.306,1.306,0,0,0-.168-.727.551.551,0,0,0-.488-.253.557.557,0,0,0-.491.253,1.311,1.311,0,0,0-.168.727,1.308,1.308,0,0,0,.168.727.555.555,0,0,0,.491.253ZM3.35-19.489a1.444,1.444,0,0,1,.453-.43,1.156,1.156,0,0,1,.573-.14,1.13,1.13,0,0,1,.944.492A2.062,2.062,0,0,1,5.688-18.3a2.055,2.055,0,0,1-.367,1.263,1.13,1.13,0,0,1-.944.492,1.182,1.182,0,0,1-.573-.137,1.41,1.41,0,0,1-.453-.434v.485H2.359v-4.65H3.35Z" transform="translate(-2.359 21.281)"/>
      </g>
      <g id="Group_1019" data-name="Group 1019" transform="translate(31.268 128.89)">
        <path id="Path_55548" data-name="Path 55548" d="M.344-15.312h.991l.836,2.27.709-2.27h.991l-1.3,3.663a1.805,1.805,0,0,1-.459.778,1.025,1.025,0,0,1-.69.225H.841v-.7h.31a.6.6,0,0,0,.367-.089.564.564,0,0,0,.181-.307l.029-.092Z" transform="translate(-0.344 15.312)"/>
      </g>
      <g id="Group_1020" data-name="Group 1020" transform="translate(37.397 127.777)">
        <path id="Path_55549" data-name="Path 55549" d="M2.578-20.406H3.642v1.7H5.216v-1.7H6.284v4.459H5.216v-1.891H3.642v1.891H2.578Z" transform="translate(-2.578 20.406)"/>
      </g>
      <g id="Group_1021" data-name="Group 1021" transform="translate(43.628 127.777)">
        <path id="Path_55550" data-name="Path 55550" d="M3.143-16.76H1.477l-.266.813H.141l1.533-4.459h1.27l1.533,4.459H3.406Zm-1.4-.826H2.874L2.31-19.361Z" transform="translate(-0.141 20.406)"/>
      </g>
      <g id="Group_1022" data-name="Group 1022" transform="translate(48.47 127.586)">
        <path id="Path_55551" data-name="Path 55551" d="M2.359-21.281H3.35v4.65H2.359Z" transform="translate(-2.359 21.281)"/>
      </g>
      <g id="Group_1023" data-name="Group 1023" transform="translate(50.415 127.586)">
        <path id="Path_55552" data-name="Path 55552" d="M4.009-17.321A.552.552,0,0,0,4.5-17.57a1.321,1.321,0,0,0,.168-.731,1.306,1.306,0,0,0-.168-.727.551.551,0,0,0-.488-.253.557.557,0,0,0-.491.253,1.311,1.311,0,0,0-.168.727,1.308,1.308,0,0,0,.168.727.555.555,0,0,0,.491.253ZM3.35-19.489a1.444,1.444,0,0,1,.453-.43,1.156,1.156,0,0,1,.573-.14,1.13,1.13,0,0,1,.944.492A2.062,2.062,0,0,1,5.688-18.3a2.055,2.055,0,0,1-.367,1.263,1.13,1.13,0,0,1-.944.492,1.182,1.182,0,0,1-.573-.137,1.41,1.41,0,0,1-.453-.434v.485H2.359v-4.65H3.35Z" transform="translate(-2.359 21.281)"/>
      </g>
      <g id="Group_1024" data-name="Group 1024" transform="translate(54.244 128.808)">
        <path id="Path_55553" data-name="Path 55553" d="M4.535-13.943v.307H2.214a.819.819,0,0,0,.253.563.889.889,0,0,0,.6.188,2.178,2.178,0,0,0,.64-.1,3.256,3.256,0,0,0,.675-.3v.823a3.95,3.95,0,0,1-.7.215,3.4,3.4,0,0,1-.7.075,1.788,1.788,0,0,1-1.311-.461,1.739,1.739,0,0,1-.471-1.3,1.758,1.758,0,0,1,.459-1.287,1.678,1.678,0,0,1,1.261-.471,1.518,1.518,0,0,1,1.172.478,1.792,1.792,0,0,1,.44,1.267ZM3.515-14.3a.708.708,0,0,0-.165-.488.548.548,0,0,0-.431-.188.647.647,0,0,0-.469.174.826.826,0,0,0-.225.5Z" transform="translate(-1.203 15.688)"/>
      </g>
      <g id="Group_1025" data-name="Group 1025" transform="translate(58.327 128.808)">
        <path id="Path_55554" data-name="Path 55554" d="M4.665-14.694a1.3,1.3,0,0,0-.263-.1,1.01,1.01,0,0,0-.257-.034.7.7,0,0,0-.589.266,1.2,1.2,0,0,0-.206.754v1.543H2.359v-3.346H3.35v.55a1.314,1.314,0,0,1,.437-.478,1.114,1.114,0,0,1,.6-.154.98.98,0,0,1,.108.007c.04,0,.1.009.171.017Z" transform="translate(-2.359 15.687)"/>
      </g>
      <g id="Group_1026" data-name="Group 1026" transform="translate(60.724 127.941)">
        <path id="Path_55555" data-name="Path 55555" d="M1.86-19.656v.949H2.883v.765H1.86v1.42a.434.434,0,0,0,.086.314.5.5,0,0,0,.339.082h.51v.765H1.946a1.109,1.109,0,0,1-.836-.263,1.315,1.315,0,0,1-.244-.9v-1.42H.375v-.765H.866v-.949Z" transform="translate(-0.375 19.656)"/>
      </g>
      <g id="Group_1027" data-name="Group 1027" transform="translate(63.604 128.808)">
        <path id="Path_55556" data-name="Path 55556" d="M2.913-14.923a.57.57,0,0,0-.5.256,1.3,1.3,0,0,0-.174.737,1.3,1.3,0,0,0,.174.737.571.571,0,0,0,.5.253.559.559,0,0,0,.494-.253,1.312,1.312,0,0,0,.174-.737,1.312,1.312,0,0,0-.174-.737A.558.558,0,0,0,2.913-14.923Zm0-.765a1.656,1.656,0,0,1,1.251.468,1.78,1.78,0,0,1,.45,1.29,1.786,1.786,0,0,1-.45,1.29,1.661,1.661,0,0,1-1.251.464,1.673,1.673,0,0,1-1.257-.464A1.774,1.774,0,0,1,1.2-13.93a1.768,1.768,0,0,1,.453-1.29,1.668,1.668,0,0,1,1.26-.468Z" transform="translate(-1.203 15.688)"/>
      </g>
      <g id="Group_1028" data-name="Group 1028" transform="translate(69.517 127.695)">
        <path id="Path_55557" data-name="Path 55557" d="M5.35-16.572a3.66,3.66,0,0,1-.83.314,3.8,3.8,0,0,1-.887.1A2.176,2.176,0,0,1,2-16.777a2.324,2.324,0,0,1-.6-1.69,2.3,2.3,0,0,1,.614-1.7A2.282,2.282,0,0,1,3.7-20.785a3.6,3.6,0,0,1,.789.085,3.132,3.132,0,0,1,.716.246v.922a3,3,0,0,0-.69-.314,2.322,2.322,0,0,0-.684-.106,1.253,1.253,0,0,0-.985.386,1.591,1.591,0,0,0-.342,1.1,1.623,1.623,0,0,0,.333,1.092,1.176,1.176,0,0,0,.944.386,2.169,2.169,0,0,0,.307-.02,1.057,1.057,0,0,0,.257-.072v-.867h-.66v-.768H5.349Z" transform="translate(-1.391 20.781)"/>
      </g>
      <g id="Group_1029" data-name="Group 1029" transform="translate(74.138 128.808)">
        <path id="Path_55558" data-name="Path 55558" d="M2.913-14.923a.57.57,0,0,0-.5.256,1.3,1.3,0,0,0-.174.737,1.3,1.3,0,0,0,.174.737.571.571,0,0,0,.5.253.559.559,0,0,0,.494-.253,1.312,1.312,0,0,0,.174-.737,1.312,1.312,0,0,0-.174-.737A.558.558,0,0,0,2.913-14.923Zm0-.765a1.656,1.656,0,0,1,1.251.468,1.78,1.78,0,0,1,.45,1.29,1.786,1.786,0,0,1-.45,1.29,1.661,1.661,0,0,1-1.251.464,1.673,1.673,0,0,1-1.257-.464A1.774,1.774,0,0,1,1.2-13.93a1.768,1.768,0,0,1,.453-1.29,1.668,1.668,0,0,1,1.26-.468Z" transform="translate(-1.203 15.688)"/>
      </g>
      <g id="Group_1030" data-name="Group 1030" transform="translate(78.271 128.808)">
        <path id="Path_55559" data-name="Path 55559" d="M5.479-14.3v2.038h-1v-1.56q0-.432-.019-.6a.68.68,0,0,0-.06-.238.419.419,0,0,0-.158-.16.438.438,0,0,0-.225-.058.56.56,0,0,0-.488.259,1.236,1.236,0,0,0-.177.714v1.645H2.359v-3.346H3.35v.488a1.619,1.619,0,0,1,.475-.43,1.136,1.136,0,0,1,.557-.14.973.973,0,0,1,.817.358A1.646,1.646,0,0,1,5.479-14.3Z" transform="translate(-2.359 15.687)"/>
      </g>
      <g id="Group_1031" data-name="Group 1031" transform="translate(82.09 128.815)">
        <path id="Path_55560" data-name="Path 55560" d="M3.6-12.8a1.4,1.4,0,0,1-.45.43,1.164,1.164,0,0,1-.573.137,1.136,1.136,0,0,1-.937-.481,1.963,1.963,0,0,1-.371-1.229,1.95,1.95,0,0,1,.371-1.229,1.136,1.136,0,0,1,.937-.481,1.147,1.147,0,0,1,.573.14,1.365,1.365,0,0,1,.45.43v-.5h1v3.008a1.579,1.579,0,0,1-.472,1.232,1.982,1.982,0,0,1-1.371.427,3.261,3.261,0,0,1-.561-.048,3.384,3.384,0,0,1-.548-.147v-.833a2.39,2.39,0,0,0,.51.239,1.677,1.677,0,0,0,.5.079.968.968,0,0,0,.713-.229.987.987,0,0,0,.228-.72Zm-.652-2.082a.557.557,0,0,0-.481.246,1.194,1.194,0,0,0-.171.693,1.221,1.221,0,0,0,.165.7.561.561,0,0,0,.488.236.554.554,0,0,0,.481-.242,1.2,1.2,0,0,0,.171-.69,1.194,1.194,0,0,0-.171-.693.553.553,0,0,0-.481-.246Z" transform="translate(-1.266 15.656)"/>
      </g>
      <g id="Group_1032" data-name="Group 1032" transform="translate(86.139 128.808)">
        <path id="Path_55561" data-name="Path 55561" d="M2.913-14.923a.57.57,0,0,0-.5.256,1.3,1.3,0,0,0-.174.737,1.3,1.3,0,0,0,.174.737.571.571,0,0,0,.5.253.559.559,0,0,0,.494-.253,1.312,1.312,0,0,0,.174-.737,1.312,1.312,0,0,0-.174-.737A.558.558,0,0,0,2.913-14.923Zm0-.765a1.656,1.656,0,0,1,1.251.468,1.78,1.78,0,0,1,.45,1.29,1.786,1.786,0,0,1-.45,1.29,1.661,1.661,0,0,1-1.251.464,1.673,1.673,0,0,1-1.257-.464A1.774,1.774,0,0,1,1.2-13.93a1.768,1.768,0,0,1,.453-1.29,1.668,1.668,0,0,1,1.26-.468Z" transform="translate(-1.203 15.688)"/>
      </g>
      <g id="Group_1033" data-name="Group 1033" transform="translate(90.273 128.808)">
        <path id="Path_55562" data-name="Path 55562" d="M4.665-14.694a1.3,1.3,0,0,0-.263-.1,1.01,1.01,0,0,0-.257-.034.7.7,0,0,0-.589.266,1.2,1.2,0,0,0-.206.754v1.543H2.359v-3.346H3.35v.55a1.314,1.314,0,0,1,.437-.478,1.114,1.114,0,0,1,.6-.154.98.98,0,0,1,.108.007c.04,0,.1.009.171.017Z" transform="translate(-2.359 15.687)"/>
      </g>
      <g id="Group_1034" data-name="Group 1034" transform="translate(92.838 128.808)">
        <path id="Path_55563" data-name="Path 55563" d="M2.828-13.765a.8.8,0,0,0-.469.113.387.387,0,0,0-.155.335A.412.412,0,0,0,2.331-13a.5.5,0,0,0,.348.113.6.6,0,0,0,.472-.215.79.79,0,0,0,.193-.543v-.123Zm1.514-.4v1.908h-1v-.5a1.322,1.322,0,0,1-.45.444,1.261,1.261,0,0,1-.608.137,1.057,1.057,0,0,1-.782-.3,1.07,1.07,0,0,1-.3-.789,1,1,0,0,1,.374-.86A2.011,2.011,0,0,1,2.758-14.4h.586v-.085a.4.4,0,0,0-.187-.369,1.1,1.1,0,0,0-.58-.119,2.482,2.482,0,0,0-.6.068,1.964,1.964,0,0,0-.507.2v-.816a5.644,5.644,0,0,1,.637-.126,4.834,4.834,0,0,1,.646-.044,1.7,1.7,0,0,1,1.21.358,1.548,1.548,0,0,1,.374,1.161Z" transform="translate(-1.203 15.688)"/>
      </g>
      <g id="Group_1035" data-name="Group 1035" transform="translate(0 133.704)">
        <path id="Path_55564" data-name="Path 55564" d="M2.942-21.281v.7H2.394A.421.421,0,0,0,2.1-20.5a.4.4,0,0,0-.082.287v.232h.849v.765h-.85v2.581H1.026v-2.581h-.5v-.765h.494v-.232a1.056,1.056,0,0,1,.282-.809,1.252,1.252,0,0,1,.877-.263Z" transform="translate(-0.531 21.281)"/>
      </g>
      <g id="Group_1036" data-name="Group 1036" transform="translate(2.84 134.926)">
        <path id="Path_55565" data-name="Path 55565" d="M4.665-14.694a1.3,1.3,0,0,0-.263-.1,1.01,1.01,0,0,0-.257-.034.7.7,0,0,0-.589.266,1.2,1.2,0,0,0-.206.754v1.543H2.359v-3.346H3.35v.55a1.314,1.314,0,0,1,.437-.478,1.114,1.114,0,0,1,.6-.154.98.98,0,0,1,.108.007c.04,0,.1.009.171.017Z" transform="translate(-2.359 15.687)"/>
      </g>
      <g id="Group_1037" data-name="Group 1037" transform="translate(5.405 134.926)">
        <path id="Path_55566" data-name="Path 55566" d="M2.913-14.923a.57.57,0,0,0-.5.256,1.3,1.3,0,0,0-.174.737,1.3,1.3,0,0,0,.174.737.571.571,0,0,0,.5.253.559.559,0,0,0,.494-.253,1.312,1.312,0,0,0,.174-.737,1.312,1.312,0,0,0-.174-.737A.558.558,0,0,0,2.913-14.923Zm0-.765a1.656,1.656,0,0,1,1.251.468,1.78,1.78,0,0,1,.45,1.29,1.786,1.786,0,0,1-.45,1.29,1.661,1.661,0,0,1-1.251.464,1.673,1.673,0,0,1-1.257-.464A1.774,1.774,0,0,1,1.2-13.93a1.768,1.768,0,0,1,.453-1.29,1.668,1.668,0,0,1,1.26-.468Z" transform="translate(-1.203 15.688)"/>
      </g>
      <g id="Group_1038" data-name="Group 1038" transform="translate(9.531 134.926)">
        <path id="Path_55567" data-name="Path 55567" d="M5.21-15.049a1.4,1.4,0,0,1,.447-.475,1.045,1.045,0,0,1,.57-.164.969.969,0,0,1,.814.358,1.631,1.631,0,0,1,.282,1.03v2.038h-1v-1.946a1.013,1.013,0,0,0-.1-.512.334.334,0,0,0-.31-.16.486.486,0,0,0-.437.253,1.393,1.393,0,0,0-.158.724v1.642h-1V-14a1.78,1.78,0,0,0-.089-.714.331.331,0,0,0-.317-.16.489.489,0,0,0-.44.253,1.37,1.37,0,0,0-.155.72v1.645h-1V-15.6h1v.488a1.335,1.335,0,0,1,.418-.427.992.992,0,0,1,.523-.143,1,1,0,0,1,.57.167,1.036,1.036,0,0,1,.374.471Z" transform="translate(-2.328 15.688)"/>
      </g>
      <g id="Group_1039" data-name="Group 1039" transform="translate(17.025 134.059)">
        <path id="Path_55568" data-name="Path 55568" d="M1.86-19.656v.949H2.883v.765H1.86v1.42a.434.434,0,0,0,.086.314.5.5,0,0,0,.339.082h.51v.765H1.946a1.109,1.109,0,0,1-.836-.263,1.315,1.315,0,0,1-.244-.9v-1.42H.375v-.765H.866v-.949Z" transform="translate(-0.375 19.656)"/>
      </g>
      <g id="Group_1040" data-name="Group 1040" transform="translate(20.14 133.704)">
        <path id="Path_55569" data-name="Path 55569" d="M5.479-18.669v2.038h-1v-1.553q0-.44-.019-.6a.68.68,0,0,0-.063-.242.419.419,0,0,0-.158-.16.438.438,0,0,0-.225-.058.56.56,0,0,0-.488.259,1.236,1.236,0,0,0-.177.714v1.645h-.99v-4.65H3.35v1.792a1.619,1.619,0,0,1,.475-.43,1.136,1.136,0,0,1,.557-.14A.973.973,0,0,1,5.2-19.7a1.646,1.646,0,0,1,.279,1.031Z" transform="translate(-2.359 21.281)"/>
      </g>
      <g id="Group_1041" data-name="Group 1041" transform="translate(23.946 134.926)">
        <path id="Path_55570" data-name="Path 55570" d="M4.535-13.943v.307H2.214a.819.819,0,0,0,.253.563.889.889,0,0,0,.6.188,2.178,2.178,0,0,0,.64-.1,3.256,3.256,0,0,0,.675-.3v.823a3.95,3.95,0,0,1-.7.215,3.4,3.4,0,0,1-.7.075,1.788,1.788,0,0,1-1.311-.461,1.739,1.739,0,0,1-.471-1.3,1.758,1.758,0,0,1,.459-1.287,1.678,1.678,0,0,1,1.261-.471,1.518,1.518,0,0,1,1.172.478,1.792,1.792,0,0,1,.44,1.267ZM3.515-14.3a.708.708,0,0,0-.165-.488.548.548,0,0,0-.431-.188.647.647,0,0,0-.469.174.826.826,0,0,0-.225.5Z" transform="translate(-1.203 15.688)"/>
      </g>
      <g id="Group_1042" data-name="Group 1042" transform="translate(30.05 133.895)">
        <path id="Path_55571" data-name="Path 55571" d="M2.578-20.406H3.769l1.5,3.059v-3.059h1.01v4.459H5.093l-1.5-3.059v3.059H2.578Z" transform="translate(-2.578 20.406)"/>
      </g>
      <g id="Group_1043" data-name="Group 1043" transform="translate(34.521 134.926)">
        <path id="Path_55572" data-name="Path 55572" d="M2.913-14.923a.57.57,0,0,0-.5.256,1.3,1.3,0,0,0-.174.737,1.3,1.3,0,0,0,.174.737.571.571,0,0,0,.5.253.559.559,0,0,0,.494-.253,1.312,1.312,0,0,0,.174-.737,1.312,1.312,0,0,0-.174-.737A.558.558,0,0,0,2.913-14.923Zm0-.765a1.656,1.656,0,0,1,1.251.468,1.78,1.78,0,0,1,.45,1.29,1.786,1.786,0,0,1-.45,1.29,1.661,1.661,0,0,1-1.251.464,1.673,1.673,0,0,1-1.257-.464A1.774,1.774,0,0,1,1.2-13.93a1.768,1.768,0,0,1,.453-1.29,1.668,1.668,0,0,1,1.26-.468Z" transform="translate(-1.203 15.688)"/>
      </g>
      <g id="Group_1044" data-name="Group 1044" transform="translate(38.62 135.008)">
        <path id="Path_55573" data-name="Path 55573" d="M2.188-13.271v-2.042h1v1.564q0,.407.019.584a.713.713,0,0,0,.067.256.452.452,0,0,0,.162.164.45.45,0,0,0,.225.055.563.563,0,0,0,.488-.256,1.24,1.24,0,0,0,.177-.714v-1.652h.991v3.346h-1v-.485a1.6,1.6,0,0,1-.475.434,1.145,1.145,0,0,1-.554.137.979.979,0,0,1-.817-.355,1.63,1.63,0,0,1-.282-1.034Z" transform="translate(-2.188 15.313)"/>
      </g>
      <g id="Group_1045" data-name="Group 1045" transform="translate(42.695 134.926)">
        <path id="Path_55574" data-name="Path 55574" d="M5.479-14.3v2.038h-1v-1.56q0-.432-.019-.6a.68.68,0,0,0-.06-.238.419.419,0,0,0-.158-.16.438.438,0,0,0-.225-.058.56.56,0,0,0-.488.259,1.236,1.236,0,0,0-.177.714v1.645H2.359v-3.346H3.35v.488a1.619,1.619,0,0,1,.475-.43,1.136,1.136,0,0,1,.557-.14.973.973,0,0,1,.817.358A1.646,1.646,0,0,1,5.479-14.3Z" transform="translate(-2.359 15.687)"/>
      </g>
      <g id="Group_1046" data-name="Group 1046" transform="translate(48.755 133.895)">
        <path id="Path_55575" data-name="Path 55575" d="M2.578-20.406h1.77a1.75,1.75,0,0,1,1.21.379,1.363,1.363,0,0,1,.424,1.075,1.371,1.371,0,0,1-.424,1.079,1.75,1.75,0,0,1-1.21.379H3.642v1.546H2.578Zm1.064.833v1.246h.592a.658.658,0,0,0,.478-.164.608.608,0,0,0,.171-.461.6.6,0,0,0-.171-.461.667.667,0,0,0-.478-.16Z" transform="translate(-2.578 20.406)"/>
      </g>
      <g id="Group_1047" data-name="Group 1047" transform="translate(52.871 134.926)">
        <path id="Path_55576" data-name="Path 55576" d="M4.665-14.694a1.3,1.3,0,0,0-.263-.1,1.01,1.01,0,0,0-.257-.034.7.7,0,0,0-.589.266,1.2,1.2,0,0,0-.206.754v1.543H2.359v-3.346H3.35v.55a1.314,1.314,0,0,1,.437-.478,1.114,1.114,0,0,1,.6-.154.98.98,0,0,1,.108.007c.04,0,.1.009.171.017Z" transform="translate(-2.359 15.687)"/>
      </g>
      <g id="Group_1048" data-name="Group 1048" transform="translate(55.435 134.926)">
        <path id="Path_55577" data-name="Path 55577" d="M2.913-14.923a.57.57,0,0,0-.5.256,1.3,1.3,0,0,0-.174.737,1.3,1.3,0,0,0,.174.737.571.571,0,0,0,.5.253.559.559,0,0,0,.494-.253,1.312,1.312,0,0,0,.174-.737,1.312,1.312,0,0,0-.174-.737A.558.558,0,0,0,2.913-14.923Zm0-.765a1.656,1.656,0,0,1,1.251.468,1.78,1.78,0,0,1,.45,1.29,1.786,1.786,0,0,1-.45,1.29,1.661,1.661,0,0,1-1.251.464,1.673,1.673,0,0,1-1.257-.464A1.774,1.774,0,0,1,1.2-13.93a1.768,1.768,0,0,1,.453-1.29,1.668,1.668,0,0,1,1.26-.468Z" transform="translate(-1.203 15.688)"/>
      </g>
      <g id="Group_1049" data-name="Group 1049" transform="translate(58.9 133.704)">
        <path id="Path_55578" data-name="Path 55578" d="M-.269-19.977H.722v3.284a1.552,1.552,0,0,1-.3,1.028,1.07,1.07,0,0,1-.868.355H-.937v-.7h.174a.464.464,0,0,0,.386-.137.949.949,0,0,0,.108-.543Zm0-1.3H.722v.874H-.269Z" transform="translate(0.937 21.281)"/>
      </g>
      <g id="Group_1050" data-name="Group 1050" transform="translate(61.279 134.926)">
        <path id="Path_55579" data-name="Path 55579" d="M4.535-13.943v.307H2.214a.819.819,0,0,0,.253.563.889.889,0,0,0,.6.188,2.178,2.178,0,0,0,.64-.1,3.256,3.256,0,0,0,.675-.3v.823a3.95,3.95,0,0,1-.7.215,3.4,3.4,0,0,1-.7.075,1.788,1.788,0,0,1-1.311-.461,1.739,1.739,0,0,1-.471-1.3,1.758,1.758,0,0,1,.459-1.287,1.678,1.678,0,0,1,1.261-.471,1.518,1.518,0,0,1,1.172.478,1.792,1.792,0,0,1,.44,1.267ZM3.515-14.3a.708.708,0,0,0-.165-.488.548.548,0,0,0-.431-.188.647.647,0,0,0-.469.174.826.826,0,0,0-.225.5Z" transform="translate(-1.203 15.688)"/>
      </g>
      <g id="Group_1051" data-name="Group 1051" transform="translate(65.129 134.926)">
        <path id="Path_55580" data-name="Path 55580" d="M3.943-15.5v.871a1.5,1.5,0,0,0-.4-.222,1.255,1.255,0,0,0-.421-.072.825.825,0,0,0-.649.263,1.06,1.06,0,0,0-.231.731,1.066,1.066,0,0,0,.231.731.828.828,0,0,0,.649.259,1.35,1.35,0,0,0,.44-.072,1.272,1.272,0,0,0,.386-.222v.874a2.53,2.53,0,0,1-.472.137,2.458,2.458,0,0,1-.481.048,1.8,1.8,0,0,1-1.314-.464,1.724,1.724,0,0,1-.472-1.29,1.731,1.731,0,0,1,.472-1.294,1.8,1.8,0,0,1,1.314-.464,2.458,2.458,0,0,1,.481.048,2.5,2.5,0,0,1,.472.14Z" transform="translate(-1.203 15.687)"/>
      </g>
      <g id="Group_1052" data-name="Group 1052" transform="translate(68.325 134.059)">
        <path id="Path_55581" data-name="Path 55581" d="M1.86-19.656v.949H2.883v.765H1.86v1.42a.434.434,0,0,0,.086.314.5.5,0,0,0,.339.082h.51v.765H1.946a1.109,1.109,0,0,1-.836-.263,1.315,1.315,0,0,1-.244-.9v-1.42H.375v-.765H.866v-.949Z" transform="translate(-0.375 19.656)"/>
      </g>
    </g>
  </g>
</svg>
