<svg xmlns="http://www.w3.org/2000/svg" width="240.095" height="240.05" viewBox="0 0 240.095 240.05">
  <g id="Price" transform="translate(-7.951 -7.912)">
    <g id="Group_132" data-name="Group 132">
      <g id="Group_131" data-name="Group 131">
        <path id="Path_93" data-name="Path 93" d="M201.6,10.4c-6.8,1.3-12.1,4.2-17.6,9.7a53.822,53.822,0,0,0-14.2,26l-.8,3.3-25.2.1-25.3.1-3.7,1.2c-7.8,2.7-6,1-54.8,49.8l-45.1,45L13,149.5a28.627,28.627,0,0,0,1.4,28.2c1.3,2.1,10.4,11.5,31.5,32.6,24.9,24.9,30.2,29.9,32.9,31.5a28.593,28.593,0,0,0,27.5,1l3.9-1.9,45-45.1c33.8-33.8,45.4-45.7,46.6-47.7a62.581,62.581,0,0,0,3-6.7c1.4-3.9,1.5-4.4,1.7-13.8l.2-9.7,3.1-.3c9.7-.9,19.3-7.4,26-17.4C248,81.6,249.5,54,239.2,33.4c-4-8-10.6-15.6-17-19.3C216,10.7,208.1,9.2,201.6,10.4Zm12.2,10.4c10.4,4,18.5,15.7,21.6,31.4,1.1,5.6,1.1,18.3,0,23.6-3.2,15.1-10,25.6-19.3,30.3-3.1,1.5-8.3,2.8-9.2,2.3-.2-.1-.4-8.8-.4-19.3,0-16.2-.1-19.4-.7-21.6a24.3,24.3,0,0,0-6.6-11,22.841,22.841,0,0,0-16.5-6.9,10.507,10.507,0,0,1-3.6-.4c-.3-.6,2.3-8,4.2-11.7,4.6-9.1,10.9-15.1,18.5-17.3C204.8,19.2,210.6,19.6,213.8,20.8ZM167.7,64.2v5.5l-2,1a17.422,17.422,0,0,0-6.9,7.3,16.858,16.858,0,0,0,0,11.3,14.552,14.552,0,0,0,13,8.8c5.4,0,9.1-1.7,12.4-6A14.436,14.436,0,0,0,186,78.8a15.688,15.688,0,0,0-7-8l-2.1-1v-3a48.556,48.556,0,0,1,.3-5.6l.3-2.5,4,.2c6.9.4,11.3,3.1,13.9,8.6l1.5,3.1v31.9c0,35.1.1,33.7-2.9,39.7-1.5,3-4.8,6.4-45.5,47.2-48,48-45.4,45.7-52,46.8a19.891,19.891,0,0,1-11.7-1.8c-2.4-1.2-6.6-5.2-32.6-31.3C24.4,175.3,22.3,173,21.1,170.3a19.655,19.655,0,0,1,1.5-18.1c.8-1.2,20.9-21.5,44.7-45.3l43.3-43.3,3.9-1.9a27,27,0,0,1,6.5-2.3c1.4-.2,12.5-.4,24.6-.5h22l.1,5.3Zm6.9,15.1a5.665,5.665,0,0,1,2.8,4.4,5.665,5.665,0,0,1-2.8,4.4,5.946,5.946,0,0,1-2.3.7,5.226,5.226,0,0,1-4.9-5.9A4.766,4.766,0,0,1,174.6,79.3Z" stroke="#000" stroke-width="4"/>
        <path id="Path_94" data-name="Path 94" d="M111.9,113.7a16.133,16.133,0,0,0-13.4,14.8c-.3,5.8,1.8,11.5,7.6,20.3,4,6,5.4,9.2,5.6,12.7.1,2.3,0,3-.9,4.4-1.7,2.4-3.7,3.3-7.2,3.1-8-.6-16-8.5-16.6-16.7-.2-2.5,0-3.1,1.2-5.4,1.8-3.4,1.8-5.1.1-6.9a3.888,3.888,0,0,0-3.4-1.3c-2.5,0-4.1,1.3-6,5.4-2.9,6.2-1.9,14.2,2.9,21.8.6.9.5,1.2-1.1,2.9-2.3,2.5-2.4,5-.4,7s4.5,1.9,7-.4l1.8-1.7,3.1,1.7c4.8,2.5,7.6,3.3,12.1,3.3,5.1,0,8.4-1.2,11.8-4.3,7.7-7.1,7.1-16.4-2-30.3-4.5-6.9-6.1-10.5-6.1-13.8a6.207,6.207,0,0,1,3-5.9c2-1.5,7.1-1.3,10.6.3,3.6,1.7,8.3,6.4,9.9,9.9,1.8,3.9,1.8,8.5,0,11s-1.8,4.9,0,6.7a3.888,3.888,0,0,0,3.4,1.3,3.733,3.733,0,0,0,3.5-1.5c5-5.3,5.5-13.9,1.2-22.6l-2.1-4.1,1.7-1.8c3.2-3.6,1.3-8.3-3.4-8.3-1,0-2,.5-3.3,1.7l-1.8,1.7-3.8-1.9C121.4,113.7,116.5,112.8,111.9,113.7Z" stroke="#000" stroke-width="4"/>
      </g>
    </g>
  </g>
</svg>
