<svg xmlns="http://www.w3.org/2000/svg" xmlns:xlink="http://www.w3.org/1999/xlink" width="96" height="94" viewBox="0 0 96 94">
  <defs>
    <clipPath id="clip-path">
      <rect id="Rectangle_7" data-name="Rectangle 7" width="96" height="94" transform="translate(0 -2)" fill="#fff" stroke="#707070" stroke-width="1"/>
    </clipPath>
  </defs>
  <g id="Mask_Group_2" data-name="Mask Group 2" transform="translate(0 2)" clip-path="url(#clip-path)">
    <g id="noun-call-1355711" transform="translate(0.392 -0.849)">
      <path id="Path_34" data-name="Path 34" d="M124.035,7.281C98.209,7.281,77.28,27.3,77.28,52.013s20.929,44.732,46.755,44.732,46.755-20.024,46.755-44.732S149.86,7.281,124.035,7.281Zm7.008,66.409c-20.257-9.552-25.537-26.729-26.305-32.975S115.3,28.958,115.3,28.958l7.1,11.573s-7.681,3.949-6.625,6.062c5.664,11.39,12.961,15.615,12.961,15.615,2.4.827,7.681-4.776,7.681-4.776L146.6,66.617c.1,0-8.449,10.379-15.554,7.073Z" transform="translate(-76.123 -7.281)" fill="#033333"/>
      <g id="Group_25" data-name="Group 25" transform="translate(0.147 101.026)">
        <path id="Path_35" data-name="Path 35" d="M4.37-17.557a2.347,2.347,0,0,1-.52.185,2.437,2.437,0,0,1-.563.064A1.974,1.974,0,0,1,1.9-17.775a1.635,1.635,0,0,1-.512-1.269A1.631,1.631,0,0,1,1.9-20.312a1.969,1.969,0,0,1,1.385-.469,2.437,2.437,0,0,1,.563.064,2.347,2.347,0,0,1,.52.185v.692a2.1,2.1,0,0,0-.5-.238,1.7,1.7,0,0,0-.514-.077.984.984,0,0,0-.758.3,1.145,1.145,0,0,0-.276.815,1.15,1.15,0,0,0,.276.815.987.987,0,0,0,.758.295,1.742,1.742,0,0,0,.514-.074,2.038,2.038,0,0,0,.5-.241Z" transform="translate(-1.391 20.781)"/>
      </g>
      <g id="Group_26" data-name="Group 26" transform="translate(3.837 101.862)">
        <path id="Path_36" data-name="Path 36" d="M4.309-14.942a1.2,1.2,0,0,0-.222-.072.956.956,0,0,0-.217-.026.625.625,0,0,0-.5.2.828.828,0,0,0-.174.566v1.158H2.359v-2.511H3.2v.413a1.044,1.044,0,0,1,.37-.359,1.036,1.036,0,0,1,.5-.115c.028,0,.059,0,.091.005s.082.006.145.013Z" transform="translate(-2.359 15.687)"/>
      </g>
      <g id="Group_27" data-name="Group 27" transform="translate(6.006 101.862)">
        <path id="Path_37" data-name="Path 37" d="M4.021-14.378v.231H2.058a.588.588,0,0,0,.214.423.817.817,0,0,0,.512.141,2.058,2.058,0,0,0,.541-.074,2.937,2.937,0,0,0,.571-.228v.618a3.662,3.662,0,0,1-.595.161,3.222,3.222,0,0,1-.595.056A1.631,1.631,0,0,1,1.6-13.4a1.224,1.224,0,0,1-.394-.971,1.236,1.236,0,0,1,.388-.966,1.523,1.523,0,0,1,1.066-.354,1.369,1.369,0,0,1,.991.359,1.257,1.257,0,0,1,.372.951Zm-.863-.267a.5.5,0,0,0-.139-.366.492.492,0,0,0-.364-.141.588.588,0,0,0-.4.131.592.592,0,0,0-.19.377Z" transform="translate(-1.203 15.688)"/>
      </g>
      <g id="Group_28" data-name="Group 28" transform="translate(9.261 101.862)">
        <path id="Path_38" data-name="Path 38" d="M2.577-14.245a.749.749,0,0,0-.4.085.279.279,0,0,0-.131.251.292.292,0,0,0,.107.241.463.463,0,0,0,.295.085.541.541,0,0,0,.4-.161.555.555,0,0,0,.163-.407v-.092Zm1.28-.3v1.433H3.014v-.372a1.068,1.068,0,0,1-.38.333,1.179,1.179,0,0,1-.514.1.958.958,0,0,1-.662-.226.756.756,0,0,1-.254-.592.714.714,0,0,1,.316-.646,1.872,1.872,0,0,1,1-.208h.5v-.064a.294.294,0,0,0-.158-.277,1.034,1.034,0,0,0-.49-.09,2.354,2.354,0,0,0-.5.051,1.787,1.787,0,0,0-.429.154v-.613a5.313,5.313,0,0,1,.538-.095,4.6,4.6,0,0,1,.546-.033,1.564,1.564,0,0,1,1.023.269,1.083,1.083,0,0,1,.316.871Z" transform="translate(-1.203 15.688)"/>
      </g>
      <g id="Group_29" data-name="Group 29" transform="translate(12.358 101.211)">
        <path id="Path_39" data-name="Path 39" d="M1.631-19.656v.712H2.5v.574H1.631V-17.3a.3.3,0,0,0,.072.236.467.467,0,0,0,.287.062h.431v.574H1.7a1.015,1.015,0,0,1-.707-.2A.91.91,0,0,1,.79-17.3v-1.066H.375v-.574H.79v-.712Z" transform="translate(-0.375 19.656)"/>
      </g>
      <g id="Group_30" data-name="Group 30" transform="translate(14.795 101.862)">
        <path id="Path_40" data-name="Path 40" d="M4.021-14.378v.231H2.058a.588.588,0,0,0,.214.423.817.817,0,0,0,.512.141,2.058,2.058,0,0,0,.541-.074,2.937,2.937,0,0,0,.571-.228v.618a3.662,3.662,0,0,1-.595.161,3.222,3.222,0,0,1-.595.056A1.631,1.631,0,0,1,1.6-13.4a1.224,1.224,0,0,1-.394-.971,1.236,1.236,0,0,1,.388-.966,1.523,1.523,0,0,1,1.066-.354,1.369,1.369,0,0,1,.991.359,1.257,1.257,0,0,1,.372.951Zm-.863-.267a.5.5,0,0,0-.139-.366.492.492,0,0,0-.364-.141.588.588,0,0,0-.4.131.592.592,0,0,0-.19.377Z" transform="translate(-1.203 15.688)"/>
      </g>
      <g id="Group_31" data-name="Group 31" transform="translate(18.061 100.944)">
        <path id="Path_41" data-name="Path 41" d="M3.238-19.936v-1.345h.844v3.491H3.238v-.364a1.09,1.09,0,0,1-.38.325,1.1,1.1,0,0,1-.485.1.993.993,0,0,1-.8-.369,1.419,1.419,0,0,1-.311-.948,1.424,1.424,0,0,1,.311-.951.993.993,0,0,1,.8-.369,1.062,1.062,0,0,1,.482.105,1.148,1.148,0,0,1,.383.323Zm-.552,1.627A.484.484,0,0,0,3.1-18.5a.9.9,0,0,0,.142-.548A.894.894,0,0,0,3.1-19.59a.482.482,0,0,0-.41-.19.481.481,0,0,0-.41.19.89.89,0,0,0-.142.546.9.9,0,0,0,.142.548A.482.482,0,0,0,2.686-18.308Z" transform="translate(-1.266 21.281)"/>
      </g>
      <g id="Group_32" data-name="Group 32" transform="translate(23.356 100.944)">
        <path id="Path_42" data-name="Path 42" d="M3.755-18.308a.486.486,0,0,0,.413-.187.9.9,0,0,0,.142-.548.894.894,0,0,0-.142-.546.485.485,0,0,0-.413-.19.491.491,0,0,0-.415.19.9.9,0,0,0-.142.546.9.9,0,0,0,.142.546.489.489,0,0,0,.415.19ZM3.2-19.936a1.175,1.175,0,0,1,.383-.323,1.078,1.078,0,0,1,.485-.105,1,1,0,0,1,.8.369,1.427,1.427,0,0,1,.311.951,1.423,1.423,0,0,1-.311.948,1,1,0,0,1-.8.369,1.1,1.1,0,0,1-.485-.1,1.145,1.145,0,0,1-.383-.325v.364H2.359v-3.491H3.2Z" transform="translate(-2.359 21.281)"/>
      </g>
      <g id="Group_33" data-name="Group 33" transform="translate(26.447 101.923)">
        <path id="Path_43" data-name="Path 43" d="M.344-15.312h.838l.707,1.7.6-1.7h.838l-1.1,2.75a1.338,1.338,0,0,1-.388.584.94.94,0,0,1-.584.169H.764v-.528h.263a.562.562,0,0,0,.311-.067.418.418,0,0,0,.153-.231l.024-.069Z" transform="translate(-0.344 15.312)"/>
      </g>
      <g id="Group_34" data-name="Group 34" transform="translate(31.212 101.088)">
        <path id="Path_44" data-name="Path 44" d="M2.68-17.669H1.271l-.225.61H.141l1.3-3.347H2.511l1.3,3.347H2.9ZM1.5-18.289h.956l-.477-1.333Z" transform="translate(-0.141 20.406)"/>
      </g>
      <g id="Group_35" data-name="Group 35" transform="translate(35.308 101.862)">
        <path id="Path_45" data-name="Path 45" d="M5-14.644v1.53H4.154v-1.171a4.11,4.11,0,0,0-.016-.448.467.467,0,0,0-.054-.182.336.336,0,0,0-.134-.12.408.408,0,0,0-.19-.044.492.492,0,0,0-.413.195.849.849,0,0,0-.15.536v1.235H2.359v-2.511H3.2v.366a1.328,1.328,0,0,1,.4-.323,1.058,1.058,0,0,1,.471-.105.87.87,0,0,1,.691.269A1.137,1.137,0,0,1,5-14.644Z" transform="translate(-2.359 15.687)"/>
      </g>
      <g id="Group_36" data-name="Group 36" transform="translate(38.527 101.862)">
        <path id="Path_46" data-name="Path 46" d="M4.021-14.378v.231H2.058a.588.588,0,0,0,.214.423.817.817,0,0,0,.512.141,2.058,2.058,0,0,0,.541-.074,2.937,2.937,0,0,0,.571-.228v.618a3.662,3.662,0,0,1-.595.161,3.222,3.222,0,0,1-.595.056A1.631,1.631,0,0,1,1.6-13.4a1.224,1.224,0,0,1-.394-.971,1.236,1.236,0,0,1,.388-.966,1.523,1.523,0,0,1,1.066-.354,1.369,1.369,0,0,1,.991.359,1.257,1.257,0,0,1,.372.951Zm-.863-.267a.5.5,0,0,0-.139-.366.492.492,0,0,0-.364-.141.588.588,0,0,0-.4.131.592.592,0,0,0-.19.377Z" transform="translate(-1.203 15.688)"/>
      </g>
      <g id="Group_37" data-name="Group 37" transform="translate(41.783 101.862)">
        <path id="Path_47" data-name="Path 47" d="M4.021-14.378v.231H2.058a.588.588,0,0,0,.214.423.817.817,0,0,0,.512.141,2.058,2.058,0,0,0,.541-.074,2.937,2.937,0,0,0,.571-.228v.618a3.662,3.662,0,0,1-.595.161,3.222,3.222,0,0,1-.595.056A1.631,1.631,0,0,1,1.6-13.4a1.224,1.224,0,0,1-.394-.971,1.236,1.236,0,0,1,.388-.966,1.523,1.523,0,0,1,1.066-.354,1.369,1.369,0,0,1,.991.359,1.257,1.257,0,0,1,.372.951Zm-.863-.267a.5.5,0,0,0-.139-.366.492.492,0,0,0-.364-.141.588.588,0,0,0-.4.131.592.592,0,0,0-.19.377Z" transform="translate(-1.203 15.688)"/>
      </g>
      <g id="Group_38" data-name="Group 38" transform="translate(45.049 101.867)">
        <path id="Path_48" data-name="Path 48" d="M2.685-15.077a.481.481,0,0,0-.41.19.89.89,0,0,0-.142.546.9.9,0,0,0,.142.548.482.482,0,0,0,.41.187.484.484,0,0,0,.41-.187.9.9,0,0,0,.142-.548.894.894,0,0,0-.142-.546A.482.482,0,0,0,2.685-15.077Zm.552,1.625a1.09,1.09,0,0,1-.38.325,1.1,1.1,0,0,1-.485.1.993.993,0,0,1-.8-.369,1.419,1.419,0,0,1-.311-.948,1.414,1.414,0,0,1,.311-.948,1,1,0,0,1,.8-.366,1.07,1.07,0,0,1,.485.105,1.109,1.109,0,0,1,.38.323V-15.6h.844v3.468H3.237Z" transform="translate(-1.266 15.656)"/>
      </g>
      <g id="Group_39" data-name="Group 39" transform="translate(48.643 101.923)">
        <path id="Path_49" data-name="Path 49" d="M2.188-13.78v-1.533h.844v.251c0,.137,0,.308,0,.513s0,.342,0,.41a4.13,4.13,0,0,0,.016.438.489.489,0,0,0,.056.192.363.363,0,0,0,.137.123.419.419,0,0,0,.19.041.5.5,0,0,0,.413-.192.852.852,0,0,0,.15-.536v-1.24h.838V-12.8H3.988v-.364a1.307,1.307,0,0,1-.4.325,1.068,1.068,0,0,1-.469.1A.877.877,0,0,1,2.426-13a1.126,1.126,0,0,1-.238-.777Z" transform="translate(-2.188 15.313)"/>
      </g>
      <g id="Group_40" data-name="Group 40" transform="translate(51.892 101.862)">
        <path id="Path_50" data-name="Path 50" d="M4.021-14.378v.231H2.058a.588.588,0,0,0,.214.423.817.817,0,0,0,.512.141,2.058,2.058,0,0,0,.541-.074,2.937,2.937,0,0,0,.571-.228v.618a3.662,3.662,0,0,1-.595.161,3.222,3.222,0,0,1-.595.056A1.631,1.631,0,0,1,1.6-13.4a1.224,1.224,0,0,1-.394-.971,1.236,1.236,0,0,1,.388-.966,1.523,1.523,0,0,1,1.066-.354,1.369,1.369,0,0,1,.991.359,1.257,1.257,0,0,1,.372.951Zm-.863-.267a.5.5,0,0,0-.139-.366.492.492,0,0,0-.364-.141.588.588,0,0,0-.4.131.592.592,0,0,0-.19.377Z" transform="translate(-1.203 15.688)"/>
      </g>
      <g id="Group_41" data-name="Group 41" transform="translate(56.636 101.088)">
        <path id="Path_51" data-name="Path 51" d="M2.68-17.669H1.271l-.225.61H.141l1.3-3.347H2.511l1.3,3.347H2.9ZM1.5-18.289h.956l-.477-1.333Z" transform="translate(-0.141 20.406)"/>
      </g>
      <g id="Group_42" data-name="Group 42" transform="translate(60.732 100.944)">
        <path id="Path_52" data-name="Path 52" d="M5-19.321v1.53H4.154v-1.166a4.174,4.174,0,0,0-.016-.454.467.467,0,0,0-.054-.182.336.336,0,0,0-.134-.12.408.408,0,0,0-.19-.044.492.492,0,0,0-.413.195.849.849,0,0,0-.15.536v1.235H2.359v-3.491H3.2v1.345a1.328,1.328,0,0,1,.4-.323,1.058,1.058,0,0,1,.471-.105.87.87,0,0,1,.691.269A1.137,1.137,0,0,1,5-19.321Z" transform="translate(-2.359 21.281)"/>
      </g>
      <g id="Group_43" data-name="Group 43" transform="translate(64.143 101.862)">
        <path id="Path_53" data-name="Path 53" d="M4.766-15.209a1.115,1.115,0,0,1,.378-.356.968.968,0,0,1,.482-.123.867.867,0,0,1,.688.269,1.127,1.127,0,0,1,.238.774v1.53H5.709v-1.369c0-.022,0-.053,0-.092a.689.689,0,0,0-.083-.384.293.293,0,0,0-.263-.12.423.423,0,0,0-.37.19.951.951,0,0,0-.134.543v1.233H4.018v-1.31a1.2,1.2,0,0,0-.075-.536.291.291,0,0,0-.268-.12.426.426,0,0,0-.372.19.935.935,0,0,0-.131.541v1.235H2.328v-2.511h.844v.366a1.073,1.073,0,0,1,.354-.32.921.921,0,0,1,.442-.108.922.922,0,0,1,.482.126.8.8,0,0,1,.316.354Z" transform="translate(-2.328 15.688)"/>
      </g>
      <g id="Group_44" data-name="Group 44" transform="translate(68.953 101.862)">
        <path id="Path_54" data-name="Path 54" d="M4.021-14.378v.231H2.058a.588.588,0,0,0,.214.423.817.817,0,0,0,.512.141,2.058,2.058,0,0,0,.541-.074,2.937,2.937,0,0,0,.571-.228v.618a3.662,3.662,0,0,1-.595.161,3.222,3.222,0,0,1-.595.056A1.631,1.631,0,0,1,1.6-13.4a1.224,1.224,0,0,1-.394-.971,1.236,1.236,0,0,1,.388-.966,1.523,1.523,0,0,1,1.066-.354,1.369,1.369,0,0,1,.991.359,1.257,1.257,0,0,1,.372.951Zm-.863-.267a.5.5,0,0,0-.139-.366.492.492,0,0,0-.364-.141.588.588,0,0,0-.4.131.592.592,0,0,0-.19.377Z" transform="translate(-1.203 15.688)"/>
      </g>
      <g id="Group_45" data-name="Group 45" transform="translate(72.219 100.944)">
        <path id="Path_55" data-name="Path 55" d="M3.238-19.936v-1.345h.844v3.491H3.238v-.364a1.09,1.09,0,0,1-.38.325,1.1,1.1,0,0,1-.485.1.993.993,0,0,1-.8-.369,1.419,1.419,0,0,1-.311-.948,1.424,1.424,0,0,1,.311-.951.993.993,0,0,1,.8-.369,1.062,1.062,0,0,1,.482.105,1.148,1.148,0,0,1,.383.323Zm-.552,1.627A.484.484,0,0,0,3.1-18.5a.9.9,0,0,0,.142-.548A.894.894,0,0,0,3.1-19.59a.482.482,0,0,0-.41-.19.481.481,0,0,0-.41.19.89.89,0,0,0-.142.546.9.9,0,0,0,.142.548A.482.482,0,0,0,2.686-18.308Z" transform="translate(-1.266 21.281)"/>
      </g>
      <g id="Group_46" data-name="Group 46" transform="translate(0 105.537)">
        <path id="Path_56" data-name="Path 56" d="M2.57-21.281v.528H2.107a.389.389,0,0,0-.249.062.275.275,0,0,0-.07.215v.174h.718v.574H1.788v1.937H.949v-1.937H.531V-20.3H.949v-.174a.743.743,0,0,1,.238-.607,1.152,1.152,0,0,1,.742-.2Z" transform="translate(-0.531 21.281)"/>
      </g>
      <g id="Group_47" data-name="Group 47" transform="translate(2.402 106.454)">
        <path id="Path_57" data-name="Path 57" d="M4.309-14.942a1.2,1.2,0,0,0-.222-.072.956.956,0,0,0-.217-.026.625.625,0,0,0-.5.2.828.828,0,0,0-.174.566v1.158H2.359v-2.511H3.2v.413a1.044,1.044,0,0,1,.37-.359,1.036,1.036,0,0,1,.5-.115c.028,0,.059,0,.091.005s.082.006.145.013Z" transform="translate(-2.359 15.687)"/>
      </g>
      <g id="Group_48" data-name="Group 48" transform="translate(4.571 106.454)">
        <path id="Path_58" data-name="Path 58" d="M2.65-15.114a.5.5,0,0,0-.426.192.894.894,0,0,0-.147.554.894.894,0,0,0,.147.554.5.5,0,0,0,.426.19.493.493,0,0,0,.418-.19.9.9,0,0,0,.147-.554.9.9,0,0,0-.147-.554A.491.491,0,0,0,2.65-15.114Zm0-.574a1.5,1.5,0,0,1,1.058.351,1.25,1.25,0,0,1,.38.969,1.254,1.254,0,0,1-.38.969,1.508,1.508,0,0,1-1.058.349A1.52,1.52,0,0,1,1.586-13.4a1.246,1.246,0,0,1-.383-.969,1.243,1.243,0,0,1,.383-.969A1.515,1.515,0,0,1,2.65-15.688Z" transform="translate(-1.203 15.688)"/>
      </g>
      <g id="Group_49" data-name="Group 49" transform="translate(8.062 106.454)">
        <path id="Path_59" data-name="Path 59" d="M4.766-15.209a1.115,1.115,0,0,1,.378-.356.968.968,0,0,1,.482-.123.867.867,0,0,1,.688.269,1.127,1.127,0,0,1,.238.774v1.53H5.709v-1.369c0-.022,0-.053,0-.092a.689.689,0,0,0-.083-.384.293.293,0,0,0-.263-.12.423.423,0,0,0-.37.19.951.951,0,0,0-.134.543v1.233H4.018v-1.31a1.2,1.2,0,0,0-.075-.536.291.291,0,0,0-.268-.12.426.426,0,0,0-.372.19.935.935,0,0,0-.131.541v1.235H2.328v-2.511h.844v.366a1.073,1.073,0,0,1,.354-.32.921.921,0,0,1,.442-.108.922.922,0,0,1,.482.126.8.8,0,0,1,.316.354Z" transform="translate(-2.328 15.688)"/>
      </g>
      <g id="Group_50" data-name="Group 50" transform="translate(14.4 105.803)">
        <path id="Path_60" data-name="Path 60" d="M1.631-19.656v.712H2.5v.574H1.631V-17.3a.3.3,0,0,0,.072.236.467.467,0,0,0,.287.062h.431v.574H1.7a1.015,1.015,0,0,1-.707-.2A.91.91,0,0,1,.79-17.3v-1.066H.375v-.574H.79v-.712Z" transform="translate(-0.375 19.656)"/>
      </g>
      <g id="Group_51" data-name="Group 51" transform="translate(17.035 105.537)">
        <path id="Path_61" data-name="Path 61" d="M5-19.321v1.53H4.154v-1.166a4.174,4.174,0,0,0-.016-.454.467.467,0,0,0-.054-.182.336.336,0,0,0-.134-.12.408.408,0,0,0-.19-.044.492.492,0,0,0-.413.195.849.849,0,0,0-.15.536v1.235H2.359v-3.491H3.2v1.345a1.328,1.328,0,0,1,.4-.323,1.058,1.058,0,0,1,.471-.105.87.87,0,0,1,.691.269A1.137,1.137,0,0,1,5-19.321Z" transform="translate(-2.359 21.281)"/>
      </g>
      <g id="Group_52" data-name="Group 52" transform="translate(20.254 106.454)">
        <path id="Path_62" data-name="Path 62" d="M4.021-14.378v.231H2.058a.588.588,0,0,0,.214.423.817.817,0,0,0,.512.141,2.058,2.058,0,0,0,.541-.074,2.937,2.937,0,0,0,.571-.228v.618a3.662,3.662,0,0,1-.595.161,3.222,3.222,0,0,1-.595.056A1.631,1.631,0,0,1,1.6-13.4a1.224,1.224,0,0,1-.394-.971,1.236,1.236,0,0,1,.388-.966,1.523,1.523,0,0,1,1.066-.354,1.369,1.369,0,0,1,.991.359,1.257,1.257,0,0,1,.372.951Zm-.863-.267a.5.5,0,0,0-.139-.366.492.492,0,0,0-.364-.141.588.588,0,0,0-.4.131.592.592,0,0,0-.19.377Z" transform="translate(-1.203 15.688)"/>
      </g>
      <g id="Group_53" data-name="Group 53" transform="translate(25.416 105.68)">
        <path id="Path_63" data-name="Path 63" d="M2.578-20.406H3.585l1.272,2.3v-2.3h.855v3.347H4.705l-1.272-2.3v2.3H2.578Z" transform="translate(-2.578 20.406)"/>
      </g>
      <g id="Group_54" data-name="Group 54" transform="translate(29.198 106.454)">
        <path id="Path_64" data-name="Path 64" d="M2.65-15.114a.5.5,0,0,0-.426.192.894.894,0,0,0-.147.554.894.894,0,0,0,.147.554.5.5,0,0,0,.426.19.493.493,0,0,0,.418-.19.9.9,0,0,0,.147-.554.9.9,0,0,0-.147-.554A.491.491,0,0,0,2.65-15.114Zm0-.574a1.5,1.5,0,0,1,1.058.351,1.25,1.25,0,0,1,.38.969,1.254,1.254,0,0,1-.38.969,1.508,1.508,0,0,1-1.058.349A1.52,1.52,0,0,1,1.586-13.4a1.246,1.246,0,0,1-.383-.969,1.243,1.243,0,0,1,.383-.969A1.515,1.515,0,0,1,2.65-15.688Z" transform="translate(-1.203 15.688)"/>
      </g>
      <g id="Group_55" data-name="Group 55" transform="translate(32.665 106.516)">
        <path id="Path_65" data-name="Path 65" d="M2.188-13.78v-1.533h.844v.251c0,.137,0,.308,0,.513s0,.342,0,.41a4.13,4.13,0,0,0,.016.438.489.489,0,0,0,.056.192.363.363,0,0,0,.137.123.419.419,0,0,0,.19.041.5.5,0,0,0,.413-.192.852.852,0,0,0,.15-.536v-1.24h.838V-12.8H3.988v-.364a1.307,1.307,0,0,1-.4.325,1.068,1.068,0,0,1-.469.1A.877.877,0,0,1,2.426-13a1.126,1.126,0,0,1-.238-.777Z" transform="translate(-2.188 15.313)"/>
      </g>
      <g id="Group_56" data-name="Group 56" transform="translate(36.112 106.454)">
        <path id="Path_66" data-name="Path 66" d="M5-14.644v1.53H4.154v-1.171a4.11,4.11,0,0,0-.016-.448.467.467,0,0,0-.054-.182.336.336,0,0,0-.134-.12.408.408,0,0,0-.19-.044.492.492,0,0,0-.413.195.849.849,0,0,0-.15.536v1.235H2.359v-2.511H3.2v.366a1.328,1.328,0,0,1,.4-.323,1.058,1.058,0,0,1,.471-.105.87.87,0,0,1,.691.269A1.137,1.137,0,0,1,5-14.644Z" transform="translate(-2.359 15.687)"/>
      </g>
      <g id="Group_57" data-name="Group 57" transform="translate(41.238 105.68)">
        <path id="Path_67" data-name="Path 67" d="M2.578-20.406h1.5a1.607,1.607,0,0,1,1.023.284.968.968,0,0,1,.359.807.974.974,0,0,1-.359.81,1.607,1.607,0,0,1-1.023.284h-.6v1.161h-.9Zm.9.625v.935h.5a.6.6,0,0,0,.4-.123.429.429,0,0,0,.145-.346.426.426,0,0,0-.145-.346.61.61,0,0,0-.4-.12Z" transform="translate(-2.578 20.406)"/>
      </g>
      <g id="Group_58" data-name="Group 58" transform="translate(44.719 106.454)">
        <path id="Path_68" data-name="Path 68" d="M4.309-14.942a1.2,1.2,0,0,0-.222-.072.956.956,0,0,0-.217-.026.625.625,0,0,0-.5.2.828.828,0,0,0-.174.566v1.158H2.359v-2.511H3.2v.413a1.044,1.044,0,0,1,.37-.359,1.036,1.036,0,0,1,.5-.115c.028,0,.059,0,.091.005s.082.006.145.013Z" transform="translate(-2.359 15.687)"/>
      </g>
      <g id="Group_59" data-name="Group 59" transform="translate(46.887 106.454)">
        <path id="Path_69" data-name="Path 69" d="M2.65-15.114a.5.5,0,0,0-.426.192.894.894,0,0,0-.147.554.894.894,0,0,0,.147.554.5.5,0,0,0,.426.19.493.493,0,0,0,.418-.19.9.9,0,0,0,.147-.554.9.9,0,0,0-.147-.554A.491.491,0,0,0,2.65-15.114Zm0-.574a1.5,1.5,0,0,1,1.058.351,1.25,1.25,0,0,1,.38.969,1.254,1.254,0,0,1-.38.969,1.508,1.508,0,0,1-1.058.349A1.52,1.52,0,0,1,1.586-13.4a1.246,1.246,0,0,1-.383-.969,1.243,1.243,0,0,1,.383-.969A1.515,1.515,0,0,1,2.65-15.688Z" transform="translate(-1.203 15.688)"/>
      </g>
      <g id="Group_60" data-name="Group 60" transform="translate(49.818 105.537)">
        <path id="Path_70" data-name="Path 70" d="M-.372-20.3H.466v2.465a1.077,1.077,0,0,1-.254.771.963.963,0,0,1-.734.267H-.937v-.528H-.79a.421.421,0,0,0,.327-.1.647.647,0,0,0,.091-.407Zm0-.979H.466v.656H-.372Z" transform="translate(0.937 21.281)"/>
      </g>
      <g id="Group_61" data-name="Group 61" transform="translate(51.831 106.454)">
        <path id="Path_71" data-name="Path 71" d="M4.021-14.378v.231H2.058a.588.588,0,0,0,.214.423.817.817,0,0,0,.512.141,2.058,2.058,0,0,0,.541-.074,2.937,2.937,0,0,0,.571-.228v.618a3.662,3.662,0,0,1-.595.161,3.222,3.222,0,0,1-.595.056A1.631,1.631,0,0,1,1.6-13.4a1.224,1.224,0,0,1-.394-.971,1.236,1.236,0,0,1,.388-.966,1.523,1.523,0,0,1,1.066-.354,1.369,1.369,0,0,1,.991.359,1.257,1.257,0,0,1,.372.951Zm-.863-.267a.5.5,0,0,0-.139-.366.492.492,0,0,0-.364-.141.588.588,0,0,0-.4.131.592.592,0,0,0-.19.377Z" transform="translate(-1.203 15.688)"/>
      </g>
      <g id="Group_62" data-name="Group 62" transform="translate(55.087 106.454)">
        <path id="Path_72" data-name="Path 72" d="M3.52-15.546v.654a1.328,1.328,0,0,0-.343-.167,1.184,1.184,0,0,0-.356-.054.744.744,0,0,0-.549.2.739.739,0,0,0-.2.548.743.743,0,0,0,.2.548.748.748,0,0,0,.549.195,1.274,1.274,0,0,0,.372-.054,1.116,1.116,0,0,0,.327-.167v.656a2.351,2.351,0,0,1-.4.1,2.334,2.334,0,0,1-.407.036A1.64,1.64,0,0,1,1.6-13.4a1.216,1.216,0,0,1-.4-.969,1.22,1.22,0,0,1,.4-.971,1.643,1.643,0,0,1,1.112-.349,2.334,2.334,0,0,1,.407.036,2.322,2.322,0,0,1,.4.105Z" transform="translate(-1.203 15.687)"/>
      </g>
      <g id="Group_63" data-name="Group 63" transform="translate(57.789 105.803)">
        <path id="Path_73" data-name="Path 73" d="M1.631-19.656v.712H2.5v.574H1.631V-17.3a.3.3,0,0,0,.072.236.467.467,0,0,0,.287.062h.431v.574H1.7a1.015,1.015,0,0,1-.707-.2A.91.91,0,0,1,.79-17.3v-1.066H.375v-.574H.79v-.712Z" transform="translate(-0.375 19.656)"/>
      </g>
    </g>
  </g>
</svg>
