<svg xmlns="http://www.w3.org/2000/svg" xmlns:xlink="http://www.w3.org/1999/xlink" width="124.058" height="123.185" viewBox="0 0 124.058 123.185">
  <defs>
    <clipPath id="clip-path">
      <rect id="Rectangle_8003" data-name="Rectangle 8003" width="124.058" height="123.185" fill="#fff" stroke="#707070" stroke-width="1"/>
    </clipPath>
  </defs>
  <g id="Mask_Group_7" data-name="Mask Group 7" clip-path="url(#clip-path)">
    <g id="noun-mental-health-5408846" transform="translate(-0.143 -0.448)">
      <path id="Path_55498" data-name="Path 55498" d="M133.663,12.387a1.551,1.551,0,0,1,2.02-.835,3.623,3.623,0,0,0,2.449-.239c.485-.143.984-.291,1.534-.4h0a1.551,1.551,0,1,1,.584,3.038c-.4.077-.808.2-1.238.326a9.208,9.208,0,0,1-2.638.494,4.842,4.842,0,0,1-1.869-.368,1.552,1.552,0,0,1-.843-2.02Zm10.843,52.129a5.959,5.959,0,0,1-1.629-1.174,5.947,5.947,0,0,1-1.629,1.174,6.066,6.066,0,0,1-2.694.633,5.932,5.932,0,0,1-2.977-.8,8.68,8.68,0,0,1-7.07-2.281,7.9,7.9,0,0,1-2.491-5.1,7.681,7.681,0,0,1-5.378-2.863,7.105,7.105,0,0,1-1.492-5.623A6.808,6.808,0,0,1,116,41.854a6.977,6.977,0,0,1,1.524-3.629,9.705,9.705,0,0,1,2.331-13.3,8.8,8.8,0,0,1,4.67-5.978,7,7,0,0,1,4.017-7.4A10.726,10.726,0,0,1,135.1,6.327a10.452,10.452,0,0,1,7.769.655,10.459,10.459,0,0,1,7.769-.655,10.727,10.727,0,0,1,6.562,5.222,7,7,0,0,1,4.018,7.4,8.8,8.8,0,0,1,4.67,5.98,9.705,9.705,0,0,1,2.331,13.3,7,7,0,0,1,1.523,3.63,6.809,6.809,0,0,1-3.146,6.636,7.113,7.113,0,0,1-1.493,5.623,7.68,7.68,0,0,1-5.378,2.863,7.893,7.893,0,0,1-2.491,5.1,8.669,8.669,0,0,1-7.069,2.281,5.993,5.993,0,0,1-5.661.161Zm4.4-3.028a1.551,1.551,0,0,1,1.233-.274,5.6,5.6,0,0,0,4.974-1.387,4.771,4.771,0,0,0,1.5-4.2,1.551,1.551,0,0,1,1.741-1.76,4.681,4.681,0,0,0,4.342-1.686,3.962,3.962,0,0,0,.654-3.936,1.55,1.55,0,0,1,.854-1.971,3.81,3.81,0,0,0,2.477-4.049,3.96,3.96,0,0,0-3.5-3.484,1.551,1.551,0,0,1,.489-3.055,7.816,7.816,0,0,1,2.1.647,6.607,6.607,0,0,0-2.094-9.168,1.553,1.553,0,0,1-.716-1.106,5.708,5.708,0,0,0-6.119-4.917,1.551,1.551,0,0,1-.251-3.084,8.7,8.7,0,0,1,1.629.018A3.924,3.924,0,0,0,155.54,14.2a1.55,1.55,0,0,1-.872-.808A7.592,7.592,0,0,0,149.792,9.3a7.04,7.04,0,0,0-5.981.747,1.552,1.552,0,0,1-1.868,0,7.041,7.041,0,0,0-5.981-.752,7.592,7.592,0,0,0-4.875,4.092,1.55,1.55,0,0,1-.867.81,3.922,3.922,0,0,0-2.681,3.874,8.9,8.9,0,0,1,1.629-.018,1.551,1.551,0,1,1-.251,3.084,5.708,5.708,0,0,0-6.119,4.917,1.553,1.553,0,0,1-.716,1.106,6.607,6.607,0,0,0-2.093,9.168,7.817,7.817,0,0,1,2.1-.647,1.551,1.551,0,0,1,.489,3.055,3.96,3.96,0,0,0-3.5,3.484,3.81,3.81,0,0,0,2.477,4.049,1.55,1.55,0,0,1,.854,1.971,3.964,3.964,0,0,0,.654,3.943A4.678,4.678,0,0,0,127.4,53.87a1.551,1.551,0,0,1,1.732,1.752,4.772,4.772,0,0,0,1.5,4.2,5.6,5.6,0,0,0,4.975,1.387,1.549,1.549,0,0,1,1.232.274,2.912,2.912,0,0,0,3.034.254,2.477,2.477,0,0,0,1.451-2.191,1.551,1.551,0,0,1,3.094,0,2.477,2.477,0,0,0,1.451,2.191,2.914,2.914,0,0,0,3.039-.251Zm.609-1.535a1.551,1.551,0,0,1-1.236-1.8,12.254,12.254,0,0,1,1.753-4.382c.183-1.508-.827-2.8-2.468-4.694a20.812,20.812,0,0,1-2.086-2.686h-5.207a20.949,20.949,0,0,1-2.084,2.686c-1.641,1.892-2.651,3.187-2.468,4.694h0a12.241,12.241,0,0,1,1.753,4.382,1.551,1.551,0,0,1-1.236,1.8,1.585,1.585,0,0,1-.286.026,1.55,1.55,0,0,1-1.519-1.263,9.547,9.547,0,0,0-3.9-5.965,7.686,7.686,0,0,1-.9.828,1.551,1.551,0,0,1-1.908-2.438,4.474,4.474,0,0,0,1.634-2.558,1.551,1.551,0,0,1,3.023.66,7.162,7.162,0,0,1-.239.856q.532.368,1.02.779h0a11.533,11.533,0,0,1,1.569-2.5,5.118,5.118,0,0,1-1.67-4.652,1.551,1.551,0,0,1,3.038.579,1.981,1.981,0,0,0,.635,1.7,6.758,6.758,0,0,0,1.432-2.421V40.231h-3.428a13.666,13.666,0,0,1-6.536,1.636,14.564,14.564,0,0,1-2.444-.209,1.551,1.551,0,0,1,.524-3.05,11.06,11.06,0,0,0,4.879-.238A8.414,8.414,0,0,1,129,35.894a7.99,7.99,0,0,1-.944-2.635h-.025a5.329,5.329,0,0,1-1.529-.225,1.551,1.551,0,1,1,.889-2.963,2.211,2.211,0,0,0,2.6-1.1,1.551,1.551,0,0,1,2.8,1.322,5.1,5.1,0,0,1-1.739,2.029,4.784,4.784,0,0,0,.632,2.035,5.272,5.272,0,0,0,.313.478V32.344a1.55,1.55,0,0,1,1.55-1.55h4.119a1.546,1.546,0,0,1-.573-1.419,6.211,6.211,0,0,0-2.054-5.457,11.462,11.462,0,0,1-4.954,1.457H130a1.551,1.551,0,0,1-.092-3.091,7.874,7.874,0,0,0,6.464-3.89,5.023,5.023,0,0,1-.863-.759,1.551,1.551,0,0,1,2.3-2.067,2.186,2.186,0,0,0,2.137.614,1.551,1.551,0,0,1,.742,3,5.31,5.31,0,0,1-1.272.154h-.054a10.132,10.132,0,0,1-1.847,2.666,9.706,9.706,0,0,1,1.852,2.671,1.517,1.517,0,0,1,.349-.04h6.335a1.516,1.516,0,0,1,.348.04,9.723,9.723,0,0,1,1.852-2.671A10.151,10.151,0,0,1,146.4,19.34h-.053a5.3,5.3,0,0,1-1.272-.154,1.551,1.551,0,1,1,.742-3,2.185,2.185,0,0,0,2.136-.614,1.551,1.551,0,0,1,2.3,2.067,5,5,0,0,1-.864.759,7.877,7.877,0,0,0,6.465,3.89,1.551,1.551,0,0,1-.092,3.091h-.095a11.466,11.466,0,0,1-4.955-1.453,6.212,6.212,0,0,0-2.06,5.453,1.545,1.545,0,0,1-.572,1.419h4.118a1.551,1.551,0,0,1,1.551,1.55v2.484a5,5,0,0,0,.312-.477,4.785,4.785,0,0,0,.632-2.036,5.092,5.092,0,0,1-1.739-2.028,1.551,1.551,0,0,1,2.8-1.322,2.208,2.208,0,0,0,2.6,1.1,1.551,1.551,0,1,1,.889,2.964,5.319,5.319,0,0,1-1.528.224H157.7a7.974,7.974,0,0,1-.943,2.636,8.406,8.406,0,0,1-2.163,2.475,11.049,11.049,0,0,0,4.879.239A1.551,1.551,0,0,1,160,41.649a14.474,14.474,0,0,1-2.444.209,13.662,13.662,0,0,1-6.541-1.627h-3.417v3.356a6.758,6.758,0,0,0,1.432,2.421,1.981,1.981,0,0,0,.635-1.7,1.551,1.551,0,1,1,3.038-.579,5.118,5.118,0,0,1-1.67,4.652,11.529,11.529,0,0,1,1.569,2.5q.489-.412,1.02-.779h0a7.153,7.153,0,0,1-.239-.856,1.551,1.551,0,1,1,3.023-.659,4.476,4.476,0,0,0,1.631,2.554,1.551,1.551,0,1,1-1.909,2.438,7.757,7.757,0,0,1-.9-.828,9.537,9.537,0,0,0-3.9,5.965,1.554,1.554,0,0,1-1.81,1.237ZM139.711,37.13a1.551,1.551,0,0,1,1.55,1.551v4.611H144.5V38.681a1.551,1.551,0,0,1,1.551-1.551h4.612V33.892h-4.622a1.551,1.551,0,0,1-1.551-1.551V27.732h-3.238v4.612a1.551,1.551,0,0,1-1.55,1.551h-4.6V37.13Zm5.794-23.173c.4.077.808.2,1.238.326h0a9.224,9.224,0,0,0,2.637.494,4.848,4.848,0,0,0,1.87-.367,1.551,1.551,0,1,0-1.179-2.863,3.628,3.628,0,0,1-2.449-.239c-.485-.143-.984-.291-1.535-.4h0a1.551,1.551,0,1,0-.585,3.039ZM194.473,51.4l-3.841,28.037a13.96,13.96,0,0,1-5.57,9.532L173.824,97.5a10.766,10.766,0,0,0-4.244,6.714,3.379,3.379,0,0,1,2.756,3.78l-.81,5.914a3.383,3.383,0,0,1-3.343,2.92,3.739,3.739,0,0,1-.461-.031l-19.829-2.713a3.384,3.384,0,0,1-2.887-3.8l.81-5.914h0a3.383,3.383,0,0,1,3.8-2.887l.059.007,1.774-12.5c.645-4.551,2.66-7.886,5.823-9.644l9.783-5.439,1.767-12.253a6.067,6.067,0,0,1,5.81-5.192l.26-1.819a6.052,6.052,0,0,1,6.786-5.144,6.2,6.2,0,0,1,.863.185,6.024,6.024,0,0,1,11.922,1.734Zm-18.7,19.041a5.951,5.951,0,0,1,3.161,1.467l3.116-19.142h0a2.915,2.915,0,0,0-.776-.22,2.951,2.951,0,0,0-3.3,2.514ZM170.464,72l1.432-.794.047-.025c.215-.11.428-.2.64-.289L174.2,59.605a2.969,2.969,0,0,0-2.3,2.474Zm-1.193,35.57a.289.289,0,0,0-.239-.32L149.2,104.537a.151.151,0,0,0-.038,0,.289.289,0,0,0-.171.059.284.284,0,0,0-.111.186l-.81,5.914a.29.29,0,0,0,.239.319l19.832,2.709a.287.287,0,0,0,.32-.238Zm21.562-58.755a2.913,2.913,0,0,0-1.933-1.134,2.973,2.973,0,0,0-3.307,2.544l-4.4,27.047a4.5,4.5,0,0,1-2.267,3.572l-14.832,8.471a1.551,1.551,0,1,1-1.534-2.687l14.832-8.47h0a1.367,1.367,0,0,0,.673-.9l.007-.052.036-.221h0a3.347,3.347,0,0,0-.413-1.735,3.058,3.058,0,0,0-4.32-1.324l-14.588,8.113c-2.327,1.281-3.758,3.764-4.266,7.367L152.746,101.9l13.766,1.886h0a13.924,13.924,0,0,1,5.44-8.747L183.19,86.5a10.966,10.966,0,0,0,4.375-7.488l3.841-28.037a2.911,2.911,0,0,0-.572-2.163Zm-52.511,61.455a3.384,3.384,0,0,1-2.887,3.8L115.6,116.794a3.743,3.743,0,0,1-.461.031,3.383,3.383,0,0,1-3.34-2.92L110.989,108a3.379,3.379,0,0,1,2.756-3.78A10.766,10.766,0,0,0,109.5,97.5L98.265,88.965h0a13.958,13.958,0,0,1-5.57-9.533L88.854,51.4a6.024,6.024,0,0,1,11.922-1.735,6.158,6.158,0,0,1,.863-.185,6.052,6.052,0,0,1,6.785,5.144l.26,1.819a6.065,6.065,0,0,1,5.81,5.193l1.767,12.253,9.783,5.439c3.164,1.758,5.177,5.093,5.823,9.644l1.774,12.5.058-.009a3.384,3.384,0,0,1,3.8,2.889ZM109.136,59.606l1.613,11.287c.211.086.425.179.64.289l.047.025,1.432.794-1.432-9.923a2.968,2.968,0,0,0-2.3-2.471Zm-7.854-6.837L104.4,71.911h0a5.951,5.951,0,0,1,3.161-1.467l-2.2-15.381a2.953,2.953,0,0,0-3.308-2.514,2.916,2.916,0,0,0-.772.22Zm15.533,51.016,13.766-1.886L128.81,89.411c-.508-3.6-1.939-6.087-4.262-7.375l-14.588-8.113h0a3.058,3.058,0,0,0-4.321,1.324,3.345,3.345,0,0,0-.413,1.732l.036.223.009.054a1.359,1.359,0,0,0,.671.895l14.832,8.47a1.551,1.551,0,0,1-1.538,2.694L104.4,80.846h0a4.5,4.5,0,0,1-2.267-3.572l-4.4-27.045a2.971,2.971,0,0,0-3.307-2.543,2.942,2.942,0,0,0-2.505,3.3l3.841,28.037a10.966,10.966,0,0,0,4.375,7.488l11.238,8.533a13.927,13.927,0,0,1,5.44,8.742Zm18.44,6.907-.81-5.916a.286.286,0,0,0-.111-.187.289.289,0,0,0-.171-.058h-.038L114.3,107.254a.288.288,0,0,0-.239.319l.81,5.914a.288.288,0,0,0,.319.239l19.829-2.718a.29.29,0,0,0,.239-.319Z" transform="translate(-79.967 -5.866)" fill="#fff"/>
      <g id="Group_971" data-name="Group 971" transform="translate(0.439 146.037)">
        <path id="Path_55499" data-name="Path 55499" d="M10.315-11.856a6.742,6.742,0,0,1-1.536.583,7.04,7.04,0,0,1-1.672.2,5.721,5.721,0,0,1-4.124-1.453,5.2,5.2,0,0,1-1.513-3.943,5.214,5.214,0,0,1,1.513-3.95,5.721,5.721,0,0,1,4.124-1.453,7.04,7.04,0,0,1,1.672.2,7.093,7.093,0,0,1,1.536.575v2.157a5.825,5.825,0,0,0-1.468-.742,4.825,4.825,0,0,0-1.529-.242,2.871,2.871,0,0,0-2.255.923,3.652,3.652,0,0,0-.825,2.535,3.665,3.665,0,0,0,.825,2.535,2.878,2.878,0,0,0,2.255.916,4.93,4.93,0,0,0,1.529-.235A5.927,5.927,0,0,0,10.315-14Z" transform="translate(-1.468 21.875)"/>
      </g>
      <g id="Group_972" data-name="Group 972" transform="translate(11.398 148.641)">
        <path id="Path_55500" data-name="Path 55500" d="M8.273-14.191a3.239,3.239,0,0,0-.658-.219,2.874,2.874,0,0,0-.651-.076,1.834,1.834,0,0,0-1.483.621A2.667,2.667,0,0,0,4.966-12.1v3.595h-2.5v-7.8h2.5v1.279a3.184,3.184,0,0,1,1.1-1.112,2.967,2.967,0,0,1,1.5-.356c.079,0,.168,0,.265.008s.244.021.431.045Z" transform="translate(-2.469 16.499)"/>
      </g>
      <g id="Group_973" data-name="Group 973" transform="translate(17.855 148.641)">
        <path id="Path_55501" data-name="Path 55501" d="M9.642-12.429v.7H3.808A1.874,1.874,0,0,0,4.443-10.4a2.36,2.36,0,0,0,1.521.439A5.86,5.86,0,0,0,7.576-10.2a8.2,8.2,0,0,0,1.7-.711v1.922A10.051,10.051,0,0,1,7.5-8.479,9.21,9.21,0,0,1,5.73-8.3,4.69,4.69,0,0,1,2.438-9.379a3.906,3.906,0,0,1-1.173-3.027,3.925,3.925,0,0,1,1.15-3,4.439,4.439,0,0,1,3.178-1.1,3.965,3.965,0,0,1,2.944,1.112,4,4,0,0,1,1.1,2.959Zm-2.565-.832A1.584,1.584,0,0,0,6.661-14.4a1.431,1.431,0,0,0-1.082-.439,1.7,1.7,0,0,0-1.181.409,1.905,1.905,0,0,0-.56,1.173Z" transform="translate(-1.265 16.5)"/>
      </g>
      <g id="Group_974" data-name="Group 974" transform="translate(27.538 148.641)">
        <path id="Path_55502" data-name="Path 55502" d="M5.352-12.02a2.156,2.156,0,0,0-1.181.265.88.88,0,0,0-.394.779.935.935,0,0,0,.318.749,1.337,1.337,0,0,0,.885.265,1.553,1.553,0,0,0,1.181-.507,1.76,1.76,0,0,0,.484-1.264v-.288Zm3.806-.938v4.45H6.646V-9.667A3.185,3.185,0,0,1,5.519-8.63,3.312,3.312,0,0,1,3.99-8.3a2.771,2.771,0,0,1-1.968-.7,2.4,2.4,0,0,1-.757-1.839,2.249,2.249,0,0,1,.946-2.013A5.379,5.379,0,0,1,5.178-13.5H6.646v-.2a.926.926,0,0,0-.469-.863,2.912,2.912,0,0,0-1.453-.28,6.611,6.611,0,0,0-1.491.159,5.074,5.074,0,0,0-1.286.484v-1.907a13.86,13.86,0,0,1,1.612-.3,13.654,13.654,0,0,1,1.619-.1,4.516,4.516,0,0,1,3.042.832,3.463,3.463,0,0,1,.938,2.709Z" transform="translate(-1.266 16.5)"/>
      </g>
      <g id="Group_975" data-name="Group 975" transform="translate(36.745 146.612)">
        <path id="Path_55503" data-name="Path 55503" d="M4.121-20.688v2.217H6.694v1.778H4.121v3.315a.944.944,0,0,0,.219.734,1.367,1.367,0,0,0,.855.189H6.482v1.786H4.341a2.922,2.922,0,0,1-2.1-.613,2.922,2.922,0,0,1-.613-2.1v-3.315H.391v-1.778H1.632v-2.217Z" transform="translate(-0.391 20.688)"/>
      </g>
      <g id="Group_976" data-name="Group 976" transform="translate(43.993 148.641)">
        <path id="Path_55504" data-name="Path 55504" d="M9.642-12.429v.7H3.808A1.874,1.874,0,0,0,4.443-10.4a2.36,2.36,0,0,0,1.521.439A5.86,5.86,0,0,0,7.576-10.2a8.2,8.2,0,0,0,1.7-.711v1.922A10.051,10.051,0,0,1,7.5-8.479,9.21,9.21,0,0,1,5.73-8.3,4.69,4.69,0,0,1,2.438-9.379a3.906,3.906,0,0,1-1.173-3.027,3.925,3.925,0,0,1,1.15-3,4.439,4.439,0,0,1,3.178-1.1,3.965,3.965,0,0,1,2.944,1.112,4,4,0,0,1,1.1,2.959Zm-2.565-.832A1.584,1.584,0,0,0,6.661-14.4a1.431,1.431,0,0,0-1.082-.439,1.7,1.7,0,0,0-1.181.409,1.905,1.905,0,0,0-.56,1.173Z" transform="translate(-1.265 16.5)"/>
      </g>
      <g id="Group_977" data-name="Group 977" transform="translate(53.706 145.788)">
        <path id="Path_55505" data-name="Path 55505" d="M7.193-18.206v-4.185H9.706v10.844H7.193v-1.128A3.429,3.429,0,0,1,6.058-11.66a3.114,3.114,0,0,1-1.438.318,2.921,2.921,0,0,1-2.369-1.143,4.569,4.569,0,0,1-.923-2.959,4.533,4.533,0,0,1,.923-2.944,2.917,2.917,0,0,1,2.369-1.15,3.053,3.053,0,0,1,1.43.325,3.348,3.348,0,0,1,1.143,1.006ZM5.551-13.158a1.4,1.4,0,0,0,1.218-.583,2.876,2.876,0,0,0,.424-1.7,2.866,2.866,0,0,0-.424-1.7,1.4,1.4,0,0,0-1.218-.59,1.407,1.407,0,0,0-1.218.59,2.853,2.853,0,0,0-.424,1.7,2.862,2.862,0,0,0,.424,1.7A1.411,1.411,0,0,0,5.551-13.158Z" transform="translate(-1.329 22.391)"/>
      </g>
      <g id="Group_978" data-name="Group 978" transform="translate(69.444 145.788)">
        <path id="Path_55506" data-name="Path 55506" d="M6.623-13.159a1.422,1.422,0,0,0,1.226-.583,2.876,2.876,0,0,0,.424-1.7,2.866,2.866,0,0,0-.424-1.7,1.419,1.419,0,0,0-1.226-.59,1.435,1.435,0,0,0-1.233.59,2.872,2.872,0,0,0-.424,1.7,2.886,2.886,0,0,0,.424,1.7,1.438,1.438,0,0,0,1.233.583ZM4.966-18.206a3.313,3.313,0,0,1,1.143-1.006,3.111,3.111,0,0,1,1.445-.325,2.9,2.9,0,0,1,2.361,1.15,4.515,4.515,0,0,1,.931,2.944,4.551,4.551,0,0,1-.931,2.959,2.9,2.9,0,0,1-2.361,1.143,3.111,3.111,0,0,1-1.445-.325,3.394,3.394,0,0,1-1.143-1.006v1.128h-2.5V-22.391h2.5Z" transform="translate(-2.469 22.391)"/>
      </g>
      <g id="Group_979" data-name="Group 979" transform="translate(78.642 148.83)">
        <path id="Path_55507" data-name="Path 55507" d="M.359-16.109h2.5l2.1,5.29,1.786-5.29h2.49L5.952-7.565A4.176,4.176,0,0,1,4.794-5.749a2.721,2.721,0,0,1-1.741.522H1.615V-6.862h.779a1.626,1.626,0,0,0,.923-.2,1.338,1.338,0,0,0,.446-.726L3.84-8Z" transform="translate(-0.359 16.109)"/>
      </g>
      <g id="Group_980" data-name="Group 980" transform="translate(94.051 146.227)">
        <path id="Path_55508" data-name="Path 55508" d="M2.7-21.484H6.116l2.369,5.57,2.384-5.57h3.413v10.4H11.746v-7.613l-2.4,5.615h-1.7l-2.4-5.615v7.613H2.7Z" transform="translate(-2.703 21.484)"/>
      </g>
      <g id="Group_981" data-name="Group 981" transform="translate(107.559 148.641)">
        <path id="Path_55509" data-name="Path 55509" d="M5.352-12.02a2.156,2.156,0,0,0-1.181.265.88.88,0,0,0-.394.779.935.935,0,0,0,.318.749,1.337,1.337,0,0,0,.885.265,1.553,1.553,0,0,0,1.181-.507,1.76,1.76,0,0,0,.484-1.264v-.288Zm3.806-.938v4.45H6.646V-9.667A3.185,3.185,0,0,1,5.519-8.63,3.312,3.312,0,0,1,3.99-8.3a2.771,2.771,0,0,1-1.968-.7,2.4,2.4,0,0,1-.757-1.839,2.249,2.249,0,0,1,.946-2.013A5.379,5.379,0,0,1,5.178-13.5H6.646v-.2a.926.926,0,0,0-.469-.863,2.912,2.912,0,0,0-1.453-.28,6.611,6.611,0,0,0-1.491.159,5.074,5.074,0,0,0-1.286.484v-1.907a13.86,13.86,0,0,1,1.612-.3,13.654,13.654,0,0,1,1.619-.1,4.516,4.516,0,0,1,3.042.832,3.463,3.463,0,0,1,.938,2.709Z" transform="translate(-1.266 16.5)"/>
      </g>
      <g id="Group_982" data-name="Group 982" transform="translate(116.753 148.83)">
        <path id="Path_55510" data-name="Path 55510" d="M.359-16.109h2.5l2.1,5.29,1.786-5.29h2.49L5.952-7.565A4.176,4.176,0,0,1,4.794-5.749a2.721,2.721,0,0,1-1.741.522H1.615V-6.862h.779a1.626,1.626,0,0,0,.923-.2,1.338,1.338,0,0,0,.446-.726L3.84-8Z" transform="translate(-0.359 16.109)"/>
      </g>
      <g id="Group_983" data-name="Group 983" transform="translate(126.496 148.641)">
        <path id="Path_55511" data-name="Path 55511" d="M5.352-12.02a2.156,2.156,0,0,0-1.181.265.88.88,0,0,0-.394.779.935.935,0,0,0,.318.749,1.337,1.337,0,0,0,.885.265,1.553,1.553,0,0,0,1.181-.507,1.76,1.76,0,0,0,.484-1.264v-.288Zm3.806-.938v4.45H6.646V-9.667A3.185,3.185,0,0,1,5.519-8.63,3.312,3.312,0,0,1,3.99-8.3a2.771,2.771,0,0,1-1.968-.7,2.4,2.4,0,0,1-.757-1.839,2.249,2.249,0,0,1,.946-2.013A5.379,5.379,0,0,1,5.178-13.5H6.646v-.2a.926.926,0,0,0-.469-.863,2.912,2.912,0,0,0-1.453-.28,6.611,6.611,0,0,0-1.491.159,5.074,5.074,0,0,0-1.286.484v-1.907a13.86,13.86,0,0,1,1.612-.3,13.654,13.654,0,0,1,1.619-.1,4.516,4.516,0,0,1,3.042.832,3.463,3.463,0,0,1,.938,2.709Z" transform="translate(-1.266 16.5)"/>
      </g>
      <g id="Group_984" data-name="Group 984" transform="translate(141.796 146.227)">
        <path id="Path_55512" data-name="Path 55512" d="M2.7-21.484h3l3.784,7.136v-7.136h2.543v10.4h-3L5.246-18.215v7.136H2.7Z" transform="translate(-2.703 21.484)"/>
      </g>
      <g id="Group_985" data-name="Group 985" transform="translate(153.544 148.83)">
        <path id="Path_55513" data-name="Path 55513" d="M2.3-11.349v-4.76H4.809v.779c0,.424,0,.957-.008,1.6s-.008,1.059-.008,1.271q0,.939.045,1.355a1.485,1.485,0,0,0,.174.605,1.062,1.062,0,0,0,.394.378,1.221,1.221,0,0,0,.575.129,1.448,1.448,0,0,0,1.226-.6,2.734,2.734,0,0,0,.446-1.665v-3.852h2.49v7.8H7.655V-9.435a3.9,3.9,0,0,1-1.2,1.006A2.988,2.988,0,0,1,5.066-8.1,2.573,2.573,0,0,1,3-8.928a3.657,3.657,0,0,1-.7-2.422Z" transform="translate(-2.297 16.109)"/>
      </g>
      <g id="Group_986" data-name="Group 986" transform="translate(163.79 148.641)">
        <path id="Path_55514" data-name="Path 55514" d="M8.273-14.191a3.239,3.239,0,0,0-.658-.219,2.874,2.874,0,0,0-.651-.076,1.834,1.834,0,0,0-1.483.621A2.667,2.667,0,0,0,4.966-12.1v3.595h-2.5v-7.8h2.5v1.279a3.184,3.184,0,0,1,1.1-1.112,2.967,2.967,0,0,1,1.5-.356c.079,0,.168,0,.265.008s.244.021.431.045Z" transform="translate(-2.469 16.499)"/>
      </g>
      <g id="Group_987" data-name="Group 987" transform="translate(170.83 145.788)">
        <path id="Path_55515" data-name="Path 55515" d="M10.316-16.3v4.752h-2.5v-3.625q0-1.022-.045-1.408a1.361,1.361,0,0,0-.159-.56,1,1,0,0,0-.4-.386,1.166,1.166,0,0,0-.568-.136,1.44,1.44,0,0,0-1.226.605,2.761,2.761,0,0,0-.446,1.672v3.837h-2.5V-22.391h2.5v4.185a3.814,3.814,0,0,1,1.2-1.006,3.059,3.059,0,0,1,1.408-.325,2.518,2.518,0,0,1,2.043.832,3.616,3.616,0,0,1,.7,2.406Z" transform="translate(-2.469 22.391)"/>
      </g>
      <g id="Group_988" data-name="Group 988" transform="translate(180.41 148.641)">
        <path id="Path_55516" data-name="Path 55516" d="M5.352-12.02a2.156,2.156,0,0,0-1.181.265.88.88,0,0,0-.394.779.935.935,0,0,0,.318.749,1.337,1.337,0,0,0,.885.265,1.553,1.553,0,0,0,1.181-.507,1.76,1.76,0,0,0,.484-1.264v-.288Zm3.806-.938v4.45H6.646V-9.667A3.185,3.185,0,0,1,5.519-8.63,3.312,3.312,0,0,1,3.99-8.3a2.771,2.771,0,0,1-1.968-.7,2.4,2.4,0,0,1-.757-1.839,2.249,2.249,0,0,1,.946-2.013A5.379,5.379,0,0,1,5.178-13.5H6.646v-.2a.926.926,0,0,0-.469-.863,2.912,2.912,0,0,0-1.453-.28,6.611,6.611,0,0,0-1.491.159,5.074,5.074,0,0,0-1.286.484v-1.907a13.86,13.86,0,0,1,1.612-.3,13.654,13.654,0,0,1,1.619-.1,4.516,4.516,0,0,1,3.042.832,3.463,3.463,0,0,1,.938,2.709Z" transform="translate(-1.266 16.5)"/>
      </g>
      <g id="Group_989" data-name="Group 989" transform="translate(189.602 148.83)">
        <path id="Path_55517" data-name="Path 55517" d="M.359-16.109h2.5l2.1,5.29,1.786-5.29h2.49L5.952-7.565A4.176,4.176,0,0,1,4.794-5.749a2.721,2.721,0,0,1-1.741.522H1.615V-6.862h.779a1.626,1.626,0,0,0,.923-.2,1.338,1.338,0,0,0,.446-.726L3.84-8Z" transform="translate(-0.359 16.109)"/>
      </g>
      <g id="Group_990" data-name="Group 990" transform="translate(199.347 148.641)">
        <path id="Path_55518" data-name="Path 55518" d="M5.352-12.02a2.156,2.156,0,0,0-1.181.265.88.88,0,0,0-.394.779.935.935,0,0,0,.318.749,1.337,1.337,0,0,0,.885.265,1.553,1.553,0,0,0,1.181-.507,1.76,1.76,0,0,0,.484-1.264v-.288Zm3.806-.938v4.45H6.646V-9.667A3.185,3.185,0,0,1,5.519-8.63,3.312,3.312,0,0,1,3.99-8.3a2.771,2.771,0,0,1-1.968-.7,2.4,2.4,0,0,1-.757-1.839,2.249,2.249,0,0,1,.946-2.013A5.379,5.379,0,0,1,5.178-13.5H6.646v-.2a.926.926,0,0,0-.469-.863,2.912,2.912,0,0,0-1.453-.28,6.611,6.611,0,0,0-1.491.159,5.074,5.074,0,0,0-1.286.484v-1.907a13.86,13.86,0,0,1,1.612-.3,13.654,13.654,0,0,1,1.619-.1,4.516,4.516,0,0,1,3.042.832,3.463,3.463,0,0,1,.938,2.709Z" transform="translate(-1.266 16.5)"/>
      </g>
      <g id="Group_991" data-name="Group 991" transform="translate(208.555 146.612)">
        <path id="Path_55519" data-name="Path 55519" d="M4.121-20.688v2.217H6.694v1.778H4.121v3.315a.944.944,0,0,0,.219.734,1.367,1.367,0,0,0,.855.189H6.482v1.786H4.341a2.922,2.922,0,0,1-2.1-.613,2.922,2.922,0,0,1-.613-2.1v-3.315H.391v-1.778H1.632v-2.217Z" transform="translate(-0.391 20.688)"/>
      </g>
      <g id="Group_992" data-name="Group 992" transform="translate(216.385 145.788)">
        <path id="Path_55520" data-name="Path 55520" d="M2.469-19.348h2.5v7.8h-2.5Zm0-3.042h2.5v2.036h-2.5Z" transform="translate(-2.469 22.39)"/>
      </g>
      <g id="Group_993" data-name="Group 993" transform="translate(0 160.062)">
        <path id="Path_55521" data-name="Path 55521" d="M6.624-22.391v1.635H5.247a1.089,1.089,0,0,0-.742.2.884.884,0,0,0-.2.666v.545H6.427v1.778H4.3v6.024H1.8v-6.024H.562v-1.778H1.8v-.545a2.342,2.342,0,0,1,.711-1.884,3.312,3.312,0,0,1,2.2-.613Z" transform="translate(-0.562 22.391)"/>
      </g>
      <g id="Group_994" data-name="Group 994" transform="translate(7.134 162.915)">
        <path id="Path_55522" data-name="Path 55522" d="M8.273-14.191a3.239,3.239,0,0,0-.658-.219,2.874,2.874,0,0,0-.651-.076,1.834,1.834,0,0,0-1.483.621A2.667,2.667,0,0,0,4.966-12.1v3.595h-2.5v-7.8h2.5v1.279a3.184,3.184,0,0,1,1.1-1.112,2.967,2.967,0,0,1,1.5-.356c.079,0,.168,0,.265.008s.244.021.431.045Z" transform="translate(-2.469 16.499)"/>
      </g>
      <g id="Group_995" data-name="Group 995" transform="translate(13.591 162.915)">
        <path id="Path_55523" data-name="Path 55523" d="M5.564-14.722a1.473,1.473,0,0,0-1.264.6,2.912,2.912,0,0,0-.431,1.718A2.9,2.9,0,0,0,4.3-10.688a1.468,1.468,0,0,0,1.264.6,1.443,1.443,0,0,0,1.249-.6,2.9,2.9,0,0,0,.431-1.718,2.912,2.912,0,0,0-.431-1.718A1.448,1.448,0,0,0,5.564-14.722Zm0-1.778a4.36,4.36,0,0,1,3.148,1.09,3.956,3.956,0,0,1,1.135,3A3.976,3.976,0,0,1,8.712-9.394,4.36,4.36,0,0,1,5.564-8.3,4.395,4.395,0,0,1,2.4-9.394a3.976,3.976,0,0,1-1.135-3.012,3.956,3.956,0,0,1,1.135-3A4.395,4.395,0,0,1,5.564-16.5Z" transform="translate(-1.266 16.5)"/>
      </g>
      <g id="Group_996" data-name="Group 996" transform="translate(23.971 162.915)">
        <path id="Path_55524" data-name="Path 55524" d="M9.695-15.017a3.405,3.405,0,0,1,1.128-1.1,2.8,2.8,0,0,1,1.43-.378,2.539,2.539,0,0,1,2.051.832,3.616,3.616,0,0,1,.7,2.406v4.752H12.495V-12.58c0-.061.008-.123.008-.189s.008-.159.008-.28a2.266,2.266,0,0,0-.242-1.2.867.867,0,0,0-.787-.378,1.235,1.235,0,0,0-1.1.59,3.154,3.154,0,0,0-.4,1.7v3.829h-2.5V-12.58a3.81,3.81,0,0,0-.227-1.665.843.843,0,0,0-.795-.378,1.258,1.258,0,0,0-1.112.59,3.086,3.086,0,0,0-.386,1.688v3.837h-2.5v-7.8h2.5v1.143a3.236,3.236,0,0,1,1.052-1A2.66,2.66,0,0,1,7.326-16.5a2.627,2.627,0,0,1,1.43.394,2.429,2.429,0,0,1,.938,1.09Z" transform="translate(-2.453 16.5)"/>
      </g>
      <g id="Group_997" data-name="Group 997" transform="translate(42.816 160.886)">
        <path id="Path_55525" data-name="Path 55525" d="M4.121-20.688v2.217H6.694v1.778H4.121v3.315a.944.944,0,0,0,.219.734,1.367,1.367,0,0,0,.855.189H6.482v1.786H4.341a2.922,2.922,0,0,1-2.1-.613,2.922,2.922,0,0,1-.613-2.1v-3.315H.391v-1.778H1.632v-2.217Z" transform="translate(-0.391 20.688)"/>
      </g>
      <g id="Group_998" data-name="Group 998" transform="translate(50.647 160.062)">
        <path id="Path_55526" data-name="Path 55526" d="M10.316-16.3v4.752h-2.5v-3.625q0-1.022-.045-1.408a1.361,1.361,0,0,0-.159-.56,1,1,0,0,0-.4-.386,1.166,1.166,0,0,0-.568-.136,1.44,1.44,0,0,0-1.226.605,2.761,2.761,0,0,0-.446,1.672v3.837h-2.5V-22.391h2.5v4.185a3.814,3.814,0,0,1,1.2-1.006,3.059,3.059,0,0,1,1.408-.325,2.518,2.518,0,0,1,2.043.832,3.616,3.616,0,0,1,.7,2.406Z" transform="translate(-2.469 22.391)"/>
      </g>
      <g id="Group_999" data-name="Group 999" transform="translate(60.226 162.915)">
        <path id="Path_55527" data-name="Path 55527" d="M9.642-12.429v.7H3.808A1.874,1.874,0,0,0,4.443-10.4a2.36,2.36,0,0,0,1.521.439A5.86,5.86,0,0,0,7.576-10.2a8.2,8.2,0,0,0,1.7-.711v1.922A10.051,10.051,0,0,1,7.5-8.479,9.21,9.21,0,0,1,5.73-8.3,4.69,4.69,0,0,1,2.438-9.379a3.906,3.906,0,0,1-1.173-3.027,3.925,3.925,0,0,1,1.15-3,4.439,4.439,0,0,1,3.178-1.1,3.965,3.965,0,0,1,2.944,1.112,4,4,0,0,1,1.1,2.959Zm-2.565-.832A1.584,1.584,0,0,0,6.661-14.4a1.431,1.431,0,0,0-1.082-.439,1.7,1.7,0,0,0-1.181.409,1.905,1.905,0,0,0-.56,1.173Z" transform="translate(-1.265 16.5)"/>
      </g>
      <g id="Group_1000" data-name="Group 1000" transform="translate(75.573 160.501)">
        <path id="Path_55528" data-name="Path 55528" d="M2.7-21.484h3l3.784,7.136v-7.136h2.543v10.4h-3L5.246-18.215v7.136H2.7Z" transform="translate(-2.703 21.484)"/>
      </g>
      <g id="Group_1001" data-name="Group 1001" transform="translate(86.824 162.915)">
        <path id="Path_55529" data-name="Path 55529" d="M5.564-14.722a1.473,1.473,0,0,0-1.264.6,2.912,2.912,0,0,0-.431,1.718A2.9,2.9,0,0,0,4.3-10.688a1.468,1.468,0,0,0,1.264.6,1.443,1.443,0,0,0,1.249-.6,2.9,2.9,0,0,0,.431-1.718,2.912,2.912,0,0,0-.431-1.718A1.448,1.448,0,0,0,5.564-14.722Zm0-1.778a4.36,4.36,0,0,1,3.148,1.09,3.956,3.956,0,0,1,1.135,3A3.976,3.976,0,0,1,8.712-9.394,4.36,4.36,0,0,1,5.564-8.3,4.395,4.395,0,0,1,2.4-9.394a3.976,3.976,0,0,1-1.135-3.012,3.956,3.956,0,0,1,1.135-3A4.395,4.395,0,0,1,5.564-16.5Z" transform="translate(-1.266 16.5)"/>
      </g>
      <g id="Group_1002" data-name="Group 1002" transform="translate(97.129 163.104)">
        <path id="Path_55530" data-name="Path 55530" d="M2.3-11.349v-4.76H4.809v.779c0,.424,0,.957-.008,1.6s-.008,1.059-.008,1.271q0,.939.045,1.355a1.485,1.485,0,0,0,.174.605,1.062,1.062,0,0,0,.394.378,1.221,1.221,0,0,0,.575.129,1.448,1.448,0,0,0,1.226-.6,2.734,2.734,0,0,0,.446-1.665v-3.852h2.49v7.8H7.655V-9.435a3.9,3.9,0,0,1-1.2,1.006A2.988,2.988,0,0,1,5.066-8.1,2.573,2.573,0,0,1,3-8.928a3.657,3.657,0,0,1-.7-2.422Z" transform="translate(-2.297 16.109)"/>
      </g>
      <g id="Group_1003" data-name="Group 1003" transform="translate(107.376 162.915)">
        <path id="Path_55531" data-name="Path 55531" d="M10.316-13.261v4.752h-2.5v-3.64c0-.67-.015-1.135-.045-1.392a1.361,1.361,0,0,0-.159-.56,1,1,0,0,0-.4-.386,1.166,1.166,0,0,0-.568-.136,1.44,1.44,0,0,0-1.226.605,2.761,2.761,0,0,0-.446,1.672v3.837h-2.5v-7.8h2.5v1.143a3.814,3.814,0,0,1,1.2-1.006A3.059,3.059,0,0,1,7.569-16.5a2.518,2.518,0,0,1,2.043.832,3.616,3.616,0,0,1,.7,2.406Z" transform="translate(-2.469 16.5)"/>
      </g>
      <g id="Group_1004" data-name="Group 1004" transform="translate(122.62 160.501)">
        <path id="Path_55532" data-name="Path 55532" d="M2.7-21.484H7.16A4.629,4.629,0,0,1,10.2-20.6a3.07,3.07,0,0,1,1.067,2.512,3.09,3.09,0,0,1-1.067,2.52,4.65,4.65,0,0,1-3.042.878H5.39v3.61H2.7ZM5.39-19.539v2.906H6.873a1.745,1.745,0,0,0,1.2-.378A1.365,1.365,0,0,0,8.5-18.086a1.354,1.354,0,0,0-.424-1.075,1.754,1.754,0,0,0-1.2-.378Z" transform="translate(-2.703 21.484)"/>
      </g>
      <g id="Group_1005" data-name="Group 1005" transform="translate(132.968 162.915)">
        <path id="Path_55533" data-name="Path 55533" d="M8.273-14.191a3.239,3.239,0,0,0-.658-.219,2.874,2.874,0,0,0-.651-.076,1.834,1.834,0,0,0-1.483.621A2.667,2.667,0,0,0,4.966-12.1v3.595h-2.5v-7.8h2.5v1.279a3.184,3.184,0,0,1,1.1-1.112,2.967,2.967,0,0,1,1.5-.356c.079,0,.168,0,.265.008s.244.021.431.045Z" transform="translate(-2.469 16.499)"/>
      </g>
      <g id="Group_1006" data-name="Group 1006" transform="translate(139.425 162.915)">
        <path id="Path_55534" data-name="Path 55534" d="M5.564-14.722a1.473,1.473,0,0,0-1.264.6,2.912,2.912,0,0,0-.431,1.718A2.9,2.9,0,0,0,4.3-10.688a1.468,1.468,0,0,0,1.264.6,1.443,1.443,0,0,0,1.249-.6,2.9,2.9,0,0,0,.431-1.718,2.912,2.912,0,0,0-.431-1.718A1.448,1.448,0,0,0,5.564-14.722Zm0-1.778a4.36,4.36,0,0,1,3.148,1.09,3.956,3.956,0,0,1,1.135,3A3.976,3.976,0,0,1,8.712-9.394,4.36,4.36,0,0,1,5.564-8.3,4.395,4.395,0,0,1,2.4-9.394a3.976,3.976,0,0,1-1.135-3.012,3.956,3.956,0,0,1,1.135-3A4.395,4.395,0,0,1,5.564-16.5Z" transform="translate(-1.266 16.5)"/>
      </g>
      <g id="Group_1007" data-name="Group 1007" transform="translate(148.143 160.062)">
        <path id="Path_55535" data-name="Path 55535" d="M.688-19.348h2.5v7.666a3.425,3.425,0,0,1-.757,2.391,2.8,2.8,0,0,1-2.179.825H-.984V-10.1h.431a1.215,1.215,0,0,0,.976-.325,2.09,2.09,0,0,0,.265-1.256Zm0-3.042h2.5v2.036H.688Z" transform="translate(0.984 22.39)"/>
      </g>
      <g id="Group_1008" data-name="Group 1008" transform="translate(154.124 162.915)">
        <path id="Path_55536" data-name="Path 55536" d="M9.642-12.429v.7H3.808A1.874,1.874,0,0,0,4.443-10.4a2.36,2.36,0,0,0,1.521.439A5.86,5.86,0,0,0,7.576-10.2a8.2,8.2,0,0,0,1.7-.711v1.922A10.051,10.051,0,0,1,7.5-8.479,9.21,9.21,0,0,1,5.73-8.3,4.69,4.69,0,0,1,2.438-9.379a3.906,3.906,0,0,1-1.173-3.027,3.925,3.925,0,0,1,1.15-3,4.439,4.439,0,0,1,3.178-1.1,3.965,3.965,0,0,1,2.944,1.112,4,4,0,0,1,1.1,2.959Zm-2.565-.832A1.584,1.584,0,0,0,6.661-14.4a1.431,1.431,0,0,0-1.082-.439,1.7,1.7,0,0,0-1.181.409,1.905,1.905,0,0,0-.56,1.173Z" transform="translate(-1.265 16.5)"/>
      </g>
      <g id="Group_1009" data-name="Group 1009" transform="translate(163.807 162.915)">
        <path id="Path_55537" data-name="Path 55537" d="M8.159-16.068v2.036a4.049,4.049,0,0,0-1.022-.515,3.336,3.336,0,0,0-1.067-.174,2.137,2.137,0,0,0-1.627.613,2.388,2.388,0,0,0-.575,1.7,2.4,2.4,0,0,0,.575,1.71,2.146,2.146,0,0,0,1.627.605,3.46,3.46,0,0,0,1.112-.174,3.311,3.311,0,0,0,.976-.515v2.043a7.292,7.292,0,0,1-1.2.318,6.446,6.446,0,0,1-1.2.114A4.741,4.741,0,0,1,2.454-9.386a3.89,3.89,0,0,1-1.188-3.019,3.868,3.868,0,0,1,1.188-3.012A4.75,4.75,0,0,1,5.761-16.5a6.992,6.992,0,0,1,1.211.106,7.022,7.022,0,0,1,1.188.325Z" transform="translate(-1.266 16.5)"/>
      </g>
      <g id="Group_1010" data-name="Group 1010" transform="translate(171.844 160.886)">
        <path id="Path_55538" data-name="Path 55538" d="M4.121-20.688v2.217H6.694v1.778H4.121v3.315a.944.944,0,0,0,.219.734,1.367,1.367,0,0,0,.855.189H6.482v1.786H4.341a2.922,2.922,0,0,1-2.1-.613,2.922,2.922,0,0,1-.613-2.1v-3.315H.391v-1.778H1.632v-2.217Z" transform="translate(-0.391 20.688)"/>
      </g>
    </g>
  </g>
</svg>
