<svg xmlns="http://www.w3.org/2000/svg" width="95.138" height="92" viewBox="0 0 95.138 92">
  <g id="Group_1069" data-name="Group 1069" transform="translate(0 0)">
    <path id="Path_74" data-name="Path 74" d="M1394.179,883.155s-4.541,14.423-4.777,15.961.047,4.567,3.733,4.567,17.137-4.236,17.137-4.236Z" transform="translate(-1386.225 -814.069)" fill="#033333" stroke="#033333" stroke-width="1"/>
    <g id="Group_65" data-name="Group 65" transform="translate(0 0)">
      <path id="Path_54754" data-name="Path 54754" d="M47.569,0C73.84,0,95.138,20.595,95.138,46S73.84,92,47.569,92,0,71.4,0,46,21.3,0,47.569,0Z" transform="translate(0)" fill="#033333"/>
      <path id="ic_sms_24px" d="M41.651,2H5.3A4.442,4.442,0,0,0,.776,6.348L-.116,30.3-4.726,45.59,9.841,36.781H41.651A4.462,4.462,0,0,0,46.2,32.433V6.348A4.462,4.462,0,0,0,41.651,2ZM16.658,21.564H12.114V17.217h4.544Zm9.088,0H21.2V17.217h4.544Zm9.088,0H30.29V17.217h4.544Z" transform="translate(24.262 25.353)" fill="#fff"/>
    </g>
  </g>
</svg>
