<svg xmlns="http://www.w3.org/2000/svg" xmlns:xlink="http://www.w3.org/1999/xlink" width="27" height="32" viewBox="0 0 27 32">
  <defs>
    <clipPath id="clip-path">
      <rect id="Rectangle_37" data-name="Rectangle 37" width="27" height="32" transform="translate(2595 5740)" fill="#fff" stroke="#707070" stroke-width="1"/>
    </clipPath>
  </defs>
  <g id="Mask_Group_5" data-name="Mask Group 5" transform="translate(-2595 -5740)" clip-path="url(#clip-path)">
    <g id="prescription-svgrepo-com" transform="translate(2593 5740)">
      <path id="prescription_1_" d="M28,31.36H4A.36.36,0,0,1,3.64,31V1A.36.36,0,0,1,4,.64H22a.361.361,0,0,1,.255.105l6,6A.363.363,0,0,1,28.36,7V31A.36.36,0,0,1,28,31.36ZM4.36,30.64H27.64V7.36H22A.36.36,0,0,1,21.64,7V1.36H4.36Zm18-24h4.771L22.36,1.869ZM20,27.36H8v-.72H20Zm4-4H8v-.72H24Zm0-4H8v-.72H24ZM16.254,9.254l-.509-.509L13,11.491,10.748,9.239A2.36,2.36,0,0,0,10,4.64H7.64V13h.72V9.36H9.851L12.491,12,9.745,14.746l.509.509L13,12.509l2.746,2.746.509-.509L13.509,12ZM8.36,8.64V5.36H10a1.64,1.64,0,1,1,0,3.28Z" stroke="#000" stroke-width="1"/>
      <rect id="_Transparent_Rectangle" width="32" height="32" fill="none"/>
    </g>
  </g>
</svg>
