<svg xmlns="http://www.w3.org/2000/svg" xmlns:xlink="http://www.w3.org/1999/xlink" width="89" height="90" viewBox="0 0 89 90">
  <defs>
    <clipPath id="clip-path">
      <rect id="Rectangle_24" data-name="Rectangle 24" width="89" height="90" transform="translate(12788 13833)" fill="#fff" stroke="#707070" stroke-width="1"/>
    </clipPath>
  </defs>
  <g id="Mask_Group_1" data-name="Mask Group 1" transform="translate(-12788 -13833)" clip-path="url(#clip-path)">
    <g id="noun-crescent-moon-6649771" transform="translate(12788 13827.991)">
      <path id="Path_1" data-name="Path 1" d="M70.309,24.469l3.953,8.414,9.578,1.2a1.543,1.543,0,0,1,.8,2.723l-6.973,6.539,1.816,9.484a1.544,1.544,0,0,1-2.266,1.637l-8.453-4.652L60.3,54.473a1.545,1.545,0,0,1-2.258-1.641l1.816-9.484-7.047-6.609a1.544,1.544,0,0,1,.871-2.652v0l9.582-1.2,3.953-8.41V10.246A35.751,35.751,0,0,0,40.094,27.953l0,0A35.837,35.837,0,0,0,87.051,77.98a1.544,1.544,0,0,1,1.742,2.5,44.592,44.592,0,0,1-9.746,7.984c-25.684,15.578-59.266,1.953-66.805-26.836A44.983,44.983,0,0,1,69.167,7.074a1.544,1.544,0,0,1,1.141,1.492ZM56.629,8.1A41.911,41.911,0,1,0,80.82,83.559,38.913,38.913,0,0,1,37.43,26.411l0,0A38.809,38.809,0,0,1,60.672,8.388,39.777,39.777,0,0,0,56.629,8.1ZM71.836,34.961l-3.074-6.539-3.02,6.426a1.542,1.542,0,0,1-1.262,1l-7.16.9,5.223,4.9a1.534,1.534,0,0,1,.5,1.457l-1.359,7.094,6.328-3.484a1.531,1.531,0,0,1,1.484,0l6.328,3.484L74.469,43.1a1.54,1.54,0,0,1,.457-1.41l5.27-4.941-7.16-.9v0a1.562,1.562,0,0,1-1.2-.883ZM68.02,46.707Z" fill-rule="evenodd"/>
      <text id="Created_by_Hadi_Mulyono" data-name="Created by Hadi Mulyono" transform="translate(0 117.5)" font-size="5" font-family="SegoeUI-Bold, Segoe UI" font-weight="700"><tspan x="0" y="0">Created by Hadi Mulyono</tspan></text>
      <text id="from_Noun_Project" data-name="from Noun Project" transform="translate(0 122.5)" font-size="5" font-family="SegoeUI-Bold, Segoe UI" font-weight="700"><tspan x="0" y="0">from Noun Project</tspan></text>
    </g>
  </g>
</svg>
